# Blender v2.79 (sub 0) OBJ File: 'redo_fixed_360_joints.blend'
# www.blender.org
mtllib sungaya_inexpectata_31mg.mtl
o 40-m-r-tarsus.000_Sungaya_inexpectata_31mg.056
v 0.000059 -0.000003 -0.000094
v -0.000131 -0.000003 -0.000048
v 0.000137 0.000067 -0.000061
v 0.000107 0.000037 0.000039
v 0.000098 0.000049 -0.000063
v 0.000182 0.000006 -0.000155
v -0.000185 0.000041 -0.000006
v -0.000050 -0.000058 -0.000024
v 0.000447 0.000072 -0.000043
v 0.000342 0.000027 0.000010
v -0.000325 0.000088 0.000147
v 0.000335 0.000090 -0.000074
v -0.000284 -0.000052 0.000174
v -0.000357 0.000062 0.000042
v 0.000326 0.000014 -0.000197
v -0.000216 -0.000092 0.000090
v -0.000219 -0.000098 0.000006
v -0.000314 -0.000003 -0.000021
v -0.000112 0.000045 0.000034
v -0.000200 0.000055 0.000111
v 0.000130 -0.000031 0.000019
v 0.000147 -0.000043 -0.000077
v -0.000061 -0.000042 0.000071
v -0.000186 -0.000010 0.000122
v -0.000302 -0.000055 -0.000011
v 0.000188 0.000047 0.000047
v 0.000368 -0.000047 -0.000154
v 0.000257 -0.000046 -0.000070
v -0.000319 -0.000126 0.000204
v 0.000016 0.000047 0.000046
v -0.000353 0.000100 0.000108
v -0.000252 0.000064 0.000051
v -0.000396 -0.000026 0.000037
v 0.000316 0.000082 -0.000156
v -0.000383 -0.000097 0.000054
v -0.000362 -0.000133 0.000098
v 0.000028 0.000016 0.000083
v 0.000256 -0.000018 0.000012
v -0.000028 0.000038 -0.000049
v 0.000444 -0.000046 -0.000159
v 0.000476 0.000010 -0.000055
v 0.000470 0.000084 -0.000072
v 0.000432 -0.000038 -0.000195
v 0.000476 -0.000000 -0.000055
v 0.000464 0.000094 -0.000093
v 0.000473 -0.000004 -0.000064
v 0.000433 0.000087 -0.000189
v 0.000477 0.000071 -0.000053
v 0.000443 0.000090 -0.000159
v 0.000422 -0.000002 -0.000227
v 0.000476 -0.000002 -0.000056
v 0.000418 0.000022 -0.000239
v 0.000428 0.000057 -0.000204
v 0.000437 -0.000050 -0.000179
v -0.000386 0.000105 0.000100
v -0.000400 0.000041 0.000061
v -0.000407 -0.000016 0.000041
v -0.000389 0.000107 0.000093
v -0.000351 0.000007 0.000201
v -0.000358 0.000072 0.000180
v -0.000346 -0.000093 0.000212
v -0.000400 -0.000099 0.000058
v -0.000353 0.000053 0.000195
v -0.000384 -0.000138 0.000103
v -0.000345 -0.000124 0.000216
v -0.000394 0.000100 0.000078
v -0.000398 -0.000106 0.000063
v -0.000369 0.000088 0.000151
v -0.000370 -0.000129 0.000143
v -0.000408 -0.000027 0.000036
v -0.000402 -0.000090 0.000052
vt 0.200500 0.298220
vt 0.198469 0.297977
vt 0.200184 0.300185
vt 0.596322 0.441882
vt 0.596993 0.445534
vt 0.598358 0.444359
vt 0.539435 0.837470
vt 0.537591 0.837845
vt 0.538651 0.838502
vt 0.473858 0.639119
vt 0.475549 0.638277
vt 0.472829 0.634493
vt 0.540456 0.411183
vt 0.538106 0.416175
vt 0.539972 0.413920
vt 0.511765 0.010012
vt 0.514762 0.007394
vt 0.513499 0.006270
vt 0.134675 0.007083
vt 0.133655 0.009062
vt 0.137686 0.007488
vt 0.194521 0.714605
vt 0.195228 0.716160
vt 0.197048 0.715018
vt 0.137814 0.010054
vt 0.139685 0.007611
vt 0.772997 0.855577
vt 0.773306 0.855416
vt 0.773603 0.854397
vt 0.772262 0.854577
vt 0.066867 0.768543
vt 0.069986 0.767548
vt 0.068156 0.766377
vt 0.479982 0.496883
vt 0.481699 0.491541
vt 0.479515 0.491884
vt 0.539584 0.408881
vt 0.542469 0.406801
vt 0.612118 0.278182
vt 0.609244 0.280509
vt 0.611409 0.280608
vt 0.470429 0.628863
vt 0.469707 0.628551
vt 0.469531 0.629213
vt 0.206292 0.296673
vt 0.202835 0.300174
vt 0.207311 0.297113
vt 0.593245 0.451052
vt 0.593670 0.448158
vt 0.591686 0.448646
vt 0.956126 0.215996
vt 0.956159 0.217082
vt 0.957755 0.216151
vt 0.476340 0.489306
vt 0.478103 0.487974
vt 0.128014 0.004290
vt 0.132893 0.006956
vt 0.130985 0.003781
vt 0.680987 0.090129
vt 0.680990 0.088364
vt 0.679991 0.090988
vt 0.680695 0.091769
vt 0.067147 0.966538
vt 0.070031 0.967383
vt 0.071727 0.965075
vt 0.038253 0.863783
vt 0.040087 0.864744
vt 0.040972 0.863710
vt 0.197762 0.713703
vt 0.195491 0.713140
vt 0.321620 0.791050
vt 0.321997 0.791889
vt 0.322225 0.790183
vt 0.474091 0.485257
vt 0.126573 0.001846
vt 0.598169 0.440619
vt 0.601521 0.440026
vt 0.599787 0.438482
vt 0.024439 0.584393
vt 0.024946 0.582816
vt 0.024469 0.581404
vt 0.768363 0.493154
vt 0.768035 0.493468
vt 0.768369 0.495001
vt 0.769271 0.494248
vt 0.534453 0.843033
vt 0.534526 0.843176
vt 0.537820 0.843019
vt 0.534544 0.841108
vt 0.855923 0.871647
vt 0.854249 0.873728
vt 0.856470 0.873280
vt 0.067383 0.967653
vt 0.065965 0.967714
vt 0.592798 0.446862
vt 0.324456 0.789502
vt 0.323975 0.791715
vt 0.325188 0.790918
vt 0.625655 0.334760
vt 0.628213 0.332283
vt 0.628626 0.331354
vt 0.536296 0.415890
vt 0.534833 0.419036
vt 0.894521 0.335507
vt 0.892693 0.334699
vt 0.893409 0.336292
vt 0.513917 0.010167
vt 0.543709 0.408803
vt 0.542646 0.411058
vt 0.626218 0.332151
vt 0.626476 0.332148
vt 0.629572 0.328491
vt 0.143581 0.735231
vt 0.143785 0.737302
vt 0.145576 0.734963
vt 0.581774 0.133144
vt 0.581220 0.132133
vt 0.580408 0.133908
vt 0.063855 0.825246
vt 0.062832 0.825120
vt 0.061727 0.825609
vt 0.063173 0.826008
vt 0.264701 0.196822
vt 0.267541 0.197079
vt 0.266359 0.195888
vt 0.591281 0.452524
vt 0.591179 0.450897
vt 0.478589 0.494557
vt 0.606409 0.282842
vt 0.607047 0.281207
vt 0.082444 0.991321
vt 0.080140 0.992574
vt 0.081499 0.993034
vt 0.475618 0.484580
vt 0.536028 0.421045
vt 0.679931 0.088198
vt 0.472265 0.632339
vt 0.472578 0.629522
vt 0.136094 0.004884
vt 0.139728 0.005691
vt 0.821180 0.180573
vt 0.821533 0.178145
vt 0.817642 0.178581
vt 0.537849 0.410441
vt 0.125259 0.001154
vt 0.125712 0.003202
vt 0.200266 0.300832
vt 0.001820 0.586330
vt 0.001000 0.586268
vt 0.000990 0.586483
vt 0.288875 0.538216
vt 0.288870 0.537172
vt 0.287900 0.537290
vt 0.793431 0.884060
vt 0.795490 0.881233
vt 0.794050 0.882348
vt 0.629586 0.326245
vt 0.632045 0.324971
vt 0.631584 0.323592
vt 0.793272 0.882154
vt 0.197600 0.301919
vt 0.197799 0.300309
vt 0.593547 0.445539
vt 0.614189 0.276464
vt 0.613241 0.276266
vt 0.275388 0.972510
vt 0.277305 0.972247
vt 0.278686 0.970873
vt 0.278917 0.969294
vt 0.770295 0.493622
vt 0.769981 0.492380
vt 0.768744 0.492921
vt 0.249611 0.529677
vt 0.248901 0.528564
vt 0.248336 0.529742
vt 0.248369 0.529768
vt 0.062844 0.824861
vt 0.823408 0.182941
vt 0.824909 0.181792
vt 0.825340 0.180745
vt 0.481036 0.498818
vt 0.481638 0.498505
vt 0.509920 0.007980
vt 0.509611 0.008735
vt 0.511391 0.010369
vt 0.472477 0.629003
vt 0.570267 0.505807
vt 0.569405 0.506280
vt 0.569544 0.506362
vt 0.570267 0.505934
vt 0.514948 0.098834
vt 0.514896 0.098946
vt 0.515136 0.098858
vt 0.514800 0.098897
vt 0.138675 0.006570
vt 0.139543 0.006988
vt 0.773603 0.547192
vt 0.774249 0.546737
vt 0.774089 0.546365
vt 0.136182 0.010751
vt 0.136948 0.011288
vt 0.136904 0.011276
vt 0.511591 0.010403
vt 0.579718 0.665534
vt 0.578133 0.665723
vt 0.578119 0.667253
vt 0.578433 0.668150
vt 0.091377 0.441247
vt 0.091348 0.441363
vt 0.091860 0.442046
vt 0.533465 0.377389
vt 0.533070 0.376248
vt 0.532695 0.377520
vt 0.534266 0.376497
vt 0.533338 0.376092
vn -0.2794 0.9406 -0.1928
vn -0.2035 0.8726 -0.4440
vn 0.1481 0.5766 0.8035
vn -0.0162 0.9385 0.3450
vn -0.4052 -0.0546 -0.9126
vn -0.3471 -0.0741 -0.9349
vn -0.1371 -0.9468 -0.2912
vn 0.0194 -0.9051 -0.4248
vn 0.2643 -0.7681 0.5833
vn 0.3969 -0.8138 0.4244
vn -0.0000 -0.8440 -0.5364
vn -0.2964 0.0002 -0.9551
vn -0.3389 0.2537 -0.9060
vn -0.2395 -0.4198 -0.8754
vn 0.3058 -0.1236 0.9440
vn 0.3348 0.8074 0.4859
vn 0.5507 0.0288 0.8342
vn 0.2084 0.9724 -0.1051
vn 0.2720 0.8607 0.4303
vn 0.1539 0.9695 -0.1905
vn -0.3323 0.1300 0.9342
vn -0.4051 0.0982 0.9090
vn -0.6530 0.6631 -0.3659
vn -0.5368 0.8434 -0.0231
vn -0.2456 0.6073 -0.7556
vn -0.1937 0.8488 -0.4919
vn -0.0706 -0.9713 -0.2273
vn 0.1477 -0.6644 0.7326
vn 0.0763 -0.9790 0.1890
vn -0.1321 -0.6280 -0.7669
vn -0.6388 -0.7041 0.3102
vn -0.5917 -0.8060 -0.0153
vn 0.1077 -0.9537 -0.2808
vn -0.0450 0.9915 0.1217
vn -0.0853 0.4504 0.8888
vn 0.2335 0.4794 0.8460
vn 0.0666 0.9976 0.0185
vn -0.0840 0.8618 -0.5003
vn 0.1553 -0.7501 0.6428
vn 0.2979 0.2594 0.9187
vn -0.2174 -0.1477 -0.9648
vn -0.1510 0.0424 -0.9876
vn 0.6450 0.7288 -0.2299
vn 0.4734 0.6747 -0.5663
vn 0.7449 -0.6662 -0.0365
vn 0.7985 -0.5597 0.2217
vn -0.1535 0.8092 -0.5671
vn 0.8889 -0.0193 0.4577
vn 0.8525 0.2726 0.4460
vn 0.4035 0.4538 -0.7945
vn 0.2910 0.1922 -0.9372
vn 0.8509 -0.2237 0.4753
vn 0.3101 -0.0483 0.9495
vn 0.6798 -0.7333 -0.0060
vn 0.4021 -0.4428 -0.8014
vn 0.4996 -0.5417 -0.6760
vn 0.4137 -0.7006 0.5814
vn 0.7878 0.6029 0.1261
vn 0.6536 0.7568 0.0092
vn 0.5580 -0.7683 -0.3137
vn -0.7610 -0.3383 -0.5535
vn -0.7773 0.0331 -0.6282
vn -0.3487 -0.4494 0.8225
vn -0.7263 -0.6331 -0.2677
vn -0.7602 -0.5262 -0.3811
vn -0.6118 0.6452 0.4576
vn -0.4440 0.5196 0.7300
vn -0.3627 0.2843 0.8875
vn -0.8196 0.2977 -0.4895
vn -0.9235 0.1590 -0.3491
vn -0.6247 0.6819 0.3805
usemtl sungaya_inexpectata_31mg
s 1
f 3/1/1 5/2/2 4/3/3
f 5/4/2 30/5/4 4/6/3
f 6/7/5 15/8/6 22/9/7
f 8/10/8 23/11/9 16/12/10
f 17/13/11 8/14/8 16/15/10
f 33/16/12 18/17/13 25/18/14
f 24/19/15 20/20/16 13/21/17
f 31/22/18 11/23/19 32/24/20
f 59/25/21 61/26/22 13/21/17
f 66/27/23 58/28/24 31/29/18 14/30/25
f 3/31/1 34/32/26 6/33/5
f 27/34/27 38/35/28 28/36/29
f 25/37/14 17/13/11 35/38/30
f 15/39/6 6/40/5 34/41/26
f 69/42/31 64/43/32 36/44/33
f 12/45/34 26/46/35 9/47/36
f 20/48/16 19/49/37 7/50/38
f 16/51/10 23/52/9 24/53/15
f 22/54/7 28/36/29 21/55/39
f 37/56/40 24/57/15 23/58/9
f 19/59/37 20/60/16 37/61/40
f 30/62/4 19/59/37 37/61/40
f 1/63/41 3/64/1 6/65/5
f 14/66/25 32/67/20 7/68/38
f 31/22/18 32/69/20 14/70/25
f 18/71/13 7/72/38 2/73/42
f 21/55/39 8/74/8 22/54/7
f 21/75/39 37/56/40 23/58/9
f 3/76/1 26/77/35 12/78/34
f 35/79/30 33/80/12 25/81/14
f 49/82/43 47/83/44 34/84/26 12/85/34
f 46/86/45 51/87/46 38/88/28 27/89/27
f 5/90/2 39/91/47 30/92/4
f 3/64/1 1/63/41 5/93/2
f 1/63/41 39/94/47 5/93/2
f 38/35/28 21/55/39 28/36/29
f 39/95/47 7/50/38 19/49/37
f 2/96/42 7/97/38 39/98/47
f 41/99/48 48/100/49 9/101/36
f 2/102/42 1/103/41 8/14/8
f 53/104/50 52/105/51 15/106/6
f 33/16/12 14/107/25 18/17/13
f 35/38/30 17/13/11 36/108/33
f 36/108/33 17/13/11 16/109/10
f 44/110/52 41/111/48 9/101/36 10/112/53
f 40/113/54 46/114/45 27/115/27
f 15/116/6 27/117/27 22/118/7
f 50/119/55 43/120/56 27/121/27 15/122/6
f 14/123/25 7/124/38 18/125/13
f 11/126/19 20/48/16 32/127/20
f 27/34/27 28/36/29 22/128/7
f 1/129/41 6/40/5 22/130/7
f 1/131/41 2/132/42 39/133/47
f 21/55/39 23/134/9 8/74/8
f 22/135/7 8/14/8 1/103/41
f 37/61/40 20/60/16 24/136/15
f 16/137/10 29/138/57 36/44/33
f 16/139/10 13/21/17 29/140/57
f 17/13/11 2/102/42 8/14/8
f 32/127/20 20/48/16 7/50/38
f 12/141/34 34/142/26 3/143/1
f 25/37/14 2/144/42 17/13/11
f 21/145/39 4/146/3 37/56/40
f 4/3/3 26/46/35 3/1/1
f 21/147/39 26/46/35 4/3/3
f 42/148/58 9/149/36 48/150/49
f 18/151/13 2/152/42 25/153/14
f 9/154/36 26/155/35 10/156/53
f 38/157/28 26/158/35 21/159/39
f 10/156/53 26/155/35 38/160/28
f 24/19/15 13/21/17 16/139/10
f 37/161/40 4/3/3 30/162/4
f 19/49/37 30/5/4 39/163/47
f 15/39/6 52/164/51 50/165/55
f 34/166/26 47/167/44 53/168/50 15/169/6
f 12/170/34 45/171/59 49/172/43
f 10/173/53 38/174/28 51/175/46 44/176/52
f 27/121/27 43/120/56 54/177/60
f 12/141/34 9/178/36 42/179/58 45/180/59
f 27/34/27 54/181/60 40/182/54
f 53/168/50 47/167/44 49/82/43 45/171/59 42/179/58 48/150/49 41/99/48 44/110/52 51/175/46 46/86/45 40/113/54 54/181/60 43/120/56 50/119/55 52/164/51
f 33/16/12 35/183/30 71/184/61 70/185/62
f 29/138/57 65/186/63 69/42/31 36/44/33
f 35/187/30 36/188/33 64/189/32 67/190/64
f 35/191/30 62/192/65 71/193/61
f 35/191/30 67/194/64 62/192/65
f 29/195/57 13/21/17 61/26/22 65/196/63
f 11/197/19 68/198/66 60/199/67
f 20/20/16 11/200/19 60/201/67 63/202/68
f 20/20/16 63/202/68 59/25/21 13/21/17
f 33/16/12 70/185/62 57/203/69
f 14/204/25 33/205/12 56/206/70 66/207/23
f 33/208/12 57/209/69 56/210/70
f 11/211/19 55/212/71 68/213/66
f 31/214/18 58/215/24 55/212/71 11/211/19
f 64/189/32 69/42/31 65/196/63 61/26/22 59/25/21 63/202/68 60/199/67 68/213/66 55/212/71 58/28/24 66/207/23 56/210/70 57/203/69 70/185/62 71/193/61 62/192/65 67/190/64
