# Blender v2.79 (sub 0) OBJ File: 'redo_fixed_360_joints.blend'
# www.blender.org
mtllib sungaya_inexpectata_31mg.mtl
o 28-h-l-tibia_Sungaya_inexpectata_31mg.012
v -0.000804 -0.000047 -0.000538
v 0.000111 -0.000023 -0.000275
v 0.000017 -0.000056 -0.000348
v 0.000030 -0.000028 -0.000251
v 0.001322 0.000022 0.000355
v -0.000705 -0.000105 -0.000340
v -0.001035 -0.000096 -0.000616
v -0.000971 -0.000052 -0.000561
v 0.001271 0.000110 0.000742
v 0.001352 0.000055 0.000792
v -0.002468 -0.000080 -0.000571
v 0.000494 0.000035 0.000050
v 0.000962 0.000034 0.000435
v 0.000985 0.000076 0.000436
v -0.001477 -0.000145 -0.000624
v -0.002289 0.000074 -0.000540
v 0.001813 0.000031 0.000962
v 0.001835 -0.000080 0.000747
v -0.001125 -0.000138 -0.000598
v -0.002035 0.000087 -0.000566
v -0.002043 0.000114 -0.000644
v -0.000090 -0.000151 -0.000336
v -0.000064 -0.000126 -0.000162
v -0.002480 0.000172 -0.000616
v -0.002005 -0.000130 -0.000605
v 0.001216 -0.000010 0.000338
v 0.001111 -0.000040 0.000307
v -0.001928 -0.000134 -0.000705
v 0.001195 0.000111 0.000455
v 0.001074 0.000095 0.000419
v 0.001369 0.000163 0.000595
v 0.001662 -0.000013 0.000822
v -0.000344 -0.000112 -0.000506
v 0.000501 0.000003 -0.000141
v 0.001572 0.000190 0.000856
v 0.001389 0.000143 0.000799
v -0.000382 -0.000026 -0.000329
v -0.000436 -0.000151 -0.000380
v -0.001663 -0.000000 -0.000718
v -0.001640 0.000039 -0.000646
v -0.000191 -0.000018 -0.000262
v -0.000543 -0.000158 -0.000529
v -0.000793 -0.000152 -0.000622
v -0.000754 -0.000155 -0.000585
v -0.000791 -0.000185 -0.000564
v 0.001657 0.000008 0.000572
v 0.001984 0.000069 0.000636
v -0.000501 -0.000065 -0.000484
v -0.000529 -0.000041 -0.000415
v 0.001024 -0.000021 0.000181
v 0.000993 -0.000005 0.000136
v -0.000575 -0.000143 -0.000306
v -0.000587 -0.000080 -0.000319
v 0.001146 0.000136 0.000572
v 0.001887 0.000278 0.000864
v 0.001775 0.000266 0.000886
v -0.000026 -0.000135 -0.000199
v -0.001127 -0.000116 -0.000670
v -0.001860 -0.000146 -0.000647
v 0.001835 0.000182 0.000647
v 0.001858 0.000138 0.000602
v 0.001425 0.000212 0.000744
v -0.001463 -0.000004 -0.000510
v 0.000856 0.000034 0.000075
v 0.001883 -0.000076 0.000694
v 0.001562 0.000121 0.000572
v -0.001574 -0.000006 -0.000692
v -0.001662 -0.000045 -0.000750
v -0.001854 -0.000079 -0.000495
v 0.001232 -0.000017 0.000489
v -0.000731 -0.000040 -0.000374
v -0.002205 0.000025 -0.000758
v 0.000054 -0.000109 -0.000128
v 0.000218 -0.000117 -0.000109
v 0.000098 -0.000104 -0.000096
v -0.002176 0.000026 -0.000506
v -0.002077 -0.000092 -0.000482
v 0.001580 0.000173 0.000650
v 0.001746 0.000166 0.000925
v 0.000182 0.000006 -0.000113
v -0.001798 0.000059 -0.000500
v -0.000098 -0.000029 -0.000330
v 0.001487 0.000023 0.000481
v -0.000706 -0.000164 -0.000405
v -0.001265 -0.000114 -0.000668
v -0.001728 0.000051 -0.000506
v 0.001846 0.000063 0.000570
v 0.000924 0.000085 0.000276
v -0.001375 -0.000133 -0.000499
v 0.001189 0.000005 0.000636
v 0.000997 -0.000057 0.000266
v -0.002395 0.000087 -0.000572
v 0.000848 -0.000011 0.000349
v 0.000899 -0.000068 0.000205
v -0.002117 -0.000140 -0.000627
v 0.000468 -0.000088 0.000023
v 0.000515 -0.000046 0.000118
v -0.002468 0.000018 -0.000562
v 0.001222 0.000072 0.000374
v 0.000387 -0.000115 -0.000123
v -0.002469 -0.000048 -0.000558
v -0.001175 -0.000082 -0.000440
v 0.000879 0.000061 0.000355
v 0.001452 -0.000024 0.000600
v 0.000370 -0.000003 -0.000166
v -0.001211 -0.000042 -0.000591
v -0.001463 -0.000091 -0.000489
v -0.001568 -0.000152 -0.000632
v 0.000502 0.000043 -0.000018
v -0.002222 0.000070 -0.000729
v -0.001391 -0.000014 -0.000487
v 0.000751 -0.000025 -0.000033
v 0.000732 -0.000054 -0.000033
v -0.001749 -0.000077 -0.000504
v 0.000606 -0.000043 -0.000125
v 0.000493 -0.000090 -0.000133
v -0.000845 -0.000160 -0.000443
v -0.000993 -0.000035 -0.000434
v 0.000324 0.000020 -0.000046
v -0.000712 -0.000154 -0.000351
v 0.000701 -0.000091 0.000020
v 0.000393 -0.000064 -0.000214
v -0.001725 0.000048 -0.000654
v 0.000449 -0.000005 0.000061
v -0.000001 -0.000020 -0.000192
v -0.002372 -0.000029 -0.000759
v -0.000234 -0.000094 -0.000451
v 0.001087 -0.000002 0.000456
v -0.002470 0.000120 -0.000566
v -0.001452 -0.000042 -0.000691
v 0.001075 0.000010 0.000541
v -0.000434 -0.000032 -0.000404
v -0.000297 -0.000046 -0.000398
v 0.000642 0.000054 0.000047
v -0.000708 -0.000176 -0.000495
v -0.001350 -0.000154 -0.000603
v -0.000959 -0.000173 -0.000461
v -0.000837 -0.000183 -0.000519
v -0.001696 0.000035 -0.000543
v -0.002182 -0.000101 -0.000497
v -0.001593 0.000030 -0.000500
v -0.001601 -0.000072 -0.000485
v 0.001166 0.000158 0.000596
v 0.001304 -0.000016 0.000733
v 0.000584 0.000022 0.000136
v -0.000386 -0.000162 -0.000452
v 0.001895 0.000010 0.000945
v -0.002112 -0.000051 -0.000749
v -0.002044 -0.000128 -0.000707
v 0.001546 0.000218 0.000790
v 0.001449 0.000189 0.000798
v 0.000159 -0.000124 -0.000260
v -0.001956 0.000081 -0.000496
v 0.000943 -0.000010 0.000348
v 0.000274 -0.000006 -0.000172
v -0.001837 0.000088 -0.000646
v -0.002439 -0.000082 -0.000660
v 0.001684 0.000213 0.000775
v 0.001551 0.000077 0.000875
v -0.000441 -0.000118 -0.000272
v 0.001655 0.000066 0.000918
v -0.000674 -0.000139 -0.000552
v -0.001399 0.000001 -0.000547
v -0.001361 -0.000003 -0.000630
v -0.000288 -0.000014 -0.000280
v -0.000515 -0.000032 -0.000334
v 0.000226 -0.000084 -0.000051
v 0.000260 -0.000029 -0.000048
v -0.000601 -0.000183 -0.000440
v -0.002164 0.000092 -0.000505
v -0.002208 0.000128 -0.000662
v -0.002302 0.000163 -0.000679
v -0.000208 -0.000144 -0.000433
v 0.001689 0.000128 0.000596
v 0.001124 0.000055 0.000283
v 0.001664 -0.000058 0.000689
v 0.001021 0.000037 0.000199
v 0.001110 0.000003 0.000225
v -0.000834 -0.000109 -0.000367
v -0.000830 -0.000159 -0.000378
v -0.000679 -0.000044 -0.000501
v -0.001034 -0.000141 -0.000418
v 0.000612 -0.000069 0.000118
v -0.000266 -0.000152 -0.000367
v -0.000314 -0.000127 -0.000251
v 0.000719 0.000042 0.000173
v -0.000347 -0.000148 -0.000295
v -0.000165 -0.000120 -0.000209
v -0.000168 -0.000144 -0.000244
v 0.000129 -0.000098 -0.000332
v -0.000950 -0.000144 -0.000618
v 0.000576 0.000017 -0.000079
v -0.001950 0.000015 -0.000758
v -0.001779 -0.000085 -0.000743
v 0.001522 -0.000033 0.000701
v 0.000732 0.000058 0.000092
v -0.001670 0.000042 -0.000497
v 0.000357 -0.000065 0.000026
v -0.001049 -0.000156 -0.000565
v 0.001530 0.000009 0.000844
v 0.001393 0.000073 0.000434
v -0.001551 0.000025 -0.000604
v -0.001308 -0.000018 -0.000516
v -0.001884 0.000069 -0.000721
v -0.000745 -0.000027 -0.000404
v -0.001157 -0.000136 -0.000447
v -0.000221 -0.000075 -0.000229
v 0.001836 0.000186 0.000919
v 0.000026 -0.000071 -0.000138
v 0.000809 0.000065 0.000268
v 0.000690 0.000020 -0.000036
v -0.002217 -0.000137 -0.000681
v 0.001405 -0.000020 0.000776
v 0.001676 0.000058 0.000540
v -0.001559 -0.000123 -0.000561
v -0.001861 0.000049 -0.000499
v -0.001946 0.000104 -0.000672
v -0.001300 -0.000103 -0.000461
v 0.001731 0.000038 0.000943
v 0.001936 -0.000040 0.000897
v 0.000836 0.000067 0.000167
v -0.000069 -0.000109 -0.000419
v -0.001355 -0.000086 -0.000708
v -0.002345 -0.000129 -0.000664
v -0.002313 0.000131 -0.000607
v 0.000511 -0.000106 -0.000041
v -0.002310 -0.000020 -0.000772
v -0.000885 -0.000031 -0.000420
v -0.001162 -0.000154 -0.000480
v -0.000301 -0.000069 -0.000452
v 0.001882 0.000241 0.000734
v -0.001694 -0.000116 -0.000573
v 0.001226 -0.000028 0.000428
v -0.002276 -0.000090 -0.000519
v 0.000221 -0.000047 -0.000276
v 0.000658 -0.000035 0.000167
v 0.000685 -0.000000 0.000202
v 0.001939 0.000269 0.000855
v -0.001467 0.000019 -0.000665
v 0.001663 0.000232 0.000864
v -0.002411 0.000027 -0.000731
v -0.001251 -0.000036 -0.000465
v -0.001172 -0.000030 -0.000500
v 0.001341 -0.000040 0.000511
v 0.001834 -0.000029 0.000879
v 0.001361 0.000209 0.000711
v -0.000533 -0.000162 -0.000338
v -0.001727 -0.000010 -0.000751
v -0.001103 -0.000035 -0.000534
v 0.002021 0.000142 0.000644
v -0.002091 0.000067 -0.000737
v -0.002491 0.000082 -0.000706
v -0.002290 -0.000059 -0.000762
v 0.000785 -0.000096 0.000088
v -0.001637 -0.000130 -0.000659
v 0.001022 0.000084 0.000283
v -0.001745 -0.000142 -0.000666
v -0.001951 -0.000100 -0.000481
v -0.001562 -0.000072 -0.000733
v 0.000761 -0.000038 0.000259
v 0.001957 -0.000112 0.000838
v 0.000363 -0.000102 -0.000220
v -0.002415 0.000178 -0.000700
v 0.001963 -0.000136 0.000772
v -0.002492 -0.000028 -0.000678
v 0.001079 -0.000049 0.000336
v 0.000980 0.000014 0.000443
v 0.001548 0.000041 0.000495
v -0.000009 -0.000126 -0.000384
v -0.002199 -0.000104 -0.000737
v 0.001160 0.000005 0.000244
v -0.002511 0.000039 -0.000572
v -0.002501 0.000167 -0.000649
v -0.002496 -0.000028 -0.000681
v -0.002511 0.000118 -0.000577
v -0.002506 0.000163 -0.000617
v -0.002496 -0.000028 -0.000679
v -0.002497 -0.000030 -0.000672
v -0.002493 0.000082 -0.000708
v -0.002493 0.000081 -0.000707
v -0.002512 -0.000007 -0.000569
v -0.002507 -0.000046 -0.000597
v -0.002512 0.000109 -0.000575
v -0.002510 -0.000037 -0.000578
v -0.002507 -0.000059 -0.000602
v -0.002499 0.000167 -0.000664
v -0.002502 -0.000057 -0.000634
v -0.002494 0.000097 -0.000698
v -0.002505 0.000168 -0.000624
v 0.002018 -0.000043 0.000718
v 0.001956 -0.000041 0.000895
v 0.001989 0.000282 0.000793
v 0.002028 0.000222 0.000684
v 0.001993 0.000280 0.000781
v 0.001967 0.000231 0.000858
v 0.002002 0.000290 0.000755
v 0.001959 0.000152 0.000883
v 0.002042 0.000121 0.000646
v 0.001955 -0.000005 0.000896
v 0.001950 0.000022 0.000910
v 0.002036 0.000170 0.000661
v 0.002004 -0.000104 0.000757
v 0.002010 -0.000083 0.000741
v 0.002000 -0.000140 0.000772
v 0.001984 -0.000152 0.000818
v 0.002041 0.000148 0.000647
v 0.001968 -0.000081 0.000862
v 0.001972 -0.000129 0.000849
v 0.001955 0.000117 0.000895
v 0.001960 0.000168 0.000878
v 0.002024 0.000232 0.000694
v 0.002036 0.000067 0.000664
v 0.001993 -0.000154 0.000792
v 0.001986 0.000279 0.000801
v 0.002007 0.000285 0.000742
vt 0.838267 0.444630
vt 0.835732 0.444600
vt 0.837753 0.443326
vt 0.080974 0.970297
vt 0.082263 0.972305
vt 0.081954 0.975704
vt 0.565330 0.180018
vt 0.563948 0.177879
vt 0.565309 0.178785
vt 0.744882 0.097018
vt 0.744192 0.099118
vt 0.744016 0.097544
vt 0.492838 0.449592
vt 0.488938 0.450845
vt 0.492723 0.448517
vt 0.569026 0.971407
vt 0.566337 0.971071
vt 0.566792 0.968825
vt 0.764872 0.842543
vt 0.766311 0.841841
vt 0.766160 0.843141
vt 0.236027 0.193392
vt 0.234313 0.194343
vt 0.235236 0.192551
vt 0.621630 0.950201
vt 0.624586 0.949607
vt 0.623201 0.952304
vt 0.052827 0.627621
vt 0.050729 0.627680
vt 0.051892 0.626817
vt 0.642205 0.490593
vt 0.639895 0.486166
vt 0.641695 0.486394
vt 0.917060 0.410952
vt 0.919028 0.413763
vt 0.917839 0.413467
vt 0.927684 0.724845
vt 0.930644 0.725113
vt 0.927276 0.725790
vt 0.274567 0.696512
vt 0.274302 0.699941
vt 0.272999 0.698354
vt 0.447938 0.606459
vt 0.446671 0.605753
vt 0.447310 0.603789
vt 0.166512 0.826164
vt 0.165457 0.827917
vt 0.164689 0.826467
vt 0.129218 0.803169
vt 0.129197 0.801824
vt 0.129095 0.799564
vt 0.759869 0.417178
vt 0.758387 0.416924
vt 0.759154 0.415121
vt 0.780901 0.993264
vt 0.781769 0.993513
vt 0.781219 0.993625
vt 0.383922 0.091946
vt 0.386156 0.092233
vt 0.384203 0.093152
vt 0.128374 0.834470
vt 0.130762 0.834898
vt 0.129298 0.835556
vt 0.631148 0.671344
vt 0.634026 0.674017
vt 0.632465 0.676178
vt 0.295899 0.241614
vt 0.294664 0.240404
vt 0.297446 0.241715
vt 0.313786 0.541321
vt 0.314679 0.539378
vt 0.315479 0.542089
vt 0.794067 0.323057
vt 0.797019 0.323288
vt 0.795067 0.324879
vt 0.558034 0.257010
vt 0.556377 0.254425
vt 0.557687 0.255622
vt 0.885117 0.958265
vt 0.885932 0.959038
vt 0.883726 0.960441
vt 0.678614 0.005361
vt 0.679850 0.001864
vt 0.681399 0.004150
vt 0.131914 0.910760
vt 0.133383 0.911041
vt 0.134227 0.912680
vt 0.864990 0.449463
vt 0.861985 0.449760
vt 0.862348 0.448173
vt 0.704039 0.748589
vt 0.700836 0.748061
vt 0.699264 0.745146
vt 0.691619 0.251378
vt 0.691877 0.254430
vt 0.691000 0.253816
vt 0.674866 0.005743
vt 0.552224 0.652619
vt 0.550082 0.657384
vt 0.549549 0.655312
vt 0.797931 0.993548
vt 0.798023 0.995373
vt 0.796291 0.994984
vt 0.490819 0.443597
vt 0.487177 0.449282
vt 0.486607 0.445197
vt 0.971595 0.797283
vt 0.972081 0.798451
vt 0.971175 0.798541
vt 0.877229 0.847208
vt 0.874787 0.847000
vt 0.876752 0.846044
vt 0.843876 0.172031
vt 0.842790 0.172910
vt 0.842827 0.171896
vt 0.842012 0.165894
vt 0.840742 0.166447
vt 0.841153 0.165168
vt 0.492159 0.445653
vt 0.444361 0.603184
vt 0.445245 0.600573
vt 0.194033 0.949807
vt 0.196789 0.949459
vt 0.194605 0.953353
vt 0.033631 0.653331
vt 0.034730 0.651188
vt 0.035315 0.654177
vt 0.535277 0.556764
vt 0.535122 0.554268
vt 0.538342 0.561005
vt 0.696596 0.717258
vt 0.694858 0.715870
vt 0.697928 0.714744
vt 0.046205 0.359840
vt 0.046243 0.357999
vt 0.047267 0.358179
vt 0.787053 0.506559
vt 0.789968 0.505746
vt 0.785936 0.507795
vt 0.857296 0.550890
vt 0.857731 0.552507
vt 0.856187 0.553107
vt 0.257288 0.836949
vt 0.254731 0.838324
vt 0.255997 0.832412
vt 0.857532 0.290074
vt 0.858412 0.289339
vt 0.858999 0.291278
vt 0.017110 0.336541
vt 0.016015 0.335579
vt 0.018092 0.335726
vt 0.099255 0.155648
vt 0.098761 0.154563
vt 0.100124 0.154554
vt 0.399256 0.436093
vt 0.401217 0.433613
vt 0.408121 0.434253
vt 0.442490 0.599234
vt 0.441004 0.601783
vt 0.191164 0.526698
vt 0.188761 0.528534
vt 0.186443 0.528223
vt 0.734609 0.894021
vt 0.735242 0.892900
vt 0.736101 0.893921
vt 0.369445 0.914189
vt 0.367833 0.915814
vt 0.365966 0.915416
vt 0.096174 0.917264
vt 0.094337 0.915331
vt 0.095709 0.914574
vt 0.539036 0.556126
vt 0.401751 0.524069
vt 0.400895 0.524447
vt 0.401524 0.522912
vt 0.221145 0.087314
vt 0.220039 0.086995
vt 0.221946 0.085972
vt 0.032759 0.749873
vt 0.030945 0.751015
vt 0.033154 0.748762
vt 0.219136 0.143827
vt 0.220130 0.144367
vt 0.219511 0.145027
vt 0.764008 0.621455
vt 0.765547 0.623541
vt 0.763175 0.623217
vt 0.074578 0.678536
vt 0.075703 0.678908
vt 0.076221 0.680179
vt 0.432523 0.269694
vt 0.434175 0.271488
vt 0.432619 0.271652
vt 0.311410 0.544035
vt 0.313219 0.549248
vt 0.309472 0.548661
vt 0.446641 0.608132
vt 0.445348 0.609009
vt 0.443700 0.606360
vt 0.218806 0.177714
vt 0.219658 0.179063
vt 0.217964 0.179160
vt 0.083631 0.773788
vt 0.084468 0.776272
vt 0.082050 0.775389
vt 0.434916 0.583034
vt 0.438394 0.586896
vt 0.436500 0.586913
vt 0.745046 0.661083
vt 0.745786 0.660463
vt 0.746977 0.661272
vt 0.374404 0.309191
vt 0.371433 0.305852
vt 0.374086 0.305938
vt 0.375186 0.309777
vt 0.849029 0.507573
vt 0.846726 0.506631
vt 0.848289 0.505876
vt 0.696400 0.718254
vt 0.096440 0.638404
vt 0.097124 0.640016
vt 0.095748 0.639436
vt 0.571957 0.814559
vt 0.572980 0.810938
vt 0.575040 0.812203
vt 0.942150 0.856708
vt 0.939772 0.856842
vt 0.940880 0.855912
vt 0.090997 0.648991
vt 0.091699 0.645468
vt 0.092526 0.648557
vt 0.826571 0.959313
vt 0.828720 0.958321
vt 0.828392 0.959329
vt 0.534301 0.320636
vt 0.534691 0.323475
vt 0.533517 0.322688
vt 0.285368 0.519114
vt 0.285603 0.519970
vt 0.284251 0.519416
vt 0.077563 0.800193
vt 0.076283 0.798906
vt 0.079618 0.799866
vt 0.130369 0.835924
vt 0.026812 0.366323
vt 0.027320 0.365204
vt 0.028240 0.365932
vt 0.629174 0.992467
vt 0.631548 0.988437
vt 0.633449 0.991487
vt 0.861215 0.292275
vt 0.859992 0.289652
vt 0.861729 0.290792
vt 0.646949 0.086748
vt 0.647274 0.084445
vt 0.648233 0.085859
vt 0.728934 0.126459
vt 0.728297 0.124124
vt 0.730097 0.123565
vt 0.820415 0.739543
vt 0.822178 0.740317
vt 0.821178 0.741404
vt 0.817936 0.770194
vt 0.819019 0.770589
vt 0.819930 0.772308
vt 0.644841 0.677567
vt 0.646390 0.678714
vt 0.645258 0.681296
vt 0.567957 0.001512
vt 0.570822 0.001807
vt 0.569651 0.003566
vt 0.269908 0.995142
vt 0.272989 0.995414
vt 0.272032 0.998221
vt 0.210111 0.915119
vt 0.207372 0.916593
vt 0.207075 0.914798
vt 0.939710 0.618217
vt 0.939929 0.617262
vt 0.940392 0.617683
vt 0.293607 0.860582
vt 0.292183 0.859115
vt 0.292961 0.858130
vt 0.195448 0.953612
vt 0.196606 0.952869
vt 0.668303 0.844169
vt 0.667317 0.841356
vt 0.669602 0.838494
vt 0.634740 0.148744
vt 0.633252 0.148853
vt 0.633278 0.147549
vt 0.366263 0.091103
vt 0.365039 0.090863
vt 0.365678 0.088953
vt 0.536848 0.552547
vt 0.807849 0.967249
vt 0.808929 0.968584
vt 0.806925 0.969228
vt 0.073317 0.526031
vt 0.074716 0.525073
vt 0.074989 0.526198
vt 0.704302 0.744097
vt 0.702116 0.744088
vt 0.703830 0.742449
vt 0.507759 0.424738
vt 0.508142 0.427209
vt 0.505323 0.428617
vt 0.069888 0.587597
vt 0.071342 0.586621
vt 0.070767 0.587901
vt 0.745726 0.329404
vt 0.744023 0.331589
vt 0.744582 0.329751
vt 0.746056 0.331062
vt 0.518342 0.957010
vt 0.518972 0.960868
vt 0.514792 0.960995
vt 0.515291 0.963428
vt 0.474291 0.089716
vt 0.473933 0.092614
vt 0.473068 0.091576
vt 0.442840 0.608070
vt 0.545478 0.651667
vt 0.543200 0.650595
vt 0.544567 0.649149
vt 0.020204 0.374656
vt 0.020138 0.376130
vt 0.019226 0.374279
vt 0.066502 0.581269
vt 0.067184 0.580555
vt 0.068105 0.581430
vt 0.544813 0.771329
vt 0.543125 0.769068
vt 0.545266 0.769180
vt 0.887451 0.034811
vt 0.888625 0.034579
vt 0.888653 0.035748
vt 0.553274 0.656358
vt 0.385300 0.188989
vt 0.385725 0.188204
vt 0.384532 0.190143
vt 0.639260 0.490438
vt 0.411721 0.062786
vt 0.415839 0.064011
vt 0.412489 0.065792
vt 0.141208 0.798515
vt 0.140094 0.802071
vt 0.138760 0.802095
vt 0.769778 0.590496
vt 0.771243 0.589407
vt 0.773653 0.589996
vt 0.235040 0.092681
vt 0.233785 0.092817
vt 0.233727 0.091821
vt 0.852330 0.523630
vt 0.849413 0.522620
vt 0.852469 0.522321
vt 0.186397 0.012157
vt 0.186604 0.013724
vt 0.185738 0.012972
vt 0.484836 0.448628
vt 0.484593 0.451914
vt 0.542106 0.646409
vt 0.543508 0.646814
vt 0.541878 0.648322
vt 0.917024 0.557789
vt 0.917738 0.558918
vt 0.915812 0.558243
vt 0.549735 0.659727
vt 0.412104 0.059195
vt 0.415753 0.061449
vt 0.197604 0.525990
vt 0.199622 0.526692
vt 0.197773 0.526895
vt 0.164350 0.831132
vt 0.163105 0.831523
vt 0.369167 0.913002
vt 0.889846 0.860979
vt 0.892039 0.861347
vt 0.890500 0.862758
vt 0.450388 0.791480
vt 0.450873 0.790685
vt 0.452199 0.792267
vt 0.641530 0.492921
vt 0.642248 0.495068
vt 0.303497 0.780101
vt 0.300888 0.781475
vt 0.305382 0.778044
vt 0.301077 0.777478
vt 0.358863 0.156451
vt 0.357118 0.157497
vt 0.357792 0.155429
vt 0.082173 0.777054
vt 0.965307 0.208683
vt 0.966645 0.207196
vt 0.966420 0.208576
vt 0.470757 0.100693
vt 0.471397 0.102856
vt 0.470512 0.103528
vt 0.633194 0.994129
vt 0.573491 0.715025
vt 0.574372 0.715718
vt 0.573983 0.716029
vt 0.403514 0.432430
vt 0.405692 0.432688
vt 0.370076 0.158163
vt 0.370623 0.159103
vt 0.368609 0.158711
vt 0.368539 0.159728
vt 0.354519 0.152786
vt 0.355089 0.151451
vt 0.356428 0.151976
vt 0.155656 0.947358
vt 0.155583 0.946179
vt 0.158960 0.947159
vt 0.158646 0.945356
vt 0.771344 0.993375
vt 0.773334 0.995203
vt 0.772356 0.995443
vt 0.218314 0.831116
vt 0.219336 0.830830
vt 0.217498 0.833958
vt 0.418686 0.108730
vt 0.420130 0.108530
vt 0.420610 0.109552
vt 0.775905 0.701563
vt 0.774948 0.701141
vt 0.776102 0.699292
vt 0.445816 0.945239
vt 0.445649 0.948787
vt 0.444548 0.947900
vt 0.957464 0.777965
vt 0.960363 0.780074
vt 0.957120 0.779015
vt 0.537660 0.312443
vt 0.535020 0.310612
vt 0.537699 0.310176
vt 0.567429 0.750032
vt 0.568324 0.748812
vt 0.569309 0.751586
vt 0.747672 0.909052
vt 0.747618 0.906530
vt 0.748832 0.907793
vt 0.406297 0.436005
vt 0.410184 0.435826
vt 0.447598 0.931115
vt 0.446857 0.933193
vt 0.444611 0.932225
vt 0.203337 0.756941
vt 0.204153 0.760647
vt 0.202484 0.759089
vt 0.925810 0.453868
vt 0.924654 0.456184
vt 0.924566 0.453446
vt 0.492411 0.441146
vt 0.491981 0.443446
vt 0.535039 0.562114
vt 0.955593 0.223126
vt 0.954138 0.223613
vt 0.954897 0.222442
vt 0.418994 0.115699
vt 0.419156 0.116754
vt 0.417426 0.114773
vt 0.080351 0.968961
vt 0.081446 0.969025
vt 0.190764 0.701198
vt 0.191816 0.700090
vt 0.192005 0.703227
vt 0.135199 0.411935
vt 0.134683 0.413161
vt 0.133823 0.412243
vt 0.019093 0.128575
vt 0.018365 0.129973
vt 0.018062 0.128717
vt 0.017299 0.746282
vt 0.016061 0.744413
vt 0.015496 0.742000
vt 0.328691 0.425688
vt 0.327600 0.432237
vt 0.325295 0.429060
vt 0.325029 0.428262
vt 0.749140 0.799579
vt 0.747223 0.798026
vt 0.750551 0.798763
vt 0.374127 0.919561
vt 0.377456 0.919688
vt 0.377883 0.921690
vt 0.584678 0.672149
vt 0.583890 0.671007
vt 0.585720 0.665537
vt 0.134389 0.452984
vt 0.133204 0.453046
vt 0.134371 0.451676
vt 0.971616 0.616574
vt 0.973440 0.616478
vt 0.973928 0.618301
vt 0.834338 0.291181
vt 0.835678 0.292929
vt 0.834570 0.292831
vt 0.543906 0.656090
vt 0.542181 0.653322
vt 0.543356 0.652812
vt 0.094025 0.919609
vt 0.096440 0.919312
vt 0.095690 0.920969
vt 0.627785 0.990009
vt 0.152515 0.728167
vt 0.150907 0.730276
vt 0.149911 0.728250
vt 0.771942 0.112001
vt 0.771933 0.110197
vt 0.773899 0.109365
vt 0.852035 0.324856
vt 0.853276 0.326745
vt 0.850513 0.325812
vt 0.695893 0.003257
vt 0.692436 0.001627
vt 0.697021 0.002559
vt 0.665419 0.844555
vt 0.665467 0.843337
vt 0.929715 0.779917
vt 0.930440 0.781162
vt 0.928177 0.781082
vt 0.204924 0.918177
vt 0.258129 0.753081
vt 0.259394 0.750639
vt 0.259907 0.754203
vt 0.024295 0.869556
vt 0.027004 0.869442
vt 0.024310 0.870728
vt 0.921818 0.808962
vt 0.922064 0.809939
vt 0.919045 0.808188
vt 0.182735 0.266624
vt 0.184250 0.266218
vt 0.182769 0.268302
vt 0.215611 0.589048
vt 0.216572 0.588065
vt 0.216930 0.589064
vt 0.277938 0.105112
vt 0.275821 0.104340
vt 0.278117 0.103949
vt 0.642364 0.949520
vt 0.644267 0.953752
vt 0.641798 0.950764
vt 0.533754 0.547084
vt 0.535152 0.545852
vt 0.687127 0.267938
vt 0.686747 0.266201
vt 0.687869 0.267176
vt 0.687381 0.268020
vt 0.588576 0.741895
vt 0.591501 0.739279
vt 0.591246 0.740523
vt 0.588954 0.741799
vt 0.534700 0.099815
vt 0.533348 0.098046
vt 0.534708 0.097172
vt 0.439600 0.597990
vt 0.438385 0.596055
vt 0.441233 0.596386
vt 0.414569 0.057558
vt 0.864725 0.342260
vt 0.865621 0.344162
vt 0.862902 0.345818
vt 0.415523 0.072725
vt 0.414077 0.073271
vt 0.414524 0.071560
vt 0.162451 0.829613
vt 0.164058 0.827925
vt 0.155417 0.855888
vt 0.152805 0.858150
vt 0.152725 0.855826
vt 0.930718 0.462541
vt 0.931753 0.464602
vt 0.929969 0.463521
vt 0.058344 0.208010
vt 0.057331 0.208348
vt 0.057793 0.207770
vt 0.687978 0.757342
vt 0.684180 0.760117
vt 0.685280 0.757842
vt 0.656442 0.800799
vt 0.657935 0.799491
vt 0.657579 0.803790
vt 0.144186 0.644423
vt 0.144293 0.649450
vt 0.142487 0.647102
vt 0.655360 0.796564
vt 0.424657 0.186520
vt 0.424091 0.184802
vt 0.426085 0.186346
vt 0.635118 0.675799
vt 0.104881 0.819392
vt 0.102824 0.823219
vt 0.102209 0.822029
vt 0.902869 0.250731
vt 0.903856 0.249284
vt 0.904437 0.250471
vt 0.940919 0.348224
vt 0.938568 0.346112
vt 0.941245 0.345830
vt 0.752145 0.414713
vt 0.750909 0.412432
vt 0.754276 0.414493
vt 0.172664 0.130554
vt 0.174100 0.130678
vt 0.173766 0.132280
vt 0.371844 0.308810
vt 0.215762 0.017497
vt 0.215330 0.016525
vt 0.216620 0.016245
vt 0.763398 0.912756
vt 0.765455 0.914578
vt 0.764107 0.915177
vt 0.777839 0.288222
vt 0.782809 0.287982
vt 0.782077 0.288925
vt 0.448282 0.038656
vt 0.447452 0.038759
vt 0.448556 0.037385
vt 0.447186 0.946043
vt 0.446257 0.942832
vt 0.977279 0.125105
vt 0.979025 0.125079
vt 0.978030 0.125793
vt 0.833867 0.361139
vt 0.834656 0.362765
vt 0.833312 0.364009
vt 0.641829 0.683790
vt 0.644913 0.685949
vt 0.646401 0.683425
vt 0.789150 0.281011
vt 0.788353 0.278937
vt 0.790947 0.279271
vt 0.272275 0.694914
vt 0.270185 0.695976
vt 0.518092 0.248741
vt 0.517301 0.249016
vt 0.517037 0.246976
vt 0.340614 0.130002
vt 0.341366 0.131590
vt 0.339838 0.131803
vt 0.704713 0.747308
vt 0.702854 0.746072
vt 0.824176 0.976112
vt 0.822733 0.978488
vt 0.822398 0.976581
vt 0.937309 0.298224
vt 0.937616 0.300860
vt 0.935403 0.300293
vt 0.688659 0.977637
vt 0.687219 0.975493
vt 0.689866 0.976646
vt 0.207722 0.243136
vt 0.206241 0.243119
vt 0.207905 0.241727
vt 0.794500 0.864142
vt 0.794496 0.864073
vt 0.794654 0.864274
vt 0.589674 0.294848
vt 0.589702 0.294836
vt 0.589791 0.294927
vt 0.326409 0.441705
vt 0.328495 0.438343
vt 0.328097 0.440866
vt 0.504515 0.433070
vt 0.734431 0.367954
vt 0.735473 0.367362
vt 0.736367 0.368245
vt 0.002543 0.853090
vt 0.000970 0.850923
vt 0.002409 0.851349
vt 0.117647 0.216203
vt 0.117925 0.214862
vt 0.120188 0.214948
vt 0.416205 0.067152
vt 0.416794 0.065367
vt 0.593625 0.250082
vt 0.594745 0.249084
vt 0.595013 0.250991
vt 0.471173 0.150075
vt 0.472903 0.150452
vt 0.470263 0.151197
vt 0.195137 0.947853
vt 0.745322 0.903627
vt 0.744407 0.903129
vt 0.746438 0.902335
vt 0.745495 0.903525
vt 0.170657 0.262546
vt 0.170196 0.263787
vt 0.169045 0.264175
vt 0.958064 0.872913
vt 0.959299 0.872839
vt 0.960650 0.874783
vt 0.447608 0.607676
vt 0.655088 0.802701
vt 0.655477 0.801424
vt 0.286258 0.361811
vt 0.285086 0.362926
vt 0.285187 0.361714
vt 0.331811 0.422964
vt 0.331292 0.425362
vt 0.168136 0.910773
vt 0.170112 0.907288
vt 0.167936 0.913350
vt 0.438213 0.584407
vt 0.070842 0.789289
vt 0.071030 0.790922
vt 0.069925 0.790434
vt 0.504842 0.803262
vt 0.507745 0.803827
vt 0.504746 0.804697
vt 0.209365 0.043921
vt 0.207878 0.044567
vt 0.207247 0.043697
vt 0.263059 0.653228
vt 0.264724 0.651863
vt 0.261573 0.653645
vt 0.674571 0.564718
vt 0.673496 0.563039
vt 0.675822 0.564070
vt 0.006860 0.678747
vt 0.007635 0.676420
vt 0.008809 0.677975
vt 0.535568 0.314308
vt 0.536900 0.318090
vt 0.534483 0.318140
vt 0.440287 0.592332
vt 0.437856 0.591615
vt 0.967084 0.424171
vt 0.968171 0.429184
vt 0.966387 0.428252
vt 0.239252 0.347842
vt 0.239005 0.349146
vt 0.237914 0.347911
vt 0.779405 0.705568
vt 0.779922 0.706602
vt 0.777378 0.705768
vt 0.244514 0.474713
vt 0.245852 0.475677
vt 0.244691 0.476303
vt 0.566261 0.745161
vt 0.075199 0.678235
vt 0.075417 0.674763
vt 0.076271 0.676966
vt 0.393823 0.435968
vt 0.397048 0.434343
vt 0.764661 0.117310
vt 0.764753 0.115810
vt 0.765861 0.115703
vt 0.021314 0.827676
vt 0.019936 0.826180
vt 0.021873 0.825097
vt 0.417988 0.762530
vt 0.419196 0.758547
vt 0.420657 0.762070
vt 0.442176 0.594340
vt 0.442387 0.592375
vt 0.233150 0.323358
vt 0.232976 0.324454
vt 0.232061 0.322842
vt 0.409724 0.259026
vt 0.410305 0.259820
vt 0.409255 0.260186
vt 0.946321 0.264736
vt 0.945108 0.264711
vt 0.946586 0.263324
vt 0.147642 0.940070
vt 0.149656 0.941841
vt 0.145775 0.941904
vt 0.756935 0.350174
vt 0.758391 0.349338
vt 0.758176 0.351189
vt 0.838975 0.866856
vt 0.838801 0.865324
vt 0.840712 0.865940
vt 0.213816 0.377510
vt 0.214877 0.377136
vt 0.214638 0.378334
vt 0.502787 0.437630
vt 0.504861 0.436503
vt 0.504163 0.440398
vt 0.636554 0.486205
vt 0.312942 0.538310
vt 0.049508 0.673518
vt 0.049510 0.676371
vt 0.047830 0.673162
vt 0.686123 0.002672
vt 0.683297 0.004432
vt 0.337046 0.188879
vt 0.334748 0.188444
vt 0.336681 0.187460
vt 0.324243 0.433529
vt 0.763608 0.840855
vt 0.020197 0.906823
vt 0.019526 0.908898
vt 0.019562 0.905709
vt 0.764790 0.372833
vt 0.764221 0.371917
vt 0.766171 0.372034
vt 0.537355 0.321944
vt 0.539359 0.320291
vt 0.538753 0.323177
vt 0.536677 0.324541
vt 0.538078 0.325183
vt 0.676868 0.001806
vt 0.172187 0.823935
vt 0.173483 0.825230
vt 0.170589 0.824788
vt 0.968723 0.131355
vt 0.968715 0.134076
vt 0.968037 0.132433
vt 0.295273 0.860181
vt 0.295986 0.864163
vt 0.294758 0.863369
vt 0.810571 0.372626
vt 0.809633 0.371473
vt 0.812351 0.373039
vt 0.851865 0.428838
vt 0.853532 0.430214
vt 0.850558 0.430384
vt 0.156517 0.045854
vt 0.157494 0.046583
vt 0.156988 0.047852
vt 0.190893 0.704327
vt 0.026992 0.871255
vt 0.025767 0.870697
vt 0.708718 0.271669
vt 0.709732 0.268482
vt 0.709784 0.270912
vt 0.220724 0.346653
vt 0.219044 0.345554
vt 0.220529 0.345658
vt 0.566379 0.741040
vt 0.567183 0.742862
vt 0.616474 0.650298
vt 0.618224 0.652224
vt 0.616526 0.653735
vt 0.494294 0.448775
vt 0.707860 0.149293
vt 0.708754 0.150170
vt 0.707402 0.150946
vt 0.223005 0.974446
vt 0.224176 0.975014
vt 0.223592 0.976994
vt 0.937250 0.704094
vt 0.940046 0.704820
vt 0.936745 0.706058
vt 0.849652 0.865630
vt 0.849522 0.863358
vt 0.851530 0.865265
vt 0.867763 0.115730
vt 0.866523 0.115239
vt 0.867052 0.114596
vt 0.021555 0.202798
vt 0.021034 0.204086
vt 0.020081 0.203436
vt 0.572181 0.816192
vt 0.574418 0.816379
vt 0.045279 0.658110
vt 0.044876 0.656848
vt 0.047048 0.657631
vt 0.424472 0.923646
vt 0.425676 0.921042
vt 0.426377 0.922366
vt 0.968547 0.774143
vt 0.968383 0.773099
vt 0.970086 0.772631
vt 0.670898 0.005888
vt 0.674634 0.003442
vt 0.323516 0.442519
vt 0.325206 0.445336
vt 0.325582 0.447630
vt 0.540047 0.558188
vt 0.716216 0.128404
vt 0.714923 0.127352
vt 0.716262 0.125834
vt 0.613122 0.305954
vt 0.611732 0.301038
vt 0.613805 0.302590
vt 0.894842 0.949444
vt 0.892585 0.950491
vt 0.891658 0.948869
vt 0.987952 0.134558
vt 0.989255 0.134629
vt 0.988189 0.135329
vt 0.467252 0.723152
vt 0.464933 0.725539
vt 0.464617 0.724098
vt 0.436747 0.189502
vt 0.436462 0.191019
vt 0.434925 0.190760
vt 0.154951 0.669261
vt 0.155562 0.665714
vt 0.155924 0.668746
vt 0.505822 0.801758
vt 0.507119 0.800057
vt 0.506984 0.802228
vt 0.068947 0.787414
vt 0.070950 0.786579
vt 0.069143 0.789538
vt 0.976427 0.635132
vt 0.975156 0.634889
vt 0.976349 0.633955
vt 0.907572 0.564752
vt 0.908990 0.566367
vt 0.908236 0.566815
vt 0.327129 0.445590
vt 0.415251 0.724978
vt 0.413828 0.725859
vt 0.414818 0.721815
vt 0.780038 0.966602
vt 0.777762 0.966295
vt 0.780191 0.965588
vt 0.801586 0.870595
vt 0.803214 0.870553
vt 0.802810 0.872204
vt 0.912327 0.057127
vt 0.911711 0.055427
vt 0.912922 0.055443
vt 0.406881 0.249292
vt 0.406900 0.249303
vt 0.405990 0.250361
vt 0.405976 0.250321
vt 0.414507 0.057496
vt 0.414525 0.057474
vt 0.446845 0.928276
vt 0.593747 0.302368
vt 0.591942 0.304913
vt 0.591003 0.302544
vt 0.047497 0.921257
vt 0.048586 0.918710
vt 0.049324 0.921382
vt 0.819201 0.683162
vt 0.822901 0.684948
vt 0.819495 0.684182
vt 0.073452 0.301700
vt 0.073272 0.303541
vt 0.072413 0.301523
vt 0.157104 0.168520
vt 0.155138 0.168980
vt 0.155850 0.167535
vt 0.689049 0.002576
vt 0.686715 0.005143
vt 0.876832 0.162653
vt 0.877640 0.163902
vt 0.876330 0.163536
vt 0.131053 0.831599
vt 0.131047 0.830336
vt 0.131323 0.834182
vt 0.046503 0.711283
vt 0.048831 0.710946
vt 0.048704 0.713116
vt 0.308888 0.541159
vt 0.311305 0.541483
vt 0.724459 0.168872
vt 0.725196 0.170536
vt 0.723772 0.171437
vt 0.010871 0.245049
vt 0.012595 0.244392
vt 0.013169 0.245235
vt 0.786800 0.914098
vt 0.785823 0.913026
vt 0.787018 0.912258
vt 0.582993 0.244667
vt 0.584048 0.245368
vt 0.582346 0.246544
vt 0.588329 0.297547
vt 0.589669 0.298454
vt 0.587213 0.298629
vt 0.587517 0.297712
vt 0.440744 0.589169
vt 0.896221 0.658252
vt 0.898911 0.657089
vt 0.898163 0.658842
vt 0.097561 0.155009
vt 0.797981 0.165101
vt 0.796359 0.165252
vt 0.797100 0.164351
vt 0.874993 0.271379
vt 0.875167 0.269902
vt 0.876030 0.269888
vt 0.284126 0.868638
vt 0.282194 0.863266
vt 0.283611 0.862779
vt 0.909374 0.306723
vt 0.906309 0.308134
vt 0.906313 0.306207
vt 0.908850 0.565071
vt 0.910297 0.563793
vt 0.910249 0.565055
vt 0.694219 0.719457
vt 0.694911 0.721343
vt 0.693600 0.721806
vt 0.878765 0.185821
vt 0.878910 0.186916
vt 0.877606 0.186869
vt 0.486444 0.451773
vt 0.487515 0.451364
vt 0.593670 0.305366
vt 0.592603 0.306039
vt 0.880126 0.276214
vt 0.879986 0.277838
vt 0.878202 0.278154
vt 0.990928 0.505534
vt 0.991530 0.503894
vt 0.993093 0.507925
vt 0.576028 0.003258
vt 0.579859 0.004034
vt 0.576198 0.005017
vt 0.755988 0.804438
vt 0.757992 0.804094
vt 0.757246 0.805095
vt 0.821913 0.683301
vt 0.680540 0.165393
vt 0.680043 0.164408
vt 0.680004 0.162137
vt 0.064458 0.030726
vt 0.065913 0.031270
vt 0.063873 0.031882
vt 0.655791 0.806951
vt 0.657636 0.807618
vt 0.147882 0.254955
vt 0.147110 0.254794
vt 0.147607 0.253567
vt 0.699675 0.004544
vt 0.702476 0.003613
vt 0.741018 0.854090
vt 0.741591 0.852715
vt 0.742087 0.853990
vt 0.823945 0.981202
vt 0.821951 0.982208
vt 0.822069 0.981328
vt 0.738828 0.724312
vt 0.742622 0.724772
vt 0.740758 0.725210
vt 0.003903 0.032185
vt 0.003323 0.033788
vt 0.002293 0.033345
vt 0.613173 0.300480
vt 0.427138 0.922706
vt 0.425638 0.926447
vt 0.304118 0.545738
vt 0.304207 0.544821
vt 0.305476 0.545083
vt 0.304233 0.547559
vt 0.642265 0.678981
vt 0.325146 0.439046
vt 0.015576 0.748432
vt 0.885860 0.433358
vt 0.887942 0.432382
vt 0.887645 0.434098
vt 0.108761 0.418229
vt 0.107051 0.418864
vt 0.107903 0.417132
vt 0.538484 0.319105
vt 0.141388 0.908202
vt 0.137803 0.907148
vt 0.138181 0.905771
vt 0.192095 0.705510
vt 0.191736 0.709575
vt 0.415123 0.015067
vt 0.416289 0.013864
vt 0.416550 0.015128
vt 0.784715 0.887689
vt 0.782332 0.889283
vt 0.781801 0.888033
vt 0.784159 0.470609
vt 0.780560 0.472042
vt 0.781363 0.470502
vt 0.783685 0.471529
vt 0.812618 0.372007
vt 0.760611 0.573845
vt 0.760088 0.571861
vt 0.761862 0.572034
vt 0.741362 0.338695
vt 0.742599 0.340454
vt 0.740497 0.340030
vt 0.797697 0.930560
vt 0.801355 0.931660
vt 0.798686 0.931739
vt 0.375489 0.302521
vt 0.376130 0.301772
vt 0.380297 0.304956
vt 0.022336 0.763458
vt 0.025042 0.766022
vt 0.021138 0.764668
vt 0.153766 0.817043
vt 0.151576 0.821141
vt 0.151996 0.817674
vt 0.119312 0.672732
vt 0.119526 0.671498
vt 0.120351 0.672893
vt 0.756865 0.271367
vt 0.755995 0.270528
vt 0.757534 0.269826
vt 0.253004 0.758255
vt 0.255206 0.756252
vt 0.255288 0.758134
vt 0.254604 0.760236
vt 0.254937 0.763001
vt 0.254107 0.761914
vt 0.865492 0.495211
vt 0.864185 0.497660
vt 0.862281 0.495523
vt 0.778968 0.289174
vt 0.777003 0.289415
vt 0.313054 0.535995
vt 0.314512 0.537290
vt 0.137394 0.946205
vt 0.134823 0.949496
vt 0.135176 0.947607
vt 0.937270 0.730517
vt 0.937326 0.733033
vt 0.936764 0.731756
vt 0.577305 0.091876
vt 0.579317 0.091167
vt 0.577326 0.093258
vt 0.544906 0.765443
vt 0.545240 0.767368
vt 0.543137 0.766482
vt 0.560307 0.245382
vt 0.558886 0.247612
vt 0.559166 0.246293
vt 0.049193 0.679112
vt 0.048428 0.676424
vt 0.049466 0.676623
vt 0.057622 0.247527
vt 0.058184 0.248672
vt 0.056883 0.248397
vt 0.315309 0.534997
vt 0.485014 0.153026
vt 0.484618 0.154763
vt 0.483903 0.152518
vt 0.545982 0.654462
vt 0.688556 0.985129
vt 0.689757 0.984715
vt 0.690963 0.985718
vt 0.799455 0.687993
vt 0.796920 0.689478
vt 0.795961 0.688765
vt 0.960601 0.369664
vt 0.961128 0.371201
vt 0.960366 0.370099
vt 0.494691 0.447668
vt 0.911099 0.141431
vt 0.912618 0.141221
vt 0.913473 0.141953
vt 0.790537 0.586616
vt 0.789383 0.586713
vt 0.786487 0.585940
vt 0.792867 0.626654
vt 0.793211 0.624032
vt 0.795280 0.627117
vt 0.074718 0.055392
vt 0.073594 0.055098
vt 0.074147 0.054127
vt 0.765229 0.838299
vt 0.763115 0.838355
vt 0.761831 0.837109
vt 0.132755 0.053362
vt 0.131720 0.054453
vt 0.132268 0.052003
vt 0.670241 0.814302
vt 0.670084 0.811797
vt 0.671502 0.810862
vt 0.668327 0.812752
vt 0.641204 0.485010
vt 0.642524 0.483464
vt 0.703474 0.144217
vt 0.702068 0.144073
vt 0.702437 0.142341
vt 0.752407 0.829467
vt 0.749463 0.828841
vt 0.751912 0.828294
vt 0.045052 0.655207
vt 0.045722 0.652644
vt 0.047049 0.654355
vt 0.139106 0.518182
vt 0.137976 0.518915
vt 0.138327 0.517971
vt 0.316551 0.113425
vt 0.315106 0.112794
vt 0.316602 0.111092
vt 0.705382 0.825524
vt 0.706505 0.823959
vt 0.703625 0.828652
vt 0.890375 0.221368
vt 0.889581 0.222429
vt 0.889143 0.221320
vt 0.574425 0.182641
vt 0.576204 0.180818
vt 0.575085 0.182946
vt 0.308908 0.447196
vt 0.306336 0.445230
vt 0.308641 0.445742
vt 0.960423 0.654049
vt 0.959137 0.654502
vt 0.958854 0.652513
vt 0.701105 0.742321
vt 0.307341 0.544461
vt 0.153580 0.731402
vt 0.151902 0.731251
vt 0.411144 0.065993
vt 0.409785 0.063206
vt 0.466724 0.718692
vt 0.467819 0.719717
vt 0.220289 0.827662
vt 0.221122 0.827648
vt 0.368791 0.023194
vt 0.368043 0.023005
vt 0.368333 0.018072
vt 0.029052 0.745850
vt 0.028833 0.749605
vt 0.028618 0.748000
vt 0.289870 0.372635
vt 0.290682 0.374292
vt 0.289690 0.374210
vt 0.201023 0.525053
vt 0.202075 0.526059
vt 0.853348 0.977503
vt 0.854836 0.979605
vt 0.853377 0.978651
vt 0.838714 0.293076
vt 0.837039 0.293688
vt 0.835659 0.290807
vt 0.956786 0.771307
vt 0.958627 0.771826
vt 0.957967 0.773401
vt 0.395849 0.433312
vt 0.396605 0.432515
vt 0.399207 0.433664
vt 0.187249 0.529609
vt 0.184866 0.529587
vt 0.504572 0.799822
vt 0.376161 0.085840
vt 0.375004 0.087127
vt 0.374298 0.085604
vt 0.313856 0.545313
vt 0.370312 0.308599
vt 0.420522 0.173350
vt 0.420493 0.175028
vt 0.418733 0.173496
vt 0.704180 0.459686
vt 0.704781 0.458366
vt 0.705059 0.458947
vt 0.869841 0.437024
vt 0.870221 0.439363
vt 0.868673 0.439427
vt 0.285087 0.865150
vt 0.222818 0.981811
vt 0.221958 0.979570
vt 0.689417 0.251105
vt 0.688780 0.250767
vt 0.689869 0.248767
vt 0.267796 0.839946
vt 0.267730 0.844682
vt 0.266405 0.841610
vt 0.185032 0.655788
vt 0.182247 0.654401
vt 0.182605 0.652089
vt 0.327004 0.417014
vt 0.327737 0.418129
vt 0.326538 0.419451
vt 0.972965 0.798491
vt 0.972517 0.797123
vt 0.973755 0.796801
vt 0.061512 0.831266
vt 0.063234 0.828224
vt 0.064079 0.831560
vt 0.542841 0.770640
vt 0.542818 0.772052
vt 0.220809 0.727137
vt 0.219042 0.729870
vt 0.219395 0.726573
vt 0.790171 0.882509
vt 0.788727 0.881193
vt 0.790075 0.880984
vt 0.366530 0.007630
vt 0.367486 0.007509
vt 0.367158 0.010537
vt 0.307986 0.095770
vt 0.307761 0.092484
vt 0.308479 0.093524
vt 0.017826 0.645384
vt 0.020180 0.644828
vt 0.017193 0.648868
vt 0.566346 0.001621
vt 0.568310 0.002744
vt 0.567591 0.004385
vt 0.634609 0.988670
vt 0.633785 0.986802
vt 0.666855 0.559981
vt 0.666094 0.559830
vt 0.665806 0.558803
vt 0.579769 0.222534
vt 0.581220 0.224981
vt 0.579457 0.223294
vt 0.188982 0.411729
vt 0.187882 0.411495
vt 0.188697 0.410851
vt 0.368501 0.013589
vt 0.924319 0.513346
vt 0.923774 0.511844
vt 0.925721 0.513226
vt 0.571588 0.004424
vt 0.392998 0.123064
vt 0.394365 0.124709
vt 0.392667 0.124580
vt 0.492584 0.093616
vt 0.492758 0.092540
vt 0.493846 0.094987
vt 0.493154 0.094501
vt 0.705316 0.831437
vt 0.709778 0.823311
vt 0.706709 0.830326
vt 0.412237 0.071967
vt 0.697938 0.128463
vt 0.697663 0.127695
vt 0.700314 0.128818
vt 0.667970 0.006495
vt 0.668791 0.007717
vt 0.744207 0.460144
vt 0.742861 0.460988
vt 0.742937 0.458567
vt 0.002922 0.706504
vt 0.001290 0.704351
vt 0.004696 0.705257
vt 0.818741 0.804732
vt 0.819223 0.802696
vt 0.820306 0.802464
vt 0.522625 0.909038
vt 0.523274 0.909690
vt 0.522298 0.909973
vt 0.709308 0.826050
vt 0.535936 0.326056
vt 0.533695 0.328114
vt 0.264764 0.844323
vt 0.701558 0.001265
vt 0.927172 0.275686
vt 0.927755 0.277863
vt 0.925401 0.279620
vt 0.032539 0.807304
vt 0.030079 0.809534
vt 0.031241 0.805412
vt 0.702537 0.752535
vt 0.699811 0.752778
vt 0.930670 0.737470
vt 0.929302 0.737847
vt 0.929280 0.737021
vt 0.929567 0.737096
vt 0.130597 0.797410
vt 0.131954 0.797796
vt 0.693098 0.003502
vt 0.214135 0.919990
vt 0.215453 0.918757
vt 0.215009 0.920312
vt 0.615047 0.648561
vt 0.617249 0.645280
vt 0.617384 0.647350
vt 0.536154 0.319705
vt 0.567810 0.264901
vt 0.565606 0.266981
vt 0.565611 0.265318
vt 0.863821 0.518416
vt 0.863572 0.516818
vt 0.865407 0.516910
vt 0.861839 0.518177
vt 0.805568 0.287041
vt 0.804836 0.286554
vt 0.805162 0.285665
vt 0.806384 0.284740
vt 0.265758 0.244790
vt 0.265387 0.244516
vt 0.265671 0.244191
vt 0.060332 0.982946
vt 0.060402 0.982899
vt 0.060637 0.983064
vt 0.588915 0.296372
vt 0.589073 0.296273
vt 0.306513 0.444705
vt 0.306858 0.444616
vt 0.308922 0.444691
vt 0.931743 0.738455
vt 0.930807 0.736450
vt 0.930978 0.736300
vt 0.931763 0.736535
vt 0.001577 0.279523
vt 0.001232 0.278961
vt 0.001770 0.279393
vt 0.781318 0.992223
vt 0.781310 0.993246
vt 0.780986 0.992350
vt 0.311175 0.447081
vt 0.311068 0.445818
vt 0.312153 0.445408
vt 0.312741 0.446470
vt 0.702178 0.459110
vt 0.702510 0.459767
vt 0.455132 0.151277
vt 0.455426 0.151529
vt 0.455059 0.151923
vt 0.485058 0.452345
vt 0.303362 0.544510
vt 0.494928 0.448078
vt 0.380518 0.306320
vt 0.376177 0.309562
vt 0.309299 0.552457
vt 0.306995 0.551404
vt 0.304630 0.547442
vt 0.785625 0.767015
vt 0.786687 0.767084
vt 0.787410 0.767746
vt 0.786935 0.768214
vt 0.049059 0.923061
vt 0.047571 0.923869
vt 0.047002 0.924046
vt 0.046803 0.923299
vn 0.1430 0.8453 -0.5148
vn 0.1888 0.7130 -0.6753
vn 0.0167 0.9052 -0.4246
vn 0.1719 0.7225 -0.6696
vn 0.0668 0.9390 -0.3373
vn 0.2930 0.7058 -0.6450
vn -0.6118 0.7627 0.2098
vn 0.0178 0.9294 -0.3687
vn -0.7268 0.6369 0.2570
vn 0.0479 -0.2903 -0.9557
vn 0.5811 -0.2559 -0.7726
vn 0.1371 -0.9634 -0.2302
vn 0.8923 -0.2606 -0.3687
vn 0.8743 -0.3767 -0.3062
vn 0.3888 -0.3498 -0.8523
vn 0.2190 0.3054 0.9267
vn 0.0795 0.9035 0.4212
vn -0.1750 0.8782 0.4452
vn -0.3542 -0.6234 0.6971
vn 0.0033 -0.9685 0.2489
vn -0.3829 -0.5545 0.7388
vn 0.0811 0.5332 -0.8421
vn 0.2956 -0.0662 -0.9530
vn 0.0342 0.6657 -0.7455
vn -0.1666 0.0714 0.9834
vn -0.1816 -0.6088 0.7723
vn 0.0106 -0.5225 0.8526
vn -0.3251 0.8254 0.4616
vn -0.1921 0.2891 0.9378
vn -0.2364 -0.9689 0.0734
vn -0.1706 -0.8843 0.4346
vn -0.1173 -0.9906 -0.0711
vn -0.0391 -0.9880 -0.1494
vn -0.1695 -0.8296 0.5320
vn -0.1531 -0.4359 0.8869
vn 0.2118 0.7405 0.6378
vn 0.0091 0.6420 0.7667
vn -0.3939 -0.1862 0.9001
vn -0.2115 -0.5605 0.8007
vn -0.2410 0.3816 0.8924
vn -0.6021 0.0734 0.7951
vn -0.4644 0.7214 0.5137
vn -0.5138 -0.4966 0.6996
vn -0.0991 -0.9389 0.3297
vn 0.0721 -0.9962 0.0493
vn -0.0986 -0.9360 0.3380
vn -0.0620 0.1018 -0.9929
vn -0.3403 -0.2259 -0.9128
vn -0.3173 0.1261 -0.9399
vn -0.5033 -0.6980 0.5095
vn -0.2602 -0.9402 -0.2199
vn -0.8345 0.1109 0.5397
vn 0.0995 0.4324 0.8962
vn -0.8006 0.3854 0.4588
vn 0.1609 -0.2181 -0.9626
vn 0.1359 0.8829 -0.4494
vn 0.2457 0.5385 -0.8060
vn -0.0493 -0.9817 -0.1840
vn 0.0007 -0.8654 -0.5011
vn -0.0435 -0.9649 -0.2591
vn 0.1995 0.9308 -0.3063
vn 0.2607 0.9438 -0.2029
vn 0.1716 0.9851 0.0149
vn -0.0839 0.9901 0.1126
vn -0.3435 0.6955 0.6311
vn -0.2879 0.4918 0.8217
vn 0.0531 -0.6203 0.7826
vn 0.0499 0.5907 0.8053
vn 0.2391 0.9107 -0.3369
vn 0.1911 -0.1010 -0.9764
vn -0.2839 -0.4126 0.8655
vn -0.3621 -0.1855 0.9135
vn -0.0542 -0.9458 -0.3202
vn 0.0233 -0.9882 -0.1513
vn -0.0840 0.8631 0.4980
vn -0.2233 0.4026 0.8877
vn -0.1735 -0.2248 0.9589
vn -0.0878 -0.9259 0.3675
vn -0.2775 -0.3610 0.8903
vn 0.2398 0.9429 -0.2313
vn 0.2573 0.9317 -0.2562
vn -0.0906 0.8024 -0.5899
vn 0.1147 -0.9718 -0.2062
vn 0.1329 -0.9774 -0.1641
vn 0.1136 -0.9912 -0.0682
vn 0.2023 0.8687 -0.4520
vn 0.4689 -0.3350 -0.8172
vn 0.3017 0.8006 -0.5177
vn 0.1256 -0.7510 -0.6482
vn 0.0675 -0.7985 -0.5982
vn -0.3037 0.8748 0.3775
vn -0.0211 0.9992 -0.0345
vn -0.0514 0.9877 -0.1479
vn 0.6165 0.0767 -0.7836
vn 0.4051 0.6615 -0.6311
vn 0.1347 -0.9830 -0.1250
vn -0.3370 -0.6400 0.6905
vn -0.0383 -0.8793 0.4746
vn 0.3750 -0.2558 -0.8910
vn 0.0951 -0.9866 -0.1326
vn -0.3946 0.8800 0.2643
vn -0.6824 0.2247 0.6956
vn -0.0217 -0.8142 -0.5801
vn -0.0116 0.1304 -0.9914
vn 0.0823 -0.4987 -0.8628
vn 0.1920 0.8399 -0.5077
vn -0.6124 0.2273 0.7571
vn 0.1483 0.7235 0.6742
vn 0.0185 0.6551 0.7553
vn 0.2630 -0.9566 -0.1254
vn 0.5801 -0.5145 -0.6315
vn 0.0292 0.9128 -0.4075
vn 0.0457 0.9063 -0.4201
vn 0.3325 0.6484 -0.6848
vn -0.1409 0.9819 0.1265
vn -0.3589 -0.0294 0.9329
vn -0.4647 0.3739 0.8027
vn 0.0587 0.9871 0.1487
vn 0.1685 0.9797 0.1087
vn 0.2036 0.7412 -0.6397
vn -0.1862 0.1887 0.9642
vn -0.1753 -0.9390 0.2960
vn -0.5051 -0.5360 0.6764
vn -0.2110 0.9298 0.3015
vn -0.3930 0.3311 0.8579
vn -0.4228 0.4160 0.8051
vn -0.3476 0.8972 0.2724
vn -0.0047 0.9893 -0.1458
vn 0.3700 0.7382 -0.5640
vn 0.4259 0.0469 -0.9036
vn 0.2741 0.7173 -0.6406
vn -0.0614 -0.9459 -0.3184
vn -0.0035 -0.9986 0.0526
vn 0.0334 -0.9982 -0.0490
vn -0.1197 -0.9699 0.2120
vn 0.0507 -0.9880 -0.1456
vn 0.0552 -0.9827 0.1768
vn -0.0682 -0.9959 0.0597
vn -0.6342 -0.6317 0.4458
vn 0.0826 0.9329 -0.3506
vn 0.3162 -0.0795 -0.9454
vn 0.2403 0.4626 -0.8534
vn 0.2061 0.7521 -0.6261
vn -0.3393 0.9043 0.2593
vn 0.2285 0.9730 -0.0335
vn 0.2011 0.7293 -0.6540
vn 0.0821 0.9804 -0.1789
vn 0.7671 0.5694 -0.2955
vn 0.6177 0.7527 -0.2279
vn -0.0463 -0.8981 0.4373
vn -0.0815 -0.3580 0.9301
vn 0.1659 -0.0723 -0.9835
vn 0.9033 0.0197 -0.4285
vn 0.1126 0.9202 -0.3748
vn -0.1023 0.9531 -0.2849
vn -0.2374 0.9088 -0.3430
vn -0.5783 0.6943 0.4285
vn -0.0450 0.9894 -0.1384
vn -0.0936 0.9949 -0.0365
vn 0.0477 0.7795 0.6246
vn 0.0302 0.6674 0.7441
vn 0.0216 0.9362 -0.3508
vn 0.0372 0.8609 -0.5073
vn -0.0047 -0.9882 0.1533
vn 0.0063 -0.9965 0.0836
vn 0.6687 0.1322 0.7317
vn 0.3619 0.6234 0.6931
vn 0.6901 0.1303 0.7119
vn 0.1307 -0.9561 0.2623
vn 0.1586 0.9850 -0.0687
vn 0.0440 0.6053 -0.7948
vn 0.1090 0.9938 -0.0213
vn 0.1115 0.9761 0.1865
vn 0.0756 -0.9909 -0.1113
vn 0.3862 -0.5241 -0.7591
vn -0.3889 -0.7377 0.5518
vn -0.1969 -0.9704 0.1401
vn 0.0829 -0.9854 -0.1485
vn -0.0441 0.9811 -0.1886
vn -0.1788 -0.7534 0.6328
vn -0.0653 -0.9879 0.1404
vn -0.0380 -0.7466 0.6642
vn -0.2239 -0.7048 0.6731
vn 0.3704 -0.6586 -0.6550
vn 0.2141 0.9619 -0.1703
vn 0.0688 0.9699 0.2336
vn 0.5417 -0.1254 -0.8312
vn -0.2003 0.9701 0.1372
vn 0.0675 -0.9938 0.0885
vn 0.1175 -0.9691 -0.2168
vn 0.0255 -0.9992 0.0310
vn -0.2231 -0.8400 0.4945
vn -0.4302 -0.1537 0.8896
vn -0.1294 0.9572 0.2587
vn 0.0302 0.9794 -0.1996
vn 0.1317 0.8024 -0.5820
vn -0.8103 -0.4165 0.4122
vn -0.9206 -0.3071 0.2411
vn 0.0571 -0.9382 0.3415
vn 0.0009 -1.0000 0.0032
vn 0.2110 -0.0095 -0.9774
vn 0.0988 0.3087 -0.9460
vn -0.2539 -0.5273 0.8108
vn -0.2538 0.3409 0.9052
vn -0.6041 -0.4532 0.6555
vn -0.5878 -0.6694 0.4543
vn 0.1051 -0.5439 0.8325
vn -0.2554 -0.8266 0.5016
vn 0.0530 0.9539 -0.2955
vn -0.1040 0.7713 0.6280
vn 0.0059 0.8256 0.5642
vn -0.0340 0.3901 0.9201
vn 0.1014 -0.9903 -0.0954
vn -0.0653 -0.9383 0.3396
vn 0.1824 0.9501 -0.2531
vn -0.1734 0.9020 0.3953
vn -0.1861 0.9481 0.2579
vn -0.0051 0.9687 -0.2482
vn -0.2630 0.1513 0.9529
vn -0.1844 -0.5456 0.8175
vn -0.1275 0.7622 0.6347
vn 0.0977 -0.5396 0.8362
vn 0.0983 0.6757 0.7306
vn 0.2718 -0.7328 -0.6238
vn -0.4560 -0.8061 -0.3773
vn 0.5539 0.5799 -0.5975
vn 0.6983 0.0521 -0.7139
vn -0.2423 -0.8926 -0.3801
vn 0.0399 0.7226 -0.6902
vn 0.0830 -0.9956 0.0425
vn -0.1949 -0.6616 -0.7241
vn -0.4512 -0.6547 0.6065
vn -0.0793 0.8879 0.4532
vn -0.4390 -0.6582 0.6116
vn 0.1252 0.7118 -0.6911
vn -0.1093 -0.2853 0.9522
vn 0.2890 -0.8670 -0.4058
vn 0.4264 0.1676 -0.8889
vn 0.5353 -0.0596 -0.8425
vn 0.1497 0.7292 0.6677
vn -0.0375 0.9961 -0.0796
vn 0.0434 -0.5107 0.8587
vn -0.0865 -0.2605 0.9616
vn 0.3009 -0.3012 0.9048
vn -0.2024 0.9254 0.3205
vn 0.0639 0.5790 -0.8129
vn -0.0713 -0.9721 -0.2234
vn 0.1877 0.1027 -0.9768
vn 0.1735 -0.5266 -0.8322
vn 0.1459 -0.2065 -0.9675
vn 0.0145 -0.9823 0.1866
vn -0.2348 -0.4948 0.8367
vn -0.0660 -0.9742 0.2158
vn 0.1273 -0.0944 -0.9874
vn 0.1128 -0.3973 -0.9107
vn 0.4419 0.8871 0.1335
vn 0.5936 0.7978 0.1053
vn 0.6932 0.5413 0.4760
vn -0.4204 0.6353 0.6478
vn 0.0885 0.1643 -0.9824
vn 0.0622 -0.1795 -0.9818
vn 0.0991 -0.8182 -0.5663
vn 0.0077 -0.7007 -0.7135
vn 0.3419 -0.8829 -0.3218
vn 0.5500 -0.3007 0.7792
vn 0.8111 -0.0919 0.5776
vn -0.0162 0.7068 0.7072
vn 0.4064 -0.5319 -0.7429
vn 0.6983 0.2028 0.6865
vn 0.2788 0.2544 -0.9260
vn -0.0676 -0.9380 0.3398
vn -0.0946 -0.9447 0.3141
vn 0.1417 -0.7563 -0.6387
vn -0.0654 0.0581 0.9962
vn -0.6482 -0.6683 -0.3650
vn -0.8084 -0.4668 -0.3586
vn -0.4303 -0.4310 -0.7932
vn -0.0537 -0.4600 -0.8863
vn -0.2407 0.0978 0.9657
vn 0.6018 0.7417 0.2961
vn -0.0904 0.8100 -0.5794
vn 0.3617 -0.2025 -0.9100
vn -0.0930 -0.9858 0.1399
vn -0.0789 0.9386 0.3360
vn -0.5094 0.5125 0.6913
vn 0.8173 -0.0466 -0.5744
vn -0.4141 -0.3750 0.8294
vn 0.0434 0.2752 -0.9604
vn -0.3738 -0.3239 0.8691
vn -0.4511 -0.1899 -0.8720
vn -0.3731 0.1707 -0.9120
vn -0.2465 -0.4193 0.8737
vn -0.8183 -0.5246 -0.2349
vn -0.8315 -0.5193 0.1973
vn -0.2865 -0.4199 0.8612
vn 0.8809 -0.3654 -0.3008
vn 0.8634 -0.3789 -0.3330
vn -0.0459 0.9071 0.4184
vn 0.8313 0.3985 -0.3874
vn 0.7567 0.5151 -0.4026
vn 0.0582 -0.6462 0.7610
vn 0.6033 -0.3275 0.7272
vn 0.6848 0.1893 0.7037
vn 0.7436 -0.0847 0.6633
vn 0.2949 -0.8191 0.4921
vn 0.5146 -0.8558 -0.0528
vn -0.7134 0.6094 -0.3458
vn -0.8006 0.1936 -0.5671
vn -0.7973 0.0005 0.6036
vn -0.7121 0.6935 0.1095
vn -0.8161 0.4684 0.3384
vn -0.7443 0.6513 -0.1476
vn -0.8267 0.0418 0.5610
vn 0.7259 -0.4677 -0.5043
vn 0.8033 0.3557 -0.4777
usemtl sungaya_inexpectata_31mg
s 1
f 1/1/1 7/2/2 8/3/3
f 3/4/4 2/5/5 235/6/6
f 143/7/7 29/8/8 54/9/9
f 43/10/10 44/11/11 45/12/12
f 312/13/13 290/14/14 47/15/15
f 208/16/16 55/17/17 56/18/18
f 73/19/19 74/20/20 75/21/21
f 61/22/22 87/23/23 174/24/24
f 76/25/25 140/26/26 77/27/27
f 56/28/18 240/29/28 79/30/29
f 18/31/30 32/32/31 176/33/32
f 15/34/33 89/35/34 107/36/35
f 76/37/25 153/38/36 170/39/37
f 101/40/38 234/41/39 16/42/40
f 13/43/41 103/44/42 93/45/43
f 94/46/44 91/47/45 154/48/46
f 227/49/47 126/50/48 241/51/49
f 234/52/39 11/53/50 224/54/51
f 283/55/52 129/56/53 275/57/54
f 259/58/55 239/59/56 130/60/57
f 16/61/40 234/62/39 76/63/25
f 136/64/58 85/65/59 19/66/60
f 40/67/61 123/68/62 139/69/63
f 150/70/64 151/71/65 35/72/66
f 258/73/67 216/74/68 153/75/36
f 164/76/69 223/77/70 130/78/57
f 219/79/71 79/80/29 161/81/72
f 255/82/73 259/83/55 108/84/74
f 166/85/75 53/86/76 160/87/77
f 96/88/78 167/89/79 74/90/20
f 170/91/37 171/92/80 172/93/81
f 174/94/24 60/95/82 61/96/22
f 259/83/55 255/82/73 257/97/83
f 152/98/84 100/99/85 74/100/20
f 99/101/86 271/102/87 175/103/88
f 46/104/89 65/105/90 176/106/32
f 12/107/91 134/108/92 109/109/93
f 178/110/94 177/111/95 175/112/88
f 121/113/96 236/114/97 183/115/98
f 268/116/99 46/117/89 104/118/100
f 65/105/90 87/119/23 47/15/15
f 210/120/101 237/121/102 103/44/42
f 28/122/103 193/123/104 194/124/105
f 192/125/106 109/126/93 134/127/92
f 143/128/7 54/129/9 9/130/107
f 141/131/108 40/132/61 197/133/109
f 178/134/94 27/135/110 50/136/111
f 31/137/112 78/138/113 201/139/114
f 62/140/115 78/141/113 31/142/112
f 159/143/116 35/144/66 36/145/117
f 163/146/118 203/147/119 164/148/69
f 268/149/99 201/150/114 66/151/120
f 102/152/121 229/153/122 206/154/123
f 125/155/124 209/156/125 168/157/126
f 186/158/127 210/120/101 221/159/128
f 64/160/129 112/161/130 211/162/131
f 224/163/51 212/164/132 95/165/133
f 27/166/110 233/167/134 128/168/135
f 135/169/136 117/170/137 138/171/138
f 54/129/9 90/172/139 9/130/107
f 82/173/140 222/174/141 127/175/142
f 109/176/93 34/177/143 119/178/144
f 156/179/145 204/180/146 217/181/147
f 311/182/148 60/183/82 315/184/149
f 215/185/150 107/186/35 142/187/151
f 33/188/152 230/189/153 133/190/154
f 33/191/152 133/192/154 127/193/142
f 158/194/155 56/195/18 231/196/156
f 14/197/157 30/198/158 88/199/159
f 63/200/160 107/201/35 111/202/161
f 224/203/51 95/204/133 234/205/39
f 155/206/162 119/207/144 105/208/163
f 25/209/164 28/210/103 59/211/165
f 310/212/166 238/213/167 55/214/17 297/215/168
f 266/216/169 91/217/45 27/218/110
f 141/131/108 202/219/170 40/132/61
f 241/220/49 110/221/171 227/222/47
f 217/223/147 21/224/172 20/225/173
f 152/226/84 22/227/174 269/228/175
f 144/229/176 70/230/177 244/231/178
f 82/232/140 4/233/179 3/234/4
f 180/235/180 84/236/181 120/237/182
f 32/238/31 161/239/72 200/240/183
f 219/241/71 161/242/72 32/243/31
f 76/63/25 234/62/39 140/244/26
f 174/245/24 66/246/120 78/247/113
f 104/248/100 244/249/178 83/250/184
f 106/251/185 203/252/119 243/253/186
f 106/254/185 164/255/69 203/256/119
f 229/257/122 89/258/34 136/259/58
f 99/260/86 201/261/114 5/262/187
f 9/263/107 36/264/117 246/265/188
f 38/266/189 146/267/190 184/268/191
f 144/269/176 213/270/192 10/271/193
f 29/272/8 143/273/7 31/274/112
f 205/275/194 49/276/195 181/277/196
f 284/278/197 282/279/198 101/280/38
f 38/281/189 247/282/199 169/283/200
f 68/284/201 194/124/105 248/285/202
f 159/286/116 36/287/117 10/288/193
f 200/289/183 159/290/116 10/291/193
f 185/292/203 207/293/204 160/294/77
f 90/172/139 54/129/9 131/295/205
f 261/296/206 220/297/207 245/298/208
f 8/299/3 249/300/209 118/301/210
f 16/302/40 225/303/211 92/304/212
f 254/305/213 50/306/111 91/307/45
f 77/308/27 95/309/133 25/310/164
f 108/311/74 232/312/214 255/313/73
f 108/311/74 215/314/150 232/312/214
f 159/315/116 161/316/72 240/317/28
f 161/316/72 79/318/29 240/317/28
f 28/319/103 257/320/83 59/321/165
f 30/198/158 256/322/215 88/199/159
f 165/323/216 133/324/154 37/325/217
f 37/326/217 133/327/154 132/328/218
f 53/329/76 6/330/219 52/331/220
f 53/332/76 71/333/221 6/334/219
f 216/335/68 69/336/222 81/337/223
f 100/99/85 152/98/84 262/338/224
f 4/339/179 125/340/124 2/341/5
f 245/342/208 32/32/31 18/31/30
f 157/343/225 126/344/48 224/345/51
f 156/346/145 123/347/62 39/348/226
f 204/349/146 156/350/145 39/351/226
f 88/352/159 256/353/215 221/354/128
f 7/355/2 249/356/209 8/357/3
f 64/358/129 177/359/95 51/360/227
f 18/361/30 65/105/90 264/362/228
f 48/363/229 132/364/218 133/365/154
f 226/366/230 96/367/78 74/368/20
f 74/100/20 100/99/85 226/369/230
f 265/370/231 241/371/49 126/344/48
f 177/372/95 50/373/111 51/374/227
f 91/47/45 266/375/169 128/376/135
f 266/377/169 27/166/110 128/168/135
f 62/378/115 150/379/64 78/380/113
f 93/381/43 260/382/232 94/383/44
f 261/384/206 245/342/208 18/31/30
f 261/384/206 18/31/30 264/385/228
f 228/386/233 1/387/1 118/388/210
f 118/388/210 1/387/1 8/389/3
f 267/390/234 54/391/9 13/392/41
f 95/204/133 140/393/26 234/205/39
f 67/394/235 239/395/56 259/396/55
f 107/397/35 89/398/34 218/399/236
f 83/250/184 268/400/99 104/248/100
f 116/401/237 122/402/238 115/403/239
f 75/404/21 167/405/79 168/157/126
f 81/406/223 86/407/240 123/408/62
f 123/408/62 86/407/240 139/409/63
f 211/410/131 134/411/92 196/412/241
f 114/413/242 69/414/222 232/415/214
f 69/414/222 59/416/165 232/415/214
f 59/417/165 69/418/222 25/419/164
f 237/420/102 236/421/97 260/422/232
f 208/423/16 17/424/243 147/425/244
f 55/426/17 208/427/16 147/428/244
f 125/429/124 168/430/126 80/431/245
f 171/432/80 251/433/246 110/434/171
f 199/435/247 229/436/122 19/437/60
f 115/438/239 34/439/143 192/440/106
f 239/441/56 63/442/160 163/443/118
f 80/444/245 168/157/126 119/445/144
f 246/446/188 62/447/115 31/448/112
f 176/449/32 65/450/90 18/451/30
f 20/452/173 171/453/80 170/454/37
f 46/104/89 268/455/99 214/456/248
f 9/130/107 246/457/188 143/128/7
f 66/458/120 201/459/114 78/460/113
f 105/461/163 34/462/143 122/463/238
f 3/4/4 222/464/141 82/465/140
f 269/466/175 222/467/141 3/468/4
f 128/469/135 70/470/177 90/471/139
f 29/472/8 99/473/86 30/474/158
f 48/475/229 42/476/249 162/477/250
f 22/478/174 152/479/84 57/480/251
f 22/478/174 57/480/251 23/481/252
f 137/482/253 199/483/247 138/484/138
f 158/485/155 240/486/28 56/487/18
f 121/488/96 183/489/98 96/490/78
f 121/491/96 96/492/78 226/493/230
f 169/494/200 146/495/190 38/496/189
f 119/497/144 34/498/143 105/499/163
f 82/500/140 127/501/142 133/502/154
f 84/503/181 135/504/136 169/505/200
f 104/248/100 144/506/176 244/249/178
f 78/507/113 60/508/82 174/509/24
f 181/510/196 1/511/1 228/512/233
f 205/513/194 181/514/196 228/515/233
f 199/516/247 58/517/254 191/518/255
f 36/287/117 35/519/66 151/520/65
f 160/521/77 37/522/217 166/523/75
f 48/524/229 181/277/196 49/276/195
f 202/525/170 141/526/108 63/527/160
f 141/528/108 142/529/151 63/530/160
f 247/531/199 52/532/220 84/533/181
f 192/534/106 134/535/92 211/536/131
f 36/537/117 9/538/107 10/539/193
f 81/540/223 156/541/145 216/542/68
f 14/543/157 54/544/9 30/545/158
f 54/129/9 14/546/157 13/547/41
f 315/548/149 60/549/82 231/550/156 296/551/256
f 292/552/257 55/553/17 238/554/167 314/555/258
f 258/556/67 76/557/25 77/558/27
f 196/559/241 134/560/92 145/561/259
f 241/371/49 265/370/231 252/562/260
f 40/563/61 67/564/235 68/565/201
f 148/566/261 149/567/262 270/568/263
f 91/47/45 128/376/135 267/569/234
f 154/570/46 91/47/45 267/569/234
f 233/571/134 70/572/177 128/573/135
f 26/574/264 233/575/134 27/576/110
f 291/577/265 299/578/266 220/579/207
f 95/580/133 77/581/27 140/582/26
f 242/583/267 218/584/236 102/585/121
f 107/586/35 218/587/236 111/588/161
f 242/583/267 111/589/161 218/584/236
f 254/590/213 236/591/97 121/592/96
f 85/65/59 58/593/254 19/66/60
f 113/594/268 50/595/111 254/596/213
f 23/597/252 57/598/251 73/599/19
f 201/600/114 29/601/8 31/602/112
f 99/603/86 29/604/8 201/605/114
f 251/606/246 21/607/172 217/608/147
f 310/212/166 295/609/269 238/213/167
f 17/610/243 245/611/208 220/612/207
f 254/613/213 94/614/44 260/615/232
f 125/616/124 80/617/245 2/618/5
f 73/619/19 209/620/125 23/621/252
f 209/622/125 125/429/124 207/623/204
f 61/624/22 250/625/270 87/626/23
f 184/627/191 189/628/271 187/629/272
f 189/630/271 184/268/191 22/631/174
f 184/268/191 173/632/273 22/631/174
f 92/633/212 101/634/38 16/635/40
f 98/636/274 101/40/38 92/637/212
f 66/638/120 214/639/248 268/640/99
f 66/641/120 174/642/24 214/643/248
f 16/644/40 170/91/37 225/645/211
f 225/645/211 170/91/37 172/93/81
f 136/646/58 89/647/34 15/648/33
f 166/649/75 132/650/218 49/651/195
f 132/652/218 48/653/229 49/654/195
f 21/655/172 251/656/246 171/657/80
f 277/658/275 265/659/231 278/660/276
f 277/661/275 274/662/277 265/663/231
f 116/664/237 262/665/224 122/666/238
f 50/306/111 27/667/110 91/307/45
f 114/668/242 215/669/150 142/670/151
f 215/671/150 114/672/242 232/673/214
f 64/674/129 221/675/128 256/676/215
f 126/344/48 253/677/278 224/345/51
f 227/678/47 253/677/278 126/344/48
f 35/679/66 159/680/116 240/681/28
f 118/682/210 179/683/279 228/684/233
f 28/122/103 149/685/262 193/123/104
f 294/686/280 231/687/156 55/688/17 292/689/257
f 56/690/18 55/691/17 231/692/156
f 263/693/281 172/694/81 110/695/171
f 103/44/42 14/696/157 88/199/159
f 13/43/41 14/696/157 103/44/42
f 243/697/186 242/698/267 102/585/121
f 222/699/141 269/700/175 22/701/174
f 173/702/273 222/703/141 22/478/174
f 152/704/84 190/705/282 262/706/224
f 155/206/162 80/707/245 119/207/144
f 114/708/242 142/709/151 141/710/108
f 197/711/109 114/712/242 141/713/108
f 30/714/158 99/715/86 175/716/88
f 256/717/215 30/718/158 175/719/88
f 195/720/283 104/721/100 176/722/32
f 176/723/32 104/724/100 46/725/89
f 229/436/122 199/435/247 137/726/253
f 137/726/253 138/727/138 117/728/137
f 119/207/144 12/729/91 109/730/93
f 80/731/245 235/732/6 2/733/5
f 80/734/245 155/735/162 235/736/6
f 249/737/209 7/738/2 106/739/185
f 243/740/186 249/741/209 106/742/185
f 34/439/143 115/438/239 122/743/238
f 230/744/153 48/745/229 133/746/154
f 125/155/124 41/747/284 207/748/204
f 200/749/183 213/750/192 195/751/283
f 32/752/31 200/753/183 195/754/283
f 213/755/192 144/756/176 104/757/100
f 145/758/259 12/729/91 124/759/285
f 123/760/62 40/761/61 39/762/226
f 100/763/85 116/764/237 226/765/230
f 29/766/8 30/767/158 54/768/9
f 267/769/234 128/770/135 131/771/205
f 131/772/205 128/773/135 90/774/139
f 27/775/110 178/776/94 271/777/87
f 93/778/43 94/779/44 154/780/46
f 233/781/134 26/782/264 5/783/187
f 219/784/71 32/32/31 245/342/208
f 150/70/64 62/785/115 151/71/65
f 180/786/180 120/787/182 179/788/279
f 259/83/55 223/789/70 15/790/33
f 223/791/70 136/792/58 15/793/33
f 57/480/251 152/479/84 74/794/20
f 73/19/19 57/795/251 74/20/20
f 130/796/57 223/797/70 259/798/55
f 169/799/200 42/800/249 146/801/190
f 135/802/136 44/803/11 162/804/250
f 169/805/200 135/802/136 42/806/249
f 135/802/136 162/804/250 42/806/249
f 68/807/201 259/83/55 257/97/83
f 194/808/105 68/809/201 257/810/83
f 22/811/174 23/812/252 189/813/271
f 146/814/190 173/815/273 184/816/191
f 146/817/190 33/818/152 173/819/273
f 210/120/101 186/158/127 237/121/102
f 187/820/272 185/821/203 160/822/77
f 162/823/250 181/824/196 48/825/229
f 3/468/4 190/826/282 269/466/175
f 142/529/151 107/827/35 63/828/160
f 262/829/224 190/830/282 122/831/238
f 105/832/163 122/833/238 155/834/162
f 122/743/238 235/835/6 155/836/162
f 203/837/119 242/838/267 243/839/186
f 298/840/286 312/13/13 47/15/15
f 167/841/79 96/842/78 198/843/287
f 168/844/126 167/845/79 198/846/287
f 239/847/56 164/848/69 130/849/57
f 239/850/56 163/851/118 164/852/69
f 186/853/127 145/854/259 237/855/102
f 186/856/127 196/857/241 145/858/259
f 156/859/145 217/223/147 216/860/68
f 217/223/147 20/225/173 216/860/68
f 177/861/95 64/862/129 256/863/215
f 72/864/288 227/865/47 110/866/171
f 253/867/278 227/868/47 72/869/288
f 257/97/83 28/870/103 194/871/105
f 226/872/230 116/664/237 121/873/96
f 121/873/96 116/664/237 113/874/268
f 90/172/139 144/875/176 9/130/107
f 157/343/225 265/370/231 126/344/48
f 175/876/88 177/877/95 256/878/215
f 193/879/104 148/880/261 251/881/246
f 204/882/146 193/883/104 251/884/246
f 96/885/78 183/886/98 97/887/289
f 160/888/77 165/889/216 37/890/217
f 160/891/77 207/892/204 165/893/216
f 204/894/146 251/895/246 217/896/147
f 86/897/240 69/898/222 114/899/242
f 86/900/240 114/901/242 197/902/109
f 167/903/79 75/904/21 74/905/20
f 40/906/61 68/907/201 39/908/226
f 116/664/237 115/909/239 113/874/268
f 108/84/74 259/83/55 15/790/33
f 117/910/137 180/911/180 137/912/253
f 103/913/42 237/914/102 93/915/43
f 170/916/37 153/917/36 20/918/173
f 203/919/119 111/920/161 242/921/267
f 280/922/290 252/923/260 265/924/231 274/925/277
f 280/926/290 279/927/291 252/562/260
f 88/199/159 221/159/128 210/120/101
f 246/446/188 31/448/112 143/928/7
f 253/929/278 212/930/132 224/931/51
f 65/932/90 46/933/89 87/934/23
f 187/935/272 188/936/292 185/937/203
f 185/938/203 188/939/292 207/940/204
f 179/941/279 205/942/194 228/943/233
f 85/944/59 136/945/58 223/789/70
f 46/104/89 214/456/248 87/119/23
f 174/946/24 87/947/23 214/948/248
f 101/949/38 11/950/50 234/951/39
f 79/952/29 219/953/71 17/954/243
f 78/955/113 150/956/64 158/194/155
f 68/957/201 67/958/235 259/959/55
f 258/960/67 25/961/164 69/962/222
f 216/963/68 258/964/67 69/965/222
f 267/966/234 131/967/205 54/968/9
f 287/969/293 157/970/225 11/971/50 285/972/294
f 124/973/285 12/729/91 119/207/144
f 89/974/34 229/975/122 218/976/236
f 229/153/122 102/152/121 218/977/236
f 25/978/164 258/979/67 77/980/27
f 180/981/180 182/982/295 137/983/253
f 124/984/285 119/985/144 168/986/126
f 179/987/279 118/988/210 182/989/295
f 40/990/61 202/991/170 67/992/235
f 202/993/170 63/994/160 239/995/56
f 202/996/170 239/997/56 67/998/235
f 302/999/296 264/362/228 65/105/90 303/1000/297
f 270/1001/263 212/1002/132 253/929/278
f 207/1003/204 41/1004/284 165/1005/216
f 215/1006/150 15/1007/33 107/1008/35
f 200/1009/183 161/1010/72 159/1011/116
f 263/1012/281 110/1013/171 241/1014/49
f 186/158/127 221/159/128 196/559/241
f 187/935/272 189/1015/271 188/936/292
f 118/1016/210 249/1017/209 243/1018/186
f 102/1019/121 118/1020/210 243/1021/186
f 118/1022/210 102/585/121 182/1023/295
f 76/1024/25 170/1025/37 16/1026/40
f 138/1027/138 191/518/255 45/1028/12
f 138/1027/138 199/516/247 191/518/255
f 24/1029/298 225/1030/211 172/1031/81
f 222/1032/141 173/1033/273 127/1034/142
f 201/1035/114 268/1036/99 83/1037/184
f 197/1038/109 40/1039/61 139/1040/63
f 148/880/261 72/1041/288 251/881/246
f 72/864/288 110/1042/171 251/1043/246
f 301/1044/299 250/1045/270 61/1046/22 293/1047/300
f 187/1048/272 38/266/189 184/268/191
f 100/1049/85 262/665/224 116/664/237
f 42/476/249 48/475/229 33/1050/152
f 42/1051/249 33/1052/152 146/1053/190
f 44/1054/11 135/1055/136 45/1056/12
f 135/802/136 138/727/138 45/1057/12
f 19/1058/60 229/1059/122 136/1060/58
f 190/826/282 235/1061/6 122/1062/238
f 190/1063/282 3/1064/4 235/1065/6
f 182/1066/295 102/1067/121 206/1068/123
f 137/1069/253 206/1070/123 229/1071/122
f 206/1070/123 137/1069/253 182/1072/295
f 33/818/152 127/1073/142 173/819/273
f 44/1074/11 1/1075/1 181/1076/196
f 181/1077/196 162/1078/250 44/1079/11
f 164/1080/69 58/1081/254 223/1082/70
f 208/1083/16 79/1084/29 17/1085/243
f 236/1086/97 254/1087/213 260/1088/232
f 113/1089/268 254/1090/213 121/1091/96
f 248/1092/202 193/1093/104 204/1094/146
f 193/123/104 248/285/202 194/124/105
f 210/120/101 103/44/42 88/199/159
f 195/1095/283 213/1096/192 104/1097/100
f 232/1098/214 257/1099/83 255/1100/73
f 108/1101/74 15/1102/33 215/1103/150
f 125/1104/124 82/1105/140 41/1106/284
f 125/616/124 4/1107/179 82/1108/140
f 62/785/115 246/1109/188 151/1110/65
f 24/1111/298 172/1112/81 263/1113/281
f 70/1114/177 144/1115/176 90/1116/139
f 205/1117/194 179/1118/279 71/1119/221
f 179/1120/279 6/1121/219 71/1122/221
f 84/1123/181 52/1124/220 120/1125/182
f 52/1126/220 6/1127/219 120/1128/182
f 270/1129/263 95/1130/133 212/1131/132
f 246/1109/188 36/1132/117 151/1110/65
f 4/1133/179 2/1134/5 3/1135/4
f 133/502/154 165/323/216 41/1136/284
f 82/1137/140 133/1138/154 41/1139/284
f 53/1140/76 205/1141/194 71/1142/221
f 308/1143/301 307/1144/302 261/1145/206
f 47/15/15 87/119/23 250/1146/270
f 58/1147/254 7/1148/2 191/1149/255
f 58/1150/254 85/1151/59 223/1152/70
f 95/1153/133 149/1154/262 25/1155/164
f 309/1156/303 147/1157/244 300/1158/304
f 7/1159/2 58/1160/254 164/1161/69
f 106/1162/185 7/1163/2 164/1164/69
f 148/1165/261 253/1166/278 72/1167/288
f 148/1165/261 270/1168/263 253/1166/278
f 176/1169/32 32/32/31 195/1170/283
f 193/1171/104 149/1172/262 148/1173/261
f 33/1174/152 48/1175/229 230/1176/153
f 64/1177/129 196/1178/241 221/1179/128
f 96/1180/78 97/1181/289 198/1182/287
f 180/1183/180 179/1184/279 182/1185/295
f 94/1186/44 254/1187/213 91/1188/45
f 248/1189/202 39/1190/226 68/1191/201
f 248/1192/202 204/1193/146 39/1194/226
f 92/1195/212 24/1196/298 129/1197/53
f 92/1198/212 129/1199/53 98/1200/274
f 92/304/212 225/303/211 24/1201/298
f 158/194/155 231/196/156 60/1202/82
f 78/507/113 158/1203/155 60/1204/82
f 224/1205/51 11/1206/50 157/343/225
f 160/888/77 53/1207/76 52/1208/220
f 236/421/97 97/1209/289 183/1210/98
f 267/1211/234 13/1212/41 93/1213/43
f 93/1214/43 154/1215/46 267/1216/234
f 179/1217/279 120/1218/182 6/1219/219
f 177/1220/95 178/1221/94 50/373/111
f 189/1222/271 23/1223/252 188/1224/292
f 192/1225/106 34/1226/143 109/1227/93
f 192/1228/106 211/1229/131 115/1230/239
f 188/1231/292 23/1232/252 209/1233/125
f 207/748/204 188/1231/292 209/1233/125
f 113/1234/268 115/1235/239 211/162/131
f 86/897/240 81/1236/223 69/898/222
f 79/1237/29 208/1238/16 56/1239/18
f 150/70/64 35/72/66 240/1240/28
f 158/194/155 150/70/64 240/1240/28
f 314/1241/258 238/213/167 295/609/269
f 172/1242/81 171/1243/80 110/1244/171
f 305/1245/305 264/1246/228 313/1247/306
f 245/1248/208 17/1249/243 219/1250/71
f 198/1251/287 124/984/285 168/986/126
f 198/846/287 97/1252/289 124/1253/285
f 190/1254/282 152/1255/84 269/1256/175
f 7/1257/2 1/1258/1 191/1259/255
f 258/1260/67 153/1261/36 76/1262/25
f 247/1263/199 38/1264/189 187/1265/272
f 134/1266/92 12/1267/91 145/1268/259
f 49/1269/195 205/1270/194 166/1271/75
f 205/1272/194 53/332/76 166/1273/75
f 97/1274/289 145/1275/259 124/1276/285
f 145/1277/259 97/1278/289 236/1279/97
f 145/1280/259 236/1281/97 237/1282/102
f 64/1283/129 211/1284/131 196/1285/241
f 26/1286/264 271/1287/87 5/1288/187
f 144/1289/176 10/1290/193 9/1291/107
f 83/250/184 244/249/178 5/1292/187
f 5/1292/187 244/249/178 233/1293/134
f 244/1294/178 70/1295/177 233/1296/134
f 201/1297/114 83/1298/184 5/1299/187
f 139/1300/63 86/1301/240 197/1302/109
f 237/1282/102 260/1303/232 93/1213/43
f 20/1304/173 153/1305/36 216/1306/68
f 213/270/192 200/1009/183 10/1307/193
f 17/1308/243 220/1309/207 147/1310/244
f 300/1311/304 147/1312/244 220/1313/207 299/1314/266
f 50/1315/111 113/1316/268 51/1317/227
f 270/568/263 149/567/262 95/1318/133
f 26/1319/264 27/1320/110 271/1321/87
f 149/1322/262 28/870/103 25/1323/164
f 271/1324/87 178/1325/94 175/1326/88
f 5/1327/187 271/1328/87 99/1329/86
f 132/1330/218 166/1331/75 37/1332/217
f 209/156/125 75/404/21 168/157/126
f 73/1333/19 75/1334/21 209/1335/125
f 113/1316/268 112/1336/130 51/1317/227
f 64/160/129 51/374/227 112/161/130
f 169/1337/200 247/1338/199 84/236/181
f 191/1259/255 1/1258/1 43/1339/10
f 191/518/255 43/1340/10 45/1028/12
f 1/1341/1 44/1342/11 43/1343/10
f 257/1344/83 232/1345/214 59/1346/165
f 171/92/80 20/1347/173 21/1348/172
f 286/1349/307 263/1350/281 252/1351/260 288/1352/308
f 241/51/49 252/1353/260 263/1354/281
f 58/517/254 199/516/247 19/1355/60
f 112/161/130 113/1234/268 211/162/131
f 163/1356/118 111/1357/161 203/1358/119
f 163/1359/118 63/1360/160 111/1361/161
f 84/503/181 117/170/137 135/169/136
f 84/236/181 180/235/180 117/1362/137
f 81/1363/223 123/1364/62 156/1365/145
f 160/1366/77 247/1367/199 187/1368/272
f 52/1369/220 247/1367/199 160/1366/77
f 101/1370/38 282/1371/198 285/1372/294 11/1373/50
f 101/1374/38 281/1375/309 284/1376/197
f 252/1377/260 279/1378/291 288/1379/308
f 157/970/225 287/969/293 278/1380/276 265/1381/231
f 24/1196/298 289/1382/310 276/1383/311
f 129/1197/53 24/1196/298 276/1383/311 275/1384/54
f 263/1385/281 286/1386/307 273/1387/312 24/1388/298
f 24/1389/298 273/1390/312 289/1391/310
f 98/1392/274 129/56/53 283/1393/52 272/1394/313
f 98/1395/274 272/1396/313 281/1397/309 101/1398/38
f 278/660/276 287/969/293 285/1372/294 282/279/198 284/1376/197 281/1397/309 272/1394/313 283/55/52 275/1384/54 276/1383/311 289/1391/310 273/1387/312 286/1349/307 288/1379/308 279/927/291 280/922/290 274/662/277 277/658/275
f 261/1399/206 264/1246/228 305/1245/305 308/1400/301
f 264/1401/228 304/1402/314 313/1403/306
f 264/362/228 302/999/296 304/1404/314
f 250/1045/270 301/1044/299 306/1405/315
f 250/1146/270 306/1406/315 298/840/286 47/15/15
f 147/1407/244 309/1408/303 297/215/168 55/214/17
f 231/196/156 294/1409/280 296/1410/256
f 60/1202/82 311/1411/148 293/1047/300 61/1046/22
f 261/1412/206 307/1413/302 291/1414/265 220/1415/207
f 47/1416/15 290/1417/14 303/1418/297 65/1419/90
f 309/1156/303 299/578/266 290/14/14
f 311/1411/148 315/548/149 294/686/280
f 315/548/149 296/1410/256 294/686/280
f 294/686/280 292/552/257 314/1241/258
f 301/1044/299 293/1047/300 311/1411/148
f 298/840/286 306/1405/315 301/1044/299
f 290/14/14 312/13/13 309/1156/303
f 312/13/13 298/840/286 301/1044/299
f 302/999/296 303/1418/297 307/1144/302
f 303/1418/297 290/14/14 307/1144/302
f 313/1403/306 304/1404/314 302/999/296
f 308/1400/301 305/1245/305 313/1403/306
f 299/578/266 291/1414/265 307/1144/302
f 307/1144/302 308/1400/301 302/999/296
f 308/1400/301 313/1403/306 302/999/296
f 312/13/13 301/1044/299 297/215/168
f 301/1044/299 311/1411/148 297/215/168
f 311/1411/148 294/686/280 295/609/269
f 297/215/168 311/1411/148 310/212/166
f 294/686/280 314/1241/258 295/609/269
f 295/609/269 310/212/166 311/1411/148
f 297/215/168 309/1156/303 312/13/13
f 309/1156/303 300/1311/304 299/578/266
f 299/578/266 307/1144/302 290/14/14
