# Blender v2.79 (sub 0) OBJ File: 'redo_fixed_360_joints.blend'
# www.blender.org
mtllib sungaya_inexpectata_31mg.mtl
o 18-f-l-tibia_Sungaya_inexpectata_31mg.002
v -0.001473 0.000081 -0.000309
v -0.000320 0.000021 -0.000140
v 0.000006 -0.000000 -0.000132
v -0.001487 0.000109 -0.000412
v 0.001597 0.000075 0.000494
v 0.000352 0.000082 -0.000044
v -0.000231 0.000058 -0.000147
v -0.001785 0.000010 -0.000291
v -0.001725 0.000082 -0.000308
v -0.001564 0.000032 -0.000273
v -0.001591 0.000087 -0.000293
v -0.001460 -0.000012 -0.000245
v -0.001481 -0.000050 -0.000299
v 0.001200 -0.000117 0.000471
v 0.001298 -0.000139 0.000445
v 0.001092 0.000050 0.000349
v 0.001008 0.000037 0.000217
v -0.000761 0.000008 -0.000224
v -0.000825 0.000076 -0.000308
v 0.000321 0.000037 0.000046
v 0.000353 -0.000055 0.000041
v 0.001436 0.000064 0.000481
v -0.001674 -0.000083 -0.000414
v -0.001578 0.000111 -0.000347
v -0.001696 0.000104 -0.000410
v 0.001231 0.000035 0.000499
v 0.001158 -0.000082 0.000299
v -0.002029 0.000059 -0.000500
v -0.001120 0.000098 -0.000397
v -0.000943 0.000094 -0.000372
v 0.000058 -0.000054 -0.000062
v 0.000661 0.000064 -0.000001
v -0.001347 0.000103 -0.000370
v -0.002061 -0.000006 -0.000316
v -0.001704 -0.000093 -0.000334
v -0.001111 0.000031 -0.000294
v 0.001224 0.000063 0.000410
v 0.001350 0.000050 0.000483
v -0.000549 0.000035 -0.000190
v -0.000675 0.000012 -0.000211
v -0.000334 0.000086 -0.000272
v 0.000846 -0.000033 0.000155
v 0.001577 0.000132 0.000347
v 0.001435 -0.000054 0.000528
v 0.000895 0.000011 0.000258
v -0.000531 -0.000059 -0.000218
v -0.001931 0.000080 -0.000322
v 0.001138 0.000038 0.000192
v 0.001173 -0.000019 0.000224
v 0.000470 0.000025 -0.000028
v 0.000429 0.000050 0.000099
v 0.000107 0.000088 -0.000202
v 0.000909 -0.000095 0.000255
v 0.001291 -0.000029 0.000509
v 0.001474 0.000012 0.000535
v -0.000881 0.000031 -0.000346
v -0.000774 0.000002 -0.000337
v -0.000697 0.000090 -0.000367
v -0.000013 0.000076 -0.000221
v -0.001906 -0.000093 -0.000496
v 0.000363 0.000037 -0.000083
v 0.001589 -0.000147 0.000338
v 0.001525 -0.000156 0.000386
v -0.001716 -0.000052 -0.000251
v 0.000967 0.000036 0.000160
v -0.000616 0.000078 -0.000331
v -0.000720 0.000072 -0.000288
v 0.000121 -0.000030 -0.000036
v 0.000094 0.000042 -0.000008
v -0.000942 0.000001 -0.000237
v -0.001021 0.000089 -0.000335
v 0.001589 -0.000011 0.000496
v 0.000877 -0.000058 0.000309
v 0.001489 0.000117 0.000401
v 0.001179 -0.000129 0.000390
v 0.000171 0.000082 -0.000120
v -0.001954 -0.000076 -0.000362
v 0.001303 -0.000053 0.000241
v -0.001582 -0.000125 -0.000368
v -0.001613 -0.000036 -0.000245
v 0.000998 -0.000065 0.000225
v 0.001014 0.000024 0.000145
v -0.000041 -0.000002 -0.000088
v -0.001101 -0.000004 -0.000361
v -0.001193 -0.000002 -0.000370
v 0.001415 -0.000109 0.000347
v -0.000155 0.000032 -0.000227
v -0.000279 -0.000065 -0.000149
v 0.000842 0.000047 0.000139
v 0.000601 -0.000073 0.000147
v 0.000602 0.000011 0.000175
v 0.000739 -0.000028 0.000232
v 0.000727 0.000020 0.000181
v -0.000511 0.000071 -0.000260
v -0.000539 0.000072 -0.000333
v 0.001385 -0.000102 0.000493
v 0.001526 -0.000149 0.000468
v 0.001485 -0.000117 0.000496
v 0.000289 -0.000030 0.000015
v 0.001589 0.000110 0.000285
v 0.001499 0.000075 0.000258
v -0.001241 0.000050 -0.000306
v 0.000536 0.000083 -0.000028
v -0.001117 -0.000017 -0.000259
v 0.000994 -0.000117 0.000349
v -0.001537 0.000029 -0.000414
v 0.001626 -0.000006 0.000248
v -0.001841 0.000087 -0.000433
v 0.000250 0.000003 -0.000076
v -0.001309 0.000006 -0.000390
v -0.001815 -0.000003 -0.000489
v -0.001712 0.000044 -0.000453
v -0.001859 0.000049 -0.000300
v -0.001216 -0.000006 -0.000252
v 0.000515 -0.000021 0.000112
v 0.000479 -0.000071 0.000094
v 0.000152 -0.000011 -0.000083
v -0.001144 0.000095 -0.000356
v -0.001116 -0.000064 -0.000318
v 0.000572 -0.000008 0.000048
v 0.001579 0.000137 0.000459
v 0.001082 -0.000130 0.000358
v 0.000901 0.000009 0.000103
v 0.000225 0.000051 0.000002
v -0.000345 0.000085 -0.000318
v -0.000421 0.000028 -0.000152
v -0.000146 0.000037 -0.000104
v -0.000115 0.000056 -0.000101
v 0.000689 0.000071 0.000078
v 0.000654 0.000035 0.000149
v -0.001379 0.000130 -0.000424
v -0.000388 0.000026 -0.000266
v 0.000530 0.000053 0.000077
v -0.001276 0.000091 -0.000325
v -0.000373 -0.000056 -0.000184
v -0.001283 -0.000089 -0.000328
v -0.000622 -0.000001 -0.000284
v 0.000929 -0.000006 0.000361
v -0.001168 0.000112 -0.000409
v -0.001268 0.000114 -0.000409
v -0.000020 -0.000037 -0.000075
v -0.000028 0.000054 -0.000058
v 0.000558 0.000064 -0.000066
v 0.001623 -0.000166 0.000402
v 0.000804 -0.000002 0.000296
v -0.001856 0.000116 -0.000406
v 0.001330 0.000086 0.000367
v 0.000023 0.000068 -0.000114
v 0.000114 0.000071 -0.000028
v 0.000304 0.000084 -0.000119
v 0.000636 0.000036 0.000010
v -0.000766 0.000112 -0.000385
v 0.000812 0.000070 0.000015
v -0.001871 -0.000131 -0.000411
v 0.001082 -0.000114 0.000438
v 0.001064 -0.000049 0.000466
v -0.001234 -0.000033 -0.000271
v 0.000407 -0.000047 0.000056
v 0.001092 0.000038 0.000156
v 0.000747 -0.000084 0.000201
v -0.001772 0.000119 -0.000365
v -0.001698 -0.000149 -0.000395
v 0.001223 0.000074 0.000303
v -0.000682 -0.000041 -0.000250
v -0.001860 -0.000066 -0.000295
v -0.000133 0.000103 -0.000231
v -0.000812 -0.000059 -0.000294
v -0.001034 -0.000014 -0.000249
v 0.001507 0.000070 0.000526
v 0.000208 0.000044 -0.000114
v 0.000278 0.000042 -0.000125
v -0.001809 -0.000058 -0.000274
v 0.001026 0.000021 0.000416
v -0.001446 -0.000105 -0.000356
v 0.000191 -0.000050 -0.000016
v 0.000272 -0.000076 0.000031
v -0.001772 -0.000135 -0.000444
v -0.000967 -0.000049 -0.000288
v -0.000558 -0.000023 -0.000203
v -0.001166 -0.000093 -0.000320
v -0.001048 -0.000067 -0.000310
v 0.000450 0.000085 -0.000093
v -0.000173 0.000096 -0.000303
v -0.001068 0.000112 -0.000404
v -0.002048 -0.000113 -0.000472
v -0.002082 0.000069 -0.000330
v -0.002082 0.000093 -0.000333
v -0.002051 -0.000121 -0.000462
v -0.002068 -0.000073 -0.000387
v -0.002031 -0.000042 -0.000549
v -0.002031 -0.000044 -0.000549
v -0.002049 0.000070 -0.000476
v -0.002069 0.000111 -0.000387
v -0.002081 -0.000018 -0.000334
v -0.002043 0.000053 -0.000501
v -0.002034 -0.000016 -0.000537
v -0.002081 0.000094 -0.000335
v -0.002063 -0.000091 -0.000409
v -0.002044 0.000062 -0.000497
v -0.002052 -0.000121 -0.000455
v -0.002068 0.000111 -0.000394
v -0.002083 -0.000002 -0.000325
v -0.002082 -0.000010 -0.000328
v 0.001655 -0.000101 0.000299
v 0.001665 0.000004 0.000263
v 0.001636 0.000133 0.000361
v 0.001631 -0.000198 0.000386
v 0.001598 0.000075 0.000496
v 0.001606 -0.000072 0.000471
v 0.001638 -0.000183 0.000362
v 0.001598 0.000070 0.000495
v 0.001598 0.000078 0.000495
v 0.001652 -0.000106 0.000310
v 0.001650 -0.000121 0.000318
v 0.001653 0.000115 0.000302
v 0.001654 0.000077 0.000297
v 0.001626 -0.000168 0.000403
v 0.001609 -0.000106 0.000459
v 0.001627 -0.000169 0.000401
v 0.001603 0.000151 0.000476
v 0.001597 -0.000007 0.000500
v 0.001628 0.000150 0.000389
v 0.001665 -0.000010 0.000261
v 0.001621 0.000151 0.000413
v 0.001613 0.000147 0.000442
v 0.001638 0.000133 0.000352
v 0.001661 -0.000061 0.000280
v 0.001620 -0.000141 0.000424
v 0.001653 0.000105 0.000301
vt 0.675383 0.692715
vt 0.678143 0.691463
vt 0.676998 0.694570
vt 0.256655 0.581440
vt 0.257238 0.582631
vt 0.255921 0.582315
vt 0.299357 0.771046
vt 0.299729 0.773889
vt 0.297589 0.777038
vt 0.983814 0.649120
vt 0.984404 0.651036
vt 0.982342 0.648117
vt 0.138215 0.664862
vt 0.140488 0.666566
vt 0.139481 0.667794
vt 0.234941 0.235931
vt 0.235799 0.234302
vt 0.236885 0.234276
vt 0.616615 0.702215
vt 0.618069 0.706334
vt 0.616274 0.707034
vt 0.079171 0.764046
vt 0.079574 0.761188
vt 0.081062 0.762996
vt 0.773688 0.062347
vt 0.774574 0.061111
vt 0.774479 0.062592
vt 0.653216 0.004827
vt 0.659209 0.003579
vt 0.658208 0.006102
vt 0.475993 0.960202
vt 0.475617 0.958108
vt 0.476622 0.957725
vt 0.218969 0.577095
vt 0.222634 0.579503
vt 0.219745 0.580408
vt 0.716156 0.003869
vt 0.713218 0.005350
vt 0.711906 0.004034
vt 0.945770 0.548440
vt 0.947655 0.546821
vt 0.947694 0.549037
vt 0.070139 0.821910
vt 0.068758 0.823484
vt 0.068815 0.821005
vt 0.137923 0.666139
vt 0.564919 0.767532
vt 0.563894 0.765401
vt 0.566476 0.764612
vt 0.292859 0.676758
vt 0.291666 0.678073
vt 0.291343 0.675650
vt 0.628527 0.974038
vt 0.628577 0.978329
vt 0.625931 0.979169
vt 0.627873 0.980441
vt 0.710568 0.007779
vt 0.008725 0.329143
vt 0.007292 0.329409
vt 0.006670 0.328508
vt 0.106727 0.828714
vt 0.109420 0.828668
vt 0.109251 0.830287
vt 0.207947 0.547052
vt 0.211669 0.545836
vt 0.211145 0.548590
vt 0.619747 0.704562
vt 0.975041 0.995297
vt 0.973478 0.994134
vt 0.974936 0.992828
vt 0.778800 0.482935
vt 0.780265 0.484392
vt 0.778282 0.485178
vt 0.619052 0.700269
vt 0.813762 0.384748
vt 0.813617 0.387438
vt 0.811655 0.387012
vt 0.180527 0.926329
vt 0.180540 0.925128
vt 0.181560 0.924931
vt 0.180768 0.926612
vt 0.226129 0.585578
vt 0.223736 0.583606
vt 0.228686 0.585253
vt 0.732632 0.001915
vt 0.735764 0.004565
vt 0.728598 0.004930
vt 0.559685 0.236609
vt 0.561279 0.238323
vt 0.558284 0.236654
vt 0.660307 0.389553
vt 0.658366 0.393389
vt 0.657595 0.391405
vt 0.949635 0.621763
vt 0.947457 0.624439
vt 0.948394 0.621469
vt 0.983955 0.182505
vt 0.984214 0.184006
vt 0.982920 0.182840
vt 0.934296 0.487161
vt 0.933064 0.486979
vt 0.933496 0.485484
vt 0.876560 0.573190
vt 0.878609 0.573658
vt 0.877218 0.574835
vt 0.485458 0.982753
vt 0.488642 0.982999
vt 0.488314 0.985539
vt 0.212208 0.562504
vt 0.214938 0.567196
vt 0.212475 0.565675
vt 0.642248 0.247734
vt 0.641206 0.249342
vt 0.640621 0.248366
vt 0.791607 0.574116
vt 0.793258 0.574165
vt 0.790705 0.575214
vt 0.401305 0.606861
vt 0.400490 0.604454
vt 0.404028 0.605649
vt 0.680676 0.695630
vt 0.682155 0.694928
vt 0.575971 0.729669
vt 0.574890 0.731595
vt 0.574392 0.729740
vt 0.016300 0.827979
vt 0.017070 0.823354
vt 0.017504 0.825747
vt 0.842999 0.477704
vt 0.840929 0.478388
vt 0.842520 0.476889
vt 0.638325 0.259943
vt 0.639805 0.259227
vt 0.639816 0.260759
vt 0.646770 0.282946
vt 0.642394 0.283116
vt 0.643956 0.280479
vt 0.789526 0.122317
vt 0.791113 0.120607
vt 0.791224 0.121892
vt 0.991813 0.658801
vt 0.993168 0.659027
vt 0.991641 0.660036
vt 0.645656 0.006094
vt 0.645670 0.004840
vt 0.649786 0.006315
vt 0.416049 0.768317
vt 0.419284 0.765872
vt 0.419860 0.770594
vt 0.062450 0.905619
vt 0.061682 0.906236
vt 0.062406 0.905577
vt 0.360139 0.698044
vt 0.361210 0.698522
vt 0.361640 0.701490
vt 0.052621 0.887236
vt 0.050971 0.886266
vt 0.050853 0.884643
vt 0.072689 0.535536
vt 0.073736 0.534709
vt 0.073942 0.536028
vt 0.564681 0.761881
vt 0.107696 0.172690
vt 0.106390 0.172648
vt 0.105940 0.171807
vt 0.536072 0.246578
vt 0.535897 0.244232
vt 0.537607 0.243934
vt 0.846203 0.457809
vt 0.847674 0.458694
vt 0.846359 0.459630
vt 0.932487 0.123040
vt 0.929948 0.122619
vt 0.931847 0.122349
vt 0.902755 0.332509
vt 0.901000 0.331194
vt 0.903527 0.330286
vt 0.883550 0.519563
vt 0.880956 0.519955
vt 0.881371 0.518854
vt 0.976711 0.203690
vt 0.976034 0.202779
vt 0.977287 0.202583
vt 0.415438 0.771238
vt 0.417713 0.772329
vt 0.100776 0.693412
vt 0.101089 0.696719
vt 0.100116 0.696923
vt 0.898166 0.670746
vt 0.901216 0.669273
vt 0.901914 0.669840
vt 0.188834 0.675299
vt 0.187900 0.671748
vt 0.190619 0.677553
vt 0.006078 0.178508
vt 0.008508 0.178871
vt 0.007266 0.178667
vt 0.400825 0.594708
vt 0.403231 0.595827
vt 0.400762 0.595804
vt 0.201363 0.159797
vt 0.200886 0.161202
vt 0.199483 0.160394
vt 0.709973 0.005542
vt 0.297572 0.238089
vt 0.295160 0.238292
vt 0.297092 0.237201
vt 0.343350 0.418035
vt 0.341787 0.417910
vt 0.342604 0.417284
vt 0.927765 0.208550
vt 0.926546 0.208071
vt 0.927125 0.206994
vt 0.880092 0.351773
vt 0.880188 0.349289
vt 0.881824 0.350062
vt 0.739426 0.183251
vt 0.739211 0.184391
vt 0.738004 0.183431
vt 0.481502 0.653613
vt 0.481946 0.653834
vt 0.481496 0.654973
vt 0.486596 0.986267
vt 0.714482 0.007195
vt 0.366331 0.725554
vt 0.365396 0.728762
vt 0.364042 0.725539
vt 0.251596 0.398753
vt 0.252307 0.400508
vt 0.250881 0.399565
vt 0.110078 0.186892
vt 0.110741 0.188202
vt 0.109292 0.187788
vt 0.830721 0.324919
vt 0.831572 0.325176
vt 0.830880 0.327930
vt 0.050854 0.704582
vt 0.052590 0.707128
vt 0.050139 0.708123
vt 0.363014 0.701106
vt 0.362719 0.702494
vt 0.101217 0.864891
vt 0.101026 0.863970
vt 0.101635 0.863886
vt 0.828721 0.963908
vt 0.829289 0.965946
vt 0.827644 0.964225
vt 0.047279 0.964010
vt 0.046963 0.968829
vt 0.046604 0.965019
vt 0.608904 0.485395
vt 0.610582 0.488594
vt 0.608592 0.490510
vt 0.902988 0.127670
vt 0.902276 0.126886
vt 0.903181 0.125051
vt 0.134644 0.459557
vt 0.135043 0.460815
vt 0.133684 0.460439
vt 0.734086 0.070691
vt 0.735285 0.069847
vt 0.735941 0.070679
vt 0.807764 0.324467
vt 0.805075 0.323829
vt 0.805526 0.321763
vt 0.777448 0.461396
vt 0.775907 0.464581
vt 0.775653 0.462458
vt 0.653292 0.395577
vt 0.653652 0.394329
vt 0.654103 0.006926
vt 0.651489 0.007135
vt 0.185523 0.245872
vt 0.184657 0.246292
vt 0.184209 0.244436
vt 0.661152 0.573222
vt 0.660474 0.573324
vt 0.660742 0.572999
vt 0.235867 0.712891
vt 0.238308 0.708117
vt 0.238649 0.709316
vt 0.210936 0.554003
vt 0.212320 0.557898
vt 0.209509 0.553263
vt 0.038855 0.971341
vt 0.037418 0.971849
vt 0.036935 0.969298
vt 0.611799 0.108104
vt 0.611719 0.108085
vt 0.611699 0.108032
vt 0.227158 0.582431
vt 0.749901 0.667829
vt 0.750308 0.669076
vt 0.748878 0.668445
vt 0.932595 0.541281
vt 0.932999 0.539211
vt 0.933464 0.540683
vt 0.773573 0.185885
vt 0.772275 0.186992
vt 0.772055 0.185919
vt 0.401257 0.771491
vt 0.399788 0.771101
vt 0.403134 0.768902
vt 0.191924 0.635730
vt 0.190824 0.636848
vt 0.190322 0.635946
vt 0.676246 0.690240
vt 0.678606 0.687939
vt 0.894621 0.678554
vt 0.895313 0.677087
vt 0.897222 0.679201
vt 0.291343 0.673586
vt 0.293556 0.673057
vt 0.829570 0.140136
vt 0.829883 0.140101
vt 0.829493 0.140463
vt 0.829342 0.140337
vt 0.566896 0.761369
vt 0.568353 0.762256
vt 0.181219 0.164595
vt 0.182197 0.165869
vt 0.180553 0.165190
vt 0.094956 0.849902
vt 0.095296 0.848302
vt 0.096140 0.850956
vt 0.616338 0.041505
vt 0.616119 0.041590
vt 0.616101 0.041299
vt 0.861301 0.809037
vt 0.860991 0.808696
vt 0.862285 0.807959
vt 0.862357 0.808398
vt 0.143581 0.823664
vt 0.144637 0.824452
vt 0.143509 0.826327
vt 0.037868 0.973573
vt 0.896701 0.884651
vt 0.897132 0.885605
vt 0.896089 0.886833
vt 0.620406 0.706799
vt 0.648744 0.823061
vt 0.644992 0.825151
vt 0.646504 0.823117
vt 0.611596 0.490470
vt 0.611989 0.486935
vt 0.403383 0.773955
vt 0.404228 0.771477
vt 0.175743 0.164709
vt 0.177335 0.166824
vt 0.176341 0.166007
vt 0.765099 0.400147
vt 0.766767 0.399734
vt 0.767659 0.401421
vt 0.872441 0.311395
vt 0.871586 0.312775
vt 0.871201 0.311971
vt 0.873723 0.310911
vt 0.236724 0.451995
vt 0.237338 0.453441
vt 0.235520 0.452660
vt 0.887150 0.871763
vt 0.885142 0.872131
vt 0.886121 0.870027
vt 0.884435 0.871029
vt 0.868239 0.494682
vt 0.869723 0.493769
vt 0.871489 0.495996
vt 0.213334 0.570624
vt 0.215418 0.572163
vt 0.218175 0.571729
vt 0.154803 0.714422
vt 0.156057 0.713508
vt 0.154891 0.717397
vt 0.413169 0.262233
vt 0.414617 0.261583
vt 0.414580 0.263566
vt 0.017702 0.773333
vt 0.015045 0.774209
vt 0.017233 0.772080
vt 0.681900 0.696311
vt 0.682093 0.696287
vt 0.216752 0.046781
vt 0.215798 0.046293
vt 0.217432 0.045633
vt 0.217106 0.046294
vt 0.516553 0.671743
vt 0.518335 0.671719
vt 0.517440 0.673411
vt 0.606321 0.485164
vt 0.979968 0.210465
vt 0.980370 0.211681
vt 0.978856 0.210037
vt 0.775285 0.709767
vt 0.772386 0.709155
vt 0.774736 0.708817
vt 0.707638 0.007122
vt 0.249990 0.101031
vt 0.250614 0.102222
vt 0.250217 0.103621
vt 0.574974 0.734363
vt 0.577013 0.734043
vt 0.162301 0.389650
vt 0.161193 0.389133
vt 0.162377 0.388474
vt 0.221668 0.584659
vt 0.221162 0.582431
vt 0.326365 0.660609
vt 0.328351 0.660005
vt 0.328609 0.663108
vt 0.283031 0.846606
vt 0.284145 0.847272
vt 0.282842 0.848581
vt 0.661702 0.578682
vt 0.658694 0.578581
vt 0.659975 0.582390
vt 0.155130 0.720785
vt 0.154305 0.719608
vt 0.244911 0.193361
vt 0.245820 0.192283
vt 0.245568 0.194330
vt 0.723409 0.147158
vt 0.721963 0.146438
vt 0.723158 0.144785
vt 0.411795 0.178831
vt 0.410716 0.177975
vt 0.411915 0.177077
vt 0.721839 0.004842
vt 0.721578 0.002978
vt 0.717838 0.005406
vt 0.271543 0.142789
vt 0.269495 0.141668
vt 0.272113 0.141700
vt 0.167138 0.264018
vt 0.165963 0.264545
vt 0.165251 0.264459
vt 0.793712 0.576199
vt 0.227429 0.934172
vt 0.228423 0.935933
vt 0.227124 0.935910
vt 0.223223 0.376934
vt 0.224441 0.376800
vt 0.223525 0.378289
vt 0.640036 0.969829
vt 0.640117 0.974478
vt 0.639454 0.974198
vt 0.299373 0.163793
vt 0.300295 0.163556
vt 0.300549 0.165682
vt 0.626162 0.983343
vt 0.624859 0.982778
vt 0.587584 0.262565
vt 0.588802 0.262105
vt 0.588606 0.263867
vt 0.898384 0.669371
vt 0.897321 0.669705
vt 0.334055 0.158618
vt 0.334365 0.159889
vt 0.333025 0.160681
vt 0.401054 0.599637
vt 0.402946 0.603080
vt 0.366184 0.692585
vt 0.368548 0.691932
vt 0.368295 0.694918
vt 0.399157 0.985274
vt 0.399848 0.988057
vt 0.397867 0.989201
vt 0.110155 0.831334
vt 0.080296 0.727250
vt 0.080177 0.725916
vt 0.083207 0.728569
vt 0.606408 0.490537
vt 0.606842 0.492179
vt 0.609428 0.492713
vt 0.069297 0.232761
vt 0.069265 0.232834
vt 0.069267 0.232768
vt 0.847772 0.460919
vt 0.848978 0.460173
vt 0.877076 0.599902
vt 0.876815 0.598893
vt 0.876980 0.598875
vt 0.875326 0.445394
vt 0.877821 0.443904
vt 0.875373 0.446344
vt 0.746798 0.362682
vt 0.746292 0.364277
vt 0.744664 0.363244
vt 0.763956 0.834587
vt 0.764844 0.833600
vt 0.766964 0.834791
vt 0.921289 0.711929
vt 0.922532 0.710966
vt 0.922561 0.712370
vt 0.924821 0.712392
vt 0.948582 0.460087
vt 0.950293 0.460385
vt 0.949444 0.461580
vt 0.949366 0.703200
vt 0.948729 0.704462
vt 0.947286 0.703857
vt 0.554158 0.721681
vt 0.554990 0.720700
vt 0.555214 0.721632
vt 0.621786 0.767517
vt 0.621215 0.766138
vt 0.622122 0.762905
vt 0.208400 0.543506
vt 0.372738 0.602759
vt 0.374171 0.602574
vt 0.373848 0.603750
vt 0.095184 0.291579
vt 0.096069 0.291419
vt 0.095172 0.293316
vt 0.327377 0.555217
vt 0.325765 0.555462
vt 0.325905 0.555306
vt 0.610954 0.487043
vt 0.610886 0.485975
vt 0.680771 0.690593
vt 0.827909 0.401601
vt 0.828926 0.401066
vt 0.827803 0.403911
vt 0.826787 0.401834
vt 0.516670 0.925111
vt 0.516641 0.930039
vt 0.515183 0.923503
vt 0.156015 0.116225
vt 0.154989 0.117672
vt 0.154856 0.115907
vt 0.658599 0.875814
vt 0.661218 0.876267
vt 0.657789 0.880229
vt 0.094319 0.852474
vt 0.094554 0.853998
vt 0.093542 0.853929
vt 0.813936 0.933569
vt 0.810365 0.934185
vt 0.812051 0.933184
vt 0.926048 0.074333
vt 0.927590 0.074232
vt 0.927097 0.075295
vt 0.706718 0.177977
vt 0.708043 0.179982
vt 0.707124 0.180824
vt 0.402098 0.584534
vt 0.401650 0.590381
vt 0.400289 0.588208
vt 0.880394 0.518495
vt 0.879354 0.519746
vt 0.015069 0.246429
vt 0.017115 0.245372
vt 0.016580 0.246611
vt 0.308862 0.395262
vt 0.309070 0.394339
vt 0.309634 0.395927
vt 0.870409 0.950534
vt 0.870474 0.951570
vt 0.868400 0.951093
vt 0.659661 0.882046
vt 0.659145 0.884890
vt 0.660573 0.655949
vt 0.660570 0.654274
vt 0.661018 0.654801
vt 0.284569 0.847881
vt 0.284537 0.850793
vt 0.281940 0.851055
vt 0.727189 0.003766
vt 0.726804 0.001687
vt 0.730489 0.001505
vt 0.077141 0.026116
vt 0.077973 0.025397
vt 0.078938 0.025908
vt 0.805329 0.143467
vt 0.806051 0.144298
vt 0.804183 0.144321
vt 0.148636 0.271361
vt 0.149023 0.269808
vt 0.149704 0.270610
vt 0.367378 0.722819
vt 0.368715 0.723218
vt 0.420177 0.073961
vt 0.421503 0.074106
vt 0.421511 0.074673
vt 0.065707 0.897923
vt 0.068114 0.893958
vt 0.065660 0.899773
vt 0.791757 0.722835
vt 0.793121 0.723846
vt 0.790167 0.723581
vt 0.393289 0.631105
vt 0.392212 0.630996
vt 0.393040 0.629879
vt 0.641067 0.279224
vt 0.752567 0.866117
vt 0.752446 0.864196
vt 0.754406 0.864241
vt 0.862033 0.231251
vt 0.860479 0.232117
vt 0.860570 0.230903
vt 0.398700 0.590628
vt 0.397322 0.587040
vt 0.375304 0.702291
vt 0.377625 0.699310
vt 0.376920 0.702570
vt 0.210328 0.559386
vt 0.208980 0.556355
vt 0.755891 0.914445
vt 0.756959 0.913217
vt 0.758733 0.914490
vt 0.805060 0.594035
vt 0.801041 0.593625
vt 0.802054 0.593275
vt 0.837107 0.908733
vt 0.838897 0.909109
vt 0.836939 0.909758
vt 0.808911 0.100236
vt 0.809406 0.100959
vt 0.807576 0.100732
vt 0.625003 0.762479
vt 0.626343 0.765110
vt 0.515547 0.920434
vt 0.842108 0.787127
vt 0.841996 0.787260
vt 0.841922 0.787093
vt 0.872909 0.822003
vt 0.870031 0.821975
vt 0.873777 0.821335
vt 0.059701 0.039287
vt 0.061565 0.037917
vt 0.060689 0.039249
vt 0.871571 0.821140
vt 0.528781 0.182482
vt 0.528900 0.184522
vt 0.527563 0.184912
vt 0.620786 0.700858
vt 0.645540 0.287461
vt 0.647685 0.287119
vt 0.174702 0.254062
vt 0.173491 0.253694
vt 0.174556 0.252632
vt 0.828938 0.836905
vt 0.826024 0.836394
vt 0.828195 0.835901
vt 0.100226 0.694567
vt 0.945318 0.280593
vt 0.943478 0.278592
vt 0.945952 0.278704
vt 0.095037 0.852521
vt 0.094788 0.850801
vt 0.093682 0.850023
vt 0.840361 0.375520
vt 0.843492 0.376828
vt 0.841543 0.377189
vt 0.223262 0.734965
vt 0.222814 0.732831
vt 0.224842 0.733741
vt 0.225675 0.735068
vt 0.705526 0.006278
vt 0.707444 0.004997
vt 0.706561 0.007210
vt 0.215774 0.578349
vt 0.216557 0.576932
vt 0.283899 0.853177
vt 0.431298 0.142887
vt 0.430561 0.144662
vt 0.429654 0.143207
vt 0.211978 0.554672
vt 0.213146 0.555522
vt 0.103314 0.725402
vt 0.105290 0.723674
vt 0.106166 0.726967
vt 0.810474 0.522442
vt 0.808838 0.521789
vt 0.808672 0.520705
vt 0.033772 0.174352
vt 0.035624 0.174792
vt 0.034175 0.175451
vt 0.228917 0.937505
vt 0.227227 0.937387
vt 0.323208 0.353475
vt 0.322745 0.354617
vt 0.322283 0.352840
vt 0.396034 0.988599
vt 0.396597 0.987803
vt 0.397058 0.989060
vt 0.878185 0.904775
vt 0.879555 0.903758
vt 0.878314 0.906457
vt 0.078900 0.062843
vt 0.078561 0.062484
vt 0.079947 0.061545
vt 0.079938 0.061586
vt 0.375997 0.065821
vt 0.375855 0.065133
vt 0.376233 0.065291
vt 0.091487 0.666985
vt 0.091789 0.665476
vt 0.092901 0.666620
vt 0.092044 0.670798
vt 0.091692 0.669726
vt 0.365477 0.689533
vt 0.224856 0.936475
vt 0.931887 0.484725
vt 0.935726 0.484540
vt 0.573487 0.728099
vt 0.574975 0.727402
vt 0.659989 0.388313
vt 0.911133 0.689211
vt 0.911623 0.688244
vt 0.913133 0.687764
vt 0.986655 0.539530
vt 0.986423 0.537349
vt 0.988278 0.537194
vt 0.662133 0.581932
vt 0.701170 0.149433
vt 0.700386 0.148303
vt 0.701726 0.146641
vt 0.004114 0.817163
vt 0.001375 0.820589
vt 0.001987 0.818836
vt 0.776318 0.610539
vt 0.778380 0.611454
vt 0.778593 0.612706
vt 0.765397 0.652103
vt 0.763430 0.653477
vt 0.762191 0.651623
vt 0.121997 0.140176
vt 0.121937 0.138231
vt 0.123126 0.138649
vt 0.993126 0.595870
vt 0.990602 0.595443
vt 0.989531 0.594109
vt 0.067390 0.392137
vt 0.065483 0.391394
vt 0.066987 0.390898
vt 0.824721 0.211134
vt 0.824038 0.212439
vt 0.823231 0.211731
vt 0.662781 0.577166
vt 0.621588 0.761245
vt 0.209265 0.550806
vt 0.206333 0.551476
vt 0.897781 0.952968
vt 0.897797 0.954149
vt 0.896404 0.951669
vt 0.399811 0.594974
vt 0.398513 0.593326
vt 0.400737 0.593611
vt 0.283374 0.855070
vt 0.282382 0.854424
vt 0.781923 0.087347
vt 0.781254 0.086067
vt 0.782974 0.085873
vt 0.818395 0.295993
vt 0.818391 0.296041
vt 0.818358 0.296001
vt 0.608557 0.026228
vt 0.609242 0.027541
vt 0.608010 0.028008
vt 0.608352 0.026404
vt 0.890082 0.998999
vt 0.891753 0.997586
vt 0.892015 0.998777
vt 0.869898 0.312582
vt 0.869031 0.313529
vt 0.664155 0.581528
vt 0.663681 0.578744
vt 0.605976 0.053123
vt 0.607023 0.053325
vt 0.606643 0.054752
vt 0.199769 0.824113
vt 0.200430 0.825131
vt 0.198336 0.825158
vt 0.061554 0.605963
vt 0.064546 0.605785
vt 0.063212 0.606243
vt 0.390174 0.445353
vt 0.390622 0.446025
vt 0.389123 0.446107
vt 0.868123 0.815060
vt 0.870254 0.815289
vt 0.868645 0.816083
vt 0.871500 0.816764
vt 0.869677 0.816075
vt 0.689958 0.094324
vt 0.690257 0.097107
vt 0.689281 0.096034
vt 0.811455 0.384210
vt 0.300020 0.772783
vt 0.890013 0.370056
vt 0.890813 0.371426
vt 0.887043 0.371773
vt 0.680441 0.543764
vt 0.679409 0.543269
vt 0.679754 0.542370
vt 0.910401 0.091964
vt 0.910785 0.092781
vt 0.908717 0.092093
vt 0.592118 0.041927
vt 0.591074 0.041056
vt 0.592196 0.039909
vt 0.380352 0.902876
vt 0.381300 0.902537
vt 0.381161 0.904232
vt 0.650711 0.823896
vt 0.647861 0.827615
vt 0.670491 0.271359
vt 0.670779 0.268154
vt 0.671390 0.270287
vt 0.157194 0.852799
vt 0.158766 0.850986
vt 0.159639 0.852381
vt 0.239993 0.134779
vt 0.240668 0.132950
vt 0.240330 0.136008
vt 0.811685 0.521967
vt 0.810305 0.521730
vt 0.810603 0.520787
vt 0.403940 0.598161
vt 0.404645 0.596930
vt 0.405850 0.599023
vt 0.727959 0.150893
vt 0.725739 0.149361
vt 0.728850 0.150604
vt 0.825074 0.931744
vt 0.824373 0.932526
vt 0.822689 0.932044
vt 0.578802 0.734498
vt 0.576596 0.736590
vt 0.575892 0.735376
vt 0.256120 0.078197
vt 0.257687 0.077541
vt 0.258224 0.078484
vt 0.911091 0.988853
vt 0.911635 0.989432
vt 0.912477 0.990508
vt 0.419937 0.773961
vt 0.225429 0.857804
vt 0.224574 0.856809
vt 0.224836 0.854768
vt 0.753626 0.664417
vt 0.755913 0.663426
vt 0.756657 0.665132
vt 0.907705 0.948019
vt 0.906433 0.947391
vt 0.907549 0.946736
vt 0.239574 0.095348
vt 0.240525 0.093875
vt 0.239686 0.096841
vt 0.639977 0.966877
vt 0.638758 0.964450
vt 0.640323 0.964546
vt 0.660751 0.002649
vt 0.836907 0.931191
vt 0.837925 0.929932
vt 0.839583 0.930811
vt 0.948443 0.955642
vt 0.947290 0.955839
vt 0.946476 0.954444
vt 0.405131 0.599069
vt 0.402577 0.598816
vt 0.057045 0.177663
vt 0.057026 0.179000
vt 0.055267 0.178534
vt 0.654210 0.003730
vt 0.100205 0.697914
vt 0.982930 0.496319
vt 0.983814 0.496893
vt 0.984935 0.499596
vt 0.676265 0.039344
vt 0.674270 0.038590
vt 0.675764 0.038776
vt 0.771839 0.792870
vt 0.770343 0.791981
vt 0.771105 0.790198
vt 0.516626 0.666416
vt 0.515007 0.667319
vt 0.514947 0.664108
vt 0.517350 0.663072
vt 0.625449 0.974507
vt 0.627008 0.972009
vt 0.625617 0.975388
vt 0.811362 0.293952
vt 0.810312 0.296137
vt 0.808611 0.294353
vt 0.252077 0.122877
vt 0.253404 0.122909
vt 0.253413 0.124960
vt 0.883383 0.986838
vt 0.882841 0.984760
vt 0.885078 0.985739
vt 0.376311 0.703319
vt 0.375712 0.706075
vt 0.044755 0.526797
vt 0.045318 0.527950
vt 0.043563 0.527799
vt 0.945621 0.800366
vt 0.944961 0.798764
vt 0.946015 0.799369
vt 0.944595 0.801054
vt 0.477547 0.959579
vt 0.302995 0.023814
vt 0.303296 0.022554
vt 0.303679 0.024256
vt 0.762268 0.725906
vt 0.758391 0.724628
vt 0.763278 0.725172
vt 0.300182 0.187327
vt 0.300140 0.183937
vt 0.300541 0.183136
vt 0.974078 0.812207
vt 0.974267 0.812494
vt 0.974065 0.812419
vt 0.958052 0.598181
vt 0.957626 0.598823
vt 0.956629 0.597994
vt 0.359944 0.696121
vt 0.361371 0.695485
vt 0.189000 0.658628
vt 0.189355 0.658741
vt 0.190441 0.659759
vt 0.189701 0.662206
vt 0.915884 0.369458
vt 0.915122 0.370193
vt 0.911642 0.369088
vt 0.911607 0.369055
vt 0.729355 0.724432
vt 0.733914 0.724706
vt 0.730682 0.725519
vt 0.730287 0.725252
vt 0.641655 0.276950
vt 0.641942 0.276865
vt 0.643519 0.278307
vt 0.644361 0.278638
vt 0.645406 0.279110
vt 0.747099 0.895192
vt 0.746713 0.896629
vt 0.745169 0.895690
vt 0.745124 0.895457
vt 0.361392 0.695566
vt 0.379017 0.126015
vt 0.377850 0.126861
vt 0.377517 0.125705
vt 0.377868 0.125737
vt 0.745570 0.894720
vt 0.745009 0.895320
vt 0.535449 0.507461
vt 0.537418 0.507614
vt 0.537063 0.508833
vt 0.536464 0.510494
vt 0.305479 0.984054
vt 0.304913 0.984559
vt 0.303639 0.984763
vt 0.304371 0.983639
vt 0.136532 0.219016
vt 0.136175 0.218994
vt 0.136224 0.218884
vt 0.008230 0.956818
vt 0.008431 0.957520
vt 0.007199 0.958411
vt 0.007082 0.958395
vt 0.649141 0.827846
vt 0.648289 0.828320
vt 0.649849 0.827735
vt 0.894912 0.708714
vt 0.893812 0.707501
vt 0.894947 0.706668
vt 0.894947 0.708581
vt 0.787495 0.874120
vt 0.787678 0.873527
vt 0.788334 0.873268
vt 0.789199 0.873936
vt 0.800404 0.945341
vt 0.801051 0.945511
vt 0.800948 0.946543
vt 0.800768 0.946633
vn -0.1501 -0.6716 0.7256
vn -0.0202 -0.9857 -0.1671
vn 0.0121 -0.9725 0.2326
vn -0.1152 0.0879 0.9894
vn 0.0194 0.8405 0.5414
vn -0.0600 0.8541 0.5167
vn -0.0119 0.5720 -0.8202
vn -0.0246 0.7868 -0.6167
vn 0.0118 -0.4818 -0.8762
vn 0.2241 -0.6908 -0.6874
vn 0.1484 -0.9503 0.2736
vn 0.1918 -0.7230 -0.6637
vn -0.1107 0.9770 0.1824
vn -0.2305 0.5883 0.7751
vn -0.0834 0.8640 0.4966
vn 0.1146 -0.6664 -0.7367
vn 0.1049 -0.8074 -0.5806
vn 0.1934 -0.7052 -0.6821
vn -0.1609 -0.1462 0.9761
vn -0.0288 -0.2412 0.9700
vn 0.0778 0.1254 0.9891
vn 0.2478 0.6748 -0.6952
vn -0.2430 0.1322 0.9610
vn -0.1515 -0.3207 0.9350
vn 0.2522 -0.9518 -0.1746
vn 0.0501 -0.2488 0.9673
vn -0.3462 -0.0819 0.9346
vn -0.1329 -0.8983 0.4187
vn -0.3522 0.0681 0.9334
vn 0.1365 -0.4553 -0.8798
vn 0.1809 -0.4264 -0.8863
vn 0.0741 -0.4274 -0.9010
vn -0.0103 0.9806 0.1959
vn -0.1583 0.8330 0.5301
vn 0.0096 0.9699 0.2434
vn -0.2073 -0.9392 0.2737
vn -0.3497 -0.2359 0.9067
vn -0.3409 -0.8959 0.2849
vn -0.3339 0.3877 0.8592
vn -0.1125 0.9470 0.3009
vn 0.4483 0.3824 -0.8079
vn -0.0292 0.5030 -0.8638
vn -0.1028 0.9916 -0.0783
vn 0.2511 -0.7099 -0.6580
vn 0.2537 -0.7143 0.6522
vn 0.1050 -0.7702 -0.6291
vn -0.0722 -0.8528 0.5172
vn -0.1851 -0.3709 0.9100
vn 0.2467 0.1278 -0.9606
vn 0.2210 0.2647 -0.9387
vn 0.3206 -0.2855 -0.9032
vn 0.0977 -0.1063 -0.9895
vn -0.3326 0.4947 0.8029
vn 0.0744 -0.8316 -0.5504
vn 0.0319 -0.9855 -0.1665
vn -0.1451 -0.9759 -0.1627
vn -0.1085 0.9805 0.1642
vn -0.2575 0.3022 0.9178
vn -0.2243 0.7908 0.5695
vn -0.1794 0.4094 0.8945
vn -0.1299 -0.5466 0.8272
vn 0.2337 -0.7273 -0.6453
vn -0.1307 -0.9762 0.1729
vn 0.1418 -0.9883 -0.0553
vn 0.6092 0.7929 0.0141
vn -0.1219 0.9582 -0.2589
vn -0.2936 0.9467 0.1323
vn 0.5409 0.8145 0.2098
vn -0.0924 0.9945 0.0491
vn -0.0876 0.9793 0.1826
vn -0.5930 0.3799 0.7099
vn -0.4604 -0.8399 0.2875
vn -0.4495 -0.1185 0.8854
vn 0.2973 -0.0647 -0.9526
vn 0.1887 -0.8076 -0.5587
vn 0.0097 0.4305 0.9025
vn -0.0748 0.6460 0.7596
vn -0.1896 0.9648 0.1823
vn 0.0118 0.9928 0.1195
vn -0.0731 0.9906 0.1156
vn -0.0595 0.8576 0.5109
vn 0.3913 0.4070 -0.8254
vn 0.0785 -0.7882 0.6104
vn -0.0765 0.9741 0.2129
vn 0.1875 0.7922 -0.5807
vn 0.1341 -0.7709 -0.6227
vn -0.2103 -0.5528 0.8063
vn -0.0709 0.3093 0.9483
vn -0.2660 -0.2779 0.9231
vn 0.4420 0.5043 -0.7418
vn 0.0297 0.6697 -0.7421
vn -0.0867 -0.8806 -0.4659
vn -0.0005 -0.6665 -0.7455
vn -0.2001 0.5710 0.7962
vn -0.1200 -0.9329 0.3395
vn -0.1310 0.3051 0.9433
vn 0.1552 -0.6016 0.7835
vn -0.1241 -0.9561 0.2655
vn -0.2258 -0.7906 0.5692
vn -0.0627 0.8734 0.4829
vn -0.2061 0.1333 0.9694
vn -0.1817 -0.9536 0.2401
vn 0.1366 -0.6663 -0.7331
vn 0.2742 -0.7815 0.5604
vn 0.7449 -0.3228 0.5839
vn -0.2974 -0.6690 0.6812
vn -0.0024 0.9970 0.0775
vn -0.0771 0.5363 0.8405
vn 0.1081 0.8110 -0.5750
vn 0.1089 0.6678 -0.7363
vn -0.2958 -0.8986 0.3241
vn 0.2150 0.7198 -0.6600
vn 0.0712 0.8066 0.5868
vn 0.0810 0.5953 0.7994
vn 0.0152 -0.9865 -0.1633
vn 0.0939 -0.5519 -0.8286
vn 0.0813 -0.1758 0.9811
vn 0.0593 0.7310 0.6798
vn 0.2483 0.4285 -0.8688
vn 0.0649 0.9970 0.0424
vn -0.1624 0.5982 0.7847
vn 0.2986 0.3626 -0.8828
vn 0.0550 0.9985 -0.0007
vn -0.0117 -0.9992 -0.0373
vn 0.0977 -0.3498 -0.9317
vn 0.0423 -0.9911 0.1264
vn 0.1388 -0.6762 -0.7235
vn 0.0135 0.9998 0.0135
vn 0.4784 0.3346 -0.8119
vn 0.0811 0.5989 -0.7967
vn 0.3107 0.0662 -0.9482
vn 0.0284 0.9729 0.2295
vn -0.0727 0.8919 0.4463
vn -0.0244 0.6510 0.7587
vn 0.0078 0.8488 0.5286
vn -0.2531 -0.9320 0.2594
vn -0.4793 0.6882 0.5446
vn -0.4376 0.4525 0.7770
vn 0.1416 -0.9877 -0.0666
vn -0.1354 -0.3952 0.9086
vn 0.7847 0.6159 0.0694
vn 0.2254 -0.9553 -0.1913
vn -0.1759 -0.6139 -0.7695
vn -0.1850 -0.9730 -0.1380
vn 0.0948 0.8252 -0.5569
vn -0.2158 0.9729 0.0833
vn -0.6623 0.6122 -0.4319
vn 0.0592 0.6617 -0.7475
vn -0.5077 0.6008 -0.6175
vn 0.3181 0.6607 -0.6799
vn 0.3938 0.0120 0.9191
vn 0.0426 0.0833 0.9956
vn -0.4192 0.2842 0.8623
vn -0.5726 0.3219 0.7540
vn 0.1571 0.6906 -0.7060
vn -0.3308 -0.7684 0.5479
vn -0.8743 -0.2808 0.3958
vn -0.8098 -0.4734 0.3465
vn -0.8668 -0.0642 0.4944
vn 0.1250 -0.8194 -0.5595
vn 0.0167 -0.7988 -0.6014
vn -0.1062 0.0499 0.9931
vn 0.6856 0.7257 0.0578
vn 0.7847 0.4915 -0.3778
vn 0.0437 0.6176 -0.7853
vn -0.1755 0.4846 0.8569
vn 0.6552 -0.6661 -0.3564
vn 0.7265 -0.3942 -0.5629
vn 0.1277 0.5002 -0.8565
vn 0.1375 -0.5156 -0.8457
vn -0.0277 0.6495 0.7599
vn -0.5525 0.0160 0.8333
vn -0.4224 -0.6245 0.6570
vn 0.0926 0.6494 -0.7548
vn 0.0013 0.9334 0.3588
vn -0.0458 0.9457 0.3218
vn 0.2661 0.5594 -0.7850
vn 0.8114 -0.5302 -0.2461
vn 0.7009 -0.5888 -0.4026
vn 0.1600 -0.0194 -0.9869
vn 0.8019 -0.3158 -0.5072
vn -0.3941 0.4046 0.8252
vn -0.2419 -0.9265 0.2882
vn 0.1213 -0.9597 -0.2534
vn 0.0391 -0.0874 0.9954
vn -0.2351 -0.3758 0.8964
vn 0.3100 -0.1776 0.9340
vn -0.3215 0.1001 0.9416
vn -0.2639 -0.1540 0.9522
vn -0.2859 0.7585 0.5857
vn -0.3560 0.8499 0.3885
vn -0.1029 0.4659 0.8788
vn -0.0865 -0.8340 0.5449
vn 0.5885 -0.4191 0.6914
vn -0.7954 0.1259 0.5929
vn 0.2872 -0.9433 -0.1663
vn -0.0036 -0.0062 1.0000
vn 0.8305 -0.0301 -0.5562
vn 0.0682 -0.9905 0.1192
vn -0.1086 0.6014 -0.7916
vn -0.5455 0.2959 -0.7842
vn -0.6602 0.2457 -0.7098
vn -0.0183 -0.2244 0.9743
vn 0.8154 0.2682 -0.5130
vn -0.5000 -0.3724 -0.7819
vn 0.1802 -0.5011 -0.8464
vn -0.6383 -0.5492 -0.5394
vn 0.6016 0.3268 -0.7289
vn 0.5753 0.7803 0.2452
vn 0.2471 0.7686 0.5901
vn 0.3106 0.2246 0.9236
vn -0.0146 -0.6547 -0.7558
vn 0.0782 0.9205 -0.3828
vn -0.7075 0.7065 -0.0179
vn -0.6307 0.7128 -0.3067
vn 0.1891 -0.6837 -0.7048
vn -0.7762 -0.5743 0.2601
vn -0.7218 -0.6904 0.0489
vn -0.7207 0.6377 0.2720
vn -0.4342 0.0192 -0.9006
vn -0.7899 -0.5338 0.3018
vn -0.6353 -0.6604 -0.4002
vn -0.7292 0.3899 0.5623
vn 0.6970 -0.2304 0.6791
vn 0.8334 0.1656 -0.5273
vn 0.8899 0.2501 -0.3816
vn 0.3421 -0.1122 0.9329
vn 0.7137 -0.1977 0.6719
vn 0.3903 -0.8979 0.2038
usemtl sungaya_inexpectata_31mg
s 1
f 14/1/1 75/2/2 15/3/3
f 18/4/4 67/5/5 19/6/6
f 29/7/7 30/8/8 56/9/9
f 3/10/10 31/11/11 87/12/12
f 37/13/13 26/14/14 38/15/15
f 81/16/16 42/17/17 123/18/18
f 54/19/19 44/20/20 55/21/21
f 66/22/22 67/23/5 40/24/23
f 64/25/24 79/26/25 80/27/26
f 83/28/27 68/29/28 69/30/29
f 84/31/30 119/32/31 85/33/32
f 129/34/33 93/35/34 89/36/35
f 90/37/36 115/38/37 116/39/38
f 115/40/37 90/41/36 91/42/39
f 94/43/40 125/44/41 95/45/42
f 37/13/13 38/15/15 163/46/43
f 61/47/44 176/48/45 109/49/46
f 35/50/47 64/51/24 172/52/48
f 111/53/49 112/54/50 23/55/51
f 106/56/52 23/55/51 112/54/50
f 115/38/37 51/57/53 116/39/38
f 27/58/54 122/59/55 53/60/56
f 41/61/57 2/62/58 7/63/59
f 41/64/57 126/65/60 2/66/58
f 54/19/19 96/67/61 44/20/20
f 42/68/17 151/69/62 123/70/18
f 151/71/62 42/72/17 160/73/63
f 14/74/1 96/67/61 54/19/19
f 56/75/9 178/76/64 84/77/30
f 222/78/65 43/79/66 74/80/67 224/81/68
f 17/82/69 45/83/70 138/84/71
f 105/85/72 156/86/73 138/87/71
f 18/88/4 40/89/23 67/90/5
f 143/91/74 151/92/62 120/93/75
f 10/94/76 9/95/77 80/96/26
f 38/97/15 147/98/78 163/99/43
f 76/100/79 148/101/80 149/102/81
f 148/103/80 76/104/79 52/105/82
f 80/106/26 79/107/25 13/108/83
f 76/109/79 6/110/84 150/111/85
f 50/112/86 120/113/75 116/114/38
f 165/115/87 113/116/88 34/117/89
f 58/118/90 152/119/91 67/120/5
f 86/121/92 75/2/2 78/122/93
f 124/123/94 6/124/84 76/125/79
f 31/126/11 88/127/95 87/128/12
f 9/129/77 8/130/96 64/131/24
f 96/132/61 15/133/3 98/134/97
f 154/135/98 165/136/87 77/137/99
f 129/138/33 130/139/100 93/140/34
f 91/141/39 93/142/34 130/143/100
f 2/144/58 88/145/95 127/146/101
f 46/147/102 137/148/103 95/149/42
f 217/150/104 228/151/105 144/152/106
f 161/153/107 47/154/108 9/155/77
f 161/156/107 25/157/109 108/158/110
f 172/159/48 154/160/98 35/161/47
f 175/162/111 109/49/46 176/48/45
f 139/163/112 134/164/113 102/165/114
f 137/166/103 167/167/115 57/168/116
f 12/169/117 1/170/118 10/171/76
f 143/172/74 50/173/86 182/174/119
f 166/175/120 7/176/59 128/177/121
f 32/178/122 103/179/123 129/180/33
f 136/181/124 110/182/125 85/183/32
f 135/184/126 46/147/102 132/185/127
f 65/186/128 17/187/69 159/188/129
f 153/189/130 89/190/35 65/191/128
f 82/192/131 153/193/130 65/194/128
f 161/195/107 24/196/132 25/197/109
f 118/198/133 36/199/134 71/200/135
f 172/201/48 8/202/96 113/203/88
f 51/57/53 158/204/136 116/39/38
f 173/205/137 17/206/69 138/207/71
f 137/208/103 57/209/116 58/210/90
f 148/211/80 142/212/138 149/213/81
f 167/214/115 56/215/9 57/216/116
f 162/217/139 79/218/25 35/219/47
f 162/220/139 23/221/51 79/222/25
f 13/108/83 12/223/117 80/106/26
f 51/57/53 115/38/37 91/224/39
f 13/225/83 157/226/140 12/227/117
f 67/228/5 152/229/91 19/230/6
f 36/231/134 118/232/133 102/233/114
f 35/234/47 79/235/25 64/236/24
f 13/237/83 136/238/124 157/239/140
f 113/240/88 8/241/96 9/155/77
f 222/242/65 206/243/141 43/244/66
f 81/245/16 27/246/54 53/247/56
f 23/248/51 174/249/142 79/250/25
f 86/251/92 62/252/143 63/253/144
f 124/254/94 175/255/111 176/256/45
f 139/257/112 29/258/7 84/259/30
f 106/260/52 131/261/145 110/262/125
f 37/263/13 16/264/146 26/265/14
f 26/266/14 16/267/146 173/268/137
f 151/92/62 160/269/63 90/270/36
f 142/271/138 128/272/121 83/28/27
f 128/272/121 127/146/101 83/28/27
f 54/273/19 55/274/21 26/275/14
f 192/276/147 28/277/148 199/278/149
f 123/279/18 151/280/62 153/281/130
f 128/282/121 148/283/80 166/284/120
f 16/285/146 48/286/150 17/287/69
f 211/288/151 208/289/152 5/290/153
f 45/83/70 93/35/34 145/291/154
f 147/292/78 100/293/155 163/294/43
f 100/295/155 147/296/78 43/297/66
f 14/298/1 54/299/19 156/300/73
f 88/301/95 135/302/126 132/303/127
f 155/304/156 14/305/1 156/306/73
f 75/2/2 155/307/156 122/308/55
f 158/309/136 50/310/86 116/311/38
f 172/52/48 165/312/87 154/313/98
f 203/314/157 194/315/158 34/316/89
f 203/314/157 34/316/89 202/317/159
f 117/318/160 170/319/161 109/49/46
f 66/320/22 94/321/40 95/322/42
f 70/323/162 178/324/64 167/325/115
f 206/326/141 226/327/163 43/328/66
f 215/329/164 100/330/155 43/331/66 226/332/163
f 48/333/150 163/334/43 101/335/165
f 163/336/43 48/286/150 16/285/146
f 40/337/23 39/338/166 66/339/22
f 96/67/61 98/340/97 44/20/20
f 98/341/97 55/342/21 44/343/20
f 210/344/167 62/252/143 214/345/168
f 87/346/12 88/301/95 183/347/169
f 109/348/46 171/349/170 61/350/44
f 9/351/77 11/352/171 24/353/132
f 160/354/63 145/355/154 92/356/172
f 145/355/154 160/354/63 73/357/173
f 56/358/9 167/359/115 178/360/64
f 139/361/112 140/362/174 134/363/113
f 134/363/113 140/362/174 33/364/175
f 70/365/162 18/366/4 19/367/6
f 182/368/119 6/110/84 103/369/123
f 103/369/123 6/110/84 133/370/176
f 17/371/69 173/372/137 16/373/146
f 10/374/76 80/375/26 12/376/117
f 59/377/177 3/378/10 87/379/12
f 213/380/178 86/121/92 78/122/93 204/381/179
f 204/382/179 78/383/93 107/384/180 227/385/181
f 126/386/60 135/387/126 2/388/58
f 15/389/3 86/251/92 63/253/144
f 107/390/180 78/391/93 48/392/150
f 107/393/180 48/394/150 101/395/165
f 51/57/53 20/396/182 158/204/136
f 20/397/182 21/398/183 158/399/136
f 6/400/84 124/123/94 20/401/182
f 136/402/124 13/403/83 174/404/142
f 65/405/128 89/406/35 45/83/70
f 133/407/176 91/408/39 130/409/100
f 157/410/140 180/411/184 104/412/185
f 28/277/148 108/413/110 111/414/49
f 112/415/50 111/414/49 108/413/110
f 16/373/146 37/416/13 163/417/43
f 179/418/186 46/419/102 135/420/126
f 81/421/16 53/422/56 42/423/17
f 82/424/131 81/425/16 123/426/18
f 92/427/172 90/37/36 160/428/63
f 92/427/172 91/429/39 90/37/36
f 99/430/187 124/431/94 176/432/45
f 99/433/187 20/434/182 124/435/94
f 113/116/88 47/436/108 34/117/89
f 26/437/14 55/438/21 38/439/15
f 102/440/114 114/441/188 36/442/134
f 88/443/95 31/444/11 141/445/189
f 83/446/27 88/447/95 141/448/189
f 106/449/52 174/450/142 23/55/51
f 174/451/142 106/452/52 110/453/125
f 89/454/35 153/189/130 129/455/33
f 71/456/135 19/457/6 30/458/8
f 152/119/91 30/459/8 19/460/6
f 74/461/67 22/462/190 121/463/191
f 22/464/190 169/465/192 121/466/191
f 7/63/59 2/62/58 127/467/101
f 133/468/176 51/469/53 91/470/39
f 98/471/97 15/389/3 63/253/144
f 98/471/97 63/253/144 97/472/193
f 63/253/144 144/473/106 97/472/193
f 217/474/104 144/475/106 219/476/194
f 11/477/171 10/171/76 1/478/118
f 186/479/195 202/480/159 34/481/89
f 9/482/77 10/483/76 11/484/171
f 102/485/114 134/486/113 12/487/117
f 56/488/9 30/489/8 57/490/116
f 119/491/31 84/492/30 181/493/196
f 181/493/196 84/492/30 178/494/64
f 45/495/70 17/496/69 65/497/128
f 182/498/119 50/499/86 61/500/44
f 26/501/14 156/502/73 54/503/19
f 41/504/57 125/505/41 94/506/40
f 126/65/60 41/64/57 94/507/40
f 104/508/185 168/509/197 36/510/134
f 113/511/88 165/512/87 172/513/48
f 227/514/181 107/515/180 223/516/198
f 214/517/168 62/252/143 86/251/92 213/518/178
f 27/519/54 75/2/2 122/308/55
f 61/520/44 50/521/86 158/522/136
f 21/523/183 61/520/44 158/522/136
f 156/524/73 26/525/14 173/526/137
f 73/527/173 138/528/71 145/529/154
f 138/84/71 45/83/70 145/291/154
f 112/530/50 25/531/109 106/532/52
f 18/533/4 164/534/199 40/535/23
f 102/536/114 12/537/117 157/538/140
f 157/539/140 114/540/188 102/541/114
f 1/542/118 12/543/117 134/544/113
f 1/545/118 134/546/113 33/547/175
f 133/548/176 129/180/33 103/549/123
f 116/550/38 120/551/75 90/552/36
f 183/347/169 88/301/95 132/303/127
f 174/553/142 110/554/125 136/555/124
f 24/556/132 4/557/200 25/558/109
f 4/559/200 106/532/52 25/531/109
f 4/559/200 131/560/145 106/532/52
f 181/561/196 180/562/184 119/563/31
f 104/412/185 180/564/184 181/565/196
f 168/566/197 104/412/185 181/565/196
f 73/567/173 53/568/56 105/569/72
f 138/87/71 73/567/173 105/569/72
f 142/570/138 69/571/29 149/572/81
f 142/271/138 83/28/27 69/30/29
f 7/573/59 127/574/101 128/575/121
f 75/576/2 27/577/54 78/578/93
f 13/225/83 79/579/25 174/580/142
f 196/581/201 195/582/202 28/583/148
f 105/584/72 53/585/56 122/586/55
f 46/587/102 179/588/186 164/589/199
f 137/590/103 46/591/102 164/592/199
f 165/136/87 34/593/89 77/137/99
f 121/594/191 169/595/192 5/596/153
f 72/597/203 5/598/153 169/599/192
f 33/547/175 140/600/174 131/601/145
f 110/602/125 131/603/145 140/604/174
f 148/283/80 52/605/82 59/606/177
f 166/284/120 148/283/80 59/606/177
f 87/607/12 183/608/169 59/609/177
f 59/610/177 183/611/169 166/612/120
f 179/613/186 126/614/60 39/615/166
f 179/616/186 135/617/126 126/618/60
f 39/619/166 126/620/60 94/506/40
f 156/524/73 173/526/137 138/621/71
f 205/622/204 223/623/198 107/624/180
f 61/625/44 171/626/170 182/627/119
f 150/628/85 6/629/84 182/630/119
f 182/627/119 171/626/170 150/631/85
f 75/632/2 86/633/92 15/634/3
f 96/67/61 14/74/1 15/635/3
f 35/636/47 154/135/98 162/637/139
f 53/638/56 73/639/173 160/640/63
f 53/641/56 160/642/63 42/643/17
f 82/644/131 65/186/128 159/188/129
f 109/645/46 170/646/161 171/647/170
f 164/648/199 70/649/162 167/325/115
f 164/648/199 18/650/4 70/649/162
f 191/651/205 60/652/206 185/653/207
f 155/654/156 156/655/73 105/656/72
f 155/654/156 105/656/72 122/657/55
f 99/658/187 21/659/183 20/660/182
f 153/661/130 32/662/122 129/34/33
f 47/154/108 113/240/88 9/155/77
f 178/663/64 168/566/197 181/565/196
f 172/664/48 64/665/24 8/666/96
f 148/283/80 128/667/121 142/668/138
f 184/669/208 118/670/133 71/671/135
f 184/672/208 29/673/7 118/674/133
f 55/675/21 169/676/192 22/677/190
f 38/439/15 55/678/21 22/679/190
f 130/680/100 129/681/33 133/682/176
f 224/683/68 74/684/67 121/466/191 225/685/209
f 55/686/21 72/687/203 169/688/192
f 220/689/210 121/690/191 5/691/153 212/692/211
f 220/693/210 225/694/209 121/695/191
f 143/696/74 182/697/119 103/698/123
f 103/698/123 32/699/122 143/696/74
f 32/699/122 151/700/62 143/696/74
f 22/462/190 74/461/67 147/701/78
f 38/439/15 22/679/190 147/702/78
f 69/703/29 124/704/94 149/102/81
f 124/123/94 76/705/79 149/706/81
f 143/91/74 120/93/75 50/707/86
f 14/1/1 155/307/156 75/2/2
f 52/708/82 76/709/79 150/710/85
f 9/711/77 64/712/24 80/713/26
f 25/714/109 112/415/50 108/413/110
f 83/715/27 127/716/101 88/717/95
f 48/718/150 78/719/93 49/720/212
f 159/721/129 49/722/212 27/723/54
f 78/724/93 27/725/54 49/726/212
f 131/727/145 4/728/200 24/729/132
f 131/730/145 24/731/132 11/732/171
f 1/733/118 131/734/145 11/735/171
f 1/736/118 33/737/175 131/738/145
f 28/277/148 146/739/213 108/413/110
f 94/506/40 66/740/22 39/619/166
f 166/284/120 41/64/57 7/741/59
f 41/64/57 166/284/120 183/742/169
f 118/743/133 139/744/112 102/745/114
f 29/746/7 139/747/112 118/748/133
f 70/749/162 168/750/197 178/663/64
f 100/751/155 101/752/165 163/753/43
f 208/754/152 212/755/211 5/756/153
f 193/757/214 161/758/107 146/759/213 201/760/215
f 91/761/39 92/762/172 93/763/34
f 92/764/172 145/355/154 93/765/34
f 161/766/107 108/413/110 146/767/213
f 161/768/107 9/769/77 24/770/132
f 120/771/75 151/772/62 90/773/36
f 176/774/45 61/775/44 99/776/187
f 61/777/44 21/778/183 99/779/187
f 3/780/10 117/781/160 31/782/11
f 117/781/160 175/783/111 68/784/28
f 117/318/160 109/49/46 175/162/111
f 31/785/11 117/786/160 68/787/28
f 132/185/127 46/147/102 95/149/42
f 84/77/30 29/788/7 56/75/9
f 184/789/208 30/8/8 29/7/7
f 41/790/57 183/791/169 125/792/41
f 125/793/41 183/794/169 132/795/127
f 66/796/22 137/797/103 58/798/90
f 95/799/42 137/800/103 66/801/22
f 58/802/90 67/803/5 66/804/22
f 55/342/21 97/805/193 72/806/203
f 97/805/193 55/342/21 98/341/97
f 162/807/139 154/808/98 177/809/216
f 89/810/35 93/811/34 45/812/70
f 164/813/199 167/814/115 137/815/103
f 30/816/8 184/817/208 71/818/135
f 71/819/135 36/820/134 168/821/197
f 70/822/162 71/823/135 168/824/197
f 153/825/130 151/826/62 32/827/122
f 51/828/53 133/829/176 6/830/84
f 6/831/84 20/832/182 51/833/53
f 147/834/78 74/835/67 43/836/66
f 132/185/127 95/149/42 125/837/41
f 104/838/185 114/839/188 157/840/140
f 114/841/188 104/842/185 36/843/134
f 58/844/90 57/845/116 152/846/91
f 57/847/116 30/848/8 152/849/91
f 88/850/95 2/851/58 135/852/126
f 68/29/28 175/853/111 69/30/29
f 69/854/29 175/855/111 124/856/94
f 117/857/160 3/858/10 59/859/177
f 70/860/162 19/460/6 71/861/135
f 31/862/11 68/863/28 141/864/189
f 68/29/28 83/28/27 141/865/189
f 17/187/69 48/866/150 159/188/129
f 159/867/129 48/868/150 49/869/212
f 117/870/160 59/871/177 52/872/82
f 82/873/131 123/874/18 153/875/130
f 179/876/186 39/877/166 40/878/23
f 164/879/199 179/876/186 40/878/23
f 111/53/49 177/880/216 60/881/206
f 23/55/51 162/882/139 177/880/216
f 23/55/51 177/880/216 111/53/49
f 180/883/184 157/884/140 136/885/124
f 180/886/184 136/887/124 85/888/32
f 180/889/184 85/890/32 119/891/31
f 140/892/174 139/893/112 110/602/125
f 139/894/112 85/895/32 110/896/125
f 27/897/54 82/898/131 159/899/129
f 27/897/54 81/900/16 82/898/131
f 139/901/112 84/31/30 85/33/32
f 170/902/161 117/903/160 52/904/82
f 171/905/170 52/906/82 150/907/85
f 171/908/170 170/909/161 52/910/82
f 199/911/149 28/912/148 195/913/202
f 154/914/98 198/915/217 200/916/218
f 161/153/107 193/917/214 197/918/219
f 28/919/148 192/920/147 201/921/215 146/922/213
f 111/923/49 60/924/206 191/925/205 190/926/220
f 28/927/148 111/928/49 190/929/220 196/930/201
f 77/137/99 34/931/89 194/932/158 189/933/221
f 154/135/98 77/137/99 189/934/221 198/935/217
f 177/936/216 154/937/98 200/938/218 188/939/222
f 161/153/107 197/918/219 187/940/223 47/154/108
f 34/941/89 47/942/108 187/943/223 186/944/195
f 60/945/206 177/936/216 188/939/222 185/946/207
f 202/480/159 186/479/195 187/943/223 197/918/219 193/917/214 201/760/215 192/920/147 199/278/149 195/913/202 196/581/201 190/929/220 191/925/205 185/653/207 188/939/222 200/938/218 198/915/217 189/934/221 194/932/158 203/314/157
f 97/947/193 144/948/106 228/949/105 218/950/224
f 100/951/155 229/952/225 216/953/226 101/954/165
f 100/955/155 215/956/164 229/957/225
f 72/958/203 221/959/227 211/960/151 5/961/153
f 72/806/203 209/962/228 221/963/227
f 72/806/203 97/805/193 218/964/224 209/962/228
f 144/965/106 63/966/144 207/967/229 219/968/194
f 62/969/143 210/970/167 207/971/229 63/972/144
f 101/973/165 216/974/226 205/975/204 107/976/180
f 225/694/209 211/960/151 206/243/141
f 222/78/65 224/81/68 206/243/141
f 224/81/68 225/694/209 206/243/141
f 225/694/209 220/689/210 212/755/211
f 212/755/211 208/289/152 211/960/151
f 211/960/151 221/963/227 216/953/226
f 221/963/227 209/962/228 216/953/226
f 209/962/228 218/950/224 228/151/105
f 228/151/105 217/474/104 219/968/194
f 219/968/194 207/971/229 210/344/167
f 210/344/167 214/517/168 219/968/194
f 214/517/168 213/380/178 228/151/105
f 219/968/194 214/517/168 228/151/105
f 213/380/178 204/382/179 227/514/181
f 227/514/181 223/623/198 205/975/204
f 227/514/181 205/975/204 216/953/226
f 213/380/178 227/514/181 209/962/228
f 227/514/181 216/953/226 209/962/228
f 229/957/225 215/329/164 226/327/163
f 216/953/226 229/957/225 206/243/141
f 209/962/228 228/151/105 213/380/178
f 211/960/151 216/953/226 206/243/141
f 225/694/209 212/755/211 211/960/151
f 229/957/225 226/327/163 206/243/141
