# Blender v2.79 (sub 0) OBJ File: 'redo_fixed_360_joints.blend'
# www.blender.org
mtllib sungaya_inexpectata_31mg.mtl
o 44-h-r-tibia.000_Sungaya_inexpectata_31mg.067
v 0.000805 -0.000037 -0.000537
v -0.000111 -0.000024 -0.000275
v -0.000016 -0.000056 -0.000348
v -0.000029 -0.000029 -0.000251
v -0.001322 0.000005 0.000353
v 0.000707 -0.000096 -0.000339
v 0.001037 -0.000083 -0.000614
v 0.000973 -0.000040 -0.000559
v -0.001274 0.000094 0.000740
v -0.001354 0.000038 0.000790
v 0.002469 -0.000049 -0.000568
v -0.000495 0.000029 0.000049
v -0.000963 0.000022 0.000434
v -0.000987 0.000063 0.000434
v 0.001480 -0.000126 -0.000622
v 0.002288 0.000103 -0.000536
v -0.001814 0.000008 0.000959
v -0.001835 -0.000103 0.000744
v 0.001128 -0.000124 -0.000596
v 0.002034 0.000113 -0.000563
v 0.002042 0.000140 -0.000641
v 0.000092 -0.000150 -0.000336
v 0.000066 -0.000126 -0.000162
v 0.002479 0.000203 -0.000613
v 0.002007 -0.000105 -0.000602
v -0.001216 -0.000026 0.000336
v -0.001111 -0.000054 0.000305
v 0.001931 -0.000110 -0.000702
v -0.001197 0.000096 0.000453
v -0.001076 0.000082 0.000417
v -0.001372 0.000146 0.000592
v -0.001663 -0.000034 0.000820
v 0.000346 -0.000108 -0.000506
v -0.000501 -0.000004 -0.000142
v -0.001575 0.000170 0.000854
v -0.001392 0.000126 0.000797
v 0.000383 -0.000021 -0.000328
v 0.000438 -0.000146 -0.000380
v 0.001664 0.000021 -0.000716
v 0.001640 0.000060 -0.000644
v 0.000191 -0.000015 -0.000262
v 0.000546 -0.000151 -0.000528
v 0.000796 -0.000142 -0.000620
v 0.000757 -0.000146 -0.000584
v 0.000795 -0.000175 -0.000563
v -0.001657 -0.000013 0.000569
v -0.001986 0.000044 0.000633
v 0.000503 -0.000059 -0.000483
v 0.000530 -0.000034 -0.000415
v -0.001024 -0.000034 0.000180
v -0.000993 -0.000018 0.000135
v 0.000577 -0.000136 -0.000305
v 0.000589 -0.000072 -0.000318
v -0.001149 0.000121 0.000570
v -0.001892 0.000254 0.000861
v -0.001780 0.000243 0.000883
v 0.000028 -0.000134 -0.000199
v 0.001129 -0.000101 -0.000669
v 0.001863 -0.000122 -0.000644
v -0.001838 0.000159 0.000644
v -0.001861 0.000114 0.000599
v -0.001429 0.000194 0.000742
v 0.001464 0.000015 -0.000508
v -0.000857 0.000023 0.000073
v -0.001883 -0.000100 0.000691
v -0.001564 0.000102 0.000569
v 0.001575 0.000014 -0.000689
v 0.001664 -0.000024 -0.000748
v 0.001855 -0.000055 -0.000492
v -0.001232 -0.000032 0.000487
v 0.000732 -0.000031 -0.000373
v 0.002206 0.000053 -0.000754
v -0.000052 -0.000109 -0.000128
v -0.000217 -0.000119 -0.000109
v -0.000096 -0.000105 -0.000096
v 0.002176 0.000053 -0.000503
v 0.002079 -0.000066 -0.000479
v -0.001583 0.000153 0.000648
v -0.001749 0.000144 0.000922
v -0.000182 0.000004 -0.000113
v 0.001798 0.000082 -0.000497
v 0.000099 -0.000028 -0.000330
v -0.001488 0.000004 0.000478
v 0.000709 -0.000155 -0.000403
v 0.001267 -0.000098 -0.000666
v 0.001728 0.000073 -0.000503
v -0.001848 0.000039 0.000567
v -0.000926 0.000074 0.000275
v 0.001377 -0.000115 -0.000497
v -0.001190 -0.000010 0.000634
v -0.000997 -0.000069 0.000264
v 0.002395 0.000117 -0.000568
v -0.000849 -0.000022 0.000347
v -0.000898 -0.000079 0.000203
v 0.002120 -0.000113 -0.000624
v -0.000466 -0.000094 0.000022
v -0.000515 -0.000053 0.000117
v 0.002468 0.000050 -0.000558
v -0.001223 0.000056 0.000372
v -0.000386 -0.000120 -0.000123
v 0.002470 -0.000017 -0.000554
v 0.001177 -0.000067 -0.000438
v -0.000880 0.000050 0.000354
v -0.001453 -0.000043 0.000598
v -0.000369 -0.000007 -0.000166
v 0.001212 -0.000027 -0.000589
v 0.001465 -0.000073 -0.000487
v 0.001571 -0.000133 -0.000629
v -0.000503 0.000036 -0.000019
v 0.002222 0.000098 -0.000726
v 0.001392 0.000004 -0.000485
v -0.000750 -0.000034 -0.000035
v -0.000731 -0.000063 -0.000034
v 0.001751 -0.000055 -0.000501
v -0.000605 -0.000051 -0.000126
v -0.000492 -0.000096 -0.000134
v 0.000848 -0.000150 -0.000442
v 0.000994 -0.000023 -0.000432
v -0.000325 0.000016 -0.000047
v 0.000714 -0.000145 -0.000350
v -0.000700 -0.000100 0.000019
v -0.000392 -0.000069 -0.000215
v 0.001725 0.000070 -0.000652
v -0.000449 -0.000011 0.000061
v 0.000002 -0.000020 -0.000192
v 0.002373 0.000001 -0.000755
v 0.000236 -0.000091 -0.000451
v -0.001088 -0.000016 0.000454
v 0.002469 0.000151 -0.000562
v 0.001453 -0.000024 -0.000689
v -0.001076 -0.000004 0.000539
v 0.000435 -0.000026 -0.000404
v 0.000298 -0.000042 -0.000397
v -0.000643 0.000046 0.000046
v 0.000710 -0.000167 -0.000494
v 0.001353 -0.000137 -0.000601
v 0.000962 -0.000161 -0.000459
v 0.000840 -0.000172 -0.000518
v 0.001696 0.000056 -0.000541
v 0.002184 -0.000074 -0.000494
v 0.001593 0.000050 -0.000498
v 0.001602 -0.000052 -0.000483
v -0.001169 0.000143 0.000594
v -0.001305 -0.000033 0.000731
v -0.000585 0.000015 0.000135
v 0.000389 -0.000157 -0.000451
v -0.001896 -0.000014 0.000942
v 0.002113 -0.000025 -0.000746
v 0.002047 -0.000103 -0.000704
v -0.001550 0.000198 0.000787
v -0.001452 0.000171 0.000795
v -0.000157 -0.000126 -0.000260
v 0.001955 0.000105 -0.000493
v -0.000943 -0.000022 0.000347
v -0.000274 -0.000009 -0.000173
v 0.001836 0.000111 -0.000643
v 0.002441 -0.000051 -0.000657
v -0.001688 0.000192 0.000772
v -0.001553 0.000057 0.000873
v 0.000442 -0.000113 -0.000272
v -0.001657 0.000045 0.000916
v 0.000677 -0.000131 -0.000551
v 0.001400 0.000018 -0.000545
v 0.001362 0.000014 -0.000628
v 0.000288 -0.000010 -0.000280
v 0.000516 -0.000025 -0.000333
v -0.000225 -0.000087 -0.000051
v -0.000260 -0.000033 -0.000049
v 0.000604 -0.000175 -0.000439
v 0.002163 0.000119 -0.000501
v 0.002207 0.000156 -0.000659
v 0.002300 0.000192 -0.000676
v 0.000210 -0.000141 -0.000433
v -0.001691 0.000107 0.000593
v -0.001125 0.000040 0.000281
v -0.001664 -0.000079 0.000686
v -0.001022 0.000024 0.000197
v -0.001111 -0.000011 0.000224
v 0.000836 -0.000099 -0.000366
v 0.000833 -0.000149 -0.000377
v 0.000680 -0.000035 -0.000500
v 0.001036 -0.000128 -0.000417
v -0.000612 -0.000076 0.000117
v 0.000268 -0.000148 -0.000367
v 0.000316 -0.000123 -0.000250
v -0.000720 0.000033 0.000171
v 0.000349 -0.000143 -0.000294
v 0.000167 -0.000118 -0.000209
v 0.000170 -0.000141 -0.000244
v -0.000127 -0.000100 -0.000332
v 0.000952 -0.000132 -0.000616
v -0.000576 0.000010 -0.000079
v 0.001951 0.000040 -0.000755
v 0.001781 -0.000063 -0.000740
v -0.001523 -0.000053 0.000699
v -0.000733 0.000048 0.000091
v 0.001670 0.000063 -0.000495
v -0.000356 -0.000069 0.000026
v 0.001052 -0.000142 -0.000564
v -0.001531 -0.000011 0.000842
v -0.001394 0.000055 0.000432
v 0.001552 0.000045 -0.000601
v 0.001308 -0.000002 -0.000514
v 0.001884 0.000093 -0.000718
v 0.000746 -0.000018 -0.000403
v 0.001159 -0.000122 -0.000445
v 0.000222 -0.000073 -0.000229
v -0.001840 0.000163 0.000916
v -0.000024 -0.000072 -0.000138
v -0.000810 0.000055 0.000266
v -0.000690 0.000011 -0.000037
v 0.002219 -0.000109 -0.000678
v -0.001406 -0.000037 0.000774
v -0.001677 0.000037 0.000537
v 0.001561 -0.000103 -0.000559
v 0.001861 0.000072 -0.000496
v 0.001946 0.000128 -0.000669
v 0.001302 -0.000086 -0.000459
v -0.001733 0.000016 0.000940
v -0.001937 -0.000064 0.000894
v -0.000837 0.000056 0.000166
v 0.000071 -0.000108 -0.000419
v 0.001357 -0.000069 -0.000706
v 0.002347 -0.000099 -0.000660
v 0.002312 0.000160 -0.000604
v -0.000509 -0.000112 -0.000042
v 0.002311 0.000009 -0.000768
v 0.000886 -0.000020 -0.000419
v 0.001165 -0.000139 -0.000478
v 0.000303 -0.000065 -0.000452
v -0.001886 0.000218 0.000731
v 0.001696 -0.000095 -0.000570
v -0.001226 -0.000043 0.000426
v 0.002278 -0.000062 -0.000515
v -0.000220 -0.000050 -0.000277
v -0.000658 -0.000043 0.000166
v -0.000686 -0.000009 0.000201
v -0.001944 0.000244 0.000852
v 0.001468 0.000037 -0.000663
v -0.001667 0.000211 0.000861
v 0.002412 0.000057 -0.000727
v 0.001252 -0.000020 -0.000463
v 0.001173 -0.000015 -0.000498
v -0.001341 -0.000057 0.000509
v -0.001835 -0.000052 0.000876
v -0.001364 0.000192 0.000709
v 0.000535 -0.000156 -0.000337
v 0.001728 0.000012 -0.000748
v 0.001104 -0.000021 -0.000532
v -0.002024 0.000117 0.000641
v 0.002091 0.000093 -0.000734
v 0.002491 0.000113 -0.000703
v 0.002292 -0.000031 -0.000758
v -0.000784 -0.000106 0.000087
v 0.001640 -0.000110 -0.000656
v -0.001023 0.000072 0.000281
v 0.001747 -0.000120 -0.000664
v 0.001953 -0.000076 -0.000478
v 0.001564 -0.000052 -0.000730
v -0.000761 -0.000047 0.000258
v -0.001957 -0.000136 0.000835
v -0.000361 -0.000106 -0.000221
v 0.002414 0.000209 -0.000697
v -0.001962 -0.000161 0.000769
v 0.002494 0.000003 -0.000675
v -0.001078 -0.000063 0.000334
v -0.000981 0.000002 0.000442
v -0.001549 0.000021 0.000493
v 0.000011 -0.000126 -0.000384
v 0.002201 -0.000076 -0.000734
v -0.001161 -0.000010 0.000243
v 0.002512 0.000071 -0.000568
v 0.002500 0.000199 -0.000645
v 0.002497 0.000004 -0.000677
v 0.002510 0.000150 -0.000573
v 0.002505 0.000195 -0.000613
v 0.002497 0.000003 -0.000675
v 0.002498 0.000001 -0.000668
v 0.002492 0.000112 -0.000704
v 0.002512 0.000025 -0.000566
v 0.002509 -0.000015 -0.000593
v 0.002511 0.000141 -0.000571
v 0.002511 -0.000005 -0.000574
v 0.002508 -0.000027 -0.000598
v 0.002498 0.000198 -0.000661
v 0.002504 -0.000025 -0.000630
v 0.002494 0.000129 -0.000694
v 0.002504 0.000200 -0.000620
v -0.002018 -0.000069 0.000715
v -0.001957 -0.000066 0.000892
v -0.001994 0.000257 0.000790
v -0.002031 0.000196 0.000681
v -0.001998 0.000255 0.000778
v -0.001971 0.000206 0.000855
v -0.002007 0.000265 0.000752
v -0.001962 0.000127 0.000880
v -0.002044 0.000096 0.000643
v -0.001956 -0.000030 0.000893
v -0.001952 -0.000003 0.000907
v -0.002039 0.000144 0.000658
v -0.002004 -0.000129 0.000754
v -0.002010 -0.000108 0.000738
v -0.001999 -0.000165 0.000769
v -0.001983 -0.000177 0.000815
v -0.002044 0.000122 0.000644
v -0.001968 -0.000106 0.000859
v -0.001972 -0.000154 0.000846
v -0.001958 0.000092 0.000892
v -0.001964 0.000144 0.000875
v -0.002028 0.000206 0.000691
v -0.002038 0.000042 0.000661
v -0.001992 -0.000179 0.000789
v -0.001991 0.000254 0.000798
v -0.002012 0.000260 0.000739
vt 0.838267 0.444630
vt 0.837753 0.443326
vt 0.835732 0.444600
vt 0.080974 0.970297
vt 0.081954 0.975704
vt 0.082263 0.972305
vt 0.565330 0.180018
vt 0.565309 0.178785
vt 0.563948 0.177879
vt 0.744882 0.097018
vt 0.744016 0.097544
vt 0.744192 0.099118
vt 0.492838 0.449592
vt 0.492723 0.448517
vt 0.488938 0.450845
vt 0.569026 0.971407
vt 0.566792 0.968825
vt 0.566337 0.971071
vt 0.764872 0.842543
vt 0.766160 0.843141
vt 0.766311 0.841841
vt 0.236027 0.193392
vt 0.235236 0.192551
vt 0.234313 0.194343
vt 0.621630 0.950201
vt 0.623201 0.952304
vt 0.624586 0.949607
vt 0.052827 0.627621
vt 0.051892 0.626817
vt 0.050729 0.627680
vt 0.642205 0.490593
vt 0.641695 0.486394
vt 0.639895 0.486166
vt 0.917060 0.410952
vt 0.917839 0.413467
vt 0.919028 0.413763
vt 0.927684 0.724845
vt 0.927276 0.725790
vt 0.930644 0.725113
vt 0.274567 0.696512
vt 0.272999 0.698354
vt 0.274302 0.699941
vt 0.447938 0.606459
vt 0.447310 0.603789
vt 0.446671 0.605753
vt 0.166512 0.826164
vt 0.164689 0.826467
vt 0.165457 0.827917
vt 0.129218 0.803169
vt 0.129095 0.799564
vt 0.129197 0.801824
vt 0.759869 0.417178
vt 0.759154 0.415121
vt 0.758387 0.416924
vt 0.780901 0.993264
vt 0.781219 0.993625
vt 0.781769 0.993513
vt 0.383922 0.091946
vt 0.384203 0.093152
vt 0.386156 0.092233
vt 0.128374 0.834470
vt 0.129298 0.835556
vt 0.130762 0.834898
vt 0.631148 0.671344
vt 0.632465 0.676178
vt 0.634026 0.674017
vt 0.295899 0.241614
vt 0.297446 0.241715
vt 0.294664 0.240404
vt 0.313786 0.541321
vt 0.315479 0.542089
vt 0.314679 0.539378
vt 0.794067 0.323057
vt 0.795067 0.324879
vt 0.797019 0.323288
vt 0.558034 0.257010
vt 0.557687 0.255622
vt 0.556377 0.254425
vt 0.885117 0.958265
vt 0.883726 0.960441
vt 0.885932 0.959038
vt 0.678614 0.005361
vt 0.681399 0.004150
vt 0.679850 0.001864
vt 0.131914 0.910760
vt 0.134227 0.912680
vt 0.133383 0.911041
vt 0.864990 0.449463
vt 0.862348 0.448173
vt 0.861985 0.449760
vt 0.704039 0.748589
vt 0.699264 0.745146
vt 0.700836 0.748061
vt 0.691619 0.251378
vt 0.691000 0.253816
vt 0.691877 0.254430
vt 0.674866 0.005743
vt 0.552224 0.652619
vt 0.549549 0.655312
vt 0.550082 0.657384
vt 0.797931 0.993548
vt 0.796291 0.994984
vt 0.798023 0.995373
vt 0.490819 0.443597
vt 0.486607 0.445197
vt 0.487177 0.449282
vt 0.971595 0.797283
vt 0.971175 0.798541
vt 0.972081 0.798451
vt 0.877229 0.847208
vt 0.876752 0.846044
vt 0.874787 0.847000
vt 0.843876 0.172031
vt 0.842827 0.171896
vt 0.842790 0.172910
vt 0.842012 0.165894
vt 0.841153 0.165168
vt 0.840742 0.166447
vt 0.492159 0.445653
vt 0.444361 0.603184
vt 0.445245 0.600573
vt 0.194033 0.949807
vt 0.194605 0.953353
vt 0.196789 0.949459
vt 0.033631 0.653331
vt 0.035315 0.654177
vt 0.034730 0.651188
vt 0.535277 0.556764
vt 0.538342 0.561005
vt 0.535122 0.554268
vt 0.696596 0.717258
vt 0.697928 0.714744
vt 0.694858 0.715870
vt 0.046205 0.359840
vt 0.047267 0.358179
vt 0.046243 0.357999
vt 0.787053 0.506559
vt 0.785936 0.507795
vt 0.789968 0.505746
vt 0.857296 0.550890
vt 0.856187 0.553107
vt 0.857731 0.552507
vt 0.257288 0.836949
vt 0.255997 0.832412
vt 0.254731 0.838324
vt 0.857532 0.290074
vt 0.858999 0.291278
vt 0.858412 0.289339
vt 0.017110 0.336541
vt 0.018092 0.335726
vt 0.016015 0.335579
vt 0.099255 0.155648
vt 0.100124 0.154554
vt 0.098761 0.154563
vt 0.399256 0.436093
vt 0.408121 0.434253
vt 0.401217 0.433613
vt 0.442490 0.599234
vt 0.441004 0.601783
vt 0.191164 0.526698
vt 0.186443 0.528223
vt 0.188761 0.528534
vt 0.734609 0.894021
vt 0.736101 0.893921
vt 0.735242 0.892900
vt 0.369445 0.914189
vt 0.365966 0.915416
vt 0.367833 0.915814
vt 0.096174 0.917264
vt 0.095709 0.914574
vt 0.094337 0.915331
vt 0.539036 0.556126
vt 0.401751 0.524069
vt 0.401524 0.522912
vt 0.400895 0.524447
vt 0.221145 0.087314
vt 0.221946 0.085972
vt 0.220039 0.086995
vt 0.032759 0.749873
vt 0.033154 0.748762
vt 0.030945 0.751015
vt 0.219136 0.143827
vt 0.219511 0.145027
vt 0.220130 0.144367
vt 0.764008 0.621455
vt 0.763175 0.623217
vt 0.765547 0.623541
vt 0.074578 0.678536
vt 0.076221 0.680179
vt 0.075703 0.678908
vt 0.432523 0.269694
vt 0.432619 0.271652
vt 0.434175 0.271488
vt 0.311410 0.544035
vt 0.309472 0.548661
vt 0.313219 0.549248
vt 0.446641 0.608132
vt 0.443700 0.606360
vt 0.445348 0.609009
vt 0.218806 0.177714
vt 0.217964 0.179160
vt 0.219658 0.179063
vt 0.083631 0.773788
vt 0.082050 0.775389
vt 0.084468 0.776272
vt 0.434916 0.583034
vt 0.436500 0.586913
vt 0.438394 0.586896
vt 0.745046 0.661083
vt 0.746977 0.661272
vt 0.745786 0.660463
vt 0.374404 0.309191
vt 0.375186 0.309777
vt 0.374086 0.305938
vt 0.371433 0.305852
vt 0.849029 0.507573
vt 0.848289 0.505876
vt 0.846726 0.506631
vt 0.696400 0.718254
vt 0.096440 0.638404
vt 0.095748 0.639436
vt 0.097124 0.640016
vt 0.571957 0.814559
vt 0.575040 0.812203
vt 0.572980 0.810938
vt 0.942150 0.856708
vt 0.940880 0.855912
vt 0.939772 0.856842
vt 0.090997 0.648991
vt 0.092526 0.648557
vt 0.091699 0.645468
vt 0.826571 0.959313
vt 0.828392 0.959329
vt 0.828720 0.958321
vt 0.534301 0.320636
vt 0.533517 0.322688
vt 0.534691 0.323475
vt 0.285368 0.519114
vt 0.284251 0.519416
vt 0.285603 0.519970
vt 0.077563 0.800193
vt 0.079618 0.799866
vt 0.076283 0.798906
vt 0.130369 0.835924
vt 0.026812 0.366323
vt 0.028240 0.365932
vt 0.027320 0.365204
vt 0.629174 0.992467
vt 0.633449 0.991487
vt 0.631548 0.988437
vt 0.861215 0.292275
vt 0.861729 0.290792
vt 0.859992 0.289652
vt 0.646949 0.086748
vt 0.648233 0.085859
vt 0.647274 0.084445
vt 0.728934 0.126459
vt 0.730097 0.123565
vt 0.728297 0.124124
vt 0.820415 0.739543
vt 0.821178 0.741404
vt 0.822178 0.740317
vt 0.817936 0.770194
vt 0.819930 0.772308
vt 0.819019 0.770589
vt 0.644841 0.677567
vt 0.645258 0.681296
vt 0.646390 0.678714
vt 0.567957 0.001512
vt 0.569651 0.003566
vt 0.570822 0.001807
vt 0.269908 0.995142
vt 0.272032 0.998221
vt 0.272989 0.995414
vt 0.210111 0.915119
vt 0.207075 0.914798
vt 0.207372 0.916593
vt 0.939710 0.618217
vt 0.940392 0.617683
vt 0.939929 0.617262
vt 0.293607 0.860582
vt 0.292961 0.858130
vt 0.292183 0.859115
vt 0.195448 0.953612
vt 0.196606 0.952869
vt 0.668303 0.844169
vt 0.669602 0.838494
vt 0.667317 0.841356
vt 0.634740 0.148744
vt 0.633278 0.147549
vt 0.633252 0.148853
vt 0.366263 0.091103
vt 0.365678 0.088953
vt 0.365039 0.090863
vt 0.536848 0.552547
vt 0.807849 0.967249
vt 0.806925 0.969228
vt 0.808929 0.968584
vt 0.073317 0.526031
vt 0.074989 0.526198
vt 0.074716 0.525073
vt 0.704302 0.744097
vt 0.703830 0.742449
vt 0.702116 0.744088
vt 0.507759 0.424738
vt 0.505323 0.428617
vt 0.508142 0.427209
vt 0.069888 0.587597
vt 0.070767 0.587901
vt 0.071342 0.586621
vt 0.745726 0.329404
vt 0.744582 0.329751
vt 0.744023 0.331589
vt 0.746056 0.331062
vt 0.518342 0.957010
vt 0.514792 0.960995
vt 0.518972 0.960868
vt 0.515291 0.963428
vt 0.474291 0.089716
vt 0.473068 0.091576
vt 0.473933 0.092614
vt 0.442840 0.608070
vt 0.545478 0.651667
vt 0.544567 0.649149
vt 0.543200 0.650595
vt 0.020204 0.374656
vt 0.019226 0.374279
vt 0.020138 0.376130
vt 0.066502 0.581269
vt 0.068105 0.581430
vt 0.067184 0.580555
vt 0.544813 0.771329
vt 0.545266 0.769180
vt 0.543125 0.769068
vt 0.887451 0.034811
vt 0.888653 0.035748
vt 0.888625 0.034579
vt 0.553274 0.656358
vt 0.385300 0.188989
vt 0.384532 0.190143
vt 0.385725 0.188204
vt 0.639260 0.490438
vt 0.411721 0.062786
vt 0.412489 0.065792
vt 0.415839 0.064011
vt 0.141208 0.798515
vt 0.138760 0.802095
vt 0.140094 0.802071
vt 0.769778 0.590496
vt 0.773653 0.589996
vt 0.771243 0.589407
vt 0.235040 0.092681
vt 0.233727 0.091821
vt 0.233785 0.092817
vt 0.852330 0.523630
vt 0.852469 0.522321
vt 0.849413 0.522620
vt 0.186397 0.012157
vt 0.185738 0.012972
vt 0.186604 0.013724
vt 0.484836 0.448628
vt 0.484593 0.451914
vt 0.542106 0.646409
vt 0.541878 0.648322
vt 0.543508 0.646814
vt 0.917024 0.557789
vt 0.915812 0.558243
vt 0.917738 0.558918
vt 0.549735 0.659727
vt 0.412104 0.059195
vt 0.415753 0.061449
vt 0.197604 0.525990
vt 0.197773 0.526895
vt 0.199622 0.526692
vt 0.163105 0.831523
vt 0.164350 0.831132
vt 0.369167 0.913002
vt 0.889846 0.860979
vt 0.890500 0.862758
vt 0.892039 0.861347
vt 0.450388 0.791480
vt 0.452199 0.792267
vt 0.450873 0.790685
vt 0.641530 0.492921
vt 0.642248 0.495068
vt 0.303497 0.780101
vt 0.305382 0.778044
vt 0.300888 0.781475
vt 0.301077 0.777478
vt 0.358863 0.156451
vt 0.357792 0.155429
vt 0.357118 0.157497
vt 0.082173 0.777054
vt 0.965307 0.208683
vt 0.966420 0.208576
vt 0.966645 0.207196
vt 0.470757 0.100693
vt 0.470512 0.103528
vt 0.471397 0.102856
vt 0.633194 0.994129
vt 0.573491 0.715025
vt 0.573983 0.716029
vt 0.574372 0.715718
vt 0.403514 0.432430
vt 0.405692 0.432688
vt 0.370076 0.158163
vt 0.368609 0.158711
vt 0.370623 0.159103
vt 0.368539 0.159728
vt 0.354519 0.152786
vt 0.356428 0.151976
vt 0.355089 0.151451
vt 0.155656 0.947358
vt 0.158960 0.947159
vt 0.155583 0.946179
vt 0.158646 0.945356
vt 0.771344 0.993375
vt 0.772356 0.995443
vt 0.773334 0.995203
vt 0.218314 0.831116
vt 0.217498 0.833958
vt 0.219336 0.830830
vt 0.418686 0.108730
vt 0.420610 0.109552
vt 0.420130 0.108530
vt 0.775905 0.701563
vt 0.776102 0.699292
vt 0.774948 0.701141
vt 0.445816 0.945239
vt 0.444548 0.947900
vt 0.445649 0.948787
vt 0.957464 0.777965
vt 0.957120 0.779015
vt 0.960363 0.780074
vt 0.537660 0.312443
vt 0.537699 0.310176
vt 0.535020 0.310612
vt 0.567429 0.750032
vt 0.569309 0.751586
vt 0.568324 0.748812
vt 0.747672 0.909052
vt 0.748832 0.907793
vt 0.747618 0.906530
vt 0.406297 0.436005
vt 0.410184 0.435826
vt 0.447598 0.931115
vt 0.444611 0.932225
vt 0.446857 0.933193
vt 0.203337 0.756941
vt 0.202484 0.759089
vt 0.204153 0.760647
vt 0.925810 0.453868
vt 0.924566 0.453446
vt 0.924654 0.456184
vt 0.491981 0.443446
vt 0.492411 0.441146
vt 0.535039 0.562114
vt 0.955593 0.223126
vt 0.954897 0.222442
vt 0.954138 0.223613
vt 0.418994 0.115699
vt 0.417426 0.114773
vt 0.419156 0.116754
vt 0.081446 0.969025
vt 0.080351 0.968961
vt 0.190764 0.701198
vt 0.192005 0.703227
vt 0.191816 0.700090
vt 0.135199 0.411935
vt 0.133823 0.412243
vt 0.134683 0.413161
vt 0.019093 0.128575
vt 0.018062 0.128717
vt 0.018365 0.129973
vt 0.017299 0.746282
vt 0.015496 0.742000
vt 0.016061 0.744413
vt 0.328691 0.425688
vt 0.325295 0.429060
vt 0.327600 0.432237
vt 0.325029 0.428262
vt 0.749140 0.799579
vt 0.750551 0.798763
vt 0.747223 0.798026
vt 0.374127 0.919561
vt 0.377883 0.921690
vt 0.377456 0.919688
vt 0.584678 0.672149
vt 0.585720 0.665537
vt 0.583890 0.671007
vt 0.134389 0.452984
vt 0.134371 0.451676
vt 0.133204 0.453046
vt 0.971616 0.616574
vt 0.973928 0.618301
vt 0.973440 0.616478
vt 0.834338 0.291181
vt 0.834570 0.292831
vt 0.835678 0.292929
vt 0.543906 0.656090
vt 0.543356 0.652812
vt 0.542181 0.653322
vt 0.094025 0.919609
vt 0.095690 0.920969
vt 0.096440 0.919312
vt 0.627785 0.990009
vt 0.152515 0.728167
vt 0.149911 0.728250
vt 0.150907 0.730276
vt 0.771942 0.112001
vt 0.773899 0.109365
vt 0.771933 0.110197
vt 0.852035 0.324856
vt 0.850513 0.325812
vt 0.853276 0.326745
vt 0.695893 0.003257
vt 0.697021 0.002559
vt 0.692436 0.001627
vt 0.665467 0.843337
vt 0.665419 0.844555
vt 0.929715 0.779917
vt 0.928177 0.781082
vt 0.930440 0.781162
vt 0.204924 0.918177
vt 0.258129 0.753081
vt 0.259907 0.754203
vt 0.259394 0.750639
vt 0.024295 0.869556
vt 0.024310 0.870728
vt 0.027004 0.869442
vt 0.921818 0.808962
vt 0.919045 0.808188
vt 0.922064 0.809939
vt 0.182735 0.266624
vt 0.182769 0.268302
vt 0.184250 0.266218
vt 0.215611 0.589048
vt 0.216930 0.589064
vt 0.216572 0.588065
vt 0.277938 0.105112
vt 0.278117 0.103949
vt 0.275821 0.104340
vt 0.642364 0.949520
vt 0.641798 0.950764
vt 0.644267 0.953752
vt 0.535152 0.545852
vt 0.533754 0.547084
vt 0.687127 0.267938
vt 0.687381 0.268020
vt 0.687869 0.267176
vt 0.686747 0.266201
vt 0.588576 0.741895
vt 0.588954 0.741799
vt 0.591246 0.740523
vt 0.591501 0.739279
vt 0.534700 0.099815
vt 0.534708 0.097172
vt 0.533348 0.098046
vt 0.439600 0.597990
vt 0.441233 0.596386
vt 0.438385 0.596055
vt 0.414569 0.057558
vt 0.864725 0.342260
vt 0.862902 0.345818
vt 0.865621 0.344162
vt 0.415523 0.072725
vt 0.414524 0.071560
vt 0.414077 0.073271
vt 0.162451 0.829613
vt 0.164058 0.827925
vt 0.155417 0.855888
vt 0.152725 0.855826
vt 0.152805 0.858150
vt 0.930718 0.462541
vt 0.929969 0.463521
vt 0.931753 0.464602
vt 0.058344 0.208010
vt 0.057793 0.207770
vt 0.057331 0.208348
vt 0.687978 0.757342
vt 0.685280 0.757842
vt 0.684180 0.760117
vt 0.656442 0.800799
vt 0.657579 0.803790
vt 0.657935 0.799491
vt 0.144186 0.644423
vt 0.142487 0.647102
vt 0.144293 0.649450
vt 0.655360 0.796564
vt 0.424657 0.186520
vt 0.426085 0.186346
vt 0.424091 0.184802
vt 0.635118 0.675799
vt 0.104881 0.819392
vt 0.102209 0.822029
vt 0.102824 0.823219
vt 0.902869 0.250731
vt 0.904437 0.250471
vt 0.903856 0.249284
vt 0.940919 0.348224
vt 0.941245 0.345830
vt 0.938568 0.346112
vt 0.752145 0.414713
vt 0.754276 0.414493
vt 0.750909 0.412432
vt 0.172664 0.130554
vt 0.173766 0.132280
vt 0.174100 0.130678
vt 0.371844 0.308810
vt 0.215762 0.017497
vt 0.216620 0.016245
vt 0.215330 0.016525
vt 0.763398 0.912756
vt 0.764107 0.915177
vt 0.765455 0.914578
vt 0.777839 0.288222
vt 0.782077 0.288925
vt 0.782809 0.287982
vt 0.448282 0.038656
vt 0.448556 0.037385
vt 0.447452 0.038759
vt 0.447186 0.946043
vt 0.446257 0.942832
vt 0.977279 0.125105
vt 0.978030 0.125793
vt 0.979025 0.125079
vt 0.833867 0.361139
vt 0.833312 0.364009
vt 0.834656 0.362765
vt 0.641829 0.683790
vt 0.644913 0.685949
vt 0.646401 0.683425
vt 0.789150 0.281011
vt 0.790947 0.279271
vt 0.788353 0.278937
vt 0.272275 0.694914
vt 0.270185 0.695976
vt 0.518092 0.248741
vt 0.517037 0.246976
vt 0.517301 0.249016
vt 0.340614 0.130002
vt 0.339838 0.131803
vt 0.341366 0.131590
vt 0.704713 0.747308
vt 0.702854 0.746072
vt 0.824176 0.976112
vt 0.822398 0.976581
vt 0.822733 0.978488
vt 0.937309 0.298224
vt 0.935403 0.300293
vt 0.937616 0.300860
vt 0.688659 0.977637
vt 0.689866 0.976646
vt 0.687219 0.975493
vt 0.207722 0.243136
vt 0.207905 0.241727
vt 0.206241 0.243119
vt 0.794500 0.864142
vt 0.794654 0.864274
vt 0.794496 0.864073
vt 0.589674 0.294848
vt 0.589791 0.294927
vt 0.589702 0.294836
vt 0.326409 0.441705
vt 0.328097 0.440866
vt 0.328495 0.438343
vt 0.504515 0.433070
vt 0.734431 0.367954
vt 0.736367 0.368245
vt 0.735473 0.367362
vt 0.002543 0.853090
vt 0.002409 0.851349
vt 0.000970 0.850923
vt 0.117647 0.216203
vt 0.120188 0.214948
vt 0.117925 0.214862
vt 0.416205 0.067152
vt 0.416794 0.065367
vt 0.593625 0.250082
vt 0.595013 0.250991
vt 0.594745 0.249084
vt 0.471173 0.150075
vt 0.470263 0.151197
vt 0.472903 0.150452
vt 0.195137 0.947853
vt 0.745322 0.903627
vt 0.745495 0.903525
vt 0.746438 0.902335
vt 0.744407 0.903129
vt 0.170657 0.262546
vt 0.169045 0.264175
vt 0.170196 0.263787
vt 0.958064 0.872913
vt 0.960650 0.874783
vt 0.959299 0.872839
vt 0.447608 0.607676
vt 0.655088 0.802701
vt 0.655477 0.801424
vt 0.286258 0.361811
vt 0.285187 0.361714
vt 0.285086 0.362926
vt 0.331811 0.422964
vt 0.331292 0.425362
vt 0.168136 0.910773
vt 0.167936 0.913350
vt 0.170112 0.907288
vt 0.438213 0.584407
vt 0.070842 0.789289
vt 0.069925 0.790434
vt 0.071030 0.790922
vt 0.504842 0.803262
vt 0.504746 0.804697
vt 0.507745 0.803827
vt 0.209365 0.043921
vt 0.207247 0.043697
vt 0.207878 0.044567
vt 0.263059 0.653228
vt 0.261573 0.653645
vt 0.264724 0.651863
vt 0.674571 0.564718
vt 0.675822 0.564070
vt 0.673496 0.563039
vt 0.006860 0.678747
vt 0.008809 0.677975
vt 0.007635 0.676420
vt 0.535568 0.314308
vt 0.534483 0.318140
vt 0.536900 0.318090
vt 0.437856 0.591615
vt 0.440287 0.592332
vt 0.967084 0.424171
vt 0.966387 0.428252
vt 0.968171 0.429184
vt 0.239252 0.347842
vt 0.237914 0.347911
vt 0.239005 0.349146
vt 0.779405 0.705568
vt 0.777378 0.705768
vt 0.779922 0.706602
vt 0.244514 0.474713
vt 0.244691 0.476303
vt 0.245852 0.475677
vt 0.566261 0.745161
vt 0.075199 0.678235
vt 0.076271 0.676966
vt 0.075417 0.674763
vt 0.397048 0.434343
vt 0.393823 0.435968
vt 0.764661 0.117310
vt 0.765861 0.115703
vt 0.764753 0.115810
vt 0.021314 0.827676
vt 0.021873 0.825097
vt 0.019936 0.826180
vt 0.417988 0.762530
vt 0.420657 0.762070
vt 0.419196 0.758547
vt 0.442176 0.594340
vt 0.442387 0.592375
vt 0.233150 0.323358
vt 0.232061 0.322842
vt 0.232976 0.324454
vt 0.409724 0.259026
vt 0.409255 0.260186
vt 0.410305 0.259820
vt 0.946321 0.264736
vt 0.946586 0.263324
vt 0.945108 0.264711
vt 0.147642 0.940070
vt 0.145775 0.941904
vt 0.149656 0.941841
vt 0.756935 0.350174
vt 0.758176 0.351189
vt 0.758391 0.349338
vt 0.838975 0.866856
vt 0.840712 0.865940
vt 0.838801 0.865324
vt 0.213816 0.377510
vt 0.214638 0.378334
vt 0.214877 0.377136
vt 0.502787 0.437630
vt 0.504163 0.440398
vt 0.504861 0.436503
vt 0.636554 0.486205
vt 0.312942 0.538310
vt 0.049508 0.673518
vt 0.047830 0.673162
vt 0.049510 0.676371
vt 0.683297 0.004432
vt 0.686123 0.002672
vt 0.337046 0.188879
vt 0.336681 0.187460
vt 0.334748 0.188444
vt 0.324243 0.433529
vt 0.763608 0.840855
vt 0.020197 0.906823
vt 0.019562 0.905709
vt 0.019526 0.908898
vt 0.764790 0.372833
vt 0.766171 0.372034
vt 0.764221 0.371917
vt 0.537355 0.321944
vt 0.538753 0.323177
vt 0.539359 0.320291
vt 0.536677 0.324541
vt 0.538078 0.325183
vt 0.676868 0.001806
vt 0.172187 0.823935
vt 0.170589 0.824788
vt 0.173483 0.825230
vt 0.968723 0.131355
vt 0.968037 0.132433
vt 0.968715 0.134076
vt 0.295273 0.860181
vt 0.294758 0.863369
vt 0.295986 0.864163
vt 0.810571 0.372626
vt 0.812351 0.373039
vt 0.809633 0.371473
vt 0.851865 0.428838
vt 0.850558 0.430384
vt 0.853532 0.430214
vt 0.156517 0.045854
vt 0.156988 0.047852
vt 0.157494 0.046583
vt 0.190893 0.704327
vt 0.025767 0.870697
vt 0.026992 0.871255
vt 0.708718 0.271669
vt 0.709784 0.270912
vt 0.709732 0.268482
vt 0.220724 0.346653
vt 0.220529 0.345658
vt 0.219044 0.345554
vt 0.567183 0.742862
vt 0.566379 0.741040
vt 0.616474 0.650298
vt 0.616526 0.653735
vt 0.618224 0.652224
vt 0.494294 0.448775
vt 0.707860 0.149293
vt 0.707402 0.150946
vt 0.708754 0.150170
vt 0.223005 0.974446
vt 0.223592 0.976994
vt 0.224176 0.975014
vt 0.937250 0.704094
vt 0.936745 0.706058
vt 0.940046 0.704820
vt 0.849652 0.865630
vt 0.851530 0.865265
vt 0.849522 0.863358
vt 0.867763 0.115730
vt 0.867052 0.114596
vt 0.866523 0.115239
vt 0.021555 0.202798
vt 0.020081 0.203436
vt 0.021034 0.204086
vt 0.572181 0.816192
vt 0.574418 0.816379
vt 0.045279 0.658110
vt 0.047048 0.657631
vt 0.044876 0.656848
vt 0.424472 0.923646
vt 0.426377 0.922366
vt 0.425676 0.921042
vt 0.968547 0.774143
vt 0.970086 0.772631
vt 0.968383 0.773099
vt 0.674634 0.003442
vt 0.670898 0.005888
vt 0.323516 0.442519
vt 0.325206 0.445336
vt 0.325582 0.447630
vt 0.540047 0.558188
vt 0.716216 0.128404
vt 0.716262 0.125834
vt 0.714923 0.127352
vt 0.613122 0.305954
vt 0.613805 0.302590
vt 0.611732 0.301038
vt 0.894842 0.949444
vt 0.891658 0.948869
vt 0.892585 0.950491
vt 0.987952 0.134558
vt 0.988189 0.135329
vt 0.989255 0.134629
vt 0.467252 0.723152
vt 0.464617 0.724098
vt 0.464933 0.725539
vt 0.436747 0.189502
vt 0.434925 0.190760
vt 0.436462 0.191019
vt 0.154951 0.669261
vt 0.155924 0.668746
vt 0.155562 0.665714
vt 0.505822 0.801758
vt 0.506984 0.802228
vt 0.507119 0.800057
vt 0.068947 0.787414
vt 0.069143 0.789538
vt 0.070950 0.786579
vt 0.976427 0.635132
vt 0.976349 0.633955
vt 0.975156 0.634889
vt 0.907572 0.564752
vt 0.908236 0.566815
vt 0.908990 0.566367
vt 0.327129 0.445590
vt 0.415251 0.724978
vt 0.414818 0.721815
vt 0.413828 0.725859
vt 0.780038 0.966602
vt 0.780191 0.965588
vt 0.777762 0.966295
vt 0.801586 0.870595
vt 0.802810 0.872204
vt 0.803214 0.870553
vt 0.912327 0.057127
vt 0.912922 0.055443
vt 0.911711 0.055427
vt 0.406881 0.249292
vt 0.405976 0.250321
vt 0.405990 0.250361
vt 0.406900 0.249303
vt 0.446845 0.928276
vt 0.593747 0.302368
vt 0.591003 0.302544
vt 0.591942 0.304913
vt 0.047497 0.921257
vt 0.049324 0.921382
vt 0.048586 0.918710
vt 0.819201 0.683162
vt 0.819495 0.684182
vt 0.822901 0.684948
vt 0.073452 0.301700
vt 0.072413 0.301523
vt 0.073272 0.303541
vt 0.157104 0.168520
vt 0.155850 0.167535
vt 0.155138 0.168980
vt 0.689049 0.002576
vt 0.686715 0.005143
vt 0.876832 0.162653
vt 0.876330 0.163536
vt 0.877640 0.163902
vt 0.131053 0.831599
vt 0.131323 0.834182
vt 0.131047 0.830336
vt 0.046503 0.711283
vt 0.048704 0.713116
vt 0.048831 0.710946
vt 0.308888 0.541159
vt 0.311305 0.541483
vt 0.724459 0.168872
vt 0.723772 0.171437
vt 0.725196 0.170536
vt 0.010871 0.245049
vt 0.013169 0.245235
vt 0.012595 0.244392
vt 0.786800 0.914098
vt 0.787018 0.912258
vt 0.785823 0.913026
vt 0.582993 0.244667
vt 0.582346 0.246544
vt 0.584048 0.245368
vt 0.588329 0.297547
vt 0.587517 0.297712
vt 0.587213 0.298629
vt 0.589669 0.298454
vt 0.440744 0.589169
vt 0.896221 0.658252
vt 0.898163 0.658842
vt 0.898911 0.657089
vt 0.097561 0.155009
vt 0.797981 0.165101
vt 0.797100 0.164351
vt 0.796359 0.165252
vt 0.874993 0.271379
vt 0.876030 0.269888
vt 0.875167 0.269902
vt 0.284126 0.868638
vt 0.283611 0.862779
vt 0.282194 0.863266
vt 0.909374 0.306723
vt 0.906313 0.306207
vt 0.906309 0.308134
vt 0.908850 0.565071
vt 0.910249 0.565055
vt 0.910297 0.563793
vt 0.694219 0.719457
vt 0.693600 0.721806
vt 0.694911 0.721343
vt 0.878765 0.185821
vt 0.877606 0.186869
vt 0.878910 0.186916
vt 0.486444 0.451773
vt 0.487515 0.451364
vt 0.593670 0.305366
vt 0.592603 0.306039
vt 0.880126 0.276214
vt 0.878202 0.278154
vt 0.879986 0.277838
vt 0.990928 0.505534
vt 0.993093 0.507925
vt 0.991530 0.503894
vt 0.576028 0.003258
vt 0.576198 0.005017
vt 0.579859 0.004034
vt 0.755988 0.804438
vt 0.757246 0.805095
vt 0.757992 0.804094
vt 0.821913 0.683301
vt 0.680540 0.165393
vt 0.680004 0.162137
vt 0.680043 0.164408
vt 0.064458 0.030726
vt 0.063873 0.031882
vt 0.065913 0.031270
vt 0.655791 0.806951
vt 0.657636 0.807618
vt 0.147882 0.254955
vt 0.147607 0.253567
vt 0.147110 0.254794
vt 0.699675 0.004544
vt 0.702476 0.003613
vt 0.741018 0.854090
vt 0.742087 0.853990
vt 0.741591 0.852715
vt 0.823945 0.981202
vt 0.822069 0.981328
vt 0.821951 0.982208
vt 0.738828 0.724312
vt 0.740758 0.725210
vt 0.742622 0.724772
vt 0.003903 0.032185
vt 0.002293 0.033345
vt 0.003323 0.033788
vt 0.613173 0.300480
vt 0.425638 0.926447
vt 0.427138 0.922706
vt 0.304118 0.545738
vt 0.304233 0.547559
vt 0.305476 0.545083
vt 0.304207 0.544821
vt 0.642265 0.678981
vt 0.325146 0.439046
vt 0.015576 0.748432
vt 0.885860 0.433358
vt 0.887645 0.434098
vt 0.887942 0.432382
vt 0.108761 0.418229
vt 0.107903 0.417132
vt 0.107051 0.418864
vt 0.538484 0.319105
vt 0.141388 0.908202
vt 0.138181 0.905771
vt 0.137803 0.907148
vt 0.191736 0.709575
vt 0.192095 0.705510
vt 0.415123 0.015067
vt 0.416550 0.015128
vt 0.416289 0.013864
vt 0.784715 0.887689
vt 0.781801 0.888033
vt 0.782332 0.889283
vt 0.784159 0.470609
vt 0.781363 0.470502
vt 0.780560 0.472042
vt 0.783685 0.471529
vt 0.812618 0.372007
vt 0.760611 0.573845
vt 0.761862 0.572034
vt 0.760088 0.571861
vt 0.741362 0.338695
vt 0.740497 0.340030
vt 0.742599 0.340454
vt 0.797697 0.930560
vt 0.798686 0.931739
vt 0.801355 0.931660
vt 0.375489 0.302521
vt 0.380297 0.304956
vt 0.376130 0.301772
vt 0.022336 0.763458
vt 0.021138 0.764668
vt 0.025042 0.766022
vt 0.153766 0.817043
vt 0.151996 0.817674
vt 0.151576 0.821141
vt 0.119312 0.672732
vt 0.120351 0.672893
vt 0.119526 0.671498
vt 0.756865 0.271367
vt 0.757534 0.269826
vt 0.755995 0.270528
vt 0.253004 0.758255
vt 0.255288 0.758134
vt 0.255206 0.756252
vt 0.254604 0.760236
vt 0.254107 0.761914
vt 0.254937 0.763001
vt 0.865492 0.495211
vt 0.862281 0.495523
vt 0.864185 0.497660
vt 0.777003 0.289415
vt 0.778968 0.289174
vt 0.314512 0.537290
vt 0.313054 0.535995
vt 0.137394 0.946205
vt 0.135176 0.947607
vt 0.134823 0.949496
vt 0.937270 0.730517
vt 0.936764 0.731756
vt 0.937326 0.733033
vt 0.577305 0.091876
vt 0.577326 0.093258
vt 0.579317 0.091167
vt 0.544906 0.765443
vt 0.543137 0.766482
vt 0.545240 0.767368
vt 0.560307 0.245382
vt 0.559166 0.246293
vt 0.558886 0.247612
vt 0.049193 0.679112
vt 0.049466 0.676623
vt 0.048428 0.676424
vt 0.057622 0.247527
vt 0.056883 0.248397
vt 0.058184 0.248672
vt 0.315309 0.534997
vt 0.485014 0.153026
vt 0.483903 0.152518
vt 0.484618 0.154763
vt 0.545982 0.654462
vt 0.688556 0.985129
vt 0.690963 0.985718
vt 0.689757 0.984715
vt 0.799455 0.687993
vt 0.795961 0.688765
vt 0.796920 0.689478
vt 0.960601 0.369664
vt 0.960366 0.370099
vt 0.961128 0.371201
vt 0.494691 0.447668
vt 0.911099 0.141431
vt 0.913473 0.141953
vt 0.912618 0.141221
vt 0.790537 0.586616
vt 0.786487 0.585940
vt 0.789383 0.586713
vt 0.792867 0.626654
vt 0.795280 0.627117
vt 0.793211 0.624032
vt 0.074718 0.055392
vt 0.074147 0.054127
vt 0.073594 0.055098
vt 0.765229 0.838299
vt 0.761831 0.837109
vt 0.763115 0.838355
vt 0.132755 0.053362
vt 0.132268 0.052003
vt 0.131720 0.054453
vt 0.670241 0.814302
vt 0.671502 0.810862
vt 0.670084 0.811797
vt 0.668327 0.812752
vt 0.641204 0.485010
vt 0.642524 0.483464
vt 0.703474 0.144217
vt 0.702437 0.142341
vt 0.702068 0.144073
vt 0.752407 0.829467
vt 0.751912 0.828294
vt 0.749463 0.828841
vt 0.045052 0.655207
vt 0.047049 0.654355
vt 0.045722 0.652644
vt 0.139106 0.518182
vt 0.138327 0.517971
vt 0.137976 0.518915
vt 0.316551 0.113425
vt 0.316602 0.111092
vt 0.315106 0.112794
vt 0.705382 0.825524
vt 0.703625 0.828652
vt 0.706505 0.823959
vt 0.890375 0.221368
vt 0.889143 0.221320
vt 0.889581 0.222429
vt 0.574425 0.182641
vt 0.575085 0.182946
vt 0.576204 0.180818
vt 0.308908 0.447196
vt 0.308641 0.445742
vt 0.306336 0.445230
vt 0.960423 0.654049
vt 0.958854 0.652513
vt 0.959137 0.654502
vt 0.701105 0.742321
vt 0.307341 0.544461
vt 0.151902 0.731251
vt 0.153580 0.731402
vt 0.411144 0.065993
vt 0.409785 0.063206
vt 0.467819 0.719717
vt 0.466724 0.718692
vt 0.221122 0.827648
vt 0.220289 0.827662
vt 0.368791 0.023194
vt 0.368333 0.018072
vt 0.368043 0.023005
vt 0.029052 0.745850
vt 0.028618 0.748000
vt 0.028833 0.749605
vt 0.289870 0.372635
vt 0.289690 0.374210
vt 0.290682 0.374292
vt 0.201023 0.525053
vt 0.202075 0.526059
vt 0.853348 0.977503
vt 0.853377 0.978651
vt 0.854836 0.979605
vt 0.838714 0.293076
vt 0.835659 0.290807
vt 0.837039 0.293688
vt 0.956786 0.771307
vt 0.957967 0.773401
vt 0.958627 0.771826
vt 0.395849 0.433312
vt 0.399207 0.433664
vt 0.396605 0.432515
vt 0.187249 0.529609
vt 0.184866 0.529587
vt 0.504572 0.799822
vt 0.376161 0.085840
vt 0.374298 0.085604
vt 0.375004 0.087127
vt 0.313856 0.545313
vt 0.370312 0.308599
vt 0.420522 0.173350
vt 0.418733 0.173496
vt 0.420493 0.175028
vt 0.704180 0.459686
vt 0.705059 0.458947
vt 0.704781 0.458366
vt 0.869841 0.437024
vt 0.868673 0.439427
vt 0.870221 0.439363
vt 0.285087 0.865150
vt 0.221958 0.979570
vt 0.222818 0.981811
vt 0.689417 0.251105
vt 0.689869 0.248767
vt 0.688780 0.250767
vt 0.267796 0.839946
vt 0.266405 0.841610
vt 0.267730 0.844682
vt 0.185032 0.655788
vt 0.182605 0.652089
vt 0.182247 0.654401
vt 0.327004 0.417014
vt 0.326538 0.419451
vt 0.327737 0.418129
vt 0.972965 0.798491
vt 0.973755 0.796801
vt 0.972517 0.797123
vt 0.061512 0.831266
vt 0.064079 0.831560
vt 0.063234 0.828224
vt 0.542841 0.770640
vt 0.542818 0.772052
vt 0.220809 0.727137
vt 0.219395 0.726573
vt 0.219042 0.729870
vt 0.790171 0.882509
vt 0.790075 0.880984
vt 0.788727 0.881193
vt 0.366530 0.007630
vt 0.367158 0.010537
vt 0.367486 0.007509
vt 0.307986 0.095770
vt 0.308479 0.093524
vt 0.307761 0.092484
vt 0.017826 0.645384
vt 0.017193 0.648868
vt 0.020180 0.644828
vt 0.566346 0.001621
vt 0.567591 0.004385
vt 0.568310 0.002744
vt 0.634609 0.988670
vt 0.633785 0.986802
vt 0.666855 0.559981
vt 0.665806 0.558803
vt 0.666094 0.559830
vt 0.579769 0.222534
vt 0.579457 0.223294
vt 0.581220 0.224981
vt 0.188982 0.411729
vt 0.188697 0.410851
vt 0.187882 0.411495
vt 0.368501 0.013589
vt 0.924319 0.513346
vt 0.925721 0.513226
vt 0.923774 0.511844
vt 0.571588 0.004424
vt 0.392998 0.123064
vt 0.392667 0.124580
vt 0.394365 0.124709
vt 0.492584 0.093616
vt 0.493154 0.094501
vt 0.493846 0.094987
vt 0.492758 0.092540
vt 0.705316 0.831437
vt 0.706709 0.830326
vt 0.709778 0.823311
vt 0.412237 0.071967
vt 0.697938 0.128463
vt 0.700314 0.128818
vt 0.697663 0.127695
vt 0.667970 0.006495
vt 0.668791 0.007717
vt 0.744207 0.460144
vt 0.742937 0.458567
vt 0.742861 0.460988
vt 0.002922 0.706504
vt 0.004696 0.705257
vt 0.001290 0.704351
vt 0.818741 0.804732
vt 0.820306 0.802464
vt 0.819223 0.802696
vt 0.522625 0.909038
vt 0.522298 0.909973
vt 0.523274 0.909690
vt 0.709308 0.826050
vt 0.535936 0.326056
vt 0.533695 0.328114
vt 0.264764 0.844323
vt 0.701558 0.001265
vt 0.927172 0.275686
vt 0.925401 0.279620
vt 0.927755 0.277863
vt 0.032539 0.807304
vt 0.031241 0.805412
vt 0.030079 0.809534
vt 0.699811 0.752778
vt 0.702537 0.752535
vt 0.930670 0.737470
vt 0.929567 0.737096
vt 0.929280 0.737021
vt 0.929302 0.737847
vt 0.131954 0.797796
vt 0.130597 0.797410
vt 0.693098 0.003502
vt 0.214135 0.919990
vt 0.215009 0.920312
vt 0.215453 0.918757
vt 0.615047 0.648561
vt 0.617384 0.647350
vt 0.617249 0.645280
vt 0.536154 0.319705
vt 0.567810 0.264901
vt 0.565611 0.265318
vt 0.565606 0.266981
vt 0.863821 0.518416
vt 0.865407 0.516910
vt 0.863572 0.516818
vt 0.861839 0.518177
vt 0.805568 0.287041
vt 0.806384 0.284740
vt 0.805162 0.285665
vt 0.804836 0.286554
vt 0.265758 0.244790
vt 0.265671 0.244191
vt 0.265387 0.244516
vt 0.060332 0.982946
vt 0.060637 0.983064
vt 0.060402 0.982899
vt 0.589073 0.296273
vt 0.588915 0.296372
vt 0.306858 0.444616
vt 0.306513 0.444705
vt 0.308922 0.444691
vt 0.931743 0.738455
vt 0.931763 0.736535
vt 0.930978 0.736300
vt 0.930807 0.736450
vt 0.001577 0.279523
vt 0.001770 0.279393
vt 0.001232 0.278961
vt 0.781318 0.992223
vt 0.780986 0.992350
vt 0.781310 0.993246
vt 0.311175 0.447081
vt 0.312741 0.446470
vt 0.312153 0.445408
vt 0.311068 0.445818
vt 0.702178 0.459110
vt 0.702510 0.459767
vt 0.455132 0.151277
vt 0.455059 0.151923
vt 0.455426 0.151529
vt 0.485058 0.452345
vt 0.303362 0.544510
vt 0.494928 0.448078
vt 0.380518 0.306320
vt 0.376177 0.309562
vt 0.306995 0.551404
vt 0.309299 0.552457
vt 0.304630 0.547442
vt 0.785625 0.767015
vt 0.786935 0.768214
vt 0.787410 0.767746
vt 0.786687 0.767084
vt 0.049059 0.923061
vt 0.046803 0.923299
vt 0.047002 0.924046
vt 0.047571 0.923869
vn -0.1578 0.8324 -0.5313
vn -0.0554 0.9099 -0.4112
vn -0.2215 0.6801 -0.6988
vn -0.1936 0.6988 -0.6886
vn -0.3034 0.6586 -0.6886
vn -0.0514 0.9369 -0.3459
vn 0.6067 0.7654 0.2144
vn 0.7091 0.6484 0.2772
vn -0.0139 0.9277 -0.3730
vn -0.3602 0.1150 -0.9258
vn -0.0499 -0.9616 -0.2699
vn -0.5835 -0.2862 -0.7600
vn -0.8992 -0.2973 -0.3210
vn -0.4006 -0.3324 -0.8538
vn -0.8465 -0.4053 -0.3452
vn -0.1953 0.3033 0.9327
vn 0.1692 0.8719 0.4595
vn -0.1269 0.8784 0.4607
vn 0.3592 -0.6248 0.6932
vn 0.2713 -0.5601 0.7827
vn 0.0079 -0.9600 0.2800
vn -0.0945 0.5244 -0.8462
vn -0.0462 0.6849 -0.7271
vn -0.1325 -0.1492 -0.9799
vn 0.1678 0.0722 0.9832
vn -0.0202 -0.4817 0.8761
vn 0.1897 -0.6052 0.7731
vn 0.1905 0.2903 0.9378
vn 0.3028 0.8438 0.4430
vn 0.2489 -0.9663 0.0653
vn 0.0923 -0.9911 -0.0963
vn 0.1928 -0.8831 0.4277
vn 0.0094 -0.9859 -0.1673
vn 0.1927 -0.4454 0.8744
vn 0.1747 -0.8383 0.5164
vn 0.1015 0.5730 0.8132
vn -0.2198 0.8160 0.5346
vn 0.3881 -0.2126 0.8968
vn 0.2635 0.3979 0.8788
vn 0.2052 -0.5468 0.8117
vn 0.6002 0.0701 0.7968
vn 0.4457 -0.5555 0.7020
vn 0.5444 0.6910 0.4755
vn 0.0917 -0.9440 0.3169
vn 0.1307 -0.9332 0.3348
vn -0.0628 -0.9961 0.0624
vn 0.0666 0.0777 -0.9947
vn 0.3066 0.1434 -0.9410
vn 0.3777 -0.2083 -0.9022
vn 0.2321 -0.9503 -0.2073
vn 0.5276 -0.7170 0.4556
vn 0.7830 0.0737 0.6176
vn 0.8131 0.3671 0.4518
vn -0.1063 0.4348 0.8942
vn -0.1391 -0.1773 -0.9743
vn -0.2401 0.5175 -0.8213
vn -0.2428 0.8577 -0.4532
vn 0.0615 -0.9812 -0.1830
vn 0.0642 -0.9716 -0.2277
vn -0.0039 -0.8645 -0.5027
vn -0.2225 0.9319 -0.2863
vn -0.1146 0.9934 0.0069
vn -0.2511 0.9518 -0.1762
vn 0.1552 0.9862 0.0574
vn 0.2763 0.5012 0.8200
vn 0.3332 0.7082 0.6224
vn -0.1268 -0.6445 0.7540
vn -0.0472 0.6143 0.7877
vn -0.2659 0.9015 -0.3415
vn -0.1124 -0.1478 -0.9826
vn 0.3092 -0.4240 0.8513
vn 0.3506 -0.2236 0.9094
vn 0.0589 -0.9561 -0.2871
vn 0.0586 -0.9924 -0.1078
vn 0.1082 0.8658 0.4885
vn 0.1360 -0.1458 0.9799
vn 0.2133 0.3775 0.9011
vn 0.0966 -0.9271 0.3622
vn 0.3914 -0.4223 0.8176
vn -0.2566 0.9388 -0.2296
vn -0.2284 0.9411 -0.2493
vn 0.0530 0.7980 -0.6003
vn -0.0914 -0.9602 -0.2638
vn -0.1455 -0.9717 -0.1859
vn -0.0943 -0.9948 -0.0392
vn -0.1962 0.8747 -0.4431
vn -0.3243 0.8478 -0.4195
vn -0.3432 -0.2729 -0.8987
vn -0.1258 -0.7474 -0.6523
vn -0.0611 -0.7910 -0.6088
vn 0.2886 0.8781 0.3816
vn 0.0590 0.9888 -0.1370
vn 0.0012 0.9976 -0.0692
vn -0.3295 -0.0105 -0.9441
vn -0.4235 0.6177 -0.6626
vn -0.1336 -0.9839 -0.1191
vn 0.0478 -0.8918 0.4500
vn 0.3849 -0.6147 0.6885
vn -0.4082 -0.2445 -0.8795
vn -0.0642 -0.9841 -0.1658
vn 0.4022 0.8809 0.2494
vn 0.6705 0.1752 0.7210
vn 0.0998 -0.7887 -0.6067
vn -0.0755 -0.4906 -0.8681
vn -0.0142 0.1476 -0.9889
vn -0.2093 0.8366 -0.5062
vn 0.6146 0.2175 0.7582
vn -0.1464 0.7128 0.6859
vn 0.0234 0.7127 0.7011
vn -0.5831 -0.4917 -0.6467
vn -0.2738 -0.9528 -0.1309
vn -0.0563 0.9210 -0.3854
vn -0.3398 0.6441 -0.6853
vn -0.0650 0.8995 -0.4321
vn 0.1008 0.9856 0.1357
vn 0.3489 -0.0191 0.9370
vn 0.4568 0.3888 0.8001
vn -0.0760 0.9842 0.1601
vn -0.1679 0.9781 0.1231
vn -0.2128 0.7381 -0.6402
vn 0.1466 0.1979 0.9692
vn 0.5088 -0.5473 0.6645
vn 0.1769 -0.9380 0.2980
vn 0.2222 0.9214 0.3187
vn 0.4197 0.3973 0.8161
vn 0.3538 0.3210 0.8785
vn 0.3379 0.8987 0.2796
vn 0.0269 0.9815 -0.1896
vn -0.3206 0.7949 -0.5151
vn -0.2819 0.7177 -0.6368
vn -0.3918 0.0468 -0.9189
vn 0.0164 -0.9984 0.0539
vn -0.0126 -0.9528 -0.3034
vn 0.1519 -0.9694 0.1929
vn -0.0122 -0.9997 -0.0218
vn -0.0434 -0.9954 -0.0852
vn 0.0588 -0.9973 0.0438
vn 0.0178 -0.9912 0.1315
vn 0.5475 -0.6418 0.5370
vn -0.1197 0.9268 -0.3560
vn -0.2670 0.3915 -0.8806
vn -0.2866 -0.1082 -0.9519
vn 0.3157 0.8930 0.3208
vn -0.1903 0.7446 -0.6398
vn -0.2612 0.9633 -0.0621
vn -0.0968 0.9809 -0.1686
vn -0.1126 0.7344 -0.6693
vn -0.7522 0.5582 -0.3502
vn -0.6594 0.7180 -0.2229
vn 0.0366 -0.9004 0.4335
vn 0.0807 -0.3520 0.9325
vn -0.1853 -0.1028 -0.9773
vn -0.1363 0.9162 -0.3769
vn -0.9670 0.1253 -0.2218
vn 0.0875 0.9522 -0.2927
vn 0.2374 0.9026 -0.3591
vn 0.4473 0.7347 0.5100
vn 0.1009 0.9946 -0.0232
vn 0.0221 0.9848 -0.1723
vn -0.0039 0.7546 0.6562
vn -0.0314 0.7057 0.7078
vn -0.0584 0.9218 -0.3833
vn -0.0299 0.8470 -0.5308
vn -0.0017 -0.9837 0.1797
vn 0.0138 -0.9924 0.1225
vn -0.6715 0.1684 0.7216
vn -0.6791 0.1267 0.7230
vn -0.3456 0.6391 0.6871
vn -0.1267 -0.9567 0.2621
vn -0.1657 0.9828 -0.0818
vn -0.0689 0.5769 -0.8139
vn -0.1044 0.9779 0.1810
vn -0.1180 0.9929 -0.0160
vn -0.3485 -0.5392 -0.7667
vn -0.0623 -0.9912 -0.1164
vn 0.4129 -0.7238 0.5528
vn -0.0827 -0.9880 -0.1304
vn 0.1990 -0.9715 0.1290
vn 0.0075 0.9788 -0.2045
vn 0.1874 -0.7689 0.6113
vn 0.1843 -0.6546 0.7331
vn 0.0358 -0.9834 0.1778
vn 0.2348 -0.6902 0.6844
vn -0.3929 -0.6715 -0.6283
vn -0.2159 0.9609 -0.1735
vn -0.0664 0.9652 0.2531
vn -0.4471 -0.1287 -0.8852
vn 0.2354 0.9658 0.1087
vn -0.0571 -0.9941 0.0924
vn -0.0214 -0.9997 0.0070
vn -0.1232 -0.9677 -0.2201
vn 0.4863 -0.1386 0.8628
vn 0.2256 -0.8186 0.5283
vn 0.1278 0.9625 0.2394
vn -0.1106 0.8090 -0.5773
vn -0.0437 0.9776 -0.2061
vn 0.8422 -0.4096 0.3507
vn 0.9127 -0.3265 0.2458
vn 0.0244 -0.9995 0.0196
vn 0.0371 -0.9478 0.3166
vn -0.2097 -0.0088 -0.9777
vn -0.1891 0.3238 -0.9270
vn 0.1025 -0.5009 0.8594
vn 0.2360 0.2979 0.9249
vn 0.5056 -0.5740 0.6442
vn 0.5979 -0.6618 0.4523
vn 0.2747 -0.8438 0.4609
vn -0.0452 -0.5104 0.8587
vn 0.0369 0.7906 0.6112
vn -0.0540 0.9657 -0.2538
vn 0.0292 0.3984 0.9168
vn 0.0040 0.8301 0.5576
vn -0.0790 -0.9938 -0.0780
vn 0.0477 -0.9280 0.3695
vn -0.1601 0.9470 -0.2784
vn 0.1027 0.9296 0.3539
vn 0.1708 0.9435 0.2839
vn -0.0337 0.9541 -0.2976
vn 0.1470 -0.4975 0.8549
vn 0.2651 0.0719 0.9615
vn 0.1555 0.7381 0.6566
vn -0.0759 0.7089 0.7012
vn -0.0930 -0.5410 0.8359
vn -0.3683 -0.7564 -0.5406
vn 0.4826 -0.7760 -0.4061
vn -0.5667 0.5746 -0.5905
vn -0.6128 0.0258 -0.7898
vn 0.2682 -0.8944 -0.3580
vn -0.0480 0.7220 -0.6902
vn -0.0650 -0.9975 0.0290
vn 0.2263 -0.6292 -0.7436
vn 0.4467 -0.7231 0.5269
vn 0.0556 0.8918 0.4490
vn 0.4151 -0.6569 0.6294
vn -0.1803 0.7590 -0.6256
vn 0.1214 -0.2378 0.9637
vn -0.2542 -0.8732 -0.4159
vn -0.5310 -0.0552 -0.8456
vn -0.4254 0.2132 -0.8795
vn -0.1903 0.7404 0.6446
vn -0.0010 0.9948 -0.1019
vn 0.0223 -0.4849 0.8743
vn -0.2824 -0.3207 0.9041
vn 0.0229 -0.3613 0.9322
vn 0.2490 0.9272 0.2799
vn -0.0494 0.5352 -0.8433
vn 0.0810 -0.9775 -0.1950
vn -0.2766 -0.0010 -0.9610
vn -0.1446 -0.2692 -0.9522
vn -0.1728 -0.5262 -0.8326
vn 0.0044 -0.9830 0.1836
vn 0.3393 -0.4886 0.8038
vn 0.1499 -0.9679 0.2018
vn -0.1068 -0.4154 -0.9034
vn -0.0470 -0.2742 -0.9605
vn -0.4864 0.8664 0.1130
vn -0.5996 0.7938 0.1018
vn -0.7223 0.5409 0.4309
vn 0.3037 0.5763 0.7588
vn 0.0247 0.1910 -0.9813
vn -0.0988 -0.1867 -0.9774
vn 0.0086 -0.6598 -0.7514
vn -0.0495 -0.8544 -0.5172
vn -0.3645 -0.8873 -0.2826
vn -0.5778 -0.2754 0.7683
vn -0.7558 -0.1162 0.6444
vn 0.0157 0.7062 0.7078
vn -0.4208 -0.5019 -0.7557
vn -0.6939 0.2358 0.6803
vn -0.2733 0.2764 -0.9214
vn 0.1130 -0.9517 0.2857
vn 0.0581 -0.9492 0.3093
vn -0.2335 -0.7339 -0.6379
vn 0.0666 0.0512 0.9965
vn 0.5857 -0.6839 -0.4350
vn 0.8329 -0.4240 -0.3556
vn 0.3941 -0.4228 -0.8161
vn 0.0466 -0.4914 -0.8697
vn 0.1726 0.1771 0.9689
vn -0.4195 0.8823 0.2136
vn 0.0801 0.8144 -0.5748
vn -0.3153 -0.3037 -0.8991
vn 0.1311 -0.9830 0.1283
vn 0.1186 0.9290 0.3505
vn 0.4723 0.4343 0.7670
vn -0.8670 -0.0777 -0.4922
vn 0.4530 -0.3645 0.8136
vn -0.0316 0.2456 -0.9688
vn 0.4610 -0.3290 0.8242
vn 0.4028 0.0738 -0.9123
vn 0.2493 -0.4211 0.8721
vn 0.7916 -0.5352 -0.2950
vn 0.8691 -0.4821 0.1109
vn 0.2974 -0.4351 0.8499
vn -0.7982 -0.4914 -0.3484
vn -0.8598 -0.3953 -0.3231
vn 0.0318 0.8935 0.4479
vn -0.8113 0.3161 -0.4917
vn -0.7830 0.4836 -0.3913
vn -0.1620 -0.5831 0.7961
vn -0.5307 -0.3884 0.7533
vn -0.6902 0.1768 0.7017
vn -0.7713 -0.0531 0.6342
vn -0.1466 -0.8524 0.5019
vn -0.5195 -0.8541 0.0272
vn 0.6846 0.6430 -0.3433
vn 0.8059 0.2325 -0.5444
vn 0.8325 -0.0045 0.5540
vn 0.7830 0.4844 0.3902
vn 0.7152 0.6892 0.1162
vn 0.7334 0.6728 -0.0974
vn 0.8137 0.0136 0.5812
vn -0.7583 -0.4935 -0.4259
vn -0.7362 0.2188 -0.6404
usemtl sungaya_inexpectata_31mg
s 1
f 1/1/1 8/2/2 7/3/3
f 3/4/4 235/5/5 2/6/6
f 143/7/7 54/8/8 29/9/9
f 43/10/10 45/11/11 44/12/12
f 311/13/13 47/14/14 289/15/15
f 208/16/16 56/17/17 55/18/18
f 73/19/19 75/20/20 74/21/21
f 61/22/22 174/23/23 87/24/24
f 76/25/25 77/26/26 140/27/27
f 56/28/17 79/29/28 240/30/29
f 18/31/30 176/32/31 32/33/32
f 15/34/33 107/35/34 89/36/35
f 76/37/25 170/38/36 153/39/37
f 101/40/38 16/41/39 234/42/40
f 13/43/41 93/44/42 103/45/43
f 94/46/44 154/47/45 91/48/46
f 227/49/47 241/50/48 126/51/49
f 234/52/40 224/53/50 11/54/51
f 282/55/52 275/56/53 129/57/54
f 259/58/55 130/59/56 239/60/57
f 16/61/39 76/62/25 234/63/40
f 136/64/58 19/65/59 85/66/60
f 40/67/61 139/68/62 123/69/63
f 150/70/64 35/71/65 151/72/66
f 258/73/67 153/74/37 216/75/68
f 164/76/69 130/77/56 223/78/70
f 219/79/71 161/80/72 79/81/28
f 255/82/73 108/83/74 259/84/55
f 166/85/75 160/86/76 53/87/77
f 96/88/78 74/89/21 167/90/79
f 170/91/36 172/92/80 171/93/81
f 174/94/23 61/95/22 60/96/82
f 259/84/55 257/97/83 255/82/73
f 152/98/84 74/99/21 100/100/85
f 99/101/86 175/102/87 271/103/88
f 46/104/89 176/105/31 65/106/90
f 12/107/91 109/108/92 134/109/93
f 178/110/94 175/111/87 177/112/95
f 121/113/96 183/114/97 236/115/98
f 268/116/99 104/117/100 46/118/89
f 65/106/90 47/14/14 87/119/24
f 210/120/101 103/45/43 237/121/102
f 28/122/103 194/123/104 193/124/105
f 192/125/106 134/126/93 109/127/92
f 143/128/7 9/129/107 54/130/8
f 141/131/108 197/132/109 40/133/61
f 178/134/94 50/135/110 27/136/111
f 31/137/112 201/138/113 78/139/114
f 62/140/115 31/141/112 78/142/114
f 159/143/116 36/144/117 35/145/65
f 163/146/118 164/147/69 203/148/119
f 268/149/99 66/150/120 201/151/113
f 102/152/121 206/153/122 229/154/123
f 125/155/124 168/156/125 209/157/126
f 186/158/127 221/159/128 210/120/101
f 64/160/129 211/161/130 112/162/131
f 224/163/50 95/164/132 212/165/133
f 27/166/111 128/167/134 233/168/135
f 135/169/136 138/170/137 117/171/138
f 54/130/8 9/129/107 90/172/139
f 82/173/140 127/174/141 222/175/142
f 109/176/92 119/177/143 34/178/144
f 156/179/145 217/180/146 204/181/147
f 310/182/148 314/183/149 60/184/82
f 215/185/150 142/186/151 107/187/34
f 33/188/152 133/189/153 230/190/154
f 33/191/152 127/192/141 133/193/153
f 158/194/155 231/195/156 56/196/17
f 14/197/157 88/198/158 30/199/159
f 63/200/160 111/201/161 107/202/34
f 224/203/50 234/204/40 95/205/132
f 155/206/162 105/207/163 119/208/143
f 25/209/164 59/210/165 28/211/103
f 309/212/166 296/213/167 55/214/18 238/215/168
f 266/216/169 27/217/111 91/218/46
f 141/131/108 40/133/61 202/219/170
f 241/220/48 227/221/47 110/222/171
f 217/223/146 20/224/172 21/225/173
f 152/226/84 269/227/174 22/228/175
f 144/229/176 244/230/177 70/231/178
f 82/232/140 3/233/4 4/234/179
f 180/235/180 120/236/181 84/237/182
f 32/238/32 200/239/183 161/240/72
f 219/241/71 32/242/32 161/243/72
f 76/62/25 140/244/27 234/63/40
f 174/245/23 78/246/114 66/247/120
f 104/248/100 83/249/184 244/250/177
f 106/251/185 243/252/186 203/253/119
f 106/254/185 203/255/119 164/256/69
f 229/257/123 136/258/58 89/259/35
f 99/260/86 5/261/187 201/262/113
f 9/263/107 246/264/188 36/265/117
f 38/266/189 184/267/190 146/268/191
f 144/269/176 10/270/192 213/271/193
f 29/272/9 31/273/112 143/274/7
f 205/275/194 181/276/195 49/277/196
f 283/278/197 101/279/38 281/280/198
f 38/281/189 169/282/199 247/283/200
f 68/284/201 248/285/202 194/123/104
f 159/286/116 10/287/192 36/288/117
f 200/289/183 10/290/192 159/291/116
f 185/292/203 160/293/76 207/294/204
f 90/172/139 131/295/205 54/130/8
f 261/296/206 245/297/207 220/298/208
f 8/299/2 118/300/209 249/301/210
f 16/302/39 92/303/211 225/304/212
f 254/305/213 91/306/46 50/307/110
f 77/308/26 25/309/164 95/310/132
f 108/311/74 255/312/73 232/313/214
f 108/311/74 232/313/214 215/314/150
f 159/315/116 240/316/29 161/317/72
f 161/317/72 240/316/29 79/318/28
f 28/319/103 59/320/165 257/321/83
f 30/199/159 88/198/158 256/322/215
f 165/323/216 37/324/217 133/325/153
f 37/326/217 132/327/218 133/328/153
f 53/329/77 52/330/219 6/331/220
f 53/332/77 6/333/220 71/334/221
f 216/335/68 81/336/222 69/337/223
f 100/100/85 262/338/224 152/98/84
f 4/339/179 2/340/6 125/341/124
f 245/342/207 18/31/30 32/33/32
f 157/343/225 224/344/50 126/345/49
f 156/346/145 39/347/226 123/348/63
f 204/349/147 39/350/226 156/351/145
f 88/352/158 221/353/128 256/354/215
f 7/355/3 8/356/2 249/357/210
f 64/358/129 51/359/227 177/360/95
f 18/361/30 264/362/228 65/106/90
f 48/363/229 133/364/153 132/365/218
f 226/366/230 74/367/21 96/368/78
f 74/99/21 226/369/230 100/100/85
f 265/370/231 126/345/49 241/371/48
f 177/372/95 51/373/227 50/374/110
f 91/48/46 128/375/134 266/376/169
f 266/377/169 128/167/134 27/166/111
f 62/378/115 78/379/114 150/380/64
f 93/381/42 94/382/44 260/383/232
f 261/384/206 18/31/30 245/342/207
f 261/384/206 264/385/228 18/31/30
f 228/386/233 118/387/209 1/388/1
f 118/387/209 8/389/2 1/388/1
f 267/390/234 13/391/41 54/392/8
f 95/205/132 234/204/40 140/393/27
f 67/394/235 259/395/55 239/396/57
f 107/397/34 218/398/236 89/399/35
f 83/249/184 104/248/100 268/400/99
f 116/401/237 115/402/238 122/403/239
f 75/404/20 168/156/125 167/405/79
f 81/406/222 123/407/63 86/408/240
f 123/407/63 139/409/62 86/408/240
f 211/410/130 196/411/241 134/412/93
f 114/413/242 232/414/214 69/415/223
f 69/415/223 232/414/214 59/416/165
f 59/417/165 25/418/164 69/419/223
f 237/420/102 260/421/232 236/422/98
f 208/423/16 147/424/243 17/425/244
f 55/426/18 147/427/243 208/428/16
f 125/429/124 80/430/245 168/431/125
f 171/432/81 110/433/171 251/434/246
f 199/435/247 19/436/59 229/437/123
f 115/438/238 192/439/106 34/440/144
f 239/441/57 163/442/118 63/443/160
f 80/444/245 119/445/143 168/156/125
f 246/446/188 31/447/112 62/448/115
f 176/449/31 18/450/30 65/451/90
f 20/452/172 170/453/36 171/454/81
f 46/104/89 214/455/248 268/456/99
f 9/129/107 143/128/7 246/457/188
f 66/458/120 78/459/114 201/460/113
f 105/461/163 122/462/239 34/463/144
f 3/4/4 82/464/140 222/465/142
f 269/466/174 3/467/4 222/468/142
f 128/469/134 90/470/139 70/471/178
f 29/472/9 30/473/159 99/474/86
f 48/475/229 162/476/249 42/477/250
f 22/478/175 57/479/251 152/480/84
f 22/478/175 23/481/252 57/479/251
f 137/482/253 138/483/137 199/484/247
f 158/485/155 56/486/17 240/487/29
f 121/488/96 96/489/78 183/490/97
f 121/491/96 226/492/230 96/493/78
f 169/494/199 38/495/189 146/496/191
f 119/497/143 105/498/163 34/499/144
f 82/500/140 133/501/153 127/502/141
f 84/503/182 169/504/199 135/505/136
f 104/248/100 244/250/177 144/506/176
f 78/507/114 174/508/23 60/509/82
f 181/510/195 228/511/233 1/512/1
f 205/513/194 228/514/233 181/515/195
f 199/516/247 191/517/254 58/518/255
f 36/288/117 151/519/66 35/520/65
f 160/521/76 166/522/75 37/523/217
f 48/524/229 49/277/196 181/276/195
f 202/525/170 63/526/160 141/527/108
f 141/528/108 63/529/160 142/530/151
f 247/531/200 84/532/182 52/533/219
f 192/534/106 211/535/130 134/536/93
f 36/537/117 10/538/192 9/539/107
f 81/540/222 216/541/68 156/542/145
f 14/543/157 30/544/159 54/545/8
f 54/130/8 13/546/41 14/547/157
f 314/548/149 295/549/256 231/550/156 60/551/82
f 291/552/257 313/553/258 238/554/168 55/555/18
f 258/556/67 77/557/26 76/558/25
f 196/559/241 145/560/259 134/561/93
f 241/371/48 252/562/260 265/370/231
f 40/563/61 68/564/201 67/565/235
f 148/566/261 270/567/262 149/568/263
f 91/48/46 267/569/234 128/375/134
f 154/570/45 267/569/234 91/48/46
f 233/571/135 128/572/134 70/573/178
f 26/574/264 27/575/111 233/576/135
f 290/577/265 220/578/208 298/579/266
f 95/580/132 140/581/27 77/582/26
f 242/583/267 102/584/121 218/585/236
f 107/586/34 111/587/161 218/588/236
f 242/583/267 218/585/236 111/589/161
f 254/590/213 121/591/96 236/592/98
f 85/66/60 19/65/59 58/593/255
f 113/594/268 254/595/213 50/596/110
f 23/597/252 73/598/19 57/599/251
f 201/600/113 31/601/112 29/602/9
f 99/603/86 201/604/113 29/605/9
f 251/606/246 217/607/146 21/608/173
f 309/212/166 238/215/168 294/609/269
f 17/610/244 220/611/208 245/612/207
f 254/613/213 260/614/232 94/615/44
f 125/616/124 2/617/6 80/618/245
f 73/619/19 23/620/252 209/621/126
f 209/622/126 207/623/204 125/429/124
f 61/624/22 87/625/24 250/626/270
f 184/627/190 187/628/271 189/629/272
f 189/630/272 22/631/175 184/267/190
f 184/267/190 22/631/175 173/632/273
f 92/633/211 16/634/39 101/635/38
f 98/636/274 92/637/211 101/40/38
f 66/638/120 268/639/99 214/640/248
f 66/641/120 214/642/248 174/643/23
f 16/644/39 225/645/212 170/91/36
f 225/645/212 172/92/80 170/91/36
f 136/646/58 15/647/33 89/648/35
f 166/649/75 49/650/196 132/651/218
f 132/652/218 49/653/196 48/654/229
f 21/655/173 171/656/81 251/657/246
f 277/658/275 278/659/276 265/660/231
f 277/661/275 265/662/231 274/663/277
f 116/664/237 122/665/239 262/666/224
f 50/307/110 91/306/46 27/667/111
f 114/668/242 142/669/151 215/670/150
f 215/671/150 232/672/214 114/673/242
f 64/674/129 256/675/215 221/676/128
f 126/345/49 224/344/50 253/677/278
f 227/678/47 126/345/49 253/677/278
f 35/679/65 240/680/29 159/681/116
f 118/682/209 228/683/233 179/684/279
f 28/122/103 193/124/105 149/685/263
f 293/686/280 291/687/257 55/688/18 231/689/156
f 56/690/17 231/691/156 55/692/18
f 263/693/281 110/694/171 172/695/80
f 103/45/43 88/198/158 14/696/157
f 13/43/41 103/45/43 14/696/157
f 243/697/186 102/584/121 242/698/267
f 222/699/142 22/700/175 269/701/174
f 173/702/273 22/478/175 222/703/142
f 152/704/84 262/705/224 190/706/282
f 155/206/162 119/208/143 80/707/245
f 114/708/242 141/709/108 142/710/151
f 197/711/109 141/712/108 114/713/242
f 30/714/159 175/715/87 99/716/86
f 256/717/215 175/718/87 30/719/159
f 195/720/283 176/721/31 104/722/100
f 176/723/31 46/724/89 104/725/100
f 229/437/123 137/726/253 199/435/247
f 137/726/253 117/727/138 138/728/137
f 119/208/143 109/729/92 12/730/91
f 80/731/245 2/732/6 235/733/5
f 80/734/245 235/735/5 155/736/162
f 249/737/210 106/738/185 7/739/3
f 243/740/186 106/741/185 249/742/210
f 34/440/144 122/743/239 115/438/238
f 230/744/154 133/745/153 48/746/229
f 125/155/124 207/747/204 41/748/284
f 200/749/183 195/750/283 213/751/193
f 32/752/32 195/753/283 200/754/183
f 213/755/193 104/756/100 144/757/176
f 145/758/259 124/759/285 12/730/91
f 123/760/63 39/761/226 40/762/61
f 100/763/85 226/764/230 116/765/237
f 29/766/9 54/767/8 30/768/159
f 267/769/234 131/770/205 128/771/134
f 131/772/205 90/773/139 128/774/134
f 27/775/111 271/776/88 178/777/94
f 93/778/42 154/779/45 94/780/44
f 233/781/135 5/782/187 26/783/264
f 219/784/71 245/342/207 32/33/32
f 150/70/64 151/72/66 62/785/115
f 180/786/180 179/787/279 120/788/181
f 259/84/55 15/789/33 223/790/70
f 223/791/70 15/792/33 136/793/58
f 57/479/251 74/794/21 152/480/84
f 73/19/19 74/21/21 57/795/251
f 130/796/56 259/797/55 223/798/70
f 169/799/199 146/800/191 42/801/250
f 135/802/136 162/803/249 44/804/12
f 169/805/199 42/806/250 135/802/136
f 135/802/136 42/806/250 162/803/249
f 68/807/201 257/97/83 259/84/55
f 194/808/104 257/809/83 68/810/201
f 22/811/175 189/812/272 23/813/252
f 146/814/191 184/815/190 173/816/273
f 146/817/191 173/818/273 33/819/152
f 210/120/101 237/121/102 186/158/127
f 187/820/271 160/821/76 185/822/203
f 162/823/249 48/824/229 181/825/195
f 3/467/4 269/466/174 190/826/282
f 142/530/151 63/827/160 107/828/34
f 262/829/224 122/830/239 190/831/282
f 105/832/163 155/833/162 122/834/239
f 122/743/239 155/835/162 235/836/5
f 203/837/119 243/838/186 242/839/267
f 297/840/286 47/14/14 311/13/13
f 167/841/79 198/842/287 96/843/78
f 168/844/125 198/845/287 167/846/79
f 239/847/57 130/848/56 164/849/69
f 239/850/57 164/851/69 163/852/118
f 186/853/127 237/854/102 145/855/259
f 186/856/127 145/857/259 196/858/241
f 156/859/145 216/860/68 217/223/146
f 217/223/146 216/860/68 20/224/172
f 177/861/95 256/862/215 64/863/129
f 72/864/288 110/865/171 227/866/47
f 253/867/278 72/868/288 227/869/47
f 257/97/83 194/870/104 28/871/103
f 226/872/230 121/873/96 116/664/237
f 121/873/96 113/874/268 116/664/237
f 90/172/139 9/129/107 144/875/176
f 157/343/225 126/345/49 265/370/231
f 175/876/87 256/877/215 177/878/95
f 193/879/105 251/880/246 148/881/261
f 204/882/147 251/883/246 193/884/105
f 96/885/78 97/886/289 183/887/97
f 160/888/76 37/889/217 165/890/216
f 160/891/76 165/892/216 207/893/204
f 204/894/147 217/895/146 251/896/246
f 86/897/240 114/898/242 69/899/223
f 86/900/240 197/901/109 114/902/242
f 167/903/79 74/904/21 75/905/20
f 40/906/61 39/907/226 68/908/201
f 116/664/237 113/874/268 115/909/238
f 108/83/74 15/789/33 259/84/55
f 117/910/138 137/911/253 180/912/180
f 103/913/43 93/914/42 237/915/102
f 170/916/36 20/917/172 153/918/37
f 203/919/119 242/920/267 111/921/161
f 279/922/290 274/923/277 265/924/231 252/925/260
f 88/198/158 210/120/101 221/159/128
f 246/446/188 143/926/7 31/447/112
f 253/927/278 224/928/50 212/929/133
f 65/930/90 87/931/24 46/932/89
f 187/933/271 185/934/203 188/935/291
f 185/936/203 207/937/204 188/938/291
f 179/939/279 228/940/233 205/941/194
f 85/942/60 223/790/70 136/943/58
f 46/104/89 87/119/24 214/455/248
f 174/944/23 214/945/248 87/946/24
f 101/947/38 234/948/40 11/949/51
f 79/950/28 17/951/244 219/952/71
f 78/953/114 158/194/155 150/954/64
f 68/955/201 259/956/55 67/957/235
f 258/958/67 69/959/223 25/960/164
f 216/961/68 69/962/223 258/963/67
f 267/964/234 54/965/8 131/966/205
f 286/967/292 284/968/293 11/969/51 157/970/225
f 124/971/285 119/208/143 12/730/91
f 89/972/35 218/973/236 229/974/123
f 229/154/123 218/975/236 102/152/121
f 25/976/164 77/977/26 258/978/67
f 180/979/180 137/980/253 182/981/294
f 124/982/285 168/983/125 119/984/143
f 179/985/279 182/986/294 118/987/209
f 40/988/61 67/989/235 202/990/170
f 202/991/170 239/992/57 63/993/160
f 202/994/170 67/995/235 239/996/57
f 301/997/295 302/998/296 65/106/90 264/362/228
f 270/999/262 253/927/278 212/1000/133
f 207/1001/204 165/1002/216 41/1003/284
f 215/1004/150 107/1005/34 15/1006/33
f 200/1007/183 159/1008/116 161/1009/72
f 263/1010/281 241/1011/48 110/1012/171
f 186/158/127 196/559/241 221/159/128
f 187/933/271 188/935/291 189/1013/272
f 118/1014/209 243/1015/186 249/1016/210
f 102/1017/121 243/1018/186 118/1019/209
f 118/1020/209 182/1021/294 102/584/121
f 76/1022/25 16/1023/39 170/1024/36
f 138/1025/137 45/1026/11 191/517/254
f 138/1025/137 191/517/254 199/516/247
f 24/1027/297 172/1028/80 225/1029/212
f 222/1030/142 127/1031/141 173/1032/273
f 201/1033/113 83/1034/184 268/1035/99
f 197/1036/109 139/1037/62 40/1038/61
f 148/881/261 251/880/246 72/1039/288
f 72/864/288 251/1040/246 110/1041/171
f 300/1042/298 292/1043/299 61/1044/22 250/1045/270
f 187/1046/271 184/267/190 38/266/189
f 100/1047/85 116/664/237 262/666/224
f 42/477/250 33/1048/152 48/475/229
f 42/1049/250 146/1050/191 33/1051/152
f 44/1052/12 45/1053/11 135/1054/136
f 135/802/136 45/1055/11 138/728/137
f 19/1056/59 136/1057/58 229/1058/123
f 190/826/282 122/1059/239 235/1060/5
f 190/1061/282 235/1062/5 3/1063/4
f 182/1064/294 206/1065/122 102/1066/121
f 137/1067/253 229/1068/123 206/1069/122
f 206/1069/122 182/1070/294 137/1067/253
f 33/819/152 173/818/273 127/1071/141
f 44/1072/12 181/1073/195 1/1074/1
f 181/1075/195 44/1076/12 162/1077/249
f 164/1078/69 223/1079/70 58/1080/255
f 208/1081/16 17/1082/244 79/1083/28
f 236/1084/98 260/1085/232 254/1086/213
f 113/1087/268 121/1088/96 254/1089/213
f 248/1090/202 204/1091/147 193/1092/105
f 193/124/105 194/123/104 248/285/202
f 210/120/101 88/198/158 103/45/43
f 195/1093/283 104/1094/100 213/1095/193
f 232/1096/214 255/1097/73 257/1098/83
f 108/1099/74 215/1100/150 15/1101/33
f 125/1102/124 41/1103/284 82/1104/140
f 125/616/124 82/1105/140 4/1106/179
f 62/785/115 151/1107/66 246/1108/188
f 24/1109/297 263/1110/281 172/1111/80
f 70/1112/178 90/1113/139 144/1114/176
f 205/1115/194 71/1116/221 179/1117/279
f 179/1118/279 71/1119/221 6/1120/220
f 84/1121/182 120/1122/181 52/1123/219
f 52/1124/219 120/1125/181 6/1126/220
f 270/1127/262 212/1128/133 95/1129/132
f 246/1108/188 151/1107/66 36/1130/117
f 4/1131/179 3/1132/4 2/1133/6
f 133/501/153 41/1134/284 165/323/216
f 82/1135/140 41/1136/284 133/1137/153
f 53/1138/77 71/1139/221 205/1140/194
f 307/1141/300 261/1142/206 306/1143/301
f 47/14/14 250/1144/270 87/119/24
f 58/1145/255 191/1146/254 7/1147/3
f 58/1148/255 223/1149/70 85/1150/60
f 95/1151/132 25/1152/164 149/1153/263
f 308/1154/302 299/1155/303 147/1156/243
f 7/1157/3 164/1158/69 58/1159/255
f 106/1160/185 164/1161/69 7/1162/3
f 148/1163/261 72/1164/288 253/1165/278
f 148/1163/261 253/1165/278 270/1166/262
f 176/1167/31 195/1168/283 32/33/32
f 193/1169/105 148/1170/261 149/1171/263
f 33/1172/152 230/1173/154 48/1174/229
f 64/1175/129 221/1176/128 196/1177/241
f 96/1178/78 198/1179/287 97/1180/289
f 180/1181/180 182/1182/294 179/1183/279
f 94/1184/44 91/1185/46 254/1186/213
f 248/1187/202 68/1188/201 39/1189/226
f 248/1190/202 39/1191/226 204/1192/147
f 92/1193/211 129/1194/54 24/1195/297
f 92/1196/211 98/1197/274 129/1198/54
f 92/303/211 24/1199/297 225/304/212
f 158/194/155 60/1200/82 231/195/156
f 78/507/114 60/1201/82 158/1202/155
f 224/1203/50 157/343/225 11/1204/51
f 160/888/76 52/1205/219 53/1206/77
f 236/422/98 183/1207/97 97/1208/289
f 267/1209/234 93/1210/42 13/1211/41
f 93/1212/42 267/1213/234 154/1214/45
f 179/1215/279 6/1216/220 120/1217/181
f 177/1218/95 50/374/110 178/1219/94
f 189/1220/272 188/1221/291 23/1222/252
f 192/1223/106 109/1224/92 34/1225/144
f 192/1226/106 115/1227/238 211/1228/130
f 188/1229/291 209/1230/126 23/1231/252
f 207/747/204 209/1230/126 188/1229/291
f 113/1232/268 211/161/130 115/1233/238
f 86/897/240 69/899/223 81/1234/222
f 79/1235/28 56/1236/17 208/1237/16
f 150/70/64 240/1238/29 35/71/65
f 158/194/155 240/1238/29 150/70/64
f 313/1239/258 294/609/269 238/215/168
f 172/1240/80 110/1241/171 171/1242/81
f 304/1243/304 312/1244/305 264/1245/228
f 245/1246/207 219/1247/71 17/1248/244
f 198/1249/287 168/983/125 124/982/285
f 198/845/287 124/1250/285 97/1251/289
f 190/1252/282 269/1253/174 152/1254/84
f 7/1255/3 191/1256/254 1/1257/1
f 258/1258/67 76/1259/25 153/1260/37
f 247/1261/200 187/1262/271 38/1263/189
f 134/1264/93 145/1265/259 12/1266/91
f 49/1267/196 166/1268/75 205/1269/194
f 205/1270/194 166/1271/75 53/332/77
f 97/1272/289 124/1273/285 145/1274/259
f 145/1275/259 236/1276/98 97/1277/289
f 145/1278/259 237/1279/102 236/1280/98
f 64/1281/129 196/1282/241 211/1283/130
f 26/1284/264 5/1285/187 271/1286/88
f 144/1287/176 9/1288/107 10/1289/192
f 83/249/184 5/1290/187 244/250/177
f 5/1290/187 233/1291/135 244/250/177
f 244/1292/177 233/1293/135 70/1294/178
f 201/1295/113 5/1296/187 83/1297/184
f 139/1298/62 197/1299/109 86/1300/240
f 237/1279/102 93/1210/42 260/1301/232
f 20/1302/172 216/1303/68 153/1304/37
f 213/271/193 10/1305/192 200/1007/183
f 17/1306/244 147/1307/243 220/1308/208
f 299/1309/303 298/1310/266 220/1311/208 147/1312/243
f 50/1313/110 51/1314/227 113/1315/268
f 270/567/262 95/1316/132 149/568/263
f 26/1317/264 271/1318/88 27/1319/111
f 149/1320/263 25/1321/164 28/871/103
f 271/1322/88 175/1323/87 178/1324/94
f 5/1325/187 99/1326/86 271/1327/88
f 132/1328/218 37/1329/217 166/1330/75
f 209/157/126 168/156/125 75/404/20
f 73/1331/19 209/1332/126 75/1333/20
f 113/1315/268 51/1314/227 112/1334/131
f 64/160/129 112/162/131 51/373/227
f 169/1335/199 84/237/182 247/1336/200
f 191/1256/254 43/1337/10 1/1257/1
f 191/517/254 45/1026/11 43/1338/10
f 1/1339/1 43/1340/10 44/1341/12
f 257/1342/83 59/1343/165 232/1344/214
f 171/93/81 21/1345/173 20/1346/172
f 285/1347/306 287/1348/307 252/1349/260 263/1350/281
f 241/50/48 263/1351/281 252/1352/260
f 58/518/255 19/1353/59 199/516/247
f 112/162/131 211/161/130 113/1232/268
f 163/1354/118 203/1355/119 111/1356/161
f 163/1357/118 111/1358/161 63/1359/160
f 84/503/182 135/169/136 117/171/138
f 84/237/182 117/1360/138 180/235/180
f 81/1361/222 156/1362/145 123/1363/63
f 160/1364/76 187/1365/271 247/1366/200
f 52/1367/219 160/1364/76 247/1366/200
f 101/1368/38 11/1369/51 284/1370/293 281/1371/198
f 101/1372/38 283/1373/197 280/1374/308
f 252/1375/260 287/1376/307 279/1377/290
f 157/970/225 265/1378/231 278/1379/276 286/967/292
f 24/1195/297 276/1380/309 288/1381/310
f 129/1194/54 275/1382/53 276/1380/309 24/1195/297
f 263/1383/281 24/1384/297 273/1385/311 285/1386/306
f 24/1387/297 288/1388/310 273/1389/311
f 98/1390/274 272/1391/312 282/1392/52 129/57/54
f 98/1393/274 101/1394/38 280/1395/308 272/1396/312
f 278/659/276 277/658/275 274/663/277 279/922/290 287/1376/307 285/1347/306 273/1385/311 288/1388/310 276/1380/309 275/1382/53 282/55/52 272/1391/312 280/1395/308 283/1373/197 281/280/198 284/1370/293 286/967/292
f 261/1397/206 307/1398/300 304/1243/304 264/1245/228
f 264/1399/228 312/1400/305 303/1401/313
f 264/362/228 303/1402/313 301/997/295
f 250/1045/270 305/1403/314 300/1042/298
f 250/1144/270 47/14/14 297/840/286 305/1404/314
f 147/1405/243 55/214/18 296/213/167 308/1406/302
f 231/195/156 295/1407/256 293/1408/280
f 60/1200/82 61/1044/22 292/1043/299 310/1409/148
f 261/1410/206 220/1411/208 290/1412/265 306/1413/301
f 47/1414/14 65/1415/90 302/1416/296 289/1417/15
f 310/1409/148 292/1043/299 300/1042/298 305/1403/314 297/840/286 311/13/13 289/15/15 302/1416/296 301/997/295 303/1402/313 312/1400/305 304/1243/304 307/1398/300 306/1143/301 290/1412/265 298/579/266 299/1309/303 308/1154/302 296/213/167 309/212/166 294/609/269 313/1239/258 291/552/257 293/686/280 295/1407/256 314/548/149
