# Blender v2.79 (sub 0) OBJ File: 'redo_fixed_360_joints.blend'
# www.blender.org
mtllib sungaya_inexpectata_31mg.mtl
o 35-f-r-tarsus_Sungaya_inexpectata_31mg.036
v 0.000126 -0.000031 -0.000120
v -0.000046 -0.000073 -0.000006
v -0.000060 -0.000066 0.000054
v 0.000436 0.000044 -0.000044
v -0.000436 0.000108 0.000172
v -0.000360 0.000109 0.000074
v -0.000163 0.000071 0.000057
v 0.000090 -0.000086 0.000021
v 0.000090 0.000055 -0.000072
v 0.000207 0.000072 -0.000101
v 0.000404 -0.000038 -0.000017
v 0.000102 0.000075 -0.000033
v -0.000209 -0.000096 0.000045
v -0.000106 -0.000034 -0.000048
v -0.000447 0.000075 0.000076
v 0.000101 -0.000067 -0.000085
v -0.000392 -0.000072 0.000156
v -0.000071 0.000046 0.000061
v 0.000051 -0.000011 0.000066
v 0.000386 -0.000043 -0.000208
v -0.000401 0.000005 0.000052
v -0.000006 0.000045 -0.000070
v -0.000283 -0.000060 0.000030
v -0.000264 0.000106 0.000031
v -0.000177 0.000091 -0.000014
v 0.000346 0.000059 -0.000163
v -0.000468 0.000091 0.000230
v 0.000273 0.000091 -0.000084
v 0.000309 0.000073 -0.000040
v 0.000179 0.000015 0.000036
v 0.000305 -0.000074 -0.000029
v -0.000240 0.000067 0.000109
v -0.000187 -0.000053 0.000098
v -0.000314 -0.000039 0.000140
v -0.000464 -0.000122 0.000099
v -0.000261 0.000040 0.000144
v 0.000219 -0.000039 0.000030
v -0.000100 -0.000024 0.000091
v -0.000107 0.000015 -0.000043
v -0.000090 0.000082 -0.000003
v -0.000519 -0.000046 0.000013
v -0.000442 -0.000065 0.000051
v 0.000492 0.000088 -0.000187
v 0.000525 0.000049 -0.000069
v 0.000532 -0.000021 -0.000047
v 0.000527 -0.000056 -0.000066
v 0.000481 0.000041 -0.000228
v 0.000526 -0.000060 -0.000071
v 0.000477 -0.000048 -0.000241
v 0.000511 -0.000067 -0.000123
v 0.000483 -0.000053 -0.000222
v 0.000492 0.000088 -0.000188
v 0.000529 0.000016 -0.000056
v 0.000478 -0.000001 -0.000238
v -0.000506 -0.000116 0.000092
v -0.000474 0.000067 0.000234
v -0.000475 0.000090 0.000230
v -0.000504 -0.000124 0.000102
v -0.000487 -0.000075 0.000177
v -0.000524 -0.000045 0.000014
v -0.000524 -0.000048 0.000015
v -0.000508 0.000067 0.000088
v -0.000488 0.000109 0.000176
v -0.000475 -0.000021 0.000230
v -0.000513 0.000050 0.000063
v -0.000521 -0.000020 0.000026
v -0.000492 -0.000094 0.000155
v -0.000513 0.000059 0.000066
v -0.000502 -0.000124 0.000108
v -0.000489 0.000109 0.000169
v -0.000473 -0.000004 0.000238
v -0.000474 -0.000012 0.000235
v -0.000476 0.000091 0.000229
vt 0.000000 0.000000
vt 0.000000 0.000000
vt 0.000000 0.000000
vt 0.000000 0.000000
vt 0.000000 0.000000
vt 0.000000 0.000000
vt 0.000000 0.000000
vt 0.000000 0.000000
vt 0.000000 0.000000
vt 0.000000 0.000000
vt 0.000000 0.000000
vt 0.000000 0.000000
vt 0.000000 0.000000
vt 0.000000 0.000000
vt 0.000000 0.000000
vt 0.000000 0.000000
vt 0.000000 0.000000
vt 0.000000 0.000000
vt 0.000000 0.000000
vt 0.828092 0.130687
vt 0.827753 0.123651
vt 0.825838 0.125611
vt 0.425369 0.048377
vt 0.422337 0.051591
vt 0.424692 0.052947
vt 0.879908 0.544317
vt 0.876305 0.544855
vt 0.878458 0.546114
vt 0.986430 0.447182
vt 0.984450 0.447057
vt 0.986873 0.447622
vt 0.423627 0.072156
vt 0.424833 0.069128
vt 0.421438 0.069677
vt 0.377868 0.125737
vt 0.377501 0.125648
vt 0.377517 0.125705
vt 0.340392 0.387585
vt 0.345677 0.391088
vt 0.341023 0.385433
vt 0.739565 0.159732
vt 0.737065 0.159679
vt 0.738477 0.160732
vt 0.346397 0.388585
vt 0.352278 0.393768
vt 0.425169 0.042217
vt 0.425552 0.043767
vt 0.427080 0.038932
vt 0.150871 0.972885
vt 0.152183 0.971388
vt 0.150599 0.970134
vt 0.925152 0.318828
vt 0.922992 0.318316
vt 0.926273 0.320645
vt 0.423155 0.040757
vt 0.422301 0.046345
vt 0.211044 0.146572
vt 0.210432 0.146121
vt 0.210490 0.147214
vt 0.943729 0.549641
vt 0.940820 0.551356
vt 0.942432 0.552506
vt 0.955336 0.485948
vt 0.954229 0.486954
vt 0.954601 0.488344
vt 0.323170 0.658310
vt 0.321668 0.662968
vt 0.324398 0.660802
vt 0.735600 0.964281
vt 0.734998 0.963106
vt 0.733219 0.963413
vt 0.643519 0.278307
vt 0.643157 0.276507
vt 0.641942 0.276865
vt 0.425293 0.066002
vt 0.462878 0.649326
vt 0.462060 0.650943
vt 0.465227 0.652792
vt 0.423934 0.056186
vt 0.302896 0.950500
vt 0.301496 0.950847
vt 0.303191 0.953732
vt 0.424912 0.063645
vt 0.421797 0.061022
vt 0.423476 0.059019
vt 0.425293 0.059996
vt 0.421179 0.058172
vt 0.864035 0.581361
vt 0.862817 0.582544
vt 0.864774 0.582961
vt 0.323507 0.662454
vt 0.825127 0.120190
vt 0.645406 0.279110
vt 0.644696 0.277113
vt 0.644361 0.278638
vt 0.080065 0.685377
vt 0.082222 0.681892
vt 0.078318 0.683996
vt 0.425442 0.045682
vt 0.783736 0.949572
vt 0.785663 0.948923
vt 0.783120 0.948209
vt 0.350813 0.395514
vt 0.745009 0.895320
vt 0.744846 0.895494
vt 0.745124 0.895457
vt 0.745169 0.895690
vt 0.712325 0.086862
vt 0.711278 0.087459
vt 0.711544 0.089032
vt 0.055853 0.224859
vt 0.058270 0.224169
vt 0.056817 0.223751
vt 0.455656 0.734112
vt 0.455110 0.732049
vt 0.454541 0.735503
vt 0.463338 0.648050
vt 0.459773 0.645034
vt 0.918460 0.710553
vt 0.916232 0.711543
vt 0.918101 0.711569
vt 0.502933 0.689554
vt 0.501932 0.691395
vt 0.503379 0.691473
vt 0.777639 0.686533
vt 0.779534 0.687394
vt 0.777961 0.685637
vt 0.706347 0.093883
vt 0.707803 0.094213
vt 0.707071 0.092991
vt 0.422834 0.038648
vt 0.423987 0.038225
vt 0.242975 0.933255
vt 0.240814 0.935900
vt 0.244491 0.933669
vt 0.151343 0.158831
vt 0.150253 0.157700
vt 0.150136 0.158961
vt 0.629017 0.133487
vt 0.628636 0.133564
vt 0.628595 0.135053
vt 0.629990 0.133930
vt 0.955736 0.474696
vt 0.956498 0.473946
vt 0.952762 0.473585
vt 0.879810 0.318101
vt 0.880198 0.319087
vt 0.882837 0.319082
vt 0.952951 0.615031
vt 0.955287 0.615374
vt 0.953298 0.613358
vt 0.453533 0.728682
vt 0.352135 0.781495
vt 0.352271 0.784412
vt 0.353949 0.778769
vt 0.116633 0.843308
vt 0.118274 0.847183
vt 0.117212 0.842358
vt 0.735527 0.722286
vt 0.737576 0.721121
vt 0.733717 0.721974
vt 0.822834 0.109724
vt 0.822774 0.109868
vt 0.824041 0.114293
vt 0.825594 0.115849
vt 0.422875 0.060617
vt 0.584914 0.141769
vt 0.584278 0.140096
vt 0.583389 0.140689
vt 0.833162 0.952497
vt 0.835284 0.953081
vt 0.835027 0.952040
vt 0.824476 0.122489
vt 0.095692 0.863921
vt 0.093506 0.859595
vt 0.094406 0.863122
vt 0.547697 0.795863
vt 0.546764 0.798322
vt 0.548804 0.800885
vt 0.189355 0.658741
vt 0.190441 0.659759
vt 0.190627 0.659144
vt 0.359944 0.696121
vt 0.361371 0.695485
vt 0.361401 0.695422
vt 0.359910 0.695788
vt 0.361392 0.695566
vt 0.911607 0.369055
vt 0.911512 0.369047
vt 0.911642 0.369088
vt 0.730287 0.725252
vt 0.730611 0.725537
vt 0.730682 0.725519
vt 0.829095 0.128750
vt 0.829955 0.126814
vt 0.343937 0.387723
vt 0.148854 0.972842
vt 0.148213 0.971034
vt 0.018959 0.095904
vt 0.018883 0.097216
vt 0.020654 0.097438
vt 0.831434 0.132214
vt 0.129892 0.553423
vt 0.131551 0.553398
vt 0.132130 0.552593
vt 0.923520 0.100083
vt 0.923447 0.101858
vt 0.924837 0.102218
vt 0.924490 0.100538
vt 0.352696 0.395586
vt 0.844938 0.408443
vt 0.841882 0.412203
vt 0.843277 0.411999
vt 0.844678 0.409925
vt 0.420186 0.065645
vt 0.419229 0.069660
vt 0.374319 0.936321
vt 0.373266 0.934644
vt 0.372508 0.935244
vt 0.772210 0.785015
vt 0.771432 0.787073
vt 0.772936 0.786653
vt 0.957626 0.598823
vt 0.956629 0.597994
vt 0.956332 0.597955
vt 0.957404 0.599158
vt 0.444776 0.135242
vt 0.445380 0.132403
vt 0.444268 0.134193
vt 0.887101 0.425999
vt 0.884668 0.425287
vt 0.887141 0.427204
vt 0.766031 0.627104
vt 0.765044 0.627587
vt 0.765177 0.628292
vt 0.766000 0.628893
vt 0.333192 0.383009
vt 0.230667 0.944920
vt 0.233110 0.943104
vt 0.232894 0.941914
vt 0.231743 0.942960
vt 0.822734 0.113583
vt 0.822581 0.109764
vt 0.821351 0.109936
vt 0.336637 0.381492
vt 0.333193 0.382986
vt 0.830162 0.137615
vt 0.827837 0.139085
vt 0.829342 0.140337
vt 0.829570 0.140136
vt 0.419713 0.073714
vt 0.420177 0.073961
vt 0.421503 0.074106
vt 0.973253 0.810957
vt 0.972491 0.811830
vt 0.974065 0.812419
vt 0.974078 0.812207
vt 0.829883 0.140101
vt 0.831536 0.138570
vt 0.608438 0.026001
vt 0.608352 0.026404
vt 0.608557 0.026228
vt 0.663583 0.572858
vt 0.661911 0.571579
vt 0.660742 0.572999
vt 0.661152 0.573222
vt 0.877107 0.600230
vt 0.877076 0.599902
vt 0.876815 0.598893
vt 0.875170 0.599070
vt 0.840245 0.375471
vt 0.840978 0.377293
vt 0.841543 0.377189
vt 0.840361 0.375520
vn -0.9749 -0.0056 0.2224
vn -0.9749 -0.0057 0.2224
vn -0.9750 -0.0058 0.2223
vn -0.9748 -0.0047 0.2231
vn -0.9750 -0.0052 0.2222
vn 0.2070 -0.2103 0.9555
vn 0.1276 -0.9145 0.3840
vn 0.1666 -0.0751 0.9832
vn -0.2293 0.7554 -0.6139
vn -0.2958 -0.1587 -0.9420
vn -0.1657 0.7388 -0.6532
vn 0.0147 -0.9998 0.0149
vn -0.2867 -0.3680 -0.8845
vn -0.0469 -0.9601 -0.2756
vn 0.8376 0.2356 0.4929
vn 0.7123 0.6161 0.3363
vn 0.1921 0.6568 0.7292
vn -0.1796 0.6881 -0.7030
vn -0.1517 0.9167 -0.3698
vn -0.0525 0.1740 -0.9833
vn 0.3799 0.0665 0.9226
vn 0.2278 0.5981 0.7684
vn 0.0203 0.5521 0.8335
vn 0.0112 0.9992 -0.0386
vn -0.0178 0.9985 0.0514
vn 0.1599 0.8196 0.5502
vn -0.1554 -0.8638 -0.4792
vn 0.1160 -0.9443 0.3080
vn 0.2039 0.4124 0.8879
vn 0.1874 0.6375 0.7473
vn 0.4083 0.3333 -0.8498
vn -0.3052 0.5486 -0.7784
vn 0.4463 0.8924 -0.0662
vn 0.2732 0.7855 0.5553
vn 0.2178 0.8931 0.3936
vn -0.3078 -0.5165 -0.7991
vn 0.7737 0.6303 0.0647
vn 0.0999 -0.9842 -0.1458
vn 0.3471 -0.5270 0.7758
vn 0.3614 -0.7526 0.5504
vn 0.3831 0.2198 0.8972
vn 0.1768 -0.6183 0.7658
vn 0.1765 -0.7454 0.6428
vn 0.3351 -0.5721 0.7486
vn -0.1150 0.9116 -0.3947
vn -0.2343 0.5438 -0.8059
vn 0.6037 -0.7207 -0.3408
vn 0.6617 -0.7214 -0.2046
vn -0.1844 0.6518 -0.7356
vn -0.2620 0.2493 -0.9323
vn 0.0886 0.9925 -0.0847
vn 0.2423 -0.3490 0.9053
vn 0.1829 -0.8184 0.5448
vn 0.0582 -0.7479 -0.6613
vn 0.0871 -0.9284 -0.3613
vn 0.1577 -0.9574 0.2419
vn 0.3030 -0.2878 0.9085
vn 0.3063 0.9255 0.2228
vn 0.3722 -0.4716 -0.7994
vn 0.4264 0.1409 -0.8935
vn -0.1732 -0.2974 -0.9389
vn 0.1067 -0.4559 -0.8836
vn 0.0566 -0.1749 -0.9830
vn 0.7254 -0.6555 0.2099
vn 0.7760 -0.5257 0.3485
vn -0.1390 0.9360 -0.3235
vn 0.0457 0.9589 -0.2799
vn 0.0453 0.9916 0.1211
vn 0.0231 0.9182 0.3953
vn -0.2171 0.1602 -0.9629
vn -0.0814 -0.5548 -0.8280
vn 0.1031 0.4595 -0.8822
vn 0.0775 -0.8381 0.5399
vn 0.8250 -0.0312 0.5643
vn 0.4561 -0.1658 0.8743
vn 0.4355 -0.4101 0.8013
vn 0.0828 0.3922 -0.9162
vn -0.0183 0.6319 -0.7749
usemtl sungaya_inexpectata_31mg
s off
f 62/1/1 71/2/1 63/3/1
f 64/4/1 62/1/1 59/5/1
f 71/2/2 62/1/2 64/4/2 72/6/2
f 59/5/1 66/7/1 67/8/1
f 67/8/1 55/9/1 69/10/1
f 69/10/3 55/9/3 58/11/3
f 55/9/4 60/12/4 61/13/4
f 60/12/1 55/9/1 66/7/1
f 66/7/1 59/5/1 65/14/1
f 55/9/1 67/8/1 66/7/1
f 65/14/2 62/1/2 68/15/2
f 62/1/5 63/3/5 70/16/5
f 57/17/1 73/18/1 63/3/1 56/19/1
f 56/19/1 63/3/1 71/2/1
f 65/14/1 59/5/1 62/1/1
s 1
f 38/20/6 8/21/7 19/22/8
f 10/23/9 1/24/10 9/25/11
f 13/26/12 14/27/13 2/28/14
f 53/29/15 44/30/16 4/31/17
f 15/32/18 6/33/19 21/34/20
f 56/35/21 27/36/22 57/37/23
f 28/38/24 12/39/25 29/40/26
f 16/41/27 31/42/28 8/43/7
f 30/44/29 12/39/25 18/45/30
f 47/46/31 26/47/32 52/48/33
f 32/49/34 18/50/30 7/51/35
f 19/52/8 30/53/29 18/54/30
f 26/47/32 20/55/36 1/56/10
f 44/57/16 43/58/37 4/59/17
f 16/60/27 20/61/36 31/62/28
f 35/63/38 34/64/39 17/65/40
f 38/66/6 36/67/41 33/68/42
f 27/69/22 36/70/41 32/71/34
f 59/72/43 17/73/40 64/74/44
f 24/75/45 21/34/20 6/33/19
f 16/76/27 8/77/7 2/78/14
f 1/24/10 22/79/46 9/25/11
f 51/80/47 50/81/48 31/82/28
f 24/75/45 25/83/49 14/84/13
f 39/85/50 40/86/51 22/79/46
f 39/85/50 22/79/46 14/87/13
f 13/88/12 38/89/6 33/90/42
f 33/68/42 36/67/41 34/91/39
f 19/22/8 8/21/7 37/92/52
f 67/93/53 17/94/40 59/95/43
f 27/96/22 32/97/34 6/98/19
f 10/23/9 26/99/32 1/24/10
f 22/100/46 40/101/51 12/102/25
f 12/39/25 40/103/51 18/45/30
f 55/104/54 35/105/38 58/106/55
f 58/106/55 35/105/38 69/107/56
f 28/108/24 10/109/9 12/110/25
f 22/79/46 1/24/10 14/87/13
f 11/111/57 37/112/52 31/113/28
f 37/114/52 11/115/57 30/116/29
f 1/117/10 20/118/36 16/76/27
f 5/119/58 6/120/19 15/121/18
f 10/122/9 9/123/11 12/124/25
f 26/125/32 10/126/9 28/127/24
f 5/128/58 27/129/22 6/130/19
f 49/131/59 20/55/36 54/132/60
f 9/133/11 22/134/46 12/135/25
f 24/136/45 23/137/61 21/138/20
f 49/139/59 51/140/47 31/141/28 20/142/36
f 32/143/34 36/144/41 18/145/30
f 38/146/6 18/147/30 36/148/41
f 42/149/62 41/150/63 21/151/20
f 11/115/57 4/152/17 30/116/29
f 29/153/26 30/154/29 4/155/17
f 18/156/30 38/157/6 19/158/8
f 48/159/64 31/160/28 50/161/48
f 48/162/64 46/163/65 11/164/57 31/165/28
f 25/83/49 39/166/50 14/84/13
f 25/167/49 40/168/51 39/169/50
f 1/170/10 16/171/27 14/172/13
f 19/22/8 37/92/52 30/173/29
f 35/174/38 13/175/12 34/176/39
f 13/177/12 33/178/42 34/179/39
f 62/180/66 70/181/67 5/182/58
f 63/183/68 73/184/69 27/185/22 5/186/58
f 73/184/69 57/187/23 27/185/22
f 60/188/70 41/189/63 61/190/71
f 66/191/72 41/192/63 60/193/70
f 3/194/73 2/195/14 8/21/7
f 38/20/6 3/194/73 8/21/7
f 31/165/28 37/92/52 8/21/7
f 29/40/26 12/39/25 30/196/29
f 32/197/34 7/51/35 24/198/45
f 32/199/34 24/200/45 6/201/19
f 13/202/12 3/194/73 38/20/6
f 2/203/14 3/204/73 13/205/12
f 40/206/51 25/207/49 24/208/45
f 7/209/35 40/206/51 24/208/45
f 40/103/51 7/210/35 18/45/30
f 42/211/62 23/212/61 13/213/12
f 35/214/38 42/211/62 13/213/12
f 21/34/20 23/215/61 42/216/62
f 41/217/63 42/218/62 35/219/38
f 14/220/13 16/221/27 2/222/14
f 14/84/13 23/215/61 24/75/45
f 67/223/53 69/224/56 35/225/38 17/226/40
f 23/227/61 14/228/13 13/229/12
f 28/230/24 52/231/33 26/232/32
f 26/233/32 47/234/31 54/235/60 20/236/36
f 28/38/24 29/40/26 52/237/33
f 4/238/17 11/239/57 45/240/74 53/241/15
f 11/242/57 46/243/65 45/244/74
f 4/245/17 43/246/37 52/237/33 29/40/26
f 34/247/39 36/248/41 71/249/75 72/250/76
f 41/251/63 66/252/72 65/253/77 21/34/20
f 15/254/18 21/255/20 65/256/77 68/257/78
f 34/247/39 72/250/76 64/258/44 17/259/40
f 5/260/58 70/261/67 63/262/68
f 5/263/58 15/264/18 68/265/78 62/266/66
f 27/267/22 56/268/21 71/269/75 36/270/41
f 41/271/63 35/272/38 55/273/54 61/274/71
f 52/48/33 43/246/37 44/57/16 53/29/15 45/240/74 46/243/65 48/162/64 50/161/48 51/80/47 49/139/59 54/132/60 47/234/31
