# Blender v2.79 (sub 0) OBJ File: 'redo_fixed_360_joints.blend'
# www.blender.org
mtllib sungaya_inexpectata_31mg.mtl
o 45-h-r-tarsus.000_Sungaya_inexpectata_31mg.066
v 0.000500 0.000017 -0.000056
v -0.000002 0.000069 0.000039
v -0.000182 -0.000020 0.000131
v -0.000141 0.000083 0.000056
v 0.000459 -0.000070 -0.000154
v 0.000093 0.000016 -0.000108
v 0.000134 -0.000059 -0.000109
v 0.000282 -0.000037 -0.000029
v 0.000474 -0.000045 -0.000107
v -0.000225 0.000053 -0.000001
v -0.000275 -0.000047 -0.000005
v -0.000316 -0.000089 0.000075
v -0.000274 0.000054 0.000165
v -0.000321 0.000027 0.000187
v -0.000033 0.000056 -0.000046
v -0.000087 -0.000078 -0.000020
v -0.000349 0.000024 0.000023
v -0.000020 -0.000004 0.000090
v -0.000421 0.000105 0.000122
v 0.000122 -0.000076 -0.000008
v 0.000423 0.000052 -0.000198
v 0.000289 -0.000066 -0.000136
v 0.000445 -0.000067 -0.000189
v 0.000417 -0.000009 -0.000217
v 0.000004 0.000033 0.000082
v -0.000036 -0.000014 -0.000075
v 0.000175 0.000063 -0.000064
v 0.000174 -0.000016 0.000027
v 0.000248 0.000075 -0.000047
v 0.000362 0.000039 -0.000018
v 0.000348 0.000076 -0.000077
v -0.000197 -0.000097 0.000042
v -0.000290 -0.000060 0.000144
v -0.000312 0.000093 0.000126
v -0.000396 -0.000106 0.000162
v -0.000288 0.000084 0.000070
v 0.000274 0.000018 -0.000175
v 0.000035 -0.000095 -0.000032
v -0.000029 -0.000072 0.000045
v -0.000228 0.000012 -0.000034
v 0.000202 0.000037 0.000024
v 0.000465 -0.000068 -0.000153
v 0.000462 -0.000018 -0.000228
v 0.000515 0.000019 -0.000061
v 0.000504 0.000067 -0.000160
v 0.000484 0.000048 -0.000220
v 0.000514 0.000016 -0.000060
v 0.000484 -0.000045 -0.000109
v 0.000517 0.000077 -0.000120
v 0.000459 -0.000064 -0.000183
v 0.000512 0.000010 -0.000064
v 0.000469 0.000011 -0.000235
v 0.000518 0.000069 -0.000107
v 0.000456 -0.000067 -0.000194
v 0.000515 0.000032 -0.000074
v 0.000479 0.000040 -0.000230
v -0.000417 -0.000021 0.000210
v -0.000429 0.000106 0.000134
v -0.000432 -0.000088 0.000102
v -0.000418 0.000057 0.000205
v -0.000424 0.000102 0.000166
v -0.000432 -0.000089 0.000103
v -0.000431 -0.000091 0.000111
v -0.000436 0.000021 0.000075
v -0.000416 -0.000067 0.000213
v -0.000420 -0.000107 0.000186
v -0.000418 0.000049 0.000208
v -0.000417 -0.000097 0.000205
v -0.000421 -0.000119 0.000181
v -0.000431 0.000106 0.000118
v -0.000425 -0.000118 0.000149
v -0.000435 0.000036 0.000085
v -0.000425 0.000107 0.000159
vt 0.804836 0.286554
vt 0.805162 0.285665
vt 0.804385 0.286253
vt 0.047031 0.933094
vt 0.046554 0.935311
vt 0.046862 0.934394
vt 0.930807 0.736450
vt 0.930978 0.736300
vt 0.930699 0.736217
vt 0.780986 0.992350
vt 0.780251 0.992631
vt 0.781310 0.993246
vt 0.186274 0.675267
vt 0.184949 0.675468
vt 0.186625 0.676855
vt 0.298542 0.887215
vt 0.296427 0.888673
vt 0.302261 0.887849
vt 0.314174 0.431992
vt 0.312828 0.431164
vt 0.310095 0.437178
vt 0.319336 0.423108
vt 0.315908 0.425410
vt 0.318276 0.425509
vt 0.001232 0.278961
vt 0.001770 0.279393
vt 0.002655 0.278799
vt 0.001110 0.278761
vt 0.936660 0.695454
vt 0.937948 0.696477
vt 0.937820 0.694529
vt 0.404319 0.048179
vt 0.409425 0.052332
vt 0.405145 0.044980
vt 0.315304 0.432865
vt 0.309900 0.441041
vt 0.310829 0.443020
vt 0.644288 0.149548
vt 0.644374 0.149473
vt 0.644234 0.149429
vt 0.306513 0.444705
vt 0.306858 0.444616
vt 0.307328 0.442297
vt 0.947095 0.414163
vt 0.946370 0.416165
vt 0.947707 0.415721
vt 0.946303 0.417840
vt 0.406511 0.052679
vt 0.429258 0.082247
vt 0.429135 0.080562
vt 0.427704 0.082438
vt 0.049125 0.955311
vt 0.049454 0.953249
vt 0.046406 0.954672
vt 0.386057 0.706008
vt 0.389413 0.710019
vt 0.390213 0.707573
vt 0.400695 0.041304
vt 0.401591 0.045594
vt 0.779709 0.558424
vt 0.778140 0.556220
vt 0.777657 0.559055
vt 0.635989 0.348901
vt 0.638477 0.343928
vt 0.636308 0.343745
vt 0.313108 0.442331
vt 0.312786 0.440027
vt 0.392455 0.711062
vt 0.308375 0.440143
vt 0.585378 0.290457
vt 0.583419 0.290519
vt 0.585765 0.292221
vt 0.308922 0.444691
vt 0.101790 0.923037
vt 0.102771 0.923543
vt 0.102940 0.923461
vt 0.102041 0.922812
vt 0.915946 0.124402
vt 0.915207 0.125623
vt 0.916068 0.125834
vt 0.858320 0.510026
vt 0.856973 0.512330
vt 0.858156 0.513658
vt 0.490512 0.654229
vt 0.488644 0.649496
vt 0.489148 0.652880
vt 0.403532 0.042138
vt 0.541380 0.678335
vt 0.539812 0.678772
vt 0.539589 0.680763
vt 0.863940 0.524556
vt 0.863839 0.523166
vt 0.862309 0.523697
vt 0.488831 0.647436
vt 0.489358 0.648370
vt 0.488837 0.646367
vt 0.063575 0.980787
vt 0.061976 0.983580
vt 0.065122 0.981852
vt 0.064403 0.983557
vt 0.318165 0.419710
vt 0.315695 0.421181
vt 0.463450 0.112020
vt 0.462598 0.109669
vt 0.462243 0.112692
vt 0.635560 0.352603
vt 0.637158 0.352896
vt 0.311068 0.445818
vt 0.312153 0.445408
vt 0.407795 0.047285
vt 0.104614 0.941865
vt 0.103182 0.940970
vt 0.104017 0.942251
vt 0.159614 0.651189
vt 0.159757 0.648975
vt 0.155869 0.651902
vt 0.695233 0.948469
vt 0.692610 0.946812
vt 0.695153 0.949330
vt 0.180330 0.519856
vt 0.181243 0.518700
vt 0.180024 0.518476
vt 0.598170 0.807189
vt 0.598047 0.807597
vt 0.598294 0.807277
vt 0.406357 0.044644
vt 0.405092 0.043154
vt 0.426103 0.711129
vt 0.431073 0.707882
vt 0.425124 0.710629
vt 0.396248 0.032075
vt 0.394304 0.032907
vt 0.399936 0.037108
vt 0.909471 0.055324
vt 0.909613 0.054144
vt 0.908078 0.054766
vt 0.690044 0.946033
vt 0.689896 0.947675
vt 0.634145 0.350426
vt 0.588329 0.297547
vt 0.588915 0.296372
vt 0.587710 0.297129
vt 0.912447 0.516817
vt 0.914165 0.517242
vt 0.912848 0.516496
vt 0.374920 0.863248
vt 0.373436 0.863879
vt 0.376441 0.863281
vt 0.265387 0.244516
vt 0.265671 0.244191
vt 0.265403 0.242346
vt 0.264553 0.243900
vt 0.314738 0.425376
vt 0.138059 0.849116
vt 0.137841 0.847185
vt 0.134705 0.849299
vt 0.762076 0.119995
vt 0.761124 0.120103
vt 0.760215 0.120943
vt 0.762137 0.120977
vt 0.206166 0.623752
vt 0.207250 0.623586
vt 0.206264 0.622724
vt 0.752513 0.840261
vt 0.752011 0.842113
vt 0.754350 0.841744
vt 0.635246 0.355301
vt 0.637123 0.354853
vt 0.634583 0.353541
vt 0.795156 0.334453
vt 0.797406 0.335146
vt 0.794219 0.332419
vt 0.693955 0.944973
vt 0.697434 0.946599
vt 0.060402 0.982899
vt 0.060637 0.983064
vt 0.318957 0.414952
vt 0.318893 0.414169
vt 0.317818 0.416348
vt 0.319504 0.420522
vt 0.320761 0.415433
vt 0.446402 0.256935
vt 0.445484 0.254862
vt 0.445187 0.256898
vt 0.701104 0.947043
vt 0.700697 0.945536
vt 0.599244 0.808399
vt 0.599053 0.808785
vt 0.599282 0.808486
vt 0.599370 0.808506
vt 0.843390 0.859319
vt 0.845509 0.858421
vt 0.845731 0.858094
vt 0.843343 0.859188
vt 0.068253 0.355165
vt 0.066456 0.354292
vt 0.066661 0.355014
vt 0.316535 0.419553
vt 0.320378 0.414981
vt 0.372887 0.866108
vt 0.373996 0.866267
vt 0.373815 0.865795
vt 0.373153 0.865091
vt 0.487296 0.646047
vt 0.487267 0.645918
vt 0.102112 0.926085
vt 0.102350 0.924743
vt 0.102210 0.924764
vt 0.101889 0.926009
vt 0.930829 0.737426
vt 0.929567 0.737096
vt 0.930670 0.737470
vt 0.587517 0.297712
vt 0.937608 0.619861
vt 0.939710 0.618217
vt 0.939929 0.617262
vt 0.939643 0.617002
vt 0.414507 0.057496
vt 0.412530 0.053677
vt 0.794651 0.866462
vt 0.795863 0.865810
vt 0.794654 0.864274
vt 0.794500 0.864142
vt 0.778899 0.992691
vt 0.779310 0.994013
vt 0.781219 0.993625
vt 0.780901 0.993264
vt 0.589674 0.294848
vt 0.589702 0.294836
vt 0.405306 0.248379
vt 0.405976 0.250321
vt 0.406881 0.249292
vn -0.1820 -0.6944 0.6961
vn -0.3229 -0.7335 0.5981
vn 0.4128 -0.9098 0.0423
vn 0.0062 -0.9999 -0.0157
vn 0.2677 -0.5193 0.8116
vn 0.3647 -0.6487 0.6679
vn -0.5131 0.6772 -0.5275
vn -0.6748 0.7340 0.0771
vn 0.1301 0.9008 -0.4143
vn -0.5882 0.0268 0.8083
vn 0.3193 -0.0004 0.9477
vn -0.4972 0.1900 0.8466
vn -0.0069 -0.9996 0.0268
vn 0.1363 -0.8352 0.5327
vn 0.2448 -0.6919 0.6793
vn -0.0784 0.8865 -0.4560
vn -0.1827 0.8096 -0.5579
vn 0.0489 0.9921 0.1152
vn 0.3039 0.4113 0.8593
vn 0.1055 0.9564 0.2723
vn 0.0751 0.9972 0.0067
vn 0.2637 0.4208 0.8680
vn 0.2817 -0.3492 0.8937
vn -0.5399 0.7849 0.3040
vn 0.1745 0.9481 0.2659
vn 0.1074 -0.8540 0.5091
vn 0.2918 -0.2671 0.9184
vn -0.0746 -0.8714 -0.4848
vn -0.3447 -0.5034 -0.7923
vn -0.2484 -0.0550 -0.9671
vn 0.2943 0.5784 0.7608
vn 0.6680 -0.7223 -0.1792
vn -0.1308 -0.9137 -0.3849
vn 0.3633 -0.7879 -0.4973
vn -0.5707 0.5929 0.5682
vn -0.4520 -0.8571 0.2471
vn -0.2999 0.4062 -0.8632
vn -0.3006 0.3791 -0.8752
vn 0.1896 -0.9027 0.3862
vn -0.2147 -0.6756 -0.7054
vn 0.0294 -0.9851 -0.1693
vn -0.0284 -0.9947 -0.0987
vn -0.5557 0.3358 0.7605
vn 0.6190 -0.7850 0.0257
vn -0.1497 0.7427 -0.6527
vn 0.0064 0.9859 0.1675
vn 0.4249 -0.4237 -0.8000
vn -0.3158 -0.1396 -0.9385
vn 0.4033 -0.0453 -0.9139
vn -0.4301 0.2482 -0.8680
vn -0.0952 0.9150 -0.3921
vn 0.2951 0.3524 0.8881
vn -0.4728 -0.1625 0.8661
vn -0.3042 0.2166 -0.9277
vn -0.1469 0.7786 -0.6100
vn 0.8989 0.2710 0.3444
vn 0.2515 -0.0150 0.9677
vn 0.8078 0.1981 0.5552
vn -0.4542 -0.8592 -0.2356
vn -0.6745 -0.7229 -0.1501
vn 0.4440 0.1942 -0.8748
vn 0.6485 0.5854 -0.4866
vn 0.7249 0.5929 -0.3507
vn -0.3938 -0.5322 0.7495
vn -0.8593 0.0776 -0.5056
vn -0.8814 0.2843 -0.3772
vn 0.8417 0.4063 0.3556
vn 0.7669 0.6394 -0.0550
vn 0.7382 -0.3857 0.5535
vn 0.6884 -0.6288 0.3614
vn 0.6377 -0.7169 0.2818
vn -0.7464 -0.6517 -0.1347
vn -0.7718 -0.4964 -0.3973
usemtl sungaya_inexpectata_31mg
s 1
f 66/1/1 69/2/2 35/3/3
f 32/4/4 3/5/5 33/6/6
f 70/7/7 58/8/8 19/9/9
f 57/10/10 14/11/11 67/12/12
f 22/13/13 9/14/14 8/15/15
f 27/16/16 15/17/17 29/18/18
f 25/19/19 2/20/20 4/21/21
f 8/22/15 41/23/22 28/24/23
f 58/25/8 73/26/24 34/27/25 19/28/9
f 39/29/26 18/30/27 3/31/5
f 16/32/28 11/33/29 26/34/30
f 18/35/27 13/36/31 14/37/11
f 50/38/32 23/39/33 54/40/34
f 73/41/24 61/42/35 13/36/31 34/43/25
f 22/44/13 23/45/33 9/46/14
f 9/46/14 23/45/33 5/47/36
f 16/32/28 32/48/4 11/33/29
f 29/49/18 37/50/37 27/51/16
f 27/52/16 37/53/37 6/54/38
f 22/55/13 20/56/39 7/57/40
f 16/32/28 7/58/40 38/59/41
f 39/60/26 16/61/28 38/62/41
f 39/63/26 3/64/5 32/65/4
f 14/37/11 33/66/6 3/67/5
f 7/57/40 20/56/39 38/68/41
f 4/21/21 34/69/25 13/36/31
f 11/70/29 32/71/4 12/72/42
f 60/73/43 13/36/31 61/42/35
f 50/74/32 42/75/44 5/76/36 23/77/33
f 35/78/3 12/79/42 33/80/6
f 20/81/39 22/82/13 8/83/15
f 7/84/40 23/85/33 22/86/13
f 7/58/40 26/34/30 6/87/38
f 21/88/45 37/89/37 29/90/18
f 29/91/18 31/92/46 21/93/45
f 18/35/27 25/19/19 13/36/31
f 43/94/47 24/95/48 52/96/49
f 17/97/50 19/98/9 36/99/51
f 36/99/51 19/98/9 34/100/25
f 8/22/15 30/101/52 41/23/22
f 41/23/22 30/101/52 29/102/18
f 39/103/26 28/104/23 18/105/27
f 20/106/39 28/107/23 39/63/26
f 57/108/10 65/109/53 14/37/11
f 26/34/30 11/33/29 40/110/54
f 15/111/17 26/112/30 40/113/54
f 4/114/21 10/115/55 36/116/51
f 2/117/20 10/118/55 4/119/21
f 10/120/55 2/121/20 15/122/17
f 55/123/56 1/124/57 44/125/58
f 16/32/28 26/34/30 7/58/40
f 15/126/17 6/127/38 26/34/30
f 2/128/20 29/129/18 15/130/17
f 7/58/40 24/131/48 23/132/33
f 37/133/37 24/131/48 7/58/40
f 11/134/29 17/135/50 40/136/54
f 10/118/55 17/137/50 36/138/51
f 20/106/39 39/63/26 38/139/41
f 71/140/59 63/141/60 35/142/3
f 56/143/61 21/144/45 46/145/62
f 46/146/62 21/147/45 45/148/63
f 65/149/53 68/150/64 33/151/6 14/152/11
f 2/20/20 41/23/22 29/153/18
f 21/154/45 24/155/48 37/156/37
f 56/157/61 52/158/49 24/159/48 21/160/45
f 39/161/26 32/162/4 16/163/28
f 12/164/42 32/165/4 33/166/6
f 8/167/15 28/168/23 20/169/39
f 3/67/5 18/35/27 14/37/11
f 36/170/51 34/171/25 4/172/21
f 25/19/19 4/21/21 13/36/31
f 40/173/54 17/137/50 10/118/55
f 15/174/17 40/173/54 10/118/55
f 64/175/65 72/176/66 19/98/9 17/97/50
f 53/177/67 49/178/68 31/179/46 30/101/52
f 8/180/15 1/181/57 30/101/52
f 25/19/19 41/23/22 2/20/20
f 28/24/23 41/23/22 25/19/19
f 18/35/27 28/24/23 25/19/19
f 6/182/38 37/183/37 7/184/40
f 15/174/17 27/185/16 6/186/38
f 44/187/58 1/188/57 47/189/69
f 47/189/69 1/188/57 51/190/70
f 48/191/71 51/192/70 1/193/57 9/194/14
f 8/195/15 9/196/14 1/197/57
f 29/102/18 30/101/52 31/198/46
f 30/101/52 1/181/57 55/199/56 53/177/67
f 31/200/46 49/201/68 45/202/63 21/203/45
f 23/204/33 24/95/48 43/94/47 54/205/34
f 9/206/14 5/207/36 42/208/44 48/209/71
f 55/123/56 44/125/58 47/189/69 51/190/70 48/191/71 42/208/44 50/74/32 54/40/34 43/94/47 52/96/49 56/157/61 46/145/62 45/148/63 49/201/68 53/177/67
f 19/210/9 72/211/66 70/212/7
f 35/142/3 69/213/2 71/140/59
f 33/214/6 68/215/64 66/216/1 35/217/3
f 11/33/29 64/218/65 17/219/50
f 12/220/42 35/221/3 63/222/60 62/223/72
f 14/224/11 13/225/31 60/226/43 67/227/12
f 12/72/42 62/228/72 59/229/73 11/70/29
f 11/230/29 59/231/73 64/232/65
f 70/7/7 72/176/66 64/218/65 59/229/73 62/223/72 63/141/60 71/140/59 69/2/2 66/216/1 68/150/64 65/109/53 57/10/10 67/227/12 60/73/43 61/42/35 73/26/24 58/8/8
