# Blender v2.79 (sub 0) OBJ File: 'redo_fixed_360_joints.blend'
# www.blender.org
mtllib sungaya_inexpectata_31mg.mtl
o 41-m-r-claws.000_Sungaya_inexpectata_31mg.055
v 0.000306 -0.000113 -0.000078
v 0.000496 0.000006 -0.000139
v 0.000475 -0.000101 -0.000237
v 0.000121 0.000057 0.000062
v -0.000602 -0.000045 0.000176
v -0.000627 -0.000001 0.000280
v -0.000470 -0.000044 0.000155
v -0.000483 0.000089 0.000171
v -0.000498 0.000069 0.000243
v -0.000004 0.000076 0.000091
v 0.000023 0.000072 -0.000001
v 0.000487 -0.000151 -0.000135
v 0.000445 -0.000190 -0.000221
v 0.000478 -0.000208 -0.000177
v 0.000245 0.000067 -0.000113
v 0.000489 0.000094 -0.000285
v -0.000230 -0.000008 0.000001
v 0.000361 0.000042 -0.000194
v -0.000405 0.000007 0.000235
v 0.000233 0.000007 0.000074
v -0.000617 0.000095 0.000241
v -0.000130 0.000076 0.000057
v -0.000336 -0.000022 0.000016
v 0.000317 0.000084 -0.000027
v -0.000353 0.000051 -0.000004
v -0.000208 0.000047 -0.000010
v -0.000602 0.000091 0.000128
v -0.000221 -0.000074 0.000042
v -0.000504 0.000074 0.000098
v 0.000342 -0.000017 -0.000217
v 0.000336 -0.000039 -0.000216
v 0.000391 -0.000116 -0.000176
v 0.000468 -0.000181 -0.000245
v -0.000012 -0.000060 0.000084
v 0.000008 -0.000060 -0.000009
v -0.000111 0.000044 0.000155
v -0.000284 -0.000030 0.000180
v -0.000493 0.000046 0.000044
v -0.000257 0.000040 0.000180
v 0.000465 0.000123 -0.000275
v 0.000468 0.000082 -0.000335
v 0.000380 -0.000019 -0.000297
v -0.000567 -0.000022 0.000074
v -0.000077 -0.000013 -0.000046
v 0.000127 -0.000054 0.000071
v 0.000190 -0.000046 -0.000106
v 0.000281 -0.000071 0.000006
v 0.000473 0.000017 -0.000066
v 0.000470 -0.000030 -0.000055
v -0.000023 -0.000013 0.000153
v -0.000281 0.000088 0.000079
v 0.000404 0.000048 -0.000241
v 0.000445 0.000107 -0.000196
v -0.000467 -0.000057 0.000088
v -0.000201 -0.000073 0.000098
v 0.000418 -0.000150 -0.000133
v 0.000141 0.000063 -0.000034
v -0.000590 0.000032 0.000052
v 0.000380 0.000054 -0.000018
v -0.000153 -0.000010 0.000163
v -0.000373 0.000094 0.000179
v 0.000503 0.000006 -0.000371
v -0.000003 0.000031 -0.000050
v 0.000402 -0.000064 -0.000031
v 0.000477 0.000157 -0.000198
v 0.000190 -0.000105 -0.000021
v 0.000114 0.000025 -0.000102
v 0.000472 -0.000071 -0.000351
v 0.000421 0.000103 -0.000134
v 0.000405 -0.000052 -0.000343
v 0.000471 -0.000266 -0.000221
v -0.000665 -0.000046 0.000179
v -0.000632 0.000010 0.000283
v -0.000638 0.000084 0.000266
v -0.000676 -0.000038 0.000143
v -0.000632 -0.000000 0.000283
v -0.000645 0.000094 0.000245
v -0.000635 -0.000004 0.000274
v -0.000675 0.000087 0.000149
v -0.000632 0.000071 0.000285
v -0.000666 0.000091 0.000179
v -0.000687 -0.000002 0.000111
v -0.000632 -0.000001 0.000282
v -0.000691 0.000023 0.000099
v -0.000680 0.000058 0.000134
v -0.000671 -0.000049 0.000159
vt 0.483002 0.499841
vt 0.485026 0.503107
vt 0.485718 0.500596
vt 0.216629 0.734456
vt 0.213231 0.735917
vt 0.215571 0.737096
vt 0.018478 0.753494
vt 0.022160 0.751872
vt 0.018487 0.751974
vt 0.622799 0.338234
vt 0.626365 0.336434
vt 0.625122 0.335371
vt 0.914469 0.738124
vt 0.913456 0.737718
vt 0.913708 0.739476
vt 0.596375 0.837148
vt 0.595753 0.836571
vt 0.595504 0.837439
vt 0.579125 0.851281
vt 0.581461 0.856369
vt 0.580686 0.852366
vt 0.678807 0.554086
vt 0.680594 0.548915
vt 0.677967 0.552757
vt 0.602978 0.575847
vt 0.604467 0.574810
vt 0.604848 0.571962
vt 0.433557 0.140335
vt 0.435117 0.141935
vt 0.434298 0.139814
vt 0.575268 0.857064
vt 0.573281 0.855894
vt 0.571831 0.856647
vt 0.031782 0.663432
vt 0.033950 0.667779
vt 0.033834 0.665482
vt 0.941018 0.184034
vt 0.941596 0.182410
vt 0.940549 0.183155
vt 0.247837 0.724139
vt 0.251603 0.724759
vt 0.248866 0.722499
vt 0.684810 0.766945
vt 0.687026 0.764694
vt 0.681442 0.767859
vt 0.500692 0.780335
vt 0.500307 0.781461
vt 0.503170 0.777587
vt 0.221437 0.861389
vt 0.219407 0.862996
vt 0.220015 0.863510
vt 0.072181 0.569859
vt 0.072162 0.571076
vt 0.073441 0.571507
vt 0.286094 0.199014
vt 0.285018 0.198088
vt 0.283347 0.198230
vt 0.570549 0.855323
vt 0.566991 0.854869
vt 0.568045 0.858804
vt 0.621935 0.714164
vt 0.621895 0.710648
vt 0.620334 0.711089
vt 0.470279 0.105670
vt 0.472209 0.106587
vt 0.472891 0.105126
vt 0.494176 0.760010
vt 0.494419 0.763028
vt 0.497008 0.760989
vt 0.263104 0.671326
vt 0.260396 0.669839
vt 0.262594 0.673078
vt 0.732616 0.538330
vt 0.733604 0.538833
vt 0.734655 0.537927
vt 0.956166 0.220576
vt 0.957646 0.220239
vt 0.956036 0.219116
vt 0.768744 0.492921
vt 0.769981 0.492380
vt 0.769914 0.492115
vt 0.767825 0.492505
vt 0.023069 0.754042
vt 0.186357 0.141766
vt 0.187145 0.141116
vt 0.185507 0.140362
vt 0.597442 0.577357
vt 0.601480 0.574690
vt 0.162111 0.905202
vt 0.165113 0.906195
vt 0.163951 0.903462
vt 0.079345 0.815549
vt 0.080391 0.816437
vt 0.082111 0.814057
vt 0.681779 0.765713
vt 0.684271 0.763723
vt 0.349330 0.139054
vt 0.347441 0.139892
vt 0.349571 0.140509
vt 0.219471 0.811519
vt 0.218879 0.813164
vt 0.222234 0.812815
vt 0.654914 0.995562
vt 0.655210 0.997911
vt 0.656612 0.997085
vt 0.612550 0.145394
vt 0.610490 0.145948
vt 0.611224 0.146940
vt 0.346095 0.079604
vt 0.346460 0.080676
vt 0.347410 0.079829
vt 0.831280 0.181042
vt 0.834894 0.182407
vt 0.839101 0.180801
vt 0.033712 0.824093
vt 0.033249 0.822893
vt 0.030765 0.823913
vt 0.227254 0.445796
vt 0.228408 0.445065
vt 0.228183 0.443870
vt 0.136659 0.703775
vt 0.137161 0.707232
vt 0.138889 0.705466
vt 0.362022 0.277599
vt 0.364458 0.279738
vt 0.367115 0.275519
vt 0.771058 0.870810
vt 0.769876 0.872549
vt 0.771381 0.872134
vt 0.248369 0.529768
vt 0.248336 0.529742
vt 0.248322 0.529771
vt 0.361449 0.275018
vt 0.359730 0.274338
vt 0.360219 0.275736
vt 0.339285 0.080194
vt 0.338100 0.082365
vt 0.339522 0.081430
vt 0.246396 0.279960
vt 0.245970 0.281472
vt 0.247089 0.280757
vt 0.358840 0.288756
vt 0.360364 0.289804
vt 0.362890 0.286718
vt 0.842018 0.183555
vt 0.839138 0.182655
vt 0.187399 0.082933
vt 0.185786 0.083107
vt 0.186538 0.084855
vt 0.062844 0.824861
vt 0.062832 0.825120
vt 0.064713 0.824288
vt 0.066118 0.822666
vt 0.481638 0.498505
vt 0.481036 0.498818
vt 0.484127 0.504494
vt 0.853592 0.183939
vt 0.850644 0.183117
vt 0.852304 0.185877
vt 0.846606 0.183906
vt 0.139461 0.703392
vt 0.650065 0.991614
vt 0.584904 0.858670
vt 0.584114 0.856845
vt 0.361848 0.284357
vt 0.364421 0.282710
vt 0.263883 0.675552
vt 0.264723 0.673576
vt 0.264637 0.675233
vt 0.655113 0.624681
vt 0.655794 0.624394
vt 0.654034 0.623178
vt 0.359435 0.286345
vt 0.510822 0.145065
vt 0.511448 0.146947
vt 0.512289 0.146909
vt 0.762358 0.145588
vt 0.762505 0.144322
vt 0.761074 0.145932
vt 0.942899 0.040243
vt 0.941792 0.040191
vt 0.942671 0.041620
vt 0.358393 0.296526
vt 0.356738 0.295566
vt 0.356031 0.299047
vt 0.059785 0.840587
vt 0.059795 0.841659
vt 0.060799 0.840789
vt 0.277319 0.944053
vt 0.274700 0.942986
vt 0.275168 0.944667
vt 0.356631 0.292452
vt 0.359772 0.290398
vt 0.277305 0.972247
vt 0.278509 0.972081
vt 0.278686 0.970873
vt 0.613241 0.276266
vt 0.614189 0.276464
vt 0.616475 0.274566
vt 0.614652 0.273858
vt 0.890301 0.264473
vt 0.891449 0.265091
vt 0.890877 0.263720
vt 0.415997 0.885963
vt 0.412344 0.885373
vt 0.417353 0.887937
vt 0.550293 0.395628
vt 0.551539 0.395988
vt 0.551764 0.395145
vt 0.621254 0.722496
vt 0.622465 0.725051
vt 0.623824 0.724028
vt 0.519470 0.183705
vt 0.518077 0.185467
vt 0.519595 0.185311
vt 0.706729 0.184227
vt 0.707936 0.183468
vt 0.705298 0.182749
vt 0.686582 0.767211
vt 0.689728 0.765774
vt 0.366932 0.277663
vt 0.214828 0.294262
vt 0.212876 0.295541
vt 0.216944 0.294745
vt 0.830626 0.183418
vt 0.215691 0.296140
vt 0.061683 0.838741
vt 0.756007 0.192282
vt 0.753504 0.193931
vt 0.755125 0.193944
vt 0.915387 0.737638
vt 0.622502 0.720268
vt 0.623354 0.716983
vt 0.373432 0.395949
vt 0.372577 0.394913
vt 0.372269 0.395552
vt 0.076401 0.057795
vt 0.078318 0.058327
vt 0.077407 0.056835
vt 0.754154 0.150778
vt 0.752897 0.151704
vt 0.755334 0.152315
vt 0.752753 0.150642
vt 0.325702 0.344722
vt 0.325221 0.344162
vt 0.323874 0.344938
vt 0.828701 0.178907
vt 0.832921 0.178849
vt 0.862790 0.578981
vt 0.860319 0.578690
vt 0.859868 0.580257
vt 0.902348 0.689475
vt 0.900243 0.686932
vt 0.901321 0.689866
vt 0.701581 0.179287
vt 0.703424 0.180369
vt 0.704148 0.179205
vt 0.131178 0.880542
vt 0.133980 0.883339
vt 0.134747 0.882581
vt 0.905414 0.324616
vt 0.905845 0.323428
vt 0.903135 0.326195
vt 0.081897 0.071231
vt 0.082470 0.069248
vt 0.080857 0.070259
vt 0.503559 0.775644
vt 0.502605 0.776469
vt 0.712071 0.510074
vt 0.713092 0.509361
vt 0.711844 0.509332
vt 0.247944 0.725782
vt 0.753014 0.271511
vt 0.752671 0.270269
vt 0.751024 0.270558
vt 0.750900 0.269668
vt 0.942296 0.183446
vt 0.030415 0.822912
vt 0.030329 0.821574
vt 0.091643 0.077590
vt 0.090249 0.077781
vt 0.092145 0.079007
vt 0.844194 0.181637
vt 0.705982 0.387042
vt 0.704164 0.387395
vt 0.706761 0.390254
vt 0.429275 0.726421
vt 0.427803 0.725731
vt 0.426351 0.727134
vt 0.335658 0.022347
vt 0.336302 0.023935
vt 0.336615 0.022221
vt 0.826230 0.180781
vt 0.299778 0.157960
vt 0.300428 0.155568
vt 0.299362 0.156734
vt 0.083778 0.445086
vt 0.083463 0.444743
vt 0.082211 0.446017
vt 0.847087 0.181409
vt 0.847511 0.180870
vt 0.845088 0.180061
vt 0.825340 0.180745
vt 0.824909 0.181792
vt 0.874100 0.985738
vt 0.872468 0.984997
vt 0.873217 0.986903
vt 0.606768 0.575972
vt 0.680109 0.767016
vt 0.658733 0.998771
vt 0.657556 0.998191
vt 0.353316 0.297122
vt 0.904042 0.696634
vt 0.905418 0.698912
vt 0.905353 0.695568
vt 0.604937 0.579382
vt 0.650086 0.616686
vt 0.652634 0.621162
vt 0.652864 0.618989
vt 0.361088 0.289352
vt 0.361312 0.291081
vt 0.809386 0.926864
vt 0.808356 0.927327
vt 0.809006 0.928252
vt 0.493387 0.761664
vt 0.636997 0.110540
vt 0.638956 0.110413
vt 0.638591 0.109259
vt 0.521013 0.660665
vt 0.521059 0.659593
vt 0.519964 0.660171
vt 0.026638 0.541384
vt 0.026387 0.539488
vt 0.025536 0.539879
vt 0.211626 0.899119
vt 0.211786 0.898218
vt 0.208453 0.899874
vt 0.207831 0.898271
vt 0.895372 0.334906
vt 0.891902 0.332940
vt 0.892693 0.334699
vt 0.894521 0.335507
vt 0.768035 0.493468
vt 0.768363 0.493154
vt 0.534446 0.843179
vt 0.534526 0.843176
vt 0.534453 0.843033
vt 0.063855 0.825246
vt 0.002542 0.586384
vt 0.001820 0.586330
vt 0.000990 0.586483
vt 0.000948 0.587446
vt 0.628213 0.332283
vt 0.625655 0.334760
vt 0.626090 0.332290
vt 0.626476 0.332148
vt 0.626218 0.332151
vt 0.141939 0.735451
vt 0.143648 0.737480
vt 0.143785 0.737302
vt 0.143581 0.735231
vn 0.0491 -0.9513 0.3043
vn 0.0384 -0.9444 0.3266
vn 0.2561 -0.5504 0.7947
vn 0.0442 -0.9434 0.3286
vn -0.1419 -0.8868 -0.4399
vn 0.0472 -0.9442 0.3261
vn 0.0889 0.9948 -0.0497
vn -0.0999 0.5329 -0.8403
vn -0.1108 0.4055 -0.9074
vn 0.2425 -0.3430 0.9075
vn 0.2686 0.6589 0.7027
vn -0.6443 -0.6968 -0.3153
vn 0.3047 -0.4789 -0.8233
vn -0.8916 -0.4023 -0.2078
vn 0.8696 0.4441 -0.2156
vn -0.1322 0.5313 -0.8368
vn -0.1739 0.8421 -0.5105
vn 0.3302 -0.4836 0.8106
vn 0.3050 0.0966 0.9474
vn 0.2389 -0.6982 0.6749
vn -0.1299 -0.2717 -0.9536
vn -0.1835 -0.3689 -0.9112
vn 0.8237 0.2804 0.4928
vn 0.7813 -0.1027 0.6156
vn 0.7546 -0.5085 0.4147
vn -0.1290 0.9739 -0.1867
vn 0.0948 0.9067 0.4110
vn -0.2249 0.8616 -0.4551
vn 0.9877 -0.1340 -0.0801
vn -0.3752 -0.9001 0.2214
vn -0.2242 -0.9684 0.1092
vn -0.5437 0.6405 -0.5423
vn -0.7167 0.6482 -0.2573
vn -0.6771 0.6130 -0.4071
vn -0.1337 0.9534 0.2704
vn 0.1752 -0.6108 0.7721
vn 0.9888 0.0399 0.1437
vn -0.6793 0.4572 -0.5741
vn -0.7354 -0.3362 -0.5884
vn -0.7368 0.2835 -0.6138
vn 0.0976 -0.3453 0.9334
vn -0.0156 0.9338 -0.3575
vn -0.0220 0.9991 0.0357
vn 0.5326 0.0197 -0.8461
vn 0.1636 0.6436 0.7477
vn 0.2741 0.5096 0.8156
vn 0.1023 0.9927 -0.0643
vn 0.4041 -0.8694 0.2844
vn -0.1146 -0.9264 -0.3587
vn -0.6915 0.7097 0.1352
vn -0.6458 0.7057 0.2914
vn 0.0286 0.9706 0.2389
vn -0.0962 0.9315 -0.3508
vn -0.0029 0.9997 -0.0239
vn -0.1536 -0.8856 -0.4384
vn 0.4924 0.4625 0.7373
vn 0.2320 -0.2746 0.9331
vn 0.4026 -0.5676 -0.7181
vn 0.1020 0.9116 0.3981
vn -0.1819 -0.5250 -0.8314
vn -0.6283 -0.2110 -0.7488
vn -0.3241 -0.1628 0.9319
vn -0.4771 -0.5998 0.6423
vn 0.0896 -0.8996 -0.4275
vn -0.3618 0.3354 -0.8698
vn -0.6822 -0.7272 0.0762
vn -0.8250 -0.5320 -0.1908
vn -0.2019 -0.6082 -0.7677
vn -0.5906 -0.7000 0.4016
vn -0.0345 0.9480 -0.3164
vn 0.1621 0.8886 0.4290
vn 0.1424 0.9113 0.3864
vn 0.1782 -0.7209 0.6698
vn -0.4008 -0.6390 -0.6565
vn -0.1772 0.6320 -0.7544
vn -0.0623 -0.9976 0.0293
vn -0.2611 0.3102 -0.9141
vn -0.3173 0.1338 -0.9388
vn -0.7493 0.6110 -0.2553
vn -0.8302 0.4498 -0.3294
vn -0.8361 -0.4305 -0.3400
vn -0.8608 0.0543 -0.5060
vn -0.6114 0.6052 0.5098
vn -0.6229 -0.6487 0.4372
vn -0.4639 0.3758 0.8023
vn -0.4153 0.0183 0.9095
usemtl sungaya_inexpectata_31mg
s 1
f 5/1/1 7/2/2 6/3/3
f 55/4/4 35/5/5 34/6/6
f 51/7/7 26/8/8 25/9/9
f 19/10/10 9/11/11 6/12/3
f 32/13/12 33/14/13 13/15/14
f 16/16/15 41/17/16 40/18/17
f 64/19/18 20/20/19 47/21/20
f 26/22/8 44/23/21 17/24/22
f 48/25/23 49/26/24 12/27/25
f 57/28/26 24/29/27 15/30/28
f 12/31/25 33/32/13 3/33/29
f 56/34/30 64/35/18 1/36/31
f 18/37/32 53/38/33 52/39/34
f 24/40/27 69/41/35 15/42/28
f 19/43/10 7/44/2 37/45/36
f 2/46/37 48/47/23 12/48/25
f 42/49/38 31/50/39 30/51/40
f 55/52/4 34/53/6 60/54/41
f 51/55/7 29/56/42 8/57/43
f 3/58/29 62/59/44 2/60/37
f 2/60/37 12/31/25 3/33/29
f 36/61/45 39/62/46 37/63/36
f 15/64/28 69/65/35 18/66/32
f 16/67/15 65/68/47 2/69/37
f 32/70/12 14/71/48 56/72/30
f 13/73/14 14/74/48 32/75/12
f 28/76/49 17/77/22 44/78/21
f 81/79/50 77/80/51 21/81/52 27/82/53
f 51/7/7 22/83/54 26/8/8
f 64/84/18 56/85/30 12/86/25
f 65/87/47 48/25/23 2/88/37
f 39/89/46 19/90/10 37/91/36
f 28/92/49 55/93/4 54/94/55
f 55/95/4 7/44/2 54/96/55
f 49/97/24 59/98/56 64/99/18
f 34/100/6 50/101/57 60/102/41
f 50/103/57 36/104/45 60/105/41
f 68/106/58 62/107/44 3/108/29
f 68/109/58 3/110/29 33/111/13
f 8/112/43 61/113/59 51/114/7
f 40/115/17 41/116/16 52/117/34
f 52/118/34 53/119/33 40/120/17
f 23/121/60 17/122/22 28/123/49
f 32/124/12 31/125/39 70/126/61
f 37/127/36 55/128/4 60/129/41
f 76/130/62 83/131/63 6/132/3
f 13/133/14 71/134/64 14/135/48
f 28/136/49 35/137/5 55/138/4
f 30/139/40 15/140/28 18/141/32
f 35/142/5 44/143/21 67/144/65
f 36/145/45 51/114/7 39/146/46
f 22/147/54 51/148/7 36/149/45
f 86/150/66 75/151/67 43/152/68 54/153/55
f 72/154/69 86/155/66 54/156/55 5/1/1
f 57/157/26 11/158/70 4/159/71
f 11/158/70 10/160/72 4/159/71
f 23/121/60 28/123/49 54/161/55
f 20/162/19 36/104/45 50/103/57
f 50/163/57 45/164/73 20/20/19
f 31/125/39 46/165/74 30/166/40
f 32/124/12 46/165/74 31/125/39
f 7/2/2 5/1/1 54/156/55
f 1/167/31 32/168/12 56/72/30
f 46/169/74 32/168/12 1/167/31
f 46/165/74 35/142/5 67/144/65
f 63/170/75 11/171/70 67/172/65
f 46/165/74 66/173/76 35/142/5
f 71/174/64 13/175/14 33/176/13
f 67/144/65 30/166/40 46/165/74
f 2/177/37 62/178/44 16/179/15
f 16/180/15 62/181/44 41/182/16
f 25/183/9 23/184/60 38/185/77
f 53/186/33 69/187/35 65/188/47
f 38/189/77 43/190/68 58/191/78
f 28/192/49 44/193/21 35/142/5
f 79/194/79 27/195/53 85/196/80
f 82/197/81 84/198/82 58/199/78 43/200/68
f 12/201/25 56/202/30 14/203/48
f 66/204/76 47/205/20 45/206/73
f 45/207/73 50/208/57 34/209/6
f 20/210/19 59/211/56 24/212/27
f 64/213/18 59/214/56 20/215/19
f 1/216/31 66/217/76 46/218/74
f 7/44/2 19/219/10 6/220/3
f 42/221/38 70/126/61 31/125/39
f 61/222/59 9/223/11 39/224/46
f 8/112/43 9/225/11 61/113/59
f 39/224/46 9/223/11 19/226/10
f 40/227/17 53/186/33 65/188/47
f 38/228/77 27/229/53 29/230/42
f 33/14/13 32/13/12 70/231/61
f 4/232/71 10/233/72 20/210/19
f 20/234/19 10/235/72 36/236/45
f 70/237/61 41/238/16 62/239/44
f 70/240/61 52/241/34 41/242/16
f 42/243/38 52/241/34 70/240/61
f 62/244/44 68/245/58 70/246/61
f 27/247/53 8/112/43 29/248/42
f 61/249/59 39/250/46 51/251/7
f 27/252/53 38/253/77 58/254/78
f 33/255/13 70/256/61 68/257/58
f 66/258/76 45/259/73 34/260/6
f 34/261/6 35/262/5 66/263/76
f 64/264/18 47/265/20 1/266/31
f 14/267/48 33/268/13 12/48/25
f 47/269/20 66/270/76 1/271/31
f 69/41/35 24/40/27 59/272/56
f 59/273/56 48/274/23 69/275/35
f 69/275/35 48/274/23 65/276/47
f 69/277/35 53/38/33 18/37/32
f 18/278/32 52/117/34 42/279/38
f 18/280/32 42/281/38 30/282/40
f 22/283/54 10/160/72 11/158/70
f 22/284/54 36/285/45 10/286/72
f 15/287/28 67/288/65 57/289/26
f 67/290/65 11/291/70 57/292/26
f 8/112/43 27/247/53 21/293/52
f 21/294/52 9/295/11 8/296/43
f 63/297/75 44/298/21 26/299/8
f 11/300/70 63/301/75 26/302/8
f 26/302/8 22/283/54 11/300/70
f 77/303/51 74/304/83 21/293/52
f 14/305/48 71/306/64 33/307/13
f 49/26/24 64/308/18 12/27/25
f 37/45/36 7/44/2 55/309/4
f 37/310/36 60/311/41 36/104/45
f 38/185/77 23/184/60 54/312/55
f 43/313/68 38/314/77 54/315/55
f 48/25/23 59/316/56 49/26/24
f 30/317/40 67/318/65 15/319/28
f 44/320/21 63/321/75 67/144/65
f 24/212/27 4/232/71 20/210/19
f 24/322/27 57/323/26 4/324/71
f 16/67/15 40/325/17 65/68/47
f 20/326/19 45/327/73 47/328/20
f 29/329/42 25/330/9 38/331/77
f 29/332/42 51/333/7 25/334/9
f 26/335/8 17/336/22 25/337/9
f 23/338/60 25/337/9 17/336/22
f 27/339/53 58/340/78 84/341/82 85/342/80
f 27/82/53 79/343/79 81/344/50
f 6/345/3 83/346/63 78/347/84
f 43/152/68 75/151/67 82/348/81
f 21/349/52 74/350/83 80/351/85 9/352/11
f 6/12/3 9/11/11 80/353/85 73/354/86
f 6/355/3 73/356/86 76/357/62
f 5/358/1 6/359/3 78/360/84 72/361/69
f 86/150/66 72/361/69 78/347/84 83/131/63 76/357/62 73/354/86 80/351/85 74/304/83 77/80/51 81/344/50 79/194/79 85/342/80 84/198/82 82/348/81 75/151/67
