# Blender v2.79 (sub 0) OBJ File: 'redo_fixed_360_joints.blend'
# www.blender.org
mtllib sungaya_inexpectata_31mg.mtl
o 38-m-r-femur_Sungaya_inexpectata_31mg.043
v -0.000668 0.000020 0.000316
v 0.000485 -0.000045 -0.000147
v 0.000552 -0.000008 -0.000092
v 0.001575 0.000103 -0.000683
v 0.001496 -0.000227 -0.000568
v 0.001488 -0.000160 -0.000594
v 0.001098 -0.000023 -0.000036
v -0.000782 0.000060 0.000345
v -0.001115 0.000016 0.000406
v 0.000505 -0.000096 -0.000199
v -0.000267 0.000067 0.000347
v -0.000028 0.000133 0.000110
v 0.000016 0.000075 0.000069
v -0.001855 -0.000213 0.000659
v -0.001074 0.000027 0.000297
v 0.000335 -0.000116 -0.000167
v 0.000407 -0.000036 -0.000120
v -0.001881 -0.000252 0.000537
v 0.000628 0.000084 -0.000312
v -0.001907 -0.000018 0.000679
v -0.001734 0.000037 0.000585
v -0.001650 0.000014 0.000589
v -0.001035 0.000039 0.000477
v 0.001616 0.000173 -0.000466
v 0.000161 0.000056 0.000052
v -0.001985 0.000087 0.000675
v -0.001959 0.000011 0.000692
v -0.002070 -0.000054 0.000696
v -0.000140 -0.000004 0.000153
v 0.000829 0.000007 -0.000481
v 0.000881 -0.000083 -0.000499
v 0.001082 -0.000019 -0.000556
v -0.000409 -0.000142 0.000118
v -0.002089 -0.000212 0.000703
v -0.000736 0.000027 0.000358
v -0.001988 0.000116 0.000583
v 0.001160 -0.000032 -0.000120
v 0.001164 -0.000025 -0.000086
v 0.001275 -0.000028 -0.000190
v -0.001248 0.000023 0.000491
v -0.001391 -0.000004 0.000518
v -0.001396 -0.000104 0.000438
v 0.001425 -0.000162 -0.000497
v -0.002103 0.000136 0.000681
v 0.000082 0.000107 -0.000175
v 0.000458 0.000162 0.000022
v 0.001255 0.000071 -0.000176
v 0.000366 0.000071 -0.000216
v 0.000273 0.000096 -0.000250
v -0.001059 0.000055 0.000175
v -0.000983 0.000052 0.000114
v -0.000031 -0.000059 -0.000021
v 0.001437 -0.000036 -0.000618
v -0.001323 0.000011 0.000416
v -0.001411 -0.000020 0.000314
v -0.001449 -0.000183 0.000391
v -0.000964 -0.000159 0.000288
v 0.000767 0.000067 0.000047
v 0.001384 0.000057 -0.000643
v 0.000101 -0.000083 -0.000056
v 0.000908 -0.000005 -0.000556
v 0.000278 0.000042 0.000268
v -0.000923 0.000008 0.000438
v -0.000800 0.000027 0.000437
v -0.001420 -0.000008 0.000565
v 0.000882 0.000004 0.000037
v 0.000625 0.000091 -0.000149
v 0.000543 0.000082 -0.000167
v 0.000550 0.000087 -0.000251
v 0.000009 0.000092 -0.000119
v 0.000109 0.000020 0.000127
v -0.000425 0.000032 0.000295
v -0.000412 0.000074 0.000238
v 0.000422 0.000081 0.000104
v 0.000517 0.000040 0.000103
v 0.000541 0.000008 0.000208
v 0.001575 -0.000110 -0.000395
v -0.000882 -0.000009 0.000386
v -0.001886 0.000047 0.000407
v -0.001710 -0.000137 0.000504
v 0.001642 0.000035 -0.000384
v 0.000750 -0.000087 -0.000367
v 0.000755 -0.000037 -0.000358
v 0.001017 0.000183 -0.000117
v 0.000858 0.000096 -0.000156
v -0.001392 -0.000061 0.000538
v -0.000261 0.000091 0.000175
v -0.000179 0.000081 0.000243
v -0.000067 -0.000035 0.000081
v -0.000171 0.000039 0.000223
v -0.001285 0.000009 0.000349
v 0.001172 0.000085 -0.000486
v -0.000503 0.000053 0.000287
v 0.000716 0.000078 -0.000417
v -0.001624 -0.000015 0.000330
v 0.000634 0.000010 0.000112
v -0.001642 -0.000009 0.000400
v -0.001453 -0.000011 0.000353
v -0.001160 -0.000109 0.000353
v 0.001082 0.000095 -0.000137
v -0.002011 -0.000155 0.000683
v -0.001564 -0.000011 0.000557
v 0.001376 0.000166 -0.000495
v -0.001074 -0.000031 0.000402
v -0.001802 -0.000014 0.000679
v -0.001347 -0.000022 0.000321
v 0.000576 -0.000116 -0.000262
v 0.000476 0.000030 -0.000207
v 0.000505 -0.000146 -0.000260
v 0.001173 -0.000031 -0.000270
v 0.000940 -0.000054 -0.000346
v 0.000989 -0.000075 -0.000391
v 0.001074 -0.000096 -0.000478
v 0.000212 -0.000052 -0.000068
v 0.001391 -0.000080 -0.000344
v 0.000637 -0.000108 -0.000291
v 0.001023 -0.000022 -0.000071
v -0.001724 -0.000002 0.000330
v -0.000457 0.000081 0.000021
v -0.000299 0.000099 -0.000055
v -0.000427 0.000062 0.000083
v -0.002083 -0.000257 0.000733
v -0.002065 -0.000296 0.000734
v 0.001427 0.000197 -0.000431
v -0.000507 -0.000034 0.000221
v 0.000857 0.000016 -0.000124
v 0.000816 0.000023 -0.000076
v 0.000426 0.000024 0.000002
v 0.000583 0.000023 -0.000045
v 0.000582 0.000127 -0.000062
v -0.000486 0.000052 0.000096
v -0.000509 0.000070 0.000051
v -0.001865 0.000081 0.000626
v -0.001964 0.000099 0.000471
v -0.001627 -0.000122 0.000498
v -0.000461 -0.000082 0.000147
v 0.000603 -0.000013 -0.000211
v 0.000621 0.000054 -0.000258
v 0.000611 -0.000020 -0.000187
v 0.001534 -0.000062 -0.000287
v 0.001242 -0.000094 -0.000431
v -0.000583 0.000004 0.000167
v -0.000570 0.000034 0.000106
v 0.001406 0.000117 -0.000263
v -0.001230 0.000016 0.000259
v -0.001278 0.000031 0.000228
v -0.000932 0.000061 0.000349
v -0.001327 -0.000124 0.000387
v 0.001093 -0.000018 -0.000208
v 0.000684 0.000090 -0.000272
v -0.000035 -0.000117 -0.000008
v 0.000951 0.000075 -0.000399
v -0.001493 -0.000089 0.000328
v 0.000249 0.000013 0.000050
v 0.000254 0.000054 0.000164
v 0.001084 0.000111 -0.000265
v -0.000112 0.000095 -0.000076
v 0.001486 -0.000054 -0.000212
v -0.001129 0.000028 0.000510
v -0.001148 0.000016 0.000507
v 0.000555 0.000090 0.000058
v 0.000937 -0.000102 -0.000470
v 0.001552 0.000220 -0.000466
v -0.000093 0.000136 0.000148
v 0.000768 -0.000012 -0.000184
v 0.000777 -0.000087 -0.000326
v 0.000803 -0.000045 -0.000290
v -0.000655 -0.000073 0.000138
v 0.000027 0.000063 0.000045
v -0.000169 0.000043 -0.000031
v -0.001183 -0.000086 0.000251
v 0.001292 -0.000049 -0.000311
v -0.001618 -0.000095 0.000352
v -0.001865 -0.000151 0.000406
v -0.001941 -0.000004 0.000375
v -0.002077 0.000053 0.000438
v -0.002107 -0.000080 0.000426
v -0.000403 -0.000067 0.000089
v 0.001537 -0.000097 -0.000357
v 0.001035 0.000093 -0.000376
v -0.000515 -0.000139 0.000149
v -0.000525 -0.000133 0.000162
v 0.000432 0.000035 0.000058
v -0.000989 -0.000108 0.000221
v -0.001050 -0.000016 0.000175
v 0.001242 0.000130 -0.000341
v 0.001038 0.000046 -0.000590
v 0.001212 0.000063 -0.000642
v -0.000816 -0.000087 0.000276
v -0.000907 0.000049 0.000265
v 0.000919 -0.000027 -0.000232
v 0.000101 0.000095 0.000200
v 0.000070 0.000065 0.000326
v 0.000111 0.000146 0.000124
v 0.001327 -0.000026 -0.000146
v -0.001003 0.000043 0.000202
v -0.000836 0.000035 0.000235
v -0.001518 -0.000001 0.000234
v -0.001765 -0.000159 0.000561
v 0.001563 0.000203 -0.000612
v 0.001454 0.000204 -0.000347
v -0.001849 -0.000168 0.000692
v 0.000583 -0.000000 0.000157
v 0.001463 -0.000040 -0.000186
v 0.000682 0.000079 0.000054
v 0.001024 -0.000079 -0.000528
v -0.001198 -0.000166 0.000344
v 0.000209 0.000079 -0.000118
v 0.000327 0.000085 0.000129
v 0.001561 0.000163 -0.000316
v 0.001652 0.000106 -0.000319
v -0.001398 -0.000027 0.000267
v -0.000633 0.000036 0.000350
v -0.000312 -0.000024 0.000182
v 0.001395 -0.000182 -0.000575
v -0.001196 -0.000195 0.000310
v -0.001072 -0.000172 0.000281
v -0.000677 0.000051 0.000439
v -0.001821 -0.000231 0.000439
v 0.000151 0.000059 0.000292
v 0.000176 0.000049 0.000221
v 0.001483 0.000131 -0.000694
v 0.000273 -0.000022 -0.000149
v 0.000201 -0.000091 -0.000094
v -0.000766 0.000017 0.000103
v -0.000783 0.000076 0.000075
v 0.001242 -0.000017 -0.000594
v -0.000196 0.000065 0.000334
v 0.000609 0.000200 -0.000007
v 0.000516 0.000089 -0.000229
v 0.001277 -0.000138 -0.000546
v 0.000379 0.000023 0.000188
v 0.000403 0.000030 0.000228
v 0.000405 0.000030 0.000263
v -0.000305 -0.000137 0.000080
v -0.000044 0.000064 0.000321
v -0.001666 -0.000100 0.000633
v -0.000292 0.000044 0.000260
v 0.001503 0.000220 -0.000568
v -0.001785 -0.000153 0.000626
v -0.001768 -0.000150 0.000689
v 0.000178 0.000113 -0.000218
v -0.000021 0.000037 0.000215
v 0.001445 0.000188 -0.000706
v 0.000002 0.000078 0.000224
v -0.000621 0.000004 0.000227
v -0.000762 0.000011 0.000255
v -0.000612 -0.000081 0.000193
v -0.000613 -0.000045 0.000243
v 0.000356 0.000051 0.000105
v 0.000931 0.000009 -0.000118
v 0.000213 0.000089 0.000158
v 0.000351 -0.000034 -0.000174
v 0.000449 -0.000123 -0.000217
v 0.000456 -0.000038 -0.000175
v -0.001332 -0.000090 0.000317
v -0.001372 0.000017 0.000228
v -0.000927 -0.000079 0.000307
v 0.000615 -0.000088 -0.000236
v 0.001570 0.000050 -0.000263
v -0.001990 -0.000259 0.000688
v -0.000371 0.000071 0.000365
v 0.001327 -0.000129 -0.000494
v 0.000422 0.000122 -0.000005
v -0.002081 -0.000324 0.000663
v 0.001627 0.000179 -0.000366
v -0.000519 0.000063 0.000423
v -0.000715 -0.000038 0.000289
v 0.001147 -0.000113 -0.000529
v -0.001353 -0.000179 0.000355
v -0.001751 -0.000211 0.000437
v 0.001027 -0.000022 -0.000002
v 0.000557 0.000184 0.000004
v 0.000336 0.000076 -0.000161
v 0.000460 0.000089 -0.000112
v -0.001954 -0.000255 0.000463
v 0.000704 0.000175 -0.000019
v 0.000800 0.000119 -0.000074
v 0.000801 0.000157 -0.000062
v 0.000682 0.000093 -0.000110
v -0.000359 -0.000083 0.000112
v -0.001827 0.000045 0.000541
v 0.001662 0.000134 -0.000347
v -0.000795 0.000024 0.000158
v 0.000895 0.000088 -0.000019
v -0.000686 -0.000065 0.000229
v -0.001545 -0.000154 0.000352
v -0.001374 -0.000024 0.000565
v -0.000490 -0.000034 0.000093
v -0.001564 -0.000066 0.000584
v 0.001049 0.000159 -0.000147
v -0.000688 0.000072 0.000102
v 0.000970 -0.000020 0.000038
v 0.000889 0.000097 -0.000250
v 0.001241 0.000154 -0.000220
v -0.000811 -0.000021 0.000152
v -0.000582 0.000099 0.000031
v -0.000302 0.000094 0.000009
v 0.000070 0.000057 0.000268
v 0.001613 -0.000110 -0.000450
v 0.001542 -0.000188 -0.000495
v -0.001729 -0.000056 0.000374
v 0.001656 -0.000005 -0.000423
v -0.002103 0.000128 0.000608
v 0.000929 0.000128 -0.000118
v -0.001836 0.000050 0.000631
v 0.000042 -0.000053 0.000010
v 0.000962 0.000065 -0.000478
v -0.002024 -0.000290 0.000654
v 0.000651 0.000027 0.000069
v -0.000595 -0.000037 0.000234
v -0.001723 0.000009 0.000655
v -0.000278 -0.000054 0.000044
v 0.000784 0.000062 -0.000473
v 0.001511 0.000224 -0.000680
v 0.000249 0.000052 0.000045
v 0.000249 0.000154 0.000089
v -0.000525 0.000034 0.000328
v 0.000804 0.000087 -0.000326
v -0.001349 -0.000009 0.000226
v -0.001267 0.000030 0.000185
v -0.001189 -0.000013 0.000187
v -0.000634 -0.000087 0.000155
v -0.001881 0.000010 0.000367
v -0.000549 -0.000061 0.000179
v -0.000903 -0.000043 0.000166
v 0.001339 -0.000151 -0.000542
v 0.001312 0.000104 -0.000669
v -0.000906 -0.000151 0.000236
v -0.000160 -0.000152 0.000018
v -0.001629 -0.000200 0.000406
v -0.000883 0.000065 0.000095
v -0.001496 -0.000066 0.000591
v 0.000849 0.000046 -0.000535
v -0.000145 0.000115 0.000005
v -0.002026 -0.000156 0.000415
v 0.001346 -0.000105 -0.000558
v -0.000549 -0.000182 0.000171
v -0.000717 -0.000145 0.000210
v -0.000630 -0.000147 0.000196
v 0.000314 0.000167 0.000079
v 0.000885 0.000183 -0.000055
v 0.001574 -0.000219 -0.000576
v 0.001664 0.000109 -0.000426
v 0.001648 0.000176 -0.000477
v 0.001665 -0.000017 -0.000425
v 0.001621 -0.000178 -0.000574
v 0.001586 0.000107 -0.000685
v 0.001629 -0.000154 -0.000548
v 0.001615 -0.000194 -0.000595
v 0.001605 -0.000118 -0.000626
v 0.001664 0.000112 -0.000424
v 0.001664 0.000113 -0.000423
v 0.001586 0.000099 -0.000686
v 0.001609 0.000197 -0.000608
v 0.001661 -0.000078 -0.000438
v 0.001593 0.000189 -0.000662
v 0.001586 0.000124 -0.000687
v 0.001612 -0.000182 -0.000603
v 0.001610 -0.000161 -0.000611
v 0.001584 0.000193 -0.000692
v 0.001583 0.000169 -0.000696
v 0.001645 -0.000139 -0.000492
v 0.001664 -0.000001 -0.000426
v 0.001663 0.000096 -0.000427
v 0.001620 0.000195 -0.000570
v 0.001654 -0.000106 -0.000464
v 0.001596 -0.000052 -0.000654
v 0.001663 0.000114 -0.000429
v 0.001590 0.000015 -0.000672
v 0.001651 0.000153 -0.000469
v -0.002124 0.000135 0.000710
v -0.002105 -0.000175 0.000438
v -0.002112 0.000014 0.000703
v -0.002126 0.000042 0.000454
v -0.002126 0.000141 0.000671
v -0.002117 0.000056 0.000696
v -0.002128 0.000121 0.000586
v -0.002090 -0.000212 0.000705
v -0.002080 -0.000300 0.000736
v -0.002097 -0.000239 0.000482
v -0.002128 0.000130 0.000603
v -0.002092 -0.000195 0.000704
v -0.002080 -0.000288 0.000746
v -0.002127 0.000091 0.000537
v -0.002079 -0.000297 0.000751
v -0.002127 0.000072 0.000494
v -0.002127 0.000066 0.000484
v -0.002084 -0.000305 0.000615
v -0.002090 -0.000279 0.000537
v -0.002090 -0.000210 0.000704
v -0.002115 -0.000074 0.000427
v -0.002114 -0.000087 0.000429
v -0.002091 -0.000276 0.000519
v -0.002116 -0.000065 0.000432
v -0.002110 -0.000011 0.000703
v -0.002099 -0.000215 0.000468
v -0.002125 0.000145 0.000707
v -0.002090 -0.000209 0.000704
vt 0.744338 0.052383
vt 0.741423 0.053134
vt 0.742041 0.054657
vt 0.288649 0.291004
vt 0.286733 0.290263
vt 0.283507 0.293197
vt 0.872024 0.285423
vt 0.877454 0.285364
vt 0.874580 0.283938
vt 0.624881 0.401048
vt 0.623870 0.404243
vt 0.625620 0.402654
vt 0.264530 0.439434
vt 0.268188 0.437113
vt 0.266333 0.436290
vt 0.360195 0.443844
vt 0.361913 0.439030
vt 0.359119 0.439738
vt 0.358858 0.442199
vt 0.236536 0.099577
vt 0.238152 0.099915
vt 0.238302 0.099010
vt 0.755973 0.477560
vt 0.755136 0.476559
vt 0.754069 0.477987
vt 0.766621 0.478442
vt 0.764587 0.477798
vt 0.766056 0.478983
vt 0.511261 0.652347
vt 0.509120 0.653170
vt 0.509919 0.654225
vt 0.080132 0.666990
vt 0.082859 0.665079
vt 0.080428 0.664897
vt 0.253331 0.430418
vt 0.254926 0.429400
vt 0.253193 0.425821
vt 0.251220 0.426253
vt 0.704219 0.469570
vt 0.700947 0.467268
vt 0.700862 0.470227
vt 0.607642 0.541810
vt 0.610805 0.541881
vt 0.607159 0.538798
vt 0.058039 0.686793
vt 0.057289 0.687728
vt 0.060168 0.691868
vt 0.851461 0.546273
vt 0.853378 0.546038
vt 0.853066 0.544118
vt 0.375083 0.687637
vt 0.379146 0.683407
vt 0.379015 0.682262
vt 0.284655 0.455131
vt 0.281187 0.450393
vt 0.285697 0.456796
vt 0.293377 0.286664
vt 0.294415 0.285966
vt 0.294150 0.285314
vt 0.482814 0.261141
vt 0.481901 0.262409
vt 0.484853 0.262037
vt 0.146293 0.496205
vt 0.147911 0.497506
vt 0.148615 0.495238
vt 0.709076 0.805736
vt 0.708301 0.806952
vt 0.710881 0.806644
vt 0.175193 0.374183
vt 0.180310 0.371609
vt 0.178031 0.370517
vt 0.296354 0.108414
vt 0.298437 0.108153
vt 0.296727 0.107738
vt 0.599501 0.617077
vt 0.603285 0.618413
vt 0.602732 0.614072
vt 0.408253 0.705818
vt 0.409051 0.706629
vt 0.411754 0.706570
vt 0.239151 0.406331
vt 0.238710 0.406774
vt 0.238806 0.407081
vt 0.260780 0.431329
vt 0.260285 0.433900
vt 0.188759 0.971312
vt 0.191488 0.972118
vt 0.189436 0.970407
vt 0.559577 0.158617
vt 0.558115 0.157931
vt 0.558716 0.159260
vt 0.876002 0.108514
vt 0.879569 0.111180
vt 0.880121 0.109185
vt 0.553093 0.361419
vt 0.550935 0.357771
vt 0.554007 0.366444
vt 0.768890 0.761265
vt 0.767616 0.761258
vt 0.766990 0.763534
vt 0.462738 0.467038
vt 0.461214 0.469112
vt 0.464775 0.470904
vt 0.649587 0.588463
vt 0.650758 0.588668
vt 0.647151 0.585933
vt 0.945782 0.617065
vt 0.945924 0.614907
vt 0.944431 0.616560
vt 0.556221 0.125701
vt 0.554979 0.126097
vt 0.556531 0.126959
vt 0.480006 0.891102
vt 0.480048 0.890252
vt 0.479271 0.889861
vt 0.504816 0.816201
vt 0.506710 0.813056
vt 0.504740 0.814259
vt 0.561780 0.861746
vt 0.562327 0.863940
vt 0.563603 0.862644
vt 0.081836 0.663281
vt 0.992020 0.569869
vt 0.990689 0.569111
vt 0.991938 0.571758
vt 0.464007 0.670896
vt 0.461553 0.671660
vt 0.463792 0.674480
vt 0.760707 0.018248
vt 0.759054 0.016262
vt 0.758337 0.018175
vt 0.759205 0.021071
vt 0.870476 0.106171
vt 0.872654 0.104772
vt 0.694630 0.814481
vt 0.698133 0.813537
vt 0.693997 0.813677
vt 0.277266 0.684044
vt 0.275664 0.684577
vt 0.278109 0.686699
vt 0.817160 0.939092
vt 0.815685 0.935527
vt 0.815598 0.936555
vt 0.714755 0.431891
vt 0.712655 0.432804
vt 0.717664 0.435253
vt 0.189755 0.073231
vt 0.191684 0.069127
vt 0.188737 0.070843
vt 0.194221 0.070270
vt 0.498537 0.285817
vt 0.498164 0.291823
vt 0.499191 0.288441
vt 0.165273 0.971172
vt 0.162306 0.972175
vt 0.163461 0.973430
vt 0.870047 0.103195
vt 0.872742 0.103750
vt 0.060103 0.311476
vt 0.057145 0.308857
vt 0.056998 0.312378
vt 0.607579 0.325240
vt 0.611142 0.328150
vt 0.610589 0.324863
vt 0.788916 0.062030
vt 0.788492 0.058994
vt 0.784538 0.058932
vt 0.786610 0.062826
vt 0.370293 0.360083
vt 0.366628 0.360122
vt 0.368788 0.361926
vt 0.650009 0.165991
vt 0.651579 0.164062
vt 0.650072 0.164623
vt 0.175119 0.350512
vt 0.177587 0.350869
vt 0.174167 0.347850
vt 0.561144 0.920204
vt 0.562707 0.917067
vt 0.560796 0.915054
vt 0.053875 0.309312
vt 0.179636 0.441322
vt 0.179919 0.442834
vt 0.180809 0.441686
vt 0.059214 0.329957
vt 0.058675 0.326123
vt 0.056210 0.327995
vt 0.262609 0.437937
vt 0.260195 0.438860
vt 0.356200 0.440986
vt 0.933305 0.172811
vt 0.932159 0.172621
vt 0.931900 0.173840
vt 0.404582 0.622404
vt 0.404665 0.621037
vt 0.403804 0.621003
vt 0.787428 0.055017
vt 0.786171 0.050728
vt 0.785115 0.056000
vt 0.301133 0.479796
vt 0.297311 0.476304
vt 0.299479 0.482482
vt 0.680950 0.393947
vt 0.676795 0.392703
vt 0.678457 0.395719
vt 0.004951 0.961240
vt 0.003211 0.960617
vt 0.003975 0.962325
vt 0.609925 0.547480
vt 0.612383 0.544471
vt 0.607806 0.545572
vt 0.865054 0.101406
vt 0.868678 0.107385
vt 0.786207 0.797643
vt 0.783197 0.796643
vt 0.785369 0.798422
vt 0.289052 0.287151
vt 0.292529 0.287203
vt 0.157974 0.512063
vt 0.156156 0.512217
vt 0.157298 0.513466
vt 0.905032 0.623720
vt 0.905019 0.622481
vt 0.903561 0.623668
vt 0.616269 0.593868
vt 0.617111 0.591513
vt 0.616699 0.589919
vt 0.228238 0.978155
vt 0.228172 0.978116
vt 0.226945 0.978787
vt 0.228514 0.979327
vt 0.228447 0.980856
vt 0.356828 0.435713
vt 0.359649 0.437675
vt 0.360809 0.433716
vt 0.151001 0.507362
vt 0.147146 0.507420
vt 0.148312 0.509578
vt 0.545191 0.616075
vt 0.548044 0.618439
vt 0.544389 0.614927
vt 0.525741 0.565540
vt 0.528120 0.565799
vt 0.526891 0.565052
vt 0.748799 0.032339
vt 0.747420 0.034968
vt 0.751656 0.034873
vt 0.055008 0.291563
vt 0.052851 0.293850
vt 0.054606 0.294860
vt 0.775182 0.614520
vt 0.773059 0.616027
vt 0.774795 0.616489
vt 0.259962 0.429111
vt 0.806057 0.990235
vt 0.806455 0.991366
vt 0.807292 0.988957
vt 0.628083 0.703243
vt 0.626411 0.702259
vt 0.626782 0.703997
vt 0.270790 0.747793
vt 0.269086 0.750258
vt 0.272499 0.751234
vt 0.182332 0.365405
vt 0.181180 0.363038
vt 0.181350 0.368795
vt 0.063451 0.677627
vt 0.062476 0.675994
vt 0.062558 0.677395
vt 0.278002 0.449724
vt 0.277104 0.446237
vt 0.273131 0.449579
vt 0.561972 0.860035
vt 0.558686 0.859000
vt 0.243016 0.416357
vt 0.242093 0.420506
vt 0.246232 0.418664
vt 0.163180 0.993713
vt 0.161191 0.992142
vt 0.160237 0.993300
vt 0.141753 0.489957
vt 0.141936 0.493619
vt 0.144797 0.491839
vt 0.295716 0.470430
vt 0.292016 0.468310
vt 0.293142 0.472205
vt 0.278633 0.455448
vt 0.283325 0.289196
vt 0.285494 0.284924
vt 0.280684 0.287227
vt 0.309124 0.415853
vt 0.309016 0.414145
vt 0.308183 0.415056
vt 0.277644 0.285951
vt 0.274145 0.280503
vt 0.273337 0.281677
vt 0.135872 0.952489
vt 0.136688 0.953726
vt 0.137479 0.951437
vt 0.534210 0.571225
vt 0.539018 0.571674
vt 0.535136 0.569029
vt 0.605141 0.324664
vt 0.603779 0.326981
vt 0.713192 0.805705
vt 0.712071 0.804386
vt 0.986519 0.313464
vt 0.987546 0.316486
vt 0.987937 0.312146
vt 0.053034 0.290738
vt 0.144493 0.488504
vt 0.141462 0.486369
vt 0.139616 0.486241
vt 0.140242 0.488749
vt 0.211606 0.150970
vt 0.211704 0.149644
vt 0.210154 0.151307
vt 0.514701 0.994370
vt 0.515095 0.996209
vt 0.518113 0.994775
vt 0.476742 0.986580
vt 0.480789 0.988444
vt 0.482273 0.986099
vt 0.480076 0.985178
vt 0.728329 0.247126
vt 0.729642 0.248301
vt 0.731057 0.246889
vt 0.899694 0.739340
vt 0.898942 0.741709
vt 0.901562 0.739695
vt 0.365701 0.184741
vt 0.366947 0.182224
vt 0.365288 0.183167
vt 0.787069 0.057414
vt 0.788846 0.055283
vt 0.625138 0.396034
vt 0.626958 0.394790
vt 0.626335 0.392368
vt 0.609512 0.331735
vt 0.611643 0.331320
vt 0.609780 0.329022
vt 0.208200 0.089037
vt 0.209517 0.087230
vt 0.208495 0.087745
vt 0.465298 0.468104
vt 0.464233 0.464636
vt 0.739708 0.053922
vt 0.736057 0.050322
vt 0.737055 0.052834
vt 0.630540 0.967626
vt 0.631418 0.965254
vt 0.628472 0.968711
vt 0.280525 0.289353
vt 0.844236 0.089629
vt 0.845038 0.092175
vt 0.847316 0.091178
vt 0.181229 0.801750
vt 0.182295 0.802562
vt 0.182615 0.799947
vt 0.871260 0.109240
vt 0.802358 0.309991
vt 0.802508 0.312382
vt 0.803621 0.311855
vt 0.300940 0.483175
vt 0.303366 0.482063
vt 0.555861 0.370466
vt 0.551277 0.365647
vt 0.226056 0.981278
vt 0.278963 0.686334
vt 0.278576 0.684900
vt 0.750034 0.030330
vt 0.055693 0.294801
vt 0.053120 0.296118
vt 0.057077 0.297869
vt 0.715482 0.663138
vt 0.717907 0.665746
vt 0.717354 0.666538
vt 0.757125 0.024094
vt 0.757136 0.021061
vt 0.498795 0.663870
vt 0.501803 0.663359
vt 0.499460 0.663215
vt 0.551287 0.700193
vt 0.554619 0.699945
vt 0.554985 0.698893
vt 0.361215 0.450306
vt 0.358947 0.446804
vt 0.492011 0.185414
vt 0.490213 0.184929
vt 0.490212 0.185651
vt 0.238547 0.749831
vt 0.239501 0.748269
vt 0.237353 0.748318
vt 0.702229 0.814617
vt 0.700339 0.817259
vt 0.605300 0.330431
vt 0.553145 0.308756
vt 0.547603 0.310145
vt 0.555739 0.311413
vt 0.462746 0.667827
vt 0.052985 0.687266
vt 0.054086 0.688728
vt 0.054103 0.687146
vt 0.824329 0.861076
vt 0.824940 0.862222
vt 0.826496 0.859996
vt 0.819450 0.648398
vt 0.817677 0.648714
vt 0.816205 0.649483
vt 0.061138 0.331956
vt 0.523733 0.566915
vt 0.526536 0.568807
vt 0.511023 0.656835
vt 0.511335 0.655204
vt 0.732444 0.746552
vt 0.730870 0.747513
vt 0.731078 0.749228
vt 0.682794 0.088272
vt 0.682934 0.090211
vt 0.683910 0.088756
vt 0.454105 0.983605
vt 0.452245 0.983226
vt 0.458805 0.986644
vt 0.548893 0.363496
vt 0.941239 0.578311
vt 0.939530 0.577340
vt 0.941227 0.580456
vt 0.984020 0.331929
vt 0.985393 0.334145
vt 0.985395 0.332626
vt 0.283753 0.459178
vt 0.281803 0.461199
vt 0.282902 0.462286
vt 0.034586 0.775972
vt 0.032890 0.780064
vt 0.034431 0.778608
vt 0.761791 0.020233
vt 0.362893 0.353339
vt 0.371220 0.356872
vt 0.365081 0.352763
vt 0.467849 0.362250
vt 0.469537 0.362028
vt 0.469713 0.361409
vt 0.835032 0.941351
vt 0.833895 0.942651
vt 0.834227 0.944517
vt 0.607128 0.445793
vt 0.610246 0.447195
vt 0.610211 0.445495
vt 0.609287 0.444246
vt 0.606830 0.444530
vt 0.499576 0.835306
vt 0.500890 0.835677
vt 0.501458 0.833718
vt 0.360171 0.453874
vt 0.361736 0.456947
vt 0.363204 0.454560
vt 0.364303 0.456513
vt 0.381052 0.584921
vt 0.380524 0.584836
vt 0.380798 0.584878
vt 0.186995 0.970824
vt 0.376612 0.689911
vt 0.378014 0.687118
vt 0.375358 0.688938
vt 0.731634 0.854151
vt 0.733033 0.852062
vt 0.731917 0.851823
vt 0.607522 0.310522
vt 0.606513 0.310974
vt 0.606869 0.311928
vt 0.286630 0.463742
vt 0.286138 0.464192
vt 0.287227 0.467036
vt 0.366188 0.356887
vt 0.364455 0.441165
vt 0.366935 0.442729
vt 0.366874 0.446264
vt 0.780027 0.427427
vt 0.777699 0.428461
vt 0.779561 0.428564
vt 0.790325 0.069485
vt 0.786298 0.066216
vt 0.621062 0.478027
vt 0.623325 0.476009
vt 0.621429 0.474792
vt 0.456700 0.353415
vt 0.454636 0.356401
vt 0.458084 0.361157
vt 0.238530 0.406981
vt 0.710580 0.809739
vt 0.709420 0.807880
vt 0.706761 0.809702
vt 0.193096 0.239057
vt 0.193334 0.240699
vt 0.194335 0.240090
vt 0.073278 0.795289
vt 0.074553 0.792705
vt 0.072385 0.793336
vt 0.901548 0.585618
vt 0.900957 0.588174
vt 0.901806 0.589514
vt 0.354092 0.103820
vt 0.352785 0.102177
vt 0.352891 0.103688
vt 0.774431 0.551136
vt 0.776299 0.550766
vt 0.773530 0.549792
vt 0.752315 0.027138
vt 0.755135 0.028598
vt 0.784025 0.051072
vt 0.785179 0.046340
vt 0.780863 0.049167
vt 0.506087 0.811552
vt 0.975693 0.545252
vt 0.973199 0.544185
vt 0.974012 0.546375
vt 0.164983 0.446589
vt 0.166287 0.446157
vt 0.165612 0.445490
vt 0.877323 0.107096
vt 0.354014 0.354204
vt 0.353964 0.350807
vt 0.352509 0.353295
vt 0.352479 0.358243
vt 0.546215 0.313836
vt 0.545904 0.310653
vt 0.543301 0.312485
vt 0.364325 0.437892
vt 0.666050 0.090630
vt 0.666441 0.089454
vt 0.665108 0.089786
vt 0.281317 0.458442
vt 0.260569 0.600664
vt 0.260983 0.601870
vt 0.261566 0.601191
vt 0.549534 0.606047
vt 0.545370 0.607769
vt 0.547893 0.608628
vt 0.107990 0.939388
vt 0.107924 0.940626
vt 0.111230 0.939923
vt 0.055291 0.315578
vt 0.055755 0.320089
vt 0.056645 0.314820
vt 0.544363 0.612487
vt 0.758781 0.058092
vt 0.756977 0.057804
vt 0.757798 0.058785
vt 0.532064 0.570948
vt 0.532590 0.567952
vt 0.250767 0.706128
vt 0.249342 0.705611
vt 0.248635 0.708842
vt 0.345552 0.376521
vt 0.348880 0.374874
vt 0.345176 0.372814
vt 0.705505 0.471203
vt 0.984975 0.808157
vt 0.984583 0.805827
vt 0.983863 0.807228
vt 0.057721 0.338803
vt 0.058362 0.341679
vt 0.058293 0.335369
vt 0.189225 0.246253
vt 0.187630 0.246031
vt 0.187311 0.247463
vt 0.178145 0.353044
vt 0.176409 0.355954
vt 0.177662 0.356314
vt 0.859691 0.100300
vt 0.863425 0.102774
vt 0.060323 0.320590
vt 0.847245 0.781331
vt 0.849147 0.780891
vt 0.848123 0.779880
vt 0.464715 0.415863
vt 0.463254 0.416080
vt 0.464462 0.416632
vt 0.543674 0.314473
vt 0.514913 0.998432
vt 0.513367 0.996486
vt 0.072302 0.651430
vt 0.073918 0.651348
vt 0.074888 0.649683
vt 0.350384 0.360916
vt 0.351582 0.363069
vt 0.761585 0.845095
vt 0.761010 0.846847
vt 0.762695 0.845430
vt 0.236977 0.408879
vt 0.238807 0.413055
vt 0.816963 0.936063
vt 0.425920 0.519109
vt 0.426256 0.523360
vt 0.427068 0.524740
vt 0.656889 0.506402
vt 0.654405 0.508071
vt 0.654701 0.509844
vt 0.734056 0.050409
vt 0.734584 0.052175
vt 0.734252 0.049780
vt 0.272229 0.279202
vt 0.681029 0.680052
vt 0.680624 0.680911
vt 0.681948 0.680869
vt 0.069736 0.807058
vt 0.065897 0.807880
vt 0.068045 0.808357
vt 0.460203 0.668546
vt 0.618294 0.596769
vt 0.619388 0.598142
vt 0.620226 0.597158
vt 0.057693 0.302859
vt 0.059834 0.304667
vt 0.059715 0.303453
vt 0.626632 0.391290
vt 0.625322 0.390699
vt 0.147561 0.494345
vt 0.145130 0.494078
vt 0.759451 0.027733
vt 0.753448 0.026086
vt 0.755870 0.033902
vt 0.715729 0.436882
vt 0.363774 0.352242
vt 0.363091 0.350512
vt 0.781723 0.054732
vt 0.702141 0.466626
vt 0.700402 0.464792
vt 0.459236 0.986589
vt 0.814692 0.589585
vt 0.813434 0.588131
vt 0.813358 0.592041
vt 0.227039 0.922779
vt 0.229425 0.924010
vt 0.230872 0.923263
vt 0.262993 0.861056
vt 0.260571 0.859433
vt 0.260045 0.861129
vt 0.053803 0.304644
vt 0.057783 0.305833
vt 0.661385 0.502373
vt 0.659896 0.501733
vt 0.651447 0.592326
vt 0.617291 0.448313
vt 0.614041 0.446221
vt 0.610802 0.451047
vt 0.908318 0.391916
vt 0.907368 0.384481
vt 0.907256 0.387655
vt 0.350593 0.926333
vt 0.350779 0.928084
vt 0.352363 0.926307
vt 0.353834 0.927535
vt 0.479030 0.892658
vt 0.477962 0.892433
vt 0.945946 0.697600
vt 0.943047 0.697071
vt 0.943402 0.698273
vt 0.055799 0.690731
vt 0.055780 0.691955
vt 0.550312 0.308456
vt 0.548365 0.309702
vt 0.345830 0.370082
vt 0.497173 0.291671
vt 0.498173 0.287915
vt 0.713060 0.735691
vt 0.710931 0.737831
vt 0.713112 0.738519
vt 0.711323 0.735669
vt 0.181700 0.358860
vt 0.176683 0.359788
vt 0.781261 0.053815
vt 0.458630 0.356768
vt 0.457843 0.351819
vt 0.175991 0.346385
vt 0.681689 0.392172
vt 0.070729 0.866281
vt 0.073518 0.862821
vt 0.070586 0.864336
vt 0.073300 0.861561
vt 0.069914 0.865378
vt 0.055134 0.300141
vt 0.518034 0.102735
vt 0.517886 0.104106
vt 0.519646 0.103714
vt 0.242102 0.750876
vt 0.448073 0.043379
vt 0.448144 0.041621
vt 0.447161 0.042334
vt 0.049924 0.308506
vt 0.049116 0.305096
vt 0.376106 0.588213
vt 0.373976 0.582998
vt 0.373572 0.584392
vt 0.840019 0.350033
vt 0.839385 0.352410
vt 0.840895 0.353738
vt 0.296793 0.982471
vt 0.295483 0.979215
vt 0.292798 0.980428
vt 0.249179 0.490127
vt 0.248308 0.489246
vt 0.247869 0.490359
vt 0.734988 0.456841
vt 0.734443 0.458388
vt 0.736086 0.458393
vt 0.736656 0.455733
vt 0.289960 0.463370
vt 0.288768 0.458599
vt 0.290668 0.465708
vt 0.748199 0.039791
vt 0.166936 0.888224
vt 0.167796 0.890523
vt 0.167819 0.886504
vt 0.179390 0.368277
vt 0.075914 0.793428
vt 0.377603 0.362341
vt 0.376220 0.362553
vt 0.377795 0.363445
vt 0.148403 0.505424
vt 0.278288 0.285850
vt 0.144152 0.507441
vt 0.146763 0.503852
vt 0.144904 0.501530
vt 0.376997 0.585973
vt 0.378431 0.581457
vt 0.339823 0.188890
vt 0.340786 0.187487
vt 0.339154 0.187299
vt 0.621868 0.396850
vt 0.621209 0.394229
vt 0.847799 0.092034
vt 0.851170 0.093810
vt 0.849947 0.092387
vt 0.160872 0.864541
vt 0.156130 0.864497
vt 0.159652 0.865428
vt 0.591046 0.146218
vt 0.592405 0.148047
vt 0.592839 0.145979
vt 0.062051 0.317188
vt 0.061370 0.311870
vt 0.526189 0.997285
vt 0.530899 0.998115
vt 0.525976 0.995660
vt 0.874532 0.109573
vt 0.060395 0.317631
vt 0.846527 0.094233
vt 0.274133 0.444657
vt 0.683275 0.091658
vt 0.529615 0.567774
vt 0.531118 0.567102
vt 0.362286 0.436218
vt 0.856604 0.100141
vt 0.855399 0.099083
vt 0.858305 0.097542
vt 0.167601 0.112834
vt 0.168013 0.111314
vt 0.166139 0.111368
vt 0.854415 0.095494
vt 0.853114 0.097162
vt 0.263523 0.435304
vt 0.263703 0.433413
vt 0.159668 0.063458
vt 0.161205 0.064328
vt 0.161925 0.063970
vt 0.181373 0.799671
vt 0.603471 0.619743
vt 0.601900 0.620766
vt 0.738735 0.046832
vt 0.739568 0.050888
vt 0.741767 0.049541
vt 0.287434 0.283048
vt 0.290751 0.284085
vt 0.975502 0.402068
vt 0.976241 0.399659
vt 0.974885 0.401336
vt 0.499012 0.281620
vt 0.499896 0.284704
vt 0.270046 0.437827
vt 0.273224 0.439154
vt 0.270128 0.436658
vt 0.297310 0.993336
vt 0.296885 0.992053
vt 0.294391 0.992250
vt 0.474431 0.894390
vt 0.476037 0.892701
vt 0.475383 0.891332
vt 0.001127 0.964212
vt 0.001242 0.962728
vt 0.167211 0.974013
vt 0.168232 0.971921
vt 0.589713 0.096805
vt 0.588512 0.096650
vt 0.590065 0.098544
vt 0.162897 0.130841
vt 0.163567 0.129837
vt 0.162352 0.128871
vt 0.382604 0.581489
vt 0.269398 0.277855
vt 0.268134 0.278461
vt 0.269360 0.279415
vt 0.260632 0.275269
vt 0.366020 0.436299
vt 0.250700 0.706418
vt 0.250770 0.706177
vt 0.250769 0.706153
vt 0.733517 0.674943
vt 0.733898 0.673732
vt 0.732370 0.673435
vt 0.698749 0.811948
vt 0.696277 0.811541
vt 0.413973 0.937776
vt 0.418400 0.936270
vt 0.414763 0.936169
vt 0.916212 0.505678
vt 0.916341 0.509152
vt 0.917418 0.505928
vt 0.172993 0.326785
vt 0.172158 0.327624
vt 0.174007 0.328023
vt 0.626641 0.399033
vt 0.241403 0.411630
vt 0.429877 0.527877
vt 0.587399 0.123902
vt 0.587773 0.124746
vt 0.588657 0.124893
vt 0.138196 0.499970
vt 0.139653 0.501704
vt 0.138230 0.495419
vt 0.123305 0.651639
vt 0.125433 0.654095
vt 0.125515 0.652184
vt 0.062256 0.335706
vt 0.505400 0.645076
vt 0.507363 0.646267
vt 0.511144 0.648153
vt 0.370533 0.576520
vt 0.371384 0.579289
vt 0.373319 0.576982
vt 0.961017 0.737882
vt 0.959071 0.736835
vt 0.959785 0.737554
vt 0.126345 0.460334
vt 0.124508 0.459718
vt 0.125060 0.461274
vt 0.266925 0.441671
vt 0.460937 0.358108
vt 0.464826 0.360813
vt 0.463258 0.357866
vt 0.464854 0.357616
vt 0.934059 0.423448
vt 0.934861 0.426203
vt 0.936126 0.425151
vt 0.126737 0.651022
vt 0.605435 0.452350
vt 0.608274 0.453789
vt 0.962384 0.705306
vt 0.962350 0.702719
vt 0.961163 0.702461
vt 0.026653 0.234895
vt 0.026401 0.233654
vt 0.025682 0.232471
vt 0.560500 0.863263
vt 0.558736 0.863985
vt 0.560553 0.864426
vt 0.674395 0.859599
vt 0.672503 0.859793
vt 0.671984 0.861347
vt 0.431605 0.531355
vt 0.430476 0.531424
vt 0.431367 0.532719
vt 0.513270 0.995314
vt 0.295807 0.479594
vt 0.376954 0.695328
vt 0.378169 0.694573
vt 0.375655 0.694198
vt 0.547353 0.601336
vt 0.547135 0.603340
vt 0.185378 0.071723
vt 0.186026 0.074490
vt 0.182709 0.072726
vt 0.240217 0.415993
vt 0.090517 0.695931
vt 0.089968 0.694136
vt 0.087330 0.694463
vt 0.651715 0.587305
vt 0.652410 0.590492
vt 0.113663 0.856703
vt 0.113653 0.853425
vt 0.112154 0.855381
vt 0.464447 0.471863
vt 0.460568 0.454054
vt 0.461882 0.455590
vt 0.462442 0.453390
vt 0.604134 0.453664
vt 0.604359 0.455529
vt 0.464707 0.668862
vt 0.620955 0.595855
vt 0.604330 0.334701
vt 0.602470 0.331660
vt 0.242969 0.406285
vt 0.241252 0.407205
vt 0.243454 0.410445
vt 0.012294 0.971842
vt 0.015050 0.971680
vt 0.013479 0.970506
vt 0.155129 0.142191
vt 0.155250 0.144123
vt 0.156706 0.143341
vt 0.356865 0.438173
vt 0.715046 0.662685
vt 0.715141 0.662634
vt 0.257049 0.426357
vt 0.254907 0.424669
vt 0.586768 0.833179
vt 0.584861 0.833658
vt 0.586016 0.834101
vt 0.124975 0.649076
vt 0.901821 0.602535
vt 0.900569 0.602425
vt 0.900989 0.603638
vt 0.371210 0.692255
vt 0.373147 0.695851
vt 0.374403 0.694988
vt 0.151771 0.169688
vt 0.151054 0.168972
vt 0.149577 0.170094
vt 0.380906 0.584779
vt 0.382999 0.582930
vt 0.509722 0.261029
vt 0.508299 0.259577
vt 0.507116 0.260706
vt 0.760556 0.665297
vt 0.758897 0.664406
vt 0.759376 0.665428
vt 0.275080 0.455737
vt 0.276678 0.456977
vt 0.282908 0.283041
vt 0.737054 0.053297
vt 0.740259 0.055051
vt 0.487524 0.800102
vt 0.487470 0.800257
vt 0.489676 0.799993
vt 0.488456 0.799034
vt 0.487459 0.800311
vt 0.487386 0.800331
vt 0.487509 0.801449
vt 0.489888 0.801636
vt 0.827762 0.354856
vt 0.827788 0.354889
vt 0.828662 0.352563
vt 0.827823 0.352173
vt 0.498244 0.281360
vt 0.500095 0.281838
vt 0.499717 0.279769
vt 0.653208 0.509749
vt 0.653475 0.511553
vt 0.654198 0.510704
vt 0.779964 0.046074
vt 0.778984 0.046517
vt 0.944804 0.615162
vt 0.289842 0.281965
vt 0.698156 0.465163
vt 0.698100 0.463722
vt 0.697236 0.465092
vt 0.815529 0.284233
vt 0.813056 0.284395
vt 0.816533 0.286226
vt 0.741818 0.044200
vt 0.613127 0.444815
vt 0.986453 0.438436
vt 0.984469 0.438759
vt 0.985957 0.440376
vt 0.987846 0.439350
vt 0.959256 0.727896
vt 0.958288 0.730771
vt 0.958790 0.731337
vt 0.983999 0.277115
vt 0.984170 0.277429
vt 0.984640 0.276913
vt 0.740831 0.055415
vt 0.741615 0.056521
vt 0.742702 0.055904
vt 0.743426 0.054646
vt 0.272920 0.441539
vt 0.269443 0.446581
vt 0.851001 0.096899
vt 0.293448 0.780213
vt 0.289477 0.776398
vt 0.289442 0.778583
vt 0.654245 0.509833
vt 0.654607 0.508864
vt 0.252315 0.422613
vt 0.248499 0.419295
vt 0.249823 0.422616
vt 0.404895 0.296679
vt 0.403195 0.296691
vt 0.403831 0.297370
vt 0.889885 0.878715
vt 0.892158 0.877782
vt 0.890741 0.877537
vt 0.149977 0.519808
vt 0.154374 0.517032
vt 0.152917 0.515171
vt 0.618308 0.592499
vt 0.549007 0.312711
vt 0.244458 0.413648
vt 0.667972 0.426857
vt 0.667175 0.425413
vt 0.666691 0.426216
vt 0.272780 0.454708
vt 0.765855 0.477854
vt 0.766199 0.476941
vt 0.764622 0.476785
vt 0.806099 0.660372
vt 0.805148 0.658966
vt 0.804519 0.660699
vt 0.500634 0.295554
vt 0.497539 0.294912
vt 0.498700 0.298264
vt 0.872157 0.547545
vt 0.869074 0.548074
vt 0.869474 0.549240
vt 0.755543 0.478896
vt 0.604020 0.611247
vt 0.601199 0.613812
vt 0.563994 0.771214
vt 0.563745 0.772151
vt 0.565283 0.770644
vt 0.563344 0.771141
vt 0.565491 0.769435
vt 0.135195 0.038762
vt 0.135349 0.038982
vt 0.136985 0.039365
vt 0.136511 0.038685
vt 0.850261 0.095761
vt 0.848742 0.094209
vt 0.849670 0.096107
vt 0.059368 0.308198
vt 0.378712 0.587879
vt 0.378318 0.589287
vt 0.191303 0.854962
vt 0.194055 0.857678
vt 0.196257 0.857698
vt 0.547547 0.703983
vt 0.548718 0.699127
vt 0.839300 0.086379
vt 0.669399 0.863258
vt 0.665290 0.864533
vt 0.665513 0.866158
vt 0.278753 0.282856
vt 0.627660 0.397370
vt 0.290168 0.781255
vt 0.289037 0.781929
vt 0.312834 0.922044
vt 0.314866 0.919749
vt 0.313221 0.919365
vt 0.373874 0.362762
vt 0.313642 0.924893
vt 0.312248 0.924393
vt 0.311989 0.926323
vt 0.751683 0.039139
vt 0.753202 0.035430
vt 0.976067 0.547339
vt 0.974002 0.278415
vt 0.972389 0.278038
vt 0.971226 0.280892
vt 0.201300 0.644998
vt 0.199956 0.644235
vt 0.200359 0.646364
vt 0.657755 0.508649
vt 0.657962 0.507030
vt 0.271752 0.451483
vt 0.458804 0.466357
vt 0.457762 0.469179
vt 0.459667 0.466800
vt 0.149435 0.511531
vt 0.153946 0.512140
vt 0.450822 0.474918
vt 0.453147 0.473886
vt 0.449492 0.471765
vt 0.740403 0.044397
vt 0.285825 0.466007
vt 0.103854 0.057202
vt 0.102045 0.058189
vt 0.102371 0.058614
vt 0.554489 0.123576
vt 0.554197 0.120702
vt 0.553594 0.122297
vt 0.140530 0.744081
vt 0.139875 0.745383
vt 0.142036 0.744184
vt 0.566058 0.918309
vt 0.564458 0.917766
vt 0.565272 0.920099
vt 0.552397 0.373181
vt 0.552012 0.371574
vt 0.890646 0.868317
vt 0.888963 0.868477
vt 0.890265 0.869535
vt 0.933381 0.576704
vt 0.931600 0.578502
vt 0.933505 0.577755
vt 0.166558 0.891604
vt 0.203124 0.647960
vt 0.205335 0.648323
vt 0.204191 0.646365
vt 0.066721 0.831337
vt 0.069188 0.831904
vt 0.070841 0.830435
vt 0.081425 0.058097
vt 0.080367 0.059722
vt 0.082223 0.059882
vt 0.152614 0.513083
vt 0.155478 0.514297
vt 0.322562 0.346571
vt 0.324351 0.347432
vt 0.323981 0.346686
vt 0.293988 0.465867
vt 0.293207 0.464268
vt 0.505169 0.668132
vt 0.504725 0.666938
vt 0.501950 0.668405
vt 0.503478 0.665460
vt 0.291743 0.462000
vt 0.052216 0.301977
vt 0.073364 0.649467
vt 0.071474 0.649641
vt 0.735298 0.052389
vt 0.736510 0.053053
vt 0.604792 0.617628
vt 0.604499 0.616369
vt 0.810979 0.723882
vt 0.810651 0.721951
vt 0.809798 0.720716
vt 0.233200 0.412477
vt 0.235435 0.415096
vt 0.234318 0.411974
vt 0.054034 0.289827
vt 0.452344 0.354174
vt 0.454116 0.350597
vt 0.452626 0.352025
vt 0.929241 0.791408
vt 0.930128 0.792873
vt 0.931355 0.790041
vt 0.422063 0.920191
vt 0.421059 0.920446
vt 0.420457 0.921050
vt 0.198142 0.068923
vt 0.201604 0.067153
vt 0.196675 0.068490
vt 0.680185 0.398740
vt 0.680576 0.395661
vt 0.009302 0.685997
vt 0.008115 0.682440
vt 0.008297 0.684805
vt 0.955229 0.736849
vt 0.954333 0.737235
vt 0.952931 0.739296
vt 0.091582 0.074012
vt 0.091023 0.075540
vt 0.092814 0.074799
vt 0.990700 0.579194
vt 0.992729 0.577080
vt 0.990796 0.577049
vt 0.464678 0.460735
vt 0.463865 0.462705
vt 0.292571 0.287237
vt 0.292966 0.287431
vt 0.078500 0.664814
vt 0.062789 0.326805
vt 0.754520 0.024930
vt 0.146734 0.512161
vt 0.145156 0.508924
vt 0.807023 0.686753
vt 0.806780 0.686524
vt 0.805854 0.686393
vt 0.313136 0.142580
vt 0.314287 0.140821
vt 0.311999 0.141441
vt 0.263131 0.432091
vt 0.895231 0.733266
vt 0.893690 0.733825
vt 0.894126 0.735084
vt 0.572753 0.108710
vt 0.574450 0.107942
vt 0.573250 0.107072
vt 0.572354 0.106618
vt 0.734955 0.472109
vt 0.735574 0.468772
vt 0.732997 0.470629
vt 0.475109 0.528752
vt 0.474208 0.529803
vt 0.475029 0.530387
vt 0.294639 0.285834
vt 0.302288 0.479812
vt 0.059200 0.302226
vt 0.714329 0.804379
vt 0.714205 0.802220
vt 0.087948 0.483076
vt 0.089507 0.482770
vt 0.088785 0.481507
vt 0.396079 0.108363
vt 0.397339 0.109322
vt 0.397812 0.107597
vt 0.500112 0.665683
vt 0.034569 0.411677
vt 0.036030 0.412334
vt 0.035627 0.411088
vt 0.177563 0.377056
vt 0.180184 0.374722
vt 0.180394 0.373365
vt 0.736876 0.049375
vt 0.246720 0.423049
vt 0.249051 0.425817
vt 0.497082 0.298099
vt 0.495758 0.293835
vt 0.140826 0.494001
vt 0.140013 0.492668
vt 0.076319 0.087521
vt 0.074754 0.088293
vt 0.075348 0.089111
vt 0.761629 0.154071
vt 0.762264 0.153198
vt 0.760317 0.152720
vt 0.789078 0.064570
vt 0.060810 0.308411
vt 0.497186 0.125696
vt 0.495579 0.124858
vt 0.495259 0.126006
vt 0.286106 0.741938
vt 0.289379 0.744500
vt 0.289560 0.743410
vt 0.447356 0.106574
vt 0.449745 0.106723
vt 0.450280 0.105663
vt 0.061621 0.340152
vt 0.688748 0.889215
vt 0.691599 0.888874
vt 0.693505 0.887678
vt 0.875567 0.462641
vt 0.876054 0.464258
vt 0.878175 0.464589
vt 0.944067 0.144989
vt 0.944686 0.142552
vt 0.943968 0.143040
vt 0.969818 0.094678
vt 0.971382 0.093934
vt 0.969362 0.094220
vt 0.786523 0.086216
vt 0.785969 0.083573
vt 0.785355 0.084349
vt 0.495642 0.102075
vt 0.496586 0.100974
vt 0.493952 0.101039
vt 0.708762 0.074439
vt 0.707911 0.073370
vt 0.707028 0.074371
vt 0.615312 0.444728
vt 0.614543 0.443960
vt 0.455595 0.978336
vt 0.455366 0.974464
vt 0.453416 0.977853
vt 0.890905 0.410763
vt 0.889474 0.412481
vt 0.890316 0.412028
vt 0.557642 0.366762
vt 0.556919 0.365432
vt 0.138742 0.953805
vt 0.138543 0.952135
vt 0.157194 0.516057
vt 0.155940 0.514592
vt 0.158228 0.517347
vt 0.413435 0.706409
vt 0.412483 0.704237
vt 0.240762 0.418133
vt 0.379125 0.877117
vt 0.380608 0.873910
vt 0.378789 0.875902
vt 0.702265 0.071543
vt 0.703578 0.070699
vt 0.702254 0.070094
vt 0.355746 0.428376
vt 0.354093 0.429622
vt 0.358104 0.430846
vt 0.258732 0.260830
vt 0.257287 0.259919
vt 0.255855 0.260694
vt 0.063625 0.341187
vt 0.063399 0.342522
vt 0.745987 0.038407
vt 0.745820 0.044586
vt 0.591384 0.829977
vt 0.589949 0.830818
vt 0.590944 0.831650
vt 0.347200 0.377601
vt 0.005764 0.102637
vt 0.006533 0.101412
vt 0.005151 0.100854
vt 0.006123 0.100658
vt 0.813026 0.725625
vt 0.813888 0.724814
vt 0.234971 0.417284
vt 0.236804 0.418232
vt 0.238163 0.418511
vt 0.238797 0.417005
vt 0.488419 0.185033
vt 0.283657 0.290880
vt 0.282198 0.291942
vt 0.732285 0.476407
vt 0.730847 0.475801
vt 0.731594 0.478738
vt 0.349151 0.364985
vt 0.077967 0.416139
vt 0.077271 0.414785
vt 0.076315 0.415061
vt 0.789864 0.526047
vt 0.793197 0.526609
vt 0.792126 0.525909
vt 0.453834 0.360071
vt 0.467157 0.467034
vt 0.059935 0.306779
vt 0.059691 0.305447
vt 0.681620 0.145826
vt 0.683489 0.145600
vt 0.680855 0.144961
vt 0.983603 0.334271
vt 0.528363 0.047417
vt 0.527866 0.048514
vt 0.528739 0.049130
vt 0.719703 0.438432
vt 0.718686 0.433973
vt 0.559276 0.914618
vt 0.558266 0.917168
vt 0.765606 0.582328
vt 0.765429 0.579586
vt 0.765203 0.580674
vt 0.062857 0.309879
vt 0.150545 0.521114
vt 0.607996 0.548867
vt 0.610216 0.550889
vt 0.257361 0.858738
vt 0.257661 0.860362
vt 0.907391 0.378025
vt 0.906955 0.380484
vt 0.908537 0.381648
vt 0.908276 0.378013
vt 0.837910 0.070646
vt 0.836410 0.069514
vt 0.836460 0.070745
vt 0.167078 0.884939
vt 0.717416 0.438865
vt 0.718569 0.438006
vt 0.070814 0.717714
vt 0.072677 0.718063
vt 0.071949 0.715732
vt 0.508837 0.811976
vt 0.507633 0.811250
vt 0.748932 0.271594
vt 0.747561 0.269523
vt 0.747488 0.271003
vt 0.460075 0.355663
vt 0.461086 0.355599
vt 0.257251 0.435616
vt 0.256309 0.434420
vt 0.749426 0.650558
vt 0.747926 0.651960
vt 0.750002 0.652212
vt 0.911807 0.925618
vt 0.909765 0.926226
vt 0.911267 0.927520
vt 0.910251 0.924646
vt 0.428766 0.524462
vt 0.713164 0.438325
vt 0.763830 0.478166
vt 0.764742 0.478844
vt 0.617795 0.587367
vt 0.617519 0.589240
vt 0.618733 0.591314
vt 0.145738 0.490285
vt 0.741949 0.589190
vt 0.742765 0.587055
vt 0.740807 0.586991
vt 0.151148 0.512976
vt 0.460522 0.987221
vt 0.459678 0.985850
vt 0.915246 0.330657
vt 0.915779 0.335232
vt 0.916551 0.333088
vt 0.235570 0.410385
vt 0.468037 0.159479
vt 0.466709 0.160078
vt 0.466566 0.160445
vt 0.467069 0.160374
vt 0.893943 0.731624
vt 0.893487 0.731632
vt 0.240339 0.405017
vt 0.258280 0.150881
vt 0.259896 0.151522
vt 0.260386 0.150872
vt 0.260023 0.150556
vt 0.173394 0.335537
vt 0.174335 0.336178
vt 0.174248 0.335583
vt 0.922537 0.566076
vt 0.921561 0.566601
vt 0.921428 0.567485
vt 0.921677 0.567649
vt 0.380568 0.585192
vt 0.393951 0.918297
vt 0.396866 0.922597
vt 0.396494 0.918808
vt 0.396319 0.918325
vt 0.397652 0.920754
vt 0.466374 0.362309
vt 0.466652 0.362331
vt 0.249545 0.709591
vt 0.378330 0.590063
vt 0.534306 0.113178
vt 0.534096 0.113105
vt 0.533990 0.113406
vt 0.649841 0.454820
vt 0.649535 0.454778
vt 0.649331 0.456539
vt 0.282974 0.195731
vt 0.283308 0.195042
vt 0.282636 0.195554
vt 0.282485 0.195899
vt 0.466731 0.414332
vt 0.466871 0.414299
vt 0.466061 0.413468
vt 0.285301 0.294309
vt 0.287319 0.294156
vt 0.288095 0.293980
vt 0.288591 0.293204
vt 0.102690 0.934267
vt 0.103506 0.934941
vt 0.104349 0.933379
vt 0.292940 0.287481
vn 0.2259 0.6714 0.7059
vn 0.7306 0.0233 0.6824
vn 0.8952 0.3197 0.3105
vn 0.1607 -0.0093 0.9870
vn 0.1553 0.1230 0.9802
vn 0.2898 0.5891 0.7543
vn -0.0767 0.9039 0.4207
vn 0.4279 0.0927 0.8990
vn 0.1476 0.9763 -0.1582
vn 0.0352 -0.9972 0.0660
vn -0.0528 -0.9955 0.0791
vn 0.4548 -0.3476 0.8199
vn -0.1835 -0.2035 -0.9617
vn -0.0752 0.4975 -0.8642
vn 0.0429 0.5592 -0.8279
vn -0.0177 0.9992 0.0347
vn -0.1627 0.9832 -0.0832
vn -0.1525 0.9875 -0.0392
vn 0.4122 0.8697 0.2717
vn 0.1226 0.4421 0.8886
vn 0.1937 0.3253 0.9255
vn 0.1508 0.9882 0.0256
vn 0.0523 0.6442 -0.7631
vn -0.2106 0.2890 -0.9339
vn 0.0224 0.9839 0.1775
vn 0.0111 0.9886 -0.1501
vn -0.4507 0.5195 -0.7260
vn -0.0477 0.9978 -0.0460
vn -0.5505 0.4246 -0.7188
vn -0.7620 0.3811 -0.5236
vn -0.0291 0.9983 -0.0495
vn 0.2041 0.8018 0.5617
vn 0.4518 -0.6266 0.6350
vn 0.2533 0.8042 0.5377
vn -0.6004 -0.2012 -0.7740
vn -0.7742 -0.0888 -0.6267
vn -0.6839 -0.3428 -0.6440
vn -0.3630 -0.6772 -0.6400
vn -0.3144 0.9357 -0.1601
vn -0.4088 0.9060 -0.1101
vn -0.2397 0.9529 -0.1858
vn 0.2220 -0.7439 -0.6303
vn 0.3331 -0.9005 -0.2794
vn -0.2733 -0.2300 -0.9340
vn -0.2570 -0.9572 -0.1328
vn 0.2695 -0.7549 0.5979
vn 0.2606 -0.7838 0.5637
vn 0.0292 -0.8946 0.4460
vn -0.0996 -0.9371 0.3347
vn -0.2108 -0.9025 0.3754
vn -0.6607 0.4759 -0.5805
vn -0.2696 0.4750 -0.8377
vn -0.3948 0.8188 -0.4168
vn -0.4757 0.1626 0.8644
vn -0.4448 0.3667 0.8171
vn 0.5780 -0.5412 0.6107
vn -0.1904 0.9407 0.2809
vn -0.1062 0.9825 0.1533
vn 0.1341 0.9049 -0.4040
vn 0.0663 0.9702 -0.2329
vn 0.1909 0.9806 0.0437
vn -0.1303 0.9724 -0.1934
vn -0.0483 0.9954 -0.0823
vn 0.5758 0.7682 0.2800
vn 0.3241 0.8295 0.4549
vn 0.8570 -0.3103 0.4115
vn 0.4899 -0.7069 0.5101
vn 0.5047 -0.6843 0.5264
vn 0.0187 0.8690 -0.4944
vn 0.1737 0.8023 -0.5711
vn -0.0168 0.9931 -0.1157
vn 0.5624 -0.0857 -0.8224
vn 0.5317 -0.0916 -0.8420
vn -0.1476 -0.2051 -0.9675
vn 0.1759 -0.7440 -0.6446
vn -0.4186 0.0818 -0.9045
vn 0.2465 0.4196 0.8736
vn 0.0987 -0.4248 0.8999
vn 0.1893 -0.7588 0.6232
vn 0.2306 -0.8408 0.4898
vn 0.0629 -0.9542 0.2926
vn 0.1859 -0.8426 0.5054
vn 0.2210 -0.6730 0.7059
vn 0.2492 -0.7819 0.5715
vn 0.1523 -0.8330 0.5320
vn -0.1356 0.9775 -0.1617
vn -0.0668 0.9849 -0.1599
vn -0.0494 -0.9971 0.0577
vn 0.0607 -0.9700 0.2356
vn 0.0283 -0.9462 0.3223
vn 0.0780 0.9173 0.3904
vn 0.0116 0.9370 0.3492
vn -0.2684 -0.2331 0.9347
vn 0.0200 0.9854 -0.1693
vn 0.2192 0.9724 -0.0805
vn -0.0147 0.9813 0.1919
vn -0.3485 -0.4742 -0.8085
vn -0.1587 0.3692 -0.9157
vn -0.1221 -0.5529 -0.8242
vn 0.1983 -0.7797 0.5939
vn 0.2520 -0.7903 0.5585
vn 0.1912 -0.8765 0.4417
vn 0.6796 0.7321 -0.0467
vn 0.7014 0.6687 -0.2466
vn 0.2391 0.9710 0.0085
vn 0.1062 0.0435 0.9934
vn 0.1674 0.1829 0.9688
vn 0.1283 -0.8429 0.5225
vn 0.0759 -0.9093 0.4092
vn 0.1786 -0.7897 0.5869
vn 0.6865 -0.3628 0.6302
vn 0.1119 0.6266 0.7713
vn -0.0545 0.9984 -0.0174
vn 0.6777 -0.5331 0.5065
vn 0.2302 -0.5637 0.7933
vn 0.1769 -0.5862 0.7906
vn -0.0452 0.9990 -0.0031
vn 0.0926 0.9783 0.1852
vn 0.2379 -0.5446 0.8043
vn 0.1445 -0.8793 0.4539
vn -0.3804 -0.9232 -0.0539
vn -0.1432 -0.5273 -0.8375
vn 0.1332 -0.9797 -0.1501
vn -0.1481 0.9870 0.0632
vn 0.0758 0.9837 -0.1629
vn 0.1740 -0.8773 0.4472
vn 0.0904 -0.9086 0.4076
vn 0.0608 -0.8070 0.5874
vn -0.4037 -0.5801 -0.7075
vn -0.0036 -0.9889 -0.1486
vn 0.0290 0.9745 0.2227
vn 0.0538 -0.0727 0.9959
vn -0.1935 -0.2404 0.9512
vn -0.1839 -0.9809 0.0639
vn 0.0033 -0.9968 0.0795
vn -0.0695 -0.9922 0.1037
vn 0.0596 -0.9464 0.3173
vn -0.0381 0.1251 0.9914
vn 0.2197 -0.3375 0.9153
vn 0.5852 -0.4440 0.6785
vn 0.3777 -0.8252 0.4199
vn 0.1760 -0.8303 0.5288
vn 0.1417 -0.8825 0.4484
vn 0.4408 -0.5354 0.7205
vn 0.4624 -0.7488 0.4749
vn 0.3900 -0.9165 0.0889
vn -0.4096 0.2689 -0.8717
vn -0.1425 0.5313 -0.8351
vn -0.3812 0.7070 -0.5956
vn -0.4259 0.6589 -0.6200
vn 0.1579 -0.9111 0.3806
vn -0.3489 -0.4340 -0.8306
vn -0.2989 0.5303 -0.7934
vn -0.1290 -0.9916 0.0121
vn -0.0221 -0.9779 0.2077
vn -0.5949 0.1439 -0.7908
vn -0.5055 -0.8471 0.1640
vn -0.3372 0.6169 -0.7111
vn 0.2264 -0.7026 0.6746
vn 0.1875 0.8179 0.5439
vn 0.5295 -0.8306 0.1725
vn -0.2255 -0.5065 -0.8322
vn -0.2258 -0.5256 -0.8202
vn -0.0045 -0.9943 -0.1066
vn -0.0066 0.9999 0.0154
vn -0.3096 0.9492 -0.0567
vn -0.2158 -0.9293 -0.2998
vn -0.0201 0.9183 0.3954
vn -0.0331 0.8895 0.4558
vn 0.3082 -0.8011 0.5131
vn 0.2053 -0.7730 0.6003
vn 0.0011 -0.7219 -0.6920
vn 0.3439 0.3692 0.8634
vn -0.1618 0.8508 -0.4999
vn -0.1378 0.9759 -0.1694
vn -0.2900 0.5335 -0.7946
vn -0.1913 0.6462 -0.7388
vn 0.0065 0.9347 -0.3553
vn 0.9762 0.2134 -0.0390
vn 0.9290 0.3565 -0.0999
vn 0.4845 0.8710 0.0813
vn 0.5006 0.8213 0.2734
vn 0.0375 0.9913 0.1262
vn -0.2058 0.9780 -0.0330
vn -0.1364 0.9904 -0.0244
vn -0.0359 0.9742 0.2227
vn -0.1852 -0.9355 -0.3008
vn -0.2555 -0.8413 0.4765
vn 0.2212 -0.7626 0.6079
vn 0.2747 -0.5828 0.7648
vn 0.3233 -0.4835 0.8135
vn 0.3831 -0.4120 0.8267
vn 0.4094 0.4547 0.7910
vn -0.0174 -0.9568 0.2902
vn -0.0085 -0.9287 0.3707
vn -0.0531 0.9607 0.2724
vn -0.1277 0.9914 0.0290
vn -0.0536 0.9976 -0.0436
vn -0.3465 0.8100 -0.4731
vn -0.1410 0.9823 -0.1230
vn 0.2537 0.9620 0.1015
vn -0.1529 0.9557 -0.2517
vn -0.1886 -0.5069 -0.8411
vn -0.1374 0.5369 -0.8324
vn -0.2947 -0.3481 -0.8899
vn -0.1175 -0.4651 -0.8774
vn -0.1415 -0.8294 -0.5404
vn -0.1178 -0.4521 -0.8842
vn 0.2909 -0.7060 0.6457
vn 0.1008 0.9470 0.3049
vn 0.0622 0.9005 0.4304
vn -0.1491 -0.5849 -0.7973
vn -0.1050 -0.5001 -0.8596
vn -0.2435 -0.4045 -0.8815
vn 0.1323 -0.2492 0.9594
vn 0.1003 0.3422 0.9343
vn 0.4109 0.7707 0.4871
vn 0.1860 0.8813 0.4343
vn 0.0040 0.9902 -0.1396
vn 0.2001 -0.8356 0.5116
vn 0.2092 -0.5881 0.7812
vn 0.1252 0.9879 -0.0913
vn 0.1983 0.9761 0.0888
vn -0.3854 0.7392 -0.5523
vn -0.1046 -0.6794 -0.7263
vn 0.1342 -0.5573 -0.8194
vn -0.0479 -0.9930 -0.1079
vn 0.2502 0.5352 0.8068
vn 0.5685 0.0432 0.8215
vn 0.1169 -0.9465 0.3009
vn -0.1449 -0.9851 -0.0923
vn 0.4669 -0.4758 0.7454
vn 0.1386 -0.4994 0.8552
vn 0.0311 -0.9939 0.1061
vn 0.4050 -0.3542 0.8429
vn 0.0038 -0.9547 0.2976
vn 0.4564 -0.6257 0.6326
vn 0.4726 -0.1918 0.8602
vn 0.0828 -0.9962 -0.0286
vn -0.1520 -0.8856 0.4388
vn 0.6092 -0.4957 0.6190
vn -0.1068 -0.9494 0.2955
vn -0.0543 0.9811 -0.1860
vn 0.2869 0.9546 -0.0799
vn 0.2214 -0.5029 0.8355
vn 0.4125 -0.9109 0.0114
vn 0.4727 -0.4724 0.7439
vn 0.3458 -0.8927 0.2888
vn -0.1060 0.9943 -0.0140
vn 0.1574 0.7949 0.5860
vn 0.0422 0.9969 0.0658
vn -0.2542 -0.3227 -0.9117
vn -0.1561 -0.3059 -0.9392
vn -0.2443 -0.3162 -0.9167
vn -0.0306 -0.9928 0.1161
vn -0.0564 -0.9817 0.1819
vn -0.0744 0.5719 -0.8169
vn 0.1306 -0.9269 0.3518
vn -0.1498 0.9879 0.0403
vn 0.0421 0.8372 -0.5452
vn 0.1651 -0.9438 -0.2862
vn 0.1590 -0.7818 0.6029
vn 0.1140 -0.8936 0.4342
vn 0.0088 -0.8196 0.5728
vn -0.1460 0.4333 -0.8894
vn -0.3392 0.3622 -0.8682
vn -0.1909 -0.5765 -0.7945
vn -0.3243 -0.5366 -0.7790
vn -0.2203 -0.4148 -0.8828
vn -0.0359 -0.9480 -0.3163
vn 0.0006 -0.3116 -0.9502
vn -0.1910 0.1834 -0.9643
vn -0.1836 0.2874 -0.9400
vn -0.2615 0.9574 0.1226
vn -0.2805 -0.9598 0.0011
vn -0.8182 0.5176 -0.2502
vn -0.6775 0.6188 -0.3976
vn 0.0923 -0.6283 0.7725
vn 0.1304 -0.8306 0.5414
vn -0.0085 0.9820 0.1887
vn 0.0821 0.8585 0.5063
vn 0.0771 0.8979 -0.4333
vn -0.0873 0.4051 -0.9101
vn 0.2054 0.9765 -0.0647
vn -0.8521 0.0571 -0.5203
vn -0.2524 -0.0139 -0.9675
vn -0.6672 0.1423 -0.7311
vn 0.1529 -0.8556 0.4946
vn -0.1003 -0.8566 -0.5061
vn -0.0444 -0.9897 0.1359
vn -0.1231 -0.7459 -0.6545
vn -0.1556 0.9878 0.0086
vn -0.0324 0.9800 0.1965
vn -0.1354 -0.5635 -0.8149
vn -0.2327 -0.7563 -0.6115
vn 0.1638 -0.9603 0.2260
vn 0.1728 0.5442 0.8210
vn 0.2678 -0.7668 0.5834
vn -0.2024 -0.4607 -0.8641
vn 0.4826 -0.0773 -0.8724
vn 0.4357 0.8027 0.4073
vn 0.4437 -0.3133 0.8397
vn 0.3892 -0.1642 0.9064
vn 0.3692 0.4612 0.8069
vn 0.3668 -0.9301 0.0189
vn 0.0006 -0.8189 -0.5740
vn 0.2555 0.9662 0.0357
vn -0.3241 0.7544 -0.5708
vn -0.1160 0.8274 -0.5495
vn -0.1369 -0.9657 -0.2208
vn -0.2193 -0.4552 -0.8630
vn -0.1068 -0.9383 0.3288
vn -0.0016 -0.9945 0.1052
vn -0.4181 -0.8837 -0.2103
vn 0.2327 -0.6713 0.7037
vn -0.2944 0.2366 -0.9259
vn -0.3152 0.7409 -0.5931
vn 0.4904 -0.1219 -0.8629
vn 0.8408 -0.4734 0.2626
vn 0.7443 -0.2700 0.6109
vn 0.1599 -0.3946 0.9048
vn 0.8106 0.5497 -0.2019
vn 0.0503 0.9080 -0.4159
vn -0.0008 -0.4182 0.9084
vn 0.1143 0.9484 0.2959
vn 0.1743 -0.8269 -0.5347
vn -0.6436 0.5902 -0.4873
vn -0.4596 0.4417 -0.7705
vn 0.1692 -0.4212 0.8910
vn 0.3588 -0.3075 0.8813
vn 0.0633 0.1714 0.9832
vn 0.2005 0.9694 -0.1415
vn 0.6944 0.6287 0.3500
vn 0.1026 -0.9134 -0.3940
vn -0.1611 -0.3307 -0.9299
vn -0.2518 -0.5110 -0.8219
vn -0.0420 0.7395 -0.6719
vn -0.1585 -0.3685 -0.9160
vn 0.3013 0.4905 0.8177
vn 0.3515 0.5773 0.7370
vn -0.1466 0.9831 0.1092
vn -0.1375 0.9905 0.0004
vn 0.6353 -0.5960 0.4912
vn -0.0614 -0.9961 0.0639
vn 0.2608 -0.7585 0.5971
vn 0.0242 -0.9619 0.2724
vn 0.3051 0.8987 0.3149
vn -0.3040 0.5447 -0.7816
vn 0.2531 -0.1038 0.9618
vn -0.6173 -0.0284 0.7862
vn -0.5099 -0.0993 0.8545
vn -0.3842 0.0528 0.9218
vn -0.0888 -0.4510 -0.8881
vn -0.8187 0.4878 -0.3029
vn -0.7763 0.3166 -0.5451
vn 0.1222 0.9871 -0.1032
vn 0.0387 0.9947 0.0953
vn 0.0373 -0.2615 -0.9645
vn 0.0143 0.9899 0.1407
vn -0.1809 -0.2914 0.9393
vn -0.6052 -0.7623 0.2293
vn 0.2573 -0.9423 -0.2139
vn -0.4078 -0.9130 -0.0117
vn 0.8206 -0.5425 0.1799
vn 0.8667 -0.4988 0.0099
vn 0.8852 0.0176 0.4649
vn 0.9993 -0.0355 0.0137
vn 0.9865 -0.1326 -0.0956
vn 0.9854 -0.1630 -0.0492
vn -0.5977 -0.7634 -0.2449
vn -0.7380 -0.4782 -0.4761
vn -0.3353 -0.2699 -0.9026
vn 0.8698 0.3899 0.3024
vn 0.2110 0.2803 0.9365
vn -0.5073 -0.8148 -0.2806
vn 0.6383 -0.6259 -0.4480
vn 0.9143 -0.3942 0.0935
vn 0.5389 -0.2662 -0.7992
vn 0.5654 -0.2003 -0.8001
vn -0.7194 -0.3529 -0.5983
vn -0.7488 -0.4298 -0.5045
vn -0.0909 0.3485 0.9329
vn 0.7706 -0.1572 0.6176
vn 0.5335 -0.2445 -0.8097
vn -0.4624 0.3232 0.8257
vn -0.2793 0.7001 0.6572
vn -0.3106 -0.0152 0.9504
vn -0.3592 -0.7119 -0.6035
vn 0.5198 -0.1815 -0.8348
vn 0.4949 0.5372 -0.6831
vn 0.5344 0.0882 -0.8406
vn -0.7937 -0.1629 -0.5860
vn -0.6456 -0.7617 -0.0546
vn -0.8141 0.5188 -0.2609
vn -0.6348 -0.0460 0.7713
vn -0.6781 0.6913 -0.2497
vn -0.6518 0.7574 -0.0392
vn -0.6644 0.0600 0.7449
vn -0.6324 -0.0354 0.7739
usemtl sungaya_inexpectata_31mg
s 1
f 210/1/1 211/2/2 283/3/3
f 28/4/4 27/5/5 26/6/6
f 23/7/7 218/8/8 8/9/9
f 37/10/10 39/11/11 38/12/12
f 253/13/13 49/14/14 48/15/15
f 98/16/16 54/17/17 106/18/18
f 106/18/18 55/19/19 98/16/16
f 205/20/20 58/21/21 277/22/22
f 332/23/23 51/24/24 50/25/25
f 67/26/26 69/27/27 68/28/28
f 94/29/29 19/30/30 150/31/31
f 74/32/32 76/33/33 75/34/34
f 82/35/35 83/36/36 30/37/37
f 82/35/35 30/37/37 31/38/38
f 94/39/29 30/40/37 83/41/36
f 186/42/39 103/43/40 92/44/41
f 107/45/42 109/46/43 108/47/44
f 224/48/45 114/49/46 307/50/47
f 179/51/48 115/52/49 263/53/50
f 119/54/51 120/55/52 132/56/53
f 122/57/54 384/58/55 123/59/56
f 119/60/51 132/61/53 131/62/57
f 131/63/57 121/64/58 119/65/51
f 134/66/59 304/67/60 36/68/61
f 150/69/31 85/70/62 294/71/63
f 133/72/64 306/73/65 134/74/59
f 81/75/66 140/76/67 77/77/68
f 25/78/69 13/79/70 317/80/71
f 358/81/72 348/82/73 4/83/74
f 138/84/75 83/36/36 137/85/76
f 159/86/77 160/87/78 104/88/79
f 166/89/80 112/90/81 167/91/82
f 148/92/83 42/93/84 56/94/85
f 180/95/86 92/96/41 152/97/87
f 127/98/88 129/99/89 165/100/90
f 192/101/91 245/102/92 193/103/93
f 190/104/94 197/105/95 196/106/96
f 173/107/97 198/108/98 287/109/99
f 2/110/100 139/111/101 3/112/102
f 366/113/103 355/114/104 200/115/105
f 27/116/5 101/117/106 20/118/107
f 29/119/108 90/120/109 214/121/110
f 76/33/33 203/122/111 75/34/34
f 75/123/34 203/124/111 161/125/112
f 147/126/113 23/127/7 8/128/9
f 161/129/112 203/130/111 96/131/114
f 161/129/112 96/131/114 205/132/20
f 99/133/115 148/92/83 207/134/116
f 25/135/69 274/136/117 208/137/118
f 281/138/119 214/139/110 72/140/120
f 216/141/121 184/142/122 217/143/123
f 120/144/52 298/145/124 335/146/125
f 218/147/8 35/148/126 213/149/127
f 218/147/8 64/150/128 35/148/126
f 116/151/129 162/152/130 166/153/80
f 88/154/131 11/155/132 228/156/133
f 217/157/123 207/134/116 216/158/121
f 232/159/134 155/160/135 250/161/136
f 243/162/137 193/163/93 236/164/138
f 290/165/139 237/166/140 80/167/141
f 290/165/139 80/167/141 135/168/142
f 214/169/110 90/170/109 238/171/143
f 241/172/144 14/173/145 240/174/146
f 328/175/147 103/176/40 244/177/148
f 208/178/118 45/179/149 70/180/150
f 154/181/151 250/161/136 155/160/135
f 49/182/14 223/183/152 242/184/153
f 251/185/154 127/186/88 126/187/155
f 253/13/13 255/188/156 254/189/157
f 98/16/16 55/19/19 257/190/158
f 2/191/100 10/192/159 139/193/101
f 192/194/91 252/195/160 317/196/71
f 240/197/146 14/198/145 199/199/161
f 256/200/162 171/201/163 270/202/164
f 239/203/165 103/204/40 124/205/166
f 16/206/167 224/207/45 223/208/152
f 201/209/168 124/210/166 295/211/169
f 57/212/170 104/213/79 99/133/115
f 89/214/171 151/215/172 307/216/47
f 122/57/54 101/217/106 34/218/173
f 274/219/117 316/220/174 275/221/175
f 277/222/22 279/223/176 278/224/177
f 280/225/178 277/226/22 278/227/177
f 353/228/179 369/229/180 24/230/181 283/231/3
f 283/231/3 24/230/181 266/232/182
f 145/233/183 91/234/184 9/235/185
f 164/236/186 88/237/131 245/238/92
f 5/239/187 179/240/48 43/241/188
f 249/242/189 286/243/190 248/244/191
f 124/210/166 103/43/40 186/42/39
f 7/245/192 38/246/12 100/247/193
f 11/248/132 238/249/143 228/250/133
f 126/251/155 191/252/194 251/253/154
f 83/36/36 138/84/75 19/254/30
f 112/255/81 111/256/195 167/257/82
f 40/258/196 41/259/197 160/260/78
f 246/261/198 1/262/199 93/263/200
f 291/264/201 156/265/202 85/266/62
f 208/267/118 70/268/150 25/269/69
f 170/270/203 157/271/204 52/272/205
f 29/119/108 281/273/119 89/274/171
f 227/275/206 231/276/207 32/277/208
f 10/278/159 259/279/209 139/280/101
f 284/281/210 246/282/198 292/283/211
f 185/284/212 326/285/213 184/286/122
f 313/287/214 120/55/52 170/270/203
f 20/288/107 202/289/215 105/290/216
f 202/291/215 241/292/144 105/293/216
f 22/294/217 290/295/139 102/296/218
f 319/297/219 294/298/63 152/299/87
f 78/300/220 104/301/79 258/302/221
f 243/162/137 29/303/108 89/304/171
f 36/68/61 133/305/64 134/306/59
f 97/307/222 21/308/223 102/309/218
f 72/310/120 238/249/143 11/248/132
f 284/281/210 226/311/224 332/312/23
f 196/313/96 197/314/95 332/312/23
f 127/315/88 165/316/90 126/317/155
f 198/318/98 212/319/225 153/320/226
f 42/321/84 135/322/142 331/323/227
f 56/324/85 42/321/84 331/323/227
f 144/325/228 260/326/229 210/327/1
f 114/328/46 128/329/230 154/330/151
f 45/331/149 242/332/153 223/333/152
f 199/334/161 241/335/144 240/197/146
f 117/336/231 272/337/232 293/338/233
f 221/339/234 220/340/235 299/341/236
f 159/342/77 23/343/7 9/344/185
f 192/101/91 220/345/235 252/346/160
f 81/347/66 300/348/237 303/349/238
f 83/350/36 82/351/35 116/352/129
f 105/290/216 306/353/65 20/288/107
f 235/354/239 281/355/119 33/356/240
f 158/357/241 39/358/11 172/359/242
f 104/213/79 160/360/78 99/133/115
f 316/361/174 25/362/69 317/363/71
f 287/364/99 256/200/162 270/202/164
f 153/365/226 256/200/162 287/364/99
f 319/366/219 152/97/87 308/367/243
f 266/232/182 24/230/181 163/368/244
f 281/138/119 72/369/120 136/370/245
f 272/371/232 7/245/192 100/247/193
f 228/372/133 90/373/109 236/374/138
f 123/375/56 309/376/246 261/377/247
f 58/378/21 205/132/20 310/379/248
f 74/380/32 46/381/249 209/382/250
f 74/383/32 161/384/112 46/385/249
f 97/386/222 98/16/16 95/387/251
f 53/388/252 6/389/253 337/390/254
f 149/391/255 112/392/81 110/393/256
f 230/394/257 274/136/117 275/395/175
f 71/396/258 221/339/234 243/162/137
f 150/397/31 67/398/26 85/399/62
f 147/126/113 15/400/259 23/127/7
f 315/401/260 239/402/165 200/403/105
f 271/404/261 80/405/141 199/406/161
f 128/407/230 17/408/262 2/409/100
f 117/410/231 127/186/88 251/185/154
f 318/411/263 213/412/127 249/242/189
f 150/31/31 294/413/63 319/414/219
f 271/415/261 331/416/227 135/417/142
f 301/418/264 77/419/68 5/420/187
f 64/421/128 218/422/8 23/423/7
f 308/367/243 92/96/41 187/424/265
f 92/96/41 308/367/243 152/97/87
f 321/425/266 322/426/267 320/427/268
f 322/428/267 256/429/162 320/430/268
f 289/431/269 33/432/240 181/433/270
f 174/434/271 175/435/272 324/436/273
f 161/129/112 205/132/20 273/437/274
f 89/438/171 281/439/119 330/440/275
f 385/441/276 378/442/277 304/443/60
f 249/444/189 325/445/278 125/446/279
f 292/447/211 246/448/198 142/449/280
f 143/450/281 292/451/211 142/449/280
f 54/17/17 91/234/184 106/18/18
f 175/452/272 79/453/282 324/454/273
f 118/455/283 79/456/282 21/457/223
f 21/457/223 79/456/282 282/458/284
f 395/459/285 177/460/286 392/461/287
f 159/86/77 104/88/79 63/462/288
f 158/463/241 115/464/49 140/465/67
f 269/466/289 113/467/290 206/468/291
f 73/469/292 93/470/200 262/471/293
f 168/472/294 323/473/295 339/474/296
f 281/439/119 29/475/108 214/169/110
f 41/476/197 98/16/16 65/477/297
f 98/16/16 102/478/218 65/477/297
f 102/479/218 98/480/16 97/481/222
f 86/482/298 135/168/142 42/483/84
f 295/484/169 124/485/166 186/486/39
f 302/487/299 271/488/261 174/489/271
f 348/82/73 354/490/300 4/83/74
f 26/491/6 36/492/61 44/493/301
f 33/494/240 136/495/245 182/496/302
f 318/497/263 311/498/303 72/499/120
f 311/500/303 125/501/279 72/502/120
f 237/503/140 290/504/139 22/505/217
f 80/506/141 237/507/140 199/508/161
f 293/509/233 272/371/232 285/510/304
f 18/511/305 309/512/246 276/513/306
f 101/117/106 202/514/215 20/118/107
f 84/515/307 291/516/201 305/517/308
f 305/518/308 291/519/201 85/520/62
f 270/521/164 148/92/83 56/94/85
f 129/522/89 3/523/102 139/524/101
f 139/524/101 165/525/90 129/522/89
f 130/526/309 68/527/28 275/528/175
f 67/398/26 68/527/28 130/526/309
f 54/17/17 41/476/197 40/529/196
f 307/530/47 60/531/310 224/532/45
f 120/55/52 178/533/311 289/431/269
f 120/55/52 289/431/269 132/56/53
f 42/534/84 160/535/78 86/536/298
f 110/537/256 141/538/312 172/539/242
f 282/540/284 306/541/65 21/542/223
f 128/543/230 129/544/89 183/545/313
f 43/241/188 179/240/48 263/546/50
f 263/547/50 327/548/314 43/549/188
f 35/550/126 78/300/220 189/551/315
f 189/551/315 78/300/220 258/302/221
f 34/552/173 101/553/106 28/554/4
f 231/555/207 141/556/312 269/557/289
f 94/39/29 83/41/36 19/558/30
f 167/559/82 259/560/209 166/561/80
f 110/562/256 172/563/242 149/564/255
f 54/565/17 98/566/16 41/567/197
f 103/568/40 188/569/316 92/570/41
f 189/571/315 258/572/221 57/212/170
f 183/545/313 129/544/89 310/573/248
f 332/574/23 197/575/95 284/576/210
f 130/577/309 264/578/317 46/579/249
f 275/528/175 264/580/317 130/526/309
f 258/572/221 104/213/79 57/212/170
f 256/581/162 212/319/225 320/582/268
f 183/583/313 250/584/136 154/585/151
f 167/586/82 191/587/194 165/525/90
f 165/588/90 191/589/194 126/590/155
f 354/490/300 370/591/318 53/592/252 4/83/74
f 216/141/121 171/593/163 184/142/122
f 51/594/24 185/595/212 322/596/267
f 16/597/167 254/598/157 10/599/159
f 367/600/319 356/601/320 300/602/237
f 333/603/321 102/296/218 290/295/139
f 357/604/322 200/605/105 355/606/104
f 13/607/70 335/608/125 12/609/323
f 97/386/222 118/455/283 21/457/223
f 23/127/7 15/400/259 9/610/185
f 130/611/309 46/612/249 273/613/274
f 299/614/236 220/615/235 193/616/93
f 94/29/29 150/31/31 319/414/219
f 293/338/233 66/617/324 127/618/88
f 293/338/233 127/618/88 117/336/231
f 132/619/53 143/620/281 131/63/57
f 58/378/21 285/510/304 342/621/325
f 66/622/324 285/510/304 58/378/21
f 84/623/307 342/621/325 285/510/304
f 164/624/186 335/146/125 298/145/124
f 89/438/171 330/625/275 151/626/172
f 199/199/161 14/198/145 18/511/305
f 199/199/161 18/511/305 219/627/326
f 314/628/327 334/629/328 30/40/37
f 23/423/7 159/630/77 64/421/128
f 92/631/41 188/632/316 187/633/265
f 135/634/142 80/635/141 271/636/261
f 195/637/329 204/638/330 144/639/228
f 181/433/270 168/472/294 289/431/269
f 323/473/295 168/472/294 181/433/270
f 154/181/151 155/160/135 71/640/258
f 71/640/258 155/160/135 221/641/234
f 114/642/46 224/643/45 16/597/167
f 197/105/95 190/104/94 8/644/9
f 267/645/331 93/646/200 8/647/9
f 8/648/9 93/649/200 1/650/199
f 197/651/95 8/652/9 247/653/332
f 247/653/332 8/652/9 1/654/199
f 345/655/333 366/113/103 200/115/105 24/656/181
f 24/657/181 200/658/105 239/659/165
f 24/660/181 239/402/165 163/661/244
f 150/662/31 69/663/27 67/398/26
f 269/557/289 141/556/312 113/664/290
f 31/665/38 162/152/130 82/666/35
f 82/666/35 162/152/130 116/151/129
f 141/667/312 115/668/49 172/669/242
f 263/670/50 115/668/49 141/667/312
f 186/671/39 92/672/41 156/265/202
f 276/513/306 219/673/326 18/511/305
f 324/674/273 118/675/283 302/487/299
f 174/489/271 324/674/273 302/487/299
f 103/176/40 315/676/260 244/177/148
f 239/203/165 315/677/260 103/204/40
f 184/678/122 326/679/213 329/680/334
f 168/681/294 329/680/334 326/679/213
f 329/680/334 217/682/123 184/678/122
f 299/614/236 243/683/137 221/641/234
f 93/684/200 267/685/331 262/686/293
f 149/391/255 191/687/194 112/392/81
f 191/688/194 111/689/195 112/690/81
f 114/691/46 154/181/151 307/692/47
f 276/693/306 174/694/271 219/695/326
f 276/696/306 336/697/335 174/698/271
f 237/166/140 241/335/144 199/334/161
f 128/699/230 2/700/100 129/701/89
f 129/702/89 2/703/100 3/704/102
f 20/705/107 306/706/65 133/707/64
f 27/708/5 20/705/107 133/707/64
f 225/709/336 132/56/53 168/472/294
f 225/709/336 297/710/337 132/56/53
f 168/472/294 296/711/338 225/709/336
f 100/247/193 38/246/12 47/712/339
f 21/713/223 312/714/340 22/715/217
f 85/266/62 156/265/202 294/716/63
f 249/717/189 311/498/303 318/497/263
f 249/718/189 125/719/279 311/720/303
f 164/236/186 87/721/341 88/237/131
f 312/722/340 306/353/65 105/290/216
f 48/15/15 255/188/156 253/13/13
f 11/723/132 88/237/131 87/724/341
f 73/725/292 11/723/132 87/724/341
f 336/726/335 175/727/272 174/694/271
f 177/728/286 175/729/272 336/730/335
f 149/731/255 117/336/231 251/732/154
f 33/733/240 182/734/302 181/735/270
f 317/736/71 13/737/70 194/738/342
f 338/739/343 323/740/295 181/741/270
f 326/285/213 296/711/338 168/472/294
f 232/159/134 203/742/111 233/743/344
f 160/744/78 42/745/84 99/746/115
f 42/747/84 148/92/83 99/133/115
f 203/742/111 183/545/313 96/748/114
f 281/355/119 136/749/245 33/356/240
f 157/271/204 70/750/150 52/272/205
f 157/271/204 170/270/203 120/55/52
f 5/420/187 77/419/68 179/751/48
f 268/752/345 35/550/126 189/753/315
f 91/234/184 54/17/17 40/754/196
f 304/67/60 44/493/301 36/492/61
f 268/755/345 189/571/315 286/756/190
f 189/571/315 339/757/296 286/756/190
f 286/758/190 339/759/296 340/760/346
f 340/761/346 248/762/191 286/756/190
f 108/763/44 48/15/15 230/764/257
f 108/763/44 255/188/156 48/15/15
f 108/763/44 254/189/157 255/188/156
f 295/765/169 144/766/228 201/767/168
f 172/359/242 115/768/49 158/357/241
f 115/464/49 179/51/48 140/465/67
f 260/769/229 81/75/66 211/770/2
f 140/771/67 81/772/66 260/773/229
f 14/774/145 202/289/215 261/775/247
f 134/776/59 306/777/65 282/778/284
f 107/779/42 166/153/80 259/780/209
f 264/781/317 341/782/347 46/783/249
f 159/784/77 9/785/185 40/786/196
f 201/787/168 163/788/244 124/789/166
f 127/186/88 310/573/248 129/544/89
f 45/790/149 223/208/152 60/791/310
f 224/207/45 60/791/310 223/208/152
f 88/154/131 236/792/138 245/793/92
f 171/201/163 185/284/212 184/286/122
f 275/794/175 316/795/174 264/796/317
f 28/4/4 101/217/106 27/5/5
f 270/521/164 207/134/116 148/92/83
f 103/797/40 328/798/147 188/799/316
f 176/800/348 175/727/272 177/460/286
f 86/801/298 288/802/349 65/803/297
f 160/804/78 65/803/297 288/802/349
f 41/476/197 65/477/297 160/805/78
f 383/806/350 399/807/351 391/808/352 34/552/173
f 208/809/118 274/810/117 48/811/15
f 48/812/15 242/813/153 208/137/118
f 291/814/201 295/815/169 156/816/202
f 186/817/39 156/818/202 295/819/169
f 207/820/116 57/821/170 99/822/115
f 117/336/231 37/10/10 7/823/192
f 4/83/74 53/592/252 59/824/353
f 322/596/267 321/825/266 51/594/24
f 159/826/77 40/827/196 160/828/78
f 218/829/8 267/830/331 8/831/9
f 313/287/214 170/270/203 52/272/205
f 33/832/240 289/833/269 178/834/311
f 117/410/231 149/564/255 37/835/10
f 11/836/132 262/837/293 267/838/331
f 173/839/97 271/840/261 302/841/299
f 388/842/354 176/843/348 375/844/355
f 253/845/13 16/846/167 223/847/152
f 253/13/13 223/848/152 49/14/14
f 175/849/272 176/850/348 79/851/282
f 176/850/348 134/852/59 79/851/282
f 230/853/257 48/854/15 274/855/117
f 178/834/311 313/856/214 33/832/240
f 8/647/9 190/857/94 147/858/113
f 25/859/69 316/860/174 274/861/117
f 118/862/283 95/863/251 198/864/98
f 238/249/143 90/373/109 228/250/133
f 243/683/137 236/374/138 90/373/109
f 29/865/108 243/866/137 90/867/109
f 321/868/266 320/869/268 257/870/158
f 257/871/158 320/872/268 212/873/225
f 257/874/158 212/319/225 198/318/98
f 171/201/163 216/875/121 270/202/164
f 216/158/121 207/134/116 270/521/164
f 249/876/189 248/877/191 325/878/278
f 110/537/256 112/879/81 113/880/290
f 318/881/263 267/882/331 213/149/127
f 72/883/120 267/882/331 318/881/263
f 337/884/254 59/824/353 53/592/252
f 249/242/189 213/412/127 286/243/190
f 213/412/127 268/752/345 286/243/190
f 35/885/126 268/886/345 213/887/127
f 284/888/210 197/105/95 247/889/332
f 25/890/69 70/891/150 169/892/356
f 236/893/138 193/103/93 245/102/92
f 230/894/257 275/895/175 68/896/28
f 190/857/94 196/897/96 15/898/259
f 147/126/113 190/899/94 15/400/259
f 130/611/309 273/613/274 229/900/357
f 154/901/151 71/396/258 307/902/47
f 89/304/171 307/902/47 71/396/258
f 244/903/148 222/904/358 328/905/147
f 112/906/81 166/907/80 162/908/130
f 19/254/30 138/84/75 137/85/76
f 106/18/18 257/190/158 55/19/19
f 321/909/266 257/910/158 146/911/359
f 257/190/158 106/18/18 146/912/359
f 106/18/18 91/234/184 146/912/359
f 91/234/184 145/233/183 146/912/359
f 386/913/360 380/914/361 123/375/56
f 40/754/196 9/235/185 91/234/184
f 94/915/29 314/916/327 30/37/37
f 4/83/74 59/824/353 222/904/358
f 5/917/187 343/918/362 301/919/264
f 235/920/239 33/832/240 313/856/214
f 123/921/56 265/922/363 309/923/246
f 136/924/245 72/925/120 125/926/279
f 297/927/337 225/928/336 226/929/224
f 395/930/285 375/931/355 176/800/348 177/460/286
f 193/932/93 220/933/235 192/934/91
f 363/935/364 301/936/264 349/937/365
f 330/938/275 235/939/239 313/287/214
f 14/774/145 241/940/144 202/289/215
f 364/941/366 365/942/367 303/349/238
f 365/943/367 344/944/368 81/945/66 303/946/238
f 352/947/369 353/948/179 283/949/3 211/950/2
f 344/951/368 352/952/369 211/953/2 81/954/66
f 107/955/42 259/956/209 10/957/159
f 109/958/43 107/959/42 10/960/159
f 394/961/370 381/962/371 276/513/306
f 198/108/98 153/963/226 287/109/99
f 18/511/305 14/198/145 309/512/246
f 14/774/145 261/775/247 309/964/246
f 30/965/37 61/966/372 31/967/38
f 334/968/328 61/969/372 30/970/37
f 260/773/229 204/971/330 140/771/67
f 246/448/198 73/972/292 142/449/280
f 131/973/57 143/974/281 142/975/280
f 73/976/292 131/973/57 142/975/280
f 25/977/69 169/978/356 13/979/70
f 371/980/373 345/981/333 24/982/181
f 369/983/180 371/984/373 24/985/181
f 210/1/1 283/3/3 266/986/182
f 70/750/150 45/987/149 52/272/205
f 52/272/205 45/987/149 60/988/310
f 182/734/302 325/989/278 248/762/191
f 182/734/302 248/762/191 340/761/346
f 108/990/44 109/991/43 254/992/157
f 109/958/43 10/993/159 254/994/157
f 334/995/328 187/996/265 61/997/372
f 187/998/265 334/999/328 308/1000/243
f 291/1001/201 84/1002/307 100/1003/193
f 98/16/16 257/190/158 95/387/251
f 62/1004/374 209/1005/250 252/1006/160
f 210/1/1 260/773/229 211/2/2
f 280/225/178 130/611/309 277/1007/22
f 280/1008/178 67/398/26 130/526/309
f 227/275/206 187/996/265 188/1009/316
f 227/275/206 32/277/208 187/996/265
f 265/1010/363 389/1011/375 309/1012/246
f 313/287/214 52/272/205 330/1013/275
f 69/1014/27 150/1015/31 19/1016/30
f 156/1017/202 92/1018/41 180/1019/86
f 112/1020/81 162/1021/130 113/1022/290
f 110/1023/256 113/1024/290 141/1025/312
f 50/25/25 196/1026/96 332/23/23
f 77/77/68 301/1027/264 300/1028/237
f 350/1029/376 347/1030/377 343/1031/362
f 359/1032/378 350/1029/376 343/1031/362 5/1033/187
f 360/1034/379 359/1035/378 5/1036/187 6/1037/253
f 325/1038/278 182/734/302 136/1039/245
f 325/1038/278 136/1039/245 125/1040/279
f 62/1041/374 155/160/135 232/159/134
f 155/160/135 62/1041/374 221/641/234
f 373/1042/380 336/726/335 397/1043/381
f 144/1044/228 295/1045/169 47/1046/339
f 234/1047/382 74/383/32 209/1048/250
f 281/355/119 235/354/239 330/1049/275
f 198/1050/98 173/1051/97 118/1052/283
f 22/294/217 312/722/340 237/1053/140
f 272/1054/232 117/336/231 7/823/192
f 253/1055/13 254/992/157 16/1056/167
f 59/824/353 328/905/147 222/904/358
f 231/1057/207 337/1058/254 327/1059/314
f 72/1060/120 214/169/110 238/171/143
f 32/1061/208 269/1062/289 206/1063/291
f 32/1061/208 231/1057/207 269/1062/289
f 100/247/193 295/1064/169 291/1065/201
f 47/712/339 295/1064/169 100/247/193
f 84/515/307 305/517/308 279/1066/176
f 341/1067/347 264/1068/317 316/1069/174
f 16/1070/167 10/1071/159 2/1072/100
f 16/597/167 2/1073/100 17/1074/262
f 52/272/205 151/1075/172 330/1013/275
f 12/1076/323 164/1077/186 194/1078/342
f 164/236/186 245/1079/92 194/1080/342
f 121/1081/58 87/1082/341 298/1083/124
f 140/771/67 204/971/330 158/1084/241
f 339/474/296 323/473/295 340/1085/346
f 207/1086/116 217/1087/123 57/1088/170
f 51/1089/24 326/1090/213 185/1091/212
f 121/64/58 73/725/292 87/724/341
f 131/1092/57 73/1093/292 121/1094/58
f 49/1095/14 242/1096/153 48/1097/15
f 94/1098/29 319/366/219 314/1099/327
f 118/1100/283 173/1101/97 302/1102/299
f 219/1103/326 271/1104/261 199/1105/161
f 21/713/223 306/1106/65 312/714/340
f 17/1107/262 114/1108/46 16/1109/167
f 17/1110/262 128/1111/230 114/1112/46
f 208/1113/118 242/1114/153 45/1115/149
f 194/1080/342 192/1116/91 317/1117/71
f 12/1118/323 194/1119/342 13/1120/70
f 326/285/213 51/1121/24 332/1122/23
f 310/573/248 96/748/114 183/545/313
f 277/1123/22 229/1124/357 205/1125/20
f 229/1124/357 273/1126/274 205/1125/20
f 326/285/213 332/1122/23 296/711/338
f 296/711/338 332/1122/23 226/1127/224
f 296/711/338 226/1127/224 225/709/336
f 89/1128/171 71/640/258 243/683/137
f 154/1129/151 128/1130/230 183/583/313
f 356/1131/320 346/1132/383 303/349/238 300/348/237
f 140/1133/67 179/1134/48 77/77/68
f 60/1135/310 307/1136/47 151/1137/172
f 360/1138/379 6/1139/253 351/1140/384
f 72/310/120 11/248/132 267/1141/331
f 331/1142/227 173/1143/97 287/1144/99
f 271/488/261 173/1143/97 331/1142/227
f 338/1145/343 182/1146/302 340/1147/346
f 338/1148/343 181/1149/270 182/1150/302
f 63/1151/288 104/1152/79 78/1153/220
f 312/722/340 241/940/144 237/1053/140
f 105/290/216 241/940/144 312/722/340
f 124/205/166 163/1154/244 239/1155/165
f 201/1156/168 266/1157/182 163/1158/244
f 201/1159/168 210/1160/1 266/1161/182
f 277/1162/22 130/1163/309 229/1164/357
f 342/1165/325 277/1166/22 58/1167/21
f 209/1168/250 317/1169/71 252/346/160
f 379/1170/385 34/218/173 391/1171/352
f 379/1170/385 122/57/54 34/218/173
f 75/34/34 161/1172/112 74/32/32
f 127/186/88 66/1173/324 310/573/248
f 310/379/248 66/1174/324 58/378/21
f 236/1175/138 88/237/131 228/1176/133
f 398/1177/386 372/1178/387 44/1179/301
f 335/1180/125 157/1181/204 120/1182/52
f 230/764/257 69/1183/27 137/85/76
f 69/1183/27 19/254/30 137/85/76
f 315/1184/260 222/1185/358 244/1186/148
f 76/1187/33 234/1188/382 233/1189/344
f 203/1190/111 76/1187/33 233/1189/344
f 74/1191/32 234/1192/382 76/1193/33
f 7/1194/192 37/1195/10 38/1196/12
f 384/58/55 386/1197/360 123/59/56
f 153/365/226 212/1198/225 256/200/162
f 299/614/236 193/1199/93 243/683/137
f 66/622/324 293/509/233 285/510/304
f 282/1200/284 79/1201/282 134/306/59
f 43/1202/188 327/1203/314 215/1204/388
f 5/1205/187 43/1206/188 215/1207/388
f 46/381/249 161/1208/112 273/1126/274
f 280/1209/178 278/1210/177 85/1211/62
f 67/1212/26 280/1213/178 85/1214/62
f 77/1215/68 300/348/237 81/347/66
f 206/1216/291 31/1217/38 61/997/372
f 187/996/265 206/1216/291 61/997/372
f 206/1218/291 113/1022/290 162/1021/130
f 162/1021/130 31/1219/38 206/1218/291
f 187/996/265 32/277/208 206/1216/291
f 246/1220/198 284/281/210 247/1221/332
f 1/1222/199 246/1223/198 247/1224/332
f 290/1225/139 135/1226/142 333/1227/321
f 135/168/142 86/482/298 333/1228/321
f 232/159/134 233/743/344 62/1229/374
f 78/1153/220 35/148/126 64/150/128
f 63/1151/288 78/1153/220 64/150/128
f 139/1230/101 167/1231/82 165/1232/90
f 167/1233/82 139/1234/101 259/1235/209
f 160/1236/78 288/1237/349 86/1238/298
f 149/564/255 39/1239/11 37/835/10
f 172/563/242 39/1239/11 149/564/255
f 270/1240/164 56/1241/85 331/1242/227
f 331/1243/227 287/1244/99 270/1245/164
f 65/803/297 333/603/321 86/801/298
f 65/1246/297 102/1247/218 333/1248/321
f 36/1249/61 26/1250/6 133/1251/64
f 95/1252/251 257/1253/158 198/1254/98
f 143/1255/281 297/1256/337 292/1257/211
f 132/1258/53 297/1259/337 143/1260/281
f 246/448/198 93/1261/200 73/1262/292
f 11/1263/132 73/1264/292 262/1265/293
f 84/1266/307 279/1267/176 342/1268/325
f 294/1269/63 156/1270/202 152/97/87
f 156/1271/202 180/1272/86 152/299/87
f 341/1273/347 317/1274/71 209/1005/250
f 46/1275/249 341/1273/347 209/1005/250
f 341/1276/347 316/1277/174 317/80/71
f 227/275/206 337/884/254 231/1278/207
f 227/275/206 59/824/353 337/884/254
f 279/1279/176 305/1280/308 278/1281/177
f 278/1282/177 305/1283/308 85/1284/62
f 261/775/247 122/57/54 123/59/56
f 196/1285/96 50/1286/25 145/233/183
f 145/233/183 15/1287/259 196/1285/96
f 195/1288/329 158/1289/241 204/1290/330
f 195/1291/329 39/1239/11 158/1292/241
f 195/1293/329 144/1294/228 47/712/339
f 231/1295/207 327/1296/314 263/1297/50
f 141/556/312 231/555/207 263/1298/50
f 121/1299/58 298/1300/124 119/1301/51
f 298/1300/124 120/1302/52 119/1301/51
f 60/1135/310 151/1303/172 52/1304/205
f 5/1305/187 215/1306/388 6/1139/253
f 215/1306/388 327/1307/314 337/1308/254
f 6/389/253 215/1309/388 337/390/254
f 116/151/129 166/153/80 107/779/42
f 27/1310/5 133/1311/64 26/6/6
f 120/1312/52 313/1313/214 178/1314/311
f 111/1315/195 191/587/194 167/586/82
f 251/1316/154 191/1317/194 149/1318/255
f 107/1319/42 108/1320/44 137/1321/76
f 137/85/76 108/763/44 230/764/257
f 174/489/271 271/488/261 219/1322/326
f 272/371/232 100/247/193 285/510/304
f 84/623/307 285/510/304 100/247/193
f 252/346/160 220/345/235 62/1323/374
f 62/1324/374 220/1325/235 221/641/234
f 185/1326/212 171/1327/163 322/1328/267
f 322/428/267 171/1329/163 256/429/162
f 9/235/185 15/1287/259 145/233/183
f 188/1009/316 328/905/147 59/824/353
f 59/824/353 227/275/206 188/1009/316
f 157/1330/204 13/1331/70 169/1332/356
f 335/146/125 13/1333/70 157/1334/204
f 70/180/150 157/1335/204 169/1336/356
f 38/246/12 195/1293/329 47/712/339
f 218/147/8 213/149/127 267/882/331
f 205/1337/20 96/1338/114 310/1339/248
f 233/743/344 234/1340/382 62/1229/374
f 62/1004/374 234/1341/382 209/1005/250
f 201/209/168 144/1342/228 210/1343/1
f 260/1344/229 144/1345/228 204/638/330
f 329/1346/334 168/1347/294 339/1348/296
f 329/1346/334 339/1348/296 189/1349/315
f 57/1350/170 329/1351/334 189/1352/315
f 102/1353/218 21/713/223 22/715/217
f 335/146/125 164/1354/186 12/1355/323
f 340/1356/346 323/1357/295 338/1358/343
f 203/742/111 232/159/134 250/161/136
f 183/545/313 203/742/111 250/161/136
f 261/1359/247 202/1360/215 101/117/106
f 38/1361/12 39/1362/11 195/1363/329
f 261/775/247 101/217/106 122/57/54
f 324/1364/273 79/1365/282 118/675/283
f 107/1366/42 137/85/76 116/1367/129
f 137/85/76 83/36/36 116/1367/129
f 97/1368/222 95/1369/251 118/1370/283
f 145/1371/183 321/1372/266 146/1373/359
f 145/1371/183 50/1374/25 321/1372/266
f 51/594/24 321/825/266 50/1375/25
f 87/1376/341 164/624/186 298/145/124
f 69/27/27 230/1377/257 68/1378/28
f 342/1379/325 279/1380/176 277/1381/22
f 289/431/269 168/472/294 132/56/53
f 292/283/211 297/1382/337 226/311/224
f 284/281/210 292/283/211 226/311/224
f 314/1383/327 308/1384/243 334/1385/328
f 314/1099/327 319/366/219 308/367/243
f 192/1386/91 194/1080/342 245/1079/92
f 64/421/128 159/1387/77 63/1388/288
f 217/1389/123 329/1390/334 57/1391/170
f 6/1139/253 53/592/252 370/591/318 368/1392/389
f 301/1393/264 363/1394/364 367/1395/319 300/1396/237
f 315/1184/260 361/1397/390 362/1398/391 222/1185/358
f 222/904/358 362/1399/391 358/81/72 4/83/74
f 315/1400/260 200/1401/105 357/1402/322 361/1403/390
f 6/1404/253 368/1405/389 351/1406/384
f 301/1407/264 343/1408/362 347/1409/377 349/1410/365
f 303/349/238 346/1132/383 364/941/366
f 359/1032/378 360/1138/379 351/1406/384 368/1392/389 370/591/318 354/490/300 348/82/73 358/81/72 362/1398/391 361/1403/390 357/604/322 355/114/104 366/113/103 345/981/333 371/984/373 369/229/180 353/948/179 352/952/369 344/944/368 365/942/367 364/941/366 346/1132/383 356/601/320 367/1395/319 363/935/364 349/1410/365 347/1030/377 350/1029/376
f 177/460/286 393/1411/392 392/461/287
f 276/1412/306 309/1413/246 390/1414/393 394/1415/370
f 309/1413/246 389/1416/375 390/1414/393
f 176/850/348 388/1417/354 387/1418/394 134/852/59
f 134/852/59 387/1418/394 385/441/276 304/443/60
f 34/552/173 28/554/4 396/1419/395 383/806/350
f 336/726/335 276/693/306 381/1420/371 397/1043/381
f 304/1421/60 378/1422/277 382/1423/396
f 304/1424/60 382/1425/396 376/1426/397
f 44/1427/301 304/1428/60 376/1429/397 398/1430/386
f 123/1431/56 380/1432/361 265/1433/363
f 44/1434/301 377/1435/398 374/1436/399 26/6/6
f 28/4/4 26/6/6 374/1436/399 396/1437/395
f 177/460/286 336/726/335 373/1042/380 393/1411/392
f 44/1438/301 372/1439/387 377/1440/398
f 386/913/360 384/58/55 380/1432/361
f 397/1043/381 393/1411/392 373/1042/380
f 393/1411/392 395/930/285 392/461/287
f 395/930/285 388/1417/354 375/844/355
f 388/1417/354 395/930/285 387/1418/394
f 387/1418/394 395/930/285 385/441/276
f 385/441/276 377/1435/398 378/1422/277
f 378/1422/277 377/1435/398 382/1425/396
f 382/1425/396 377/1435/398 376/1429/397
f 376/1429/397 372/1439/387 398/1177/386
f 377/1435/398 372/1439/387 376/1429/397
f 377/1435/398 385/441/276 374/1436/399
f 374/1436/399 385/441/276 396/1419/395
f 383/806/350 385/441/276 399/1441/351
f 396/1419/395 385/441/276 383/806/350
f 393/1411/392 379/1170/385 395/930/285
f 395/930/285 379/1170/385 391/1171/352 385/441/276
f 381/1420/371 379/1170/385 397/1043/381
f 397/1043/381 379/1170/385 393/1411/392
f 390/1414/393 381/1420/371 394/961/370
f 380/1432/361 122/57/54 265/1010/363
f 265/1010/363 379/1170/385 389/1416/375
f 389/1416/375 379/1170/385 390/1414/393
f 390/1414/393 379/1170/385 381/1420/371
f 379/1170/385 265/1010/363 122/57/54
f 122/57/54 380/1432/361 384/58/55
f 385/441/276 391/1171/352 399/1441/351
