# Blender v2.79 (sub 0) OBJ File: 'redo_fixed_360_joints.blend'
# www.blender.org
mtllib sungaya_inexpectata_31mg.mtl
o 25-m-l-claws.000_Sungaya_inexpectata_31mg.060
v -0.000305 -0.000117 -0.000078
v -0.000496 -0.000000 -0.000140
v -0.000474 -0.000107 -0.000237
v -0.000122 0.000055 0.000061
v 0.000602 -0.000038 0.000177
v 0.000627 0.000007 0.000281
v 0.000470 -0.000038 0.000155
v 0.000481 0.000095 0.000172
v 0.000497 0.000075 0.000244
v 0.000003 0.000076 0.000091
v -0.000024 0.000071 -0.000001
v -0.000485 -0.000157 -0.000136
v -0.000442 -0.000195 -0.000222
v -0.000475 -0.000214 -0.000178
v -0.000245 0.000064 -0.000114
v -0.000489 0.000088 -0.000286
v 0.000230 -0.000005 0.000001
v -0.000361 0.000037 -0.000195
v 0.000404 0.000012 0.000236
v -0.000234 0.000004 0.000073
v 0.000615 0.000103 0.000242
v 0.000129 0.000077 0.000058
v 0.000336 -0.000018 0.000016
v -0.000318 0.000080 -0.000027
v 0.000352 0.000055 -0.000003
v 0.000208 0.000050 -0.000010
v 0.000600 0.000098 0.000129
v 0.000222 -0.000071 0.000043
v 0.000503 0.000081 0.000099
v -0.000341 -0.000021 -0.000218
v -0.000335 -0.000044 -0.000217
v -0.000390 -0.000121 -0.000177
v -0.000465 -0.000187 -0.000245
v 0.000012 -0.000060 0.000084
v -0.000007 -0.000061 -0.000009
v 0.000110 0.000046 0.000156
v 0.000284 -0.000026 0.000181
v 0.000493 0.000053 0.000045
v 0.000257 0.000043 0.000180
v -0.000466 0.000117 -0.000276
v -0.000469 0.000076 -0.000336
v -0.000380 -0.000024 -0.000298
v 0.000567 -0.000014 0.000075
v 0.000077 -0.000012 -0.000046
v -0.000127 -0.000056 0.000071
v -0.000190 -0.000048 -0.000107
v -0.000280 -0.000074 0.000006
v -0.000473 0.000011 -0.000067
v -0.000470 -0.000036 -0.000056
v 0.000023 -0.000012 0.000153
v 0.000280 0.000092 0.000080
v -0.000404 0.000043 -0.000242
v -0.000446 0.000102 -0.000197
v 0.000468 -0.000051 0.000089
v 0.000202 -0.000070 0.000098
v -0.000415 -0.000155 -0.000134
v -0.000142 0.000061 -0.000034
v 0.000589 0.000039 0.000053
v -0.000380 0.000049 -0.000019
v 0.000153 -0.000008 0.000163
v 0.000372 0.000099 0.000179
v -0.000503 -0.000000 -0.000372
v 0.000003 0.000031 -0.000050
v -0.000402 -0.000069 -0.000031
v -0.000479 0.000151 -0.000199
v -0.000189 -0.000107 -0.000022
v -0.000115 0.000023 -0.000103
v -0.000470 -0.000077 -0.000352
v -0.000422 0.000097 -0.000135
v -0.000403 -0.000057 -0.000344
v -0.000467 -0.000272 -0.000222
v 0.000665 -0.000038 0.000180
v 0.000632 0.000018 0.000284
v 0.000636 0.000092 0.000267
v 0.000677 -0.000029 0.000144
v 0.000632 0.000008 0.000284
v 0.000643 0.000102 0.000246
v 0.000635 0.000004 0.000275
v 0.000674 0.000096 0.000150
v 0.000630 0.000079 0.000286
v 0.000664 0.000099 0.000180
v 0.000686 0.000007 0.000112
v 0.000632 0.000006 0.000283
v 0.000690 0.000031 0.000100
v 0.000679 0.000066 0.000135
v 0.000671 -0.000041 0.000160
vt 0.483002 0.499841
vt 0.485718 0.500596
vt 0.485026 0.503107
vt 0.216629 0.734456
vt 0.215571 0.737096
vt 0.213231 0.735917
vt 0.018478 0.753494
vt 0.018487 0.751974
vt 0.022160 0.751872
vt 0.622799 0.338234
vt 0.625122 0.335371
vt 0.626365 0.336434
vt 0.914469 0.738124
vt 0.913708 0.739476
vt 0.913456 0.737718
vt 0.596375 0.837148
vt 0.595504 0.837439
vt 0.595753 0.836571
vt 0.579125 0.851281
vt 0.580686 0.852366
vt 0.581461 0.856369
vt 0.678807 0.554086
vt 0.677967 0.552757
vt 0.680594 0.548915
vt 0.602978 0.575847
vt 0.604848 0.571962
vt 0.604467 0.574810
vt 0.433557 0.140335
vt 0.434298 0.139814
vt 0.435117 0.141935
vt 0.575268 0.857064
vt 0.571831 0.856647
vt 0.573281 0.855894
vt 0.031782 0.663432
vt 0.033834 0.665482
vt 0.033950 0.667779
vt 0.941018 0.184034
vt 0.940549 0.183155
vt 0.941596 0.182410
vt 0.247837 0.724139
vt 0.248866 0.722499
vt 0.251603 0.724759
vt 0.684810 0.766945
vt 0.681442 0.767859
vt 0.687026 0.764694
vt 0.500692 0.780335
vt 0.503170 0.777587
vt 0.500307 0.781461
vt 0.221437 0.861389
vt 0.220015 0.863510
vt 0.219407 0.862996
vt 0.072181 0.569859
vt 0.073441 0.571507
vt 0.072162 0.571076
vt 0.286094 0.199014
vt 0.283347 0.198230
vt 0.285018 0.198088
vt 0.570549 0.855323
vt 0.568045 0.858804
vt 0.566991 0.854869
vt 0.621935 0.714164
vt 0.620334 0.711089
vt 0.621895 0.710648
vt 0.470279 0.105670
vt 0.472891 0.105126
vt 0.472209 0.106587
vt 0.494176 0.760010
vt 0.497008 0.760989
vt 0.494419 0.763028
vt 0.263104 0.671326
vt 0.262594 0.673078
vt 0.260396 0.669839
vt 0.732616 0.538330
vt 0.734655 0.537927
vt 0.733604 0.538833
vt 0.956166 0.220576
vt 0.956036 0.219116
vt 0.957646 0.220239
vt 0.768744 0.492921
vt 0.767825 0.492505
vt 0.769914 0.492115
vt 0.769981 0.492380
vt 0.023069 0.754042
vt 0.186357 0.141766
vt 0.185507 0.140362
vt 0.187145 0.141116
vt 0.597442 0.577357
vt 0.601480 0.574690
vt 0.162111 0.905202
vt 0.163951 0.903462
vt 0.165113 0.906195
vt 0.079345 0.815549
vt 0.082111 0.814057
vt 0.080391 0.816437
vt 0.681779 0.765713
vt 0.684271 0.763723
vt 0.349330 0.139054
vt 0.349571 0.140509
vt 0.347441 0.139892
vt 0.219471 0.811519
vt 0.222234 0.812815
vt 0.218879 0.813164
vt 0.654914 0.995562
vt 0.656612 0.997085
vt 0.655210 0.997911
vt 0.612550 0.145394
vt 0.611224 0.146940
vt 0.610490 0.145948
vt 0.346095 0.079604
vt 0.347410 0.079829
vt 0.346460 0.080676
vt 0.831280 0.181042
vt 0.839101 0.180801
vt 0.834894 0.182407
vt 0.033712 0.824093
vt 0.030765 0.823913
vt 0.033249 0.822893
vt 0.227254 0.445796
vt 0.228183 0.443870
vt 0.228408 0.445065
vt 0.136659 0.703775
vt 0.138889 0.705466
vt 0.137161 0.707232
vt 0.362022 0.277599
vt 0.367115 0.275519
vt 0.364458 0.279738
vt 0.771058 0.870810
vt 0.771381 0.872134
vt 0.769876 0.872549
vt 0.248369 0.529768
vt 0.248322 0.529771
vt 0.248336 0.529742
vt 0.361449 0.275018
vt 0.360219 0.275736
vt 0.359730 0.274338
vt 0.339285 0.080194
vt 0.339522 0.081430
vt 0.338100 0.082365
vt 0.246396 0.279960
vt 0.247089 0.280757
vt 0.245970 0.281472
vt 0.358840 0.288756
vt 0.362890 0.286718
vt 0.360364 0.289804
vt 0.842018 0.183555
vt 0.839138 0.182655
vt 0.187399 0.082933
vt 0.186538 0.084855
vt 0.185786 0.083107
vt 0.062844 0.824861
vt 0.066118 0.822666
vt 0.064713 0.824288
vt 0.062832 0.825120
vt 0.481638 0.498505
vt 0.484127 0.504494
vt 0.481036 0.498818
vt 0.853592 0.183939
vt 0.852304 0.185877
vt 0.850644 0.183117
vt 0.846606 0.183906
vt 0.139461 0.703392
vt 0.650065 0.991614
vt 0.584904 0.858670
vt 0.584114 0.856845
vt 0.364421 0.282710
vt 0.361848 0.284357
vt 0.263883 0.675552
vt 0.264723 0.673576
vt 0.264637 0.675233
vt 0.655113 0.624681
vt 0.654034 0.623178
vt 0.655794 0.624394
vt 0.359435 0.286345
vt 0.510822 0.145065
vt 0.512289 0.146909
vt 0.511448 0.146947
vt 0.762358 0.145588
vt 0.761074 0.145932
vt 0.762505 0.144322
vt 0.942899 0.040243
vt 0.942671 0.041620
vt 0.941792 0.040191
vt 0.358393 0.296526
vt 0.356031 0.299047
vt 0.356738 0.295566
vt 0.059785 0.840587
vt 0.060799 0.840789
vt 0.059795 0.841659
vt 0.277319 0.944053
vt 0.275168 0.944667
vt 0.274700 0.942986
vt 0.356631 0.292452
vt 0.359772 0.290398
vt 0.277305 0.972247
vt 0.278686 0.970873
vt 0.278509 0.972081
vt 0.613241 0.276266
vt 0.614652 0.273858
vt 0.616475 0.274566
vt 0.614189 0.276464
vt 0.890301 0.264473
vt 0.890877 0.263720
vt 0.891449 0.265091
vt 0.415997 0.885963
vt 0.417353 0.887937
vt 0.412344 0.885373
vt 0.550293 0.395628
vt 0.551764 0.395145
vt 0.551539 0.395988
vt 0.621254 0.722496
vt 0.623824 0.724028
vt 0.622465 0.725051
vt 0.519470 0.183705
vt 0.519595 0.185311
vt 0.518077 0.185467
vt 0.706729 0.184227
vt 0.705298 0.182749
vt 0.707936 0.183468
vt 0.689728 0.765774
vt 0.686582 0.767211
vt 0.366932 0.277663
vt 0.214828 0.294262
vt 0.216944 0.294745
vt 0.212876 0.295541
vt 0.830626 0.183418
vt 0.215691 0.296140
vt 0.061683 0.838741
vt 0.756007 0.192282
vt 0.755125 0.193944
vt 0.753504 0.193931
vt 0.915387 0.737638
vt 0.622502 0.720268
vt 0.623354 0.716983
vt 0.373432 0.395949
vt 0.372269 0.395552
vt 0.372577 0.394913
vt 0.076401 0.057795
vt 0.077407 0.056835
vt 0.078318 0.058327
vt 0.754154 0.150778
vt 0.755334 0.152315
vt 0.752897 0.151704
vt 0.752753 0.150642
vt 0.325702 0.344722
vt 0.323874 0.344938
vt 0.325221 0.344162
vt 0.828701 0.178907
vt 0.832921 0.178849
vt 0.862790 0.578981
vt 0.859868 0.580257
vt 0.860319 0.578690
vt 0.902348 0.689475
vt 0.901321 0.689866
vt 0.900243 0.686932
vt 0.701581 0.179287
vt 0.704148 0.179205
vt 0.703424 0.180369
vt 0.131178 0.880542
vt 0.134747 0.882581
vt 0.133980 0.883339
vt 0.905414 0.324616
vt 0.903135 0.326195
vt 0.905845 0.323428
vt 0.081897 0.071231
vt 0.080857 0.070259
vt 0.082470 0.069248
vt 0.503559 0.775644
vt 0.502605 0.776469
vt 0.712071 0.510074
vt 0.711844 0.509332
vt 0.713092 0.509361
vt 0.247944 0.725782
vt 0.753014 0.271511
vt 0.751024 0.270558
vt 0.752671 0.270269
vt 0.750900 0.269668
vt 0.942296 0.183446
vt 0.030415 0.822912
vt 0.030329 0.821574
vt 0.091643 0.077590
vt 0.092145 0.079007
vt 0.090249 0.077781
vt 0.844194 0.181637
vt 0.705982 0.387042
vt 0.706761 0.390254
vt 0.704164 0.387395
vt 0.429275 0.726421
vt 0.426351 0.727134
vt 0.427803 0.725731
vt 0.335658 0.022347
vt 0.336615 0.022221
vt 0.336302 0.023935
vt 0.826230 0.180781
vt 0.299778 0.157960
vt 0.299362 0.156734
vt 0.300428 0.155568
vt 0.083778 0.445086
vt 0.082211 0.446017
vt 0.083463 0.444743
vt 0.847087 0.181409
vt 0.845088 0.180061
vt 0.847511 0.180870
vt 0.825340 0.180745
vt 0.824909 0.181792
vt 0.874100 0.985738
vt 0.873217 0.986903
vt 0.872468 0.984997
vt 0.606768 0.575972
vt 0.680109 0.767016
vt 0.658733 0.998771
vt 0.657556 0.998191
vt 0.353316 0.297122
vt 0.904042 0.696634
vt 0.905353 0.695568
vt 0.905418 0.698912
vt 0.604937 0.579382
vt 0.650086 0.616686
vt 0.652864 0.618989
vt 0.652634 0.621162
vt 0.361088 0.289352
vt 0.361312 0.291081
vt 0.809386 0.926864
vt 0.809006 0.928252
vt 0.808356 0.927327
vt 0.493387 0.761664
vt 0.636997 0.110540
vt 0.638591 0.109259
vt 0.638956 0.110413
vt 0.521013 0.660665
vt 0.519964 0.660171
vt 0.521059 0.659593
vt 0.026638 0.541384
vt 0.025536 0.539879
vt 0.026387 0.539488
vt 0.211626 0.899119
vt 0.208453 0.899874
vt 0.211786 0.898218
vt 0.207831 0.898271
vt 0.895372 0.334906
vt 0.894521 0.335507
vt 0.892693 0.334699
vt 0.891902 0.332940
vt 0.768363 0.493154
vt 0.768035 0.493468
vt 0.534446 0.843179
vt 0.534453 0.843033
vt 0.534526 0.843176
vt 0.063855 0.825246
vt 0.002542 0.586384
vt 0.000948 0.587446
vt 0.000990 0.586483
vt 0.001820 0.586330
vt 0.625655 0.334760
vt 0.628213 0.332283
vt 0.626090 0.332290
vt 0.626218 0.332151
vt 0.626476 0.332148
vt 0.141939 0.735451
vt 0.143581 0.735231
vt 0.143785 0.737302
vt 0.143648 0.737480
vn -0.0422 -0.9530 0.3000
vn -0.2150 -0.5825 0.7839
vn -0.0359 -0.9380 0.3447
vn -0.0278 -0.9503 0.3100
vn 0.0042 -0.9338 0.3578
vn 0.1514 -0.8861 -0.4380
vn -0.0701 0.9963 -0.0500
vn 0.1414 0.4798 -0.8659
vn 0.1002 0.5232 -0.8463
vn -0.2434 -0.3350 0.9102
vn -0.1412 0.6665 0.7320
vn 0.6549 -0.6832 -0.3229
vn 0.8305 -0.4499 -0.3284
vn -0.3069 -0.5273 -0.7923
vn -0.8782 0.4154 -0.2370
vn 0.0929 0.8669 -0.4898
vn 0.0811 0.5294 -0.8445
vn -0.3467 -0.4277 0.8347
vn -0.2380 -0.7039 0.6692
vn -0.3256 0.1229 0.9375
vn 0.1892 -0.3669 -0.9108
vn 0.1464 -0.3495 -0.9254
vn -0.7102 0.2539 0.6566
vn -0.7428 -0.5218 0.4196
vn -0.7800 -0.0725 0.6216
vn 0.1106 0.9800 -0.1654
vn 0.2537 0.8526 -0.4568
vn -0.1365 0.9279 0.3470
vn -0.9860 -0.1460 -0.0807
vn 0.2663 -0.9071 0.3259
vn 0.2353 -0.9694 0.0702
vn 0.5370 0.6414 -0.5479
vn 0.6917 0.6015 -0.3996
vn 0.7519 0.6478 -0.1226
vn 0.1448 0.9633 0.2261
vn -0.1752 -0.5825 0.7938
vn -0.9875 0.0400 0.1524
vn 0.7115 0.3619 -0.6023
vn 0.6929 0.3267 -0.6427
vn 0.7623 -0.3030 -0.5719
vn -0.1280 -0.3354 0.9333
vn -0.0344 0.9979 0.0556
vn 0.0303 0.9462 -0.3223
vn -0.5832 0.1443 -0.7994
vn -0.1951 0.5727 0.7962
vn -0.2347 0.4774 0.8468
vn -0.1628 0.9591 0.2315
vn -0.5875 -0.7142 0.3805
vn 0.1223 -0.9260 -0.3570
vn 0.6885 0.6960 0.2039
vn 0.1430 0.9129 -0.3822
vn -0.0862 0.9771 0.1946
vn 0.5648 0.7465 0.3516
vn -0.0116 0.9995 -0.0307
vn 0.1623 -0.9188 -0.3599
vn -0.4840 0.4445 0.7537
vn -0.1927 -0.2513 0.9485
vn -0.3997 -0.5217 -0.7537
vn -0.2356 0.9070 0.3490
vn 0.1824 -0.4813 -0.8574
vn 0.6476 -0.1590 -0.7452
vn 0.3685 -0.1786 0.9123
vn 0.4398 -0.6548 0.6147
vn -0.3810 -0.9211 -0.0801
vn 0.3518 0.3038 -0.8854
vn 0.6673 -0.7398 0.0861
vn 0.1617 -0.6099 -0.7758
vn 0.8254 -0.5123 -0.2374
vn 0.6320 -0.6820 0.3680
vn -0.1956 0.8863 0.4198
vn 0.0313 0.9686 -0.2467
vn -0.1283 0.9252 0.3571
vn -0.1896 -0.7216 0.6658
vn 0.4264 -0.6034 -0.6738
vn 0.2014 0.6797 -0.7053
vn 0.0785 -0.9963 0.0337
vn 0.2390 0.3805 -0.8933
vn 0.2611 0.2256 -0.9386
vn 0.6937 0.6747 -0.2522
vn 0.8457 0.4629 -0.2656
vn 0.8691 -0.3670 -0.3317
vn 0.8144 0.1275 -0.5661
vn 0.4913 0.6644 0.5632
vn 0.6248 -0.6472 0.4368
vn 0.2802 0.3168 0.9062
vn 0.4025 -0.0598 0.9135
usemtl sungaya_inexpectata_31mg
s 1
f 5/1/1 6/2/2 7/3/3
f 55/4/4 34/5/5 35/6/6
f 51/7/7 25/8/8 26/9/9
f 19/10/10 6/11/2 9/12/11
f 32/13/12 13/14/13 33/15/14
f 16/16/15 40/17/16 41/18/17
f 64/19/18 47/20/19 20/21/20
f 26/22/9 17/23/21 44/24/22
f 48/25/23 12/26/24 49/27/25
f 57/28/26 15/29/27 24/30/28
f 12/31/24 3/32/29 33/33/14
f 56/34/30 1/35/31 64/36/18
f 18/37/32 52/38/33 53/39/34
f 24/40/28 15/41/27 69/42/35
f 19/43/10 37/44/36 7/45/3
f 2/46/37 12/47/24 48/48/23
f 42/49/38 30/50/39 31/51/40
f 55/52/4 60/53/41 34/54/5
f 51/55/7 8/56/42 29/57/43
f 3/58/29 2/59/37 62/60/44
f 2/59/37 3/32/29 12/31/24
f 36/61/45 37/62/36 39/63/46
f 15/64/27 18/65/32 69/66/35
f 16/67/15 2/68/37 65/69/47
f 32/70/12 56/71/30 14/72/48
f 13/73/13 32/74/12 14/75/48
f 28/76/49 44/77/22 17/78/21
f 81/79/50 27/80/51 21/81/52 77/82/53
f 51/7/7 26/9/9 22/83/54
f 64/84/18 12/85/24 56/86/30
f 65/87/47 2/88/37 48/25/23
f 39/89/46 37/90/36 19/91/10
f 28/92/49 54/93/55 55/94/4
f 55/95/4 54/96/55 7/45/3
f 49/97/25 64/98/18 59/99/56
f 34/100/5 60/101/41 50/102/57
f 50/103/57 60/104/41 36/105/45
f 68/106/58 3/107/29 62/108/44
f 68/109/58 33/110/14 3/111/29
f 8/112/42 51/113/7 61/114/59
f 40/115/16 52/116/33 41/117/17
f 52/118/33 40/119/16 53/120/34
f 23/121/60 28/122/49 17/123/21
f 32/124/12 70/125/61 31/126/40
f 37/127/36 60/128/41 55/129/4
f 76/130/62 6/131/2 83/132/63
f 13/133/13 14/134/48 71/135/64
f 28/136/49 55/137/4 35/138/6
f 30/139/39 18/140/32 15/141/27
f 35/142/6 67/143/65 44/144/22
f 36/145/45 39/146/46 51/113/7
f 22/147/54 36/148/45 51/149/7
f 86/150/66 54/151/55 43/152/67 75/153/68
f 72/154/69 5/1/1 54/155/55 86/156/66
f 57/157/26 4/158/70 11/159/71
f 11/159/71 4/158/70 10/160/72
f 23/121/60 54/161/55 28/122/49
f 20/162/20 50/103/57 36/105/45
f 50/163/57 20/21/20 45/164/73
f 31/126/40 30/165/39 46/166/74
f 32/124/12 31/126/40 46/166/74
f 7/3/3 54/155/55 5/1/1
f 1/167/31 56/71/30 32/168/12
f 46/169/74 1/167/31 32/168/12
f 46/166/74 67/143/65 35/142/6
f 63/170/75 67/171/65 11/172/71
f 46/166/74 35/142/6 66/173/76
f 71/174/64 33/175/14 13/176/13
f 67/143/65 46/166/74 30/165/39
f 2/177/37 16/178/15 62/179/44
f 16/180/15 41/181/17 62/182/44
f 25/183/8 38/184/77 23/185/60
f 53/186/34 65/187/47 69/188/35
f 38/189/77 58/190/78 43/191/67
f 28/192/49 35/142/6 44/193/22
f 79/194/79 85/195/80 27/196/51
f 82/197/81 43/198/67 58/199/78 84/200/82
f 12/201/24 14/202/48 56/203/30
f 66/204/76 45/205/73 47/206/19
f 45/207/73 34/208/5 50/209/57
f 20/210/20 24/211/28 59/212/56
f 64/213/18 20/214/20 59/215/56
f 1/216/31 46/217/74 66/218/76
f 7/45/3 6/219/2 19/220/10
f 42/221/38 31/126/40 70/125/61
f 61/222/59 39/223/46 9/224/11
f 8/112/42 61/114/59 9/225/11
f 39/223/46 19/226/10 9/224/11
f 40/227/16 65/187/47 53/186/34
f 38/228/77 29/229/43 27/230/51
f 33/15/14 70/231/61 32/13/12
f 4/232/70 20/210/20 10/233/72
f 20/234/20 36/235/45 10/236/72
f 70/237/61 62/238/44 41/239/17
f 70/240/61 41/241/17 52/242/33
f 42/243/38 70/240/61 52/242/33
f 62/244/44 70/245/61 68/246/58
f 27/247/51 29/248/43 8/112/42
f 61/249/59 51/250/7 39/251/46
f 27/252/51 58/253/78 38/254/77
f 33/255/14 68/256/58 70/257/61
f 66/258/76 34/259/5 45/260/73
f 34/261/5 66/262/76 35/263/6
f 64/264/18 1/265/31 47/266/19
f 14/267/48 12/47/24 33/268/14
f 47/269/19 1/270/31 66/271/76
f 69/42/35 59/272/56 24/40/28
f 59/273/56 69/274/35 48/275/23
f 69/274/35 65/276/47 48/275/23
f 69/277/35 18/37/32 53/39/34
f 18/278/32 42/279/38 52/116/33
f 18/280/32 30/281/39 42/282/38
f 22/283/54 11/159/71 10/160/72
f 22/284/54 10/285/72 36/286/45
f 15/287/27 57/288/26 67/289/65
f 67/290/65 57/291/26 11/292/71
f 8/112/42 21/293/52 27/247/51
f 21/294/52 8/295/42 9/296/11
f 63/297/75 26/298/9 44/299/22
f 11/300/71 26/301/9 63/302/75
f 26/301/9 11/300/71 22/283/54
f 77/303/53 21/293/52 74/304/83
f 14/305/48 33/306/14 71/307/64
f 49/27/25 12/26/24 64/308/18
f 37/44/36 55/309/4 7/45/3
f 37/310/36 36/105/45 60/311/41
f 38/184/77 54/312/55 23/185/60
f 43/313/67 54/314/55 38/315/77
f 48/25/23 49/27/25 59/316/56
f 30/317/39 15/318/27 67/319/65
f 44/320/22 67/143/65 63/321/75
f 24/211/28 20/210/20 4/232/70
f 24/322/28 4/323/70 57/324/26
f 16/67/15 65/69/47 40/325/16
f 20/326/20 47/327/19 45/328/73
f 29/329/43 38/330/77 25/331/8
f 29/332/43 25/333/8 51/334/7
f 26/335/9 25/336/8 17/337/21
f 23/338/60 17/337/21 25/336/8
f 27/339/51 85/340/80 84/341/82 58/342/78
f 27/80/51 81/343/50 79/344/79
f 6/345/2 78/346/84 83/347/63
f 43/152/67 82/348/81 75/153/68
f 21/349/52 9/350/11 80/351/85 74/352/83
f 6/11/2 73/353/86 80/354/85 9/12/11
f 6/355/2 76/356/62 73/357/86
f 5/358/1 72/359/69 78/360/84 6/361/2
f 86/150/66 75/153/68 82/348/81 84/200/82 85/340/80 79/194/79 81/343/50 77/82/53 74/304/83 80/351/85 73/353/86 76/356/62 83/132/63 78/346/84 72/359/69
