# Blender v2.79 (sub 0) OBJ File: 'redo_fixed_360_joints.blend'
# www.blender.org
mtllib sungaya_inexpectata_31mg.mtl
o 24-m-l-tarsus_Sungaya_inexpectata_31mg.006
v -0.000059 -0.000004 -0.000094
v 0.000131 -0.000001 -0.000048
v -0.000138 0.000065 -0.000062
v -0.000108 0.000035 0.000039
v -0.000098 0.000048 -0.000063
v -0.000182 0.000004 -0.000155
v 0.000185 0.000043 -0.000005
v 0.000050 -0.000058 -0.000024
v -0.000448 0.000066 -0.000044
v -0.000342 0.000022 0.000010
v 0.000324 0.000092 0.000148
v -0.000336 0.000086 -0.000074
v 0.000284 -0.000049 0.000174
v 0.000356 0.000066 0.000042
v -0.000326 0.000010 -0.000197
v 0.000217 -0.000089 0.000091
v 0.000220 -0.000095 0.000007
v 0.000314 0.000001 -0.000020
v 0.000111 0.000046 0.000034
v 0.000199 0.000057 0.000111
v -0.000130 -0.000033 0.000019
v -0.000147 -0.000045 -0.000078
v 0.000061 -0.000041 0.000071
v 0.000186 -0.000008 0.000122
v 0.000302 -0.000051 -0.000011
v -0.000189 0.000045 0.000046
v -0.000367 -0.000052 -0.000155
v -0.000257 -0.000049 -0.000070
v 0.000321 -0.000122 0.000204
v -0.000017 0.000047 0.000046
v 0.000351 0.000105 0.000108
v 0.000251 0.000067 0.000052
v 0.000396 -0.000021 0.000037
v -0.000317 0.000078 -0.000156
v 0.000384 -0.000092 0.000055
v 0.000363 -0.000128 0.000099
v -0.000028 0.000015 0.000083
v -0.000256 -0.000021 0.000012
v 0.000028 0.000039 -0.000049
v -0.000443 -0.000052 -0.000159
v -0.000476 0.000004 -0.000056
v -0.000471 0.000078 -0.000072
v -0.000431 -0.000043 -0.000196
v -0.000476 -0.000006 -0.000056
v -0.000465 0.000088 -0.000093
v -0.000473 -0.000010 -0.000065
v -0.000434 0.000082 -0.000190
v -0.000477 0.000065 -0.000053
v -0.000443 0.000085 -0.000160
v -0.000421 -0.000007 -0.000227
v -0.000476 -0.000008 -0.000057
v -0.000417 0.000017 -0.000240
v -0.000429 0.000052 -0.000205
v -0.000436 -0.000055 -0.000179
v 0.000385 0.000110 0.000101
v 0.000399 0.000046 0.000062
v 0.000407 -0.000011 0.000041
v 0.000387 0.000112 0.000094
v 0.000350 0.000012 0.000202
v 0.000357 0.000077 0.000181
v 0.000347 -0.000089 0.000212
v 0.000401 -0.000094 0.000058
v 0.000352 0.000057 0.000196
v 0.000386 -0.000133 0.000103
v 0.000346 -0.000119 0.000217
v 0.000393 0.000105 0.000078
v 0.000399 -0.000101 0.000064
v 0.000367 0.000093 0.000152
v 0.000372 -0.000124 0.000144
v 0.000408 -0.000022 0.000037
v 0.000403 -0.000085 0.000052
vt 0.200500 0.298220
vt 0.200184 0.300185
vt 0.198469 0.297977
vt 0.596322 0.441882
vt 0.598358 0.444359
vt 0.596993 0.445534
vt 0.539435 0.837470
vt 0.538651 0.838502
vt 0.537591 0.837845
vt 0.473858 0.639119
vt 0.472829 0.634493
vt 0.475549 0.638277
vt 0.540456 0.411183
vt 0.539972 0.413920
vt 0.538106 0.416175
vt 0.511765 0.010012
vt 0.513499 0.006270
vt 0.514762 0.007394
vt 0.134675 0.007083
vt 0.137686 0.007488
vt 0.133655 0.009062
vt 0.194521 0.714605
vt 0.197048 0.715018
vt 0.195228 0.716160
vt 0.137814 0.010054
vt 0.139685 0.007611
vt 0.772997 0.855577
vt 0.772262 0.854577
vt 0.773603 0.854397
vt 0.773306 0.855416
vt 0.066867 0.768543
vt 0.068156 0.766377
vt 0.069986 0.767548
vt 0.479982 0.496883
vt 0.479515 0.491884
vt 0.481699 0.491541
vt 0.539584 0.408881
vt 0.542469 0.406801
vt 0.612118 0.278182
vt 0.611409 0.280608
vt 0.609244 0.280509
vt 0.470429 0.628863
vt 0.469531 0.629213
vt 0.469707 0.628551
vt 0.206292 0.296673
vt 0.207311 0.297113
vt 0.202835 0.300174
vt 0.593245 0.451052
vt 0.591686 0.448646
vt 0.593670 0.448158
vt 0.956126 0.215996
vt 0.957755 0.216151
vt 0.956159 0.217082
vt 0.476340 0.489306
vt 0.478103 0.487974
vt 0.128014 0.004290
vt 0.130985 0.003781
vt 0.132893 0.006956
vt 0.680987 0.090129
vt 0.679991 0.090988
vt 0.680990 0.088364
vt 0.680695 0.091769
vt 0.067147 0.966538
vt 0.071727 0.965075
vt 0.070031 0.967383
vt 0.038253 0.863783
vt 0.040972 0.863710
vt 0.040087 0.864744
vt 0.195491 0.713140
vt 0.197762 0.713703
vt 0.321620 0.791050
vt 0.322225 0.790183
vt 0.321997 0.791889
vt 0.474091 0.485257
vt 0.126573 0.001846
vt 0.598169 0.440619
vt 0.599787 0.438482
vt 0.601521 0.440026
vt 0.024439 0.584393
vt 0.024469 0.581404
vt 0.024946 0.582816
vt 0.768363 0.493154
vt 0.769271 0.494248
vt 0.768369 0.495001
vt 0.768035 0.493468
vt 0.534453 0.843033
vt 0.534544 0.841108
vt 0.537820 0.843019
vt 0.534526 0.843176
vt 0.855923 0.871647
vt 0.856470 0.873280
vt 0.854249 0.873728
vt 0.067383 0.967653
vt 0.065965 0.967714
vt 0.592798 0.446862
vt 0.324456 0.789502
vt 0.325188 0.790918
vt 0.323975 0.791715
vt 0.625655 0.334760
vt 0.628626 0.331354
vt 0.628213 0.332283
vt 0.536296 0.415890
vt 0.534833 0.419036
vt 0.894521 0.335507
vt 0.893409 0.336292
vt 0.892693 0.334699
vt 0.513917 0.010167
vt 0.543709 0.408803
vt 0.542646 0.411058
vt 0.626218 0.332151
vt 0.629572 0.328491
vt 0.626476 0.332148
vt 0.143581 0.735231
vt 0.145576 0.734963
vt 0.143785 0.737302
vt 0.581774 0.133144
vt 0.580408 0.133908
vt 0.581220 0.132133
vt 0.063855 0.825246
vt 0.063173 0.826008
vt 0.061727 0.825609
vt 0.062832 0.825120
vt 0.264701 0.196822
vt 0.266359 0.195888
vt 0.267541 0.197079
vt 0.591281 0.452524
vt 0.591179 0.450897
vt 0.478589 0.494557
vt 0.606409 0.282842
vt 0.607047 0.281207
vt 0.082444 0.991321
vt 0.081499 0.993034
vt 0.080140 0.992574
vt 0.475618 0.484580
vt 0.536028 0.421045
vt 0.679931 0.088198
vt 0.472265 0.632339
vt 0.472578 0.629522
vt 0.136094 0.004884
vt 0.139728 0.005691
vt 0.821180 0.180573
vt 0.817642 0.178581
vt 0.821533 0.178145
vt 0.537849 0.410441
vt 0.125259 0.001154
vt 0.125712 0.003202
vt 0.200266 0.300832
vt 0.001820 0.586330
vt 0.000990 0.586483
vt 0.001000 0.586268
vt 0.288875 0.538216
vt 0.287900 0.537290
vt 0.288870 0.537172
vt 0.793431 0.884060
vt 0.794050 0.882348
vt 0.795490 0.881233
vt 0.629586 0.326245
vt 0.631584 0.323592
vt 0.632045 0.324971
vt 0.793272 0.882154
vt 0.197600 0.301919
vt 0.197799 0.300309
vt 0.593547 0.445539
vt 0.613241 0.276266
vt 0.614189 0.276464
vt 0.275388 0.972510
vt 0.278917 0.969294
vt 0.278686 0.970873
vt 0.277305 0.972247
vt 0.770295 0.493622
vt 0.768744 0.492921
vt 0.769981 0.492380
vt 0.249611 0.529677
vt 0.248369 0.529768
vt 0.248336 0.529742
vt 0.248901 0.528564
vt 0.062844 0.824861
vt 0.825340 0.180745
vt 0.824909 0.181792
vt 0.823408 0.182941
vt 0.481638 0.498505
vt 0.481036 0.498818
vt 0.511391 0.010369
vt 0.509611 0.008735
vt 0.509920 0.007980
vt 0.472477 0.629003
vt 0.570267 0.505807
vt 0.570267 0.505934
vt 0.569544 0.506362
vt 0.569405 0.506280
vt 0.514948 0.098834
vt 0.515136 0.098858
vt 0.514896 0.098946
vt 0.514800 0.098897
vt 0.138675 0.006570
vt 0.139543 0.006988
vt 0.773603 0.547192
vt 0.774089 0.546365
vt 0.774249 0.546737
vt 0.136904 0.011276
vt 0.136948 0.011288
vt 0.136182 0.010751
vt 0.511591 0.010403
vt 0.579718 0.665534
vt 0.578433 0.668150
vt 0.578119 0.667253
vt 0.578133 0.665723
vt 0.091377 0.441247
vt 0.091860 0.442046
vt 0.091348 0.441363
vt 0.533465 0.377389
vt 0.532695 0.377520
vt 0.533070 0.376248
vt 0.534266 0.376497
vt 0.533338 0.376092
vn 0.2773 0.9378 -0.2091
vn -0.1260 0.5831 0.8025
vn 0.2610 0.8843 -0.3871
vn -0.0085 0.9297 0.3683
vn 0.3994 -0.0462 -0.9156
vn 0.0936 -0.9630 -0.2527
vn 0.3365 -0.1401 -0.9312
vn -0.0600 -0.9165 -0.3955
vn -0.3782 -0.8420 0.3848
vn -0.2329 -0.7657 0.5996
vn 0.0064 -0.8401 -0.5425
vn 0.2964 0.0472 -0.9539
vn 0.2863 -0.4596 -0.8407
vn 0.2764 0.2106 -0.9377
vn -0.3387 -0.0733 0.9380
vn -0.5874 -0.0453 0.8081
vn -0.3122 0.8123 0.4925
vn -0.2149 0.9737 -0.0759
vn -0.1318 0.9647 -0.2281
vn -0.2832 0.8573 0.4299
vn 0.4049 0.1026 0.9086
vn 0.3475 0.0758 0.9346
vn 0.6471 0.6909 -0.3225
vn 0.2375 0.6110 -0.7552
vn 0.4969 0.8677 0.0123
vn 0.1871 0.8205 -0.5402
vn 0.1304 -0.9531 -0.2730
vn -0.0852 -0.9855 0.1467
vn -0.1521 -0.6611 0.7347
vn 0.1707 -0.5717 -0.8025
vn 0.6736 -0.6658 0.3209
vn -0.1035 -0.9563 -0.2733
vn 0.5815 -0.8118 -0.0530
vn 0.0265 0.9923 0.1206
vn -0.2465 0.6488 0.7199
vn 0.0547 0.4004 0.9147
vn 0.0028 0.8456 -0.5339
vn -0.0745 0.9970 -0.0227
vn -0.0998 -0.7797 0.6182
vn -0.3472 0.1324 0.9284
vn 0.3050 0.0443 -0.9513
vn 0.1559 0.0329 -0.9872
vn -0.6605 0.6928 -0.2894
vn -0.4161 0.6744 -0.6100
vn -0.7596 -0.6503 0.0084
vn -0.7644 -0.5729 0.2958
vn 0.1717 0.8327 -0.5264
vn -0.9367 -0.0079 0.3499
vn -0.7315 0.4331 0.5266
vn -0.4516 0.3985 -0.7983
vn -0.2155 0.1414 -0.9662
vn -0.8692 -0.2065 0.4493
vn -0.3117 -0.0675 0.9478
vn -0.7083 -0.7056 0.0213
vn -0.4406 -0.4702 -0.7647
vn -0.4783 -0.5819 -0.6578
vn -0.4998 -0.6310 0.5934
vn -0.6935 0.7036 0.1550
vn -0.6935 0.7184 -0.0542
vn -0.5641 -0.7527 -0.3394
vn 0.7541 0.0780 -0.6521
vn 0.7943 -0.2582 -0.5500
vn 0.2657 -0.4437 0.8559
vn 0.7300 -0.5996 -0.3280
vn 0.8083 -0.4577 -0.3704
vn 0.4362 0.5251 0.7307
vn 0.6078 0.6456 0.4623
vn 0.3057 0.2649 0.9145
vn 0.7963 0.3301 -0.5070
vn 0.9259 0.2118 -0.3129
vn 0.5951 0.7128 0.3713
usemtl sungaya_inexpectata_31mg
s 1
f 3/1/1 4/2/2 5/3/3
f 5/4/3 4/5/2 30/6/4
f 6/7/5 22/8/6 15/9/7
f 8/10/8 16/11/9 23/12/10
f 17/13/11 16/14/9 8/15/8
f 33/16/12 25/17/13 18/18/14
f 24/19/15 13/20/16 20/21/17
f 31/22/18 32/23/19 11/24/20
f 59/25/21 13/20/16 61/26/22
f 66/27/23 14/28/24 31/29/18 58/30/25
f 3/31/1 6/32/5 34/33/26
f 27/34/27 28/35/28 38/36/29
f 25/37/13 35/38/30 17/13/11
f 15/39/7 34/40/26 6/41/5
f 69/42/31 36/43/32 64/44/33
f 12/45/34 9/46/35 26/47/36
f 20/48/17 7/49/37 19/50/38
f 16/51/9 24/52/15 23/53/10
f 22/54/6 21/55/39 28/35/28
f 37/56/40 23/57/10 24/58/15
f 19/59/38 37/60/40 20/61/17
f 30/62/4 37/60/40 19/59/38
f 1/63/41 6/64/5 3/65/1
f 14/66/24 7/67/37 32/68/19
f 31/22/18 14/69/24 32/70/19
f 18/71/14 2/72/42 7/73/37
f 21/55/39 22/54/6 8/74/8
f 21/75/39 23/57/10 37/56/40
f 3/76/1 12/77/34 26/78/36
f 35/79/30 25/80/13 33/81/12
f 49/82/43 12/83/34 34/84/26 47/85/44
f 46/86/45 27/87/27 38/88/29 51/89/46
f 5/90/3 30/91/4 39/92/47
f 3/65/1 5/93/3 1/63/41
f 1/63/41 5/93/3 39/94/47
f 38/36/29 28/35/28 21/55/39
f 39/95/47 19/50/38 7/49/37
f 2/96/42 39/97/47 7/98/37
f 41/99/48 9/100/35 48/101/49
f 2/102/42 8/15/8 1/103/41
f 53/104/50 15/105/7 52/106/51
f 33/16/12 18/18/14 14/107/24
f 35/38/30 36/108/32 17/13/11
f 36/108/32 16/109/9 17/13/11
f 44/110/52 10/111/53 9/100/35 41/112/48
f 40/113/54 27/114/27 46/115/45
f 15/116/7 22/117/6 27/118/27
f 50/119/55 15/120/7 27/121/27 43/122/56
f 14/123/24 18/124/14 7/125/37
f 11/126/20 32/127/19 20/48/17
f 27/34/27 22/128/6 28/35/28
f 1/129/41 22/130/6 6/41/5
f 1/131/41 39/132/47 2/133/42
f 21/55/39 8/74/8 23/134/10
f 22/135/6 1/103/41 8/15/8
f 37/60/40 24/136/15 20/61/17
f 16/137/9 36/43/32 29/138/57
f 16/139/9 29/140/57 13/20/16
f 17/13/11 8/15/8 2/102/42
f 32/127/19 7/49/37 20/48/17
f 12/141/34 3/142/1 34/143/26
f 25/37/13 17/13/11 2/144/42
f 21/145/39 37/56/40 4/146/2
f 4/2/2 3/1/1 26/47/36
f 21/147/39 4/2/2 26/47/36
f 42/148/58 48/149/49 9/150/35
f 18/151/14 25/152/13 2/153/42
f 9/154/35 10/155/53 26/156/36
f 38/157/29 21/158/39 26/159/36
f 10/155/53 38/160/29 26/156/36
f 24/19/15 16/139/9 13/20/16
f 37/161/40 30/162/4 4/2/2
f 19/50/38 39/163/47 30/6/4
f 15/39/7 50/164/55 52/165/51
f 34/166/26 15/167/7 53/168/50 47/169/44
f 12/170/34 49/171/43 45/172/59
f 10/173/53 44/174/52 51/175/46 38/176/29
f 27/121/27 54/177/60 43/122/56
f 12/141/34 45/178/59 42/179/58 9/180/35
f 27/34/27 40/181/54 54/182/60
f 53/168/50 52/165/51 50/119/55 43/122/56 54/182/60 40/113/54 46/86/45 51/175/46 44/110/52 41/99/48 48/149/49 42/179/58 45/172/59 49/82/43 47/169/44
f 33/16/12 70/183/61 71/184/62 35/185/30
f 29/138/57 36/43/32 69/42/31 65/186/63
f 35/187/30 67/188/64 64/189/33 36/190/32
f 35/191/30 71/192/62 62/193/65
f 35/191/30 62/193/65 67/194/64
f 29/195/57 65/196/63 61/26/22 13/20/16
f 11/197/20 60/198/66 68/199/67
f 20/21/17 63/200/68 60/201/66 11/202/20
f 20/21/17 13/20/16 59/25/21 63/200/68
f 33/16/12 57/203/69 70/183/61
f 14/204/24 66/205/23 56/206/70 33/207/12
f 33/208/12 56/209/70 57/210/69
f 11/211/20 68/212/67 55/213/71
f 31/214/18 11/211/20 55/213/71 58/215/25
f 69/42/31 71/192/62 59/25/21
f 69/42/31 64/189/33 67/188/64
f 67/188/64 62/193/65 71/192/62
f 71/192/62 70/183/61 57/203/69
f 56/209/70 66/205/23 58/30/25
f 71/192/62 57/203/69 59/25/21
f 57/203/69 56/209/70 59/25/21
f 69/42/31 67/188/64 71/192/62
f 61/26/22 65/196/63 69/42/31
f 63/200/68 59/25/21 68/212/67
f 59/25/21 61/26/22 69/42/31
f 68/212/67 59/25/21 56/209/70
f 68/212/67 60/198/66 63/200/68
f 58/30/25 55/213/71 56/209/70
f 55/213/71 68/212/67 56/209/70
