# Blender v2.79 (sub 0) OBJ File: 'redo_fixed_360_joints.blend'
# www.blender.org
mtllib sungaya_inexpectata_31mg.mtl
o 22-m-l-femur_Sungaya_inexpectata_31mg.008
v 0.000667 0.000028 0.000317
v -0.000484 -0.000051 -0.000148
v -0.000552 -0.000015 -0.000093
v -0.001575 0.000083 -0.000686
v -0.001492 -0.000246 -0.000570
v -0.001485 -0.000179 -0.000596
v -0.001097 -0.000037 -0.000037
v 0.000781 0.000070 0.000346
v 0.001114 0.000030 0.000408
v -0.000504 -0.000103 -0.000200
v 0.000266 0.000071 0.000347
v 0.000026 0.000133 0.000110
v -0.000017 0.000075 0.000069
v 0.001857 -0.000189 0.000662
v 0.001073 0.000041 0.000299
v -0.000333 -0.000120 -0.000168
v -0.000406 -0.000041 -0.000120
v 0.001883 -0.000228 0.000540
v -0.000629 0.000076 -0.000313
v 0.001906 0.000006 0.000682
v 0.001733 0.000059 0.000588
v 0.001649 0.000035 0.000592
v 0.001034 0.000052 0.000478
v -0.001617 0.000153 -0.000468
v -0.000162 0.000054 0.000051
v 0.001982 0.000112 0.000678
v 0.001958 0.000036 0.000695
v 0.002069 -0.000028 0.000699
v 0.000139 -0.000003 0.000154
v -0.000828 -0.000004 -0.000482
v -0.000879 -0.000094 -0.000500
v -0.001081 -0.000033 -0.000558
v 0.000411 -0.000137 0.000119
v 0.002090 -0.000185 0.000707
v 0.000735 0.000036 0.000359
v 0.001986 0.000141 0.000586
v -0.001159 -0.000046 -0.000122
v -0.001163 -0.000040 -0.000088
v -0.001274 -0.000044 -0.000192
v 0.001247 0.000039 0.000493
v 0.001390 0.000013 0.000521
v 0.001397 -0.000086 0.000440
v -0.001422 -0.000180 -0.000499
v 0.002100 0.000163 0.000684
v -0.000084 0.000106 -0.000176
v -0.000460 0.000156 0.000021
v -0.001256 0.000055 -0.000178
v -0.000366 0.000067 -0.000216
v -0.000274 0.000093 -0.000250
v 0.001058 0.000068 0.000177
v 0.000982 0.000064 0.000115
v 0.000032 -0.000058 -0.000021
v -0.001435 -0.000054 -0.000620
v 0.001322 0.000028 0.000418
v 0.001411 -0.000002 0.000316
v 0.001451 -0.000164 0.000394
v 0.000966 -0.000147 0.000289
v -0.000768 0.000057 0.000046
v -0.001384 0.000040 -0.000645
v -0.000100 -0.000084 -0.000056
v -0.000907 -0.000016 -0.000558
v -0.000279 0.000038 0.000268
v 0.000922 0.000020 0.000439
v 0.000799 0.000037 0.000438
v 0.001419 0.000010 0.000567
v -0.000882 -0.000007 0.000035
v -0.000626 0.000083 -0.000150
v -0.000544 0.000076 -0.000168
v -0.000550 0.000080 -0.000252
v -0.000010 0.000092 -0.000119
v -0.000110 0.000019 0.000127
v 0.000424 0.000037 0.000295
v 0.000411 0.000079 0.000239
v -0.000423 0.000075 0.000103
v -0.000518 0.000034 0.000102
v -0.000541 0.000001 0.000207
v -0.001572 -0.000130 -0.000397
v 0.000882 0.000002 0.000387
v 0.001884 0.000070 0.000410
v 0.001711 -0.000115 0.000507
v -0.001641 0.000014 -0.000386
v -0.000748 -0.000097 -0.000369
v -0.000754 -0.000047 -0.000359
v -0.001019 0.000170 -0.000119
v -0.000859 0.000085 -0.000158
v 0.001391 -0.000044 0.000540
v 0.000260 0.000094 0.000175
v 0.000178 0.000083 0.000243
v 0.000068 -0.000034 0.000081
v 0.000170 0.000041 0.000224
v 0.001285 0.000025 0.000351
v -0.001172 0.000070 -0.000487
v 0.000502 0.000059 0.000288
v -0.000716 0.000069 -0.000418
v 0.001623 0.000006 0.000332
v -0.000635 0.000002 0.000111
v 0.001641 0.000012 0.000402
v 0.001453 0.000008 0.000355
v 0.001160 -0.000094 0.000355
v -0.001083 0.000081 -0.000139
v 0.002011 -0.000130 0.000686
v 0.001563 0.000009 0.000559
v -0.001377 0.000149 -0.000497
v 0.001074 -0.000017 0.000404
v 0.001801 0.000009 0.000682
v 0.001347 -0.000005 0.000323
v -0.000574 -0.000123 -0.000263
v -0.000476 0.000024 -0.000208
v -0.000502 -0.000152 -0.000261
v -0.001172 -0.000045 -0.000272
v -0.000939 -0.000066 -0.000347
v -0.000988 -0.000087 -0.000393
v -0.001072 -0.000109 -0.000480
v -0.000211 -0.000055 -0.000069
v -0.001389 -0.000097 -0.000346
v -0.000635 -0.000116 -0.000292
v -0.001022 -0.000035 -0.000073
v 0.001724 0.000020 0.000333
v 0.000456 0.000087 0.000021
v 0.000298 0.000103 -0.000054
v 0.000426 0.000067 0.000084
v 0.002085 -0.000230 0.000736
v 0.002067 -0.000270 0.000737
v -0.001428 0.000179 -0.000433
v 0.000507 -0.000027 0.000222
v -0.000857 0.000005 -0.000126
v -0.000817 0.000012 -0.000077
v -0.000426 0.000019 0.000001
v -0.000583 0.000016 -0.000046
v -0.000584 0.000120 -0.000063
v 0.000486 0.000058 0.000097
v 0.000508 0.000076 0.000051
v 0.001863 0.000105 0.000629
v 0.001962 0.000123 0.000474
v 0.001628 -0.000102 0.000500
v 0.000461 -0.000077 0.000148
v -0.000603 -0.000021 -0.000212
v -0.000621 0.000046 -0.000259
v -0.000610 -0.000028 -0.000188
v -0.001532 -0.000081 -0.000289
v -0.001240 -0.000110 -0.000433
v 0.000583 0.000011 0.000168
v 0.000569 0.000041 0.000106
v -0.001407 0.000099 -0.000265
v 0.001230 0.000032 0.000261
v 0.001278 0.000048 0.000230
v 0.000930 0.000073 0.000350
v 0.001328 -0.000108 0.000389
v -0.001092 -0.000032 -0.000209
v -0.000684 0.000081 -0.000273
v 0.000037 -0.000116 -0.000008
v -0.000951 0.000063 -0.000400
v 0.001493 -0.000070 0.000330
v -0.000250 0.000010 0.000050
v -0.000255 0.000051 0.000163
v -0.001085 0.000098 -0.000266
v 0.000111 0.000096 -0.000076
v -0.001485 -0.000073 -0.000214
v 0.001128 0.000042 0.000512
v 0.001147 0.000030 0.000509
v -0.000556 0.000083 0.000057
v -0.000935 -0.000114 -0.000472
v -0.001554 0.000200 -0.000469
v 0.000091 0.000137 0.000148
v -0.000768 -0.000022 -0.000185
v -0.000775 -0.000097 -0.000328
v -0.000802 -0.000055 -0.000291
v 0.000655 -0.000065 0.000139
v -0.000028 0.000063 0.000045
v 0.000169 0.000045 -0.000031
v 0.001184 -0.000071 0.000253
v -0.001291 -0.000065 -0.000313
v 0.001618 -0.000075 0.000355
v 0.001866 -0.000127 0.000409
v 0.001940 0.000020 0.000378
v 0.002076 0.000079 0.000441
v 0.002107 -0.000053 0.000429
v 0.000404 -0.000062 0.000089
v -0.001535 -0.000116 -0.000359
v -0.001035 0.000080 -0.000378
v 0.000516 -0.000133 0.000150
v 0.000526 -0.000126 0.000162
v -0.000433 0.000029 0.000057
v 0.000990 -0.000095 0.000222
v 0.001050 -0.000002 0.000177
v -0.001243 0.000114 -0.000343
v -0.001038 0.000033 -0.000592
v -0.001211 0.000048 -0.000644
v 0.000817 -0.000076 0.000278
v 0.000906 0.000061 0.000267
v -0.000918 -0.000039 -0.000233
v -0.000102 0.000094 0.000200
v -0.000071 0.000064 0.000326
v -0.000113 0.000145 0.000124
v -0.001326 -0.000043 -0.000148
v 0.001002 0.000056 0.000204
v 0.000835 0.000045 0.000236
v 0.001517 0.000019 0.000236
v 0.001766 -0.000137 0.000563
v -0.001564 0.000183 -0.000614
v -0.001456 0.000186 -0.000349
v 0.001850 -0.000145 0.000695
v -0.000583 -0.000008 0.000156
v -0.001462 -0.000058 -0.000189
v -0.000683 0.000070 0.000053
v -0.001022 -0.000092 -0.000529
v 0.001199 -0.000151 0.000345
v -0.000210 0.000077 -0.000118
v -0.000328 0.000081 0.000128
v -0.001563 0.000143 -0.000319
v -0.001653 0.000085 -0.000321
v 0.001398 -0.000009 0.000269
v 0.000632 0.000044 0.000351
v 0.000312 -0.000020 0.000183
v -0.001392 -0.000199 -0.000577
v 0.001198 -0.000180 0.000311
v 0.001074 -0.000159 0.000283
v 0.000676 0.000060 0.000440
v 0.001823 -0.000208 0.000442
v -0.000152 0.000057 0.000292
v -0.000177 0.000047 0.000221
v -0.001483 0.000113 -0.000696
v -0.000272 -0.000026 -0.000150
v -0.000200 -0.000093 -0.000095
v 0.000765 0.000027 0.000104
v 0.000782 0.000086 0.000077
v -0.001240 -0.000033 -0.000596
v 0.000194 0.000067 0.000335
v -0.000611 0.000192 -0.000008
v -0.000517 0.000082 -0.000230
v -0.001274 -0.000154 -0.000548
v -0.000380 0.000018 0.000188
v -0.000404 0.000025 0.000227
v -0.000406 0.000025 0.000262
v 0.000306 -0.000133 0.000080
v 0.000042 0.000064 0.000321
v 0.001666 -0.000079 0.000636
v 0.000291 0.000048 0.000260
v -0.001505 0.000201 -0.000570
v 0.001786 -0.000130 0.000629
v 0.001769 -0.000128 0.000691
v -0.000179 0.000111 -0.000219
v 0.000020 0.000038 0.000215
v -0.001446 0.000170 -0.000709
v -0.000003 0.000078 0.000224
v 0.000620 0.000012 0.000228
v 0.000761 0.000021 0.000256
v 0.000613 -0.000073 0.000194
v 0.000613 -0.000037 0.000244
v -0.000357 0.000047 0.000104
v -0.000931 -0.000003 -0.000120
v -0.000214 0.000086 0.000158
v -0.000350 -0.000038 -0.000174
v -0.000447 -0.000128 -0.000218
v -0.000455 -0.000044 -0.000176
v 0.001333 -0.000073 0.000319
v 0.001371 0.000034 0.000230
v 0.000927 -0.000068 0.000308
v -0.000614 -0.000095 -0.000237
v -0.001570 0.000031 -0.000265
v 0.001992 -0.000234 0.000691
v 0.000370 0.000076 0.000366
v -0.001325 -0.000146 -0.000496
v -0.000424 0.000117 -0.000005
v 0.002084 -0.000297 0.000666
v -0.001628 0.000159 -0.000369
v 0.000517 0.000070 0.000424
v 0.000715 -0.000029 0.000290
v -0.001145 -0.000127 -0.000531
v 0.001355 -0.000162 0.000357
v 0.001753 -0.000189 0.000440
v -0.001026 -0.000035 -0.000004
v -0.000559 0.000177 0.000003
v -0.000337 0.000071 -0.000162
v -0.000460 0.000083 -0.000113
v 0.001957 -0.000230 0.000466
v -0.000706 0.000166 -0.000020
v -0.000801 0.000109 -0.000075
v -0.000803 0.000146 -0.000063
v -0.000683 0.000084 -0.000111
v 0.000360 -0.000078 0.000113
v 0.001826 0.000068 0.000544
v -0.001663 0.000113 -0.000349
v 0.000794 0.000034 0.000159
v -0.000896 0.000077 -0.000021
v 0.000687 -0.000056 0.000230
v 0.001546 -0.000135 0.000355
v 0.001373 -0.000007 0.000567
v 0.000490 -0.000027 0.000094
v 0.001563 -0.000047 0.000586
v -0.001051 0.000146 -0.000149
v 0.000687 0.000080 0.000103
v -0.000969 -0.000032 0.000037
v -0.000889 0.000085 -0.000252
v -0.001243 0.000139 -0.000222
v 0.000811 -0.000011 0.000154
v 0.000580 0.000106 0.000032
v 0.000301 0.000098 0.000010
v -0.000071 0.000056 0.000268
v -0.001611 -0.000131 -0.000453
v -0.001539 -0.000207 -0.000497
v 0.001729 -0.000034 0.000377
v -0.001655 -0.000026 -0.000425
v 0.002101 0.000155 0.000611
v -0.000931 0.000116 -0.000120
v 0.001835 0.000074 0.000633
v -0.000041 -0.000054 0.000010
v -0.000962 0.000052 -0.000479
v 0.002027 -0.000264 0.000658
v -0.000652 0.000019 0.000068
v 0.000595 -0.000030 0.000235
v 0.001721 0.000031 0.000658
v 0.000279 -0.000050 0.000044
v -0.000784 0.000052 -0.000474
v -0.001512 0.000205 -0.000682
v -0.000250 0.000049 0.000045
v -0.000251 0.000151 0.000089
v 0.000524 0.000040 0.000329
v -0.000804 0.000077 -0.000327
v 0.001349 0.000008 0.000228
v 0.001266 0.000046 0.000187
v 0.001188 0.000002 0.000189
v 0.000635 -0.000079 0.000156
v 0.001880 0.000034 0.000370
v 0.000550 -0.000055 0.000180
v 0.000903 -0.000032 0.000167
v -0.001336 -0.000168 -0.000544
v -0.001312 0.000088 -0.000672
v 0.000908 -0.000139 0.000237
v 0.000162 -0.000150 0.000018
v 0.001631 -0.000179 0.000408
v 0.000882 0.000076 0.000097
v 0.001496 -0.000047 0.000593
v -0.000848 0.000035 -0.000536
v 0.000144 0.000117 0.000005
v 0.002027 -0.000131 0.000418
v -0.001343 -0.000122 -0.000560
v 0.000551 -0.000175 0.000172
v 0.000719 -0.000136 0.000211
v 0.000631 -0.000139 0.000197
v -0.000316 0.000163 0.000078
v -0.000887 0.000171 -0.000056
v -0.001570 -0.000239 -0.000579
v -0.001664 0.000088 -0.000429
v -0.001649 0.000156 -0.000480
v -0.001664 -0.000038 -0.000427
v -0.001618 -0.000199 -0.000576
v -0.001586 0.000087 -0.000687
v -0.001626 -0.000174 -0.000551
v -0.001611 -0.000214 -0.000597
v -0.001603 -0.000138 -0.000629
v -0.001665 0.000091 -0.000427
v -0.001665 0.000092 -0.000426
v -0.001586 0.000079 -0.000688
v -0.001610 0.000177 -0.000611
v -0.001659 -0.000099 -0.000440
v -0.001594 0.000169 -0.000664
v -0.001586 0.000104 -0.000689
v -0.001609 -0.000202 -0.000605
v -0.001607 -0.000181 -0.000613
v -0.001585 0.000173 -0.000694
v -0.001584 0.000149 -0.000698
v -0.001643 -0.000160 -0.000494
v -0.001664 -0.000022 -0.000429
v -0.001664 0.000075 -0.000430
v -0.001622 0.000175 -0.000572
v -0.001651 -0.000127 -0.000466
v -0.001595 -0.000072 -0.000656
v -0.001663 0.000093 -0.000432
v -0.001589 -0.000005 -0.000675
v -0.001652 0.000133 -0.000472
v 0.002121 0.000162 0.000713
v 0.002106 -0.000148 0.000442
v 0.002111 0.000040 0.000706
v 0.002124 0.000069 0.000457
v 0.002123 0.000168 0.000675
v 0.002115 0.000082 0.000700
v 0.002125 0.000148 0.000589
v 0.002091 -0.000186 0.000708
v 0.002082 -0.000273 0.000740
v 0.002099 -0.000212 0.000485
v 0.002125 0.000157 0.000606
v 0.002092 -0.000182 0.000708
v 0.002093 -0.000168 0.000707
v 0.002083 -0.000262 0.000750
v 0.002125 0.000118 0.000540
v 0.002082 -0.000271 0.000754
v 0.002125 0.000099 0.000498
v 0.002125 0.000093 0.000487
v 0.002087 -0.000279 0.000618
v 0.002093 -0.000253 0.000540
v 0.002091 -0.000184 0.000708
v 0.002115 -0.000048 0.000430
v 0.002114 -0.000060 0.000432
v 0.002094 -0.000250 0.000522
v 0.002116 -0.000038 0.000435
v 0.002109 0.000016 0.000706
v 0.002101 -0.000189 0.000471
v 0.002122 0.000172 0.000711
vt 0.744338 0.052383
vt 0.742041 0.054657
vt 0.741423 0.053134
vt 0.288649 0.291004
vt 0.283507 0.293197
vt 0.286733 0.290263
vt 0.872024 0.285423
vt 0.874580 0.283938
vt 0.877454 0.285364
vt 0.624881 0.401048
vt 0.625620 0.402654
vt 0.623870 0.404243
vt 0.264530 0.439434
vt 0.266333 0.436290
vt 0.268188 0.437113
vt 0.360195 0.443844
vt 0.359119 0.439738
vt 0.361913 0.439030
vt 0.358858 0.442199
vt 0.236536 0.099577
vt 0.238302 0.099010
vt 0.238152 0.099915
vt 0.755973 0.477560
vt 0.754069 0.477987
vt 0.755136 0.476559
vt 0.766621 0.478442
vt 0.766056 0.478983
vt 0.764587 0.477798
vt 0.511261 0.652347
vt 0.509919 0.654225
vt 0.509120 0.653170
vt 0.080132 0.666990
vt 0.080428 0.664897
vt 0.082859 0.665079
vt 0.253331 0.430418
vt 0.253193 0.425821
vt 0.254926 0.429400
vt 0.251220 0.426253
vt 0.704219 0.469570
vt 0.700862 0.470227
vt 0.700947 0.467268
vt 0.607642 0.541810
vt 0.607159 0.538798
vt 0.610805 0.541881
vt 0.058039 0.686793
vt 0.060168 0.691868
vt 0.057289 0.687728
vt 0.851461 0.546273
vt 0.853066 0.544118
vt 0.853378 0.546038
vt 0.375083 0.687637
vt 0.379015 0.682262
vt 0.379146 0.683407
vt 0.284655 0.455131
vt 0.285697 0.456796
vt 0.281187 0.450393
vt 0.293377 0.286664
vt 0.294150 0.285314
vt 0.294415 0.285966
vt 0.482814 0.261141
vt 0.484853 0.262037
vt 0.481901 0.262409
vt 0.146293 0.496205
vt 0.148615 0.495238
vt 0.147911 0.497506
vt 0.709076 0.805736
vt 0.710881 0.806644
vt 0.708301 0.806952
vt 0.175193 0.374183
vt 0.178031 0.370517
vt 0.180310 0.371609
vt 0.296354 0.108414
vt 0.296727 0.107738
vt 0.298437 0.108153
vt 0.599501 0.617077
vt 0.602732 0.614072
vt 0.603285 0.618413
vt 0.408253 0.705818
vt 0.411754 0.706570
vt 0.409051 0.706629
vt 0.239151 0.406331
vt 0.238806 0.407081
vt 0.238710 0.406774
vt 0.260780 0.431329
vt 0.260285 0.433900
vt 0.188759 0.971312
vt 0.189436 0.970407
vt 0.191488 0.972118
vt 0.559577 0.158617
vt 0.558716 0.159260
vt 0.558115 0.157931
vt 0.876002 0.108514
vt 0.880121 0.109185
vt 0.879569 0.111180
vt 0.553093 0.361419
vt 0.554007 0.366444
vt 0.550935 0.357771
vt 0.768890 0.761265
vt 0.766990 0.763534
vt 0.767616 0.761258
vt 0.462738 0.467038
vt 0.464775 0.470904
vt 0.461214 0.469112
vt 0.649587 0.588463
vt 0.647151 0.585933
vt 0.650758 0.588668
vt 0.945782 0.617065
vt 0.944431 0.616560
vt 0.945924 0.614907
vt 0.556221 0.125701
vt 0.556531 0.126959
vt 0.554979 0.126097
vt 0.480006 0.891102
vt 0.479271 0.889861
vt 0.480048 0.890252
vt 0.504816 0.816201
vt 0.504740 0.814259
vt 0.506710 0.813056
vt 0.561780 0.861746
vt 0.563603 0.862644
vt 0.562327 0.863940
vt 0.081836 0.663281
vt 0.992020 0.569869
vt 0.991938 0.571758
vt 0.990689 0.569111
vt 0.464007 0.670896
vt 0.463792 0.674480
vt 0.461553 0.671660
vt 0.760707 0.018248
vt 0.758337 0.018175
vt 0.759054 0.016262
vt 0.759205 0.021071
vt 0.870476 0.106171
vt 0.872654 0.104772
vt 0.694630 0.814481
vt 0.693997 0.813677
vt 0.698133 0.813537
vt 0.277266 0.684044
vt 0.278109 0.686699
vt 0.275664 0.684577
vt 0.817160 0.939092
vt 0.815598 0.936555
vt 0.815685 0.935527
vt 0.714755 0.431891
vt 0.717664 0.435253
vt 0.712655 0.432804
vt 0.189755 0.073231
vt 0.188737 0.070843
vt 0.191684 0.069127
vt 0.194221 0.070270
vt 0.498537 0.285817
vt 0.499191 0.288441
vt 0.498164 0.291823
vt 0.165273 0.971172
vt 0.163461 0.973430
vt 0.162306 0.972175
vt 0.870047 0.103195
vt 0.872742 0.103750
vt 0.060103 0.311476
vt 0.056998 0.312378
vt 0.057145 0.308857
vt 0.607579 0.325240
vt 0.610589 0.324863
vt 0.611142 0.328150
vt 0.788916 0.062030
vt 0.784538 0.058932
vt 0.788492 0.058994
vt 0.786610 0.062826
vt 0.370293 0.360083
vt 0.368788 0.361926
vt 0.366628 0.360122
vt 0.650009 0.165991
vt 0.650072 0.164623
vt 0.651579 0.164062
vt 0.175119 0.350512
vt 0.174167 0.347850
vt 0.177587 0.350869
vt 0.561144 0.920204
vt 0.560796 0.915054
vt 0.562707 0.917067
vt 0.053875 0.309312
vt 0.179636 0.441322
vt 0.180809 0.441686
vt 0.179919 0.442834
vt 0.059214 0.329957
vt 0.056210 0.327995
vt 0.058675 0.326123
vt 0.260195 0.438860
vt 0.262609 0.437937
vt 0.356200 0.440986
vt 0.933305 0.172811
vt 0.931900 0.173840
vt 0.932159 0.172621
vt 0.404582 0.622404
vt 0.403804 0.621003
vt 0.404665 0.621037
vt 0.787428 0.055017
vt 0.785115 0.056000
vt 0.786171 0.050728
vt 0.301133 0.479796
vt 0.299479 0.482482
vt 0.297311 0.476304
vt 0.680950 0.393947
vt 0.678457 0.395719
vt 0.676795 0.392703
vt 0.004951 0.961240
vt 0.003975 0.962325
vt 0.003211 0.960617
vt 0.609925 0.547480
vt 0.607806 0.545572
vt 0.612383 0.544471
vt 0.865054 0.101406
vt 0.868678 0.107385
vt 0.786207 0.797643
vt 0.785369 0.798422
vt 0.783197 0.796643
vt 0.292529 0.287203
vt 0.289052 0.287151
vt 0.157974 0.512063
vt 0.157298 0.513466
vt 0.156156 0.512217
vt 0.905032 0.623720
vt 0.903561 0.623668
vt 0.905019 0.622481
vt 0.616269 0.593868
vt 0.616699 0.589919
vt 0.617111 0.591513
vt 0.228238 0.978155
vt 0.228514 0.979327
vt 0.226945 0.978787
vt 0.228172 0.978116
vt 0.228447 0.980856
vt 0.356828 0.435713
vt 0.360809 0.433716
vt 0.359649 0.437675
vt 0.151001 0.507362
vt 0.148312 0.509578
vt 0.147146 0.507420
vt 0.545191 0.616075
vt 0.544389 0.614927
vt 0.548044 0.618439
vt 0.525741 0.565540
vt 0.526891 0.565052
vt 0.528120 0.565799
vt 0.748799 0.032339
vt 0.751656 0.034873
vt 0.747420 0.034968
vt 0.055008 0.291563
vt 0.054606 0.294860
vt 0.052851 0.293850
vt 0.775182 0.614520
vt 0.774795 0.616489
vt 0.773059 0.616027
vt 0.259962 0.429111
vt 0.806057 0.990235
vt 0.807292 0.988957
vt 0.806455 0.991366
vt 0.628083 0.703243
vt 0.626782 0.703997
vt 0.626411 0.702259
vt 0.270790 0.747793
vt 0.272499 0.751234
vt 0.269086 0.750258
vt 0.182332 0.365405
vt 0.181350 0.368795
vt 0.181180 0.363038
vt 0.063451 0.677627
vt 0.062558 0.677395
vt 0.062476 0.675994
vt 0.278002 0.449724
vt 0.273131 0.449579
vt 0.277104 0.446237
vt 0.558686 0.859000
vt 0.561972 0.860035
vt 0.243016 0.416357
vt 0.246232 0.418664
vt 0.242093 0.420506
vt 0.163180 0.993713
vt 0.160237 0.993300
vt 0.161191 0.992142
vt 0.141753 0.489957
vt 0.144797 0.491839
vt 0.141936 0.493619
vt 0.295716 0.470430
vt 0.293142 0.472205
vt 0.292016 0.468310
vt 0.278633 0.455448
vt 0.283325 0.289196
vt 0.280684 0.287227
vt 0.285494 0.284924
vt 0.309124 0.415853
vt 0.308183 0.415056
vt 0.309016 0.414145
vt 0.277644 0.285951
vt 0.273337 0.281677
vt 0.274145 0.280503
vt 0.135872 0.952489
vt 0.137479 0.951437
vt 0.136688 0.953726
vt 0.534210 0.571225
vt 0.535136 0.569029
vt 0.539018 0.571674
vt 0.603779 0.326981
vt 0.605141 0.324664
vt 0.712071 0.804386
vt 0.713192 0.805705
vt 0.986519 0.313464
vt 0.987937 0.312146
vt 0.987546 0.316486
vt 0.053034 0.290738
vt 0.141462 0.486369
vt 0.144493 0.488504
vt 0.139616 0.486241
vt 0.140242 0.488749
vt 0.211606 0.150970
vt 0.210154 0.151307
vt 0.211704 0.149644
vt 0.514701 0.994370
vt 0.518113 0.994775
vt 0.515095 0.996209
vt 0.476742 0.986580
vt 0.482273 0.986099
vt 0.480789 0.988444
vt 0.480076 0.985178
vt 0.728329 0.247126
vt 0.731057 0.246889
vt 0.729642 0.248301
vt 0.899694 0.739340
vt 0.901562 0.739695
vt 0.898942 0.741709
vt 0.365701 0.184741
vt 0.365288 0.183167
vt 0.366947 0.182224
vt 0.787069 0.057414
vt 0.788846 0.055283
vt 0.625138 0.396034
vt 0.626335 0.392368
vt 0.626958 0.394790
vt 0.609512 0.331735
vt 0.609780 0.329022
vt 0.611643 0.331320
vt 0.208200 0.089037
vt 0.208495 0.087745
vt 0.209517 0.087230
vt 0.464233 0.464636
vt 0.465298 0.468104
vt 0.739708 0.053922
vt 0.737055 0.052834
vt 0.736057 0.050322
vt 0.630540 0.967626
vt 0.628472 0.968711
vt 0.631418 0.965254
vt 0.280525 0.289353
vt 0.844236 0.089629
vt 0.847316 0.091178
vt 0.845038 0.092175
vt 0.181229 0.801750
vt 0.182615 0.799947
vt 0.182295 0.802562
vt 0.871260 0.109240
vt 0.802358 0.309991
vt 0.803621 0.311855
vt 0.802508 0.312382
vt 0.300940 0.483175
vt 0.303366 0.482063
vt 0.555861 0.370466
vt 0.551277 0.365647
vt 0.226056 0.981278
vt 0.278576 0.684900
vt 0.278963 0.686334
vt 0.750034 0.030330
vt 0.055693 0.294801
vt 0.057077 0.297869
vt 0.053120 0.296118
vt 0.715482 0.663138
vt 0.717354 0.666538
vt 0.717907 0.665746
vt 0.757125 0.024094
vt 0.757136 0.021061
vt 0.498795 0.663870
vt 0.499460 0.663215
vt 0.501803 0.663359
vt 0.551287 0.700193
vt 0.554985 0.698893
vt 0.554619 0.699945
vt 0.361215 0.450306
vt 0.358947 0.446804
vt 0.492011 0.185414
vt 0.490212 0.185651
vt 0.490213 0.184929
vt 0.238547 0.749831
vt 0.237353 0.748318
vt 0.239501 0.748269
vt 0.702229 0.814617
vt 0.700339 0.817259
vt 0.605300 0.330431
vt 0.553145 0.308756
vt 0.555739 0.311413
vt 0.547603 0.310145
vt 0.462746 0.667827
vt 0.052985 0.687266
vt 0.054103 0.687146
vt 0.054086 0.688728
vt 0.824329 0.861076
vt 0.826496 0.859996
vt 0.824940 0.862222
vt 0.819450 0.648398
vt 0.816205 0.649483
vt 0.817677 0.648714
vt 0.061138 0.331956
vt 0.523733 0.566915
vt 0.526536 0.568807
vt 0.511335 0.655204
vt 0.511023 0.656835
vt 0.732444 0.746552
vt 0.731078 0.749228
vt 0.730870 0.747513
vt 0.682794 0.088272
vt 0.683910 0.088756
vt 0.682934 0.090211
vt 0.454105 0.983605
vt 0.458805 0.986644
vt 0.452245 0.983226
vt 0.548893 0.363496
vt 0.941239 0.578311
vt 0.941227 0.580456
vt 0.939530 0.577340
vt 0.984020 0.331929
vt 0.985395 0.332626
vt 0.985393 0.334145
vt 0.283753 0.459178
vt 0.282902 0.462286
vt 0.281803 0.461199
vt 0.034586 0.775972
vt 0.034431 0.778608
vt 0.032890 0.780064
vt 0.761791 0.020233
vt 0.362893 0.353339
vt 0.365081 0.352763
vt 0.371220 0.356872
vt 0.467849 0.362250
vt 0.469713 0.361409
vt 0.469537 0.362028
vt 0.835032 0.941351
vt 0.834227 0.944517
vt 0.833895 0.942651
vt 0.607128 0.445793
vt 0.610211 0.445495
vt 0.610246 0.447195
vt 0.609287 0.444246
vt 0.606830 0.444530
vt 0.499576 0.835306
vt 0.501458 0.833718
vt 0.500890 0.835677
vt 0.360171 0.453874
vt 0.363204 0.454560
vt 0.361736 0.456947
vt 0.364303 0.456513
vt 0.381052 0.584921
vt 0.380798 0.584878
vt 0.380524 0.584836
vt 0.186995 0.970824
vt 0.376612 0.689911
vt 0.375358 0.688938
vt 0.378014 0.687118
vt 0.731634 0.854151
vt 0.731917 0.851823
vt 0.733033 0.852062
vt 0.607522 0.310522
vt 0.606869 0.311928
vt 0.606513 0.310974
vt 0.286630 0.463742
vt 0.287227 0.467036
vt 0.286138 0.464192
vt 0.366188 0.356887
vt 0.292506 0.287327
vt 0.292541 0.287279
vt 0.364455 0.441165
vt 0.366935 0.442729
vt 0.366874 0.446264
vt 0.780027 0.427427
vt 0.779561 0.428564
vt 0.777699 0.428461
vt 0.790325 0.069485
vt 0.786298 0.066216
vt 0.621062 0.478027
vt 0.621429 0.474792
vt 0.623325 0.476009
vt 0.456700 0.353415
vt 0.458084 0.361157
vt 0.454636 0.356401
vt 0.238530 0.406981
vt 0.710580 0.809739
vt 0.706761 0.809702
vt 0.709420 0.807880
vt 0.193096 0.239057
vt 0.194335 0.240090
vt 0.193334 0.240699
vt 0.073278 0.795289
vt 0.072385 0.793336
vt 0.074553 0.792705
vt 0.901548 0.585618
vt 0.901806 0.589514
vt 0.900957 0.588174
vt 0.354092 0.103820
vt 0.352891 0.103688
vt 0.352785 0.102177
vt 0.774431 0.551136
vt 0.773530 0.549792
vt 0.776299 0.550766
vt 0.752315 0.027138
vt 0.755135 0.028598
vt 0.784025 0.051072
vt 0.780863 0.049167
vt 0.785179 0.046340
vt 0.506087 0.811552
vt 0.975693 0.545252
vt 0.974012 0.546375
vt 0.973199 0.544185
vt 0.164983 0.446589
vt 0.165612 0.445490
vt 0.166287 0.446157
vt 0.877323 0.107096
vt 0.354014 0.354204
vt 0.352509 0.353295
vt 0.353964 0.350807
vt 0.352479 0.358243
vt 0.546215 0.313836
vt 0.543301 0.312485
vt 0.545904 0.310653
vt 0.364325 0.437892
vt 0.666050 0.090630
vt 0.665108 0.089786
vt 0.666441 0.089454
vt 0.281317 0.458442
vt 0.260569 0.600664
vt 0.261566 0.601191
vt 0.260983 0.601870
vt 0.549534 0.606047
vt 0.547893 0.608628
vt 0.545370 0.607769
vt 0.107990 0.939388
vt 0.111230 0.939923
vt 0.107924 0.940626
vt 0.055291 0.315578
vt 0.056645 0.314820
vt 0.055755 0.320089
vt 0.544363 0.612487
vt 0.758781 0.058092
vt 0.757798 0.058785
vt 0.756977 0.057804
vt 0.532064 0.570948
vt 0.532590 0.567952
vt 0.250767 0.706128
vt 0.248635 0.708842
vt 0.249342 0.705611
vt 0.345552 0.376521
vt 0.345176 0.372814
vt 0.348880 0.374874
vt 0.705505 0.471203
vt 0.984975 0.808157
vt 0.983863 0.807228
vt 0.984583 0.805827
vt 0.057721 0.338803
vt 0.058293 0.335369
vt 0.058362 0.341679
vt 0.189225 0.246253
vt 0.187311 0.247463
vt 0.187630 0.246031
vt 0.178145 0.353044
vt 0.177662 0.356314
vt 0.176409 0.355954
vt 0.859691 0.100300
vt 0.863425 0.102774
vt 0.060323 0.320590
vt 0.847245 0.781331
vt 0.848123 0.779880
vt 0.849147 0.780891
vt 0.464715 0.415863
vt 0.464462 0.416632
vt 0.463254 0.416080
vt 0.543674 0.314473
vt 0.514913 0.998432
vt 0.513367 0.996486
vt 0.072302 0.651430
vt 0.074888 0.649683
vt 0.073918 0.651348
vt 0.350384 0.360916
vt 0.351582 0.363069
vt 0.761585 0.845095
vt 0.762695 0.845430
vt 0.761010 0.846847
vt 0.238807 0.413055
vt 0.236977 0.408879
vt 0.816963 0.936063
vt 0.425920 0.519109
vt 0.427068 0.524740
vt 0.426256 0.523360
vt 0.656889 0.506402
vt 0.654701 0.509844
vt 0.654405 0.508071
vt 0.734056 0.050409
vt 0.734252 0.049780
vt 0.734584 0.052175
vt 0.272229 0.279202
vt 0.681029 0.680052
vt 0.681948 0.680869
vt 0.680624 0.680911
vt 0.069736 0.807058
vt 0.068045 0.808357
vt 0.065897 0.807880
vt 0.460203 0.668546
vt 0.618294 0.596769
vt 0.620226 0.597158
vt 0.619388 0.598142
vt 0.057693 0.302859
vt 0.059715 0.303453
vt 0.059834 0.304667
vt 0.625322 0.390699
vt 0.626632 0.391290
vt 0.147561 0.494345
vt 0.145130 0.494078
vt 0.759451 0.027733
vt 0.753448 0.026086
vt 0.755870 0.033902
vt 0.715729 0.436882
vt 0.363091 0.350512
vt 0.363774 0.352242
vt 0.781723 0.054732
vt 0.702141 0.466626
vt 0.700402 0.464792
vt 0.459236 0.986589
vt 0.814692 0.589585
vt 0.813358 0.592041
vt 0.813434 0.588131
vt 0.227039 0.922779
vt 0.230872 0.923263
vt 0.229425 0.924010
vt 0.262993 0.861056
vt 0.260045 0.861129
vt 0.260571 0.859433
vt 0.053803 0.304644
vt 0.057783 0.305833
vt 0.661385 0.502373
vt 0.659896 0.501733
vt 0.651447 0.592326
vt 0.617291 0.448313
vt 0.610802 0.451047
vt 0.614041 0.446221
vt 0.908318 0.391916
vt 0.907256 0.387655
vt 0.907368 0.384481
vt 0.350593 0.926333
vt 0.352363 0.926307
vt 0.350779 0.928084
vt 0.353834 0.927535
vt 0.479030 0.892658
vt 0.477962 0.892433
vt 0.945946 0.697600
vt 0.943402 0.698273
vt 0.943047 0.697071
vt 0.055799 0.690731
vt 0.055780 0.691955
vt 0.550312 0.308456
vt 0.548365 0.309702
vt 0.345830 0.370082
vt 0.497173 0.291671
vt 0.498173 0.287915
vt 0.713060 0.735691
vt 0.713112 0.738519
vt 0.710931 0.737831
vt 0.711323 0.735669
vt 0.181700 0.358860
vt 0.176683 0.359788
vt 0.781261 0.053815
vt 0.458630 0.356768
vt 0.457843 0.351819
vt 0.175991 0.346385
vt 0.681689 0.392172
vt 0.070729 0.866281
vt 0.070586 0.864336
vt 0.073518 0.862821
vt 0.073300 0.861561
vt 0.069914 0.865378
vt 0.055134 0.300141
vt 0.518034 0.102735
vt 0.519646 0.103714
vt 0.517886 0.104106
vt 0.242102 0.750876
vt 0.448073 0.043379
vt 0.447161 0.042334
vt 0.448144 0.041621
vt 0.049924 0.308506
vt 0.049116 0.305096
vt 0.376106 0.588213
vt 0.373572 0.584392
vt 0.373976 0.582998
vt 0.840019 0.350033
vt 0.840895 0.353738
vt 0.839385 0.352410
vt 0.296793 0.982471
vt 0.292798 0.980428
vt 0.295483 0.979215
vt 0.249179 0.490127
vt 0.247869 0.490359
vt 0.248308 0.489246
vt 0.734988 0.456841
vt 0.736086 0.458393
vt 0.734443 0.458388
vt 0.736656 0.455733
vt 0.289960 0.463370
vt 0.288768 0.458599
vt 0.290668 0.465708
vt 0.748199 0.039791
vt 0.166936 0.888224
vt 0.167819 0.886504
vt 0.167796 0.890523
vt 0.179390 0.368277
vt 0.075914 0.793428
vt 0.377603 0.362341
vt 0.377795 0.363445
vt 0.376220 0.362553
vt 0.148403 0.505424
vt 0.278288 0.285850
vt 0.144152 0.507441
vt 0.146763 0.503852
vt 0.144904 0.501530
vt 0.376997 0.585973
vt 0.378431 0.581457
vt 0.339823 0.188890
vt 0.339154 0.187299
vt 0.340786 0.187487
vt 0.621868 0.396850
vt 0.621209 0.394229
vt 0.847799 0.092034
vt 0.849947 0.092387
vt 0.851170 0.093810
vt 0.160872 0.864541
vt 0.159652 0.865428
vt 0.156130 0.864497
vt 0.591046 0.146218
vt 0.592839 0.145979
vt 0.592405 0.148047
vt 0.061370 0.311870
vt 0.062051 0.317188
vt 0.526189 0.997285
vt 0.525976 0.995660
vt 0.530899 0.998115
vt 0.874532 0.109573
vt 0.060395 0.317631
vt 0.846527 0.094233
vt 0.274133 0.444657
vt 0.683275 0.091658
vt 0.529615 0.567774
vt 0.531118 0.567102
vt 0.362286 0.436218
vt 0.856604 0.100141
vt 0.855399 0.099083
vt 0.858305 0.097542
vt 0.167601 0.112834
vt 0.166139 0.111368
vt 0.168013 0.111314
vt 0.854415 0.095494
vt 0.853114 0.097162
vt 0.263523 0.435304
vt 0.263703 0.433413
vt 0.159668 0.063458
vt 0.161925 0.063970
vt 0.161205 0.064328
vt 0.181373 0.799671
vt 0.603471 0.619743
vt 0.601900 0.620766
vt 0.738735 0.046832
vt 0.741767 0.049541
vt 0.739568 0.050888
vt 0.287434 0.283048
vt 0.290751 0.284085
vt 0.975502 0.402068
vt 0.974885 0.401336
vt 0.976241 0.399659
vt 0.499012 0.281620
vt 0.499896 0.284704
vt 0.270046 0.437827
vt 0.270128 0.436658
vt 0.273224 0.439154
vt 0.297310 0.993336
vt 0.294391 0.992250
vt 0.296885 0.992053
vt 0.474431 0.894390
vt 0.475383 0.891332
vt 0.476037 0.892701
vt 0.001127 0.964212
vt 0.001242 0.962728
vt 0.168232 0.971921
vt 0.167211 0.974013
vt 0.589713 0.096805
vt 0.590065 0.098544
vt 0.588512 0.096650
vt 0.162897 0.130841
vt 0.162352 0.128871
vt 0.163567 0.129837
vt 0.382604 0.581489
vt 0.269398 0.277855
vt 0.269360 0.279415
vt 0.268134 0.278461
vt 0.260632 0.275269
vt 0.366020 0.436299
vt 0.250700 0.706418
vt 0.250770 0.706177
vt 0.733517 0.674943
vt 0.732370 0.673435
vt 0.733898 0.673732
vt 0.698749 0.811948
vt 0.696277 0.811541
vt 0.413973 0.937776
vt 0.414763 0.936169
vt 0.418400 0.936270
vt 0.916212 0.505678
vt 0.917418 0.505928
vt 0.916341 0.509152
vt 0.172993 0.326785
vt 0.174007 0.328023
vt 0.172158 0.327624
vt 0.626641 0.399033
vt 0.241403 0.411630
vt 0.429877 0.527877
vt 0.587399 0.123902
vt 0.588657 0.124893
vt 0.587773 0.124746
vt 0.138196 0.499970
vt 0.138230 0.495419
vt 0.139653 0.501704
vt 0.123305 0.651639
vt 0.125515 0.652184
vt 0.125433 0.654095
vt 0.062256 0.335706
vt 0.505400 0.645076
vt 0.511144 0.648153
vt 0.507363 0.646267
vt 0.370533 0.576520
vt 0.373319 0.576982
vt 0.371384 0.579289
vt 0.961017 0.737882
vt 0.959785 0.737554
vt 0.959071 0.736835
vt 0.126345 0.460334
vt 0.125060 0.461274
vt 0.124508 0.459718
vt 0.266925 0.441671
vt 0.460937 0.358108
vt 0.463258 0.357866
vt 0.464826 0.360813
vt 0.464854 0.357616
vt 0.934059 0.423448
vt 0.936126 0.425151
vt 0.934861 0.426203
vt 0.126737 0.651022
vt 0.608274 0.453789
vt 0.605435 0.452350
vt 0.962384 0.705306
vt 0.961163 0.702461
vt 0.962350 0.702719
vt 0.026653 0.234895
vt 0.025682 0.232471
vt 0.026401 0.233654
vt 0.560500 0.863263
vt 0.560553 0.864426
vt 0.558736 0.863985
vt 0.674395 0.859599
vt 0.671984 0.861347
vt 0.672503 0.859793
vt 0.431605 0.531355
vt 0.431367 0.532719
vt 0.430476 0.531424
vt 0.513270 0.995314
vt 0.295807 0.479594
vt 0.376954 0.695328
vt 0.375655 0.694198
vt 0.378169 0.694573
vt 0.547135 0.603340
vt 0.547353 0.601336
vt 0.185378 0.071723
vt 0.186026 0.074490
vt 0.182709 0.072726
vt 0.240217 0.415993
vt 0.090517 0.695931
vt 0.087330 0.694463
vt 0.089968 0.694136
vt 0.651715 0.587305
vt 0.652410 0.590492
vt 0.113663 0.856703
vt 0.112154 0.855381
vt 0.113653 0.853425
vt 0.464447 0.471863
vt 0.460568 0.454054
vt 0.462442 0.453390
vt 0.461882 0.455590
vt 0.604359 0.455529
vt 0.604134 0.453664
vt 0.464707 0.668862
vt 0.620955 0.595855
vt 0.604330 0.334701
vt 0.602470 0.331660
vt 0.242969 0.406285
vt 0.243454 0.410445
vt 0.241252 0.407205
vt 0.012294 0.971842
vt 0.013479 0.970506
vt 0.015050 0.971680
vt 0.155129 0.142191
vt 0.156706 0.143341
vt 0.155250 0.144123
vt 0.356865 0.438173
vt 0.715046 0.662685
vt 0.715141 0.662634
vt 0.257049 0.426357
vt 0.254907 0.424669
vt 0.586768 0.833179
vt 0.586016 0.834101
vt 0.584861 0.833658
vt 0.124975 0.649076
vt 0.901821 0.602535
vt 0.900989 0.603638
vt 0.900569 0.602425
vt 0.371210 0.692255
vt 0.374403 0.694988
vt 0.373147 0.695851
vt 0.151771 0.169688
vt 0.149577 0.170094
vt 0.151054 0.168972
vt 0.380906 0.584779
vt 0.382999 0.582930
vt 0.509722 0.261029
vt 0.507116 0.260706
vt 0.508299 0.259577
vt 0.760556 0.665297
vt 0.759376 0.665428
vt 0.758897 0.664406
vt 0.275080 0.455737
vt 0.276678 0.456977
vt 0.282908 0.283041
vt 0.737054 0.053297
vt 0.740259 0.055051
vt 0.487524 0.800102
vt 0.488456 0.799034
vt 0.489676 0.799993
vt 0.487470 0.800257
vt 0.487459 0.800311
vt 0.489888 0.801636
vt 0.487509 0.801449
vt 0.487386 0.800331
vt 0.827762 0.354856
vt 0.827823 0.352173
vt 0.828662 0.352563
vt 0.827788 0.354889
vt 0.498244 0.281360
vt 0.499717 0.279769
vt 0.500095 0.281838
vt 0.653208 0.509749
vt 0.654198 0.510704
vt 0.653475 0.511553
vt 0.779964 0.046074
vt 0.778984 0.046517
vt 0.944804 0.615162
vt 0.289842 0.281965
vt 0.698156 0.465163
vt 0.697236 0.465092
vt 0.698100 0.463722
vt 0.815529 0.284233
vt 0.816533 0.286226
vt 0.813056 0.284395
vt 0.741818 0.044200
vt 0.613127 0.444815
vt 0.986453 0.438436
vt 0.985957 0.440376
vt 0.984469 0.438759
vt 0.987846 0.439350
vt 0.959256 0.727896
vt 0.958790 0.731337
vt 0.958288 0.730771
vt 0.983999 0.277115
vt 0.984640 0.276913
vt 0.984170 0.277429
vt 0.740831 0.055415
vt 0.742702 0.055904
vt 0.741615 0.056521
vt 0.743426 0.054646
vt 0.272920 0.441539
vt 0.269443 0.446581
vt 0.851001 0.096899
vt 0.293448 0.780213
vt 0.289442 0.778583
vt 0.289477 0.776398
vt 0.654607 0.508864
vt 0.654245 0.509833
vt 0.252315 0.422613
vt 0.249823 0.422616
vt 0.248499 0.419295
vt 0.404895 0.296679
vt 0.403831 0.297370
vt 0.403195 0.296691
vt 0.889885 0.878715
vt 0.890741 0.877537
vt 0.892158 0.877782
vt 0.149977 0.519808
vt 0.152917 0.515171
vt 0.154374 0.517032
vt 0.618308 0.592499
vt 0.549007 0.312711
vt 0.244458 0.413648
vt 0.667972 0.426857
vt 0.666691 0.426216
vt 0.667175 0.425413
vt 0.272780 0.454708
vt 0.765855 0.477854
vt 0.764622 0.476785
vt 0.766199 0.476941
vt 0.806099 0.660372
vt 0.804519 0.660699
vt 0.805148 0.658966
vt 0.500634 0.295554
vt 0.498700 0.298264
vt 0.497539 0.294912
vt 0.872157 0.547545
vt 0.869474 0.549240
vt 0.869074 0.548074
vt 0.755543 0.478896
vt 0.601199 0.613812
vt 0.604020 0.611247
vt 0.563994 0.771214
vt 0.565283 0.770644
vt 0.563745 0.772151
vt 0.563344 0.771141
vt 0.565491 0.769435
vt 0.135195 0.038762
vt 0.136511 0.038685
vt 0.136985 0.039365
vt 0.135349 0.038982
vt 0.850261 0.095761
vt 0.848742 0.094209
vt 0.849670 0.096107
vt 0.059368 0.308198
vt 0.378712 0.587879
vt 0.378318 0.589287
vt 0.191303 0.854962
vt 0.196257 0.857698
vt 0.194055 0.857678
vt 0.547547 0.703983
vt 0.548718 0.699127
vt 0.839300 0.086379
vt 0.669399 0.863258
vt 0.665513 0.866158
vt 0.665290 0.864533
vt 0.278753 0.282856
vt 0.627660 0.397370
vt 0.290168 0.781255
vt 0.289037 0.781929
vt 0.312834 0.922044
vt 0.313221 0.919365
vt 0.314866 0.919749
vt 0.373874 0.362762
vt 0.313642 0.924893
vt 0.311989 0.926323
vt 0.312248 0.924393
vt 0.753202 0.035430
vt 0.751683 0.039139
vt 0.976067 0.547339
vt 0.974002 0.278415
vt 0.971226 0.280892
vt 0.972389 0.278038
vt 0.201300 0.644998
vt 0.200359 0.646364
vt 0.199956 0.644235
vt 0.657962 0.507030
vt 0.657755 0.508649
vt 0.271752 0.451483
vt 0.458804 0.466357
vt 0.459667 0.466800
vt 0.457762 0.469179
vt 0.153946 0.512140
vt 0.149435 0.511531
vt 0.450822 0.474918
vt 0.449492 0.471765
vt 0.453147 0.473886
vt 0.740403 0.044397
vt 0.285825 0.466007
vt 0.103854 0.057202
vt 0.102371 0.058614
vt 0.102045 0.058189
vt 0.554489 0.123576
vt 0.553594 0.122297
vt 0.554197 0.120702
vt 0.140530 0.744081
vt 0.142036 0.744184
vt 0.139875 0.745383
vt 0.566058 0.918309
vt 0.565272 0.920099
vt 0.564458 0.917766
vt 0.552397 0.373181
vt 0.552012 0.371574
vt 0.890646 0.868317
vt 0.890265 0.869535
vt 0.888963 0.868477
vt 0.933381 0.576704
vt 0.933505 0.577755
vt 0.931600 0.578502
vt 0.166558 0.891604
vt 0.203124 0.647960
vt 0.204191 0.646365
vt 0.205335 0.648323
vt 0.066721 0.831337
vt 0.070841 0.830435
vt 0.069188 0.831904
vt 0.081425 0.058097
vt 0.082223 0.059882
vt 0.080367 0.059722
vt 0.155478 0.514297
vt 0.152614 0.513083
vt 0.322562 0.346571
vt 0.323981 0.346686
vt 0.324351 0.347432
vt 0.293207 0.464268
vt 0.293988 0.465867
vt 0.505169 0.668132
vt 0.501950 0.668405
vt 0.504725 0.666938
vt 0.503478 0.665460
vt 0.291743 0.462000
vt 0.052216 0.301977
vt 0.073364 0.649467
vt 0.071474 0.649641
vt 0.735298 0.052389
vt 0.736510 0.053053
vt 0.604792 0.617628
vt 0.604499 0.616369
vt 0.810979 0.723882
vt 0.809798 0.720716
vt 0.810651 0.721951
vt 0.233200 0.412477
vt 0.234318 0.411974
vt 0.235435 0.415096
vt 0.054034 0.289827
vt 0.452344 0.354174
vt 0.452626 0.352025
vt 0.454116 0.350597
vt 0.929241 0.791408
vt 0.931355 0.790041
vt 0.930128 0.792873
vt 0.422063 0.920191
vt 0.420457 0.921050
vt 0.421059 0.920446
vt 0.198142 0.068923
vt 0.196675 0.068490
vt 0.201604 0.067153
vt 0.680576 0.395661
vt 0.680185 0.398740
vt 0.009302 0.685997
vt 0.008297 0.684805
vt 0.008115 0.682440
vt 0.955229 0.736849
vt 0.952931 0.739296
vt 0.954333 0.737235
vt 0.091582 0.074012
vt 0.092814 0.074799
vt 0.091023 0.075540
vt 0.990700 0.579194
vt 0.990796 0.577049
vt 0.992729 0.577080
vt 0.464678 0.460735
vt 0.463865 0.462705
vt 0.292571 0.287237
vt 0.078500 0.664814
vt 0.062789 0.326805
vt 0.754520 0.024930
vt 0.146734 0.512161
vt 0.145156 0.508924
vt 0.807023 0.686753
vt 0.805854 0.686393
vt 0.806780 0.686524
vt 0.313136 0.142580
vt 0.311999 0.141441
vt 0.314287 0.140821
vt 0.263131 0.432091
vt 0.895231 0.733266
vt 0.894126 0.735084
vt 0.893690 0.733825
vt 0.572753 0.108710
vt 0.573250 0.107072
vt 0.574450 0.107942
vt 0.572354 0.106618
vt 0.734955 0.472109
vt 0.732997 0.470629
vt 0.735574 0.468772
vt 0.475109 0.528752
vt 0.475029 0.530387
vt 0.474208 0.529803
vt 0.294639 0.285834
vt 0.302288 0.479812
vt 0.059200 0.302226
vt 0.714329 0.804379
vt 0.714205 0.802220
vt 0.087948 0.483076
vt 0.088785 0.481507
vt 0.089507 0.482770
vt 0.396079 0.108363
vt 0.397812 0.107597
vt 0.397339 0.109322
vt 0.500112 0.665683
vt 0.034569 0.411677
vt 0.035627 0.411088
vt 0.036030 0.412334
vt 0.177563 0.377056
vt 0.180394 0.373365
vt 0.180184 0.374722
vt 0.736876 0.049375
vt 0.246720 0.423049
vt 0.249051 0.425817
vt 0.497082 0.298099
vt 0.495758 0.293835
vt 0.140826 0.494001
vt 0.140013 0.492668
vt 0.076319 0.087521
vt 0.075348 0.089111
vt 0.074754 0.088293
vt 0.761629 0.154071
vt 0.760317 0.152720
vt 0.762264 0.153198
vt 0.789078 0.064570
vt 0.060810 0.308411
vt 0.497186 0.125696
vt 0.495259 0.126006
vt 0.495579 0.124858
vt 0.286106 0.741938
vt 0.289560 0.743410
vt 0.289379 0.744500
vt 0.447356 0.106574
vt 0.450280 0.105663
vt 0.449745 0.106723
vt 0.061621 0.340152
vt 0.688748 0.889215
vt 0.693505 0.887678
vt 0.691599 0.888874
vt 0.875567 0.462641
vt 0.878175 0.464589
vt 0.876054 0.464258
vt 0.944067 0.144989
vt 0.943968 0.143040
vt 0.944686 0.142552
vt 0.969818 0.094678
vt 0.969362 0.094220
vt 0.971382 0.093934
vt 0.786523 0.086216
vt 0.785355 0.084349
vt 0.785969 0.083573
vt 0.495642 0.102075
vt 0.493952 0.101039
vt 0.496586 0.100974
vt 0.708762 0.074439
vt 0.707028 0.074371
vt 0.707911 0.073370
vt 0.614543 0.443960
vt 0.615312 0.444728
vt 0.455595 0.978336
vt 0.453416 0.977853
vt 0.455366 0.974464
vt 0.890905 0.410763
vt 0.890316 0.412028
vt 0.889474 0.412481
vt 0.557642 0.366762
vt 0.556919 0.365432
vt 0.138742 0.953805
vt 0.138543 0.952135
vt 0.157194 0.516057
vt 0.155940 0.514592
vt 0.158228 0.517347
vt 0.413435 0.706409
vt 0.412483 0.704237
vt 0.240762 0.418133
vt 0.379125 0.877117
vt 0.378789 0.875902
vt 0.380608 0.873910
vt 0.702265 0.071543
vt 0.702254 0.070094
vt 0.703578 0.070699
vt 0.355746 0.428376
vt 0.354093 0.429622
vt 0.358104 0.430846
vt 0.258732 0.260830
vt 0.255855 0.260694
vt 0.257287 0.259919
vt 0.063625 0.341187
vt 0.063399 0.342522
vt 0.745987 0.038407
vt 0.745820 0.044586
vt 0.591384 0.829977
vt 0.590944 0.831650
vt 0.589949 0.830818
vt 0.347200 0.377601
vt 0.005764 0.102637
vt 0.005151 0.100854
vt 0.006533 0.101412
vt 0.006123 0.100658
vt 0.813888 0.724814
vt 0.813026 0.725625
vt 0.234971 0.417284
vt 0.236804 0.418232
vt 0.238797 0.417005
vt 0.238163 0.418511
vt 0.488419 0.185033
vt 0.283657 0.290880
vt 0.282198 0.291942
vt 0.732285 0.476407
vt 0.731594 0.478738
vt 0.730847 0.475801
vt 0.349151 0.364985
vt 0.077967 0.416139
vt 0.076315 0.415061
vt 0.077271 0.414785
vt 0.789864 0.526047
vt 0.792126 0.525909
vt 0.793197 0.526609
vt 0.453834 0.360071
vt 0.467157 0.467034
vt 0.059935 0.306779
vt 0.059691 0.305447
vt 0.681620 0.145826
vt 0.680855 0.144961
vt 0.683489 0.145600
vt 0.983603 0.334271
vt 0.528363 0.047417
vt 0.528739 0.049130
vt 0.527866 0.048514
vt 0.718686 0.433973
vt 0.719703 0.438432
vt 0.558266 0.917168
vt 0.559276 0.914618
vt 0.765606 0.582328
vt 0.765203 0.580674
vt 0.765429 0.579586
vt 0.062857 0.309879
vt 0.150545 0.521114
vt 0.610216 0.550889
vt 0.607996 0.548867
vt 0.257361 0.858738
vt 0.257661 0.860362
vt 0.907391 0.378025
vt 0.908537 0.381648
vt 0.906955 0.380484
vt 0.908276 0.378013
vt 0.837910 0.070646
vt 0.836460 0.070745
vt 0.836410 0.069514
vt 0.167078 0.884939
vt 0.718569 0.438006
vt 0.717416 0.438865
vt 0.070814 0.717714
vt 0.071949 0.715732
vt 0.072677 0.718063
vt 0.508837 0.811976
vt 0.507633 0.811250
vt 0.748932 0.271594
vt 0.747488 0.271003
vt 0.747561 0.269523
vt 0.460075 0.355663
vt 0.461086 0.355599
vt 0.257251 0.435616
vt 0.256309 0.434420
vt 0.749426 0.650558
vt 0.750002 0.652212
vt 0.747926 0.651960
vt 0.911807 0.925618
vt 0.911267 0.927520
vt 0.909765 0.926226
vt 0.910251 0.924646
vt 0.428766 0.524462
vt 0.713164 0.438325
vt 0.764742 0.478844
vt 0.763830 0.478166
vt 0.617795 0.587367
vt 0.618733 0.591314
vt 0.617519 0.589240
vt 0.145738 0.490285
vt 0.741949 0.589190
vt 0.740807 0.586991
vt 0.742765 0.587055
vt 0.151148 0.512976
vt 0.459678 0.985850
vt 0.460522 0.987221
vt 0.915246 0.330657
vt 0.916551 0.333088
vt 0.915779 0.335232
vt 0.235570 0.410385
vt 0.468037 0.159479
vt 0.467069 0.160374
vt 0.466566 0.160445
vt 0.466709 0.160078
vt 0.893487 0.731632
vt 0.893943 0.731624
vt 0.240339 0.405017
vt 0.258280 0.150881
vt 0.260023 0.150556
vt 0.260386 0.150872
vt 0.259896 0.151522
vt 0.173394 0.335537
vt 0.174248 0.335583
vt 0.174335 0.336178
vt 0.922537 0.566076
vt 0.921677 0.567649
vt 0.921428 0.567485
vt 0.921561 0.566601
vt 0.380568 0.585192
vt 0.393951 0.918297
vt 0.396319 0.918325
vt 0.396494 0.918808
vt 0.396866 0.922597
vt 0.397652 0.920754
vt 0.466652 0.362331
vt 0.466374 0.362309
vt 0.249545 0.709591
vt 0.378330 0.590063
vt 0.534306 0.113178
vt 0.533990 0.113406
vt 0.534096 0.113105
vt 0.649841 0.454820
vt 0.649331 0.456539
vt 0.649535 0.454778
vt 0.282974 0.195731
vt 0.282485 0.195899
vt 0.282636 0.195554
vt 0.283308 0.195042
vt 0.466731 0.414332
vt 0.466061 0.413468
vt 0.466871 0.414299
vt 0.285301 0.294309
vt 0.288095 0.293980
vt 0.287319 0.294156
vt 0.288591 0.293204
vt 0.102690 0.934267
vt 0.104349 0.933379
vt 0.103506 0.934941
vn -0.2226 0.6249 0.7483
vn -0.8787 0.3704 0.3011
vn -0.8054 0.0137 0.5926
vn -0.1397 0.0124 0.9901
vn -0.2355 0.5973 0.7666
vn -0.1758 0.1649 0.9705
vn 0.0986 0.9439 0.3151
vn 0.0002 0.9838 -0.1791
vn -0.4224 -0.0247 0.9061
vn -0.0425 -0.9988 0.0246
vn -0.3467 -0.4728 0.8101
vn 0.0456 -0.9934 0.1049
vn 0.1947 -0.2018 -0.9599
vn -0.1039 0.4990 -0.8604
vn 0.0814 0.4777 -0.8748
vn 0.0054 0.9992 0.0394
vn 0.1157 0.9930 -0.0260
vn 0.1327 0.9863 -0.0981
vn -0.2462 0.9090 0.3364
vn -0.1686 0.3873 0.9064
vn -0.0779 0.9954 0.0552
vn -0.2322 0.3633 0.9023
vn -0.0395 0.5053 -0.8620
vn 0.0725 0.9974 0.0042
vn 0.2822 0.2933 -0.9134
vn -0.0346 0.9853 -0.1671
vn 0.0765 0.9919 -0.1015
vn 0.6048 0.4343 -0.6675
vn 0.5113 0.4902 -0.7059
vn 0.0086 0.9986 -0.0526
vn 0.7478 0.3302 -0.5761
vn -0.2237 0.8061 0.5478
vn -0.2394 0.8212 0.5180
vn -0.2695 -0.5632 0.7811
vn 0.6537 -0.1642 -0.7387
vn 0.6708 -0.3624 -0.6470
vn 0.7712 -0.0658 -0.6332
vn 0.3717 -0.7058 -0.6030
vn 0.3114 0.9366 -0.1606
vn 0.2257 0.9557 -0.1892
vn 0.4025 0.9072 -0.1221
vn -0.2042 -0.7796 -0.5921
vn 0.0660 -0.1274 -0.9896
vn 0.5929 -0.6709 -0.4455
vn -0.0381 -0.9989 -0.0267
vn -0.2656 -0.7670 0.5841
vn -0.2523 -0.7487 0.6131
vn -0.0116 -0.8802 0.4744
vn 0.1911 -0.9154 0.3542
vn 0.1243 -0.9369 0.3269
vn 0.3832 0.5414 -0.7484
vn 0.4761 0.5827 -0.6587
vn 0.2691 0.4477 -0.8527
vn 0.5603 0.1331 0.8175
vn -0.6503 -0.4788 0.5898
vn 0.3860 0.3141 0.8673
vn 0.1774 0.9431 0.2812
vn 0.0934 0.9838 0.1532
vn -0.1137 0.9002 -0.4205
vn -0.2400 0.9708 0.0065
vn -0.0646 0.9644 -0.2564
vn 0.0300 0.9969 -0.0732
vn 0.1083 0.9745 -0.1967
vn -0.5997 0.7452 0.2918
vn -0.2670 0.8045 0.5306
vn -0.8493 -0.3128 0.4253
vn -0.5269 -0.6815 0.5079
vn -0.4700 -0.7278 0.4994
vn -0.0100 0.8664 -0.4993
vn -0.0162 0.9842 -0.1766
vn -0.1828 0.8027 -0.5677
vn -0.6456 -0.1031 -0.7567
vn 0.1503 -0.2048 -0.9672
vn -0.5816 -0.0008 -0.8135
vn -0.2277 -0.6987 -0.6782
vn 0.3599 -0.0411 -0.9321
vn -0.1962 0.4107 0.8904
vn -0.2217 -0.7390 0.6362
vn -0.0950 -0.4242 0.9006
vn -0.2344 -0.8569 0.4591
vn -0.1251 -0.8590 0.4964
vn -0.0581 -0.9497 0.3078
vn -0.2186 -0.6518 0.7262
vn -0.1321 -0.8271 0.5463
vn -0.2315 -0.7874 0.5714
vn 0.1206 0.9794 -0.1622
vn 0.0539 0.9885 -0.1415
vn 0.0729 -0.9944 0.0771
vn -0.0340 -0.9447 0.3263
vn -0.0482 -0.9710 0.2341
vn -0.1288 0.8970 0.4228
vn -0.5639 -0.1082 0.8187
vn -0.0080 0.9206 0.3904
vn 0.0028 0.9851 -0.1720
vn -0.0040 0.9842 0.1770
vn -0.2272 0.9669 -0.1163
vn 0.3553 -0.4716 -0.8070
vn 0.1729 -0.5635 -0.8078
vn 0.1894 0.4102 -0.8921
vn -0.1893 -0.7819 0.5939
vn -0.1722 -0.8799 0.4429
vn -0.2144 -0.8263 0.5208
vn -0.7110 0.7000 -0.0666
vn -0.2525 0.9676 0.0048
vn -0.7231 0.6508 -0.2316
vn -0.1684 0.1924 0.9668
vn -0.1156 0.0382 0.9926
vn -0.1231 -0.8407 0.5273
vn -0.1720 -0.7996 0.5754
vn -0.0507 -0.9084 0.4151
vn -0.6109 -0.5737 0.5456
vn -0.1374 0.6215 0.7713
vn 0.0862 0.9963 0.0045
vn -0.6100 -0.6272 0.4843
vn -0.2052 -0.5322 0.8214
vn -0.2243 -0.5724 0.7887
vn -0.0980 0.9764 0.1925
vn 0.0423 0.9990 -0.0170
vn -0.3012 -0.5373 0.7878
vn -0.1168 -0.8873 0.4462
vn 0.3802 -0.9246 -0.0221
vn -0.0685 -0.9900 -0.1236
vn 0.1438 -0.5342 -0.8330
vn -0.0901 0.9805 -0.1747
vn 0.1218 0.9895 0.0773
vn -0.1182 -0.8795 0.4611
vn -0.1585 -0.8756 0.4563
vn -0.0440 -0.8212 0.5689
vn 0.3741 -0.6776 -0.6332
vn -0.0105 -0.9937 -0.1120
vn 0.0090 0.9799 0.1994
vn -0.5578 -0.0608 0.8277
vn -0.0302 0.2235 0.9742
vn 0.0380 -0.9929 -0.1126
vn 0.0304 -0.9918 0.1241
vn 0.0061 -0.9953 0.0965
vn -0.0470 -0.9471 0.3175
vn 0.0754 0.0164 0.9970
vn -0.1875 -0.2667 0.9454
vn -0.3947 -0.8288 0.3967
vn -0.5564 -0.4881 0.6725
vn -0.1876 -0.8226 0.5368
vn -0.1105 -0.8919 0.4386
vn -0.3864 -0.5365 0.7502
vn -0.3722 -0.9243 0.0846
vn -0.4807 -0.7972 0.3653
vn 0.4307 0.2863 -0.8559
vn 0.1494 0.4729 -0.8684
vn 0.4256 0.6355 -0.6442
vn 0.3728 0.7119 -0.5952
vn -0.1486 -0.9132 0.3794
vn 0.1956 0.6641 -0.7216
vn 0.3675 -0.4298 -0.8248
vn 0.1401 -0.9899 0.0222
vn 0.0394 -0.9769 0.2100
vn 0.5887 -0.4278 -0.6859
vn 0.4909 0.0422 -0.8702
vn 0.2902 0.6858 -0.6675
vn -0.2711 -0.7123 0.6474
vn -0.2277 0.8252 0.5168
vn -0.5270 -0.8312 0.1771
vn 0.2348 -0.5050 -0.8306
vn -0.0378 -0.9977 -0.0567
vn 0.2240 -0.5415 -0.8103
vn 0.0309 0.9993 -0.0215
vn 0.2787 0.9586 -0.0582
vn 0.2211 -0.9409 -0.2566
vn -0.0166 0.9449 0.3271
vn -0.0293 0.8606 0.5085
vn -0.2255 -0.8633 0.4514
vn -0.1854 -0.7822 0.5948
vn 0.2798 -0.8263 -0.4888
vn -0.3582 0.3311 0.8730
vn 0.1276 0.9743 -0.1859
vn 0.1273 0.8687 -0.4786
vn 0.1668 0.6558 -0.7363
vn 0.2551 0.4988 -0.8283
vn -0.0135 0.9359 -0.3521
vn -0.9731 0.1996 -0.1152
vn -0.4523 0.8832 0.1242
vn -0.9096 0.3844 -0.1573
vn -0.5364 0.7762 0.3315
vn -0.0042 0.9916 0.1291
vn 0.1081 0.9930 -0.0469
vn 0.1893 0.9817 -0.0209
vn 0.0621 0.9725 0.2245
vn 0.1421 -0.9510 -0.2747
vn 0.2655 -0.8292 0.4918
vn -0.2530 -0.7761 0.5776
vn -0.4178 -0.3945 0.8184
vn -0.2672 -0.6034 0.7513
vn -0.3806 -0.4209 0.8234
vn -0.4055 0.4489 0.7963
vn 0.0063 -0.9556 0.2946
vn 0.0254 -0.9270 0.3743
vn 0.0606 0.9602 0.2727
vn 0.1143 0.9928 0.0360
vn 0.0705 0.9969 -0.0340
vn 0.1251 0.9817 -0.1438
vn 0.4231 0.6915 -0.5855
vn -0.3255 0.9436 0.0605
vn 0.1480 0.9551 -0.2567
vn 0.1980 -0.4925 -0.8475
vn 0.2598 -0.3156 -0.9126
vn 0.0234 0.5103 -0.8597
vn 0.1166 -0.4689 -0.8755
vn 0.1253 -0.4525 -0.8829
vn 0.2751 -0.8742 -0.4001
vn -0.3000 -0.6960 0.6523
vn -0.1110 0.9526 0.2833
vn -0.0158 0.9088 0.4169
vn 0.1450 -0.5681 -0.8101
vn 0.1014 -0.5293 -0.8424
vn 0.3015 -0.3773 -0.8757
vn -0.0875 0.3644 0.9271
vn -0.0685 -0.2521 0.9653
vn -0.4260 0.7956 0.4307
vn -0.2021 0.8767 0.4365
vn -0.0120 0.9942 -0.1070
vn -0.1886 -0.8369 0.5139
vn -0.2711 -0.5622 0.7813
vn -0.1258 0.9878 -0.0916
vn -0.2243 0.9684 0.1088
vn 0.4335 0.5657 -0.7015
vn -0.1198 -0.5577 -0.8213
vn 0.1091 -0.6969 -0.7088
vn -0.0761 -0.9682 -0.2385
vn -0.2585 0.5243 0.8113
vn -0.5556 0.0276 0.8310
vn -0.1042 -0.9425 0.3175
vn 0.1349 -0.9870 -0.0876
vn -0.2042 -0.3716 0.9057
vn -0.3976 -0.4476 0.8010
vn -0.0278 -0.9931 0.1143
vn 0.0238 -0.9974 0.0685
vn -0.1036 -0.3187 0.9422
vn -0.4702 -0.1833 0.8633
vn -0.4313 -0.6305 0.6454
vn -0.1206 -0.9903 0.0686
vn 0.2878 -0.9385 -0.1905
vn -0.6130 -0.5556 0.5617
vn 0.1048 -0.9516 0.2889
vn 0.0511 0.9804 -0.1902
vn -0.2582 0.9660 0.0126
vn -0.2416 -0.5323 0.8113
vn -0.4424 -0.4455 0.7783
vn -0.3866 -0.9221 0.0143
vn -0.3143 -0.9445 0.0954
vn -0.1645 0.7977 0.5802
vn 0.0008 0.9982 0.0601
vn -0.0575 0.9963 0.0640
vn 0.2531 -0.3215 -0.9124
vn 0.2475 -0.3227 -0.9136
vn 0.1862 -0.3292 -0.9257
vn 0.0722 -0.9913 0.1101
vn 0.0688 -0.9823 0.1743
vn -0.0062 0.6745 -0.7383
vn -0.1429 -0.9240 0.3547
vn 0.1223 0.9921 0.0270
vn 0.0476 0.8583 -0.5109
vn -0.2405 -0.9134 -0.3285
vn -0.1683 -0.7991 0.5771
vn -0.1136 -0.9063 0.4070
vn -0.0115 -0.8023 0.5969
vn 0.2135 0.4309 -0.8768
vn 0.2297 0.3641 -0.9026
vn 0.3382 -0.5168 -0.7865
vn 0.1916 -0.5369 -0.8216
vn 0.2300 -0.4123 -0.8815
vn -0.0249 -0.9707 -0.2391
vn 0.0700 -0.3283 -0.9420
vn 0.1634 0.2760 -0.9472
vn 0.1734 0.2189 -0.9602
vn 0.1864 0.9772 0.1017
vn -0.1703 -0.9853 -0.0090
vn 0.7962 0.5454 -0.2619
vn 0.6609 0.6554 -0.3656
vn -0.0953 -0.7966 0.5969
vn -0.3514 -0.5670 0.7450
vn 0.0056 0.9904 0.1383
vn -0.0892 0.8611 0.5006
vn -0.1162 0.8898 -0.4413
vn 0.1322 0.3662 -0.9211
vn -0.2521 0.9673 -0.0283
vn 0.8249 0.0934 -0.5575
vn 0.6751 0.1691 -0.7181
vn 0.2505 -0.0069 -0.9681
vn -0.1429 -0.8540 0.5002
vn 0.0882 -0.9193 -0.3836
vn 0.0937 -0.6953 -0.7126
vn 0.1240 -0.9835 0.1315
vn 0.1755 0.9845 -0.0047
vn -0.0670 0.9897 0.1262
vn 0.1159 -0.5621 -0.8189
vn -0.0490 -0.9961 0.0730
vn 0.2445 -0.7846 -0.5698
vn 0.3396 0.0459 0.9394
vn 0.3208 0.0233 0.9469
vn 0.0288 0.6128 0.7897
vn -0.2195 -0.7592 0.6128
vn 0.2354 -0.4418 -0.8657
vn -0.4673 -0.0912 -0.8794
vn -0.4499 0.7861 0.4238
vn -0.3978 -0.0997 0.9120
vn -0.4168 -0.1931 0.8882
vn -0.3691 0.4522 0.8120
vn -0.3512 -0.9338 0.0688
vn -0.0162 -0.8147 -0.5797
vn -0.3447 0.9387 0.0055
vn 0.3112 0.7411 -0.5949
vn 0.0804 0.8181 -0.5694
vn 0.0637 -0.9600 -0.2725
vn 0.2464 -0.4574 -0.8544
vn 0.1114 -0.9377 0.3292
vn 0.0805 -0.9939 0.0748
vn 0.3815 -0.8959 -0.2276
vn -0.2392 -0.6722 0.7006
vn 0.3766 0.2226 -0.8992
vn 0.3201 0.7695 -0.5527
vn -0.4583 -0.1852 -0.8693
vn -0.8514 -0.4549 0.2612
vn -0.7577 -0.2794 0.5898
vn -0.1688 -0.3535 0.9201
vn -0.7484 0.6224 -0.2293
vn -0.1055 0.9019 -0.4189
vn 0.0224 -0.4206 0.9070
vn -0.1164 0.9487 0.2940
vn -0.2756 -0.7943 -0.5414
vn 0.6689 0.5601 -0.4888
vn 0.4715 0.3296 -0.8179
vn -0.1768 -0.4835 0.8573
vn -0.4108 -0.2558 0.8751
vn -0.2985 0.1941 0.9345
vn -0.1899 0.9653 -0.1791
vn -0.7390 0.6236 0.2550
vn -0.0321 -0.9316 -0.3620
vn 0.1611 -0.3189 -0.9340
vn 0.2654 -0.5303 -0.8052
vn -0.6508 0.5664 -0.5055
vn 0.1514 -0.4099 -0.8995
vn -0.3088 0.4865 0.8173
vn -0.4219 0.5204 0.7424
vn 0.1390 0.9820 0.1281
vn -0.0389 0.9990 0.0232
vn 0.1319 -0.7754 0.6175
vn 0.1065 -0.9929 0.0527
vn -0.2614 -0.7495 0.6082
vn -0.0651 -0.9283 0.3660
vn 0.1134 0.8927 -0.4361
vn 0.2483 0.5700 -0.7832
vn -0.2773 -0.1591 0.9475
vn 0.6122 -0.0198 0.7904
vn 0.1009 -0.4607 -0.8818
vn 0.7945 0.5244 -0.3063
vn 0.7837 0.3304 -0.5259
vn -0.1502 0.9846 -0.0890
vn -0.0713 0.9961 0.0514
vn -0.0192 -0.2913 -0.9564
vn -0.0390 0.9906 0.1313
vn 0.2866 -0.3191 0.9033
vn 0.5746 -0.7992 0.1764
vn -0.3022 -0.9419 -0.1464
vn 0.4125 -0.9107 -0.0210
vn -0.7976 -0.5655 0.2101
vn -0.8679 -0.4965 0.0129
vn -0.8928 0.0340 0.4492
vn -0.9921 -0.0450 0.1172
vn -0.9918 -0.1275 -0.0121
vn -0.9922 -0.0668 -0.1055
vn 0.6460 -0.7210 -0.2505
vn 0.7286 -0.4626 -0.5051
vn 0.3370 -0.2702 -0.9019
vn -0.8825 0.3803 0.2767
vn 0.0561 0.2963 0.9534
vn 0.5205 -0.8074 -0.2779
vn -0.6649 -0.6056 -0.4372
vn -0.8983 -0.4200 0.1292
vn -0.5565 -0.2780 -0.7830
vn -0.5611 -0.2070 -0.8014
vn 0.7127 -0.3276 -0.6203
vn 0.7706 -0.4042 -0.4927
vn -0.4240 0.3393 0.8397
vn -0.7624 -0.1016 0.6391
vn -0.5560 -0.2620 -0.7888
vn 0.4160 0.2916 0.8614
vn 0.2999 0.6518 0.6966
vn 0.2570 -0.0547 0.9649
vn 0.4632 -0.5985 -0.6536
vn -0.5003 -0.2571 -0.8268
vn -0.4836 0.0025 -0.8753
vn -0.5393 0.4689 -0.6995
vn 0.8077 -0.1456 -0.5713
vn 0.6661 -0.7370 -0.1150
vn 0.7958 0.5511 -0.2509
vn 0.5999 -0.0242 0.7997
vn 0.6540 0.7206 -0.2304
vn 0.6408 0.7667 -0.0382
vn 0.5969 -0.0434 0.8011
vn 0.6604 0.0087 0.7508
usemtl sungaya_inexpectata_31mg
s 1
f 210/1/1 283/2/2 211/3/3
f 28/4/4 26/5/5 27/6/6
f 23/7/7 8/8/8 218/9/9
f 37/10/10 38/11/11 39/12/12
f 253/13/13 48/14/14 49/15/15
f 98/16/16 106/17/17 54/18/18
f 106/17/17 98/16/16 55/19/19
f 205/20/20 277/21/21 58/22/22
f 332/23/23 50/24/24 51/25/25
f 67/26/26 68/27/27 69/28/28
f 94/29/29 150/30/30 19/31/31
f 74/32/32 75/33/33 76/34/34
f 82/35/35 30/36/36 83/37/37
f 82/35/35 31/38/38 30/36/36
f 94/39/29 83/40/37 30/41/36
f 186/42/39 92/43/40 103/44/41
f 107/45/42 108/46/43 109/47/44
f 224/48/45 307/49/46 114/50/47
f 179/51/48 263/52/49 115/53/50
f 119/54/51 132/55/52 120/56/53
f 122/57/54 123/58/55 385/59/56
f 119/60/51 131/61/57 132/62/52
f 131/63/57 119/64/51 121/65/58
f 134/66/59 36/67/60 304/68/61
f 150/69/30 294/70/62 85/71/63
f 133/72/64 134/73/59 306/74/65
f 81/75/66 77/76/67 140/77/68
f 25/78/69 317/79/70 13/80/71
f 358/81/72 4/82/73 348/83/74
f 138/84/75 137/85/76 83/37/37
f 159/86/77 104/87/78 160/88/79
f 166/89/80 167/90/81 112/91/82
f 148/92/83 56/93/84 42/94/85
f 180/95/86 152/96/87 92/97/40
f 127/98/88 165/99/89 129/100/90
f 192/101/91 193/102/92 245/103/93
f 190/104/94 196/105/95 197/106/96
f 173/107/97 287/108/98 198/109/99
f 2/110/100 3/111/101 139/112/102
f 366/113/103 200/114/104 355/115/105
f 27/116/6 20/117/106 101/118/107
f 29/119/108 214/120/109 90/121/110
f 76/34/34 75/33/33 203/122/111
f 75/123/33 161/124/112 203/125/111
f 147/126/113 8/127/8 23/128/7
f 161/129/112 96/130/114 203/131/111
f 161/129/112 205/132/20 96/130/114
f 99/133/115 207/134/116 148/92/83
f 25/135/69 208/136/117 274/137/118
f 281/138/119 72/139/120 214/140/109
f 216/141/121 217/142/122 184/143/123
f 120/144/53 335/145/124 298/146/125
f 218/147/9 213/148/126 35/149/127
f 218/147/9 35/149/127 64/150/128
f 116/151/129 166/152/80 162/153/130
f 88/154/131 228/155/132 11/156/133
f 217/157/122 216/158/121 207/134/116
f 232/159/134 250/160/135 155/161/136
f 243/162/137 236/163/138 193/164/92
f 290/165/139 80/166/140 237/167/141
f 290/165/139 135/168/142 80/166/140
f 214/169/109 238/170/143 90/171/110
f 241/172/144 240/173/145 14/174/146
f 328/175/147 244/176/148 103/177/41
f 208/178/117 70/179/149 45/180/150
f 154/181/151 155/161/136 250/160/135
f 49/182/15 242/183/152 223/184/153
f 251/185/154 126/186/155 127/187/88
f 253/13/13 254/188/156 255/189/157
f 98/16/16 257/190/158 55/19/19
f 2/191/100 139/192/102 10/193/159
f 192/194/91 317/195/70 252/196/160
f 240/197/145 199/198/161 14/199/146
f 256/200/162 270/201/163 171/202/164
f 239/203/165 124/204/166 103/205/41
f 16/206/167 223/207/153 224/208/45
f 201/209/168 295/210/169 124/211/166
f 57/212/170 99/133/115 104/213/78
f 89/214/171 307/215/46 151/216/172
f 122/57/54 34/217/173 101/218/107
f 274/219/118 275/220/174 316/221/175
f 277/222/21 278/223/176 279/224/177
f 280/225/178 278/226/176 277/227/21
f 353/228/179 283/229/2 24/230/180 369/231/181
f 283/229/2 266/232/182 24/230/180
f 145/233/183 9/234/184 91/235/185
f 164/236/186 245/237/93 88/238/131
f 5/239/187 43/240/188 179/241/48
f 249/242/189 248/243/190 286/244/191
f 124/211/166 186/42/39 103/44/41
f 7/245/192 100/246/193 38/247/11
f 11/248/133 228/249/132 238/250/143
f 126/251/155 251/252/154 191/253/194
f 83/37/37 19/254/31 138/84/75
f 112/255/82 167/256/81 111/257/195
f 40/258/196 160/259/79 41/260/197
f 246/261/198 93/262/199 1/263/200
f 291/264/201 85/265/63 156/266/202
f 208/267/117 25/268/69 70/269/149
f 170/270/203 52/271/204 157/272/205
f 29/119/108 89/273/171 281/274/119
f 227/275/206 32/276/207 231/277/208
f 10/278/159 139/279/102 259/280/209
f 284/281/210 292/282/211 246/283/198
f 185/284/212 184/285/123 326/286/213
f 313/287/214 170/270/203 120/56/53
f 20/288/106 105/289/215 202/290/216
f 202/291/216 105/292/215 241/293/144
f 22/294/217 102/295/218 290/296/139
f 319/297/219 152/298/87 294/299/62
f 78/300/220 258/301/221 104/302/78
f 243/162/137 89/303/171 29/304/108
f 36/67/60 134/305/59 133/306/64
f 97/307/222 102/308/218 21/309/223
f 72/310/120 11/248/133 238/250/143
f 284/281/210 332/311/23 226/312/224
f 196/313/95 332/311/23 197/314/96
f 127/315/88 126/316/155 165/317/89
f 198/318/99 153/319/225 212/320/226
f 42/321/85 331/322/227 135/323/142
f 56/324/84 331/322/227 42/321/85
f 144/325/228 210/326/1 260/327/229
f 114/328/47 154/329/151 128/330/230
f 45/331/150 223/332/153 242/333/152
f 199/334/161 240/197/145 241/335/144
f 117/336/231 293/337/232 272/338/233
f 221/339/234 299/340/235 220/341/236
f 159/342/77 9/343/184 23/344/7
f 192/101/91 252/345/160 220/346/236
f 81/347/66 303/348/237 300/349/238
f 83/350/37 116/351/129 82/352/35
f 105/289/215 20/288/106 306/353/65
f 235/354/239 33/355/240 281/356/119
f 158/357/241 172/358/242 39/359/12
f 104/213/78 99/133/115 160/360/79
f 316/361/175 317/362/70 25/363/69
f 287/364/98 270/201/163 256/200/162
f 153/365/225 287/364/98 256/200/162
f 319/366/219 308/367/243 152/96/87
f 266/232/182 163/368/244 24/230/180
f 281/138/119 136/369/245 72/370/120
f 272/371/233 100/246/193 7/245/192
f 228/372/132 236/373/138 90/374/110
f 123/375/55 261/376/246 309/377/247
f 58/378/22 310/379/248 205/132/20
f 74/380/32 209/381/249 46/382/250
f 74/383/32 46/384/250 161/385/112
f 97/386/222 95/387/251 98/16/16
f 53/388/252 337/389/253 6/390/254
f 149/391/255 110/392/256 112/393/82
f 230/394/257 275/395/174 274/137/118
f 71/396/258 243/162/137 221/339/234
f 150/397/30 85/398/63 67/399/26
f 147/126/113 23/128/7 15/400/259
f 315/401/260 200/402/104 239/403/165
f 271/404/261 199/405/161 80/406/140
f 128/407/230 2/408/100 17/409/262
f 117/410/231 251/185/154 127/187/88
f 318/411/263 249/242/189 213/412/126
f 150/30/30 319/413/219 294/414/62
f 271/415/261 135/416/142 331/417/227
f 301/418/264 5/419/187 77/420/67
f 64/421/128 23/422/7 218/423/9
f 308/367/243 187/424/265 92/97/40
f 92/97/40 152/96/87 308/367/243
f 321/425/266 320/426/267 322/427/268
f 322/428/268 320/429/267 256/430/162
f 289/431/269 181/432/270 33/433/240
f 174/434/271 324/435/272 175/436/273
f 161/129/112 273/437/274 205/132/20
f 89/438/171 330/439/275 281/440/119
f 386/441/276 304/442/61 378/443/277
f 249/444/189 125/445/278 325/446/279
f 292/447/211 142/448/280 246/449/198
f 143/450/281 142/448/280 292/451/211
f 54/18/18 106/17/17 91/235/185
f 175/452/273 324/453/272 79/454/282
f 118/455/283 21/456/223 79/457/282
f 21/456/223 282/458/284 79/457/282
f 396/459/285 393/460/286 177/461/287
f 159/86/77 63/462/288 104/87/78
f 158/463/241 140/464/68 115/465/50
f 269/466/289 206/467/290 113/468/291
f 73/469/292 262/470/293 93/471/199
f 168/472/294 339/473/295 323/474/296
f 281/440/119 214/169/109 29/475/108
f 383/476/297 34/217/173 392/477/298
f 41/478/197 65/479/299 98/16/16
f 98/16/16 65/479/299 102/480/218
f 102/481/218 97/482/222 98/483/16
f 86/484/300 42/485/85 135/168/142
f 295/486/169 186/487/39 124/488/166
f 302/489/301 174/490/271 271/491/261
f 348/83/74 4/82/73 354/492/302
f 26/493/5 44/494/303 36/495/60
f 33/496/240 182/497/304 136/498/245
f 318/499/263 72/500/120 311/501/305
f 311/502/305 72/503/120 125/504/278
f 237/505/141 22/506/217 290/507/139
f 80/508/140 199/509/161 237/510/141
f 293/511/232 285/512/306 272/371/233
f 18/513/307 276/514/308 309/515/247
f 101/118/107 20/117/106 202/516/216
f 84/517/309 305/518/310 291/519/201
f 305/520/310 85/521/63 291/522/201
f 270/523/163 56/93/84 148/92/83
f 129/524/90 139/525/102 3/526/101
f 139/525/102 129/524/90 165/527/89
f 130/528/311 275/529/174 68/530/27
f 67/399/26 130/528/311 68/530/27
f 54/18/18 40/531/196 41/478/197
f 307/532/46 224/533/45 60/534/312
f 120/56/53 289/431/269 178/535/313
f 120/56/53 132/55/52 289/431/269
f 42/536/85 86/537/300 160/538/79
f 110/539/256 172/540/242 141/541/314
f 282/542/284 21/543/223 306/544/65
f 128/545/230 183/546/315 129/547/90
f 43/240/188 263/548/49 179/241/48
f 263/549/49 43/550/188 327/551/316
f 35/552/127 189/553/317 78/300/220
f 189/553/317 258/301/221 78/300/220
f 34/554/173 28/555/4 101/556/107
f 231/557/208 269/558/289 141/559/314
f 94/39/29 19/560/31 83/40/37
f 167/561/81 166/562/80 259/563/209
f 110/564/256 149/565/255 172/566/242
f 54/567/18 41/568/197 98/569/16
f 103/570/41 92/571/40 188/572/318
f 189/573/317 57/212/170 258/574/221
f 183/546/315 310/575/248 129/547/90
f 332/576/23 284/577/210 197/578/96
f 130/579/311 46/580/250 264/581/319
f 275/529/174 130/528/311 264/582/319
f 258/574/221 57/212/170 104/213/78
f 256/583/162 320/584/267 212/320/226
f 183/585/315 154/586/151 250/587/135
f 167/588/81 165/527/89 191/589/194
f 165/590/89 126/591/155 191/592/194
f 354/492/302 4/82/73 53/593/252 370/594/320
f 216/141/121 184/143/123 171/595/164
f 51/596/25 322/597/268 185/598/212
f 16/599/167 10/600/159 254/601/156
f 367/602/321 300/603/238 356/604/322
f 333/605/323 290/296/139 102/295/218
f 357/606/324 355/607/105 200/608/104
f 13/609/71 12/610/325 335/611/124
f 97/386/222 21/456/223 118/455/283
f 23/128/7 9/612/184 15/400/259
f 130/613/311 273/614/274 46/615/250
f 299/616/235 193/617/92 220/618/236
f 94/29/29 319/413/219 150/30/30
f 293/337/232 127/619/88 66/620/326
f 293/337/232 117/336/231 127/619/88
f 132/621/52 131/63/57 143/622/281
f 58/378/22 342/623/327 285/512/306
f 66/624/326 58/378/22 285/512/306
f 84/625/309 285/512/306 342/623/327
f 164/626/186 298/146/125 335/145/124
f 89/438/171 151/627/172 330/628/275
f 199/198/161 18/513/307 14/199/146
f 199/198/161 219/629/328 18/513/307
f 314/630/329 30/41/36 334/631/330
f 23/422/7 64/421/128 159/632/77
f 92/633/40 187/634/265 188/635/318
f 135/636/142 271/637/261 80/638/140
f 195/639/331 144/640/228 204/641/332
f 181/432/270 289/431/269 168/472/294
f 323/474/296 181/432/270 168/472/294
f 154/181/151 71/642/258 155/161/136
f 71/642/258 221/643/234 155/161/136
f 114/644/47 16/599/167 224/645/45
f 197/106/96 8/646/8 190/104/94
f 267/647/333 8/648/8 93/649/199
f 8/650/8 1/651/200 93/652/199
f 197/653/96 247/654/334 8/655/8
f 247/654/334 1/656/200 8/655/8
f 345/657/335 24/658/180 200/114/104 366/113/103
f 24/659/180 239/660/165 200/661/104
f 24/662/180 163/663/244 239/403/165
f 150/664/30 67/399/26 69/665/28
f 269/558/289 113/666/291 141/559/314
f 31/667/38 82/668/35 162/153/130
f 82/668/35 116/151/129 162/153/130
f 141/669/314 172/670/242 115/671/50
f 263/672/49 141/669/314 115/671/50
f 186/673/39 156/266/202 92/674/40
f 276/514/308 18/513/307 219/675/328
f 324/676/272 302/489/301 118/677/283
f 174/490/271 302/489/301 324/676/272
f 103/177/41 244/176/148 315/678/260
f 239/203/165 103/205/41 315/679/260
f 184/680/123 329/681/336 326/682/213
f 168/683/294 326/682/213 329/681/336
f 329/681/336 184/680/123 217/684/122
f 299/616/235 221/643/234 243/685/137
f 93/686/199 262/687/293 267/688/333
f 149/391/255 112/393/82 191/689/194
f 191/690/194 112/691/82 111/692/195
f 114/693/47 307/694/46 154/181/151
f 276/695/308 219/696/328 174/697/271
f 276/698/308 174/699/271 336/700/337
f 237/167/141 199/334/161 241/335/144
f 128/701/230 129/702/90 2/703/100
f 129/704/90 3/705/101 2/706/100
f 20/707/106 133/708/64 306/709/65
f 27/710/6 133/708/64 20/707/106
f 225/711/338 168/472/294 132/55/52
f 225/711/338 132/55/52 297/712/339
f 168/472/294 225/711/338 296/713/340
f 100/246/193 47/714/341 38/247/11
f 21/715/223 22/716/217 312/717/342
f 85/265/63 294/718/62 156/266/202
f 249/719/189 318/499/263 311/501/305
f 249/720/189 311/721/305 125/722/278
f 164/236/186 88/238/131 87/723/343
f 312/724/342 105/289/215 306/353/65
f 48/14/14 253/13/13 255/189/157
f 11/725/133 87/726/343 88/238/131
f 73/727/292 87/726/343 11/725/133
f 336/728/337 174/697/271 175/729/273
f 177/730/287 336/731/337 175/732/273
f 149/733/255 251/734/154 117/336/231
f 33/735/240 181/736/270 182/737/304
f 317/738/70 194/739/344 13/740/71
f 338/741/345 181/742/270 323/743/296
f 326/286/213 168/472/294 296/713/340
f 232/159/134 233/744/346 203/745/111
f 160/746/79 99/747/115 42/748/85
f 42/749/85 99/133/115 148/92/83
f 203/745/111 96/750/114 183/546/315
f 281/356/119 33/355/240 136/751/245
f 157/272/205 52/271/204 70/752/149
f 157/272/205 120/56/53 170/270/203
f 5/419/187 179/753/48 77/420/67
f 268/754/347 189/755/317 35/552/127
f 91/235/185 40/756/196 54/18/18
f 304/68/61 36/495/60 44/494/303
f 268/757/347 286/758/191 189/573/317
f 189/573/317 286/758/191 339/759/295
f 286/760/191 340/761/348 339/762/295
f 340/763/348 286/758/191 248/764/190
f 108/765/43 230/766/257 48/14/14
f 108/765/43 48/14/14 255/189/157
f 108/765/43 255/189/157 254/188/156
f 295/767/169 201/768/168 144/769/228
f 172/358/242 158/357/241 115/770/50
f 115/465/50 140/464/68 179/51/48
f 260/771/229 211/772/3 81/75/66
f 140/773/68 260/774/229 81/775/66
f 14/776/146 261/777/246 202/290/216
f 134/778/59 282/779/284 306/780/65
f 107/781/42 259/782/209 166/152/80
f 264/783/319 46/784/250 341/785/349
f 159/786/77 40/787/196 9/788/184
f 201/789/168 124/790/166 163/791/244
f 127/187/88 129/547/90 310/575/248
f 45/792/150 60/793/312 223/207/153
f 224/208/45 223/207/153 60/793/312
f 88/154/131 245/794/93 236/795/138
f 171/202/164 184/285/123 185/284/212
f 275/796/174 264/797/319 316/798/175
f 28/4/4 27/6/6 101/218/107
f 270/523/163 148/92/83 207/134/116
f 103/799/41 188/800/318 328/801/147
f 176/802/350 177/461/287 175/729/273
f 86/803/300 65/804/299 288/805/351
f 160/806/79 288/805/351 65/804/299
f 41/478/197 160/807/79 65/479/299
f 384/808/352 34/554/173 383/809/297
f 208/810/117 48/811/14 274/812/118
f 48/813/14 208/136/117 242/814/152
f 291/815/201 156/816/202 295/817/169
f 186/818/39 295/819/169 156/820/202
f 207/821/116 99/822/115 57/823/170
f 117/336/231 7/824/192 37/10/10
f 4/82/73 59/825/353 53/593/252
f 322/597/268 51/596/25 321/826/266
f 159/827/77 160/828/79 40/829/196
f 218/830/9 8/831/8 267/832/333
f 313/287/214 52/271/204 170/270/203
f 33/833/240 178/834/313 289/835/269
f 117/410/231 37/836/10 149/565/255
f 11/837/133 267/838/333 262/839/293
f 173/840/97 302/841/301 271/842/261
f 389/843/354 375/844/355 176/845/350
f 253/846/13 223/847/153 16/848/167
f 253/13/13 49/15/15 223/849/153
f 175/850/273 79/851/282 176/852/350
f 176/852/350 79/851/282 134/853/59
f 230/854/257 274/855/118 48/856/14
f 178/834/313 33/833/240 313/857/214
f 8/648/8 147/858/113 190/859/94
f 25/860/69 274/861/118 316/862/175
f 118/863/283 198/864/99 95/865/251
f 238/250/143 228/249/132 90/374/110
f 243/685/137 90/374/110 236/373/138
f 29/866/108 90/867/110 243/868/137
f 321/869/266 257/870/158 320/871/267
f 257/872/158 212/873/226 320/874/267
f 257/875/158 198/318/99 212/320/226
f 171/202/164 270/201/163 216/876/121
f 216/158/121 270/523/163 207/134/116
f 249/877/189 325/878/279 248/879/190
f 110/539/256 113/880/291 112/881/82
f 318/882/263 213/148/126 267/883/333
f 72/884/120 318/882/263 267/883/333
f 337/885/253 53/593/252 59/825/353
f 249/242/189 286/244/191 213/412/126
f 213/412/126 286/244/191 268/754/347
f 35/886/127 213/887/126 268/888/347
f 284/889/210 247/890/334 197/106/96
f 25/891/69 169/892/356 70/893/149
f 236/894/138 245/103/93 193/102/92
f 230/895/257 68/896/27 275/897/174
f 190/859/94 15/898/259 196/899/95
f 147/126/113 15/400/259 190/900/94
f 130/613/311 229/901/357 273/614/274
f 154/902/151 307/903/46 71/396/258
f 89/303/171 71/396/258 307/903/46
f 244/904/148 328/905/147 222/906/358
f 112/907/82 162/908/130 166/909/80
f 19/254/31 137/85/76 138/84/75
f 106/17/17 55/19/19 257/190/158
f 321/910/266 146/911/359 257/912/158
f 257/190/158 146/913/359 106/17/17
f 106/17/17 146/913/359 91/235/185
f 91/235/185 146/913/359 145/233/183
f 387/914/360 123/375/55 380/915/361
f 40/756/196 91/235/185 9/234/184
f 94/916/29 30/36/36 314/917/329
f 4/82/73 222/906/358 59/825/353
f 5/918/187 301/919/264 343/920/362
f 235/921/239 313/857/214 33/833/240
f 123/922/55 309/923/247 265/924/363
f 136/925/245 125/926/278 72/927/120
f 297/928/339 226/929/224 225/930/338
f 396/931/285 177/461/287 176/802/350 375/932/355
f 193/933/92 192/934/91 220/935/236
f 363/936/364 349/937/365 301/938/264
f 330/939/275 313/287/214 235/940/239
f 14/776/146 202/290/216 241/941/144
f 364/942/366 303/348/237 365/943/367
f 365/944/367 303/945/237 81/946/66 344/947/368
f 352/948/369 211/949/3 283/950/2 353/951/179
f 344/952/368 81/953/66 211/954/3 352/955/369
f 107/956/42 10/957/159 259/958/209
f 109/959/44 10/960/159 107/961/42
f 395/962/370 276/514/308 381/963/371
f 198/109/99 287/108/98 153/964/225
f 18/513/307 309/515/247 14/199/146
f 14/776/146 309/965/247 261/777/246
f 30/966/36 31/967/38 61/968/372
f 334/969/330 30/970/36 61/971/372
f 260/774/229 140/773/68 204/972/332
f 246/449/198 142/448/280 73/973/292
f 131/974/57 142/975/280 143/976/281
f 73/977/292 142/975/280 131/974/57
f 25/978/69 13/979/71 169/980/356
f 371/981/373 24/982/180 345/983/335
f 369/984/181 24/985/180 371/986/373
f 210/1/1 266/987/182 283/2/2
f 70/752/149 52/271/204 45/988/150
f 52/271/204 60/989/312 45/988/150
f 182/737/304 248/764/190 325/990/279
f 182/737/304 340/763/348 248/764/190
f 108/991/43 254/992/156 109/993/44
f 109/959/44 254/994/156 10/995/159
f 334/996/330 61/997/372 187/998/265
f 187/999/265 308/1000/243 334/1001/330
f 291/1002/201 100/1003/193 84/1004/309
f 98/16/16 95/387/251 257/190/158
f 62/1005/374 252/1006/160 209/1007/249
f 210/1/1 211/3/3 260/774/229
f 280/225/178 277/1008/21 130/613/311
f 280/1009/178 130/528/311 67/399/26
f 227/275/206 188/1010/318 187/998/265
f 227/275/206 187/998/265 32/276/207
f 265/1011/363 309/1012/247 390/1013/375
f 313/287/214 330/1014/275 52/271/204
f 69/1015/28 19/1016/31 150/1017/30
f 156/1018/202 180/1019/86 92/1020/40
f 112/1021/82 113/1022/291 162/1023/130
f 110/1024/256 141/1025/314 113/1026/291
f 50/24/24 332/23/23 196/1027/95
f 77/76/67 300/1028/238 301/1029/264
f 350/1030/376 343/1031/362 347/1032/377
f 359/1033/378 5/1034/187 343/1031/362 350/1030/376
f 360/1035/379 6/1036/254 5/1037/187 359/1038/378
f 325/1039/279 136/1040/245 182/737/304
f 325/1039/279 125/1041/278 136/1040/245
f 62/1042/374 232/159/134 155/161/136
f 155/161/136 221/643/234 62/1042/374
f 373/1043/380 398/1044/381 336/728/337
f 144/1045/228 47/1046/341 295/1047/169
f 234/1048/382 209/1049/249 74/383/32
f 281/356/119 330/1050/275 235/354/239
f 198/1051/99 118/1052/283 173/1053/97
f 22/294/217 237/1054/141 312/724/342
f 272/1055/233 7/824/192 117/336/231
f 253/1056/13 16/1057/167 254/992/156
f 59/825/353 222/906/358 328/905/147
f 231/1058/208 327/1059/316 337/1060/253
f 72/1061/120 238/170/143 214/169/109
f 32/1062/207 206/1063/290 269/1064/289
f 32/1062/207 269/1064/289 231/1058/208
f 100/246/193 291/1065/201 295/1066/169
f 47/714/341 100/246/193 295/1066/169
f 84/517/309 279/1067/177 305/518/310
f 341/1068/349 316/1069/175 264/1070/319
f 16/1071/167 2/1072/100 10/1073/159
f 16/599/167 17/1074/262 2/1075/100
f 52/271/204 330/1014/275 151/1076/172
f 12/1077/325 194/1078/344 164/1079/186
f 164/236/186 194/1080/344 245/1081/93
f 121/1082/58 298/1083/125 87/1084/343
f 140/773/68 158/1085/241 204/972/332
f 339/473/295 340/1086/348 323/474/296
f 207/1087/116 57/1088/170 217/1089/122
f 51/1090/25 185/1091/212 326/1092/213
f 121/65/58 87/726/343 73/727/292
f 131/1093/57 121/1094/58 73/1095/292
f 49/1096/15 48/1097/14 242/1098/152
f 94/1099/29 314/1100/329 319/366/219
f 118/1101/283 302/1102/301 173/1103/97
f 219/1104/328 199/1105/161 271/1106/261
f 21/715/223 312/717/342 306/1107/65
f 17/1108/262 16/1109/167 114/1110/47
f 17/1111/262 114/1112/47 128/1113/230
f 208/1114/117 45/1115/150 242/1116/152
f 194/1080/344 317/1117/70 192/1118/91
f 12/1119/325 13/1120/71 194/1121/344
f 326/286/213 332/1122/23 51/1123/25
f 310/575/248 183/546/315 96/750/114
f 277/1124/21 205/1125/20 229/1126/357
f 229/1126/357 205/1125/20 273/1127/274
f 326/286/213 296/713/340 332/1122/23
f 296/713/340 226/1128/224 332/1122/23
f 296/713/340 225/711/338 226/1128/224
f 89/1129/171 243/685/137 71/642/258
f 154/1130/151 183/585/315 128/1131/230
f 356/1132/322 300/349/238 303/348/237 346/1133/383
f 140/1134/68 77/76/67 179/1135/48
f 60/1136/312 151/1137/172 307/1138/46
f 360/1139/379 351/1140/384 6/1141/254
f 72/310/120 267/1142/333 11/248/133
f 331/1143/227 287/1144/98 173/1145/97
f 271/491/261 331/1143/227 173/1145/97
f 338/1146/345 340/1147/348 182/1148/304
f 338/1149/345 182/1150/304 181/1151/270
f 63/1152/288 78/1153/220 104/1154/78
f 312/724/342 237/1054/141 241/941/144
f 105/289/215 312/724/342 241/941/144
f 124/204/166 239/1155/165 163/1156/244
f 201/1157/168 163/1158/244 266/1159/182
f 201/1160/168 266/1161/182 210/1162/1
f 277/1163/21 229/1164/357 130/1165/311
f 342/1166/327 58/1167/22 277/1168/21
f 209/1169/249 252/345/160 317/1170/70
f 379/1171/385 392/477/298 34/217/173
f 379/1171/385 34/217/173 122/57/54
f 75/33/33 74/32/32 161/1172/112
f 127/187/88 310/575/248 66/1173/326
f 310/379/248 58/378/22 66/1174/326
f 236/1175/138 228/1176/132 88/238/131
f 399/1177/386 44/1178/303 372/1179/387
f 335/1180/124 120/1181/53 157/1182/205
f 230/766/257 137/85/76 69/1183/28
f 69/1183/28 137/85/76 19/254/31
f 315/1184/260 244/1185/148 222/1186/358
f 76/1187/34 233/1188/346 234/1189/382
f 203/1190/111 233/1188/346 76/1187/34
f 74/1191/32 76/1192/34 234/1193/382
f 7/1194/192 38/1195/11 37/1196/10
f 385/59/56 123/58/55 387/1197/360
f 153/365/225 256/200/162 212/1198/226
f 299/616/235 243/685/137 193/1199/92
f 66/624/326 285/512/306 293/511/232
f 282/1200/284 134/305/59 79/1201/282
f 43/1202/188 215/1203/388 327/1204/316
f 5/1205/187 215/1206/388 43/1207/188
f 46/382/250 273/1127/274 161/1208/112
f 280/1209/178 85/1210/63 278/1211/176
f 67/1212/26 85/1213/63 280/1214/178
f 77/1215/67 81/347/66 300/349/238
f 206/1216/290 61/997/372 31/1217/38
f 187/998/265 61/997/372 206/1216/290
f 206/1218/290 162/1023/130 113/1022/291
f 162/1023/130 206/1218/290 31/1219/38
f 187/998/265 206/1216/290 32/276/207
f 246/1220/198 247/1221/334 284/281/210
f 1/1222/200 247/1223/334 246/1224/198
f 290/1225/139 333/1226/323 135/1227/142
f 135/168/142 333/1228/323 86/484/300
f 232/159/134 62/1229/374 233/744/346
f 78/1153/220 64/150/128 35/149/127
f 63/1152/288 64/150/128 78/1153/220
f 139/1230/102 165/1231/89 167/1232/81
f 167/1233/81 259/1234/209 139/1235/102
f 160/1236/79 86/1237/300 288/1238/351
f 149/565/255 37/836/10 39/1239/12
f 172/566/242 149/565/255 39/1239/12
f 270/1240/163 331/1241/227 56/1242/84
f 331/1243/227 270/1244/163 287/1245/98
f 65/804/299 86/803/300 333/605/323
f 65/1246/299 333/1247/323 102/1248/218
f 36/1249/60 133/1250/64 26/1251/5
f 95/1252/251 198/1253/99 257/1254/158
f 143/1255/281 292/1256/211 297/1257/339
f 132/1258/52 143/1259/281 297/1260/339
f 246/449/198 73/1261/292 93/1262/199
f 11/1263/133 262/1264/293 73/1265/292
f 84/1266/309 342/1267/327 279/1268/177
f 294/1269/62 152/96/87 156/1270/202
f 156/1271/202 152/298/87 180/1272/86
f 341/1273/349 209/1007/249 317/1274/70
f 46/1275/250 209/1007/249 341/1273/349
f 341/1276/349 317/79/70 316/1277/175
f 227/275/206 231/1278/208 337/885/253
f 227/275/206 337/885/253 59/825/353
f 279/1279/177 278/1280/176 305/1281/310
f 278/1282/176 85/1283/63 305/1284/310
f 261/777/246 123/58/55 122/57/54
f 196/1285/95 145/233/183 50/1286/24
f 145/233/183 196/1285/95 15/1287/259
f 195/1288/331 204/1289/332 158/1290/241
f 195/1291/331 158/1292/241 39/1239/12
f 195/1293/331 47/714/341 144/1294/228
f 231/1295/208 263/1296/49 327/1297/316
f 141/559/314 263/1298/49 231/557/208
f 121/1299/58 119/1300/51 298/1301/125
f 298/1301/125 119/1300/51 120/1302/53
f 60/1136/312 52/1303/204 151/1304/172
f 5/1305/187 6/1141/254 215/1306/388
f 215/1306/388 337/1307/253 327/1308/316
f 6/390/254 337/389/253 215/1309/388
f 116/151/129 107/781/42 166/152/80
f 27/1310/6 26/5/5 133/1311/64
f 120/1312/53 178/1313/313 313/1314/214
f 111/1315/195 167/588/81 191/589/194
f 251/1316/154 149/1317/255 191/1318/194
f 107/1319/42 137/1320/76 108/1321/43
f 137/85/76 230/766/257 108/765/43
f 174/490/271 219/1322/328 271/491/261
f 272/371/233 285/512/306 100/246/193
f 84/625/309 100/246/193 285/512/306
f 252/345/160 62/1323/374 220/346/236
f 62/1324/374 221/643/234 220/1325/236
f 185/1326/212 322/1327/268 171/1328/164
f 322/428/268 256/430/162 171/1329/164
f 9/234/184 145/233/183 15/1287/259
f 188/1010/318 59/825/353 328/905/147
f 59/825/353 188/1010/318 227/275/206
f 157/1330/205 169/1331/356 13/1332/71
f 335/145/124 157/1333/205 13/1334/71
f 70/179/149 169/1335/356 157/1336/205
f 38/247/11 47/714/341 195/1293/331
f 218/147/9 267/883/333 213/148/126
f 205/1337/20 310/1338/248 96/1339/114
f 233/744/346 62/1229/374 234/1340/382
f 62/1005/374 209/1007/249 234/1341/382
f 201/209/168 210/1342/1 144/1343/228
f 260/1344/229 204/641/332 144/1345/228
f 329/1346/336 339/1347/295 168/1348/294
f 329/1346/336 189/1349/317 339/1347/295
f 57/1350/170 189/1351/317 329/1352/336
f 102/1353/218 22/716/217 21/715/223
f 335/145/124 12/1354/325 164/1355/186
f 340/1356/348 338/1357/345 323/1358/296
f 203/745/111 250/160/135 232/159/134
f 183/546/315 250/160/135 203/745/111
f 261/1359/246 101/118/107 202/1360/216
f 38/1361/11 195/1362/331 39/1363/12
f 261/777/246 122/57/54 101/218/107
f 324/1364/272 118/677/283 79/1365/282
f 107/1366/42 116/1367/129 137/85/76
f 137/85/76 116/1367/129 83/37/37
f 97/1368/222 118/1369/283 95/1370/251
f 145/1371/183 146/1372/359 321/1373/266
f 145/1371/183 321/1373/266 50/1374/24
f 51/596/25 50/1375/24 321/826/266
f 87/1376/343 298/146/125 164/626/186
f 69/28/28 68/1377/27 230/1378/257
f 342/1379/327 277/1380/21 279/1381/177
f 289/431/269 132/55/52 168/472/294
f 292/282/211 226/312/224 297/1382/339
f 284/281/210 226/312/224 292/282/211
f 314/1383/329 334/1384/330 308/1385/243
f 314/1100/329 308/367/243 319/366/219
f 192/1386/91 245/1081/93 194/1080/344
f 64/421/128 63/1387/288 159/1388/77
f 217/1389/122 57/1390/170 329/1391/336
f 6/1141/254 368/1392/389 370/594/320 53/593/252
f 301/1393/264 300/1394/238 367/1395/321 363/1396/364
f 315/1184/260 222/1186/358 362/1397/390 361/1398/391
f 222/906/358 4/82/73 358/81/72 362/1399/390
f 315/1400/260 361/1401/391 357/1402/324 200/1403/104
f 6/1404/254 351/1405/384 368/1406/389
f 301/1407/264 349/1408/365 347/1409/377 343/1410/362
f 303/348/237 364/942/366 346/1133/383
f 359/1033/378 350/1030/376 347/1032/377 349/1408/365 363/936/364 367/1395/321 356/604/322 346/1133/383 364/942/366 365/943/367 344/947/368 352/955/369 353/951/179 369/231/181 371/986/373 345/983/335 366/113/103 355/115/105 357/606/324 361/1401/391 362/1397/390 358/81/72 348/83/74 354/492/302 370/594/320 368/1392/389 351/1405/384 360/1139/379
f 177/461/287 393/460/286 394/1411/392
f 276/1412/308 395/1413/370 391/1414/393 309/1415/247
f 309/1415/247 391/1414/393 390/1416/375
f 176/852/350 134/853/59 388/1417/394 389/1418/354
f 134/853/59 304/442/61 386/441/276 388/1417/394
f 34/554/173 384/808/352 397/1419/395 28/555/4
f 336/728/337 398/1044/381 381/1420/371 276/695/308
f 304/1421/61 382/1422/396 378/1423/277
f 304/1424/61 376/1425/397 382/1426/396
f 44/1427/303 399/1428/386 376/1429/397 304/1430/61
f 123/1431/55 265/1432/363 380/1433/361
f 44/1434/303 26/5/5 374/1435/398 377/1436/399
f 28/4/4 397/1437/395 374/1435/398 26/5/5
f 177/461/287 394/1411/392 373/1043/380 336/728/337
f 44/1438/303 377/1439/399 372/1440/387
f 387/914/360 380/1433/361 385/59/56
f 398/1044/381 373/1043/380 394/1411/392
f 394/1411/392 393/460/286 396/931/285
f 396/931/285 375/844/355 389/1418/354
f 389/1418/354 388/1417/394 396/931/285
f 388/1417/394 386/441/276 396/931/285
f 386/441/276 378/1423/277 377/1436/399
f 378/1423/277 382/1426/396 377/1436/399
f 382/1426/396 376/1429/397 377/1436/399
f 376/1429/397 399/1177/386 372/1440/387
f 377/1436/399 376/1429/397 372/1440/387
f 377/1436/399 374/1435/398 386/441/276
f 374/1435/398 397/1419/395 386/441/276
f 384/808/352 383/476/297 386/441/276
f 383/476/297 392/477/298 386/441/276
f 397/1419/395 384/808/352 386/441/276
f 394/1411/392 396/931/285 379/1171/385
f 396/931/285 386/441/276 379/1171/385
f 381/1420/371 398/1044/381 379/1171/385
f 398/1044/381 394/1411/392 379/1171/385
f 391/1414/393 395/962/370 381/1420/371
f 380/1433/361 265/1011/363 122/57/54
f 265/1011/363 390/1416/375 379/1171/385
f 390/1416/375 391/1414/393 379/1171/385
f 391/1414/393 381/1420/371 379/1171/385
f 379/1171/385 122/57/54 265/1011/363
f 122/57/54 385/59/56 380/1433/361
f 386/441/276 392/477/298 379/1171/385
