# Blender v2.79 (sub 0) OBJ File: 'redo_fixed_360_joints.blend'
# www.blender.org
mtllib sungaya_inexpectata_31mg.mtl
o 21-m-l-coxa.000_Sungaya_inexpectata_31mg.064
v -0.000327 0.000175 -0.000294
v 0.000067 -0.000298 0.000036
v -0.000192 0.000214 0.000204
v -0.000328 0.000239 -0.000058
v 0.000058 -0.000274 0.000182
v 0.000178 0.000244 0.000052
v 0.000164 0.000257 0.000201
v -0.000230 0.000141 0.000207
v 0.000236 -0.000269 0.000140
v -0.000194 -0.000197 -0.000259
v 0.000263 -0.000243 -0.000002
v 0.000224 0.000199 -0.000082
v -0.000078 -0.000280 -0.000018
v 0.000010 0.000059 0.000353
v -0.000022 -0.000282 -0.000103
v -0.000141 -0.000259 -0.000070
v -0.000001 -0.000199 0.000302
v -0.000220 0.000265 0.000025
v -0.000227 0.000245 0.000127
v -0.000169 0.000050 0.000301
v -0.000230 0.000029 0.000270
v -0.000225 -0.000067 0.000278
v -0.000055 0.000273 0.000041
v -0.000273 -0.000220 -0.000036
v 0.000298 0.000253 0.000015
v -0.000241 0.000039 0.000068
v 0.000129 0.000031 -0.000247
v -0.000380 -0.000152 -0.000058
v -0.000230 -0.000238 -0.000137
v -0.000098 -0.000229 -0.000202
v 0.000233 0.000278 0.000161
v 0.000073 0.000206 -0.000257
v 0.000104 -0.000278 -0.000084
v 0.000328 0.000181 -0.000165
v 0.000276 0.000161 -0.000175
v -0.000292 0.000137 -0.000320
v 0.000438 0.000086 -0.000209
v 0.000270 -0.000028 -0.000209
v 0.000269 0.000295 0.000124
v -0.000165 -0.000170 0.000285
v 0.000088 -0.000231 -0.000200
v -0.000365 -0.000172 -0.000269
v -0.000283 -0.000132 0.000035
v 0.000381 0.000276 -0.000094
v -0.000037 0.000067 -0.000272
v -0.000091 -0.000095 -0.000273
v 0.000379 -0.000030 -0.000196
v 0.000010 -0.000199 -0.000241
v 0.000386 -0.000180 -0.000102
v -0.000278 0.000000 0.000011
v -0.000077 0.000265 0.000161
v -0.000252 0.000145 0.000114
v -0.000272 0.000127 -0.000004
v -0.000094 -0.000147 0.000300
v -0.000097 -0.000249 0.000088
v 0.000051 -0.000081 -0.000230
v -0.000110 0.000225 -0.000222
v -0.000045 0.000156 0.000303
v 0.000348 -0.000123 -0.000173
v -0.000230 0.000195 -0.000304
v 0.000209 0.000094 -0.000239
v -0.000224 -0.000040 0.000209
v -0.000319 0.000261 -0.000053
v 0.000171 0.000330 0.000300
v -0.000225 0.000009 0.000127
v 0.000010 -0.000107 0.000348
v -0.000342 0.000112 -0.000084
v -0.000382 -0.000219 -0.000127
v -0.000236 0.000244 -0.000209
v 0.000268 -0.000186 -0.000192
v -0.000242 -0.000095 -0.000317
v -0.000339 -0.000130 -0.000304
v -0.000082 0.000208 -0.000291
v 0.000300 0.000089 -0.000205
v -0.000222 0.000160 0.000239
v -0.000241 -0.000185 0.000250
v 0.000123 0.000241 0.000289
v -0.000051 -0.000224 0.000199
v 0.000153 -0.000230 0.000282
v -0.000328 -0.000213 -0.000209
v -0.000265 -0.000202 0.000097
v 0.000160 -0.000149 -0.000215
v -0.000177 0.000148 -0.000332
v -0.000226 -0.000229 0.000074
v -0.000345 0.000240 -0.000081
v -0.000360 -0.000069 -0.000352
v -0.000355 0.000119 -0.000087
v -0.000342 0.000148 -0.000336
v -0.000342 0.000247 -0.000119
v -0.000351 0.000161 -0.000094
v -0.000340 0.000226 -0.000205
v -0.000375 -0.000107 -0.000085
v -0.000384 -0.000195 -0.000054
v -0.000367 -0.000134 -0.000308
v -0.000340 0.000235 -0.000187
v -0.000374 -0.000103 -0.000086
v -0.000373 -0.000090 -0.000087
v -0.000383 -0.000183 -0.000044
v -0.000341 0.000196 -0.000254
v -0.000384 -0.000192 -0.000040
v -0.000341 0.000177 -0.000296
v -0.000341 0.000172 -0.000307
v -0.000379 -0.000200 -0.000176
v -0.000373 -0.000174 -0.000254
v -0.000375 -0.000105 -0.000086
v -0.000351 0.000031 -0.000363
v -0.000352 0.000018 -0.000362
v -0.000372 -0.000171 -0.000272
v -0.000350 0.000040 -0.000359
v -0.000357 0.000095 -0.000087
v -0.000365 -0.000110 -0.000323
v -0.000344 0.000251 -0.000083
v 0.000227 0.000291 0.000201
v 0.000312 -0.000265 0.000065
v 0.000211 0.000293 0.000229
v 0.000430 0.000268 -0.000161
v 0.000245 0.000307 0.000167
v 0.000105 0.000028 0.000425
v 0.000459 0.000120 -0.000208
v 0.000145 -0.000158 0.000358
v 0.000456 0.000034 -0.000199
v 0.000121 0.000141 0.000394
v 0.000385 -0.000200 -0.000068
v 0.000106 -0.000007 0.000424
v 0.000134 0.000202 0.000369
v 0.000434 -0.000113 -0.000157
v 0.000221 -0.000255 0.000227
v 0.000255 -0.000280 0.000167
v 0.000121 -0.000109 0.000401
v 0.000281 -0.000272 0.000119
v 0.000136 0.000205 0.000365
v 0.000437 -0.000091 -0.000163
v 0.000158 -0.000198 0.000337
v 0.000449 -0.000061 -0.000185
v 0.000134 0.000199 0.000369
v 0.000267 0.000298 0.000129
v 0.000181 -0.000236 0.000296
v 0.000202 0.000289 0.000245
v 0.000370 -0.000209 -0.000041
v 0.000123 -0.000120 0.000397
v 0.000400 0.000282 -0.000108
v 0.000142 0.000270 0.000354
v 0.000443 0.000229 -0.000183
v 0.000401 -0.000186 -0.000097
v 0.000416 -0.000150 -0.000124
vt 0.845955 0.754351
vt 0.841960 0.758066
vt 0.845013 0.752836
vt 0.842461 0.765981
vt 0.840676 0.767185
vt 0.841016 0.765155
vt 0.795446 0.956843
vt 0.795282 0.957391
vt 0.794908 0.956567
vt 0.839472 0.756088
vt 0.837134 0.761050
vt 0.837263 0.756109
vt 0.783270 0.028787
vt 0.784554 0.033239
vt 0.780843 0.028408
vt 0.810009 0.825104
vt 0.809325 0.823047
vt 0.810345 0.822722
vt 0.114731 0.888330
vt 0.115993 0.887767
vt 0.113639 0.890619
vt 0.634315 0.415818
vt 0.632580 0.417049
vt 0.629937 0.412651
vt 0.172172 0.417563
vt 0.173524 0.418129
vt 0.172734 0.418903
vt 0.388279 0.602012
vt 0.390081 0.595380
vt 0.389790 0.600057
vt 0.938297 0.325510
vt 0.937680 0.328102
vt 0.936307 0.325235
vt 0.387759 0.597405
vt 0.384475 0.595517
vt 0.388171 0.591531
vt 0.231661 0.952044
vt 0.230082 0.950825
vt 0.231561 0.950565
vt 0.287319 0.294156
vt 0.288095 0.293980
vt 0.288568 0.294061
vt 0.776732 0.030883
vt 0.781548 0.032458
vt 0.069142 0.116380
vt 0.062873 0.115596
vt 0.066220 0.115065
vt 0.782460 0.039076
vt 0.781653 0.043017
vt 0.778567 0.041118
vt 0.935459 0.327136
vt 0.934656 0.325353
vt 0.548293 0.292105
vt 0.548281 0.296290
vt 0.545550 0.291953
vt 0.380798 0.584878
vt 0.386542 0.585755
vt 0.381251 0.590701
vt 0.380568 0.585192
vt 0.637692 0.421824
vt 0.634995 0.423828
vt 0.635692 0.420028
vt 0.784160 0.035767
vt 0.389410 0.586242
vt 0.058655 0.099676
vt 0.060268 0.104075
vt 0.056787 0.102042
vt 0.063465 0.104502
vt 0.061775 0.108286
vt 0.553049 0.298353
vt 0.549994 0.300649
vt 0.361798 0.791458
vt 0.360733 0.795537
vt 0.359216 0.795879
vt 0.630391 0.410094
vt 0.230429 0.953457
vt 0.228950 0.951977
vt 0.880467 0.434524
vt 0.878408 0.435528
vt 0.879429 0.432892
vt 0.288591 0.293204
vt 0.466652 0.362331
vt 0.467849 0.362250
vt 0.466801 0.362723
vt 0.841287 0.761708
vt 0.839217 0.759482
vt 0.425062 0.695199
vt 0.424158 0.695067
vt 0.426875 0.693118
vt 0.718741 0.583053
vt 0.722664 0.585729
vt 0.719805 0.586770
vt 0.670428 0.416574
vt 0.671972 0.416718
vt 0.670571 0.420035
vt 0.054547 0.107044
vt 0.059796 0.108255
vt 0.060439 0.112932
vt 0.844808 0.752415
vt 0.552620 0.301929
vt 0.550876 0.304553
vt 0.059830 0.115085
vt 0.062169 0.115663
vt 0.722935 0.588053
vt 0.721495 0.589779
vt 0.643103 0.463756
vt 0.646402 0.463248
vt 0.646158 0.466040
vt 0.518760 0.553493
vt 0.516694 0.555077
vt 0.517449 0.549569
vt 0.281571 0.153517
vt 0.278795 0.153837
vt 0.280247 0.152856
vt 0.779331 0.035990
vt 0.783610 0.036473
vt 0.059322 0.095647
vt 0.058458 0.096769
vt 0.058210 0.096172
vt 0.528197 0.677154
vt 0.528076 0.675023
vt 0.533109 0.675093
vt 0.466061 0.413468
vt 0.467884 0.414057
vt 0.466871 0.414299
vt 0.786132 0.039531
vt 0.784879 0.042440
vt 0.573161 0.396893
vt 0.572209 0.394545
vt 0.574434 0.392894
vt 0.773074 0.027312
vt 0.770515 0.025389
vt 0.772847 0.023379
vt 0.941278 0.457883
vt 0.939703 0.457355
vt 0.939852 0.455522
vt 0.848797 0.764704
vt 0.847948 0.766429
vt 0.845532 0.766376
vt 0.848798 0.764616
vt 0.845179 0.768480
vt 0.330785 0.788474
vt 0.333316 0.790131
vt 0.329928 0.789901
vt 0.258606 0.707202
vt 0.261175 0.707514
vt 0.261974 0.710421
vt 0.378318 0.589287
vt 0.378774 0.590433
vt 0.378330 0.590063
vt 0.384984 0.600050
vt 0.676449 0.333261
vt 0.678608 0.329861
vt 0.678306 0.334736
vt 0.845236 0.761763
vt 0.466374 0.362309
vt 0.904337 0.665482
vt 0.904487 0.667413
vt 0.903671 0.664085
vt 0.378712 0.587879
vt 0.643094 0.461757
vt 0.645968 0.460535
vt 0.950306 0.870189
vt 0.949874 0.872527
vt 0.949097 0.870488
vt 0.684921 0.329331
vt 0.682372 0.335146
vt 0.533990 0.113406
vt 0.532670 0.114360
vt 0.533161 0.112782
vt 0.534096 0.113105
vt 0.649331 0.456539
vt 0.648799 0.458329
vt 0.648258 0.454601
vt 0.649535 0.454778
vt 0.282485 0.195899
vt 0.281936 0.196087
vt 0.282636 0.195554
vt 0.296102 0.290113
vt 0.294038 0.295642
vt 0.293409 0.293201
vt 0.553873 0.996031
vt 0.556370 0.993912
vt 0.558350 0.994365
vt 0.774994 0.032648
vt 0.775893 0.032336
vt 0.848265 0.760378
vt 0.848545 0.762163
vt 0.779856 0.021340
vt 0.779106 0.023894
vt 0.775112 0.022390
vt 0.821349 0.367298
vt 0.822424 0.365619
vt 0.821973 0.368761
vt 0.250520 0.657481
vt 0.250886 0.659890
vt 0.249814 0.660007
vt 0.442911 0.791927
vt 0.444629 0.793303
vt 0.444097 0.796262
vt 0.250700 0.706418
vt 0.249900 0.709883
vt 0.249545 0.709591
vt 0.392012 0.589317
vt 0.392123 0.594620
vt 0.290806 0.296308
vt 0.291215 0.299183
vt 0.288161 0.296201
vt 0.288462 0.299559
vt 0.777704 0.025805
vt 0.057127 0.097231
vt 0.960516 0.738290
vt 0.961554 0.738171
vt 0.961975 0.739302
vt 0.040427 0.955427
vt 0.041499 0.954535
vt 0.042244 0.955012
vt 0.040601 0.955497
vt 0.041477 0.951921
vt 0.685762 0.352381
vt 0.688179 0.358324
vt 0.685983 0.354007
vt 0.687048 0.359961
vt 0.688990 0.359897
vt 0.534494 0.676680
vt 0.532735 0.677084
vt 0.774408 0.859973
vt 0.775321 0.858648
vt 0.776568 0.859566
vt 0.151982 0.049200
vt 0.153230 0.049985
vt 0.150727 0.049768
vt 0.362960 0.789691
vt 0.361872 0.788338
vt 0.381787 0.596106
vt 0.668277 0.420697
vt 0.831261 0.905863
vt 0.830201 0.905600
vt 0.830383 0.903314
vt 0.060874 0.099428
vt 0.061754 0.100364
vt 0.396494 0.918808
vt 0.396447 0.918326
vt 0.398314 0.919202
vt 0.397652 0.920754
vt 0.396319 0.918325
vt 0.722989 0.582663
vt 0.720538 0.581193
vt 0.521961 0.173199
vt 0.521626 0.172037
vt 0.522208 0.172442
vt 0.850261 0.765850
vt 0.572311 0.390927
vt 0.573289 0.389495
vt 0.843751 0.769423
vt 0.248058 0.658907
vt 0.247952 0.658542
vt 0.249259 0.661188
vt 0.686079 0.334644
vt 0.687170 0.330930
vt 0.546437 0.296413
vt 0.323483 0.332952
vt 0.324406 0.331420
vt 0.324478 0.333426
vt 0.191231 0.881730
vt 0.187614 0.881368
vt 0.189299 0.880767
vt 0.665468 0.423977
vt 0.667582 0.424737
vt 0.502295 0.184725
vt 0.500665 0.182124
vt 0.500976 0.181906
vt 0.769973 0.397796
vt 0.771585 0.395350
vt 0.771770 0.396342
vt 0.391755 0.597054
vt 0.393397 0.595795
vt 0.840751 0.750470
vt 0.836873 0.753065
vt 0.724806 0.583916
vt 0.726117 0.585824
vt 0.724813 0.585024
vt 0.842170 0.769207
vt 0.232940 0.952500
vt 0.235963 0.952927
vt 0.232676 0.953370
vt 0.441118 0.919436
vt 0.442363 0.919857
vt 0.442285 0.922313
vt 0.105376 0.932830
vt 0.106744 0.933940
vt 0.104140 0.935464
vt 0.104349 0.933379
vt 0.103506 0.934941
vt 0.952321 0.467838
vt 0.948770 0.467891
vt 0.951137 0.467347
vt 0.330243 0.794381
vt 0.332419 0.792243
vt 0.334386 0.794862
vt 0.430758 0.693140
vt 0.430126 0.691679
vt 0.267223 0.381968
vt 0.267894 0.383044
vt 0.266514 0.382856
vt 0.545528 0.294377
vt 0.599209 0.071262
vt 0.599470 0.070548
vt 0.600603 0.070293
vt 0.530245 0.991810
vt 0.529837 0.989992
vt 0.534003 0.990213
vt 0.588565 0.074579
vt 0.586983 0.074684
vt 0.586470 0.073614
vt 0.518769 0.544784
vt 0.520134 0.543806
vt 0.519320 0.547401
vt 0.518398 0.548332
vt 0.809402 0.825780
vt 0.467181 0.366491
vt 0.466384 0.364065
vt 0.468754 0.364780
vt 0.493045 0.270951
vt 0.493042 0.269033
vt 0.493787 0.270024
vt 0.902095 0.387897
vt 0.902022 0.386618
vt 0.903818 0.385915
vt 0.394667 0.593239
vt 0.785998 0.036009
vt 0.788619 0.037777
vt 0.834794 0.763871
vt 0.833477 0.763192
vt 0.834737 0.762782
vt 0.697903 0.151838
vt 0.698148 0.150651
vt 0.699864 0.151602
vt 0.384498 0.585475
vt 0.381052 0.584921
vt 0.294415 0.285966
vt 0.294639 0.285834
vt 0.298598 0.290043
vt 0.292506 0.287327
vt 0.292541 0.287279
vt 0.250770 0.706177
vt 0.250995 0.709747
vt 0.779916 0.045907
vt 0.779964 0.046074
vt 0.778984 0.046517
vt 0.778608 0.045987
vt 0.711522 0.659024
vt 0.715046 0.662685
vt 0.715141 0.662634
vt 0.712673 0.658977
vt 0.292571 0.287237
vt 0.469537 0.362028
vt 0.293377 0.286664
vt 0.959785 0.737554
vt 0.961017 0.737882
vt 0.383403 0.584407
vt 0.380906 0.584779
vt 0.382999 0.582930
vt 0.667972 0.426857
vt 0.667175 0.425413
vt 0.808337 0.687158
vt 0.807023 0.686753
vt 0.806780 0.686524
vt 0.807499 0.686625
vt 0.522387 0.171726
vt 0.522821 0.171546
vt 0.522609 0.172278
vt 0.766702 0.027424
vt 0.766063 0.026552
vt 0.767451 0.023980
vt 0.076851 0.782415
vt 0.077359 0.781700
vt 0.077849 0.782631
vt 0.782815 0.188502
vt 0.783431 0.188974
vt 0.782875 0.189300
vt 0.783933 0.023053
vt 0.785130 0.023100
vt 0.786819 0.023917
vt 0.787481 0.024815
vt 0.768248 0.023397
vt 0.770650 0.023176
vt 0.433523 0.256216
vt 0.432343 0.256957
vt 0.432936 0.255740
vt 0.587523 0.065177
vt 0.585753 0.066361
vt 0.585704 0.066370
vt 0.585746 0.064963
vt 0.773232 0.022743
vt 0.053944 0.104680
vt 0.054246 0.100466
vt 0.842258 0.750784
vt 0.842823 0.751629
vt 0.057642 0.113764
vt 0.054624 0.108393
vt 0.846627 0.755178
vt 0.782216 0.021725
vt 0.039282 0.954568
vt 0.039450 0.955074
vt 0.039136 0.954907
vn -0.3366 -0.6530 0.6785
vn -0.3865 -0.2484 0.8882
vn 0.0987 0.5903 0.8011
vn -0.3498 0.1734 0.9206
vn -0.8368 0.0616 0.5441
vn -0.7910 -0.0405 0.6104
vn 0.4301 0.5928 -0.6809
vn -0.9865 -0.0484 -0.1562
vn -0.5665 0.7532 -0.3343
vn -0.2056 -0.7346 0.6466
vn -0.2223 -0.5061 0.8333
vn -0.2686 -0.9059 0.3274
vn -0.0016 -1.0000 0.0019
vn -0.1975 -0.9782 0.0636
vn 0.1658 -0.9538 -0.2506
vn -0.2315 0.9644 -0.1278
vn 0.0426 0.9966 -0.0707
vn -0.1124 0.9540 0.2780
vn -0.2101 -0.2437 0.9468
vn -0.9876 -0.0286 0.1546
vn -0.9470 0.0027 0.3213
vn -0.8145 0.2243 0.5351
vn -0.9596 -0.0263 0.2800
vn -0.8909 -0.1051 0.4418
vn 0.1696 -0.1712 -0.9705
vn 0.1295 -0.1325 -0.9827
vn 0.1922 -0.1056 -0.9757
vn -0.9491 0.2381 0.2061
vn -0.9981 0.0537 0.0286
vn 0.1848 -0.1011 -0.9776
vn 0.2361 -0.1747 -0.9559
vn 0.2388 -0.0948 -0.9664
vn -0.5471 0.7318 0.4063
vn -0.9470 0.0617 0.3152
vn -0.7665 0.1561 0.6229
vn -0.5157 0.0379 0.8559
vn 0.1989 -0.7138 -0.6715
vn -0.0662 -0.9782 -0.1968
vn 0.2748 0.5855 -0.7627
vn -0.4680 0.7220 0.5096
vn -0.4664 0.7850 -0.4077
vn -0.1272 -0.9835 -0.1285
vn -0.2158 -0.9173 -0.3346
vn 0.0870 -0.6758 -0.7319
vn -0.0072 0.9499 -0.3124
vn 0.0417 0.9749 -0.2188
vn -0.0668 0.7087 -0.7023
vn -0.5788 0.0816 -0.8113
vn 0.1527 0.2320 -0.9607
vn 0.2173 -0.3107 -0.9253
vn -0.5896 -0.0506 -0.8061
vn -0.4969 0.8339 0.2403
vn -0.2541 -0.9656 -0.0555
vn 0.1126 0.6691 -0.7346
vn 0.3250 -0.4035 -0.8553
vn 0.1072 -0.2269 -0.9680
vn 0.2623 0.1185 -0.9577
vn 0.2443 0.6683 -0.7026
vn -0.7332 -0.5907 0.3369
vn -0.4336 0.6723 0.6000
vn -0.2468 -0.9613 0.1224
vn -0.7800 0.0437 0.6243
vn -0.5846 0.7156 -0.3823
vn -0.7218 0.6020 -0.3414
vn 0.0688 0.7994 -0.5969
vn 0.0257 0.9511 -0.3077
vn 0.1974 0.7061 -0.6801
vn -0.2242 -0.9453 0.2371
vn -0.1088 -0.9477 0.2999
vn 0.1258 -0.4700 -0.8736
vn -0.0473 -0.8821 -0.4686
vn -0.5444 0.0319 -0.8382
vn 0.1508 0.2138 -0.9652
vn -0.2591 0.6068 -0.7514
vn 0.1554 0.2869 0.9453
vn -0.0216 0.9918 -0.1256
vn -0.5888 0.2727 -0.7609
vn 0.5449 -0.0634 -0.8361
vn 0.4478 -0.1449 -0.8823
vn 0.1269 -0.8032 -0.5821
vn 0.0319 -0.7993 0.6001
vn -0.7475 -0.6635 -0.0320
vn -0.7934 -0.5895 0.1516
vn -0.0855 0.9957 0.0355
vn 0.3103 -0.5968 -0.7400
vn 0.0937 -0.6081 -0.7883
vn -0.0703 0.9967 0.0416
vn -0.5599 0.8042 0.1994
vn -0.3052 0.4821 0.8213
vn 0.4885 0.8322 0.2622
vn -0.3315 -0.8884 0.3176
vn -0.6592 -0.3736 -0.6525
vn -0.6087 -0.4523 -0.6519
vn 0.2077 -0.9442 -0.2555
vn -0.4229 0.1702 0.8900
vn -0.5183 0.6838 -0.5136
vn -0.6974 -0.4685 0.5423
vn -0.5595 -0.2324 -0.7956
vn -0.0878 -0.9958 -0.0262
vn -0.7005 0.6776 -0.2239
vn -0.7289 0.5907 -0.3461
vn -0.7190 0.6787 -0.1494
vn -0.7891 0.6029 0.1174
vn -0.8218 0.1289 0.5550
vn 0.2956 0.9189 0.2611
vn -0.2550 -0.3884 0.8855
vn 0.1781 -0.7223 -0.6682
vn 0.1523 -0.7733 0.6154
vn -0.9413 0.0769 0.3286
vn -0.8433 0.1111 0.5259
vn 0.2368 -0.9078 0.3461
vn 0.0116 0.4886 -0.8724
vn -0.6912 0.6523 -0.3111
vn 0.3038 0.7575 -0.5779
vn -0.9993 -0.0331 -0.0175
vn 0.2970 0.9013 -0.3152
vn -0.8524 -0.4894 -0.1841
vn -0.0982 -0.8301 -0.5489
vn -0.8678 -0.4537 -0.2027
vn -0.6527 -0.6210 -0.4339
vn 0.4364 -0.8792 0.1913
vn -0.1840 -0.8905 0.4161
vn -0.2111 0.5119 0.8327
vn -0.6695 0.5578 0.4906
vn 0.4261 -0.0940 -0.8998
vn -0.9359 0.1252 0.3294
vn 0.2313 0.8294 0.5086
vn -0.6712 0.3148 -0.6711
vn -0.9040 0.2808 0.3223
vn -0.8649 -0.3777 0.3308
vn -0.9367 0.1208 0.3287
vn -0.9495 0.1053 0.2956
vn -0.9326 0.1998 0.3004
vn -0.8865 0.2550 0.3861
vn -0.4186 0.5087 -0.7523
vn -0.0394 -0.0286 0.9988
vn 0.1903 -0.9527 0.2369
vn 0.2647 0.3060 -0.9145
vn -0.1137 -0.5235 0.8444
vn -0.1775 -0.8324 -0.5250
vn 0.5023 -0.7555 -0.4207
vn 0.3803 -0.8895 0.2531
vn 0.3677 -0.9258 -0.0872
vn 0.3762 -0.8352 -0.4011
vn 0.0504 -0.8451 -0.5322
usemtl sungaya_inexpectata_31mg
s 1
f 124/1/1 66/2/2 129/3/3
f 20/4/4 21/5/5 22/6/6
f 113/7/7 117/8/8 31/9/9
f 17/10/10 40/11/11 78/12/12
f 2/13/13 13/14/14 33/15/15
f 7/16/16 23/17/17 51/18/18
f 40/19/11 54/20/19 22/21/6
f 65/22/20 26/23/21 43/24/22
f 26/25/21 52/26/23 53/27/24
f 82/28/25 27/29/26 38/30/27
f 21/31/5 8/32/28 62/33/29
f 56/34/30 46/35/31 45/36/32
f 8/37/28 19/38/33 52/39/23
f 90/40/34 87/41/35 67/42/36
f 41/43/37 33/15/15 15/44/38
f 39/45/39 44/46/40 25/47/41
f 29/48/42 80/49/43 10/50/44
f 62/33/29 52/51/23 65/52/20
f 69/53/45 57/54/46 60/55/47
f 106/56/48 83/57/49 71/58/50 107/59/51
f 19/60/33 63/61/52 52/62/23
f 16/63/53 15/44/38 13/14/14
f 45/36/32 73/64/54 27/29/26
f 59/65/55 38/66/27 47/67/56
f 38/66/27 27/68/26 61/69/57
f 23/70/17 32/71/58 57/54/46
f 81/72/59 62/73/29 65/74/20
f 43/24/22 81/75/59 65/22/20
f 8/37/28 3/76/60 19/77/33
f 24/78/61 29/79/42 16/80/53
f 110/81/62 67/42/36 87/41/35
f 101/82/63 99/83/64 1/84/65
f 22/85/6 54/86/19 66/2/2
f 12/87/66 35/88/67 32/89/58
f 55/90/68 5/91/69 78/92/12
f 48/93/70 41/94/37 30/95/71
f 37/96/72 74/97/73 34/98/74
f 129/3/3 66/2/2 17/10/10 140/99/75
f 32/71/58 6/100/76 12/101/66
f 116/102/77 34/98/74 44/46/40 141/103/78
f 5/104/69 17/105/10 78/92/12
f 51/106/18 19/107/33 3/108/60
f 31/109/9 39/110/39 25/111/41
f 83/112/49 46/113/31 71/114/50
f 30/115/71 15/44/38 29/48/42
f 15/44/38 16/116/53 29/48/42
f 123/117/79 49/118/80 144/119/81
f 8/120/28 52/121/23 62/122/29
f 68/123/82 24/124/61 93/125/83
f 24/126/61 68/127/82 29/48/42
f 23/128/17 57/129/46 18/130/84
f 70/131/85 59/132/55 49/133/80
f 72/134/86 71/135/50 10/136/44
f 131/137/87 77/138/88 58/139/89 125/140/90
f 58/139/89 77/138/88 3/141/60
f 13/142/14 55/143/68 84/144/91
f 55/145/68 2/146/13 5/147/69
f 111/148/92 72/149/86 94/150/93
f 46/35/31 56/34/30 48/151/70
f 41/43/37 70/131/85 33/15/15
f 70/152/85 11/153/94 33/154/15
f 22/85/6 66/2/2 14/155/95
f 102/156/96 101/82/63 1/84/65
f 40/157/11 76/158/97 78/159/12
f 107/59/51 71/58/50 86/160/98
f 51/106/18 23/161/17 18/162/84
f 51/106/18 18/162/84 19/107/33
f 40/163/11 22/164/6 76/165/97
f 34/98/74 25/47/41 44/46/40
f 9/166/99 2/167/13 33/154/15
f 14/155/95 20/4/4 22/85/6
f 10/50/44 30/115/71 29/48/42
f 95/168/100 69/169/45 60/170/47 91/171/101
f 89/172/102 63/173/52 69/174/45 95/175/100
f 112/176/103 63/177/52 89/178/102
f 43/179/22 26/180/21 50/181/104
f 13/182/14 15/183/38 33/184/15
f 82/185/25 41/43/37 48/186/70
f 122/187/105 135/188/106 14/155/95
f 114/189/107 11/190/94 49/133/80 139/191/108
f 80/192/43 29/193/42 68/194/82
f 65/22/20 52/62/23 26/23/21
f 6/195/76 7/196/16 31/197/9
f 54/198/19 17/199/10 66/200/2
f 83/57/49 45/36/32 46/35/31
f 97/201/109 67/202/36 110/203/62
f 27/29/26 32/204/58 61/205/57
f 32/204/58 27/29/26 73/64/54
f 53/206/24 52/207/23 4/208/110
f 52/207/23 63/209/52 4/208/110
f 11/210/94 70/131/85 49/133/80
f 145/211/111 144/119/81 49/118/80
f 36/212/112 1/213/65 60/214/47
f 115/215/113 7/216/16 77/217/88 138/218/114
f 77/217/88 7/216/16 51/219/18
f 3/220/60 77/221/88 51/222/18
f 64/223/115 77/221/88 142/224/116
f 45/36/32 83/57/49 73/64/54
f 62/122/29 22/225/6 21/226/5
f 48/151/70 56/34/30 82/28/25
f 41/227/37 82/228/25 70/229/85
f 46/230/31 10/231/44 71/232/50
f 84/233/91 81/72/59 24/234/61
f 10/235/44 46/35/31 48/151/70
f 10/236/44 48/93/70 30/95/71
f 47/67/56 38/66/27 37/96/72
f 74/97/73 37/96/72 38/66/27
f 59/237/55 70/238/85 38/239/27
f 38/66/27 70/240/85 82/241/25
f 104/242/117 42/243/118 80/244/43 103/245/119
f 108/246/120 42/243/118 104/242/117
f 2/247/13 55/90/68 13/248/14
f 120/249/121 79/250/122 133/251/123
f 131/137/87 142/252/116 77/138/88
f 18/130/84 57/129/46 69/253/45
f 63/254/52 18/130/84 69/253/45
f 75/255/124 58/139/89 3/141/60
f 136/256/125 39/257/39 31/197/9 117/258/8
f 5/259/69 9/166/99 79/260/122
f 60/55/47 57/54/46 73/261/54
f 81/262/59 84/263/91 55/264/68
f 72/265/86 10/266/44 42/267/118
f 42/268/118 10/236/44 80/269/43
f 23/70/17 6/100/76 32/71/58
f 6/270/76 25/271/41 12/272/66
f 25/273/41 6/274/76 31/275/9
f 27/29/26 82/28/25 56/34/30
f 38/276/27 61/205/57 74/277/73
f 54/86/19 40/11/11 17/10/10
f 79/278/122 17/10/10 5/279/69
f 2/280/13 9/281/99 5/282/69
f 21/5/5 20/4/4 75/283/124
f 20/4/4 58/139/89 75/283/124
f 8/284/28 21/285/5 75/286/124
f 81/287/59 55/288/68 76/289/97
f 67/290/36 53/291/24 4/292/110
f 90/293/34 67/290/36 4/292/110 85/294/126
f 18/295/84 63/296/52 19/297/33
f 76/298/97 55/299/68 78/300/12
f 57/301/46 32/89/58 73/302/54
f 8/303/28 75/304/124 3/305/60
f 83/306/49 60/55/47 73/261/54
f 122/307/105 14/308/95 118/309/127
f 15/44/38 30/115/71 41/43/37
f 33/154/15 11/153/94 9/166/99
f 27/310/26 56/311/30 45/312/32
f 14/313/95 58/314/89 20/315/4
f 34/316/74 35/317/67 12/318/66
f 34/316/74 12/318/66 25/319/41
f 23/17/17 7/16/16 6/320/76
f 83/321/49 36/322/112 60/323/47
f 34/324/74 74/325/73 35/326/67
f 74/327/73 61/328/57 35/329/67
f 32/204/58 35/330/67 61/205/57
f 24/126/61 16/63/53 13/331/14
f 84/332/91 24/126/61 13/331/14
f 62/333/29 81/334/59 76/335/97
f 22/336/6 62/337/29 76/338/97
f 50/181/104 26/180/21 53/206/24
f 36/339/112 83/57/49 106/56/48 109/340/128
f 43/179/22 98/341/129 100/342/130 81/343/59
f 53/206/24 96/344/131 105/345/132 50/181/104
f 67/202/36 97/201/109 96/346/131 53/347/24
f 42/348/118 108/349/120 94/350/93 72/351/86
f 81/352/59 100/353/130 93/354/83 24/355/61
f 43/179/22 50/181/104 105/345/132 92/356/133
f 1/84/65 99/83/64 91/357/101 60/323/47
f 43/179/22 28/358/134 98/341/129
f 43/179/22 92/356/133 28/358/134
f 1/213/65 36/212/112 88/359/135 102/360/96
f 36/361/112 109/362/128 88/363/135
f 80/269/43 68/364/82 103/365/119
f 71/58/50 72/149/86 111/148/92 86/160/98
f 63/366/52 112/367/103 85/368/126 4/369/110
f 79/370/122 137/371/136 133/372/123
f 47/373/56 134/374/137 132/375/138
f 9/376/99 130/377/139 128/378/140
f 9/379/99 128/380/140 127/381/141
f 9/382/99 127/383/141 137/384/136 79/385/122
f 59/132/55 126/386/142 145/387/111 49/133/80
f 59/132/55 47/373/56 132/375/138 126/386/142
f 77/388/88 64/389/115 138/390/114
f 14/391/95 135/392/106 125/393/90 58/394/89
f 49/133/80 123/395/79 139/191/108
f 47/67/56 37/96/72 121/396/143 134/397/137
f 79/278/122 120/398/121 140/399/75 17/10/10
f 37/96/72 34/98/74 143/400/144 119/401/145
f 66/2/2 124/1/1 118/402/127 14/155/95
f 34/98/74 116/102/77 143/400/144
f 9/382/99 11/190/94 114/189/107 130/403/139
f 31/404/9 7/216/16 115/405/113 113/406/7
f 37/96/72 119/401/145 121/396/143
f 136/256/125 117/258/8 113/7/7 115/405/113 138/218/114 64/389/115 142/224/116 131/137/87 125/140/90 135/392/106 122/187/105 118/309/127 124/1/1 129/3/3 140/99/75 120/398/121 133/251/123 137/371/136 127/383/141 128/380/140 130/377/139 114/189/107 139/191/108 123/395/79 144/119/81 145/211/111 126/386/142 132/375/138 134/374/137 121/396/143 119/401/145 143/400/144 116/102/77 141/103/78 44/46/40 39/45/39
f 107/59/51 86/160/98 111/148/92 94/150/93 108/349/120 104/242/117 103/245/119 68/364/82 93/125/83 100/353/130 98/341/129 28/358/134 92/356/133 105/345/132 96/344/131 97/201/109 110/203/62 87/41/35 90/40/34 85/294/126 112/367/103 89/178/102 95/175/100 91/171/101 99/83/64 101/82/63 102/156/96 88/359/135 109/362/128 106/56/48
