# Blender v2.79 (sub 0) OBJ File: 'redo_fixed_360_joints.blend'
# www.blender.org
mtllib sungaya_inexpectata_31mg.mtl
o 46-h-r-claws_Sungaya_inexpectata_31mg.045
v -0.000500 0.000063 0.000096
v -0.000520 -0.000057 0.000026
v -0.000522 -0.000050 0.000187
v 0.000590 0.000107 -0.000182
v 0.000433 0.000091 -0.000174
v 0.000647 0.000104 -0.000243
v -0.000362 -0.000020 0.000188
v -0.000871 0.000073 0.000280
v -0.000002 -0.000089 0.000009
v 0.000466 -0.000073 -0.000176
v 0.000468 -0.000088 -0.000113
v -0.000683 -0.000011 0.000079
v -0.000653 -0.000064 0.000110
v -0.000254 -0.000035 -0.000042
v -0.000229 0.000054 0.000115
v -0.000716 -0.000002 0.000286
v -0.000613 -0.000025 0.000243
v 0.000608 -0.000070 -0.000230
v 0.000570 0.000058 -0.000221
v 0.000604 -0.000017 -0.000277
v 0.000767 -0.000030 -0.000340
v 0.000742 -0.000103 -0.000364
v -0.000680 0.000038 0.000096
v -0.000335 0.000000 -0.000040
v 0.000219 -0.000044 -0.000046
v -0.000146 -0.000047 0.000126
v -0.000113 0.000015 0.000143
v -0.000293 -0.000064 -0.000003
v -0.000094 -0.000071 -0.000012
v 0.000694 0.000077 -0.000199
v 0.000645 0.000111 -0.000167
v 0.000247 0.000058 -0.000034
v 0.000020 -0.000050 -0.000062
v 0.000114 0.000050 0.000103
v 0.000011 0.000073 -0.000007
v -0.000159 -0.000085 0.000061
v 0.000208 -0.000057 0.000041
v -0.000838 -0.000042 0.000291
v -0.000170 0.000032 -0.000008
v 0.000287 0.000026 -0.000112
v 0.000524 0.000006 -0.000215
v -0.000116 0.000014 -0.000034
v -0.000275 -0.000071 0.000110
v -0.000645 0.000056 0.000166
v 0.000617 -0.000046 -0.000092
v 0.000049 -0.000020 -0.000079
v -0.000801 -0.000059 0.000144
v -0.000317 0.000040 0.000009
v -0.000553 0.000023 0.000243
v -0.000831 0.000037 0.000149
v -0.000914 0.000026 0.000159
v 0.000444 -0.000060 0.000002
v 0.000428 0.000067 -0.000011
v 0.000670 -0.000038 -0.000361
v -0.000205 0.000052 0.000056
v 0.000474 0.000038 0.000012
v 0.000825 0.000007 -0.000404
v -0.000480 0.000055 0.000184
v 0.000713 -0.000003 -0.000228
v -0.000040 -0.000096 0.000077
v 0.000204 0.000009 -0.000080
v 0.000663 0.000027 -0.000345
v 0.000721 0.000121 -0.000350
v 0.000713 0.000174 -0.000270
v 0.000799 -0.000241 -0.000328
v -0.000242 0.000015 0.000163
v 0.000771 0.000047 -0.000443
v 0.000113 0.000052 -0.000022
v 0.000007 0.000037 -0.000054
v 0.000561 -0.000008 -0.000028
v 0.000644 -0.000003 -0.000082
v 0.000119 0.000003 0.000132
v 0.000678 0.000026 -0.000117
v 0.000676 -0.000067 -0.000190
v 0.000809 0.000086 -0.000420
v 0.000770 -0.000042 -0.000412
v 0.000749 0.000123 -0.000317
v 0.000735 0.000211 -0.000355
v -0.000545 0.000024 0.000022
v 0.000792 -0.000262 -0.000380
v -0.000468 -0.000073 0.000100
v 0.000151 -0.000036 0.000108
v 0.000751 -0.000172 -0.000304
v -0.000664 0.000045 0.000265
v 0.000741 0.000257 -0.000313
v -0.000259 0.000001 -0.000035
v -0.000969 -0.000073 0.000260
v -0.000973 -0.000023 0.000185
v -0.000920 0.000014 0.000352
v -0.000930 0.000062 0.000252
v -0.000951 0.000043 0.000192
v -0.000920 0.000011 0.000352
v -0.000951 -0.000050 0.000304
v -0.000917 0.000072 0.000292
v -0.000975 -0.000070 0.000230
v -0.000923 0.000005 0.000349
v -0.000966 0.000006 0.000177
v -0.000916 0.000064 0.000306
v -0.000979 -0.000072 0.000219
v -0.000919 0.000027 0.000338
v -0.000956 0.000035 0.000183
vt 0.387023 0.875365
vt 0.385329 0.873085
vt 0.385621 0.874972
vt 0.175352 0.704455
vt 0.176608 0.698015
vt 0.174952 0.698470
vt 0.445950 0.306028
vt 0.446537 0.310653
vt 0.448484 0.309132
vt 0.232394 0.234307
vt 0.231235 0.235590
vt 0.233343 0.234965
vt 0.897583 0.612775
vt 0.897184 0.614040
vt 0.899194 0.614622
vt 0.017530 0.143069
vt 0.015526 0.143911
vt 0.016525 0.143922
vt 0.538874 0.943893
vt 0.539899 0.947392
vt 0.543431 0.947251
vt 0.881769 0.846538
vt 0.882186 0.847846
vt 0.883704 0.845418
vt 0.833933 0.960487
vt 0.830231 0.960958
vt 0.831338 0.961360
vt 0.569580 0.958026
vt 0.564991 0.957890
vt 0.561831 0.960089
vt 0.831332 0.318256
vt 0.832518 0.319460
vt 0.833039 0.317567
vt 0.374962 0.009922
vt 0.376214 0.007787
vt 0.373318 0.008130
vt 0.404896 0.408460
vt 0.404545 0.410966
vt 0.410299 0.412864
vt 0.399705 0.402754
vt 0.401084 0.407748
vt 0.402398 0.405765
vt 0.162750 0.996401
vt 0.164439 0.999135
vt 0.165463 0.997793
vt 0.451345 0.302723
vt 0.452597 0.308960
vt 0.452760 0.304919
vt 0.101889 0.926009
vt 0.102210 0.924764
vt 0.099417 0.925165
vt 0.892143 0.396408
vt 0.893985 0.395360
vt 0.892094 0.395027
vt 0.373996 0.866267
vt 0.374300 0.866311
vt 0.373815 0.865795
vt 0.544686 0.965023
vt 0.545024 0.962928
vt 0.543151 0.965052
vt 0.197834 0.977217
vt 0.196700 0.979901
vt 0.197914 0.979172
vt 0.448160 0.304867
vt 0.333338 0.475016
vt 0.335144 0.471306
vt 0.332050 0.473593
vt 0.487267 0.645918
vt 0.488831 0.647436
vt 0.486803 0.643838
vt 0.337789 0.463626
vt 0.341915 0.458974
vt 0.340889 0.458015
vt 0.411134 0.416211
vt 0.414080 0.417157
vt 0.412851 0.414938
vt 0.407350 0.416767
vt 0.409761 0.418790
vt 0.679212 0.521509
vt 0.677280 0.522200
vt 0.676811 0.525551
vt 0.403495 0.405363
vt 0.401623 0.402689
vt 0.456238 0.307398
vt 0.454047 0.306941
vt 0.537161 0.944991
vt 0.536415 0.947126
vt 0.449056 0.317175
vt 0.450145 0.314077
vt 0.446616 0.318790
vt 0.938127 0.652406
vt 0.934771 0.650541
vt 0.936834 0.651920
vt 0.332882 0.470170
vt 0.334771 0.467841
vt 0.420264 0.200872
vt 0.421533 0.201605
vt 0.419618 0.200244
vt 0.536031 0.386452
vt 0.537148 0.387704
vt 0.537873 0.386279
vt 0.268870 0.613198
vt 0.270076 0.613986
vt 0.270048 0.612638
vt 0.094208 0.969732
vt 0.094388 0.972454
vt 0.096196 0.971327
vt 0.894315 0.397817
vt 0.378291 0.006727
vt 0.380089 0.010740
vt 0.062009 0.959623
vt 0.062656 0.960813
vt 0.064367 0.957509
vt 0.327782 0.484343
vt 0.327246 0.488658
vt 0.328795 0.484809
vt 0.671648 0.303169
vt 0.670495 0.304133
vt 0.674802 0.305576
vt 0.260604 0.881444
vt 0.261331 0.879164
vt 0.260275 0.877763
vt 0.201562 0.561320
vt 0.200249 0.560364
vt 0.200081 0.561612
vt 0.390815 0.026852
vt 0.394952 0.029668
vt 0.393497 0.026488
vt 0.331404 0.958810
vt 0.329286 0.958023
vt 0.329262 0.959897
vt 0.325694 0.957757
vt 0.373345 0.003361
vt 0.680856 0.516363
vt 0.681832 0.517689
vt 0.384956 0.878156
vt 0.386702 0.877452
vt 0.769908 0.279433
vt 0.771789 0.279471
vt 0.768945 0.276614
vt 0.749855 0.783306
vt 0.751222 0.781477
vt 0.749620 0.780716
vt 0.189600 0.757126
vt 0.187102 0.756090
vt 0.188482 0.757492
vt 0.581513 0.499973
vt 0.581011 0.505220
vt 0.582481 0.503835
vt 0.856376 0.495123
vt 0.858195 0.494591
vt 0.857151 0.492568
vt 0.619180 0.056643
vt 0.617687 0.057462
vt 0.619486 0.057494
vt 0.338420 0.466323
vt 0.335740 0.473659
vt 0.449876 0.312369
vt 0.031130 0.975190
vt 0.026836 0.978720
vt 0.029694 0.977477
vt 0.582617 0.493732
vt 0.581676 0.496037
vt 0.769773 0.121308
vt 0.769411 0.119896
vt 0.768503 0.121461
vt 0.583680 0.501014
vt 0.911778 0.252532
vt 0.911441 0.251040
vt 0.910327 0.252427
vt 0.969233 0.551984
vt 0.970741 0.550659
vt 0.969570 0.550528
vt 0.741654 0.651790
vt 0.740418 0.652599
vt 0.742929 0.651922
vt 0.472267 0.152981
vt 0.471187 0.153739
vt 0.472878 0.154131
vt 0.259054 0.476539
vt 0.259654 0.474619
vt 0.258551 0.475904
vt 0.469936 0.153109
vt 0.380208 0.008543
vt 0.609582 0.690427
vt 0.606713 0.690619
vt 0.607436 0.691972
vt 0.338091 0.981019
vt 0.336437 0.982099
vt 0.338554 0.982829
vt 0.898206 0.368422
vt 0.896503 0.366809
vt 0.897345 0.369353
vt 0.661777 0.788208
vt 0.660649 0.785310
vt 0.658862 0.788632
vt 0.290568 0.391813
vt 0.288909 0.391799
vt 0.290464 0.392604
vt 0.300499 0.392225
vt 0.299280 0.391853
vt 0.298891 0.392756
vt 0.678341 0.311266
vt 0.677485 0.310811
vt 0.332926 0.479061
vt 0.740375 0.264555
vt 0.741628 0.264117
vt 0.740336 0.261704
vt 0.225428 0.829892
vt 0.226063 0.828893
vt 0.224913 0.828425
vt 0.611996 0.689175
vt 0.614965 0.687425
vt 0.612500 0.687575
vt 0.614933 0.685256
vt 0.496612 0.745979
vt 0.492406 0.746373
vt 0.496148 0.747703
vt 0.674215 0.308339
vt 0.019217 0.987993
vt 0.015363 0.989846
vt 0.020760 0.988624
vt 0.329600 0.481319
vt 0.307673 0.960902
vt 0.307748 0.963147
vt 0.310080 0.961429
vt 0.389363 0.022275
vt 0.540947 0.963305
vt 0.535989 0.963136
vt 0.541018 0.965415
vt 0.015313 0.862194
vt 0.016070 0.863961
vt 0.015979 0.861387
vt 0.397066 0.402873
vt 0.397370 0.400477
vt 0.395001 0.403654
vt 0.931478 0.702867
vt 0.931897 0.702370
vt 0.930070 0.702477
vt 0.329101 0.187808
vt 0.329873 0.186877
vt 0.328399 0.186384
vt 0.003814 0.239240
vt 0.001867 0.239345
vt 0.002500 0.240081
vt 0.064114 0.302719
vt 0.063044 0.302802
vt 0.062953 0.303977
vt 0.137836 0.983787
vt 0.135219 0.983085
vt 0.130683 0.983690
vt 0.131520 0.983383
vt 0.327978 0.490279
vt 0.329165 0.488518
vt 0.893631 0.254496
vt 0.894193 0.253024
vt 0.893162 0.252928
vt 0.489656 0.748699
vt 0.378642 0.862843
vt 0.379681 0.861486
vt 0.377864 0.861997
vt 0.175922 0.696419
vt 0.115592 0.472575
vt 0.115563 0.474331
vt 0.116943 0.474107
vt 0.247988 0.878954
vt 0.245821 0.880807
vt 0.248844 0.879069
vt 0.223803 0.833473
vt 0.224952 0.834520
vt 0.224708 0.832481
vt 0.226025 0.831554
vt 0.222944 0.831943
vt 0.530723 0.396559
vt 0.532159 0.390574
vt 0.531490 0.390580
vt 0.694478 0.255904
vt 0.694728 0.252698
vt 0.693878 0.253697
vt 0.342370 0.461071
vt 0.341426 0.460808
vt 0.144009 0.108720
vt 0.144577 0.108032
vt 0.142504 0.107607
vt 0.623765 0.467201
vt 0.623172 0.468561
vt 0.624094 0.467770
vt 0.385505 0.018430
vt 0.386004 0.015704
vt 0.383105 0.012649
vt 0.258155 0.557960
vt 0.257997 0.558263
vt 0.260285 0.558409
vt 0.162348 0.998832
vt 0.196066 0.977232
vt 0.191723 0.977552
vt 0.192975 0.978144
vt 0.762761 0.149179
vt 0.761313 0.147890
vt 0.760779 0.150145
vt 0.580517 0.502590
vt 0.381391 0.010195
vt 0.776615 0.425072
vt 0.776616 0.422852
vt 0.774771 0.423486
vt 0.928008 0.702685
vt 0.929193 0.704074
vt 0.394770 0.405387
vt 0.397727 0.407099
vt 0.373213 0.004372
vt 0.388260 0.018489
vt 0.388007 0.023138
vt 0.318957 0.414952
vt 0.320378 0.414981
vt 0.319187 0.413572
vt 0.261002 0.883428
vt 0.262400 0.879488
vt 0.261686 0.919322
vt 0.262321 0.915950
vt 0.259874 0.915576
vt 0.538622 0.962079
vt 0.834222 0.355772
vt 0.836311 0.354560
vt 0.835623 0.354071
vt 0.399509 0.398266
vt 0.024000 0.456808
vt 0.025041 0.456898
vt 0.024609 0.455548
vt 0.259527 0.186679
vt 0.258305 0.185127
vt 0.258599 0.186490
vt 0.379703 0.012022
vt 0.770831 0.275792
vt 0.769561 0.275778
vt 0.534274 0.944508
vt 0.953566 0.111443
vt 0.956839 0.111386
vt 0.955671 0.111021
vt 0.541948 0.948940
vt 0.217386 0.978296
vt 0.219366 0.978244
vt 0.218528 0.976961
vt 0.197566 0.745198
vt 0.200966 0.745548
vt 0.197083 0.743079
vt 0.307330 0.149255
vt 0.308676 0.147366
vt 0.307478 0.146994
vt 0.869994 0.917660
vt 0.871274 0.916875
vt 0.869601 0.914416
vt 0.255712 0.683545
vt 0.254563 0.681265
vt 0.251737 0.680997
vt 0.774919 0.569293
vt 0.776472 0.568971
vt 0.777342 0.566431
vt 0.325219 0.959298
vt 0.976853 0.372412
vt 0.976746 0.369287
vt 0.975775 0.368028
vt 0.762031 0.119265
vt 0.761124 0.120103
vt 0.762076 0.119995
vt 0.643478 0.150262
vt 0.644288 0.149548
vt 0.644234 0.149429
vt 0.641970 0.148717
vt 0.318893 0.414169
vt 0.843913 0.860769
vt 0.845509 0.858421
vt 0.843390 0.859319
vt 0.602539 0.804237
vt 0.599282 0.808486
vt 0.599370 0.808506
vt 0.601648 0.806506
vt 0.911168 0.516501
vt 0.912447 0.516817
vt 0.912848 0.516496
vt 0.910235 0.515016
vt 0.374920 0.863248
vt 0.376441 0.863281
vt 0.598551 0.805917
vt 0.598170 0.807189
vt 0.598294 0.807277
vt 0.602486 0.801843
vt 0.599244 0.808399
vt 0.488837 0.646367
vt 0.488318 0.644370
vt 0.102771 0.923543
vt 0.101790 0.923037
vn -0.4318 0.4979 -0.7521
vn -0.6731 -0.3220 -0.6658
vn -0.6837 -0.1747 -0.7085
vn -0.2909 0.5801 -0.7608
vn -0.2900 0.7562 -0.5865
vn -0.3998 -0.0799 -0.9131
vn 0.0063 0.8971 0.4418
vn 0.2589 0.9005 0.3495
vn 0.8408 0.2613 0.4741
vn 0.0567 0.9519 0.3010
vn -0.0472 0.9823 -0.1815
vn 0.1160 0.8802 0.4603
vn -0.0172 -0.9452 0.3261
vn -0.0631 -0.9941 0.0881
vn 0.0931 -0.6097 0.7871
vn -0.1530 -0.8802 -0.4493
vn -0.1085 -0.7395 -0.6644
vn 0.0029 -0.0971 -0.9953
vn 0.0052 0.9191 -0.3941
vn -0.1201 0.1404 -0.9828
vn -0.0218 -0.9997 0.0125
vn 0.4627 -0.7330 0.4987
vn 0.2469 -0.6875 0.6829
vn -0.3054 -0.6642 -0.6823
vn -0.2955 0.2525 -0.9214
vn -0.3241 0.7605 -0.5627
vn -0.5037 0.2211 -0.8351
vn -0.1947 0.9550 -0.2238
vn -0.6088 0.6839 -0.4019
vn -0.2315 0.9466 -0.2246
vn 0.0621 -0.9311 0.3594
vn 0.0712 -0.9666 -0.2461
vn -0.4456 0.0986 -0.8898
vn -0.2895 -0.7405 -0.6065
vn -0.3756 -0.8981 -0.2289
vn -0.1076 -0.8429 -0.5272
vn 0.9522 -0.1215 -0.2804
vn 0.8816 -0.0567 0.4685
vn 0.7807 -0.4075 0.4738
vn -0.5930 -0.4583 0.6620
vn -0.6528 -0.7180 0.2416
vn 0.1850 -0.8460 0.5000
vn -0.0303 0.8989 -0.4371
vn -0.0689 0.9847 -0.1602
vn -0.5013 0.8354 0.2253
vn 0.0772 0.9631 0.2577
vn -0.6260 0.7760 -0.0771
vn -0.7272 0.2693 -0.6314
vn 0.1725 -0.0021 0.9850
vn 0.8971 0.1694 0.4081
vn 0.1677 0.3281 0.9297
vn 0.0180 0.1875 0.9821
vn -0.7390 -0.6691 -0.0779
vn -0.8701 -0.0890 -0.4847
vn -0.1579 -0.7891 -0.5936
vn 0.1033 0.8145 0.5709
vn 0.3719 0.3593 0.8559
vn 0.1158 0.9133 0.3905
vn -0.1869 -0.5860 -0.7885
vn 0.1028 -0.9830 0.1519
vn 0.5164 -0.4168 0.7481
vn 0.2134 -0.5860 -0.7817
vn -0.1501 0.5745 -0.8046
vn -0.0181 0.9635 -0.2671
vn 0.4787 -0.1562 0.8640
vn 0.7041 -0.0388 0.7090
vn 0.5154 -0.5306 0.6729
vn -0.0149 0.9979 -0.0633
vn 0.1788 0.6970 0.6944
vn 0.0101 -0.9981 0.0606
vn 0.1657 -0.3350 0.9275
vn 0.0798 -0.9032 0.4217
vn 0.0054 0.4594 -0.8882
vn -0.0296 -0.3406 -0.9397
vn 0.2905 0.2239 0.9303
vn -0.2533 0.4018 -0.8800
vn 0.7710 0.3070 -0.5580
vn -0.1979 0.9127 -0.3574
vn -0.8585 0.2427 -0.4518
vn -0.0054 0.0407 -0.9992
vn 0.5219 -0.6857 0.5074
vn -0.0656 0.8018 -0.5940
vn 0.7529 0.1276 0.6457
vn -0.2204 -0.9405 -0.2587
vn 0.1837 -0.6874 0.7027
vn 0.2410 -0.6308 0.7376
vn -0.2939 0.4270 -0.8552
vn 0.0466 -0.5228 -0.8512
vn 0.3648 -0.7952 -0.4844
vn 0.2153 -0.2669 0.9394
vn -0.2083 0.9737 -0.0918
vn 0.1291 0.3370 -0.9326
vn -0.3966 0.7108 0.5809
vn -0.5324 0.6013 0.5958
vn -0.8440 0.1234 -0.5220
vn -0.7220 0.6041 -0.3374
vn -0.7341 -0.6186 0.2800
vn -0.5356 -0.2615 0.8029
vn -0.3855 -0.0085 0.9227
vn -0.6835 0.7196 -0.1223
vn -0.4142 0.4268 0.8039
usemtl sungaya_inexpectata_31mg
s 1
f 19/1/1 54/2/2 20/3/3
f 50/4/4 23/5/5 12/6/6
f 64/7/7 31/8/8 30/9/9
f 15/10/10 1/11/11 58/12/12
f 43/13/13 36/14/14 26/15/15
f 28/16/16 29/17/17 36/18/14
f 46/19/18 68/20/19 61/21/20
f 11/22/21 45/23/22 52/24/23
f 2/25/24 24/26/25 28/27/16
f 5/28/26 40/29/27 32/30/28
f 6/31/29 4/32/30 31/33/8
f 60/34/31 29/35/17 9/36/32
f 41/37/33 10/38/34 40/39/27
f 54/40/2 18/41/35 20/42/3
f 25/43/36 60/44/31 9/45/32
f 57/46/37 59/47/38 21/48/39
f 93/49/40 87/50/41 38/51/42
f 48/52/43 15/53/10 55/54/44
f 94/55/45 8/56/46 90/57/47
f 64/58/7 62/59/48 6/60/29
f 60/61/31 72/62/49 26/63/15
f 64/7/7 59/47/38 77/64/50
f 66/65/51 27/66/52 15/67/10
f 99/68/53 88/69/54 47/70/55
f 34/71/56 56/72/57 53/73/58
f 25/74/36 33/75/59 61/76/20
f 25/74/36 11/77/21 37/78/60
f 43/79/13 28/80/16 36/81/14
f 19/82/1 62/83/48 54/40/2
f 83/84/61 22/85/62 59/47/38
f 68/20/19 69/86/63 35/87/64
f 70/88/65 71/89/66 56/90/57
f 34/91/56 32/92/28 68/93/19
f 15/94/10 27/66/52 34/95/56
f 59/47/38 64/7/7 30/9/9
f 83/96/61 65/97/67 22/98/62
f 29/99/17 60/100/31 36/101/14
f 44/102/68 8/103/46 84/104/69
f 81/105/70 7/106/71 3/107/72
f 1/108/11 15/53/10 48/52/43
f 42/109/73 29/35/17 14/110/74
f 44/111/68 84/112/69 58/113/12
f 58/114/12 84/115/69 49/116/75
f 4/117/30 5/118/26 53/119/58
f 53/120/58 31/121/8 4/122/30
f 52/123/23 45/124/22 70/125/65
f 47/126/55 51/127/76 50/128/4
f 57/129/37 75/130/77 77/131/50
f 75/130/77 78/132/78 77/131/50
f 57/46/37 77/64/50 59/47/38
f 29/35/17 42/109/73 46/133/18
f 43/79/13 2/134/24 28/80/16
f 81/135/70 2/134/24 43/79/13
f 20/3/3 10/136/34 41/137/33
f 62/138/48 63/139/79 67/140/80
f 25/74/36 61/76/20 40/39/27
f 74/141/81 45/142/22 11/143/21
f 11/144/21 18/145/35 74/146/81
f 39/147/82 24/148/25 48/149/43
f 67/150/80 63/151/79 78/152/78
f 6/153/29 19/154/1 4/155/30
f 72/156/49 27/66/52 26/157/15
f 31/8/8 73/158/83 30/9/9
f 35/159/64 55/160/44 15/161/10
f 39/147/82 35/162/64 69/163/63
f 34/164/56 35/165/64 15/166/10
f 39/147/82 55/167/44 35/162/64
f 11/168/21 25/169/36 10/170/34
f 81/171/70 3/172/72 13/173/84
f 68/174/19 35/175/64 34/176/56
f 39/147/82 48/149/43 55/167/44
f 47/177/55 17/178/85 38/179/42
f 3/180/72 47/181/55 13/182/84
f 17/178/85 47/177/55 3/183/72
f 14/110/74 39/184/82 42/109/73
f 1/185/11 23/186/5 44/187/68
f 1/188/11 44/189/68 58/190/12
f 8/191/46 44/192/68 23/193/5
f 72/194/49 60/195/31 82/196/86
f 17/197/85 7/198/71 49/199/75
f 17/200/85 3/201/72 7/202/71
f 34/203/56 53/119/58 32/204/28
f 26/157/15 66/65/51 7/205/71
f 7/206/71 43/207/13 26/208/15
f 59/209/38 22/210/62 21/211/39
f 1/212/11 48/213/43 79/214/87
f 79/214/87 48/213/43 24/215/25
f 82/216/86 52/217/23 56/218/57
f 53/119/58 5/219/26 32/204/28
f 20/3/3 41/137/33 19/1/1
f 67/220/80 78/221/78 75/222/77
f 58/223/12 49/116/75 7/205/71
f 61/224/20 32/225/28 40/226/27
f 50/128/4 12/227/6 47/126/55
f 10/38/34 25/74/36 40/39/27
f 19/228/1 5/229/26 4/230/30
f 57/231/37 22/232/62 76/233/88
f 22/234/62 54/40/2 76/235/88
f 80/236/89 18/41/35 22/234/62
f 54/40/2 22/234/62 18/41/35
f 6/237/29 31/238/8 64/239/7
f 57/240/37 76/241/88 67/242/80
f 1/243/11 79/244/87 23/245/5
f 26/246/15 36/247/14 60/248/31
f 82/249/86 37/250/60 52/251/23
f 11/252/21 52/251/23 37/250/60
f 84/115/69 16/253/90 49/116/75
f 49/116/75 16/253/90 17/254/85
f 61/255/20 33/256/59 46/257/18
f 70/258/65 56/218/57 52/217/23
f 8/259/46 23/260/5 50/261/4
f 23/5/5 79/262/87 12/6/6
f 2/263/24 81/264/70 13/265/84
f 27/266/52 66/267/51 26/268/15
f 73/269/83 71/270/66 59/271/38
f 59/271/38 71/270/66 74/272/81
f 73/269/83 59/271/38 30/273/9
f 25/274/36 9/275/32 33/276/59
f 72/277/49 56/278/57 34/279/56
f 82/280/86 56/281/57 72/156/49
f 11/282/21 10/283/34 18/284/35
f 18/41/35 10/38/34 20/42/3
f 78/285/78 64/286/7 85/287/91
f 2/288/24 79/289/87 24/290/25
f 85/291/91 64/292/7 77/293/50
f 25/43/36 37/294/60 60/44/31
f 60/295/31 37/296/60 82/297/86
f 22/298/62 57/299/37 21/300/39
f 39/147/82 86/301/92 24/148/25
f 86/302/92 39/184/82 14/110/74
f 63/303/79 64/304/7 78/305/78
f 63/306/79 62/307/48 64/239/7
f 6/60/29 62/59/48 19/228/1
f 83/308/61 18/41/35 80/236/89
f 18/41/35 83/308/61 74/309/81
f 33/310/59 29/35/17 46/133/18
f 9/36/32 29/35/17 33/310/59
f 12/227/6 79/311/87 2/288/24
f 13/312/84 12/227/6 2/288/24
f 98/313/93 100/314/94 8/315/46
f 71/89/66 73/158/83 31/8/8
f 56/90/57 71/89/66 31/8/8
f 53/120/58 56/316/57 31/317/8
f 40/318/27 5/319/26 41/320/33
f 5/229/26 19/228/1 41/321/33
f 46/19/18 69/86/63 68/20/19
f 74/322/81 71/323/66 45/324/22
f 76/235/88 54/40/2 67/325/80
f 54/326/2 62/327/48 67/328/80
f 86/302/92 14/110/74 24/290/25
f 24/329/25 14/330/74 28/331/16
f 14/110/74 29/35/17 28/332/16
f 67/140/80 75/333/77 57/334/37
f 46/19/18 39/335/82 69/86/63
f 46/336/18 42/337/73 39/338/82
f 32/339/28 61/21/20 68/20/19
f 58/340/12 7/341/71 66/342/51
f 16/343/90 38/344/42 17/345/85
f 58/223/12 66/65/51 15/67/10
f 70/346/65 45/347/22 71/348/66
f 59/349/38 74/350/81 83/351/61
f 7/352/71 81/353/70 43/354/13
f 80/355/89 65/356/67 83/357/61
f 77/131/50 78/132/78 85/358/91
f 34/95/56 27/66/52 72/156/49
f 13/312/84 47/126/55 12/227/6
f 22/359/62 65/360/67 80/361/89
f 51/362/76 97/363/95 101/364/96
f 38/365/42 95/366/97 99/367/53 47/368/55
f 8/315/46 94/369/45 98/313/93
f 38/370/42 96/371/98 93/372/40
f 16/373/90 92/374/99 96/375/98 38/376/42
f 51/377/76 101/378/96 91/379/100 50/380/4
f 50/261/4 91/381/100 90/382/47 8/259/46
f 8/383/46 100/384/94 89/385/101 84/386/69
f 84/386/69 89/387/101 92/374/99 16/373/90
f 47/70/55 88/69/54 97/388/95 51/389/76
f 38/51/42 87/390/41 95/391/97
f 93/49/40 90/57/47 88/69/54
f 94/369/45 90/57/47 98/313/93
f 98/313/93 90/57/47 100/384/94
f 100/384/94 92/374/99 89/387/101
f 92/374/99 100/384/94 96/371/98
f 96/371/98 100/384/94 93/49/40
f 93/49/40 88/69/54 87/390/41
f 87/390/41 88/69/54 95/366/97
f 95/366/97 88/69/54 99/68/53
f 88/69/54 101/378/96 97/363/95
f 101/378/96 88/69/54 91/381/100
f 91/381/100 88/69/54 90/57/47
f 90/57/47 93/49/40 100/384/94
