# Blender v2.79 (sub 0) OBJ File: 'redo_fixed_360_joints.blend'
# www.blender.org
mtllib sungaya_inexpectata_31mg.mtl
o 14-a9.000_Sungaya_inexpectata_31mg.076
v 0.000403 -0.000494 -0.000252
v 0.000189 -0.000332 0.000348
v 0.000152 -0.000391 0.000359
v 0.000456 0.000419 -0.000196
v 0.000364 -0.000522 0.000120
v 0.000132 -0.000152 -0.000363
v 0.000131 -0.000012 -0.000392
v 0.000351 -0.000098 -0.000290
v 0.000373 -0.000177 0.000165
v 0.000289 0.000493 0.000339
v 0.000034 0.000494 0.000463
v 0.000214 0.000396 0.000383
v 0.000352 -0.000332 0.000192
v 0.000341 0.000286 0.000270
v 0.000374 0.000467 0.000231
v 0.000415 -0.000242 0.000091
v 0.000200 -0.000025 0.000352
v 0.000348 -0.000286 -0.000288
v 0.000416 -0.000471 -0.000138
v 0.000189 0.000180 0.000372
v 0.000458 -0.000344 -0.000154
v 0.000304 0.000054 0.000251
v 0.000147 -0.000307 -0.000314
v 0.000027 0.000005 0.000417
v 0.000538 0.000243 -0.000017
v 0.000512 0.000395 -0.000099
v 0.000503 -0.000234 -0.000179
v 0.000389 -0.000430 -0.000001
v 0.000372 -0.000423 0.000111
v 0.000247 -0.000219 -0.000323
v 0.000211 0.000233 -0.000333
v 0.000190 0.000043 -0.000355
v 0.000483 0.000222 -0.000206
v 0.000447 -0.000468 -0.000220
v 0.000064 -0.000429 0.000370
v 0.000261 -0.000362 0.000296
v 0.000170 -0.000455 -0.000254
v 0.000296 0.000131 -0.000290
v 0.000284 -0.000108 0.000269
v 0.000259 -0.000254 0.000304
v 0.000131 -0.000505 0.000361
v 0.000123 0.000310 -0.000389
v 0.000102 -0.000294 0.000392
v 0.000404 -0.000341 0.000078
v 0.000487 0.000440 -0.000069
v 0.000182 -0.000143 0.000361
v 0.000031 -0.000544 0.000365
v 0.000247 -0.000063 0.000301
v 0.000340 0.000376 -0.000272
v 0.000445 0.000480 0.000085
v 0.000357 -0.000020 0.000175
v 0.000096 -0.000055 0.000420
v 0.000321 -0.000447 0.000221
v 0.000429 -0.000045 0.000054
v 0.000486 -0.000022 -0.000043
v 0.000560 0.000276 -0.000089
v 0.000449 0.000320 0.000100
v 0.000512 0.000004 -0.000218
v 0.000104 0.000131 -0.000411
v 0.000254 -0.000492 0.000311
v 0.000469 -0.000191 -0.000260
v 0.000249 -0.000368 -0.000285
v 0.000430 0.000085 0.000090
v 0.000344 0.000169 0.000237
v 0.000385 0.000106 0.000153
v 0.000325 -0.000537 0.000252
v 0.000460 0.000212 0.000111
v 0.000527 0.000138 0.000002
v 0.000502 -0.000377 -0.000233
v 0.000100 0.000365 0.000429
v 0.000466 -0.000101 -0.000033
v 0.000462 -0.000218 -0.000076
v 0.000538 0.000133 -0.000185
v 0.000310 -0.000487 -0.000261
v 0.000078 0.000153 0.000421
v 0.000534 0.000280 -0.000168
v 0.000587 -0.000007 -0.000172
v 0.000594 0.000134 -0.000069
v 0.000056 0.000361 -0.000412
v 0.000031 0.000100 -0.000386
v 0.000611 0.000064 -0.000108
v 0.000559 -0.000006 -0.000106
v 0.000081 -0.000204 0.000421
v 0.000527 -0.000284 -0.000243
v 0.000576 -0.000103 -0.000202
v -0.000003 0.000479 0.000455
v -0.000002 0.000330 -0.000394
v 0.000003 -0.000528 0.000362
v 0.000003 -0.000406 -0.000269
v 0.000000 -0.000023 0.000413
v -0.000003 0.000267 0.000427
v 0.000002 -0.000187 -0.000331
v 0.000001 -0.000158 0.000421
v -0.000000 0.000093 -0.000381
v 0.000004 -0.000581 -0.000182
v 0.000001 -0.000140 -0.000344
v 0.000004 -0.000554 0.000362
v 0.000003 -0.000445 0.000365
v -0.000003 0.000498 -0.000405
v -0.000002 0.000185 0.000415
v -0.000001 0.000202 -0.000387
v 0.000001 -0.000020 -0.000368
v 0.000003 -0.000482 -0.000231
v -0.000397 -0.000500 -0.000254
v -0.000184 -0.000334 0.000349
v -0.000146 -0.000393 0.000359
v -0.000460 0.000414 -0.000197
v -0.000356 -0.000526 0.000121
v -0.000130 -0.000154 -0.000364
v -0.000130 -0.000014 -0.000393
v -0.000348 -0.000105 -0.000291
v -0.000372 -0.000184 0.000166
v -0.000297 0.000485 0.000338
v -0.000040 0.000494 0.000463
v -0.000219 0.000397 0.000383
v -0.000348 -0.000337 0.000193
v -0.000345 0.000279 0.000271
v -0.000376 0.000461 0.000236
v -0.000411 -0.000249 0.000093
v -0.000199 -0.000029 0.000354
v -0.000343 -0.000291 -0.000289
v -0.000408 -0.000480 -0.000139
v -0.000191 0.000178 0.000374
v -0.000452 -0.000351 -0.000153
v -0.000306 0.000053 0.000249
v -0.000142 -0.000308 -0.000315
v -0.000027 0.000005 0.000417
v -0.000542 0.000236 -0.000018
v -0.000517 0.000390 -0.000101
v -0.000500 -0.000240 -0.000180
v -0.000382 -0.000435 -0.000001
v -0.000367 -0.000428 0.000110
v -0.000244 -0.000224 -0.000323
v -0.000213 0.000231 -0.000333
v -0.000188 0.000041 -0.000355
v -0.000488 0.000217 -0.000206
v -0.000441 -0.000473 -0.000222
v -0.000057 -0.000430 0.000370
v -0.000256 -0.000364 0.000297
v -0.000165 -0.000457 -0.000254
v -0.000296 0.000127 -0.000290
v -0.000283 -0.000112 0.000270
v -0.000257 -0.000258 0.000306
v -0.000123 -0.000507 0.000361
v -0.000125 0.000308 -0.000389
v -0.000098 -0.000294 0.000392
v -0.000400 -0.000347 0.000080
v -0.000492 0.000433 -0.000072
v -0.000180 -0.000145 0.000362
v -0.000024 -0.000544 0.000365
v -0.000246 -0.000067 0.000300
v -0.000345 0.000373 -0.000272
v -0.000449 0.000474 0.000087
v -0.000356 -0.000025 0.000175
v -0.000096 -0.000056 0.000420
v -0.000315 -0.000451 0.000222
v -0.000428 -0.000050 0.000052
v -0.000484 -0.000030 -0.000045
v -0.000564 0.000270 -0.000090
v -0.000453 0.000310 0.000101
v -0.000511 -0.000002 -0.000218
v -0.000104 0.000129 -0.000411
v -0.000248 -0.000493 0.000311
v -0.000466 -0.000196 -0.000262
v -0.000242 -0.000371 -0.000286
v -0.000431 0.000080 0.000089
v -0.000345 0.000166 0.000241
v -0.000389 0.000105 0.000149
v -0.000318 -0.000540 0.000253
v -0.000464 0.000207 0.000110
v -0.000530 0.000134 0.000002
v -0.000500 -0.000384 -0.000234
v -0.000106 0.000363 0.000429
v -0.000465 -0.000104 -0.000037
v -0.000459 -0.000218 -0.000077
v -0.000538 0.000128 -0.000187
v -0.000304 -0.000489 -0.000262
v -0.000082 0.000151 0.000421
v -0.000537 0.000274 -0.000170
v -0.000588 -0.000015 -0.000173
v -0.000598 0.000124 -0.000068
v -0.000059 0.000360 -0.000412
v -0.000031 0.000100 -0.000386
v -0.000613 0.000057 -0.000108
v -0.000557 -0.000016 -0.000108
v -0.000079 -0.000206 0.000423
v -0.000524 -0.000292 -0.000245
v -0.000578 -0.000110 -0.000206
v 0.000000 -0.000092 0.000416
v 0.000003 -0.000444 -0.000251
v -0.000002 0.000123 0.000409
v 0.000000 0.000016 0.000412
v 0.000004 -0.000574 0.000365
v -0.000003 0.000397 0.000435
v -0.000000 0.000139 -0.000380
v 0.000004 -0.000547 0.000362
v 0.000000 -0.000005 0.000412
v -0.000002 0.000380 -0.000402
v 0.000003 -0.000353 -0.000291
v 0.000001 -0.000226 0.000423
v 0.000001 -0.000268 0.000410
v 0.000002 -0.000265 -0.000306
v 0.000002 -0.000316 0.000395
v 0.000003 -0.000402 0.000373
v 0.000000 0.000038 -0.000379
v 0.000407 0.000512 0.000193
v 0.000387 0.000512 0.000226
v 0.000493 0.000512 -0.000130
v 0.000407 0.000511 -0.000237
v 0.000305 0.000511 0.000324
v 0.000491 0.000512 -0.000039
v 0.000497 0.000512 -0.000124
v 0.000132 0.000510 0.000449
v 0.000115 0.000510 0.000453
v 0.000108 0.000508 -0.000407
v 0.000152 0.000510 0.000436
v 0.000236 0.000509 -0.000360
v 0.000037 0.000510 0.000470
v 0.000233 0.000509 -0.000362
v 0.000275 0.000511 0.000354
v 0.000438 0.000511 -0.000216
v 0.000287 0.000511 0.000343
v 0.000130 0.000510 0.000451
v 0.000495 0.000512 -0.000121
v 0.000458 0.000512 0.000081
v 0.000480 0.000512 -0.000002
v -0.000003 0.000507 -0.000405
v -0.000411 0.000506 0.000196
v -0.000391 0.000506 0.000229
v -0.000499 0.000504 -0.000132
v -0.000412 0.000505 -0.000238
v -0.000316 0.000507 0.000321
v -0.000496 0.000504 -0.000039
v -0.000503 0.000504 -0.000125
v -0.000139 0.000508 0.000449
v -0.000115 0.000508 0.000454
v -0.000114 0.000506 -0.000407
v -0.000163 0.000508 0.000432
v -0.000242 0.000506 -0.000361
v -0.000043 0.000509 0.000470
v -0.000026 0.000509 0.000468
v -0.000238 0.000506 -0.000363
v -0.000281 0.000507 0.000356
v -0.000444 0.000504 -0.000216
v -0.000295 0.000507 0.000343
v -0.000135 0.000508 0.000451
v -0.000501 0.000504 -0.000121
v -0.000463 0.000505 0.000082
v -0.000485 0.000504 -0.000004
v 0.000020 0.000509 0.000468
v -0.000003 0.000509 0.000466
v 0.000397 -0.000580 -0.000152
v 0.000207 -0.000580 0.000349
v 0.000376 -0.000581 -0.000252
v 0.000281 -0.000580 0.000315
v 0.000398 -0.000580 -0.000150
v 0.000204 -0.000581 -0.000225
v 0.000166 -0.000580 0.000365
v 0.000397 -0.000580 -0.000146
v 0.000313 -0.000580 0.000281
v 0.000061 -0.000582 -0.000199
v 0.000396 -0.000580 -0.000142
v 0.000374 -0.000580 0.000098
v 0.000171 -0.000582 -0.000222
v 0.000047 -0.000581 0.000372
v 0.000343 -0.000580 0.000245
v 0.000338 -0.000581 -0.000255
v 0.000362 -0.000580 0.000189
v 0.000394 -0.000580 -0.000127
v 0.000405 -0.000580 -0.000228
v 0.000102 -0.000581 0.000373
v 0.000045 -0.000582 -0.000198
v 0.000010 -0.000582 -0.000184
v 0.000004 -0.000582 -0.000182
v -0.000389 -0.000584 -0.000158
v -0.000199 -0.000582 0.000350
v -0.000369 -0.000584 -0.000253
v -0.000275 -0.000583 0.000316
v -0.000391 -0.000584 -0.000154
v -0.000195 -0.000583 -0.000225
v -0.000158 -0.000582 0.000365
v -0.000389 -0.000584 -0.000149
v -0.000306 -0.000583 0.000283
v -0.000053 -0.000583 -0.000199
v -0.000388 -0.000584 -0.000143
v -0.000366 -0.000584 0.000098
v -0.000162 -0.000583 -0.000221
v -0.000039 -0.000581 0.000371
v -0.000336 -0.000583 0.000246
v -0.000330 -0.000584 -0.000256
v -0.000354 -0.000583 0.000190
v -0.000385 -0.000584 -0.000121
v -0.000398 -0.000584 -0.000229
v -0.000094 -0.000582 0.000373
v 0.000004 -0.000581 0.000367
v -0.000037 -0.000583 -0.000198
v -0.000002 -0.000582 -0.000184
vt 0.501920 0.765954
vt 0.501144 0.766454
vt 0.502962 0.766509
vt 0.693890 0.344784
vt 0.691717 0.341741
vt 0.690725 0.344871
vt 0.655348 0.026800
vt 0.659240 0.028919
vt 0.658118 0.023317
vt 0.431451 0.635832
vt 0.432098 0.629574
vt 0.428935 0.630725
vt 0.785956 0.350061
vt 0.790764 0.351218
vt 0.787272 0.348361
vt 0.232868 0.246783
vt 0.234206 0.246741
vt 0.232546 0.245589
vt 0.785087 0.364396
vt 0.786665 0.361278
vt 0.784913 0.360341
vt 0.780344 0.380457
vt 0.782354 0.377709
vt 0.778018 0.380712
vt 0.653234 0.034724
vt 0.656368 0.035458
vt 0.660530 0.049556
vt 0.667384 0.047822
vt 0.663985 0.044813
vt 0.668513 0.047388
vt 0.671680 0.046702
vt 0.668492 0.044425
vt 0.779042 0.370048
vt 0.781493 0.366215
vt 0.777145 0.365932
vt 0.654816 0.022360
vt 0.662077 0.025217
vt 0.438978 0.617124
vt 0.435004 0.613884
vt 0.436345 0.616744
vt 0.272483 0.955296
vt 0.271129 0.954622
vt 0.271776 0.957333
vt 0.784430 0.354657
vt 0.429833 0.625218
vt 0.429682 0.622944
vt 0.428150 0.626523
vt 0.666580 0.038346
vt 0.782006 0.343208
vt 0.779243 0.343827
vt 0.780730 0.346307
vt 0.433434 0.615047
vt 0.434514 0.618313
vt 0.112646 0.163805
vt 0.113108 0.162800
vt 0.111083 0.163341
vt 0.682457 0.320366
vt 0.683812 0.316276
vt 0.680011 0.318537
vt 0.573493 0.787054
vt 0.576888 0.787881
vt 0.576072 0.786414
vt 0.660407 0.049590
vt 0.653933 0.047205
vt 0.656054 0.050183
vt 0.771875 0.359016
vt 0.772900 0.352608
vt 0.767707 0.352084
vt 0.272239 0.494717
vt 0.272241 0.493593
vt 0.271127 0.494801
vt 0.783393 0.363351
vt 0.105549 0.762639
vt 0.104675 0.762547
vt 0.105146 0.762967
vt 0.945478 0.535542
vt 0.946666 0.535172
vt 0.946842 0.534776
vt 0.658088 0.040869
vt 0.653136 0.038962
vt 0.655649 0.045143
vt 0.233203 0.200785
vt 0.231782 0.198369
vt 0.229812 0.199271
vt 0.233022 0.198640
vt 0.793688 0.380194
vt 0.794322 0.379984
vt 0.793259 0.379562
vt 0.663732 0.892230
vt 0.663720 0.892047
vt 0.662383 0.897645
vt 0.663364 0.896647
vt 0.070264 0.752608
vt 0.072985 0.751893
vt 0.068907 0.748848
vt 0.661044 0.298497
vt 0.660317 0.301029
vt 0.665445 0.302286
vt 0.778656 0.353987
vt 0.778487 0.359476
vt 0.230839 0.203003
vt 0.234920 0.202860
vt 0.459069 0.074452
vt 0.458061 0.072887
vt 0.457693 0.074727
vt 0.455475 0.051632
vt 0.455272 0.051568
vt 0.454739 0.052024
vt 0.456288 0.052372
vt 0.240797 0.205706
vt 0.242428 0.202241
vt 0.239382 0.205893
vt 0.775973 0.368749
vt 0.775618 0.373496
vt 0.659934 0.036835
vt 0.684577 0.319422
vt 0.085353 0.754735
vt 0.081061 0.754061
vt 0.085496 0.758488
vt 0.435956 0.633315
vt 0.436867 0.631906
vt 0.246233 0.205310
vt 0.247641 0.205269
vt 0.247986 0.204555
vt 0.245361 0.202105
vt 0.173485 0.908017
vt 0.176116 0.908026
vt 0.173080 0.905608
vt 0.777067 0.378536
vt 0.780943 0.374431
vt 0.782755 0.351457
vt 0.755256 0.946223
vt 0.753600 0.945276
vt 0.751911 0.946109
vt 0.765188 0.351256
vt 0.765076 0.351288
vt 0.764994 0.352912
vt 0.057628 0.804462
vt 0.059244 0.803946
vt 0.056342 0.802337
vt 0.064282 0.635788
vt 0.064795 0.634612
vt 0.063910 0.634181
vt 0.055366 0.807842
vt 0.057896 0.809826
vt 0.057106 0.808456
vt 0.089217 0.756162
vt 0.088875 0.756008
vt 0.088810 0.756593
vt 0.104634 0.764239
vt 0.104703 0.763995
vt 0.100907 0.762589
vt 0.765203 0.356147
vt 0.766958 0.355935
vt 0.765417 0.353940
vt 0.433890 0.626454
vt 0.428163 0.615989
vt 0.424391 0.615798
vt 0.425222 0.618544
vt 0.669854 0.038887
vt 0.672045 0.038172
vt 0.671609 0.034495
vt 0.680501 0.319974
vt 0.603170 0.238819
vt 0.602126 0.239051
vt 0.602632 0.240499
vt 0.433322 0.657016
vt 0.433947 0.656640
vt 0.434219 0.654810
vt 0.431547 0.656026
vt 0.139996 0.880680
vt 0.140134 0.879698
vt 0.136856 0.879284
vt 0.788794 0.373343
vt 0.789905 0.377492
vt 0.795418 0.377026
vt 0.770731 0.369147
vt 0.772399 0.374010
vt 0.770411 0.372362
vt 0.579154 0.788785
vt 0.772493 0.368978
vt 0.664341 0.299105
vt 0.786896 0.345307
vt 0.785840 0.345267
vt 0.783912 0.382975
vt 0.786431 0.374460
vt 0.786587 0.370625
vt 0.169780 0.225095
vt 0.169015 0.225542
vt 0.170515 0.226438
vt 0.789307 0.357956
vt 0.790024 0.361179
vt 0.235907 0.206294
vt 0.073476 0.750280
vt 0.069249 0.748676
vt 0.619254 0.517267
vt 0.620430 0.520149
vt 0.621172 0.520885
vt 0.620675 0.518126
vt 0.793440 0.358427
vt 0.869876 0.885428
vt 0.870042 0.887736
vt 0.871113 0.885568
vt 0.657926 0.016458
vt 0.662097 0.018335
vt 0.245205 0.205405
vt 0.443229 0.615307
vt 0.439846 0.613859
vt 0.775618 0.362100
vt 0.249016 0.202373
vt 0.492715 0.587635
vt 0.490698 0.587285
vt 0.492010 0.588076
vt 0.665947 0.030537
vt 0.666206 0.025447
vt 0.668246 0.028633
vt 0.088470 0.755906
vt 0.669114 0.034074
vt 0.431742 0.622470
vt 0.437047 0.653083
vt 0.434919 0.652874
vt 0.671393 0.032808
vt 0.226184 0.202586
vt 0.227117 0.198588
vt 0.671368 0.043015
vt 0.913315 0.079255
vt 0.913937 0.078032
vt 0.912462 0.078523
vt 0.912705 0.920178
vt 0.914264 0.919592
vt 0.915251 0.918928
vt 0.530585 0.971406
vt 0.536422 0.972796
vt 0.534599 0.968818
vt 0.080511 0.753989
vt 0.079934 0.756293
vt 0.793220 0.354560
vt 0.323568 0.118310
vt 0.324931 0.119365
vt 0.325070 0.117769
vt 0.964115 0.658035
vt 0.964446 0.656744
vt 0.962897 0.656892
vt 0.652500 0.029749
vt 0.022490 0.251871
vt 0.022423 0.253504
vt 0.023672 0.254226
vt 0.062963 0.965262
vt 0.064197 0.965307
vt 0.063461 0.964229
vt 0.796074 0.366463
vt 0.793418 0.367963
vt 0.798293 0.373743
vt 0.778208 0.344062
vt 0.776683 0.344288
vt 0.778099 0.345463
vt 0.768222 0.367765
vt 0.768242 0.369730
vt 0.775700 0.376195
vt 0.663916 0.022777
vt 0.115544 0.050487
vt 0.115989 0.052579
vt 0.116642 0.051627
vt 0.660209 0.017049
vt 0.094321 0.084402
vt 0.093396 0.083903
vt 0.093271 0.083945
vt 0.532969 0.968200
vt 0.664098 0.303926
vt 0.885495 0.969118
vt 0.887093 0.969611
vt 0.887403 0.967851
vt 0.964175 0.386685
vt 0.963460 0.387394
vt 0.964115 0.388403
vt 0.669277 0.030753
vt 0.246564 0.091295
vt 0.246620 0.091248
vt 0.245242 0.090775
vt 0.243446 0.091810
vt 0.685047 0.321597
vt 0.075809 0.755243
vt 0.077823 0.755464
vt 0.788803 0.371692
vt 0.960573 0.637972
vt 0.960274 0.639342
vt 0.962112 0.638198
vt 0.918152 0.927049
vt 0.918658 0.923722
vt 0.916672 0.924559
vt 0.089068 0.759379
vt 0.215256 0.271397
vt 0.216748 0.271428
vt 0.215455 0.270227
vt 0.075119 0.751211
vt 0.761680 0.043697
vt 0.761936 0.041975
vt 0.761403 0.042456
vt 0.761358 0.043355
vt 0.080293 0.753816
vt 0.077920 0.752747
vt 0.225300 0.207375
vt 0.225278 0.207502
vt 0.225314 0.207525
vt 0.094679 0.760769
vt 0.100267 0.758914
vt 0.096519 0.757966
vt 0.232777 0.206006
vt 0.063229 0.653112
vt 0.063539 0.654058
vt 0.065438 0.654315
vt 0.069038 0.748590
vt 0.068864 0.748546
vt 0.249290 0.205456
vt 0.251454 0.205545
vt 0.343451 0.196551
vt 0.343142 0.196911
vt 0.344191 0.196937
vt 0.255095 0.205899
vt 0.255835 0.204418
vt 0.103300 0.759845
vt 0.705546 0.895957
vt 0.705384 0.896178
vt 0.704486 0.898517
vt 0.704410 0.899737
vt 0.068647 0.748430
vt 0.093861 0.757144
vt 0.229935 0.206689
vt 0.231731 0.206207
vt 0.501936 0.765962
vt 0.502962 0.766509
vt 0.501121 0.766453
vt 0.693890 0.344784
vt 0.690725 0.344871
vt 0.691717 0.341741
vt 0.655348 0.026800
vt 0.658118 0.023317
vt 0.659240 0.028919
vt 0.431451 0.635832
vt 0.428935 0.630725
vt 0.432098 0.629574
vt 0.785956 0.350061
vt 0.787272 0.348361
vt 0.790764 0.351218
vt 0.232868 0.246783
vt 0.232546 0.245589
vt 0.234206 0.246741
vt 0.785087 0.364396
vt 0.784913 0.360341
vt 0.786665 0.361278
vt 0.780344 0.380457
vt 0.778018 0.380712
vt 0.782354 0.377709
vt 0.656368 0.035458
vt 0.653234 0.034724
vt 0.660539 0.049543
vt 0.663985 0.044813
vt 0.667336 0.047780
vt 0.668512 0.047323
vt 0.668492 0.044425
vt 0.671639 0.046672
vt 0.779042 0.370048
vt 0.777145 0.365932
vt 0.781493 0.366215
vt 0.654816 0.022360
vt 0.662077 0.025217
vt 0.438978 0.617124
vt 0.436345 0.616744
vt 0.435004 0.613884
vt 0.272483 0.955296
vt 0.271776 0.957333
vt 0.271129 0.954622
vt 0.784430 0.354657
vt 0.429833 0.625218
vt 0.428150 0.626523
vt 0.429682 0.622944
vt 0.666580 0.038346
vt 0.782020 0.343176
vt 0.780730 0.346307
vt 0.779227 0.343800
vt 0.434514 0.618313
vt 0.433434 0.615047
vt 0.112646 0.163805
vt 0.111083 0.163341
vt 0.113108 0.162800
vt 0.682457 0.320366
vt 0.680011 0.318537
vt 0.683812 0.316276
vt 0.573493 0.787054
vt 0.576072 0.786414
vt 0.576888 0.787881
vt 0.660392 0.049584
vt 0.656051 0.050179
vt 0.653933 0.047205
vt 0.771875 0.359016
vt 0.767707 0.352084
vt 0.772900 0.352608
vt 0.272239 0.494717
vt 0.271127 0.494801
vt 0.272241 0.493593
vt 0.783393 0.363351
vt 0.105145 0.762967
vt 0.104675 0.762547
vt 0.105548 0.762639
vt 0.945449 0.535559
vt 0.946842 0.534776
vt 0.946671 0.535160
vt 0.658088 0.040869
vt 0.655649 0.045143
vt 0.653136 0.038962
vt 0.233203 0.200785
vt 0.229812 0.199271
vt 0.231782 0.198369
vt 0.233022 0.198640
vt 0.793755 0.380292
vt 0.793259 0.379562
vt 0.794477 0.380046
vt 0.663700 0.892131
vt 0.663719 0.892387
vt 0.663364 0.896647
vt 0.662383 0.897645
vt 0.070264 0.752608
vt 0.068907 0.748848
vt 0.072985 0.751893
vt 0.661044 0.298497
vt 0.665445 0.302286
vt 0.660317 0.301029
vt 0.778487 0.359476
vt 0.778656 0.353987
vt 0.234920 0.202860
vt 0.230839 0.203003
vt 0.459069 0.074452
vt 0.457693 0.074727
vt 0.458061 0.072887
vt 0.456288 0.052372
vt 0.454739 0.052024
vt 0.242428 0.202241
vt 0.775973 0.368749
vt 0.775618 0.373496
vt 0.659934 0.036835
vt 0.684577 0.319422
vt 0.085496 0.758488
vt 0.436867 0.631906
vt 0.435956 0.633315
vt 0.245361 0.202105
vt 0.247986 0.204555
vt 0.173485 0.908017
vt 0.173080 0.905608
vt 0.176116 0.908026
vt 0.777067 0.378536
vt 0.780943 0.374431
vt 0.782755 0.351457
vt 0.755256 0.946223
vt 0.751911 0.946109
vt 0.753600 0.945276
vt 0.765075 0.351319
vt 0.765244 0.351274
vt 0.764994 0.352912
vt 0.057628 0.804462
vt 0.056342 0.802337
vt 0.059244 0.803946
vt 0.064282 0.635788
vt 0.063910 0.634181
vt 0.064795 0.634612
vt 0.055366 0.807842
vt 0.057106 0.808456
vt 0.057896 0.809826
vt 0.088810 0.756593
vt 0.104701 0.763891
vt 0.104600 0.764224
vt 0.100907 0.762589
vt 0.765203 0.356147
vt 0.766958 0.355935
vt 0.765417 0.353940
vt 0.433890 0.626454
vt 0.428163 0.615989
vt 0.425222 0.618544
vt 0.424391 0.615798
vt 0.669854 0.038887
vt 0.671609 0.034495
vt 0.672045 0.038172
vt 0.680501 0.319974
vt 0.603170 0.238819
vt 0.602632 0.240499
vt 0.602126 0.239051
vt 0.431547 0.656026
vt 0.434219 0.654810
vt 0.139996 0.880680
vt 0.136856 0.879284
vt 0.140134 0.879698
vt 0.789905 0.377492
vt 0.788794 0.373343
vt 0.795418 0.377026
vt 0.770731 0.369147
vt 0.772399 0.374010
vt 0.770411 0.372362
vt 0.579154 0.788785
vt 0.772493 0.368978
vt 0.664341 0.299105
vt 0.785840 0.345267
vt 0.786896 0.345307
vt 0.783912 0.382975
vt 0.786431 0.374460
vt 0.786587 0.370625
vt 0.169780 0.225095
vt 0.170515 0.226438
vt 0.169015 0.225542
vt 0.789307 0.357956
vt 0.790024 0.361179
vt 0.620340 0.520060
vt 0.619272 0.517278
vt 0.620675 0.518126
vt 0.621172 0.520885
vt 0.793440 0.358427
vt 0.869876 0.885428
vt 0.871113 0.885568
vt 0.870042 0.887736
vt 0.657926 0.016458
vt 0.662097 0.018335
vt 0.443229 0.615307
vt 0.439846 0.613859
vt 0.775618 0.362100
vt 0.249016 0.202373
vt 0.492674 0.587627
vt 0.491976 0.588055
vt 0.490698 0.587285
vt 0.666206 0.025447
vt 0.665947 0.030537
vt 0.668246 0.028633
vt 0.669114 0.034074
vt 0.431742 0.622470
vt 0.437047 0.653083
vt 0.434919 0.652874
vt 0.671393 0.032808
vt 0.226185 0.202584
vt 0.227113 0.198587
vt 0.671368 0.043015
vt 0.913315 0.079255
vt 0.912462 0.078523
vt 0.913937 0.078032
vt 0.912705 0.920178
vt 0.915251 0.918928
vt 0.914264 0.919592
vt 0.530585 0.971406
vt 0.534599 0.968818
vt 0.536422 0.972796
vt 0.079934 0.756293
vt 0.793220 0.354560
vt 0.323568 0.118310
vt 0.325070 0.117769
vt 0.324931 0.119365
vt 0.964115 0.658035
vt 0.962897 0.656892
vt 0.964446 0.656744
vt 0.652500 0.029749
vt 0.022490 0.251871
vt 0.023672 0.254226
vt 0.022423 0.253504
vt 0.062963 0.965262
vt 0.063461 0.964229
vt 0.064197 0.965307
vt 0.796074 0.366463
vt 0.798293 0.373743
vt 0.793418 0.367963
vt 0.778209 0.344044
vt 0.778099 0.345463
vt 0.776687 0.344292
vt 0.768222 0.367765
vt 0.768242 0.369730
vt 0.775700 0.376195
vt 0.663916 0.022777
vt 0.115544 0.050487
vt 0.116642 0.051627
vt 0.115989 0.052579
vt 0.660209 0.017049
vt 0.094246 0.084369
vt 0.093271 0.083945
vt 0.093395 0.083903
vt 0.532969 0.968200
vt 0.664098 0.303926
vt 0.885495 0.969118
vt 0.887403 0.967851
vt 0.887093 0.969611
vt 0.964175 0.386692
vt 0.964115 0.388403
vt 0.963460 0.387395
vt 0.669277 0.030753
vt 0.246584 0.091236
vt 0.246504 0.091305
vt 0.243446 0.091810
vt 0.245242 0.090775
vt 0.685047 0.321597
vt 0.075809 0.755243
vt 0.077823 0.755464
vt 0.788803 0.371692
vt 0.960573 0.637972
vt 0.962112 0.638198
vt 0.960274 0.639342
vt 0.918152 0.927049
vt 0.916672 0.924559
vt 0.918658 0.923722
vt 0.089068 0.759379
vt 0.215256 0.271397
vt 0.215455 0.270227
vt 0.216748 0.271428
vt 0.761680 0.043697
vt 0.761936 0.041975
vt 0.225300 0.207377
vt 0.094679 0.760769
vt 0.063229 0.653112
vt 0.343451 0.196551
vt 0.255835 0.204418
vt 0.705546 0.895957
vt 0.704410 0.899737
vt 0.104840 0.761655
vt 0.106021 0.762282
vt 0.798782 0.379017
vt 0.799712 0.378839
vt 0.799833 0.378761
vt 0.987211 0.807074
vt 0.988941 0.808075
vt 0.988641 0.810270
vt 0.988521 0.810289
vt 0.018619 0.174883
vt 0.017629 0.175225
vt 0.017232 0.175245
vt 0.016741 0.174598
vt 0.792641 0.380707
vt 0.671873 0.046621
vt 0.787648 0.383562
vt 0.786643 0.385127
vt 0.783785 0.384231
vt 0.787861 0.384697
vt 0.259169 0.204092
vt 0.261329 0.204026
vt 0.261910 0.206244
vt 0.261766 0.206181
vt 0.798982 0.378997
vt 0.259169 0.204092
vt 0.261332 0.204026
vt 0.799768 0.378862
vt 0.799847 0.378808
vt 0.987211 0.807074
vt 0.988535 0.810323
vt 0.988637 0.810303
vt 0.988941 0.808075
vt 0.018619 0.174883
vt 0.016741 0.174598
vt 0.017225 0.175237
vt 0.017650 0.175218
vt 0.792708 0.380583
vt 0.671879 0.046660
vt 0.783781 0.384272
vt 0.786638 0.385135
vt 0.787648 0.383562
vt 0.787864 0.384712
vt 0.229634 0.206709
vt 0.225686 0.206370
vt 0.693702 0.342272
vt 0.694522 0.343695
vt 0.067551 0.750785
vt 0.067565 0.748935
vt 0.068348 0.748341
vt 0.187516 0.875823
vt 0.187114 0.871477
vt 0.188172 0.874601
vt 0.086052 0.803876
vt 0.083680 0.804559
vt 0.083341 0.804495
vt 0.082877 0.802980
vt 0.086186 0.803816
vt 0.409058 0.322904
vt 0.410959 0.325996
vt 0.408760 0.325188
vt 0.497332 0.077857
vt 0.498345 0.078854
vt 0.498414 0.078992
vt 0.498429 0.080500
vt 0.067509 0.752780
vt 0.408240 0.322976
vt 0.408583 0.325069
vt 0.656721 0.017202
vt 0.655796 0.014654
vt 0.656357 0.014449
vt 0.657108 0.014380
vt 0.619344 0.123731
vt 0.620383 0.121931
vt 0.620554 0.122520
vt 0.620180 0.123118
vt 0.225681 0.206369
vt 0.694524 0.343692
vt 0.693710 0.342274
vt 0.067549 0.748936
vt 0.067540 0.750778
vt 0.187516 0.875823
vt 0.188173 0.874599
vt 0.187099 0.871317
vt 0.082877 0.802980
vt 0.083342 0.804497
vt 0.083677 0.804560
vt 0.409058 0.322904
vt 0.408760 0.325193
vt 0.410961 0.325999
vt 0.497332 0.077857
vt 0.498429 0.080500
vt 0.498413 0.078969
vt 0.498369 0.078877
vt 0.067530 0.752779
vt 0.408240 0.322976
vt 0.408583 0.325070
vt 0.656346 0.014436
vt 0.655797 0.014659
vt 0.656721 0.017202
vt 0.657091 0.014336
vt 0.619344 0.123731
vt 0.620174 0.123123
vt 0.620552 0.122514
vt 0.620383 0.121931
vn 0.9892 -0.1043 0.1030
vn 0.9946 -0.0972 0.0377
vn 0.9963 -0.0746 0.0417
vn 0.9483 0.1555 0.2767
vn 0.9432 0.1452 0.2989
vn 0.9503 0.1188 0.2877
vn 0.3276 -0.0141 -0.9447
vn 0.3124 -0.0248 -0.9496
vn 0.3075 -0.0051 -0.9515
vn 0.6521 -0.1373 0.7456
vn 0.6430 -0.1271 0.7553
vn 0.6364 -0.1399 0.7586
vn 0.4055 -0.0945 0.9092
vn 0.4301 -0.1069 0.8964
vn 0.4122 -0.0693 0.9085
vn 0.8278 0.3805 -0.4124
vn 0.8302 0.4010 -0.3873
vn 0.8467 0.3782 -0.3741
vn 0.6489 -0.0027 0.7609
vn 0.6659 0.0028 0.7460
vn 0.6477 0.0211 0.7616
vn 0.8917 0.2404 0.3836
vn 0.8930 0.2547 0.3710
vn 0.8799 0.2558 0.4005
vn 0.5266 0.0248 -0.8497
vn 0.5423 0.0102 -0.8401
vn 0.5298 0.0021 -0.8481
vn 0.5967 -0.0913 -0.7972
vn 0.5819 -0.0839 -0.8090
vn 0.5829 -0.0794 -0.8087
vn 0.8419 0.0410 -0.5380
vn 0.8286 0.0349 -0.5588
vn 0.8380 0.0669 -0.5416
vn 0.8320 -0.1691 0.5284
vn 0.8399 -0.1525 0.5209
vn 0.8297 -0.1511 0.5373
vn 0.1753 -0.2517 -0.9518
vn 0.1559 -0.2449 -0.9569
vn 0.1743 -0.2335 -0.9566
vn 0.2380 -0.0018 -0.9713
vn 0.2378 -0.0237 -0.9710
vn 0.2201 -0.0130 -0.9754
vn 0.3466 -0.0483 -0.9368
vn 0.3314 -0.0403 -0.9426
vn 0.3432 -0.0273 -0.9389
vn 0.8184 -0.2113 0.5344
vn 0.7757 -0.2309 0.5874
vn 0.8172 -0.2371 0.5253
vn 0.8687 -0.1387 0.4755
vn 0.8625 -0.1642 0.4787
vn 0.8734 -0.1555 0.4615
vn 0.4654 0.0636 0.8828
vn 0.4916 0.0667 0.8682
vn 0.4707 0.0774 0.8789
vn 0.6889 -0.3768 0.6192
vn 0.6746 -0.3825 0.6314
vn 0.6865 -0.3934 0.6114
vn 0.5164 0.1157 -0.8485
vn 0.5077 0.0967 -0.8561
vn 0.5089 0.1242 -0.8518
vn 0.4251 0.1728 0.8885
vn 0.3987 0.1836 0.8985
vn 0.4091 0.1508 0.9000
vn 0.6187 -0.4365 0.6532
vn 0.6141 -0.5047 0.6068
vn 0.6409 -0.4808 0.5984
vn 0.8380 -0.1324 0.5293
vn 0.7948 -0.1174 0.5955
vn 0.8299 -0.1475 0.5381
vn 0.9061 -0.0554 0.4194
vn 0.9200 -0.0459 0.3892
vn 0.9107 -0.0304 0.4120
vn 0.9099 -0.1592 0.3830
vn 0.9200 -0.1303 0.3696
vn 0.9037 -0.1404 0.4045
vn 0.9366 -0.3111 0.1616
vn 0.9449 -0.2908 0.1503
vn 0.9388 -0.2952 0.1774
vn 0.3179 -0.0919 -0.9436
vn 0.3476 -0.0710 -0.9350
vn 0.3391 -0.1027 -0.9351
vn 0.9358 -0.2445 0.2541
vn 0.9435 -0.2282 0.2402
vn 0.9383 -0.2215 0.2656
vn 0.8950 -0.2636 0.3599
vn 0.8999 -0.2371 0.3660
vn 0.8926 -0.2515 0.3741
vn 0.8071 -0.0396 0.5891
vn 0.8112 -0.0190 0.5844
vn 0.8004 -0.0340 0.5985
vn -0.1056 -0.3929 0.9135
vn -0.1184 -0.3744 0.9197
vn -0.1558 -0.4045 0.9012
vn 0.9079 -0.3428 0.2413
vn 0.9092 -0.3471 0.2300
vn 0.9130 -0.3348 0.2332
vn 0.5509 0.0417 -0.8335
vn 0.5725 0.0650 -0.8173
vn 0.5688 0.0305 -0.8219
vn 0.0880 -0.1616 -0.9829
vn 0.0431 -0.1376 -0.9895
vn 0.0917 -0.1377 -0.9862
vn 0.0885 -0.1591 -0.9833
vn 0.0676 -0.1089 -0.9917
vn 0.0992 -0.1471 -0.9841
vn 0.6726 -0.0975 0.7335
vn 0.6969 -0.0967 0.7107
vn 0.6693 -0.0660 0.7401
vn 0.9867 -0.0526 0.1538
vn 0.9845 -0.0803 0.1559
vn 0.9840 -0.1024 0.1456
vn 0.9872 -0.0871 0.1334
vn 0.0577 -0.0589 0.9966
vn 0.0646 -0.0698 0.9955
vn 0.0650 -0.0586 0.9962
vn 0.4752 0.0895 0.8753
vn 0.4767 0.0658 0.8766
vn 0.5009 0.0674 0.8628
vn 0.7771 0.0027 0.6293
vn 0.7678 0.0165 0.6405
vn 0.7673 -0.0091 0.6413
vn 0.0333 -0.3735 -0.9270
vn 0.0432 -0.3661 -0.9296
vn 0.0486 -0.3832 -0.9224
vn 0.8937 0.0697 0.4431
vn 0.8883 0.0542 0.4561
vn 0.9010 0.0613 0.4294
vn 0.0872 -0.7150 0.6937
vn 0.6215 -0.3832 0.6833
vn 0.0833 -0.2849 0.9549
vn 0.0706 -0.3360 0.9392
vn 0.4886 -0.2739 -0.8284
vn -0.1733 -0.2752 -0.9456
vn -0.1311 0.4000 -0.9071
vn 0.8694 -0.1295 0.4768
vn 0.8628 -0.1403 0.4857
vn 0.8700 -0.1536 0.4685
vn 0.7260 -0.3454 0.5947
vn 0.7144 -0.3689 0.5946
vn 0.7350 -0.3553 0.5775
vn 0.4124 -0.0029 -0.9110
vn 0.4108 -0.0101 -0.9117
vn 0.4004 -0.0077 -0.9163
vn 0.7586 -0.0138 0.6515
vn 0.7517 -0.0478 0.6578
vn 0.7639 -0.0391 0.6442
vn -0.0492 -0.5192 0.8532
vn 0.3206 0.4618 0.8270
vn -0.0778 0.0624 0.9950
vn 0.7139 -0.0617 0.6975
vn 0.7272 -0.0523 0.6844
vn 0.7182 -0.0359 0.6949
vn -0.0992 0.5949 -0.7977
vn 0.5226 0.1082 -0.8457
vn -0.1210 -0.0597 -0.9909
vn -0.1330 -0.0390 -0.9904
vn 0.7126 -0.0389 0.7005
vn 0.7106 -0.0165 0.7034
vn 0.7033 -0.0304 0.7102
vn 0.8191 0.1415 0.5559
vn 0.8328 0.1327 0.5374
vn 0.8355 0.1462 0.5296
vn 0.5645 -0.0572 0.8235
vn 0.5742 -0.0482 0.8173
vn 0.5634 -0.0442 0.8250
vn 0.8677 0.0546 0.4940
vn 0.8651 0.0723 0.4963
vn 0.8595 0.0513 0.5085
vn 0.9333 -0.1532 0.3247
vn 0.9118 -0.1367 0.3871
vn 0.8942 -0.2215 0.3890
vn 0.9241 -0.1946 0.3288
vn 0.9595 -0.1382 0.2453
vn 0.9600 -0.1264 0.2498
vn 0.9548 -0.1395 0.2625
vn 0.9471 -0.2883 0.1410
vn 0.9521 -0.2786 0.1262
vn 0.9548 -0.2641 0.1366
vn 0.5618 -0.1473 0.8140
vn 0.6024 -0.1615 0.7817
vn 0.5725 -0.1165 0.8115
vn -0.1418 -0.5476 0.8246
vn 0.3369 0.1993 0.9202
vn -0.1871 0.0136 0.9822
vn 0.1519 -0.1792 0.9720
vn 0.1551 -0.1876 0.9699
vn 0.1704 -0.1837 0.9681
vn 0.1574 -0.1614 0.9742
vn 0.7951 -0.2030 0.5715
vn 0.8169 -0.2146 0.5353
vn 0.8241 -0.1919 0.5330
vn 0.8422 -0.4573 0.2856
vn 0.8324 -0.4260 0.3545
vn 0.8122 -0.4899 0.3167
vn 0.7848 -0.0608 0.6167
vn 0.7810 -0.0774 0.6197
vn 0.7916 -0.0680 0.6073
vn 0.8616 0.3158 0.3975
vn 0.8748 0.2347 0.4238
vn 0.8884 0.2570 0.3803
vn 0.9394 0.1771 -0.2934
vn 0.9345 0.1463 -0.3245
vn 0.9170 0.2278 -0.3274
vn 0.5475 0.0073 -0.8367
vn 0.5522 -0.0298 -0.8332
vn 0.5342 -0.0076 -0.8454
vn 0.3794 0.1016 -0.9197
vn 0.3884 0.0578 -0.9197
vn 0.3701 0.0605 -0.9270
vn 0.8929 -0.1876 0.4093
vn 0.8886 -0.1624 0.4290
vn 0.8841 -0.1856 0.4288
vn 0.7652 0.0519 0.6417
vn 0.7701 0.0341 0.6370
vn 0.7817 0.0412 0.6222
vn 0.7686 0.0307 0.6390
vn 0.7571 0.0232 0.6528
vn 0.7688 0.0078 0.6395
vn -0.0234 0.3593 -0.9329
vn 0.5924 -0.0935 -0.8002
vn -0.0339 -0.3911 -0.9197
vn -0.0347 -0.3775 -0.9254
vn 0.5142 0.1254 -0.8485
vn 0.5204 0.0961 -0.8485
vn 0.5022 0.1134 -0.8573
vn 0.4109 -0.0959 0.9066
vn 0.3957 -0.0820 0.9147
vn 0.3934 -0.0974 0.9142
vn 0.7974 -0.0263 0.6028
vn 0.7830 0.0057 0.6220
vn 0.7766 -0.0202 0.6297
vn 0.5990 -0.1391 0.7886
vn 0.6085 -0.1115 0.7857
vn 0.5948 -0.1001 0.7976
vn 0.6763 -0.3156 0.6656
vn 0.6338 -0.3657 0.6816
vn 0.6834 -0.3553 0.6377
vn 0.4979 -0.3085 0.8105
vn 0.4692 -0.3352 0.8170
vn 0.4772 -0.3880 0.7885
vn 0.4976 0.0345 -0.8667
vn 0.4885 0.0435 -0.8715
vn 0.4971 0.0539 -0.8660
vn 0.9866 -0.0618 0.1508
vn 0.9826 -0.0723 0.1711
vn 0.9868 -0.0804 0.1409
vn 0.6549 -0.3756 0.6558
vn 0.6633 -0.3495 0.6617
vn 0.6394 -0.3443 0.6875
vn 0.3889 -0.0753 0.9182
vn 0.3844 -0.0516 0.9217
vn 0.3630 -0.0464 0.9306
vn 0.1137 -0.0257 0.9932
vn 0.1342 -0.0074 0.9909
vn 0.1256 0.0001 0.9921
vn 0.9638 0.0495 0.2621
vn 0.9691 0.0430 0.2429
vn 0.9677 0.0548 0.2461
vn 0.7602 -0.1705 0.6269
vn 0.7598 -0.1496 0.6328
vn 0.7453 -0.1567 0.6480
vn 0.8186 0.1515 0.5541
vn 0.8212 0.1337 0.5548
vn 0.8322 0.1377 0.5372
vn 0.4486 -0.0112 -0.8936
vn 0.4387 -0.0166 -0.8985
vn 0.4378 -0.0088 -0.8990
vn 0.6444 0.0597 0.7624
vn 0.6625 0.0642 0.7463
vn 0.6515 0.0775 0.7546
vn 0.7225 -0.0477 0.6898
vn 0.7030 -0.0568 0.7089
vn 0.7236 -0.0674 0.6869
vn 0.6522 0.0305 0.7575
vn 0.6610 0.0052 0.7503
vn 0.6725 0.0299 0.7395
vn -0.1172 0.3720 -0.9208
vn 0.4823 -0.0776 -0.8726
vn -0.1517 -0.3135 -0.9374
vn -0.1540 -0.2971 -0.9423
vn -0.0589 -0.6549 0.7534
vn 0.4967 -0.3316 0.8021
vn -0.0823 -0.0248 0.9963
vn -0.0865 -0.0340 0.9957
vn 0.7523 -0.1578 0.6396
vn 0.7647 -0.1727 0.6208
vn 0.7758 -0.1413 0.6149
vn 0.7540 -0.1383 0.6422
vn 0.5467 -0.0096 0.8373
vn 0.5436 -0.0344 0.8386
vn 0.5608 -0.0262 0.8275
vn 0.7109 -0.2702 0.6493
vn 0.7233 -0.2862 0.6285
vn 0.7304 -0.2619 0.6308
vn 0.8327 0.3790 0.4036
vn 0.8401 0.3421 0.4210
vn 0.8443 0.3608 0.3963
vn 0.3017 -0.0446 -0.9524
vn 0.3010 -0.0964 -0.9487
vn 0.2570 -0.1036 -0.9609
vn 0.3222 -0.5962 -0.7354
vn -0.1675 -0.1849 -0.9684
vn -0.1277 0.4672 -0.8749
vn 0.8804 -0.2614 0.3956
vn 0.8753 -0.2734 0.3989
vn 0.8805 -0.2770 0.3848
vn 0.9035 -0.0274 0.4277
vn 0.9138 -0.0427 0.4039
vn 0.9152 -0.0252 0.4023
vn -0.2408 -0.1707 -0.9554
vn -0.2703 -0.1894 -0.9440
vn -0.2589 -0.1583 -0.9528
vn 0.9869 0.0867 0.1363
vn 0.9911 0.0165 0.1321
vn 0.9947 0.0695 0.0764
vn 0.4131 0.1219 -0.9025
vn 0.4068 0.1010 -0.9079
vn 0.3469 0.0964 -0.9329
vn 0.5032 0.2577 -0.8248
vn 0.5365 0.1919 -0.8218
vn 0.5098 0.1850 -0.8402
vn 0.4940 -0.0908 0.8647
vn 0.4992 -0.1044 0.8602
vn 0.5169 -0.0775 0.8525
vn 0.2186 0.4393 0.8713
vn -0.1979 0.0389 0.9795
vn -0.1692 -0.4923 0.8538
vn 0.4217 0.1708 -0.8905
vn 0.4463 0.1480 -0.8826
vn 0.4269 0.1542 -0.8911
vn 0.5166 0.1016 -0.8502
vn 0.4977 0.1015 -0.8614
vn 0.5130 0.1207 -0.8499
vn 0.8019 -0.0843 0.5915
vn 0.8013 -0.0661 0.5946
vn 0.7905 -0.0773 0.6075
vn 0.1732 -0.2903 -0.9412
vn 0.1557 -0.2844 -0.9460
vn 0.1728 -0.2723 -0.9466
vn 0.8709 0.0901 -0.4832
vn 0.9001 0.0925 -0.4257
vn 0.8994 0.0643 -0.4324
vn 0.8165 0.3753 -0.4388
vn 0.8089 0.4292 -0.4018
vn 0.8279 0.4097 -0.3830
vn -0.1982 -0.1193 -0.9729
vn -0.2191 -0.1447 -0.9649
vn -0.2394 -0.1042 -0.9653
vn 0.8790 0.3585 -0.3146
vn 0.8967 0.3472 -0.2745
vn 0.9036 0.3139 -0.2917
vn 0.8309 0.3473 0.4347
vn 0.8252 0.3854 0.4129
vn 0.8003 0.3973 0.4491
vn 0.9569 -0.1212 0.2641
vn 0.9547 -0.1423 0.2612
vn 0.9612 -0.1223 0.2473
vn 0.8488 -0.0560 0.5258
vn 0.8531 -0.0296 0.5210
vn 0.8435 -0.0400 0.5356
vn 0.0085 -0.5295 0.8483
vn 0.4619 0.1424 0.8754
vn -0.0271 0.0544 0.9982
vn -0.0025 0.0051 1.0000
vn 0.5581 -0.0053 0.8298
vn 0.5230 -0.0393 0.8514
vn 0.5370 -0.0576 0.8416
vn 0.1268 -0.2544 -0.9587
vn 0.1287 -0.2347 -0.9635
vn 0.1435 -0.2421 -0.9596
vn -0.1131 -0.2579 -0.9595
vn -0.1259 -0.2385 -0.9629
vn -0.1034 -0.2451 -0.9640
vn 0.8167 -0.1890 0.5453
vn 0.8359 -0.1688 0.5223
vn 0.8310 -0.1305 0.5408
vn 0.2260 -0.2082 -0.9516
vn 0.2143 -0.1868 -0.9587
vn 0.2308 -0.1902 -0.9542
vn 0.6964 0.2745 0.6631
vn 0.6979 0.2419 0.6741
vn 0.7204 0.2553 0.6449
vn 0.7950 0.0163 0.6064
vn 0.8015 0.0365 0.5969
vn 0.7794 0.0294 0.6259
vn 0.4285 -0.0689 0.9009
vn 0.4118 -0.0748 0.9082
vn 0.4239 -0.0927 0.9009
vn 0.7606 0.2116 0.6137
vn 0.7407 0.2179 0.6355
vn 0.7560 0.1887 0.6268
vn 0.4855 -0.0705 -0.8714
vn 0.4845 -0.0592 -0.8728
vn 0.5031 -0.0678 -0.8616
vn 0.8931 -0.1638 0.4190
vn 0.8810 -0.2466 0.4037
vn 0.9001 -0.2370 0.3655
vn 0.3472 0.1302 -0.9287
vn 0.3328 0.1230 -0.9350
vn 0.3353 0.1448 -0.9309
vn 0.3591 0.0850 -0.9294
vn 0.3511 0.0998 -0.9310
vn 0.3653 0.1018 -0.9253
vn 0.7411 0.0590 0.6688
vn 0.6986 0.0836 0.7106
vn 0.7327 0.0293 0.6799
vn 0.8452 -0.0052 0.5344
vn 0.8600 0.0041 0.5103
vn 0.8497 0.0272 0.5266
vn 0.7807 -0.5379 0.3181
vn 0.7570 -0.5432 0.3633
vn 0.7530 -0.5678 0.3325
vn 0.0919 -0.0908 -0.9916
vn 0.0979 -0.1434 -0.9848
vn 0.0676 -0.1420 -0.9876
vn 0.2825 -0.1033 -0.9537
vn 0.2628 -0.0633 -0.9628
vn 0.3023 -0.0869 -0.9492
vn 0.5081 0.1316 -0.8512
vn 0.5237 0.1145 -0.8442
vn 0.5129 0.1006 -0.8525
vn 0.7702 -0.3068 0.5592
vn 0.7390 -0.3904 0.5491
vn 0.7722 -0.3316 0.5419
vn 0.7993 -0.2129 0.5619
vn 0.8060 -0.2255 0.5473
vn 0.8100 -0.2080 0.5482
vn 0.6864 -0.4441 -0.5758
vn 0.7203 -0.4656 -0.5142
vn 0.6678 -0.5249 -0.5278
vn 0.3732 0.0890 -0.9235
vn 0.3625 0.0828 -0.9283
vn 0.3688 0.0999 -0.9241
vn 0.1887 -0.4278 0.8840
vn 0.2025 -0.4376 0.8760
vn 0.2087 -0.4203 0.8831
vn 0.7510 -0.2632 0.6055
vn 0.7447 -0.2826 0.6046
vn 0.7603 -0.2761 0.5879
vn 0.8945 0.0706 0.4414
vn 0.8941 0.0571 0.4442
vn 0.9024 0.0604 0.4266
vn 0.5168 -0.1741 0.8382
vn 0.5230 -0.1837 0.8323
vn 0.5387 -0.1591 0.8274
vn 0.4482 0.1046 -0.8878
vn 0.4444 0.1180 -0.8880
vn 0.4588 0.1120 -0.8815
vn 0.5522 -0.0601 0.8316
vn 0.5641 -0.0403 0.8247
vn 0.5422 -0.0479 0.8389
vn 0.3937 0.0213 0.9190
vn 0.4098 0.0207 0.9119
vn 0.4032 0.0437 0.9141
vn 0.8247 -0.2260 0.5184
vn 0.8375 -0.2372 0.4922
vn 0.8430 -0.2253 0.4884
vn 0.9853 0.1347 0.1046
vn 0.9814 0.1329 0.1389
vn 0.9834 0.1185 0.1373
vn 0.7926 0.2274 -0.5657
vn 0.8017 0.2552 -0.5405
vn 0.8124 0.2153 -0.5419
vn 0.5638 0.0398 -0.8249
vn 0.5895 0.0224 -0.8074
vn 0.5653 0.0205 -0.8246
vn 0.6817 -0.5533 -0.4787
vn 0.7110 -0.5450 -0.4443
vn 0.7002 -0.5834 -0.4116
vn 0.6335 -0.6216 -0.4609
vn 0.7627 -0.0397 0.6455
vn 0.7622 -0.0285 0.6468
vn 0.7492 -0.0314 0.6616
vn 0.1889 -0.2106 0.9592
vn 0.2146 -0.2359 0.9478
vn 0.2172 -0.2072 0.9539
vn 0.8365 -0.3900 0.3849
vn 0.8311 -0.3888 0.3975
vn 0.7924 -0.4352 0.4274
vn 0.6307 -0.1853 0.7536
vn 0.6300 -0.2093 0.7479
vn 0.6440 -0.1909 0.7409
vn 0.6093 -0.1001 0.7866
vn 0.5915 -0.1103 0.7988
vn 0.6069 -0.1155 0.7863
vn 0.8915 -0.1444 0.4295
vn 0.8917 -0.1571 0.4245
vn 0.9008 -0.1452 0.4093
vn 0.8645 -0.0449 0.5006
vn 0.8665 -0.0196 0.4989
vn 0.8578 -0.0341 0.5128
vn -0.0551 -0.0236 0.9982
vn -0.0437 -0.0123 0.9990
vn -0.0600 0.0031 0.9982
vn 0.5299 0.0857 -0.8437
vn 0.5091 0.1244 -0.8517
vn 0.5339 0.1110 -0.8382
vn 0.4139 0.1162 -0.9029
vn 0.4333 0.0831 -0.8974
vn 0.3951 0.0305 -0.9182
vn -0.1749 -0.1908 -0.9659
vn -0.1362 0.4667 -0.8739
vn 0.4521 -0.3772 -0.8083
vn -0.1825 -0.2060 -0.9614
vn -0.0384 -0.1696 0.9848
vn -0.0188 -0.7580 0.6519
vn 0.5849 0.0241 0.8108
vn 0.0256 -0.1915 0.9812
vn 0.0137 -0.2154 0.9764
vn 0.0282 -0.7854 0.6184
vn 0.5858 -0.3990 0.7055
vn 0.0718 -0.2999 0.9513
vn 0.0872 -0.7875 0.6101
vn 0.6894 -0.0965 0.7179
vn -0.2094 0.1696 -0.9630
vn -0.1671 0.7320 -0.6605
vn 0.4043 -0.0330 -0.9140
vn -0.1428 -0.1410 0.9797
vn -0.0946 -0.7750 0.6248
vn 0.4693 -0.3396 0.8151
vn -0.1166 -0.1746 -0.9777
vn -0.0834 0.5106 -0.8558
vn 0.5296 -0.3084 -0.7902
vn -0.1882 -0.0123 -0.9821
vn -0.1429 0.5853 -0.7981
vn 0.1404 -0.6471 -0.7493
vn -0.1118 0.0675 0.9914
vn -0.0781 -0.5981 0.7976
vn 0.5151 0.2675 0.8143
vn -0.1033 -0.0113 0.9946
vn -0.0719 -0.6546 0.7525
vn 0.5688 0.0628 0.8201
vn -0.2907 -0.0835 -0.9532
vn -0.2372 0.5064 -0.8290
vn 0.2424 -0.4024 -0.8828
vn -0.3139 -0.0885 -0.9453
vn -0.1695 0.0256 -0.9852
vn -0.1242 0.6616 -0.7395
vn 0.2401 -0.4359 -0.8674
vn -0.2306 -0.1467 -0.9619
vn -0.1735 0.4690 -0.8660
vn 0.4007 -0.3041 -0.8642
vn -0.2729 -0.0354 -0.9614
vn -0.2156 0.5361 -0.8161
vn 0.2940 0.2260 -0.9287
vn -0.2714 -0.0761 -0.9595
vn 0.0252 -0.0349 0.9991
vn 0.0176 -0.0577 0.9982
vn 0.0213 -0.6918 0.7217
vn 0.4088 -0.5788 0.7056
vn -0.0530 -0.2750 0.9600
vn -0.0305 -0.8226 0.5677
vn 0.5951 -0.3957 0.6995
vn -0.0576 -0.2561 0.9649
vn -0.1398 0.1486 0.9790
vn -0.1016 -0.5141 0.8517
vn 0.3233 0.5832 0.7452
vn -0.1258 -0.0964 0.9874
vn -0.0840 -0.6901 0.7188
vn 0.4608 0.1339 0.8774
vn -0.1715 0.0167 0.9850
vn -0.1201 -0.5768 0.8080
vn 0.3681 -0.1974 0.9086
vn -0.1639 0.0354 0.9858
vn -0.0519 -0.4332 -0.8998
vn -0.0387 0.3032 -0.9522
vn 0.6256 -0.5078 -0.5923
vn -0.0824 0.0163 0.9965
vn -0.0702 0.0029 0.9975
vn -0.0540 -0.5280 0.8475
vn 0.4927 0.2221 0.8414
vn -0.9930 -0.0982 0.0664
vn -0.9954 -0.0764 0.0585
vn -0.9943 -0.0925 0.0531
vn -0.9519 0.1431 0.2709
vn -0.9543 0.1109 0.2777
vn -0.9460 0.1329 0.2957
vn -0.3248 -0.0190 -0.9456
vn -0.3087 -0.0071 -0.9511
vn -0.3094 -0.0292 -0.9505
vn -0.6437 -0.1631 0.7477
vn -0.6289 -0.1667 0.7594
vn -0.6364 -0.1516 0.7563
vn -0.3966 -0.1134 0.9110
vn -0.4096 -0.0866 0.9082
vn -0.4195 -0.1254 0.8990
vn -0.8297 0.3665 -0.4210
vn -0.8459 0.3658 -0.3882
vn -0.8311 0.3921 -0.3944
vn -0.6387 -0.0028 0.7694
vn -0.6358 0.0197 0.7716
vn -0.6556 0.0113 0.7550
vn -0.8903 0.2482 0.3817
vn -0.8734 0.2697 0.4056
vn -0.8875 0.2636 0.3780
vn -0.5296 0.0211 -0.8480
vn -0.5292 -0.0003 -0.8485
vn -0.5453 0.0078 -0.8382
vn -0.5834 -0.0902 -0.8072
vn -0.5819 -0.0859 -0.8087
vn -0.5753 -0.0929 -0.8127
vn -0.8473 0.0182 -0.5308
vn -0.8423 0.0532 -0.5363
vn -0.8071 0.0173 -0.5901
vn -0.8303 -0.1798 0.5275
vn -0.8336 -0.1552 0.5301
vn -0.8391 -0.1657 0.5181
vn -0.1685 -0.2573 -0.9515
vn -0.1660 -0.2379 -0.9570
vn -0.1495 -0.2443 -0.9581
vn -0.2377 -0.0069 -0.9713
vn -0.2158 -0.0205 -0.9762
vn -0.2337 -0.0268 -0.9720
vn -0.3408 -0.0535 -0.9386
vn -0.3398 -0.0313 -0.9400
vn -0.3276 -0.0442 -0.9438
vn -0.8097 -0.2214 0.5434
vn -0.8130 -0.2378 0.5315
vn -0.7645 -0.2574 0.5911
vn -0.8659 -0.1546 0.4757
vn -0.8746 -0.1728 0.4530
vn -0.8649 -0.1748 0.4705
vn -0.4606 0.0528 0.8860
vn -0.4641 0.0649 0.8834
vn -0.4875 0.0530 0.8715
vn -0.5834 -0.5194 0.6244
vn -0.5797 -0.5345 0.6150
vn -0.5680 -0.5234 0.6352
vn -0.5152 0.1085 -0.8502
vn -0.5096 0.1191 -0.8521
vn -0.5013 0.0946 -0.8601
vn -0.4187 0.1762 0.8908
vn -0.4044 0.1460 0.9028
vn -0.3936 0.1701 0.9034
vn -0.5880 -0.4684 0.6594
vn -0.6219 -0.5020 0.6010
vn -0.5974 -0.5266 0.6048
vn -0.8271 -0.1307 0.5466
vn -0.8213 -0.1555 0.5489
vn -0.7830 -0.1375 0.6067
vn -0.9050 -0.0621 0.4209
vn -0.9102 -0.0435 0.4119
vn -0.9212 -0.0536 0.3853
vn -0.9080 -0.1798 0.3785
vn -0.9036 -0.1559 0.3990
vn -0.9178 -0.1472 0.3688
vn -0.9309 -0.3340 0.1480
vn -0.9333 -0.3200 0.1632
vn -0.9386 -0.3188 0.1316
vn -0.3158 -0.0985 -0.9437
vn -0.3450 -0.1043 -0.9328
vn -0.3430 -0.0740 -0.9364
vn -0.9319 -0.2558 0.2573
vn -0.9353 -0.2322 0.2671
vn -0.9404 -0.2365 0.2442
vn -0.8915 -0.2732 0.3613
vn -0.8886 -0.2659 0.3737
vn -0.8972 -0.2465 0.3663
vn -0.8110 -0.0504 0.5829
vn -0.8058 -0.0409 0.5908
vn -0.8152 -0.0279 0.5785
vn 0.1252 -0.3954 0.9099
vn 0.1230 -0.3750 0.9188
vn -0.4737 -0.3202 0.8204
vn -0.8986 -0.3636 0.2457
vn -0.9050 -0.3572 0.2308
vn -0.9004 -0.3679 0.2322
vn -0.5515 0.0406 -0.8332
vn -0.5615 0.0205 -0.8272
vn -0.5678 0.0629 -0.8208
vn -0.0784 -0.1639 -0.9834
vn -0.0846 -0.1429 -0.9861
vn -0.0324 -0.1407 -0.9895
vn -0.0748 -0.1581 -0.9846
vn -0.0908 -0.1442 -0.9854
vn -0.0583 -0.1101 -0.9922
vn -0.6659 -0.1135 0.7374
vn -0.6737 -0.0713 0.7356
vn -0.6983 -0.1051 0.7081
vn -0.9827 -0.0753 0.1694
vn -0.9862 -0.0858 0.1418
vn -0.9874 -0.0906 0.1296
vn -0.9846 -0.1091 0.1369
vn -0.0550 -0.0626 0.9965
vn -0.0634 -0.0599 0.9962
vn -0.0624 -0.0708 0.9955
vn -0.4651 0.0853 0.8811
vn -0.4932 0.0592 0.8679
vn -0.4701 0.0628 0.8804
vn -0.7797 -0.0077 0.6260
vn -0.7685 -0.0156 0.6396
vn -0.7706 0.0082 0.6373
vn -0.0296 -0.3777 -0.9254
vn -0.0446 -0.3838 -0.9223
vn -0.0422 -0.3676 -0.9290
vn -0.8976 0.0642 0.4361
vn -0.9033 0.0529 0.4256
vn -0.8919 0.0450 0.4499
vn -0.5331 -0.1571 0.8313
vn -0.0656 -0.3491 0.9348
vn -0.0721 -0.2913 0.9539
vn -0.0695 0.2849 0.9560
vn 0.1373 -0.8134 -0.5653
vn -0.4687 -0.0597 -0.8814
vn 0.1795 -0.2724 -0.9453
vn -0.8769 -0.1462 0.4578
vn -0.8724 -0.1635 0.4607
vn -0.8661 -0.1488 0.4771
vn -0.7186 -0.3614 0.5941
vn -0.7264 -0.3731 0.5772
vn -0.7080 -0.3872 0.5906
vn -0.4110 -0.0093 -0.9116
vn -0.3988 -0.0095 -0.9170
vn -0.4076 -0.0160 -0.9130
vn -0.7504 -0.0283 0.6604
vn -0.7593 -0.0521 0.6486
vn -0.7469 -0.0607 0.6622
vn -0.4845 0.2635 0.8342
vn 0.0814 0.0627 0.9947
vn 0.0540 0.6084 0.7918
vn -0.7162 -0.0736 0.6940
vn -0.7151 -0.0505 0.6972
vn -0.7296 -0.0723 0.6801
vn -0.4873 -0.2649 -0.8321
vn 0.1367 -0.0367 -0.9899
vn 0.1337 -0.0542 -0.9895
vn 0.0997 -0.6724 -0.7334
vn -0.7136 -0.0486 0.6989
vn -0.7053 -0.0377 0.7079
vn -0.7179 -0.0298 0.6955
vn -0.8230 0.1391 0.5508
vn -0.8357 0.1496 0.5284
vn -0.8364 0.1316 0.5320
vn -0.5598 -0.0768 0.8251
vn -0.5602 -0.0648 0.8258
vn -0.5710 -0.0672 0.8182
vn -0.8682 0.0494 0.4937
vn -0.8593 0.0563 0.5084
vn -0.8679 0.0684 0.4920
vn -0.9206 -0.1633 0.3548
vn -0.9226 -0.1880 0.3369
vn -0.9183 -0.2101 0.3356
vn -0.8877 -0.2238 0.4023
vn -0.9589 -0.1483 0.2418
vn -0.9550 -0.1469 0.2576
vn -0.9605 -0.1348 0.2433
vn -0.9438 -0.3069 0.1223
vn -0.9514 -0.2837 0.1200
vn -0.9480 -0.2998 0.1070
vn -0.5667 -0.1627 0.8077
vn -0.5784 -0.1306 0.8052
vn -0.6101 -0.1646 0.7750
vn -0.3595 -0.2026 0.9109
vn 0.1857 0.0141 0.9825
vn 0.1440 0.5428 0.8274
vn -0.1625 -0.1849 0.9692
vn -0.1432 -0.1861 0.9720
vn -0.1554 -0.1637 0.9742
vn -0.1686 -0.1814 0.9689
vn -0.7761 -0.2218 0.5903
vn -0.8079 -0.1962 0.5558
vn -0.8023 -0.2170 0.5560
vn -0.8250 -0.4972 0.2687
vn -0.7941 -0.5329 0.2921
vn -0.8356 -0.4488 0.3168
vn -0.7904 -0.0699 0.6086
vn -0.7949 -0.0799 0.6015
vn -0.7845 -0.0871 0.6140
vn -0.8557 0.3134 0.4119
vn -0.8865 0.2602 0.3827
vn -0.8782 0.2296 0.4196
vn -0.9399 0.1670 -0.2977
vn -0.9199 0.2253 -0.3210
vn -0.9287 0.1509 -0.3386
vn -0.5500 0.0031 -0.8352
vn -0.5375 -0.0071 -0.8433
vn -0.5598 -0.0311 -0.8280
vn -0.3756 0.0976 -0.9216
vn -0.3620 0.0739 -0.9292
vn -0.3893 0.0551 -0.9195
vn -0.8885 -0.2114 0.4073
vn -0.8796 -0.2080 0.4278
vn -0.8874 -0.1857 0.4219
vn -0.7693 0.0515 0.6368
vn -0.7840 0.0429 0.6193
vn -0.7712 0.0330 0.6357
vn -0.7715 0.0255 0.6357
vn -0.7734 0.0058 0.6339
vn -0.7591 0.0221 0.6506
vn -0.6311 -0.4775 -0.6113
vn 0.0386 -0.3751 -0.9262
vn 0.0408 -0.3916 -0.9192
vn 0.0294 -0.8920 -0.4512
vn -0.5044 0.1170 -0.8555
vn -0.4904 0.1142 -0.8640
vn -0.5063 0.0881 -0.8579
vn -0.4049 -0.1005 0.9088
vn -0.3891 -0.0978 0.9160
vn -0.3924 -0.0823 0.9161
vn -0.8006 -0.0343 0.5982
vn -0.7807 -0.0223 0.6245
vn -0.7891 0.0011 0.6142
vn -0.5883 -0.1443 0.7957
vn -0.5899 -0.1052 0.8006
vn -0.6023 -0.1183 0.7895
vn -0.6416 -0.3451 0.6850
vn -0.6508 -0.3822 0.6561
vn -0.6081 -0.4178 0.6751
vn -0.4799 -0.3331 0.8116
vn -0.4685 -0.4103 0.7824
vn -0.4508 -0.3613 0.8162
vn -0.4964 0.0272 -0.8677
vn -0.5012 0.0460 -0.8641
vn -0.4904 0.0390 -0.8706
vn -0.9871 -0.0801 0.1387
vn -0.9855 -0.1056 0.1330
vn -0.9833 -0.0936 0.1562
vn -0.6420 -0.3900 0.6601
vn -0.6241 -0.3608 0.6930
vn -0.6499 -0.3652 0.6666
vn -0.3751 -0.0826 0.9233
vn -0.3536 -0.0551 0.9338
vn -0.3743 -0.0547 0.9257
vn -0.1063 -0.0250 0.9940
vn -0.1209 -0.0035 0.9927
vn -0.1315 -0.0105 0.9913
vn -0.9643 0.0405 0.2617
vn -0.9678 0.0509 0.2464
vn -0.9686 0.0372 0.2460
vn -0.7573 -0.1865 0.6259
vn -0.7438 -0.1738 0.6454
vn -0.7578 -0.1627 0.6319
vn -0.8177 0.1465 0.5567
vn -0.8339 0.1350 0.5352
vn -0.8227 0.1326 0.5528
vn -0.4473 -0.0238 -0.8941
vn -0.4377 -0.0150 -0.8990
vn -0.4370 -0.0228 -0.8992
vn -0.6452 0.0558 0.7620
vn -0.6521 0.0766 0.7542
vn -0.6622 0.0669 0.7463
vn -0.7251 -0.0556 0.6863
vn -0.7216 -0.0806 0.6876
vn -0.7075 -0.0724 0.7030
vn -0.6481 0.0348 0.7608
vn -0.6685 0.0387 0.7427
vn -0.6641 0.0124 0.7476
vn -0.4926 -0.4173 -0.7637
vn 0.1609 -0.2955 -0.9417
vn 0.1588 -0.3113 -0.9370
vn 0.1208 -0.8380 -0.5321
vn -0.5515 0.1240 0.8249
vn 0.0867 -0.0334 0.9957
vn 0.0816 -0.0239 0.9964
vn 0.0576 0.6185 0.7837
vn -0.7612 -0.1743 0.6246
vn -0.7521 -0.1704 0.6366
vn -0.7593 -0.1493 0.6334
vn -0.7786 -0.1577 0.6074
vn -0.5444 -0.0186 0.8386
vn -0.5619 -0.0326 0.8266
vn -0.5389 -0.0357 0.8416
vn -0.7026 -0.2952 0.6474
vn -0.7241 -0.2843 0.6284
vn -0.7195 -0.3051 0.6239
vn -0.8328 0.3709 0.4110
vn -0.8452 0.3535 0.4008
vn -0.8390 0.3370 0.4273
vn -0.2917 -0.0464 -0.9554
vn -0.2451 -0.0847 -0.9658
vn -0.2893 -0.1007 -0.9519
vn 0.1309 -0.7661 -0.6292
vn -0.4875 -0.2133 -0.8467
vn 0.1725 -0.1825 -0.9679
vn -0.8753 -0.2705 0.4007
vn -0.8750 -0.2876 0.3893
vn -0.8708 -0.2829 0.4022
vn -0.9056 -0.0441 0.4219
vn -0.9180 -0.0349 0.3951
vn -0.9102 -0.0533 0.4107
vn 0.2493 -0.1742 -0.9526
vn 0.2665 -0.1562 -0.9511
vn 0.2663 -0.1937 -0.9442
vn -0.9851 0.0840 0.1501
vn -0.9950 0.0553 0.0832
vn -0.9891 0.0044 0.1474
vn -0.3727 0.1329 -0.9184
vn -0.3146 0.1583 -0.9359
vn -0.3682 0.1108 -0.9231
vn -0.5195 0.2935 -0.8025
vn -0.5091 0.2136 -0.8338
vn -0.5326 0.2251 -0.8159
vn -0.4863 -0.0919 0.8689
vn -0.5097 -0.0830 0.8563
vn -0.4947 -0.1075 0.8624
vn 0.1622 0.5848 0.7948
vn -0.3337 0.2154 0.9177
vn 0.1917 0.0314 0.9810
vn -0.4402 0.1628 -0.8830
vn -0.4272 0.1503 -0.8916
vn -0.4470 0.1459 -0.8826
vn -0.5052 0.0931 -0.8580
vn -0.5032 0.1128 -0.8568
vn -0.4855 0.1072 -0.8676
vn -0.8012 -0.0934 0.5911
vn -0.7901 -0.0841 0.6072
vn -0.8018 -0.0756 0.5928
vn -0.1660 -0.2936 -0.9414
vn -0.1658 -0.2753 -0.9470
vn -0.1489 -0.2868 -0.9464
vn -0.8679 0.0913 -0.4882
vn -0.8922 0.0458 -0.4493
vn -0.8980 0.0683 -0.4346
vn -0.7984 0.3974 -0.4524
vn -0.8269 0.4068 -0.3883
vn -0.8073 0.4300 -0.4041
vn 0.2115 -0.1191 -0.9701
vn 0.2358 -0.1098 -0.9656
vn 0.2279 -0.1398 -0.9636
vn -0.8825 0.3548 -0.3087
vn -0.9080 0.3004 -0.2920
vn -0.9030 0.3298 -0.2754
vn -0.8323 0.3391 0.4385
vn -0.8041 0.3741 0.4620
vn -0.8270 0.3782 0.4160
vn -0.9576 -0.1287 0.2579
vn -0.9613 -0.1326 0.2416
vn -0.9568 -0.1536 0.2470
vn -0.8481 -0.0563 0.5268
vn -0.8440 -0.0396 0.5349
vn -0.8545 -0.0315 0.5186
vn -0.3702 0.4159 0.8306
vn 0.0132 0.0088 0.9999
vn 0.0469 0.0491 0.9977
vn 0.0022 0.4942 0.8693
vn -0.5556 -0.0073 0.8314
vn -0.5398 -0.0627 0.8394
vn -0.5243 -0.0494 0.8501
vn -0.1225 -0.2586 -0.9582
vn -0.1397 -0.2462 -0.9591
vn -0.1227 -0.2404 -0.9629
vn 0.1141 -0.2592 -0.9591
vn 0.1062 -0.2498 -0.9625
vn 0.1291 -0.2381 -0.9626
vn -0.8101 -0.1727 0.5603
vn -0.8095 -0.1210 0.5746
vn -0.8276 -0.1474 0.5416
vn -0.2228 -0.2103 -0.9519
vn -0.2277 -0.1931 -0.9544
vn -0.2111 -0.1887 -0.9591
vn -0.7043 0.2713 0.6561
vn -0.7255 0.2537 0.6398
vn -0.7068 0.2341 0.6676
vn -0.7970 0.0115 0.6038
vn -0.7809 0.0192 0.6243
vn -0.8014 0.0344 0.5972
vn -0.4237 -0.0701 0.9031
vn -0.4174 -0.0945 0.9038
vn -0.4079 -0.0745 0.9100
vn -0.7729 0.2076 0.5997
vn -0.7633 0.1805 0.6203
vn -0.7439 0.2137 0.6332
vn -0.4835 -0.0778 -0.8719
vn -0.4996 -0.0841 -0.8622
vn -0.4884 -0.0666 -0.8701
vn -0.8732 -0.1837 0.4514
vn -0.8909 -0.2450 0.3824
vn -0.8685 -0.2529 0.4264
vn -0.3443 0.1297 -0.9298
vn -0.3288 0.1430 -0.9335
vn -0.3300 0.1222 -0.9360
vn -0.3560 0.0817 -0.9309
vn -0.3641 0.0982 -0.9262
vn -0.3496 0.0957 -0.9320
vn -0.7300 0.0682 0.6800
vn -0.7245 0.0349 0.6884
vn -0.6834 0.0733 0.7263
vn -0.8490 -0.0104 0.5282
vn -0.8507 0.0214 0.5253
vn -0.8633 0.0039 0.5047
vn -0.7651 -0.5552 0.3262
vn -0.7363 -0.5869 0.3367
vn -0.7429 -0.5596 0.3672
vn -0.0597 -0.0979 -0.9934
vn -0.0266 -0.1326 -0.9908
vn -0.0604 -0.1497 -0.9869
vn -0.2780 -0.1050 -0.9548
vn -0.2947 -0.0929 -0.9511
vn -0.2650 -0.0560 -0.9626
vn -0.5007 0.1238 -0.8567
vn -0.4990 0.0932 -0.8616
vn -0.5125 0.0997 -0.8529
vn -0.7511 -0.3221 0.5762
vn -0.7570 -0.3437 0.5556
vn -0.7295 -0.4054 0.5508
vn -0.8012 -0.2317 0.5517
vn -0.8124 -0.2274 0.5370
vn -0.8091 -0.2430 0.5351
vn -0.6583 -0.5078 -0.5557
vn -0.6637 -0.5557 -0.5006
vn -0.7192 -0.4981 -0.4843
vn -0.3698 0.0841 -0.9253
vn -0.3664 0.0968 -0.9254
vn -0.3583 0.0815 -0.9300
vn -0.1814 -0.4332 0.8829
vn -0.2012 -0.4214 0.8843
vn -0.2292 -0.4528 0.8616
vn -0.7477 -0.2848 0.5999
vn -0.7560 -0.2975 0.5831
vn -0.7422 -0.3087 0.5949
vn -0.8935 0.0667 0.4440
vn -0.9012 0.0547 0.4300
vn -0.8918 0.0556 0.4491
vn -0.5118 -0.1971 0.8362
vn -0.5358 -0.1859 0.8236
vn -0.5201 -0.2057 0.8290
vn -0.4486 0.1017 -0.8879
vn -0.4605 0.1037 -0.8816
vn -0.4461 0.1146 -0.8876
vn -0.5516 -0.0680 0.8313
vn -0.5491 -0.0454 0.8345
vn -0.5636 -0.0473 0.8247
vn -0.3883 0.0173 0.9214
vn -0.3980 0.0388 0.9165
vn -0.4055 0.0160 0.9140
vn -0.8165 -0.2380 0.5260
vn -0.8367 -0.2291 0.4975
vn -0.8317 -0.2418 0.4998
vn -0.9854 0.1176 0.1229
vn -0.9859 0.1045 0.1309
vn -0.9833 0.1174 0.1391
vn -0.7898 0.2236 -0.5711
vn -0.8086 0.2080 -0.5504
vn -0.7970 0.2512 -0.5493
vn -0.5683 0.0335 -0.8222
vn -0.5647 0.0144 -0.8252
vn -0.5911 0.0286 -0.8061
vn -0.7034 -0.5470 -0.4538
vn -0.6649 -0.5500 -0.5054
vn -0.6423 -0.6291 -0.4378
vn -0.7033 -0.5816 -0.4088
vn -0.7576 -0.0641 0.6495
vn -0.7456 -0.0543 0.6642
vn -0.7586 -0.0515 0.6496
vn -0.1902 -0.2087 0.9593
vn -0.2153 -0.2139 0.9528
vn -0.2105 -0.2427 0.9470
vn -0.8217 -0.4115 0.3942
vn -0.7787 -0.4638 0.4225
vn -0.8163 -0.4090 0.4079
vn -0.6230 -0.1960 0.7573
vn -0.6375 -0.2012 0.7437
vn -0.6208 -0.2170 0.7534
vn -0.6052 -0.1059 0.7890
vn -0.6015 -0.1205 0.7897
vn -0.5865 -0.1118 0.8022
vn -0.8917 -0.1513 0.4266
vn -0.9000 -0.1537 0.4078
vn -0.8903 -0.1649 0.4245
vn -0.8630 -0.0550 0.5021
vn -0.8582 -0.0407 0.5117
vn -0.8668 -0.0286 0.4978
vn 0.0579 -0.0209 0.9981
vn 0.0637 0.0052 0.9980
vn 0.0481 -0.0026 0.9988
vn -0.5184 0.0774 -0.8516
vn -0.5255 0.1030 -0.8445
vn -0.4987 0.1130 -0.8594
vn -0.3932 0.1088 -0.9130
vn -0.3511 0.0353 -0.9357
vn -0.4072 0.0801 -0.9098
vn 0.1807 -0.1890 -0.9652
vn 0.1877 -0.2057 -0.9604
vn 0.1409 -0.7694 -0.6231
vn -0.3040 -0.6082 -0.7333
vn 0.0420 -0.1690 0.9847
vn 0.0218 0.4884 0.8723
vn -0.5481 -0.4034 0.7327
vn -0.0195 -0.1932 0.9810
vn -0.0221 0.4457 0.8949
vn -0.6505 -0.0248 0.7591
vn -0.0055 -0.2151 0.9766
vn -0.0640 -0.3015 0.9513
vn -0.0777 0.3664 0.9272
vn -0.6119 -0.3938 0.6859
vn 0.7191 0.3130 -0.6204
vn 0.1626 -0.4609 -0.8724
vn -0.5008 0.1259 -0.8564
vn 0.1474 -0.1393 0.9792
vn 0.1048 0.4943 0.8630
vn -0.2778 -0.6631 0.6950
vn 0.1218 -0.1734 -0.9773
vn 0.0888 -0.7596 -0.6442
vn -0.5334 0.0566 -0.8440
vn 0.1940 -0.0120 -0.9809
vn 0.1350 -0.7008 -0.7004
vn -0.4234 -0.2153 -0.8800
vn 0.1083 0.0690 0.9917
vn 0.0766 0.6900 0.7198
vn -0.5667 0.1090 0.8167
vn 0.1015 -0.0096 0.9948
vn 0.0701 0.6435 0.7622
vn -0.4776 -0.3385 0.8108
vn 0.2877 -0.0828 -0.9541
vn 0.3198 -0.0950 -0.9427
vn 0.2430 -0.6595 -0.7113
vn -0.1227 -0.5340 -0.8365
vn 0.1686 0.0326 -0.9851
vn 0.1312 -0.5678 -0.8127
vn -0.5004 0.1576 -0.8513
vn 0.2361 -0.1466 -0.9606
vn 0.1761 -0.7143 -0.6773
vn -0.3320 0.1517 -0.9310
vn 0.2839 -0.0362 -0.9582
vn 0.2725 -0.0745 -0.9593
vn 0.2184 -0.6384 -0.7381
vn -0.2544 -0.3761 -0.8910
vn -0.0269 -0.0341 0.9991
vn -0.0219 0.6334 0.7735
vn -0.6475 -0.2371 0.7242
vn -0.0161 -0.0518 0.9985
vn 0.0462 -0.2760 0.9601
vn 0.0555 -0.2528 0.9659
vn 0.0309 0.4382 0.8983
vn -0.5527 0.0432 0.8322
vn 0.1348 0.1505 0.9794
vn 0.0980 0.7444 0.6605
vn -0.5012 0.3209 0.8036
vn 0.1288 -0.0943 0.9872
vn 0.0884 0.5181 0.8507
vn -0.4763 -0.3117 0.8222
vn 0.1717 0.0219 0.9849
vn 0.1693 0.0383 0.9848
vn 0.1254 0.5816 0.8038
vn -0.4263 0.2230 0.8767
vn 0.0589 -0.4312 -0.9003
vn 0.0439 -0.9338 -0.3550
vn -0.6480 -0.3693 -0.6662
vn 0.0866 0.0152 0.9961
vn 0.0575 0.5985 0.7990
vn -0.3115 0.4011 0.8614
vn 0.0677 0.0039 0.9977
vn 0.5468 -0.0072 0.8372
vn -0.0713 -0.3340 0.9399
vn -0.6219 -0.2820 0.7306
vn -0.0409 -0.8721 0.4876
vn 0.0399 0.3599 0.9322
vn -0.5260 -0.2813 0.8026
vn 0.0584 -0.3506 0.9347
vn 0.0710 -0.3383 0.9384
vn -0.4340 -0.2401 -0.8684
vn -0.4331 -0.2601 -0.8630
vn -0.4433 -0.2576 -0.8586
vn -0.4527 -0.2336 -0.8605
vn -0.5022 -0.2674 0.8224
vn -0.5278 -0.2804 0.8017
vn -0.5043 -0.3016 0.8091
vn -0.5654 -0.0695 0.8219
vn -0.5723 -0.0785 0.8163
vn -0.5571 -0.1021 0.8242
vn -0.5430 -0.0831 0.8356
vn -0.4285 -0.2084 0.8792
vn -0.4246 -0.2222 0.8777
vn -0.4142 -0.2244 0.8821
vn -0.4116 -0.2163 0.8853
vn -0.8593 0.2267 0.4584
vn -0.8714 0.2073 0.4447
vn -0.8937 0.1636 0.4178
vn -0.8592 0.1860 0.4767
vn -0.9342 -0.2009 0.2946
vn -0.9304 -0.2046 0.3042
vn -0.9284 -0.2135 0.3041
vn -0.9290 -0.1943 0.3149
vn -0.7309 -0.0569 0.6802
vn -0.7285 -0.0887 0.6792
vn -0.7040 -0.0894 0.7045
vn -0.5638 -0.0733 -0.8227
vn -0.5490 -0.0611 -0.8336
vn -0.5570 -0.0814 -0.8265
vn -0.5619 -0.0776 -0.8236
vn -0.8709 0.0039 -0.4915
vn -0.8496 0.0169 -0.5272
vn -0.8336 -0.0324 -0.5514
vn -0.8620 -0.0208 -0.5065
vn -0.8631 -0.3119 0.3973
vn -0.8695 -0.3146 0.3807
vn -0.8614 -0.3260 0.3895
vn -0.8576 -0.3236 0.3997
vn -0.8482 -0.1974 0.4916
vn -0.8426 -0.2196 0.4917
vn -0.8334 -0.2139 0.5096
vn 0.0201 0.0622 -0.9979
vn 0.0296 0.0300 -0.9991
vn 0.0178 -0.6508 -0.7590
vn -0.2461 -0.6010 -0.7605
vn 0.4371 -0.2332 -0.8687
vn 0.4567 -0.2278 -0.8600
vn 0.4370 -0.2525 -0.8633
vn 0.4393 -0.2366 -0.8666
vn 0.5136 -0.2505 0.8206
vn 0.5227 -0.2845 0.8037
vn 0.5552 -0.2614 0.7896
vn -0.0167 0.0614 -0.9980
vn -0.0170 0.7140 -0.6999
vn 0.6626 0.0359 -0.7481
vn -0.0344 0.0322 -0.9989
vn 0.5681 -0.0645 0.8204
vn 0.5473 -0.0829 0.8328
vn 0.5623 -0.0781 0.8232
vn 0.5731 -0.0743 0.8161
vn 0.4277 -0.2027 0.8809
vn 0.4132 -0.2130 0.8854
vn 0.4117 -0.2201 0.8844
vn 0.4290 -0.2239 0.8751
vn 0.8692 0.2313 0.4371
vn 0.8581 0.1805 0.4806
vn 0.8805 0.1936 0.4326
vn 0.8846 0.2018 0.4204
vn 0.9370 -0.1885 0.2943
vn 0.9335 -0.1787 0.3107
vn 0.9329 -0.1934 0.3038
vn 0.9340 -0.1972 0.2979
vn 0.7277 -0.0486 0.6842
vn 0.7145 -0.0793 0.6952
vn 0.7368 -0.0890 0.6702
vn 0.5658 -0.0664 -0.8219
vn 0.5675 -0.0757 -0.8199
vn 0.5563 -0.0876 -0.8264
vn 0.5477 -0.0623 -0.8344
vn 0.8741 0.0150 -0.4856
vn 0.8861 -0.0335 -0.4622
vn 0.8549 -0.0132 -0.5186
vn 0.8557 0.0259 -0.5169
vn 0.8666 -0.2977 0.4005
vn 0.8646 -0.3069 0.3978
vn 0.8679 -0.3150 0.3842
vn 0.8755 -0.2962 0.3817
vn 0.8486 -0.1755 0.4990
vn 0.8390 -0.1911 0.5094
vn 0.8467 -0.1988 0.4935
vn 0.5671 0.8229 0.0360
vn 0.0002 0.9999 -0.0126
vn -0.0022 0.9999 -0.0140
vn -0.0031 0.9999 -0.0144
vn -0.0163 0.9998 -0.0146
vn -0.0111 0.9999 -0.0083
vn -0.0275 0.9994 -0.0204
vn -0.0285 0.9994 -0.0192
vn -0.0304 0.9994 -0.0166
vn -0.0312 0.9994 -0.0151
vn -0.0214 0.9997 -0.0082
vn -0.0221 0.9997 -0.0062
vn -0.0167 0.9999 -0.0018
vn -0.0166 0.9999 -0.0010
vn -0.0163 0.9998 -0.0124
vn -0.0138 0.9998 -0.0141
vn -0.0340 0.9994 0.0033
vn -0.0283 0.9996 0.0012
vn -0.0266 0.9996 0.0065
vn -0.0103 0.9999 -0.0013
vn -0.0102 0.9999 -0.0010
vn -0.0103 0.9998 0.0171
vn -0.0060 0.9998 0.0172
vn -0.6887 0.7249 -0.0148
vn 0.0002 0.9999 0.0157
vn 0.0046 0.9999 0.0131
vn -0.0076 1.0000 0.0005
vn 0.0017 0.9999 0.0166
vn 0.0048 0.9999 0.0147
vn 0.0191 0.9998 -0.0063
vn 0.0037 1.0000 0.0049
vn 0.0042 1.0000 0.0040
vn -0.0007 1.0000 -0.0082
vn -0.0008 1.0000 -0.0084
vn 0.0039 0.9999 -0.0120
vn 0.0026 0.9999 -0.0134
vn 0.0080 0.9997 -0.0242
vn 0.0065 0.9997 -0.0252
vn 0.0039 0.9996 -0.0266
vn 0.0017 0.9996 -0.0275
vn -0.0041 1.0000 -0.0084
vn -0.0078 0.9998 -0.0174
vn 0.0011 0.9999 -0.0119
vn -0.0011 0.9999 -0.0135
vn -0.0019 0.9999 -0.0139
vn 0.2567 -0.9154 -0.3101
vn -0.2862 -0.5066 -0.8133
vn 0.3492 -0.4099 -0.8426
vn 0.5000 0.3004 -0.8123
vn -0.9126 0.2982 0.2798
vn -0.9032 0.3060 0.3009
vn -0.8915 0.3339 0.3061
vn -0.9042 0.3239 0.2784
vn 0.0318 0.1665 0.9855
vn 0.0315 0.1772 0.9837
vn 0.0260 0.1738 0.9844
vn 0.0253 0.1692 0.9853
vn 0.1135 0.1401 0.9836
vn 0.1176 0.1481 0.9820
vn 0.0856 0.7448 0.6618
vn -0.3412 0.5687 0.7484
vn -0.9889 0.1279 0.0757
vn -0.9832 0.1380 0.1193
vn -0.9866 0.1411 0.0813
vn -0.1858 -0.8549 -0.4844
vn 0.0671 -0.3636 -0.9291
vn 0.0700 -0.3616 -0.9297
vn 0.0789 -0.3709 -0.9253
vn 0.0558 -0.9183 -0.3920
vn 0.1975 -0.2478 -0.9485
vn 0.1870 -0.2376 -0.9532
vn 0.1967 -0.2330 -0.9524
vn -0.9449 -0.2043 0.2559
vn -0.9502 -0.1651 0.2642
vn -0.9536 -0.1806 0.2408
vn -0.9518 -0.2030 0.2301
vn -0.1250 0.1069 0.9864
vn -0.1095 0.1161 0.9872
vn -0.1275 0.1166 0.9850
vn 0.1320 -0.2490 -0.9595
vn 0.1107 -0.2534 -0.9610
vn 0.1051 -0.2390 -0.9653
vn 0.1185 -0.2276 -0.9665
vn -0.7223 0.2305 0.6520
vn -0.6979 0.2421 0.6741
vn -0.7026 0.2520 0.6654
vn -0.7144 0.2614 0.6491
vn -0.0506 -0.0637 -0.9967
vn -0.1000 -0.0524 -0.9936
vn -0.1028 -0.0106 -0.9947
vn -0.0598 -0.0052 -0.9982
vn -0.6152 -0.2567 -0.7455
vn -0.6435 -0.1922 -0.7409
vn -0.5991 -0.1883 -0.7782
vn -0.3438 0.2082 0.9157
vn -0.3246 0.1981 0.9249
vn -0.3257 0.2162 0.9204
vn -0.3391 0.2151 0.9158
vn 0.0012 -0.9089 -0.4170
vn -0.3493 -0.4148 -0.8402
vn -0.8380 -0.1662 -0.5198
vn -0.2748 0.2108 -0.9381
vn 0.9061 0.3158 0.2814
vn 0.8979 0.3441 0.2745
vn 0.8953 0.3333 0.2954
vn 0.8960 0.3223 0.3055
vn -0.0332 0.1710 0.9847
vn -0.0250 0.1731 0.9846
vn -0.0258 0.1803 0.9833
vn -0.0297 0.1796 0.9833
vn -0.1189 0.1392 0.9831
vn -0.0865 -0.5087 0.8566
vn 0.5114 0.1171 0.8513
vn -0.1219 0.1448 0.9819
vn 0.9871 0.1371 0.0823
vn 0.9853 0.1503 0.0806
vn 0.9846 0.1455 0.0965
vn -0.0455 0.3351 -0.9411
vn 0.6597 -0.3148 -0.6824
vn -0.0713 -0.3733 -0.9249
vn -0.0671 -0.3624 -0.9296
vn -0.3028 0.3305 -0.8939
vn -0.1918 -0.2486 -0.9494
vn -0.1989 -0.2337 -0.9518
vn -0.1836 -0.2357 -0.9543
vn 0.9480 -0.1927 0.2534
vn 0.9545 -0.1910 0.2292
vn 0.9595 -0.1463 0.2406
vn 0.9518 -0.1717 0.2541
vn 0.1268 0.1095 0.9859
vn 0.1326 0.1194 0.9839
vn 0.1236 0.1191 0.9852
vn -0.1271 -0.2488 -0.9602
vn -0.1151 -0.2343 -0.9653
vn -0.1058 -0.2360 -0.9660
vn -0.1021 -0.2482 -0.9633
vn 0.7151 0.2329 0.6591
vn 0.7117 0.2552 0.6545
vn 0.6941 0.2649 0.6694
vn 0.6935 0.2426 0.6783
vn 0.0568 -0.0599 -0.9966
vn 0.0776 -0.0077 -0.9970
vn 0.1032 -0.0205 -0.9944
vn 0.1087 -0.0477 -0.9929
vn 0.6226 -0.2433 -0.7437
vn 0.6047 -0.1667 -0.7788
vn 0.6588 -0.1753 -0.7316
vn 0.3495 0.2090 0.9133
vn 0.3577 0.2190 0.9078
vn 0.3391 0.2315 0.9118
vn 0.3297 0.2044 0.9217
vn 0.0024 -1.0000 0.0091
vn 0.5992 -0.7910 0.1237
vn 0.5987 -0.7916 -0.1225
vn 0.5659 -0.7920 -0.2291
vn 0.6839 -0.7277 -0.0512
vn 0.0118 -0.9999 0.0077
vn 0.0116 -0.9999 0.0079
vn 0.0111 -0.9997 0.0202
vn 0.0089 -0.9997 0.0208
vn -0.0138 -0.9991 0.0413
vn -0.0358 -0.9992 0.0165
vn -0.0377 -0.9992 0.0090
vn -0.0606 -0.9981 -0.0102
vn -0.0099 -0.9999 -0.0038
vn -0.0103 -0.9999 0.0035
vn -0.0027 -1.0000 0.0067
vn -0.0028 -1.0000 0.0065
vn -0.0033 -1.0000 0.0054
vn -0.0103 -0.9999 -0.0105
vn -0.0068 -0.9999 -0.0138
vn -0.0106 -0.9999 -0.0096
vn -0.0080 -0.9999 -0.0124
vn 0.0008 -1.0000 -0.0014
vn 0.0015 -1.0000 -0.0021
vn 0.0062 -1.0000 -0.0013
vn -0.6263 -0.7764 0.0703
vn 0.0057 -1.0000 -0.0015
vn 0.0020 -1.0000 -0.0024
vn 0.0030 -1.0000 -0.0030
vn 0.0062 -0.9998 -0.0174
vn 0.0114 -0.9998 -0.0164
vn 0.0226 -0.9997 -0.0074
vn 0.0242 -0.9997 -0.0038
vn 0.0114 -0.9999 -0.0042
vn 0.0119 -0.9999 -0.0036
vn 0.0118 -0.9999 -0.0037
vn 0.0189 -0.9998 -0.0047
vn 0.0210 -0.9998 -0.0013
vn 0.0664 -0.9974 0.0291
vn 0.0464 -0.9988 0.0156
vn 0.0446 -0.9988 0.0201
vn 0.0193 -0.9989 0.0432
vn 0.0064 -0.9998 0.0212
vn 0.0049 -0.9998 0.0212
vn 0.0096 -0.9999 0.0096
vn 0.0101 -0.9999 0.0093
usemtl sungaya_inexpectata_31mg
s off
f 224/1/1 211/2/2 45/3/3
f 66/4/4 5/5/5 53/6/6
f 30/7/7 8/8/8 18/9/9
f 20/10/10 22/11/11 64/12/12
f 2/13/13 43/14/14 3/15/15
f 26/16/16 76/17/17 4/18/18
f 22/19/19 48/20/20 39/21/21
f 45/22/22 57/23/23 26/24/24
f 30/7/25 7/25/26 32/26/27
f 217/27/28 209/28/29 49/29/30
f 221/30/31 208/31/32 4/32/33
f 63/33/34 51/34/35 54/35/36
f 30/7/37 18/9/38 62/36/39
f 18/9/40 8/8/41 61/37/42
f 32/26/43 8/8/44 30/7/45
f 72/38/46 85/39/47 71/40/48
f 71/41/49 55/42/50 54/43/51
f 40/44/52 43/14/53 2/13/54
f 65/45/55 63/46/56 64/47/57
f 49/29/58 4/32/59 33/48/60
f 253/49/61 255/50/62 60/51/63
f 85/39/64 82/52/65 55/53/66
f 71/40/67 85/39/68 55/53/69
f 29/54/70 53/55/71 5/56/72
f 13/57/73 53/58/74 29/59/75
f 44/60/76 29/61/77 28/62/78
f 219/63/79 79/64/80 215/65/81
f 72/66/82 28/67/83 19/68/84
f 72/69/85 19/70/86 21/71/87
f 22/19/88 39/21/89 51/72/90
f 250/73/91 11/74/92 218/75/93
f 226/76/94 225/77/95 50/78/96
f 31/79/97 59/80/98 42/81/99
f 62/82/100 1/83/101 74/84/102
f 18/85/103 1/83/104 62/82/105
f 222/86/106 220/87/107 10/88/108
f 269/89/109 262/90/110 28/91/111 5/92/112
f 41/93/113 35/94/114 47/95/115
f 60/96/116 36/97/117 3/98/118
f 40/44/119 13/99/120 9/100/121
f 62/82/122 37/101/123 23/102/124
f 16/103/125 71/104/126 9/105/127
f 200/106/128 201/107/129 43/108/130 83/109/131
f 96/110/132 6/111/133 92/112/134
f 54/35/135 55/113/136 63/33/137
f 55/113/138 68/114/139 63/33/140
f 38/115/141 49/29/142 33/48/143
f 53/58/144 13/57/145 36/116/146
f 189/117/147 93/118/148 52/119/149
f 22/11/150 17/120/151 48/121/152
f 205/122/153 94/123/154 80/124/155 7/125/156
f 20/126/157 17/127/158 22/128/159
f 25/129/160 57/23/161 67/130/162
f 40/44/163 2/13/164 36/131/165
f 51/132/166 9/133/167 54/134/168
f 259/135/169 256/136/170 34/137/171 19/68/172
f 16/138/173 44/139/174 72/140/175
f 72/141/176 44/142/177 28/143/178
f 46/144/179 83/145/180 43/146/181
f 192/147/182 197/148/183 24/149/184
f 223/150/185 214/151/186 11/74/187 70/152/188
f 69/153/189 21/154/190 19/68/191
f 19/68/192 34/155/193 69/153/194
f 51/156/195 65/45/196 22/11/197
f 78/157/198 56/158/199 25/159/200
f 76/160/201 56/161/202 78/162/203
f 7/25/204 59/80/205 32/26/206
f 59/80/207 79/64/208 42/81/209
f 13/57/210 29/59/211 44/163/212
f 9/164/213 51/165/214 39/166/215
f 40/44/216 9/100/217 39/21/218
f 89/167/219 199/168/220 23/169/221 37/170/222
f 33/48/223 4/32/224 76/160/225
f 70/171/226 20/172/227 12/173/228
f 10/88/229 14/174/230 15/175/231
f 10/88/232 12/176/233 14/174/234
f 82/177/235 78/178/236 68/114/237
f 82/177/238 81/179/239 78/178/240
f 31/79/241 38/115/242 32/26/243
f 5/180/244 28/62/245 29/61/246
f 68/114/247 55/181/248 82/177/249
f 3/98/250 41/182/251 60/96/252
f 3/15/253 35/183/254 41/184/255
f 45/22/256 50/185/257 57/23/258
f 14/186/259 64/187/260 67/130/261
f 67/188/262 57/189/263 14/190/264
f 31/79/265 49/29/266 38/115/267
f 39/21/268 46/191/269 40/44/270
f 46/191/271 48/20/272 17/192/273
f 39/21/274 48/20/275 46/191/276
f 202/193/277 92/112/278 6/111/279 23/102/280
f 98/194/281 88/195/282 47/95/283 35/94/284
f 207/196/285 210/197/286 10/198/287 15/199/288
f 46/191/289 17/192/290 52/200/291
f 68/114/292 67/130/293 63/33/294
f 25/201/295 26/202/296 57/203/297
f 1/204/298 18/9/299 69/205/300
f 102/206/301 6/111/302 96/110/303
f 21/207/304 27/208/305 72/38/306
f 71/209/307 54/35/308 9/100/309
f 80/124/310 59/210/311 7/125/312
f 270/211/313 1/212/314 252/213/315
f 61/37/316 58/214/317 85/215/318
f 85/215/319 58/214/320 77/216/321
f 40/44/322 46/191/323 43/14/324
f 90/217/325 24/149/326 197/148/327
f 42/81/328 79/64/329 49/29/330
f 33/48/331 73/218/332 58/214/333
f 65/45/334 51/156/335 63/219/336
f 6/220/337 30/221/338 23/169/339
f 78/162/340 73/218/341 76/160/342
f 78/162/343 81/222/344 73/218/345
f 257/223/346 74/84/347 267/224/348
f 56/161/349 76/160/350 26/225/351
f 26/226/352 25/227/353 56/228/354
f 72/229/355 71/230/356 16/231/357
f 15/232/358 14/233/359 57/234/360
f 93/118/361 200/235/362 83/236/363 52/119/364
f 83/237/365 46/191/366 52/200/367
f 30/238/368 62/239/369 23/240/370
f 62/82/371 74/84/372 37/101/373
f 84/241/374 21/242/375 69/243/376
f 7/25/377 30/7/378 6/244/379
f 66/245/380 53/246/381 60/247/382
f 36/248/383 60/249/384 53/250/385
f 75/251/386 20/252/387 70/253/388
f 260/254/389 266/255/390 66/256/391
f 49/29/392 31/79/393 42/81/394
f 85/257/395 77/258/396 82/177/397
f 8/8/398 58/214/399 61/37/400
f 33/48/401 58/214/402 8/8/403
f 68/114/404 78/178/405 25/259/406
f 25/259/407 67/130/408 68/114/409
f 82/177/410 77/258/411 81/179/412
f 69/205/413 61/37/414 84/260/415
f 61/37/416 69/205/417 18/9/418
f 73/218/419 33/48/420 76/160/421
f 84/261/422 85/262/423 27/263/424
f 65/45/425 64/47/426 22/11/427
f 34/264/428 1/204/429 69/205/430
f 38/115/431 33/48/432 8/8/433
f 214/265/434 218/266/435 11/267/436
f 63/33/437 67/130/438 64/187/439
f 57/234/440 50/268/441 15/232/442
f 36/97/443 2/269/444 3/98/445
f 38/115/446 8/8/447 32/26/448
f 20/252/449 52/200/450 17/192/451
f 20/252/452 75/251/453 52/200/454
f 84/270/455 27/271/456 21/272/457
f 268/273/458 263/274/459 5/275/460
f 81/222/461 77/276/462 73/218/463
f 32/26/464 59/80/465 31/79/466
f 256/277/467 252/278/468 1/279/469 34/280/470
f 40/281/471 36/116/472 13/57/473
f 3/282/474 43/283/475 35/94/476
f 72/38/477 27/208/478 85/39/479
f 64/187/480 14/284/481 20/252/482
f 20/252/483 14/284/484 12/176/485
f 44/285/486 16/286/487 13/287/488
f 9/288/489 13/289/490 16/290/491
f 75/291/492 24/149/493 52/119/494
f 73/292/495 77/293/496 58/294/497
f 84/260/498 61/37/499 85/215/500
f 6/111/501 102/206/502 205/122/503 7/125/504
f 35/94/505 204/295/506 98/194/507
f 35/296/508 43/297/509 203/298/510 204/299/511
f 43/283/512 201/300/513 203/301/514
f 273/302/515 274/303/516 95/304/517
f 75/305/518 91/306/519 100/307/520
f 23/102/521 199/308/522 202/193/523
f 79/309/524 198/310/525 99/311/526
f 47/95/527 196/312/528 97/313/529
f 47/95/530 88/195/531 196/312/532
f 80/124/533 195/314/534 101/315/535 59/210/536
f 80/124/537 94/123/538 195/314/539
f 79/316/540 87/317/541 198/318/542
f 59/210/543 101/315/544 87/319/545 79/320/546
f 75/305/547 70/152/548 194/321/549 91/306/550
f 11/322/551 86/323/552 194/324/553 70/325/554
f 47/95/555 97/313/556 193/326/557
f 75/305/558 100/307/559 191/327/560
f 75/305/561 191/327/562 192/147/563 24/149/564
f 37/101/565 190/328/566 89/329/567
f 52/119/568 24/149/569 90/217/570 189/117/571
f 247/330/572 148/331/573 233/332/574
f 169/333/575 156/334/576 108/335/577
f 133/336/578 121/337/579 111/338/580
f 123/339/581 167/340/582 125/341/583
f 105/342/584 106/343/585 146/344/586
f 129/345/587 107/346/588 179/347/589
f 125/348/590 142/349/591 151/350/592
f 148/351/593 129/352/594 160/353/595
f 133/336/596 135/354/597 110/355/598
f 239/356/599 152/357/600 231/358/601
f 244/359/602 107/360/603 230/361/604
f 166/362/605 157/363/606 154/364/607
f 133/336/608 165/365/609 121/337/610
f 121/337/611 164/366/612 111/338/613
f 135/354/614 133/336/615 111/338/616
f 175/367/617 174/368/618 188/369/619
f 174/370/620 157/371/621 158/372/622
f 143/373/623 105/342/624 146/344/625
f 168/374/626 167/375/627 166/376/628
f 152/357/629 136/377/630 107/360/631
f 276/378/632 163/379/633 278/380/634
f 188/369/635 158/381/636 185/382/637
f 174/368/638 158/381/639 188/369/640
f 132/383/641 108/384/642 156/385/643
f 116/386/644 132/387/645 156/388/646
f 147/389/647 131/390/648 132/391/649
f 242/392/650 237/393/651 182/394/652
f 175/395/653 122/396/654 131/397/655
f 175/398/656 124/399/657 122/400/658
f 125/348/659 154/401/660 142/349/661
f 240/402/662 114/403/663 241/404/664
f 249/405/665 153/406/666 248/407/667
f 134/408/668 145/409/669 162/410/670
f 165/411/671 177/412/672 104/413/673
f 121/414/674 165/411/675 104/413/676
f 245/415/677 113/416/678 243/417/679
f 285/418/680 292/419/681 108/420/682 131/421/683
f 144/422/684 150/423/685 138/424/686
f 163/425/687 106/426/688 139/427/689
f 143/373/690 112/428/691 116/429/692
f 165/411/693 126/430/694 140/431/695
f 119/432/696 112/433/697 174/434/698
f 200/106/699 186/435/700 146/436/701 201/107/702
f 96/110/703 92/112/704 109/437/705
f 157/363/706 166/362/707 158/438/708
f 158/438/709 166/362/710 171/439/711
f 141/440/712 136/377/713 152/357/714
f 156/388/715 139/441/716 116/386/717
f 189/117/718 155/442/719 93/118/720
f 125/341/721 151/443/722 120/444/723
f 205/122/724 110/445/725 183/446/726 94/123/727
f 123/447/728 125/448/729 120/449/730
f 128/450/731 170/451/732 160/353/733
f 143/373/734 139/452/735 105/342/736
f 154/453/737 157/454/738 112/455/739
f 279/456/740 282/457/741 122/396/742 137/458/743
f 119/459/744 175/460/745 147/461/746
f 175/462/747 131/463/748 147/464/749
f 149/465/750 146/466/751 186/467/752
f 192/147/753 127/468/754 197/148/755
f 236/469/756 246/470/757 173/471/758 114/403/759
f 172/472/760 122/396/761 124/473/762
f 122/396/763 172/472/764 137/474/765
f 154/475/766 125/341/767 168/374/768
f 181/476/769 128/477/770 159/478/771
f 179/479/772 181/480/773 159/481/774
f 110/355/775 135/354/776 162/410/777
f 162/410/778 145/409/779 182/394/780
f 116/386/781 147/482/782 132/387/783
f 112/483/784 142/484/785 154/485/786
f 143/373/787 142/349/788 112/428/789
f 89/167/790 140/486/791 126/487/792 199/168/793
f 136/377/794 179/479/795 107/360/796
f 173/488/797 115/489/798 123/490/799
f 113/416/800 118/491/801 117/492/802
f 113/416/803 117/492/804 115/493/805
f 185/494/806 171/439/807 181/495/808
f 185/494/809 181/495/810 184/496/811
f 134/408/812 135/354/813 141/440/814
f 108/497/815 132/391/816 131/390/817
f 171/439/818 185/494/819 158/498/820
f 106/426/821 163/425/822 144/499/823
f 106/343/824 144/500/825 138/501/826
f 148/351/827 160/353/828 153/502/829
f 117/503/830 170/451/831 167/504/832
f 170/505/833 117/506/834 160/507/835
f 134/408/836 141/440/837 152/357/838
f 142/349/839 143/373/840 149/508/841
f 149/508/842 120/509/843 151/350/844
f 142/349/845 149/508/846 151/350/847
f 202/193/848 126/430/849 109/437/850 92/112/851
f 98/194/852 138/424/853 150/423/854 88/195/855
f 232/510/856 229/511/857 118/512/858 113/513/859
f 149/508/860 155/514/861 120/509/862
f 171/439/863 166/362/864 170/451/865
f 128/515/866 160/516/867 129/517/868
f 104/518/869 172/519/870 121/337/871
f 102/206/872 96/110/873 109/437/874
f 124/520/875 175/367/876 130/521/877
f 174/522/878 112/428/879 157/363/880
f 183/446/881 110/445/882 162/523/883
f 293/524/884 275/525/885 104/526/886
f 164/366/887 188/527/888 161/528/889
f 188/527/890 180/529/891 161/528/892
f 143/373/893 146/344/894 149/508/895
f 90/217/896 197/148/897 127/468/898
f 145/409/899 152/357/900 182/394/901
f 136/377/902 161/528/903 176/530/904
f 168/374/905 166/531/906 154/475/907
f 109/532/908 126/487/909 133/533/910
f 181/480/911 179/479/912 176/530/913
f 181/480/914 176/530/915 184/534/916
f 280/535/917 290/536/918 177/412/919
f 159/481/920 129/537/921 179/479/922
f 129/538/923 159/539/924 128/540/925
f 175/541/926 119/542/927 174/543/928
f 118/544/929 160/545/930 117/546/931
f 93/118/932 155/442/933 186/547/934 200/235/935
f 186/548/936 155/514/937 149/508/938
f 133/549/939 126/550/940 165/551/941
f 165/411/942 140/431/943 177/412/944
f 187/552/945 172/553/946 124/554/947
f 110/355/948 109/555/949 133/336/950
f 169/556/951 163/557/952 156/558/953
f 139/559/954 156/560/955 163/561/956
f 178/562/957 173/563/958 123/564/959
f 283/565/960 169/566/961 289/567/962
f 152/357/963 145/409/964 134/408/965
f 188/568/966 185/494/967 180/569/968
f 111/338/969 164/366/970 161/528/971
f 136/377/972 111/338/973 161/528/974
f 171/439/975 128/570/976 181/495/977
f 128/570/978 171/439/979 170/451/980
f 185/494/981 184/496/982 180/569/983
f 172/519/984 187/571/985 164/366/986
f 164/366/987 121/337/988 172/519/989
f 176/530/990 179/479/991 136/377/992
f 187/572/993 130/573/994 188/574/995
f 168/374/996 125/341/997 167/375/998
f 137/575/999 172/519/1000 104/518/1001
f 141/440/1002 111/338/1003 136/377/1004
f 236/576/1005 114/577/1006 240/578/1007
f 166/362/1008 167/504/1009 170/451/1010
f 160/545/1011 118/544/1012 153/579/1013
f 139/427/1014 106/426/1015 105/580/1016
f 141/440/1017 135/354/1018 111/338/1019
f 123/564/1020 120/509/1021 155/514/1022
f 123/564/1023 155/514/1024 178/562/1025
f 187/581/1026 124/582/1027 130/583/1028
f 291/584/1029 108/585/1030 286/586/1031
f 184/534/1032 176/530/1033 180/587/1034
f 135/354/1035 134/408/1036 162/410/1037
f 275/588/1038 279/589/1039 137/590/1040 104/591/1041
f 143/592/1042 116/386/1043 139/441/1044
f 106/593/1045 138/424/1046 146/594/1047
f 175/367/1048 188/369/1049 130/521/1050
f 167/504/1051 123/564/1052 117/595/1053
f 123/564/1054 115/493/1055 117/595/1056
f 147/596/1057 116/597/1058 119/598/1059
f 112/599/1060 119/600/1061 116/601/1062
f 178/602/1063 155/442/1064 127/468/1065
f 176/603/1066 161/604/1067 180/605/1068
f 187/571/1069 188/527/1070 164/366/1071
f 109/437/1072 110/445/1073 205/122/1074 102/206/1075
f 138/424/1076 98/194/1077 204/295/1078
f 138/606/1079 204/299/1080 203/298/1081 146/607/1082
f 146/594/1083 203/301/1084 201/300/1085
f 297/608/1086 95/304/1087 274/303/1088
f 178/609/1089 100/307/1090 91/306/1091
f 126/430/1092 202/193/1093 199/308/1094
f 182/610/1095 99/311/1096 198/310/1097
f 150/423/1098 97/313/1099 196/312/1100
f 150/423/1101 196/312/1102 88/195/1103
f 183/446/1104 162/523/1105 101/315/1106 195/314/1107
f 183/446/1108 195/314/1109 94/123/1110
f 182/611/1111 198/318/1112 87/317/1113
f 162/523/1114 182/612/1115 87/319/1116 101/315/1117
f 178/609/1118 91/306/1119 194/321/1120 173/471/1121
f 114/613/1122 173/614/1123 194/324/1124 86/323/1125
f 150/423/1126 193/326/1127 97/313/1128
f 178/609/1129 191/327/1130 100/307/1131
f 178/609/1132 127/468/1133 192/147/1134 191/327/1135
f 140/431/1136 89/329/1137 190/328/1138
f 155/442/1139 189/117/1140 90/217/1141 127/468/1142
f 86/615/1143 11/74/1144 250/73/1145 251/616/1146
f 86/615/1147 251/616/1148 241/404/1149 114/403/1150
f 152/357/1151 239/356/1152 242/392/1153 182/394/1154
f 113/416/1155 238/617/1156 243/417/1157
f 115/493/1158 235/618/1159 238/617/1160 113/416/1161
f 173/563/1162 246/619/1163 235/618/1164 115/493/1165
f 129/620/1166 148/621/1167 247/622/1168 234/623/1169
f 153/624/1170 249/625/1171 233/626/1172 148/627/1173
f 113/416/1174 245/415/1175 232/628/1176
f 152/357/1177 107/360/1178 244/359/1179 231/358/1180
f 107/360/1181 129/537/1182 234/629/1183 230/361/1184
f 153/502/1185 118/630/1186 228/631/1187 248/632/1188
f 118/630/1189 229/633/1190 228/631/1191
f 182/634/1192 237/635/1193 227/636/1194 99/637/1195
f 49/29/1196 79/64/1197 219/63/1198 217/27/1199
f 10/88/1200 220/87/1201 216/638/1202
f 79/639/1203 99/637/1204 227/636/1205 215/640/1206
f 12/176/1207 10/88/1208 216/638/1209 213/641/1210
f 70/253/1211 12/176/1212 213/641/1213 223/642/1214
f 26/643/1215 212/644/1216 224/645/1217 45/646/1218
f 50/647/1219 45/648/1220 211/649/1221 226/650/1222
f 10/88/1223 210/651/1224 222/86/1225
f 49/29/1226 209/28/1227 221/30/1228 4/32/1229
f 4/32/1230 208/31/1231 212/652/1232 26/225/1233
f 50/185/1234 225/653/1235 206/654/1236 15/655/1237
f 15/655/1238 206/654/1239 207/656/1240
f 251/616/1241 250/73/1242 218/266/1243 214/151/1244 223/642/1245 213/641/1246 216/638/1247 220/87/1248 222/86/1249 210/197/1250 207/656/1251 206/654/1252 225/77/1253 226/650/1254 211/2/1255 224/645/1256 212/652/1257 208/31/1258 221/30/1259 209/28/1260 217/27/1261 219/63/1262 215/640/1263 227/636/1264 237/393/1265 242/392/1266 239/356/1267 231/358/1267 244/359/1268 230/361/1269 234/623/1270 247/330/1271 233/626/1272 249/405/1273 248/632/1274 228/631/1275 229/511/1276 232/628/1277 245/415/1278 243/417/1279 238/617/1280 235/618/1281 246/470/1282 236/576/1283 240/402/1284 241/404/1285
f 103/657/1286 95/304/1287 297/608/1288 296/658/1289
f 169/333/1290 108/335/1291 291/659/1292 289/660/1293
f 144/422/1294 294/661/1295 288/662/1296 150/423/1297
f 150/423/1298 288/662/1299 295/663/1300 193/326/1301
f 108/664/1302 292/665/1303 286/666/1304
f 103/667/1305 296/668/1306 284/669/1307 140/670/1308 190/671/1309
f 140/672/1310 284/673/1311 287/674/1312
f 122/675/1313 282/676/1314 285/677/1315 131/678/1316
f 144/422/1317 281/679/1318 294/661/1319
f 177/680/1320 140/672/1321 287/674/1322 280/681/1323
f 163/379/1324 169/566/1325 283/565/1326 278/380/1327
f 104/518/1328 177/682/1329 290/683/1330 277/684/1331
f 104/518/1332 277/684/1333 293/685/1334
f 144/686/1335 163/687/1336 276/688/1337 281/689/1338
f 103/657/1339 272/690/1340 273/302/1341 95/304/1342
f 66/4/1343 266/691/1344 268/692/1345 5/5/1346
f 41/93/1347 47/95/1348 265/693/1349 271/694/1350
f 47/95/1351 193/326/1352 295/663/1353 265/693/1354
f 5/695/1355 263/696/1356 269/697/1357
f 103/667/1358 190/671/1359 37/698/1360 261/699/1361 272/700/1362
f 37/701/1363 264/702/1364 261/703/1365
f 19/704/1366 28/705/1367 262/706/1368 259/707/1369
f 41/93/1370 271/694/1371 258/708/1372
f 74/709/1373 257/710/1374 264/702/1375 37/701/1376
f 60/51/1377 255/50/1378 260/254/1379 66/256/1380
f 1/204/1381 254/711/1382 267/712/1383 74/713/1384
f 1/204/1385 270/714/1386 254/711/1387
f 41/715/1388 258/716/1389 253/717/1390 60/718/1391
f 296/668/1392 297/608/1393 274/303/1394 273/302/1395 272/700/1396 261/703/1397 264/702/1398 257/223/1399 267/712/1400 254/711/1401 270/211/1402 252/278/1403 256/136/1404 259/707/1405 262/90/1406 269/697/1407 263/274/1408 268/692/1409 266/255/1410 260/254/1411 255/50/1412 253/717/1413 258/708/1414 271/694/1415 265/693/1416 295/663/1417 288/662/1418 294/661/1419 281/689/1420 276/378/1421 278/380/1422 283/565/1423 289/660/1424 291/584/1425 286/666/1426 292/419/1427 285/677/1428 282/457/1429 279/589/1430 275/525/1431 293/685/1432 277/684/1433 290/536/1434 280/681/1435 287/674/1436 284/669/1437
