# Blender v2.79 (sub 0) OBJ File: 'redo_fixed_360_joints.blend'
# www.blender.org
mtllib sungaya_inexpectata_31mg.mtl
o 30-h-l-claws_Sungaya_inexpectata_31mg.010
v 0.000499 0.000069 0.000097
v 0.000521 -0.000050 0.000027
v 0.000522 -0.000044 0.000188
v -0.000591 0.000100 -0.000183
v -0.000434 0.000086 -0.000174
v -0.000648 0.000096 -0.000244
v 0.000362 -0.000016 0.000188
v 0.000869 0.000084 0.000282
v 0.000003 -0.000089 0.000009
v -0.000465 -0.000079 -0.000177
v -0.000466 -0.000094 -0.000114
v 0.000683 -0.000003 0.000080
v 0.000654 -0.000055 0.000111
v 0.000255 -0.000031 -0.000042
v 0.000228 0.000057 0.000116
v 0.000716 0.000007 0.000287
v 0.000612 -0.000017 0.000244
v -0.000607 -0.000077 -0.000231
v -0.000570 0.000051 -0.000221
v -0.000603 -0.000025 -0.000277
v -0.000766 -0.000039 -0.000341
v -0.000740 -0.000113 -0.000365
v 0.000679 0.000047 0.000097
v 0.000335 0.000004 -0.000040
v -0.000218 -0.000046 -0.000047
v 0.000147 -0.000046 0.000126
v 0.000113 0.000016 0.000143
v 0.000294 -0.000060 -0.000003
v 0.000094 -0.000069 -0.000012
v -0.000695 0.000068 -0.000200
v -0.000646 0.000103 -0.000168
v -0.000247 0.000055 -0.000034
v -0.000019 -0.000050 -0.000062
v -0.000115 0.000049 0.000103
v -0.000012 0.000073 -0.000007
v 0.000160 -0.000083 0.000061
v -0.000207 -0.000060 0.000040
v 0.000838 -0.000031 0.000292
v 0.000169 0.000034 -0.000008
v -0.000287 0.000023 -0.000113
v -0.000523 -0.000001 -0.000216
v 0.000116 0.000015 -0.000034
v 0.000276 -0.000067 0.000110
v 0.000644 0.000064 0.000167
v -0.000616 -0.000054 -0.000092
v -0.000049 -0.000020 -0.000080
v 0.000801 -0.000048 0.000145
v 0.000316 0.000044 0.000009
v 0.000552 0.000030 0.000244
v 0.000830 0.000047 0.000150
v 0.000914 0.000037 0.000161
v -0.000443 -0.000066 0.000001
v -0.000429 0.000061 -0.000012
v -0.000669 -0.000046 -0.000362
v 0.000204 0.000055 0.000056
v -0.000474 0.000032 0.000012
v -0.000824 -0.000003 -0.000405
v 0.000479 0.000061 0.000184
v -0.000712 -0.000012 -0.000229
v 0.000041 -0.000095 0.000077
v -0.000204 0.000007 -0.000080
v -0.000662 0.000019 -0.000346
v -0.000722 0.000112 -0.000351
v -0.000714 0.000165 -0.000271
v -0.000796 -0.000252 -0.000329
v 0.000241 0.000018 0.000163
v -0.000771 0.000038 -0.000444
v -0.000113 0.000051 -0.000022
v -0.000007 0.000037 -0.000054
v -0.000561 -0.000015 -0.000028
v -0.000643 -0.000011 -0.000083
v -0.000119 0.000001 0.000132
v -0.000678 0.000017 -0.000118
v -0.000675 -0.000075 -0.000191
v -0.000809 0.000076 -0.000421
v -0.000769 -0.000051 -0.000413
v -0.000750 0.000113 -0.000319
v -0.000737 0.000202 -0.000356
v 0.000545 0.000031 0.000022
v -0.000788 -0.000272 -0.000381
v 0.000469 -0.000067 0.000100
v -0.000151 -0.000037 0.000108
v -0.000748 -0.000181 -0.000305
v 0.000663 0.000054 0.000266
v -0.000743 0.000248 -0.000315
v 0.000259 0.000004 -0.000035
v 0.000969 -0.000061 0.000261
v 0.000973 -0.000011 0.000187
v 0.000919 0.000025 0.000353
v 0.000929 0.000073 0.000254
v 0.000950 0.000055 0.000194
v 0.000920 0.000023 0.000354
v 0.000951 -0.000038 0.000305
v 0.000916 0.000084 0.000294
v 0.000976 -0.000057 0.000231
v 0.000922 0.000017 0.000350
v 0.000965 0.000018 0.000179
v 0.000915 0.000075 0.000307
v 0.000979 -0.000059 0.000220
v 0.000918 0.000038 0.000340
v 0.000955 0.000047 0.000184
vt 0.387023 0.875365
vt 0.385621 0.874972
vt 0.385329 0.873085
vt 0.175352 0.704455
vt 0.174952 0.698470
vt 0.176608 0.698015
vt 0.445950 0.306028
vt 0.448484 0.309132
vt 0.446537 0.310653
vt 0.232394 0.234307
vt 0.233343 0.234965
vt 0.231235 0.235590
vt 0.897583 0.612775
vt 0.899194 0.614622
vt 0.897184 0.614040
vt 0.017530 0.143069
vt 0.016525 0.143922
vt 0.015526 0.143911
vt 0.538874 0.943893
vt 0.543431 0.947251
vt 0.539899 0.947392
vt 0.881769 0.846538
vt 0.883704 0.845418
vt 0.882186 0.847846
vt 0.833933 0.960487
vt 0.831338 0.961360
vt 0.830231 0.960958
vt 0.569580 0.958026
vt 0.561831 0.960089
vt 0.564991 0.957890
vt 0.831332 0.318256
vt 0.833039 0.317567
vt 0.832518 0.319460
vt 0.374962 0.009922
vt 0.373318 0.008130
vt 0.376214 0.007787
vt 0.404896 0.408460
vt 0.410299 0.412864
vt 0.404545 0.410966
vt 0.399705 0.402754
vt 0.402398 0.405765
vt 0.401084 0.407748
vt 0.162750 0.996401
vt 0.165463 0.997793
vt 0.164439 0.999135
vt 0.451345 0.302723
vt 0.452760 0.304919
vt 0.452597 0.308960
vt 0.101889 0.926009
vt 0.099417 0.925165
vt 0.102210 0.924764
vt 0.892143 0.396408
vt 0.892094 0.395027
vt 0.893985 0.395360
vt 0.373996 0.866267
vt 0.373815 0.865795
vt 0.374300 0.866311
vt 0.544686 0.965023
vt 0.543151 0.965052
vt 0.545024 0.962928
vt 0.197834 0.977217
vt 0.197914 0.979172
vt 0.196700 0.979901
vt 0.448160 0.304867
vt 0.333338 0.475016
vt 0.332050 0.473593
vt 0.335144 0.471306
vt 0.487267 0.645918
vt 0.486803 0.643838
vt 0.488831 0.647436
vt 0.337789 0.463626
vt 0.340889 0.458015
vt 0.341915 0.458974
vt 0.411134 0.416211
vt 0.412851 0.414938
vt 0.414080 0.417157
vt 0.409761 0.418790
vt 0.407350 0.416767
vt 0.679212 0.521509
vt 0.676811 0.525551
vt 0.677280 0.522200
vt 0.403495 0.405363
vt 0.401623 0.402689
vt 0.456238 0.307398
vt 0.454047 0.306941
vt 0.536415 0.947126
vt 0.537161 0.944991
vt 0.449056 0.317175
vt 0.446616 0.318790
vt 0.450145 0.314077
vt 0.938127 0.652406
vt 0.936834 0.651920
vt 0.934771 0.650541
vt 0.332882 0.470170
vt 0.334771 0.467841
vt 0.420264 0.200872
vt 0.419618 0.200244
vt 0.421533 0.201605
vt 0.536031 0.386452
vt 0.537873 0.386279
vt 0.537148 0.387704
vt 0.268870 0.613198
vt 0.270048 0.612638
vt 0.270076 0.613986
vt 0.094208 0.969732
vt 0.096196 0.971327
vt 0.094388 0.972454
vt 0.894315 0.397817
vt 0.378291 0.006727
vt 0.380089 0.010740
vt 0.062009 0.959623
vt 0.064367 0.957509
vt 0.062656 0.960813
vt 0.327782 0.484343
vt 0.328795 0.484809
vt 0.327246 0.488658
vt 0.671648 0.303169
vt 0.674802 0.305576
vt 0.670495 0.304133
vt 0.260604 0.881444
vt 0.260275 0.877763
vt 0.261331 0.879164
vt 0.201562 0.561320
vt 0.200081 0.561612
vt 0.200249 0.560364
vt 0.390815 0.026852
vt 0.393497 0.026488
vt 0.394952 0.029668
vt 0.331404 0.958810
vt 0.329262 0.959897
vt 0.329286 0.958023
vt 0.325694 0.957757
vt 0.373345 0.003361
vt 0.680856 0.516363
vt 0.681832 0.517689
vt 0.386702 0.877452
vt 0.384956 0.878156
vt 0.769908 0.279433
vt 0.768945 0.276614
vt 0.771789 0.279471
vt 0.749855 0.783306
vt 0.749620 0.780716
vt 0.751222 0.781477
vt 0.189600 0.757126
vt 0.188482 0.757492
vt 0.187102 0.756090
vt 0.581513 0.499973
vt 0.582481 0.503835
vt 0.581011 0.505220
vt 0.856376 0.495123
vt 0.857151 0.492568
vt 0.858195 0.494591
vt 0.619180 0.056643
vt 0.619486 0.057494
vt 0.617687 0.057462
vt 0.338420 0.466323
vt 0.335740 0.473659
vt 0.449876 0.312369
vt 0.031130 0.975190
vt 0.029694 0.977477
vt 0.026836 0.978720
vt 0.581676 0.496037
vt 0.582617 0.493732
vt 0.769773 0.121308
vt 0.768503 0.121461
vt 0.769411 0.119896
vt 0.583680 0.501014
vt 0.911778 0.252532
vt 0.910327 0.252427
vt 0.911441 0.251040
vt 0.969233 0.551984
vt 0.969570 0.550528
vt 0.970741 0.550659
vt 0.741654 0.651790
vt 0.742929 0.651922
vt 0.740418 0.652599
vt 0.472267 0.152981
vt 0.472878 0.154131
vt 0.471187 0.153739
vt 0.259054 0.476539
vt 0.258551 0.475904
vt 0.259654 0.474619
vt 0.469936 0.153109
vt 0.380208 0.008543
vt 0.609582 0.690427
vt 0.607436 0.691972
vt 0.606713 0.690619
vt 0.338091 0.981019
vt 0.338554 0.982829
vt 0.336437 0.982099
vt 0.898206 0.368422
vt 0.897345 0.369353
vt 0.896503 0.366809
vt 0.661777 0.788208
vt 0.658862 0.788632
vt 0.660649 0.785310
vt 0.290568 0.391813
vt 0.290464 0.392604
vt 0.288909 0.391799
vt 0.300499 0.392225
vt 0.298891 0.392756
vt 0.299280 0.391853
vt 0.678341 0.311266
vt 0.677485 0.310811
vt 0.332926 0.479061
vt 0.740375 0.264555
vt 0.740336 0.261704
vt 0.741628 0.264117
vt 0.225428 0.829892
vt 0.224913 0.828425
vt 0.226063 0.828893
vt 0.611996 0.689175
vt 0.612500 0.687575
vt 0.614965 0.687425
vt 0.614933 0.685256
vt 0.496612 0.745979
vt 0.496148 0.747703
vt 0.492406 0.746373
vt 0.674215 0.308339
vt 0.019217 0.987993
vt 0.020760 0.988624
vt 0.015363 0.989846
vt 0.329600 0.481319
vt 0.307673 0.960902
vt 0.310080 0.961429
vt 0.307748 0.963147
vt 0.389363 0.022275
vt 0.540947 0.963305
vt 0.541018 0.965415
vt 0.535989 0.963136
vt 0.015313 0.862194
vt 0.015979 0.861387
vt 0.016070 0.863961
vt 0.397066 0.402873
vt 0.397370 0.400477
vt 0.395001 0.403654
vt 0.931478 0.702867
vt 0.930070 0.702477
vt 0.931897 0.702370
vt 0.329101 0.187808
vt 0.328399 0.186384
vt 0.329873 0.186877
vt 0.003814 0.239240
vt 0.002500 0.240081
vt 0.001867 0.239345
vt 0.064114 0.302719
vt 0.062953 0.303977
vt 0.063044 0.302802
vt 0.137836 0.983787
vt 0.130683 0.983690
vt 0.135219 0.983085
vt 0.131520 0.983383
vt 0.327978 0.490279
vt 0.329165 0.488518
vt 0.893631 0.254496
vt 0.893162 0.252928
vt 0.894193 0.253024
vt 0.489656 0.748699
vt 0.378642 0.862843
vt 0.377864 0.861997
vt 0.379681 0.861486
vt 0.175922 0.696419
vt 0.115592 0.472575
vt 0.116943 0.474107
vt 0.115563 0.474331
vt 0.247988 0.878954
vt 0.248844 0.879069
vt 0.245821 0.880807
vt 0.223803 0.833473
vt 0.224708 0.832481
vt 0.224952 0.834520
vt 0.226025 0.831554
vt 0.222944 0.831943
vt 0.530723 0.396559
vt 0.531490 0.390580
vt 0.532159 0.390574
vt 0.694478 0.255904
vt 0.693878 0.253697
vt 0.694728 0.252698
vt 0.342370 0.461071
vt 0.341426 0.460808
vt 0.144009 0.108720
vt 0.142504 0.107607
vt 0.144577 0.108032
vt 0.623765 0.467201
vt 0.624094 0.467770
vt 0.623172 0.468561
vt 0.385505 0.018430
vt 0.383105 0.012649
vt 0.386004 0.015704
vt 0.258155 0.557960
vt 0.260285 0.558409
vt 0.257997 0.558263
vt 0.162348 0.998832
vt 0.196066 0.977232
vt 0.192975 0.978144
vt 0.191723 0.977552
vt 0.762761 0.149179
vt 0.760779 0.150145
vt 0.761313 0.147890
vt 0.580517 0.502590
vt 0.381391 0.010195
vt 0.776615 0.425072
vt 0.774771 0.423486
vt 0.776616 0.422852
vt 0.928008 0.702685
vt 0.929193 0.704074
vt 0.394770 0.405387
vt 0.397727 0.407099
vt 0.373213 0.004372
vt 0.388260 0.018489
vt 0.388007 0.023138
vt 0.318957 0.414952
vt 0.319187 0.413572
vt 0.320378 0.414981
vt 0.262400 0.879488
vt 0.261002 0.883428
vt 0.261686 0.919322
vt 0.259874 0.915576
vt 0.262321 0.915950
vt 0.538622 0.962079
vt 0.834222 0.355772
vt 0.835623 0.354071
vt 0.836311 0.354560
vt 0.399509 0.398266
vt 0.024000 0.456808
vt 0.024609 0.455548
vt 0.025041 0.456898
vt 0.259527 0.186679
vt 0.258599 0.186490
vt 0.258305 0.185127
vt 0.379703 0.012022
vt 0.769561 0.275778
vt 0.770831 0.275792
vt 0.534274 0.944508
vt 0.953566 0.111443
vt 0.955671 0.111021
vt 0.956839 0.111386
vt 0.541948 0.948940
vt 0.217386 0.978296
vt 0.218528 0.976961
vt 0.219366 0.978244
vt 0.197566 0.745198
vt 0.197083 0.743079
vt 0.200966 0.745548
vt 0.307330 0.149255
vt 0.307478 0.146994
vt 0.308676 0.147366
vt 0.869994 0.917660
vt 0.869601 0.914416
vt 0.871274 0.916875
vt 0.255712 0.683545
vt 0.251737 0.680997
vt 0.254563 0.681265
vt 0.774919 0.569293
vt 0.777342 0.566431
vt 0.776472 0.568971
vt 0.325219 0.959298
vt 0.976853 0.372412
vt 0.975775 0.368028
vt 0.976746 0.369287
vt 0.762031 0.119265
vt 0.762076 0.119995
vt 0.761124 0.120103
vt 0.643478 0.150262
vt 0.641970 0.148717
vt 0.644234 0.149429
vt 0.644288 0.149548
vt 0.318893 0.414169
vt 0.843913 0.860769
vt 0.843390 0.859319
vt 0.845509 0.858421
vt 0.602539 0.804237
vt 0.601648 0.806506
vt 0.599370 0.808506
vt 0.599282 0.808486
vt 0.911168 0.516501
vt 0.910235 0.515016
vt 0.912848 0.516496
vt 0.912447 0.516817
vt 0.376441 0.863281
vt 0.374920 0.863248
vt 0.598551 0.805917
vt 0.602486 0.801843
vt 0.598294 0.807277
vt 0.598170 0.807189
vt 0.599244 0.808399
vt 0.488318 0.644370
vt 0.488837 0.646367
vt 0.101790 0.923037
vt 0.102771 0.923543
vn 0.4573 0.4801 -0.7486
vn 0.7277 -0.1359 -0.6723
vn 0.6771 -0.2688 -0.6850
vn 0.2479 0.6663 -0.7033
vn 0.4397 -0.1091 -0.8915
vn 0.2394 0.7230 -0.6481
vn 0.0159 0.9025 0.4305
vn -0.8679 0.2575 0.4247
vn -0.3439 0.8355 0.4285
vn -0.0717 0.9415 0.3292
vn -0.1927 0.8481 0.4935
vn 0.0466 0.9847 -0.1681
vn 0.0326 -0.9549 0.2951
vn -0.0637 -0.5942 0.8018
vn 0.0414 -0.9934 0.1069
vn 0.1611 -0.8714 -0.4633
vn 0.0937 -0.7811 -0.6174
vn 0.0576 0.0092 -0.9983
vn 0.1198 0.1416 -0.9826
vn -0.0462 0.9196 -0.3902
vn 0.0159 -0.9999 -0.0004
vn -0.2209 -0.7072 0.6716
vn -0.4562 -0.7070 0.5405
vn 0.2952 -0.7189 -0.6293
vn -0.0267 0.1254 -0.9918
vn 0.3276 0.7276 -0.6028
vn 0.1710 0.9617 -0.2140
vn 0.5381 0.2294 -0.8111
vn 0.5990 0.6934 -0.4004
vn 0.2215 0.9476 -0.2303
vn 0.0257 -0.9318 0.3619
vn -0.0543 -0.9651 -0.2564
vn 0.4524 0.1266 -0.8828
vn 0.3143 -0.7384 -0.5966
vn 0.3043 -0.9243 -0.2304
vn 0.1303 -0.8251 -0.5497
vn -0.9213 -0.2131 -0.3253
vn -0.7752 -0.4174 0.4742
vn -0.8822 -0.0615 0.4669
vn 0.6304 -0.4540 0.6296
vn -0.1718 -0.8343 0.5239
vn 0.6401 -0.7339 0.2274
vn 0.0368 0.9088 -0.4155
vn 0.0707 0.9785 -0.1938
vn 0.4302 0.8646 0.2598
vn 0.6491 0.7598 -0.0380
vn -0.0938 0.9742 0.2054
vn 0.7370 0.2707 -0.6193
vn -0.1520 0.0528 0.9870
vn -0.8971 0.1724 0.4068
vn -0.2153 0.2660 0.9396
vn -0.0350 0.2595 0.9651
vn 0.7706 -0.6323 -0.0797
vn 0.1559 -0.8237 -0.5452
vn 0.8436 -0.0594 -0.5337
vn -0.0928 0.8611 0.5000
vn -0.0537 0.9220 0.3835
vn -0.3717 0.3390 0.8642
vn 0.1928 -0.5992 -0.7770
vn -0.0071 -0.9952 0.0976
vn -0.5437 -0.4254 0.7235
vn -0.3279 -0.4648 -0.8225
vn -0.0303 0.9702 -0.2404
vn 0.0550 0.5216 -0.8514
vn -0.5131 -0.1708 0.8412
vn -0.7011 -0.0819 0.7083
vn -0.5978 -0.4951 0.6305
vn 0.0025 0.9980 -0.0633
vn -0.2443 0.7112 0.6592
vn -0.0319 -0.9980 0.0547
vn -0.0593 -0.9125 0.4047
vn -0.1850 -0.3813 0.9058
vn 0.0457 0.4847 -0.8735
vn 0.0356 -0.2994 -0.9535
vn -0.3016 0.2209 0.9275
vn 0.2852 0.2950 -0.9119
vn -0.6989 0.5535 -0.4530
vn 0.1871 0.9151 -0.3572
vn 0.0244 -0.0004 -0.9997
vn 0.8071 0.2805 -0.5195
vn -0.5329 -0.6620 0.5271
vn 0.0534 0.7722 -0.6331
vn -0.7695 0.1052 0.6299
vn 0.2102 -0.9135 -0.3484
vn -0.1837 -0.7176 0.6718
vn -0.2432 -0.6117 0.7527
vn 0.3185 0.4658 -0.8256
vn -0.0757 -0.4829 -0.8724
vn -0.3329 -0.8205 -0.4648
vn -0.2205 -0.2903 0.9312
vn 0.2424 0.9557 0.1673
vn -0.1015 0.3307 -0.9383
vn 0.4371 0.6385 0.6334
vn 0.4808 0.6153 0.6246
vn 0.7349 0.5949 -0.3255
vn 0.8381 0.1275 -0.5304
vn 0.7497 -0.6073 0.2627
vn 0.5915 -0.2464 0.7677
vn 0.4788 -0.0503 0.8765
vn 0.5681 0.8164 -0.1037
vn 0.3450 0.4037 0.8474
usemtl sungaya_inexpectata_31mg
s 1
f 19/1/1 20/2/2 54/3/3
f 50/4/4 12/5/5 23/6/6
f 64/7/7 30/8/8 31/9/9
f 15/10/10 58/11/11 1/12/12
f 43/13/13 26/14/14 36/15/15
f 28/16/16 36/17/15 29/18/17
f 46/19/18 61/20/19 68/21/20
f 11/22/21 52/23/22 45/24/23
f 2/25/24 28/26/16 24/27/25
f 5/28/26 32/29/27 40/30/28
f 6/31/29 31/32/9 4/33/30
f 60/34/31 9/35/32 29/36/17
f 41/37/33 40/38/28 10/39/34
f 54/40/3 20/41/2 18/42/35
f 25/43/36 9/44/32 60/45/31
f 57/46/37 21/47/38 59/48/39
f 93/49/40 38/50/41 87/51/42
f 48/52/43 55/53/44 15/54/10
f 94/55/45 90/56/46 8/57/47
f 64/58/7 6/59/29 62/60/48
f 60/61/31 26/62/14 72/63/49
f 64/7/7 77/64/50 59/48/39
f 66/65/51 15/66/10 27/67/52
f 99/68/53 47/69/54 88/70/55
f 34/71/56 53/72/57 56/73/58
f 25/74/36 61/75/19 33/76/59
f 25/74/36 37/77/60 11/78/21
f 43/79/13 36/80/15 28/81/16
f 19/82/1 54/40/3 62/83/48
f 83/84/61 59/48/39 22/85/62
f 68/21/20 35/86/63 69/87/64
f 70/88/65 56/89/58 71/90/66
f 34/91/56 68/92/20 32/93/27
f 15/94/10 34/95/56 27/67/52
f 59/48/39 30/8/8 64/7/7
f 83/96/61 22/97/62 65/98/67
f 29/99/17 36/100/15 60/101/31
f 44/102/68 84/103/69 8/104/47
f 81/105/70 3/106/71 7/107/72
f 1/108/12 48/52/43 15/54/10
f 42/109/73 14/110/74 29/36/17
f 44/111/68 58/112/11 84/113/69
f 58/114/11 49/115/75 84/116/69
f 4/117/30 53/118/57 5/119/26
f 53/120/57 4/121/30 31/122/9
f 52/123/22 70/124/65 45/125/23
f 47/126/54 50/127/4 51/128/76
f 57/129/37 77/130/50 75/131/77
f 75/131/77 77/130/50 78/132/78
f 57/46/37 59/48/39 77/64/50
f 29/36/17 46/133/18 42/109/73
f 43/79/13 28/81/16 2/134/24
f 81/135/70 43/79/13 2/134/24
f 20/2/2 41/136/33 10/137/34
f 62/138/48 67/139/79 63/140/80
f 25/74/36 40/38/28 61/75/19
f 74/141/81 11/142/21 45/143/23
f 11/144/21 74/145/81 18/146/35
f 39/147/82 48/148/43 24/149/25
f 67/150/79 78/151/78 63/152/80
f 6/153/29 4/154/30 19/155/1
f 72/156/49 26/157/14 27/67/52
f 31/9/9 30/8/8 73/158/83
f 35/159/63 15/160/10 55/161/44
f 39/147/82 69/162/64 35/163/63
f 34/164/56 15/165/10 35/166/63
f 39/147/82 35/163/63 55/167/44
f 11/168/21 10/169/34 25/170/36
f 81/171/70 13/172/84 3/173/71
f 68/174/20 34/175/56 35/176/63
f 39/147/82 55/167/44 48/148/43
f 47/177/54 38/178/41 17/179/85
f 3/180/71 13/181/84 47/182/54
f 17/179/85 3/183/71 47/177/54
f 14/110/74 42/109/73 39/184/82
f 1/185/12 44/186/68 23/187/6
f 1/188/12 58/189/11 44/190/68
f 8/191/47 23/192/6 44/193/68
f 72/194/49 82/195/86 60/196/31
f 17/197/85 49/198/75 7/199/72
f 17/200/85 7/201/72 3/202/71
f 34/203/56 32/204/27 53/118/57
f 26/157/14 7/205/72 66/65/51
f 7/206/72 26/207/14 43/208/13
f 59/209/39 21/210/38 22/211/62
f 1/212/12 79/213/87 48/214/43
f 79/213/87 24/215/25 48/214/43
f 82/216/86 56/217/58 52/218/22
f 53/118/57 32/204/27 5/219/26
f 20/2/2 19/1/1 41/136/33
f 67/220/79 75/221/77 78/222/78
f 58/223/11 7/205/72 49/115/75
f 61/224/19 40/225/28 32/226/27
f 50/127/4 47/126/54 12/227/5
f 10/39/34 40/38/28 25/74/36
f 19/228/1 4/229/30 5/230/26
f 57/231/37 76/232/88 22/233/62
f 22/234/62 76/235/88 54/40/3
f 80/236/89 22/234/62 18/42/35
f 54/40/3 18/42/35 22/234/62
f 6/237/29 64/238/7 31/239/9
f 57/240/37 67/241/79 76/242/88
f 1/243/12 23/244/6 79/245/87
f 26/246/14 60/247/31 36/248/15
f 82/249/86 52/250/22 37/251/60
f 11/252/21 37/251/60 52/250/22
f 84/116/69 49/115/75 16/253/90
f 49/115/75 17/254/85 16/253/90
f 61/255/19 46/256/18 33/257/59
f 70/258/65 52/218/22 56/217/58
f 8/259/47 50/260/4 23/261/6
f 23/6/6 12/5/5 79/262/87
f 2/263/24 13/264/84 81/265/70
f 27/266/52 26/267/14 66/268/51
f 73/269/83 59/270/39 71/271/66
f 59/270/39 74/272/81 71/271/66
f 73/269/83 30/273/8 59/270/39
f 25/274/36 33/275/59 9/276/32
f 72/277/49 34/278/56 56/279/58
f 82/280/86 72/156/49 56/281/58
f 11/282/21 18/283/35 10/284/34
f 18/42/35 20/41/2 10/39/34
f 78/285/78 85/286/91 64/287/7
f 2/288/24 24/289/25 79/290/87
f 85/291/91 77/292/50 64/293/7
f 25/43/36 60/45/31 37/294/60
f 60/295/31 82/296/86 37/297/60
f 22/298/62 21/299/38 57/300/37
f 39/147/82 24/149/25 86/301/92
f 86/302/92 14/110/74 39/184/82
f 63/303/80 78/304/78 64/305/7
f 63/306/80 64/238/7 62/307/48
f 6/59/29 19/228/1 62/60/48
f 83/308/61 80/236/89 18/42/35
f 18/42/35 74/309/81 83/308/61
f 33/310/59 46/133/18 29/36/17
f 9/35/32 33/310/59 29/36/17
f 12/227/5 2/288/24 79/311/87
f 13/312/84 2/288/24 12/227/5
f 98/313/93 8/314/47 100/315/94
f 71/90/66 31/9/9 73/158/83
f 56/89/58 31/9/9 71/90/66
f 53/120/57 31/316/9 56/317/58
f 40/318/28 41/319/33 5/320/26
f 5/230/26 41/321/33 19/228/1
f 46/19/18 68/21/20 69/87/64
f 74/322/81 45/323/23 71/324/66
f 76/235/88 67/325/79 54/40/3
f 54/326/3 67/327/79 62/328/48
f 86/302/92 24/289/25 14/110/74
f 24/329/25 28/330/16 14/331/74
f 14/110/74 28/332/16 29/36/17
f 67/139/79 57/333/37 75/334/77
f 46/19/18 69/87/64 39/335/82
f 46/336/18 39/337/82 42/338/73
f 32/339/27 68/21/20 61/20/19
f 58/340/11 66/341/51 7/342/72
f 16/343/90 17/344/85 38/345/41
f 58/223/11 15/66/10 66/65/51
f 70/346/65 71/347/66 45/348/23
f 59/349/39 83/350/61 74/351/81
f 7/352/72 43/353/13 81/354/70
f 80/355/89 83/356/61 65/357/67
f 77/130/50 85/358/91 78/132/78
f 34/95/56 72/156/49 27/67/52
f 13/312/84 12/227/5 47/126/54
f 22/359/62 80/360/89 65/361/67
f 51/362/76 101/363/95 97/364/96
f 38/365/41 47/366/54 99/367/53 95/368/97
f 8/314/47 98/313/93 94/369/45
f 38/370/41 93/371/40 96/372/98
f 16/373/90 38/374/41 96/375/98 92/376/99
f 51/377/76 50/378/4 91/379/100 101/380/95
f 50/260/4 8/259/47 90/381/46 91/382/100
f 8/383/47 84/384/69 89/385/101 100/386/94
f 84/384/69 16/373/90 92/376/99 89/387/101
f 47/69/54 51/388/76 97/389/96 88/70/55
f 38/50/41 95/390/97 87/391/42
f 93/49/40 88/70/55 90/56/46
f 94/369/45 98/313/93 90/56/46
f 98/313/93 100/386/94 90/56/46
f 100/386/94 89/387/101 92/376/99
f 92/376/99 96/372/98 100/386/94
f 96/372/98 93/49/40 100/386/94
f 93/49/40 87/391/42 88/70/55
f 87/391/42 95/368/97 88/70/55
f 95/368/97 99/68/53 88/70/55
f 88/70/55 97/364/96 101/380/95
f 101/380/95 91/382/100 88/70/55
f 91/382/100 90/56/46 88/70/55
f 90/56/46 100/386/94 93/49/40
