# Blender v2.79 (sub 0) OBJ File: 'redo_fixed_360_joints.blend'
# www.blender.org
mtllib sungaya_inexpectata_31mg.mtl
o 26-h-l-coxa.000_Sungaya_inexpectata_31mg.074
v -0.000239 0.000001 0.000018
v -0.000272 0.000063 0.000174
v 0.000087 -0.000144 -0.000294
v -0.000237 0.000030 -0.000073
v 0.000006 -0.000060 0.000361
v -0.000053 0.000192 -0.000344
v 0.000097 -0.000033 -0.000331
v -0.000139 0.000174 0.000204
v 0.000079 -0.000161 -0.000034
v 0.000036 -0.000153 0.000333
v -0.000272 0.000214 -0.000049
v -0.000204 0.000238 -0.000093
v -0.000095 0.000248 -0.000103
v -0.000025 0.000220 -0.000172
v 0.000146 0.000064 -0.000354
v 0.000075 0.000141 -0.000302
v 0.000231 0.000159 -0.000200
v -0.000186 -0.000272 0.000088
v -0.000228 -0.000253 0.000127
v 0.000065 0.000212 -0.000137
v -0.000115 0.000095 0.000297
v 0.000299 0.000019 -0.000297
v 0.000288 -0.000113 -0.000189
v 0.000299 -0.000108 -0.000080
v 0.000059 -0.000226 0.000262
v -0.000091 0.000257 0.000026
v 0.000134 -0.000233 0.000320
v 0.000213 -0.000256 0.000259
v 0.000091 0.000070 -0.000360
v -0.000168 -0.000050 0.000302
v -0.000253 -0.000074 0.000257
v 0.000020 0.000147 0.000307
v 0.000112 0.000235 0.000080
v 0.000149 -0.000246 0.000413
v 0.000135 -0.000210 0.000118
v -0.000017 -0.000272 0.000188
v -0.000234 -0.000215 -0.000082
v 0.000231 0.000219 -0.000043
v -0.000196 -0.000253 -0.000123
v -0.000111 -0.000240 -0.000006
v -0.000006 0.000047 0.000358
v -0.000252 -0.000128 0.000179
v -0.000024 0.000144 -0.000394
v -0.000099 0.000001 -0.000383
v 0.000139 0.000246 0.000164
v 0.000030 0.000206 0.000213
v -0.000183 0.000244 -0.000208
v -0.000116 0.000235 -0.000251
v -0.000184 0.000247 0.000051
v 0.000165 -0.000125 -0.000289
v -0.000116 -0.000204 0.000258
v -0.000255 0.000087 0.000247
v 0.000107 -0.000129 0.000454
v 0.000081 -0.000143 -0.000117
v -0.000093 -0.000119 0.000307
v -0.000288 0.000189 0.000018
v -0.000234 0.000172 0.000149
v -0.000043 -0.000190 -0.000320
v -0.000079 -0.000222 -0.000258
v -0.000239 -0.000174 0.000231
v -0.000256 0.000124 -0.000053
v 0.000267 -0.000080 -0.000275
v -0.000062 -0.000111 -0.000402
v -0.000117 -0.000174 -0.000345
v 0.000266 -0.000118 0.000019
v -0.000238 -0.000183 -0.000092
v -0.000011 -0.000003 -0.000418
v 0.000107 -0.000240 0.000196
v -0.000013 -0.000145 -0.000381
v -0.000134 0.000157 -0.000326
v -0.000102 0.000001 -0.000384
v -0.000202 0.000248 -0.000197
v -0.000184 0.000228 -0.000231
v -0.000253 -0.000178 -0.000095
v -0.000164 -0.000233 -0.000263
v -0.000246 -0.000222 -0.000107
v -0.000274 0.000202 -0.000060
v -0.000149 0.000176 -0.000298
v -0.000109 0.000027 -0.000371
v -0.000226 -0.000250 -0.000145
v -0.000148 -0.000218 -0.000293
v -0.000171 0.000206 -0.000255
v -0.000272 0.000216 -0.000063
v -0.000105 -0.000023 -0.000379
v -0.000106 -0.000107 -0.000374
v -0.000138 0.000166 -0.000317
v -0.000279 0.000188 -0.000049
v -0.000121 -0.000182 -0.000345
v -0.000274 0.000117 -0.000059
v -0.000270 0.000169 -0.000067
v -0.000260 0.000226 -0.000087
v -0.000263 0.000031 -0.000078
v -0.000262 0.000014 -0.000080
v -0.000119 -0.000157 -0.000350
v -0.000246 -0.000193 -0.000107
v -0.000120 -0.000174 -0.000346
v -0.000193 0.000244 -0.000214
v -0.000223 0.000250 -0.000157
v -0.000274 0.000215 -0.000060
v -0.000212 -0.000250 -0.000171
v -0.000251 -0.000182 -0.000098
v 0.000167 -0.000259 0.000405
v 0.000132 0.000269 0.000235
v 0.000136 -0.000213 0.000473
v 0.000154 -0.000263 0.000445
v 0.000334 0.000077 -0.000272
v 0.000352 -0.000007 -0.000283
v 0.000125 -0.000165 0.000484
v 0.000332 0.000089 -0.000271
v 0.000270 -0.000120 0.000022
v 0.000233 0.000220 -0.000042
v 0.000216 -0.000255 0.000257
v 0.000324 0.000101 -0.000256
v 0.000118 -0.000095 0.000469
v 0.000240 0.000213 -0.000059
v 0.000215 -0.000257 0.000259
v 0.000099 0.000205 0.000367
v 0.000354 -0.000035 -0.000276
v 0.000235 -0.000232 0.000186
v 0.000243 -0.000221 0.000158
v 0.000114 -0.000071 0.000468
v 0.000302 -0.000108 -0.000080
v 0.000099 0.000203 0.000369
v 0.000271 -0.000119 0.000018
v 0.000098 0.000141 0.000406
v 0.000298 0.000159 -0.000207
v 0.000163 0.000257 0.000149
v 0.000356 -0.000080 -0.000256
v 0.000332 -0.000116 -0.000166
v 0.000112 -0.000061 0.000467
v 0.000338 -0.000116 -0.000185
v 0.000354 -0.000095 -0.000242
v 0.000168 0.000251 0.000136
v 0.000120 0.000269 0.000273
v 0.000124 -0.000139 0.000472
v 0.000330 0.000092 -0.000268
v 0.000269 -0.000126 0.000030
v 0.000215 -0.000258 0.000260
vt 0.419004 0.487637
vt 0.421718 0.489290
vt 0.420535 0.492837
vt 0.411353 0.680863
vt 0.409199 0.677478
vt 0.410706 0.677316
vt 0.615441 0.622093
vt 0.616470 0.618853
vt 0.617094 0.622631
vt 0.965150 0.760499
vt 0.967371 0.759371
vt 0.967447 0.760701
vt 0.887003 0.109075
vt 0.888334 0.105873
vt 0.887488 0.109981
vt 0.636248 0.621632
vt 0.636374 0.619785
vt 0.637335 0.619909
vt 0.231802 0.193716
vt 0.231393 0.191658
vt 0.232857 0.191805
vt 0.055874 0.425235
vt 0.055013 0.424853
vt 0.055848 0.424422
vt 0.056174 0.424903
vt 0.229328 0.129874
vt 0.229334 0.130971
vt 0.228604 0.129117
vt 0.545398 0.163945
vt 0.547062 0.161779
vt 0.547942 0.163524
vt 0.078075 0.887454
vt 0.078958 0.890457
vt 0.077928 0.888518
vt 0.533469 0.172153
vt 0.539331 0.172187
vt 0.538114 0.173358
vt 0.959460 0.173538
vt 0.961191 0.173331
vt 0.961201 0.174500
vt 0.475870 0.681010
vt 0.476854 0.682381
vt 0.475062 0.682251
vt 0.034937 0.833857
vt 0.035103 0.832412
vt 0.035592 0.834089
vt 0.422048 0.485456
vt 0.210977 0.466213
vt 0.210417 0.467102
vt 0.209330 0.467194
vt 0.637429 0.619573
vt 0.638156 0.619213
vt 0.706947 0.301660
vt 0.704384 0.303502
vt 0.701554 0.300139
vt 0.811800 0.665997
vt 0.812541 0.662919
vt 0.814901 0.667974
vt 0.987925 0.997847
vt 0.986592 0.997714
vt 0.986926 0.996269
vt 0.813312 0.662115
vt 0.812093 0.661571
vt 0.533415 0.167528
vt 0.101870 0.012134
vt 0.097858 0.009260
vt 0.101912 0.007451
vt 0.064878 0.944970
vt 0.065044 0.942161
vt 0.066209 0.940805
vt 0.934945 0.555008
vt 0.935531 0.555989
vt 0.933358 0.555876
vt 0.116951 0.632529
vt 0.112386 0.636385
vt 0.111791 0.630417
vt 0.112819 0.630630
vt 0.479704 0.679163
vt 0.544031 0.171914
vt 0.548730 0.167100
vt 0.266574 0.671339
vt 0.266520 0.671339
vt 0.265928 0.671315
vt 0.265967 0.671315
vt 0.535882 0.175883
vt 0.825501 0.664517
vt 0.825614 0.666088
vt 0.824624 0.664773
vt 0.702418 0.304026
vt 0.701435 0.303938
vt 0.540607 0.165658
vt 0.543242 0.166273
vt 0.542535 0.168410
vt 0.168809 0.730869
vt 0.168538 0.733576
vt 0.167086 0.733936
vt 0.710595 0.532172
vt 0.711961 0.534318
vt 0.709658 0.532933
vt 0.543707 0.158786
vt 0.539035 0.178160
vt 0.104257 0.008916
vt 0.620977 0.259182
vt 0.619674 0.257725
vt 0.620539 0.258153
vt 0.198585 0.737013
vt 0.199290 0.736873
vt 0.201122 0.739262
vt 0.800018 0.295929
vt 0.800756 0.295457
vt 0.801461 0.296591
vt 0.190001 0.098876
vt 0.191360 0.098447
vt 0.190406 0.100038
vt 0.003884 0.914329
vt 0.004867 0.916836
vt 0.001390 0.915512
vt 0.111863 0.630292
vt 0.509746 0.762110
vt 0.507231 0.762431
vt 0.507191 0.758993
vt 0.817002 0.666043
vt 0.814219 0.663249
vt 0.541398 0.171822
vt 0.615259 0.613496
vt 0.612993 0.616466
vt 0.613274 0.612438
vt 0.010038 0.021053
vt 0.014177 0.021470
vt 0.014019 0.022004
vt 0.610474 0.165290
vt 0.609973 0.164573
vt 0.610220 0.164681
vt 0.179762 0.560055
vt 0.179250 0.561417
vt 0.178683 0.560254
vt 0.888384 0.105861
vt 0.888349 0.105794
vt 0.539526 0.160920
vt 0.813865 0.676134
vt 0.812834 0.673400
vt 0.816325 0.673196
vt 0.421018 0.481957
vt 0.420862 0.482195
vt 0.420905 0.481901
vt 0.773238 0.905321
vt 0.774510 0.903798
vt 0.775631 0.905285
vt 0.574335 0.510096
vt 0.575858 0.510050
vt 0.573765 0.511993
vt 0.536687 0.161634
vt 0.535695 0.164081
vt 0.822578 0.662806
vt 0.821762 0.664865
vt 0.821251 0.663155
vt 0.063388 0.772008
vt 0.064579 0.774285
vt 0.062670 0.772919
vt 0.561377 0.953776
vt 0.562506 0.952397
vt 0.564727 0.955183
vt 0.009599 0.019270
vt 0.008758 0.019642
vt 0.009215 0.019225
vt 0.799980 0.325249
vt 0.801125 0.322688
vt 0.800519 0.326800
vt 0.533491 0.163348
vt 0.532745 0.165933
vt 0.093509 0.020809
vt 0.097803 0.018968
vt 0.095544 0.020282
vt 0.619373 0.259828
vt 0.619327 0.258865
vt 0.005764 0.018774
vt 0.005541 0.019029
vt 0.004157 0.018080
vt 0.118262 0.632503
vt 0.119406 0.635414
vt 0.115123 0.636705
vt 0.117429 0.632605
vt 0.100991 0.015001
vt 0.096200 0.013811
vt 0.014941 0.019206
vt 0.427087 0.169795
vt 0.427748 0.171317
vt 0.426219 0.170869
vt 0.504891 0.761383
vt 0.005123 0.022679
vt 0.003064 0.022314
vt 0.003812 0.019303
vt 0.410421 0.681378
vt 0.102024 0.019842
vt 0.615093 0.623677
vt 0.124465 0.394798
vt 0.125066 0.393476
vt 0.125987 0.394437
vt 0.820750 0.672090
vt 0.820111 0.673809
vt 0.102054 0.019861
vt 0.106988 0.018062
vt 0.106339 0.018536
vt 0.048417 0.029440
vt 0.047693 0.029406
vt 0.048602 0.028843
vt 0.167288 0.735973
vt 0.548552 0.171240
vt 0.042751 0.243021
vt 0.043673 0.242411
vt 0.044934 0.243358
vt 0.750993 0.423435
vt 0.753020 0.425498
vt 0.750973 0.424171
vt 0.706188 0.304574
vt 0.704893 0.304869
vt 0.574648 0.358532
vt 0.574167 0.358220
vt 0.574623 0.357924
vt 0.404693 0.730518
vt 0.404659 0.730515
vt 0.404669 0.730488
vt 0.818604 0.134643
vt 0.818642 0.134711
vt 0.818537 0.134689
vt 0.825561 0.663615
vt 0.825126 0.663119
vt 0.476411 0.676989
vt 0.479091 0.677603
vt 0.476365 0.678694
vt 0.547615 0.158456
vt 0.886683 0.097674
vt 0.886776 0.098041
vt 0.886612 0.097706
vt 0.323233 0.168266
vt 0.322381 0.167801
vt 0.322125 0.166075
vt 0.136874 0.031781
vt 0.134699 0.032225
vt 0.135393 0.031298
vt 0.540321 0.352572
vt 0.540939 0.353147
vt 0.539716 0.353620
vt 0.424189 0.489966
vt 0.705339 0.299929
vt 0.420562 0.481524
vt 0.419904 0.482514
vt 0.419843 0.480592
vt 0.637030 0.623183
vt 0.810295 0.665749
vt 0.809818 0.662859
vt 0.002812 0.017857
vt 0.002195 0.018026
vt 0.002284 0.017677
vt 0.535943 0.160146
vt 0.536441 0.159787
vt 0.536024 0.160213
vt 0.318539 0.119207
vt 0.318922 0.120954
vt 0.316960 0.120015
vt 0.552992 0.919994
vt 0.554972 0.920459
vt 0.553471 0.922470
vt 0.085712 0.933098
vt 0.085674 0.933966
vt 0.084590 0.932636
vt 0.084798 0.932260
vt 0.084558 0.932524
vt 0.399196 0.154969
vt 0.400832 0.154444
vt 0.399680 0.155923
vt 0.109078 0.633401
vt 0.108178 0.629643
vt 0.713596 0.605805
vt 0.713697 0.606206
vt 0.713405 0.606441
vt 0.635140 0.622975
vt 0.635784 0.624859
vt 0.101647 0.019948
vt 0.168808 0.736475
vt 0.168797 0.738171
vt 0.167639 0.737511
vt 0.531758 0.694491
vt 0.534372 0.692902
vt 0.532332 0.694959
vt 0.260296 0.767521
vt 0.257624 0.768424
vt 0.259576 0.764659
vt 0.714594 0.535031
vt 0.714328 0.532702
vt 0.111965 0.639158
vt 0.112209 0.639856
vt 0.052426 0.027817
vt 0.573155 0.837472
vt 0.569053 0.835571
vt 0.573414 0.836354
vt 0.683669 0.034720
vt 0.683960 0.036118
vt 0.682908 0.034758
vt 0.801373 0.299024
vt 0.799594 0.299868
vt 0.799724 0.298528
vt 0.073173 0.474405
vt 0.073306 0.475623
vt 0.072028 0.476277
vt 0.004821 0.915794
vt 0.825238 0.672767
vt 0.825760 0.667481
vt 0.006209 0.018773
vt 0.535291 0.160067
vt 0.003612 0.018091
vt 0.109393 0.626299
vt 0.109627 0.626882
vt 0.109728 0.628864
vt 0.111455 0.630001
vt 0.339265 0.404153
vt 0.338947 0.404504
vt 0.338522 0.404005
vt 0.118990 0.352446
vt 0.118631 0.352355
vt 0.118538 0.351949
vt 0.104162 0.004343
vt 0.101043 0.004560
vt 0.102631 0.004074
vt 0.643799 0.043233
vt 0.643778 0.042892
vt 0.644322 0.041307
vt 0.644639 0.041035
vt 0.533926 0.162156
vt 0.015021 0.019018
vt 0.103960 0.003942
vt 0.104129 0.004014
vt 0.772952 0.811670
vt 0.773178 0.811351
vt 0.773975 0.811054
vt 0.775201 0.811522
vt 0.540394 0.158008
vt 0.539773 0.158131
vt 0.540360 0.157872
vt 0.634587 0.850844
vt 0.635016 0.850993
vt 0.632623 0.850886
vt 0.631852 0.850782
vt 0.573956 0.360745
vt 0.573922 0.360750
vt 0.820890 0.667652
vt 0.825790 0.667051
vt 0.886348 0.099942
vt 0.888013 0.101589
vt 0.886776 0.105888
vt 0.888201 0.103728
vt 0.546328 0.174028
vt 0.544377 0.174120
vt 0.822367 0.675222
vt 0.822343 0.675250
vt 0.097918 0.020487
vt 0.092859 0.020824
vt 0.665379 0.396786
vt 0.665394 0.398368
vt 0.663847 0.399209
vt 0.663809 0.399208
vt 0.886698 0.097564
vt 0.872354 0.461168
vt 0.870139 0.462865
vt 0.870065 0.462824
vt 0.870600 0.460664
vt 0.547553 0.173469
vt 0.549837 0.169859
vt 0.549649 0.170242
vt 0.054187 0.024775
vt 0.054266 0.027102
vt 0.053833 0.026901
vt 0.052921 0.026031
vt 0.403673 0.732476
vt 0.403245 0.732748
vt 0.270168 0.668418
vn -0.2881 0.9368 0.1983
vn -0.5116 0.7463 0.4259
vn -0.2648 0.7797 0.5674
vn -0.9973 -0.0481 0.0554
vn -0.9205 0.3754 0.1083
vn -0.8863 -0.1687 0.4312
vn 0.2912 -0.9546 -0.0624
vn 0.0869 -0.9807 -0.1750
vn 0.0204 -0.9991 -0.0376
vn 0.1048 0.9905 -0.0892
vn -0.0025 0.9979 0.0641
vn -0.4282 -0.8992 0.0901
vn -0.2838 -0.9071 -0.3108
vn -0.7566 -0.6537 -0.0173
vn -0.5065 -0.5661 0.6504
vn -0.1836 -0.9826 0.0277
vn -0.8856 -0.4206 0.1971
vn -0.0482 -0.9981 0.0379
vn -0.0006 -0.4606 0.8876
vn -0.8064 -0.1780 0.5640
vn 0.1269 -0.8136 0.5673
vn -0.0043 1.0000 -0.0037
vn -0.1336 0.9381 -0.3195
vn 0.3962 -0.2788 -0.8748
vn 0.3467 0.2369 -0.9076
vn 0.2345 0.2354 -0.9432
vn 0.0619 -0.9830 0.1730
vn -0.6928 -0.6883 0.2150
vn 0.2786 -0.9424 -0.1852
vn 0.3090 -0.9063 -0.2883
vn -0.9903 -0.1385 0.0120
vn -0.6668 0.3576 0.6538
vn -0.2510 -0.0625 0.9660
vn -0.3208 0.4128 0.8525
vn 0.8406 0.0147 -0.5414
vn 0.2974 -0.0631 -0.9527
vn 0.8816 0.2455 -0.4031
vn 0.2621 -0.9549 -0.1394
vn 0.4129 -0.9065 0.0884
vn -0.3112 -0.2809 0.9079
vn -0.5736 -0.1958 0.7954
vn -0.8037 -0.1345 0.5796
vn -0.7403 -0.4491 0.5002
vn -0.1221 0.9894 0.0787
vn -0.6403 0.7562 0.1346
vn -0.2462 -0.6694 0.7009
vn 0.2674 0.9442 -0.1921
vn 0.0735 0.8124 -0.5785
vn -0.0479 0.9236 -0.3804
vn -0.1383 0.9012 0.4107
vn -0.7020 0.2393 -0.6708
vn 0.0829 0.5498 -0.8312
vn -0.1425 0.0763 -0.9869
vn -0.7110 0.0751 -0.6992
vn 0.2531 -0.5642 -0.7859
vn 0.6804 -0.7323 0.0287
vn 0.0732 -0.9476 -0.3110
vn 0.6827 -0.7263 0.0794
vn 0.1961 -0.9031 -0.3821
vn 0.1546 0.2921 0.9438
vn 0.2031 0.1072 0.9733
vn -0.5304 0.1986 0.8241
vn 0.4294 -0.7863 -0.4443
vn 0.2653 -0.7404 -0.6176
vn 0.1602 -0.0521 -0.9857
vn -0.9916 -0.0939 -0.0888
vn -0.7866 -0.0972 0.6097
vn -0.4969 0.8588 -0.1248
vn 0.1535 0.9490 -0.2754
vn -0.2779 0.0934 -0.9561
vn -0.5293 0.7896 -0.3104
vn 0.1509 0.9709 -0.1861
vn -0.3797 0.6817 -0.6254
vn -0.5021 0.6741 0.5418
vn 0.6625 -0.6962 -0.2764
vn 0.6926 -0.6992 -0.1773
vn 0.2718 -0.5682 -0.7767
vn -0.8855 0.4549 -0.0943
vn -0.7952 0.5608 -0.2304
vn 0.2150 0.5831 0.7835
vn 0.2370 0.4009 0.8849
vn 0.1818 -0.8701 -0.4582
vn -0.1547 -0.8735 0.4616
vn 0.1066 -0.9864 -0.1255
vn -0.9286 -0.1124 0.3537
vn -0.8689 -0.1197 0.4802
vn -0.5173 -0.7184 -0.4651
vn -0.5722 -0.7263 -0.3810
vn 0.7233 0.6592 -0.2055
vn 0.1007 0.8918 -0.4411
vn 0.6076 0.7401 -0.2880
vn -0.9120 -0.0838 0.4016
vn -0.9785 -0.1038 -0.1783
vn -0.7096 0.3550 -0.6086
vn -0.6653 0.3663 -0.6505
vn 0.3071 0.7912 -0.5289
vn -0.8577 -0.1999 0.4737
vn 0.4669 0.8833 -0.0430
vn 0.3471 0.9367 -0.0458
vn 0.3334 0.9275 -0.1691
vn 0.6852 -0.6666 0.2934
vn 0.7132 -0.7005 0.0251
vn 0.4942 -0.8677 0.0535
vn -0.8803 -0.4626 0.1052
vn -0.8997 -0.2094 0.3830
vn -0.0201 -0.0914 0.9956
vn 0.7374 -0.6440 -0.2036
vn 0.8258 -0.5414 -0.1578
vn -0.7395 0.6430 -0.1992
vn -0.5258 0.8050 -0.2747
vn -0.9507 0.0598 -0.3042
vn -0.4033 -0.1250 -0.9065
vn -0.7126 -0.1167 -0.6918
vn 0.1247 -0.3423 -0.9313
vn -0.1953 -0.2763 -0.9410
vn -0.9016 -0.4247 0.0823
vn -0.9944 -0.1011 0.0302
vn 0.8372 -0.3038 -0.4547
vn 0.7893 -0.5720 -0.2230
vn 0.6418 0.7659 -0.0387
vn 0.1404 0.9634 0.2282
vn 0.1668 0.6807 0.7133
vn 0.1984 0.9765 0.0844
vn 0.2173 0.1203 0.9687
vn -0.3460 -0.4241 -0.8369
vn -0.9872 -0.0162 -0.1588
vn -0.7227 -0.1009 -0.6838
vn -0.7194 -0.0448 -0.6931
vn -0.5162 -0.6355 -0.5742
vn -0.7172 -0.6828 -0.1395
vn -0.6459 0.3873 -0.6579
vn -0.4192 0.5299 -0.7372
vn 0.2217 0.0472 0.9740
vn 0.8117 -0.5786 -0.0790
vn 0.8139 -0.5773 -0.0646
vn 0.8375 -0.0968 -0.5378
vn 0.7595 0.5991 -0.2536
vn 0.8231 0.3920 -0.4108
usemtl sungaya_inexpectata_31mg
s 1
f 49/1/1 57/2/2 8/3/3
f 2/4/4 56/5/5 61/6/6
f 54/7/7 23/8/8 24/9/9
f 13/10/10 49/11/1 26/12/11
f 27/13/12 28/14/13 34/15/14
f 10/16/15 27/17/12 34/18/14
f 18/19/16 37/20/17 39/21/18
f 104/22/19 53/23/20 34/24/14 105/25/21
f 26/26/11 33/27/22 38/28/23
f 7/29/24 29/30/25 15/31/26
f 18/32/16 36/33/27 19/34/28
f 40/35/29 54/36/7 9/37/30
f 37/38/17 19/39/28 42/40/31
f 52/41/32 30/42/33 21/43/34
f 107/44/35 22/45/36 106/46/37
f 49/1/1 56/47/5 57/2/2
f 54/48/7 39/49/18 59/50/38
f 102/51/39 105/52/21 34/18/14
f 55/53/40 5/54/41 21/55/34
f 31/56/42 60/57/43 30/58/33
f 56/59/5 12/60/44 11/61/45
f 51/62/46 60/57/43 19/63/28
f 54/36/7 40/35/29 39/64/18
f 14/65/47 6/66/48 48/67/49
f 46/68/50 26/69/11 49/70/1
f 8/71/3 46/72/50 49/73/1
f 70/74/51 43/75/52 44/76/53 79/77/54
f 30/42/33 52/41/32 31/78/42
f 62/79/55 7/29/24 15/80/26
f 124/81/56 65/82/57 24/83/9 122/84/58
f 40/35/29 9/37/30 35/85/59
f 135/86/60 114/87/61 53/88/20
f 5/89/41 41/90/62 21/55/34
f 3/91/63 7/92/24 50/93/64
f 26/94/11 46/95/50 33/96/22
f 6/97/48 29/98/25 43/99/52
f 7/29/24 67/100/65 29/30/25
f 9/37/30 54/36/7 65/101/57
f 13/102/10 14/65/47 48/67/49
f 1/103/66 61/104/6 4/105/67
f 38/106/23 33/107/22 45/108/68
f 40/109/29 36/110/27 18/111/16
f 40/112/29 35/113/59 36/114/27
f 14/115/47 26/116/11 20/117/69
f 71/118/70 79/77/54 44/76/53
f 56/119/5 49/120/1 12/121/44
f 55/122/40 60/57/43 51/123/46
f 50/93/64 23/124/8 54/36/7
f 50/125/64 54/126/7 3/127/63
f 35/85/59 9/37/30 65/101/57
f 1/128/66 37/129/17 42/130/31
f 72/131/71 47/132/72 97/133/73
f 8/134/3 32/135/74 46/136/50
f 116/137/75 28/14/13 112/138/76
f 3/91/63 69/139/77 7/29/24
f 8/140/3 52/141/32 21/142/34
f 99/143/78 11/144/45 83/145/79
f 48/146/49 47/147/72 12/148/44
f 50/93/64 7/29/24 62/79/55
f 123/149/80 41/150/62 125/151/81
f 58/152/82 3/91/63 59/153/38
f 27/154/12 10/155/15 25/156/83
f 1/157/66 42/158/31 2/159/4
f 36/160/27 35/161/59 68/162/84
f 93/163/85 4/164/67 92/165/86
f 55/122/40 30/58/33 60/57/43
f 20/166/69 26/167/11 38/168/23
f 75/169/87 59/153/38 39/64/18 100/170/88
f 113/171/89 17/172/90 126/173/91
f 1/103/66 2/174/4 61/175/6
f 89/176/92 61/177/6 90/178/93
f 78/179/94 48/180/49 6/181/48 86/182/95
f 20/183/69 16/184/96 14/65/47
f 66/185/97 37/129/17 1/128/66
f 36/186/27 25/187/83 51/188/46
f 12/121/44 49/120/1 13/189/10
f 52/190/32 57/191/2 56/192/5
f 2/4/4 52/193/32 56/5/5
f 38/194/23 17/172/90 20/183/69
f 24/9/9 65/195/57 54/7/7
f 32/196/74 8/197/3 21/198/34
f 21/142/34 41/199/62 32/200/74
f 111/201/98 38/194/23 45/202/68 133/203/99
f 127/204/100 133/205/99 45/206/68
f 46/95/50 45/207/68 33/96/22
f 69/139/77 67/100/65 7/29/24
f 62/79/55 15/80/26 22/208/36
f 51/209/46 25/210/83 10/211/15
f 51/212/46 10/213/15 55/214/40
f 55/53/40 10/215/15 5/216/41
f 129/217/101 23/218/8 131/219/102
f 138/220/103 28/221/13 116/222/75
f 101/223/104 66/224/97 74/225/105
f 108/226/106 53/88/20 104/227/19
f 108/226/106 135/86/60 53/88/20
f 31/78/42 2/228/4 42/229/31
f 2/228/4 31/78/42 52/230/32
f 67/100/65 43/231/52 29/30/25
f 110/232/107 137/233/108 65/234/57
f 54/36/7 59/153/38 3/91/63
f 68/235/84 25/236/83 36/237/27
f 28/238/13 27/239/12 68/240/84
f 68/241/84 27/242/12 25/243/83
f 52/244/32 8/3/3 57/2/2
f 55/53/40 21/55/34 30/245/33
f 1/128/66 4/164/67 66/185/97
f 91/246/109 11/144/45 12/247/44 98/248/110
f 53/249/20 10/16/15 34/18/14
f 42/250/31 19/251/28 60/57/43
f 6/66/48 14/65/47 16/184/96
f 77/252/111 11/253/45 99/254/78
f 96/255/112 94/256/113 64/257/114
f 69/258/77 64/259/114 63/260/115
f 64/261/114 69/262/77 58/263/82
f 76/264/116 37/265/17 66/266/97 95/267/117
f 101/268/104 95/267/117 66/266/97
f 63/269/115 67/270/65 69/271/77
f 67/272/65 63/273/115 44/76/53
f 20/183/69 17/172/90 16/184/96
f 128/274/118 132/275/119 62/276/55
f 44/76/53 43/75/52 67/272/65
f 10/277/15 53/249/20 5/278/41
f 115/279/120 38/194/23 111/201/98
f 46/280/50 32/281/74 45/282/68
f 134/283/121 32/284/74 117/285/122
f 36/286/27 51/287/46 19/288/28
f 42/250/31 60/57/43 31/56/42
f 15/289/26 29/98/25 16/290/96
f 29/291/25 6/181/48 16/292/96
f 127/204/100 45/206/68 103/293/123
f 23/294/8 50/295/64 62/296/55
f 69/139/77 3/91/63 58/152/82
f 39/297/18 40/298/29 18/299/16
f 19/300/28 37/301/17 18/302/16
f 48/303/49 12/304/44 13/305/10
f 13/306/10 26/116/11 14/115/47
f 125/307/81 41/199/62 130/308/124
f 4/164/67 61/177/6 89/309/92 92/165/86
f 58/152/82 88/310/125 96/255/112 64/257/114
f 61/177/6 56/192/5 87/311/126 90/178/93
f 63/273/115 64/312/114 94/313/113 85/314/127
f 44/76/53 63/273/115 85/314/127 84/315/128
f 11/144/45 91/246/109 83/145/79
f 58/316/82 81/317/129 88/318/125
f 39/319/18 80/320/130 100/321/88
f 47/322/72 48/67/49 78/323/94 82/324/131
f 56/192/5 11/253/45 77/252/111 87/311/126
f 37/325/17 76/326/116 80/327/130 39/328/18
f 59/153/38 75/169/87 81/329/129 58/152/82
f 66/185/97 4/164/67 93/163/85 74/330/105
f 47/322/72 82/324/131 73/331/132
f 47/322/72 73/331/132 97/332/73
f 47/333/72 72/334/71 98/335/110 12/336/44
f 44/337/53 84/338/128 71/339/70
f 43/75/52 70/74/51 86/182/95 6/181/48
f 96/255/112 88/318/125 81/329/129 75/169/87 100/321/88 80/327/130 76/264/116 95/267/117 101/223/104 74/330/105 93/163/85 92/165/86 89/176/92 90/178/93 87/311/126 77/252/111 99/143/78 83/145/79 91/246/109 98/335/110 72/131/71 97/332/73 73/331/132 82/324/131 78/179/94 86/182/95 70/74/51 79/77/54 71/339/70 84/315/128 85/314/127 94/256/113
f 62/340/55 132/341/119 131/342/102 23/343/8
f 23/218/8 129/217/101 122/344/58 24/345/9
f 5/346/41 121/347/133 130/308/124 41/199/62
f 35/348/59 65/234/57 137/233/108 120/349/134
f 68/350/84 35/348/59 120/349/134 119/351/135
f 62/79/55 118/352/136 128/353/118
f 32/200/74 41/199/62 123/354/80 117/355/122
f 38/194/23 115/279/120 126/356/91 17/172/90
f 5/346/41 53/88/20 114/87/61 121/347/133
f 16/184/96 17/172/90 113/171/89 136/357/137
f 68/358/84 119/359/135 112/360/76 28/361/13
f 65/234/57 124/362/56 110/232/107
f 16/363/96 136/364/137 109/365/138 15/366/26
f 62/79/55 22/208/36 107/367/35 118/352/136
f 15/80/26 109/368/138 106/369/37 22/208/36
f 32/370/74 134/371/121 103/372/123 45/373/68
f 28/221/13 138/220/103 102/374/39 34/375/14
f 132/275/119 128/274/118 118/352/136 107/367/35 106/46/37 109/368/138 136/364/137 113/171/89 126/173/91 115/279/120 111/201/98 133/203/99 127/204/100 103/293/123 134/371/121 117/285/122 123/354/80 125/151/81 130/308/124 121/347/133 114/87/61 135/86/60 108/226/106 104/227/19 105/25/21 102/51/39 138/220/103 116/222/75 112/138/76 119/359/135 120/349/134 137/233/108 110/232/107 124/362/56 122/376/58 129/217/101 131/219/102
