# Blender v2.79 (sub 0) OBJ File: 'redo_fixed_360_joints.blend'
# www.blender.org
mtllib sungaya_inexpectata_31mg.mtl
o 33-f-r-tibia.000_Sungaya_inexpectata_31mg.030
v 0.001472 0.000099 -0.000306
v 0.000320 0.000025 -0.000140
v -0.000006 -0.000000 -0.000132
v 0.001486 0.000128 -0.000409
v -0.001599 0.000055 0.000492
v -0.000353 0.000078 -0.000044
v 0.000231 0.000061 -0.000147
v 0.001785 0.000033 -0.000288
v 0.001725 0.000104 -0.000305
v 0.001564 0.000052 -0.000270
v 0.001591 0.000107 -0.000291
v 0.001460 0.000006 -0.000243
v 0.001482 -0.000031 -0.000297
v -0.001199 -0.000132 0.000469
v -0.001297 -0.000156 0.000443
v -0.001093 0.000036 0.000348
v -0.001009 0.000025 0.000215
v 0.000761 0.000018 -0.000223
v 0.000825 0.000086 -0.000307
v -0.000322 0.000032 0.000045
v -0.000352 -0.000059 0.000040
v -0.001437 0.000046 0.000479
v 0.001675 -0.000062 -0.000412
v 0.001577 0.000131 -0.000345
v 0.001695 0.000125 -0.000408
v -0.001232 0.000020 0.000497
v -0.001158 -0.000097 0.000298
v 0.002028 0.000084 -0.000497
v 0.001119 0.000112 -0.000395
v 0.000942 0.000106 -0.000370
v -0.000057 -0.000055 -0.000062
v -0.000662 0.000056 -0.000002
v 0.001346 0.000119 -0.000368
v 0.002062 0.000020 -0.000313
v 0.001705 -0.000071 -0.000332
v 0.001111 0.000045 -0.000292
v -0.001225 0.000048 0.000408
v -0.001351 0.000033 0.000481
v 0.000548 0.000042 -0.000189
v 0.000675 0.000020 -0.000210
v 0.000333 0.000090 -0.000272
v -0.000846 -0.000043 0.000154
v -0.001579 0.000112 0.000345
v -0.001435 -0.000072 0.000526
v -0.000895 -0.000000 0.000257
v 0.000532 -0.000052 -0.000217
v 0.001930 0.000104 -0.000319
v -0.001139 0.000024 0.000190
v -0.001173 -0.000034 0.000222
v -0.000471 0.000019 -0.000028
v -0.000430 0.000045 0.000098
v -0.000108 0.000087 -0.000202
v -0.000908 -0.000106 0.000254
v -0.001291 -0.000046 0.000507
v -0.001475 -0.000006 0.000533
v 0.000881 0.000042 -0.000345
v 0.000774 0.000012 -0.000336
v 0.000696 0.000099 -0.000366
v 0.000012 0.000077 -0.000221
v 0.001907 -0.000069 -0.000493
v -0.000363 0.000032 -0.000084
v -0.001588 -0.000167 0.000336
v -0.001523 -0.000175 0.000383
v 0.001717 -0.000030 -0.000249
v -0.000968 0.000024 0.000159
v 0.000615 0.000086 -0.000330
v 0.000720 0.000081 -0.000287
v -0.000121 -0.000031 -0.000036
v -0.000094 0.000041 -0.000008
v 0.000942 0.000013 -0.000235
v 0.001020 0.000102 -0.000334
v -0.001590 -0.000031 0.000493
v -0.000876 -0.000069 0.000308
v -0.001491 0.000098 0.000399
v -0.001178 -0.000143 0.000388
v -0.000172 0.000080 -0.000120
v 0.001955 -0.000051 -0.000359
v -0.001303 -0.000069 0.000239
v 0.001584 -0.000105 -0.000366
v 0.001614 -0.000016 -0.000243
v -0.000997 -0.000078 0.000223
v -0.001014 0.000011 0.000143
v 0.000041 -0.000002 -0.000087
v 0.001102 0.000010 -0.000360
v 0.001193 0.000013 -0.000368
v -0.001414 -0.000127 0.000344
v 0.000155 0.000034 -0.000227
v 0.000280 -0.000061 -0.000149
v -0.000842 0.000036 0.000137
v -0.000600 -0.000080 0.000146
v -0.000602 0.000003 0.000174
v -0.000739 -0.000037 0.000231
v -0.000727 0.000011 0.000180
v 0.000510 0.000077 -0.000259
v 0.000538 0.000079 -0.000333
v -0.001385 -0.000120 0.000491
v -0.001525 -0.000168 0.000466
v -0.001484 -0.000136 0.000494
v -0.000289 -0.000034 0.000014
v -0.001590 0.000090 0.000283
v -0.001500 0.000056 0.000255
v 0.001241 0.000066 -0.000304
v -0.000537 0.000076 -0.000029
v 0.001117 -0.000003 -0.000258
v -0.000993 -0.000129 0.000347
v 0.001537 0.000048 -0.000411
v -0.001626 -0.000027 0.000246
v 0.001841 0.000110 -0.000430
v -0.000250 -0.000000 -0.000076
v 0.001309 0.000022 -0.000388
v 0.001816 0.000020 -0.000487
v 0.001712 0.000066 -0.000450
v 0.001859 0.000072 -0.000297
v 0.001216 0.000010 -0.000250
v -0.000515 -0.000027 0.000111
v -0.000479 -0.000078 0.000094
v -0.000151 -0.000013 -0.000083
v 0.001143 0.000109 -0.000354
v 0.001117 -0.000050 -0.000317
v -0.000572 -0.000016 0.000047
v -0.001582 0.000117 0.000456
v -0.001081 -0.000143 0.000357
v -0.000901 -0.000002 0.000101
v -0.000226 0.000049 0.000001
v 0.000344 0.000090 -0.000317
v 0.000421 0.000033 -0.000151
v 0.000145 0.000039 -0.000104
v 0.000115 0.000057 -0.000100
v -0.000690 0.000062 0.000077
v -0.000655 0.000027 0.000148
v 0.001377 0.000147 -0.000422
v 0.000388 0.000031 -0.000266
v -0.000531 0.000046 0.000076
v 0.001275 0.000107 -0.000323
v 0.000374 -0.000051 -0.000183
v 0.001285 -0.000073 -0.000326
v 0.000622 0.000007 -0.000283
v -0.000929 -0.000018 0.000360
v 0.001167 0.000127 -0.000408
v 0.001267 0.000130 -0.000408
v 0.000020 -0.000037 -0.000075
v 0.000028 0.000055 -0.000058
v -0.000558 0.000057 -0.000067
v -0.001622 -0.000187 0.000399
v -0.000805 -0.000012 0.000295
v 0.001855 0.000140 -0.000403
v -0.001331 0.000069 0.000365
v -0.000024 0.000067 -0.000114
v -0.000115 0.000070 -0.000028
v -0.000305 0.000080 -0.000120
v -0.000637 0.000028 0.000009
v 0.000765 0.000121 -0.000383
v -0.000813 0.000059 0.000013
v 0.001874 -0.000107 -0.000408
v -0.001081 -0.000128 0.000436
v -0.001065 -0.000062 0.000465
v 0.001235 -0.000018 -0.000269
v -0.000406 -0.000052 0.000055
v -0.001093 0.000024 0.000154
v -0.000746 -0.000094 0.000200
v 0.001771 0.000141 -0.000362
v 0.001700 -0.000128 -0.000393
v -0.001224 0.000058 0.000301
v 0.000682 -0.000032 -0.000249
v 0.001861 -0.000043 -0.000292
v 0.000133 0.000105 -0.000231
v 0.000814 -0.000048 -0.000292
v 0.001034 -0.000001 -0.000248
v -0.001509 0.000051 0.000524
v -0.000209 0.000041 -0.000115
v -0.000278 0.000038 -0.000125
v 0.001810 -0.000035 -0.000271
v -0.001026 0.000009 0.000415
v 0.001448 -0.000087 -0.000354
v -0.000190 -0.000052 -0.000017
v -0.000271 -0.000079 0.000031
v 0.001774 -0.000112 -0.000441
v 0.000968 -0.000037 -0.000287
v 0.000559 -0.000015 -0.000202
v 0.001168 -0.000079 -0.000318
v 0.001050 -0.000053 -0.000308
v -0.000451 0.000080 -0.000093
v 0.000172 0.000098 -0.000302
v 0.001068 0.000126 -0.000402
v 0.002050 -0.000087 -0.000469
v 0.002082 0.000095 -0.000326
v 0.002081 0.000119 -0.000330
v 0.002053 -0.000095 -0.000459
v 0.002069 -0.000047 -0.000384
v 0.002032 -0.000016 -0.000546
v 0.002032 -0.000019 -0.000545
v 0.002048 0.000096 -0.000473
v 0.002068 0.000137 -0.000384
v 0.002081 0.000008 -0.000330
v 0.002043 0.000079 -0.000498
v 0.002035 0.000009 -0.000534
v 0.002080 0.000120 -0.000331
v 0.002065 -0.000065 -0.000406
v 0.002043 0.000088 -0.000494
v 0.002054 -0.000095 -0.000452
v 0.002067 0.000137 -0.000391
v 0.002083 0.000024 -0.000322
v 0.002082 0.000017 -0.000325
v -0.001654 -0.000122 0.000297
v -0.001665 -0.000017 0.000260
v -0.001638 0.000112 0.000359
v -0.001629 -0.000219 0.000384
v -0.001599 0.000055 0.000494
v -0.001606 -0.000092 0.000469
v -0.001636 -0.000204 0.000359
v -0.001600 0.000050 0.000493
v -0.001600 0.000057 0.000492
v -0.001651 -0.000127 0.000308
v -0.001649 -0.000142 0.000315
v -0.001655 0.000095 0.000300
v -0.001656 0.000056 0.000295
v -0.001624 -0.000189 0.000400
v -0.001609 -0.000126 0.000457
v -0.001625 -0.000190 0.000398
v -0.001605 0.000131 0.000474
v -0.001598 -0.000027 0.000497
v -0.001630 0.000129 0.000386
v -0.001666 -0.000031 0.000259
v -0.001623 0.000130 0.000411
v -0.001615 0.000127 0.000439
v -0.001640 0.000113 0.000350
v -0.001660 -0.000082 0.000277
v -0.001618 -0.000161 0.000422
v -0.001655 0.000085 0.000299
vt 0.675383 0.692715
vt 0.676998 0.694570
vt 0.678143 0.691463
vt 0.256655 0.581440
vt 0.255921 0.582315
vt 0.257238 0.582631
vt 0.299357 0.771046
vt 0.297589 0.777038
vt 0.299729 0.773889
vt 0.983814 0.649120
vt 0.982342 0.648117
vt 0.984404 0.651036
vt 0.138215 0.664862
vt 0.139481 0.667794
vt 0.140488 0.666566
vt 0.234941 0.235931
vt 0.236885 0.234276
vt 0.235799 0.234302
vt 0.616615 0.702215
vt 0.616274 0.707034
vt 0.618069 0.706334
vt 0.079171 0.764046
vt 0.081062 0.762996
vt 0.079574 0.761188
vt 0.773688 0.062347
vt 0.774479 0.062592
vt 0.774574 0.061111
vt 0.653216 0.004827
vt 0.658208 0.006102
vt 0.659209 0.003579
vt 0.475993 0.960202
vt 0.476622 0.957725
vt 0.475617 0.958108
vt 0.218969 0.577095
vt 0.219745 0.580408
vt 0.222634 0.579503
vt 0.716156 0.003869
vt 0.711906 0.004034
vt 0.713218 0.005350
vt 0.945770 0.548440
vt 0.947694 0.549037
vt 0.947655 0.546821
vt 0.070139 0.821910
vt 0.068815 0.821005
vt 0.068758 0.823484
vt 0.137923 0.666139
vt 0.564919 0.767532
vt 0.566476 0.764612
vt 0.563894 0.765401
vt 0.292859 0.676758
vt 0.291343 0.675650
vt 0.291666 0.678073
vt 0.628527 0.974038
vt 0.625931 0.979169
vt 0.628577 0.978329
vt 0.627873 0.980441
vt 0.710568 0.007779
vt 0.008725 0.329143
vt 0.006670 0.328508
vt 0.007292 0.329409
vt 0.106727 0.828714
vt 0.109251 0.830287
vt 0.109420 0.828668
vt 0.207947 0.547052
vt 0.211145 0.548590
vt 0.211669 0.545836
vt 0.619747 0.704562
vt 0.975041 0.995297
vt 0.974936 0.992828
vt 0.973478 0.994134
vt 0.778800 0.482935
vt 0.778282 0.485178
vt 0.780265 0.484392
vt 0.619052 0.700269
vt 0.813762 0.384748
vt 0.811655 0.387012
vt 0.813617 0.387438
vt 0.180527 0.926329
vt 0.180768 0.926612
vt 0.181560 0.924931
vt 0.180540 0.925128
vt 0.226129 0.585578
vt 0.228686 0.585253
vt 0.223736 0.583606
vt 0.732632 0.001915
vt 0.728598 0.004930
vt 0.735764 0.004565
vt 0.559685 0.236609
vt 0.558284 0.236654
vt 0.561279 0.238323
vt 0.660307 0.389553
vt 0.657595 0.391405
vt 0.658366 0.393389
vt 0.949635 0.621763
vt 0.948394 0.621469
vt 0.947457 0.624439
vt 0.983955 0.182505
vt 0.982920 0.182840
vt 0.984214 0.184006
vt 0.934296 0.487161
vt 0.933496 0.485484
vt 0.933064 0.486979
vt 0.876560 0.573190
vt 0.877218 0.574835
vt 0.878609 0.573658
vt 0.485458 0.982753
vt 0.488314 0.985539
vt 0.488642 0.982999
vt 0.212208 0.562504
vt 0.212475 0.565675
vt 0.214938 0.567196
vt 0.642248 0.247734
vt 0.640621 0.248366
vt 0.641206 0.249342
vt 0.791607 0.574116
vt 0.790705 0.575214
vt 0.793258 0.574165
vt 0.401305 0.606861
vt 0.404028 0.605649
vt 0.400490 0.604454
vt 0.680676 0.695630
vt 0.682155 0.694928
vt 0.575971 0.729669
vt 0.574392 0.729740
vt 0.574890 0.731595
vt 0.016300 0.827979
vt 0.017504 0.825747
vt 0.017070 0.823354
vt 0.842999 0.477704
vt 0.842520 0.476889
vt 0.840929 0.478388
vt 0.638325 0.259943
vt 0.639816 0.260759
vt 0.639805 0.259227
vt 0.646770 0.282946
vt 0.643956 0.280479
vt 0.642394 0.283116
vt 0.789526 0.122317
vt 0.791224 0.121892
vt 0.791113 0.120607
vt 0.991813 0.658801
vt 0.991641 0.660036
vt 0.993168 0.659027
vt 0.645656 0.006094
vt 0.649786 0.006315
vt 0.645670 0.004840
vt 0.416049 0.768317
vt 0.419860 0.770594
vt 0.419284 0.765872
vt 0.062450 0.905619
vt 0.062406 0.905577
vt 0.061682 0.906236
vt 0.360139 0.698044
vt 0.361640 0.701490
vt 0.361210 0.698522
vt 0.052621 0.887236
vt 0.050853 0.884643
vt 0.050971 0.886266
vt 0.072689 0.535536
vt 0.073942 0.536028
vt 0.073736 0.534709
vt 0.564681 0.761881
vt 0.107696 0.172690
vt 0.105940 0.171807
vt 0.106390 0.172648
vt 0.536072 0.246578
vt 0.537607 0.243934
vt 0.535897 0.244232
vt 0.846203 0.457809
vt 0.846359 0.459630
vt 0.847674 0.458694
vt 0.932487 0.123040
vt 0.931847 0.122349
vt 0.929948 0.122619
vt 0.902755 0.332509
vt 0.903527 0.330286
vt 0.901000 0.331194
vt 0.883550 0.519563
vt 0.881371 0.518854
vt 0.880956 0.519955
vt 0.976711 0.203690
vt 0.977287 0.202583
vt 0.976034 0.202779
vt 0.415438 0.771238
vt 0.417713 0.772329
vt 0.100776 0.693412
vt 0.100116 0.696923
vt 0.101089 0.696719
vt 0.898166 0.670746
vt 0.901914 0.669840
vt 0.901216 0.669273
vt 0.188834 0.675299
vt 0.190619 0.677553
vt 0.187900 0.671748
vt 0.006078 0.178508
vt 0.007266 0.178667
vt 0.008508 0.178871
vt 0.400825 0.594708
vt 0.400762 0.595804
vt 0.403231 0.595827
vt 0.201363 0.159797
vt 0.199483 0.160394
vt 0.200886 0.161202
vt 0.709973 0.005542
vt 0.297572 0.238089
vt 0.297092 0.237201
vt 0.295160 0.238292
vt 0.343350 0.418035
vt 0.342604 0.417284
vt 0.341787 0.417910
vt 0.927765 0.208550
vt 0.927125 0.206994
vt 0.926546 0.208071
vt 0.880092 0.351773
vt 0.881824 0.350062
vt 0.880188 0.349289
vt 0.739426 0.183251
vt 0.738004 0.183431
vt 0.739211 0.184391
vt 0.481502 0.653613
vt 0.481496 0.654973
vt 0.481946 0.653834
vt 0.486596 0.986267
vt 0.714482 0.007195
vt 0.366331 0.725554
vt 0.364042 0.725539
vt 0.365396 0.728762
vt 0.251596 0.398753
vt 0.250881 0.399565
vt 0.252307 0.400508
vt 0.110078 0.186892
vt 0.109292 0.187788
vt 0.110741 0.188202
vt 0.830721 0.324919
vt 0.830880 0.327930
vt 0.831572 0.325176
vt 0.050854 0.704582
vt 0.050139 0.708123
vt 0.052590 0.707128
vt 0.363014 0.701106
vt 0.362719 0.702494
vt 0.101217 0.864891
vt 0.101635 0.863886
vt 0.101026 0.863970
vt 0.828721 0.963908
vt 0.827644 0.964225
vt 0.829289 0.965946
vt 0.047279 0.964010
vt 0.046604 0.965019
vt 0.046963 0.968829
vt 0.608904 0.485395
vt 0.608592 0.490510
vt 0.610582 0.488594
vt 0.902988 0.127670
vt 0.903181 0.125051
vt 0.902276 0.126886
vt 0.134644 0.459557
vt 0.133684 0.460439
vt 0.135043 0.460815
vt 0.734086 0.070691
vt 0.735941 0.070679
vt 0.735285 0.069847
vt 0.807764 0.324467
vt 0.805526 0.321763
vt 0.805075 0.323829
vt 0.777448 0.461396
vt 0.775653 0.462458
vt 0.775907 0.464581
vt 0.653652 0.394329
vt 0.653292 0.395577
vt 0.654103 0.006926
vt 0.651489 0.007135
vt 0.185523 0.245872
vt 0.184209 0.244436
vt 0.184657 0.246292
vt 0.661152 0.573222
vt 0.660742 0.572999
vt 0.660474 0.573324
vt 0.235867 0.712891
vt 0.238649 0.709316
vt 0.238308 0.708117
vt 0.210936 0.554003
vt 0.209509 0.553263
vt 0.212320 0.557898
vt 0.038855 0.971341
vt 0.036935 0.969298
vt 0.037418 0.971849
vt 0.611799 0.108104
vt 0.611699 0.108032
vt 0.611719 0.108085
vt 0.227158 0.582431
vt 0.749901 0.667829
vt 0.748878 0.668445
vt 0.750308 0.669076
vt 0.932595 0.541281
vt 0.933464 0.540683
vt 0.932999 0.539211
vt 0.773573 0.185885
vt 0.772055 0.185919
vt 0.772275 0.186992
vt 0.401257 0.771491
vt 0.403134 0.768902
vt 0.399788 0.771101
vt 0.191924 0.635730
vt 0.190322 0.635946
vt 0.190824 0.636848
vt 0.678606 0.687939
vt 0.676246 0.690240
vt 0.894621 0.678554
vt 0.897222 0.679201
vt 0.895313 0.677087
vt 0.293556 0.673057
vt 0.291343 0.673586
vt 0.829570 0.140136
vt 0.829493 0.140463
vt 0.829883 0.140101
vt 0.829342 0.140337
vt 0.566896 0.761369
vt 0.568353 0.762256
vt 0.181219 0.164595
vt 0.180553 0.165190
vt 0.182197 0.165869
vt 0.094956 0.849902
vt 0.096140 0.850956
vt 0.095296 0.848302
vt 0.616338 0.041505
vt 0.616101 0.041299
vt 0.616119 0.041590
vt 0.861301 0.809037
vt 0.862357 0.808398
vt 0.862285 0.807959
vt 0.860991 0.808696
vt 0.143581 0.823664
vt 0.143509 0.826327
vt 0.144637 0.824452
vt 0.037868 0.973573
vt 0.896701 0.884651
vt 0.896089 0.886833
vt 0.897132 0.885605
vt 0.620406 0.706799
vt 0.648744 0.823061
vt 0.646504 0.823117
vt 0.644992 0.825151
vt 0.611596 0.490470
vt 0.611989 0.486935
vt 0.403383 0.773955
vt 0.404228 0.771477
vt 0.175743 0.164709
vt 0.176341 0.166007
vt 0.177335 0.166824
vt 0.765099 0.400147
vt 0.767659 0.401421
vt 0.766767 0.399734
vt 0.872441 0.311395
vt 0.871201 0.311971
vt 0.871586 0.312775
vt 0.873723 0.310911
vt 0.236724 0.451995
vt 0.235520 0.452660
vt 0.237338 0.453441
vt 0.887150 0.871763
vt 0.886121 0.870027
vt 0.885142 0.872131
vt 0.884435 0.871029
vt 0.868239 0.494682
vt 0.871489 0.495996
vt 0.869723 0.493769
vt 0.213334 0.570624
vt 0.215418 0.572163
vt 0.218175 0.571729
vt 0.154803 0.714422
vt 0.154891 0.717397
vt 0.156057 0.713508
vt 0.413169 0.262233
vt 0.414580 0.263566
vt 0.414617 0.261583
vt 0.017702 0.773333
vt 0.017233 0.772080
vt 0.015045 0.774209
vt 0.681900 0.696311
vt 0.682093 0.696287
vt 0.216752 0.046781
vt 0.217106 0.046294
vt 0.217432 0.045633
vt 0.215798 0.046293
vt 0.516553 0.671743
vt 0.517440 0.673411
vt 0.518335 0.671719
vt 0.606321 0.485164
vt 0.979968 0.210465
vt 0.978856 0.210037
vt 0.980370 0.211681
vt 0.775285 0.709767
vt 0.774736 0.708817
vt 0.772386 0.709155
vt 0.707638 0.007122
vt 0.249990 0.101031
vt 0.250217 0.103621
vt 0.250614 0.102222
vt 0.574974 0.734363
vt 0.577013 0.734043
vt 0.162301 0.389650
vt 0.162377 0.388474
vt 0.161193 0.389133
vt 0.221668 0.584659
vt 0.221162 0.582431
vt 0.326365 0.660609
vt 0.328609 0.663108
vt 0.328351 0.660005
vt 0.283031 0.846606
vt 0.282842 0.848581
vt 0.284145 0.847272
vt 0.658694 0.578581
vt 0.661702 0.578682
vt 0.659975 0.582390
vt 0.154305 0.719608
vt 0.155130 0.720785
vt 0.244911 0.193361
vt 0.245568 0.194330
vt 0.245820 0.192283
vt 0.723409 0.147158
vt 0.723158 0.144785
vt 0.721963 0.146438
vt 0.411795 0.178831
vt 0.411915 0.177077
vt 0.410716 0.177975
vt 0.721839 0.004842
vt 0.721578 0.002978
vt 0.717838 0.005406
vt 0.271543 0.142789
vt 0.272113 0.141700
vt 0.269495 0.141668
vt 0.167138 0.264018
vt 0.165251 0.264459
vt 0.165963 0.264545
vt 0.793712 0.576199
vt 0.227429 0.934172
vt 0.227124 0.935910
vt 0.228423 0.935933
vt 0.223223 0.376934
vt 0.223525 0.378289
vt 0.224441 0.376800
vt 0.640036 0.969829
vt 0.639454 0.974198
vt 0.640117 0.974478
vt 0.299373 0.163793
vt 0.300549 0.165682
vt 0.300295 0.163556
vt 0.626162 0.983343
vt 0.624859 0.982778
vt 0.587584 0.262565
vt 0.588606 0.263867
vt 0.588802 0.262105
vt 0.898384 0.669371
vt 0.897321 0.669705
vt 0.334055 0.158618
vt 0.333025 0.160681
vt 0.334365 0.159889
vt 0.402946 0.603080
vt 0.401054 0.599637
vt 0.366184 0.692585
vt 0.368295 0.694918
vt 0.368548 0.691932
vt 0.399157 0.985274
vt 0.397867 0.989201
vt 0.399848 0.988057
vt 0.110155 0.831334
vt 0.080296 0.727250
vt 0.083207 0.728569
vt 0.080177 0.725916
vt 0.606408 0.490537
vt 0.606842 0.492179
vt 0.609428 0.492713
vt 0.069297 0.232761
vt 0.069267 0.232768
vt 0.069265 0.232834
vt 0.847772 0.460919
vt 0.848978 0.460173
vt 0.877076 0.599902
vt 0.876980 0.598875
vt 0.876815 0.598893
vt 0.875326 0.445394
vt 0.875373 0.446344
vt 0.877821 0.443904
vt 0.746798 0.362682
vt 0.744664 0.363244
vt 0.746292 0.364277
vt 0.763956 0.834587
vt 0.766964 0.834791
vt 0.764844 0.833600
vt 0.921289 0.711929
vt 0.922561 0.712370
vt 0.922532 0.710966
vt 0.924821 0.712392
vt 0.948582 0.460087
vt 0.949444 0.461580
vt 0.950293 0.460385
vt 0.949366 0.703200
vt 0.947286 0.703857
vt 0.948729 0.704462
vt 0.554158 0.721681
vt 0.555214 0.721632
vt 0.554990 0.720700
vt 0.621786 0.767517
vt 0.622122 0.762905
vt 0.621215 0.766138
vt 0.208400 0.543506
vt 0.372738 0.602759
vt 0.373848 0.603750
vt 0.374171 0.602574
vt 0.095184 0.291579
vt 0.095172 0.293316
vt 0.096069 0.291419
vt 0.327377 0.555217
vt 0.325905 0.555306
vt 0.325765 0.555462
vt 0.610954 0.487043
vt 0.610886 0.485975
vt 0.680771 0.690593
vt 0.827909 0.401601
vt 0.827803 0.403911
vt 0.828926 0.401066
vt 0.826787 0.401834
vt 0.516670 0.925111
vt 0.515183 0.923503
vt 0.516641 0.930039
vt 0.156015 0.116225
vt 0.154856 0.115907
vt 0.154989 0.117672
vt 0.658599 0.875814
vt 0.657789 0.880229
vt 0.661218 0.876267
vt 0.094319 0.852474
vt 0.093542 0.853929
vt 0.094554 0.853998
vt 0.813936 0.933569
vt 0.812051 0.933184
vt 0.810365 0.934185
vt 0.926048 0.074333
vt 0.927097 0.075295
vt 0.927590 0.074232
vt 0.706718 0.177977
vt 0.707124 0.180824
vt 0.708043 0.179982
vt 0.402098 0.584534
vt 0.400289 0.588208
vt 0.401650 0.590381
vt 0.880394 0.518495
vt 0.879354 0.519746
vt 0.015069 0.246429
vt 0.016580 0.246611
vt 0.017115 0.245372
vt 0.308862 0.395262
vt 0.309634 0.395927
vt 0.309070 0.394339
vt 0.870409 0.950534
vt 0.868400 0.951093
vt 0.870474 0.951570
vt 0.659661 0.882046
vt 0.659145 0.884890
vt 0.660573 0.655949
vt 0.661018 0.654801
vt 0.660570 0.654274
vt 0.284537 0.850793
vt 0.284569 0.847881
vt 0.281940 0.851055
vt 0.727189 0.003766
vt 0.730489 0.001505
vt 0.726804 0.001687
vt 0.077141 0.026116
vt 0.078938 0.025908
vt 0.077973 0.025397
vt 0.805329 0.143467
vt 0.804183 0.144321
vt 0.806051 0.144298
vt 0.148636 0.271361
vt 0.149704 0.270610
vt 0.149023 0.269808
vt 0.368715 0.723218
vt 0.367378 0.722819
vt 0.420177 0.073961
vt 0.421511 0.074673
vt 0.421503 0.074106
vt 0.065707 0.897923
vt 0.065660 0.899773
vt 0.068114 0.893958
vt 0.791757 0.722835
vt 0.790167 0.723581
vt 0.793121 0.723846
vt 0.393289 0.631105
vt 0.393040 0.629879
vt 0.392212 0.630996
vt 0.641067 0.279224
vt 0.752567 0.866117
vt 0.754406 0.864241
vt 0.752446 0.864196
vt 0.862033 0.231251
vt 0.860570 0.230903
vt 0.860479 0.232117
vt 0.397322 0.587040
vt 0.398700 0.590628
vt 0.375304 0.702291
vt 0.376920 0.702570
vt 0.377625 0.699310
vt 0.208980 0.556355
vt 0.210328 0.559386
vt 0.755891 0.914445
vt 0.758733 0.914490
vt 0.756959 0.913217
vt 0.805060 0.594035
vt 0.802054 0.593275
vt 0.801041 0.593625
vt 0.837107 0.908733
vt 0.836939 0.909758
vt 0.838897 0.909109
vt 0.808911 0.100236
vt 0.807576 0.100732
vt 0.809406 0.100959
vt 0.625003 0.762479
vt 0.626343 0.765110
vt 0.515547 0.920434
vt 0.842108 0.787127
vt 0.841922 0.787093
vt 0.841996 0.787260
vt 0.872909 0.822003
vt 0.873777 0.821335
vt 0.870031 0.821975
vt 0.059701 0.039287
vt 0.060689 0.039249
vt 0.061565 0.037917
vt 0.871571 0.821140
vt 0.528781 0.182482
vt 0.527563 0.184912
vt 0.528900 0.184522
vt 0.620786 0.700858
vt 0.645540 0.287461
vt 0.647685 0.287119
vt 0.174702 0.254062
vt 0.174556 0.252632
vt 0.173491 0.253694
vt 0.828938 0.836905
vt 0.828195 0.835901
vt 0.826024 0.836394
vt 0.100226 0.694567
vt 0.945318 0.280593
vt 0.945952 0.278704
vt 0.943478 0.278592
vt 0.095037 0.852521
vt 0.094788 0.850801
vt 0.093682 0.850023
vt 0.840361 0.375520
vt 0.841543 0.377189
vt 0.843492 0.376828
vt 0.223262 0.734965
vt 0.224842 0.733741
vt 0.222814 0.732831
vt 0.225675 0.735068
vt 0.705526 0.006278
vt 0.706561 0.007210
vt 0.707444 0.004997
vt 0.215774 0.578349
vt 0.216557 0.576932
vt 0.283899 0.853177
vt 0.431298 0.142887
vt 0.429654 0.143207
vt 0.430561 0.144662
vt 0.213146 0.555522
vt 0.211978 0.554672
vt 0.103314 0.725402
vt 0.106166 0.726967
vt 0.105290 0.723674
vt 0.810474 0.522442
vt 0.808672 0.520705
vt 0.808838 0.521789
vt 0.033772 0.174352
vt 0.034175 0.175451
vt 0.035624 0.174792
vt 0.227227 0.937387
vt 0.228917 0.937505
vt 0.323208 0.353475
vt 0.322283 0.352840
vt 0.322745 0.354617
vt 0.396034 0.988599
vt 0.397058 0.989060
vt 0.396597 0.987803
vt 0.878185 0.904775
vt 0.878314 0.906457
vt 0.879555 0.903758
vt 0.078900 0.062843
vt 0.079938 0.061586
vt 0.079947 0.061545
vt 0.078561 0.062484
vt 0.375997 0.065821
vt 0.376233 0.065291
vt 0.375855 0.065133
vt 0.091487 0.666985
vt 0.092901 0.666620
vt 0.091789 0.665476
vt 0.092044 0.670798
vt 0.091692 0.669726
vt 0.365477 0.689533
vt 0.224856 0.936475
vt 0.931887 0.484725
vt 0.935726 0.484540
vt 0.574975 0.727402
vt 0.573487 0.728099
vt 0.659989 0.388313
vt 0.911133 0.689211
vt 0.913133 0.687764
vt 0.911623 0.688244
vt 0.986655 0.539530
vt 0.988278 0.537194
vt 0.986423 0.537349
vt 0.662133 0.581932
vt 0.701170 0.149433
vt 0.701726 0.146641
vt 0.700386 0.148303
vt 0.004114 0.817163
vt 0.001987 0.818836
vt 0.001375 0.820589
vt 0.776318 0.610539
vt 0.778593 0.612706
vt 0.778380 0.611454
vt 0.765397 0.652103
vt 0.762191 0.651623
vt 0.763430 0.653477
vt 0.121997 0.140176
vt 0.123126 0.138649
vt 0.121937 0.138231
vt 0.993126 0.595870
vt 0.989531 0.594109
vt 0.990602 0.595443
vt 0.067390 0.392137
vt 0.066987 0.390898
vt 0.065483 0.391394
vt 0.824721 0.211134
vt 0.823231 0.211731
vt 0.824038 0.212439
vt 0.662781 0.577166
vt 0.621588 0.761245
vt 0.209265 0.550806
vt 0.206333 0.551476
vt 0.897781 0.952968
vt 0.896404 0.951669
vt 0.897797 0.954149
vt 0.399811 0.594974
vt 0.400737 0.593611
vt 0.398513 0.593326
vt 0.283374 0.855070
vt 0.282382 0.854424
vt 0.781923 0.087347
vt 0.782974 0.085873
vt 0.781254 0.086067
vt 0.818395 0.295993
vt 0.818358 0.296001
vt 0.818391 0.296041
vt 0.608557 0.026228
vt 0.608352 0.026404
vt 0.608010 0.028008
vt 0.609242 0.027541
vt 0.890082 0.998999
vt 0.892015 0.998777
vt 0.891753 0.997586
vt 0.869898 0.312582
vt 0.869031 0.313529
vt 0.664155 0.581528
vt 0.663681 0.578744
vt 0.605976 0.053123
vt 0.606643 0.054752
vt 0.607023 0.053325
vt 0.199769 0.824113
vt 0.198336 0.825158
vt 0.200430 0.825131
vt 0.061554 0.605963
vt 0.063212 0.606243
vt 0.064546 0.605785
vt 0.390174 0.445353
vt 0.389123 0.446107
vt 0.390622 0.446025
vt 0.868123 0.815060
vt 0.868645 0.816083
vt 0.870254 0.815289
vt 0.869677 0.816075
vt 0.871500 0.816764
vt 0.689958 0.094324
vt 0.689281 0.096034
vt 0.690257 0.097107
vt 0.811455 0.384210
vt 0.300020 0.772783
vt 0.890013 0.370056
vt 0.887043 0.371773
vt 0.890813 0.371426
vt 0.680441 0.543764
vt 0.679754 0.542370
vt 0.679409 0.543269
vt 0.910401 0.091964
vt 0.908717 0.092093
vt 0.910785 0.092781
vt 0.592118 0.041927
vt 0.592196 0.039909
vt 0.591074 0.041056
vt 0.380352 0.902876
vt 0.381161 0.904232
vt 0.381300 0.902537
vt 0.647861 0.827615
vt 0.650711 0.823896
vt 0.670491 0.271359
vt 0.671390 0.270287
vt 0.670779 0.268154
vt 0.157194 0.852799
vt 0.159639 0.852381
vt 0.158766 0.850986
vt 0.239993 0.134779
vt 0.240330 0.136008
vt 0.240668 0.132950
vt 0.811685 0.521967
vt 0.810603 0.520787
vt 0.810305 0.521730
vt 0.403940 0.598161
vt 0.405850 0.599023
vt 0.404645 0.596930
vt 0.727959 0.150893
vt 0.728850 0.150604
vt 0.725739 0.149361
vt 0.825074 0.931744
vt 0.822689 0.932044
vt 0.824373 0.932526
vt 0.578802 0.734498
vt 0.575892 0.735376
vt 0.576596 0.736590
vt 0.256120 0.078197
vt 0.258224 0.078484
vt 0.257687 0.077541
vt 0.911091 0.988853
vt 0.912477 0.990508
vt 0.911635 0.989432
vt 0.419937 0.773961
vt 0.225429 0.857804
vt 0.224836 0.854768
vt 0.224574 0.856809
vt 0.753626 0.664417
vt 0.756657 0.665132
vt 0.755913 0.663426
vt 0.907705 0.948019
vt 0.907549 0.946736
vt 0.906433 0.947391
vt 0.239574 0.095348
vt 0.239686 0.096841
vt 0.240525 0.093875
vt 0.639977 0.966877
vt 0.640323 0.964546
vt 0.638758 0.964450
vt 0.660751 0.002649
vt 0.836907 0.931191
vt 0.839583 0.930811
vt 0.837925 0.929932
vt 0.948443 0.955642
vt 0.946476 0.954444
vt 0.947290 0.955839
vt 0.405131 0.599069
vt 0.402577 0.598816
vt 0.057045 0.177663
vt 0.055267 0.178534
vt 0.057026 0.179000
vt 0.654210 0.003730
vt 0.100205 0.697914
vt 0.982930 0.496319
vt 0.984935 0.499596
vt 0.983814 0.496893
vt 0.676265 0.039344
vt 0.675764 0.038776
vt 0.674270 0.038590
vt 0.771839 0.792870
vt 0.771105 0.790198
vt 0.770343 0.791981
vt 0.516626 0.666416
vt 0.514947 0.664108
vt 0.515007 0.667319
vt 0.517350 0.663072
vt 0.627008 0.972009
vt 0.625449 0.974507
vt 0.625617 0.975388
vt 0.811362 0.293952
vt 0.808611 0.294353
vt 0.810312 0.296137
vt 0.252077 0.122877
vt 0.253413 0.124960
vt 0.253404 0.122909
vt 0.883383 0.986838
vt 0.885078 0.985739
vt 0.882841 0.984760
vt 0.376311 0.703319
vt 0.375712 0.706075
vt 0.044755 0.526797
vt 0.043563 0.527799
vt 0.045318 0.527950
vt 0.945621 0.800366
vt 0.946015 0.799369
vt 0.944961 0.798764
vt 0.944595 0.801054
vt 0.477547 0.959579
vt 0.302995 0.023814
vt 0.303679 0.024256
vt 0.303296 0.022554
vt 0.762268 0.725906
vt 0.763278 0.725172
vt 0.758391 0.724628
vt 0.300182 0.187327
vt 0.300541 0.183136
vt 0.300140 0.183937
vt 0.974078 0.812207
vt 0.974065 0.812419
vt 0.974267 0.812494
vt 0.958052 0.598181
vt 0.956629 0.597994
vt 0.957626 0.598823
vt 0.361371 0.695485
vt 0.359944 0.696121
vt 0.189000 0.658628
vt 0.189701 0.662206
vt 0.190441 0.659759
vt 0.189355 0.658741
vt 0.915884 0.369458
vt 0.911607 0.369055
vt 0.911642 0.369088
vt 0.915122 0.370193
vt 0.729355 0.724432
vt 0.730287 0.725252
vt 0.730682 0.725519
vt 0.733914 0.724706
vt 0.643519 0.278307
vt 0.641942 0.276865
vt 0.641655 0.276950
vt 0.645406 0.279110
vt 0.644361 0.278638
vt 0.747099 0.895192
vt 0.745124 0.895457
vt 0.745169 0.895690
vt 0.746713 0.896629
vt 0.361392 0.695566
vt 0.379017 0.126015
vt 0.377868 0.125737
vt 0.377517 0.125705
vt 0.377850 0.126861
vt 0.745570 0.894720
vt 0.745009 0.895320
vt 0.535449 0.507461
vt 0.536464 0.510494
vt 0.537063 0.508833
vt 0.537418 0.507614
vt 0.305479 0.984054
vt 0.304371 0.983639
vt 0.303639 0.984763
vt 0.304913 0.984559
vt 0.136532 0.219016
vt 0.136224 0.218884
vt 0.136175 0.218994
vt 0.008230 0.956818
vt 0.007082 0.958395
vt 0.007199 0.958411
vt 0.008431 0.957520
vt 0.648289 0.828320
vt 0.649141 0.827846
vt 0.649849 0.827735
vt 0.894912 0.708714
vt 0.894947 0.708581
vt 0.894947 0.706668
vt 0.893812 0.707501
vt 0.787495 0.874120
vt 0.789199 0.873936
vt 0.788334 0.873268
vt 0.787678 0.873527
vt 0.800404 0.945341
vt 0.800768 0.946633
vt 0.800948 0.946543
vt 0.801051 0.945511
vn 0.2095 -0.6794 0.7032
vn -0.0022 -0.9803 0.1977
vn 0.0472 -0.9867 -0.1553
vn 0.0713 0.0955 0.9929
vn 0.0604 0.8453 0.5309
vn 0.0037 0.8749 0.4842
vn 0.0116 0.4709 -0.8821
vn -0.0153 -0.4676 -0.8838
vn -0.2910 0.7251 -0.6242
vn -0.2222 -0.6978 -0.6810
vn -0.1820 -0.7250 -0.6642
vn -0.0880 -0.9404 0.3286
vn 0.1012 0.9776 0.1843
vn 0.0612 0.8943 0.4432
vn 0.1615 0.5650 0.8091
vn 0.0274 -0.7784 -0.6272
vn -0.2632 -0.6956 -0.6685
vn -0.1002 -0.8253 -0.5558
vn 0.1609 -0.1528 0.9751
vn -0.0608 0.1530 0.9864
vn 0.0256 -0.2387 0.9707
vn -0.2000 0.6029 -0.7724
vn 0.0949 0.1552 0.9833
vn 0.1616 -0.3416 0.9258
vn -0.0168 -0.2295 0.9732
vn -0.1513 -0.9632 -0.2224
vn 0.3417 -0.1237 0.9316
vn 0.2771 0.0272 0.9604
vn 0.1090 -0.8654 0.4890
vn -0.1259 -0.4530 -0.8826
vn -0.0768 -0.4091 -0.9093
vn -0.1163 -0.4484 -0.8862
vn 0.0164 0.9769 0.2129
vn -0.0220 0.9603 0.2782
vn 0.1171 0.8310 0.5437
vn 0.2152 -0.9406 0.2627
vn 0.2617 -0.9494 0.1739
vn 0.4353 -0.2488 0.8652
vn 0.3187 0.3812 0.8679
vn 0.0959 0.9482 0.3029
vn -0.0971 0.2044 -0.9741
vn -0.4521 0.3407 -0.8243
vn 0.1209 0.9903 -0.0685
vn -0.2877 -0.7456 -0.6011
vn -0.1092 -0.7560 -0.6454
vn -0.0653 -0.8361 0.5447
vn 0.0734 -0.8497 0.5222
vn 0.2028 -0.4336 0.8780
vn -0.2462 0.1760 -0.9531
vn -0.2878 -0.3114 -0.9056
vn -0.2221 0.2622 -0.9391
vn -0.0994 -0.1238 -0.9873
vn 0.2454 0.5535 0.7959
vn -0.0604 -0.8281 -0.5573
vn 0.1499 -0.9716 -0.1831
vn 0.0368 -0.9861 -0.1621
vn 0.0925 0.9823 0.1631
vn 0.1936 0.8359 0.5137
vn 0.2616 0.3087 0.9145
vn 0.1088 0.2715 0.9563
vn 0.1328 -0.5449 0.8279
vn -0.2299 -0.7207 -0.6541
vn 0.2636 -0.9544 0.1400
vn -0.0135 -0.9985 -0.0529
vn -0.6123 0.7900 -0.0321
vn -0.5929 0.7869 0.1709
vn 0.2723 0.9475 0.1676
vn 0.1365 0.9557 -0.2607
vn 0.1013 0.9946 0.0236
vn 0.4927 0.4547 0.7420
vn 0.1055 0.9634 0.2464
vn 0.3589 -0.8661 0.3479
vn 0.4597 -0.0566 0.8863
vn -0.4489 0.2107 -0.8684
vn -0.1977 -0.8114 -0.5501
vn -0.0153 0.4340 0.9008
vn 0.0796 0.6313 0.7715
vn 0.1952 0.9683 0.1555
vn -0.0089 0.9956 0.0933
vn 0.0815 0.8534 0.5149
vn 0.0731 0.9859 0.1504
vn 0.0550 0.4240 -0.9040
vn -0.0628 -0.7690 0.6361
vn -0.0848 0.7733 -0.6284
vn 0.0448 0.9806 0.1907
vn -0.1519 -0.7599 -0.6320
vn 0.2244 -0.5558 0.8005
vn 0.2680 -0.2735 0.9238
vn 0.0667 0.3111 0.9480
vn -0.4211 0.4909 -0.7627
vn -0.0205 0.7110 -0.7029
vn 0.1025 -0.8847 -0.4548
vn -0.0185 -0.6653 -0.7463
vn 0.1639 0.5696 0.8054
vn 0.1374 -0.9561 0.2589
vn 0.1238 0.2618 0.9571
vn -0.1520 -0.6369 0.7558
vn 0.1031 -0.9540 0.2814
vn 0.2348 -0.7871 0.5704
vn 0.0534 0.8771 0.4772
vn 0.2077 0.1507 0.9665
vn -0.1161 -0.9924 0.0405
vn -0.1264 -0.6287 -0.7673
vn -0.3026 -0.7550 0.5817
vn 0.2906 -0.6800 0.6732
vn -0.7533 -0.3254 0.5716
vn -0.0228 0.9964 0.0816
vn 0.0675 0.5283 0.8464
vn -0.1199 0.6606 -0.7411
vn -0.1114 0.7912 -0.6013
vn 0.3153 -0.9071 0.2789
vn -0.1899 0.6813 -0.7069
vn -0.0688 0.5947 0.8010
vn -0.0775 0.7803 0.6205
vn -0.1169 -0.5390 -0.8342
vn 0.0300 -0.9741 -0.2243
vn -0.0600 -0.1921 0.9795
vn -0.0661 0.7314 0.6787
vn -0.2693 0.4764 -0.8370
vn -0.0538 0.9980 0.0339
vn 0.1885 0.5677 0.8014
vn -0.3505 0.3685 -0.8610
vn -0.0995 0.9921 -0.0764
vn -0.0567 -0.9984 -0.0022
vn -0.0888 -0.3543 -0.9309
vn 0.0479 -0.9774 0.2060
vn -0.1321 -0.6786 -0.7225
vn -0.0286 0.9996 0.0085
vn -0.4807 0.3259 -0.8141
vn -0.2331 0.1339 -0.9632
vn -0.2899 -0.0163 -0.9569
vn -0.0494 0.9783 0.2014
vn 0.0677 0.8886 0.4536
vn -0.0147 0.8590 0.5117
vn 0.0027 0.6486 0.7611
vn 0.2142 -0.9502 0.2264
vn 0.3994 0.7705 0.4968
vn 0.4204 0.4398 0.7936
vn -0.2438 -0.9545 -0.1719
vn 0.1378 -0.3536 0.9252
vn -0.6749 0.7378 -0.0084
vn -0.2153 -0.9547 -0.2052
vn 0.2397 -0.9621 -0.1304
vn 0.1805 -0.6324 -0.7533
vn -0.1358 0.8189 -0.5576
vn 0.1965 0.9777 0.0741
vn 0.6504 0.6258 -0.4306
vn 0.5297 0.6164 -0.5826
vn -0.0615 0.6555 -0.7527
vn -0.2562 0.6179 -0.7434
vn -0.3184 0.0147 0.9479
vn 0.4202 0.2851 0.8615
vn -0.0176 0.1359 0.9906
vn 0.4117 0.3562 0.8388
vn -0.1575 0.5943 -0.7886
vn 0.3448 -0.7610 0.5496
vn 0.8833 -0.2841 0.3731
vn 0.8068 -0.4731 0.3540
vn 0.8857 -0.0765 0.4580
vn -0.1006 -0.8031 -0.5872
vn -0.0770 -0.7998 -0.5953
vn 0.0883 0.0558 0.9945
vn -0.6727 0.7398 0.0155
vn -0.7252 0.4569 -0.5151
vn -0.0541 0.5256 -0.8490
vn 0.1688 0.4851 0.8580
vn -0.6142 -0.6980 -0.3682
vn -0.7407 -0.4045 -0.5364
vn -0.2291 0.5018 -0.8341
vn -0.1848 -0.4894 -0.8523
vn -0.0256 0.6740 0.7383
vn 0.6065 -0.0509 0.7934
vn 0.4316 -0.5982 0.6752
vn 0.0664 0.7627 -0.6433
vn -0.0149 0.9419 0.3357
vn 0.0057 0.9510 0.3092
vn -0.6058 0.4594 -0.6495
vn -0.5916 -0.6979 -0.4036
vn -0.7099 -0.6027 -0.3643
vn -0.7981 -0.3665 -0.4782
vn -0.2078 -0.0435 -0.9772
vn 0.3932 0.3984 0.8286
vn 0.1168 -0.9548 0.2734
vn -0.0251 -0.0659 0.9975
vn -0.1755 -0.9522 -0.2502
vn 0.2300 -0.3606 0.9039
vn -0.3133 -0.3717 0.8739
vn 0.2706 0.0900 0.9585
vn 0.2623 -0.1509 0.9531
vn 0.3435 0.8637 0.3688
vn 0.3023 0.7741 0.5562
vn 0.0464 0.4844 0.8736
vn 0.1214 -0.7898 0.6013
vn -0.3577 -0.5219 0.7743
vn 0.8023 0.1333 0.5818
vn -0.2323 -0.9675 -0.0999
vn 0.0531 -0.2355 0.9704
vn -0.8715 -0.1151 -0.4767
vn -0.0800 -0.9881 0.1314
vn 0.1004 0.6097 -0.7862
vn 0.5750 0.2925 -0.7641
vn 0.6503 0.2754 -0.7080
vn -0.0166 -0.2124 0.9770
vn -0.8630 0.1955 -0.4659
vn 0.4486 -0.3602 -0.8180
vn 0.6827 -0.4864 -0.5452
vn -0.1606 -0.5712 -0.8049
vn 0.4057 0.3246 -0.8544
vn -0.5305 0.8289 0.1774
vn -0.2458 0.7768 0.5798
vn -0.2009 0.2665 0.9427
vn 0.0104 -0.6630 -0.7485
vn -0.1223 0.9123 -0.3908
vn 0.6914 0.7225 -0.0041
vn 0.6483 0.7096 -0.2759
vn -0.1818 -0.6860 -0.7046
vn 0.6823 -0.7306 0.0261
vn 0.7928 -0.5603 0.2398
vn 0.6954 0.6532 0.2996
vn 0.4088 0.0565 -0.9109
vn 0.7931 -0.5286 0.3025
vn 0.6292 -0.6579 -0.4137
vn 0.7114 0.3896 0.5849
vn -0.6988 -0.2397 0.6740
vn -0.8081 0.1934 -0.5564
vn -0.8893 0.0257 -0.4566
vn -0.3655 -0.0766 0.9277
vn -0.6886 -0.2141 0.6928
vn -0.4191 -0.8791 0.2269
usemtl sungaya_inexpectata_31mg
s 1
f 14/1/1 15/2/2 75/3/3
f 18/4/4 19/5/5 67/6/6
f 29/7/7 56/8/8 30/9/9
f 3/10/10 87/11/11 31/12/12
f 37/13/13 38/14/14 26/15/15
f 81/16/16 123/17/17 42/18/18
f 54/19/19 55/20/20 44/21/21
f 66/22/22 40/23/23 67/24/6
f 64/25/24 80/26/25 79/27/26
f 83/28/27 69/29/28 68/30/29
f 84/31/30 85/32/31 119/33/32
f 129/34/33 89/35/34 93/36/35
f 90/37/36 116/38/37 115/39/38
f 115/40/38 91/41/39 90/42/36
f 94/43/40 95/44/41 125/45/42
f 37/13/13 163/46/43 38/14/14
f 61/47/44 109/48/45 176/49/46
f 35/50/47 172/51/48 64/52/24
f 111/53/49 23/54/50 112/55/51
f 106/56/52 112/55/51 23/54/50
f 115/39/38 116/38/37 51/57/53
f 27/58/54 53/59/55 122/60/56
f 41/61/57 7/62/58 2/63/59
f 41/64/57 2/65/59 126/66/60
f 54/19/19 44/21/21 96/67/61
f 42/68/18 123/69/17 151/70/62
f 151/71/62 160/72/63 42/73/18
f 14/74/1 54/19/19 96/67/61
f 56/75/8 84/76/30 178/77/64
f 222/78/65 224/79/66 74/80/67 43/81/68
f 17/82/69 138/83/70 45/84/71
f 105/85/72 138/86/70 156/87/73
f 18/88/4 67/89/6 40/90/23
f 143/91/74 120/92/75 151/93/62
f 10/94/76 80/95/25 9/96/77
f 38/97/14 163/98/43 147/99/78
f 76/100/79 149/101/80 148/102/81
f 148/103/81 52/104/82 76/105/79
f 80/106/25 13/107/83 79/108/26
f 76/109/79 150/110/84 6/111/85
f 50/112/86 116/113/37 120/114/75
f 165/115/87 34/116/88 113/117/89
f 58/118/90 67/119/6 152/120/91
f 86/121/92 78/122/93 75/3/3
f 124/123/94 76/124/79 6/125/85
f 31/126/12 87/127/11 88/128/95
f 9/129/77 64/130/24 8/131/96
f 96/132/61 98/133/97 15/134/2
f 154/135/98 77/136/99 165/137/87
f 129/138/33 93/139/35 130/140/100
f 91/141/39 130/142/100 93/143/35
f 2/144/59 127/145/101 88/146/95
f 46/147/102 95/148/41 137/149/103
f 217/150/104 144/151/105 228/152/106
f 161/153/107 9/154/77 47/155/108
f 161/156/107 108/157/109 25/158/110
f 172/159/48 35/160/47 154/161/98
f 175/162/111 176/49/46 109/48/45
f 139/163/112 102/164/113 134/165/114
f 137/166/103 57/167/115 167/168/116
f 12/169/117 10/170/76 1/171/118
f 143/172/74 182/173/119 50/174/86
f 166/175/120 128/176/121 7/177/58
f 32/178/122 129/179/33 103/180/123
f 136/181/124 85/182/31 110/183/125
f 135/184/126 132/185/127 46/147/102
f 65/186/128 159/187/129 17/188/69
f 153/189/130 65/190/128 89/191/34
f 82/192/131 65/193/128 153/194/130
f 161/195/107 25/196/110 24/197/132
f 118/198/133 71/199/134 36/200/135
f 172/201/48 113/202/89 8/203/96
f 51/57/53 116/38/37 158/204/136
f 173/205/137 138/206/70 17/207/69
f 137/208/103 58/209/90 57/210/115
f 148/211/81 149/212/80 142/213/138
f 167/214/116 57/215/115 56/216/8
f 162/217/139 35/218/47 79/219/26
f 162/220/139 79/221/26 23/222/50
f 13/107/83 80/106/25 12/223/117
f 51/57/53 91/224/39 115/39/38
f 13/225/83 12/226/117 157/227/140
f 67/228/6 19/229/5 152/230/91
f 36/231/135 102/232/113 118/233/133
f 35/234/47 64/235/24 79/236/26
f 13/237/83 157/238/140 136/239/124
f 113/240/89 9/154/77 8/241/96
f 222/242/65 43/243/68 206/244/141
f 81/245/16 53/246/55 27/247/54
f 23/248/50 79/249/26 174/250/142
f 86/251/92 63/252/143 62/253/144
f 124/254/94 176/255/46 175/256/111
f 139/257/112 84/258/30 29/259/7
f 106/260/52 110/261/125 131/262/145
f 37/263/13 26/264/15 16/265/146
f 26/266/15 173/267/137 16/268/146
f 151/93/62 90/269/36 160/270/63
f 142/271/138 83/28/27 128/272/121
f 128/272/121 83/28/27 127/145/101
f 54/273/19 26/274/15 55/275/20
f 192/276/147 199/277/148 28/278/149
f 123/279/17 153/280/130 151/281/62
f 128/282/121 166/283/120 148/284/81
f 16/285/146 17/286/69 48/287/150
f 211/288/151 5/289/152 208/290/153
f 45/84/71 145/291/154 93/36/35
f 147/292/78 163/293/43 100/294/155
f 100/295/155 43/296/68 147/297/78
f 14/298/1 156/299/73 54/300/19
f 88/301/95 132/302/127 135/303/126
f 155/304/156 156/305/73 14/306/1
f 75/3/3 122/307/56 155/308/156
f 158/309/136 116/310/37 50/311/86
f 172/51/48 154/312/98 165/313/87
f 203/314/157 34/315/88 194/316/158
f 203/314/157 202/317/159 34/315/88
f 117/318/160 109/48/45 170/319/161
f 66/320/22 95/321/41 94/322/40
f 70/323/162 167/324/116 178/325/64
f 206/326/141 43/327/68 226/328/163
f 215/329/164 226/330/163 43/331/68 100/332/155
f 48/333/150 101/334/165 163/335/43
f 163/336/43 16/285/146 48/287/150
f 40/337/23 66/338/22 39/339/166
f 96/67/61 44/21/21 98/340/97
f 98/341/97 44/342/21 55/343/20
f 210/344/167 214/345/168 62/253/144
f 87/346/11 183/347/169 88/301/95
f 109/348/45 61/349/44 171/350/170
f 9/351/77 24/352/132 11/353/171
f 160/354/63 92/355/172 145/356/154
f 145/356/154 73/357/173 160/354/63
f 56/358/8 178/359/64 167/360/116
f 139/361/112 134/362/114 140/363/174
f 134/362/114 33/364/175 140/363/174
f 70/365/162 19/366/5 18/367/4
f 182/368/119 103/369/123 6/111/85
f 103/369/123 133/370/176 6/111/85
f 17/371/69 16/372/146 173/373/137
f 10/374/76 12/375/117 80/376/25
f 59/377/177 87/378/11 3/379/10
f 213/380/178 204/381/179 78/122/93 86/121/92
f 204/382/179 227/383/180 107/384/181 78/385/93
f 126/386/60 2/387/59 135/388/126
f 15/389/2 63/252/143 86/251/92
f 107/390/181 48/391/150 78/392/93
f 107/393/181 101/394/165 48/395/150
f 51/57/53 158/204/136 20/396/182
f 20/397/182 158/398/136 21/399/183
f 6/400/85 20/401/182 124/123/94
f 136/402/124 174/403/142 13/404/83
f 65/405/128 45/84/71 89/406/34
f 133/407/176 130/408/100 91/409/39
f 157/410/140 104/411/184 180/412/185
f 28/278/149 111/413/49 108/414/109
f 112/415/51 108/414/109 111/413/49
f 16/372/146 163/416/43 37/417/13
f 179/418/186 135/419/126 46/420/102
f 81/421/16 42/422/18 53/423/55
f 82/424/131 123/425/17 81/426/16
f 92/427/172 160/428/63 90/37/36
f 92/427/172 90/37/36 91/429/39
f 99/430/187 176/431/46 124/432/94
f 99/433/187 124/434/94 20/435/182
f 113/117/89 34/116/88 47/436/108
f 26/437/15 38/438/14 55/439/20
f 102/440/113 36/441/135 114/442/188
f 88/443/95 141/444/189 31/445/12
f 83/446/27 141/447/189 88/448/95
f 106/449/52 23/54/50 174/450/142
f 174/451/142 110/452/125 106/453/52
f 89/454/34 129/455/33 153/189/130
f 71/456/134 30/457/9 19/458/5
f 152/120/91 19/459/5 30/460/9
f 74/461/67 121/462/190 22/463/191
f 22/464/191 121/465/190 169/466/192
f 7/62/58 127/467/101 2/63/59
f 133/468/176 91/469/39 51/470/53
f 98/471/97 63/252/143 15/389/2
f 98/471/97 97/472/193 63/252/143
f 63/252/143 97/472/193 144/473/105
f 217/474/104 219/475/194 144/476/105
f 11/477/171 1/478/118 10/170/76
f 186/479/195 34/480/88 202/481/159
f 9/482/77 11/483/171 10/484/76
f 102/485/113 12/486/117 134/487/114
f 56/488/8 57/489/115 30/490/9
f 119/491/32 181/492/196 84/493/30
f 181/492/196 178/494/64 84/493/30
f 45/495/71 65/496/128 17/497/69
f 182/498/119 61/499/44 50/500/86
f 26/501/15 54/502/19 156/503/73
f 41/504/57 94/505/40 125/506/42
f 126/66/60 94/507/40 41/64/57
f 104/508/184 36/509/135 168/510/197
f 113/511/89 172/512/48 165/513/87
f 227/514/180 223/515/198 107/516/181
f 214/517/168 213/518/178 86/251/92 62/253/144
f 27/519/54 122/307/56 75/3/3
f 61/520/44 158/521/136 50/522/86
f 21/523/183 158/521/136 61/520/44
f 156/524/73 173/525/137 26/526/15
f 73/527/173 145/528/154 138/529/70
f 138/83/70 145/291/154 45/84/71
f 112/530/51 106/531/52 25/532/110
f 18/533/4 40/534/23 164/535/199
f 102/536/113 157/537/140 12/538/117
f 157/539/140 102/540/113 114/541/188
f 1/542/118 134/543/114 12/544/117
f 1/545/118 33/546/175 134/547/114
f 133/548/176 103/549/123 129/179/33
f 116/550/37 90/551/36 120/552/75
f 183/347/169 132/302/127 88/301/95
f 174/553/142 136/554/124 110/555/125
f 24/556/132 25/557/110 4/558/200
f 4/559/200 25/532/110 106/531/52
f 4/559/200 106/531/52 131/560/145
f 181/561/196 119/562/32 180/563/185
f 104/411/184 181/564/196 180/565/185
f 168/566/197 181/564/196 104/411/184
f 73/567/173 105/568/72 53/569/55
f 138/86/70 105/568/72 73/567/173
f 142/570/138 149/571/80 69/572/28
f 142/271/138 69/29/28 83/28/27
f 7/573/58 128/574/121 127/575/101
f 75/576/3 78/577/93 27/578/54
f 13/225/83 174/579/142 79/580/26
f 196/581/201 28/582/149 195/583/202
f 105/584/72 122/585/56 53/586/55
f 46/587/102 164/588/199 179/589/186
f 137/590/103 164/591/199 46/592/102
f 165/137/87 77/136/99 34/593/88
f 121/594/190 5/595/152 169/596/192
f 72/597/203 169/598/192 5/599/152
f 33/546/175 131/600/145 140/601/174
f 110/602/125 140/603/174 131/604/145
f 148/284/81 59/605/177 52/606/82
f 166/283/120 59/605/177 148/284/81
f 87/607/11 59/608/177 183/609/169
f 59/610/177 166/611/120 183/612/169
f 179/613/186 39/614/166 126/615/60
f 179/616/186 126/617/60 135/618/126
f 39/619/166 94/505/40 126/620/60
f 156/524/73 138/621/70 173/525/137
f 205/622/204 107/623/181 223/624/198
f 61/625/44 182/626/119 171/627/170
f 150/628/84 182/629/119 6/630/85
f 182/626/119 150/631/84 171/627/170
f 75/632/3 15/633/2 86/634/92
f 96/67/61 15/635/2 14/74/1
f 35/636/47 162/637/139 154/135/98
f 53/638/55 160/639/63 73/640/173
f 53/641/55 42/642/18 160/643/63
f 82/644/131 159/187/129 65/186/128
f 109/645/45 171/646/170 170/647/161
f 164/648/199 167/324/116 70/649/162
f 164/648/199 70/649/162 18/650/4
f 191/651/205 185/652/206 60/653/207
f 155/654/156 105/655/72 156/656/73
f 155/654/156 122/657/56 105/655/72
f 99/658/187 20/659/182 21/660/183
f 153/661/130 129/34/33 32/662/122
f 47/155/108 9/154/77 113/240/89
f 178/663/64 181/564/196 168/566/197
f 172/664/48 8/665/96 64/666/24
f 148/284/81 142/667/138 128/668/121
f 184/669/208 71/670/134 118/671/133
f 184/672/208 118/673/133 29/674/7
f 55/675/20 22/676/191 169/677/192
f 38/438/14 22/678/191 55/679/20
f 130/680/100 133/681/176 129/682/33
f 224/683/66 225/684/209 121/465/190 74/685/67
f 55/686/20 169/687/192 72/688/203
f 220/689/210 212/690/211 5/691/152 121/692/190
f 220/693/210 121/694/190 225/695/209
f 143/696/74 103/697/123 182/698/119
f 103/697/123 143/696/74 32/699/122
f 32/699/122 143/696/74 151/700/62
f 22/463/191 147/701/78 74/461/67
f 38/438/14 147/702/78 22/678/191
f 69/703/28 149/101/80 124/704/94
f 124/123/94 149/705/80 76/706/79
f 143/91/74 50/707/86 120/92/75
f 14/1/1 75/3/3 155/308/156
f 52/708/82 150/709/84 76/710/79
f 9/711/77 80/712/25 64/713/24
f 25/714/110 108/414/109 112/415/51
f 83/715/27 88/716/95 127/717/101
f 48/718/150 49/719/212 78/720/93
f 159/721/129 27/722/54 49/723/212
f 78/724/93 49/725/212 27/726/54
f 131/727/145 24/728/132 4/729/200
f 131/730/145 11/731/171 24/732/132
f 1/733/118 11/734/171 131/735/145
f 1/736/118 131/737/145 33/738/175
f 28/278/149 108/414/109 146/739/213
f 94/505/40 39/619/166 66/740/22
f 166/283/120 7/741/58 41/64/57
f 41/64/57 183/742/169 166/283/120
f 118/743/133 102/744/113 139/745/112
f 29/746/7 118/747/133 139/748/112
f 70/749/162 178/663/64 168/750/197
f 100/751/155 163/752/43 101/753/165
f 208/754/153 5/755/152 212/756/211
f 193/757/214 201/758/215 146/759/213 161/760/107
f 91/761/39 93/762/35 92/763/172
f 92/764/172 93/765/35 145/356/154
f 161/766/107 146/767/213 108/414/109
f 161/768/107 24/769/132 9/770/77
f 120/771/75 90/772/36 151/773/62
f 176/774/46 99/775/187 61/776/44
f 61/777/44 99/778/187 21/779/183
f 3/780/10 31/781/12 117/782/160
f 117/782/160 68/783/29 175/784/111
f 117/318/160 175/162/111 109/48/45
f 31/785/12 68/786/29 117/787/160
f 132/185/127 95/148/41 46/147/102
f 84/76/30 56/75/8 29/788/7
f 184/789/208 29/7/7 30/9/9
f 41/790/57 125/791/42 183/792/169
f 125/793/42 132/794/127 183/795/169
f 66/796/22 58/797/90 137/798/103
f 95/799/41 66/800/22 137/801/103
f 58/802/90 66/803/22 67/804/6
f 55/343/20 72/805/203 97/806/193
f 97/806/193 98/341/97 55/343/20
f 162/807/139 177/808/216 154/809/98
f 89/810/34 45/811/71 93/812/35
f 164/813/199 137/814/103 167/815/116
f 30/816/9 71/817/134 184/818/208
f 71/819/134 168/820/197 36/821/135
f 70/822/162 168/823/197 71/824/134
f 153/825/130 32/826/122 151/827/62
f 51/828/53 6/829/85 133/830/176
f 6/831/85 51/832/53 20/833/182
f 147/834/78 43/835/68 74/836/67
f 132/185/127 125/837/42 95/148/41
f 104/838/184 157/839/140 114/840/188
f 114/841/188 36/842/135 104/843/184
f 58/844/90 152/845/91 57/846/115
f 57/847/115 152/848/91 30/849/9
f 88/850/95 135/851/126 2/852/59
f 68/30/29 69/29/28 175/853/111
f 69/854/28 124/855/94 175/856/111
f 117/857/160 59/858/177 3/859/10
f 70/860/162 71/861/134 19/459/5
f 31/862/12 141/863/189 68/864/29
f 68/30/29 141/865/189 83/28/27
f 17/188/69 159/187/129 48/866/150
f 159/867/129 49/868/212 48/869/150
f 117/870/160 52/871/82 59/872/177
f 82/873/131 153/874/130 123/875/17
f 179/876/186 40/877/23 39/878/166
f 164/879/199 40/877/23 179/876/186
f 111/53/49 60/880/207 177/881/216
f 23/54/50 177/881/216 162/882/139
f 23/54/50 111/53/49 177/881/216
f 180/883/185 136/884/124 157/885/140
f 180/886/185 85/887/31 136/888/124
f 180/889/185 119/890/32 85/891/31
f 140/892/174 110/602/125 139/893/112
f 139/894/112 110/895/125 85/896/31
f 27/897/54 159/898/129 82/899/131
f 27/897/54 82/899/131 81/900/16
f 139/901/112 85/32/31 84/31/30
f 170/902/161 52/903/82 117/904/160
f 171/905/170 150/906/84 52/907/82
f 171/908/170 52/909/82 170/910/161
f 199/911/148 195/912/202 28/913/149
f 154/914/98 200/915/217 198/916/218
f 161/153/107 197/917/219 193/918/214
f 28/919/149 146/920/213 201/921/215 192/922/147
f 111/923/49 190/924/220 191/925/205 60/926/207
f 28/927/149 196/928/201 190/929/220 111/930/49
f 77/136/99 189/931/221 194/932/158 34/933/88
f 154/135/98 198/934/218 189/935/221 77/136/99
f 177/936/216 188/937/222 200/938/217 154/939/98
f 161/153/107 47/155/108 187/940/223 197/917/219
f 34/941/88 186/942/195 187/943/223 47/944/108
f 60/945/207 185/946/206 188/937/222 177/936/216
f 202/481/159 203/314/157 194/932/158 189/935/221 198/916/218 200/938/217 188/937/222 185/652/206 191/925/205 190/929/220 196/581/201 195/912/202 199/277/148 192/922/147 201/758/215 193/918/214 197/917/219 187/943/223 186/479/195
f 97/947/193 218/948/224 228/949/106 144/950/105
f 100/951/155 101/952/165 216/953/225 229/954/226
f 100/955/155 229/956/226 215/957/164
f 72/958/203 5/959/152 211/960/151 221/961/227
f 72/805/203 221/962/227 209/963/228
f 72/805/203 209/963/228 218/964/224 97/806/193
f 144/965/105 219/966/194 207/967/229 63/968/143
f 62/969/144 63/970/143 207/971/229 210/972/167
f 101/973/165 107/974/181 205/975/204 216/976/225
f 224/79/66 222/78/65 206/244/141 226/328/163 215/329/164 229/956/226 216/953/225 205/975/204 223/624/198 227/514/180 204/382/179 213/380/178 214/517/168 210/344/167 207/971/229 219/966/194 217/474/104 228/152/106 218/948/224 209/963/228 221/962/227 211/960/151 208/290/153 212/756/211 220/689/210 225/695/209
