# Blender v2.79 (sub 0) OBJ File: 'redo_fixed_360_joints.blend'
# www.blender.org
mtllib sungaya_inexpectata_31mg.mtl
o 37-m-r-coxa.000_Sungaya_inexpectata_31mg.059
v 0.000325 0.000179 -0.000293
v -0.000063 -0.000298 0.000036
v 0.000189 0.000216 0.000204
v 0.000325 0.000243 -0.000058
v -0.000055 -0.000275 0.000182
v -0.000181 0.000242 0.000052
v -0.000168 0.000255 0.000201
v 0.000228 0.000144 0.000207
v -0.000233 -0.000272 0.000139
v 0.000197 -0.000195 -0.000259
v -0.000260 -0.000247 -0.000003
v -0.000226 0.000196 -0.000083
v 0.000082 -0.000279 -0.000017
v -0.000012 0.000059 0.000353
v 0.000026 -0.000282 -0.000103
v 0.000144 -0.000258 -0.000070
v 0.000003 -0.000199 0.000302
v 0.000217 0.000268 0.000025
v 0.000224 0.000248 0.000128
v 0.000168 0.000052 0.000301
v 0.000229 0.000032 0.000270
v 0.000226 -0.000064 0.000278
v 0.000052 0.000273 0.000041
v 0.000276 -0.000216 -0.000035
v -0.000301 0.000249 0.000014
v 0.000241 0.000042 0.000069
v -0.000129 0.000029 -0.000247
v 0.000382 -0.000147 -0.000057
v 0.000233 -0.000235 -0.000137
v 0.000101 -0.000228 -0.000202
v -0.000237 0.000275 0.000161
v -0.000075 0.000205 -0.000257
v -0.000100 -0.000280 -0.000084
v -0.000330 0.000177 -0.000165
v -0.000278 0.000157 -0.000175
v 0.000291 0.000141 -0.000320
v -0.000439 0.000080 -0.000210
v -0.000270 -0.000032 -0.000209
v -0.000273 0.000292 0.000123
v 0.000166 -0.000168 0.000285
v -0.000084 -0.000232 -0.000200
v 0.000367 -0.000168 -0.000268
v 0.000284 -0.000129 0.000035
v -0.000385 0.000272 -0.000094
v 0.000036 0.000068 -0.000272
v 0.000092 -0.000094 -0.000273
v -0.000378 -0.000035 -0.000196
v -0.000007 -0.000199 -0.000241
v -0.000384 -0.000184 -0.000102
v 0.000278 0.000004 0.000011
v 0.000073 0.000266 0.000161
v 0.000250 0.000148 0.000114
v 0.000271 0.000130 -0.000004
v 0.000096 -0.000146 0.000301
v 0.000100 -0.000248 0.000088
v -0.000049 -0.000082 -0.000230
v 0.000108 0.000226 -0.000222
v 0.000043 0.000156 0.000303
v -0.000346 -0.000128 -0.000174
v 0.000228 0.000198 -0.000303
v -0.000210 0.000092 -0.000240
v 0.000224 -0.000037 0.000210
v 0.000315 0.000265 -0.000052
v -0.000175 0.000328 0.000300
v 0.000225 0.000012 0.000127
v -0.000010 -0.000107 0.000348
v 0.000340 0.000116 -0.000084
v 0.000385 -0.000214 -0.000127
v 0.000234 0.000247 -0.000208
v -0.000265 -0.000189 -0.000193
v 0.000244 -0.000092 -0.000316
v 0.000341 -0.000126 -0.000304
v 0.000080 0.000209 -0.000291
v -0.000300 0.000085 -0.000205
v 0.000220 0.000163 0.000240
v 0.000243 -0.000182 0.000251
v -0.000127 0.000240 0.000289
v 0.000054 -0.000224 0.000200
v -0.000150 -0.000232 0.000282
v 0.000331 -0.000209 -0.000209
v 0.000267 -0.000199 0.000097
v -0.000157 -0.000151 -0.000216
v 0.000176 0.000150 -0.000332
v 0.000229 -0.000226 0.000074
v 0.000342 0.000245 -0.000080
v 0.000361 -0.000065 -0.000351
v 0.000354 0.000123 -0.000087
v 0.000340 0.000152 -0.000336
v 0.000339 0.000251 -0.000118
v 0.000349 0.000166 -0.000093
v 0.000338 0.000231 -0.000204
v 0.000376 -0.000102 -0.000085
v 0.000386 -0.000190 -0.000053
v 0.000369 -0.000129 -0.000308
v 0.000338 0.000240 -0.000187
v 0.000376 -0.000099 -0.000085
v 0.000374 -0.000085 -0.000086
v 0.000385 -0.000178 -0.000043
v 0.000339 0.000201 -0.000253
v 0.000387 -0.000187 -0.000039
v 0.000339 0.000182 -0.000295
v 0.000339 0.000176 -0.000306
v 0.000382 -0.000196 -0.000175
v 0.000376 -0.000169 -0.000253
v 0.000376 -0.000101 -0.000085
v 0.000351 0.000036 -0.000363
v 0.000352 0.000023 -0.000361
v 0.000375 -0.000167 -0.000271
v 0.000350 0.000045 -0.000358
v 0.000356 0.000099 -0.000087
v 0.000366 -0.000106 -0.000322
v 0.000341 0.000255 -0.000082
v -0.000230 0.000288 0.000201
v -0.000309 -0.000269 0.000064
v -0.000215 0.000291 0.000229
v -0.000434 0.000262 -0.000162
v -0.000250 0.000304 0.000167
v -0.000106 0.000027 0.000424
v -0.000460 0.000114 -0.000208
v -0.000144 -0.000160 0.000358
v -0.000456 0.000028 -0.000200
v -0.000123 0.000139 0.000394
v -0.000383 -0.000205 -0.000068
v -0.000107 -0.000008 0.000424
v -0.000137 0.000200 0.000368
v -0.000432 -0.000118 -0.000158
v -0.000218 -0.000258 0.000227
v -0.000252 -0.000283 0.000166
v -0.000120 -0.000110 0.000401
v -0.000278 -0.000275 0.000119
v -0.000139 0.000203 0.000364
v -0.000436 -0.000096 -0.000164
v -0.000156 -0.000200 0.000337
v -0.000448 -0.000066 -0.000185
v -0.000137 0.000197 0.000369
v -0.000271 0.000295 0.000128
v -0.000179 -0.000239 0.000296
v -0.000206 0.000287 0.000245
v -0.000368 -0.000214 -0.000041
v -0.000122 -0.000122 0.000397
v -0.000404 0.000277 -0.000108
v -0.000145 0.000269 0.000353
v -0.000446 0.000223 -0.000183
v -0.000399 -0.000191 -0.000097
v -0.000414 -0.000155 -0.000124
vt 0.845955 0.754351
vt 0.845013 0.752836
vt 0.841960 0.758066
vt 0.842461 0.765981
vt 0.841016 0.765155
vt 0.840676 0.767185
vt 0.795446 0.956843
vt 0.794908 0.956567
vt 0.795282 0.957391
vt 0.839472 0.756088
vt 0.837263 0.756109
vt 0.837134 0.761050
vt 0.783270 0.028787
vt 0.780843 0.028408
vt 0.784554 0.033239
vt 0.810009 0.825104
vt 0.810345 0.822722
vt 0.809325 0.823047
vt 0.114731 0.888330
vt 0.113639 0.890619
vt 0.115993 0.887767
vt 0.634315 0.415818
vt 0.629937 0.412651
vt 0.632580 0.417049
vt 0.172172 0.417563
vt 0.172734 0.418903
vt 0.173524 0.418129
vt 0.388279 0.602012
vt 0.389790 0.600057
vt 0.390081 0.595380
vt 0.938297 0.325510
vt 0.936307 0.325235
vt 0.937680 0.328102
vt 0.387759 0.597405
vt 0.388171 0.591531
vt 0.384475 0.595517
vt 0.231661 0.952044
vt 0.231561 0.950565
vt 0.230082 0.950825
vt 0.287319 0.294156
vt 0.288568 0.294061
vt 0.288095 0.293980
vt 0.776732 0.030883
vt 0.781548 0.032458
vt 0.069142 0.116380
vt 0.066220 0.115065
vt 0.062873 0.115596
vt 0.782460 0.039076
vt 0.778567 0.041118
vt 0.781653 0.043017
vt 0.934656 0.325353
vt 0.935459 0.327136
vt 0.548293 0.292105
vt 0.545550 0.291953
vt 0.548281 0.296290
vt 0.380798 0.584878
vt 0.380568 0.585192
vt 0.381251 0.590701
vt 0.386542 0.585755
vt 0.637692 0.421824
vt 0.635692 0.420028
vt 0.634995 0.423828
vt 0.784160 0.035767
vt 0.389410 0.586242
vt 0.058655 0.099676
vt 0.056787 0.102042
vt 0.060268 0.104075
vt 0.061775 0.108286
vt 0.063465 0.104502
vt 0.553049 0.298353
vt 0.549994 0.300649
vt 0.361798 0.791458
vt 0.359216 0.795879
vt 0.360733 0.795537
vt 0.630391 0.410094
vt 0.228950 0.951977
vt 0.230429 0.953457
vt 0.880467 0.434524
vt 0.879429 0.432892
vt 0.878408 0.435528
vt 0.288591 0.293204
vt 0.466652 0.362331
vt 0.466801 0.362723
vt 0.467849 0.362250
vt 0.841287 0.761708
vt 0.839217 0.759482
vt 0.425062 0.695199
vt 0.426875 0.693118
vt 0.424158 0.695067
vt 0.718741 0.583053
vt 0.719805 0.586770
vt 0.722664 0.585729
vt 0.670428 0.416574
vt 0.670571 0.420035
vt 0.671972 0.416718
vt 0.054547 0.107044
vt 0.060439 0.112932
vt 0.059796 0.108255
vt 0.844808 0.752415
vt 0.550876 0.304553
vt 0.552620 0.301929
vt 0.059830 0.115085
vt 0.062169 0.115663
vt 0.722935 0.588053
vt 0.721495 0.589779
vt 0.643103 0.463756
vt 0.646158 0.466040
vt 0.646402 0.463248
vt 0.518760 0.553493
vt 0.517449 0.549569
vt 0.516694 0.555077
vt 0.281571 0.153517
vt 0.280247 0.152856
vt 0.278795 0.153837
vt 0.779331 0.035990
vt 0.783610 0.036473
vt 0.059322 0.095647
vt 0.058210 0.096172
vt 0.058458 0.096769
vt 0.528197 0.677154
vt 0.533109 0.675093
vt 0.528076 0.675023
vt 0.466061 0.413468
vt 0.466871 0.414299
vt 0.467884 0.414057
vt 0.786132 0.039531
vt 0.784879 0.042440
vt 0.573161 0.396893
vt 0.574434 0.392894
vt 0.572209 0.394545
vt 0.773074 0.027312
vt 0.772847 0.023379
vt 0.770515 0.025389
vt 0.941278 0.457883
vt 0.939852 0.455522
vt 0.939703 0.457355
vt 0.848797 0.764704
vt 0.848798 0.764616
vt 0.845532 0.766376
vt 0.847948 0.766429
vt 0.845179 0.768480
vt 0.330785 0.788474
vt 0.329928 0.789901
vt 0.333316 0.790131
vt 0.258606 0.707202
vt 0.261974 0.710421
vt 0.261175 0.707514
vt 0.378318 0.589287
vt 0.378330 0.590063
vt 0.378774 0.590433
vt 0.384984 0.600050
vt 0.676449 0.333261
vt 0.678306 0.334736
vt 0.678608 0.329861
vt 0.845236 0.761763
vt 0.466374 0.362309
vt 0.904337 0.665482
vt 0.903671 0.664085
vt 0.904487 0.667413
vt 0.378712 0.587879
vt 0.645968 0.460535
vt 0.643094 0.461757
vt 0.950306 0.870189
vt 0.949097 0.870488
vt 0.949874 0.872527
vt 0.684921 0.329331
vt 0.682372 0.335146
vt 0.533990 0.113406
vt 0.534096 0.113105
vt 0.533161 0.112782
vt 0.532670 0.114360
vt 0.649331 0.456539
vt 0.649535 0.454778
vt 0.648258 0.454601
vt 0.648799 0.458329
vt 0.282485 0.195899
vt 0.282636 0.195554
vt 0.281936 0.196087
vt 0.296102 0.290113
vt 0.293409 0.293201
vt 0.294038 0.295642
vt 0.553873 0.996031
vt 0.558350 0.994365
vt 0.556370 0.993912
vt 0.774994 0.032648
vt 0.775893 0.032336
vt 0.848265 0.760378
vt 0.848545 0.762163
vt 0.779856 0.021340
vt 0.775112 0.022390
vt 0.779106 0.023894
vt 0.821349 0.367298
vt 0.821973 0.368761
vt 0.822424 0.365619
vt 0.250520 0.657481
vt 0.249814 0.660007
vt 0.250886 0.659890
vt 0.442911 0.791927
vt 0.444097 0.796262
vt 0.444629 0.793303
vt 0.250700 0.706418
vt 0.249545 0.709591
vt 0.249900 0.709883
vt 0.392123 0.594620
vt 0.392012 0.589317
vt 0.290806 0.296308
vt 0.288161 0.296201
vt 0.291215 0.299183
vt 0.288462 0.299559
vt 0.777704 0.025805
vt 0.057127 0.097231
vt 0.960516 0.738290
vt 0.961975 0.739302
vt 0.961554 0.738171
vt 0.040427 0.955427
vt 0.040601 0.955497
vt 0.042244 0.955012
vt 0.041499 0.954535
vt 0.041477 0.951921
vt 0.685762 0.352381
vt 0.685983 0.354007
vt 0.688179 0.358324
vt 0.687048 0.359961
vt 0.688990 0.359897
vt 0.532735 0.677084
vt 0.534494 0.676680
vt 0.774408 0.859973
vt 0.776568 0.859566
vt 0.775321 0.858648
vt 0.151982 0.049200
vt 0.150727 0.049768
vt 0.153230 0.049985
vt 0.362960 0.789691
vt 0.361872 0.788338
vt 0.381787 0.596106
vt 0.668277 0.420697
vt 0.831261 0.905863
vt 0.830383 0.903314
vt 0.830201 0.905600
vt 0.061754 0.100364
vt 0.060874 0.099428
vt 0.396494 0.918808
vt 0.397652 0.920754
vt 0.398314 0.919202
vt 0.396447 0.918326
vt 0.396319 0.918325
vt 0.722989 0.582663
vt 0.720538 0.581193
vt 0.521961 0.173199
vt 0.522208 0.172442
vt 0.521626 0.172037
vt 0.850261 0.765850
vt 0.572311 0.390927
vt 0.573289 0.389495
vt 0.843751 0.769423
vt 0.248058 0.658907
vt 0.249259 0.661188
vt 0.247952 0.658542
vt 0.686079 0.334644
vt 0.687170 0.330930
vt 0.546437 0.296413
vt 0.323483 0.332952
vt 0.324478 0.333426
vt 0.324406 0.331420
vt 0.191231 0.881730
vt 0.189299 0.880767
vt 0.187614 0.881368
vt 0.665468 0.423977
vt 0.667582 0.424737
vt 0.502295 0.184725
vt 0.500976 0.181906
vt 0.500665 0.182124
vt 0.769973 0.397796
vt 0.771770 0.396342
vt 0.771585 0.395350
vt 0.391755 0.597054
vt 0.393397 0.595795
vt 0.840751 0.750470
vt 0.836873 0.753065
vt 0.724806 0.583916
vt 0.724813 0.585024
vt 0.726117 0.585824
vt 0.842170 0.769207
vt 0.232940 0.952500
vt 0.232676 0.953370
vt 0.235963 0.952927
vt 0.441118 0.919436
vt 0.442285 0.922313
vt 0.442363 0.919857
vt 0.105376 0.932830
vt 0.104140 0.935464
vt 0.106744 0.933940
vt 0.104349 0.933379
vt 0.103506 0.934941
vt 0.952321 0.467838
vt 0.951137 0.467347
vt 0.948770 0.467891
vt 0.330243 0.794381
vt 0.334386 0.794862
vt 0.332419 0.792243
vt 0.430758 0.693140
vt 0.430126 0.691679
vt 0.267223 0.381968
vt 0.266514 0.382856
vt 0.267894 0.383044
vt 0.545528 0.294377
vt 0.599209 0.071262
vt 0.600603 0.070293
vt 0.599470 0.070548
vt 0.530245 0.991810
vt 0.534003 0.990213
vt 0.529837 0.989992
vt 0.588565 0.074579
vt 0.586470 0.073614
vt 0.586983 0.074684
vt 0.518769 0.544784
vt 0.519320 0.547401
vt 0.520134 0.543806
vt 0.518398 0.548332
vt 0.809402 0.825780
vt 0.467181 0.366491
vt 0.468754 0.364780
vt 0.466384 0.364065
vt 0.493045 0.270951
vt 0.493787 0.270024
vt 0.493042 0.269033
vt 0.902095 0.387897
vt 0.903818 0.385915
vt 0.902022 0.386618
vt 0.394667 0.593239
vt 0.785998 0.036009
vt 0.788619 0.037777
vt 0.834794 0.763871
vt 0.834737 0.762782
vt 0.833477 0.763192
vt 0.697903 0.151838
vt 0.699864 0.151602
vt 0.698148 0.150651
vt 0.384498 0.585475
vt 0.381052 0.584921
vt 0.298598 0.290043
vt 0.294639 0.285834
vt 0.294415 0.285966
vt 0.292541 0.287279
vt 0.292506 0.287327
vt 0.250995 0.709747
vt 0.250770 0.706177
vt 0.779916 0.045907
vt 0.778608 0.045987
vt 0.778984 0.046517
vt 0.779964 0.046074
vt 0.711522 0.659024
vt 0.712673 0.658977
vt 0.715141 0.662634
vt 0.715046 0.662685
vt 0.292571 0.287237
vt 0.469537 0.362028
vt 0.293377 0.286664
vt 0.961017 0.737882
vt 0.959785 0.737554
vt 0.383403 0.584407
vt 0.382999 0.582930
vt 0.380906 0.584779
vt 0.667175 0.425413
vt 0.667972 0.426857
vt 0.808337 0.687158
vt 0.807499 0.686625
vt 0.806780 0.686524
vt 0.807023 0.686753
vt 0.522387 0.171726
vt 0.522609 0.172278
vt 0.522821 0.171546
vt 0.766702 0.027424
vt 0.767451 0.023980
vt 0.766063 0.026552
vt 0.076851 0.782415
vt 0.077849 0.782631
vt 0.077359 0.781700
vt 0.782815 0.188502
vt 0.782875 0.189300
vt 0.783431 0.188974
vt 0.783933 0.023053
vt 0.787481 0.024815
vt 0.786819 0.023917
vt 0.785130 0.023100
vt 0.770650 0.023176
vt 0.768248 0.023397
vt 0.433523 0.256216
vt 0.432936 0.255740
vt 0.432343 0.256957
vt 0.587523 0.065177
vt 0.585746 0.064963
vt 0.585704 0.066370
vt 0.585753 0.066361
vt 0.773232 0.022743
vt 0.054246 0.100466
vt 0.053944 0.104680
vt 0.842823 0.751629
vt 0.842258 0.750784
vt 0.054624 0.108393
vt 0.057642 0.113764
vt 0.846627 0.755178
vt 0.782216 0.021725
vt 0.039282 0.954568
vt 0.039136 0.954907
vt 0.039450 0.955074
vn -0.2436 -0.7976 0.5519
vn 0.5255 -0.2609 0.8098
vn 0.3983 -0.2207 0.8903
vn 0.3324 0.1578 0.9298
vn 0.7621 -0.0384 0.6463
vn 0.8534 0.0232 0.5208
vn -0.2791 0.6188 -0.7343
vn 0.5828 0.7491 -0.3148
vn 0.4489 -0.2728 0.8509
vn 0.2444 -0.6837 0.6876
vn 0.2299 -0.9112 0.3420
vn 0.2283 -0.5048 0.8325
vn 0.0302 -0.9995 0.0098
vn -0.1611 -0.9564 -0.2434
vn 0.2100 -0.9772 0.0323
vn 0.2650 0.9641 -0.0197
vn 0.1106 0.9583 0.2634
vn -0.0288 0.9978 -0.0601
vn 0.2114 -0.2366 0.9483
vn 0.9887 0.0118 0.1492
vn 0.8056 0.2287 0.5465
vn 0.9449 0.0166 0.3269
vn 0.8925 -0.1118 0.4369
vn 0.9675 0.0245 0.2518
vn -0.1353 -0.1643 -0.9771
vn -0.1942 -0.1336 -0.9718
vn -0.1556 -0.1112 -0.9815
vn 0.9965 0.0543 0.0628
vn 0.9627 0.2317 0.1395
vn -0.1805 -0.1063 -0.9778
vn -0.2378 -0.0976 -0.9664
vn -0.2254 -0.1678 -0.9597
vn 0.5915 0.7316 0.3389
vn 0.9394 0.0770 0.3341
vn 0.5320 0.0286 0.8463
vn 0.7474 0.1102 0.6551
vn -0.1533 -0.7133 -0.6839
vn 0.0846 -0.9732 -0.2138
vn -0.0962 0.5541 -0.8268
vn 0.4764 0.7969 -0.3714
vn 0.3319 0.7351 0.5912
vn 0.1585 -0.9799 -0.1214
vn -0.0790 -0.6779 -0.7309
vn 0.2247 -0.9077 -0.3544
vn -0.0228 0.9548 -0.2963
vn 0.0983 0.7206 -0.6863
vn -0.0567 0.9713 -0.2311
vn 0.5691 0.1099 -0.8149
vn 0.5958 -0.0134 -0.8030
vn -0.1748 -0.3228 -0.9302
vn -0.1610 0.2252 -0.9609
vn 0.5371 0.8054 0.2507
vn 0.2737 -0.9616 -0.0195
vn -0.1447 0.6868 -0.7123
vn -0.3087 -0.4100 -0.8583
vn -0.1116 -0.2407 -0.9642
vn -0.3262 0.1011 -0.9399
vn -0.2243 0.6469 -0.7288
vn 0.7627 -0.5666 0.3119
vn 0.4121 0.7242 0.5529
vn 0.2676 -0.9570 0.1122
vn 0.8013 0.0666 0.5945
vn 0.5921 0.7207 -0.3606
vn -0.0761 0.7971 -0.5990
vn 0.7293 0.5963 -0.3355
vn -0.1342 0.9384 -0.3183
vn -0.1531 0.6399 -0.7531
vn 0.2302 -0.9449 0.2328
vn 0.1210 -0.9441 0.3066
vn -0.1362 -0.4717 -0.8712
vn 0.0564 -0.8877 -0.4570
vn 0.3908 0.4171 -0.8205
vn 0.2653 0.6058 -0.7501
vn -0.1394 0.2301 -0.9631
vn 0.1588 -0.7610 0.6290
vn -0.0189 0.9919 -0.1258
vn 0.2293 0.6427 0.7310
vn 0.5711 0.4635 0.6775
vn -0.6563 -0.0248 -0.7541
vn 0.1927 -0.6196 -0.7609
vn -0.1342 -0.7964 -0.5897
vn 0.7553 -0.6546 -0.0310
vn 0.8264 -0.5559 0.0899
vn 0.0710 0.9967 0.0389
vn -0.3014 -0.5715 -0.7633
vn -0.0872 -0.5880 -0.8041
vn 0.2588 -0.0364 0.9653
vn 0.4604 0.4213 0.7814
vn 0.2948 0.4746 0.8294
vn 0.5674 0.8035 0.1799
vn 0.3365 -0.8790 0.3378
vn 0.6473 -0.3685 -0.6672
vn 0.6345 -0.4149 -0.6521
vn -0.1827 -0.9513 -0.2484
vn 0.4089 0.1680 0.8970
vn 0.5357 0.6830 -0.4965
vn 0.7017 -0.5441 0.4600
vn 0.5780 -0.1968 -0.7920
vn 0.0871 -0.9954 -0.0391
vn 0.6778 0.7035 -0.2137
vn 0.7310 0.6082 -0.3094
vn 0.7073 0.6985 -0.1087
vn 0.7637 0.6229 0.1698
vn 0.8257 0.1230 0.5506
vn 0.5271 -0.1961 0.8269
vn -0.0073 -0.5405 0.8413
vn -0.8028 -0.2081 -0.5587
vn -0.7400 -0.2382 -0.6290
vn 0.9413 0.0890 0.3256
vn 0.8443 0.1160 0.5232
vn -0.1701 -0.9576 0.2326
vn -0.0306 0.4872 -0.8728
vn 0.3221 0.1575 0.9335
vn 0.6229 0.6987 0.3518
vn 0.3600 -0.2288 0.9045
vn 0.9839 0.1297 -0.1228
vn 0.8489 -0.4710 -0.2397
vn 0.8745 -0.4411 -0.2017
vn 0.0544 -0.8345 -0.5484
vn 0.6229 -0.6288 -0.4654
vn -0.4501 -0.8740 0.1834
vn 0.0399 -0.9968 -0.0689
vn 0.2068 -0.8860 0.4150
vn 0.6354 0.5225 0.5685
vn 0.4564 0.2649 0.8495
vn 0.9511 0.1020 0.2914
vn 0.5875 0.4087 0.6984
vn 0.6612 0.3573 -0.6596
vn 0.8043 -0.4331 0.4068
vn 0.9244 0.2252 0.3079
vn 0.9420 0.1082 0.3178
vn 0.9405 0.0997 0.3250
vn 0.9263 0.1848 0.3283
vn 0.8906 0.2489 0.3807
vn 0.4336 0.5255 -0.7320
vn 0.5057 -0.7890 0.3489
vn -0.5392 0.5543 -0.6341
vn 0.0900 -0.0174 -0.9958
vn -0.6956 -0.4676 -0.5454
vn 0.3101 -0.7227 0.6177
vn -0.5991 -0.6916 -0.4035
vn -0.0660 -0.7051 -0.7060
vn -0.3943 0.7625 -0.5130
vn -0.0870 0.9943 0.0615
vn 0.4501 0.0081 -0.8930
usemtl sungaya_inexpectata_31mg
s 1
f 124/1/1 129/2/2 66/3/3
f 20/4/4 22/5/5 21/6/6
f 113/7/7 31/8/8 117/9/9
f 17/10/10 78/11/11 40/12/12
f 2/13/13 33/14/14 13/15/15
f 7/16/16 51/17/17 23/18/18
f 40/19/12 22/20/5 54/21/19
f 65/22/20 43/23/21 26/24/22
f 26/25/22 53/26/23 52/27/24
f 82/28/25 38/29/26 27/30/27
f 21/31/6 62/32/28 8/33/29
f 56/34/30 45/35/31 46/36/32
f 8/37/29 52/38/24 19/39/33
f 90/40/34 67/41/35 87/42/36
f 41/43/37 15/44/38 33/14/14
f 39/45/39 25/46/40 44/47/41
f 29/48/42 10/49/43 80/50/44
f 62/32/28 65/51/20 52/52/24
f 69/53/45 60/54/46 57/55/47
f 106/56/48 107/57/49 71/58/50 83/59/51
f 19/60/33 52/61/24 63/62/52
f 16/63/53 13/15/15 15/44/38
f 45/35/31 27/30/27 73/64/54
f 59/65/55 47/66/56 38/67/26
f 38/67/26 61/68/57 27/69/27
f 23/70/18 57/55/47 32/71/58
f 81/72/59 65/73/20 62/74/28
f 43/23/21 65/22/20 81/75/59
f 8/37/29 19/76/33 3/77/60
f 24/78/61 16/79/53 29/80/42
f 110/81/62 87/42/36 67/41/35
f 101/82/63 1/83/64 99/84/65
f 22/85/5 66/3/3 54/86/19
f 12/87/66 32/88/58 35/89/67
f 55/90/68 78/91/11 5/92/69
f 48/93/70 30/94/71 41/95/37
f 37/96/72 34/97/73 74/98/74
f 129/2/2 140/99/75 17/10/10 66/3/3
f 32/71/58 12/100/66 6/101/76
f 116/102/77 141/103/78 44/47/41 34/97/73
f 5/104/69 78/91/11 17/105/10
f 51/106/17 3/107/60 19/108/33
f 31/109/8 25/110/40 39/111/39
f 83/112/51 71/113/50 46/114/32
f 30/115/71 29/48/42 15/44/38
f 15/44/38 29/48/42 16/116/53
f 123/117/79 144/118/80 49/119/81
f 8/120/29 62/121/28 52/122/24
f 68/123/82 93/124/83 24/125/61
f 24/126/61 29/48/42 68/127/82
f 23/128/18 18/129/84 57/130/47
f 70/131/85 49/132/81 59/133/55
f 72/134/86 10/135/43 71/136/50
f 131/137/87 125/138/88 58/139/89 77/140/90
f 58/139/89 3/141/60 77/140/90
f 13/142/15 84/143/91 55/144/68
f 55/145/68 5/146/69 2/147/13
f 111/148/92 94/149/93 72/150/86
f 46/36/32 48/151/70 56/34/30
f 41/43/37 33/14/14 70/131/85
f 70/152/85 33/153/14 11/154/94
f 22/85/5 14/155/95 66/3/3
f 102/156/96 1/83/64 101/82/63
f 40/157/12 78/158/11 76/159/97
f 107/57/49 86/160/98 71/58/50
f 51/106/17 18/161/84 23/162/18
f 51/106/17 19/108/33 18/161/84
f 40/163/12 76/164/97 22/165/5
f 34/97/73 44/47/41 25/46/40
f 9/166/99 33/153/14 2/167/13
f 14/155/95 22/85/5 20/4/4
f 10/49/43 29/48/42 30/115/71
f 95/168/100 91/169/101 60/170/46 69/171/45
f 89/172/102 95/173/100 69/174/45 63/175/52
f 112/176/103 89/177/102 63/178/52
f 43/179/21 50/180/104 26/181/22
f 13/182/15 33/183/14 15/184/38
f 82/185/25 48/186/70 41/43/37
f 122/187/105 14/155/95 135/188/106
f 114/189/107 139/190/108 49/132/81 11/191/94
f 80/192/44 68/193/82 29/194/42
f 65/22/20 26/24/22 52/61/24
f 6/195/76 31/196/8 7/197/16
f 54/198/19 66/199/3 17/200/10
f 83/59/51 46/36/32 45/35/31
f 97/201/109 110/202/62 67/203/35
f 27/30/27 61/204/57 32/205/58
f 32/205/58 73/64/54 27/30/27
f 53/206/23 4/207/110 52/208/24
f 52/208/24 4/207/110 63/209/52
f 11/210/94 49/132/81 70/131/85
f 145/211/111 49/119/81 144/118/80
f 36/212/112 60/213/46 1/214/64
f 115/215/113 138/216/114 77/217/90 7/218/16
f 77/217/90 51/219/17 7/218/16
f 3/220/60 51/221/17 77/222/90
f 64/223/115 142/224/116 77/222/90
f 45/35/31 73/64/54 83/59/51
f 62/121/28 21/225/6 22/226/5
f 48/151/70 82/28/25 56/34/30
f 41/227/37 70/228/85 82/229/25
f 46/230/32 71/231/50 10/232/43
f 84/233/91 24/234/61 81/72/59
f 10/235/43 48/151/70 46/36/32
f 10/236/43 30/94/71 48/93/70
f 47/66/56 37/96/72 38/67/26
f 74/98/74 38/67/26 37/96/72
f 59/237/55 38/238/26 70/239/85
f 38/67/26 82/240/25 70/241/85
f 104/242/117 103/243/118 80/244/44 42/245/119
f 108/246/120 104/242/117 42/245/119
f 2/247/13 13/248/15 55/90/68
f 120/249/121 133/250/122 79/251/123
f 131/137/87 77/140/90 142/252/116
f 18/129/84 69/253/45 57/130/47
f 63/254/52 69/253/45 18/129/84
f 75/255/124 3/141/60 58/139/89
f 136/256/125 117/257/9 31/196/8 39/258/39
f 5/259/69 79/260/123 9/166/99
f 60/54/46 73/261/54 57/55/47
f 81/262/59 55/263/68 84/264/91
f 72/265/86 42/266/119 10/267/43
f 42/268/119 80/269/44 10/236/43
f 23/70/18 32/71/58 6/101/76
f 6/270/76 12/271/66 25/272/40
f 25/273/40 31/274/8 6/275/76
f 27/30/27 56/34/30 82/28/25
f 38/276/26 74/277/74 61/204/57
f 54/86/19 17/10/10 40/12/12
f 79/278/123 5/279/69 17/10/10
f 2/280/13 5/281/69 9/282/99
f 21/6/6 75/283/124 20/4/4
f 20/4/4 75/283/124 58/139/89
f 8/284/29 75/285/124 21/286/6
f 81/287/59 76/288/97 55/289/68
f 67/290/35 4/291/110 53/292/23
f 90/293/34 85/294/126 4/291/110 67/290/35
f 18/295/84 19/296/33 63/297/52
f 76/298/97 78/299/11 55/300/68
f 57/301/47 73/302/54 32/88/58
f 8/303/29 3/304/60 75/305/124
f 83/306/51 73/261/54 60/54/46
f 122/307/105 118/308/127 14/309/95
f 15/44/38 41/43/37 30/115/71
f 33/153/14 9/166/99 11/154/94
f 27/310/27 45/311/31 56/312/30
f 14/313/95 20/314/4 58/315/89
f 34/316/73 12/317/66 35/318/67
f 34/316/73 25/319/40 12/317/66
f 23/18/18 6/320/76 7/16/16
f 83/321/51 60/322/46 36/323/112
f 34/324/73 35/325/67 74/326/74
f 74/327/74 35/328/67 61/329/57
f 32/205/58 61/204/57 35/330/67
f 24/126/61 13/331/15 16/63/53
f 84/332/91 13/331/15 24/126/61
f 62/333/28 76/334/97 81/335/59
f 22/336/5 76/337/97 62/338/28
f 50/180/104 53/206/23 26/181/22
f 36/339/112 109/340/128 106/56/48 83/59/51
f 43/179/21 81/341/59 100/342/129 98/343/130
f 53/206/23 50/180/104 105/344/131 96/345/132
f 67/203/35 53/346/23 96/347/132 97/201/109
f 42/348/119 72/349/86 94/350/93 108/351/120
f 81/352/59 24/353/61 93/354/83 100/355/129
f 43/179/21 92/356/133 105/344/131 50/180/104
f 1/83/64 60/322/46 91/357/101 99/84/65
f 43/179/21 98/343/130 28/358/134
f 43/179/21 28/358/134 92/356/133
f 1/214/64 102/359/96 88/360/135 36/212/112
f 36/361/112 88/362/135 109/363/128
f 80/269/44 103/364/118 68/365/82
f 71/58/50 86/160/98 111/148/92 72/150/86
f 63/366/52 4/367/110 85/368/126 112/369/103
f 79/370/123 133/371/122 137/372/136
f 47/373/56 132/374/137 134/375/138
f 9/376/99 128/377/139 130/378/140
f 9/379/99 127/380/141 128/381/139
f 9/382/99 79/383/123 137/384/136 127/385/141
f 59/133/55 49/132/81 145/386/111 126/387/142
f 59/133/55 126/387/142 132/374/137 47/373/56
f 77/388/90 138/389/114 64/390/115
f 14/391/95 58/392/89 125/393/88 135/394/106
f 49/132/81 139/190/108 123/395/79
f 47/66/56 134/396/138 121/397/143 37/96/72
f 79/278/123 17/10/10 140/398/75 120/399/121
f 37/96/72 119/400/144 143/401/145 34/97/73
f 66/3/3 14/155/95 118/402/127 124/1/1
f 34/97/73 143/401/145 116/102/77
f 9/382/99 130/403/140 114/189/107 11/191/94
f 31/404/8 113/405/7 115/406/113 7/218/16
f 37/96/72 121/397/143 119/400/144
f 136/256/125 39/45/39 44/47/41 141/103/78 116/102/77 143/401/145 119/400/144 121/397/143 134/375/138 132/374/137 126/387/142 145/211/111 144/118/80 123/395/79 139/190/108 114/189/107 130/378/140 128/381/139 127/385/141 137/372/136 133/250/122 120/399/121 140/99/75 129/2/2 124/1/1 118/308/127 122/187/105 135/394/106 125/138/88 131/137/87 142/224/116 64/390/115 138/216/114 115/406/113 113/7/7 117/257/9
f 107/57/49 106/56/48 109/363/128 88/360/135 102/156/96 101/82/63 99/84/65 91/169/101 95/173/100 89/177/102 112/369/103 85/294/126 90/40/34 87/42/36 110/202/62 97/201/109 96/345/132 105/344/131 92/356/133 28/358/134 98/343/130 100/355/129 93/124/83 68/365/82 103/243/118 104/242/117 108/351/120 94/149/93 111/148/92 86/160/98
