# Blender v2.79 (sub 0) OBJ File: 'redo_fixed_360_joints.blend'
# www.blender.org
mtllib sungaya_inexpectata_31mg.mtl
o 32-f-r-femur.000_Sungaya_inexpectata_31mg.031
v 0.000498 0.000013 -0.000295
v 0.000588 0.000026 -0.000328
v -0.001405 0.000035 0.000194
v -0.000821 0.000014 0.000028
v -0.002331 0.000243 0.000560
v 0.001132 0.000135 -0.000230
v 0.001247 -0.000095 -0.000044
v 0.000702 0.000018 -0.000336
v -0.001884 -0.000091 0.000554
v 0.000097 -0.000011 0.000043
v 0.001359 -0.000001 -0.000374
v 0.000115 0.000063 -0.000035
v 0.000008 0.000100 -0.000026
v -0.001056 -0.000120 0.000038
v -0.001133 -0.000142 0.000133
v -0.002307 -0.000199 0.000504
v -0.001867 -0.000033 0.000519
v -0.002031 0.000091 0.000479
v 0.001467 0.000111 -0.000332
v -0.000500 0.000078 -0.000068
v -0.000488 -0.000044 0.000030
v -0.001615 -0.000097 0.000426
v -0.000086 -0.000004 -0.000177
v 0.000037 0.000010 -0.000175
v 0.000323 -0.000012 0.000085
v -0.002069 0.000118 0.000565
v -0.001416 -0.000117 0.000350
v 0.001075 0.000147 -0.000101
v 0.001195 0.000155 -0.000083
v 0.000725 0.000030 -0.000372
v 0.000858 0.000026 -0.000326
v 0.000854 0.000013 -0.000284
v 0.000307 0.000006 -0.000298
v 0.000294 0.000006 -0.000222
v -0.001222 0.000054 0.000127
v -0.001150 0.000055 0.000087
v -0.002326 0.000244 0.000654
v 0.001180 0.000187 -0.000379
v -0.001187 -0.000161 0.000275
v -0.001672 -0.000155 0.000422
v 0.001041 0.000194 -0.000318
v 0.001705 -0.000036 -0.000031
v 0.001724 0.000046 -0.000059
v 0.000188 -0.000009 -0.000245
v -0.000925 0.000020 0.000051
v 0.000363 0.000011 -0.000275
v 0.000667 0.000051 -0.000251
v 0.000554 0.000070 -0.000236
v 0.000242 0.000022 -0.000187
v 0.000014 -0.000014 0.000043
v -0.001885 0.000123 0.000356
v -0.000661 -0.000055 -0.000079
v 0.000189 0.000147 -0.000106
v 0.001822 0.000172 -0.000415
v 0.000382 -0.000012 -0.000003
v 0.000051 -0.000015 0.000129
v 0.000077 0.000007 0.000033
v 0.001856 -0.000014 -0.000267
v 0.000784 0.000101 -0.000126
v -0.002111 0.000153 0.000472
v 0.000581 0.000207 -0.000172
v -0.001693 0.000077 0.000319
v 0.000316 0.000089 -0.000058
v 0.000510 0.000001 -0.000042
v 0.000896 -0.000025 -0.000062
v 0.000884 -0.000069 -0.000030
v 0.000168 0.000017 -0.000171
v -0.000253 -0.000012 0.000066
v 0.000765 -0.000083 0.000008
v 0.000801 -0.000061 -0.000042
v -0.002053 -0.000150 0.000449
v -0.002154 -0.000178 0.000568
v 0.001584 0.000020 -0.000052
v 0.001182 -0.000023 -0.000187
v -0.000762 -0.000160 0.000128
v 0.001859 0.000072 -0.000273
v 0.001796 0.000145 -0.000236
v -0.000435 -0.000017 -0.000125
v 0.000755 0.000001 -0.000269
v 0.000984 -0.000028 -0.000140
v -0.000461 -0.000093 0.000019
v 0.001296 -0.000036 -0.000066
v 0.001334 0.000103 -0.000084
v -0.000104 -0.000030 0.000046
v -0.000768 -0.000018 -0.000044
v -0.000021 0.000036 0.000024
v -0.002156 0.000049 0.000364
v 0.000242 0.000161 -0.000106
v 0.000110 -0.000019 -0.000241
v -0.002013 0.000021 0.000597
v 0.001407 0.000096 -0.000305
v -0.000007 0.000150 -0.000078
v 0.000623 -0.000078 0.000016
v 0.000712 -0.000002 -0.000087
v 0.000401 0.000014 -0.000230
v -0.000774 -0.000087 0.000113
v -0.000722 -0.000028 0.000042
v 0.001345 -0.000074 -0.000126
v -0.000599 -0.000022 0.000011
v -0.000742 0.000050 -0.000023
v -0.001729 -0.000050 0.000285
v 0.000955 0.000015 -0.000302
v 0.000941 0.000030 -0.000343
v 0.001416 -0.000041 -0.000060
v -0.001475 -0.000122 0.000287
v 0.000876 0.000036 -0.000297
v 0.000947 0.000163 -0.000246
v 0.001238 0.000025 -0.000325
v 0.000930 0.000118 -0.000114
v 0.001383 -0.000046 -0.000251
v -0.001856 -0.000125 0.000455
v 0.001800 -0.000211 -0.000446
v 0.000316 0.000012 0.000005
v -0.001652 -0.000048 0.000420
v 0.000378 -0.000001 -0.000084
v 0.001875 0.000009 -0.000326
v 0.001786 0.000089 -0.000161
v -0.000860 -0.000150 0.000087
v 0.001685 0.000109 -0.000144
v 0.001631 0.000102 -0.000261
v -0.000990 -0.000139 0.000228
v 0.000417 -0.000019 -0.000138
v -0.002176 -0.000075 0.000344
v 0.001536 0.000078 -0.000228
v 0.000715 0.000041 -0.000117
v -0.000368 0.000094 -0.000060
v -0.002047 0.000084 0.000384
v -0.002023 0.000005 0.000351
v -0.000190 -0.000058 0.000118
v -0.000122 -0.000015 0.000075
v -0.002291 -0.000130 0.000609
v -0.001246 -0.000110 0.000089
v -0.001233 0.000054 0.000096
v -0.001013 -0.000073 0.000155
v -0.001086 -0.000042 0.000144
v -0.001854 -0.000064 0.000362
v 0.001192 0.000044 -0.000429
v -0.002260 0.000119 0.000368
v 0.000420 0.000123 -0.000101
v 0.000459 0.000158 -0.000116
v -0.001501 -0.000078 0.000191
v -0.001498 -0.000029 0.000164
v -0.001607 0.000007 0.000327
v 0.000547 0.000170 -0.000104
v 0.001259 0.000121 -0.000138
v -0.000232 0.000028 -0.000133
v 0.001596 -0.000165 -0.000165
v -0.000073 -0.000041 -0.000136
v -0.000097 -0.000036 -0.000027
v 0.000690 0.000147 -0.000206
v -0.002101 0.000115 0.000602
v -0.001565 -0.000130 0.000349
v -0.002359 -0.000061 0.000620
v -0.001542 0.000085 0.000207
v 0.001332 0.000093 -0.000244
v -0.002214 -0.000184 0.000447
v -0.001609 -0.000089 0.000290
v 0.001596 -0.000109 -0.000057
v 0.001765 -0.000204 -0.000298
v 0.001777 -0.000092 -0.000169
v -0.000837 -0.000076 0.000113
v 0.000467 0.000052 -0.000230
v 0.001540 -0.000029 -0.000480
v 0.001100 0.000062 -0.000077
v -0.002150 -0.000009 0.000618
v -0.000247 -0.000051 -0.000084
v -0.000053 0.000097 -0.000122
v -0.000644 -0.000115 0.000042
v -0.001947 -0.000160 0.000495
v -0.000199 0.000051 0.000037
v -0.001798 -0.000129 0.000466
v -0.000313 0.000034 0.000016
v 0.000524 -0.000009 -0.000165
v 0.000668 0.000156 -0.000159
v -0.001301 -0.000141 0.000309
v -0.000614 -0.000129 0.000107
v 0.001521 0.000088 -0.000456
v -0.002307 0.000155 0.000656
v -0.000598 -0.000075 0.000089
v 0.000883 0.000040 -0.000250
v -0.001171 -0.000107 0.000212
v -0.001237 -0.000135 0.000167
v -0.001625 -0.000061 0.000208
v -0.002353 -0.000170 0.000453
v -0.001926 -0.000080 0.000404
v -0.001986 -0.000060 0.000336
v -0.002193 0.000125 0.000632
v -0.000320 -0.000091 0.000134
v -0.000338 -0.000005 0.000072
v 0.000054 -0.000031 -0.000205
v 0.000103 -0.000029 -0.000093
v -0.001130 -0.000031 0.000062
v 0.000662 -0.000031 -0.000116
v 0.001757 -0.000077 -0.000068
v 0.000232 -0.000021 0.000097
v -0.000803 -0.000153 0.000167
v 0.001751 -0.000209 -0.000325
v 0.001672 -0.000169 -0.000329
v -0.000929 -0.000116 -0.000028
v -0.002074 -0.000012 0.000627
v -0.001048 -0.000124 0.000004
v -0.001665 0.000101 0.000254
v -0.001814 0.000114 0.000325
v 0.001328 0.000014 -0.000426
v 0.000385 0.000185 -0.000127
v 0.001464 0.000068 -0.000144
v 0.000433 0.000016 -0.000317
v -0.001902 0.000032 0.000436
v -0.001757 -0.000075 0.000474
v -0.001794 0.000024 0.000390
v 0.000240 -0.000009 0.000027
v -0.001932 -0.000064 0.000596
v -0.002028 -0.000184 0.000564
v 0.001354 -0.000114 -0.000044
v 0.000349 0.000069 -0.000179
v 0.000220 0.000019 0.000002
v 0.001153 -0.000080 -0.000045
v -0.000828 -0.000124 0.000167
v -0.000863 -0.000192 0.000175
v -0.000390 -0.000079 -0.000155
v -0.002122 -0.000106 0.000604
v -0.002247 -0.000160 0.000577
v -0.000351 -0.000081 0.000013
v 0.000455 0.000145 -0.000161
v 0.001520 -0.000090 -0.000326
v 0.001657 -0.000107 -0.000453
v 0.001799 -0.000096 -0.000527
v 0.001541 0.000145 -0.000454
v 0.000692 -0.000000 -0.000220
v 0.000240 -0.000022 -0.000100
v -0.002125 -0.000090 0.000345
v -0.001260 -0.000043 0.000210
v 0.001737 0.000105 -0.000124
v -0.002066 0.000135 0.000423
v 0.000878 -0.000003 -0.000219
v -0.001385 -0.000093 0.000123
v 0.001639 0.000099 -0.000055
v -0.000783 -0.000111 -0.000072
v 0.001815 -0.000035 -0.000228
v -0.001507 0.000075 0.000221
v 0.001873 -0.000093 -0.000373
v 0.001690 0.000143 -0.000434
v 0.001702 -0.000172 -0.000106
v -0.000892 -0.000120 0.000018
v -0.000616 -0.000094 -0.000029
v -0.001029 0.000052 0.000052
v 0.000379 -0.000001 -0.000108
v 0.001494 -0.000143 -0.000051
v -0.000017 -0.000045 -0.000233
v 0.001089 -0.000010 -0.000206
v 0.000397 0.000150 -0.000095
v 0.000536 -0.000044 -0.000023
v 0.001762 0.000164 -0.000356
v 0.001838 0.000187 -0.000324
v -0.000200 0.000143 -0.000076
v -0.000646 0.000048 -0.000057
v -0.000977 -0.000177 0.000153
v 0.000851 0.000040 -0.000108
v 0.000160 -0.000007 0.000146
v -0.000240 -0.000049 0.000053
v 0.001831 0.000004 -0.000168
v 0.000257 -0.000004 -0.000211
v -0.001721 -0.000008 0.000241
v -0.002281 -0.000006 0.000358
v -0.000517 -0.000143 0.000145
v -0.000574 -0.000076 0.000125
v 0.000783 0.000020 -0.000352
v -0.000469 -0.000065 0.000092
v -0.000370 -0.000089 0.000105
v 0.001031 0.000045 -0.000389
v -0.000058 -0.000035 0.000131
v 0.001030 0.000034 -0.000333
v 0.000983 0.000033 -0.000329
v 0.001467 0.000099 -0.000062
v 0.000403 0.000033 -0.000056
v -0.002250 0.000206 0.000611
v 0.000478 -0.000052 0.000037
v -0.000630 -0.000105 -0.000109
v 0.001360 0.000146 -0.000410
v 0.000734 0.000029 -0.000244
v 0.000612 0.000107 -0.000121
v -0.000149 -0.000046 -0.000179
v -0.001833 -0.000012 0.000304
v 0.001067 0.000018 -0.000271
v 0.001073 0.000049 -0.000419
v 0.001215 0.000101 -0.000412
v 0.001171 0.000178 -0.000404
v 0.000769 0.000151 -0.000166
v 0.000497 0.000061 -0.000086
v -0.000949 0.000039 0.000011
v -0.001372 0.000022 0.000141
v 0.000434 -0.000046 0.000073
v 0.001210 0.000063 -0.000093
v 0.001779 -0.000222 -0.000395
v -0.001415 -0.000109 0.000186
v 0.000950 0.000150 -0.000158
v -0.000436 -0.000110 0.000133
v 0.001006 0.000159 -0.000103
v 0.000820 0.000159 -0.000214
v 0.001639 -0.000194 -0.000085
v -0.001135 -0.000168 0.000212
v -0.001318 -0.000146 0.000226
v -0.000907 -0.000133 0.000212
v 0.001119 0.000084 -0.000396
v 0.001035 0.000100 -0.000316
v 0.001028 -0.000078 -0.000024
v -0.000647 -0.000159 0.000160
v -0.001598 -0.000005 0.000193
v 0.000869 0.000030 -0.000391
v 0.001005 0.000180 -0.000288
v -0.001059 -0.000191 0.000226
v -0.000266 -0.000041 -0.000175
v 0.000517 0.000217 -0.000148
v 0.001808 -0.000016 -0.000049
v -0.000961 -0.000055 0.000003
v -0.000707 -0.000111 0.000173
v -0.002039 -0.000089 0.000326
v 0.000433 0.000192 -0.000136
v 0.001832 -0.000091 -0.000533
v 0.001821 0.000014 -0.000569
v 0.001848 0.000143 -0.000471
v 0.001857 -0.000188 -0.000446
v 0.001887 0.000086 -0.000336
v 0.001881 -0.000061 -0.000361
v 0.001850 -0.000173 -0.000470
v 0.001887 0.000081 -0.000337
v 0.001887 0.000088 -0.000338
v 0.001835 -0.000096 -0.000522
v 0.001838 -0.000111 -0.000514
v 0.001832 0.000125 -0.000530
v 0.001831 0.000087 -0.000535
v 0.001862 -0.000158 -0.000429
v 0.001878 -0.000095 -0.000373
v 0.001861 -0.000159 -0.000431
v 0.001881 0.000162 -0.000356
v 0.001889 0.000004 -0.000333
v 0.001856 0.000160 -0.000443
v 0.001821 0.000000 -0.000571
v 0.001863 0.000161 -0.000419
v 0.001871 0.000158 -0.000390
v 0.001846 0.000144 -0.000480
v 0.001826 -0.000051 -0.000553
v 0.001868 -0.000131 -0.000408
v 0.001832 0.000115 -0.000531
v -0.002347 0.000179 0.000686
v -0.002346 0.000243 0.000672
v -0.002347 0.000159 0.000690
v -0.002366 -0.000180 0.000618
v -0.002362 -0.000082 0.000620
v -0.002368 -0.000192 0.000600
v -0.002348 0.000245 0.000647
v -0.002367 -0.000187 0.000616
v -0.002354 0.000244 0.000564
v -0.002370 0.000173 0.000407
v -0.002379 -0.000162 0.000455
v -0.002366 0.000194 0.000450
v -0.002373 0.000136 0.000388
v -0.002371 0.000169 0.000402
v -0.002376 0.000089 0.000383
v -0.002356 0.000243 0.000542
v -0.002379 -0.000086 0.000419
v -0.002361 -0.000058 0.000624
v -0.002350 0.000098 0.000681
v -0.002378 0.000024 0.000385
v -0.002375 -0.000206 0.000528
v -0.002379 -0.000178 0.000472
vt 0.909020 0.915530
vt 0.911185 0.915205
vt 0.910722 0.912523
vt 0.510953 0.585537
vt 0.511607 0.587231
vt 0.514320 0.586230
vt 0.820457 0.987421
vt 0.820723 0.989005
vt 0.822217 0.987465
vt 0.992620 0.989592
vt 0.991435 0.988132
vt 0.990490 0.989005
vt 0.811617 0.163613
vt 0.811352 0.160996
vt 0.810315 0.160873
vt 0.430923 0.573544
vt 0.434686 0.572976
vt 0.430665 0.572320
vt 0.568273 0.503323
vt 0.571500 0.503206
vt 0.569874 0.500053
vt 0.745325 0.121594
vt 0.743995 0.124643
vt 0.745491 0.123442
vt 0.064372 0.478413
vt 0.063388 0.478577
vt 0.064713 0.479329
vt 0.799219 0.154782
vt 0.800812 0.151399
vt 0.797161 0.146626
vt 0.095956 0.132243
vt 0.096465 0.131014
vt 0.094833 0.131919
vt 0.985012 0.077949
vt 0.981952 0.073487
vt 0.981393 0.078334
vt 0.483374 0.109746
vt 0.483779 0.107747
vt 0.482886 0.107018
vt 0.922720 0.479102
vt 0.922836 0.480389
vt 0.923656 0.478020
vt 0.388325 0.509693
vt 0.383752 0.516811
vt 0.387574 0.513271
vt 0.358329 0.511647
vt 0.361046 0.513097
vt 0.363133 0.509830
vt 0.133886 0.636926
vt 0.134289 0.636353
vt 0.132790 0.636002
vt 0.859592 0.409244
vt 0.857383 0.409537
vt 0.858109 0.410595
vt 0.169427 0.282533
vt 0.169843 0.280027
vt 0.165126 0.280932
vt 0.513367 0.589645
vt 0.375581 0.376958
vt 0.370734 0.380134
vt 0.373625 0.380318
vt 0.388155 0.508035
vt 0.390970 0.507325
vt 0.391550 0.503613
vt 0.326701 0.403268
vt 0.331413 0.400191
vt 0.328040 0.400428
vt 0.481900 0.084540
vt 0.482045 0.081531
vt 0.480879 0.081985
vt 0.661999 0.631697
vt 0.663027 0.629825
vt 0.660589 0.630792
vt 0.952590 0.077303
vt 0.955570 0.078921
vt 0.953422 0.076155
vt 0.166930 0.283849
vt 0.770559 0.612755
vt 0.768470 0.613914
vt 0.769030 0.614976
vt 0.588197 0.717196
vt 0.586955 0.719772
vt 0.591050 0.720314
vt 0.592611 0.717961
vt 0.990494 0.074785
vt 0.988927 0.080951
vt 0.991582 0.079248
vt 0.538608 0.516966
vt 0.541244 0.518517
vt 0.543040 0.513331
vt 0.952340 0.994379
vt 0.952795 0.992667
vt 0.950276 0.993699
vt 0.974684 0.075954
vt 0.973593 0.080467
vt 0.977097 0.080232
vt 0.676506 0.496246
vt 0.679005 0.493597
vt 0.676037 0.492232
vt 0.367413 0.986854
vt 0.365989 0.986517
vt 0.365602 0.987854
vt 0.336919 0.647419
vt 0.335885 0.648773
vt 0.337171 0.651182
vt 0.358660 0.516569
vt 0.360901 0.518881
vt 0.571636 0.499914
vt 0.574333 0.502637
vt 0.575033 0.499057
vt 0.307594 0.957188
vt 0.309517 0.958147
vt 0.310398 0.957206
vt 0.324381 0.404708
vt 0.322585 0.402828
vt 0.559574 0.567196
vt 0.555822 0.570886
vt 0.560446 0.569606
vt 0.332839 0.402151
vt 0.334377 0.400739
vt 0.331955 0.400938
vt 0.850052 0.890671
vt 0.851922 0.891101
vt 0.851448 0.888969
vt 0.854005 0.891430
vt 0.856569 0.889769
vt 0.854032 0.890225
vt 0.994409 0.076322
vt 0.479831 0.978230
vt 0.479580 0.981003
vt 0.482737 0.979926
vt 0.977849 0.075530
vt 0.132984 0.678950
vt 0.133221 0.676002
vt 0.131244 0.675898
vt 0.440295 0.567369
vt 0.437820 0.567951
vt 0.439665 0.570103
vt 0.904703 0.914768
vt 0.901912 0.909462
vt 0.902287 0.914045
vt 0.355739 0.509777
vt 0.358942 0.507368
vt 0.303426 0.299318
vt 0.304107 0.299646
vt 0.304236 0.296802
vt 0.380493 0.938713
vt 0.378552 0.939305
vt 0.379232 0.941480
vt 0.081399 0.676616
vt 0.079830 0.675971
vt 0.080928 0.679442
vt 0.573101 0.754836
vt 0.575338 0.752659
vt 0.572072 0.753690
vt 0.356499 0.509162
vt 0.356767 0.507845
vt 0.902788 0.919701
vt 0.899778 0.916090
vt 0.329896 0.541415
vt 0.331762 0.544999
vt 0.330959 0.542564
vt 0.355089 0.502829
vt 0.358308 0.505681
vt 0.359627 0.502384
vt 0.376759 0.080263
vt 0.377805 0.079163
vt 0.376469 0.078172
vt 0.900044 0.910442
vt 0.899844 0.912235
vt 0.964820 0.172669
vt 0.965415 0.173682
vt 0.966069 0.172803
vt 0.376891 0.942123
vt 0.664216 0.446695
vt 0.663709 0.444242
vt 0.659903 0.447314
vt 0.046870 0.476967
vt 0.045740 0.476211
vt 0.044929 0.477287
vt 0.590423 0.795996
vt 0.588962 0.794874
vt 0.589463 0.797024
vt 0.290558 0.138675
vt 0.291827 0.139856
vt 0.292827 0.139419
vt 0.043353 0.347280
vt 0.043541 0.348741
vt 0.045370 0.348228
vt 0.746025 0.742128
vt 0.746468 0.741090
vt 0.745176 0.741683
vt 0.612878 0.485886
vt 0.612652 0.492425
vt 0.613917 0.487891
vt 0.203270 0.453598
vt 0.201805 0.453611
vt 0.201915 0.454932
vt 0.327997 0.548115
vt 0.325315 0.548848
vt 0.329653 0.550799
vt 0.474084 0.358849
vt 0.474601 0.363419
vt 0.478209 0.360496
vt 0.799994 0.225971
vt 0.803552 0.225101
vt 0.803730 0.222202
vt 0.904821 0.917012
vt 0.796747 0.764420
vt 0.796930 0.763365
vt 0.795796 0.763529
vt 0.441017 0.809233
vt 0.440745 0.805492
vt 0.438941 0.807859
vt 0.445774 0.806520
vt 0.374057 0.137229
vt 0.374998 0.135827
vt 0.373690 0.135592
vt 0.821383 0.621517
vt 0.819504 0.623042
vt 0.820388 0.623141
vt 0.545677 0.518928
vt 0.952140 0.851617
vt 0.950944 0.851684
vt 0.951506 0.852966
vt 0.900738 0.920679
vt 0.900565 0.922684
vt 0.114092 0.961836
vt 0.112422 0.961436
vt 0.115399 0.964176
vt 0.986080 0.180400
vt 0.987286 0.180230
vt 0.985850 0.179004
vt 0.221779 0.267650
vt 0.221841 0.266722
vt 0.220443 0.266021
vt 0.878012 0.453406
vt 0.876405 0.453444
vt 0.877511 0.455745
vt 0.325820 0.537686
vt 0.323838 0.536922
vt 0.325762 0.539284
vt 0.329370 0.547491
vt 0.336854 0.547675
vt 0.546902 0.092474
vt 0.546597 0.090140
vt 0.546065 0.091519
vt 0.929801 0.184216
vt 0.929613 0.185712
vt 0.931043 0.185382
vt 0.806951 0.164791
vt 0.807010 0.162814
vt 0.167136 0.279197
vt 0.538998 0.520227
vt 0.216972 0.144505
vt 0.215431 0.144726
vt 0.216287 0.146392
vt 0.380339 0.944289
vt 0.380414 0.943351
vt 0.364187 0.647848
vt 0.363200 0.646587
vt 0.359513 0.648344
vt 0.044040 0.959528
vt 0.046644 0.959355
vt 0.045951 0.957240
vt 0.158767 0.284687
vt 0.162464 0.280424
vt 0.157372 0.282702
vt 0.927106 0.109261
vt 0.930528 0.109248
vt 0.929905 0.108859
vt 0.588348 0.796945
vt 0.588420 0.796155
vt 0.437488 0.333340
vt 0.436572 0.334434
vt 0.437511 0.334329
vt 0.265540 0.494847
vt 0.264757 0.493427
vt 0.264219 0.494154
vt 0.477157 0.357798
vt 0.954639 0.376231
vt 0.956979 0.376313
vt 0.955108 0.375414
vt 0.711259 0.747272
vt 0.710492 0.747451
vt 0.711515 0.747499
vt 0.212285 0.077194
vt 0.212713 0.079133
vt 0.213796 0.078701
vt 0.286014 0.959265
vt 0.289603 0.960169
vt 0.288527 0.958407
vt 0.382734 0.514077
vt 0.385437 0.510978
vt 0.366061 0.374682
vt 0.367946 0.376155
vt 0.368751 0.375625
vt 0.980005 0.826031
vt 0.981289 0.826877
vt 0.982842 0.825865
vt 0.772016 0.577817
vt 0.770792 0.575615
vt 0.770260 0.576591
vt 0.482652 0.978796
vt 0.059370 0.719345
vt 0.057951 0.720532
vt 0.058714 0.721596
vt 0.398929 0.677469
vt 0.398406 0.673717
vt 0.397614 0.676894
vt 0.460819 0.490369
vt 0.456297 0.487823
vt 0.462137 0.493697
vt 0.367185 0.111047
vt 0.368703 0.109412
vt 0.366490 0.109655
vt 0.904863 0.910275
vt 0.391327 0.509298
vt 0.354749 0.714320
vt 0.356687 0.717999
vt 0.356093 0.713461
vt 0.993076 0.081481
vt 0.996151 0.077484
vt 0.327911 0.538696
vt 0.325882 0.541124
vt 0.328124 0.540117
vt 0.713375 0.638602
vt 0.715866 0.638592
vt 0.712605 0.637663
vt 0.126901 0.923936
vt 0.121877 0.921740
vt 0.122046 0.922521
vt 0.840433 0.900036
vt 0.840280 0.901050
vt 0.842326 0.903121
vt 0.023547 0.401549
vt 0.024807 0.402724
vt 0.024965 0.401829
vt 0.149724 0.287438
vt 0.151707 0.284674
vt 0.146477 0.287540
vt 0.339402 0.276441
vt 0.338244 0.274667
vt 0.335859 0.278452
vt 0.680527 0.358232
vt 0.679049 0.360454
vt 0.680102 0.361045
vt 0.307035 0.288355
vt 0.304395 0.290991
vt 0.308397 0.289757
vt 0.077777 0.787895
vt 0.075820 0.788070
vt 0.076325 0.790137
vt 0.139396 0.913275
vt 0.141298 0.912223
vt 0.138038 0.910997
vt 0.400143 0.671852
vt 0.399075 0.670727
vt 0.966440 0.078144
vt 0.968262 0.075236
vt 0.963815 0.076563
vt 0.973461 0.073346
vt 0.154472 0.282803
vt 0.155400 0.284956
vt 0.515798 0.588215
vt 0.526271 0.843832
vt 0.527095 0.846210
vt 0.529268 0.847054
vt 0.770588 0.858225
vt 0.772258 0.860201
vt 0.772669 0.858069
vt 0.864203 0.902845
vt 0.861441 0.902470
vt 0.862794 0.904543
vt 0.947222 0.077367
vt 0.949570 0.079169
vt 0.950855 0.077360
vt 0.910360 0.537192
vt 0.908681 0.535055
vt 0.908053 0.536396
vt 0.142848 0.939938
vt 0.142582 0.943622
vt 0.144046 0.942087
vt 0.141551 0.941661
vt 0.544047 0.520418
vt 0.383471 0.526155
vt 0.382463 0.524044
vt 0.380882 0.527759
vt 0.041093 0.674620
vt 0.040394 0.676182
vt 0.041977 0.676180
vt 0.187854 0.022760
vt 0.186830 0.021515
vt 0.187338 0.023703
vt 0.384927 0.519460
vt 0.942310 0.426647
vt 0.941388 0.427404
vt 0.942441 0.428249
vt 0.925146 0.479952
vt 0.926411 0.478202
vt 0.789576 0.629255
vt 0.787128 0.630146
vt 0.788289 0.631665
vt 0.025203 0.962631
vt 0.025873 0.962815
vt 0.025038 0.961414
vt 0.536659 0.516048
vt 0.536525 0.510675
vt 0.533904 0.513653
vt 0.183644 0.751055
vt 0.182481 0.753744
vt 0.185746 0.751499
vt 0.988921 0.927885
vt 0.989871 0.930029
vt 0.988920 0.925793
vt 0.334810 0.276554
vt 0.335296 0.275011
vt 0.969638 0.079880
vt 0.956802 0.080941
vt 0.962150 0.080073
vt 0.961850 0.078190
vt 0.881984 0.070531
vt 0.881480 0.069423
vt 0.880845 0.070103
vt 0.987243 0.559566
vt 0.987359 0.557742
vt 0.985734 0.558791
vt 0.324669 0.399860
vt 0.816958 0.324543
vt 0.813975 0.327312
vt 0.816102 0.326377
vt 0.008431 0.957520
vt 0.007199 0.958411
vt 0.008748 0.958629
vt 0.553104 0.572063
vt 0.554486 0.573282
vt 0.532948 0.131181
vt 0.534165 0.131056
vt 0.531760 0.130004
vt 0.894230 0.081455
vt 0.893465 0.082434
vt 0.894630 0.082510
vt 0.838593 0.363597
vt 0.839733 0.361971
vt 0.837935 0.362453
vt 0.678388 0.596421
vt 0.674000 0.594673
vt 0.672208 0.596355
vt 0.474845 0.016463
vt 0.474391 0.014810
vt 0.473811 0.015835
vt 0.738391 0.826628
vt 0.738316 0.827933
vt 0.741552 0.827887
vt 0.801425 0.145358
vt 0.799980 0.144748
vt 0.803116 0.150947
vt 0.802482 0.147769
vt 0.594999 0.797455
vt 0.593075 0.794858
vt 0.593015 0.797095
vt 0.454774 0.485197
vt 0.456554 0.485518
vt 0.977241 0.072689
vt 0.363332 0.373057
vt 0.366920 0.371579
vt 0.649141 0.827846
vt 0.648289 0.828320
vt 0.648965 0.829432
vt 0.649798 0.827964
vt 0.424597 0.576210
vt 0.425734 0.576344
vt 0.424270 0.574261
vt 0.934647 0.827924
vt 0.933421 0.829885
vt 0.934549 0.830549
vt 0.019333 0.186569
vt 0.019846 0.184741
vt 0.018948 0.185508
vt 0.193002 0.152735
vt 0.192697 0.154825
vt 0.193667 0.153800
vt 0.361557 0.503075
vt 0.971003 0.081160
vt 0.558847 0.571656
vt 0.818940 0.895999
vt 0.815800 0.895313
vt 0.818349 0.897117
vt 0.473135 0.357391
vt 0.024411 0.973848
vt 0.027273 0.974599
vt 0.026934 0.972974
vt 0.428436 0.573234
vt 0.429154 0.574601
vt 0.364047 0.982552
vt 0.366171 0.983282
vt 0.363921 0.980872
vt 0.913297 0.913410
vt 0.523970 0.514697
vt 0.523347 0.517775
vt 0.523713 0.517983
vt 0.721615 0.165335
vt 0.722497 0.164153
vt 0.719906 0.165014
vt 0.208681 0.755648
vt 0.209053 0.756980
vt 0.211750 0.754352
vt 0.441771 0.568741
vt 0.443222 0.566442
vt 0.363774 0.370295
vt 0.362083 0.368033
vt 0.360788 0.371310
vt 0.993672 0.073803
vt 0.279534 0.089100
vt 0.279249 0.088025
vt 0.277446 0.088997
vt 0.734722 0.330717
vt 0.732596 0.329013
vt 0.732291 0.331219
vt 0.936541 0.600943
vt 0.935682 0.599374
vt 0.935087 0.601205
vt 0.926092 0.227502
vt 0.927638 0.227046
vt 0.926644 0.225844
vt 0.963610 0.677005
vt 0.964507 0.675488
vt 0.962650 0.676032
vt 0.661357 0.449845
vt 0.130265 0.479860
vt 0.131184 0.479555
vt 0.131379 0.478377
vt 0.673892 0.496845
vt 0.672994 0.495431
vt 0.992398 0.730512
vt 0.992388 0.726671
vt 0.991660 0.726383
vt 0.846897 0.519981
vt 0.847925 0.518172
vt 0.846830 0.516003
vt 0.531301 0.845811
vt 0.526660 0.841115
vt 0.525816 0.842978
vt 0.900509 0.914354
vt 0.870354 0.414290
vt 0.870502 0.416176
vt 0.871753 0.414939
vt 0.250390 0.432378
vt 0.250723 0.430499
vt 0.249637 0.431162
vt 0.580224 0.753002
vt 0.578843 0.755594
vt 0.958418 0.076953
vt 0.956223 0.075155
vt 0.136146 0.912162
vt 0.974430 0.406107
vt 0.972802 0.406460
vt 0.973474 0.407304
vt 0.901842 0.562877
vt 0.902546 0.564237
vt 0.903772 0.562636
vt 0.974469 0.405045
vt 0.547418 0.577227
vt 0.550271 0.578790
vt 0.550872 0.574963
vt 0.796575 0.143697
vt 0.796447 0.145526
vt 0.798163 0.143368
vt 0.642545 0.525102
vt 0.644409 0.525119
vt 0.643475 0.522333
vt 0.363403 0.517394
vt 0.672123 0.489120
vt 0.673917 0.488963
vt 0.672935 0.486992
vt 0.923193 0.547236
vt 0.925317 0.544637
vt 0.922846 0.545955
vt 0.923506 0.544476
vt 0.363043 0.506466
vt 0.375919 0.943360
vt 0.857305 0.450050
vt 0.855932 0.448578
vt 0.854560 0.449877
vt 0.181224 0.552236
vt 0.182459 0.551940
vt 0.181700 0.550700
vt 0.857864 0.412266
vt 0.338047 0.399945
vt 0.335010 0.398717
vt 0.416178 0.153703
vt 0.416647 0.152345
vt 0.414435 0.152076
vt 0.557670 0.572297
vt 0.558760 0.573978
vt 0.955902 0.082471
vt 0.957420 0.082686
vt 0.590557 0.794973
vt 0.490027 0.701155
vt 0.490036 0.704522
vt 0.493336 0.704055
vt 0.334329 0.289060
vt 0.336202 0.285662
vt 0.334613 0.284264
vt 0.159569 0.279514
vt 0.319495 0.401656
vt 0.319167 0.404094
vt 0.812345 0.208779
vt 0.810725 0.211327
vt 0.813020 0.213163
vt 0.815722 0.779241
vt 0.813244 0.779219
vt 0.814152 0.780069
vt 0.813642 0.777770
vt 0.666851 0.443201
vt 0.316268 0.285022
vt 0.316009 0.283860
vt 0.314815 0.284663
vt 0.661945 0.636234
vt 0.664724 0.634095
vt 0.658566 0.636139
vt 0.663452 0.637251
vt 0.364558 0.374828
vt 0.465375 0.499538
vt 0.465472 0.495214
vt 0.460682 0.494021
vt 0.040019 0.673735
vt 0.372346 0.385469
vt 0.683804 0.360885
vt 0.987366 0.763077
vt 0.988110 0.761882
vt 0.986396 0.762583
vt 0.362019 0.501403
vt 0.589480 0.799165
vt 0.589389 0.797812
vt 0.588313 0.797691
vt 0.975705 0.488961
vt 0.974809 0.486145
vt 0.974283 0.488893
vt 0.487793 0.703489
vt 0.487047 0.704597
vt 0.489185 0.705559
vt 0.075169 0.789384
vt 0.645458 0.524280
vt 0.643910 0.519246
vt 0.219550 0.045892
vt 0.219236 0.046870
vt 0.220646 0.046961
vt 0.520530 0.582717
vt 0.517836 0.582227
vt 0.519025 0.584793
vt 0.742712 0.802855
vt 0.743769 0.804392
vt 0.743782 0.802835
vt 0.369201 0.371274
vt 0.731734 0.844023
vt 0.733230 0.844140
vt 0.732520 0.842801
vt 0.603672 0.961770
vt 0.602266 0.962686
vt 0.601340 0.964175
vt 0.596186 0.266119
vt 0.597101 0.267204
vt 0.598013 0.264968
vt 0.796434 0.229114
vt 0.796504 0.230811
vt 0.797566 0.227498
vt 0.334610 0.548961
vt 0.894947 0.708581
vt 0.895559 0.706220
vt 0.894947 0.706668
vt 0.283026 0.953997
vt 0.283982 0.955110
vt 0.287457 0.954293
vt 0.023998 0.962480
vt 0.025824 0.965112
vt 0.054707 0.925775
vt 0.056656 0.926780
vt 0.055304 0.923822
vt 0.988318 0.559989
vt 0.987512 0.561238
vt 0.115511 0.527836
vt 0.117095 0.526473
vt 0.114146 0.528151
vt 0.986622 0.072945
vt 0.527595 0.510185
vt 0.530775 0.510409
vt 0.528750 0.507885
vt 0.730576 0.763515
vt 0.731673 0.762395
vt 0.730342 0.762209
vt 0.293053 0.954084
vt 0.292568 0.955360
vt 0.904694 0.919728
vt 0.907038 0.918735
vt 0.954847 0.709718
vt 0.956353 0.708473
vt 0.954302 0.708380
vt 0.003825 0.841925
vt 0.001068 0.839684
vt 0.000948 0.842479
vt 0.040445 0.218364
vt 0.040673 0.219336
vt 0.041463 0.216974
vt 0.516410 0.243683
vt 0.515286 0.242217
vt 0.516092 0.244221
vt 0.239183 0.299505
vt 0.239753 0.301280
vt 0.240474 0.299648
vt 0.929737 0.260174
vt 0.931025 0.261107
vt 0.930934 0.259926
vt 0.673831 0.589719
vt 0.673572 0.587448
vt 0.670563 0.587484
vt 0.238904 0.334334
vt 0.239154 0.335472
vt 0.240086 0.333777
vt 0.754127 0.520513
vt 0.754860 0.521835
vt 0.756764 0.521571
vt 0.512321 0.593005
vt 0.514589 0.593149
vt 0.657823 0.449964
vt 0.326476 0.546156
vt 0.325204 0.545229
vt 0.604417 0.973144
vt 0.603664 0.971453
vt 0.603482 0.974610
vt 0.733444 0.328766
vt 0.735726 0.329082
vt 0.746666 0.485037
vt 0.748213 0.484246
vt 0.747573 0.483127
vt 0.233580 0.317315
vt 0.235103 0.317325
vt 0.234975 0.316411
vt 0.946894 0.517165
vt 0.943749 0.517740
vt 0.942138 0.518659
vt 0.538169 0.290804
vt 0.538789 0.290960
vt 0.540341 0.291201
vt 0.538583 0.289300
vt 0.934521 0.391863
vt 0.935074 0.390339
vt 0.932888 0.390995
vt 0.936321 0.390456
vt 0.478029 0.363115
vt 0.680503 0.493585
vt 0.043493 0.892751
vt 0.044996 0.892510
vt 0.045432 0.891377
vt 0.359325 0.715849
vt 0.143526 0.660908
vt 0.144793 0.662135
vt 0.143467 0.659706
vt 0.228579 0.366909
vt 0.227389 0.367932
vt 0.228498 0.368370
vt 0.651311 0.845977
vt 0.651261 0.847934
vt 0.653746 0.847678
vt 0.334289 0.291334
vt 0.326948 0.406534
vt 0.328693 0.405569
vt 0.325192 0.404693
vt 0.324185 0.407203
vt 0.935969 0.266422
vt 0.936683 0.268257
vt 0.937608 0.267766
vt 0.329435 0.551698
vt 0.328603 0.552198
vt 0.330620 0.555050
vt 0.322514 0.537911
vt 0.484430 0.357561
vt 0.483601 0.355007
vt 0.481766 0.359470
vt 0.007215 0.227086
vt 0.007152 0.225384
vt 0.006326 0.227463
vt 0.259042 0.758978
vt 0.260024 0.757928
vt 0.257671 0.758746
vt 0.322510 0.545290
vt 0.320895 0.545451
vt 0.321971 0.547992
vt 0.988907 0.887556
vt 0.987387 0.889045
vt 0.989219 0.888881
vt 0.126811 0.806419
vt 0.129489 0.805529
vt 0.124721 0.805324
vt 0.332297 0.298268
vt 0.333066 0.296376
vt 0.330438 0.297876
vt 0.332260 0.294634
vt 0.310951 0.958208
vt 0.314046 0.958419
vt 0.188686 0.884604
vt 0.192812 0.886105
vt 0.194759 0.885954
vt 0.027722 0.228429
vt 0.026796 0.230409
vt 0.027836 0.229823
vt 0.470340 0.504641
vt 0.471469 0.502367
vt 0.468408 0.499640
vt 0.854047 0.508568
vt 0.852935 0.512459
vt 0.855257 0.508862
vt 0.865232 0.361505
vt 0.864362 0.362630
vt 0.865335 0.363536
vt 0.360984 0.372878
vt 0.329265 0.294959
vt 0.261651 0.760852
vt 0.263400 0.760276
vt 0.263591 0.761985
vt 0.536464 0.510494
vt 0.537063 0.508833
vt 0.649849 0.827735
vt 0.302936 0.294513
vt 0.306731 0.292688
vt 0.303729 0.293132
vt 0.942052 0.495733
vt 0.944698 0.499796
vt 0.943925 0.497417
vt 0.672609 0.491135
vt 0.762758 0.139993
vt 0.761738 0.139197
vt 0.761613 0.141059
vt 0.140261 0.910936
vt 0.339719 0.274071
vt 0.912389 0.178620
vt 0.913677 0.178150
vt 0.912726 0.177486
vt 0.936613 0.603779
vt 0.935361 0.603071
vt 0.063524 0.396346
vt 0.063938 0.397834
vt 0.064569 0.396088
vt 0.866885 0.288160
vt 0.865680 0.288592
vt 0.868081 0.288988
vt 0.427239 0.568949
vt 0.424783 0.570506
vt 0.429214 0.569512
vt 0.671050 0.593355
vt 0.535168 0.518228
vt 0.537008 0.518934
vt 0.923957 0.305496
vt 0.924733 0.302849
vt 0.922224 0.306422
vt 0.136445 0.914014
vt 0.331265 0.551888
vt 0.333059 0.552486
vt 0.862116 0.474620
vt 0.864052 0.473576
vt 0.863262 0.471697
vt 0.317765 0.282108
vt 0.319024 0.282753
vt 0.400118 0.676731
vt 0.399142 0.675635
vt 0.286961 0.682713
vt 0.283311 0.680603
vt 0.285459 0.687614
vt 0.315989 0.283414
vt 0.316912 0.281422
vt 0.314142 0.283559
vt 0.559227 0.565029
vt 0.945537 0.788644
vt 0.947541 0.788457
vt 0.948440 0.787096
vt 0.321722 0.277821
vt 0.324457 0.274875
vt 0.320624 0.277798
vt 0.509118 0.243405
vt 0.509971 0.246238
vt 0.510737 0.243551
vt 0.064659 0.592166
vt 0.064879 0.589239
vt 0.064259 0.590323
vt 0.957092 0.835409
vt 0.957707 0.833595
vt 0.957238 0.830161
vt 0.676924 0.490017
vt 0.676243 0.489102
vt 0.658540 0.635200
vt 0.130707 0.677619
vt 0.131040 0.680111
vt 0.044281 0.956905
vt 0.042177 0.957384
vt 0.675512 0.589389
vt 0.540173 0.291501
vt 0.540401 0.291962
vt 0.673804 0.494323
vt 0.041699 0.805693
vt 0.042691 0.806806
vt 0.045039 0.804587
vt 0.924795 0.068946
vt 0.923342 0.069358
vt 0.924622 0.070250
vt 0.932591 0.068782
vt 0.932532 0.070217
vt 0.933887 0.068794
vt 0.439417 0.566058
vt 0.425649 0.571798
vt 0.223549 0.748463
vt 0.224726 0.745799
vt 0.223495 0.745168
vt 0.381718 0.522160
vt 0.110353 0.167439
vt 0.109861 0.165271
vt 0.108932 0.166287
vt 0.927087 0.391627
vt 0.927959 0.393731
vt 0.929384 0.391033
vt 0.479448 0.925155
vt 0.477072 0.926303
vt 0.480372 0.926090
vt 0.128243 0.922866
vt 0.129521 0.923258
vt 0.478005 0.925315
vt 0.476243 0.925084
vt 0.327659 0.244152
vt 0.327207 0.242788
vt 0.325927 0.243624
vt 0.997005 0.074895
vt 0.541863 0.508689
vt 0.845031 0.291321
vt 0.846333 0.291451
vt 0.846617 0.289242
vt 0.477061 0.364924
vt 0.477937 0.365705
vt 0.477453 0.366285
vt 0.026235 0.445068
vt 0.025692 0.445629
vt 0.027589 0.446283
vt 0.797124 0.850894
vt 0.795790 0.850043
vt 0.795228 0.852535
vt 0.950756 0.454293
vt 0.948654 0.455025
vt 0.950796 0.457608
vt 0.059734 0.026769
vt 0.058818 0.028311
vt 0.060219 0.027960
vt 0.308142 0.286410
vt 0.309091 0.286844
vt 0.474655 0.369129
vt 0.476560 0.369156
vt 0.111028 0.527611
vt 0.107823 0.526918
vt 0.108592 0.529235
vt 0.222156 0.854090
vt 0.221060 0.854781
vt 0.222738 0.855047
vt 0.504776 0.223946
vt 0.506246 0.223523
vt 0.504439 0.222768
vt 0.801874 0.228166
vt 0.799829 0.231474
vt 0.360803 0.523890
vt 0.360049 0.524621
vt 0.516203 0.585250
vt 0.309179 0.288274
vt 0.311867 0.285554
vt 0.801051 0.945511
vt 0.800948 0.946543
vt 0.802341 0.945849
vt 0.576131 0.501491
vt 0.870664 0.383227
vt 0.872248 0.384620
vt 0.871784 0.382725
vt 0.866243 0.814095
vt 0.862907 0.812504
vt 0.862700 0.813891
vt 0.747928 0.401489
vt 0.747807 0.398768
vt 0.746516 0.401005
vt 0.094515 0.039570
vt 0.096541 0.039949
vt 0.095522 0.038695
vt 0.413465 0.038780
vt 0.414606 0.038654
vt 0.413489 0.037384
vt 0.813784 0.200004
vt 0.815222 0.200278
vt 0.815540 0.199281
vt 0.782542 0.449730
vt 0.782773 0.447575
vt 0.781720 0.448414
vt 0.952307 0.850260
vt 0.103722 0.346603
vt 0.104783 0.348110
vt 0.105436 0.346718
vt 0.871532 0.836690
vt 0.868067 0.836609
vt 0.869934 0.838216
vt 0.206364 0.617155
vt 0.207416 0.617465
vt 0.206439 0.616551
vt 0.433197 0.568640
vt 0.435737 0.567777
vt 0.269201 0.929694
vt 0.273065 0.928264
vt 0.272633 0.927373
vt 0.399014 0.029849
vt 0.398441 0.030999
vt 0.399552 0.031324
vt 0.399152 0.012809
vt 0.398945 0.011379
vt 0.398023 0.011458
vt 0.417471 0.294798
vt 0.418174 0.294089
vt 0.416624 0.294158
vt 0.758438 0.649651
vt 0.759811 0.650336
vt 0.760643 0.649495
vt 0.304913 0.984559
vt 0.303639 0.984763
vt 0.302180 0.987002
vt 0.136175 0.218994
vt 0.136224 0.218884
vt 0.134739 0.218249
vt 0.134555 0.218895
vt 0.539313 0.522531
vt 0.541203 0.520902
vt 0.410228 0.916851
vt 0.407526 0.914655
vt 0.411115 0.918991
vt 0.058446 0.884389
vt 0.060724 0.888185
vt 0.059719 0.885971
vt 0.784525 0.592202
vt 0.783531 0.591992
vt 0.783636 0.593092
vt 0.517239 0.119923
vt 0.518242 0.119174
vt 0.516720 0.118189
vt 0.333541 0.294962
vt 0.885671 0.296164
vt 0.883300 0.297234
vt 0.883814 0.298597
vt 0.970986 0.073360
vt 0.594311 0.795217
vt 0.593889 0.794157
vt 0.674372 0.351373
vt 0.675414 0.353883
vt 0.675563 0.352247
vt 0.321591 0.406517
vt 0.048853 0.667557
vt 0.048260 0.668094
vt 0.049561 0.669073
vt 0.225519 0.102997
vt 0.226680 0.102610
vt 0.225249 0.101034
vt 0.317945 0.407365
vt 0.318857 0.406674
vt 0.317228 0.405581
vt 0.202640 0.701066
vt 0.201009 0.702061
vt 0.201178 0.704164
vt 0.457388 0.499757
vt 0.459065 0.500169
vt 0.458276 0.499314
vt 0.473386 0.361022
vt 0.542022 0.291537
vt 0.540306 0.286803
vt 0.306713 0.957394
vt 0.526779 0.848188
vt 0.120632 0.525991
vt 0.551825 0.575603
vt 0.056304 0.996881
vt 0.058914 0.997708
vt 0.058718 0.996193
vt 0.072205 0.970642
vt 0.073068 0.969777
vt 0.071446 0.970276
vt 0.003368 0.885408
vt 0.003829 0.886519
vt 0.005227 0.884691
vt 0.266861 0.562374
vt 0.267129 0.560112
vt 0.266487 0.561458
vt 0.675900 0.156591
vt 0.675212 0.155349
vt 0.672541 0.155591
vt 0.500925 0.084565
vt 0.499990 0.083439
vt 0.499205 0.084330
vt 0.156638 0.276769
vt 0.159957 0.277109
vt 0.981242 0.080485
vt 0.019158 0.067669
vt 0.018153 0.067249
vt 0.017755 0.069127
vt 0.879339 0.848607
vt 0.878486 0.850605
vt 0.880293 0.849556
vt 0.017517 0.067617
vt 0.460420 0.488055
vt 0.531549 0.265430
vt 0.530958 0.264542
vt 0.529967 0.266060
vt 0.454879 0.484346
vt 0.756181 0.512202
vt 0.757269 0.510662
vt 0.756220 0.509823
vt 0.203473 0.701400
vt 0.310749 0.735138
vt 0.312581 0.736686
vt 0.312217 0.735276
vt 0.364062 0.581991
vt 0.364276 0.580955
vt 0.362838 0.581662
vt 0.898847 0.909806
vt 0.897957 0.911211
vt 0.093000 0.392538
vt 0.092852 0.394043
vt 0.094161 0.393994
vt 0.787678 0.873527
vt 0.788334 0.873268
vt 0.787867 0.872908
vt 0.305459 0.295994
vt 0.541881 0.292185
vt 0.541920 0.292229
vt 0.903937 0.907140
vt 0.903275 0.906802
vt 0.903748 0.907173
vt 0.161536 0.792915
vt 0.163310 0.793934
vt 0.161417 0.789434
vt 0.897059 0.922381
vt 0.898086 0.924236
vt 0.172635 0.698090
vt 0.171919 0.700974
vt 0.172872 0.699897
vt 0.780098 0.540919
vt 0.780594 0.542349
vt 0.781812 0.541109
vt 0.802594 0.159665
vt 0.804584 0.157599
vt 0.803865 0.155365
vt 0.800996 0.154221
vt 0.908565 0.918027
vt 0.450381 0.239444
vt 0.452548 0.239304
vt 0.449945 0.239003
vt 0.051554 0.993682
vt 0.055476 0.993992
vt 0.049253 0.992293
vt 0.362806 0.499066
vt 0.361081 0.499536
vt 0.808794 0.217351
vt 0.811367 0.216104
vt 0.809199 0.214667
vt 0.057337 0.717322
vt 0.058342 0.719663
vt 0.137493 0.676831
vt 0.135141 0.680333
vt 0.136755 0.681486
vt 0.002371 0.492021
vt 0.000909 0.493147
vt 0.002277 0.493338
vt 0.966355 0.074731
vt 0.807976 0.298113
vt 0.806130 0.300137
vt 0.808872 0.299356
vt 0.572167 0.118040
vt 0.572702 0.116626
vt 0.571487 0.115890
vt 0.676544 0.354308
vt 0.678354 0.355855
vt 0.676959 0.352494
vt 0.333452 0.281827
vt 0.991484 0.072274
vt 0.977554 0.423639
vt 0.975057 0.426553
vt 0.977049 0.425241
vt 0.306343 0.917876
vt 0.307582 0.918321
vt 0.308754 0.917088
vt 0.317156 0.408932
vt 0.315880 0.408144
vt 0.854569 0.858934
vt 0.855243 0.857845
vt 0.853539 0.857605
vt 0.854122 0.856462
vt 0.311227 0.173162
vt 0.312326 0.173107
vt 0.310756 0.171323
vt 0.084276 0.363448
vt 0.083997 0.362002
vt 0.083039 0.362376
vt 0.797513 0.234031
vt 0.797650 0.235907
vt 0.498791 0.163200
vt 0.497548 0.165058
vt 0.498061 0.165494
vt 0.139705 0.886504
vt 0.138745 0.887473
vt 0.138731 0.889848
vt 0.065347 0.971671
vt 0.067545 0.970941
vt 0.921609 0.443957
vt 0.921884 0.441527
vt 0.922111 0.437191
vt 0.704282 0.015658
vt 0.702977 0.015035
vt 0.702986 0.016445
vt 0.603606 0.965641
vt 0.605087 0.964125
vt 0.102210 0.985525
vt 0.096778 0.984936
vt 0.096112 0.986217
vt 0.304853 0.288323
vt 0.050719 0.915991
vt 0.052709 0.913735
vt 0.051013 0.914326
vt 0.052088 0.916905
vt 0.301669 0.292805
vt 0.063232 0.908565
vt 0.064850 0.908318
vt 0.065289 0.906222
vt 0.838400 0.986911
vt 0.839176 0.984735
vt 0.837536 0.986568
vt 0.839752 0.986340
vt 0.646549 0.519434
vt 0.968596 0.373801
vt 0.970210 0.374858
vt 0.968170 0.371676
vt 0.574368 0.063631
vt 0.572343 0.063171
vt 0.573151 0.064217
vt 0.799682 0.760514
vt 0.799021 0.759617
vt 0.798153 0.760377
vt 0.399375 0.674370
vt 0.400326 0.674995
vt 0.380678 0.529079
vt 0.381489 0.529749
vt 0.890022 0.925673
vt 0.890892 0.924667
vt 0.891399 0.923299
vt 0.319764 0.280218
vt 0.319164 0.099837
vt 0.317250 0.100478
vt 0.318925 0.101462
vt 0.934292 0.831704
vt 0.687511 0.046273
vt 0.688981 0.044870
vt 0.688019 0.044918
vt 0.758727 0.411558
vt 0.757570 0.411244
vt 0.756869 0.412464
vt 0.760042 0.408390
vt 0.758946 0.409056
vt 0.358764 0.370409
vt 0.356671 0.370960
vt 0.358795 0.371375
vt 0.421988 0.573600
vt 0.029191 0.972467
vt 0.028324 0.948796
vt 0.023988 0.947267
vt 0.025651 0.949121
vt 0.024518 0.948113
vt 0.360746 0.980742
vt 0.360827 0.981705
vt 0.255132 0.183605
vt 0.255777 0.185969
vt 0.256291 0.184595
vt 0.494909 0.159230
vt 0.494331 0.156546
vt 0.493618 0.156690
vt 0.257320 0.264018
vt 0.256829 0.262984
vt 0.254915 0.262916
vt 0.032653 0.106094
vt 0.033771 0.104900
vt 0.031679 0.104497
vt 0.319230 0.280080
vt 0.745827 0.483657
vt 0.745078 0.485556
vt 0.923546 0.464940
vt 0.921428 0.465671
vt 0.922100 0.466579
vt 0.676561 0.591423
vt 0.944974 0.604386
vt 0.946263 0.607286
vt 0.945930 0.604122
vt 0.672829 0.739868
vt 0.675106 0.740841
vt 0.673223 0.738075
vt 0.171288 0.702114
vt 0.168862 0.700577
vt 0.170005 0.702490
vt 0.380470 0.520940
vt 0.677529 0.015851
vt 0.677845 0.013725
vt 0.677183 0.015035
vt 0.286050 0.982685
vt 0.287159 0.983310
vt 0.287247 0.980365
vt 0.334035 0.293119
vt 0.357787 0.519614
vt 0.363049 0.522552
vt 0.553881 0.570075
vt 0.550349 0.572426
vt 0.567712 0.115807
vt 0.569474 0.116640
vt 0.569186 0.114270
vt 0.355066 0.711761
vt 0.076074 0.305045
vt 0.077069 0.304771
vt 0.075181 0.304114
vt 0.319352 0.408441
vt 0.138063 0.595137
vt 0.137891 0.594050
vt 0.137628 0.596923
vt 0.984626 0.080580
vt 0.766291 0.778377
vt 0.765628 0.780654
vt 0.766883 0.779200
vt 0.038565 0.511928
vt 0.038352 0.513339
vt 0.039644 0.513529
vt 0.994293 0.081228
vt 0.116008 0.112983
vt 0.116290 0.114209
vt 0.117741 0.113984
vt 0.809450 0.212020
vt 0.184271 0.755370
vt 0.183820 0.754112
vt 0.652280 0.852015
vt 0.655811 0.854451
vt 0.654298 0.851474
vt 0.952701 0.074890
vt 0.954733 0.073845
vt 0.951732 0.076048
vt 0.871375 0.413501
vt 0.153777 0.281478
vt 0.154506 0.280229
vt 0.152836 0.280736
vt 0.069605 0.404415
vt 0.069409 0.405878
vt 0.070723 0.405408
vt 0.095031 0.119179
vt 0.095712 0.117505
vt 0.094247 0.118308
vt 0.975476 0.104620
vt 0.975615 0.106000
vt 0.976643 0.104557
vt 0.945179 0.078178
vt 0.945835 0.076969
vt 0.895031 0.427810
vt 0.894727 0.425827
vt 0.892109 0.425876
vt 0.371285 0.374681
vt 0.371011 0.373183
vt 0.405488 0.985650
vt 0.402937 0.986520
vt 0.407975 0.987340
vt 0.605497 0.232268
vt 0.607637 0.231794
vt 0.606898 0.230450
vt 0.395857 0.988850
vt 0.397058 0.989060
vt 0.396034 0.988599
vt 0.328678 0.555019
vt 0.326908 0.554193
vt 0.325905 0.555306
vt 0.327377 0.555217
vt 0.180518 0.927143
vt 0.180768 0.926612
vt 0.180527 0.926329
vt 0.375569 0.066781
vt 0.375997 0.065821
vt 0.375855 0.065133
vt 0.375295 0.064899
vt 0.063736 0.906827
vt 0.062450 0.905619
vt 0.061682 0.906236
vt 0.060587 0.907231
vt 0.070232 0.230641
vt 0.069299 0.231587
vt 0.069267 0.232768
vt 0.069297 0.232761
vt 0.862712 0.810582
vt 0.862357 0.808398
vt 0.861301 0.809037
vt 0.611189 0.486064
vt 0.610886 0.485975
vt 0.610954 0.487043
vt 0.079515 0.063495
vt 0.079938 0.061586
vt 0.078900 0.062843
vt 0.611989 0.486935
vt 0.611596 0.490470
vt 0.613129 0.109068
vt 0.611799 0.108104
vt 0.611719 0.108085
vt 0.612544 0.110274
vt 0.819914 0.295668
vt 0.818395 0.295993
vt 0.818391 0.296041
vt 0.819893 0.297927
vt 0.100935 0.865572
vt 0.101217 0.864891
vt 0.101026 0.863970
vt 0.099383 0.864199
vt 0.616976 0.042061
vt 0.616338 0.041505
vt 0.616119 0.041590
vt 0.616207 0.043038
vt 0.843548 0.787388
vt 0.842108 0.787127
vt 0.841996 0.787260
vt 0.842525 0.788455
vt 0.682087 0.696415
vt 0.682093 0.696287
vt 0.681900 0.696311
vt 0.216842 0.046827
vt 0.217106 0.046294
vt 0.216752 0.046781
vt 0.485204 0.357124
vt 0.484089 0.355170
vt 0.909850 0.910083
vt 0.329255 0.758655
vt 0.326882 0.758722
vt 0.328556 0.759348
vt 0.330762 0.759125
vt 0.331873 0.759091
vt 0.332289 0.758483
vt 0.378090 0.378873
vt 0.378799 0.378172
vt 0.372867 0.386244
vt 0.373945 0.385037
vt 0.483841 0.354495
vt 0.776599 0.114990
vt 0.775404 0.112393
vt 0.775146 0.113776
vt 0.775179 0.113934
vt 0.701717 0.351521
vt 0.702393 0.352872
vt 0.703676 0.353226
vt 0.703466 0.352970
vt 0.900990 0.905615
vt 0.900732 0.905458
vt 0.006703 0.175477
vt 0.007194 0.175159
vt 0.007144 0.174650
vt 0.249259 0.973305
vt 0.249876 0.973782
vt 0.251773 0.973921
vt 0.251321 0.973009
vt 0.251723 0.973452
vn 0.2039 0.1646 0.9650
vn 0.4490 0.7650 0.4617
vn 0.4910 0.0372 0.8703
vn 0.0709 0.9938 -0.0853
vn 0.1782 0.6572 0.7323
vn 0.1287 0.6446 0.7536
vn 0.4222 0.6886 0.5895
vn 0.4668 0.7685 0.4376
vn 0.5173 0.5713 0.6372
vn -0.1082 0.8002 0.5899
vn 0.1414 0.7279 0.6709
vn 0.1691 0.9742 0.1494
vn 0.1149 0.7060 0.6988
vn 0.1462 0.9601 0.2382
vn 0.1682 0.6688 0.7242
vn 0.0115 -0.9989 -0.0457
vn 0.1183 -0.9324 0.3416
vn -0.2410 -0.8821 -0.4046
vn 0.0630 0.0922 -0.9937
vn 0.0625 0.8006 -0.5960
vn -0.5107 0.8436 0.1660
vn 0.0822 0.8008 -0.5932
vn -0.4554 0.2669 -0.8493
vn 0.0401 -0.1195 -0.9920
vn 0.1565 -0.9648 -0.2114
vn 0.1804 -0.4895 0.8532
vn 0.3322 0.5939 0.7327
vn 0.2572 -0.3441 0.9030
vn -0.3359 -0.7515 -0.5678
vn -0.5072 -0.1791 -0.8430
vn -0.2860 -0.6066 -0.7417
vn -0.0503 0.1065 0.9930
vn -0.0136 0.6711 0.7412
vn -0.0147 0.2655 0.9640
vn 0.0960 -0.0523 0.9940
vn 0.1107 0.8985 0.4249
vn 0.0775 0.7354 0.6731
vn -0.0564 -0.0837 -0.9949
vn 0.1612 -0.1869 -0.9691
vn 0.1351 -0.9908 0.0034
vn 0.0965 0.9559 0.2775
vn 0.1908 0.9750 0.1142
vn -0.0995 0.6698 -0.7358
vn -0.0392 0.5696 -0.8210
vn 0.0673 0.7391 0.6703
vn 0.0171 0.9338 -0.3575
vn 0.5884 -0.3262 0.7398
vn 0.2687 -0.9619 -0.0499
vn -0.0098 -0.9755 -0.2199
vn -0.3775 -0.4640 0.8014
vn -0.0765 0.5134 0.8547
vn 0.1012 0.6528 0.7508
vn 0.0444 0.5096 -0.8592
vn -0.0883 -0.2661 -0.9599
vn -0.2170 -0.1229 -0.9684
vn -0.1119 0.9643 0.2399
vn -0.1296 0.9770 0.1691
vn -0.1871 0.9682 0.1660
vn -0.1329 0.8038 0.5799
vn -0.1762 0.7152 0.6764
vn -0.1542 0.9873 -0.0371
vn 0.5218 -0.3798 0.7638
vn -0.1306 0.7575 0.6397
vn 0.1657 -0.4119 0.8960
vn -0.2814 0.1606 -0.9460
vn -0.3185 -0.5845 -0.7463
vn -0.2143 0.7956 -0.5667
vn 0.2715 0.2731 0.9229
vn 0.1028 0.4120 0.9054
vn 0.0987 0.4149 0.9045
vn 0.1450 -0.5596 0.8160
vn 0.3849 0.1924 0.9027
vn 0.3353 0.5699 0.7502
vn 0.3202 0.6478 0.6913
vn 0.2491 0.9608 -0.1216
vn -0.0426 0.0484 0.9979
vn -0.3066 -0.6718 0.6743
vn 0.0503 -0.1746 0.9834
vn 0.7958 -0.5268 0.2986
vn 0.8483 -0.4821 0.2192
vn 0.5158 -0.8103 0.2780
vn -0.1713 -0.5000 -0.8489
vn -0.2727 0.8269 -0.4918
vn 0.0070 0.2413 0.9704
vn -0.0757 -0.7365 0.6721
vn 0.0219 -0.7702 0.6374
vn 0.1827 0.7007 0.6897
vn 0.1362 0.8083 0.5728
vn 0.1646 -0.9861 0.0244
vn -0.1387 -0.5115 -0.8480
vn 0.1189 -0.9889 0.0891
vn 0.0560 -0.9977 0.0377
vn -0.1317 0.5350 -0.8345
vn -0.1540 0.5225 -0.8386
vn -0.4993 0.6845 -0.5311
vn 0.0418 0.7286 -0.6837
vn -0.1218 0.8441 -0.5222
vn 0.0627 -0.9156 -0.3972
vn 0.3246 -0.7679 0.5523
vn 0.0595 -0.9320 -0.3575
vn -0.0839 0.9108 0.4042
vn -0.0641 0.6597 0.7488
vn 0.2457 -0.4292 0.8691
vn -0.0334 0.6408 0.7670
vn -0.1820 0.7500 0.6359
vn 0.0867 -0.9953 0.0441
vn -0.1794 -0.3993 -0.8991
vn 0.0729 -0.1293 0.9889
vn -0.0575 0.9701 0.2358
vn 0.3063 0.8262 0.4728
vn 0.0540 0.0730 0.9959
vn 0.0743 -0.8483 -0.5242
vn -0.1295 -0.8067 -0.5766
vn -0.0259 -0.1286 0.9914
vn 0.1665 -0.2715 0.9479
vn 0.0531 -0.3270 0.9435
vn -0.1087 0.7375 -0.6666
vn -0.1467 -0.5047 -0.8508
vn -0.4032 -0.7447 -0.5319
vn -0.4474 -0.3589 -0.8191
vn 0.1983 0.1776 -0.9639
vn -0.2704 0.7901 -0.5501
vn -0.1649 0.6947 -0.7002
vn 0.4661 0.0135 0.8846
vn 0.1220 -0.8917 0.4359
vn -0.1991 -0.7201 0.6647
vn -0.1997 -0.9130 -0.3559
vn -0.1328 -0.8258 0.5481
vn -0.0888 0.5990 -0.7958
vn -0.0090 0.1025 0.9947
vn 0.2900 0.5352 0.7934
vn 0.1641 -0.9212 0.3529
vn 0.1639 -0.7603 0.6286
vn 0.0001 -0.8920 0.4519
vn 0.3760 0.9202 -0.1089
vn 0.4531 0.5123 0.7295
vn -0.0403 -0.9300 -0.3653
vn -0.0468 -0.9515 -0.3040
vn -0.1909 -0.9392 -0.2854
vn 0.1114 -0.9851 -0.1314
vn 0.1805 -0.9798 -0.0861
vn -0.2262 0.4676 -0.8545
vn -0.2734 -0.9315 -0.2398
vn -0.3398 -0.9024 -0.2650
vn 0.0408 0.8602 -0.5084
vn -0.1373 0.8026 -0.5804
vn 0.0703 0.9889 -0.1306
vn 0.0885 -0.9209 -0.3796
vn 0.0230 -0.9987 0.0453
vn 0.0759 -0.9955 -0.0566
vn -0.4104 -0.8604 -0.3020
vn 0.0745 0.2604 -0.9626
vn -0.1045 0.2647 -0.9586
vn -0.1129 -0.3274 -0.9381
vn -0.1307 -0.9260 -0.3542
vn 0.1600 0.0130 0.9870
vn -0.0720 -0.9479 -0.3102
vn 0.1546 -0.9234 -0.3514
vn -0.1489 -0.3480 0.9256
vn 0.0020 -0.9606 -0.2778
vn -0.3012 0.1467 -0.9422
vn -0.2982 -0.5410 -0.7864
vn -0.3112 -0.0681 -0.9479
vn 0.5423 -0.6846 0.4871
vn -0.2095 -0.6366 -0.7422
vn -0.0494 -0.5558 -0.8299
vn -0.1191 0.4688 -0.8753
vn 0.1686 0.9456 -0.2782
vn 0.0615 -0.9525 -0.2984
vn -0.0487 -0.9892 -0.1384
vn 0.1217 -0.9472 -0.2966
vn -0.0174 -0.9438 -0.3301
vn -0.2749 0.9591 0.0674
vn -0.1034 0.9939 0.0374
vn 0.0134 0.9707 -0.2400
vn 0.0690 0.7285 0.6815
vn -0.1410 0.3601 0.9222
vn 0.9740 -0.0769 0.2131
vn 0.7193 0.0659 0.6916
vn -0.1859 0.9783 -0.0918
vn -0.1643 -0.9540 -0.2509
vn -0.0327 -0.9714 -0.2352
vn 0.1556 0.7326 0.6626
vn 0.0599 0.3767 0.9244
vn 0.3828 -0.4420 -0.8113
vn -0.2184 0.9642 -0.1501
vn 0.7086 0.6880 0.1569
vn 0.1134 -0.9935 0.0028
vn -0.8081 -0.0752 -0.5842
vn -0.7901 0.0801 -0.6077
vn 0.0293 0.8587 0.5117
vn 0.1620 0.8247 0.5418
vn 0.1063 0.8664 0.4878
vn 0.0983 0.9940 -0.0477
vn -0.3234 -0.2080 -0.9231
vn 0.1635 -0.4726 -0.8660
vn -0.4720 -0.8517 -0.2278
vn -0.2001 -0.6653 -0.7193
vn -0.2271 -0.4319 -0.8728
vn -0.1067 -0.9928 -0.0548
vn -0.1374 -0.9792 -0.1494
vn -0.0920 -0.8941 -0.4384
vn -0.1829 -0.9205 -0.3453
vn 0.0254 -0.9205 -0.3899
vn -0.0106 0.7601 0.6497
vn 0.4677 -0.1571 0.8698
vn 0.2964 -0.6161 0.7297
vn -0.0805 0.8208 0.5655
vn 0.0551 -0.8724 0.4857
vn 0.5589 -0.5642 0.6077
vn 0.2092 0.6219 0.7546
vn 0.0733 0.5511 0.8312
vn -0.2565 0.2611 -0.9306
vn -0.1974 0.3501 -0.9157
vn -0.1200 -0.5533 -0.8243
vn -0.2549 -0.5537 -0.7927
vn -0.1174 0.2130 -0.9700
vn -0.0192 -0.9778 -0.2087
vn -0.3060 -0.1632 -0.9379
vn -0.1574 0.5584 0.8145
vn -0.0295 0.4089 0.9121
vn -0.2069 0.9780 -0.0278
vn 0.4030 -0.0253 0.9149
vn -0.2786 0.9602 0.0192
vn 0.1601 0.3792 0.9113
vn -0.1411 -0.9375 -0.3180
vn -0.2823 -0.9005 -0.3307
vn 0.8920 0.1833 0.4131
vn 0.5782 0.6737 0.4603
vn -0.0615 0.9666 0.2489
vn 0.1966 -0.9669 -0.1623
vn 0.2602 0.6664 0.6988
vn -0.1005 0.7866 0.6092
vn 0.1523 -0.9818 -0.1134
vn 0.1043 0.9644 -0.2431
vn 0.8946 -0.2326 0.3815
vn 0.3568 -0.5329 0.7672
vn 0.7946 -0.1153 0.5960
vn 0.0387 -0.9979 -0.0522
vn 0.1055 -0.9654 -0.2385
vn 0.8434 -0.1837 0.5050
vn 0.9966 -0.0173 0.0804
vn 0.3220 0.6989 0.6387
vn -0.0594 -0.9736 -0.2203
vn 0.3979 0.8756 0.2738
vn 0.3484 0.6383 0.6864
vn 0.3492 0.6694 0.6557
vn 0.1967 0.8741 0.4441
vn 0.1551 0.9705 -0.1847
vn -0.1880 -0.9626 -0.1953
vn -0.1471 0.9291 -0.3394
vn 0.8496 -0.3168 0.4217
vn -0.1615 -0.9719 -0.1711
vn -0.0001 -0.9990 -0.0436
vn -0.1403 -0.9822 -0.1249
vn -0.1630 -0.9862 0.0283
vn 0.1504 -0.9794 -0.1349
vn 0.1099 0.9868 0.1185
vn 0.1346 0.7195 0.6814
vn -0.3085 -0.7099 -0.6332
vn 0.1566 -0.9117 -0.3798
vn -0.0112 -0.9318 -0.3627
vn 0.4737 0.7730 0.4221
vn -0.6193 0.7160 -0.3222
vn -0.5566 0.7834 -0.2766
vn 0.2158 0.9657 -0.1446
vn -0.0277 0.2648 0.9639
vn -0.1205 0.9146 -0.3859
vn -0.0109 0.9257 -0.3780
vn -0.3024 0.0864 -0.9493
vn 0.2711 0.5464 0.7925
vn -0.0343 -0.9897 -0.1392
vn 0.3103 0.9178 0.2475
vn -0.0386 -0.9983 -0.0437
vn 0.0837 -0.9483 -0.3062
vn -0.0597 -0.9687 -0.2409
vn 0.2027 0.4411 0.8743
vn 0.1915 0.2542 0.9480
vn 0.1691 -0.9784 -0.1186
vn -0.2684 0.9622 -0.0457
vn -0.4512 -0.3785 -0.8082
vn -0.1259 0.9904 -0.0574
vn 0.2442 0.3341 0.9104
vn 0.1762 0.4641 0.8681
vn 0.2419 0.8966 0.3708
vn 0.3790 -0.1848 0.9068
vn 0.1197 -0.9912 -0.0570
vn -0.2524 0.9415 -0.2234
vn 0.1619 0.6235 0.7649
vn 0.1468 0.9630 0.2262
vn 0.2507 0.8007 0.5440
vn -0.0456 0.9172 0.3957
vn 0.0819 0.8288 0.5535
vn 0.1488 -0.8491 0.5069
vn 0.1668 -0.4939 0.8534
vn -0.0854 0.2100 -0.9740
vn -0.2040 0.3746 -0.9045
vn 0.1031 -0.9645 -0.2432
vn -0.0096 -0.9997 -0.0219
vn -0.3636 0.1834 -0.9133
vn -0.1392 -0.6165 -0.7749
vn 0.0419 0.8528 -0.5205
vn -0.0270 -0.9754 -0.2187
vn -0.1947 -0.7144 -0.6721
vn 0.1738 -0.9843 -0.0294
vn -0.1778 -0.9838 0.0227
vn -0.4172 -0.8938 -0.1642
vn 0.8951 -0.4434 0.0469
vn 0.7177 -0.6855 0.1222
vn 0.0103 0.7978 0.6028
vn 0.4487 0.5327 0.7175
vn -0.1208 -0.8962 0.4269
vn -0.6149 0.6951 -0.3725
vn -0.3094 -0.3818 -0.8709
vn -0.2498 0.5038 -0.8269
vn 0.0919 0.6076 -0.7889
vn 0.2165 -0.3471 -0.9125
vn 0.0852 -0.7637 0.6400
vn 0.1154 -0.9909 -0.0686
vn 0.0592 -0.8807 0.4700
vn 0.6579 -0.4758 0.5838
vn 0.9309 -0.3391 0.1356
vn -0.2245 0.1904 -0.9557
vn -0.0190 -0.9744 -0.2239
vn 0.0033 0.4106 0.9118
vn -0.6858 0.7272 0.0292
vn -0.1979 0.9667 -0.1624
vn -0.1473 0.6485 -0.7468
vn 0.4296 0.2513 -0.8674
vn 0.4794 0.2204 -0.8495
vn 0.4566 0.1541 -0.8762
vn 0.4173 0.5594 -0.7162
vn -0.1340 -0.9879 0.0785
vn -0.5908 -0.7545 0.2856
vn -0.6596 -0.7511 0.0297
vn -0.4164 0.8069 -0.4189
vn 0.6194 -0.4224 -0.6617
vn -0.6534 0.7538 0.0693
vn -0.3606 0.6049 0.7099
vn -0.2172 -0.2733 0.9371
vn -0.5829 -0.0084 0.8125
vn -0.1759 0.9762 0.1272
vn 0.7803 0.5832 -0.2259
vn 0.7654 0.6218 -0.1657
vn 0.3870 -0.0125 -0.9220
vn 0.4916 -0.2385 -0.8375
vn 0.6156 0.6587 -0.4326
vn 0.8580 0.4950 0.1369
vn 0.8906 -0.4483 0.0766
vn 0.6313 0.7384 -0.2369
vn 0.6278 -0.4074 -0.6633
vn 0.6371 -0.3302 -0.6965
vn 0.9805 0.1635 0.1093
vn 0.9867 0.1044 0.1248
vn 0.5843 0.7262 -0.3623
vn 0.5344 -0.5079 -0.6756
vn -0.7688 -0.5764 -0.2769
vn -0.3242 -0.2391 0.9153
vn -0.7973 -0.2505 -0.5491
vn -0.7597 0.2174 -0.6128
vn -0.6466 0.5808 -0.4945
vn -0.7856 -0.3823 -0.4865
vn -0.3987 -0.6680 0.6283
vn -0.5203 -0.1811 0.8346
vn -0.3320 0.0419 0.9424
vn -0.3735 0.2340 0.8976
usemtl sungaya_inexpectata_31mg
s 1
f 187/1/1 276/2/2 178/3/3
f 92/4/4 13/5/5 12/6/6
f 208/7/7 18/8/8 17/9/9
f 28/10/10 29/11/11 6/12/12
f 97/13/13 100/14/14 4/15/15
f 152/16/16 40/17/17 157/18/18
f 30/19/19 280/20/20 106/21/21
f 30/22/19 47/23/22 280/24/20
f 207/25/23 2/26/24 1/27/25
f 39/28/26 232/29/27 27/30/28
f 101/31/29 263/32/30 183/33/31
f 104/34/32 83/35/33 82/36/34
f 56/37/35 57/38/36 86/39/37
f 89/40/38 44/41/39 190/42/40
f 91/43/41 6/44/12 155/45/42
f 24/46/43 167/47/44 92/48/4
f 99/49/45 256/50/46 100/51/14
f 9/52/47 169/53/48 111/54/49
f 66/55/50 65/56/51 94/57/52
f 12/6/6 13/5/5 86/58/37
f 138/59/53 123/60/54 264/61/55
f 19/62/56 124/63/57 120/64/58
f 21/65/59 172/66/60 126/67/61
f 271/68/62 130/69/63 129/70/64
f 192/71/65 132/72/66 133/73/67
f 139/74/68 289/75/69 140/76/70
f 66/55/50 94/57/52 69/77/71
f 209/78/72 114/79/73 210/80/74
f 6/81/12 29/82/11 145/83/75
f 155/84/42 6/81/12 145/83/75
f 73/85/76 248/86/77 158/87/78
f 239/88/79 160/89/80 159/90/81
f 95/91/82 162/92/83 207/93/23
f 164/94/84 306/95/85 217/96/86
f 161/97/87 4/98/15 45/99/88
f 166/100/89 282/101/90 149/102/91
f 282/103/90 148/104/92 149/105/91
f 23/106/93 146/107/94 167/47/44
f 180/108/95 150/109/96 299/110/97
f 176/111/98 307/112/99 75/113/100
f 179/114/101 21/65/59 99/115/45
f 13/116/5 170/117/102 86/118/37
f 188/119/103 68/120/104 189/121/105
f 190/122/40 191/123/106 148/124/92
f 190/125/40 148/126/92 249/127/107
f 42/128/108 73/85/76 158/87/78
f 120/129/58 119/130/109 77/131/110
f 217/96/86 293/132/111 164/94/84
f 179/133/101 99/134/45 97/135/13
f 185/136/112 136/137/113 111/138/49
f 165/139/114 131/140/115 221/141/116
f 89/142/38 24/46/43 67/143/117
f 227/144/118 226/145/119 163/146/120
f 33/147/121 44/148/39 49/149/122
f 2/150/24 207/151/23 48/152/123
f 17/153/9 210/154/74 208/155/7
f 89/156/38 67/143/117 44/157/39
f 212/158/124 221/141/116 213/159/125
f 7/160/126 98/161/127 214/162/128
f 33/163/121 49/164/122 215/165/129
f 196/166/130 218/167/131 219/168/132
f 221/141/116 222/169/133 72/170/134
f 221/141/116 131/140/115 222/169/133
f 18/171/8 60/172/135 90/173/136
f 44/148/39 67/174/117 49/149/122
f 250/175/137 284/176/138 108/177/139
f 81/178/140 166/179/89 223/180/141
f 162/181/83 95/182/82 224/183/142
f 11/184/143 110/185/144 98/186/127
f 279/187/145 91/188/41 228/189/146
f 155/190/42 206/191/147 91/192/41
f 227/193/118 112/194/148 226/195/119
f 10/196/149 191/197/106 230/198/150
f 110/199/144 11/200/143 225/201/151
f 87/202/152 128/203/153 231/204/154
f 98/205/127 7/206/126 74/207/155
f 200/208/156 221/141/116 212/158/124
f 200/209/156 165/210/114 221/211/116
f 69/212/71 193/213/157 70/214/158
f 69/212/71 93/215/159 193/213/157
f 66/216/50 70/217/158 235/218/160
f 291/219/161 236/220/162 142/221/163
f 160/89/80 243/222/164 159/90/81
f 81/223/140 278/224/165 220/225/166
f 9/226/47 17/227/9 212/158/124
f 127/228/167 87/229/152 234/230/168
f 32/231/169 235/232/160 79/233/170
f 235/234/160 32/235/169 102/236/171
f 80/237/172 235/238/160 250/239/137
f 217/240/86 80/241/172 74/242/155
f 98/161/127 110/243/144 248/244/77
f 253/245/173 242/246/174 120/247/58
f 54/248/175 242/249/174 253/250/173
f 96/251/176 4/15/15 161/252/87
f 82/36/34 293/132/111 217/96/86
f 65/56/51 258/253/177 94/57/52
f 239/88/79 261/254/178 160/89/80
f 160/255/80 261/256/178 314/257/179
f 53/258/180 49/259/122 67/174/117
f 252/260/181 173/261/182 193/262/157
f 93/263/159 94/264/52 64/265/183
f 64/266/183 125/267/184 289/268/69
f 46/269/185 215/270/129 95/271/82
f 215/272/129 224/183/142 95/273/82
f 20/274/186 256/275/46 99/276/45
f 26/277/187 90/278/136 60/279/135
f 87/202/152 231/204/154 123/280/54
f 191/281/106 50/282/188 149/283/91
f 364/284/189 359/285/190 264/286/55
f 216/287/191 25/288/192 113/289/193
f 124/290/57 119/291/109 120/292/58
f 38/293/194 6/44/12 91/43/41
f 91/43/41 279/294/145 38/293/194
f 283/295/195 186/296/196 128/297/153
f 226/298/119 112/299/148 198/300/197
f 279/301/145 204/302/198 137/303/199
f 253/304/173 120/129/58 77/131/110
f 230/305/150 115/306/200 55/307/201
f 90/308/136 17/309/9 18/310/8
f 257/311/202 15/312/203 118/313/204
f 266/314/205 21/315/59 179/316/101
f 153/317/206 131/140/115 165/139/114
f 153/317/206 165/139/114 187/1/1
f 206/318/147 124/63/57 91/43/41
f 91/43/41 124/63/57 19/62/56
f 297/319/207 188/320/103 268/321/208
f 158/87/78 300/322/209 194/323/210
f 42/128/108 158/87/78 194/323/210
f 217/324/86 74/325/155 7/326/126
f 234/327/168 60/328/135 18/329/8
f 271/330/62 10/331/149 56/332/35
f 271/333/62 50/334/188 10/335/149
f 113/336/193 275/337/211 63/338/212
f 216/339/191 63/340/212 12/341/6
f 278/342/165 85/343/213 52/344/214
f 85/345/213 238/346/215 199/347/216
f 286/348/217 279/349/145 137/350/199
f 280/351/20 47/352/22 150/353/96
f 284/354/138 272/355/218 285/356/219
f 17/309/9 209/357/72 210/358/74
f 258/359/177 109/360/220 59/361/221
f 109/360/220 164/94/84 28/362/10
f 139/363/68 275/364/211 289/268/69
f 275/364/211 64/266/183 289/268/69
f 63/340/212 275/364/211 139/363/68
f 57/365/36 12/6/6 86/58/37
f 106/366/21 180/367/95 107/368/222
f 275/369/211 292/370/223 64/371/183
f 292/372/223 275/373/211 25/374/192
f 88/375/224 63/376/212 251/377/225
f 182/378/226 295/379/227 132/380/66
f 76/381/228 117/382/229 261/383/178
f 77/384/110 117/382/229 76/381/228
f 194/385/210 243/222/164 160/89/80
f 296/386/230 107/387/222 299/388/97
f 81/389/140 269/390/231 297/391/207
f 181/392/232 232/393/27 39/394/26
f 6/395/12 107/387/222 296/386/230
f 28/396/10 296/397/230 298/398/233
f 262/399/234 191/400/106 190/42/40
f 206/401/147 155/402/42 145/403/75
f 51/404/235 208/405/7 210/406/74
f 58/407/236 241/408/237 116/409/238
f 241/410/237 58/411/236 159/412/81
f 165/139/114 200/208/156 187/1/1
f 245/413/239 81/414/140 168/415/240
f 256/416/46 52/344/214 85/417/213
f 65/418/51 109/360/220 258/359/177
f 64/419/183 94/420/52 125/421/184
f 173/422/182 95/423/82 1/424/25
f 1/425/25 95/426/82 207/427/23
f 21/65/59 20/428/186 99/115/45
f 48/429/123 207/430/23 162/431/83
f 336/432/241 326/433/242 116/434/238
f 172/435/60 68/436/104 170/117/102
f 125/421/184 94/420/52 258/359/177
f 51/437/235 210/438/74 62/439/243
f 146/440/94 20/441/186 126/442/61
f 189/443/105 68/444/104 172/445/60
f 70/446/158 193/447/157 229/448/244
f 213/449/125 169/450/48 9/451/47
f 240/452/245 143/453/246 3/454/247
f 3/455/247 143/456/246 27/30/28
f 35/457/248 3/458/247 232/29/27
f 61/459/249 48/460/123 224/461/142
f 182/462/226 15/312/203 301/463/250
f 293/132/111 29/464/11 164/94/84
f 263/465/30 283/295/195 203/466/251
f 324/467/252 336/468/241 116/469/238 241/470/237
f 302/471/253 105/472/254 295/473/227
f 173/474/182 2/475/24 229/476/244
f 122/477/255 247/478/256 34/479/257
f 95/480/82 122/481/255 34/482/257
f 49/164/122 88/483/224 215/165/129
f 65/418/51 306/95/85 164/94/84
f 65/418/51 66/484/50 306/95/85
f 170/117/102 130/485/63 86/118/37
f 45/486/88 246/487/258 134/488/259
f 123/280/54 138/489/53 87/202/152
f 141/490/260 157/491/18 183/492/31
f 141/493/260 152/494/16 157/18/18
f 71/495/261 72/496/134 156/497/262
f 178/3/3 276/2/2 37/498/263
f 356/499/264 360/500/265 5/501/266
f 259/502/267 57/503/36 56/504/35
f 118/505/204 75/506/100 257/507/202
f 169/508/48 71/509/261 111/138/49
f 202/510/268 154/511/269 308/512/270
f 42/128/108 43/513/271 73/85/76
f 182/514/226 132/515/66 14/516/272
f 77/517/110 254/518/273 253/519/173
f 34/520/257 262/521/234 33/522/121
f 230/523/150 55/524/201 211/525/274
f 31/526/275 79/527/170 267/528/276
f 250/175/137 108/177/139 74/529/155
f 303/530/277 218/531/131 121/532/278
f 218/533/131 161/97/87 121/534/278
f 129/535/64 188/536/103 269/537/231
f 260/538/279 129/539/64 269/540/231
f 107/368/222 310/541/280 309/542/281
f 107/368/222 309/542/281 106/543/21
f 72/170/134 213/544/125 221/141/116
f 251/377/225 63/376/212 139/74/68
f 205/545/282 88/546/224 251/547/225
f 111/138/49 136/137/113 40/17/17
f 296/548/230 28/549/10 6/550/12
f 143/551/246 210/154/74 114/552/73
f 289/75/69 281/553/283 144/554/284
f 289/75/69 144/554/284 140/76/70
f 137/555/199 284/354/138 285/356/219
f 43/556/271 117/557/229 233/558/285
f 261/559/178 117/560/229 314/561/179
f 314/562/179 117/557/229 43/556/271
f 21/563/59 268/564/208 172/565/60
f 9/226/47 212/158/124 213/159/125
f 114/566/73 22/567/286 27/30/28
f 143/568/246 114/566/73 27/30/28
f 112/569/148 294/570/287 198/571/197
f 167/47/44 146/107/94 255/572/288
f 135/573/289 246/574/258 36/575/290
f 125/421/184 59/361/221 281/553/283
f 281/576/283 59/577/221 174/578/291
f 174/578/291 59/577/221 288/579/292
f 24/46/43 92/48/4 53/580/180
f 67/174/117 24/581/43 53/258/180
f 43/582/271 233/583/285 119/584/109
f 237/585/293 43/586/271 119/587/109
f 111/54/49 171/588/294 9/52/47
f 130/589/63 170/590/102 68/120/104
f 129/591/64 68/592/104 188/593/103
f 130/485/63 68/594/104 129/595/64
f 64/419/183 292/596/223 277/597/295
f 162/598/83 224/461/142 48/460/123
f 166/599/89 260/600/279 223/601/141
f 312/602/296 220/603/166 78/604/297
f 180/108/95 106/21/21 280/20/20
f 289/268/69 125/267/184 281/605/283
f 99/115/45 100/606/14 97/607/13
f 229/608/244 235/609/160 70/610/158
f 284/611/138 273/612/298 272/613/218
f 284/611/138 102/614/171 273/612/298
f 250/175/137 235/615/160 284/176/138
f 102/616/171 103/617/299 273/618/298
f 315/619/300 201/620/301 192/71/65
f 290/621/302 199/622/216 315/619/300
f 263/465/30 101/623/29 283/295/195
f 118/313/204 168/624/240 75/625/100
f 244/626/303 168/624/240 118/313/204
f 81/389/140 223/627/141 269/390/231
f 264/61/55 123/60/54 184/628/304
f 199/347/216 290/629/302 85/345/213
f 132/630/66 192/631/65 201/632/301
f 215/165/129 88/483/224 205/633/282
f 205/634/282 224/635/142 215/636/129
f 230/637/150 191/638/106 262/639/234
f 149/640/91 84/641/305 260/642/279
f 293/132/111 82/36/34 83/35/33
f 47/352/22 61/643/249 150/353/96
f 198/571/197 197/644/306 147/645/307
f 225/646/151 198/647/197 147/648/307
f 113/649/193 63/650/212 216/651/191
f 262/652/234 247/653/256 230/654/150
f 111/138/49 71/509/261 185/136/112
f 51/655/235 203/466/251 283/295/195
f 283/295/195 128/297/153 51/655/235
f 14/656/272 118/657/204 15/658/203
f 209/659/72 171/660/294 40/661/17
f 40/662/17 22/663/286 209/664/72
f 225/665/151 147/666/307 110/667/144
f 110/243/144 147/668/307 248/244/77
f 334/669/308 112/670/148 322/671/309
f 234/672/168 18/673/8 51/674/235
f 51/675/235 18/676/8 208/405/7
f 145/677/75 274/678/310 206/679/147
f 173/680/182 1/425/25 2/681/24
f 35/682/248 133/683/67 3/684/247
f 274/685/310 104/34/32 73/85/76
f 138/686/53 234/687/168 87/688/152
f 191/689/106 149/690/91 148/691/92
f 203/692/251 51/674/235 62/693/243
f 200/208/156 90/694/136 151/695/311
f 212/158/124 90/694/136 200/208/156
f 26/696/187 151/697/311 90/698/136
f 65/418/51 164/94/84 109/360/220
f 152/699/16 141/700/260 295/701/227
f 295/702/227 105/703/254 152/704/16
f 182/705/226 14/706/272 15/707/203
f 173/708/182 252/709/181 122/710/255
f 122/711/255 252/712/181 115/713/200
f 252/714/181 277/715/295 115/716/200
f 35/717/248 181/718/232 36/719/290
f 36/720/290 181/721/232 135/722/289
f 130/723/63 271/724/62 86/58/37
f 74/529/155 108/177/139 11/725/143
f 98/726/127 74/727/155 11/200/143
f 39/728/26 27/729/28 175/730/312
f 254/731/273 77/517/110 76/732/228
f 31/733/275 32/734/169 79/735/170
f 5/736/266 276/737/2 60/738/135
f 276/739/2 151/740/311 26/741/187
f 354/742/313 356/743/264 5/744/266 60/745/135
f 270/746/314 304/747/315 285/748/219
f 270/746/314 305/749/316 304/747/315
f 231/204/154 128/203/153 317/750/317
f 45/99/88 4/98/15 100/751/14
f 33/752/121 262/753/234 44/754/39
f 188/320/103 189/755/105 268/321/208
f 182/756/226 302/757/253 295/758/227
f 247/759/256 122/760/255 115/761/200
f 282/762/90 166/763/89 220/764/166
f 220/603/166 312/602/296 282/765/90
f 265/766/318 297/767/207 266/768/205
f 307/769/99 265/766/318 266/768/205
f 11/770/143 163/771/120 225/772/151
f 225/773/151 163/774/120 226/775/119
f 80/241/172 250/776/137 74/242/155
f 16/777/319 184/778/304 156/779/262
f 219/780/132 311/781/320 257/782/202
f 19/783/56 228/784/146 91/785/41
f 108/786/139 137/787/199 204/788/198
f 108/789/139 204/790/198 11/791/143
f 106/792/21 309/793/281 30/794/19
f 89/795/38 249/796/107 24/797/43
f 249/796/107 23/798/93 24/797/43
f 263/465/30 202/510/268 308/512/270
f 307/799/99 219/800/132 75/113/100
f 307/801/99 196/802/130 219/803/132
f 257/804/202 75/805/100 219/806/132
f 81/807/140 265/808/318 176/809/98
f 168/810/240 81/811/140 176/812/98
f 133/813/67 132/814/66 291/815/161
f 164/94/84 29/464/11 28/362/10
f 263/465/30 308/512/270 183/816/31
f 167/817/44 24/797/43 23/798/93
f 228/784/146 19/818/56 242/819/174
f 242/819/174 19/818/56 120/820/58
f 333/821/321 241/408/237 343/822/322
f 324/467/252 241/470/237 333/823/321
f 177/824/323 204/825/198 279/826/145
f 270/827/314 310/828/280 305/829/316
f 135/573/289 134/830/259 246/574/258
f 273/831/298 270/832/314 272/833/218
f 285/356/219 272/355/218 270/834/314
f 238/835/215 85/343/213 278/342/165
f 34/836/257 247/837/256 262/838/234
f 95/839/82 34/520/257 46/840/185
f 46/841/185 34/842/257 33/843/121
f 122/844/255 95/845/82 173/846/182
f 308/847/270 142/848/163 183/849/31
f 193/447/157 173/850/182 229/448/244
f 76/851/228 261/852/178 58/407/236
f 239/88/79 58/407/236 261/852/178
f 14/853/272 132/854/66 201/855/301
f 284/354/138 137/555/199 108/856/139
f 225/857/151 226/775/119 198/858/197
f 255/859/288 170/860/102 92/861/4
f 31/862/275 102/616/171 32/863/169
f 103/617/299 102/616/171 31/862/275
f 212/864/124 17/865/9 90/308/136
f 270/866/314 309/867/281 310/868/280
f 103/869/299 309/870/281 270/871/314
f 92/872/4 170/117/102 13/116/5
f 2/873/24 48/874/123 47/875/22
f 8/876/324 2/877/24 30/878/19
f 2/879/24 47/880/22 30/881/19
f 290/882/302 315/883/300 192/884/65
f 290/885/302 45/886/88 100/887/14
f 45/99/88 290/888/302 246/889/258
f 133/73/67 246/890/258 290/621/302
f 179/133/101 96/891/176 316/892/325
f 179/133/101 97/135/13 96/891/176
f 93/263/159 64/893/183 277/894/295
f 93/895/159 277/715/295 252/714/181
f 360/896/265 353/897/326 5/744/266
f 45/99/88 121/898/278 161/97/87
f 134/899/259 121/900/278 45/901/88
f 126/902/61 20/903/186 21/904/59
f 61/905/249 224/906/142 313/907/327
f 186/908/196 136/137/113 185/136/112
f 142/848/163 141/909/260 183/849/31
f 276/910/2 26/911/187 60/912/135
f 6/395/12 310/913/280 107/387/222
f 50/914/188 84/915/305 149/916/91
f 14/917/272 244/918/303 118/919/204
f 260/920/279 271/921/62 129/922/64
f 84/923/305 271/330/62 260/924/279
f 84/925/305 50/926/188 271/921/62
f 175/927/312 302/928/253 39/929/26
f 314/930/179 43/513/271 42/128/108
f 241/408/237 159/90/81 294/931/287
f 230/932/150 211/933/274 10/934/149
f 317/750/317 128/203/153 186/935/196
f 71/936/261 186/935/196 185/937/112
f 317/750/317 186/935/196 71/936/261
f 269/938/231 188/939/103 297/940/207
f 259/941/267 216/942/191 57/943/36
f 25/944/192 216/945/191 259/946/267
f 190/947/40 44/948/39 262/949/234
f 287/950/328 286/348/217 304/951/315
f 186/935/196 283/952/195 136/953/113
f 291/954/161 142/955/163 154/956/269
f 111/957/49 40/958/17 171/959/294
f 22/960/286 40/961/17 152/962/16
f 214/963/128 98/205/127 248/964/77
f 20/965/186 146/107/94 78/966/297
f 57/365/36 216/651/191 12/967/6
f 137/968/199 285/969/219 304/951/315
f 286/348/217 137/968/199 304/951/315
f 331/970/329 320/971/330 177/972/323
f 299/110/97 150/109/96 288/973/292
f 312/974/296 78/975/297 146/976/94
f 215/977/129 46/978/185 33/979/121
f 206/980/147 119/981/109 124/982/57
f 119/983/109 233/984/285 117/985/229
f 117/986/229 77/987/110 119/988/109
f 166/989/89 149/990/91 260/991/279
f 177/824/323 163/146/120 204/825/198
f 166/992/89 81/993/140 220/994/166
f 81/223/140 245/995/239 278/224/165
f 238/996/215 244/997/303 199/998/216
f 56/999/35 86/1000/37 271/1001/62
f 66/1002/50 69/1003/71 70/1004/158
f 101/1005/29 40/17/17 136/137/113
f 157/18/18 40/17/17 101/1005/29
f 283/1006/195 101/1005/29 136/137/113
f 235/1007/160 229/1008/244 79/1009/170
f 302/1010/253 175/1011/312 27/1012/28
f 27/1013/28 105/1014/254 302/1015/253
f 217/1016/86 306/1017/85 80/1018/172
f 53/1019/180 12/1020/6 63/1021/212
f 344/1022/331 331/1023/329 177/1024/323
f 330/1025/332 344/1026/331 177/1027/323 228/1028/146
f 160/89/80 314/1029/179 194/1030/210
f 83/35/33 104/34/32 274/685/310
f 25/1031/192 259/1032/267 292/1033/223
f 292/1034/223 259/1035/267 195/1036/333
f 350/1037/334 365/1038/335 16/1039/319
f 6/1040/12 38/1041/194 41/1042/336
f 23/798/93 249/796/107 282/1043/90
f 148/1044/92 282/1045/90 249/1046/107
f 176/809/98 75/625/100 168/624/240
f 109/360/220 28/362/10 298/1047/233
f 48/460/123 61/1048/249 47/1049/22
f 88/483/224 49/164/122 53/580/180
f 202/510/268 263/465/30 203/466/251
f 220/1050/166 278/1051/165 78/1052/297
f 307/769/99 266/768/205 316/1053/325
f 179/1054/101 316/1055/325 266/1056/205
f 97/13/13 4/15/15 96/251/176
f 218/1057/131 196/1058/130 96/1059/176
f 218/1060/131 96/1061/176 161/1062/87
f 236/1063/162 291/1064/161 132/1065/66
f 115/1066/200 277/1067/295 55/1068/201
f 128/203/153 87/202/152 127/1069/167
f 5/744/266 37/1070/263 276/1071/2
f 265/1072/318 307/112/99 176/111/98
f 107/368/222 180/367/95 299/1073/97
f 150/109/96 180/108/95 280/20/20
f 35/682/248 36/1074/290 133/683/67
f 172/565/60 268/564/208 189/1075/105
f 253/1076/173 254/1077/273 54/1078/175
f 256/1079/46 20/1080/186 52/1081/214
f 138/1082/53 60/1083/135 234/1084/168
f 83/1085/33 274/1086/310 145/1087/75
f 29/464/11 293/132/111 83/35/33
f 174/1088/291 150/1089/96 61/1090/249
f 288/1091/292 150/1092/96 174/1093/291
f 61/1094/249 281/605/283 174/1095/291
f 7/1096/126 82/36/34 217/96/86
f 259/1097/267 56/1098/35 195/1099/333
f 10/1100/149 211/1101/274 195/1102/333
f 195/1099/333 56/1098/35 10/1103/149
f 257/311/202 311/1104/320 15/312/203
f 301/1105/250 15/1106/203 311/1107/320
f 301/463/250 302/1108/253 182/462/226
f 301/1109/250 39/1110/26 302/1111/253
f 236/1063/162 132/1065/66 295/1112/227
f 27/1113/28 22/1114/286 152/1115/16
f 27/1116/28 152/1117/16 105/1118/254
f 16/1119/319 156/1120/262 222/169/133
f 156/1121/262 72/1122/134 222/1123/133
f 325/1124/337 322/1125/309 112/1126/148
f 204/825/198 163/146/120 11/1127/143
f 178/3/3 153/317/206 187/1/1
f 351/1128/338 346/1129/339 37/1070/263
f 362/1130/340 349/1131/341 153/1132/206
f 62/1133/243 143/1134/246 240/1135/245
f 9/226/47 171/1136/294 209/1137/72
f 287/1138/328 41/1139/336 38/1140/194
f 287/1141/328 304/1142/315 305/1143/316
f 121/1144/278 134/1145/259 135/1146/289
f 121/1144/278 135/1146/289 181/1147/232
f 151/1148/311 276/2/2 187/1/1
f 240/1149/245 3/1150/247 154/1151/269
f 154/956/269 133/683/67 291/954/161
f 3/1152/247 133/1153/67 154/1154/269
f 232/29/27 3/455/247 27/30/28
f 318/1155/342 224/1156/142 205/633/282
f 306/1157/85 66/1158/50 80/1159/172
f 314/930/179 42/128/108 194/323/210
f 230/305/150 247/1160/256 115/1161/200
f 94/1162/52 93/1163/159 69/1164/71
f 296/1165/230 109/1166/220 298/1167/233
f 109/360/220 288/1168/292 59/361/221
f 296/1169/230 288/1170/292 109/1171/220
f 50/1172/188 191/1173/106 10/1174/149
f 278/1175/165 52/1176/214 78/1177/297
f 20/1178/186 78/604/297 52/344/214
f 237/1179/293 274/685/310 73/85/76
f 238/1180/215 278/1181/165 245/1182/239
f 245/1183/239 168/1184/240 238/1185/215
f 219/1186/132 218/1060/131 303/1187/277
f 169/1188/48 213/1189/125 71/1190/261
f 213/1189/125 72/1191/134 71/1190/261
f 14/1192/272 201/1193/301 199/1194/216
f 14/1195/272 199/1196/216 244/1197/303
f 201/620/301 315/619/300 199/622/216
f 123/280/54 156/779/262 184/778/304
f 248/964/77 147/1198/307 300/1199/209
f 258/359/177 59/361/221 125/421/184
f 154/1200/269 202/1201/268 62/1202/243
f 240/1203/245 154/1204/269 62/1205/243
f 290/1206/302 256/1079/46 85/1207/213
f 290/1208/302 100/1209/14 256/1210/46
f 103/1211/299 270/1212/314 273/1213/298
f 209/659/72 22/1214/286 114/1215/73
f 279/1216/145 287/1217/328 38/1218/194
f 287/1219/328 279/349/145 286/348/217
f 214/1220/128 82/1221/34 7/1222/126
f 214/1220/128 104/1223/32 82/1221/34
f 279/826/145 228/1224/146 177/824/323
f 159/1225/81 197/1226/306 294/1227/287
f 159/1228/81 300/1229/209 197/1230/306
f 159/1228/81 243/1231/164 300/1229/209
f 197/644/306 300/1232/209 147/645/307
f 76/851/228 58/407/236 116/409/238
f 113/1233/193 25/1234/192 275/1235/211
f 244/1236/303 238/1237/215 168/1238/240
f 79/1239/170 229/1240/244 8/1241/324
f 17/1242/9 9/1243/47 209/357/72
f 296/386/230 299/1244/97 288/1245/292
f 81/1246/140 297/1247/207 265/1248/318
f 267/1249/276 8/876/324 30/878/19
f 8/1250/324 267/1251/276 79/1252/170
f 229/476/244 2/475/24 8/1253/324
f 12/1254/6 53/1255/180 92/1256/4
f 292/1257/223 55/1258/201 277/1259/295
f 292/1257/223 195/1260/333 211/1261/274
f 292/1257/223 211/1261/274 55/1258/201
f 142/1262/163 236/1263/162 141/1264/260
f 236/1265/162 295/473/227 141/909/260
f 157/491/18 101/1266/29 183/492/31
f 311/1267/320 219/1268/132 121/1269/278
f 121/1269/278 219/1268/132 303/1270/277
f 156/779/262 231/204/154 317/750/317
f 317/1271/317 71/1272/261 156/497/262
f 206/1273/147 237/1274/293 119/1275/109
f 237/1276/293 206/1277/147 274/1278/310
f 43/513/271 237/1179/293 73/85/76
f 83/1279/33 145/1280/75 29/1281/11
f 103/1282/299 31/1283/275 309/1284/281
f 267/1285/276 30/878/19 309/870/281
f 267/1286/276 309/1287/281 31/733/275
f 187/1288/1 200/1289/156 151/1290/311
f 252/714/181 193/447/157 93/1291/159
f 202/1292/268 203/1293/251 62/1294/243
f 308/1295/270 154/1296/269 142/1297/163
f 41/1298/336 287/1138/328 305/1299/316
f 310/1300/280 41/1298/336 305/1299/316
f 6/395/12 41/1301/336 310/913/280
f 311/1302/320 39/1303/26 301/1304/250
f 311/1305/320 121/1306/278 39/1307/26
f 282/1308/90 312/602/296 23/798/93
f 23/106/93 312/1309/296 146/107/94
f 146/107/94 126/1310/61 255/572/288
f 255/1311/288 126/1312/61 172/435/60
f 266/1313/205 268/1314/208 21/1315/59
f 297/319/207 268/321/208 266/1316/205
f 318/1317/342 313/1318/327 224/1319/142
f 73/85/76 104/34/32 248/86/77
f 307/769/99 316/1053/325 196/1320/130
f 316/1053/325 96/1061/176 196/1320/130
f 36/1321/290 246/1322/258 133/1323/67
f 104/34/32 214/1324/128 248/86/77
f 249/1325/107 89/1326/38 190/1327/40
f 181/1147/232 39/28/26 121/1144/278
f 62/1328/243 210/1329/74 143/1330/246
f 300/322/209 243/1331/164 194/323/210
f 198/1332/197 294/1333/287 197/1334/306
f 235/1335/160 80/1159/172 66/1158/50
f 231/204/154 156/779/262 123/280/54
f 58/411/236 239/1336/79 159/1337/81
f 260/1338/279 269/1339/231 223/1340/141
f 181/1147/232 35/457/248 232/29/27
f 318/1341/342 140/76/70 313/1342/327
f 251/1343/225 140/76/70 318/1341/342
f 251/547/225 318/1344/342 205/545/282
f 139/1345/68 140/1346/70 251/1347/225
f 144/1348/284 281/1349/283 61/1350/249
f 144/1351/284 61/1352/249 313/1353/327
f 313/1354/327 140/1355/70 144/1356/284
f 170/117/102 255/1311/288 172/435/60
f 53/1357/180 63/376/212 88/1358/224
f 300/1359/209 158/1360/78 248/1361/77
f 192/71/65 133/73/67 290/621/302
f 127/1362/167 51/655/235 128/297/153
f 51/655/235 127/1362/167 234/1363/168
f 167/1364/44 255/1365/288 92/1366/4
f 284/1367/138 235/1368/160 102/1369/171
f 54/1370/175 340/1371/343 339/1372/344
f 227/1373/118 163/1374/120 338/1375/345 342/1376/346
f 54/1377/175 339/1378/344 337/1379/347
f 254/1380/273 335/1381/348 340/1382/343 54/1383/175
f 294/1384/287 332/1385/349 343/1386/322 241/1387/237
f 294/1388/287 112/1389/148 334/1390/308 332/1391/349
f 228/1392/146 341/1393/350 330/1394/332
f 227/1395/118 328/1396/351 329/1397/352
f 254/1398/273 327/1399/353 335/1400/348
f 112/194/148 227/193/118 329/1401/352 325/1402/337
f 116/1403/238 326/1404/242 323/1405/354 76/1406/228
f 76/1407/228 323/1408/354 327/1409/353 254/1410/273
f 54/1411/175 337/1412/347 321/1413/355 242/1414/174
f 242/1415/174 321/1416/355 341/1417/350 228/1418/146
f 177/1419/323 320/1420/330 338/1421/345 163/1422/120
f 227/1423/118 319/1424/356 328/1425/351
f 227/1426/118 342/1427/346 319/1428/356
f 329/1397/352 328/1396/351 319/1424/356 342/1427/346 338/1375/345 320/1420/330 331/970/329 344/1022/331 330/1025/332 341/1393/350 321/1416/355 337/1412/347 339/1378/344 340/1371/343 335/1381/348 327/1399/353 323/1408/354 326/1404/242 336/432/241 324/467/252 333/823/321 343/822/322 332/1385/349 334/1390/308 322/671/309 325/1124/337
f 184/778/304 16/777/319 365/1429/335 366/1430/357
f 178/3/3 363/1431/358 362/1130/340 153/1132/206
f 264/1432/55 361/1433/359 364/1434/189
f 264/1432/55 359/1435/190 357/1436/360 138/1437/53
f 138/59/53 357/1438/360 358/1439/361
f 264/61/55 184/628/304 355/1440/362 361/1441/359
f 184/778/304 366/1430/357 355/1442/362
f 60/1443/135 138/1444/53 358/1445/361 354/1446/313
f 37/1070/263 5/744/266 353/897/326 351/1128/338
f 16/1447/319 222/1448/133 352/1449/363 350/1450/334
f 222/169/133 131/140/115 348/1451/364 352/1452/363
f 153/1132/206 349/1131/341 348/1451/364 131/140/115
f 178/1453/3 347/1454/365 363/1455/358
f 37/1456/263 346/1457/339 345/1458/366 178/1459/3
f 178/1459/3 345/1458/366 347/1460/365
f 365/1429/335 350/1450/334 352/1452/363 348/1451/364 349/1131/341 362/1130/340 363/1455/358 347/1460/365 345/1458/366 346/1129/339 351/1128/338 353/897/326 360/500/265 356/743/264 354/1446/313 358/1439/361 357/1436/360 359/285/190 364/1434/189 361/1441/359 355/1442/362 366/1430/357
