# Blender v2.79 (sub 0) OBJ File: 'redo_fixed_360_joints.blend'
# www.blender.org
mtllib sungaya_inexpectata_31mg.mtl
o 20-f-l-claws.000_Sungaya_inexpectata_31mg.033
v -0.000212 -0.000006 -0.000085
v -0.000087 0.000003 -0.000063
v 0.000060 0.000059 -0.000045
v 0.000292 -0.000050 0.000053
v 0.000420 -0.000042 0.000106
v 0.000324 0.000034 0.000157
v 0.000370 0.000075 0.000071
v 0.000408 0.000058 0.000007
v 0.000643 0.000080 0.000057
v 0.000474 0.000089 0.000017
v -0.000614 0.000102 -0.000137
v 0.000161 -0.000008 0.000114
v 0.000157 -0.000083 0.000024
v 0.000512 0.000045 0.000147
v 0.000105 0.000053 0.000073
v 0.000224 0.000050 0.000143
v 0.000135 0.000034 -0.000078
v -0.000603 0.000027 -0.000102
v 0.000067 -0.000059 0.000055
v -0.000131 -0.000035 0.000068
v 0.000036 -0.000005 -0.000072
v 0.000050 -0.000078 -0.000035
v 0.000002 -0.000006 0.000087
v 0.000586 -0.000074 0.000103
v -0.000046 -0.000066 -0.000041
v -0.000496 0.000087 -0.000128
v -0.000424 0.000071 -0.000063
v 0.000278 0.000100 0.000080
v 0.000289 -0.000022 0.000158
v -0.000695 -0.000002 -0.000117
v -0.000661 -0.000101 -0.000111
v -0.000696 -0.000138 -0.000126
v -0.000733 -0.000052 -0.000183
v -0.000289 -0.000052 0.000047
v -0.000371 -0.000085 -0.000013
v -0.000454 -0.000045 -0.000012
v 0.000175 0.000089 -0.000029
v -0.000692 0.000111 -0.000162
v 0.000419 -0.000051 0.000047
v 0.000625 -0.000058 -0.000009
v 0.000589 -0.000068 0.000170
v 0.000520 -0.000019 0.000178
v -0.000224 -0.000089 -0.000070
v -0.000300 -0.000112 -0.000068
v -0.000225 0.000080 -0.000022
v -0.000119 0.000061 0.000051
v -0.000575 0.000047 -0.000176
v -0.000524 0.000087 -0.000082
v -0.000474 0.000003 -0.000040
v -0.000650 -0.000168 -0.000094
v -0.000042 0.000054 -0.000040
v 0.000020 0.000048 0.000030
v -0.000536 -0.000056 -0.000095
v -0.000484 -0.000030 -0.000058
v 0.000378 0.000015 0.000017
v -0.000652 -0.000009 -0.000209
v -0.000402 -0.000036 -0.000140
v -0.000470 -0.000004 -0.000123
v -0.000595 -0.000057 -0.000172
v -0.000715 -0.000195 -0.000125
v 0.000588 0.000023 -0.000016
v -0.000274 0.000016 0.000071
v 0.000142 -0.000036 -0.000075
v -0.000624 0.000200 -0.000119
v 0.000531 -0.000048 -0.000019
v -0.000310 0.000057 -0.000108
v 0.000295 0.000078 0.000017
v 0.000307 -0.000038 -0.000002
v 0.000201 -0.000078 -0.000048
v -0.000106 -0.000089 0.000025
v -0.000717 0.000061 -0.000168
v -0.000706 0.000258 -0.000164
v -0.000478 -0.000066 -0.000077
v -0.000754 -0.000039 -0.000138
v 0.000611 0.000041 0.000175
v 0.000605 -0.000030 0.000198
v 0.000610 -0.000064 0.000178
v 0.000656 0.000033 0.000017
v 0.000612 -0.000069 0.000174
v 0.000660 -0.000056 0.000004
v 0.000627 -0.000075 0.000122
v 0.000644 0.000080 0.000058
v 0.000654 -0.000061 0.000023
v 0.000607 0.000008 0.000189
v 0.000659 -0.000009 0.000007
vt 0.145913 0.861568
vt 0.141590 0.861844
vt 0.141941 0.860313
vt 0.813108 0.095308
vt 0.816447 0.095128
vt 0.814696 0.098620
vt 0.959364 0.154910
vt 0.957925 0.155445
vt 0.959686 0.153737
vt 0.658645 0.702326
vt 0.654331 0.700893
vt 0.654052 0.697531
vt 0.807279 0.092152
vt 0.808096 0.091204
vt 0.808075 0.094332
vt 0.915459 0.344170
vt 0.916954 0.343756
vt 0.918354 0.346129
vt 0.740659 0.994926
vt 0.740311 0.992220
vt 0.740954 0.993180
vt 0.888442 0.531218
vt 0.885679 0.532545
vt 0.887693 0.530314
vt 0.424871 0.032546
vt 0.427292 0.031042
vt 0.428289 0.033258
vt 0.945947 0.596205
vt 0.947593 0.597544
vt 0.946232 0.597638
vt 0.732946 0.573977
vt 0.733348 0.574406
vt 0.731017 0.574292
vt 0.334005 0.582987
vt 0.334646 0.582393
vt 0.335355 0.583540
vt 0.145801 0.859815
vt 0.143618 0.859592
vt 0.441880 0.910303
vt 0.442948 0.908210
vt 0.443103 0.909524
vt 0.100713 0.769135
vt 0.098532 0.768895
vt 0.100573 0.767488
vt 0.694847 0.249835
vt 0.697432 0.249232
vt 0.698780 0.250085
vt 0.627204 0.261751
vt 0.626180 0.262173
vt 0.627622 0.260371
vt 0.211298 0.939100
vt 0.210057 0.938720
vt 0.211746 0.937382
vt 0.000778 0.903589
vt 0.003696 0.903628
vt 0.001329 0.905130
vt 0.793605 0.480399
vt 0.793513 0.482579
vt 0.792254 0.481044
vt 0.574156 0.635320
vt 0.573942 0.636608
vt 0.573193 0.635938
vt 0.651724 0.698596
vt 0.603044 0.650023
vt 0.600522 0.649943
vt 0.600564 0.647622
vt 0.196475 0.685927
vt 0.195081 0.687320
vt 0.191098 0.684902
vt 0.445804 0.009379
vt 0.446372 0.006540
vt 0.449199 0.008975
vt 0.817840 0.100735
vt 0.820782 0.103521
vt 0.820435 0.107518
vt 0.406143 0.672343
vt 0.406300 0.670748
vt 0.408496 0.671659
vt 0.620014 0.146837
vt 0.619888 0.148379
vt 0.618549 0.147028
vt 0.352131 0.138792
vt 0.353070 0.140388
vt 0.351518 0.139980
vt 0.987279 0.863947
vt 0.988320 0.864727
vt 0.985842 0.866036
vt 0.409022 0.673873
vt 0.406742 0.673123
vt 0.765044 0.627587
vt 0.765177 0.628292
vt 0.764547 0.627831
vt 0.537032 0.234651
vt 0.538286 0.233839
vt 0.538925 0.235365
vt 0.054096 0.197569
vt 0.053109 0.196508
vt 0.053081 0.195191
vt 0.435467 0.016679
vt 0.440887 0.012822
vt 0.435302 0.018729
vt 0.751944 0.603751
vt 0.750542 0.602306
vt 0.752913 0.602587
vt 0.308397 0.883058
vt 0.309570 0.882951
vt 0.310317 0.884549
vt 0.771610 0.283030
vt 0.772276 0.281874
vt 0.774770 0.282424
vt 0.793926 0.947448
vt 0.796999 0.945945
vt 0.796763 0.946993
vt 0.167966 0.558974
vt 0.167816 0.560412
vt 0.166935 0.559326
vt 0.267170 0.728094
vt 0.263348 0.726434
vt 0.264771 0.726401
vt 0.396747 0.707523
vt 0.393775 0.707711
vt 0.393882 0.705332
vt 0.443990 0.011985
vt 0.746517 0.976135
vt 0.748825 0.977293
vt 0.747733 0.978045
vt 0.244453 0.990646
vt 0.243367 0.992360
vt 0.242180 0.989666
vt 0.430397 0.021686
vt 0.430774 0.024206
vt 0.429584 0.020233
vt 0.815584 0.100161
vt 0.806367 0.093082
vt 0.801737 0.092273
vt 0.801940 0.089827
vt 0.049771 0.901596
vt 0.048536 0.903395
vt 0.047098 0.901738
vt 0.446871 0.004036
vt 0.448512 0.006237
vt 0.590103 0.178955
vt 0.589378 0.177647
vt 0.590118 0.177041
vt 0.426253 0.029956
vt 0.800006 0.087053
vt 0.802590 0.086112
vt 0.321333 0.897312
vt 0.321531 0.899371
vt 0.320337 0.898476
vt 0.179439 0.331647
vt 0.180479 0.331121
vt 0.180388 0.333083
vt 0.231743 0.942960
vt 0.232751 0.941125
vt 0.232894 0.941914
vt 0.335127 0.255746
vt 0.332888 0.256580
vt 0.333796 0.255193
vt 0.589946 0.615363
vt 0.591090 0.615095
vt 0.590981 0.615575
vt 0.220172 0.329736
vt 0.219076 0.330658
vt 0.219405 0.329450
vt 0.327970 0.898124
vt 0.329927 0.895309
vt 0.332249 0.895696
vt 0.194128 0.684110
vt 0.195745 0.684831
vt 0.440710 0.010355
vt 0.156481 0.012961
vt 0.156502 0.013975
vt 0.154130 0.013599
vt 0.233030 0.939039
vt 0.230920 0.939029
vt 0.231365 0.936548
vt 0.404190 0.674387
vt 0.403759 0.676290
vt 0.403024 0.674165
vt 0.424624 0.036284
vt 0.427005 0.036438
vt 0.432571 0.018546
vt 0.230187 0.759008
vt 0.228947 0.759214
vt 0.231196 0.756546
vt 0.119303 0.379520
vt 0.120710 0.379462
vt 0.119435 0.380961
vt 0.086204 0.768756
vt 0.091951 0.771874
vt 0.086743 0.771698
vt 0.067218 0.909865
vt 0.075016 0.909319
vt 0.072006 0.911496
vt 0.437320 0.014058
vt 0.448199 0.980892
vt 0.448453 0.982830
vt 0.445128 0.982758
vt 0.063450 0.028816
vt 0.062218 0.028277
vt 0.063353 0.026819
vt 0.444530 0.003599
vt 0.443066 0.005464
vt 0.443010 0.003808
vt 0.398915 0.711101
vt 0.395021 0.709821
vt 0.597057 0.647147
vt 0.595810 0.647548
vt 0.323347 0.898105
vt 0.412109 0.670864
vt 0.410331 0.672386
vt 0.796890 0.086560
vt 0.099869 0.771895
vt 0.870745 0.442328
vt 0.871676 0.444284
vt 0.870382 0.444381
vt 0.444353 0.004821
vt 0.992918 0.313040
vt 0.991978 0.314689
vt 0.990353 0.311594
vt 0.428916 0.026525
vt 0.425754 0.027900
vt 0.343356 0.932798
vt 0.344573 0.932075
vt 0.345042 0.932855
vt 0.116463 0.811525
vt 0.116237 0.814547
vt 0.114623 0.813464
vt 0.104045 0.664388
vt 0.099952 0.666110
vt 0.101127 0.663820
vt 0.101731 0.666564
vt 0.354498 0.966839
vt 0.351086 0.968302
vt 0.349654 0.966689
vt 0.885452 0.467398
vt 0.886808 0.468504
vt 0.885490 0.468705
vt 0.817796 0.102121
vt 0.314011 0.646678
vt 0.314210 0.647865
vt 0.312702 0.647775
vt 0.315952 0.647432
vt 0.315427 0.646034
vt 0.300935 0.926147
vt 0.304351 0.926331
vt 0.303770 0.927832
vt 0.118845 0.812885
vt 0.306512 0.926338
vt 0.309726 0.925074
vt 0.091923 0.453861
vt 0.092571 0.454119
vt 0.090885 0.455047
vt 0.718785 0.262250
vt 0.716804 0.263059
vt 0.718098 0.261737
vt 0.240465 0.992549
vt 0.242504 0.993860
vt 0.431021 0.020260
vt 0.485778 0.306996
vt 0.486362 0.308312
vt 0.485463 0.308070
vt 0.426674 0.024400
vt 0.970652 0.477289
vt 0.969849 0.475675
vt 0.972594 0.477273
vt 0.968402 0.477241
vt 0.774219 0.734724
vt 0.778321 0.733392
vt 0.775264 0.734752
vt 0.813299 0.584926
vt 0.812499 0.585514
vt 0.811170 0.583776
vt 0.748789 0.978376
vt 0.654556 0.696118
vt 0.653930 0.695557
vt 0.652611 0.695877
vt 0.651349 0.696832
vt 0.447599 0.241752
vt 0.450307 0.241623
vt 0.448966 0.242475
vt 0.928322 0.922242
vt 0.927007 0.924990
vt 0.926636 0.922862
vt 0.070938 0.670208
vt 0.070816 0.668861
vt 0.073092 0.671380
vt 0.712516 0.035997
vt 0.711631 0.036862
vt 0.711424 0.035633
vt 0.308855 0.158533
vt 0.310618 0.160595
vt 0.309559 0.160885
vt 0.521058 0.670036
vt 0.519938 0.669706
vt 0.520981 0.669098
vt 0.661275 0.624703
vt 0.660497 0.624342
vt 0.661463 0.623655
vt 0.853243 0.061451
vt 0.854687 0.061639
vt 0.854108 0.062255
vt 0.821351 0.109936
vt 0.822555 0.109103
vt 0.822581 0.109764
vt 0.344505 0.930217
vt 0.442692 0.008918
vt 0.356980 0.523587
vt 0.355339 0.523576
vt 0.356678 0.522847
vt 0.978282 0.647838
vt 0.979550 0.645574
vt 0.980679 0.644970
vt 0.746043 0.639501
vt 0.747375 0.636892
vt 0.748049 0.639525
vt 0.665245 0.391069
vt 0.665262 0.392026
vt 0.663854 0.391323
vt 0.850862 0.986650
vt 0.850570 0.987812
vt 0.848999 0.986090
vt 0.671320 0.403789
vt 0.671729 0.403298
vt 0.672021 0.404297
vt 0.916781 0.347800
vt 0.915796 0.346227
vt 0.112228 0.121406
vt 0.112815 0.121335
vt 0.113524 0.122431
vt 0.300711 0.087851
vt 0.303181 0.086471
vt 0.302485 0.087397
vt 0.030052 0.538309
vt 0.031327 0.538298
vt 0.029400 0.539397
vt 0.602464 0.652347
vt 0.771592 0.693701
vt 0.771410 0.692156
vt 0.773447 0.693089
vt 0.302848 0.949963
vt 0.302896 0.950500
vt 0.301496 0.950847
vt 0.301165 0.950284
vt 0.422710 0.037837
vt 0.423987 0.038225
vt 0.422834 0.038648
vt 0.628643 0.133317
vt 0.629017 0.133487
vt 0.628636 0.133564
vt 0.735320 0.722404
vt 0.732963 0.722141
vt 0.733717 0.721974
vt 0.735527 0.722286
vt 0.424976 0.041438
vt 0.427089 0.038905
vt 0.427080 0.038932
vt 0.425169 0.042217
vt 0.822834 0.109724
vt 0.822774 0.109868
vt 0.986015 0.446771
vt 0.986430 0.447182
vt 0.984450 0.447057
vt 0.981788 0.446435
vt 0.211652 0.145868
vt 0.211044 0.146572
vt 0.547553 0.285708
vt 0.210431 0.146111
vn -0.0264 0.9442 0.3283
vn -0.0387 0.9444 0.3264
vn 0.0258 0.9305 0.3654
vn 0.0504 -0.7653 0.6417
vn 0.0011 -0.7621 0.6475
vn -0.0032 -0.7818 0.6235
vn -0.2523 -0.9589 0.1298
vn -0.2566 -0.9571 0.1349
vn -0.2620 -0.9554 0.1362
vn -0.3210 0.0775 0.9439
vn -0.2974 0.0632 0.9527
vn -0.2813 0.1043 0.9539
vn 0.0237 -0.6165 0.7870
vn 0.0186 -0.6024 0.7980
vn -0.1096 -0.6378 0.7624
vn -0.0025 -0.5696 -0.8219
vn 0.0533 -0.5215 -0.8516
vn 0.0533 -0.5388 -0.8407
vn 0.0880 0.9925 0.0850
vn 0.2012 0.9753 0.0916
vn 0.2090 0.9779 -0.0021
vn 0.1648 -0.9602 0.2256
vn 0.1890 -0.9479 0.2565
vn 0.1741 -0.9522 0.2510
vn 0.0066 0.2868 -0.9580
vn 0.0308 0.2622 -0.9645
vn 0.0192 0.2576 -0.9660
vn -0.3351 0.7335 0.5913
vn -0.2207 0.7970 0.5622
vn -0.3607 0.7288 0.5820
vn -0.0139 -0.9846 0.1744
vn -0.0085 -0.9931 0.1167
vn 0.0357 -0.9881 0.1497
vn -0.1905 -0.9774 0.0919
vn -0.1572 -0.9810 0.1134
vn -0.2327 -0.9659 0.1136
vn 0.0372 0.9492 0.3125
vn 0.0265 0.9515 0.3066
vn 0.0292 0.9482 0.3163
vn -0.0577 0.9094 0.4118
vn -0.0296 0.9074 0.4193
vn 0.0240 0.9130 0.4073
vn -0.2930 0.3682 0.8824
vn -0.3277 0.2783 0.9029
vn -0.2563 0.3779 0.8897
vn 0.0674 -0.9886 -0.1343
vn 0.0191 -0.9923 -0.1221
vn -0.0182 -0.9892 -0.1457
vn 0.2248 0.9386 -0.2619
vn 0.1432 0.9397 -0.3107
vn 0.1931 0.9700 -0.1479
vn 0.1900 0.9492 -0.2507
vn 0.0932 0.9834 -0.1557
vn 0.2539 0.9628 -0.0923
vn -0.0302 -0.6265 0.7788
vn -0.0800 -0.6129 0.7861
vn -0.0383 -0.6312 0.7747
vn -0.0539 -0.9666 0.2504
vn -0.0399 -0.9751 0.2181
vn -0.0417 -0.9649 0.2592
vn 0.0433 0.7721 0.6340
vn -0.0156 0.7925 0.6097
vn 0.0347 0.7647 0.6435
vn -0.1565 -0.0008 0.9877
vn -0.1533 0.0493 0.9870
vn -0.1644 0.0054 0.9864
vn -0.0861 -0.5457 0.8336
vn -0.0404 -0.6071 0.7936
vn -0.0352 -0.5533 0.8322
vn -0.1595 0.8270 0.5392
vn -0.1691 0.8349 0.5238
vn -0.1888 0.8255 0.5319
vn 0.3040 0.4195 -0.8553
vn 0.3254 0.4452 -0.8342
vn 0.3148 0.4067 -0.8576
vn -0.0143 -0.9468 0.3214
vn -0.0158 -0.9413 0.3372
vn -0.1043 -0.9467 0.3047
vn -0.1007 0.3540 -0.9298
vn -0.0615 0.4298 -0.9008
vn -0.0356 0.3977 -0.9168
vn -0.4632 -0.3002 0.8338
vn -0.4701 -0.3071 0.8275
vn -0.4551 -0.3049 0.8366
vn -0.3864 0.2198 0.8957
vn -0.3986 0.2296 0.8879
vn -0.3988 0.2115 0.8923
vn -0.0999 -0.9155 -0.3896
vn -0.0435 -0.9109 -0.4104
vn -0.0685 -0.9268 -0.3691
vn 0.1222 0.9925 -0.0076
vn 0.0290 0.9981 -0.0539
vn 0.0904 0.9959 0.0026
vn 0.3902 0.2411 -0.8886
vn 0.3953 0.2471 -0.8847
vn 0.4021 0.2413 -0.8832
vn 0.3336 -0.2172 -0.9174
vn 0.3028 -0.2184 -0.9277
vn 0.2908 -0.2034 -0.9349
vn 0.2635 0.0649 -0.9625
vn 0.2999 0.0737 -0.9511
vn 0.2900 0.0306 -0.9565
vn 0.2335 0.2468 -0.9405
vn 0.2905 0.2107 -0.9334
vn 0.1874 0.2180 -0.9578
vn 0.6206 -0.6295 -0.4676
vn 0.6185 -0.6389 -0.4574
vn 0.6058 -0.6433 -0.4682
vn 0.2264 -0.9714 0.0714
vn 0.2213 -0.9713 0.0873
vn 0.2170 -0.9737 0.0695
vn -0.1648 -0.4823 -0.8604
vn -0.2059 -0.4723 -0.8570
vn -0.1630 -0.4619 -0.8718
vn -0.4571 0.2691 0.8478
vn -0.4461 0.3377 0.8288
vn -0.5074 0.2750 0.8166
vn -0.4034 0.5760 0.7110
vn -0.4542 0.5631 0.6904
vn -0.4262 0.5576 0.7123
vn -0.5557 -0.1791 0.8119
vn -0.5242 -0.2170 0.8235
vn -0.5355 -0.1514 0.8309
vn 0.1948 0.6715 0.7149
vn 0.1665 0.6989 0.6955
vn 0.1646 0.6862 0.7085
vn 0.5635 0.6845 -0.4625
vn 0.5500 0.7482 -0.3711
vn 0.5955 0.6605 -0.4574
vn 0.0733 0.9801 0.1845
vn -0.0578 0.9954 0.0770
vn -0.0595 0.9897 0.1301
vn -0.0609 -0.4396 -0.8961
vn 0.0393 -0.4407 -0.8968
vn 0.0055 -0.4886 -0.8725
vn 0.7581 0.0137 -0.6519
vn 0.7337 0.0384 -0.6784
vn 0.7405 0.0756 -0.6678
vn -0.2634 -0.1020 0.9593
vn -0.3428 -0.0985 0.9342
vn -0.3302 -0.1120 0.9373
vn -0.1180 -0.3061 0.9447
vn -0.0752 -0.3239 0.9431
vn -0.0745 -0.3100 0.9478
vn -0.3450 -0.0840 0.9349
vn -0.3322 -0.2139 0.9186
vn -0.2490 -0.1935 0.9490
vn 0.1031 0.3868 -0.9164
vn 0.1360 0.4111 -0.9014
vn 0.1232 0.3520 -0.9278
vn -0.0929 -0.9778 -0.1878
vn -0.0658 -0.9818 -0.1783
vn -0.1087 -0.9835 -0.1446
vn -0.2457 -0.0560 -0.9677
vn -0.2580 -0.0394 -0.9653
vn -0.2368 -0.0362 -0.9709
vn -0.0651 -0.8084 0.5850
vn -0.0965 -0.8115 0.5763
vn -0.0873 -0.8142 0.5740
vn -0.0381 -0.9333 0.3572
vn -0.0640 -0.9216 0.3827
vn -0.0680 -0.9271 0.3686
vn -0.1744 -0.9723 0.1555
vn -0.1913 -0.9703 0.1480
vn -0.1736 -0.9746 0.1414
vn -0.3553 -0.6251 0.6950
vn -0.3435 -0.6240 0.7018
vn -0.3658 -0.6222 0.6921
vn -0.1974 0.2401 0.9505
vn -0.1900 0.2455 0.9506
vn -0.2029 0.2444 0.9482
vn -0.3198 0.2766 -0.9062
vn -0.2013 0.3180 -0.9265
vn -0.3261 0.2135 -0.9209
vn -0.3054 0.0180 0.9521
vn -0.2047 0.1249 0.9708
vn -0.4129 0.0377 0.9100
vn -0.3429 0.4114 0.8445
vn -0.4264 0.4918 0.7592
vn -0.5062 0.4019 0.7630
vn -0.0734 0.9561 -0.2838
vn 0.0115 0.9684 -0.2490
vn 0.1078 0.9493 -0.2952
vn -0.0576 0.8809 0.4698
vn -0.0289 0.8965 0.4421
vn -0.1445 0.8985 0.4145
vn 0.1783 0.1822 -0.9670
vn 0.0783 0.1755 -0.9814
vn 0.1348 0.2144 -0.9674
vn -0.2900 -0.1288 -0.9483
vn -0.2713 -0.1709 -0.9472
vn -0.3035 -0.1219 -0.9450
vn -0.0104 0.4607 0.8875
vn -0.0411 0.3956 0.9175
vn 0.0356 0.4265 0.9038
vn -0.1242 0.1012 0.9871
vn -0.1937 0.0828 0.9776
vn -0.1202 0.0856 0.9891
vn -0.1874 0.1840 -0.9649
vn -0.1667 0.2098 -0.9634
vn -0.1111 0.1259 -0.9858
vn -0.0546 0.4581 -0.8872
vn 0.0255 0.4709 -0.8818
vn -0.0688 0.4012 -0.9134
vn 0.1454 0.6811 -0.7176
vn 0.1968 0.6975 -0.6891
vn 0.2620 0.6661 -0.6983
vn -0.1210 0.3831 0.9158
vn -0.0969 0.3821 0.9190
vn -0.0819 0.4678 0.8800
vn 0.6398 0.4727 -0.6060
vn 0.8393 0.0818 -0.5374
vn 0.6466 0.4422 -0.6216
vn -0.0328 -0.4127 -0.9103
vn -0.1490 0.0053 -0.9888
vn -0.1100 0.0091 -0.9939
vn 0.1768 -0.0841 -0.9806
vn 0.2318 -0.1203 -0.9653
vn 0.1473 -0.0858 -0.9854
vn 0.1819 -0.9709 -0.1561
vn 0.1957 -0.9652 -0.1734
vn 0.2181 -0.9639 -0.1529
vn -0.0867 -0.9786 -0.1869
vn -0.0656 -0.9850 -0.1595
vn -0.2650 -0.9613 -0.0749
vn -0.5093 0.1093 -0.8536
vn -0.5129 0.1499 -0.8453
vn -0.4438 0.2325 -0.8654
vn 0.0979 0.1636 0.9817
vn 0.0605 0.1911 0.9797
vn 0.0599 0.1328 0.9893
vn -0.1624 0.2202 0.9619
vn -0.2281 0.2098 0.9508
vn -0.1684 0.1586 0.9729
vn 0.1440 0.9348 -0.3247
vn 0.0865 0.9271 -0.3647
vn 0.0486 0.9352 -0.3508
vn 0.1695 0.9844 0.0462
vn 0.1429 0.9892 0.0316
vn 0.0974 0.9933 0.0626
vn -0.2514 -0.6328 0.7324
vn -0.3421 -0.5741 0.7439
vn -0.3025 -0.6200 0.7239
vn -0.4551 0.3208 0.8307
vn -0.3708 0.2535 0.8934
vn -0.4505 0.3527 0.8202
vn 0.5195 -0.6553 -0.5483
vn 0.4840 -0.6523 -0.5834
vn 0.6095 -0.6024 -0.5154
vn 0.4608 -0.1131 -0.8803
vn 0.4867 -0.1327 -0.8634
vn 0.4461 -0.1682 -0.8790
vn -0.5313 -0.0603 0.8451
vn -0.4307 -0.0893 0.8981
vn -0.4616 0.0324 0.8865
vn -0.1570 -0.1670 -0.9734
vn -0.1256 -0.0925 -0.9878
vn 0.0097 -0.1672 -0.9859
vn 0.0763 0.1692 -0.9826
vn 0.1680 0.2272 -0.9592
vn 0.1454 0.1622 -0.9760
vn -0.2476 -0.4596 0.8529
vn -0.4176 -0.3920 0.8197
vn -0.3715 -0.5628 0.7384
vn -0.4627 -0.5222 -0.7164
vn -0.3722 -0.4294 -0.8228
vn -0.3803 -0.6335 -0.6738
vn -0.2517 0.9523 0.1723
vn -0.3038 0.9436 0.1314
vn -0.2722 0.9457 0.1780
vn -0.2559 0.9514 0.1714
vn -0.2457 0.9575 0.1510
vn -0.3064 0.9423 0.1347
vn -0.2335 0.8554 0.4624
vn -0.2510 0.8637 0.4370
vn -0.2935 0.8381 0.4598
vn -0.2811 0.8195 -0.4994
vn -0.4364 0.8184 -0.3739
vn -0.3645 0.8563 -0.3658
vn 0.0184 0.0887 0.9959
vn -0.1012 0.0639 0.9928
vn -0.0857 0.0622 0.9944
vn -0.7878 -0.0019 0.6160
vn -0.8610 -0.0291 0.5077
vn -0.8469 -0.1302 0.5155
vn -0.3992 -0.8241 0.4020
vn -0.3627 -0.8454 0.3921
vn -0.3325 -0.8286 0.4503
vn -0.8428 -0.3753 0.3858
vn -0.7712 -0.4517 0.4485
vn -0.8071 -0.3355 0.4858
vn 0.1510 -0.5706 -0.8073
vn 0.1433 -0.5713 -0.8081
vn 0.2168 -0.5109 -0.8318
vn -0.1778 -0.7927 -0.5831
vn -0.1628 -0.8071 -0.5675
vn -0.2498 -0.7453 -0.6182
vn 0.2624 -0.7129 -0.6503
vn 0.2075 -0.7279 -0.6535
vn 0.1306 -0.7363 -0.6640
vn 0.1848 -0.1936 -0.9635
vn 0.1842 -0.2109 -0.9600
vn 0.1130 -0.1928 -0.9747
vn 0.1770 -0.2128 -0.9609
vn 0.1276 -0.1604 -0.9788
vn 0.1916 -0.2069 -0.9594
vn -0.0261 -0.3613 -0.9321
vn -0.1225 -0.3539 -0.9272
vn -0.0762 -0.2880 -0.9546
vn -0.0701 -0.0643 -0.9955
vn -0.0619 -0.0090 -0.9980
vn -0.0350 -0.0441 -0.9984
vn -0.3057 -0.7293 0.6121
vn -0.2720 -0.7764 0.5685
vn -0.2622 -0.7008 0.6634
vn -0.4658 0.1844 0.8655
vn -0.5380 0.1137 0.8352
vn -0.4997 0.1151 0.8585
vn 0.3995 0.2181 -0.8904
vn 0.3774 0.2363 -0.8954
vn 0.4065 0.2248 -0.8856
vn -0.3577 -0.5524 -0.7529
vn -0.3901 -0.5822 -0.7134
vn -0.4171 -0.5716 -0.7066
vn 0.3668 -0.3579 -0.8587
vn 0.3369 -0.1350 -0.9318
vn 0.4680 -0.1268 -0.8746
vn 0.0661 -0.9878 -0.1413
vn -0.0830 -0.9703 -0.2273
vn -0.0114 -0.9729 -0.2310
vn 0.1913 0.9423 -0.2748
vn 0.1014 0.9798 -0.1725
vn 0.2500 0.9364 -0.2464
vn 0.3706 0.1856 -0.9101
vn 0.2451 0.1350 -0.9601
vn 0.3423 0.2117 -0.9154
vn -0.0538 0.9972 0.0511
vn -0.1010 0.9908 0.0905
vn -0.0986 0.9892 0.1081
vn -0.5384 0.1518 0.8289
vn -0.5114 0.0304 0.8588
vn -0.4370 0.1224 0.8911
vn -0.5619 0.3598 0.7448
vn -0.6675 0.1964 0.7183
vn -0.5705 0.2038 0.7956
vn -0.5351 -0.8433 0.0498
vn -0.6155 -0.7857 -0.0609
vn -0.5134 -0.8560 -0.0606
vn -0.3170 -0.0341 0.9478
vn -0.3126 -0.0506 0.9485
vn -0.2486 -0.0728 0.9659
vn 0.4032 -0.0327 -0.9145
vn 0.3816 -0.0336 -0.9237
vn 0.4126 -0.0051 -0.9109
vn 0.3819 -0.9201 -0.0865
vn 0.4039 -0.9124 -0.0660
vn 0.2951 -0.9540 0.0533
vn -0.1755 0.4279 0.8866
vn -0.0095 0.4643 0.8856
vn -0.2082 0.4690 0.8583
vn -0.0784 0.6910 -0.7186
vn -0.1154 0.6778 -0.7261
vn -0.1199 0.7082 -0.6958
vn -0.3097 -0.2410 0.9198
vn -0.3440 -0.2409 0.9075
vn -0.3491 -0.2671 0.8982
vn -0.2195 0.4273 -0.8771
vn -0.2392 0.4507 -0.8600
vn -0.2122 0.4597 -0.8624
vn -0.0227 -0.7580 0.6519
vn 0.0743 -0.7786 0.6231
vn 0.0364 -0.7590 0.6501
vn -0.4544 0.0073 0.8908
vn 0.0409 0.3367 0.9407
vn -0.7234 0.2623 0.6387
vn 0.2087 0.7735 0.5985
vn 0.2840 0.7978 0.5318
vn 0.2699 0.8479 0.4564
vn -0.2624 -0.5983 0.7571
vn -0.2179 -0.5181 0.8271
vn -0.2128 -0.4676 0.8579
vn -0.2886 -0.4503 0.8449
vn 0.0707 -0.5332 -0.8430
vn 0.2563 -0.5971 -0.7601
vn 0.1277 -0.6594 -0.7409
vn 0.3387 -0.1121 -0.9342
vn 0.4170 -0.0933 -0.9041
vn 0.4163 -0.1137 -0.9021
vn 0.4949 -0.7734 -0.3960
vn 0.4939 -0.7970 -0.3478
vn 0.4225 -0.8352 -0.3519
vn 0.4967 0.1008 -0.8620
vn 0.4827 0.0921 -0.8709
vn 0.4320 0.1405 -0.8909
vn -0.0119 0.0327 0.9994
vn -0.1236 0.1832 0.9753
vn -0.3221 0.2528 0.9123
vn -0.0835 -0.6441 -0.7603
vn -0.0757 -0.6152 -0.7847
vn 0.0082 -0.5840 -0.8117
vn -0.0108 -0.9973 -0.0726
vn -0.0070 -0.9967 -0.0814
vn 0.0802 -0.9939 -0.0757
vn -0.5445 0.4376 0.7156
vn -0.5306 0.3726 0.7613
vn -0.4630 0.5047 0.7286
vn -0.8741 0.1780 -0.4520
vn -0.8740 0.1908 -0.4469
vn -0.8124 0.2110 -0.5435
vn -0.3777 0.1931 -0.9056
vn -0.3712 0.1406 -0.9178
vn -0.4923 0.1551 -0.8565
vn 0.0609 -0.5598 -0.8264
vn 0.0813 -0.6586 -0.7481
vn -0.0163 -0.5592 -0.8289
vn -0.1640 0.3960 0.9035
vn -0.2734 0.1372 0.9521
vn -0.1507 0.0680 0.9862
vn 0.2173 -0.9402 0.2625
vn 0.2452 -0.9529 0.1786
vn 0.4407 -0.8700 0.2210
vn -0.1906 -0.6565 0.7299
vn -0.0375 -0.6383 0.7689
vn -0.1354 -0.6314 0.7635
vn 0.1915 -0.0442 -0.9805
vn 0.0997 -0.0532 -0.9936
vn 0.0784 -0.0069 -0.9969
vn 0.0428 -0.9918 -0.1208
vn 0.0325 -0.9922 -0.1201
vn 0.0297 -0.9908 -0.1321
vn 0.0542 -0.9904 -0.1272
vn 0.3304 0.1020 -0.9383
vn 0.3444 0.0604 -0.9369
vn 0.3248 0.0651 -0.9435
vn 0.3188 0.0847 -0.9440
vn 0.1565 -0.9632 -0.2185
vn 0.1337 -0.9665 -0.2191
vn 0.1456 -0.9616 -0.2327
vn -0.0259 -0.9960 0.0850
vn -0.0666 -0.9929 0.0988
vn -0.0686 -0.9968 0.0403
vn 0.2563 0.6610 -0.7052
vn 0.2686 0.6506 -0.7103
vn 0.2518 0.6517 -0.7155
vn 0.2320 0.6614 -0.7132
vn -0.1216 -0.7131 0.6904
vn -0.2026 -0.7030 0.6817
vn -0.2127 -0.7374 0.6411
vn -0.2351 0.3962 0.8875
vn -0.2409 0.3882 0.8895
vn -0.2540 0.3544 0.8999
vn -0.1882 0.3747 0.9079
vn -0.0345 0.9529 0.3013
vn -0.0534 0.9519 0.3017
vn -0.0549 0.9527 0.2989
vn -0.0444 0.9483 0.3144
vn 0.9619 0.0067 0.2732
vn 0.9601 0.0098 0.2793
vn 0.9567 0.0214 0.2902
vn 0.9618 0.0029 0.2737
vn 0.9557 0.0169 0.2938
vn 0.9571 -0.0101 0.2894
vn 0.9722 -0.0039 0.2340
vn 0.9627 0.0089 0.2703
vn 0.9714 0.1053 0.2130
vn 0.9774 -0.0063 0.2114
vn 0.9547 0.0620 0.2912
usemtl sungaya_inexpectata_31mg
s off
f 14/1/1 9/2/2 10/3/3
f 19/4/4 13/5/5 12/6/6
f 35/7/7 73/8/8 44/9/9
f 54/10/10 18/11/11 31/12/12
f 20/13/13 70/14/14 23/15/15
f 59/16/16 32/17/17 33/18/18
f 66/19/19 26/20/20 27/21/21
f 29/22/22 13/23/23 4/24/24
f 65/25/25 8/26/26 10/27/27
f 52/28/28 23/29/29 15/30/30
f 39/31/31 5/32/32 4/33/33
f 41/34/34 5/35/35 24/36/36
f 7/37/37 14/1/38 10/38/39
f 14/39/40 7/40/41 6/41/42
f 18/42/43 11/43/44 30/44/45
f 70/45/46 22/46/47 13/47/48
f 28/48/49 7/49/50 67/50/51
f 7/51/52 8/52/53 67/53/54
f 34/54/55 70/55/56 20/56/57
f 5/57/58 29/58/59 4/59/60
f 16/60/61 6/61/62 28/62/63
f 30/63/64 31/12/65 18/11/66
f 19/64/67 23/65/68 70/66/69
f 27/67/70 62/68/71 46/69/72
f 26/70/73 47/71/74 64/72/75
f 29/73/76 5/74/77 42/75/78
f 3/76/79 21/77/80 51/78/81
f 54/79/82 49/80/83 18/81/84
f 18/82/85 49/83/86 48/84/87
f 22/85/88 70/86/89 25/87/90
f 46/88/91 52/89/92 51/78/93
f 78/90/94 85/91/95 61/92/96
f 57/93/97 1/94/98 43/95/99
f 1/96/100 57/97/101 66/98/102
f 2/99/103 66/100/104 51/101/105
f 50/102/106 59/103/107 53/104/108
f 13/105/109 69/106/110 4/107/111
f 21/108/112 63/109/113 22/110/114
f 49/111/115 36/112/116 62/113/117
f 49/114/118 62/115/119 27/116/120
f 48/117/121 64/118/122 11/119/123
f 46/120/124 23/121/125 52/122/126
f 27/123/127 26/70/128 64/72/129
f 51/124/130 52/125/131 3/126/132
f 22/127/133 25/128/134 21/129/135
f 17/130/136 37/131/137 63/132/138
f 12/6/139 29/73/140 16/133/141
f 20/134/142 62/135/143 34/136/144
f 11/137/145 64/138/146 38/139/147
f 47/71/148 56/140/149 38/141/150
f 24/142/151 39/143/152 65/144/153
f 8/26/154 65/25/155 55/145/156
f 35/146/157 70/14/158 34/136/159
f 35/146/160 44/147/161 70/14/162
f 39/148/163 24/149/164 5/150/165
f 42/151/166 5/152/167 41/153/168
f 84/154/169 42/155/170 76/156/171
f 56/157/172 71/158/173 38/159/174
f 38/160/175 71/161/176 11/162/177
f 71/163/178 30/164/179 11/165/180
f 45/166/181 66/167/182 27/168/183
f 45/169/184 27/170/185 46/69/186
f 26/70/187 66/100/188 57/171/189
f 58/172/190 26/173/191 57/174/192
f 42/175/193 14/176/194 6/177/195
f 29/178/196 6/179/197 16/180/198
f 61/181/199 65/25/200 10/182/201
f 21/183/202 2/99/203 51/101/204
f 9/184/205 61/185/206 10/186/207
f 27/187/208 48/188/209 49/189/210
f 47/190/211 72/191/212 64/192/213
f 72/193/214 47/194/215 38/195/216
f 1/196/217 66/100/218 2/99/219
f 25/197/220 70/198/221 44/199/222
f 24/200/223 65/201/224 40/202/225
f 32/203/226 59/204/227 60/205/228
f 62/206/229 20/207/230 46/120/231
f 20/208/232 23/65/233 46/209/234
f 66/167/235 45/166/236 51/210/237
f 45/211/238 46/212/239 51/78/240
f 36/213/241 35/146/242 34/136/243
f 48/214/244 11/43/245 18/42/246
f 59/215/247 50/216/248 60/217/249
f 59/218/250 56/140/251 47/71/252
f 64/219/253 72/220/254 38/221/255
f 8/26/256 55/145/257 67/222/258
f 55/145/259 68/223/260 67/222/261
f 53/224/262 73/225/263 54/226/264
f 57/227/265 73/228/266 58/229/267
f 3/230/268 28/231/269 37/232/270
f 3/230/271 15/233/272 28/231/273
f 15/234/274 16/235/275 28/236/276
f 7/237/277 10/238/278 8/239/279
f 29/73/280 42/75/281 6/240/282
f 54/241/283 36/242/284 49/243/285
f 35/244/286 36/242/287 73/245/288
f 36/242/289 54/241/290 73/245/291
f 57/246/292 43/247/293 44/248/294
f 73/228/295 57/227/296 44/249/297
f 44/248/298 43/250/299 25/251/300
f 43/252/301 1/253/302 25/254/303
f 2/255/304 25/256/305 1/257/306
f 2/258/307 21/129/308 25/259/309
f 17/260/310 63/132/311 21/183/312
f 29/73/313 12/6/314 13/5/315
f 12/261/316 16/262/317 15/263/318
f 37/131/319 68/264/320 63/132/321
f 39/265/322 55/266/323 65/267/324
f 55/266/325 39/265/326 68/268/327
f 68/269/328 39/270/329 4/271/330
f 28/272/331 67/273/332 37/274/333
f 37/131/334 67/222/335 68/264/336
f 52/125/337 15/275/338 3/126/339
f 50/276/340 31/12/341 32/277/342
f 32/277/343 31/12/344 33/278/345
f 33/278/346 31/12/347 74/279/348
f 31/12/349 30/63/350 74/279/351
f 63/280/352 68/281/353 69/282/354
f 4/283/355 69/284/356 68/285/357
f 15/286/358 23/287/359 12/288/360
f 3/289/361 37/290/362 17/291/363
f 36/292/364 34/293/365 62/294/366
f 3/295/367 17/296/368 21/297/369
f 13/5/370 19/4/371 70/14/372
f 32/298/373 60/299/374 50/300/375
f 7/301/376 28/302/377 6/303/378
f 76/304/379 42/75/380 41/305/381 77/306/382
f 73/225/383 53/224/384 58/307/385
f 58/308/386 59/218/387 47/71/388
f 53/309/389 59/310/390 58/311/391
f 47/71/392 26/70/393 58/308/394
f 64/312/395 48/313/396 27/314/397
f 63/315/398 69/316/399 22/317/400
f 69/318/401 13/319/402 22/320/403
f 30/321/404 71/322/405 74/323/406
f 71/324/407 33/325/408 74/326/409
f 33/18/410 71/327/411 56/328/412
f 33/329/413 56/330/414 59/331/415
f 50/332/416 53/333/417 31/334/418
f 53/335/419 54/336/420 31/337/421
f 12/338/422 23/65/423 19/64/424
f 65/339/425 61/340/426 40/341/427
f 40/342/428 83/343/429 81/344/430 24/345/431
f 40/346/432 61/181/433 85/347/434 80/348/435
f 40/349/436 80/350/437 83/351/438
f 41/352/439 24/353/440 81/354/440 79/355/441
f 61/356/442 9/357/443 82/358/444 78/359/445
f 41/305/446 79/360/447 77/361/448
f 42/362/449 84/363/450 75/364/451 14/365/452
f 14/366/453 75/367/454 82/368/455 9/369/456
f 81/354/457 83/351/458 80/348/459 85/91/460 78/359/461 82/368/462 75/364/463 84/154/464 76/304/465 77/361/466 79/355/467
