# Blender v2.79 (sub 0) OBJ File: 'redo_fixed_360_joints.blend'
# www.blender.org
mtllib sungaya_inexpectata_31mg.mtl
o 23-m-l-tibia_Sungaya_inexpectata_31mg.007
v -0.000018 0.000006 -0.000138
v -0.000021 -0.000050 -0.000218
v -0.000537 0.000023 -0.000302
v -0.000268 -0.000064 -0.000330
v -0.000306 -0.000001 -0.000264
v 0.000721 -0.000076 0.000143
v -0.000892 0.000035 -0.000446
v 0.000958 0.000096 0.000506
v -0.000610 -0.000114 -0.000382
v -0.000372 -0.000127 -0.000330
v 0.001555 -0.000153 0.000494
v 0.001556 -0.000132 0.000541
v 0.000623 0.000066 0.000155
v 0.000432 0.000042 0.000119
v -0.001459 -0.000085 -0.000481
v -0.001693 0.000004 -0.000336
v 0.001513 0.000028 0.000671
v -0.000189 -0.000041 -0.000119
v 0.000045 -0.000033 -0.000020
v 0.000142 -0.000081 0.000011
v 0.000215 -0.000050 0.000064
v 0.001345 0.000156 0.000506
v 0.000055 -0.000132 -0.000152
v -0.001215 -0.000045 -0.000294
v -0.000987 -0.000009 -0.000289
v -0.001422 0.000010 -0.000301
v -0.000364 -0.000095 -0.000161
v -0.000417 0.000004 -0.000208
v 0.000338 0.000027 -0.000047
v 0.000297 -0.000011 -0.000114
v -0.001228 0.000084 -0.000515
v 0.000910 0.000039 0.000213
v -0.000622 -0.000032 -0.000230
v -0.000247 -0.000098 -0.000336
v -0.000748 -0.000062 -0.000471
v -0.000900 -0.000045 -0.000480
v -0.000526 -0.000057 -0.000195
v -0.000900 0.000013 -0.000282
v 0.000612 -0.000100 0.000089
v 0.000745 0.000056 0.000197
v 0.000950 -0.000046 0.000275
v 0.001021 0.000004 0.000236
v -0.001840 0.000102 -0.000378
v 0.001440 0.000168 0.000584
v 0.001185 0.000101 0.000398
v -0.000824 -0.000041 -0.000261
v -0.000520 -0.000018 -0.000393
v -0.001033 -0.000103 -0.000400
v 0.001490 -0.000092 0.000624
v 0.001083 -0.000008 0.000591
v 0.001429 0.000146 0.000646
v 0.000462 -0.000120 0.000016
v 0.000307 -0.000128 -0.000039
v -0.001457 -0.000053 -0.000294
v -0.001463 -0.000092 -0.000397
v -0.001344 -0.000062 -0.000496
v -0.000778 -0.000120 -0.000364
v -0.000847 -0.000107 -0.000330
v 0.000608 0.000039 0.000249
v 0.001554 0.000119 0.000685
v 0.001218 0.000153 0.000512
v 0.001067 -0.000074 0.000501
v 0.001407 0.000089 0.000389
v -0.001214 -0.000087 -0.000400
v 0.001120 0.000010 0.000626
v 0.001015 -0.000046 0.000352
v 0.000483 0.000047 0.000039
v 0.001522 0.000057 0.000402
v 0.001519 0.000150 0.000411
v -0.001684 0.000141 -0.000430
v 0.000467 0.000040 0.000170
v -0.001342 0.000104 -0.000534
v 0.001476 -0.000061 0.000448
v 0.000288 0.000036 0.000059
v -0.000987 -0.000085 -0.000289
v -0.001144 -0.000083 -0.000330
v -0.001162 0.000016 -0.000301
v 0.001069 0.000129 0.000432
v 0.001009 0.000151 0.000504
v -0.001600 0.000025 -0.000320
v 0.000846 -0.000043 0.000405
v 0.000115 0.000022 -0.000114
v -0.001537 -0.000085 -0.000346
v 0.000753 -0.000051 0.000348
v 0.000933 0.000083 0.000300
v 0.001185 -0.000013 0.000340
v 0.001086 0.000002 0.000266
v 0.000214 -0.000084 -0.000187
v 0.000156 -0.000030 -0.000175
v 0.001505 0.000189 0.000612
v -0.001295 -0.000078 -0.000308
v 0.000103 -0.000096 -0.000028
v -0.001075 0.000022 -0.000520
v -0.000608 0.000006 -0.000242
v 0.000034 0.000011 -0.000053
v -0.001311 -0.000100 -0.000450
v -0.001364 0.000014 -0.000528
v 0.001605 0.000188 0.000417
v -0.001007 0.000066 -0.000436
v -0.000210 -0.000131 -0.000276
v -0.001595 0.000165 -0.000514
v 0.001164 0.000149 0.000577
v 0.001189 0.000089 0.000628
v 0.001302 0.000009 0.000665
v 0.001459 -0.000052 0.000692
v 0.000579 -0.000042 -0.000029
v 0.000357 -0.000077 -0.000115
v 0.000225 0.000026 -0.000083
v -0.001289 0.000119 -0.000428
v -0.000630 -0.000093 -0.000242
v -0.000354 -0.000135 -0.000218
v -0.000950 0.000039 -0.000348
v -0.001716 0.000142 -0.000515
v -0.001606 0.000103 -0.000345
v 0.001234 -0.000076 0.000500
v -0.001663 -0.000078 -0.000346
v 0.001537 0.000195 0.000510
v 0.000696 -0.000048 0.000254
v -0.000475 -0.000079 -0.000392
v 0.000796 -0.000080 0.000203
v 0.000959 0.000103 0.000373
v 0.000957 -0.000015 0.000194
v -0.000757 0.000030 -0.000313
v -0.000039 -0.000132 -0.000191
v -0.000082 -0.000087 -0.000273
v -0.001150 -0.000070 -0.000464
v -0.000701 0.000022 -0.000418
v -0.000409 -0.000002 -0.000331
v -0.000199 -0.000007 -0.000213
v -0.001070 0.000038 -0.000324
v 0.001218 -0.000043 0.000620
v 0.000464 -0.000007 0.000179
v 0.000592 -0.000023 0.000246
v 0.001292 0.000135 0.000622
v -0.001237 0.000074 -0.000331
v -0.000572 -0.000128 -0.000309
v -0.001504 0.000090 -0.000326
v 0.001333 -0.000053 0.000615
v -0.001697 0.000014 -0.000566
v -0.001613 -0.000080 -0.000494
v -0.001837 0.000160 -0.000512
v 0.000887 -0.000062 0.000223
v 0.000157 0.000025 0.000005
v 0.000451 0.000018 -0.000019
v 0.000827 0.000065 0.000223
v -0.000739 0.000016 -0.000263
v 0.000300 -0.000056 0.000094
v 0.000423 -0.000054 0.000149
v 0.000798 0.000023 0.000123
v -0.001195 0.000018 -0.000548
v -0.001423 0.000097 -0.000345
v -0.000504 -0.000109 -0.000211
v -0.001737 -0.000113 -0.000474
v 0.001429 0.000038 0.000353
v -0.000939 -0.000088 -0.000427
v -0.001609 -0.000123 -0.000439
v -0.001432 0.000127 -0.000517
v 0.000758 0.000070 0.000342
v 0.000786 -0.000019 0.000385
v 0.001515 0.000130 0.000639
v -0.000156 -0.000135 -0.000177
v -0.001437 0.000138 -0.000442
v 0.000470 -0.000045 -0.000071
v 0.001298 0.000136 0.000434
v 0.001221 0.000052 0.000350
v 0.000886 0.000105 0.000440
v 0.000913 0.000007 0.000483
v -0.001125 0.000088 -0.000458
v 0.001060 0.000043 0.000583
v 0.001151 -0.000066 0.000418
v 0.001405 -0.000098 0.000489
v 0.000170 -0.000088 -0.000212
v -0.001730 0.000090 -0.000331
v 0.001458 0.000159 0.000425
v 0.000811 0.000100 0.000395
v 0.001385 -0.000031 0.000383
v -0.000167 -0.000102 -0.000108
v -0.001851 -0.000070 -0.000362
v 0.001006 -0.000036 0.000560
v 0.001528 -0.000050 0.000684
v -0.000971 -0.000028 -0.000500
v 0.000219 -0.000137 -0.000076
v -0.001035 0.000048 -0.000393
v 0.000747 -0.000027 0.000084
v 0.000081 -0.000085 -0.000243
v 0.000625 0.000012 0.000036
v 0.000698 -0.000010 0.000049
v 0.000597 0.000056 0.000095
v 0.000976 -0.000058 0.000505
v 0.000488 -0.000073 0.000152
v 0.001155 -0.000062 0.000566
v -0.000194 -0.000020 -0.000139
v -0.001854 0.000155 -0.000499
v -0.001840 0.000091 -0.000537
v -0.001833 0.000034 -0.000558
v -0.001852 0.000157 -0.000506
v -0.001889 0.000056 -0.000398
v -0.001882 0.000121 -0.000419
v -0.001892 -0.000044 -0.000387
v -0.001838 -0.000050 -0.000541
v -0.001887 0.000102 -0.000404
v -0.001853 -0.000088 -0.000496
v -0.001893 -0.000075 -0.000383
v -0.001846 0.000150 -0.000521
v -0.001840 -0.000056 -0.000535
v -0.001872 0.000138 -0.000447
v -0.001868 -0.000079 -0.000456
v -0.001831 0.000023 -0.000562
v -0.001836 -0.000040 -0.000547
v 0.001555 0.000116 0.000687
v 0.001570 0.000184 0.000636
v 0.001556 -0.000010 0.000689
v 0.001602 -0.000171 0.000539
v 0.001633 0.000115 0.000428
v 0.001594 -0.000146 0.000565
v 0.001608 -0.000186 0.000518
v 0.001617 -0.000110 0.000487
v 0.001555 0.000119 0.000689
v 0.001554 0.000120 0.000690
v 0.001633 0.000107 0.000428
v 0.001610 0.000205 0.000505
v 0.001560 -0.000071 0.000675
v 0.001626 0.000198 0.000451
v 0.001634 0.000133 0.000426
v 0.001610 -0.000174 0.000510
v 0.001613 -0.000153 0.000502
v 0.001635 0.000201 0.000422
v 0.001636 0.000177 0.000417
v 0.001577 -0.000132 0.000621
v 0.001556 0.000007 0.000687
v 0.001556 0.000103 0.000686
v 0.001598 0.000203 0.000544
v 0.001568 -0.000099 0.000649
v 0.001625 -0.000044 0.000459
v 0.001556 0.000121 0.000684
v 0.001630 0.000023 0.000441
v 0.001568 0.000161 0.000644
vt 0.391454 0.190893
vt 0.394488 0.190787
vt 0.392341 0.191212
vt 0.963761 0.376193
vt 0.965910 0.371819
vt 0.965362 0.374634
vt 0.767605 0.445608
vt 0.766118 0.446092
vt 0.765421 0.443639
vt 0.638757 0.748784
vt 0.641186 0.751409
vt 0.642206 0.754232
vt 0.043628 0.309539
vt 0.044508 0.309237
vt 0.045511 0.310035
vt 0.532695 0.377520
vt 0.529375 0.378086
vt 0.532959 0.375926
vt 0.533070 0.376248
vt 0.002249 0.794294
vt 0.004351 0.794080
vt 0.004114 0.795934
vt 0.809719 0.252575
vt 0.809126 0.257610
vt 0.806213 0.254915
vt 0.182014 0.037502
vt 0.186838 0.040272
vt 0.183951 0.039403
vt 0.120641 0.676872
vt 0.119438 0.677201
vt 0.121380 0.675431
vt 0.565241 0.690902
vt 0.568498 0.691569
vt 0.568553 0.694267
vt 0.198656 0.386526
vt 0.198242 0.388059
vt 0.197420 0.387106
vt 0.459902 0.064270
vt 0.460580 0.060184
vt 0.462931 0.059807
vt 0.924742 0.611551
vt 0.926659 0.611746
vt 0.924234 0.613920
vt 0.293123 0.925795
vt 0.293295 0.924530
vt 0.296727 0.927198
vt 0.590809 0.604394
vt 0.589405 0.605622
vt 0.588536 0.603039
vt 0.193130 0.045040
vt 0.188242 0.039029
vt 0.554167 0.826953
vt 0.556606 0.826200
vt 0.554397 0.829566
vt 0.619415 0.291678
vt 0.621143 0.291878
vt 0.621654 0.295424
vt 0.465749 0.052478
vt 0.467780 0.050607
vt 0.467443 0.052243
vt 0.503194 0.022176
vt 0.501188 0.024378
vt 0.499825 0.022156
vt 0.130178 0.720768
vt 0.127769 0.722403
vt 0.130384 0.717664
vt 0.772843 0.960838
vt 0.772309 0.962580
vt 0.770732 0.962418
vt 0.698054 0.775762
vt 0.692582 0.773800
vt 0.693235 0.772768
vt 0.735177 0.064031
vt 0.731986 0.063201
vt 0.737855 0.060763
vt 0.256663 0.388586
vt 0.254245 0.389694
vt 0.251831 0.389048
vt 0.516586 0.379314
vt 0.518993 0.378143
vt 0.517470 0.380472
vt 0.812411 0.345731
vt 0.811072 0.345136
vt 0.812529 0.344508
vt 0.403048 0.504440
vt 0.403226 0.503209
vt 0.404053 0.504443
vt 0.970228 0.623335
vt 0.970502 0.622396
vt 0.972763 0.622213
vt 0.139543 0.006988
vt 0.140999 0.007691
vt 0.139685 0.007611
vt 0.937722 0.181853
vt 0.938719 0.183585
vt 0.937050 0.183484
vt 0.733554 0.056203
vt 0.017056 0.839357
vt 0.015820 0.839840
vt 0.015979 0.837899
vt 0.417131 0.779226
vt 0.415897 0.778435
vt 0.415833 0.776905
vt 0.206291 0.988265
vt 0.209309 0.987918
vt 0.206289 0.989443
vt 0.928948 0.434618
vt 0.928816 0.430984
vt 0.930411 0.433430
vt 0.523624 0.381697
vt 0.522623 0.378945
vt 0.844339 0.455837
vt 0.845908 0.455099
vt 0.846365 0.455562
vt 0.621346 0.668484
vt 0.616639 0.666924
vt 0.618271 0.665615
vt 0.912665 0.531332
vt 0.913677 0.532017
vt 0.910933 0.534029
vt 0.800059 0.268173
vt 0.803657 0.266841
vt 0.799823 0.271351
vt 0.584402 0.484332
vt 0.584124 0.482684
vt 0.588726 0.479292
vt 0.193034 0.042335
vt 0.194156 0.044222
vt 0.166289 0.028063
vt 0.169081 0.027449
vt 0.174860 0.031290
vt 0.563356 0.398330
vt 0.565651 0.400177
vt 0.563093 0.401194
vt 0.600782 0.797972
vt 0.603598 0.794994
vt 0.604356 0.797695
vt 0.813668 0.245220
vt 0.813242 0.250469
vt 0.809751 0.245991
vt 0.776007 0.439237
vt 0.777856 0.437901
vt 0.779210 0.437621
vt 0.480286 0.041734
vt 0.474624 0.046858
vt 0.476903 0.042202
vt 0.952809 0.359711
vt 0.954241 0.361987
vt 0.952782 0.360659
vt 0.675980 0.674288
vt 0.674855 0.676166
vt 0.674026 0.674443
vt 0.725228 0.074420
vt 0.723900 0.072276
vt 0.727486 0.072360
vt 0.507371 0.014210
vt 0.508522 0.019415
vt 0.537203 0.091281
vt 0.538137 0.090288
vt 0.538254 0.092904
vt 0.180448 0.278529
vt 0.175793 0.279004
vt 0.176022 0.275969
vt 0.199688 0.652620
vt 0.199868 0.656877
vt 0.198333 0.654870
vt 0.939126 0.599913
vt 0.938574 0.598524
vt 0.939550 0.597851
vt 0.338835 0.544984
vt 0.338999 0.546097
vt 0.337599 0.545400
vt 0.920268 0.201126
vt 0.919477 0.199537
vt 0.920808 0.200115
vt 0.147169 0.014860
vt 0.151281 0.018187
vt 0.147636 0.018724
vt 0.151040 0.015327
vt 0.687461 0.677194
vt 0.684054 0.680801
vt 0.683762 0.679238
vt 0.530647 0.332567
vt 0.531624 0.332640
vt 0.531281 0.333824
vt 0.542342 0.463621
vt 0.541389 0.464764
vt 0.540427 0.462689
vt 0.808410 0.248500
vt 0.574098 0.326946
vt 0.577912 0.326831
vt 0.575626 0.329475
vt 0.520432 0.381899
vt 0.907515 0.202889
vt 0.905899 0.202692
vt 0.906124 0.201496
vt 0.200138 0.049987
vt 0.199188 0.051563
vt 0.197865 0.048339
vt 0.739942 0.057470
vt 0.737046 0.055709
vt 0.740756 0.055395
vt 0.970634 0.621467
vt 0.970869 0.620441
vt 0.972120 0.621113
vt 0.470619 0.625120
vt 0.471968 0.620342
vt 0.473108 0.624710
vt 0.587611 0.601248
vt 0.586354 0.600593
vt 0.157822 0.020809
vt 0.165226 0.023445
vt 0.164015 0.025494
vt 0.149726 0.834177
vt 0.149335 0.831351
vt 0.151778 0.833661
vt 0.737054 0.053297
vt 0.734801 0.053741
vt 0.736510 0.053053
vt 0.814219 0.551942
vt 0.813114 0.553962
vt 0.811990 0.553500
vt 0.178370 0.275341
vt 0.179185 0.273981
vt 0.182521 0.275378
vt 0.672318 0.677217
vt 0.670960 0.680389
vt 0.527080 0.381250
vt 0.992944 0.561044
vt 0.990297 0.558786
vt 0.990346 0.557691
vt 0.179620 0.032508
vt 0.177932 0.033185
vt 0.173767 0.032642
vt 0.496941 0.023009
vt 0.495828 0.025804
vt 0.493592 0.024993
vt 0.495486 0.022009
vt 0.643771 0.755507
vt 0.642408 0.752723
vt 0.951636 0.445313
vt 0.953272 0.443847
vt 0.953980 0.446736
vt 0.732082 0.066643
vt 0.734466 0.065962
vt 0.851838 0.461205
vt 0.852754 0.461955
vt 0.851186 0.463294
vt 0.737673 0.830783
vt 0.736356 0.830847
vt 0.737486 0.829923
vt 0.198994 0.934682
vt 0.197133 0.935634
vt 0.198294 0.933528
vt 0.731155 0.059637
vt 0.731947 0.057957
vt 0.570267 0.505934
vt 0.570264 0.506788
vt 0.569544 0.506362
vt 0.303083 0.957731
vt 0.299299 0.958521
vt 0.299427 0.956764
vt 0.732293 0.069768
vt 0.728883 0.067563
vt 0.141830 0.991457
vt 0.138764 0.992696
vt 0.140476 0.990080
vt 0.457624 0.066969
vt 0.455472 0.067689
vt 0.578433 0.668150
vt 0.578104 0.668820
vt 0.578119 0.667253
vt 0.075625 0.884944
vt 0.076085 0.887295
vt 0.072780 0.887564
vt 0.805495 0.264184
vt 0.801676 0.260771
vt 0.801155 0.263915
vt 0.803968 0.258993
vt 0.577902 0.323819
vt 0.557275 0.825512
vt 0.555102 0.824278
vt 0.562261 0.773604
vt 0.560364 0.773644
vt 0.562315 0.771957
vt 0.182598 0.035325
vt 0.567107 0.389322
vt 0.568578 0.390550
vt 0.567462 0.391793
vt 0.170763 0.031124
vt 0.975589 0.524531
vt 0.973741 0.525642
vt 0.972204 0.524893
vt 0.195871 0.048800
vt 0.145037 0.452010
vt 0.144671 0.453417
vt 0.143607 0.452681
vt 0.264849 0.412783
vt 0.265307 0.411740
vt 0.266436 0.412180
vt 0.472920 0.044739
vt 0.471250 0.047756
vt 0.524337 0.089663
vt 0.525991 0.087263
vt 0.525416 0.088718
vt 0.518026 0.528346
vt 0.513208 0.533884
vt 0.515123 0.530377
vt 0.509733 0.014580
vt 0.466709 0.160078
vt 0.466566 0.160445
vt 0.465593 0.160582
vt 0.022364 0.842520
vt 0.021981 0.841134
vt 0.024076 0.842418
vt 0.260391 0.388400
vt 0.262356 0.390296
vt 0.240339 0.405017
vt 0.239151 0.406331
vt 0.240061 0.404351
vt 0.211090 0.064045
vt 0.210926 0.061960
vt 0.212017 0.064169
vt 0.479405 0.962705
vt 0.479669 0.960471
vt 0.482707 0.962871
vt 0.232975 0.408220
vt 0.230737 0.405812
vt 0.232741 0.404403
vt 0.727890 0.069517
vt 0.724850 0.069178
vt 0.614034 0.787100
vt 0.613324 0.788468
vt 0.612783 0.786635
vt 0.919505 0.566263
vt 0.917953 0.569357
vt 0.918122 0.566955
vt 0.565539 0.391846
vt 0.567162 0.394356
vt 0.565223 0.395888
vt 0.567317 0.396550
vt 0.336944 0.861745
vt 0.338988 0.860436
vt 0.339715 0.862310
vt 0.587584 0.481548
vt 0.884606 0.620736
vt 0.883051 0.621370
vt 0.882345 0.618799
vt 0.687867 0.682144
vt 0.199180 0.831228
vt 0.197812 0.831544
vt 0.197310 0.829792
vt 0.875784 0.315174
vt 0.876472 0.313906
vt 0.878632 0.315781
vt 0.783650 0.974484
vt 0.783437 0.976212
vt 0.782309 0.975714
vt 0.774089 0.546365
vt 0.774698 0.545327
vt 0.777030 0.544778
vt 0.774249 0.546737
vt 0.945324 0.241117
vt 0.945211 0.239848
vt 0.946530 0.240407
vt 0.808783 0.261211
vt 0.607882 0.626972
vt 0.609661 0.629588
vt 0.606422 0.629280
vt 0.660943 0.607986
vt 0.663091 0.606125
vt 0.661548 0.609273
vt 0.044946 0.851176
vt 0.047266 0.851996
vt 0.043330 0.854572
vt 0.482734 0.159592
vt 0.483964 0.158749
vt 0.484032 0.160241
vt 0.483987 0.157417
vt 0.275354 0.152923
vt 0.274537 0.152607
vt 0.276899 0.152314
vt 0.493584 0.029124
vt 0.491784 0.031618
vt 0.490085 0.030583
vt 0.844411 0.510826
vt 0.846312 0.512166
vt 0.844291 0.513893
vt 0.512056 0.536219
vt 0.509633 0.541385
vt 0.509734 0.539496
vt 0.843605 0.808601
vt 0.844223 0.810117
vt 0.842564 0.809948
vt 0.606256 0.150363
vt 0.605478 0.149202
vt 0.606876 0.148737
vt 0.078611 0.945929
vt 0.075160 0.944916
vt 0.078259 0.943797
vt 0.167894 0.587696
vt 0.166792 0.587928
vt 0.166636 0.586582
vt 0.157899 0.718398
vt 0.158841 0.717514
vt 0.160202 0.718846
vt 0.136904 0.011276
vt 0.137909 0.011961
vt 0.136948 0.011288
vt 0.137814 0.010054
vt 0.479006 0.043365
vt 0.477485 0.045094
vt 0.203088 0.054030
vt 0.203420 0.052475
vt 0.205649 0.053734
vt 0.844247 0.355581
vt 0.847456 0.352912
vt 0.845292 0.355112
vt 0.986869 0.251246
vt 0.985745 0.251578
vt 0.987300 0.249893
vt 0.217171 0.043026
vt 0.216020 0.043819
vt 0.216642 0.042458
vt 0.881282 0.337666
vt 0.880751 0.338843
vt 0.879578 0.337660
vt 0.660874 0.113923
vt 0.660420 0.112037
vt 0.661166 0.113154
vt 0.696594 0.776985
vt 0.695110 0.777848
vt 0.690643 0.769025
vt 0.623049 0.789755
vt 0.619434 0.788650
vt 0.621958 0.788677
vt 0.522703 0.377369
vt 0.519643 0.375808
vt 0.560236 0.776708
vt 0.514958 0.534450
vt 0.041484 0.869887
vt 0.044593 0.872343
vt 0.041993 0.871468
vt 0.797041 0.267288
vt 0.797001 0.269146
vt 0.931973 0.916247
vt 0.930165 0.914558
vt 0.931570 0.914885
vt 0.236185 0.403337
vt 0.235697 0.405959
vt 0.234072 0.403084
vt 0.237727 0.403621
vt 0.981742 0.602210
vt 0.982719 0.601023
vt 0.982627 0.603651
vt 0.498485 0.026554
vt 0.269943 0.826834
vt 0.270884 0.824367
vt 0.272076 0.825443
vt 0.304262 0.838188
vt 0.305090 0.841675
vt 0.301927 0.838056
vt 0.583739 0.321381
vt 0.639757 0.751329
vt 0.615668 0.785568
vt 0.619344 0.787353
vt 0.271698 0.187404
vt 0.270623 0.186749
vt 0.270764 0.185456
vt 0.518452 0.525407
vt 0.520239 0.523144
vt 0.519859 0.526589
vt 0.749773 0.787756
vt 0.751737 0.787834
vt 0.751392 0.788519
vt 0.201842 0.655636
vt 0.291252 0.924620
vt 0.667859 0.604893
vt 0.665383 0.604625
vt 0.668972 0.602101
vt 0.749977 0.949176
vt 0.747813 0.949108
vt 0.751039 0.948449
vt 0.515136 0.098858
vt 0.516501 0.099029
vt 0.514212 0.100414
vt 0.514896 0.098946
vt 0.513799 0.099321
vt 0.514800 0.098897
vt 0.621904 0.294077
vt 0.526552 0.177162
vt 0.527663 0.177626
vt 0.525789 0.177981
vt 0.469526 0.619350
vt 0.470511 0.621809
vt 0.235570 0.410385
vt 0.236977 0.408879
vt 0.174248 0.335583
vt 0.175276 0.335638
vt 0.175219 0.336780
vt 0.174335 0.336178
vt 0.173073 0.886066
vt 0.171796 0.888080
vt 0.169824 0.886309
vt 0.569136 0.690568
vt 0.570639 0.690145
vt 0.471753 0.049009
vt 0.466199 0.055070
vt 0.434437 0.033293
vt 0.433326 0.033051
vt 0.435020 0.032359
vt 0.529610 0.449611
vt 0.529772 0.447168
vt 0.531682 0.448840
vt 0.480232 0.037379
vt 0.463674 0.056397
vt 0.461550 0.058725
vt 0.410677 0.713420
vt 0.413073 0.712189
vt 0.413840 0.714891
vt 0.144530 0.015525
vt 0.143634 0.012045
vt 0.147092 0.011961
vt 0.210641 0.058381
vt 0.209701 0.062601
vt 0.207946 0.060258
vt 0.530988 0.381725
vt 0.532420 0.379843
vt 0.396655 0.900024
vt 0.395474 0.901256
vt 0.395343 0.899961
vt 0.948610 0.392188
vt 0.949961 0.390452
vt 0.950181 0.391877
vt 0.952067 0.388743
vt 0.803359 0.254560
vt 0.805227 0.248918
vt 0.845733 0.353529
vt 0.843505 0.353759
vt 0.844457 0.352223
vt 0.407201 0.080173
vt 0.406900 0.081768
vt 0.405763 0.080113
vt 0.037349 0.456778
vt 0.036408 0.457356
vt 0.035402 0.456379
vt 0.488780 0.034410
vt 0.487536 0.032213
vt 0.233626 0.383065
vt 0.238171 0.383042
vt 0.236088 0.384045
vt 0.910474 0.059101
vt 0.909989 0.060565
vt 0.909389 0.059276
vt 0.088220 0.303186
vt 0.086495 0.304214
vt 0.087100 0.302939
vt 0.533338 0.376092
vt 0.199047 0.285544
vt 0.200459 0.288600
vt 0.196174 0.286025
vt 0.483599 0.035828
vt 0.499551 0.017166
vt 0.561504 0.397718
vt 0.560308 0.399721
vt 0.559977 0.398602
vt 0.266619 0.390023
vt 0.262674 0.387413
vt 0.336447 0.931425
vt 0.335771 0.932270
vt 0.332676 0.928297
vt 0.885361 0.256033
vt 0.885420 0.257289
vt 0.884301 0.257181
vt 0.388377 0.423210
vt 0.390333 0.423158
vt 0.389555 0.423600
vt 0.807571 0.246368
vt 0.207506 0.056723
vt 0.204950 0.054751
vt 0.511391 0.010369
vt 0.509611 0.008735
vt 0.308127 0.756342
vt 0.308230 0.757978
vt 0.304730 0.759520
vt 0.566125 0.688581
vt 0.828374 0.995098
vt 0.829696 0.993592
vt 0.830736 0.993642
vt 0.228369 0.399951
vt 0.992584 0.317884
vt 0.992261 0.318993
vt 0.990504 0.319293
vt 0.879753 0.315634
vt 0.485362 0.963452
vt 0.482575 0.960542
vt 0.118410 0.033000
vt 0.117350 0.034526
vt 0.116681 0.033509
vt 0.144842 0.017197
vt 0.140790 0.013869
vt 0.135878 0.900708
vt 0.137909 0.899786
vt 0.139703 0.901319
vt 0.459972 0.082446
vt 0.461432 0.080564
vt 0.461238 0.083163
vt 0.457473 0.063747
vt 0.570071 0.425255
vt 0.570091 0.429346
vt 0.569709 0.427361
vt 0.226805 0.400408
vt 0.068553 0.037402
vt 0.069930 0.036300
vt 0.069442 0.038212
vt 0.921677 0.567649
vt 0.921299 0.568339
vt 0.921428 0.567485
vt 0.098320 0.031560
vt 0.099612 0.031415
vt 0.099390 0.033367
vt 0.249627 0.386054
vt 0.255411 0.386027
vt 0.484419 0.038229
vt 0.776940 0.468683
vt 0.775544 0.469455
vt 0.776179 0.467544
vt 0.140717 0.125841
vt 0.142628 0.125936
vt 0.141979 0.126850
vt 0.784645 0.976645
vt 0.537842 0.453580
vt 0.538554 0.457131
vt 0.535860 0.454649
vt 0.579523 0.243196
vt 0.578468 0.243095
vt 0.580419 0.242260
vt 0.472477 0.629003
vt 0.470429 0.628863
vt 0.472307 0.628133
vt 0.140296 0.872725
vt 0.145040 0.874246
vt 0.141106 0.875490
vt 0.242043 0.384293
vt 0.750593 0.342135
vt 0.753029 0.339163
vt 0.754088 0.338525
vt 0.569990 0.696663
vt 0.479898 0.825177
vt 0.478720 0.821960
vt 0.483508 0.825077
vt 0.071394 0.932203
vt 0.074495 0.929601
vt 0.072388 0.933639
vt 0.847441 0.934044
vt 0.846605 0.934819
vt 0.846653 0.932206
vt 0.135458 0.228393
vt 0.134354 0.227426
vt 0.135589 0.226444
vt 0.411496 0.711328
vt 0.200443 0.833731
vt 0.198129 0.833836
vt 0.622303 0.669918
vt 0.620654 0.671909
vt 0.619432 0.670658
vt 0.740967 0.981991
vt 0.742675 0.982890
vt 0.743248 0.984301
vt 0.735221 0.880749
vt 0.733704 0.881089
vt 0.734517 0.878934
vt 0.983011 0.277425
vt 0.981607 0.279917
vt 0.980458 0.279607
vt 0.483615 0.131706
vt 0.483206 0.129658
vt 0.484021 0.130463
vt 0.340028 0.737850
vt 0.336282 0.740112
vt 0.339312 0.736603
vt 0.532547 0.456400
vt 0.535651 0.458227
vt 0.533186 0.457393
vt 0.453426 0.070426
vt 0.456141 0.069349
vt 0.389202 0.903180
vt 0.388033 0.901907
vt 0.391666 0.902984
vt 0.387543 0.903859
vt 0.832001 0.853537
vt 0.830811 0.854841
vt 0.830704 0.852957
vt 0.574442 0.773025
vt 0.571318 0.772353
vt 0.575540 0.771269
vt 0.129283 0.119957
vt 0.129675 0.118119
vt 0.130366 0.119091
vt 0.686977 0.683844
vt 0.315512 0.103839
vt 0.316828 0.103962
vt 0.316491 0.104955
vt 0.497634 0.020189
vt 0.498557 0.018630
vt 0.811753 0.253011
vt 0.182827 0.278576
vt 0.189597 0.282053
vt 0.181775 0.279809
vt 0.602831 0.636581
vt 0.600989 0.635810
vt 0.603761 0.634762
vt 0.141265 0.947791
vt 0.144959 0.946929
vt 0.142747 0.948028
vt 0.411222 0.254525
vt 0.412964 0.255180
vt 0.412555 0.256501
vt 0.139180 0.948870
vt 0.091212 0.389243
vt 0.092006 0.387619
vt 0.092905 0.388219
vt 0.091860 0.442046
vt 0.092355 0.442863
vt 0.091035 0.442601
vt 0.091348 0.441363
vt 0.511591 0.010403
vt 0.804964 0.266148
vt 0.144693 0.009260
vt 0.322099 0.853356
vt 0.320517 0.853856
vt 0.317047 0.851972
vt 0.893943 0.731624
vt 0.893487 0.731632
vt 0.893426 0.730965
vt 0.260023 0.150556
vt 0.260722 0.150426
vt 0.260386 0.150872
vt 0.088570 0.377166
vt 0.089673 0.377041
vt 0.088367 0.378566
vt 0.149772 0.012685
vt 0.565075 0.401570
vt 0.683172 0.648703
vt 0.681741 0.649991
vt 0.679796 0.646856
vt 0.810975 0.259997
vt 0.811147 0.257343
vt 0.809646 0.260238
vt 0.875381 0.564916
vt 0.874214 0.565786
vt 0.874839 0.563030
vt 0.156751 0.654024
vt 0.155622 0.658281
vt 0.153909 0.658291
vt 0.510697 0.541141
vt 0.514267 0.537466
vt 0.171236 0.026916
vt 0.175397 0.029921
vt 0.938749 0.595638
vt 0.937955 0.597158
vt 0.141517 0.989019
vt 0.142283 0.989784
vt 0.896822 0.440221
vt 0.895636 0.436671
vt 0.897714 0.437780
vt 0.624658 0.733798
vt 0.624334 0.734914
vt 0.622755 0.731920
vt 0.196936 0.051004
vt 0.137270 0.539662
vt 0.136540 0.538911
vt 0.136389 0.537624
vt 0.363698 0.026976
vt 0.362847 0.025308
vt 0.363940 0.026140
vt 0.553501 0.823677
vt 0.767580 0.443936
vt 0.690616 0.771407
vt 0.768453 0.444961
vt 0.602285 0.633511
vt 0.748774 0.552993
vt 0.749862 0.550540
vt 0.751396 0.550594
vt 0.738803 0.452920
vt 0.741333 0.451418
vt 0.741989 0.452453
vt 0.813395 0.253657
vt 0.621534 0.732746
vt 0.623312 0.735683
vt 0.619011 0.735028
vt 0.940486 0.093382
vt 0.939617 0.091165
vt 0.940787 0.092394
vt 0.156826 0.018260
vt 0.982054 0.660091
vt 0.981462 0.659358
vt 0.984449 0.659625
vt 0.308487 0.251408
vt 0.310502 0.253024
vt 0.308973 0.252519
vt 0.082660 0.436033
vt 0.083138 0.437061
vt 0.081965 0.437246
vt 0.559618 0.773667
vt 0.558003 0.772238
vt 0.669268 0.682876
vt 0.669769 0.681259
vt 0.446460 0.733237
vt 0.447224 0.732874
vt 0.452086 0.737792
vt 0.445186 0.732302
vt 0.726972 0.067687
vt 0.880665 0.335265
vt 0.879504 0.335444
vt 0.726818 0.066216
vt 0.582802 0.319480
vt 0.584001 0.317988
vt 0.131538 0.961313
vt 0.132398 0.959139
vt 0.135236 0.960298
vt 0.425475 0.611783
vt 0.426676 0.611970
vt 0.426349 0.612915
vt 0.963073 0.526847
vt 0.961803 0.529001
vt 0.961602 0.527483
vt 0.160121 0.025192
vt 0.155400 0.022832
vt 0.158909 0.024108
vt 0.599636 0.637487
vt 0.531812 0.452132
vt 0.072523 0.407795
vt 0.072252 0.409125
vt 0.071120 0.408359
vt 0.770639 0.550198
vt 0.769549 0.551424
vt 0.770314 0.549097
vt 0.769113 0.548844
vt 0.778089 0.720213
vt 0.776679 0.718282
vt 0.780048 0.719093
vt 0.111518 0.790595
vt 0.110427 0.793418
vt 0.109039 0.792542
vt 0.518912 0.529479
vt 0.811179 0.589082
vt 0.807593 0.587076
vt 0.810973 0.587750
vt 0.228127 0.384686
vt 0.229066 0.381554
vt 0.231812 0.380927
vt 0.865559 0.391353
vt 0.865405 0.394010
vt 0.863157 0.391551
vt 0.015785 0.139302
vt 0.014149 0.139316
vt 0.016104 0.138238
vt 0.633501 0.270588
vt 0.635730 0.269600
vt 0.634718 0.271456
vt 0.004244 0.952004
vt 0.001771 0.950408
vt 0.003757 0.950178
vt 0.602153 0.639657
vt 0.600600 0.639963
vt 0.469707 0.628551
vt 0.773185 0.855832
vt 0.772997 0.855577
vt 0.773306 0.855416
vt 0.740831 0.055415
vt 0.741615 0.056521
vt 0.740259 0.055051
vt 0.134566 0.038799
vt 0.135195 0.038762
vt 0.135349 0.038982
vt 0.733677 0.051625
vt 0.734056 0.050409
vt 0.734584 0.052175
vt 0.481197 0.893116
vt 0.480006 0.891102
vt 0.480048 0.890252
vt 0.481285 0.890875
vt 0.681307 0.679462
vt 0.681948 0.680869
vt 0.681029 0.680052
vt 0.238530 0.406981
vt 0.228222 0.978089
vt 0.228238 0.978155
vt 0.228172 0.978116
vt 0.487379 0.800267
vt 0.487459 0.800311
vt 0.487386 0.800331
vt 0.232131 0.411224
vt 0.234318 0.411974
vt 0.233200 0.412477
vt 0.563344 0.771141
vt 0.563994 0.771214
vt 0.761951 0.666046
vt 0.759587 0.665877
vt 0.759376 0.665428
vt 0.760556 0.665297
vt 0.238710 0.406774
vt 0.563745 0.772151
vt 0.735298 0.052389
vt 0.479030 0.892658
vt 0.983999 0.277115
vt 0.984170 0.277429
vt 0.983217 0.278478
vt 0.487524 0.800102
vt 0.487470 0.800257
vt 0.827759 0.354966
vt 0.827762 0.354856
vt 0.827788 0.354889
vn 0.2956 0.5326 -0.7931
vn 0.1942 0.9423 -0.2727
vn 0.0959 0.9774 -0.1882
vn 0.0683 -0.8797 -0.4706
vn 0.0930 -0.9112 -0.4014
vn -0.0736 -0.9922 0.1003
vn 0.0399 0.9989 0.0256
vn 0.1201 0.9341 -0.3362
vn -0.2801 0.9006 0.3324
vn -0.3379 0.3786 0.8617
vn -0.4068 0.1669 0.8981
vn -0.2716 0.8620 0.4281
vn 0.2290 -0.9617 -0.1505
vn 0.5156 0.0096 -0.8568
vn 0.2567 -0.9590 -0.1199
vn -0.7419 0.6660 0.0777
vn -0.0142 0.9532 0.3021
vn -0.0098 0.9013 -0.4331
vn -0.7255 0.6858 -0.0573
vn 0.0095 0.9881 -0.1532
vn -0.4336 0.6374 0.6370
vn -0.0560 -0.9920 0.1134
vn -0.1435 -0.9810 0.1309
vn 0.0001 -0.9484 -0.3171
vn -0.0768 0.8465 0.5268
vn -0.1518 0.8727 0.4641
vn -0.1004 -0.6178 0.7799
vn -0.1075 -0.9283 0.3560
vn -0.0565 -0.9859 -0.1574
vn -0.0374 -0.9884 0.1474
vn 0.0439 -0.9370 -0.3466
vn 0.0786 -0.9951 -0.0593
vn -0.0313 -0.9875 -0.1543
vn -0.0844 -0.9340 0.3471
vn 0.0221 -0.8812 -0.4721
vn 0.2850 0.6290 -0.7233
vn 0.4860 -0.1920 -0.8526
vn 0.2104 0.6478 -0.7322
vn 0.0686 -0.9976 -0.0129
vn -0.3265 -0.4121 0.8506
vn -0.2990 -0.6433 0.7048
vn 0.1499 -0.2372 -0.9598
vn 0.5145 0.0690 -0.8547
vn 0.1497 -0.9859 -0.0752
vn 0.2887 -0.0154 -0.9573
vn -0.2977 -0.4995 0.8135
vn 0.0481 0.9529 0.2994
vn -0.0833 0.4397 0.8943
vn -0.1032 0.6117 0.7843
vn -0.1349 0.7736 0.6192
vn -0.3341 0.0186 0.9424
vn 0.1205 -0.9320 -0.3418
vn 0.3591 0.0485 -0.9321
vn 0.1237 0.7309 -0.6712
vn 0.0935 0.6770 -0.7300
vn -0.0207 -0.2201 -0.9752
vn 0.1250 0.8096 -0.5735
vn 0.2862 0.6016 -0.7458
vn 0.5612 -0.3810 -0.7348
vn 0.1900 -0.9793 -0.0703
vn -0.3690 -0.6976 0.6142
vn -0.4898 -0.3549 0.7964
vn -0.1125 0.7536 0.6477
vn -0.1639 -0.2051 0.9649
vn -0.0868 0.6072 0.7898
vn -0.1798 -0.6126 0.7697
vn 0.2704 0.9431 -0.1932
vn 0.1394 0.9868 0.0823
vn 0.0785 0.7184 0.6912
vn 0.1233 0.9845 0.1251
vn -0.0232 0.6457 0.7633
vn 0.0501 0.7395 0.6713
vn -0.4134 -0.1237 0.9021
vn -0.1644 -0.8854 0.4347
vn -0.1397 -0.7252 0.6742
vn 0.1591 0.9179 -0.3636
vn 0.0815 0.9364 -0.3413
vn -0.3029 0.8223 0.4818
vn -0.7298 -0.5976 0.3320
vn -0.2732 -0.5684 0.7761
vn -0.9187 0.1046 0.3809
vn -0.0020 0.9856 0.1693
vn 0.1904 0.8150 -0.5473
vn -0.1621 -0.4753 0.8648
vn 0.0196 -0.9998 0.0063
vn -0.1209 -0.9678 0.2210
vn -0.2147 -0.8014 0.5582
vn 0.3557 0.6532 -0.6684
vn 0.0752 0.8261 -0.5585
vn 0.0036 0.9301 -0.3674
vn -0.0138 0.9893 -0.1453
vn 0.2698 0.0600 -0.9611
vn 0.2688 -0.0437 -0.9622
vn 0.1304 -0.5657 -0.8142
vn 0.4194 -0.3998 -0.8150
vn 0.0658 -0.9771 -0.2022
vn -0.0067 0.3793 0.9252
vn -0.0320 -0.1384 0.9899
vn -0.1306 -0.9154 0.3808
vn -0.1869 -0.3066 0.9333
vn -0.1874 0.0906 0.9781
vn 0.0832 -0.9855 0.1482
vn 0.0507 -0.8983 0.4365
vn -0.0214 -0.9958 -0.0890
vn 0.2290 0.8712 -0.4343
vn -0.2588 -0.8848 0.3876
vn -0.1571 -0.8377 0.5230
vn -0.1275 -0.9638 -0.2344
vn -0.2506 0.9646 0.0820
vn 0.3443 -0.2988 -0.8901
vn 0.0086 0.8897 -0.4564
vn -0.0707 0.8741 -0.4806
vn 0.1659 0.4668 -0.8686
vn -0.4525 0.7621 0.4631
vn -0.6394 -0.1100 0.7609
vn -0.5469 0.3346 0.7674
vn 0.0317 -0.0875 -0.9957
vn -0.3080 -0.8190 0.4841
vn -0.3801 -0.8601 0.3403
vn 0.0864 0.8293 0.5520
vn 0.0806 0.9459 0.3143
vn -0.5691 0.6565 0.4950
vn 0.0896 0.9086 -0.4079
vn 0.0763 0.9555 -0.2849
vn -0.1111 0.0743 0.9910
vn -0.1491 -0.6423 0.7518
vn -0.0439 -0.4811 0.8756
vn -0.0013 0.2256 0.9742
vn -0.1595 0.7305 -0.6640
vn -0.1967 0.9759 -0.0945
vn -0.1391 0.6398 -0.7558
vn 0.1311 0.9415 -0.3105
vn 0.0184 0.9350 -0.3542
vn -0.2333 0.8145 0.5311
vn -0.4057 -0.0548 0.9124
vn -0.2129 0.4296 0.8775
vn -0.1639 0.1525 0.9746
vn -0.8832 0.2715 0.3824
vn -0.0916 -0.9499 -0.2988
vn 0.2657 0.7519 -0.6033
vn -0.0117 -0.3728 0.9278
vn 0.4750 0.0314 0.8794
vn 0.4454 -0.0015 0.8953
vn 0.3362 0.7618 -0.5537
vn -0.2018 -0.1784 -0.9631
vn 0.0894 0.5599 -0.8237
vn -0.0141 0.6953 0.7186
vn 0.1509 -0.1387 -0.9788
vn -0.2282 -0.7479 0.6234
vn 0.0148 -0.6170 -0.7868
vn 0.0877 -0.0497 -0.9949
vn 0.0259 -0.8444 -0.5350
vn 0.0692 -0.9632 -0.2598
vn -0.2809 0.4029 0.8711
vn -0.2023 0.8533 0.4805
vn -0.2017 0.9226 0.3288
vn -0.0794 0.9695 -0.2319
vn -0.6014 -0.4596 -0.6535
vn -0.6241 -0.7039 -0.3391
vn 0.0909 0.9942 -0.0576
vn -0.4705 0.2325 0.8512
vn -0.3879 0.3667 -0.8456
vn -0.5521 0.1903 -0.8118
vn 0.2299 0.7455 -0.6256
vn -0.0760 0.9658 -0.2480
vn -0.4179 -0.8603 0.2918
vn -0.2037 -0.8594 -0.4690
vn -0.2765 -0.3058 0.9111
vn 0.0247 -0.9997 0.0053
vn -0.0167 -0.7032 0.7108
vn -0.0346 0.7418 0.6697
vn -0.1231 0.4559 0.8815
vn -0.2954 0.5841 0.7560
vn 0.3106 -0.2591 -0.9145
vn 0.5493 -0.1753 -0.8170
vn -0.0383 0.8169 -0.5755
vn 0.4091 -0.7690 0.4911
vn 0.5169 -0.4888 0.7028
vn -0.0575 -0.9748 0.2156
vn 0.7366 -0.0055 -0.6763
vn 0.8576 -0.1185 -0.5005
vn -0.5311 0.7266 0.4358
vn -0.6275 -0.1425 0.7654
vn 0.1363 -0.6753 -0.7249
vn -0.4523 -0.4806 0.7513
vn -0.0914 0.9937 -0.0646
vn 0.1694 -0.9746 -0.1464
vn 0.1616 -0.9849 0.0626
vn 0.4798 0.3260 -0.8146
vn 0.2908 0.7877 -0.5431
vn -0.7874 0.5929 0.1687
vn 0.2921 0.4306 -0.8540
vn 0.1824 0.9729 -0.1418
vn -0.3775 -0.3600 0.8532
vn 0.4321 -0.3819 -0.8170
vn -0.9037 0.2660 0.3354
vn -0.9441 0.0564 0.3247
vn -0.5172 -0.0110 0.8558
vn -0.3132 -0.4675 0.8266
vn -0.5293 0.5808 0.6184
vn 0.0009 0.1387 -0.9903
vn -0.5488 -0.3056 -0.7781
vn 0.0779 -0.6881 -0.7214
vn -0.5296 -0.4434 -0.7231
vn 0.8350 -0.3012 -0.4605
vn 0.8538 -0.1446 -0.5001
vn 0.8475 -0.2560 -0.4649
vn 0.1326 0.0041 -0.9912
vn 0.1390 0.7609 -0.6339
vn 0.5000 -0.2356 -0.8333
vn -0.1168 -0.1186 0.9860
vn 0.2426 -0.5925 -0.7682
vn -0.6806 0.7019 -0.2100
vn 0.1021 -0.8098 -0.5778
vn -0.5337 0.0641 -0.8433
vn 0.5089 -0.6727 0.5371
vn 0.3241 -0.7060 0.6297
vn -0.7324 -0.6639 -0.1511
vn -0.1515 0.8760 0.4579
vn -0.5715 0.1907 -0.7982
vn 0.4904 0.7714 -0.4056
vn 0.5893 0.7888 0.1748
vn 0.3814 0.6263 0.6800
vn 0.5456 0.3500 0.7614
vn 0.4007 0.0123 0.9161
vn 0.8462 -0.2261 -0.4825
vn 0.7968 -0.4096 -0.4443
vn 0.4970 -0.4217 0.7584
vn 0.5958 0.7542 0.2759
vn 0.6109 0.7840 0.1105
vn 0.8482 0.0475 -0.5276
vn -0.2499 0.3080 0.9180
vn -0.0773 -0.5703 0.8178
vn 0.4464 -0.8929 0.0585
vn 0.8514 -0.0519 -0.5219
vn 0.3975 0.5817 0.7097
vn 0.0256 -0.1821 0.9829
usemtl sungaya_inexpectata_31mg
s 1
f 4/1/1 5/2/2 129/3/3
f 9/4/4 10/5/5 136/6/6
f 13/7/7 188/8/8 14/9/9
f 18/10/10 19/11/11 95/12/12
f 142/13/13 42/14/14 41/15/15
f 206/16/16 70/17/17 141/18/18 193/19/19
f 40/20/20 13/21/7 59/22/21
f 115/23/22 62/24/23 170/25/24
f 28/26/25 18/27/10 192/28/26
f 75/29/27 76/30/28 48/31/29
f 161/32/30 124/33/31 23/34/32
f 57/35/33 58/36/34 155/37/35
f 30/38/36 88/39/37 89/40/38
f 53/41/39 147/42/40 20/43/41
f 57/44/33 35/45/42 9/46/4
f 106/47/43 52/48/44 163/49/45
f 19/50/11 18/27/10 177/51/46
f 112/52/47 25/53/48 38/54/49
f 94/55/50 37/56/51 28/57/25
f 124/58/31 100/59/52 125/60/53
f 157/61/54 72/62/55 97/63/56
f 127/64/57 47/65/58 35/66/42
f 184/67/59 39/68/60 106/69/43
f 84/70/61 59/71/21 133/72/62
f 134/73/63 104/74/64 51/75/65
f 136/76/6 110/77/66 58/78/34
f 168/79/67 109/80/68 135/81/69
f 162/82/70 137/83/71 151/84/72
f 65/85/73 191/86/74 131/87/75
f 29/88/76 108/89/77 74/90/78
f 203/91/79 178/92/80 199/93/81
f 112/94/47 123/95/82 7/96/83
f 51/75/65 104/74/64 105/97/84
f 53/98/39 20/99/41 182/100/85
f 118/101/86 133/102/62 190/103/87
f 149/104/88 13/105/7 40/106/20
f 45/107/89 78/108/90 61/109/91
f 70/17/17 137/110/71 162/111/70
f 154/112/92 68/113/93 73/114/94
f 87/115/95 41/116/15 42/117/14
f 87/118/95 66/119/96 41/120/15
f 118/121/86 84/122/61 133/123/62
f 77/124/97 24/125/98 25/126/48
f 92/127/99 20/128/41 177/51/46
f 38/129/49 46/130/100 33/131/101
f 55/132/102 83/133/103 156/134/104
f 5/135/2 128/136/105 28/137/25
f 49/138/106 138/139/107 171/140/108
f 134/141/63 51/142/65 44/143/109
f 47/144/58 4/145/1 119/146/110
f 101/147/111 162/148/70 157/149/54
f 45/150/89 164/151/112 165/152/113
f 166/153/114 167/154/115 8/155/116
f 157/61/54 139/156/117 101/157/111
f 81/158/118 66/159/96 189/160/119
f 58/161/34 75/162/27 48/163/29
f 168/164/67 130/165/120 183/166/121
f 30/167/36 89/168/38 108/169/77
f 158/170/122 85/171/123 145/172/124
f 80/173/125 116/174/126 54/175/127
f 80/176/125 26/177/128 137/178/71
f 26/177/128 80/176/125 54/179/127
f 174/180/129 117/181/130 98/182/131
f 74/183/78 14/184/9 67/185/132
f 39/186/60 118/187/86 190/188/87
f 115/23/22 170/25/24 171/189/108
f 82/190/133 95/191/12 143/192/134
f 151/193/72 135/81/69 162/111/70
f 135/194/69 109/195/68 162/196/70
f 147/197/40 74/198/78 21/199/135
f 160/200/136 17/201/137 60/202/138
f 108/203/77 82/204/133 143/205/134
f 153/206/139 156/207/104 178/208/80
f 144/209/140 163/49/45 29/210/76
f 24/211/98 75/212/27 25/213/48
f 17/214/137 105/215/84 180/216/141
f 230/217/142 17/201/137 180/218/141 212/219/143
f 145/220/124 32/221/144 149/222/88
f 155/223/35 36/224/145 35/225/42
f 38/129/49 25/213/48 46/130/100
f 165/152/113 164/151/112 63/226/146
f 63/226/146 164/151/112 174/227/129
f 70/17/17 114/228/147 137/110/71
f 36/229/145 155/230/35 181/231/148
f 33/131/101 152/232/149 37/233/51
f 94/234/50 33/131/101 37/233/51
f 56/235/150 150/236/151 126/237/152
f 96/238/153 56/235/150 126/237/152
f 143/239/134 95/12/12 19/240/11
f 5/241/2 28/242/25 192/243/26
f 103/244/154 104/74/64 134/73/63
f 103/244/154 134/73/63 102/245/155
f 166/246/114 79/247/156 121/248/157
f 79/249/156 166/250/114 8/251/116
f 79/252/156 61/253/91 78/254/90
f 104/74/64 138/255/107 49/256/106
f 205/257/158 153/258/139 202/259/159
f 123/260/82 94/261/50 3/262/160
f 103/244/154 102/263/155 65/264/73
f 65/265/73 102/266/155 169/267/161
f 29/268/76 163/269/45 30/38/36
f 204/270/162 141/271/18 194/272/163
f 31/273/164 109/274/68 168/275/67
f 81/276/118 84/122/61 41/277/15
f 84/122/61 142/278/13 41/277/15
f 41/277/15 66/279/96 81/276/118
f 82/190/133 1/280/165 95/191/12
f 112/52/47 130/281/120 25/53/48
f 183/282/121 130/281/120 112/52/47
f 12/283/166 171/284/108 11/285/167
f 18/27/10 28/26/25 27/286/168
f 64/287/169 76/288/28 91/289/170
f 146/290/171 38/129/49 33/131/101
f 173/291/172 43/292/173 178/293/80
f 19/50/11 20/128/41 21/199/135
f 19/50/11 21/199/135 143/294/134
f 85/295/123 78/296/90 45/297/89
f 85/298/123 121/299/157 78/300/90
f 10/301/5 119/146/110 34/302/174
f 100/303/52 10/304/5 34/305/174
f 184/306/59 122/307/175 142/308/13
f 139/156/117 113/309/176 101/157/111
f 229/310/177 233/311/178 49/312/106
f 152/313/149 136/314/6 111/315/179
f 136/76/6 10/316/5 111/317/179
f 228/318/180 224/319/181 98/320/131
f 175/321/182 159/322/183 166/323/114
f 166/324/114 159/325/183 167/326/115
f 73/327/94 176/328/184 154/329/92
f 169/330/161 8/155/116 179/331/185
f 24/332/98 135/333/69 26/334/128
f 24/335/98 26/336/128 91/337/170
f 96/338/153 91/339/170 55/340/102
f 54/341/127 55/340/102 91/339/170
f 135/342/69 24/343/98 77/344/97
f 130/345/120 77/124/97 25/126/48
f 5/346/2 4/347/1 128/348/105
f 44/349/109 117/181/130 174/180/129
f 22/350/186 44/351/109 174/352/129
f 6/353/187 184/354/59 120/355/188
f 188/356/8 187/357/189 186/358/190
f 198/359/191 43/360/173 70/361/17 206/362/16
f 75/363/27 58/364/34 46/365/100
f 189/366/119 66/279/96 62/24/23
f 39/367/60 190/368/87 52/369/44
f 47/370/58 127/371/57 3/372/160
f 127/373/57 123/374/82 3/375/160
f 147/376/40 52/377/44 190/378/87
f 52/377/44 147/376/40 53/379/39
f 188/380/8 186/381/190 67/382/132
f 93/383/192 99/384/193 181/385/148
f 99/386/193 112/387/47 7/388/83
f 42/389/14 165/390/113 87/391/95
f 14/392/9 188/393/8 67/394/132
f 65/395/73 50/396/194 191/397/74
f 102/398/155 22/399/186 61/400/91
f 61/401/91 22/402/186 164/403/112
f 163/404/45 107/405/195 30/406/36
f 138/139/107 115/23/22 171/140/108
f 201/407/196 43/408/173 198/409/191
f 201/407/196 197/410/197 43/408/173
f 47/411/58 128/412/105 4/145/1
f 132/413/198 148/414/199 190/415/87
f 132/413/198 147/197/40 148/414/199
f 147/416/40 132/417/198 74/418/78
f 14/419/9 74/420/78 132/421/198
f 71/422/200 14/423/9 132/424/198
f 179/425/185 8/426/116 167/427/115
f 20/428/41 92/429/99 182/430/85
f 159/431/183 158/432/122 84/70/61
f 132/433/198 133/72/62 59/71/21
f 75/434/27 24/435/98 76/436/28
f 162/437/70 109/80/68 72/438/55
f 49/439/106 171/284/108 12/283/166
f 32/440/144 42/389/14 122/307/175
f 85/441/123 175/442/182 121/443/157
f 6/444/187 118/121/86 39/445/60
f 97/63/56 150/236/151 56/235/150
f 104/446/64 49/447/106 105/448/84
f 174/449/129 68/450/93 63/451/146
f 68/450/93 174/449/129 69/452/201
f 119/453/110 4/454/1 34/455/174
f 150/236/151 31/456/164 93/383/192
f 91/457/170 96/458/153 64/459/169
f 155/460/35 58/461/34 48/462/29
f 95/191/12 1/280/165 192/463/26
f 18/10/10 95/12/12 192/464/26
f 91/465/170 76/466/28 24/435/98
f 102/467/155 61/468/91 79/469/156
f 184/470/59 106/471/43 187/472/189
f 184/473/59 149/474/88 122/475/175
f 168/164/67 135/476/69 130/165/120
f 155/477/35 35/45/42 57/44/33
f 123/478/82 127/479/57 7/480/83
f 157/61/54 97/63/56 139/156/117
f 123/481/82 38/482/49 146/483/171
f 209/484/202 139/485/117 140/486/203 200/487/204
f 200/487/204 140/486/203 153/488/139 205/489/158
f 37/56/51 27/490/168 28/57/25
f 121/491/157 79/492/156 78/493/90
f 140/494/203 156/207/104 153/495/139
f 234/496/205 68/450/93 236/497/206
f 217/498/207 73/499/94 68/500/93 234/501/205
f 100/59/52 34/302/174 125/60/53
f 185/502/208 23/503/32 124/504/31
f 125/505/53 185/506/208 124/33/31
f 4/507/1 2/508/209 34/302/174
f 34/302/174 2/508/209 125/60/53
f 129/509/3 2/510/209 4/511/1
f 23/512/32 185/513/208 172/514/210
f 9/515/4 119/146/110 10/301/5
f 185/516/208 89/40/38 172/517/210
f 118/518/86 120/519/188 142/520/13
f 80/521/125 16/522/211 116/523/126
f 84/524/61 158/525/122 59/526/21
f 173/527/172 114/228/147 70/17/17
f 43/528/173 173/527/172 70/17/17
f 108/529/77 29/530/76 30/531/36
f 8/532/116 169/533/161 79/534/156
f 102/535/155 79/534/156 169/533/161
f 170/25/24 86/536/212 176/537/184
f 150/236/151 97/63/56 72/62/55
f 148/538/199 147/539/40 190/540/87
f 2/508/209 185/516/208 125/60/53
f 145/541/124 85/542/123 32/543/144
f 40/544/20 145/545/124 149/546/88
f 181/385/148 7/547/83 36/548/145
f 96/549/153 126/550/152 64/551/169
f 22/552/186 174/553/129 164/554/112
f 72/62/55 31/456/164 150/236/151
f 99/555/193 7/556/83 181/557/148
f 196/558/213 193/19/19 141/18/18
f 100/559/52 161/560/30 111/561/179
f 47/144/58 119/146/110 35/562/42
f 119/146/110 9/515/4 35/562/42
f 97/63/56 15/563/214 139/156/117
f 15/564/214 140/565/203 139/566/117
f 75/212/27 46/130/100 25/213/48
f 100/567/52 111/317/179 10/568/5
f 152/232/149 27/286/168 37/233/51
f 111/569/179 27/570/168 152/571/149
f 113/572/176 70/573/17 101/574/111
f 113/575/176 141/576/18 70/577/17
f 62/24/23 66/279/96 170/25/24
f 171/189/108 176/537/184 73/578/94
f 133/579/62 132/580/198 190/415/87
f 208/581/215 139/156/117 209/582/202
f 123/583/82 146/584/171 94/585/50
f 161/32/30 100/586/52 124/33/31
f 68/450/93 154/329/92 63/451/146
f 177/587/46 20/588/41 19/589/11
f 165/590/113 63/451/146 154/329/92
f 102/591/155 134/592/63 22/593/186
f 120/355/188 184/354/59 142/594/13
f 189/595/119 167/326/115 81/596/118
f 42/597/14 142/598/13 122/599/175
f 80/521/125 137/178/71 114/600/147
f 173/601/172 80/521/125 114/600/147
f 173/602/172 16/603/211 80/604/125
f 42/605/14 32/606/144 85/607/123
f 107/608/195 88/39/37 30/38/36
f 87/609/95 165/610/113 86/611/212
f 165/590/113 154/329/92 86/612/212
f 26/613/128 135/614/69 151/615/72
f 215/616/216 12/617/166 213/618/217
f 86/619/212 154/620/92 176/621/184
f 57/622/33 9/623/4 136/76/6
f 7/547/83 35/562/42 36/548/145
f 127/624/57 35/562/42 7/547/83
f 167/625/115 159/626/183 81/627/118
f 149/628/88 188/629/8 13/630/7
f 188/356/8 149/631/88 187/357/189
f 107/632/195 52/633/44 53/634/39
f 163/635/45 52/636/44 107/637/195
f 203/638/79 207/639/218 178/640/80
f 64/641/169 48/642/29 76/643/28
f 64/551/169 126/550/152 48/644/29
f 111/645/179 161/646/30 92/647/99
f 161/32/30 23/34/32 92/648/99
f 103/649/154 65/650/73 104/651/64
f 31/652/164 72/653/55 109/654/68
f 156/134/104 140/565/203 15/564/214
f 55/655/102 156/656/104 15/657/214
f 94/658/50 146/659/171 33/660/101
f 118/518/86 6/661/187 120/519/188
f 22/350/186 134/662/63 44/663/109
f 86/664/212 170/665/24 87/115/95
f 170/665/24 66/666/96 87/115/95
f 158/667/122 175/668/182 85/669/123
f 175/670/182 158/671/122 159/672/183
f 142/278/13 84/122/61 118/121/86
f 160/673/136 90/674/219 51/675/65
f 90/676/219 44/677/109 51/678/65
f 2/508/209 89/40/38 185/516/208
f 1/679/165 89/680/38 2/681/209
f 20/682/41 147/683/40 21/684/135
f 106/685/43 163/269/45 144/686/140
f 67/687/132 106/688/43 144/689/140
f 67/687/132 186/690/190 106/688/43
f 192/691/26 1/692/165 129/693/3
f 1/694/165 2/695/209 129/696/3
f 38/697/49 123/698/82 112/699/47
f 90/700/219 117/181/130 44/349/109
f 137/701/71 26/702/128 151/703/72
f 56/704/150 15/705/214 97/63/56
f 115/23/22 138/139/107 191/706/74
f 57/707/33 136/708/6 58/709/34
f 182/710/85 88/711/37 53/712/39
f 93/713/192 31/714/164 168/715/67
f 168/716/67 183/717/121 99/718/193
f 93/713/192 168/715/67 99/719/193
f 82/720/133 89/721/38 1/722/165
f 194/723/163 141/724/18 113/725/176 195/726/220
f 195/727/220 113/309/176 139/156/117 208/581/215
f 172/517/210 89/40/38 88/39/37
f 51/75/65 17/201/137 160/200/136
f 105/97/84 17/201/137 51/75/65
f 159/728/183 84/122/61 81/276/118
f 116/729/126 16/522/211 178/92/80
f 156/730/104 116/731/126 178/732/80
f 227/733/221 228/734/180 98/735/131
f 227/736/221 98/737/131 223/738/222
f 72/739/55 157/740/54 162/741/70
f 83/742/103 54/179/127 116/523/126
f 116/743/126 156/134/104 83/133/103
f 55/744/102 54/745/127 83/746/103
f 179/747/185 62/24/23 191/748/74
f 189/749/119 62/24/23 179/747/185
f 191/750/74 62/751/23 115/752/22
f 42/753/14 45/754/89 165/755/113
f 45/756/89 42/389/14 85/757/123
f 58/758/34 110/759/66 46/130/100
f 82/760/133 108/169/77 89/761/38
f 50/762/194 65/763/73 169/267/161
f 121/764/157 175/765/182 166/766/114
f 143/767/134 74/768/78 108/769/77
f 21/199/135 74/770/78 143/294/134
f 181/385/148 150/236/151 93/383/192
f 181/771/148 126/772/152 150/773/151
f 122/774/175 149/775/88 32/776/144
f 99/777/193 183/282/121 112/52/47
f 13/7/7 14/9/9 71/778/200
f 132/433/198 59/71/21 71/779/200
f 59/780/21 13/7/7 71/778/200
f 88/711/37 107/781/195 53/712/39
f 65/782/73 131/783/75 104/784/64
f 131/785/75 138/786/107 104/787/64
f 138/139/107 131/788/75 191/706/74
f 29/789/76 74/790/78 67/791/132
f 144/792/140 29/793/76 67/794/132
f 91/795/170 26/177/128 54/179/127
f 164/796/112 45/797/89 61/798/91
f 110/799/66 136/800/6 152/801/149
f 110/802/66 152/803/149 33/804/101
f 110/759/66 33/131/101 46/130/100
f 171/805/108 73/806/94 11/285/167
f 174/227/129 98/807/131 69/808/201
f 177/809/46 111/810/179 92/811/99
f 177/51/46 18/27/10 27/286/168
f 111/810/179 177/809/46 27/812/168
f 169/330/161 179/331/185 50/813/194
f 179/814/185 167/427/115 189/815/119
f 179/331/185 191/816/74 50/813/194
f 192/463/26 129/817/3 5/818/2
f 173/819/172 178/820/80 16/821/211
f 52/822/44 106/823/43 39/824/60
f 180/825/141 105/826/84 49/827/106
f 130/828/120 135/829/69 77/830/97
f 171/189/108 170/25/24 176/537/184
f 88/711/37 182/710/85 172/831/210
f 23/512/32 172/514/210 182/832/85
f 70/833/17 162/834/70 101/835/111
f 48/836/29 126/837/152 155/838/35
f 155/838/35 126/837/152 181/839/148
f 40/840/20 59/841/21 158/842/122
f 40/843/20 158/844/122 145/845/124
f 184/306/59 187/472/189 149/846/88
f 187/847/189 106/848/43 186/849/190
f 96/549/153 55/850/102 15/851/214
f 56/852/150 96/549/153 15/851/214
f 3/853/160 128/854/105 47/855/58
f 28/856/25 3/857/160 94/858/50
f 128/859/105 3/860/160 28/861/25
f 6/862/187 39/863/60 184/864/59
f 182/710/85 92/865/99 23/866/32
f 178/640/80 207/639/218 202/867/159 153/206/139
f 43/408/173 197/410/197 199/93/81 178/92/80
f 141/868/18 204/869/162 196/870/213
f 208/581/215 209/484/202 200/487/204 205/257/158 202/867/159 207/639/218 203/91/79 199/93/81 197/410/197 201/407/196 198/359/191 206/16/16 193/19/19 196/870/213 204/270/162 194/723/163 195/727/220
f 60/202/138 235/871/223 237/872/224 160/200/136
f 17/201/137 230/217/142 231/873/225 60/202/138
f 11/874/167 226/875/226 225/876/227
f 49/877/106 233/878/178 222/879/228 180/218/141
f 90/880/219 232/881/229 221/882/230 117/883/130
f 98/884/131 117/181/130 221/885/230 223/886/222
f 68/450/93 220/887/231 236/497/206
f 60/888/138 219/889/232 235/890/223
f 60/891/138 218/892/233 219/893/232
f 11/894/167 73/327/94 217/895/207 226/896/226
f 11/285/167 225/897/227 216/898/234
f 49/899/106 12/900/166 215/901/216 229/902/177
f 98/320/131 224/319/181 214/903/235 69/452/201
f 69/452/201 214/903/235 220/887/231 68/450/93
f 11/285/167 216/898/234 213/904/217 12/283/166
f 180/218/141 222/905/228 212/219/143
f 90/880/219 211/906/236 232/881/229
f 160/673/136 237/907/224 211/908/236 90/909/219
f 60/891/138 231/910/225 210/911/237
f 60/912/138 210/913/237 218/914/233
f 226/875/226 217/895/207 215/901/216
f 235/890/223 219/889/232 218/892/233
f 235/890/223 218/892/233 210/913/237
f 232/881/229 211/906/236 237/907/224
f 237/907/224 235/890/223 231/910/225
f 235/890/223 210/913/237 231/910/225
f 221/885/230 232/881/229 214/903/235
f 232/881/229 237/907/224 236/497/206
f 228/318/180 227/733/221 223/738/222
f 223/738/222 221/885/230 214/903/235
f 232/881/229 236/497/206 214/903/235
f 237/907/224 231/910/225 230/217/142
f 230/217/142 212/219/143 233/878/178
f 212/219/143 222/905/228 233/878/178
f 233/878/178 229/310/177 215/901/216
f 237/907/224 230/217/142 236/497/206
f 224/319/181 228/318/180 223/738/222
f 236/497/206 220/887/231 214/903/235
f 214/903/235 224/319/181 223/738/222
f 230/217/142 233/878/178 234/501/205
f 236/497/206 230/217/142 234/501/205
f 215/901/216 213/618/217 226/875/226
f 213/618/217 216/898/234 225/897/227
f 233/878/178 215/901/216 234/501/205
f 217/895/207 234/501/205 215/901/216
f 225/897/227 226/875/226 213/618/217
