# Blender v2.79 (sub 0) OBJ File: 'redo_fixed_360_joints.blend'
# www.blender.org
mtllib sungaya_inexpectata_31mg.mtl
o 39-m-r-tibia_Sungaya_inexpectata_31mg.042
v 0.000018 0.000007 -0.000138
v 0.000021 -0.000050 -0.000218
v 0.000537 0.000029 -0.000301
v 0.000269 -0.000061 -0.000330
v 0.000307 0.000003 -0.000264
v -0.000720 -0.000085 0.000141
v 0.000892 0.000047 -0.000444
v -0.000960 0.000084 0.000505
v 0.000611 -0.000107 -0.000381
v 0.000374 -0.000122 -0.000330
v -0.001553 -0.000173 0.000491
v -0.001555 -0.000151 0.000539
v -0.000624 0.000058 0.000154
v -0.000433 0.000037 0.000118
v 0.001461 -0.000066 -0.000479
v 0.001693 0.000025 -0.000333
v -0.001514 0.000009 0.000668
v 0.000189 -0.000038 -0.000119
v -0.000044 -0.000033 -0.000020
v -0.000141 -0.000083 0.000011
v -0.000214 -0.000052 0.000064
v -0.001348 0.000139 0.000504
v -0.000053 -0.000132 -0.000152
v 0.001216 -0.000030 -0.000292
v 0.000987 0.000004 -0.000287
v 0.001422 0.000027 -0.000299
v 0.000365 -0.000091 -0.000160
v 0.000418 0.000009 -0.000207
v -0.000338 0.000022 -0.000048
v -0.000297 -0.000015 -0.000115
v 0.001227 0.000100 -0.000513
v -0.000911 0.000027 0.000211
v 0.000622 -0.000024 -0.000229
v 0.000249 -0.000095 -0.000336
v 0.000749 -0.000053 -0.000470
v 0.000901 -0.000034 -0.000479
v 0.000527 -0.000050 -0.000194
v 0.000901 0.000024 -0.000280
v -0.000611 -0.000108 0.000088
v -0.000746 0.000047 0.000196
v -0.000949 -0.000058 0.000273
v -0.001022 -0.000009 0.000234
v 0.001839 0.000125 -0.000375
v -0.001443 0.000150 0.000582
v -0.001187 0.000086 0.000396
v 0.000825 -0.000031 -0.000260
v 0.000521 -0.000011 -0.000393
v 0.001035 -0.000090 -0.000398
v -0.001489 -0.000110 0.000621
v -0.001084 -0.000022 0.000589
v -0.001432 0.000128 0.000644
v -0.000461 -0.000125 0.000015
v -0.000305 -0.000132 -0.000040
v 0.001458 -0.000035 -0.000292
v 0.001464 -0.000074 -0.000395
v 0.001345 -0.000045 -0.000494
v 0.000780 -0.000110 -0.000362
v 0.000849 -0.000097 -0.000328
v -0.000609 0.000031 0.000248
v -0.001557 0.000099 0.000683
v -0.001220 0.000137 0.000511
v -0.001066 -0.000088 0.000500
v -0.001409 0.000071 0.000387
v 0.001215 -0.000072 -0.000398
v -0.001121 -0.000004 0.000625
v -0.001015 -0.000059 0.000350
v -0.000483 0.000041 0.000038
v -0.001523 0.000038 0.000400
v -0.001521 0.000131 0.000409
v 0.001683 0.000162 -0.000427
v -0.000468 0.000034 0.000169
v 0.001342 0.000121 -0.000532
v -0.001476 -0.000079 0.000446
v -0.000289 0.000032 0.000059
v 0.000988 -0.000072 -0.000287
v 0.001145 -0.000068 -0.000328
v 0.001162 0.000031 -0.000300
v -0.001072 0.000116 0.000431
v -0.001012 0.000138 0.000503
v 0.001600 0.000045 -0.000318
v -0.000846 -0.000054 0.000404
v -0.000115 0.000021 -0.000114
v 0.001539 -0.000066 -0.000343
v -0.000753 -0.000061 0.000347
v -0.000934 0.000071 0.000299
v -0.001185 -0.000028 0.000338
v -0.001086 -0.000011 0.000265
v -0.000213 -0.000087 -0.000188
v -0.000155 -0.000032 -0.000175
v -0.001508 0.000170 0.000610
v 0.001297 -0.000061 -0.000306
v -0.000102 -0.000098 -0.000028
v 0.001075 0.000035 -0.000519
v 0.000608 0.000014 -0.000241
v -0.000034 0.000010 -0.000053
v 0.001313 -0.000083 -0.000448
v 0.001365 0.000031 -0.000526
v -0.001608 0.000168 0.000414
v 0.001007 0.000079 -0.000434
v 0.000212 -0.000128 -0.000276
v 0.001593 0.000185 -0.000512
v -0.001167 0.000134 0.000575
v -0.001191 0.000074 0.000627
v -0.001303 -0.000007 0.000663
v -0.001459 -0.000070 0.000689
v -0.000578 -0.000049 -0.000030
v -0.000356 -0.000081 -0.000115
v -0.000225 0.000023 -0.000083
v 0.001288 0.000136 -0.000426
v 0.000631 -0.000085 -0.000241
v 0.000356 -0.000130 -0.000218
v 0.000950 0.000051 -0.000346
v 0.001715 0.000164 -0.000513
v 0.001605 0.000123 -0.000342
v -0.001234 -0.000092 0.000499
v 0.001664 -0.000057 -0.000344
v -0.001540 0.000175 0.000508
v -0.000696 -0.000057 0.000253
v 0.000476 -0.000073 -0.000392
v -0.000795 -0.000090 0.000201
v -0.000961 0.000091 0.000371
v -0.000957 -0.000027 0.000193
v 0.000757 0.000040 -0.000312
v 0.000041 -0.000131 -0.000191
v 0.000084 -0.000086 -0.000273
v 0.001152 -0.000056 -0.000462
v 0.000702 0.000031 -0.000417
v 0.000410 0.000004 -0.000330
v 0.000200 -0.000005 -0.000212
v 0.001070 0.000051 -0.000322
v -0.001218 -0.000059 0.000619
v -0.000465 -0.000013 0.000179
v -0.000593 -0.000030 0.000245
v -0.001294 0.000119 0.000620
v 0.001237 0.000090 -0.000329
v 0.000574 -0.000121 -0.000308
v 0.001504 0.000109 -0.000324
v -0.001334 -0.000070 0.000613
v 0.001697 0.000036 -0.000563
v 0.001615 -0.000060 -0.000491
v 0.001836 0.000183 -0.000509
v -0.000886 -0.000073 0.000222
v -0.000157 0.000023 0.000005
v -0.000451 0.000012 -0.000020
v -0.000828 0.000055 0.000221
v 0.000739 0.000025 -0.000262
v -0.000300 -0.000060 0.000094
v -0.000423 -0.000059 0.000149
v -0.000798 0.000013 0.000122
v 0.001196 0.000033 -0.000547
v 0.001422 0.000115 -0.000343
v 0.000506 -0.000103 -0.000210
v 0.001739 -0.000091 -0.000471
v -0.001430 0.000020 0.000350
v 0.000941 -0.000076 -0.000426
v 0.001611 -0.000103 -0.000437
v 0.001431 0.000145 -0.000515
v -0.000759 0.000061 0.000341
v -0.000787 -0.000029 0.000384
v -0.001517 0.000111 0.000637
v 0.000158 -0.000133 -0.000177
v 0.001435 0.000156 -0.000440
v -0.000469 -0.000051 -0.000072
v -0.001300 0.000119 0.000432
v -0.001222 0.000037 0.000348
v -0.000888 0.000094 0.000439
v -0.000914 -0.000004 0.000481
v 0.001124 0.000103 -0.000456
v -0.001062 0.000030 0.000581
v -0.001151 -0.000081 0.000416
v -0.001404 -0.000116 0.000487
v -0.000168 -0.000090 -0.000212
v 0.001729 0.000112 -0.000329
v -0.001461 0.000141 0.000423
v -0.000812 0.000090 0.000394
v -0.001385 -0.000049 0.000381
v 0.000169 -0.000100 -0.000108
v 0.001852 -0.000047 -0.000359
v -0.001006 -0.000049 0.000558
v -0.001529 -0.000069 0.000681
v 0.000972 -0.000016 -0.000498
v -0.000217 -0.000140 -0.000076
v 0.001035 0.000061 -0.000392
v -0.000747 -0.000037 0.000083
v -0.000079 -0.000086 -0.000243
v -0.000625 0.000004 0.000035
v -0.000698 -0.000019 0.000048
v -0.000598 0.000049 0.000094
v -0.000976 -0.000070 0.000504
v -0.000487 -0.000079 0.000151
v -0.001155 -0.000076 0.000564
v 0.000195 -0.000017 -0.000139
v 0.001853 0.000178 -0.000496
v 0.001840 0.000114 -0.000534
v 0.001833 0.000057 -0.000555
v 0.001850 0.000180 -0.000503
v 0.001889 0.000080 -0.000395
v 0.001881 0.000145 -0.000416
v 0.001893 -0.000020 -0.000384
v 0.001839 -0.000027 -0.000538
v 0.001886 0.000125 -0.000401
v 0.001855 -0.000065 -0.000493
v 0.001895 -0.000051 -0.000380
v 0.001845 0.000173 -0.000518
v 0.001841 -0.000033 -0.000533
v 0.001871 0.000161 -0.000445
v 0.001869 -0.000056 -0.000453
v 0.001831 0.000046 -0.000560
v 0.001837 -0.000017 -0.000544
v -0.001558 0.000096 0.000685
v -0.001573 0.000164 0.000633
v -0.001557 -0.000030 0.000686
v -0.001600 -0.000191 0.000537
v -0.001635 0.000094 0.000426
v -0.001593 -0.000166 0.000562
v -0.001607 -0.000206 0.000516
v -0.001616 -0.000130 0.000485
v -0.001557 0.000099 0.000686
v -0.001557 0.000101 0.000687
v -0.001635 0.000086 0.000425
v -0.001613 0.000184 0.000502
v -0.001560 -0.000090 0.000673
v -0.001629 0.000177 0.000449
v -0.001636 0.000112 0.000424
v -0.001609 -0.000195 0.000508
v -0.001612 -0.000173 0.000500
v -0.001638 0.000181 0.000419
v -0.001639 0.000157 0.000415
v -0.001576 -0.000151 0.000619
v -0.001557 -0.000013 0.000685
v -0.001558 0.000084 0.000684
v -0.001601 0.000183 0.000541
v -0.001568 -0.000119 0.000647
v -0.001625 -0.000064 0.000457
v -0.001559 0.000102 0.000682
v -0.001631 0.000002 0.000438
v -0.001571 0.000141 0.000642
vt 0.391454 0.190893
vt 0.392341 0.191212
vt 0.394488 0.190787
vt 0.963761 0.376193
vt 0.965362 0.374634
vt 0.965910 0.371819
vt 0.767605 0.445608
vt 0.765421 0.443639
vt 0.766118 0.446092
vt 0.638757 0.748784
vt 0.642206 0.754232
vt 0.641186 0.751409
vt 0.043628 0.309539
vt 0.045511 0.310035
vt 0.044508 0.309237
vt 0.532695 0.377520
vt 0.533070 0.376248
vt 0.532959 0.375926
vt 0.529375 0.378086
vt 0.002249 0.794294
vt 0.004114 0.795934
vt 0.004351 0.794080
vt 0.809719 0.252575
vt 0.806213 0.254915
vt 0.809126 0.257610
vt 0.182014 0.037502
vt 0.183951 0.039403
vt 0.186838 0.040272
vt 0.120641 0.676872
vt 0.121380 0.675431
vt 0.119438 0.677201
vt 0.565241 0.690902
vt 0.568553 0.694267
vt 0.568498 0.691569
vt 0.198656 0.386526
vt 0.197420 0.387106
vt 0.198242 0.388059
vt 0.459902 0.064270
vt 0.462931 0.059807
vt 0.460580 0.060184
vt 0.924742 0.611551
vt 0.924234 0.613920
vt 0.926659 0.611746
vt 0.293123 0.925795
vt 0.296727 0.927198
vt 0.293295 0.924530
vt 0.590809 0.604394
vt 0.588536 0.603039
vt 0.589405 0.605622
vt 0.193130 0.045040
vt 0.188242 0.039029
vt 0.554167 0.826953
vt 0.554397 0.829566
vt 0.556606 0.826200
vt 0.619415 0.291678
vt 0.621654 0.295424
vt 0.621143 0.291878
vt 0.465749 0.052478
vt 0.467443 0.052243
vt 0.467780 0.050607
vt 0.503194 0.022176
vt 0.499825 0.022156
vt 0.501188 0.024378
vt 0.130178 0.720768
vt 0.130384 0.717664
vt 0.127769 0.722403
vt 0.772843 0.960838
vt 0.770732 0.962418
vt 0.772309 0.962580
vt 0.698054 0.775762
vt 0.693235 0.772768
vt 0.692582 0.773800
vt 0.735177 0.064031
vt 0.737855 0.060763
vt 0.731986 0.063201
vt 0.256663 0.388586
vt 0.251831 0.389048
vt 0.254245 0.389694
vt 0.516586 0.379314
vt 0.517470 0.380472
vt 0.518993 0.378143
vt 0.812411 0.345731
vt 0.812529 0.344508
vt 0.811072 0.345136
vt 0.403048 0.504440
vt 0.404053 0.504443
vt 0.403226 0.503209
vt 0.970228 0.623335
vt 0.972763 0.622213
vt 0.970502 0.622396
vt 0.139543 0.006988
vt 0.139685 0.007611
vt 0.140999 0.007691
vt 0.937722 0.181853
vt 0.937050 0.183484
vt 0.938719 0.183585
vt 0.733554 0.056203
vt 0.017056 0.839357
vt 0.015979 0.837899
vt 0.015820 0.839840
vt 0.417131 0.779226
vt 0.415833 0.776905
vt 0.415897 0.778435
vt 0.206291 0.988265
vt 0.206289 0.989443
vt 0.209309 0.987918
vt 0.928948 0.434618
vt 0.930411 0.433430
vt 0.928816 0.430984
vt 0.522623 0.378945
vt 0.523624 0.381697
vt 0.844339 0.455837
vt 0.846365 0.455562
vt 0.845908 0.455099
vt 0.621346 0.668484
vt 0.618271 0.665615
vt 0.616639 0.666924
vt 0.912665 0.531332
vt 0.910933 0.534029
vt 0.913677 0.532017
vt 0.800059 0.268173
vt 0.799823 0.271351
vt 0.803657 0.266841
vt 0.584402 0.484332
vt 0.588726 0.479292
vt 0.584124 0.482684
vt 0.193034 0.042335
vt 0.194156 0.044222
vt 0.166289 0.028063
vt 0.174860 0.031290
vt 0.169081 0.027449
vt 0.563356 0.398330
vt 0.563093 0.401194
vt 0.565651 0.400177
vt 0.600782 0.797972
vt 0.604356 0.797695
vt 0.603598 0.794994
vt 0.813668 0.245220
vt 0.809751 0.245991
vt 0.813242 0.250469
vt 0.776007 0.439237
vt 0.779210 0.437621
vt 0.777856 0.437901
vt 0.480286 0.041734
vt 0.476903 0.042202
vt 0.474624 0.046858
vt 0.952809 0.359711
vt 0.952782 0.360659
vt 0.954241 0.361987
vt 0.675980 0.674288
vt 0.674026 0.674443
vt 0.674855 0.676166
vt 0.725228 0.074420
vt 0.727486 0.072360
vt 0.723900 0.072276
vt 0.508522 0.019415
vt 0.507371 0.014210
vt 0.537203 0.091281
vt 0.538254 0.092904
vt 0.538137 0.090288
vt 0.180448 0.278529
vt 0.176022 0.275969
vt 0.175793 0.279004
vt 0.199688 0.652620
vt 0.198333 0.654870
vt 0.199868 0.656877
vt 0.939126 0.599913
vt 0.939550 0.597851
vt 0.938574 0.598524
vt 0.338835 0.544984
vt 0.337599 0.545400
vt 0.338999 0.546097
vt 0.920268 0.201126
vt 0.920808 0.200115
vt 0.919477 0.199537
vt 0.147169 0.014860
vt 0.147636 0.018724
vt 0.151281 0.018187
vt 0.151040 0.015327
vt 0.687461 0.677194
vt 0.683762 0.679238
vt 0.684054 0.680801
vt 0.530647 0.332567
vt 0.531281 0.333824
vt 0.531624 0.332640
vt 0.542342 0.463621
vt 0.540427 0.462689
vt 0.541389 0.464764
vt 0.808410 0.248500
vt 0.574098 0.326946
vt 0.575626 0.329475
vt 0.577912 0.326831
vt 0.520432 0.381899
vt 0.907515 0.202889
vt 0.906124 0.201496
vt 0.905899 0.202692
vt 0.200138 0.049987
vt 0.197865 0.048339
vt 0.199188 0.051563
vt 0.739942 0.057470
vt 0.740756 0.055395
vt 0.737046 0.055709
vt 0.970634 0.621467
vt 0.972120 0.621113
vt 0.970869 0.620441
vt 0.470619 0.625120
vt 0.473108 0.624710
vt 0.471968 0.620342
vt 0.587611 0.601248
vt 0.586354 0.600593
vt 0.157822 0.020809
vt 0.164015 0.025494
vt 0.165226 0.023445
vt 0.149726 0.834177
vt 0.151778 0.833661
vt 0.149335 0.831351
vt 0.737054 0.053297
vt 0.736510 0.053053
vt 0.734801 0.053741
vt 0.814219 0.551942
vt 0.811990 0.553500
vt 0.813114 0.553962
vt 0.178370 0.275341
vt 0.182521 0.275378
vt 0.179185 0.273981
vt 0.672318 0.677217
vt 0.670960 0.680389
vt 0.527080 0.381250
vt 0.992944 0.561044
vt 0.990346 0.557691
vt 0.990297 0.558786
vt 0.177932 0.033185
vt 0.179620 0.032508
vt 0.173767 0.032642
vt 0.496941 0.023009
vt 0.493592 0.024993
vt 0.495828 0.025804
vt 0.495486 0.022009
vt 0.643771 0.755507
vt 0.642408 0.752723
vt 0.951636 0.445313
vt 0.953980 0.446736
vt 0.953272 0.443847
vt 0.732082 0.066643
vt 0.734466 0.065962
vt 0.851838 0.461205
vt 0.851186 0.463294
vt 0.852754 0.461955
vt 0.737673 0.830783
vt 0.737486 0.829923
vt 0.736356 0.830847
vt 0.198994 0.934682
vt 0.198294 0.933528
vt 0.197133 0.935634
vt 0.731947 0.057957
vt 0.731155 0.059637
vt 0.570267 0.505934
vt 0.569544 0.506362
vt 0.570264 0.506788
vt 0.303083 0.957731
vt 0.299427 0.956764
vt 0.299299 0.958521
vt 0.728883 0.067563
vt 0.732293 0.069768
vt 0.141830 0.991457
vt 0.140476 0.990080
vt 0.138764 0.992696
vt 0.457624 0.066969
vt 0.455472 0.067689
vt 0.578433 0.668150
vt 0.578119 0.667253
vt 0.578104 0.668820
vt 0.075625 0.884944
vt 0.072780 0.887564
vt 0.076085 0.887295
vt 0.805495 0.264184
vt 0.801676 0.260771
vt 0.801155 0.263915
vt 0.803968 0.258993
vt 0.577902 0.323819
vt 0.557275 0.825512
vt 0.555102 0.824278
vt 0.562261 0.773604
vt 0.562315 0.771957
vt 0.560364 0.773644
vt 0.182598 0.035325
vt 0.567107 0.389322
vt 0.567462 0.391793
vt 0.568578 0.390550
vt 0.170763 0.031124
vt 0.975589 0.524531
vt 0.972204 0.524893
vt 0.973741 0.525642
vt 0.195871 0.048800
vt 0.145037 0.452010
vt 0.143607 0.452681
vt 0.144671 0.453417
vt 0.264849 0.412783
vt 0.266436 0.412180
vt 0.265307 0.411740
vt 0.472920 0.044739
vt 0.471250 0.047756
vt 0.524337 0.089663
vt 0.525416 0.088718
vt 0.525991 0.087263
vt 0.518026 0.528346
vt 0.515123 0.530377
vt 0.513208 0.533884
vt 0.509733 0.014580
vt 0.466709 0.160078
vt 0.465593 0.160582
vt 0.466566 0.160445
vt 0.022364 0.842520
vt 0.024076 0.842418
vt 0.021981 0.841134
vt 0.262356 0.390296
vt 0.260391 0.388400
vt 0.240339 0.405017
vt 0.240061 0.404351
vt 0.239151 0.406331
vt 0.211090 0.064045
vt 0.212017 0.064169
vt 0.210926 0.061960
vt 0.479405 0.962705
vt 0.482707 0.962871
vt 0.479669 0.960471
vt 0.232975 0.408220
vt 0.232741 0.404403
vt 0.230737 0.405812
vt 0.727890 0.069517
vt 0.724850 0.069178
vt 0.614034 0.787100
vt 0.612783 0.786635
vt 0.613324 0.788468
vt 0.919505 0.566263
vt 0.918122 0.566955
vt 0.917953 0.569357
vt 0.565539 0.391846
vt 0.565223 0.395888
vt 0.567162 0.394356
vt 0.567317 0.396550
vt 0.336944 0.861745
vt 0.339715 0.862310
vt 0.338988 0.860436
vt 0.587584 0.481548
vt 0.884606 0.620736
vt 0.882345 0.618799
vt 0.883051 0.621370
vt 0.687867 0.682144
vt 0.199180 0.831228
vt 0.197310 0.829792
vt 0.197812 0.831544
vt 0.875784 0.315174
vt 0.878632 0.315781
vt 0.876472 0.313906
vt 0.783650 0.974484
vt 0.782309 0.975714
vt 0.783437 0.976212
vt 0.774089 0.546365
vt 0.774249 0.546737
vt 0.777030 0.544778
vt 0.774698 0.545327
vt 0.945324 0.241117
vt 0.946530 0.240407
vt 0.945211 0.239848
vt 0.808783 0.261211
vt 0.607882 0.626972
vt 0.606422 0.629280
vt 0.609661 0.629588
vt 0.660943 0.607986
vt 0.661548 0.609273
vt 0.663091 0.606125
vt 0.044946 0.851176
vt 0.043330 0.854572
vt 0.047266 0.851996
vt 0.482734 0.159592
vt 0.484032 0.160241
vt 0.483964 0.158749
vt 0.483987 0.157417
vt 0.275354 0.152923
vt 0.276899 0.152314
vt 0.274537 0.152607
vt 0.493584 0.029124
vt 0.490085 0.030583
vt 0.491784 0.031618
vt 0.844411 0.510826
vt 0.844291 0.513893
vt 0.846312 0.512166
vt 0.512056 0.536219
vt 0.509734 0.539496
vt 0.509633 0.541385
vt 0.843605 0.808601
vt 0.842564 0.809948
vt 0.844223 0.810117
vt 0.606256 0.150363
vt 0.606876 0.148737
vt 0.605478 0.149202
vt 0.078611 0.945929
vt 0.078259 0.943797
vt 0.075160 0.944916
vt 0.167894 0.587696
vt 0.166636 0.586582
vt 0.166792 0.587928
vt 0.157899 0.718398
vt 0.160202 0.718846
vt 0.158841 0.717514
vt 0.136904 0.011276
vt 0.136948 0.011288
vt 0.137909 0.011961
vt 0.137814 0.010054
vt 0.479006 0.043365
vt 0.477485 0.045094
vt 0.203088 0.054030
vt 0.205649 0.053734
vt 0.203420 0.052475
vt 0.844247 0.355581
vt 0.845292 0.355112
vt 0.847456 0.352912
vt 0.986869 0.251246
vt 0.987300 0.249893
vt 0.985745 0.251578
vt 0.217171 0.043026
vt 0.216642 0.042458
vt 0.216020 0.043819
vt 0.881282 0.337666
vt 0.879578 0.337660
vt 0.880751 0.338843
vt 0.660874 0.113923
vt 0.661166 0.113154
vt 0.660420 0.112037
vt 0.696594 0.776985
vt 0.695110 0.777848
vt 0.690643 0.769025
vt 0.623049 0.789755
vt 0.621958 0.788677
vt 0.619434 0.788650
vt 0.522703 0.377369
vt 0.519643 0.375808
vt 0.560236 0.776708
vt 0.514958 0.534450
vt 0.041484 0.869887
vt 0.041993 0.871468
vt 0.044593 0.872343
vt 0.797041 0.267288
vt 0.797001 0.269146
vt 0.931973 0.916247
vt 0.931570 0.914885
vt 0.930165 0.914558
vt 0.236185 0.403337
vt 0.234072 0.403084
vt 0.235697 0.405959
vt 0.237727 0.403621
vt 0.981742 0.602210
vt 0.982627 0.603651
vt 0.982719 0.601023
vt 0.498485 0.026554
vt 0.269943 0.826834
vt 0.272076 0.825443
vt 0.270884 0.824367
vt 0.304262 0.838188
vt 0.301927 0.838056
vt 0.305090 0.841675
vt 0.583739 0.321381
vt 0.639757 0.751329
vt 0.615668 0.785568
vt 0.619344 0.787353
vt 0.271698 0.187404
vt 0.270764 0.185456
vt 0.270623 0.186749
vt 0.518452 0.525407
vt 0.519859 0.526589
vt 0.520239 0.523144
vt 0.749773 0.787756
vt 0.751392 0.788519
vt 0.751737 0.787834
vt 0.201842 0.655636
vt 0.291252 0.924620
vt 0.667859 0.604893
vt 0.668972 0.602101
vt 0.665383 0.604625
vt 0.749977 0.949176
vt 0.751039 0.948449
vt 0.747813 0.949108
vt 0.515136 0.098858
vt 0.514896 0.098946
vt 0.514212 0.100414
vt 0.516501 0.099029
vt 0.514800 0.098897
vt 0.513799 0.099321
vt 0.621904 0.294077
vt 0.526552 0.177162
vt 0.525789 0.177981
vt 0.527663 0.177626
vt 0.469526 0.619350
vt 0.470511 0.621809
vt 0.235570 0.410385
vt 0.236977 0.408879
vt 0.174248 0.335583
vt 0.174335 0.336178
vt 0.175219 0.336780
vt 0.175276 0.335638
vt 0.173073 0.886066
vt 0.169824 0.886309
vt 0.171796 0.888080
vt 0.569136 0.690568
vt 0.570639 0.690145
vt 0.471753 0.049009
vt 0.466199 0.055070
vt 0.434437 0.033293
vt 0.435020 0.032359
vt 0.433326 0.033051
vt 0.529610 0.449611
vt 0.531682 0.448840
vt 0.529772 0.447168
vt 0.480232 0.037379
vt 0.463674 0.056397
vt 0.461550 0.058725
vt 0.410677 0.713420
vt 0.413840 0.714891
vt 0.413073 0.712189
vt 0.144530 0.015525
vt 0.147092 0.011961
vt 0.143634 0.012045
vt 0.210641 0.058381
vt 0.207946 0.060258
vt 0.209701 0.062601
vt 0.530988 0.381725
vt 0.532420 0.379843
vt 0.396655 0.900024
vt 0.395343 0.899961
vt 0.395474 0.901256
vt 0.948610 0.392188
vt 0.950181 0.391877
vt 0.949961 0.390452
vt 0.952067 0.388743
vt 0.805227 0.248918
vt 0.803359 0.254560
vt 0.845733 0.353529
vt 0.844457 0.352223
vt 0.843505 0.353759
vt 0.407201 0.080173
vt 0.405763 0.080113
vt 0.406900 0.081768
vt 0.037349 0.456778
vt 0.035402 0.456379
vt 0.036408 0.457356
vt 0.487536 0.032213
vt 0.488780 0.034410
vt 0.233626 0.383065
vt 0.236088 0.384045
vt 0.238171 0.383042
vt 0.910474 0.059101
vt 0.909389 0.059276
vt 0.909989 0.060565
vt 0.088220 0.303186
vt 0.087100 0.302939
vt 0.086495 0.304214
vt 0.533338 0.376092
vt 0.199047 0.285544
vt 0.196174 0.286025
vt 0.200459 0.288600
vt 0.483599 0.035828
vt 0.499551 0.017166
vt 0.561504 0.397718
vt 0.559977 0.398602
vt 0.560308 0.399721
vt 0.266619 0.390023
vt 0.262674 0.387413
vt 0.336447 0.931425
vt 0.332676 0.928297
vt 0.335771 0.932270
vt 0.885361 0.256033
vt 0.884301 0.257181
vt 0.885420 0.257289
vt 0.388377 0.423210
vt 0.389555 0.423600
vt 0.390333 0.423158
vt 0.807571 0.246368
vt 0.207506 0.056723
vt 0.204950 0.054751
vt 0.511391 0.010369
vt 0.509611 0.008735
vt 0.308127 0.756342
vt 0.304730 0.759520
vt 0.308230 0.757978
vt 0.566125 0.688581
vt 0.828374 0.995098
vt 0.830736 0.993642
vt 0.829696 0.993592
vt 0.228369 0.399951
vt 0.992584 0.317884
vt 0.990504 0.319293
vt 0.992261 0.318993
vt 0.879753 0.315634
vt 0.485362 0.963452
vt 0.482575 0.960542
vt 0.118410 0.033000
vt 0.116681 0.033509
vt 0.117350 0.034526
vt 0.144842 0.017197
vt 0.140790 0.013869
vt 0.135878 0.900708
vt 0.139703 0.901319
vt 0.137909 0.899786
vt 0.459972 0.082446
vt 0.461238 0.083163
vt 0.461432 0.080564
vt 0.457473 0.063747
vt 0.570071 0.425255
vt 0.569709 0.427361
vt 0.570091 0.429346
vt 0.226805 0.400408
vt 0.068553 0.037402
vt 0.069442 0.038212
vt 0.069930 0.036300
vt 0.921677 0.567649
vt 0.921428 0.567485
vt 0.921299 0.568339
vt 0.098320 0.031560
vt 0.099390 0.033367
vt 0.099612 0.031415
vt 0.249627 0.386054
vt 0.255411 0.386027
vt 0.484419 0.038229
vt 0.776940 0.468683
vt 0.776179 0.467544
vt 0.775544 0.469455
vt 0.140717 0.125841
vt 0.141979 0.126850
vt 0.142628 0.125936
vt 0.784645 0.976645
vt 0.537842 0.453580
vt 0.535860 0.454649
vt 0.538554 0.457131
vt 0.579523 0.243196
vt 0.580419 0.242260
vt 0.578468 0.243095
vt 0.472477 0.629003
vt 0.472307 0.628133
vt 0.470429 0.628863
vt 0.140296 0.872725
vt 0.141106 0.875490
vt 0.145040 0.874246
vt 0.242043 0.384293
vt 0.750593 0.342135
vt 0.754088 0.338525
vt 0.753029 0.339163
vt 0.569990 0.696663
vt 0.479898 0.825177
vt 0.483508 0.825077
vt 0.478720 0.821960
vt 0.071394 0.932203
vt 0.072388 0.933639
vt 0.074495 0.929601
vt 0.847441 0.934044
vt 0.846653 0.932206
vt 0.846605 0.934819
vt 0.135458 0.228393
vt 0.135589 0.226444
vt 0.134354 0.227426
vt 0.411496 0.711328
vt 0.198129 0.833836
vt 0.200443 0.833731
vt 0.622303 0.669918
vt 0.620654 0.671909
vt 0.619432 0.670658
vt 0.740967 0.981991
vt 0.743248 0.984301
vt 0.742675 0.982890
vt 0.735221 0.880749
vt 0.734517 0.878934
vt 0.733704 0.881089
vt 0.983011 0.277425
vt 0.980458 0.279607
vt 0.981607 0.279917
vt 0.483615 0.131706
vt 0.484021 0.130463
vt 0.483206 0.129658
vt 0.340028 0.737850
vt 0.339312 0.736603
vt 0.336282 0.740112
vt 0.532547 0.456400
vt 0.533186 0.457393
vt 0.535651 0.458227
vt 0.453426 0.070426
vt 0.456141 0.069349
vt 0.389202 0.903180
vt 0.391666 0.902984
vt 0.388033 0.901907
vt 0.387543 0.903859
vt 0.832001 0.853537
vt 0.830704 0.852957
vt 0.830811 0.854841
vt 0.574442 0.773025
vt 0.575540 0.771269
vt 0.571318 0.772353
vt 0.129283 0.119957
vt 0.130366 0.119091
vt 0.129675 0.118119
vt 0.686977 0.683844
vt 0.315512 0.103839
vt 0.316491 0.104955
vt 0.316828 0.103962
vt 0.497634 0.020189
vt 0.498557 0.018630
vt 0.811753 0.253011
vt 0.182827 0.278576
vt 0.181775 0.279809
vt 0.189597 0.282053
vt 0.602831 0.636581
vt 0.603761 0.634762
vt 0.600989 0.635810
vt 0.141265 0.947791
vt 0.142747 0.948028
vt 0.144959 0.946929
vt 0.411222 0.254525
vt 0.412555 0.256501
vt 0.412964 0.255180
vt 0.139180 0.948870
vt 0.091212 0.389243
vt 0.092905 0.388219
vt 0.092006 0.387619
vt 0.091860 0.442046
vt 0.091348 0.441363
vt 0.091035 0.442601
vt 0.092355 0.442863
vt 0.511591 0.010403
vt 0.804964 0.266148
vt 0.144693 0.009260
vt 0.322099 0.853356
vt 0.317047 0.851972
vt 0.320517 0.853856
vt 0.893943 0.731624
vt 0.893426 0.730965
vt 0.893487 0.731632
vt 0.260023 0.150556
vt 0.260386 0.150872
vt 0.260722 0.150426
vt 0.088570 0.377166
vt 0.088367 0.378566
vt 0.089673 0.377041
vt 0.149772 0.012685
vt 0.565075 0.401570
vt 0.683172 0.648703
vt 0.679796 0.646856
vt 0.681741 0.649991
vt 0.810975 0.259997
vt 0.811147 0.257343
vt 0.809646 0.260238
vt 0.875381 0.564916
vt 0.874839 0.563030
vt 0.874214 0.565786
vt 0.156751 0.654024
vt 0.153909 0.658291
vt 0.155622 0.658281
vt 0.510697 0.541141
vt 0.514267 0.537466
vt 0.171236 0.026916
vt 0.175397 0.029921
vt 0.938749 0.595638
vt 0.937955 0.597158
vt 0.141517 0.989019
vt 0.142283 0.989784
vt 0.896822 0.440221
vt 0.897714 0.437780
vt 0.895636 0.436671
vt 0.624658 0.733798
vt 0.622755 0.731920
vt 0.624334 0.734914
vt 0.196936 0.051004
vt 0.137270 0.539662
vt 0.136389 0.537624
vt 0.136540 0.538911
vt 0.363698 0.026976
vt 0.363940 0.026140
vt 0.362847 0.025308
vt 0.553501 0.823677
vt 0.767580 0.443936
vt 0.690616 0.771407
vt 0.768453 0.444961
vt 0.602285 0.633511
vt 0.748774 0.552993
vt 0.751396 0.550594
vt 0.749862 0.550540
vt 0.738803 0.452920
vt 0.741989 0.452453
vt 0.741333 0.451418
vt 0.813395 0.253657
vt 0.621534 0.732746
vt 0.619011 0.735028
vt 0.623312 0.735683
vt 0.940486 0.093382
vt 0.940787 0.092394
vt 0.939617 0.091165
vt 0.156826 0.018260
vt 0.982054 0.660091
vt 0.984449 0.659625
vt 0.981462 0.659358
vt 0.308487 0.251408
vt 0.308973 0.252519
vt 0.310502 0.253024
vt 0.082660 0.436033
vt 0.081965 0.437246
vt 0.083138 0.437061
vt 0.559618 0.773667
vt 0.558003 0.772238
vt 0.669769 0.681259
vt 0.669268 0.682876
vt 0.446460 0.733237
vt 0.452086 0.737792
vt 0.447224 0.732874
vt 0.445186 0.732302
vt 0.726972 0.067687
vt 0.880665 0.335265
vt 0.879504 0.335444
vt 0.726818 0.066216
vt 0.584001 0.317988
vt 0.582802 0.319480
vt 0.131538 0.961313
vt 0.135236 0.960298
vt 0.132398 0.959139
vt 0.425475 0.611783
vt 0.426349 0.612915
vt 0.426676 0.611970
vt 0.963073 0.526847
vt 0.961602 0.527483
vt 0.961803 0.529001
vt 0.160121 0.025192
vt 0.158909 0.024108
vt 0.155400 0.022832
vt 0.599636 0.637487
vt 0.531812 0.452132
vt 0.072523 0.407795
vt 0.071120 0.408359
vt 0.072252 0.409125
vt 0.770639 0.550198
vt 0.770314 0.549097
vt 0.769549 0.551424
vt 0.769113 0.548844
vt 0.778089 0.720213
vt 0.780048 0.719093
vt 0.776679 0.718282
vt 0.111518 0.790595
vt 0.109039 0.792542
vt 0.110427 0.793418
vt 0.518912 0.529479
vt 0.811179 0.589082
vt 0.810973 0.587750
vt 0.807593 0.587076
vt 0.229066 0.381554
vt 0.228127 0.384686
vt 0.231812 0.380927
vt 0.865559 0.391353
vt 0.863157 0.391551
vt 0.865405 0.394010
vt 0.015785 0.139302
vt 0.016104 0.138238
vt 0.014149 0.139316
vt 0.633501 0.270588
vt 0.634718 0.271456
vt 0.635730 0.269600
vt 0.004244 0.952004
vt 0.003757 0.950178
vt 0.001771 0.950408
vt 0.600600 0.639963
vt 0.602153 0.639657
vt 0.469707 0.628551
vt 0.773185 0.855832
vt 0.773306 0.855416
vt 0.772997 0.855577
vt 0.741615 0.056521
vt 0.740831 0.055415
vt 0.740259 0.055051
vt 0.134566 0.038799
vt 0.135349 0.038982
vt 0.135195 0.038762
vt 0.733677 0.051625
vt 0.734584 0.052175
vt 0.734056 0.050409
vt 0.481197 0.893116
vt 0.481285 0.890875
vt 0.480048 0.890252
vt 0.480006 0.891102
vt 0.681307 0.679462
vt 0.681029 0.680052
vt 0.681948 0.680869
vt 0.238530 0.406981
vt 0.228222 0.978089
vt 0.228172 0.978116
vt 0.228238 0.978155
vt 0.487379 0.800267
vt 0.487386 0.800331
vt 0.487459 0.800311
vt 0.232131 0.411224
vt 0.233200 0.412477
vt 0.234318 0.411974
vt 0.563994 0.771214
vt 0.563344 0.771141
vt 0.761951 0.666046
vt 0.760556 0.665297
vt 0.759376 0.665428
vt 0.759587 0.665877
vt 0.238710 0.406774
vt 0.563745 0.772151
vt 0.735298 0.052389
vt 0.479030 0.892658
vt 0.983217 0.278478
vt 0.984170 0.277429
vt 0.983999 0.277115
vt 0.487470 0.800257
vt 0.487524 0.800102
vt 0.827759 0.354966
vt 0.827788 0.354889
vt 0.827762 0.354856
vn -0.3141 0.5246 -0.7913
vn -0.0987 0.9789 -0.1789
vn -0.2190 0.9476 -0.2326
vn -0.0257 -0.9001 -0.4350
vn 0.1130 -0.9899 0.0861
vn -0.0842 -0.8888 -0.4504
vn -0.0423 0.9984 0.0383
vn 0.2678 0.8935 0.3604
vn -0.1139 0.9311 -0.3464
vn 0.3330 0.3274 0.8843
vn 0.2506 0.8628 0.4391
vn 0.3767 0.2126 0.9016
vn -0.2285 -0.9554 -0.1871
vn -0.1895 -0.9738 -0.1253
vn -0.4971 0.0287 -0.8672
vn 0.7285 0.6789 0.0908
vn 0.7331 0.6795 -0.0269
vn 0.0205 0.9017 -0.4318
vn 0.0013 0.9537 0.3008
vn -0.0212 0.9802 -0.1967
vn 0.3542 0.6283 0.6927
vn 0.0685 -0.9911 0.1138
vn -0.0289 -0.9481 -0.3168
vn 0.1567 -0.9792 0.1288
vn 0.0699 0.8407 0.5369
vn 0.1454 0.8768 0.4584
vn 0.0726 -0.6595 0.7482
vn 0.0199 -0.9897 -0.1416
vn 0.1172 -0.9243 0.3633
vn 0.0497 -0.9822 0.1809
vn -0.0726 -0.9937 -0.0852
vn -0.1494 -0.9323 -0.3293
vn 0.0438 -0.9881 -0.1477
vn 0.0071 -0.8928 -0.4504
vn 0.1325 -0.9303 0.3419
vn -0.2952 0.6209 -0.7262
vn -0.2317 0.7117 -0.6632
vn -0.4140 -0.1890 -0.8904
vn -0.0952 -0.9953 0.0160
vn 0.3061 -0.6758 0.6705
vn 0.3507 -0.3871 0.8527
vn -0.0572 -0.2802 -0.9582
vn -0.5801 -0.1289 -0.8043
vn -0.3574 0.0916 -0.9295
vn -0.0674 -0.9891 -0.1307
vn 0.2365 -0.5218 0.8197
vn -0.0152 0.9529 0.3028
vn 0.0787 0.6448 0.7603
vn 0.0225 0.3746 0.9269
vn 0.1526 0.7347 0.6610
vn 0.2357 0.0192 0.9716
vn -0.3173 0.0504 -0.9470
vn -0.1099 -0.9300 -0.3508
vn -0.1285 0.7261 -0.6755
vn 0.0678 -0.2260 -0.9718
vn -0.1550 0.5924 -0.7906
vn -0.2105 0.8244 -0.5253
vn -0.2925 0.5982 -0.7460
vn -0.5596 -0.4259 -0.7110
vn -0.1703 -0.9824 -0.0763
vn 0.3612 -0.7464 0.5589
vn 0.4235 -0.4334 0.7955
vn 0.1240 0.7395 0.6616
vn 0.0957 0.6478 0.7558
vn 0.1670 -0.2023 0.9650
vn 0.2112 -0.6001 0.7716
vn -0.2900 0.9400 -0.1799
vn -0.1167 0.7108 0.6936
vn -0.1554 0.9850 0.0746
vn -0.1349 0.9830 0.1247
vn -0.1003 0.7727 0.6268
vn -0.0201 0.6076 0.7940
vn 0.4496 -0.1413 0.8820
vn 0.1466 -0.7294 0.6682
vn 0.1285 -0.8940 0.4292
vn -0.1371 0.8921 -0.4305
vn 0.2263 0.8455 0.4836
vn -0.0656 0.9479 -0.3117
vn 0.7644 -0.5613 0.3173
vn 0.9381 0.0846 0.3359
vn 0.2799 -0.5577 0.7814
vn -0.1487 0.8263 -0.5432
vn -0.0417 0.9930 0.1102
vn 0.1347 -0.4459 0.8849
vn -0.0720 -0.9974 -0.0098
vn 0.1325 -0.9663 0.2205
vn 0.2333 -0.7887 0.5688
vn -0.3326 0.6290 -0.7027
vn -0.0706 0.8220 -0.5651
vn 0.0193 0.9912 -0.1313
vn -0.0132 0.9374 -0.3479
vn -0.2684 0.0550 -0.9617
vn -0.1012 -0.5681 -0.8167
vn -0.2774 -0.0598 -0.9589
vn -0.4094 -0.3479 -0.8434
vn -0.0270 -0.9791 -0.2017
vn 0.0585 0.3604 0.9310
vn -0.0225 -0.2404 0.9704
vn 0.0950 -0.9076 0.4089
vn 0.1837 0.1062 0.9772
vn 0.1515 -0.3146 0.9371
vn -0.0695 -0.9880 0.1382
vn -0.0098 -0.9875 -0.1570
vn -0.0064 -0.9022 0.4313
vn -0.2040 0.8850 -0.4185
vn 0.2808 -0.8674 0.4107
vn 0.1299 -0.9635 -0.2342
vn 0.1665 -0.8355 0.5236
vn 0.2241 0.9698 0.0966
vn -0.1276 -0.2013 -0.9712
vn -0.0213 0.8779 -0.4784
vn -0.1202 0.4722 -0.8733
vn 0.0458 0.8667 -0.4967
vn 0.4994 0.7270 0.4713
vn 0.5392 0.3306 0.7746
vn 0.6357 -0.1021 0.7652
vn -0.0574 -0.1250 -0.9905
vn 0.3040 -0.8787 0.3680
vn 0.4239 -0.8341 0.3530
vn -0.0861 0.9554 0.2825
vn -0.1380 0.8219 0.5527
vn 0.6418 0.6602 0.3902
vn -0.0428 0.9600 -0.2768
vn -0.0957 0.9165 -0.3884
vn 0.1301 0.0704 0.9890
vn 0.0439 -0.4337 0.9000
vn 0.1549 -0.6417 0.7512
vn -0.0162 0.2510 0.9678
vn 0.1794 0.7653 -0.6181
vn 0.1695 0.5334 -0.8287
vn 0.2183 0.9716 -0.0912
vn -0.1231 0.9317 -0.3417
vn 0.0061 0.9309 -0.3652
vn 0.2200 0.8194 0.5293
vn 0.3579 -0.1603 0.9199
vn 0.2173 0.4261 0.8782
vn 0.8767 0.3503 0.3298
vn 0.1667 0.1560 0.9736
vn 0.0488 -0.9493 -0.3105
vn -0.2495 0.7644 -0.5945
vn 0.0206 -0.3790 0.9252
vn -0.4615 0.0619 0.8850
vn -0.4625 0.0529 0.8850
vn -0.3504 0.7322 -0.5841
vn -0.2107 0.0192 -0.9774
vn -0.0934 0.5484 -0.8309
vn -0.0021 0.6927 0.7212
vn -0.1650 -0.1173 -0.9793
vn 0.2210 -0.7342 0.6420
vn 0.0045 -0.5780 -0.8160
vn -0.0253 -0.8375 -0.5459
vn -0.1498 -0.0684 -0.9863
vn -0.0173 -0.9601 -0.2792
vn 0.2802 0.3671 0.8870
vn 0.2315 0.8292 0.5087
vn 0.1131 0.9637 -0.2418
vn 0.2655 0.8674 0.4208
vn 0.5525 -0.4648 -0.6919
vn 0.6505 -0.6682 -0.3610
vn -0.1093 0.9932 -0.0404
vn 0.4637 0.2129 0.8600
vn 0.3746 0.4112 -0.8310
vn 0.5588 0.1955 -0.8059
vn -0.1748 0.7665 -0.6180
vn 0.0184 0.9499 -0.3119
vn 0.4427 -0.8443 0.3019
vn 0.2438 -0.8260 -0.5081
vn 0.1990 -0.3285 0.9233
vn -0.0350 -0.9994 0.0045
vn 0.0569 -0.7486 0.6606
vn 0.0800 0.7502 0.6564
vn 0.1322 0.5189 0.8445
vn 0.3289 0.5605 0.7600
vn -0.3075 -0.3083 -0.9002
vn -0.5918 -0.3209 -0.7394
vn 0.0304 0.8162 -0.5770
vn -0.4236 -0.7549 0.5006
vn -0.4895 -0.4881 0.7226
vn 0.0772 -0.9599 0.2694
vn -0.7736 -0.1102 -0.6240
vn -0.8121 -0.1499 -0.5640
vn 0.4994 0.7453 0.4418
vn 0.5991 -0.1530 0.7859
vn -0.1295 -0.6883 -0.7138
vn 0.4294 -0.4774 0.7666
vn 0.0797 0.9959 -0.0432
vn -0.1509 -0.9730 -0.1745
vn -0.1010 -0.9901 0.0974
vn -0.3457 0.7503 -0.5635
vn -0.5059 0.3591 -0.7843
vn 0.7776 0.5880 0.2228
vn -0.2891 0.4567 -0.8414
vn -0.2289 0.9632 -0.1411
vn 0.3839 -0.4064 0.8292
vn -0.3236 -0.3584 -0.8757
vn 0.8831 0.2500 0.3970
vn 0.9198 0.0490 0.3893
vn 0.4506 -0.0333 0.8921
vn 0.2807 -0.5584 0.7807
vn 0.5498 0.6794 0.4860
vn 0.1235 0.2852 -0.9505
vn 0.5246 -0.2666 -0.8086
vn 0.5629 -0.3829 -0.7325
vn -0.0722 -0.6846 -0.7253
vn -0.8145 -0.3255 -0.4803
vn -0.8639 -0.1959 -0.4640
vn -0.8202 -0.2985 -0.4879
vn -0.3810 -0.1701 -0.9088
vn -0.1273 0.7901 -0.5996
vn -0.4899 -0.2156 -0.8447
vn 0.1310 -0.1425 0.9811
vn -0.3023 -0.5495 -0.7789
vn 0.6988 0.6937 -0.1748
vn -0.0201 -0.8196 -0.5726
vn 0.5168 0.0860 -0.8518
vn -0.4923 -0.6797 0.5437
vn -0.3634 -0.6778 0.6391
vn 0.7420 -0.6533 -0.1502
vn 0.2029 0.8833 0.4227
vn 0.5967 0.2012 -0.7769
vn -0.6004 0.6931 -0.3989
vn -0.6706 0.7228 0.1669
vn -0.5286 0.3680 0.7649
vn -0.4118 0.6626 0.6255
vn -0.4024 -0.0020 0.9155
vn -0.7881 -0.4227 -0.4474
vn -0.8481 -0.2443 -0.4701
vn -0.4789 -0.4104 0.7760
vn -0.6374 0.7592 0.1318
vn -0.6368 0.7405 0.2148
vn -0.8545 0.0306 -0.5185
vn 0.0777 0.3886 0.9181
vn 0.0783 -0.4927 0.8667
vn -0.3629 -0.9293 0.0683
vn -0.8974 0.0007 -0.4412
vn -0.4967 0.5708 0.6539
vn -0.0268 -0.1965 0.9801
usemtl sungaya_inexpectata_31mg
s 1
f 4/1/1 129/2/2 5/3/3
f 9/4/4 136/5/5 10/6/6
f 13/7/7 14/8/8 188/9/9
f 18/10/10 95/11/11 19/12/12
f 142/13/13 41/14/14 42/15/15
f 206/16/16 193/17/17 141/18/18 70/19/19
f 40/20/20 59/21/21 13/22/7
f 115/23/22 170/24/23 62/25/24
f 28/26/25 192/27/26 18/28/10
f 75/29/27 48/30/28 76/31/29
f 161/32/30 23/33/31 124/34/32
f 57/35/33 155/36/34 58/37/35
f 30/38/36 89/39/37 88/40/38
f 53/41/39 20/42/40 147/43/41
f 57/44/33 9/45/4 35/46/42
f 106/47/43 163/48/44 52/49/45
f 19/50/12 177/51/46 18/28/10
f 112/52/47 38/53/48 25/54/49
f 94/55/50 28/56/25 37/57/51
f 124/58/32 125/59/52 100/60/53
f 157/61/54 97/62/55 72/63/56
f 127/64/57 35/65/42 47/66/58
f 184/67/59 106/68/43 39/69/60
f 84/70/61 133/71/62 59/72/21
f 134/73/63 51/74/64 104/75/65
f 136/76/5 58/77/35 110/78/66
f 168/79/67 135/80/68 109/81/69
f 162/82/70 151/83/71 137/84/72
f 65/85/73 131/86/74 191/87/75
f 29/88/76 74/89/77 108/90/78
f 203/91/79 199/92/80 178/93/81
f 112/94/47 7/95/82 123/96/83
f 51/74/64 105/97/84 104/75/65
f 53/98/39 182/99/85 20/100/40
f 118/101/86 190/102/87 133/103/62
f 149/104/88 40/105/20 13/106/7
f 45/107/89 61/108/90 78/109/91
f 70/19/19 162/110/70 137/111/72
f 154/112/92 73/113/93 68/114/94
f 87/115/95 42/116/15 41/117/14
f 87/118/95 41/119/14 66/120/96
f 118/121/86 133/122/62 84/123/61
f 77/124/97 25/125/49 24/126/98
f 92/127/99 177/51/46 20/128/40
f 38/129/48 33/130/100 46/131/101
f 55/132/102 156/133/103 83/134/104
f 5/135/3 28/136/25 128/137/105
f 49/138/106 171/139/107 138/140/108
f 134/141/63 44/142/109 51/143/64
f 47/144/58 119/145/110 4/146/1
f 101/147/111 157/148/54 162/149/70
f 45/150/89 165/151/112 164/152/113
f 166/153/114 8/154/115 167/155/116
f 157/61/54 101/156/111 139/157/117
f 81/158/118 189/159/119 66/160/96
f 58/161/35 48/162/28 75/163/27
f 168/164/67 183/165/120 130/166/121
f 30/167/36 108/168/78 89/169/37
f 158/170/122 145/171/123 85/172/124
f 80/173/125 54/174/126 116/175/127
f 80/176/125 137/177/72 26/178/128
f 26/178/128 54/179/126 80/176/125
f 174/180/129 98/181/130 117/182/131
f 74/183/77 67/184/132 14/185/8
f 39/186/60 190/187/87 118/188/86
f 115/23/22 171/189/107 170/24/23
f 82/190/133 143/191/134 95/192/11
f 151/193/71 162/110/70 135/80/68
f 135/194/68 162/195/70 109/196/69
f 147/197/41 21/198/135 74/199/77
f 160/200/136 60/201/137 17/202/138
f 108/203/78 143/204/134 82/205/133
f 153/206/139 178/207/81 156/208/103
f 144/209/140 29/210/76 163/48/44
f 24/211/98 25/212/49 75/213/27
f 17/214/138 180/215/141 105/216/84
f 230/217/142 212/218/143 180/219/141 17/202/138
f 145/220/123 149/221/88 32/222/144
f 155/223/34 35/224/42 36/225/145
f 38/129/48 46/131/101 25/212/49
f 165/151/112 63/226/146 164/152/113
f 63/226/146 174/227/129 164/152/113
f 70/19/19 137/111/72 114/228/147
f 36/229/145 181/230/148 155/231/34
f 33/130/100 37/232/51 152/233/149
f 94/234/50 37/232/51 33/130/100
f 56/235/150 126/236/151 150/237/152
f 96/238/153 126/236/151 56/235/150
f 143/239/134 19/240/12 95/11/11
f 5/241/3 192/242/26 28/243/25
f 103/244/154 134/73/63 104/75/65
f 103/244/154 102/245/155 134/73/63
f 166/246/114 121/247/156 79/248/157
f 79/249/157 8/250/115 166/251/114
f 79/252/157 78/253/91 61/254/90
f 104/75/65 49/255/106 138/256/108
f 205/257/158 202/258/159 153/259/139
f 123/260/83 3/261/160 94/262/50
f 103/244/154 65/263/73 102/264/155
f 65/265/73 169/266/161 102/267/155
f 29/268/76 30/38/36 163/269/44
f 204/270/162 194/271/163 141/272/18
f 31/273/164 168/274/67 109/275/69
f 81/276/118 41/277/14 84/123/61
f 84/123/61 41/277/14 142/278/13
f 41/277/14 81/276/118 66/279/96
f 82/190/133 95/192/11 1/280/165
f 112/52/47 25/54/49 130/281/121
f 183/282/120 112/52/47 130/281/121
f 12/283/166 11/284/167 171/285/107
f 18/28/10 27/286/168 28/26/25
f 64/287/169 91/288/170 76/289/29
f 146/290/171 33/130/100 38/129/48
f 173/291/172 178/292/81 43/293/173
f 19/50/12 21/198/135 20/128/40
f 19/50/12 143/294/134 21/198/135
f 85/295/124 45/296/89 78/297/91
f 85/298/124 78/299/91 121/300/156
f 10/301/6 34/302/174 119/145/110
f 100/303/53 34/304/174 10/305/6
f 184/306/59 142/307/13 122/308/175
f 139/157/117 101/156/111 113/309/176
f 229/310/177 49/311/106 233/312/178
f 152/313/149 111/314/179 136/315/5
f 136/76/5 111/316/179 10/317/6
f 228/318/180 98/319/130 224/320/181
f 175/321/182 166/322/114 159/323/183
f 166/324/114 167/325/116 159/326/183
f 73/327/93 154/328/92 176/329/184
f 169/330/161 179/331/185 8/154/115
f 24/332/98 26/333/128 135/334/68
f 24/335/98 91/336/170 26/337/128
f 96/338/153 55/339/102 91/340/170
f 54/341/126 91/340/170 55/339/102
f 135/342/68 77/343/97 24/344/98
f 130/345/121 25/125/49 77/124/97
f 5/346/3 128/347/105 4/348/1
f 44/349/109 174/180/129 117/182/131
f 22/350/186 174/351/129 44/352/109
f 6/353/187 120/354/188 184/355/59
f 188/356/9 186/357/189 187/358/190
f 198/359/191 206/360/16 70/361/19 43/362/173
f 75/363/27 46/364/101 58/365/35
f 189/366/119 62/25/24 66/279/96
f 39/367/60 52/368/45 190/369/87
f 47/370/58 3/371/160 127/372/57
f 127/373/57 3/374/160 123/375/83
f 147/376/41 190/377/87 52/378/45
f 52/378/45 53/379/39 147/376/41
f 188/380/9 67/381/132 186/382/189
f 93/383/192 181/384/148 99/385/193
f 99/386/193 7/387/82 112/388/47
f 42/389/15 87/390/95 165/391/112
f 14/392/8 67/393/132 188/394/9
f 65/395/73 191/396/75 50/397/194
f 102/398/155 61/399/90 22/400/186
f 61/401/90 164/402/113 22/403/186
f 163/404/44 30/405/36 107/406/195
f 138/140/108 171/139/107 115/23/22
f 201/407/196 198/408/191 43/409/173
f 201/407/196 43/409/173 197/410/197
f 47/411/58 4/146/1 128/412/105
f 132/413/198 190/414/87 148/415/199
f 132/413/198 148/415/199 147/197/41
f 147/416/41 74/417/77 132/418/198
f 14/419/8 132/420/198 74/421/77
f 71/422/200 132/423/198 14/424/8
f 179/425/185 167/426/116 8/427/115
f 20/428/40 182/429/85 92/430/99
f 159/431/183 84/70/61 158/432/122
f 132/433/198 59/72/21 133/71/62
f 75/434/27 76/435/29 24/436/98
f 162/437/70 72/438/56 109/81/69
f 49/439/106 12/283/166 171/285/107
f 32/440/144 122/308/175 42/389/15
f 85/441/124 121/442/156 175/443/182
f 6/444/187 39/445/60 118/121/86
f 97/62/55 56/235/150 150/237/152
f 104/446/65 105/447/84 49/448/106
f 174/449/129 63/450/146 68/451/94
f 68/451/94 69/452/201 174/449/129
f 119/453/110 34/454/174 4/455/1
f 150/237/152 93/383/192 31/456/164
f 91/457/170 64/458/169 96/459/153
f 155/460/34 48/461/28 58/462/35
f 95/192/11 192/463/26 1/280/165
f 18/10/10 192/464/26 95/11/11
f 91/465/170 24/436/98 76/466/29
f 102/467/155 79/468/157 61/469/90
f 184/470/59 187/471/190 106/472/43
f 184/473/59 122/474/175 149/475/88
f 168/164/67 130/166/121 135/476/68
f 155/477/34 57/44/33 35/46/42
f 123/478/83 7/479/82 127/480/57
f 157/61/54 139/157/117 97/62/55
f 123/481/83 146/482/171 38/483/48
f 209/484/202 200/485/203 140/486/204 139/487/117
f 200/485/203 205/488/158 153/489/139 140/486/204
f 37/57/51 28/56/25 27/490/168
f 121/491/156 78/492/91 79/493/157
f 140/494/204 153/495/139 156/208/103
f 234/496/205 236/497/206 68/451/94
f 217/498/207 234/499/205 68/500/94 73/501/93
f 100/60/53 125/59/52 34/302/174
f 185/502/208 124/503/32 23/504/31
f 125/505/52 124/34/32 185/506/208
f 4/507/1 34/302/174 2/508/209
f 34/302/174 125/59/52 2/508/209
f 129/509/2 4/510/1 2/511/209
f 23/512/31 172/513/210 185/514/208
f 9/515/4 10/301/6 119/145/110
f 185/516/208 172/517/210 89/39/37
f 118/518/86 142/519/13 120/520/188
f 80/521/125 116/522/127 16/523/211
f 84/524/61 59/525/21 158/526/122
f 173/527/172 70/19/19 114/228/147
f 43/528/173 70/19/19 173/527/172
f 108/529/78 30/530/36 29/531/76
f 8/532/115 79/533/157 169/534/161
f 102/535/155 169/534/161 79/533/157
f 170/24/23 176/536/184 86/537/212
f 150/237/152 72/63/56 97/62/55
f 148/538/199 190/539/87 147/540/41
f 2/508/209 125/59/52 185/516/208
f 145/541/123 32/542/144 85/543/124
f 40/544/20 149/545/88 145/546/123
f 181/384/148 36/547/145 7/548/82
f 96/549/153 64/550/169 126/551/151
f 22/552/186 164/553/113 174/554/129
f 72/63/56 150/237/152 31/456/164
f 99/555/193 181/556/148 7/557/82
f 196/558/213 141/18/18 193/17/17
f 100/559/53 111/560/179 161/561/30
f 47/144/58 35/562/42 119/145/110
f 119/145/110 35/562/42 9/515/4
f 97/62/55 139/157/117 15/563/214
f 15/564/214 139/565/117 140/566/204
f 75/213/27 25/212/49 46/131/101
f 100/567/53 10/568/6 111/316/179
f 152/233/149 37/232/51 27/286/168
f 111/569/179 152/570/149 27/571/168
f 113/572/176 101/573/111 70/574/19
f 113/575/176 70/576/19 141/577/18
f 62/25/24 170/24/23 66/279/96
f 171/189/107 73/578/93 176/536/184
f 133/579/62 190/414/87 132/580/198
f 208/581/215 209/582/202 139/157/117
f 123/583/83 94/584/50 146/585/171
f 161/32/30 124/34/32 100/586/53
f 68/451/94 63/450/146 154/328/92
f 177/587/46 19/588/12 20/589/40
f 165/590/112 154/328/92 63/450/146
f 102/591/155 22/592/186 134/593/63
f 120/354/188 142/594/13 184/355/59
f 189/595/119 81/596/118 167/325/116
f 42/597/15 122/598/175 142/599/13
f 80/521/125 114/600/147 137/177/72
f 173/601/172 114/600/147 80/521/125
f 173/602/172 80/603/125 16/604/211
f 42/605/15 85/606/124 32/607/144
f 107/608/195 30/38/36 88/40/38
f 87/609/95 86/610/212 165/611/112
f 165/590/112 86/612/212 154/328/92
f 26/613/128 151/614/71 135/615/68
f 215/616/216 213/617/217 12/618/166
f 86/619/212 176/620/184 154/621/92
f 57/622/33 136/76/5 9/623/4
f 7/548/82 36/547/145 35/562/42
f 127/624/57 7/548/82 35/562/42
f 167/625/116 81/626/118 159/627/183
f 149/628/88 13/629/7 188/630/9
f 188/356/9 187/358/190 149/631/88
f 107/632/195 53/633/39 52/634/45
f 163/635/44 107/636/195 52/637/45
f 203/638/79 178/639/81 207/640/218
f 64/641/169 76/642/29 48/643/28
f 64/550/169 48/644/28 126/551/151
f 111/645/179 92/646/99 161/647/30
f 161/32/30 92/648/99 23/33/31
f 103/649/154 104/650/65 65/651/73
f 31/652/164 109/653/69 72/654/56
f 156/133/103 15/564/214 140/566/204
f 55/655/102 15/656/214 156/657/103
f 94/658/50 33/659/100 146/660/171
f 118/518/86 120/520/188 6/661/187
f 22/350/186 44/662/109 134/663/63
f 86/664/212 87/115/95 170/665/23
f 170/665/23 87/115/95 66/666/96
f 158/667/122 85/668/124 175/669/182
f 175/670/182 159/671/183 158/672/122
f 142/278/13 118/121/86 84/123/61
f 160/673/136 51/674/64 90/675/219
f 90/676/219 51/677/64 44/678/109
f 2/508/209 185/516/208 89/39/37
f 1/679/165 2/680/209 89/681/37
f 20/682/40 21/683/135 147/684/41
f 106/685/43 144/686/140 163/269/44
f 67/687/132 144/688/140 106/689/43
f 67/687/132 106/689/43 186/690/189
f 192/691/26 129/692/2 1/693/165
f 1/694/165 129/695/2 2/696/209
f 38/697/48 112/698/47 123/699/83
f 90/700/219 44/349/109 117/182/131
f 137/701/72 151/702/71 26/703/128
f 56/704/150 97/62/55 15/705/214
f 115/23/22 191/706/75 138/140/108
f 57/707/33 58/708/35 136/709/5
f 182/710/85 53/711/39 88/712/38
f 93/713/192 168/714/67 31/715/164
f 168/716/67 99/717/193 183/718/120
f 93/713/192 99/719/193 168/714/67
f 82/720/133 1/721/165 89/722/37
f 194/723/163 195/724/220 113/725/176 141/726/18
f 195/727/220 208/581/215 139/157/117 113/309/176
f 172/517/210 88/40/38 89/39/37
f 51/74/64 160/200/136 17/202/138
f 105/97/84 51/74/64 17/202/138
f 159/728/183 81/276/118 84/123/61
f 116/729/127 178/93/81 16/523/211
f 156/730/103 178/731/81 116/732/127
f 227/733/221 98/734/130 228/735/180
f 227/736/221 223/737/222 98/738/130
f 72/739/56 162/740/70 157/741/54
f 83/742/104 116/522/127 54/179/126
f 116/743/127 83/134/104 156/133/103
f 55/744/102 83/745/104 54/746/126
f 179/747/185 191/748/75 62/25/24
f 189/749/119 179/747/185 62/25/24
f 191/750/75 115/751/22 62/752/24
f 42/753/15 165/754/112 45/755/89
f 45/756/89 85/757/124 42/389/15
f 58/758/35 46/131/101 110/759/66
f 82/760/133 89/761/37 108/168/78
f 50/762/194 169/266/161 65/763/73
f 121/764/156 166/765/114 175/766/182
f 143/767/134 108/768/78 74/769/77
f 21/198/135 143/294/134 74/770/77
f 181/384/148 93/383/192 150/237/152
f 181/771/148 150/772/152 126/773/151
f 122/774/175 32/775/144 149/776/88
f 99/777/193 112/52/47 183/282/120
f 13/7/7 71/778/200 14/8/8
f 132/433/198 71/779/200 59/72/21
f 59/780/21 71/778/200 13/7/7
f 88/712/38 53/711/39 107/781/195
f 65/782/73 104/783/65 131/784/74
f 131/785/74 104/786/65 138/787/108
f 138/140/108 191/706/75 131/788/74
f 29/789/76 67/790/132 74/791/77
f 144/792/140 67/793/132 29/794/76
f 91/795/170 54/179/126 26/178/128
f 164/796/113 61/797/90 45/798/89
f 110/799/66 152/800/149 136/801/5
f 110/802/66 33/803/100 152/804/149
f 110/759/66 46/131/101 33/130/100
f 171/805/107 11/284/167 73/806/93
f 174/227/129 69/807/201 98/808/130
f 177/809/46 92/810/99 111/811/179
f 177/51/46 27/286/168 18/28/10
f 111/811/179 27/812/168 177/809/46
f 169/330/161 50/813/194 179/331/185
f 179/814/185 189/815/119 167/426/116
f 179/331/185 50/813/194 191/816/75
f 192/463/26 5/817/3 129/818/2
f 173/819/172 16/820/211 178/821/81
f 52/822/45 39/823/60 106/824/43
f 180/825/141 49/826/106 105/827/84
f 130/828/121 77/829/97 135/830/68
f 171/189/107 176/536/184 170/24/23
f 88/712/38 172/831/210 182/710/85
f 23/512/31 182/832/85 172/513/210
f 70/833/19 101/834/111 162/835/70
f 48/836/28 155/837/34 126/838/151
f 155/837/34 181/839/148 126/838/151
f 40/840/20 158/841/122 59/842/21
f 40/843/20 145/844/123 158/845/122
f 184/306/59 149/846/88 187/471/190
f 187/847/190 186/848/189 106/849/43
f 96/549/153 15/850/214 55/851/102
f 56/852/150 15/850/214 96/549/153
f 3/853/160 47/854/58 128/855/105
f 28/856/25 94/857/50 3/858/160
f 128/859/105 28/860/25 3/861/160
f 6/862/187 184/863/59 39/864/60
f 182/710/85 23/865/31 92/866/99
f 178/639/81 153/206/139 202/867/159 207/640/218
f 43/409/173 178/93/81 199/92/80 197/410/197
f 141/868/18 196/869/213 204/870/162
f 208/581/215 195/727/220 194/723/163 204/270/162 196/869/213 193/17/17 206/16/16 198/359/191 201/407/196 197/410/197 199/92/80 203/91/79 207/640/218 202/867/159 205/257/158 200/485/203 209/484/202
f 60/201/137 160/200/136 237/871/223 235/872/224
f 17/202/138 60/201/137 231/873/225 230/217/142
f 11/874/167 225/875/226 226/876/227
f 49/877/106 180/219/141 222/878/228 233/879/178
f 90/880/219 117/881/131 221/882/229 232/883/230
f 98/884/130 223/885/222 221/886/229 117/182/131
f 68/451/94 236/497/206 220/887/231
f 60/888/137 235/889/224 219/890/232
f 60/891/137 219/892/232 218/893/233
f 11/894/167 226/895/227 217/896/207 73/327/93
f 11/284/167 216/897/234 225/898/226
f 49/899/106 229/900/177 215/901/216 12/902/166
f 98/319/130 69/452/201 214/903/235 224/320/181
f 69/452/201 68/451/94 220/887/231 214/903/235
f 11/284/167 12/283/166 213/904/217 216/897/234
f 180/219/141 212/218/143 222/905/228
f 90/880/219 232/883/230 211/906/236
f 160/673/136 90/907/219 211/908/236 237/909/223
f 60/891/137 210/910/237 231/911/225
f 60/912/137 218/913/233 210/914/237
f 226/876/227 215/901/216 217/896/207
f 235/889/224 218/893/233 219/890/232
f 235/889/224 210/914/237 218/893/233
f 232/883/230 237/909/223 211/906/236
f 237/909/223 231/911/225 235/889/224
f 235/889/224 231/911/225 210/914/237
f 221/886/229 214/903/235 232/883/230
f 232/883/230 236/497/206 237/909/223
f 228/318/180 223/737/222 227/733/221
f 223/737/222 214/903/235 221/886/229
f 232/883/230 214/903/235 236/497/206
f 237/909/223 230/217/142 231/911/225
f 230/217/142 233/879/178 212/218/143
f 212/218/143 233/879/178 222/905/228
f 233/879/178 215/901/216 229/310/177
f 237/909/223 236/497/206 230/217/142
f 224/320/181 223/737/222 228/318/180
f 236/497/206 214/903/235 220/887/231
f 214/903/235 223/737/222 224/320/181
f 230/217/142 234/499/205 233/879/178
f 236/497/206 234/499/205 230/217/142
f 215/901/216 226/876/227 213/617/217
f 213/617/217 225/898/226 216/897/234
f 233/879/178 234/499/205 215/901/216
f 217/896/207 215/901/216 234/499/205
f 225/898/226 213/617/217 226/876/227
