# Blender v2.79 (sub 0) OBJ File: 'redo_fixed_360_joints.blend'
# www.blender.org
mtllib sungaya_inexpectata_31mg.mtl
o 17-f-l-femur_Sungaya_inexpectata_31mg.003
v -0.000497 0.000007 -0.000295
v -0.000587 0.000019 -0.000329
v 0.001404 0.000053 0.000197
v 0.000821 0.000025 0.000029
v 0.002327 0.000272 0.000563
v -0.001133 0.000121 -0.000232
v -0.001246 -0.000110 -0.000046
v -0.000702 0.000009 -0.000337
v 0.001884 -0.000068 0.000557
v -0.000097 -0.000012 0.000043
v -0.001358 -0.000018 -0.000376
v -0.000116 0.000062 -0.000035
v -0.000009 0.000100 -0.000026
v 0.001057 -0.000107 0.000039
v 0.001134 -0.000128 0.000134
v 0.002309 -0.000170 0.000507
v 0.001866 -0.000010 0.000522
v 0.002029 0.000117 0.000482
v -0.001467 0.000092 -0.000334
v 0.000499 0.000085 -0.000067
v 0.000488 -0.000037 0.000031
v 0.001616 -0.000076 0.000428
v 0.000087 -0.000003 -0.000176
v -0.000037 0.000009 -0.000175
v -0.000323 -0.000016 0.000085
v 0.002066 0.000144 0.000568
v 0.001417 -0.000099 0.000352
v -0.001077 0.000133 -0.000102
v -0.001197 0.000140 -0.000085
v -0.000725 0.000021 -0.000373
v -0.000858 0.000015 -0.000327
v -0.000853 0.000002 -0.000286
v -0.000307 0.000002 -0.000298
v -0.000294 0.000002 -0.000222
v 0.001221 0.000069 0.000129
v 0.001149 0.000070 0.000089
v 0.002322 0.000273 0.000658
v -0.001181 0.000173 -0.000381
v 0.001189 -0.000146 0.000277
v 0.001674 -0.000134 0.000424
v -0.001043 0.000181 -0.000320
v -0.001705 -0.000057 -0.000034
v -0.001725 0.000024 -0.000062
v -0.000187 -0.000012 -0.000245
v 0.000924 0.000032 0.000053
v -0.000362 0.000006 -0.000275
v -0.000667 0.000042 -0.000252
v -0.000554 0.000063 -0.000237
v -0.000242 0.000019 -0.000187
v -0.000014 -0.000014 0.000043
v 0.001882 0.000147 0.000359
v 0.000662 -0.000047 -0.000078
v -0.000190 0.000144 -0.000107
v -0.001823 0.000149 -0.000418
v -0.000381 -0.000016 -0.000003
v -0.000051 -0.000015 0.000128
v -0.000077 0.000006 0.000033
v -0.001855 -0.000037 -0.000270
v -0.000785 0.000091 -0.000128
v 0.002108 0.000180 0.000475
v -0.000584 0.000200 -0.000173
v 0.001691 0.000098 0.000322
v -0.000317 0.000085 -0.000059
v -0.000509 -0.000006 -0.000043
v -0.000896 -0.000036 -0.000063
v -0.000883 -0.000080 -0.000032
v -0.000168 0.000014 -0.000171
v 0.000253 -0.000009 0.000067
v -0.000764 -0.000092 0.000007
v -0.000800 -0.000071 -0.000043
v 0.002054 -0.000125 0.000452
v 0.002155 -0.000151 0.000571
v -0.001584 -0.000000 -0.000055
v -0.001181 -0.000038 -0.000188
v 0.000764 -0.000151 0.000129
v -0.001859 0.000048 -0.000276
v -0.001797 0.000122 -0.000238
v 0.000435 -0.000012 -0.000124
v -0.000755 -0.000008 -0.000271
v -0.000983 -0.000040 -0.000141
v 0.000463 -0.000087 0.000020
v -0.001295 -0.000053 -0.000068
v -0.001335 0.000086 -0.000086
v 0.000105 -0.000029 0.000047
v 0.000768 -0.000008 -0.000043
v 0.000021 0.000036 0.000024
v 0.002155 0.000076 0.000367
v -0.000244 0.000158 -0.000107
v -0.000109 -0.000020 -0.000241
v 0.002012 0.000046 0.000600
v -0.001408 0.000078 -0.000307
v 0.000006 0.000150 -0.000078
v -0.000622 -0.000086 0.000015
v -0.000712 -0.000011 -0.000088
v -0.000401 0.000009 -0.000231
v 0.000775 -0.000078 0.000114
v 0.000722 -0.000019 0.000043
v -0.001344 -0.000091 -0.000128
v 0.000599 -0.000015 0.000012
v 0.000742 0.000059 -0.000022
v 0.001729 -0.000029 0.000287
v -0.000954 0.000003 -0.000303
v -0.000940 0.000018 -0.000345
v -0.001416 -0.000059 -0.000062
v 0.001476 -0.000103 0.000289
v -0.000876 0.000025 -0.000298
v -0.000949 0.000151 -0.000247
v -0.001238 0.000009 -0.000327
v -0.000931 0.000107 -0.000116
v -0.001382 -0.000063 -0.000253
v 0.001856 -0.000102 0.000458
v -0.001797 -0.000234 -0.000449
v -0.000316 0.000008 0.000004
v 0.001652 -0.000027 0.000422
v -0.000378 -0.000006 -0.000084
v -0.001875 -0.000014 -0.000329
v -0.001787 0.000067 -0.000164
v 0.000862 -0.000139 0.000089
v -0.001686 0.000088 -0.000147
v -0.001632 0.000082 -0.000264
v 0.000992 -0.000127 0.000229
v -0.000417 -0.000024 -0.000138
v 0.002177 -0.000048 0.000347
v -0.001536 0.000058 -0.000230
v -0.000716 0.000032 -0.000118
v 0.000367 0.000098 -0.000060
v 0.002045 0.000110 0.000387
v 0.002022 0.000030 0.000354
v 0.000190 -0.000056 0.000119
v 0.000122 -0.000014 0.000076
v 0.002292 -0.000101 0.000613
v 0.001247 -0.000094 0.000091
v 0.001232 0.000069 0.000098
v 0.001014 -0.000060 0.000156
v 0.001086 -0.000028 0.000145
v 0.001854 -0.000041 0.000365
v -0.001192 0.000029 -0.000431
v 0.002258 0.000147 0.000371
v -0.000422 0.000118 -0.000102
v -0.000461 0.000152 -0.000117
v 0.001501 -0.000059 0.000194
v 0.001498 -0.000010 0.000167
v 0.001607 0.000027 0.000329
v -0.000549 0.000163 -0.000105
v -0.001261 0.000105 -0.000140
v 0.000232 0.000031 -0.000133
v -0.001593 -0.000185 -0.000168
v 0.000074 -0.000040 -0.000136
v 0.000098 -0.000035 -0.000027
v -0.000692 0.000138 -0.000207
v 0.002098 0.000141 0.000605
v 0.001566 -0.000111 0.000351
v 0.002359 -0.000032 0.000624
v 0.001540 0.000104 0.000209
v -0.001333 0.000076 -0.000246
v 0.002215 -0.000156 0.000451
v 0.001610 -0.000069 0.000292
v -0.001595 -0.000129 -0.000060
v -0.001762 -0.000226 -0.000301
v -0.001775 -0.000114 -0.000172
v 0.000837 -0.000065 0.000114
v -0.000467 0.000046 -0.000230
v -0.001539 -0.000048 -0.000482
v -0.001101 0.000049 -0.000078
v 0.002149 0.000018 0.000622
v 0.000248 -0.000048 -0.000084
v 0.000052 0.000098 -0.000122
v 0.000646 -0.000107 0.000043
v 0.001948 -0.000136 0.000498
v 0.000198 0.000054 0.000037
v 0.001799 -0.000106 0.000469
v 0.000313 0.000038 0.000017
v -0.000524 -0.000015 -0.000166
v -0.000670 0.000147 -0.000160
v 0.001302 -0.000124 0.000311
v 0.000615 -0.000121 0.000108
v -0.001521 0.000069 -0.000459
v 0.002304 0.000184 0.000660
v 0.000599 -0.000067 0.000090
v -0.000883 0.000029 -0.000252
v 0.001172 -0.000092 0.000213
v 0.001239 -0.000119 0.000169
v 0.001625 -0.000041 0.000211
v 0.002354 -0.000141 0.000456
v 0.001927 -0.000056 0.000407
v 0.001986 -0.000035 0.000339
v 0.002190 0.000152 0.000635
v 0.000320 -0.000087 0.000135
v 0.000338 -0.000001 0.000072
v -0.000053 -0.000032 -0.000205
v -0.000102 -0.000030 -0.000093
v 0.001130 -0.000017 0.000064
v -0.000662 -0.000039 -0.000117
v -0.001756 -0.000099 -0.000071
v -0.000232 -0.000024 0.000097
v 0.000804 -0.000143 0.000168
v -0.001748 -0.000231 -0.000328
v -0.001669 -0.000190 -0.000332
v 0.000930 -0.000105 -0.000027
v 0.002073 0.000014 0.000630
v 0.001050 -0.000110 0.000006
v 0.001663 0.000122 0.000257
v 0.001812 0.000137 0.000328
v -0.001327 -0.000003 -0.000428
v -0.000387 0.000180 -0.000128
v -0.001465 0.000049 -0.000146
v -0.000433 0.000010 -0.000318
v 0.001900 0.000056 0.000439
v 0.001757 -0.000053 0.000477
v 0.001793 0.000047 0.000393
v -0.000240 -0.000012 0.000026
v 0.001932 -0.000040 0.000599
v 0.002030 -0.000158 0.000567
v -0.001353 -0.000131 -0.000046
v -0.000349 0.000065 -0.000179
v -0.000220 0.000017 0.000001
v -0.001152 -0.000095 -0.000047
v 0.000830 -0.000113 0.000168
v 0.000865 -0.000181 0.000177
v 0.000391 -0.000074 -0.000154
v 0.002123 -0.000079 0.000608
v 0.002248 -0.000132 0.000581
v 0.000352 -0.000076 0.000014
v -0.000457 0.000139 -0.000162
v -0.001518 -0.000109 -0.000329
v -0.001655 -0.000128 -0.000455
v -0.001797 -0.000118 -0.000530
v -0.001542 0.000125 -0.000457
v -0.000692 -0.000009 -0.000221
v -0.000240 -0.000025 -0.000101
v 0.002125 -0.000063 0.000349
v 0.001261 -0.000027 0.000212
v -0.001738 0.000083 -0.000127
v 0.002063 0.000161 0.000426
v -0.000877 -0.000014 -0.000221
v 0.001386 -0.000075 0.000125
v -0.001640 0.000079 -0.000057
v 0.000784 -0.000101 -0.000071
v -0.001814 -0.000058 -0.000230
v 0.001506 0.000094 0.000223
v -0.001871 -0.000116 -0.000376
v -0.001691 0.000122 -0.000436
v -0.001699 -0.000193 -0.000109
v 0.000893 -0.000109 0.000019
v 0.000617 -0.000086 -0.000028
v 0.001028 0.000065 0.000053
v -0.000379 -0.000006 -0.000109
v -0.001492 -0.000162 -0.000053
v 0.000018 -0.000045 -0.000233
v -0.001088 -0.000024 -0.000207
v -0.000399 0.000145 -0.000096
v -0.000536 -0.000051 -0.000024
v -0.001764 0.000142 -0.000359
v -0.001840 0.000164 -0.000327
v 0.000198 0.000145 -0.000075
v 0.000645 0.000056 -0.000056
v 0.000979 -0.000164 0.000154
v -0.000852 0.000029 -0.000109
v -0.000160 -0.000009 0.000145
v 0.000241 -0.000046 0.000054
v -0.001830 -0.000019 -0.000170
v -0.000257 -0.000007 -0.000211
v 0.001721 0.000013 0.000244
v 0.002281 0.000023 0.000362
v 0.000519 -0.000137 0.000146
v 0.000575 -0.000069 0.000126
v -0.000783 0.000010 -0.000353
v 0.000470 -0.000060 0.000093
v 0.000371 -0.000084 0.000105
v -0.001031 0.000032 -0.000390
v 0.000058 -0.000034 0.000131
v -0.001029 0.000021 -0.000335
v -0.000983 0.000020 -0.000330
v -0.001468 0.000081 -0.000065
v -0.000403 0.000028 -0.000057
v 0.002246 0.000234 0.000615
v -0.000477 -0.000058 0.000036
v 0.000632 -0.000097 -0.000108
v -0.001361 0.000129 -0.000412
v -0.000734 0.000020 -0.000245
v -0.000613 0.000100 -0.000122
v 0.000150 -0.000044 -0.000179
v 0.001833 0.000011 0.000307
v -0.001066 0.000005 -0.000273
v -0.001073 0.000036 -0.000421
v -0.001215 0.000086 -0.000414
v -0.001172 0.000163 -0.000406
v -0.000770 0.000142 -0.000167
v -0.000498 0.000054 -0.000087
v 0.000949 0.000051 0.000013
v 0.001371 0.000039 0.000143
v -0.000433 -0.000052 0.000073
v -0.001210 0.000048 -0.000095
v -0.001775 -0.000244 -0.000398
v 0.001416 -0.000091 0.000188
v -0.000952 0.000138 -0.000159
v 0.000437 -0.000105 0.000134
v -0.001008 0.000146 -0.000105
v -0.000822 0.000148 -0.000215
v -0.001637 -0.000215 -0.000087
v 0.001137 -0.000153 0.000214
v 0.001319 -0.000130 0.000228
v 0.000908 -0.000122 0.000213
v -0.001119 0.000070 -0.000398
v -0.001035 0.000087 -0.000318
v -0.001027 -0.000091 -0.000026
v 0.000649 -0.000151 0.000161
v 0.001598 0.000015 0.000196
v -0.000868 0.000019 -0.000392
v -0.001007 0.000167 -0.000290
v 0.001061 -0.000178 0.000227
v 0.000267 -0.000038 -0.000174
v -0.000520 0.000211 -0.000148
v -0.001808 -0.000039 -0.000052
v 0.000962 -0.000043 0.000005
v 0.000708 -0.000102 0.000174
v 0.002039 -0.000064 0.000329
v -0.000435 0.000187 -0.000136
v -0.001830 -0.000114 -0.000536
v -0.001820 -0.000009 -0.000572
v -0.001849 0.000120 -0.000474
v -0.001854 -0.000211 -0.000449
v -0.001887 0.000062 -0.000339
v -0.001879 -0.000085 -0.000364
v -0.001847 -0.000196 -0.000473
v -0.001887 0.000057 -0.000340
v -0.001887 0.000064 -0.000340
v -0.001833 -0.000119 -0.000525
v -0.001835 -0.000134 -0.000517
v -0.001832 0.000102 -0.000533
v -0.001831 0.000064 -0.000538
v -0.001859 -0.000181 -0.000432
v -0.001876 -0.000119 -0.000376
v -0.001859 -0.000182 -0.000434
v -0.001882 0.000138 -0.000359
v -0.001888 -0.000020 -0.000335
v -0.001857 0.000137 -0.000446
v -0.001820 -0.000023 -0.000574
v -0.001864 0.000138 -0.000422
v -0.001873 0.000134 -0.000393
v -0.001847 0.000120 -0.000483
v -0.001825 -0.000074 -0.000556
v -0.001866 -0.000154 -0.000411
v -0.001832 0.000092 -0.000534
v 0.002343 0.000209 0.000690
v 0.002341 0.000272 0.000675
v 0.002344 0.000188 0.000694
v 0.002368 -0.000151 0.000622
v 0.002362 -0.000052 0.000624
v 0.002370 -0.000162 0.000604
v 0.002343 0.000275 0.000651
v 0.002368 -0.000157 0.000619
v 0.002350 0.000274 0.000568
v 0.002367 0.000203 0.000411
v 0.002380 -0.000132 0.000458
v 0.002363 0.000224 0.000453
v 0.002371 0.000166 0.000392
v 0.002368 0.000199 0.000405
v 0.002374 0.000119 0.000387
v 0.002352 0.000273 0.000546
v 0.002380 -0.000056 0.000423
v 0.002361 -0.000029 0.000628
v 0.002348 0.000128 0.000684
v 0.002377 0.000054 0.000389
v 0.002377 -0.000176 0.000532
v 0.002380 -0.000148 0.000475
vt 0.909020 0.915530
vt 0.910722 0.912523
vt 0.911185 0.915205
vt 0.510953 0.585537
vt 0.514320 0.586230
vt 0.511607 0.587231
vt 0.820457 0.987421
vt 0.822217 0.987465
vt 0.820723 0.989005
vt 0.992620 0.989592
vt 0.990490 0.989005
vt 0.991435 0.988132
vt 0.811617 0.163613
vt 0.810315 0.160873
vt 0.811352 0.160996
vt 0.430923 0.573544
vt 0.430665 0.572320
vt 0.434686 0.572976
vt 0.568273 0.503323
vt 0.569874 0.500053
vt 0.571500 0.503206
vt 0.745325 0.121594
vt 0.745491 0.123442
vt 0.743995 0.124643
vt 0.064372 0.478413
vt 0.064713 0.479329
vt 0.063388 0.478577
vt 0.799219 0.154782
vt 0.797161 0.146626
vt 0.800812 0.151399
vt 0.095956 0.132243
vt 0.094833 0.131919
vt 0.096465 0.131014
vt 0.985012 0.077949
vt 0.981393 0.078334
vt 0.981952 0.073487
vt 0.483374 0.109746
vt 0.482886 0.107018
vt 0.483779 0.107747
vt 0.922720 0.479102
vt 0.923656 0.478020
vt 0.922836 0.480389
vt 0.388325 0.509693
vt 0.387574 0.513271
vt 0.383752 0.516811
vt 0.358329 0.511647
vt 0.363133 0.509830
vt 0.361046 0.513097
vt 0.133886 0.636926
vt 0.132790 0.636002
vt 0.134289 0.636353
vt 0.859592 0.409244
vt 0.858109 0.410595
vt 0.857383 0.409537
vt 0.169427 0.282533
vt 0.165126 0.280932
vt 0.169843 0.280027
vt 0.513367 0.589645
vt 0.375581 0.376958
vt 0.373625 0.380318
vt 0.370734 0.380134
vt 0.388155 0.508035
vt 0.391550 0.503613
vt 0.390970 0.507325
vt 0.326701 0.403268
vt 0.328040 0.400428
vt 0.331413 0.400191
vt 0.481900 0.084540
vt 0.480879 0.081985
vt 0.482045 0.081531
vt 0.661999 0.631697
vt 0.660589 0.630792
vt 0.663027 0.629825
vt 0.952590 0.077303
vt 0.953422 0.076155
vt 0.955570 0.078921
vt 0.166930 0.283849
vt 0.770559 0.612755
vt 0.769030 0.614976
vt 0.768470 0.613914
vt 0.588197 0.717196
vt 0.591050 0.720314
vt 0.586955 0.719772
vt 0.592611 0.717961
vt 0.990494 0.074785
vt 0.991582 0.079248
vt 0.988927 0.080951
vt 0.538608 0.516966
vt 0.543040 0.513331
vt 0.541244 0.518517
vt 0.952340 0.994379
vt 0.950276 0.993699
vt 0.952795 0.992667
vt 0.974684 0.075954
vt 0.977097 0.080232
vt 0.973593 0.080467
vt 0.676506 0.496246
vt 0.676037 0.492232
vt 0.679005 0.493597
vt 0.367413 0.986854
vt 0.365602 0.987854
vt 0.365989 0.986517
vt 0.336919 0.647419
vt 0.337171 0.651182
vt 0.335885 0.648773
vt 0.358660 0.516569
vt 0.360901 0.518881
vt 0.571636 0.499914
vt 0.575033 0.499057
vt 0.574333 0.502637
vt 0.307594 0.957188
vt 0.310398 0.957206
vt 0.309517 0.958147
vt 0.324381 0.404708
vt 0.322585 0.402828
vt 0.559574 0.567196
vt 0.560446 0.569606
vt 0.555822 0.570886
vt 0.332839 0.402151
vt 0.331955 0.400938
vt 0.334377 0.400739
vt 0.850052 0.890671
vt 0.851448 0.888969
vt 0.851922 0.891101
vt 0.854005 0.891430
vt 0.854032 0.890225
vt 0.856569 0.889769
vt 0.994409 0.076322
vt 0.479831 0.978230
vt 0.482737 0.979926
vt 0.479580 0.981003
vt 0.977849 0.075530
vt 0.132984 0.678950
vt 0.131244 0.675898
vt 0.133221 0.676002
vt 0.440295 0.567369
vt 0.439665 0.570103
vt 0.437820 0.567951
vt 0.904703 0.914768
vt 0.902287 0.914045
vt 0.901912 0.909462
vt 0.355739 0.509777
vt 0.358942 0.507368
vt 0.303426 0.299318
vt 0.304236 0.296802
vt 0.304107 0.299646
vt 0.380493 0.938713
vt 0.379232 0.941480
vt 0.378552 0.939305
vt 0.081399 0.676616
vt 0.080928 0.679442
vt 0.079830 0.675971
vt 0.573101 0.754836
vt 0.572072 0.753690
vt 0.575338 0.752659
vt 0.356499 0.509162
vt 0.356767 0.507845
vt 0.902788 0.919701
vt 0.899778 0.916090
vt 0.329896 0.541415
vt 0.330959 0.542564
vt 0.331762 0.544999
vt 0.355089 0.502829
vt 0.359627 0.502384
vt 0.358308 0.505681
vt 0.376759 0.080263
vt 0.376469 0.078172
vt 0.377805 0.079163
vt 0.899844 0.912235
vt 0.900044 0.910442
vt 0.964820 0.172669
vt 0.966069 0.172803
vt 0.965415 0.173682
vt 0.376891 0.942123
vt 0.664216 0.446695
vt 0.659903 0.447314
vt 0.663709 0.444242
vt 0.046870 0.476967
vt 0.044929 0.477287
vt 0.045740 0.476211
vt 0.590423 0.795996
vt 0.589463 0.797024
vt 0.588962 0.794874
vt 0.290558 0.138675
vt 0.292827 0.139419
vt 0.291827 0.139856
vt 0.043353 0.347280
vt 0.045370 0.348228
vt 0.043541 0.348741
vt 0.746025 0.742128
vt 0.745176 0.741683
vt 0.746468 0.741090
vt 0.612878 0.485886
vt 0.613917 0.487891
vt 0.612652 0.492425
vt 0.203270 0.453598
vt 0.201915 0.454932
vt 0.201805 0.453611
vt 0.327997 0.548115
vt 0.329653 0.550799
vt 0.325315 0.548848
vt 0.474084 0.358849
vt 0.478209 0.360496
vt 0.474601 0.363419
vt 0.799994 0.225971
vt 0.803730 0.222202
vt 0.803552 0.225101
vt 0.904821 0.917012
vt 0.796747 0.764420
vt 0.795796 0.763529
vt 0.796930 0.763365
vt 0.441017 0.809233
vt 0.438941 0.807859
vt 0.440745 0.805492
vt 0.445774 0.806520
vt 0.374057 0.137229
vt 0.373690 0.135592
vt 0.374998 0.135827
vt 0.821383 0.621517
vt 0.820388 0.623141
vt 0.819504 0.623042
vt 0.545677 0.518928
vt 0.952140 0.851617
vt 0.951506 0.852966
vt 0.950944 0.851684
vt 0.900738 0.920679
vt 0.900565 0.922684
vt 0.114092 0.961836
vt 0.115399 0.964176
vt 0.112422 0.961436
vt 0.986080 0.180400
vt 0.985850 0.179004
vt 0.987286 0.180230
vt 0.221779 0.267650
vt 0.220443 0.266021
vt 0.221841 0.266722
vt 0.878012 0.453406
vt 0.877511 0.455745
vt 0.876405 0.453444
vt 0.325820 0.537686
vt 0.325762 0.539284
vt 0.323838 0.536922
vt 0.336854 0.547675
vt 0.329370 0.547491
vt 0.546902 0.092474
vt 0.546065 0.091519
vt 0.546597 0.090140
vt 0.929801 0.184216
vt 0.931043 0.185382
vt 0.929613 0.185712
vt 0.806951 0.164791
vt 0.807010 0.162814
vt 0.167136 0.279197
vt 0.538998 0.520227
vt 0.216972 0.144505
vt 0.216287 0.146392
vt 0.215431 0.144726
vt 0.380339 0.944289
vt 0.380414 0.943351
vt 0.364187 0.647848
vt 0.359513 0.648344
vt 0.363200 0.646587
vt 0.044040 0.959528
vt 0.045951 0.957240
vt 0.046644 0.959355
vt 0.158767 0.284687
vt 0.157372 0.282702
vt 0.162464 0.280424
vt 0.927106 0.109261
vt 0.929905 0.108859
vt 0.930528 0.109248
vt 0.588348 0.796945
vt 0.588420 0.796155
vt 0.437488 0.333340
vt 0.437511 0.334329
vt 0.436572 0.334434
vt 0.265540 0.494847
vt 0.264219 0.494154
vt 0.264757 0.493427
vt 0.477157 0.357798
vt 0.954639 0.376231
vt 0.955108 0.375414
vt 0.956979 0.376313
vt 0.711259 0.747272
vt 0.711515 0.747499
vt 0.710492 0.747451
vt 0.212285 0.077194
vt 0.213796 0.078701
vt 0.212713 0.079133
vt 0.286014 0.959265
vt 0.288527 0.958407
vt 0.289603 0.960169
vt 0.382734 0.514077
vt 0.385437 0.510978
vt 0.366061 0.374682
vt 0.368751 0.375625
vt 0.367946 0.376155
vt 0.980005 0.826031
vt 0.982842 0.825865
vt 0.981289 0.826877
vt 0.772016 0.577817
vt 0.770260 0.576591
vt 0.770792 0.575615
vt 0.482652 0.978796
vt 0.059370 0.719345
vt 0.058714 0.721596
vt 0.057951 0.720532
vt 0.398929 0.677469
vt 0.397614 0.676894
vt 0.398406 0.673717
vt 0.460819 0.490369
vt 0.462137 0.493697
vt 0.456297 0.487823
vt 0.367185 0.111047
vt 0.366490 0.109655
vt 0.368703 0.109412
vt 0.904863 0.910275
vt 0.391327 0.509298
vt 0.354749 0.714320
vt 0.356093 0.713461
vt 0.356687 0.717999
vt 0.996151 0.077484
vt 0.993076 0.081481
vt 0.327911 0.538696
vt 0.328124 0.540117
vt 0.325882 0.541124
vt 0.713375 0.638602
vt 0.712605 0.637663
vt 0.715866 0.638592
vt 0.126901 0.923936
vt 0.122046 0.922521
vt 0.121877 0.921740
vt 0.840433 0.900036
vt 0.842326 0.903121
vt 0.840280 0.901050
vt 0.023547 0.401549
vt 0.024965 0.401829
vt 0.024807 0.402724
vt 0.149724 0.287438
vt 0.146477 0.287540
vt 0.151707 0.284674
vt 0.339402 0.276441
vt 0.335859 0.278452
vt 0.338244 0.274667
vt 0.680527 0.358232
vt 0.680102 0.361045
vt 0.679049 0.360454
vt 0.307035 0.288355
vt 0.308397 0.289757
vt 0.304395 0.290991
vt 0.077777 0.787895
vt 0.076325 0.790137
vt 0.075820 0.788070
vt 0.139396 0.913275
vt 0.138038 0.910997
vt 0.141298 0.912223
vt 0.399075 0.670727
vt 0.400143 0.671852
vt 0.966440 0.078144
vt 0.963815 0.076563
vt 0.968262 0.075236
vt 0.973461 0.073346
vt 0.154472 0.282803
vt 0.155400 0.284956
vt 0.515798 0.588215
vt 0.526271 0.843832
vt 0.529268 0.847054
vt 0.527095 0.846210
vt 0.770588 0.858225
vt 0.772669 0.858069
vt 0.772258 0.860201
vt 0.864203 0.902845
vt 0.862794 0.904543
vt 0.861441 0.902470
vt 0.947222 0.077367
vt 0.950855 0.077360
vt 0.949570 0.079169
vt 0.910360 0.537192
vt 0.908053 0.536396
vt 0.908681 0.535055
vt 0.142848 0.939938
vt 0.144046 0.942087
vt 0.142582 0.943622
vt 0.141551 0.941661
vt 0.544047 0.520418
vt 0.383471 0.526155
vt 0.380882 0.527759
vt 0.382463 0.524044
vt 0.041093 0.674620
vt 0.041977 0.676180
vt 0.040394 0.676182
vt 0.187854 0.022760
vt 0.187338 0.023703
vt 0.186830 0.021515
vt 0.384927 0.519460
vt 0.942310 0.426647
vt 0.942441 0.428249
vt 0.941388 0.427404
vt 0.925146 0.479952
vt 0.926411 0.478202
vt 0.789576 0.629255
vt 0.788289 0.631665
vt 0.787128 0.630146
vt 0.025203 0.962631
vt 0.025038 0.961414
vt 0.025873 0.962815
vt 0.536659 0.516048
vt 0.533904 0.513653
vt 0.536525 0.510675
vt 0.183644 0.751055
vt 0.185746 0.751499
vt 0.182481 0.753744
vt 0.988921 0.927885
vt 0.988920 0.925793
vt 0.989871 0.930029
vt 0.334810 0.276554
vt 0.335296 0.275011
vt 0.969638 0.079880
vt 0.956802 0.080941
vt 0.961850 0.078190
vt 0.962150 0.080073
vt 0.881984 0.070531
vt 0.880845 0.070103
vt 0.881480 0.069423
vt 0.987243 0.559566
vt 0.985734 0.558791
vt 0.987359 0.557742
vt 0.324669 0.399860
vt 0.816958 0.324543
vt 0.816102 0.326377
vt 0.813975 0.327312
vt 0.008431 0.957520
vt 0.008748 0.958629
vt 0.007199 0.958411
vt 0.553104 0.572063
vt 0.554486 0.573282
vt 0.532948 0.131181
vt 0.531760 0.130004
vt 0.534165 0.131056
vt 0.894230 0.081455
vt 0.894630 0.082510
vt 0.893465 0.082434
vt 0.838593 0.363597
vt 0.837935 0.362453
vt 0.839733 0.361971
vt 0.678388 0.596421
vt 0.672208 0.596355
vt 0.674000 0.594673
vt 0.474845 0.016463
vt 0.473811 0.015835
vt 0.474391 0.014810
vt 0.738391 0.826628
vt 0.741552 0.827887
vt 0.738316 0.827933
vt 0.801425 0.145358
vt 0.799980 0.144748
vt 0.803116 0.150947
vt 0.802482 0.147769
vt 0.594999 0.797455
vt 0.593015 0.797095
vt 0.593075 0.794858
vt 0.454774 0.485197
vt 0.456554 0.485518
vt 0.977241 0.072689
vt 0.363332 0.373057
vt 0.366920 0.371579
vt 0.649141 0.827846
vt 0.649798 0.827964
vt 0.648965 0.829432
vt 0.648289 0.828320
vt 0.424597 0.576210
vt 0.424270 0.574261
vt 0.425734 0.576344
vt 0.934647 0.827924
vt 0.934549 0.830549
vt 0.933421 0.829885
vt 0.019333 0.186569
vt 0.018948 0.185508
vt 0.019846 0.184741
vt 0.193002 0.152735
vt 0.193667 0.153800
vt 0.192697 0.154825
vt 0.361557 0.503075
vt 0.971003 0.081160
vt 0.558847 0.571656
vt 0.818940 0.895999
vt 0.818349 0.897117
vt 0.815800 0.895313
vt 0.473135 0.357391
vt 0.024411 0.973848
vt 0.026934 0.972974
vt 0.027273 0.974599
vt 0.428436 0.573234
vt 0.429154 0.574601
vt 0.364047 0.982552
vt 0.363921 0.980872
vt 0.366171 0.983282
vt 0.913297 0.913410
vt 0.523970 0.514697
vt 0.523713 0.517983
vt 0.523347 0.517775
vt 0.721615 0.165335
vt 0.719906 0.165014
vt 0.722497 0.164153
vt 0.208681 0.755648
vt 0.211750 0.754352
vt 0.209053 0.756980
vt 0.441771 0.568741
vt 0.443222 0.566442
vt 0.363774 0.370295
vt 0.360788 0.371310
vt 0.362083 0.368033
vt 0.993672 0.073803
vt 0.279534 0.089100
vt 0.277446 0.088997
vt 0.279249 0.088025
vt 0.734722 0.330717
vt 0.732291 0.331219
vt 0.732596 0.329013
vt 0.936541 0.600943
vt 0.935087 0.601205
vt 0.935682 0.599374
vt 0.926092 0.227502
vt 0.926644 0.225844
vt 0.927638 0.227046
vt 0.963610 0.677005
vt 0.962650 0.676032
vt 0.964507 0.675488
vt 0.661357 0.449845
vt 0.130265 0.479860
vt 0.131379 0.478377
vt 0.131184 0.479555
vt 0.673892 0.496845
vt 0.672994 0.495431
vt 0.992398 0.730512
vt 0.991660 0.726383
vt 0.992388 0.726671
vt 0.846897 0.519981
vt 0.846830 0.516003
vt 0.847925 0.518172
vt 0.526660 0.841115
vt 0.531301 0.845811
vt 0.525816 0.842978
vt 0.900509 0.914354
vt 0.870354 0.414290
vt 0.871753 0.414939
vt 0.870502 0.416176
vt 0.250390 0.432378
vt 0.249637 0.431162
vt 0.250723 0.430499
vt 0.580224 0.753002
vt 0.578843 0.755594
vt 0.956223 0.075155
vt 0.958418 0.076953
vt 0.136146 0.912162
vt 0.974430 0.406107
vt 0.973474 0.407304
vt 0.972802 0.406460
vt 0.901842 0.562877
vt 0.903772 0.562636
vt 0.902546 0.564237
vt 0.974469 0.405045
vt 0.547418 0.577227
vt 0.550872 0.574963
vt 0.550271 0.578790
vt 0.796575 0.143697
vt 0.796447 0.145526
vt 0.798163 0.143368
vt 0.642545 0.525102
vt 0.643475 0.522333
vt 0.644409 0.525119
vt 0.363403 0.517394
vt 0.672123 0.489120
vt 0.672935 0.486992
vt 0.673917 0.488963
vt 0.923193 0.547236
vt 0.922846 0.545955
vt 0.925317 0.544637
vt 0.923506 0.544476
vt 0.363043 0.506466
vt 0.375919 0.943360
vt 0.857305 0.450050
vt 0.854560 0.449877
vt 0.855932 0.448578
vt 0.181224 0.552236
vt 0.181700 0.550700
vt 0.182459 0.551940
vt 0.857864 0.412266
vt 0.338047 0.399945
vt 0.335010 0.398717
vt 0.416178 0.153703
vt 0.414435 0.152076
vt 0.416647 0.152345
vt 0.558760 0.573978
vt 0.557670 0.572297
vt 0.957420 0.082686
vt 0.955902 0.082471
vt 0.590557 0.794973
vt 0.490027 0.701155
vt 0.493336 0.704055
vt 0.490036 0.704522
vt 0.334329 0.289060
vt 0.334613 0.284264
vt 0.336202 0.285662
vt 0.159569 0.279514
vt 0.319167 0.404094
vt 0.319495 0.401656
vt 0.812345 0.208779
vt 0.813020 0.213163
vt 0.810725 0.211327
vt 0.815722 0.779241
vt 0.814152 0.780069
vt 0.813244 0.779219
vt 0.813642 0.777770
vt 0.666851 0.443201
vt 0.316268 0.285022
vt 0.314815 0.284663
vt 0.316009 0.283860
vt 0.661945 0.636234
vt 0.664724 0.634095
vt 0.658566 0.636139
vt 0.663452 0.637251
vt 0.364558 0.374828
vt 0.465472 0.495214
vt 0.465375 0.499538
vt 0.460682 0.494021
vt 0.040019 0.673735
vt 0.372346 0.385469
vt 0.683804 0.360885
vt 0.987366 0.763077
vt 0.986396 0.762583
vt 0.988110 0.761882
vt 0.362019 0.501403
vt 0.589480 0.799165
vt 0.588313 0.797691
vt 0.589389 0.797812
vt 0.975705 0.488961
vt 0.974283 0.488893
vt 0.974809 0.486145
vt 0.487793 0.703489
vt 0.489185 0.705559
vt 0.487047 0.704597
vt 0.075169 0.789384
vt 0.643910 0.519246
vt 0.645458 0.524280
vt 0.219550 0.045892
vt 0.220646 0.046961
vt 0.219236 0.046870
vt 0.520530 0.582717
vt 0.519025 0.584793
vt 0.517836 0.582227
vt 0.742712 0.802855
vt 0.743782 0.802835
vt 0.743769 0.804392
vt 0.369201 0.371274
vt 0.731734 0.844023
vt 0.732520 0.842801
vt 0.733230 0.844140
vt 0.603672 0.961770
vt 0.601340 0.964175
vt 0.602266 0.962686
vt 0.596186 0.266119
vt 0.598013 0.264968
vt 0.597101 0.267204
vt 0.796434 0.229114
vt 0.797566 0.227498
vt 0.796504 0.230811
vt 0.334610 0.548961
vt 0.894947 0.708581
vt 0.894947 0.706668
vt 0.895559 0.706220
vt 0.283026 0.953997
vt 0.287457 0.954293
vt 0.283982 0.955110
vt 0.023998 0.962480
vt 0.025824 0.965112
vt 0.054707 0.925775
vt 0.055304 0.923822
vt 0.056656 0.926780
vt 0.988318 0.559989
vt 0.987512 0.561238
vt 0.115511 0.527836
vt 0.114146 0.528151
vt 0.117095 0.526473
vt 0.986622 0.072945
vt 0.527595 0.510185
vt 0.528750 0.507885
vt 0.530775 0.510409
vt 0.730576 0.763515
vt 0.730342 0.762209
vt 0.731673 0.762395
vt 0.293053 0.954084
vt 0.292568 0.955360
vt 0.907038 0.918735
vt 0.904694 0.919728
vt 0.954847 0.709718
vt 0.954302 0.708380
vt 0.956353 0.708473
vt 0.003825 0.841925
vt 0.000948 0.842479
vt 0.001068 0.839684
vt 0.040445 0.218364
vt 0.041463 0.216974
vt 0.040673 0.219336
vt 0.516410 0.243683
vt 0.516092 0.244221
vt 0.515286 0.242217
vt 0.239183 0.299505
vt 0.240474 0.299648
vt 0.239753 0.301280
vt 0.929737 0.260174
vt 0.930934 0.259926
vt 0.931025 0.261107
vt 0.673831 0.589719
vt 0.670563 0.587484
vt 0.673572 0.587448
vt 0.238904 0.334334
vt 0.240086 0.333777
vt 0.239154 0.335472
vt 0.754127 0.520513
vt 0.756764 0.521571
vt 0.754860 0.521835
vt 0.512321 0.593005
vt 0.514589 0.593149
vt 0.657823 0.449964
vt 0.326476 0.546156
vt 0.325204 0.545229
vt 0.604417 0.973144
vt 0.603482 0.974610
vt 0.603664 0.971453
vt 0.733444 0.328766
vt 0.735726 0.329082
vt 0.746666 0.485037
vt 0.747573 0.483127
vt 0.748213 0.484246
vt 0.233580 0.317315
vt 0.234975 0.316411
vt 0.235103 0.317325
vt 0.946894 0.517165
vt 0.942138 0.518659
vt 0.943749 0.517740
vt 0.538169 0.290804
vt 0.538583 0.289300
vt 0.540341 0.291201
vt 0.538789 0.290960
vt 0.934521 0.391863
vt 0.932888 0.390995
vt 0.935074 0.390339
vt 0.936321 0.390456
vt 0.478029 0.363115
vt 0.680503 0.493585
vt 0.043493 0.892751
vt 0.045432 0.891377
vt 0.044996 0.892510
vt 0.359325 0.715849
vt 0.143526 0.660908
vt 0.143467 0.659706
vt 0.144793 0.662135
vt 0.228579 0.366909
vt 0.228498 0.368370
vt 0.227389 0.367932
vt 0.651311 0.845977
vt 0.653746 0.847678
vt 0.651261 0.847934
vt 0.334289 0.291334
vt 0.326948 0.406534
vt 0.325192 0.404693
vt 0.328693 0.405569
vt 0.324185 0.407203
vt 0.935969 0.266422
vt 0.937608 0.267766
vt 0.936683 0.268257
vt 0.329435 0.551698
vt 0.330620 0.555050
vt 0.328603 0.552198
vt 0.322514 0.537911
vt 0.484430 0.357561
vt 0.481766 0.359470
vt 0.483601 0.355007
vt 0.007215 0.227086
vt 0.006326 0.227463
vt 0.007152 0.225384
vt 0.259042 0.758978
vt 0.257671 0.758746
vt 0.260024 0.757928
vt 0.322510 0.545290
vt 0.321971 0.547992
vt 0.320895 0.545451
vt 0.988907 0.887556
vt 0.989219 0.888881
vt 0.987387 0.889045
vt 0.126811 0.806419
vt 0.124721 0.805324
vt 0.129489 0.805529
vt 0.332297 0.298268
vt 0.330438 0.297876
vt 0.333066 0.296376
vt 0.332260 0.294634
vt 0.310951 0.958208
vt 0.314046 0.958419
vt 0.188686 0.884604
vt 0.194759 0.885954
vt 0.192812 0.886105
vt 0.027722 0.228429
vt 0.027836 0.229823
vt 0.026796 0.230409
vt 0.470340 0.504641
vt 0.468408 0.499640
vt 0.471469 0.502367
vt 0.854047 0.508568
vt 0.855257 0.508862
vt 0.852935 0.512459
vt 0.865232 0.361505
vt 0.865335 0.363536
vt 0.864362 0.362630
vt 0.360984 0.372878
vt 0.329265 0.294959
vt 0.263400 0.760276
vt 0.261651 0.760852
vt 0.263591 0.761985
vt 0.536464 0.510494
vt 0.537063 0.508833
vt 0.649849 0.827735
vt 0.302936 0.294513
vt 0.303729 0.293132
vt 0.306731 0.292688
vt 0.942052 0.495733
vt 0.943925 0.497417
vt 0.944698 0.499796
vt 0.672609 0.491135
vt 0.762758 0.139993
vt 0.761613 0.141059
vt 0.761738 0.139197
vt 0.140261 0.910936
vt 0.339719 0.274071
vt 0.912389 0.178620
vt 0.912726 0.177486
vt 0.913677 0.178150
vt 0.936613 0.603779
vt 0.935361 0.603071
vt 0.063524 0.396346
vt 0.064569 0.396088
vt 0.063938 0.397834
vt 0.866885 0.288160
vt 0.868081 0.288988
vt 0.865680 0.288592
vt 0.427239 0.568949
vt 0.429214 0.569512
vt 0.424783 0.570506
vt 0.671050 0.593355
vt 0.535168 0.518228
vt 0.537008 0.518934
vt 0.923957 0.305496
vt 0.922224 0.306422
vt 0.924733 0.302849
vt 0.136445 0.914014
vt 0.331265 0.551888
vt 0.333059 0.552486
vt 0.862116 0.474620
vt 0.863262 0.471697
vt 0.864052 0.473576
vt 0.317765 0.282108
vt 0.319024 0.282753
vt 0.400118 0.676731
vt 0.399142 0.675635
vt 0.286961 0.682713
vt 0.285459 0.687614
vt 0.283311 0.680603
vt 0.315989 0.283414
vt 0.314142 0.283559
vt 0.316912 0.281422
vt 0.559227 0.565029
vt 0.945537 0.788644
vt 0.948440 0.787096
vt 0.947541 0.788457
vt 0.321722 0.277821
vt 0.320624 0.277798
vt 0.324457 0.274875
vt 0.509118 0.243405
vt 0.510737 0.243551
vt 0.509971 0.246238
vt 0.064659 0.592166
vt 0.064259 0.590323
vt 0.064879 0.589239
vt 0.957092 0.835409
vt 0.957238 0.830161
vt 0.957707 0.833595
vt 0.676243 0.489102
vt 0.676924 0.490017
vt 0.658540 0.635200
vt 0.131040 0.680111
vt 0.130707 0.677619
vt 0.042177 0.957384
vt 0.044281 0.956905
vt 0.675512 0.589389
vt 0.540173 0.291501
vt 0.540401 0.291962
vt 0.673804 0.494323
vt 0.041699 0.805693
vt 0.045039 0.804587
vt 0.042691 0.806806
vt 0.924795 0.068946
vt 0.924622 0.070250
vt 0.923342 0.069358
vt 0.932591 0.068782
vt 0.933887 0.068794
vt 0.932532 0.070217
vt 0.439417 0.566058
vt 0.425649 0.571798
vt 0.223549 0.748463
vt 0.223495 0.745168
vt 0.224726 0.745799
vt 0.381718 0.522160
vt 0.110353 0.167439
vt 0.108932 0.166287
vt 0.109861 0.165271
vt 0.927087 0.391627
vt 0.929384 0.391033
vt 0.927959 0.393731
vt 0.479448 0.925155
vt 0.480372 0.926090
vt 0.477072 0.926303
vt 0.128243 0.922866
vt 0.129521 0.923258
vt 0.478005 0.925315
vt 0.476243 0.925084
vt 0.327659 0.244152
vt 0.325927 0.243624
vt 0.327207 0.242788
vt 0.997005 0.074895
vt 0.541863 0.508689
vt 0.845031 0.291321
vt 0.846617 0.289242
vt 0.846333 0.291451
vt 0.477061 0.364924
vt 0.477937 0.365705
vt 0.477453 0.366285
vt 0.026235 0.445068
vt 0.027589 0.446283
vt 0.025692 0.445629
vt 0.797124 0.850894
vt 0.795228 0.852535
vt 0.795790 0.850043
vt 0.950756 0.454293
vt 0.950796 0.457608
vt 0.948654 0.455025
vt 0.059734 0.026769
vt 0.060219 0.027960
vt 0.058818 0.028311
vt 0.308142 0.286410
vt 0.309091 0.286844
vt 0.476560 0.369156
vt 0.474655 0.369129
vt 0.111028 0.527611
vt 0.108592 0.529235
vt 0.107823 0.526918
vt 0.222156 0.854090
vt 0.222738 0.855047
vt 0.221060 0.854781
vt 0.504776 0.223946
vt 0.504439 0.222768
vt 0.506246 0.223523
vt 0.801874 0.228166
vt 0.799829 0.231474
vt 0.360803 0.523890
vt 0.360049 0.524621
vt 0.516203 0.585250
vt 0.309179 0.288274
vt 0.311867 0.285554
vt 0.801051 0.945511
vt 0.802341 0.945849
vt 0.800948 0.946543
vt 0.576131 0.501491
vt 0.870664 0.383227
vt 0.871784 0.382725
vt 0.872248 0.384620
vt 0.866243 0.814095
vt 0.862700 0.813891
vt 0.862907 0.812504
vt 0.747928 0.401489
vt 0.746516 0.401005
vt 0.747807 0.398768
vt 0.094515 0.039570
vt 0.095522 0.038695
vt 0.096541 0.039949
vt 0.413465 0.038780
vt 0.413489 0.037384
vt 0.414606 0.038654
vt 0.813784 0.200004
vt 0.815540 0.199281
vt 0.815222 0.200278
vt 0.782542 0.449730
vt 0.781720 0.448414
vt 0.782773 0.447575
vt 0.952307 0.850260
vt 0.103722 0.346603
vt 0.105436 0.346718
vt 0.104783 0.348110
vt 0.871532 0.836690
vt 0.869934 0.838216
vt 0.868067 0.836609
vt 0.206364 0.617155
vt 0.206439 0.616551
vt 0.207416 0.617465
vt 0.433197 0.568640
vt 0.435737 0.567777
vt 0.269201 0.929694
vt 0.272633 0.927373
vt 0.273065 0.928264
vt 0.399014 0.029849
vt 0.399552 0.031324
vt 0.398441 0.030999
vt 0.399152 0.012809
vt 0.398023 0.011458
vt 0.398945 0.011379
vt 0.417471 0.294798
vt 0.416624 0.294158
vt 0.418174 0.294089
vt 0.758438 0.649651
vt 0.760643 0.649495
vt 0.759811 0.650336
vt 0.304913 0.984559
vt 0.302180 0.987002
vt 0.303639 0.984763
vt 0.136175 0.218994
vt 0.134555 0.218895
vt 0.134739 0.218249
vt 0.136224 0.218884
vt 0.541203 0.520902
vt 0.539313 0.522531
vt 0.410228 0.916851
vt 0.411115 0.918991
vt 0.407526 0.914655
vt 0.058446 0.884389
vt 0.059719 0.885971
vt 0.060724 0.888185
vt 0.784525 0.592202
vt 0.783636 0.593092
vt 0.783531 0.591992
vt 0.517239 0.119923
vt 0.516720 0.118189
vt 0.518242 0.119174
vt 0.333541 0.294962
vt 0.885671 0.296164
vt 0.883814 0.298597
vt 0.883300 0.297234
vt 0.970986 0.073360
vt 0.593889 0.794157
vt 0.594311 0.795217
vt 0.674372 0.351373
vt 0.675563 0.352247
vt 0.675414 0.353883
vt 0.321591 0.406517
vt 0.048853 0.667557
vt 0.049561 0.669073
vt 0.048260 0.668094
vt 0.225519 0.102997
vt 0.225249 0.101034
vt 0.226680 0.102610
vt 0.317945 0.407365
vt 0.317228 0.405581
vt 0.318857 0.406674
vt 0.202640 0.701066
vt 0.201178 0.704164
vt 0.201009 0.702061
vt 0.457388 0.499757
vt 0.458276 0.499314
vt 0.459065 0.500169
vt 0.473386 0.361022
vt 0.540306 0.286803
vt 0.542022 0.291537
vt 0.306713 0.957394
vt 0.526779 0.848188
vt 0.120632 0.525991
vt 0.551825 0.575603
vt 0.056304 0.996881
vt 0.058718 0.996193
vt 0.058914 0.997708
vt 0.072205 0.970642
vt 0.071446 0.970276
vt 0.073068 0.969777
vt 0.003368 0.885408
vt 0.005227 0.884691
vt 0.003829 0.886519
vt 0.266861 0.562374
vt 0.266487 0.561458
vt 0.267129 0.560112
vt 0.675900 0.156591
vt 0.672541 0.155591
vt 0.675212 0.155349
vt 0.500925 0.084565
vt 0.499205 0.084330
vt 0.499990 0.083439
vt 0.156638 0.276769
vt 0.159957 0.277109
vt 0.981242 0.080485
vt 0.019158 0.067669
vt 0.017755 0.069127
vt 0.018153 0.067249
vt 0.879339 0.848607
vt 0.880293 0.849556
vt 0.878486 0.850605
vt 0.017517 0.067617
vt 0.460420 0.488055
vt 0.531549 0.265430
vt 0.529967 0.266060
vt 0.530958 0.264542
vt 0.454879 0.484346
vt 0.756181 0.512202
vt 0.756220 0.509823
vt 0.757269 0.510662
vt 0.203473 0.701400
vt 0.310749 0.735138
vt 0.312217 0.735276
vt 0.312581 0.736686
vt 0.364062 0.581991
vt 0.362838 0.581662
vt 0.364276 0.580955
vt 0.898847 0.909806
vt 0.897957 0.911211
vt 0.093000 0.392538
vt 0.094161 0.393994
vt 0.092852 0.394043
vt 0.787678 0.873527
vt 0.787867 0.872908
vt 0.788334 0.873268
vt 0.305459 0.295994
vt 0.541881 0.292185
vt 0.541920 0.292229
vt 0.903937 0.907140
vt 0.903748 0.907173
vt 0.903275 0.906802
vt 0.161536 0.792915
vt 0.161417 0.789434
vt 0.163310 0.793934
vt 0.898086 0.924236
vt 0.897059 0.922381
vt 0.172635 0.698090
vt 0.172872 0.699897
vt 0.171919 0.700974
vt 0.780098 0.540919
vt 0.781812 0.541109
vt 0.780594 0.542349
vt 0.802594 0.159665
vt 0.803865 0.155365
vt 0.804584 0.157599
vt 0.800996 0.154221
vt 0.908565 0.918027
vt 0.450381 0.239444
vt 0.449945 0.239003
vt 0.452548 0.239304
vt 0.051554 0.993682
vt 0.049253 0.992293
vt 0.055476 0.993992
vt 0.362806 0.499066
vt 0.361081 0.499536
vt 0.808794 0.217351
vt 0.809199 0.214667
vt 0.811367 0.216104
vt 0.058342 0.719663
vt 0.057337 0.717322
vt 0.137493 0.676831
vt 0.136755 0.681486
vt 0.135141 0.680333
vt 0.002371 0.492021
vt 0.002277 0.493338
vt 0.000909 0.493147
vt 0.966355 0.074731
vt 0.807976 0.298113
vt 0.808872 0.299356
vt 0.806130 0.300137
vt 0.572167 0.118040
vt 0.571487 0.115890
vt 0.572702 0.116626
vt 0.676544 0.354308
vt 0.676959 0.352494
vt 0.678354 0.355855
vt 0.333452 0.281827
vt 0.991484 0.072274
vt 0.977554 0.423639
vt 0.977049 0.425241
vt 0.975057 0.426553
vt 0.306343 0.917876
vt 0.308754 0.917088
vt 0.307582 0.918321
vt 0.317156 0.408932
vt 0.315880 0.408144
vt 0.854569 0.858934
vt 0.853539 0.857605
vt 0.855243 0.857845
vt 0.854122 0.856462
vt 0.311227 0.173162
vt 0.310756 0.171323
vt 0.312326 0.173107
vt 0.084276 0.363448
vt 0.083039 0.362376
vt 0.083997 0.362002
vt 0.797650 0.235907
vt 0.797513 0.234031
vt 0.498791 0.163200
vt 0.498061 0.165494
vt 0.497548 0.165058
vt 0.139705 0.886504
vt 0.138731 0.889848
vt 0.138745 0.887473
vt 0.065347 0.971671
vt 0.067545 0.970941
vt 0.921609 0.443957
vt 0.922111 0.437191
vt 0.921884 0.441527
vt 0.704282 0.015658
vt 0.702986 0.016445
vt 0.702977 0.015035
vt 0.605087 0.964125
vt 0.603606 0.965641
vt 0.102210 0.985525
vt 0.096112 0.986217
vt 0.096778 0.984936
vt 0.304853 0.288323
vt 0.050719 0.915991
vt 0.051013 0.914326
vt 0.052709 0.913735
vt 0.052088 0.916905
vt 0.301669 0.292805
vt 0.063232 0.908565
vt 0.065289 0.906222
vt 0.064850 0.908318
vt 0.838400 0.986911
vt 0.837536 0.986568
vt 0.839176 0.984735
vt 0.839752 0.986340
vt 0.646549 0.519434
vt 0.968596 0.373801
vt 0.968170 0.371676
vt 0.970210 0.374858
vt 0.574368 0.063631
vt 0.573151 0.064217
vt 0.572343 0.063171
vt 0.799682 0.760514
vt 0.798153 0.760377
vt 0.799021 0.759617
vt 0.399375 0.674370
vt 0.400326 0.674995
vt 0.381489 0.529749
vt 0.380678 0.529079
vt 0.890022 0.925673
vt 0.891399 0.923299
vt 0.890892 0.924667
vt 0.319764 0.280218
vt 0.319164 0.099837
vt 0.318925 0.101462
vt 0.317250 0.100478
vt 0.934292 0.831704
vt 0.687511 0.046273
vt 0.688019 0.044918
vt 0.688981 0.044870
vt 0.758727 0.411558
vt 0.756869 0.412464
vt 0.757570 0.411244
vt 0.758946 0.409056
vt 0.760042 0.408390
vt 0.358764 0.370409
vt 0.358795 0.371375
vt 0.356671 0.370960
vt 0.421988 0.573600
vt 0.029191 0.972467
vt 0.028324 0.948796
vt 0.025651 0.949121
vt 0.023988 0.947267
vt 0.024518 0.948113
vt 0.360746 0.980742
vt 0.360827 0.981705
vt 0.255132 0.183605
vt 0.256291 0.184595
vt 0.255777 0.185969
vt 0.494909 0.159230
vt 0.493618 0.156690
vt 0.494331 0.156546
vt 0.257320 0.264018
vt 0.254915 0.262916
vt 0.256829 0.262984
vt 0.032653 0.106094
vt 0.031679 0.104497
vt 0.033771 0.104900
vt 0.319230 0.280080
vt 0.745827 0.483657
vt 0.745078 0.485556
vt 0.923546 0.464940
vt 0.922100 0.466579
vt 0.921428 0.465671
vt 0.676561 0.591423
vt 0.944974 0.604386
vt 0.945930 0.604122
vt 0.946263 0.607286
vt 0.672829 0.739868
vt 0.673223 0.738075
vt 0.675106 0.740841
vt 0.171288 0.702114
vt 0.168862 0.700577
vt 0.170005 0.702490
vt 0.380470 0.520940
vt 0.677529 0.015851
vt 0.677183 0.015035
vt 0.677845 0.013725
vt 0.286050 0.982685
vt 0.287247 0.980365
vt 0.287159 0.983310
vt 0.334035 0.293119
vt 0.357787 0.519614
vt 0.363049 0.522552
vt 0.553881 0.570075
vt 0.550349 0.572426
vt 0.567712 0.115807
vt 0.569186 0.114270
vt 0.569474 0.116640
vt 0.355066 0.711761
vt 0.076074 0.305045
vt 0.075181 0.304114
vt 0.077069 0.304771
vt 0.319352 0.408441
vt 0.138063 0.595137
vt 0.137628 0.596923
vt 0.137891 0.594050
vt 0.984626 0.080580
vt 0.766291 0.778377
vt 0.766883 0.779200
vt 0.765628 0.780654
vt 0.038565 0.511928
vt 0.039644 0.513529
vt 0.038352 0.513339
vt 0.994293 0.081228
vt 0.116008 0.112983
vt 0.117741 0.113984
vt 0.116290 0.114209
vt 0.809450 0.212020
vt 0.183820 0.754112
vt 0.184271 0.755370
vt 0.652280 0.852015
vt 0.654298 0.851474
vt 0.655811 0.854451
vt 0.952701 0.074890
vt 0.954733 0.073845
vt 0.951732 0.076048
vt 0.871375 0.413501
vt 0.153777 0.281478
vt 0.152836 0.280736
vt 0.154506 0.280229
vt 0.069605 0.404415
vt 0.070723 0.405408
vt 0.069409 0.405878
vt 0.095031 0.119179
vt 0.094247 0.118308
vt 0.095712 0.117505
vt 0.975476 0.104620
vt 0.976643 0.104557
vt 0.975615 0.106000
vt 0.945179 0.078178
vt 0.945835 0.076969
vt 0.895031 0.427810
vt 0.892109 0.425876
vt 0.894727 0.425827
vt 0.371285 0.374681
vt 0.371011 0.373183
vt 0.405488 0.985650
vt 0.407975 0.987340
vt 0.402937 0.986520
vt 0.605497 0.232268
vt 0.606898 0.230450
vt 0.607637 0.231794
vt 0.395857 0.988850
vt 0.396034 0.988599
vt 0.397058 0.989060
vt 0.328678 0.555019
vt 0.327377 0.555217
vt 0.325905 0.555306
vt 0.326908 0.554193
vt 0.180518 0.927143
vt 0.180527 0.926329
vt 0.180768 0.926612
vt 0.375569 0.066781
vt 0.375295 0.064899
vt 0.375855 0.065133
vt 0.375997 0.065821
vt 0.063736 0.906827
vt 0.060587 0.907231
vt 0.061682 0.906236
vt 0.062450 0.905619
vt 0.070232 0.230641
vt 0.069297 0.232761
vt 0.069267 0.232768
vt 0.069299 0.231587
vt 0.862712 0.810582
vt 0.861301 0.809037
vt 0.862357 0.808398
vt 0.611189 0.486064
vt 0.610954 0.487043
vt 0.610886 0.485975
vt 0.079515 0.063495
vt 0.078900 0.062843
vt 0.079938 0.061586
vt 0.611596 0.490470
vt 0.611989 0.486935
vt 0.613129 0.109068
vt 0.612544 0.110274
vt 0.611719 0.108085
vt 0.611799 0.108104
vt 0.819914 0.295668
vt 0.819893 0.297927
vt 0.818391 0.296041
vt 0.818395 0.295993
vt 0.100935 0.865572
vt 0.099383 0.864199
vt 0.101026 0.863970
vt 0.101217 0.864891
vt 0.616976 0.042061
vt 0.616207 0.043038
vt 0.616119 0.041590
vt 0.616338 0.041505
vt 0.843548 0.787388
vt 0.842525 0.788455
vt 0.841996 0.787260
vt 0.842108 0.787127
vt 0.682087 0.696415
vt 0.681900 0.696311
vt 0.682093 0.696287
vt 0.216842 0.046827
vt 0.216752 0.046781
vt 0.217106 0.046294
vt 0.484089 0.355170
vt 0.485204 0.357124
vt 0.909850 0.910083
vt 0.329255 0.758655
vt 0.328556 0.759348
vt 0.326882 0.758722
vt 0.332289 0.758483
vt 0.331873 0.759091
vt 0.330762 0.759125
vt 0.378799 0.378172
vt 0.378090 0.378873
vt 0.373945 0.385037
vt 0.372867 0.386244
vt 0.483841 0.354495
vt 0.776599 0.114990
vt 0.775179 0.113934
vt 0.775146 0.113776
vt 0.775404 0.112393
vt 0.701717 0.351521
vt 0.703466 0.352970
vt 0.703676 0.353226
vt 0.702393 0.352872
vt 0.900732 0.905458
vt 0.900990 0.905615
vt 0.006703 0.175477
vt 0.007144 0.174650
vt 0.007194 0.175159
vt 0.249259 0.973305
vt 0.251321 0.973009
vt 0.251773 0.973921
vt 0.249876 0.973782
vt 0.251723 0.973452
vn -0.2368 0.2023 0.9503
vn -0.4970 0.0022 0.8678
vn -0.4913 0.7477 0.4468
vn -0.0441 0.9981 -0.0435
vn -0.1490 0.6604 0.7360
vn -0.1938 0.6493 0.7354
vn -0.4168 0.6971 0.5834
vn -0.5155 0.5632 0.6458
vn -0.4796 0.7677 0.4250
vn 0.0789 0.7825 0.6176
vn -0.1530 0.9770 0.1487
vn -0.2231 0.7808 0.5836
vn -0.1512 0.7174 0.6801
vn -0.1843 0.6234 0.7599
vn 0.0230 0.9833 0.1804
vn 0.0124 -0.9997 0.0228
vn 0.2445 -0.8807 -0.4058
vn -0.0611 -0.9537 0.2944
vn 0.2135 0.2816 -0.9355
vn 0.4843 0.8625 -0.1465
vn -0.1451 0.8201 -0.5535
vn -0.0800 0.7911 -0.6064
vn 0.4900 -0.5639 -0.6648
vn 0.1403 -0.9683 -0.2067
vn -0.0250 -0.0073 -0.9997
vn -0.2126 -0.4442 0.8703
vn -0.2546 -0.3433 0.9041
vn -0.3250 0.5955 0.7347
vn 0.3655 -0.7324 -0.5744
vn 0.2919 -0.6345 -0.7156
vn 0.4123 -0.1427 -0.8998
vn 0.0334 0.1293 0.9910
vn -0.0160 0.2301 0.9730
vn 0.0729 0.6642 0.7439
vn -0.3001 -0.0954 0.9491
vn -0.0836 0.7308 0.6774
vn -0.1179 0.9009 0.4177
vn -0.0893 -0.0527 -0.9946
vn -0.1146 -0.9933 -0.0147
vn -0.1349 -0.0402 -0.9901
vn -0.1104 0.9536 0.2803
vn -0.2101 0.9714 0.1111
vn 0.0486 0.6895 -0.7226
vn 0.0329 0.5647 -0.8246
vn -0.0757 0.7370 0.6716
vn 0.1499 0.9082 -0.3907
vn -0.5597 -0.3458 0.7531
vn -0.0210 -0.9828 -0.1835
vn -0.2592 -0.9622 -0.0840
vn -0.1099 -0.2928 0.9498
vn -0.1040 0.6376 0.7633
vn 0.0631 0.5071 0.8595
vn -0.0548 0.5095 -0.8587
vn 0.2308 -0.0959 -0.9683
vn 0.1072 -0.2771 -0.9548
vn 0.1085 0.9621 0.2501
vn 0.1741 0.9735 0.1484
vn 0.0900 0.9798 0.1788
vn 0.1347 0.8152 0.5632
vn 0.1936 0.9798 -0.0502
vn 0.1442 0.7585 0.6355
vn -0.4924 -0.0872 0.8660
vn -0.1883 -0.5301 0.8268
vn 0.0000 0.7654 0.6435
vn 0.2853 0.1147 -0.9515
vn 0.2781 0.7737 -0.5692
vn 0.2891 -0.6010 -0.7451
vn -0.2773 0.2108 0.9374
vn 0.0416 0.4463 0.8939
vn -0.1413 0.4298 0.8918
vn -0.2642 -0.5946 0.7594
vn -0.4430 0.1424 0.8852
vn -0.3123 0.6368 0.7049
vn -0.3441 0.6019 0.7206
vn -0.2577 0.9495 -0.1789
vn 0.0513 0.0513 0.9974
vn -0.0557 -0.1664 0.9845
vn 0.2260 -0.7697 0.5970
vn -0.7838 -0.5288 0.3256
vn -0.5322 -0.8072 0.2553
vn -0.8330 -0.5094 0.2159
vn 0.2006 -0.4697 -0.8597
vn 0.1818 0.7999 -0.5719
vn 0.0045 0.2422 0.9702
vn -0.0294 -0.7529 0.6575
vn 0.1304 -0.6353 0.7612
vn -0.1752 0.6971 0.6952
vn -0.1368 0.7911 0.5962
vn -0.1518 -0.9882 0.0222
vn -0.1002 -0.9904 0.0951
vn -0.1781 -0.5772 -0.7970
vn -0.0538 -0.9967 0.0607
vn 0.1736 0.5125 -0.8410
vn 0.1487 0.5288 -0.8356
vn 0.4808 0.7001 -0.5279
vn 0.0762 0.8371 -0.5418
vn -0.0700 0.7792 -0.6228
vn -0.1092 -0.9411 -0.3201
vn -0.0487 -0.9090 -0.4138
vn -0.2555 -0.7818 0.5688
vn 0.0724 0.9119 0.4040
vn 0.0490 0.6343 0.7715
vn -0.3755 -0.5153 0.7704
vn 0.1282 0.7881 0.6021
vn 0.0306 0.6506 0.7588
vn -0.0637 -0.9964 0.0565
vn -0.0268 -0.3509 -0.9360
vn -0.0705 -0.1032 0.9922
vn -0.2988 0.8529 0.4282
vn 0.0030 0.9697 0.2444
vn -0.0333 0.1063 0.9938
vn -0.0670 -0.8289 -0.5554
vn 0.1121 -0.8176 -0.5647
vn 0.0497 -0.1207 0.9914
vn -0.0463 -0.3335 0.9416
vn -0.1571 -0.2567 0.9537
vn 0.0779 0.7110 -0.6989
vn 0.1523 -0.5225 -0.8389
vn 0.4749 -0.3991 -0.7843
vn 0.4295 -0.7331 -0.5273
vn -0.2633 -0.4279 -0.8646
vn 0.1929 0.8058 -0.5600
vn 0.0652 0.6857 -0.7250
vn -0.4801 -0.0120 0.8771
vn -0.1652 -0.8872 0.4308
vn 0.1848 -0.6706 0.7184
vn 0.2534 -0.6399 0.7255
vn 0.2138 -0.9097 -0.3561
vn 0.2142 0.6805 -0.7008
vn -0.0359 0.4057 0.9133
vn -0.1641 -0.9413 0.2949
vn -0.2730 0.5302 0.8027
vn -0.0214 -0.8844 0.4662
vn -0.1699 -0.8522 0.4949
vn -0.5274 0.4934 0.6917
vn -0.3815 0.9199 -0.0908
vn 0.0630 -0.9277 -0.3679
vn 0.1998 -0.9392 -0.2792
vn 0.0457 -0.9434 -0.3285
vn -0.1013 -0.9873 -0.1221
vn -0.1632 -0.9830 -0.0843
vn 0.2370 0.4703 -0.8501
vn 0.3155 -0.9195 -0.2346
vn 0.3518 -0.8995 -0.2590
vn -0.0508 0.8596 -0.5084
vn 0.1085 0.8333 -0.5420
vn -0.0687 0.9904 -0.1202
vn -0.0438 -0.9321 -0.3595
vn 0.0104 -0.9993 0.0363
vn -0.0725 -0.9967 -0.0361
vn 0.4221 -0.8618 -0.2814
vn -0.0941 0.2743 -0.9570
vn 0.1484 -0.3165 -0.9369
vn 0.0985 0.2449 -0.9645
vn 0.1282 -0.9209 -0.3680
vn -0.0882 -0.0181 0.9959
vn -0.1179 -0.8854 -0.4497
vn 0.0753 -0.9443 -0.3202
vn 0.2683 -0.5817 0.7679
vn -0.0059 -0.9615 -0.2749
vn 0.2773 0.1321 -0.9517
vn 0.3122 -0.0354 -0.9494
vn 0.2448 -0.4997 -0.8309
vn -0.5356 -0.6893 0.4878
vn -0.0024 -0.6300 -0.7766
vn 0.2070 -0.5620 -0.8008
vn 0.1177 0.4643 -0.8778
vn -0.2562 0.9240 -0.2840
vn -0.0161 -0.9483 -0.3170
vn 0.0575 -0.9834 -0.1724
vn -0.0943 -0.9416 -0.3233
vn 0.0488 -0.9425 -0.3307
vn 0.2622 0.9630 0.0616
vn 0.0897 0.9953 0.0373
vn -0.0126 0.9594 -0.2818
vn -0.0799 0.7281 0.6808
vn 0.1548 0.3677 0.9170
vn -0.9464 -0.1262 0.2974
vn -0.6756 -0.1038 0.7300
vn 0.0004 0.9958 -0.0915
vn 0.1804 -0.9507 -0.2521
vn 0.0297 -0.9687 -0.2466
vn -0.1575 0.7116 0.6847
vn -0.0644 0.3877 0.9195
vn -0.3195 -0.1406 -0.9371
vn 0.2072 0.9663 -0.1525
vn -0.7543 0.6229 0.2076
vn -0.0312 -0.9993 0.0185
vn 0.8179 -0.0456 -0.5735
vn 0.7798 0.0960 -0.6187
vn -0.0287 0.8431 0.5370
vn -0.0910 0.8806 0.4650
vn -0.2770 0.8275 0.4884
vn -0.1317 0.9895 -0.0596
vn 0.3200 -0.2553 -0.9124
vn -0.0176 -0.4353 -0.9001
vn 0.4865 -0.8433 -0.2281
vn 0.2234 -0.5011 -0.8361
vn 0.1930 -0.6555 -0.7301
vn 0.1390 -0.9780 -0.1555
vn 0.0825 -0.9965 -0.0155
vn 0.1119 -0.8927 -0.4366
vn -0.0184 -0.9264 -0.3761
vn 0.1950 -0.9179 -0.3455
vn 0.0459 0.7598 0.6485
vn -0.4688 -0.1568 0.8693
vn -0.2084 -0.5960 0.7755
vn 0.0729 0.8191 0.5689
vn -0.5479 -0.5622 0.6194
vn 0.0716 -0.8583 0.5081
vn -0.1342 0.5727 0.8087
vn -0.2125 0.6996 0.6822
vn 0.1827 0.3430 -0.9214
vn 0.2434 0.2843 -0.9273
vn 0.2366 -0.6119 -0.7547
vn 0.1832 -0.5994 -0.7792
vn 0.1177 0.2130 -0.9699
vn 0.3585 -0.0701 -0.9309
vn 0.0325 -0.9731 -0.2282
vn 0.0337 0.3822 0.9235
vn 0.1513 0.5651 0.8110
vn 0.1172 0.9726 -0.2007
vn -0.5440 -0.6219 0.5633
vn 0.2648 0.9642 0.0157
vn -0.1432 0.4469 0.8830
vn 0.1476 -0.9343 -0.3244
vn 0.2959 -0.8940 -0.3366
vn -0.8840 0.2128 0.4162
vn -0.5902 0.6192 0.5179
vn 0.0365 0.9698 0.2410
vn -0.1989 -0.9426 -0.2681
vn -0.2810 0.6425 0.7129
vn -0.0553 0.7548 0.6537
vn -0.1494 -0.9850 -0.0869
vn -0.0759 0.9741 -0.2128
vn -0.8767 -0.2911 0.3830
vn -0.7763 -0.1099 0.6207
vn -0.2828 -0.5542 0.7828
vn -0.0546 -0.9963 -0.0657
vn -0.0809 -0.9639 -0.2536
vn -0.8666 -0.1664 0.4704
vn -0.9960 -0.0292 0.0850
vn -0.3388 0.6785 0.6519
vn 0.0449 -0.9735 -0.2241
vn -0.3229 0.8842 0.3375
vn -0.3557 0.6769 0.6444
vn -0.3644 0.6249 0.6904
vn -0.1926 0.8809 0.4323
vn -0.2627 0.9248 -0.2752
vn 0.2189 -0.9585 -0.1826
vn 0.0506 0.9409 -0.3348
vn -0.8549 -0.2713 0.4421
vn 0.1747 -0.9720 -0.1571
vn 0.0271 -0.9978 -0.0606
vn 0.1532 -0.9836 -0.0955
vn -0.0790 -0.9940 -0.0754
vn 0.2020 -0.9791 0.0244
vn -0.1402 0.7189 0.6808
vn -0.0469 0.9774 0.2062
vn 0.3182 -0.7064 -0.6322
vn -0.1535 -0.9190 -0.3633
vn 0.0071 -0.9205 -0.3906
vn -0.4747 0.7524 0.4567
vn 0.6515 0.6952 -0.3036
vn -0.2725 0.9462 -0.1748
vn 0.5236 0.8196 -0.2326
vn 0.0650 -0.0721 0.9953
vn 0.0473 0.9469 -0.3182
vn 0.3063 0.0899 -0.9477
vn -0.0366 0.8295 -0.5573
vn -0.2801 0.5420 0.7923
vn 0.0191 -0.9966 -0.0801
vn -0.3488 0.8868 0.3033
vn 0.0548 -0.9974 -0.0465
vn -0.0967 -0.9929 -0.0692
vn -0.0619 -0.9497 -0.3071
vn -0.2516 0.4430 0.8605
vn -0.2003 0.2208 0.9545
vn -0.2053 -0.9731 -0.1044
vn 0.5278 -0.3514 -0.7732
vn 0.2450 0.9245 -0.2919
vn 0.2241 0.9653 -0.1341
vn -0.2715 0.4767 0.8361
vn -0.2509 0.3409 0.9060
vn -0.2429 0.8895 0.3871
vn -0.4016 -0.2059 0.8923
vn -0.0537 -0.9985 0.0045
vn 0.0918 0.9791 -0.1814
vn -0.1770 0.6209 0.7636
vn -0.1098 0.9170 0.3834
vn -0.2331 0.8002 0.5525
vn -0.0339 0.8967 0.4414
vn -0.1884 0.5964 0.7803
vn -0.1738 -0.7945 0.5819
vn -0.6719 -0.5149 0.5324
vn 0.0785 0.0574 -0.9953
vn 0.1983 0.3804 -0.9033
vn -0.1107 -0.9425 -0.3154
vn -0.2530 -0.9244 -0.2853
vn 0.3750 0.2473 -0.8934
vn 0.3182 -0.6078 -0.7276
vn 0.2444 0.8490 -0.4685
vn 0.0113 -0.9665 -0.2565
vn 0.2032 -0.7129 -0.6712
vn -0.1103 -0.9937 0.0204
vn 0.4115 -0.8989 -0.1503
vn 0.1797 -0.9825 0.0493
vn -0.8856 -0.4600 0.0642
vn -0.7513 -0.6452 0.1388
vn -0.0321 0.8023 0.5961
vn -0.4403 0.5201 0.7319
vn -0.0178 -0.9256 0.3782
vn 0.6338 0.6963 -0.3370
vn 0.3088 -0.3956 -0.8650
vn 0.2744 0.5477 -0.7904
vn -0.0213 0.5807 -0.8139
vn -0.0565 -0.4691 -0.8813
vn -0.2380 -0.7693 0.5929
vn -0.0805 -0.9941 -0.0729
vn 0.0368 -0.9522 0.3031
vn -0.6475 -0.4763 0.5948
vn -0.9144 -0.3720 0.1594
vn 0.2261 0.1098 -0.9679
vn 0.0680 -0.9770 -0.2019
vn 0.0159 0.4112 0.9114
vn 0.6493 0.7585 0.0554
vn 0.1332 0.9770 -0.1666
vn 0.1840 0.6501 -0.7372
vn -0.4867 0.1559 -0.8596
vn -0.4085 0.1823 -0.8944
vn -0.5511 0.0366 -0.8336
vn -0.5156 0.4359 -0.7376
vn 0.0002 -0.9997 0.0251
vn 0.6203 -0.7326 0.2802
vn 0.6221 -0.7804 -0.0632
vn 0.4468 0.8606 -0.2444
vn -0.6441 -0.4207 -0.6389
vn 0.6625 0.7441 0.0860
vn 0.2784 0.6105 0.7415
vn 0.3361 -0.2479 0.9086
vn 0.6294 0.0012 0.7770
vn -0.0747 0.9957 -0.0548
vn -0.7391 0.6428 -0.2013
vn -0.7980 0.5517 -0.2426
vn -0.4815 -0.2919 -0.8264
vn -0.4686 -0.0784 -0.8799
vn -0.5908 0.6703 -0.4490
vn -0.8722 0.4762 0.1121
vn -0.9102 -0.4055 0.0838
vn -0.6637 0.6973 -0.2708
vn -0.6095 -0.3616 -0.7055
vn -0.6364 -0.4264 -0.6428
vn -0.9772 0.1522 0.1482
vn -0.9800 0.1189 0.1595
vn -0.5838 0.7214 -0.3725
vn -0.5587 -0.5153 -0.6499
vn 0.7565 -0.5481 -0.3568
vn 0.3361 -0.2673 0.9031
vn 0.8169 -0.2258 -0.5308
vn 0.7427 0.2456 -0.6230
vn 0.6067 0.6160 -0.5024
vn 0.8101 -0.3300 -0.4846
vn 0.4819 -0.6724 0.5618
vn 0.5367 -0.2035 0.8188
vn 0.3613 0.0192 0.9322
vn 0.3405 0.1815 0.9226
usemtl sungaya_inexpectata_31mg
s 1
f 187/1/1 178/2/2 276/3/3
f 92/4/4 12/5/5 13/6/6
f 208/7/7 17/8/8 18/9/9
f 28/10/10 6/11/11 29/12/12
f 97/13/13 4/14/14 100/15/15
f 152/16/16 157/17/17 40/18/18
f 30/19/19 106/20/20 280/21/21
f 30/22/19 280/23/21 47/24/22
f 207/25/23 1/26/24 2/27/25
f 39/28/26 27/29/27 232/30/28
f 101/31/29 183/32/30 263/33/31
f 104/34/32 82/35/33 83/36/34
f 56/37/35 86/38/36 57/39/37
f 89/40/38 190/41/39 44/42/40
f 91/43/41 155/44/42 6/45/11
f 24/46/43 92/47/4 167/48/44
f 99/49/45 100/50/15 256/51/46
f 9/52/47 111/53/48 169/54/49
f 66/55/50 94/56/51 65/57/52
f 12/5/5 86/58/36 13/6/6
f 138/59/53 264/60/54 123/61/55
f 19/62/56 120/63/57 124/64/58
f 21/65/59 126/66/60 172/67/61
f 271/68/62 129/69/63 130/70/64
f 192/71/65 133/72/66 132/73/67
f 139/74/68 140/75/69 289/76/70
f 66/55/50 69/77/71 94/56/51
f 209/78/72 210/79/73 114/80/74
f 6/81/11 145/82/75 29/83/12
f 155/84/42 145/82/75 6/81/11
f 73/85/76 158/86/77 248/87/78
f 239/88/79 159/89/80 160/90/81
f 95/91/82 207/92/23 162/93/83
f 164/94/84 217/95/85 306/96/86
f 161/97/87 45/98/88 4/99/14
f 166/100/89 149/101/90 282/102/91
f 282/103/91 149/104/90 148/105/92
f 23/106/93 167/48/44 146/107/94
f 180/108/95 299/109/96 150/110/97
f 176/111/98 75/112/99 307/113/100
f 179/114/101 99/115/45 21/65/59
f 13/116/6 86/117/36 170/118/102
f 188/119/103 189/120/104 68/121/105
f 190/122/39 148/123/92 191/124/106
f 190/125/39 249/126/107 148/127/92
f 42/128/108 158/86/77 73/85/76
f 120/129/57 77/130/109 119/131/110
f 217/95/85 164/94/84 293/132/111
f 179/133/101 97/134/13 99/135/45
f 185/136/112 111/137/48 136/138/113
f 165/139/114 221/140/115 131/141/116
f 89/142/38 67/143/117 24/46/43
f 227/144/118 163/145/119 226/146/120
f 33/147/121 49/148/122 44/149/40
f 2/150/25 48/151/123 207/152/23
f 17/153/8 208/154/7 210/155/73
f 89/156/38 44/157/40 67/143/117
f 212/158/124 213/159/125 221/140/115
f 7/160/126 214/161/127 98/162/128
f 33/163/121 215/164/129 49/165/122
f 196/166/130 219/167/131 218/168/132
f 221/140/115 72/169/133 222/170/134
f 221/140/115 222/170/134 131/141/116
f 18/171/9 90/172/135 60/173/136
f 44/149/40 49/148/122 67/174/117
f 250/175/137 108/176/138 284/177/139
f 81/178/140 223/179/141 166/180/89
f 162/181/83 224/182/142 95/183/82
f 11/184/143 98/185/128 110/186/144
f 279/187/145 228/188/146 91/189/41
f 155/190/42 91/191/41 206/192/147
f 227/193/118 226/194/120 112/195/148
f 10/196/149 230/197/150 191/198/106
f 110/199/144 225/200/151 11/201/143
f 87/202/152 231/203/153 128/204/154
f 98/205/128 74/206/155 7/207/126
f 200/208/156 212/158/124 221/140/115
f 200/209/156 221/210/115 165/211/114
f 69/212/71 70/213/157 193/214/158
f 69/212/71 193/214/158 93/215/159
f 66/216/50 235/217/160 70/218/157
f 291/219/161 142/220/162 236/221/163
f 160/90/81 159/89/80 243/222/164
f 81/223/140 220/224/165 278/225/166
f 9/226/47 212/158/124 17/227/8
f 127/228/167 234/229/168 87/230/152
f 32/231/169 79/232/170 235/233/160
f 235/234/160 102/235/171 32/236/169
f 80/237/172 250/238/137 235/239/160
f 217/240/85 74/241/155 80/242/172
f 98/162/128 248/243/78 110/244/144
f 253/245/173 120/246/57 242/247/174
f 54/248/175 253/249/173 242/250/174
f 96/251/176 161/252/87 4/14/14
f 82/35/33 217/95/85 293/132/111
f 65/57/52 94/56/51 258/253/177
f 239/88/79 160/90/81 261/254/178
f 160/255/81 314/256/179 261/257/178
f 53/258/180 67/174/117 49/259/122
f 252/260/181 193/261/158 173/262/182
f 93/263/159 64/264/183 94/265/51
f 64/266/183 289/267/70 125/268/184
f 46/269/185 95/270/82 215/271/129
f 215/272/129 95/273/82 224/182/142
f 20/274/186 99/275/45 256/276/46
f 26/277/187 60/278/136 90/279/135
f 87/202/152 123/280/55 231/203/153
f 191/281/106 149/282/90 50/283/188
f 364/284/189 264/285/54 359/286/190
f 216/287/191 113/288/192 25/289/193
f 124/290/58 120/291/57 119/292/110
f 38/293/194 91/43/41 6/45/11
f 91/43/41 38/293/194 279/294/145
f 283/295/195 128/296/154 186/297/196
f 226/298/120 198/299/197 112/300/148
f 279/301/145 137/302/198 204/303/199
f 253/304/173 77/130/109 120/129/57
f 230/305/150 55/306/200 115/307/201
f 90/308/135 18/309/9 17/310/8
f 257/311/202 118/312/203 15/313/204
f 266/314/205 179/315/101 21/316/59
f 153/317/206 165/139/114 131/141/116
f 153/317/206 187/1/1 165/139/114
f 206/318/147 91/43/41 124/64/58
f 91/43/41 19/62/56 124/64/58
f 297/319/207 268/320/208 188/321/103
f 158/86/77 194/322/209 300/323/210
f 42/128/108 194/322/209 158/86/77
f 217/324/85 7/325/126 74/326/155
f 234/327/168 18/328/9 60/329/136
f 271/330/62 56/331/35 10/332/149
f 271/333/62 10/334/149 50/335/188
f 113/336/192 63/337/211 275/338/212
f 216/339/191 12/340/5 63/341/211
f 278/342/166 52/343/213 85/344/214
f 85/345/214 199/346/215 238/347/216
f 286/348/217 137/349/198 279/350/145
f 280/351/21 150/352/97 47/353/22
f 284/354/139 285/355/218 272/356/219
f 17/310/8 210/357/73 209/358/72
f 258/359/177 59/360/220 109/361/221
f 109/361/221 28/362/10 164/94/84
f 139/363/68 289/267/70 275/364/212
f 275/364/212 289/267/70 64/266/183
f 63/341/211 139/363/68 275/364/212
f 57/365/37 86/58/36 12/5/5
f 106/366/20 107/367/222 180/368/95
f 275/369/212 64/370/183 292/371/223
f 292/372/223 25/373/193 275/374/212
f 88/375/224 251/376/225 63/377/211
f 182/378/226 132/379/67 295/380/227
f 76/381/228 261/382/178 117/383/229
f 77/384/109 76/381/228 117/383/229
f 194/385/209 160/90/81 243/222/164
f 296/386/230 299/387/96 107/388/222
f 81/389/140 297/390/207 269/391/231
f 181/392/232 39/393/26 232/394/28
f 6/395/11 296/386/230 107/388/222
f 28/396/10 298/397/233 296/398/230
f 262/399/234 190/41/39 191/400/106
f 206/401/147 145/402/75 155/403/42
f 51/404/235 210/405/73 208/406/7
f 58/407/236 116/408/237 241/409/238
f 241/410/238 159/411/80 58/412/236
f 165/139/114 187/1/1 200/208/156
f 245/413/239 168/414/240 81/415/140
f 256/416/46 85/417/214 52/343/213
f 65/418/52 258/359/177 109/361/221
f 64/419/183 125/420/184 94/421/51
f 173/422/182 1/423/24 95/424/82
f 1/425/24 207/426/23 95/427/82
f 21/65/59 99/115/45 20/428/186
f 48/429/123 162/430/83 207/431/23
f 336/432/241 116/433/237 326/434/242
f 172/435/61 170/118/102 68/436/105
f 125/420/184 258/359/177 94/421/51
f 51/437/235 62/438/243 210/439/73
f 146/440/94 126/441/60 20/442/186
f 189/443/104 172/444/61 68/445/105
f 70/446/157 229/447/244 193/448/158
f 213/449/125 9/450/47 169/451/49
f 240/452/245 3/453/246 143/454/247
f 3/455/246 27/29/27 143/456/247
f 35/457/248 232/30/28 3/458/246
f 61/459/249 224/460/142 48/461/123
f 182/462/226 301/463/250 15/313/204
f 293/132/111 164/94/84 29/464/12
f 263/465/31 203/466/251 283/295/195
f 324/467/252 241/468/238 116/469/237 336/470/241
f 302/471/253 295/472/227 105/473/254
f 173/474/182 229/475/244 2/476/25
f 122/477/255 34/478/256 247/479/257
f 95/480/82 34/481/256 122/482/255
f 49/165/122 215/164/129 88/483/224
f 65/418/52 164/94/84 306/96/86
f 65/418/52 306/96/86 66/484/50
f 170/118/102 86/117/36 130/485/64
f 45/486/88 134/487/258 246/488/259
f 123/280/55 87/202/152 138/489/53
f 141/490/260 183/491/30 157/492/17
f 141/493/260 157/17/17 152/494/16
f 71/495/261 156/496/262 72/497/133
f 178/2/2 37/498/263 276/3/3
f 356/499/264 5/500/265 360/501/266
f 259/502/267 56/503/35 57/504/37
f 118/505/203 257/506/202 75/507/99
f 169/508/49 111/137/48 71/509/261
f 202/510/268 308/511/269 154/512/270
f 42/128/108 73/85/76 43/513/271
f 182/514/226 14/515/272 132/516/67
f 77/517/109 253/518/173 254/519/273
f 34/520/256 33/521/121 262/522/234
f 230/523/150 211/524/274 55/525/200
f 31/526/275 267/527/276 79/528/170
f 250/175/137 74/529/155 108/176/138
f 303/530/277 121/531/278 218/532/132
f 218/533/132 121/534/278 161/97/87
f 129/535/63 269/536/231 188/537/103
f 260/538/279 269/539/231 129/540/63
f 107/367/222 309/541/280 310/542/281
f 107/367/222 106/543/20 309/541/280
f 72/169/133 221/140/115 213/544/125
f 251/376/225 139/74/68 63/377/211
f 205/545/282 251/546/225 88/547/224
f 111/137/48 40/18/18 136/138/113
f 296/548/230 6/549/11 28/550/10
f 143/551/247 114/552/74 210/155/73
f 289/76/70 144/553/283 281/554/284
f 289/76/70 140/75/69 144/553/283
f 137/555/198 285/355/218 284/354/139
f 43/556/271 233/557/285 117/558/229
f 261/559/178 314/560/179 117/561/229
f 314/562/179 43/556/271 117/558/229
f 21/563/59 172/564/61 268/565/208
f 9/226/47 213/159/125 212/158/124
f 114/566/74 27/29/27 22/567/286
f 143/568/247 27/29/27 114/566/74
f 112/569/148 198/570/197 294/571/287
f 167/48/44 255/572/288 146/107/94
f 135/573/289 36/574/290 246/575/259
f 125/420/184 281/554/284 59/360/220
f 281/576/284 174/577/291 59/578/220
f 174/577/291 288/579/292 59/578/220
f 24/46/43 53/580/180 92/47/4
f 67/174/117 53/258/180 24/581/43
f 43/582/271 119/583/110 233/584/285
f 237/585/293 119/586/110 43/587/271
f 111/53/48 9/52/47 171/588/294
f 130/589/64 68/121/105 170/590/102
f 129/591/63 188/592/103 68/593/105
f 130/485/64 129/594/63 68/595/105
f 64/419/183 277/596/295 292/597/223
f 162/598/83 48/461/123 224/460/142
f 166/599/89 223/600/141 260/601/279
f 312/602/296 78/603/297 220/604/165
f 180/108/95 280/21/21 106/20/20
f 289/267/70 281/605/284 125/268/184
f 99/115/45 97/606/13 100/607/15
f 229/608/244 70/609/157 235/610/160
f 284/611/139 272/612/219 273/613/298
f 284/611/139 273/613/298 102/614/171
f 250/175/137 284/177/139 235/615/160
f 102/616/171 273/617/298 103/618/299
f 315/619/300 192/71/65 201/620/301
f 290/621/302 315/619/300 199/622/215
f 263/465/31 283/295/195 101/623/29
f 118/312/203 75/624/99 168/625/240
f 244/626/303 118/312/203 168/625/240
f 81/389/140 269/391/231 223/627/141
f 264/60/54 184/628/304 123/61/55
f 199/346/215 85/345/214 290/629/302
f 132/630/67 201/631/301 192/632/65
f 215/164/129 205/633/282 88/483/224
f 205/634/282 215/635/129 224/636/142
f 230/637/150 262/638/234 191/639/106
f 149/640/90 260/641/279 84/642/305
f 293/132/111 83/36/34 82/35/33
f 47/353/22 150/352/97 61/643/249
f 198/570/197 147/644/306 197/645/307
f 225/646/151 147/647/306 198/648/197
f 113/649/192 216/650/191 63/651/211
f 262/652/234 230/653/150 247/654/257
f 111/137/48 185/136/112 71/509/261
f 51/655/235 283/295/195 203/466/251
f 283/295/195 51/655/235 128/296/154
f 14/656/272 15/657/204 118/658/203
f 209/659/72 40/660/18 171/661/294
f 40/662/18 209/663/72 22/664/286
f 225/665/151 110/666/144 147/667/306
f 110/244/144 248/243/78 147/668/306
f 334/669/308 322/670/309 112/671/148
f 234/672/168 51/673/235 18/674/9
f 51/675/235 208/406/7 18/676/9
f 145/677/75 206/678/147 274/679/310
f 173/680/182 2/681/25 1/425/24
f 35/682/248 3/683/246 133/684/66
f 274/685/310 73/85/76 104/34/32
f 138/686/53 87/687/152 234/688/168
f 191/689/106 148/690/92 149/691/90
f 203/692/251 62/693/243 51/673/235
f 200/208/156 151/694/311 90/695/135
f 212/158/124 200/208/156 90/695/135
f 26/696/187 90/697/135 151/698/311
f 65/418/52 109/361/221 164/94/84
f 152/699/16 295/700/227 141/701/260
f 295/702/227 152/703/16 105/704/254
f 182/705/226 15/706/204 14/707/272
f 173/708/182 122/709/255 252/710/181
f 122/711/255 115/712/201 252/713/181
f 252/714/181 115/715/201 277/716/295
f 35/717/248 36/718/290 181/719/232
f 36/720/290 135/721/289 181/722/232
f 130/723/64 86/58/36 271/724/62
f 74/529/155 11/725/143 108/176/138
f 98/726/128 11/201/143 74/727/155
f 39/728/26 175/729/312 27/730/27
f 254/731/273 76/732/228 77/517/109
f 31/733/275 79/734/170 32/735/169
f 5/736/265 60/737/136 276/738/3
f 276/739/3 26/740/187 151/741/311
f 354/742/313 60/743/136 5/744/265 356/745/264
f 270/746/314 285/747/218 304/748/315
f 270/746/314 304/748/315 305/749/316
f 231/203/153 317/750/317 128/204/154
f 45/98/88 100/751/15 4/99/14
f 33/752/121 44/753/40 262/754/234
f 188/321/103 268/320/208 189/755/104
f 182/756/226 295/757/227 302/758/253
f 247/759/257 115/760/201 122/761/255
f 282/762/91 220/763/165 166/764/89
f 220/604/165 282/765/91 312/602/296
f 265/766/318 266/767/205 297/768/207
f 307/769/100 266/767/205 265/766/318
f 11/770/143 225/771/151 163/772/119
f 225/773/151 226/774/120 163/775/119
f 80/242/172 74/241/155 250/776/137
f 16/777/319 156/778/262 184/779/304
f 219/780/131 257/781/202 311/782/320
f 19/783/56 91/784/41 228/785/146
f 108/786/138 204/787/199 137/788/198
f 108/789/138 11/790/143 204/791/199
f 106/792/20 30/793/19 309/794/280
f 89/795/38 24/796/43 249/797/107
f 249/797/107 24/796/43 23/798/93
f 263/465/31 308/511/269 202/510/268
f 307/799/100 75/112/99 219/800/131
f 307/801/100 219/802/131 196/803/130
f 257/804/202 219/805/131 75/806/99
f 81/807/140 176/808/98 265/809/318
f 168/810/240 176/811/98 81/812/140
f 133/813/66 291/814/161 132/815/67
f 164/94/84 28/362/10 29/464/12
f 263/465/31 183/816/30 308/511/269
f 167/817/44 23/798/93 24/796/43
f 228/785/146 242/818/174 19/819/56
f 242/818/174 120/820/57 19/819/56
f 333/821/321 343/822/322 241/409/238
f 324/467/252 333/823/321 241/468/238
f 177/824/323 279/825/145 204/826/199
f 270/827/314 305/828/316 310/829/281
f 135/573/289 246/575/259 134/830/258
f 273/831/298 272/832/219 270/833/314
f 285/355/218 270/834/314 272/356/219
f 238/835/216 278/342/166 85/344/214
f 34/836/256 262/837/234 247/838/257
f 95/839/82 46/840/185 34/520/256
f 46/841/185 33/842/121 34/843/256
f 122/844/255 173/845/182 95/846/82
f 308/847/269 183/848/30 142/849/162
f 193/448/158 229/447/244 173/850/182
f 76/851/228 58/407/236 261/852/178
f 239/88/79 261/852/178 58/407/236
f 14/853/272 201/854/301 132/855/67
f 284/354/139 108/856/138 137/555/198
f 225/857/151 198/858/197 226/774/120
f 255/859/288 92/860/4 170/861/102
f 31/862/275 32/863/169 102/616/171
f 103/618/299 31/862/275 102/616/171
f 212/864/124 90/308/135 17/865/8
f 270/866/314 310/867/281 309/868/280
f 103/869/299 270/870/314 309/871/280
f 92/872/4 13/116/6 170/118/102
f 2/873/25 47/874/22 48/875/123
f 8/876/324 30/877/19 2/878/25
f 2/879/25 30/880/19 47/881/22
f 290/882/302 192/883/65 315/884/300
f 290/885/302 100/886/15 45/887/88
f 45/98/88 246/888/259 290/889/302
f 133/72/66 290/621/302 246/890/259
f 179/133/101 316/891/325 96/892/176
f 179/133/101 96/892/176 97/134/13
f 93/263/159 277/893/295 64/894/183
f 93/895/159 252/714/181 277/716/295
f 360/896/266 5/744/265 353/897/326
f 45/98/88 161/97/87 121/898/278
f 134/899/258 45/900/88 121/901/278
f 126/902/60 21/903/59 20/904/186
f 61/905/249 313/906/327 224/907/142
f 186/908/196 185/136/112 136/138/113
f 142/849/162 183/848/30 141/909/260
f 276/910/3 60/911/136 26/912/187
f 6/395/11 107/388/222 310/913/281
f 50/914/188 149/915/90 84/916/305
f 14/917/272 118/918/203 244/919/303
f 260/920/279 129/921/63 271/922/62
f 84/923/305 260/924/279 271/330/62
f 84/925/305 271/922/62 50/926/188
f 175/927/312 39/928/26 302/929/253
f 314/930/179 42/128/108 43/513/271
f 241/409/238 294/931/287 159/89/80
f 230/932/150 10/933/149 211/934/274
f 317/750/317 186/935/196 128/204/154
f 71/936/261 185/937/112 186/935/196
f 317/750/317 71/936/261 186/935/196
f 269/938/231 297/939/207 188/940/103
f 259/941/267 57/942/37 216/943/191
f 25/944/193 259/945/267 216/946/191
f 190/947/39 262/948/234 44/949/40
f 287/950/328 304/951/315 286/348/217
f 186/935/196 136/952/113 283/953/195
f 291/954/161 154/955/270 142/956/162
f 111/957/48 171/958/294 40/959/18
f 22/960/286 152/961/16 40/962/18
f 214/963/127 248/964/78 98/205/128
f 20/965/186 78/966/297 146/107/94
f 57/365/37 12/967/5 216/650/191
f 137/968/198 304/951/315 285/969/218
f 286/348/217 304/951/315 137/968/198
f 331/970/329 177/971/323 320/972/330
f 299/109/96 288/973/292 150/110/97
f 312/974/296 146/975/94 78/976/297
f 215/977/129 33/978/121 46/979/185
f 206/980/147 124/981/58 119/982/110
f 119/983/110 117/984/229 233/985/285
f 117/986/229 119/987/110 77/988/109
f 166/989/89 260/990/279 149/991/90
f 177/824/323 204/826/199 163/145/119
f 166/992/89 220/993/165 81/994/140
f 81/223/140 278/225/166 245/995/239
f 238/996/216 199/997/215 244/998/303
f 56/999/35 271/1000/62 86/1001/36
f 66/1002/50 70/1003/157 69/1004/71
f 101/1005/29 136/138/113 40/18/18
f 157/17/17 101/1005/29 40/18/18
f 283/1006/195 136/138/113 101/1005/29
f 235/1007/160 79/1008/170 229/1009/244
f 302/1010/253 27/1011/27 175/1012/312
f 27/1013/27 302/1014/253 105/1015/254
f 217/1016/85 80/1017/172 306/1018/86
f 53/1019/180 63/1020/211 12/1021/5
f 344/1022/331 177/1023/323 331/1024/329
f 330/1025/332 228/1026/146 177/1027/323 344/1028/331
f 160/90/81 194/1029/209 314/1030/179
f 83/36/34 274/685/310 104/34/32
f 25/1031/193 292/1032/223 259/1033/267
f 292/1034/223 195/1035/333 259/1036/267
f 350/1037/334 16/1038/319 365/1039/335
f 6/1040/11 41/1041/336 38/1042/194
f 23/798/93 282/1043/91 249/797/107
f 148/1044/92 249/1045/107 282/1046/91
f 176/808/98 168/625/240 75/624/99
f 109/361/221 298/1047/233 28/362/10
f 48/461/123 47/1048/22 61/1049/249
f 88/483/224 53/580/180 49/165/122
f 202/510/268 203/466/251 263/465/31
f 220/1050/165 78/1051/297 278/1052/166
f 307/769/100 316/1053/325 266/767/205
f 179/1054/101 266/1055/205 316/1056/325
f 97/13/13 96/251/176 4/14/14
f 218/1057/132 96/1058/176 196/1059/130
f 218/1060/132 161/1061/87 96/1062/176
f 236/1063/163 132/1064/67 291/1065/161
f 115/1066/201 55/1067/200 277/1068/295
f 128/204/154 127/1069/167 87/202/152
f 5/744/265 276/1070/3 37/1071/263
f 265/1072/318 176/111/98 307/113/100
f 107/367/222 299/1073/96 180/368/95
f 150/110/97 280/21/21 180/108/95
f 35/682/248 133/684/66 36/1074/290
f 172/564/61 189/1075/104 268/565/208
f 253/1076/173 54/1077/175 254/1078/273
f 256/1079/46 52/1080/213 20/1081/186
f 138/1082/53 234/1083/168 60/1084/136
f 83/1085/34 145/1086/75 274/1087/310
f 29/464/12 83/36/34 293/132/111
f 174/1088/291 61/1089/249 150/1090/97
f 288/1091/292 174/1092/291 150/1093/97
f 61/1094/249 174/1095/291 281/605/284
f 7/1096/126 217/95/85 82/35/33
f 259/1097/267 195/1098/333 56/1099/35
f 10/1100/149 195/1101/333 211/1102/274
f 195/1098/333 10/1103/149 56/1099/35
f 257/311/202 15/313/204 311/1104/320
f 301/1105/250 311/1106/320 15/1107/204
f 301/463/250 182/462/226 302/1108/253
f 301/1109/250 302/1110/253 39/1111/26
f 236/1063/163 295/1112/227 132/1064/67
f 27/1113/27 152/1114/16 22/1115/286
f 27/1116/27 105/1117/254 152/1118/16
f 16/1119/319 222/170/134 156/1120/262
f 156/1121/262 222/1122/134 72/1123/133
f 325/1124/337 112/1125/148 322/1126/309
f 204/826/199 11/1127/143 163/145/119
f 178/2/2 187/1/1 153/317/206
f 351/1128/338 37/1071/263 346/1129/339
f 362/1130/340 153/1131/206 349/1132/341
f 62/1133/243 240/1134/245 143/1135/247
f 9/226/47 209/1136/72 171/1137/294
f 287/1138/328 38/1139/194 41/1140/336
f 287/1141/328 305/1142/316 304/1143/315
f 121/1144/278 135/1145/289 134/1146/258
f 121/1144/278 181/1147/232 135/1145/289
f 151/1148/311 187/1/1 276/3/3
f 240/1149/245 154/1150/270 3/1151/246
f 154/955/270 291/954/161 133/684/66
f 3/1152/246 154/1153/270 133/1154/66
f 232/30/28 27/29/27 3/455/246
f 318/1155/342 205/633/282 224/1156/142
f 306/1157/86 80/1158/172 66/1159/50
f 314/930/179 194/322/209 42/128/108
f 230/305/150 115/1160/201 247/1161/257
f 94/1162/51 69/1163/71 93/1164/159
f 296/1165/230 298/1166/233 109/1167/221
f 109/361/221 59/360/220 288/1168/292
f 296/1169/230 109/1170/221 288/1171/292
f 50/1172/188 10/1173/149 191/1174/106
f 278/1175/166 78/1176/297 52/1177/213
f 20/1178/186 52/343/213 78/603/297
f 237/1179/293 73/85/76 274/685/310
f 238/1180/216 245/1181/239 278/1182/166
f 245/1183/239 238/1184/216 168/1185/240
f 219/1186/131 303/1187/277 218/1060/132
f 169/1188/49 71/1189/261 213/1190/125
f 213/1190/125 71/1189/261 72/1191/133
f 14/1192/272 199/1193/215 201/1194/301
f 14/1195/272 244/1196/303 199/1197/215
f 201/620/301 199/622/215 315/619/300
f 123/280/55 184/779/304 156/778/262
f 248/964/78 300/1198/210 147/1199/306
f 258/359/177 125/420/184 59/360/220
f 154/1200/270 62/1201/243 202/1202/268
f 240/1203/245 62/1204/243 154/1205/270
f 290/1206/302 85/1207/214 256/1079/46
f 290/1208/302 256/1209/46 100/1210/15
f 103/1211/299 273/1212/298 270/1213/314
f 209/659/72 114/1214/74 22/1215/286
f 279/1216/145 38/1217/194 287/1218/328
f 287/1219/328 286/348/217 279/350/145
f 214/1220/127 7/1221/126 82/1222/33
f 214/1220/127 82/1222/33 104/1223/32
f 279/825/145 177/824/323 228/1224/146
f 159/1225/80 294/1226/287 197/1227/307
f 159/1228/80 197/1229/307 300/1230/210
f 159/1228/80 300/1230/210 243/1231/164
f 197/645/307 147/644/306 300/1232/210
f 76/851/228 116/408/237 58/407/236
f 113/1233/192 275/1234/212 25/1235/193
f 244/1236/303 168/1237/240 238/1238/216
f 79/1239/170 8/1240/324 229/1241/244
f 17/1242/8 209/358/72 9/1243/47
f 296/386/230 288/1244/292 299/1245/96
f 81/1246/140 265/1247/318 297/1248/207
f 267/1249/276 30/877/19 8/876/324
f 8/1250/324 79/1251/170 267/1252/276
f 229/475/244 8/1253/324 2/476/25
f 12/1254/5 92/1255/4 53/1256/180
f 292/1257/223 277/1258/295 55/1259/200
f 292/1257/223 211/1260/274 195/1261/333
f 292/1257/223 55/1259/200 211/1260/274
f 142/1262/162 141/1263/260 236/1264/163
f 236/1265/163 141/909/260 295/472/227
f 157/492/17 183/491/30 101/1266/29
f 311/1267/320 121/1268/278 219/1269/131
f 121/1268/278 303/1270/277 219/1269/131
f 156/778/262 317/750/317 231/203/153
f 317/1271/317 156/496/262 71/1272/261
f 206/1273/147 119/1274/110 237/1275/293
f 237/1276/293 274/1277/310 206/1278/147
f 43/513/271 73/85/76 237/1179/293
f 83/1279/34 29/1280/12 145/1281/75
f 103/1282/299 309/1283/280 31/1284/275
f 267/1285/276 309/871/280 30/877/19
f 267/1286/276 31/733/275 309/1287/280
f 187/1288/1 151/1289/311 200/1290/156
f 252/714/181 93/1291/159 193/448/158
f 202/1292/268 62/1293/243 203/1294/251
f 308/1295/269 142/1296/162 154/1297/270
f 41/1298/336 305/1299/316 287/1138/328
f 310/1300/281 305/1299/316 41/1298/336
f 6/395/11 310/913/281 41/1301/336
f 311/1302/320 301/1303/250 39/1304/26
f 311/1305/320 39/1306/26 121/1307/278
f 282/1308/91 23/798/93 312/602/296
f 23/106/93 146/107/94 312/1309/296
f 146/107/94 255/572/288 126/1310/60
f 255/1311/288 172/435/61 126/1312/60
f 266/1313/205 21/1314/59 268/1315/208
f 297/319/207 266/1316/205 268/320/208
f 318/1317/342 224/1318/142 313/1319/327
f 73/85/76 248/87/78 104/34/32
f 307/769/100 196/1320/130 316/1053/325
f 316/1053/325 196/1320/130 96/1062/176
f 36/1321/290 133/1322/66 246/1323/259
f 104/34/32 248/87/78 214/1324/127
f 249/1325/107 190/1326/39 89/1327/38
f 181/1147/232 121/1144/278 39/28/26
f 62/1328/243 143/1329/247 210/1330/73
f 300/323/210 194/322/209 243/1331/164
f 198/1332/197 197/1333/307 294/1334/287
f 235/1335/160 66/1159/50 80/1158/172
f 231/203/153 123/280/55 156/778/262
f 58/412/236 159/1336/80 239/1337/79
f 260/1338/279 223/1339/141 269/1340/231
f 181/1147/232 232/30/28 35/457/248
f 318/1341/342 313/1342/327 140/75/69
f 251/1343/225 318/1341/342 140/75/69
f 251/546/225 205/545/282 318/1344/342
f 139/1345/68 251/1346/225 140/1347/69
f 144/1348/283 61/1349/249 281/1350/284
f 144/1351/283 313/1352/327 61/1353/249
f 313/1354/327 144/1355/283 140/1356/69
f 170/118/102 172/435/61 255/1311/288
f 53/1357/180 88/1358/224 63/377/211
f 300/1359/210 248/1360/78 158/1361/77
f 192/71/65 290/621/302 133/72/66
f 127/1362/167 128/296/154 51/655/235
f 51/655/235 234/1363/168 127/1362/167
f 167/1364/44 92/1365/4 255/1366/288
f 284/1367/139 102/1368/171 235/1369/160
f 54/1370/175 339/1371/343 340/1372/344
f 227/1373/118 342/1374/345 338/1375/346 163/1376/119
f 54/1377/175 337/1378/347 339/1379/343
f 254/1380/273 54/1381/175 340/1382/344 335/1383/348
f 294/1384/287 241/1385/238 343/1386/322 332/1387/349
f 294/1388/287 332/1389/349 334/1390/308 112/1391/148
f 228/1392/146 330/1393/332 341/1394/350
f 227/1395/118 329/1396/351 328/1397/352
f 254/1398/273 335/1399/348 327/1400/353
f 112/195/148 325/1401/337 329/1402/351 227/193/118
f 116/1403/237 76/1404/228 323/1405/354 326/1406/242
f 76/1407/228 254/1408/273 327/1409/353 323/1410/354
f 54/1411/175 242/1412/174 321/1413/355 337/1414/347
f 242/1415/174 228/1416/146 341/1417/350 321/1418/355
f 177/1419/323 163/1420/119 338/1421/346 320/1422/330
f 227/1423/118 328/1424/352 319/1425/356
f 227/1426/118 319/1427/356 342/1428/345
f 329/1396/351 325/1124/337 322/670/309 334/1390/308 332/1387/349 343/822/322 333/823/321 324/467/252 336/432/241 326/1406/242 323/1410/354 327/1400/353 335/1383/348 340/1372/344 339/1379/343 337/1414/347 321/1418/355 341/1394/350 330/1025/332 344/1022/331 331/970/329 320/1422/330 338/1375/346 342/1428/345 319/1425/356 328/1397/352
f 184/779/304 366/1429/357 365/1430/335 16/777/319
f 178/2/2 153/1131/206 362/1130/340 363/1431/358
f 264/1432/54 364/1433/189 361/1434/359
f 264/1432/54 138/1435/53 357/1436/360 359/1437/190
f 138/59/53 358/1438/361 357/1439/360
f 264/60/54 361/1440/359 355/1441/362 184/628/304
f 184/779/304 355/1442/362 366/1429/357
f 60/1443/136 354/1444/313 358/1445/361 138/1446/53
f 37/1071/263 351/1128/338 353/897/326 5/744/265
f 16/1447/319 350/1448/334 352/1449/363 222/1450/134
f 222/170/134 352/1451/363 348/1452/364 131/141/116
f 153/1131/206 131/141/116 348/1452/364 349/1132/341
f 178/1453/2 363/1454/358 347/1455/365
f 37/1456/263 178/1457/2 345/1458/366 346/1459/339
f 178/1457/2 347/1460/365 345/1458/366
f 356/745/264 362/1130/340 359/286/190
f 350/1448/334 365/1430/335 349/1132/341
f 365/1430/335 366/1429/357 349/1132/341
f 366/1429/357 355/1442/362 349/1132/341
f 355/1442/362 361/1440/359 349/1132/341
f 361/1440/359 364/1433/189 362/1130/340
f 364/1433/189 359/286/190 362/1130/340
f 361/1440/359 362/1130/340 349/1132/341
f 359/286/190 357/1436/360 356/745/264
f 357/1436/360 358/1438/361 356/745/264
f 358/1438/361 354/1444/313 356/745/264
f 356/745/264 360/501/266 353/897/326
f 353/897/326 351/1128/338 345/1458/366
f 351/1128/338 346/1129/339 345/1458/366
f 353/897/326 345/1458/366 347/1460/365
f 347/1460/365 363/1454/358 353/897/326
f 363/1454/358 362/1130/340 356/745/264
f 353/897/326 363/1454/358 356/745/264
f 349/1132/341 348/1452/364 350/1448/334
f 348/1452/364 352/1451/363 350/1448/334
