# Blender v2.79 (sub 0) OBJ File: 'redo_fixed_360_joints.blend'
# www.blender.org
mtllib sungaya_inexpectata_31mg.mtl
o 13-a8.000_Sungaya_inexpectata_31mg.077
v 0.000397 0.000486 0.000340
v 0.000118 -0.000572 -0.000401
v 0.000138 -0.000090 0.000516
v 0.000473 0.000069 0.000225
v 0.000007 -0.000247 -0.000462
v 0.000437 -0.000002 0.000270
v 0.000359 -0.000084 0.000318
v 0.000137 -0.000575 0.000456
v 0.000267 -0.000328 0.000403
v 0.000399 -0.000451 -0.000287
v 0.000475 -0.000337 -0.000273
v 0.000342 0.000151 -0.000435
v 0.000274 0.000077 -0.000411
v 0.000604 -0.000304 -0.000026
v 0.000215 0.000232 -0.000490
v 0.000134 0.000326 -0.000485
v 0.000055 0.000236 -0.000510
v 0.000069 -0.000304 0.000556
v 0.000486 -0.000227 -0.000293
v 0.000041 0.000461 0.000512
v 0.000435 -0.000436 0.000216
v 0.000625 -0.000102 -0.000043
v 0.000120 0.000142 -0.000458
v 0.000529 -0.000390 -0.000180
v 0.000054 0.000350 -0.000504
v 0.000096 -0.000245 -0.000442
v 0.000382 0.000214 -0.000432
v 0.000068 -0.000440 0.000537
v 0.000471 -0.000280 0.000180
v 0.000009 0.000333 -0.000472
v 0.000503 0.000161 0.000078
v 0.000539 0.000212 -0.000070
v 0.000539 0.000036 0.000001
v 0.000638 -0.000166 -0.000153
v 0.000306 -0.000436 -0.000363
v 0.000434 0.000211 0.000292
v 0.000037 0.000049 0.000528
v 0.000256 0.000437 0.000459
v 0.000251 0.000325 -0.000452
v 0.000642 -0.000069 -0.000184
v 0.000465 0.000438 0.000144
v 0.000234 -0.000076 0.000438
v 0.000446 0.000429 0.000243
v 0.000532 -0.000128 -0.000242
v 0.000499 -0.000564 -0.000029
v 0.000338 0.000467 -0.000396
v 0.000529 -0.000421 0.000064
v 0.000643 -0.000331 -0.000099
v 0.000515 -0.000069 -0.000298
v 0.000596 0.000040 -0.000158
v 0.000550 0.000293 -0.000178
v 0.000551 0.000284 -0.000314
v 0.000206 -0.000330 -0.000429
v 0.000186 0.000518 -0.000437
v 0.000578 -0.000424 -0.000067
v 0.000084 -0.000083 -0.000416
v 0.000024 -0.000436 -0.000415
v 0.000592 -0.000001 -0.000238
v 0.000472 -0.000039 -0.000357
v 0.000566 -0.000455 -0.000113
v 0.000105 0.000010 -0.000405
v 0.000014 -0.000005 -0.000428
v 0.000170 -0.000119 -0.000408
v 0.000238 0.000199 0.000454
v 0.000392 -0.000250 -0.000388
v 0.000436 -0.000532 -0.000221
v 0.000053 -0.000115 0.000542
v 0.000242 -0.000577 -0.000356
v 0.000503 -0.000569 -0.000121
v 0.000336 -0.000194 0.000326
v 0.000433 0.000383 0.000296
v 0.000338 -0.000320 -0.000397
v 0.000114 0.000271 0.000514
v 0.000505 0.000416 -0.000326
v 0.000536 0.000384 -0.000102
v 0.000377 0.000373 0.000377
v 0.000562 -0.000178 0.000087
v 0.000139 -0.000386 0.000516
v 0.000529 0.000127 0.000007
v 0.000466 0.000442 0.000062
v 0.000489 0.000485 0.000010
v 0.000548 0.000088 -0.000332
v 0.000581 -0.000072 0.000016
v 0.000457 0.000533 -0.000328
v 0.000653 -0.000240 -0.000105
v 0.000498 0.000439 -0.000044
v 0.000508 0.000321 0.000027
v 0.000164 0.000545 0.000493
v 0.000435 0.000069 -0.000376
v 0.000274 -0.000037 -0.000400
v 0.000172 -0.000453 -0.000409
v 0.000288 -0.000297 -0.000425
v 0.000588 0.000078 -0.000249
v 0.000112 0.000085 0.000524
v 0.000003 -0.000412 -0.000417
v 0.000004 -0.000430 -0.000411
v -0.000003 0.000503 0.000505
v -0.000002 0.000440 -0.000453
v -0.000002 0.000497 -0.000435
v -0.000000 0.000143 -0.000471
v 0.000002 -0.000235 -0.000460
v 0.000004 -0.000552 -0.000398
v 0.000002 -0.000295 0.000547
v 0.000000 0.000107 -0.000460
v -0.000001 0.000331 -0.000460
v 0.000002 -0.000247 -0.000461
v -0.000001 0.000286 -0.000451
v 0.000003 -0.000435 0.000533
v 0.000000 0.000133 -0.000467
v -0.000002 0.000360 0.000507
v -0.000403 0.000482 0.000339
v -0.000110 -0.000573 -0.000401
v -0.000136 -0.000091 0.000516
v -0.000472 0.000065 0.000228
v -0.000002 -0.000247 -0.000462
v -0.000437 -0.000007 0.000271
v -0.000359 -0.000090 0.000317
v -0.000129 -0.000575 0.000456
v -0.000261 -0.000333 0.000405
v -0.000392 -0.000456 -0.000288
v -0.000470 -0.000344 -0.000274
v -0.000342 0.000146 -0.000436
v -0.000274 0.000074 -0.000411
v -0.000600 -0.000311 -0.000027
v -0.000216 0.000230 -0.000491
v -0.000137 0.000324 -0.000485
v -0.000056 0.000235 -0.000510
v -0.000066 -0.000307 0.000555
v -0.000481 -0.000233 -0.000293
v -0.000048 0.000461 0.000512
v -0.000432 -0.000440 0.000213
v -0.000623 -0.000109 -0.000042
v -0.000120 0.000140 -0.000459
v -0.000523 -0.000395 -0.000181
v -0.000056 0.000350 -0.000504
v -0.000091 -0.000246 -0.000442
v -0.000383 0.000209 -0.000432
v -0.000063 -0.000441 0.000536
v -0.000491 0.000552 0.000076
v -0.000470 -0.000289 0.000175
v -0.000011 0.000333 -0.000472
v -0.000503 0.000154 0.000078
v -0.000540 0.000205 -0.000072
v -0.000539 0.000028 -0.000001
v -0.000635 -0.000174 -0.000154
v -0.000299 -0.000440 -0.000364
v -0.000436 0.000204 0.000294
v -0.000037 0.000048 0.000527
v -0.000261 0.000434 0.000459
v -0.000253 0.000322 -0.000452
v -0.000640 -0.000077 -0.000185
v -0.000470 0.000432 0.000143
v -0.000231 -0.000078 0.000439
v -0.000450 0.000422 0.000242
v -0.000529 -0.000134 -0.000243
v -0.000490 -0.000573 -0.000029
v -0.000342 0.000463 -0.000396
v -0.000525 -0.000427 0.000061
v -0.000639 -0.000340 -0.000099
v -0.000513 -0.000075 -0.000298
v -0.000595 0.000032 -0.000159
v -0.000552 0.000286 -0.000179
v -0.000553 0.000277 -0.000315
v -0.000200 -0.000333 -0.000429
v -0.000190 0.000515 -0.000437
v -0.000572 -0.000432 -0.000068
v -0.000082 -0.000084 -0.000416
v -0.000017 -0.000436 -0.000415
v -0.000591 -0.000009 -0.000239
v -0.000470 -0.000044 -0.000358
v -0.000559 -0.000462 -0.000115
v -0.000103 0.000009 -0.000405
v -0.000013 -0.000005 -0.000429
v -0.000167 -0.000121 -0.000408
v -0.000239 0.000197 0.000456
v -0.000387 -0.000255 -0.000388
v -0.000429 -0.000537 -0.000221
v -0.000051 -0.000116 0.000541
v -0.000233 -0.000580 -0.000357
v -0.000495 -0.000576 -0.000121
v -0.000333 -0.000198 0.000325
v -0.000437 0.000377 0.000296
v -0.000332 -0.000324 -0.000397
v -0.000118 0.000268 0.000513
v -0.000509 0.000409 -0.000327
v -0.000540 0.000377 -0.000103
v -0.000382 0.000368 0.000377
v -0.000560 -0.000186 0.000088
v -0.000132 -0.000387 0.000519
v -0.000530 0.000120 0.000006
v -0.000470 0.000436 0.000061
v -0.000494 0.000479 0.000010
v -0.000547 0.000081 -0.000333
v -0.000579 -0.000080 0.000017
v -0.000462 0.000527 -0.000328
v -0.000649 -0.000249 -0.000107
v -0.000502 0.000432 -0.000045
v -0.000511 0.000314 0.000026
v -0.000170 0.000543 0.000492
v -0.000434 0.000064 -0.000377
v -0.000272 -0.000041 -0.000400
v -0.000164 -0.000455 -0.000409
v -0.000282 -0.000301 -0.000426
v -0.000588 0.000070 -0.000250
v -0.000111 0.000085 0.000525
v 0.000001 -0.000067 0.000530
v -0.000002 0.000384 -0.000459
v 0.000002 -0.000244 -0.000462
v 0.000000 0.000137 -0.000468
v -0.000001 0.000243 0.000508
v 0.000001 -0.000003 -0.000429
v 0.000002 -0.000364 0.000544
v -0.000001 0.000315 -0.000460
v -0.000001 0.000233 -0.000454
v 0.000004 -0.000554 0.000480
v 0.000002 -0.000195 0.000541
v -0.000003 0.000453 0.000509
v -0.000000 0.000099 0.000518
v 0.000004 -0.000499 -0.000405
v 0.000151 0.000554 0.000495
v 0.000504 0.000553 -0.000087
v 0.000498 0.000553 -0.000191
v 0.000456 0.000554 0.000223
v 0.000493 0.000553 -0.000235
v 0.000030 0.000552 -0.000432
v 0.000393 0.000554 0.000349
v 0.000497 0.000553 -0.000207
v 0.000468 0.000553 -0.000287
v 0.000327 0.000552 -0.000403
v 0.000450 0.000554 0.000235
v 0.000040 0.000552 -0.000436
v 0.000485 0.000553 0.000072
v 0.000194 0.000552 -0.000439
v 0.000437 0.000552 -0.000339
v 0.000484 0.000553 0.000076
v 0.000501 0.000553 -0.000072
v 0.000484 0.000553 0.000080
v 0.000167 0.000554 0.000494
v 0.000082 0.000552 -0.000433
v 0.000451 0.000552 -0.000328
v 0.000178 0.000554 0.000488
v 0.000267 0.000554 0.000443
v 0.000044 0.000552 -0.000434
v 0.000456 0.000552 -0.000320
v 0.000308 0.000554 0.000424
v 0.000214 0.000552 -0.000431
v 0.000457 0.000554 0.000217
v 0.000315 0.000554 0.000418
v 0.000497 0.000553 -0.000223
v 0.000045 0.000554 0.000512
v 0.000508 0.000553 -0.000095
v -0.000156 0.000553 0.000495
v -0.000510 0.000552 -0.000090
v -0.000502 0.000551 -0.000195
v -0.000463 0.000552 0.000222
v -0.000498 0.000551 -0.000232
v -0.000400 0.000553 0.000349
v -0.000501 0.000551 -0.000208
v -0.000476 0.000551 -0.000278
v -0.000332 0.000551 -0.000403
v -0.000460 0.000552 0.000227
v -0.000045 0.000551 -0.000436
v -0.000200 0.000551 -0.000439
v -0.000437 0.000551 -0.000343
v -0.000508 0.000552 -0.000078
v -0.000174 0.000553 0.000494
v -0.000085 0.000551 -0.000433
v -0.000454 0.000551 -0.000329
v -0.000187 0.000553 0.000487
v -0.000302 0.000553 0.000429
v -0.000049 0.000551 -0.000434
v -0.000461 0.000551 -0.000319
v -0.000316 0.000553 0.000422
v -0.000222 0.000551 -0.000431
v -0.000463 0.000552 0.000219
v -0.000318 0.000553 0.000421
v -0.000501 0.000551 -0.000222
v -0.000052 0.000554 0.000512
v -0.000513 0.000552 -0.000095
v -0.000003 0.000552 -0.000427
v -0.000004 0.000554 0.000504
v -0.000035 0.000552 -0.000432
v 0.000414 -0.000576 0.000198
v 0.000394 -0.000576 0.000231
v 0.000500 -0.000576 -0.000125
v 0.000414 -0.000577 -0.000232
v 0.000312 -0.000576 0.000329
v 0.000499 -0.000576 -0.000033
v 0.000504 -0.000576 -0.000119
v 0.000139 -0.000577 0.000454
v 0.000122 -0.000578 0.000458
v 0.000115 -0.000580 -0.000401
v 0.000159 -0.000577 0.000441
v 0.000243 -0.000579 -0.000355
v 0.000044 -0.000578 0.000475
v 0.000240 -0.000579 -0.000357
v 0.000283 -0.000577 0.000359
v 0.000445 -0.000577 -0.000211
v 0.000294 -0.000577 0.000348
v 0.000137 -0.000577 0.000456
v 0.000502 -0.000576 -0.000116
v 0.000465 -0.000576 0.000086
v 0.000487 -0.000576 0.000003
v 0.000004 -0.000580 -0.000400
v -0.000404 -0.000582 0.000201
v -0.000384 -0.000582 0.000234
v -0.000492 -0.000584 -0.000127
v -0.000405 -0.000583 -0.000233
v -0.000309 -0.000581 0.000326
v -0.000489 -0.000583 -0.000034
v -0.000496 -0.000584 -0.000120
v -0.000132 -0.000580 0.000454
v -0.000108 -0.000579 0.000459
v -0.000107 -0.000581 -0.000402
v -0.000156 -0.000580 0.000438
v -0.000235 -0.000582 -0.000356
v -0.000036 -0.000579 0.000475
v -0.000019 -0.000579 0.000473
v -0.000230 -0.000582 -0.000358
v -0.000274 -0.000581 0.000361
v -0.000437 -0.000583 -0.000211
v -0.000288 -0.000581 0.000348
v -0.000128 -0.000579 0.000456
v -0.000494 -0.000584 -0.000116
v -0.000455 -0.000583 0.000087
v -0.000478 -0.000583 0.000001
v 0.000027 -0.000578 0.000473
v 0.000004 -0.000578 0.000472
vt 0.657664 0.062331
vt 0.655614 0.062740
vt 0.658357 0.070764
vt 0.134427 0.614883
vt 0.135754 0.613304
vt 0.134441 0.613790
vt 0.783145 0.390578
vt 0.781003 0.395698
vt 0.786442 0.399044
vt 0.803751 0.414213
vt 0.800769 0.415034
vt 0.803795 0.418094
vt 0.900690 0.346172
vt 0.900436 0.344860
vt 0.899114 0.344810
vt 0.671292 0.061025
vt 0.666500 0.058713
vt 0.669833 0.061842
vt 0.239607 0.644416
vt 0.237903 0.644438
vt 0.236716 0.646838
vt 0.264583 0.206394
vt 0.267427 0.206492
vt 0.267370 0.205931
vt 0.060275 0.814855
vt 0.059322 0.814408
vt 0.056517 0.816675
vt 0.057651 0.396008
vt 0.056320 0.396280
vt 0.058205 0.397246
vt 0.780643 0.826011
vt 0.781306 0.823100
vt 0.780201 0.824783
vt 0.659130 0.067113
vt 0.660880 0.065528
vt 0.791353 0.397238
vt 0.789361 0.395248
vt 0.795392 0.401956
vt 0.058246 0.510186
vt 0.061182 0.513314
vt 0.060793 0.508847
vt 0.658216 0.073025
vt 0.658260 0.073497
vt 0.660725 0.069975
vt 0.268000 0.206406
vt 0.667384 0.047822
vt 0.668523 0.048831
vt 0.668513 0.047388
vt 0.798982 0.378997
vt 0.794322 0.379984
vt 0.805342 0.384368
vt 0.799878 0.378909
vt 0.575974 0.348357
vt 0.576104 0.348319
vt 0.576361 0.344319
vt 0.574411 0.345324
vt 0.300205 0.209332
vt 0.300262 0.208381
vt 0.298389 0.209144
vt 0.989295 0.181543
vt 0.990888 0.181910
vt 0.989845 0.180575
vt 0.741790 0.535018
vt 0.739521 0.535034
vt 0.741307 0.536367
vt 0.676435 0.061832
vt 0.677483 0.058356
vt 0.673169 0.058993
vt 0.666900 0.051892
vt 0.660484 0.049618
vt 0.663012 0.053450
vt 0.807042 0.406366
vt 0.802141 0.404031
vt 0.429786 0.159651
vt 0.429897 0.159819
vt 0.431796 0.160354
vt 0.430921 0.158953
vt 0.789216 0.168340
vt 0.790620 0.169367
vt 0.790573 0.167660
vt 0.508701 0.830613
vt 0.508548 0.830788
vt 0.509591 0.832088
vt 0.511394 0.831701
vt 0.055760 0.511200
vt 0.052856 0.514898
vt 0.057514 0.516295
vt 0.794848 0.405447
vt 0.681209 0.594793
vt 0.685278 0.595640
vt 0.684307 0.593496
vt 0.682262 0.596442
vt 0.119750 0.901868
vt 0.117993 0.901695
vt 0.117080 0.902077
vt 0.017650 0.175218
vt 0.017225 0.175237
vt 0.017302 0.175338
vt 0.810025 0.414532
vt 0.812376 0.405749
vt 0.819786 0.762711
vt 0.821476 0.762908
vt 0.821033 0.760035
vt 0.360824 0.176194
vt 0.361842 0.176712
vt 0.362744 0.175757
vt 0.674040 0.049888
vt 0.673413 0.052530
vt 0.677609 0.052567
vt 0.136912 0.770269
vt 0.141939 0.773124
vt 0.142243 0.772056
vt 0.740077 0.023720
vt 0.740179 0.025626
vt 0.741117 0.024961
vt 0.770442 0.904852
vt 0.769648 0.904342
vt 0.769776 0.906013
vt 0.131430 0.769364
vt 0.121815 0.767742
vt 0.127707 0.769822
vt 0.799712 0.408891
vt 0.670284 0.057987
vt 0.669802 0.054596
vt 0.788246 0.408939
vt 0.791082 0.409329
vt 0.787136 0.406494
vt 0.539820 0.738963
vt 0.539020 0.739742
vt 0.540205 0.740354
vt 0.270766 0.201967
vt 0.267601 0.203247
vt 0.051613 0.509883
vt 0.164180 0.455431
vt 0.164251 0.455423
vt 0.165233 0.454532
vt 0.163571 0.454755
vt 0.683910 0.590561
vt 0.682444 0.589154
vt 0.682340 0.591498
vt 0.418628 0.798195
vt 0.422855 0.796474
vt 0.423170 0.794756
vt 0.783709 0.411400
vt 0.787451 0.411534
vt 0.783967 0.409204
vt 0.581214 0.349811
vt 0.583826 0.348683
vt 0.584028 0.346124
vt 0.580526 0.349117
vt 0.658833 0.054561
vt 0.656170 0.050345
vt 0.048985 0.526890
vt 0.052900 0.529276
vt 0.054753 0.526203
vt 0.050349 0.519959
vt 0.384328 0.896342
vt 0.384470 0.896340
vt 0.384345 0.896212
vt 0.536311 0.807020
vt 0.528753 0.808226
vt 0.531728 0.808688
vt 0.095314 0.810175
vt 0.097666 0.811374
vt 0.099427 0.810445
vt 0.664661 0.056760
vt 0.799768 0.378862
vt 0.336059 0.692305
vt 0.337335 0.691916
vt 0.336018 0.688077
vt 0.671907 0.046864
vt 0.573675 0.341399
vt 0.577156 0.340122
vt 0.574452 0.339558
vt 0.246238 0.812382
vt 0.244790 0.813220
vt 0.245183 0.813862
vt 0.810034 0.410160
vt 0.788538 0.388303
vt 0.789163 0.391696
vt 0.799454 0.388695
vt 0.790759 0.989645
vt 0.791478 0.988669
vt 0.790364 0.989288
vt 0.783781 0.384272
vt 0.786638 0.385135
vt 0.661912 0.058171
vt 0.581178 0.338602
vt 0.579756 0.337153
vt 0.579556 0.342756
vt 0.051405 0.929983
vt 0.051523 0.931926
vt 0.052753 0.932148
vt 0.508527 0.830376
vt 0.510916 0.829815
vt 0.809034 0.385868
vt 0.809184 0.395507
vt 0.810464 0.393430
vt 0.289049 0.207757
vt 0.291352 0.208078
vt 0.293613 0.205830
vt 0.288680 0.205135
vt 0.291597 0.203877
vt 0.290237 0.202570
vt 0.810143 0.418156
vt 0.813789 0.417206
vt 0.814205 0.416772
vt 0.928941 0.243213
vt 0.927457 0.243164
vt 0.927770 0.244538
vt 0.660128 0.056562
vt 0.796436 0.392915
vt 0.235123 0.828952
vt 0.234396 0.830762
vt 0.237073 0.830355
vt 0.791879 0.419015
vt 0.791329 0.415210
vt 0.790601 0.417538
vt 0.799356 0.416383
vt 0.794951 0.410084
vt 0.900074 0.343805
vt 0.899068 0.342322
vt 0.278182 0.204102
vt 0.281121 0.202374
vt 0.274480 0.203171
vt 0.414778 0.196647
vt 0.414701 0.195449
vt 0.412728 0.197655
vt 0.805077 0.394978
vt 0.679901 0.227400
vt 0.679566 0.228613
vt 0.681693 0.227655
vt 0.666494 0.064533
vt 0.666801 0.062568
vt 0.265158 0.203238
vt 0.261450 0.204022
vt 0.778190 0.389492
vt 0.779075 0.390007
vt 0.780107 0.386159
vt 0.052618 0.529827
vt 0.053095 0.529865
vt 0.799920 0.421386
vt 0.797160 0.419160
vt 0.796161 0.422024
vt 0.985941 0.978432
vt 0.986005 0.978365
vt 0.985098 0.975304
vt 0.985236 0.977129
vt 0.785332 0.402940
vt 0.782433 0.402787
vt 0.658285 0.059216
vt 0.857118 0.796399
vt 0.858591 0.798106
vt 0.858395 0.795588
vt 0.037381 0.963726
vt 0.034321 0.965703
vt 0.036474 0.965403
vt 0.539256 0.741452
vt 0.539397 0.743308
vt 0.541003 0.743083
vt 0.294597 0.208175
vt 0.296502 0.208664
vt 0.292934 0.207362
vt 0.800068 0.421228
vt 0.800511 0.421171
vt 0.781193 0.822145
vt 0.780018 0.823409
vt 0.286415 0.201012
vt 0.284717 0.200798
vt 0.285188 0.202490
vt 0.581000 0.349745
vt 0.779901 0.405850
vt 0.364883 0.659139
vt 0.364401 0.662193
vt 0.366214 0.661136
vt 0.282182 0.205794
vt 0.660530 0.049556
vt 0.660407 0.049590
vt 0.096073 0.299285
vt 0.095173 0.298276
vt 0.094983 0.299968
vt 0.368503 0.658414
vt 0.368135 0.659299
vt 0.051020 0.512832
vt 0.110047 0.769717
vt 0.111954 0.769508
vt 0.109436 0.766795
vt 0.885323 0.248317
vt 0.885775 0.247710
vt 0.884783 0.246684
vt 0.041856 0.247100
vt 0.042749 0.245155
vt 0.041418 0.245322
vt 0.794164 0.419814
vt 0.795010 0.418665
vt 0.580052 0.161698
vt 0.579859 0.163762
vt 0.581963 0.162355
vt 0.964408 0.641624
vt 0.963991 0.643437
vt 0.965656 0.643759
vt 0.134253 0.773885
vt 0.144429 0.776540
vt 0.804279 0.380091
vt 0.677839 0.060232
vt 0.300473 0.208006
vt 0.300501 0.207560
vt 0.299882 0.206111
vt 0.295943 0.205350
vt 0.053937 0.530065
vt 0.368861 0.393069
vt 0.370006 0.392864
vt 0.369424 0.391814
vt 0.399002 0.168403
vt 0.397996 0.169109
vt 0.399637 0.170201
vt 0.528117 0.129972
vt 0.527722 0.129536
vt 0.527634 0.129685
vt 0.292825 0.207908
vt 0.292315 0.207829
vt 0.102110 0.905481
vt 0.102547 0.903491
vt 0.100038 0.903288
vt 0.115711 0.953316
vt 0.117445 0.952906
vt 0.115890 0.952261
vt 0.127441 0.771313
vt 0.129411 0.773284
vt 0.793688 0.380194
vt 0.792708 0.380583
vt 0.799847 0.378808
vt 0.665946 0.692722
vt 0.667201 0.694832
vt 0.667332 0.693709
vt 0.144839 0.776270
vt 0.145408 0.773614
vt 0.671680 0.046702
vt 0.671879 0.046660
vt 0.988535 0.810323
vt 0.988609 0.810506
vt 0.988637 0.810303
vt 0.574289 0.160180
vt 0.574954 0.158701
vt 0.573217 0.158287
vt 0.681114 0.593013
vt 0.056884 0.522247
vt 0.134580 0.769574
vt 0.106021 0.762282
vt 0.105549 0.762639
vt 0.106980 0.762790
vt 0.048035 0.529281
vt 0.052029 0.529737
vt 0.300756 0.205744
vt 0.787864 0.384712
vt 0.810476 0.401307
vt 0.804246 0.398892
vt 0.050011 0.516116
vt 0.145913 0.772839
vt 0.143832 0.772338
vt 0.960127 0.715725
vt 0.960540 0.719071
vt 0.961151 0.716486
vt 0.816348 0.699957
vt 0.815484 0.698752
vt 0.815546 0.702194
vt 0.859562 0.366027
vt 0.858980 0.367580
vt 0.861833 0.364834
vt 0.779417 0.402201
vt 0.778894 0.399404
vt 0.697016 0.859790
vt 0.697084 0.862020
vt 0.698849 0.859704
vt 0.067155 0.425606
vt 0.068448 0.426746
vt 0.068479 0.425190
vt 0.545287 0.739663
vt 0.545043 0.737754
vt 0.543538 0.739675
vt 0.116298 0.769496
vt 0.113414 0.765497
vt 0.110872 0.764700
vt 0.121351 0.770424
vt 0.118211 0.767351
vt 0.116716 0.766599
vt 0.262350 0.206433
vt 0.261332 0.204026
vt 0.261910 0.206244
vt 0.761038 0.059301
vt 0.761167 0.059048
vt 0.761123 0.057946
vt 0.238490 0.769116
vt 0.242808 0.771011
vt 0.239752 0.768168
vt 0.239619 0.768103
vt 0.273080 0.205586
vt 0.273058 0.205708
vt 0.273171 0.205647
vt 0.387988 0.899004
vt 0.388140 0.899011
vt 0.285312 0.207484
vt 0.287214 0.203643
vt 0.285161 0.207519
vt 0.657664 0.062331
vt 0.658357 0.070764
vt 0.655614 0.062740
vt 0.134427 0.614883
vt 0.134441 0.613790
vt 0.135754 0.613304
vt 0.783145 0.390578
vt 0.786442 0.399044
vt 0.781003 0.395698
vt 0.803751 0.414213
vt 0.803795 0.418094
vt 0.800769 0.415034
vt 0.900690 0.346172
vt 0.899114 0.344810
vt 0.900436 0.344860
vt 0.671292 0.061025
vt 0.669833 0.061842
vt 0.666500 0.058713
vt 0.239607 0.644416
vt 0.236716 0.646838
vt 0.237903 0.644438
vt 0.267370 0.205931
vt 0.060275 0.814855
vt 0.056517 0.816675
vt 0.059322 0.814408
vt 0.057651 0.396008
vt 0.058205 0.397246
vt 0.056320 0.396280
vt 0.780643 0.826011
vt 0.780201 0.824783
vt 0.781306 0.823100
vt 0.660880 0.065528
vt 0.659130 0.067113
vt 0.791353 0.397238
vt 0.795392 0.401956
vt 0.789361 0.395248
vt 0.058246 0.510186
vt 0.060793 0.508847
vt 0.061182 0.513314
vt 0.660725 0.069975
vt 0.667336 0.047780
vt 0.668512 0.047323
vt 0.668523 0.048831
vt 0.794477 0.380046
vt 0.798782 0.379017
vt 0.799878 0.378909
vt 0.805342 0.384368
vt 0.576103 0.348327
vt 0.575977 0.348363
vt 0.574411 0.345324
vt 0.576361 0.344319
vt 0.300273 0.208377
vt 0.989295 0.181543
vt 0.989845 0.180575
vt 0.990888 0.181910
vt 0.741790 0.535018
vt 0.741307 0.536367
vt 0.739521 0.535034
vt 0.676435 0.061832
vt 0.673169 0.058993
vt 0.677483 0.058356
vt 0.666900 0.051892
vt 0.663012 0.053450
vt 0.660484 0.049618
vt 0.807042 0.406366
vt 0.802141 0.404031
vt 0.429862 0.159810
vt 0.429766 0.159663
vt 0.430921 0.158953
vt 0.431796 0.160354
vt 0.789216 0.168340
vt 0.790573 0.167660
vt 0.790620 0.169367
vt 0.508474 0.830696
vt 0.508585 0.830566
vt 0.511394 0.831701
vt 0.509591 0.832088
vt 0.055760 0.511200
vt 0.057514 0.516295
vt 0.052856 0.514898
vt 0.794848 0.405447
vt 0.681209 0.594793
vt 0.684307 0.593496
vt 0.685278 0.595640
vt 0.682262 0.596442
vt 0.119750 0.901868
vt 0.117080 0.902077
vt 0.117993 0.901695
vt 0.017629 0.175225
vt 0.017302 0.175338
vt 0.017232 0.175245
vt 0.812376 0.405749
vt 0.810025 0.414532
vt 0.819786 0.762711
vt 0.821033 0.760035
vt 0.821476 0.762908
vt 0.360824 0.176194
vt 0.362744 0.175757
vt 0.361842 0.176712
vt 0.674040 0.049888
vt 0.677609 0.052567
vt 0.673413 0.052530
vt 0.141939 0.773124
vt 0.740077 0.023720
vt 0.741117 0.024961
vt 0.740179 0.025626
vt 0.770487 0.904880
vt 0.769784 0.906125
vt 0.769648 0.904342
vt 0.127707 0.769822
vt 0.799712 0.408891
vt 0.670284 0.057987
vt 0.669802 0.054596
vt 0.788246 0.408939
vt 0.787136 0.406494
vt 0.791082 0.409329
vt 0.539820 0.738963
vt 0.540205 0.740354
vt 0.539020 0.739742
vt 0.270766 0.201967
vt 0.267601 0.203247
vt 0.051613 0.509883
vt 0.796153 0.420286
vt 0.796117 0.422150
vt 0.794164 0.419814
vt 0.164208 0.455462
vt 0.163571 0.454755
vt 0.165233 0.454532
vt 0.683910 0.590561
vt 0.682340 0.591498
vt 0.682444 0.589154
vt 0.418628 0.798195
vt 0.423170 0.794756
vt 0.422855 0.796474
vt 0.783709 0.411400
vt 0.783967 0.409204
vt 0.787451 0.411534
vt 0.583818 0.348779
vt 0.581257 0.349854
vt 0.580526 0.349117
vt 0.584028 0.346124
vt 0.658833 0.054561
vt 0.656170 0.050345
vt 0.048985 0.526890
vt 0.054753 0.526203
vt 0.052900 0.529276
vt 0.050349 0.519959
vt 0.384345 0.896212
vt 0.536311 0.807020
vt 0.531728 0.808688
vt 0.528753 0.808226
vt 0.095314 0.810175
vt 0.099427 0.810445
vt 0.097666 0.811374
vt 0.664661 0.056760
vt 0.799712 0.378839
vt 0.336059 0.692305
vt 0.336018 0.688077
vt 0.337335 0.691916
vt 0.671907 0.046864
vt 0.573675 0.341399
vt 0.574452 0.339558
vt 0.577156 0.340122
vt 0.245183 0.813862
vt 0.810034 0.410160
vt 0.788538 0.388303
vt 0.799454 0.388695
vt 0.789163 0.391696
vt 0.790781 0.989665
vt 0.790364 0.989288
vt 0.791522 0.988645
vt 0.783785 0.384231
vt 0.786643 0.385127
vt 0.661912 0.058171
vt 0.581178 0.338602
vt 0.579756 0.337153
vt 0.579556 0.342756
vt 0.051405 0.929983
vt 0.052753 0.932148
vt 0.051523 0.931926
vt 0.508457 0.830392
vt 0.510916 0.829815
vt 0.809034 0.385868
vt 0.810464 0.393430
vt 0.809184 0.395507
vt 0.288680 0.205135
vt 0.293613 0.205830
vt 0.291597 0.203877
vt 0.290237 0.202570
vt 0.809009 0.418543
vt 0.814205 0.416772
vt 0.813707 0.417292
vt 0.928941 0.243213
vt 0.927770 0.244538
vt 0.927457 0.243164
vt 0.660128 0.056562
vt 0.796436 0.392915
vt 0.235123 0.828952
vt 0.237073 0.830355
vt 0.234396 0.830762
vt 0.791879 0.419015
vt 0.790601 0.417538
vt 0.791329 0.415210
vt 0.799356 0.416383
vt 0.794951 0.410084
vt 0.900074 0.343805
vt 0.899068 0.342322
vt 0.278182 0.204102
vt 0.274480 0.203171
vt 0.281121 0.202374
vt 0.414778 0.196647
vt 0.412728 0.197655
vt 0.414701 0.195449
vt 0.805077 0.394978
vt 0.679901 0.227400
vt 0.681693 0.227655
vt 0.679566 0.228613
vt 0.666801 0.062568
vt 0.666494 0.064533
vt 0.265158 0.203238
vt 0.261450 0.204022
vt 0.778190 0.389492
vt 0.780107 0.386159
vt 0.779075 0.390007
vt 0.052553 0.529955
vt 0.053141 0.530003
vt 0.800029 0.421474
vt 0.797160 0.419160
vt 0.986021 0.978420
vt 0.985965 0.978478
vt 0.985236 0.977129
vt 0.985098 0.975304
vt 0.785332 0.402940
vt 0.782433 0.402787
vt 0.658285 0.059216
vt 0.857118 0.796399
vt 0.858395 0.795588
vt 0.858591 0.798106
vt 0.037381 0.963726
vt 0.036474 0.965403
vt 0.034321 0.965703
vt 0.539256 0.741452
vt 0.541003 0.743083
vt 0.539397 0.743308
vt 0.292934 0.207362
vt 0.800291 0.421378
vt 0.800094 0.421405
vt 0.781193 0.822145
vt 0.780018 0.823409
vt 0.286415 0.201012
vt 0.285188 0.202490
vt 0.284717 0.200798
vt 0.581027 0.349780
vt 0.779901 0.405850
vt 0.364883 0.659139
vt 0.366214 0.661136
vt 0.364401 0.662193
vt 0.282182 0.205794
vt 0.660539 0.049543
vt 0.660392 0.049584
vt 0.096073 0.299285
vt 0.094983 0.299968
vt 0.095173 0.298276
vt 0.368503 0.658414
vt 0.368135 0.659299
vt 0.051020 0.512832
vt 0.110047 0.769717
vt 0.109436 0.766795
vt 0.111954 0.769508
vt 0.885323 0.248317
vt 0.884783 0.246684
vt 0.885775 0.247710
vt 0.041856 0.247100
vt 0.041418 0.245322
vt 0.042749 0.245155
vt 0.795010 0.418665
vt 0.580052 0.161698
vt 0.581963 0.162355
vt 0.579859 0.163762
vt 0.964408 0.641624
vt 0.965656 0.643759
vt 0.963991 0.643437
vt 0.134253 0.773885
vt 0.144429 0.776540
vt 0.804279 0.380091
vt 0.677839 0.060232
vt 0.300516 0.207594
vt 0.300482 0.208011
vt 0.295943 0.205350
vt 0.299882 0.206111
vt 0.054187 0.530255
vt 0.368861 0.393069
vt 0.369424 0.391814
vt 0.370006 0.392864
vt 0.399002 0.168403
vt 0.399637 0.170201
vt 0.397996 0.169109
vt 0.527722 0.129536
vt 0.102110 0.905481
vt 0.100038 0.903288
vt 0.102547 0.903491
vt 0.115711 0.953316
vt 0.115890 0.952261
vt 0.117445 0.952906
vt 0.127441 0.771313
vt 0.129411 0.773284
vt 0.792641 0.380707
vt 0.793755 0.380292
vt 0.799833 0.378761
vt 0.665946 0.692722
vt 0.667332 0.693709
vt 0.667201 0.694832
vt 0.145403 0.773614
vt 0.144906 0.776226
vt 0.671639 0.046672
vt 0.671873 0.046621
vt 0.988521 0.810289
vt 0.988641 0.810270
vt 0.988609 0.810506
vt 0.574289 0.160180
vt 0.573217 0.158287
vt 0.574954 0.158701
vt 0.681114 0.593013
vt 0.056884 0.522247
vt 0.105548 0.762639
vt 0.051834 0.529841
vt 0.048000 0.529371
vt 0.300805 0.205724
vt 0.787861 0.384697
vt 0.810476 0.401307
vt 0.804246 0.398892
vt 0.050011 0.516116
vt 0.960127 0.715725
vt 0.961151 0.716486
vt 0.960540 0.719071
vt 0.816348 0.699957
vt 0.815546 0.702194
vt 0.815484 0.698752
vt 0.859562 0.366027
vt 0.861833 0.364834
vt 0.858980 0.367580
vt 0.779417 0.402201
vt 0.778894 0.399404
vt 0.697016 0.859790
vt 0.698849 0.859704
vt 0.697084 0.862020
vt 0.067155 0.425606
vt 0.068479 0.425190
vt 0.068448 0.426746
vt 0.545287 0.739663
vt 0.543538 0.739675
vt 0.545043 0.737754
vt 0.116298 0.769496
vt 0.121351 0.770424
vt 0.261329 0.204026
vt 0.761038 0.059301
vt 0.238490 0.769116
vt 0.242808 0.771011
vt 0.273080 0.205586
vt 0.388140 0.899011
vt 0.287214 0.203643
vt 0.808448 0.418697
vt 0.808355 0.418728
vt 0.814172 0.417180
vt 0.793084 0.421444
vt 0.300295 0.208023
vt 0.055687 0.530582
vt 0.915822 0.678502
vt 0.915923 0.680976
vt 0.914812 0.679190
vt 0.430623 0.160844
vt 0.429784 0.159913
vt 0.144618 0.776632
vt 0.808182 0.418704
vt 0.808483 0.418606
vt 0.814177 0.417115
vt 0.796153 0.420286
vt 0.795982 0.421988
vt 0.796119 0.422069
vt 0.793156 0.421336
vt 0.300282 0.208018
vt 0.055656 0.530435
vt 0.915822 0.678502
vt 0.914840 0.679171
vt 0.915920 0.680905
vt 0.429807 0.159939
vt 0.430623 0.160844
vt 0.144588 0.776618
vt 0.944989 0.535817
vt 0.945449 0.535559
vt 0.946671 0.535160
vt 0.945810 0.537099
vt 0.105145 0.762967
vt 0.656051 0.050179
vt 0.104708 0.764272
vt 0.104600 0.764224
vt 0.104701 0.763891
vt 0.094523 0.084489
vt 0.094246 0.084369
vt 0.093395 0.083903
vt 0.094530 0.083519
vt 0.501825 0.765903
vt 0.501936 0.765962
vt 0.501121 0.766453
vt 0.500857 0.766445
vt 0.614818 0.514585
vt 0.619272 0.517278
vt 0.620340 0.520060
vt 0.944989 0.535817
vt 0.945810 0.537099
vt 0.946666 0.535172
vt 0.945478 0.535542
vt 0.105146 0.762967
vt 0.656054 0.050183
vt 0.104708 0.764272
vt 0.104703 0.763995
vt 0.104634 0.764239
vt 0.094523 0.084489
vt 0.094530 0.083519
vt 0.093396 0.083903
vt 0.094321 0.084402
vt 0.501825 0.765903
vt 0.500857 0.766445
vt 0.501144 0.766454
vt 0.501920 0.765954
vt 0.614818 0.514585
vt 0.620430 0.520149
vt 0.619254 0.517267
vn 0.1984 0.1350 -0.9708
vn 0.2323 0.1361 -0.9631
vn 0.2178 0.1064 -0.9702
vn 0.9983 0.0258 -0.0531
vn 0.9947 0.0397 -0.0950
vn 0.9965 0.0593 -0.0592
vn 0.8545 -0.1578 0.4950
vn 0.8468 -0.1660 0.5054
vn 0.8528 -0.1738 0.4925
vn 0.8377 0.0528 0.5435
vn 0.8097 0.0559 0.5842
vn 0.8229 0.0332 0.5672
vn 0.8774 0.3670 0.3091
vn 0.8671 0.3885 0.3117
vn 0.8616 0.3710 0.3464
vn 0.7421 -0.1957 -0.6410
vn 0.7499 -0.1868 -0.6346
vn 0.7472 -0.2033 -0.6327
vn 0.5648 -0.2254 -0.7938
vn 0.5803 -0.2532 -0.7740
vn 0.5451 -0.2646 -0.7955
vn -0.1464 0.6098 -0.7789
vn 0.4102 -0.2424 -0.8792
vn -0.1994 -0.0925 -0.9755
vn 0.9796 0.1990 -0.0281
vn 0.9821 0.1881 0.0101
vn 0.9856 0.1687 -0.0113
vn 0.9894 0.0369 0.1406
vn 0.9919 0.0170 0.1257
vn 0.9912 0.0478 0.1234
vn 0.8846 -0.3149 0.3438
vn 0.8913 -0.3027 0.3376
vn 0.8849 -0.2904 0.3641
vn 0.1627 0.1858 -0.9690
vn 0.1644 0.1594 -0.9734
vn 0.1324 0.1562 -0.9788
vn 0.6502 -0.1639 0.7419
vn 0.6362 -0.1551 0.7557
vn 0.6363 -0.1780 0.7506
vn 0.7454 -0.3323 -0.5779
vn 0.7304 -0.3475 -0.5880
vn 0.7435 -0.3167 -0.5889
vn 0.1666 0.6325 -0.7565
vn 0.6363 -0.6750 -0.3735
vn 0.2776 -0.2271 -0.9335
vn 0.2970 -0.2146 -0.9304
vn 0.3682 0.1543 -0.9168
vn 0.3512 0.1701 -0.9207
vn 0.3545 0.1911 -0.9153
vn -0.2032 0.3238 -0.9240
vn 0.2032 -0.7108 -0.6734
vn -0.2558 -0.3011 -0.9186
vn 0.5703 -0.0641 -0.8189
vn 0.5630 -0.0769 -0.8229
vn 0.5490 -0.0587 -0.8337
vn 0.5328 -0.2348 0.8130
vn 0.5138 -0.2515 0.8203
vn 0.5402 -0.2826 0.7927
vn 0.5408 -0.2572 0.8009
vn 0.3166 0.3134 -0.8953
vn 0.2965 0.3098 -0.9034
vn 0.2952 0.3369 -0.8941
vn 0.3204 0.3488 -0.8807
vn 0.4332 0.1241 -0.8927
vn -0.4163 -0.3652 -0.8327
vn -0.1305 0.6852 -0.7166
vn 0.1116 -0.4189 -0.9011
vn 0.1296 -0.3992 -0.9076
vn 0.1355 -0.4234 -0.8958
vn 0.7134 -0.0925 0.6946
vn 0.6939 -0.0923 0.7141
vn 0.7021 -0.1134 0.7030
vn 0.5679 -0.2624 -0.7801
vn 0.5513 -0.2228 -0.8040
vn 0.5838 -0.2384 -0.7761
vn 0.5685 -0.3015 -0.7655
vn 0.5873 -0.2845 -0.7577
vn 0.5776 -0.3063 -0.7567
vn 0.6102 -0.1195 0.7832
vn 0.6094 -0.1013 0.7864
vn 0.5978 -0.1194 0.7927
vn 0.9821 0.1882 0.0022
vn 0.9808 0.1946 -0.0126
vn 0.9781 0.2077 -0.0105
vn 0.9770 0.2125 0.0175
vn 0.9536 0.2992 0.0351
vn 0.9477 0.3188 0.0144
vn 0.9423 0.3337 0.0268
vn 0.9852 -0.0003 0.1714
vn 0.9892 -0.0099 0.1460
vn 0.9907 0.0114 0.1358
vn 0.9837 0.0878 0.1569
vn 0.3741 -0.0263 -0.9270
vn 0.3789 -0.0394 -0.9246
vn 0.3609 -0.0460 -0.9315
vn 0.8148 -0.0335 0.5787
vn 0.8035 -0.0303 0.5946
vn 0.8056 -0.0459 0.5906
vn 0.8640 -0.1108 0.4911
vn 0.8875 -0.1200 0.4450
vn 0.8846 -0.1045 0.4545
vn 0.8916 -0.0514 0.4498
vn 0.9074 -0.0120 0.4200
vn 0.8916 0.0212 0.4523
vn 0.9894 0.1327 0.0596
vn 0.9808 0.1341 0.1414
vn 0.9935 0.1000 0.0544
vn 0.9371 -0.1876 0.2945
vn 0.9331 -0.1878 0.3066
vn 0.9330 -0.1935 0.3034
vn 0.4079 -0.0451 0.9119
vn 0.4064 -0.0592 0.9118
vn 0.4210 -0.0467 0.9058
vn 0.9872 0.1590 0.0156
vn 0.9851 0.1715 -0.0116
vn 0.9802 0.1978 -0.0031
vn 0.4503 0.0446 0.8918
vn 0.4605 0.0333 0.8870
vn 0.4615 0.0598 0.8851
vn 0.6522 -0.3116 -0.6910
vn 0.6582 -0.3264 -0.6784
vn 0.6392 -0.3396 -0.6900
vn 0.1993 0.5545 0.8079
vn -0.0888 -0.0401 0.9952
vn -0.0434 -0.6149 0.7874
vn 0.9687 0.1114 0.2221
vn 0.9691 0.0834 0.2320
vn 0.9741 0.0909 0.2069
vn 0.8969 -0.0142 0.4419
vn 0.8960 -0.0010 0.4441
vn 0.8876 -0.0121 0.4605
vn -0.1302 -0.5526 0.8232
vn 0.0285 0.5977 0.8012
vn -0.1834 0.0752 0.9801
vn 0.6419 -0.0699 0.7636
vn 0.6333 -0.0577 0.7718
vn 0.6272 -0.0867 0.7740
vn 0.7720 -0.1005 0.6277
vn 0.7612 -0.1105 0.6390
vn 0.7723 -0.1203 0.6238
vn 0.7178 -0.1967 -0.6679
vn 0.7191 -0.1842 -0.6700
vn 0.7249 -0.1893 -0.6624
vn 0.9432 0.0729 0.3242
vn 0.9502 0.0775 0.3019
vn 0.9429 0.1029 0.3167
vn 0.9516 0.0593 0.3014
vn 0.9560 0.0494 0.2893
vn 0.9599 0.0711 0.2714
vn 0.0148 -0.1698 -0.9854
vn 0.0163 -0.1458 -0.9892
vn 0.0269 -0.1604 -0.9867
vn 0.1369 0.0918 -0.9863
vn 0.1298 0.0834 -0.9880
vn 0.1064 0.1081 -0.9884
vn 0.2080 -0.1097 -0.9719
vn 0.2003 -0.0949 -0.9751
vn 0.2202 -0.0980 -0.9705
vn 0.5899 -0.3406 -0.7321
vn 0.5850 -0.3306 -0.7406
vn 0.6060 -0.3267 -0.7253
vn 0.9857 -0.1682 0.0066
vn 0.9857 -0.1687 -0.0043
vn 0.9871 -0.1598 -0.0094
vn 0.9892 -0.1456 0.0194
vn 0.7720 -0.3516 0.5295
vn 0.7795 -0.3213 0.5377
vn 0.7567 -0.3497 0.5524
vn 0.5337 0.0859 -0.8413
vn 0.5176 0.1274 -0.8461
vn 0.5406 0.1166 -0.8331
vn 0.9514 0.1839 0.2471
vn 0.9542 0.1881 0.2325
vn 0.9437 0.2200 0.2472
vn 0.8696 -0.1616 -0.4667
vn 0.8588 -0.1820 -0.4790
vn 0.8655 -0.1618 -0.4741
vn 0.7195 -0.1124 -0.6853
vn 0.7056 -0.0878 -0.7032
vn 0.7209 -0.0916 -0.6870
vn 0.2499 -0.0534 -0.9668
vn 0.2416 -0.0512 -0.9690
vn 0.2406 -0.0421 -0.9697
vn 0.2532 -0.0454 -0.9663
vn 0.3309 -0.2051 -0.9211
vn 0.3405 -0.1804 -0.9228
vn 0.3500 -0.2100 -0.9129
vn 0.3116 -0.1965 -0.9297
vn 0.3405 -0.2027 -0.9181
vn 0.3220 -0.2247 -0.9197
vn 0.4258 0.1624 -0.8901
vn 0.4158 0.1548 -0.8962
vn 0.4011 0.1795 -0.8983
vn 0.4321 0.1974 -0.8800
vn 0.4054 0.1928 -0.8936
vn 0.4291 0.2082 -0.8789
vn 0.1161 0.8065 -0.5797
vn 0.3579 -0.5492 -0.7552
vn 0.1570 0.1940 -0.9684
vn 0.4871 0.0246 0.8730
vn 0.4904 -0.0403 0.8706
vn 0.5209 0.0098 0.8536
vn 0.8147 -0.0229 0.5794
vn 0.8382 -0.0266 0.5446
vn 0.8218 0.0156 0.5696
vn 0.6013 -0.3603 -0.7132
vn 0.6034 -0.3748 -0.7038
vn 0.5922 -0.3693 -0.7162
vn 0.5704 -0.0650 0.8188
vn 0.5604 -0.0708 0.8252
vn 0.5738 -0.0770 0.8154
vn 0.7452 0.0019 0.6669
vn 0.7437 0.0191 0.6682
vn 0.7282 0.0074 0.6853
vn 0.7323 -0.3114 -0.6056
vn 0.7125 -0.2688 -0.6481
vn 0.7406 -0.3016 -0.6005
vn 0.6608 -0.3246 -0.6767
vn 0.6483 -0.3256 -0.6882
vn 0.6737 -0.2615 -0.6912
vn 0.1226 -0.4341 -0.8925
vn 0.0881 -0.4287 -0.8991
vn 0.1053 -0.4041 -0.9086
vn 0.6153 0.1503 0.7738
vn 0.6033 0.1800 0.7770
vn 0.6028 0.1443 0.7847
vn -0.1079 -0.6041 0.7896
vn 0.2991 0.3311 0.8949
vn -0.1625 -0.0583 0.9850
vn 0.5398 -0.0539 0.8401
vn 0.5123 -0.0545 0.8571
vn 0.5436 -0.0655 0.8368
vn 0.7365 -0.0091 0.6764
vn 0.7338 -0.0249 0.6789
vn 0.7482 -0.0208 0.6631
vn 0.6553 -0.0832 0.7508
vn 0.6654 -0.0657 0.7436
vn 0.6563 -0.0563 0.7524
vn 0.8680 -0.2973 0.3977
vn 0.8649 -0.3087 0.3957
vn 0.8755 -0.2967 0.3814
vn 0.4114 -0.2123 -0.8864
vn 0.4098 -0.1971 -0.8906
vn 0.4349 -0.2067 -0.8764
vn 0.3049 -0.1540 -0.9399
vn 0.3057 -0.1378 -0.9421
vn 0.3245 -0.1541 -0.9333
vn 0.3450 0.2371 -0.9082
vn 0.3369 0.2454 -0.9090
vn 0.3521 0.2525 -0.9013
vn 0.8704 0.4288 -0.2421
vn 0.8706 0.4082 -0.2748
vn 0.8450 0.4608 -0.2715
vn 0.8735 0.1167 0.4726
vn 0.8918 0.0518 0.4495
vn 0.9126 0.1191 0.3912
vn 0.8707 0.1475 0.4693
vn 0.2695 0.1206 0.9554
vn 0.2397 0.0615 0.9689
vn 0.2826 0.0771 0.9561
vn -0.6612 0.4090 -0.6289
vn -0.4270 0.2764 -0.8610
vn -0.7165 0.0016 -0.6976
vn -0.7239 0.0530 -0.6879
vn 0.1213 0.1460 -0.9818
vn 0.1097 0.1688 -0.9795
vn 0.1486 0.1743 -0.9734
vn 0.4122 -0.1980 0.8893
vn 0.4498 -0.2153 0.8668
vn 0.4606 -0.1877 0.8675
vn 0.6378 -0.1724 0.7507
vn 0.6193 -0.1643 0.7678
vn 0.6216 -0.2013 0.7570
vn 0.1973 -0.3803 -0.9036
vn 0.1804 -0.3971 -0.8999
vn 0.1848 -0.3720 -0.9097
vn 0.3549 -0.2311 -0.9059
vn 0.3427 -0.2463 -0.9066
vn 0.3316 -0.2356 -0.9135
vn 0.7387 -0.0069 0.6740
vn 0.7438 0.0191 0.6681
vn 0.7296 0.0155 0.6837
vn 0.6769 -0.0471 0.7346
vn 0.6871 -0.0579 0.7242
vn 0.6891 -0.0467 0.7232
vn 0.9156 0.1995 0.3491
vn 0.9013 0.2853 0.3259
vn 0.8918 0.2789 0.3561
vn 0.9204 0.1536 0.3595
vn 0.9165 0.1834 0.3555
vn 0.9130 0.1590 0.3756
vn 0.8716 -0.1832 -0.4546
vn 0.8627 -0.1770 -0.4737
vn 0.8733 -0.1677 -0.4575
vn 0.7146 -0.1537 -0.6825
vn 0.7255 -0.1527 -0.6711
vn 0.7187 -0.1623 -0.6761
vn 0.9522 0.0532 0.3007
vn 0.9609 0.0657 0.2689
vn 0.9520 0.0747 0.2969
vn 0.8061 0.4692 0.3606
vn 0.7796 0.5084 0.3657
vn 0.8008 0.4510 0.3941
vn 0.6984 -0.2837 -0.6571
vn 0.7088 -0.2862 -0.6448
vn 0.6955 -0.3024 -0.6518
vn 0.6797 -0.2538 -0.6881
vn 0.6856 -0.2410 -0.6870
vn 0.6901 -0.2496 -0.6793
vn -0.1964 0.3560 -0.9136
vn -0.2287 0.3617 -0.9038
vn -0.2090 0.3863 -0.8984
vn 0.0967 0.1178 -0.9883
vn 0.1286 0.1120 -0.9853
vn 0.1079 0.0919 -0.9899
vn 0.8501 -0.0912 0.5187
vn 0.8555 -0.0720 0.5127
vn 0.8473 -0.0774 0.5255
vn 0.6696 0.0233 0.7424
vn 0.6504 0.0053 0.7595
vn 0.6689 -0.0374 0.7424
vn 0.6323 -0.0095 0.7747
vn 0.6340 -0.0277 0.7728
vn 0.6648 -0.0351 0.7462
vn 0.0324 0.0654 0.9973
vn 0.0086 0.0665 0.9977
vn 0.0205 0.0430 0.9989
vn 0.2141 0.1268 -0.9685
vn 0.2200 0.1003 -0.9703
vn 0.1997 0.1033 -0.9744
vn 0.3360 0.0128 -0.9418
vn 0.3535 0.0199 -0.9352
vn 0.3339 -0.0029 -0.9426
vn 0.0127 -0.0838 -0.9964
vn 0.0313 -0.0634 -0.9975
vn 0.0362 -0.0835 -0.9959
vn 0.8765 -0.4722 0.0933
vn 0.8664 -0.4948 0.0679
vn 0.8791 -0.4704 0.0763
vn 0.8114 0.2482 -0.5292
vn 0.7989 0.2518 -0.5461
vn 0.8019 0.2634 -0.5363
vn 0.9807 -0.0571 0.1869
vn 0.9805 -0.0463 0.1910
vn 0.9776 -0.0568 0.2026
vn 0.9101 0.2771 -0.3080
vn 0.9010 0.2773 -0.3337
vn 0.8984 0.3136 -0.3075
vn 0.9145 0.2854 -0.2867
vn 0.8295 0.1958 0.5231
vn 0.8292 0.2158 0.5155
vn 0.8012 0.2121 0.5596
vn 0.2078 0.1352 -0.9688
vn 0.2344 0.1260 -0.9639
vn 0.2155 0.1116 -0.9701
vn 0.0544 -0.2365 -0.9701
vn 0.0660 -0.2280 -0.9714
vn 0.0718 -0.2522 -0.9650
vn 0.9786 -0.0651 0.1952
vn 0.9798 -0.0754 0.1854
vn 0.9846 -0.0521 0.1667
vn 0.9759 0.0003 0.2182
vn 0.9807 -0.0141 0.1949
vn 0.9780 0.0262 0.2070
vn -0.5370 0.5021 -0.6778
vn -0.2686 -0.3265 -0.9062
vn -0.6244 0.0809 -0.7769
vn -0.5875 0.0929 -0.8039
vn 0.2629 0.1695 -0.9498
vn 0.2836 0.1757 -0.9427
vn 0.2672 0.1575 -0.9507
vn 0.3159 0.1724 -0.9330
vn 0.3058 0.1769 -0.9355
vn 0.3111 0.1852 -0.9322
vn 0.8875 -0.0128 0.4605
vn 0.8938 -0.0120 0.4483
vn 0.8968 -0.0037 0.4424
vn 0.8910 0.0073 0.4540
vn 0.8580 -0.3892 0.3352
vn 0.8435 -0.4063 0.3514
vn 0.8574 -0.3967 0.3279
vn 0.9447 0.2132 0.2492
vn 0.9450 0.1935 0.2635
vn 0.9498 0.1973 0.2429
vn 0.6417 0.3484 0.6833
vn 0.6559 0.3260 0.6808
vn 0.6519 0.3522 0.6716
vn 0.1685 -0.4566 -0.8736
vn 0.1584 -0.4423 -0.8827
vn 0.1813 -0.4383 -0.8804
vn 0.3617 -0.1536 -0.9196
vn 0.3418 -0.1446 -0.9286
vn 0.3544 -0.1345 -0.9254
vn 0.9034 0.3713 0.2145
vn 0.9262 0.3199 0.1998
vn 0.9186 0.3651 0.1509
vn 0.1046 -0.3865 -0.9163
vn 0.1240 -0.3830 -0.9154
vn 0.1282 -0.4034 -0.9060
vn 0.0082 -0.0947 -0.9955
vn -0.0072 -0.1085 -0.9941
vn -0.0057 -0.0864 -0.9962
vn 0.4370 -0.2332 -0.8687
vn 0.4565 -0.2292 -0.8597
vn 0.4322 -0.2517 -0.8659
vn 0.2967 0.1929 -0.9353
vn 0.3058 0.1876 -0.9334
vn 0.2996 0.1809 -0.9367
vn 0.3466 -0.3357 -0.8759
vn 0.3574 -0.3577 -0.8627
vn 0.3360 -0.3553 -0.8723
vn 0.1023 -0.4359 -0.8942
vn 0.0916 -0.4113 -0.9069
vn 0.1214 -0.4213 -0.8987
vn 0.2134 -0.1061 -0.9712
vn 0.1961 -0.0962 -0.9759
vn 0.2079 -0.0818 -0.9747
vn 0.3455 -0.1312 0.9292
vn 0.3804 -0.1590 0.9111
vn 0.3953 -0.0951 0.9136
vn 0.2778 0.2711 -0.9216
vn 0.2564 0.2775 -0.9259
vn 0.2549 0.2938 -0.9213
vn 0.8659 -0.4955 0.0684
vn 0.8747 -0.4809 0.0595
vn 0.8950 -0.4363 0.0927
vn 0.8477 0.1268 0.5150
vn 0.8642 0.1418 0.4828
vn 0.8466 0.1608 0.5073
vn 0.9652 0.0413 0.2583
vn 0.9712 0.0548 0.2319
vn 0.9664 0.0705 0.2471
vn 0.7178 -0.2872 -0.6343
vn 0.7324 -0.2811 -0.6202
vn 0.7309 -0.3002 -0.6129
vn 0.3586 0.0185 0.9333
vn 0.3439 0.0042 0.9390
vn 0.3610 -0.0146 0.9325
vn 0.1183 0.0664 0.9908
vn 0.1089 0.0333 0.9935
vn 0.1461 0.0355 0.9886
vn 0.4902 -0.2902 0.8219
vn 0.4555 -0.2643 0.8501
vn 0.4451 -0.2965 0.8450
vn 0.5233 -0.2875 -0.8022
vn 0.4930 -0.3027 -0.8157
vn 0.5129 -0.2413 -0.8239
vn 0.0491 0.2252 -0.9731
vn 0.0346 0.2256 -0.9736
vn 0.0310 0.2307 -0.9725
vn 0.0395 0.2517 -0.9670
vn 0.0470 0.0741 -0.9961
vn 0.0464 0.0418 -0.9981
vn 0.0301 0.0412 -0.9987
vn 0.5850 -0.2893 -0.7577
vn 0.5743 -0.2942 -0.7639
vn 0.5738 -0.2855 -0.7676
vn 0.9255 0.1739 -0.3366
vn 0.9197 0.1781 -0.3500
vn 0.9241 0.1846 -0.3345
vn 0.9327 0.1269 0.3375
vn 0.9346 0.1499 0.3225
vn 0.9209 0.1550 0.3576
vn 0.9030 -0.0212 -0.4292
vn 0.8902 -0.0323 -0.4544
vn 0.8931 0.0001 -0.4498
vn -0.5885 -0.3948 -0.7056
vn -0.7545 0.0301 -0.6556
vn -0.7011 0.3677 -0.6110
vn -0.4634 0.0359 -0.8854
vn -0.7554 -0.0204 -0.6549
vn -0.6713 0.4265 -0.6061
vn 0.9515 0.1480 0.2696
vn 0.9432 0.1660 0.2877
vn 0.9455 0.1426 0.2929
vn 0.9679 0.0600 0.2440
vn 0.9629 0.0554 0.2643
vn 0.9673 0.0367 0.2510
vn 0.2573 0.0203 0.9661
vn 0.2908 -0.0167 0.9566
vn 0.3077 0.0148 0.9514
vn 0.0091 0.1097 0.9939
vn -0.0052 0.0758 0.9971
vn 0.0172 0.0801 0.9966
vn 0.7326 -0.0516 0.6787
vn 0.7186 -0.0646 0.6924
vn 0.7141 -0.0773 0.6957
vn 0.7268 -0.0839 0.6817
vn 0.4287 -0.2034 0.8803
vn 0.4128 -0.2096 0.8864
vn 0.4191 -0.2239 0.8799
vn 0.6744 -0.1050 0.7308
vn 0.6882 -0.0962 0.7191
vn 0.6802 -0.0752 0.7292
vn 0.1438 -0.0216 0.9894
vn 0.1761 -0.0355 0.9837
vn 0.1801 0.0177 0.9835
vn 0.1382 -0.0102 0.9903
vn 0.8878 0.0393 -0.4586
vn 0.8622 -0.0540 -0.5038
vn 0.8548 0.0242 -0.5184
vn 0.8561 0.2597 0.4469
vn 0.8751 0.1540 0.4587
vn 0.8833 0.2100 0.4192
vn 0.8677 -0.1609 -0.4704
vn 0.8834 -0.1045 -0.4568
vn 0.8855 -0.1560 -0.4376
vn 0.8543 -0.0954 0.5109
vn 0.8764 -0.0624 0.4775
vn 0.8676 -0.0464 0.4952
vn 0.8095 -0.0426 0.5856
vn 0.8167 -0.0686 0.5730
vn 0.8154 -0.0338 0.5780
vn 0.3923 -0.2079 -0.8960
vn 0.3753 -0.1999 -0.9051
vn 0.3899 -0.1952 -0.8999
vn 0.5374 0.0473 -0.8420
vn 0.5453 0.0781 -0.8346
vn 0.5578 0.0643 -0.8275
vn 0.6904 -0.3883 -0.6104
vn 0.6849 -0.3848 -0.6188
vn 0.6949 -0.3794 -0.6108
vn -0.0445 -0.6273 0.7775
vn 0.5490 0.1402 0.8239
vn -0.0745 -0.0029 0.9972
vn -0.0675 -0.0404 0.9969
vn 0.6082 -0.2514 0.7529
vn -0.4352 0.1294 0.8910
vn -0.0451 -0.8180 0.5734
vn 0.5058 -0.0115 -0.8626
vn 0.4932 -0.0122 -0.8698
vn 0.4920 -0.0034 -0.8706
vn 0.5011 -0.0011 -0.8654
vn -0.0407 -0.0457 -0.9981
vn -0.0606 -0.0474 -0.9970
vn -0.0551 -0.0350 -0.9979
vn 0.8501 -0.1783 0.4956
vn 0.8427 -0.1819 0.5066
vn 0.8391 -0.1914 0.5093
vn 0.8461 -0.1962 0.4955
vn 0.4623 0.0262 0.8863
vn 0.4788 0.0217 0.8776
vn 0.4672 0.0706 0.8813
vn 0.6371 -0.0598 0.7685
vn 0.6626 -0.0287 0.7484
vn 0.6326 -0.0528 0.7726
vn 0.3845 -0.1970 -0.9019
vn 0.4017 -0.1966 -0.8944
vn 0.3880 -0.2094 -0.8976
vn 0.2539 0.0800 -0.9639
vn 0.2690 0.0367 -0.9625
vn 0.2249 0.0522 -0.9730
vn -0.1252 -0.5343 0.8359
vn 0.2671 -0.3568 0.8951
vn -0.1668 0.0385 0.9852
vn -0.1790 -0.0014 0.9838
vn 0.2615 0.0522 -0.9638
vn 0.2406 0.0571 -0.9689
vn 0.2421 0.0696 -0.9677
vn 0.9032 0.0341 -0.4278
vn 0.9000 -0.0014 -0.4359
vn 0.8906 0.0371 -0.4533
vn 0.8439 -0.5262 0.1045
vn 0.8434 -0.5204 0.1339
vn 0.8248 -0.5502 0.1303
vn 0.9908 0.0270 0.1325
vn 0.9882 -0.0241 0.1510
vn 0.9970 -0.0163 0.0758
vn 0.9821 0.1852 0.0349
vn 0.9870 0.1588 -0.0248
vn 0.9722 0.2338 -0.0133
vn 0.6067 -0.3583 -0.7096
vn 0.5946 -0.3734 -0.7121
vn 0.5930 -0.3659 -0.7172
vn 0.7853 -0.1743 0.5941
vn 0.7950 -0.1684 0.5828
vn 0.7885 -0.1583 0.5943
vn 0.6620 -0.4273 -0.6157
vn 0.6436 -0.4316 -0.6321
vn 0.6614 -0.4201 -0.6213
vn 0.0649 -0.0580 -0.9962
vn 0.0836 -0.0747 -0.9937
vn 0.0459 -0.0692 -0.9965
vn 0.9565 0.1459 0.2525
vn 0.9497 0.1478 0.2761
vn 0.9614 0.1261 0.2446
vn 0.9487 0.1192 0.2928
vn 0.9527 0.0964 0.2882
vn 0.9605 0.0992 0.2599
vn -0.5161 -0.2728 -0.8119
vn -0.4576 0.1478 -0.8768
vn -0.2597 0.1062 -0.9598
vn -0.4934 -0.2725 -0.8260
vn -0.0682 -0.1695 0.9832
vn -0.0427 -0.6726 0.7388
vn 0.4688 -0.1655 0.8676
vn -0.0788 -0.1022 0.9916
vn -0.1467 0.0804 0.9859
vn -0.1307 0.0400 0.9906
vn -0.1024 -0.5269 0.8438
vn 0.4534 -0.0230 0.8910
vn -0.0483 -0.1412 -0.9888
vn -0.0625 -0.1227 -0.9905
vn -0.0410 0.5722 -0.8191
vn 0.1653 0.5401 -0.8252
vn -0.0265 0.0629 -0.9977
vn -0.0175 0.7092 -0.7048
vn 0.6527 -0.0823 -0.7532
vn -0.0343 0.0412 -0.9986
vn -0.0252 -0.2579 -0.9658
vn -0.0140 0.4441 -0.8959
vn 0.0870 -0.9252 -0.3693
vn -0.1031 0.0757 0.9918
vn -0.0705 -0.5508 0.8316
vn 0.2885 -0.4095 0.8655
vn -0.0947 0.0984 0.9906
vn 0.0747 -0.3958 -0.9153
vn 0.0891 -0.3810 -0.9203
vn 0.0589 0.4112 -0.9096
vn 0.7929 -0.2326 -0.5631
vn -0.1973 -0.2416 -0.9501
vn -0.1412 0.4206 -0.8962
vn 0.4056 -0.6152 -0.6761
vn 0.0396 0.1544 -0.9872
vn 0.0243 0.8061 -0.5913
vn 0.6971 0.0118 -0.7169
vn 0.0240 0.1252 -0.9918
vn -0.7272 0.1143 -0.6768
vn -0.5658 0.6996 -0.4364
vn -0.3904 0.1327 -0.9110
vn 0.0899 -0.4513 -0.8878
vn 0.0750 -0.4175 -0.9056
vn 0.0571 0.3737 -0.9258
vn 0.3615 0.1572 -0.9190
vn -0.1095 0.0976 0.9892
vn -0.0663 -0.4702 0.8801
vn 0.5196 0.1750 0.8363
vn -0.1864 -0.2460 -0.9512
vn -0.1474 0.4001 -0.9045
vn 0.4823 -0.1912 -0.8549
vn -0.1992 -0.2628 -0.9441
vn -0.1775 0.0817 0.9807
vn -0.1600 0.0605 0.9853
vn -0.1251 -0.4981 0.8581
vn 0.1821 0.5489 0.8158
vn -0.2020 0.1373 -0.9697
vn -0.2195 0.1038 -0.9701
vn -0.2261 0.1401 -0.9640
vn -0.9983 0.0123 -0.0571
vn -0.9971 0.0460 -0.0611
vn -0.9947 0.0311 -0.0981
vn -0.8567 -0.1705 0.4867
vn -0.8548 -0.1867 0.4842
vn -0.8497 -0.1754 0.4973
vn -0.8359 0.0580 0.5457
vn -0.8274 0.0252 0.5611
vn -0.8130 0.0433 0.5806
vn -0.8783 0.3626 0.3118
vn -0.8637 0.3651 0.3475
vn -0.8668 0.3862 0.3153
vn -0.7393 -0.2027 -0.6422
vn -0.7460 -0.2122 -0.6312
vn -0.7469 -0.1966 -0.6352
vn -0.5589 -0.2326 -0.7959
vn -0.5395 -0.2750 -0.7958
vn -0.5739 -0.2603 -0.7765
vn -0.0656 0.5735 -0.8166
vn 0.2032 -0.0882 -0.9752
vn 0.1609 -0.6647 -0.7296
vn -0.9814 0.1901 -0.0266
vn -0.9876 0.1566 -0.0130
vn -0.9846 0.1744 0.0081
vn -0.9901 0.0270 0.1378
vn -0.9918 0.0351 0.1231
vn -0.9924 0.0032 0.1227
vn -0.8835 -0.3245 0.3378
vn -0.8857 -0.2991 0.3552
vn -0.8908 -0.3126 0.3297
vn -0.1663 0.1830 -0.9689
vn -0.1320 0.1575 -0.9786
vn -0.1659 0.1579 -0.9734
vn -0.6428 -0.1838 0.7436
vn -0.6263 -0.1929 0.7553
vn -0.6284 -0.1720 0.7586
vn -0.7392 -0.3476 -0.5768
vn -0.7376 -0.3291 -0.5896
vn -0.7250 -0.3590 -0.5878
vn -0.2550 -0.9008 -0.3515
vn -0.2876 -0.2140 -0.9336
vn -0.2741 -0.2297 -0.9339
vn -0.1857 -0.8683 -0.4600
vn -0.3705 0.1505 -0.9166
vn -0.3567 0.1867 -0.9154
vn -0.3528 0.1635 -0.9213
vn -0.3582 -0.4211 -0.8333
vn 0.2611 -0.2972 -0.9184
vn 0.2038 -0.8251 -0.5270
vn -0.5639 -0.0739 -0.8225
vn -0.5564 -0.0695 -0.8280
vn -0.5604 -0.0831 -0.8240
vn -0.5014 -0.2687 0.8225
vn -0.5166 -0.2729 0.8116
vn -0.5240 -0.2716 0.8073
vn -0.5262 -0.3025 0.7948
vn -0.3064 0.3086 -0.9005
vn -0.3250 0.2902 -0.9001
vn -0.3404 0.3232 -0.8830
vn -0.2959 0.3309 -0.8961
vn 0.1301 -0.4370 -0.8900
vn -0.1689 0.6098 -0.7744
vn 0.1641 0.1451 -0.9757
vn -0.1044 -0.4152 -0.9037
vn -0.1256 -0.4273 -0.8953
vn -0.1215 -0.4007 -0.9081
vn -0.7086 -0.1024 0.6981
vn -0.6966 -0.1282 0.7059
vn -0.6897 -0.1077 0.7161
vn -0.5601 -0.2698 -0.7833
vn -0.5764 -0.2436 -0.7800
vn -0.5437 -0.2310 -0.8069
vn -0.5634 -0.3067 -0.7671
vn -0.5724 -0.3135 -0.7577
vn -0.5806 -0.2898 -0.7609
vn -0.6025 -0.1341 0.7868
vn -0.5901 -0.1289 0.7970
vn -0.6043 -0.1166 0.7882
vn -0.9841 0.1768 -0.0140
vn -0.9852 0.1712 0.0130
vn -0.9786 0.2056 0.0119
vn -0.9812 0.1923 -0.0147
vn -0.9556 0.2927 0.0333
vn -0.9455 0.3249 0.0224
vn -0.9501 0.3120 0.0087
vn -0.9887 -0.0200 0.1484
vn -0.9765 -0.0641 0.2058
vn -0.9792 0.0644 0.1926
vn -0.9910 -0.0074 0.1333
vn -0.3705 -0.0307 -0.9283
vn -0.3581 -0.0495 -0.9324
vn -0.3749 -0.0475 -0.9259
vn -0.8176 -0.0458 0.5740
vn -0.8109 -0.0525 0.5828
vn -0.8063 -0.0365 0.5904
vn -0.8637 -0.1469 0.4821
vn -0.8868 -0.1208 0.4461
vn -0.8877 -0.1360 0.4399
vn -0.9017 -0.0711 0.4265
vn -0.8885 -0.0072 0.4589
vn -0.9095 -0.0256 0.4149
vn -0.9910 0.1214 0.0558
vn -0.9948 0.0870 0.0535
vn -0.9894 0.0681 0.1282
vn -0.9330 -0.2001 0.2992
vn -0.9300 -0.2038 0.3058
vn -0.9283 -0.1964 0.3156
vn -0.3982 -0.0468 0.9161
vn -0.4124 -0.0485 0.9097
vn -0.3957 -0.0593 0.9165
vn -0.9881 0.1528 0.0185
vn -0.9826 0.1855 -0.0038
vn -0.9876 0.1565 -0.0110
vn -0.4418 0.0423 0.8961
vn -0.4521 0.0591 0.8900
vn -0.4512 0.0317 0.8919
vn -0.6478 -0.3146 -0.6938
vn -0.6289 -0.3419 -0.6983
vn -0.6487 -0.3309 -0.6853
vn 0.0366 0.6068 0.7940
vn -0.5404 0.0912 0.8364
vn 0.0761 -0.0468 0.9960
vn -0.9713 0.0972 0.2171
vn -0.9764 0.0705 0.2041
vn -0.9717 0.0686 0.2261
vn -0.8983 -0.0367 0.4378
vn -0.8913 -0.0204 0.4529
vn -0.8967 -0.0106 0.4425
vn -0.2316 -0.4320 0.8716
vn 0.1665 0.0724 0.9834
vn 0.1236 0.6241 0.7715
vn -0.6381 -0.0799 0.7658
vn -0.6209 -0.0946 0.7781
vn -0.6317 -0.0667 0.7723
vn -0.7660 -0.1136 0.6327
vn -0.7674 -0.1359 0.6266
vn -0.7577 -0.1243 0.6407
vn -0.7106 -0.1993 -0.6748
vn -0.7217 -0.1960 -0.6639
vn -0.7167 -0.1912 -0.6706
vn -0.9424 0.0609 0.3290
vn -0.9440 0.0863 0.3184
vn -0.9509 0.0610 0.3034
vn -0.9529 0.0483 0.2995
vn -0.9615 0.0602 0.2683
vn -0.9580 0.0400 0.2840
vn -0.0095 -0.1686 -0.9856
vn -0.0232 -0.1611 -0.9867
vn -0.0014 -0.1528 -0.9883
vn -0.1360 0.0919 -0.9864
vn -0.1076 0.1083 -0.9883
vn -0.1290 0.0821 -0.9882
vn -0.2015 -0.1111 -0.9732
vn -0.2177 -0.1021 -0.9706
vn -0.1963 -0.0991 -0.9755
vn -0.5824 -0.3493 -0.7340
vn -0.6012 -0.3335 -0.7261
vn -0.5806 -0.3395 -0.7400
vn -0.9498 -0.1791 0.2567
vn -0.9413 -0.2139 0.2613
vn -0.9367 -0.1990 0.2881
vn -0.9824 -0.1869 -0.0066
vn -0.9876 -0.1566 0.0130
vn -0.9852 -0.1712 -0.0125
vn -0.7487 -0.3678 0.5516
vn -0.7340 -0.3672 0.5714
vn -0.7586 -0.3364 0.5580
vn -0.5329 0.0794 -0.8425
vn -0.5404 0.1099 -0.8342
vn -0.5146 0.1131 -0.8499
vn -0.9531 0.1729 0.2484
vn -0.9460 0.2074 0.2490
vn -0.9561 0.1809 0.2305
vn -0.8644 -0.1829 -0.4684
vn -0.8640 -0.1709 -0.4736
vn -0.8571 -0.1911 -0.4785
vn -0.7174 -0.1192 -0.6863
vn -0.7184 -0.1006 -0.6883
vn -0.7032 -0.0927 -0.7049
vn -0.2357 -0.0550 -0.9703
vn -0.2485 -0.0556 -0.9670
vn -0.2504 -0.0455 -0.9671
vn -0.2396 -0.0445 -0.9699
vn -0.3267 -0.2081 -0.9219
vn -0.3499 -0.2056 -0.9139
vn -0.3313 -0.1841 -0.9254
vn -0.3037 -0.2045 -0.9305
vn -0.3240 -0.2274 -0.9183
vn -0.3319 -0.1996 -0.9220
vn -0.4264 0.1563 -0.8909
vn -0.4021 0.1747 -0.8988
vn -0.4213 0.1474 -0.8949
vn -0.4322 0.1912 -0.8813
vn -0.4302 0.2026 -0.8797
vn -0.4062 0.1880 -0.8942
vn -0.6515 -0.3138 -0.6907
vn -0.1543 0.1899 -0.9696
vn -0.1111 -0.5860 -0.8027
vn -0.4650 0.0278 0.8849
vn -0.4991 0.0058 0.8665
vn -0.4654 -0.0373 0.8843
vn -0.8209 -0.0302 0.5703
vn -0.8261 0.0132 0.5634
vn -0.8456 -0.0147 0.5336
vn -0.5952 -0.3670 -0.7149
vn -0.5860 -0.3749 -0.7184
vn -0.5905 -0.3870 -0.7082
vn -0.5642 -0.0674 0.8229
vn -0.5720 -0.0794 0.8164
vn -0.5427 -0.0743 0.8366
vn -0.7471 -0.0058 0.6646
vn -0.7320 -0.0035 0.6812
vn -0.7470 0.0127 0.6647
vn -0.7274 -0.3202 -0.6069
vn -0.7359 -0.3108 -0.6015
vn -0.7235 -0.2630 -0.6382
vn -0.6465 -0.3337 -0.6860
vn -0.6680 -0.2722 -0.6926
vn -0.6348 -0.3257 -0.7007
vn -0.1173 -0.4333 -0.8936
vn -0.0936 -0.4050 -0.9095
vn -0.0795 -0.4252 -0.9016
vn -0.6170 0.1459 0.7734
vn -0.6045 0.1421 0.7838
vn -0.5896 0.1691 0.7898
vn -0.4540 -0.1339 0.8809
vn 0.1493 -0.0534 0.9874
vn 0.0967 0.5190 0.8493
vn -0.5389 -0.0577 0.8404
vn -0.5401 -0.0716 0.8385
vn -0.5144 -0.0767 0.8541
vn -0.7394 -0.0106 0.6732
vn -0.7495 -0.0231 0.6616
vn -0.7366 -0.0301 0.6757
vn -0.6532 -0.0773 0.7533
vn -0.6543 -0.0638 0.7535
vn -0.6783 -0.0840 0.7300
vn -0.8632 -0.3117 0.3971
vn -0.8657 -0.3172 0.3871
vn -0.8588 -0.3255 0.3955
vn -0.4078 -0.2185 -0.8865
vn -0.4308 -0.2155 -0.8763
vn -0.4157 -0.2000 -0.8872
vn -0.3016 -0.1578 -0.9403
vn -0.3200 -0.1607 -0.9337
vn -0.3082 -0.1402 -0.9409
vn -0.3462 0.2326 -0.9089
vn -0.3579 0.2414 -0.9020
vn -0.3386 0.2411 -0.9095
vn -0.8755 0.4166 -0.2450
vn -0.8517 0.4536 -0.2623
vn -0.8727 0.3995 -0.2807
vn -0.8846 0.1049 0.4543
vn -0.8736 0.1017 0.4759
vn -0.8715 0.1367 0.4710
vn -0.8997 0.1662 0.4037
vn -0.2613 0.1168 0.9582
vn -0.2753 0.0769 0.9583
vn -0.2274 0.0607 0.9719
vn 0.3935 0.0517 -0.9179
vn 0.7267 0.0586 -0.6845
vn 0.7263 0.0164 -0.6872
vn 0.6453 -0.3586 -0.6746
vn -0.1266 0.1443 -0.9814
vn -0.1482 0.1749 -0.9734
vn -0.1126 0.1722 -0.9786
vn -0.4179 -0.2022 0.8857
vn -0.4589 -0.1956 0.8667
vn -0.4436 -0.2154 0.8699
vn -0.6320 -0.1743 0.7551
vn -0.6301 -0.2057 0.7488
vn -0.6151 -0.1642 0.7711
vn -0.1892 -0.3853 -0.9032
vn -0.1776 -0.3747 -0.9100
vn -0.1686 -0.3975 -0.9020
vn -0.3449 -0.2288 -0.9103
vn -0.3272 -0.2399 -0.9140
vn -0.3362 -0.2515 -0.9076
vn -0.7438 -0.0101 0.6683
vn -0.7313 0.0093 0.6819
vn -0.7457 0.0148 0.6661
vn -0.6767 -0.0561 0.7341
vn -0.6904 -0.0618 0.7208
vn -0.6862 -0.0688 0.7241
vn -0.9305 0.1980 0.3082
vn -0.8950 0.2687 0.3561
vn -0.9040 0.2765 0.3261
vn -0.9238 0.1411 0.3559
vn -0.9167 0.1453 0.3721
vn -0.9178 0.1722 0.3577
vn -0.8698 -0.1947 -0.4534
vn -0.8738 -0.1794 -0.4521
vn -0.8615 -0.1910 -0.4704
vn -0.7172 -0.1551 -0.6794
vn -0.7147 -0.1704 -0.6784
vn -0.7221 -0.1605 -0.6729
vn -0.9544 0.0381 0.2961
vn -0.9541 0.0602 0.2933
vn -0.9630 0.0499 0.2649
vn -0.8057 0.4693 0.3614
vn -0.8029 0.4472 0.3942
vn -0.7747 0.4996 0.3876
vn -0.6963 -0.2916 -0.6559
vn -0.6909 -0.3114 -0.6525
vn -0.7047 -0.2931 -0.6461
vn -0.6760 -0.2628 -0.6885
vn -0.6854 -0.2617 -0.6795
vn -0.6821 -0.2502 -0.6871
vn 0.1993 0.3554 -0.9132
vn 0.2068 0.3898 -0.8974
vn 0.2278 0.3663 -0.9022
vn -0.1001 0.1198 -0.9877
vn -0.1056 0.0914 -0.9902
vn -0.1297 0.1056 -0.9859
vn -0.8540 -0.0990 0.5108
vn -0.8494 -0.0860 0.5206
vn -0.8582 -0.0823 0.5066
vn -0.6745 0.0201 0.7380
vn -0.6699 -0.0402 0.7414
vn -0.6538 0.0032 0.7566
vn -0.6309 -0.0147 0.7758
vn -0.6617 -0.0448 0.7484
vn -0.6293 -0.0297 0.7766
vn -0.0080 0.0766 0.9970
vn 0.0030 0.0530 0.9986
vn 0.0160 0.0739 0.9971
vn -0.2166 0.1235 -0.9684
vn -0.2002 0.0994 -0.9747
vn -0.2172 0.0951 -0.9715
vn -0.3319 0.0066 -0.9433
vn -0.3323 -0.0068 -0.9431
vn -0.3530 0.0145 -0.9355
vn -0.0144 -0.0928 -0.9956
vn -0.0325 -0.0850 -0.9959
vn -0.0216 -0.0645 -0.9977
vn -0.8663 -0.4912 0.0911
vn -0.8726 -0.4827 0.0752
vn -0.8590 -0.5073 0.0689
vn -0.8106 0.2416 -0.5334
vn -0.8032 0.2535 -0.5391
vn -0.8023 0.2411 -0.5461
vn -0.9816 -0.0716 0.1772
vn -0.9773 -0.0722 0.1990
vn -0.9797 -0.0583 0.1919
vn -0.9072 0.2690 -0.3235
vn -0.9183 0.2553 -0.3026
vn -0.9178 0.2732 -0.2882
vn -0.9010 0.3024 -0.3111
vn -0.8338 0.1903 0.5182
vn -0.8056 0.1930 0.5601
vn -0.8313 0.2086 0.5152
vn -0.2083 0.1342 -0.9688
vn -0.2049 0.1137 -0.9721
vn -0.2351 0.1268 -0.9637
vn -0.0497 -0.2353 -0.9706
vn -0.0726 -0.2493 -0.9657
vn -0.0628 -0.2295 -0.9713
vn -0.9780 -0.0789 0.1932
vn -0.9841 -0.0640 0.1656
vn -0.9796 -0.0875 0.1809
vn -0.9761 -0.0100 0.2171
vn -0.9786 0.0165 0.2052
vn -0.9817 -0.0160 0.1897
vn 0.4544 -0.3282 -0.8281
vn 0.5961 0.1064 -0.7958
vn 0.6193 0.1059 -0.7780
vn 0.5166 -0.4377 -0.7359
vn -0.2638 0.1665 -0.9501
vn -0.2693 0.1541 -0.9506
vn -0.2817 0.1756 -0.9433
vn -0.3183 0.1702 -0.9326
vn -0.3123 0.1813 -0.9325
vn -0.3061 0.1745 -0.9359
vn -0.8962 -0.0292 0.4426
vn -0.8902 -0.0233 0.4549
vn -0.8918 -0.0047 0.4524
vn -0.8980 -0.0149 0.4397
vn -0.8551 -0.4026 0.3266
vn -0.8539 -0.4102 0.3203
vn -0.8402 -0.4183 0.3451
vn -0.9479 0.2046 0.2443
vn -0.9526 0.1912 0.2367
vn -0.9476 0.1859 0.2597
vn -0.6234 0.3479 0.7002
vn -0.6332 0.3585 0.6860
vn -0.6366 0.3324 0.6958
vn -0.1558 -0.4593 -0.8745
vn -0.1739 -0.4394 -0.8813
vn -0.1524 -0.4428 -0.8836
vn -0.3531 -0.1515 -0.9232
vn -0.3502 -0.1384 -0.9264
vn -0.3385 -0.1495 -0.9290
vn -0.9125 0.3435 0.2224
vn -0.9196 0.3625 0.1512
vn -0.9315 0.3092 0.1913
vn -0.0982 -0.3892 -0.9159
vn -0.1259 -0.4030 -0.9065
vn -0.1185 -0.3853 -0.9151
vn -0.0054 -0.0953 -0.9954
vn 0.0059 -0.0843 -0.9964
vn 0.0086 -0.1094 -0.9940
vn -0.4198 -0.2360 -0.8764
vn -0.4372 -0.2595 -0.8611
vn -0.4528 -0.2337 -0.8605
vn -0.2977 0.1890 -0.9358
vn -0.2997 0.1774 -0.9374
vn -0.3067 0.1832 -0.9340
vn -0.3419 -0.3400 -0.8761
vn -0.3274 -0.3505 -0.8775
vn -0.3497 -0.3642 -0.8632
vn -0.0887 -0.4360 -0.8956
vn -0.1140 -0.4185 -0.9010
vn -0.0841 -0.4132 -0.9067
vn -0.2122 -0.1071 -0.9713
vn -0.2074 -0.0855 -0.9745
vn -0.1929 -0.0968 -0.9764
vn -0.3098 -0.1299 0.9419
vn -0.3481 -0.0902 0.9331
vn -0.3424 -0.1613 0.9256
vn -0.2809 0.2703 -0.9209
vn -0.2638 0.2913 -0.9196
vn -0.2582 0.2746 -0.9262
vn -0.8587 -0.5085 0.0643
vn -0.8759 -0.4687 0.1142
vn -0.8675 -0.4941 0.0576
vn -0.8458 0.1182 0.5202
vn -0.8466 0.1506 0.5105
vn -0.8642 0.1278 0.4867
vn -0.9666 0.0269 0.2550
vn -0.9674 0.0558 0.2472
vn -0.9725 0.0425 0.2290
vn -0.7132 -0.2954 -0.6357
vn -0.7251 -0.3102 -0.6148
vn -0.7286 -0.2917 -0.6197
vn -0.3528 0.0147 0.9356
vn -0.3506 -0.0195 0.9363
vn -0.3378 0.0060 0.9412
vn -0.1249 0.0627 0.9902
vn -0.1575 0.0487 0.9863
vn -0.1116 0.0317 0.9932
vn -0.4781 -0.2871 0.8301
vn -0.4251 -0.3159 0.8482
vn -0.4351 -0.2851 0.8541
vn -0.5106 -0.2968 -0.8069
vn -0.5005 -0.2505 -0.8287
vn -0.4720 -0.2807 -0.8357
vn -0.0413 0.2203 -0.9746
vn -0.0582 0.2230 -0.9731
vn -0.0390 0.2511 -0.9672
vn -0.0345 0.2265 -0.9734
vn -0.0492 0.0729 -0.9961
vn -0.0285 0.0432 -0.9987
vn -0.0447 0.0407 -0.9982
vn -0.5799 -0.2973 -0.7585
vn -0.5726 -0.2913 -0.7663
vn -0.5689 -0.3013 -0.7652
vn -0.9277 0.1632 -0.3358
vn -0.9248 0.1751 -0.3378
vn -0.9201 0.1644 -0.3556
vn -0.9349 0.1143 0.3360
vn -0.9222 0.1378 0.3613
vn -0.9364 0.1364 0.3232
vn -0.9015 -0.0336 -0.4314
vn -0.8924 -0.0112 -0.4512
vn -0.8881 -0.0424 -0.4577
vn 0.6774 -0.4082 -0.6119
vn 0.4668 0.0700 -0.8816
vn 0.7594 0.0299 -0.6499
vn 0.6999 -0.3568 -0.6187
vn 0.4795 0.3289 -0.8136
vn 0.7550 -0.0155 -0.6555
vn -0.9532 0.1382 0.2689
vn -0.9475 0.1314 0.2914
vn -0.9465 0.1572 0.2819
vn -0.9692 0.0459 0.2418
vn -0.9686 0.0228 0.2475
vn -0.9641 0.0378 0.2629
vn -0.2525 0.0188 0.9674
vn -0.2977 0.0093 0.9546
vn -0.2830 -0.0240 0.9588
vn 0.0078 0.1049 0.9944
vn -0.0035 0.0794 0.9968
vn 0.0203 0.0700 0.9973
vn -0.7207 -0.0552 0.6910
vn -0.7278 -0.0721 0.6820
vn -0.7273 -0.0905 0.6803
vn -0.7143 -0.0825 0.6950
vn -0.4222 -0.2104 0.8818
vn -0.4207 -0.2262 0.8785
vn -0.4120 -0.2155 0.8854
vn -0.6705 -0.1163 0.7328
vn -0.6757 -0.0905 0.7316
vn -0.6850 -0.1124 0.7198
vn -0.1855 -0.0211 0.9824
vn -0.1533 -0.0309 0.9877
vn -0.1434 -0.0081 0.9896
vn -0.1771 0.0182 0.9840
vn -0.8705 0.0066 -0.4921
vn -0.8404 0.0469 -0.5399
vn -0.8471 -0.0548 -0.5285
vn -0.8559 0.2230 0.4666
vn -0.8806 0.2370 0.4103
vn -0.8684 0.1445 0.4743
vn -0.8519 -0.1208 -0.5096
vn -0.8721 -0.1691 -0.4592
vn -0.8702 -0.1178 -0.4784
vn -0.8562 -0.0920 0.5084
vn -0.8599 -0.0346 0.5093
vn -0.8706 -0.0512 0.4893
vn -0.8144 -0.0597 0.5773
vn -0.8224 -0.0446 0.5671
vn -0.8213 -0.0789 0.5650
vn -0.3881 -0.2128 -0.8967
vn -0.3900 -0.2026 -0.8982
vn -0.3715 -0.2037 -0.9058
vn -0.5410 0.0363 -0.8402
vn -0.5570 0.0573 -0.8285
vn -0.5458 0.0717 -0.8348
vn -0.6837 -0.4003 -0.6102
vn -0.6906 -0.3921 -0.6077
vn -0.6802 -0.3959 -0.6169
vn -0.2104 0.5600 0.8013
vn 0.0526 -0.0398 0.9978
vn 0.0665 -0.0011 0.9978
vn 0.0398 0.6114 0.7903
vn 0.0440 0.2634 0.9637
vn -0.3328 -0.6891 0.6437
vn 0.0705 -0.3350 0.9396
vn -0.4933 -0.0204 -0.8696
vn -0.5009 -0.0173 -0.8653
vn -0.5006 -0.0082 -0.8656
vn -0.4899 -0.0141 -0.8717
vn 0.0460 -0.0438 -0.9980
vn 0.0606 -0.0362 -0.9975
vn 0.0701 -0.0518 -0.9962
vn -0.8428 -0.1950 0.5016
vn -0.8478 -0.2036 0.4897
vn -0.8428 -0.2194 0.4915
vn -0.8377 -0.2123 0.5031
vn -0.4585 0.0182 0.8885
vn -0.4653 0.0626 0.8829
vn -0.4756 0.0167 0.8795
vn -0.6358 -0.0704 0.7687
vn -0.6340 -0.0594 0.7711
vn -0.6632 -0.0430 0.7472
vn -0.3816 -0.2010 -0.9022
vn -0.3840 -0.2141 -0.8982
vn -0.3983 -0.2078 -0.8934
vn -0.2513 0.0777 -0.9648
vn -0.2250 0.0456 -0.9733
vn -0.2527 0.0219 -0.9673
vn -0.3901 0.0073 0.9208
vn 0.1723 -0.0179 0.9849
vn 0.1711 0.0367 0.9846
vn 0.1153 0.5532 0.8250
vn -0.2626 0.0537 -0.9634
vn -0.2411 0.0667 -0.9682
vn -0.2396 0.0552 -0.9693
vn -0.9033 0.0211 -0.4284
vn -0.8904 0.0270 -0.4543
vn -0.9001 -0.0124 -0.4354
vn -0.8289 -0.5484 0.1103
vn -0.8103 -0.5701 0.1357
vn -0.8279 -0.5421 0.1442
vn -0.9918 0.0158 0.1270
vn -0.9973 -0.0186 0.0713
vn -0.9893 -0.0475 0.1376
vn -0.9834 0.1789 0.0307
vn -0.9740 0.2266 0.0056
vn -0.9872 0.1554 -0.0361
vn -0.6010 -0.3716 -0.7076
vn -0.5869 -0.3727 -0.7188
vn -0.5897 -0.3804 -0.7124
vn -0.7820 -0.1877 0.5943
vn -0.7855 -0.1719 0.5945
vn -0.7930 -0.1766 0.5831
vn -0.6499 -0.4477 -0.6141
vn -0.6505 -0.4399 -0.6191
vn -0.6321 -0.4499 -0.6309
vn -0.0662 -0.0599 -0.9960
vn -0.0429 -0.0679 -0.9968
vn -0.0798 -0.0778 -0.9938
vn -0.9571 0.1362 0.2557
vn -0.9637 0.1110 0.2427
vn -0.9526 0.1340 0.2733
vn -0.9515 0.1075 0.2884
vn -0.9628 0.0867 0.2558
vn -0.9553 0.0842 0.2834
vn 0.5241 -0.2608 -0.8107
vn 0.4854 -0.2556 -0.8361
vn 0.4523 -0.6438 -0.6173
vn 0.2371 0.0271 -0.9711
vn 0.0672 -0.1641 0.9842
vn 0.0910 -0.1124 0.9895
vn 0.0406 0.3962 0.9173
vn -0.3802 0.2461 0.8916
vn 0.1211 0.0859 0.9889
vn 0.0855 0.6157 0.7833
vn -0.2394 0.5302 0.8133
vn 0.1074 0.0418 0.9933
vn 0.0530 -0.1407 -0.9886
vn 0.0434 -0.7687 -0.6381
vn -0.6256 -0.2228 -0.7477
vn 0.0687 -0.1263 -0.9896
vn 0.0331 0.0548 -0.9979
vn 0.0308 0.0336 -0.9990
vn 0.0183 -0.6418 -0.7667
vn -0.6694 0.0281 -0.7423
vn 0.0341 -0.2618 -0.9645
vn 0.0157 -0.9303 -0.3666
vn -0.6520 -0.2981 -0.6972
vn 0.0918 0.0764 0.9928
vn 0.0850 0.0982 0.9915
vn 0.0604 0.6701 0.7398
vn -0.5395 0.1979 0.8184
vn -0.0721 -0.4007 -0.9134
vn -0.0545 -0.9393 -0.3387
vn -0.4949 -0.7885 -0.3651
vn -0.0836 -0.3820 -0.9204
vn 0.2038 -0.2438 -0.9482
vn 0.1365 -0.8469 -0.5139
vn -0.4806 -0.1953 -0.8549
vn -0.0376 0.1536 -0.9874
vn -0.0291 0.1188 -0.9925
vn -0.0266 -0.5668 -0.8235
vn -0.2617 -0.5820 -0.7699
vn 0.7260 0.1209 -0.6770
vn 0.6583 -0.2476 -0.7108
vn 0.2659 0.5991 -0.7552
vn -0.0861 -0.4523 -0.8877
vn -0.0626 -0.8902 -0.4513
vn -0.7890 -0.2707 -0.5515
vn -0.0664 -0.4217 -0.9043
vn 0.1061 0.0889 0.9904
vn 0.0582 0.6614 0.7478
vn -0.3319 -0.2968 0.8954
vn 0.1906 -0.2434 -0.9510
vn 0.1969 -0.2672 -0.9433
vn 0.1490 -0.8076 -0.5706
vn -0.2447 -0.6733 -0.6977
vn 0.1543 0.0777 0.9850
vn 0.1033 0.6397 0.7616
vn -0.0642 0.5948 0.8013
vn 0.1345 0.0618 0.9890
vn -0.6646 -0.0654 0.7443
vn -0.6543 -0.1021 0.7493
vn -0.6558 -0.0788 0.7508
vn -0.6514 -0.0695 0.7555
vn -0.4464 0.0706 0.8921
vn -0.4066 0.0605 0.9116
vn -0.4191 0.0776 0.9046
vn -0.4281 0.0916 0.8991
vn -0.4962 -0.2759 0.8232
vn -0.4861 -0.2981 0.8215
vn -0.4608 -0.2979 0.8360
vn -0.6161 0.1874 -0.7650
vn -0.6136 0.1719 -0.7707
vn -0.6284 0.1789 -0.7571
vn -0.9937 -0.0384 0.1052
vn -0.9931 -0.0631 0.0988
vn -0.9892 -0.0660 0.1309
vn 0.0697 -0.1558 -0.9853
vn 0.3742 0.3066 -0.8752
vn 0.3764 0.2674 -0.8870
vn 0.5990 -0.2569 -0.7584
vn 0.3073 -0.3152 -0.8979
vn -0.8577 0.3319 -0.3926
vn -0.8474 0.3575 -0.3927
vn -0.8513 0.3249 -0.4120
vn -0.8584 0.3267 -0.3955
vn -0.9821 -0.0549 0.1804
vn -0.9812 -0.0743 0.1781
vn -0.9794 -0.0701 0.1891
vn -0.9789 -0.0618 0.1948
vn -0.9778 0.1781 -0.1107
vn -0.9821 0.1463 -0.1189
vn -0.9853 0.1461 -0.0883
vn -0.9798 0.1914 -0.0582
vn -0.9794 0.1848 -0.0812
vn -0.9834 0.1694 -0.0655
vn -0.9828 0.1771 -0.0515
vn -0.0515 -0.1346 0.9896
vn -0.0766 -0.1610 0.9840
vn -0.0345 -0.1677 0.9852
vn 0.6637 -0.0589 0.7457
vn 0.6518 -0.0651 0.7556
vn 0.6676 -0.0943 0.7386
vn 0.6636 -0.0730 0.7445
vn 0.4479 0.0752 0.8909
vn 0.4246 0.0914 0.9008
vn 0.4097 0.0577 0.9104
vn 0.4358 0.0601 0.8980
vn 0.4960 -0.2662 0.8265
vn 0.4694 -0.2890 0.8343
vn 0.4960 -0.2996 0.8150
vn 0.6163 0.1963 -0.7626
vn 0.6272 0.1859 -0.7563
vn 0.6147 0.1841 -0.7670
vn 0.9519 -0.1649 0.2583
vn 0.9383 -0.1914 0.2881
vn 0.9409 -0.1984 0.2746
vn 0.9469 -0.2082 0.2450
vn 0.9933 -0.0257 0.1129
vn 0.9905 -0.0531 0.1271
vn 0.9944 -0.0552 0.0907
vn -0.3125 0.7274 -0.6109
vn -0.0159 0.7129 -0.7010
vn -0.3677 0.2618 -0.8923
vn -0.3821 0.2427 -0.8917
vn -0.3830 0.2991 -0.8740
vn 0.8548 0.3364 -0.3952
vn 0.8548 0.3299 -0.4006
vn 0.8445 0.3295 -0.4222
vn 0.8434 0.3680 -0.3915
vn 0.9825 -0.0440 0.1811
vn 0.9796 -0.0475 0.1953
vn 0.9781 -0.0641 0.1979
vn 0.9812 -0.0612 0.1832
vn 0.9758 0.1893 -0.1098
vn 0.9825 0.1610 -0.0937
vn 0.9808 0.1534 -0.1200
vn 0.9777 0.2032 -0.0528
vn 0.9817 0.1843 -0.0473
vn 0.9822 0.1757 -0.0671
vn 0.9776 0.1955 -0.0781
vn 0.0443 -0.1330 0.9901
vn 0.0460 -0.1575 0.9864
vn 0.0760 -0.1593 0.9843
vn -0.5298 0.8214 -0.2110
vn 0.0003 1.0000 0.0099
vn 0.0037 1.0000 0.0089
vn 0.0012 1.0000 0.0097
vn -0.0033 0.9999 0.0154
vn -0.0015 1.0000 0.0067
vn -0.0004 1.0000 0.0067
vn 0.0014 1.0000 0.0063
vn 0.0048 0.9999 0.0106
vn 0.0043 1.0000 0.0031
vn 0.0122 0.9999 0.0003
vn 0.0125 0.9999 -0.0025
vn 0.0123 0.9999 -0.0047
vn 0.0124 0.9999 -0.0040
vn 0.0153 0.9999 -0.0043
vn 0.0150 0.9999 -0.0061
vn 0.0154 0.9999 -0.0031
vn 0.0094 1.0000 0.0018
vn 0.0135 0.9999 -0.0036
vn 0.0132 0.9999 -0.0057
vn 0.0126 0.9999 -0.0075
vn 0.0006 0.9997 -0.0225
vn -0.0073 0.9994 -0.0335
vn -0.0091 0.9994 -0.0331
vn -0.0155 0.9994 -0.0307
vn 0.0091 0.9999 -0.0141
vn 0.0038 0.9999 -0.0093
vn 0.0153 0.9997 -0.0168
vn 0.0119 0.9997 -0.0200
vn 0.5228 0.8481 0.0862
vn 0.0117 0.9997 -0.0201
vn -0.0009 0.9999 -0.0110
vn -0.0055 0.9998 -0.0175
vn -0.0325 0.9994 -0.0086
vn -0.0327 0.9994 -0.0073
vn -0.0330 0.9995 -0.0004
vn -0.0214 0.9998 0.0010
vn -0.0140 0.9998 -0.0104
vn -0.0150 0.9999 -0.0085
vn -0.0157 0.9999 -0.0067
vn -0.0109 0.9999 -0.0087
vn -0.0101 0.9999 -0.0098
vn -0.0102 0.9999 -0.0097
vn -0.0177 0.9998 -0.0060
vn -0.0167 0.9998 -0.0091
vn -0.0176 0.9998 -0.0066
vn -0.0146 0.9999 0.0017
vn -0.0148 0.9999 0.0010
vn -0.0144 0.9999 0.0025
vn -0.0129 0.9999 0.0053
vn -0.0128 0.9999 0.0056
vn -0.0091 1.0000 -0.0009
vn -0.0148 0.9999 0.0026
vn -0.0084 1.0000 0.0033
vn -0.0069 1.0000 0.0048
vn -0.0066 1.0000 0.0050
vn -0.0085 0.9999 0.0140
vn 0.0014 1.0000 0.0097
vn -0.0008 1.0000 0.0100
vn 0.0010 1.0000 0.0097
vn 0.0046 1.0000 0.0084
vn -0.5614 0.8226 -0.0903
vn -0.9012 -0.3603 0.2407
vn -0.9048 -0.3543 0.2360
vn -0.9042 -0.3585 0.2320
vn -0.8990 -0.3693 0.2356
vn -0.6767 -0.1055 0.7286
vn -0.6685 -0.0763 0.7398
vn -0.6911 -0.0714 0.7193
vn -0.6994 -0.1014 0.7075
vn -0.4352 -0.3926 0.8102
vn 0.1290 -0.4258 0.8956
vn 0.1125 -0.3882 0.9147
vn 0.4646 0.0852 0.8814
vn 0.0792 0.1993 0.9767
vn -0.3157 -0.0983 -0.9438
vn -0.3451 -0.1000 -0.9332
vn -0.3468 -0.0776 -0.9347
vn -0.3210 -0.0759 -0.9440
vn -0.1517 -0.1866 0.9707
vn -0.1494 -0.1655 0.9748
vn -0.1653 -0.1773 0.9702
vn -0.1852 -0.4306 0.8834
vn -0.1879 -0.4219 0.8869
vn -0.2218 -0.3970 0.8906
vn -0.2033 -0.4701 0.8589
vn -0.9867 -0.1252 0.1033
vn -0.9943 -0.0822 0.0675
vn -0.9948 -0.0867 0.0530
vn -0.9943 -0.0925 0.0531
vn -0.5967 -0.0915 -0.7972
vn -0.5833 -0.0869 -0.8076
vn -0.5785 -0.0814 -0.8116
vn -0.5756 -0.0936 -0.8124
vn -0.8426 0.0273 -0.5379
vn -0.8475 0.0468 -0.5287
vn -0.8354 0.0929 -0.5417
vn -0.8056 0.0298 -0.5917
vn -0.7558 -0.1723 0.6317
vn -0.7585 -0.1498 0.6342
vn -0.7689 -0.1595 0.6191
vn 0.9084 -0.3413 0.2415
vn 0.9071 -0.3486 0.2360
vn 0.9130 -0.3354 0.2323
vn 0.9097 -0.3387 0.2401
vn 0.6737 -0.0987 0.7323
vn 0.6973 -0.0930 0.7107
vn 0.6838 -0.0622 0.7270
vn 0.6726 -0.0809 0.7355
vn -0.0810 -0.8192 0.5678
vn 0.3037 -0.7247 0.6186
vn -0.0898 -0.3873 0.9175
vn -0.1179 -0.3564 0.9268
vn -0.1393 -0.4109 0.9010
vn 0.3180 -0.0904 -0.9438
vn 0.3340 -0.0671 -0.9402
vn 0.3507 -0.0803 -0.9330
vn 0.3389 -0.1028 -0.9352
vn 0.1524 -0.1802 0.9717
vn 0.1732 -0.1749 0.9692
vn 0.1582 -0.1671 0.9732
vn 0.1916 -0.4217 0.8863
vn 0.1991 -0.4675 0.8613
vn 0.2095 -0.4216 0.8823
vn 0.2036 -0.4203 0.8843
vn 0.9893 -0.1023 0.1036
vn 0.9951 -0.0888 0.0426
vn 0.9962 -0.0804 0.0348
vn 0.9983 -0.0277 0.0507
vn 0.5972 -0.0903 -0.7970
vn 0.5778 -0.0870 -0.8115
vn 0.5819 -0.0803 -0.8093
vn 0.5949 -0.0680 -0.8009
vn 0.8415 0.0400 -0.5388
vn 0.8094 0.0170 -0.5870
vn 0.8297 0.0617 -0.5548
vn 0.8405 0.0529 -0.5393
vn 0.7538 -0.1600 0.6373
vn 0.7755 -0.1393 0.6157
vn 0.7543 -0.1417 0.6410
vn -0.5673 -0.8227 0.0358
vn -0.0001 -1.0000 -0.0081
vn 0.0022 -1.0000 -0.0095
vn 0.0031 -0.9999 -0.0098
vn 0.0163 -0.9998 -0.0100
vn 0.0111 -0.9999 -0.0037
vn 0.0274 -0.9995 -0.0159
vn 0.0284 -0.9995 -0.0147
vn 0.0304 -0.9995 -0.0119
vn 0.0313 -0.9995 -0.0104
vn 0.0215 -0.9998 -0.0035
vn 0.0221 -0.9998 -0.0015
vn 0.0167 -0.9999 0.0028
vn 0.0166 -0.9999 0.0035
vn 0.0163 -0.9998 -0.0079
vn 0.0135 -0.9999 -0.0097
vn 0.0340 -0.9994 0.0076
vn 0.0283 -0.9996 0.0058
vn 0.0266 -0.9996 0.0111
vn 0.0102 -0.9999 0.0033
vn 0.0101 -0.9999 0.0035
vn 0.0103 -0.9997 0.0217
vn 0.0059 -0.9997 0.0218
vn 0.6887 -0.7249 -0.0102
vn -0.0002 -0.9998 0.0203
vn -0.0046 -0.9998 0.0177
vn 0.0076 -1.0000 0.0052
vn -0.0017 -0.9998 0.0211
vn -0.0049 -0.9998 0.0192
vn -0.0191 -0.9998 -0.0015
vn -0.0036 -0.9999 0.0097
vn -0.0042 -1.0000 0.0087
vn 0.0007 -1.0000 -0.0036
vn 0.0008 -1.0000 -0.0038
vn -0.0039 -1.0000 -0.0074
vn -0.0025 -1.0000 -0.0089
vn -0.0078 -0.9998 -0.0197
vn -0.0064 -0.9998 -0.0207
vn -0.0039 -0.9998 -0.0220
vn -0.0018 -0.9997 -0.0229
vn 0.0041 -1.0000 -0.0038
vn 0.0078 -0.9999 -0.0128
vn -0.0011 -1.0000 -0.0073
vn 0.0012 -1.0000 -0.0089
vn 0.0020 -1.0000 -0.0094
usemtl sungaya_inexpectata_31mg
s off
f 26/1/1 5/2/2 62/3/3
f 93/4/4 50/5/5 58/6/6
f 47/7/7 14/8/8 77/9/9
f 76/10/10 71/11/11 1/12/12
f 33/13/13 83/14/14 50/15/15
f 49/16/16 65/17/17 59/18/18
f 48/19/19 44/20/20 34/21/21
f 219/22/22 96/23/23 57/24/24
f 50/25/25 93/26/26 51/27/27
f 51/28/28 75/29/29 32/30/30
f 14/31/31 47/32/32 55/33/33
f 26/1/34 56/34/35 63/35/36
f 7/36/37 29/37/38 6/38/39
f 49/39/40 58/40/41 44/41/42
f 104/42/43 109/43/44 61/44/45 62/3/46
f 62/3/47 56/34/48 26/1/49
f 96/23/50 95/45/51 57/24/52
f 286/46/53 66/47/54 298/48/55
f 293/49/56 297/50/57 78/51/58 8/52/59
f 231/53/60 243/54/61 16/55/62 25/56/63
f 280/57/64 225/58/65 99/59/66
f 12/60/67 13/61/68 15/62/69
f 70/63/70 29/64/71 7/65/72
f 58/66/73 34/67/74 44/68/75
f 10/69/76 68/70/77 35/71/78
f 64/72/79 7/73/80 6/38/81
f 249/74/82 227/75/83 51/76/84 52/77/85
f 80/78/86 41/79/87 87/80/88
f 221/81/89 236/82/90 81/83/91 86/84/92
f 59/85/93 89/86/94 82/87/95
f 6/38/96 77/9/97 4/88/98
f 85/89/99 77/90/100 14/91/101
f 22/92/102 77/90/103 85/89/104
f 87/93/105 86/94/106 81/95/107
f 303/96/108 288/97/109 45/98/110
f 64/72/111 38/99/112 73/100/113
f 52/101/114 51/102/115 93/103/116
f 64/104/117 73/105/118 94/106/119
f 60/107/120 24/108/121 48/109/122
f 110/110/123 20/111/124 217/112/125
f 33/113/126 32/114/127 79/115/128
f 226/116/129 1/117/130 230/118/131
f 218/119/132 206/120/133 37/121/134
f 64/72/135 6/38/136 36/122/137
f 29/37/138 77/9/139 6/38/140
f 19/123/141 11/124/142 65/17/143
f 79/125/144 31/126/145 33/127/146
f 87/128/147 41/129/148 36/130/149
f 53/131/150 91/132/151 57/24/152
f 56/34/153 61/44/154 63/35/155
f 89/86/156 59/85/157 90/133/158
f 10/69/159 66/47/160 68/70/161
f 235/134/162 237/135/163 41/136/164 80/137/165
f 14/138/166 55/139/167 48/140/168
f 74/141/169 52/142/170 27/143/171
f 51/144/172 32/145/173 50/146/174
f 19/123/175 44/68/176 11/124/177
f 44/68/178 48/109/179 11/124/180
f 246/147/181 229/148/182 46/149/183 54/150/184
f 35/71/185 68/70/186 91/151/187
f 68/70/188 2/152/189 91/151/190
f 46/153/191 84/154/192 74/155/193
f 46/153/194 74/155/195 27/156/196
f 208/157/197 101/158/198 5/159/199
f 78/160/200 3/161/201 18/162/202
f 71/163/203 76/164/204 36/165/205
f 35/71/206 72/166/207 11/124/208
f 290/167/209 293/49/210 8/52/211
f 42/168/212 9/169/213 70/170/214
f 24/108/215 69/171/216 66/47/217
f 24/108/218 60/107/219 69/171/220
f 17/172/221 15/173/222 23/174/223
f 38/99/224 76/10/225 1/12/226
f 103/175/227 212/176/228 18/177/229
f 64/178/230 76/10/231 38/99/232
f 21/179/233 29/180/234 9/181/235
f 226/182/236 248/183/237 1/184/238
f 302/185/239 47/7/240 283/186/241
f 65/17/242 72/166/243 92/187/244
f 27/188/245 12/189/246 15/173/247
f 39/190/248 27/188/249 15/173/250
f 58/191/251 50/192/252 40/193/253
f 251/194/254 221/81/255 86/84/256 75/195/257
f 18/196/258 3/197/259 67/198/260
f 214/199/261 107/200/262 25/201/263 17/202/264
f 16/203/265 15/204/266 17/202/267
f 242/205/268 241/206/269 88/207/270
f 64/208/271 36/209/272 76/210/273
f 53/211/274 92/187/275 35/71/276
f 91/151/277 53/211/278 35/71/279
f 70/212/280 9/181/281 29/180/282
f 7/213/283 64/214/284 42/215/285
f 86/216/286 87/217/287 75/218/288
f 1/12/289 71/11/290 43/219/291
f 49/16/292 44/68/293 19/123/294
f 19/123/295 65/17/296 49/16/297
f 87/217/298 36/220/299 31/126/300
f 83/221/301 22/222/302 50/15/303
f 49/39/304 59/85/305 82/87/306
f 24/108/307 66/47/308 10/69/309
f 63/223/310 90/224/311 26/225/312
f 92/226/313 26/227/314 90/228/315
f 29/180/316 21/179/317 47/7/318
f 78/51/319 9/181/320 3/197/321
f 9/181/322 42/229/323 3/197/324
f 37/230/325 94/231/326 73/232/327
f 92/187/328 90/233/329 59/234/330
f 65/17/331 92/187/332 59/234/333
f 91/235/334 2/236/335 57/24/336
f 60/237/337 55/238/338 45/239/339
f 240/240/340 244/241/341 84/154/342
f 247/242/343 41/243/344 237/244/345
f 224/245/346 249/246/347 52/247/348 74/248/349
f 83/249/350 77/9/351 22/250/352
f 53/251/353 5/2/354 26/1/355
f 53/252/356 57/253/357 5/254/358
f 41/255/359 43/256/360 71/257/361
f 41/258/362 71/259/363 36/260/364
f 207/261/365 98/262/366 25/201/367 30/263/368
f 39/190/369 16/55/370 54/150/371
f 54/150/372 46/149/373 39/190/374
f 223/264/375 230/265/376 1/12/377 43/219/378
f 45/266/379 55/267/380 47/32/381
f 77/9/382 33/127/383 4/88/384
f 83/249/385 33/127/386 77/9/387
f 12/268/388 89/269/389 13/270/390
f 233/271/391 246/147/392 54/150/393
f 40/272/394 50/146/395 22/250/396
f 13/273/397 61/274/398 23/275/399
f 61/276/400 13/270/401 90/224/402
f 294/277/403 296/278/404 68/70/405
f 27/188/406 39/190/407 46/149/408
f 35/279/409 92/280/410 72/281/411
f 15/282/412 13/273/413 23/283/414
f 13/284/415 89/86/416 90/133/417
f 78/285/418 18/286/419 28/287/420
f 16/288/421 39/289/422 15/290/423
f 60/291/424 45/292/425 69/293/426
f 81/294/427 80/295/428 87/217/429
f 75/296/430 87/297/431 32/298/432
f 58/40/433 49/39/434 82/87/435
f 73/299/436 38/300/437 88/301/438
f 73/302/439 88/303/440 20/111/441
f 28/304/442 8/52/443 78/51/444
f 58/66/445 40/305/446 34/67/447
f 243/306/448 239/307/449 54/308/450 16/309/451
f 63/223/452 61/276/453 90/224/454
f 35/71/455 11/124/456 10/69/457
f 244/241/458 228/310/459 84/154/460
f 32/311/461 33/312/462 50/313/463
f 82/314/464 93/315/465 58/316/466
f 207/317/467 30/318/468 105/319/469
f 105/320/470 30/263/471 213/321/472
f 31/322/473 79/323/474 32/324/475
f 31/126/476 32/145/477 87/217/478
f 3/325/479 94/326/480 67/327/481
f 67/328/482 94/329/483 37/121/484
f 299/330/485 287/331/486 21/179/487 9/181/488
f 300/332/489 290/167/490 8/52/491
f 7/333/492 42/334/493 70/335/494
f 220/336/495 250/337/496 20/111/497 88/303/498
f 285/338/499 69/171/500 289/339/501
f 289/340/502 69/341/503 301/342/504
f 85/343/505 48/344/506 34/345/507
f 85/346/508 14/91/509 48/140/510
f 4/88/511 36/122/512 6/38/513
f 27/156/514 82/87/515 89/86/516
f 52/347/517 82/87/518 27/156/519
f 11/124/520 24/108/521 10/69/522
f 110/110/523 210/348/524 73/302/525 20/111/526
f 328/349/527 327/350/528 215/351/529
f 229/352/530 234/353/531 84/154/532 46/153/533
f 239/307/534 233/354/535 54/308/536
f 284/355/537 283/186/538 47/7/539 21/179/540
f 64/72/541 94/356/542 3/197/543
f 64/72/544 3/197/545 42/357/546
f 89/86/547 12/358/548 27/156/549
f 17/172/550 25/56/551 16/55/552
f 281/359/553 97/360/554 20/111/555 250/337/556
f 62/3/557 61/44/558 56/34/559
f 82/361/560 52/362/561 93/363/562
f 55/364/563 60/365/564 48/366/565
f 34/367/566 40/368/567 22/369/568
f 34/370/569 22/250/570 85/371/571
f 72/166/572 65/17/573 11/124/574
f 77/372/575 29/373/576 47/374/577
f 11/124/578 48/109/579 24/108/580
f 53/375/581 26/376/582 92/377/583
f 4/378/584 33/379/585 36/380/586
f 33/127/587 31/126/588 36/220/589
f 25/201/590 107/200/591 213/321/592 30/263/593
f 18/381/594 212/382/595 108/383/596 28/287/597
f 18/381/598 67/384/599 216/385/600 103/386/601
f 57/24/602 2/236/603 102/387/604 219/22/605
f 292/388/606 304/389/607 102/387/608 2/236/609
f 62/390/610 211/391/611 104/392/612
f 73/302/613 210/348/614 218/119/615 37/121/616
f 23/393/617 61/394/618 109/395/619 209/396/620
f 5/397/621 106/398/622 208/399/623
f 5/159/624 101/158/625 211/400/626 62/401/627
f 17/202/628 100/402/629 214/199/630
f 17/202/631 23/403/632 209/404/633 100/402/634
f 20/111/635 97/360/636 217/112/637
f 57/24/638 95/45/639 106/398/640 5/397/641
f 67/384/642 37/121/643 206/120/644 216/385/645
f 136/405/646 173/406/647 115/407/648
f 204/408/649 169/409/650 161/410/651
f 158/411/652 188/412/653 124/413/654
f 187/414/655 111/415/656 182/416/657
f 144/417/658 161/418/659 194/419/660
f 160/420/661 170/421/662 176/422/663
f 159/423/664 145/424/665 155/425/666
f 219/22/667 168/426/668 96/23/669
f 161/427/670 162/428/671 204/429/672
f 162/430/673 143/431/674 186/432/675
f 124/433/676 166/434/677 158/435/678
f 136/405/679 174/436/680 167/437/681
f 117/438/682 116/439/683 140/440/684
f 160/441/685 155/442/686 169/443/687
f 104/42/688 173/406/689 172/444/690 109/43/691
f 173/406/692 136/405/693 167/437/694
f 96/23/695 168/426/696 95/45/697
f 308/445/698 321/446/699 177/447/700
f 320/448/701 315/449/702 118/450/703 189/451/704
f 271/452/705 262/453/706 135/454/707 126/455/708
f 280/57/709 99/59/710 282/456/711
f 122/457/712 125/458/713 123/459/714
f 181/460/715 117/461/716 140/462/717
f 169/463/718 155/464/719 145/465/720
f 120/466/721 146/467/722 179/468/723
f 175/469/724 116/439/725 117/470/726
f 258/471/727 277/472/728 163/473/729 162/474/730
f 191/475/731 198/476/732 152/477/733
f 265/478/734 253/479/735 197/480/736 192/481/737
f 170/482/738 193/483/739 200/484/740
f 116/439/741 114/485/742 188/412/743
f 196/486/744 124/487/745 188/488/746
f 132/489/747 196/486/748 188/488/749
f 198/490/750 192/491/751 197/492/752
f 326/493/753 156/494/754 310/495/755
f 175/469/756 184/496/757 149/497/758
f 163/498/759 204/499/760 162/500/761
f 175/501/762 205/502/763 184/503/764
f 171/504/765 159/505/766 134/506/767
f 110/110/768 217/112/769 130/507/770
f 144/508/771 190/509/772 143/510/773
f 257/511/774 261/512/775 111/513/776
f 218/119/777 148/514/778 206/120/779
f 175/469/780 147/515/781 116/439/782
f 140/440/783 116/439/784 188/412/785
f 129/516/786 176/422/787 121/517/788
f 190/518/789 144/519/790 142/520/791
f 198/521/792 147/522/793 152/523/794
f 164/524/795 168/426/796 202/525/797
f 167/437/798 174/436/799 172/444/800
f 200/484/801 201/526/802 170/482/803
f 120/466/804 179/468/805 177/447/806
f 191/527/807 139/528/808 192/529/809
f 139/530/810 191/531/811 152/532/812
f 124/533/813 159/534/814 166/535/815
f 185/536/816 137/537/817 163/538/818
f 162/539/819 161/540/820 143/541/821
f 129/516/822 121/517/823 155/464/824
f 155/464/825 121/517/826 159/505/827
f 260/542/828 274/543/829 165/544/830 157/545/831
f 146/467/832 202/546/833 179/468/834
f 179/468/835 202/546/836 112/547/837
f 157/548/838 185/549/839 195/550/840
f 157/548/841 137/551/842 185/549/843
f 208/157/844 115/552/845 101/158/846
f 189/553/847 128/554/848 113/555/849
f 182/556/850 147/557/851 187/558/852
f 146/467/853 121/517/854 183/559/855
f 312/560/856 118/450/857 315/449/858
f 153/561/859 181/562/860 119/563/861
f 134/506/862 177/447/863 180/564/864
f 134/506/865 180/564/866 171/504/867
f 127/565/868 133/566/869 125/567/870
f 149/497/871 111/415/872 187/414/873
f 103/175/874 128/568/875 212/176/876
f 175/569/877 149/497/878 187/414/879
f 131/570/880 119/571/881 140/572/882
f 257/573/883 111/574/884 276/575/885
f 325/576/886 305/577/887 158/411/888
f 176/422/889 203/578/890 183/559/891
f 137/579/892 125/567/893 122/580/894
f 150/581/895 125/567/896 137/579/897
f 169/582/898 151/583/899 161/584/900
f 253/479/901 279/585/902 186/586/903 197/480/904
f 128/587/905 178/588/906 113/589/907
f 214/199/908 127/590/909 135/591/910 107/200/911
f 126/592/912 127/590/913 125/593/914
f 270/594/915 199/595/916 269/596/917
f 175/597/918 187/598/919 147/599/920
f 164/600/921 146/467/922 203/578/923
f 202/546/924 146/467/925 164/600/926
f 181/601/927 140/572/928 119/571/929
f 117/602/930 153/603/931 175/604/932
f 197/605/933 186/606/934 198/607/935
f 111/415/936 154/608/937 182/416/938
f 160/420/939 129/516/940 155/464/941
f 129/516/942 160/420/943 176/422/944
f 198/607/945 142/520/946 147/609/947
f 194/610/948 161/418/949 132/611/950
f 160/441/951 193/483/952 170/482/953
f 134/506/954 120/466/955 177/447/956
f 174/612/957 136/613/958 201/614/959
f 203/615/960 201/616/961 136/617/962
f 140/572/963 158/411/964 131/570/965
f 189/451/966 113/589/967 119/571/968
f 119/571/969 113/589/970 153/618/971
f 148/619/972 184/620/973 205/621/974
f 203/578/975 170/622/976 201/623/977
f 176/422/978 170/622/979 203/578/980
f 202/624/981 168/426/982 112/625/983
f 171/626/984 156/627/985 166/628/986
f 268/629/987 195/550/988 272/630/989
f 275/631/990 139/528/991 152/632/992
f 277/633/993 256/634/994 185/635/995 163/636/996
f 194/637/997 132/638/998 188/412/999
f 164/639/1000 136/405/1001 115/407/1002
f 164/640/1003 115/641/1004 168/642/1005
f 152/643/1006 182/644/1007 154/645/1008
f 152/646/1009 147/647/1010 182/648/1011
f 207/261/1012 141/649/1013 135/591/1014 98/262/1015
f 150/581/1016 165/544/1017 126/455/1018
f 165/544/1019 150/581/1020 157/545/1021
f 261/650/1022 255/651/1023 154/608/1024 111/415/1025
f 156/652/1026 158/435/1027 166/653/1028
f 188/412/1029 114/485/1030 144/519/1031
f 194/637/1032 188/412/1033 144/519/1034
f 122/654/1035 123/655/1036 200/656/1037
f 263/657/1038 165/544/1039 274/543/1040
f 151/658/1041 132/638/1042 161/540/1043
f 123/659/1044 133/660/1045 172/661/1046
f 172/662/1047 201/614/1048 123/655/1049
f 316/663/1050 179/468/1051 319/664/1052
f 137/579/1053 157/545/1054 150/581/1055
f 146/665/1056 183/666/1057 203/667/1058
f 125/668/1059 133/669/1060 123/659/1061
f 123/670/1062 201/526/1063 200/484/1064
f 189/671/1065 138/672/1066 128/673/1067
f 126/674/1068 125/675/1069 150/676/1070
f 171/677/1071 180/678/1072 156/679/1073
f 192/529/1074 198/607/1075 191/680/1076
f 186/681/1077 143/682/1078 198/683/1079
f 169/443/1080 193/483/1081 160/441/1082
f 184/684/1083 199/685/1084 149/686/1085
f 184/687/1086 130/507/1087 199/688/1088
f 138/689/1089 189/451/1090 118/450/1091
f 169/463/1092 145/465/1093 151/690/1094
f 267/691/1095 271/692/1096 126/693/1097 165/694/1098
f 174/612/1099 201/614/1100 172/662/1101
f 146/467/1102 120/466/1103 121/517/1104
f 272/630/1105 195/550/1106 259/695/1107
f 143/696/1108 161/697/1109 144/698/1110
f 193/699/1111 169/700/1112 204/701/1113
f 207/317/1114 105/319/1115 141/702/1116
f 105/320/1117 213/321/1118 141/649/1119
f 142/703/1120 143/704/1121 190/705/1122
f 142/520/1123 198/607/1124 143/541/1125
f 113/706/1126 178/707/1127 205/708/1128
f 178/709/1129 148/514/1130 205/710/1131
f 309/711/1132 322/712/1133 119/571/1134 131/570/1135
f 323/713/1136 118/450/1137 312/560/1138
f 117/714/1139 181/715/1140 153/716/1141
f 278/717/1142 252/718/1143 199/688/1144 130/507/1145
f 307/719/1146 311/720/1147 180/564/1148
f 311/721/1149 324/722/1150 180/723/1151
f 196/724/1152 145/725/1153 159/726/1154
f 196/727/1155 159/534/1156 124/487/1157
f 114/485/1158 116/439/1159 147/515/1160
f 137/551/1161 200/484/1162 193/483/1163
f 163/728/1164 137/551/1165 193/483/1166
f 121/517/1167 120/466/1168 134/506/1169
f 110/110/1170 130/507/1171 184/687/1172 210/348/1173
f 328/349/1174 215/351/1175 318/729/1176
f 264/730/1177 260/731/1178 157/548/1179 195/550/1180
f 267/691/1181 165/694/1182 263/732/1183
f 305/577/1184 306/733/1185 131/570/1186 158/411/1187
f 175/469/1188 113/589/1189 205/734/1190
f 175/469/1191 153/735/1192 113/589/1193
f 200/484/1194 137/551/1195 122/736/1196
f 127/565/1197 126/455/1198 135/454/1199
f 281/359/1200 278/717/1201 130/507/1202 97/360/1203
f 173/406/1204 167/437/1205 172/444/1206
f 193/737/1207 204/738/1208 163/739/1209
f 166/740/1210 159/741/1211 171/742/1212
f 145/743/1213 132/744/1214 151/745/1215
f 145/746/1216 196/747/1217 132/638/1218
f 183/559/1219 121/517/1220 176/422/1221
f 188/748/1222 158/749/1223 140/750/1224
f 121/517/1225 134/506/1226 159/505/1227
f 164/751/1228 203/752/1229 136/753/1230
f 114/754/1231 147/755/1232 144/756/1233
f 144/519/1234 147/609/1235 142/520/1236
f 135/591/1237 141/649/1238 213/321/1239 107/200/1240
f 128/757/1241 138/672/1242 108/383/1243 212/382/1244
f 128/757/1245 103/386/1246 216/385/1247 178/758/1248
f 168/426/1249 219/22/1250 102/387/1251 112/625/1252
f 314/759/1253 112/625/1254 102/387/1255 304/389/1256
f 173/760/1257 104/392/1258 211/391/1259
f 184/687/1260 148/514/1261 218/119/1262 210/348/1263
f 133/761/1264 209/396/1265 109/395/1266 172/762/1267
f 115/763/1268 208/399/1269 106/398/1270
f 115/552/1271 173/764/1272 211/400/1273 101/158/1274
f 127/590/1275 214/199/1276 100/402/1277
f 127/590/1278 100/402/1279 209/404/1280 133/765/1281
f 130/507/1282 217/112/1283 97/360/1284
f 168/426/1285 115/763/1286 106/398/1287 95/45/1288
f 178/758/1289 216/385/1290 206/120/1291 148/514/1292
f 149/497/1293 273/766/1294 276/767/1295 111/415/1296
f 199/595/1297 270/594/1298 273/766/1299 149/497/1300
f 199/595/1301 266/768/1302 269/596/1303
f 195/550/1304 268/629/1305 264/730/1306
f 192/529/1307 139/528/1308 265/769/1309
f 98/262/1310 135/591/1311 262/770/1312 282/456/1313 99/59/1314
f 195/550/1315 185/549/1316 256/771/1317 259/695/1318
f 154/608/1319 255/651/1320 275/631/1321 152/632/1322
f 186/772/1323 279/773/1324 254/774/1325
f 162/474/1326 186/775/1327 254/776/1328 258/471/1329
f 199/688/1330 252/718/1331 266/777/1332
f 38/99/1333 1/12/1334 248/778/1335 245/779/1336
f 88/207/1337 38/99/1338 245/779/1339 242/205/1340
f 88/207/1341 241/206/1342 238/780/1343
f 84/154/1344 234/353/1345 240/240/1346
f 80/781/1347 81/294/1348 232/782/1349 235/783/1350
f 81/294/1351 236/784/1352 232/782/1353
f 98/262/1354 99/59/1355 225/58/1356 231/785/1357 25/201/1358
f 84/154/1359 228/310/1360 224/786/1361 74/155/1362
f 43/219/1363 41/243/1364 247/242/1365 223/264/1366
f 75/787/1367 222/788/1368 251/789/1369
f 51/76/1370 227/75/1371 222/790/1372 75/791/1373
f 88/303/1374 238/792/1375 220/336/1376
f 282/456/1377 262/770/1378 271/452/1379 267/691/1380 263/732/1381 274/543/1382 260/542/1383 264/730/1384 268/629/1385 272/630/1386 259/695/1387 256/771/1387 277/633/1388 258/471/1389 254/776/1390 279/773/1391 253/479/1392 265/478/1393 139/528/1394 275/631/1395 255/651/1396 261/650/1397 257/511/1398 276/575/1399 273/766/1400 270/594/1401 269/596/1402 266/768/1403 252/718/1404 278/717/1405 281/359/1406 250/337/1405 220/336/1407 238/792/1408 241/206/1409 242/205/1410 245/779/1411 248/778/1412 226/182/1413 230/118/1414 223/264/1415 247/242/1416 237/244/1417 235/134/1418 232/782/1419 236/784/1420 221/81/1421 251/194/1422 222/788/1423 227/75/1424 249/74/1425 224/245/1426 228/310/1427 244/241/1428 240/240/1429 234/353/1430 229/352/1431 246/147/1432 233/271/1433 239/307/1434 243/306/1435 231/53/1436 225/58/1437 280/57/1438
f 156/793/1439 326/794/1440 325/795/1441 158/796/1442
f 119/571/1443 322/712/1444 320/448/1445 189/451/1446
f 108/383/1447 138/672/1448 317/797/1449 318/729/1450 215/351/1451
f 179/468/1452 112/547/1453 314/798/1454 319/664/1455
f 118/799/1456 323/800/1457 313/801/1458
f 118/802/1459 313/803/1460 317/804/1461 138/805/1462
f 180/806/1463 324/807/1464 310/808/1465 156/809/1466
f 179/468/1467 316/663/1468 308/445/1469 177/447/1470
f 177/447/1471 321/446/1472 307/719/1473 180/564/1474
f 131/810/1475 306/811/1476 309/812/1477
f 45/813/1478 47/814/1479 302/815/1480 303/816/1481
f 9/181/1482 78/51/1483 297/50/1484 299/330/1485
f 108/383/1486 215/351/1487 327/350/1488 295/817/1489 28/287/1490
f 68/70/1491 296/278/1492 292/818/1493 2/152/1494
f 8/819/1495 291/820/1496 300/821/1497
f 8/822/1498 28/823/1499 295/824/1500 291/825/1501
f 69/826/1502 45/827/1503 288/828/1504 301/829/1505
f 68/70/1506 66/47/1507 286/46/1508 294/277/1509
f 66/47/1510 69/171/1511 285/338/1512 298/48/1513
f 21/830/1514 287/831/1515 284/832/1516
f 328/349/1517 318/729/1518 317/797/1519 313/803/1520 323/800/1521 312/560/1522 315/449/1523 320/448/1524 322/712/1525 309/711/1526 306/811/1527 305/577/1528 325/576/1529 326/794/1530 310/495/1531 324/807/1532 311/721/1533 307/719/1534 321/446/1535 308/445/1536 316/663/1537 319/664/1538 314/798/1539 304/389/1540 292/388/1541 296/278/1542 294/277/1543 286/46/1543 298/48/1544 285/338/1545 289/339/1546 301/342/1547 288/828/1548 303/96/1549 302/815/1550 283/186/1551 284/355/1552 287/831/1553 299/330/1554 297/50/1555 293/49/1556 290/167/1557 300/332/1558 291/820/1559 295/824/1560 327/350/1561
