# Blender v2.79 (sub 0) OBJ File: 'redo_fixed_360_joints.blend'
# www.blender.org
mtllib sungaya_inexpectata_31mg.mtl
o 31-f-r-coxa_Sungaya_inexpectata_31mg.039
v -0.000363 0.000302 -0.000211
v -0.000174 -0.000218 0.000288
v 0.000010 0.000186 -0.000256
v 0.000172 0.000047 -0.000262
v -0.000229 0.000118 -0.000215
v -0.000423 0.000018 -0.000237
v -0.000064 -0.000264 -0.000015
v -0.000171 -0.000258 0.000187
v -0.000269 0.000240 -0.000152
v 0.000134 -0.000035 0.000244
v 0.000247 0.000134 0.000138
v -0.000223 0.000236 0.000060
v 0.000309 0.000137 0.000041
v -0.000352 0.000154 -0.000246
v 0.000053 0.000160 0.000194
v 0.000026 0.000178 0.000127
v -0.000075 0.000198 0.000190
v -0.000095 -0.000134 0.000315
v 0.000290 -0.000016 0.000028
v 0.000195 0.000110 0.000197
v -0.000401 0.000285 -0.000248
v 0.000163 -0.000161 0.000201
v 0.000194 0.000227 -0.000094
v 0.000266 0.000209 0.000067
v 0.000080 -0.000276 -0.000030
v -0.000202 -0.000183 -0.000074
v -0.000307 -0.000213 -0.000051
v 0.000189 -0.000212 0.000133
v 0.000035 -0.000244 -0.000086
v -0.000071 -0.000181 -0.000096
v 0.000262 -0.000166 -0.000232
v -0.000255 -0.000030 -0.000171
v -0.000149 0.000191 -0.000158
v 0.000159 -0.000192 -0.000149
v 0.000222 0.000022 0.000193
v 0.000326 0.000147 -0.000286
v -0.000070 0.000180 -0.000075
v 0.000275 0.000119 -0.000292
v -0.000259 -0.000248 0.000023
v 0.000078 0.000007 -0.000205
v -0.000064 0.000113 -0.000229
v -0.000228 -0.000267 0.000118
v 0.000283 -0.000194 0.000033
v -0.000087 -0.000199 0.000252
v -0.000243 0.000187 -0.000202
v 0.000227 -0.000176 0.000160
v -0.000130 0.000175 0.000308
v 0.000036 0.000211 -0.000229
v -0.000117 0.000174 -0.000203
v 0.000010 0.000100 0.000268
v 0.000173 0.000217 -0.000269
v 0.000326 -0.000217 -0.000071
v -0.000087 0.000008 0.000352
v -0.000389 -0.000140 -0.000146
v 0.000178 -0.000248 -0.000108
v 0.000258 -0.000232 -0.000059
v 0.000360 0.000153 -0.000005
v 0.000361 0.000216 -0.000019
v 0.000359 0.000132 -0.000001
v 0.000340 -0.000207 -0.000073
v 0.000344 -0.000109 -0.000071
v 0.000338 -0.000218 -0.000091
v 0.000359 0.000219 -0.000044
v 0.000340 -0.000214 -0.000075
v 0.000352 0.000218 -0.000126
v 0.000336 0.000146 -0.000284
v 0.000327 -0.000188 -0.000236
v 0.000340 0.000167 -0.000241
v 0.000333 0.000110 -0.000303
v 0.000336 0.000143 -0.000289
v 0.000331 0.000062 -0.000307
v 0.000350 0.000216 -0.000149
v 0.000327 -0.000113 -0.000272
v 0.000345 -0.000085 -0.000067
v 0.000356 0.000072 -0.000010
v 0.000329 -0.000002 -0.000306
v 0.000332 -0.000233 -0.000163
v 0.000328 -0.000204 -0.000219
v -0.000426 0.000013 -0.000238
v -0.000201 0.000247 0.000176
v -0.000303 -0.000273 0.000054
v -0.000178 -0.000218 0.000296
v -0.000281 0.000274 0.000012
v -0.000406 0.000293 -0.000242
v -0.000119 0.000066 0.000367
v -0.000355 -0.000257 -0.000054
v -0.000167 0.000245 0.000243
v -0.000137 -0.000132 0.000363
v -0.000146 0.000199 0.000292
v -0.000136 0.000178 0.000317
v -0.000395 -0.000138 -0.000151
v -0.000232 -0.000269 0.000194
v -0.000307 -0.000269 0.000044
v -0.000381 0.000316 -0.000195
v -0.000187 -0.000225 0.000278
v -0.000125 -0.000055 0.000375
v -0.000387 0.000317 -0.000208
v -0.000424 0.000183 -0.000260
v -0.000356 0.000307 -0.000144
v -0.000111 0.000025 0.000390
v -0.000115 0.000011 0.000384
v -0.000379 -0.000184 -0.000113
v -0.000426 0.000021 -0.000239
v -0.000433 0.000112 -0.000266
v -0.000411 0.000281 -0.000250
v -0.000252 -0.000272 0.000154
v -0.000237 0.000269 0.000100
v -0.000409 0.000288 -0.000247
v -0.000174 -0.000207 0.000302
v -0.000323 0.000293 -0.000075
v -0.000298 -0.000275 0.000064
vt 0.512557 0.467361
vt 0.512716 0.467213
vt 0.512167 0.467153
vt 0.513352 0.469391
vt 0.515359 0.471805
vt 0.517795 0.469781
vt 0.140212 0.636702
vt 0.140177 0.636057
vt 0.139563 0.636303
vt 0.375714 0.392044
vt 0.377218 0.391683
vt 0.374157 0.388160
vt 0.112157 0.247268
vt 0.115711 0.248441
vt 0.119223 0.246203
vt 0.111298 0.245186
vt 0.107513 0.245739
vt 0.114823 0.258237
vt 0.108875 0.253521
vt 0.380291 0.387455
vt 0.518676 0.337654
vt 0.517257 0.333883
vt 0.514284 0.336929
vt 0.174044 0.731505
vt 0.173431 0.729926
vt 0.171199 0.730319
vt 0.517779 0.337275
vt 0.515556 0.338223
vt 0.517053 0.339314
vt 0.179654 0.693816
vt 0.179441 0.694896
vt 0.182511 0.696048
vt 0.916526 0.890016
vt 0.913892 0.887842
vt 0.913372 0.887638
vt 0.915035 0.890846
vt 0.409101 0.526161
vt 0.409020 0.527705
vt 0.409817 0.526604
vt 0.104115 0.250897
vt 0.104394 0.250743
vt 0.104607 0.248748
vt 0.918345 0.903195
vt 0.918533 0.900358
vt 0.915734 0.904799
vt 0.900732 0.905458
vt 0.900990 0.905615
vt 0.900812 0.904877
vt 0.544411 0.122801
vt 0.543822 0.124163
vt 0.546395 0.122893
vt 0.541722 0.301678
vt 0.541796 0.297290
vt 0.540810 0.297101
vt 0.909157 0.891963
vt 0.912381 0.889378
vt 0.907770 0.895637
vt 0.914726 0.909270
vt 0.914426 0.906451
vt 0.912669 0.909373
vt 0.478216 0.522168
vt 0.482648 0.530637
vt 0.482211 0.525705
vt 0.383893 0.382795
vt 0.380377 0.384310
vt 0.564936 0.370269
vt 0.560088 0.371505
vt 0.561738 0.373261
vt 0.007144 0.174650
vt 0.007194 0.175159
vt 0.007799 0.174766
vt 0.007821 0.173382
vt 0.473646 0.520201
vt 0.478133 0.521014
vt 0.920025 0.896722
vt 0.919684 0.895319
vt 0.918620 0.895493
vt 0.913197 0.898958
vt 0.913493 0.902898
vt 0.104006 0.263110
vt 0.106855 0.263913
vt 0.107343 0.263793
vt 0.105923 0.261683
vt 0.906805 0.899950
vt 0.903584 0.902294
vt 0.908513 0.906344
vt 0.910462 0.901865
vt 0.909850 0.910083
vt 0.903937 0.907140
vt 0.108669 0.264321
vt 0.109694 0.261329
vt 0.916339 0.907760
vt 0.516612 0.475093
vt 0.518667 0.477252
vt 0.563207 0.341962
vt 0.564042 0.342072
vt 0.563653 0.340978
vt 0.910599 0.899297
vt 0.330762 0.759125
vt 0.331659 0.759404
vt 0.331873 0.759091
vt 0.378799 0.378172
vt 0.378090 0.378873
vt 0.379384 0.379860
vt 0.379073 0.378276
vt 0.117916 0.244450
vt 0.518302 0.517924
vt 0.517725 0.519304
vt 0.520787 0.516321
vt 0.915559 0.231212
vt 0.916973 0.230289
vt 0.916445 0.229784
vt 0.515518 0.520017
vt 0.379120 0.394756
vt 0.380403 0.394266
vt 0.102809 0.257351
vt 0.109619 0.258724
vt 0.921654 0.900892
vt 0.685994 0.106438
vt 0.685680 0.105434
vt 0.683774 0.106262
vt 0.102831 0.260805
vt 0.784707 0.592020
vt 0.784560 0.590672
vt 0.783292 0.589491
vt 0.373945 0.385037
vt 0.372867 0.386244
vt 0.703466 0.352970
vt 0.703676 0.353226
vt 0.703825 0.353267
vt 0.102688 0.257487
vt 0.328556 0.759348
vt 0.326882 0.758722
vt 0.325311 0.758766
vt 0.327422 0.760471
vt 0.542476 0.298571
vt 0.542322 0.297592
vt 0.739180 0.735896
vt 0.738990 0.735758
vt 0.739177 0.735982
vt 0.225343 0.324188
vt 0.226782 0.324220
vt 0.226228 0.323272
vt 0.473692 0.521871
vt 0.479182 0.527088
vt 0.378283 0.384862
vt 0.818101 0.854384
vt 0.817581 0.854329
vt 0.817184 0.855732
vt 0.382128 0.379448
vt 0.918237 0.490154
vt 0.917340 0.489073
vt 0.917659 0.490356
vt 0.479999 0.530715
vt 0.538262 0.305963
vt 0.537761 0.304324
vt 0.536068 0.305083
vt 0.542392 0.303929
vt 0.539977 0.305718
vt 0.489380 0.352756
vt 0.489535 0.349895
vt 0.487677 0.351410
vt 0.482756 0.535389
vt 0.102637 0.257220
vt 0.866105 0.488269
vt 0.865924 0.488106
vt 0.865810 0.488178
vt 0.382400 0.387072
vt 0.484993 0.536391
vt 0.775179 0.113934
vt 0.775146 0.113776
vt 0.775124 0.113894
vt 0.912673 0.894892
vt 0.912272 0.891413
vt 0.602060 0.504680
vt 0.601073 0.509022
vt 0.603996 0.509300
vt 0.601733 0.509259
vt 0.913401 0.899823
vt 0.518226 0.478125
vt 0.974924 0.777060
vt 0.973466 0.776595
vt 0.973660 0.777788
vt 0.903275 0.906802
vt 0.611245 0.123709
vt 0.612762 0.123623
vt 0.611345 0.122254
vt 0.517021 0.517060
vt 0.514120 0.517675
vt 0.249876 0.973782
vt 0.252841 0.976076
vt 0.251773 0.973921
vt 0.251723 0.973452
vt 0.252219 0.973999
vt 0.903219 0.900493
vt 0.904187 0.899562
vt 0.126344 0.071334
vt 0.124935 0.071398
vt 0.126042 0.072996
vt 0.654498 0.653000
vt 0.655212 0.650844
vt 0.650424 0.646331
vt 0.919300 0.895072
vt 0.918212 0.892677
vt 0.541881 0.292185
vt 0.540401 0.291962
vt 0.483841 0.354495
vt 0.484089 0.355170
vt 0.486965 0.356132
vt 0.484436 0.353228
vt 0.485204 0.357124
vt 0.516209 0.345905
vt 0.517221 0.346260
vt 0.517143 0.346036
vt 0.381400 0.391570
vt 0.112760 0.260636
vt 0.111350 0.261495
vt 0.105439 0.267103
vt 0.105297 0.266953
vt 0.105202 0.267046
vt 0.512653 0.467882
vt 0.038196 0.665788
vt 0.040053 0.666713
vt 0.038987 0.665321
vt 0.517755 0.343863
vt 0.516265 0.343340
vt 0.980745 0.579101
vt 0.980573 0.580473
vt 0.982036 0.579041
vt 0.710844 0.746905
vt 0.709883 0.747422
vt 0.710492 0.747451
vt 0.711259 0.747272
vt 0.524075 0.513350
vt 0.523347 0.517775
vt 0.523970 0.514697
vt 0.538153 0.290862
vt 0.538789 0.290960
vt 0.538169 0.290804
vt 0.538999 0.293604
vt 0.540173 0.291501
vt 0.783531 0.591992
vt 0.784525 0.592202
vt 0.541430 0.295551
vt 0.541920 0.292229
vt 0.104966 0.266829
vt 0.737875 0.735955
vt 0.737740 0.734951
vt 0.479598 0.520541
vt 0.478736 0.520012
vt 0.919097 0.902255
vt 0.920651 0.902961
vt 0.921451 0.901548
vt 0.105288 0.245269
vt 0.108109 0.243846
vt 0.921811 0.900786
vt 0.107138 0.267627
vt 0.107445 0.267386
vt 0.473080 0.520110
vt 0.472808 0.520174
vt 0.471238 0.521994
vt 0.201385 0.817216
vt 0.198327 0.813905
vt 0.198900 0.816228
vt 0.199642 0.817702
vn -0.3794 0.8769 0.2951
vn 0.5449 0.7015 -0.4593
vn -0.4158 0.9078 -0.0553
vn -0.3030 0.8977 0.3200
vn -0.3074 0.8848 0.3502
vn 0.5521 0.7911 -0.2633
vn -0.1944 0.9486 0.2496
vn -0.4526 0.8396 0.3006
vn 0.5193 0.8353 -0.1807
vn 0.0355 -0.9296 -0.3668
vn -0.3493 -0.5197 -0.7797
vn -0.3259 -0.4783 -0.8155
vn -0.0567 -0.6862 -0.7252
vn -0.1289 -0.4380 -0.8897
vn -0.1635 -0.6960 -0.6992
vn 0.0863 -0.9038 -0.4192
vn 0.3020 -0.7423 -0.5982
vn -0.1557 -0.1541 -0.9757
vn 0.0419 -0.3957 -0.9174
vn -0.2825 -0.3623 -0.8882
vn 0.7330 0.0623 0.6773
vn 0.8457 -0.1279 0.5181
vn 0.7631 0.2483 0.5967
vn 0.4149 -0.4262 -0.8039
vn 0.4530 0.4559 0.7661
vn 0.0658 -0.9910 -0.1170
vn 0.3155 -0.8535 0.4147
vn 0.1664 -0.9531 0.2526
vn -0.1101 -0.3385 0.9345
vn -0.2831 -0.4928 0.8228
vn 0.4451 -0.8131 0.3751
vn 0.5036 -0.4710 0.7243
vn 0.3124 0.4426 -0.8405
vn 0.2794 0.9389 -0.2008
vn -0.5915 -0.5111 -0.6236
vn -0.6590 -0.6009 -0.4524
vn 0.1757 0.8444 0.5060
vn 0.3707 0.5055 0.7792
vn 0.7204 -0.5406 0.4345
vn 0.7793 -0.1126 0.6165
vn 0.4416 -0.7422 0.5040
vn 0.7676 -0.4998 0.4013
vn 0.0778 0.9901 0.1171
vn 0.3203 0.7797 0.5380
vn -0.0463 0.9983 0.0350
vn 0.2874 -0.7567 0.5872
vn 0.7274 0.0009 0.6862
vn 0.0852 -0.9950 -0.0516
vn -0.3193 0.3335 -0.8870
vn -0.2973 -0.2371 -0.9249
vn 0.2764 -0.9536 0.1192
vn 0.9123 -0.1433 0.3836
vn 0.9103 -0.0436 0.4117
vn -0.5220 -0.8404 0.1459
vn -0.5859 -0.7234 0.3652
vn -0.0963 0.4242 0.9005
vn 0.0344 0.1392 0.9897
vn 0.6634 0.0250 0.7478
vn 0.4574 -0.0491 0.8879
vn -0.7786 0.1538 -0.6084
vn -0.7566 0.2729 -0.5942
vn 0.2748 0.4256 -0.8621
vn 0.2742 -0.0111 -0.9616
vn 0.6235 -0.4338 0.6504
vn 0.9565 -0.1174 0.2672
vn -0.3147 0.8999 0.3018
vn -0.1331 0.1105 -0.9849
vn 0.3600 -0.4642 0.8093
vn 0.5729 -0.0248 -0.8192
vn 0.5980 0.1728 -0.7827
vn 0.6274 0.4380 -0.6438
vn 0.0577 0.6538 -0.7545
vn -0.1380 -0.9261 -0.3512
vn -0.1936 0.9470 -0.2562
vn -0.0034 0.7650 -0.6440
vn 0.0556 0.9976 -0.0409
vn 0.3768 -0.2840 -0.8817
vn 0.0665 -0.0289 -0.9974
vn 0.6485 0.5681 0.5067
vn -0.7340 -0.1072 -0.6706
vn 0.5282 -0.2640 -0.8070
vn 0.5540 -0.5089 -0.6589
vn 0.7417 -0.6677 0.0637
vn -0.7502 -0.2131 -0.6260
vn 0.5189 -0.1527 -0.8411
vn -0.1679 -0.6276 0.7602
vn -0.4983 -0.6465 0.5777
vn -0.1309 0.7432 -0.6561
vn 0.3134 0.9203 0.2343
vn -0.6377 -0.3930 -0.6625
vn 0.7464 0.5601 -0.3595
vn 0.9569 -0.0805 0.2790
vn 0.7645 0.5765 0.2883
vn 0.9093 0.0393 0.4143
vn -0.2202 -0.1952 0.9557
vn -0.1607 -0.1309 0.9783
vn 0.7148 0.6993 -0.0066
vn 0.7418 0.6649 -0.0874
vn 0.5775 -0.5969 -0.5570
vn 0.6569 -0.7226 -0.2153
vn -0.2657 0.6686 0.6946
vn -0.0581 0.5504 0.8329
vn -0.6118 0.7479 -0.2576
vn -0.7260 0.5531 -0.4087
vn 0.6927 0.6979 -0.1818
vn 0.8000 0.5112 -0.3143
vn -0.5118 -0.7554 0.4092
vn -0.2412 0.8696 0.4308
vn -0.4742 -0.8452 -0.2467
vn -0.7024 -0.7117 0.0073
vn -0.6238 -0.7806 0.0389
usemtl sungaya_inexpectata_31mg
s 1
f 94/1/1 1/2/2 97/3/3
f 99/4/4 110/5/5 9/6/6 1/2/2
f 107/7/7 80/8/8 12/9/9
f 55/10/10 34/11/11 31/12/12
f 26/13/13 30/14/14 29/15/15
f 39/16/16 27/17/17 26/13/13
f 41/18/18 30/14/14 32/19/19
f 31/12/12 34/11/11 40/20/20
f 35/21/21 19/22/22 11/23/23
f 27/24/17 54/25/24 26/26/13
f 35/27/21 11/28/23 20/29/25
f 25/30/26 28/31/27 8/32/28
f 88/33/29 109/34/30 2/35/31 18/36/32
f 30/14/14 26/13/13 32/19/19
f 45/37/33 9/38/6 33/39/34
f 91/40/35 54/41/24 102/42/36
f 15/43/37 50/44/38 20/45/25
f 64/46/39 60/47/40 52/48/41
f 52/49/41 19/50/22 43/51/42
f 16/52/43 24/53/44 23/54/45
f 2/35/31 8/55/28 44/56/46
f 28/57/27 44/56/46 8/55/28
f 24/58/44 11/59/23 13/60/47
f 42/61/48 25/62/26 8/63/28
f 3/64/49 4/65/50 40/20/20
f 28/66/27 25/67/26 56/68/51
f 75/69/52 59/70/53 13/71/47 19/72/22
f 111/73/54 42/61/48 106/74/55
f 85/75/56 100/76/57 53/77/58
f 10/78/59 53/77/58 18/36/32
f 20/45/25 10/78/59 35/79/21
f 98/80/60 105/81/61 21/82/62 14/83/63
f 46/84/64 43/85/42 19/86/22
f 19/86/22 35/87/21 46/84/64
f 75/88/52 19/86/22 74/89/65
f 21/82/62 1/90/2 45/91/33
f 20/45/25 11/59/23 24/92/44
f 110/5/5 83/93/66 12/94/9 9/6/6
f 4/95/50 3/96/49 38/97/67
f 10/78/59 22/98/68 46/84/64
f 46/84/64 35/79/21 10/78/59
f 71/99/69 38/100/67 69/101/70
f 70/102/71 69/103/70 38/104/67 36/105/72
f 26/13/13 7/106/73 39/16/16
f 48/107/74 23/108/45 51/109/75
f 37/110/76 16/111/43 23/112/45
f 23/108/45 48/107/74 37/113/76
f 40/20/20 29/114/15 30/115/14
f 54/41/24 6/116/77 5/117/78
f 32/19/19 54/41/24 5/117/78
f 47/118/79 53/77/58 50/44/38
f 53/119/58 10/120/59 50/121/38
f 98/80/60 14/83/63 104/122/80
f 52/123/41 56/124/51 55/125/10
f 21/82/62 45/91/33 14/83/63
f 73/126/81 67/127/82 31/12/12
f 62/128/83 64/129/39 52/130/41
f 103/131/84 104/122/80 14/83/63 6/116/77
f 76/132/85 73/133/81 31/134/12 4/135/50
f 2/35/31 44/56/46 18/36/32
f 16/52/43 15/136/37 24/137/44
f 82/138/86 95/139/87 2/140/31
f 10/141/59 18/142/32 22/143/68
f 39/144/16 7/145/73 42/61/48
f 40/20/20 4/146/50 31/12/12
f 49/147/88 3/148/49 41/149/18
f 51/150/75 36/105/72 38/104/67
f 9/151/6 45/152/33 1/153/2
f 34/11/11 29/114/15 40/20/20
f 29/154/15 25/62/26 7/145/73
f 12/155/9 37/156/76 33/157/34
f 17/158/89 16/52/43 12/159/9
f 12/159/9 16/52/43 37/156/76
f 7/106/73 26/13/13 29/15/15
f 55/160/10 29/161/15 34/162/11
f 25/62/26 29/154/15 55/163/10
f 79/164/90 103/131/84 6/116/77
f 14/83/63 45/91/33 5/117/78
f 42/61/48 7/145/73 25/62/26
f 13/60/47 11/59/23 19/86/22
f 5/117/78 6/116/77 14/83/63
f 109/165/30 82/166/86 2/167/31
f 41/168/18 3/64/49 40/20/20
f 56/169/51 25/62/26 55/163/10
f 3/64/49 51/150/75 38/104/67
f 66/170/91 70/171/71 36/172/72
f 22/173/68 44/174/46 28/57/27
f 48/175/74 49/176/88 37/177/76
f 37/177/76 49/176/88 33/178/34
f 10/179/59 20/45/25 50/44/38
f 83/93/66 107/180/7 12/94/9
f 12/181/9 33/182/34 9/183/6
f 32/19/19 26/13/13 54/41/24
f 61/184/92 52/48/41 60/47/40
f 17/185/89 15/186/37 16/187/43
f 3/188/49 48/107/74 51/109/75
f 49/189/88 48/107/74 3/188/49
f 58/190/93 24/191/44 57/192/94
f 59/193/53 57/192/94 24/191/44 13/194/47
f 56/195/51 43/85/42 28/196/27
f 28/197/27 43/198/42 46/199/64
f 18/200/32 44/201/46 22/202/68
f 5/117/78 41/18/18 32/19/19
f 22/173/68 28/57/27 46/84/64
f 101/203/95 96/204/96 53/77/58
f 63/205/97 65/206/98 23/54/45
f 91/40/35 79/164/90 6/116/77 54/41/24
f 67/207/82 78/208/99 55/209/10 31/210/12
f 78/208/99 77/211/100 55/209/10
f 89/212/101 90/213/102 47/214/79
f 41/215/18 40/20/20 30/115/14
f 45/91/33 49/216/88 5/117/78
f 33/217/34 49/216/88 45/91/33
f 49/216/88 41/18/18 5/117/78
f 84/218/103 21/219/62 108/220/104
f 99/221/4 1/2/2 94/1/1
f 17/222/89 50/223/38 15/224/37
f 47/214/79 50/225/38 17/226/89
f 56/227/51 52/228/41 43/229/42
f 20/45/25 24/92/44 15/43/37
f 4/230/50 38/231/67 71/232/69 76/233/85
f 36/234/72 51/109/75 72/235/105 68/236/106
f 36/237/72 68/238/106 66/239/91
f 51/240/75 23/54/45 65/206/98 72/241/105
f 52/123/41 55/125/10 77/242/100 62/243/83
f 19/86/22 52/48/41 61/184/92 74/89/65
f 23/54/45 24/244/44 58/245/93 63/205/97
f 78/208/99 67/207/82 73/126/81 76/132/85 71/232/69 69/101/70 70/102/71 66/170/91 68/238/106 72/235/105 65/206/98 63/205/97 58/245/93 57/192/94 59/193/53 75/69/52 74/89/65 61/184/92 60/47/40 64/46/39 62/128/83 77/242/100
f 21/219/62 105/246/61 108/220/104
f 53/77/58 100/76/57 101/203/95
f 8/247/28 2/140/31 95/139/87 92/248/107
f 42/61/48 8/249/28 92/250/107 106/74/55
f 53/77/58 96/204/96 88/33/29 18/36/32
f 47/118/79 17/251/89 87/252/108 89/253/101
f 54/41/24 27/17/17 86/254/109 102/42/36
f 27/17/17 93/255/110 86/254/109
f 47/118/79 90/256/102 85/75/56 53/77/58
f 21/219/62 84/218/103 97/257/3 1/258/2
f 39/144/16 42/61/48 111/73/54 81/259/111
f 39/144/16 81/259/111 93/260/110 27/261/17
f 17/262/89 12/263/9 80/264/8 87/265/108
f 96/204/96 85/75/56 95/139/87
f 102/42/36 83/93/66 91/40/35
f 91/40/35 103/131/84 79/164/90
f 103/131/84 98/80/60 104/122/80
f 91/40/35 83/93/66 103/131/84
f 93/260/110 102/42/36 86/254/109
f 111/73/54 93/260/110 81/259/111
f 92/248/107 95/139/87 106/74/55
f 106/74/55 80/8/8 111/73/54
f 95/139/87 80/8/8 106/74/55
f 109/34/30 95/139/87 82/166/86
f 111/73/54 83/93/66 93/260/110
f 93/260/110 83/93/66 102/42/36
f 103/131/84 110/5/5 98/80/60
f 83/93/66 110/5/5 103/131/84
f 98/80/60 108/220/104 105/81/61
f 108/220/104 97/257/3 84/218/103
f 97/257/3 108/220/104 94/1/1
f 94/1/1 108/220/104 99/221/4
f 99/221/4 98/80/60 110/5/5
f 83/93/66 111/73/54 107/180/7
f 107/180/7 111/73/54 80/8/8
f 80/8/8 89/253/101 87/265/108
f 89/253/101 85/75/56 90/213/102
f 85/75/56 101/203/95 100/76/57
f 101/203/95 85/75/56 96/204/96
f 96/204/96 95/139/87 88/33/29
f 88/33/29 95/139/87 109/34/30
f 98/80/60 99/221/4 108/220/104
f 80/8/8 85/75/56 89/253/101
f 95/139/87 85/75/56 80/8/8
