# Blender v2.79 (sub 0) OBJ File: 'redo_fixed_360_joints.blend'
# www.blender.org
mtllib sungaya_inexpectata_31mg.mtl
o 36-f-r-claws_Sungaya_inexpectata_31mg.035
v 0.000213 -0.000004 -0.000085
v 0.000087 0.000004 -0.000063
v -0.000060 0.000058 -0.000045
v -0.000291 -0.000053 0.000052
v -0.000420 -0.000047 0.000106
v -0.000325 0.000030 0.000157
v -0.000371 0.000070 0.000070
v -0.000409 0.000053 0.000006
v -0.000644 0.000072 0.000056
v -0.000475 0.000083 0.000016
v 0.000612 0.000110 -0.000136
v -0.000161 -0.000010 0.000114
v -0.000156 -0.000085 0.000024
v -0.000513 0.000039 0.000147
v -0.000106 0.000051 0.000073
v -0.000225 0.000048 0.000143
v -0.000135 0.000032 -0.000078
v 0.000603 0.000035 -0.000101
v -0.000066 -0.000060 0.000055
v 0.000131 -0.000034 0.000068
v -0.000035 -0.000005 -0.000072
v -0.000049 -0.000078 -0.000035
v -0.000002 -0.000006 0.000087
v -0.000585 -0.000082 0.000102
v 0.000047 -0.000066 -0.000041
v 0.000495 0.000093 -0.000127
v 0.000423 0.000076 -0.000062
v -0.000280 0.000096 0.000080
v -0.000288 -0.000026 0.000157
v 0.000695 0.000007 -0.000116
v 0.000662 -0.000093 -0.000109
v 0.000698 -0.000129 -0.000125
v 0.000734 -0.000043 -0.000182
v 0.000289 -0.000048 0.000048
v 0.000372 -0.000081 -0.000013
v 0.000454 -0.000040 -0.000011
v -0.000176 0.000087 -0.000030
v 0.000691 0.000120 -0.000161
v -0.000418 -0.000056 0.000046
v -0.000624 -0.000066 -0.000010
v -0.000589 -0.000075 0.000169
v -0.000520 -0.000026 0.000177
v 0.000225 -0.000087 -0.000070
v 0.000301 -0.000108 -0.000067
v 0.000224 0.000082 -0.000021
v 0.000118 0.000062 0.000051
v 0.000574 0.000055 -0.000175
v 0.000523 0.000094 -0.000081
v 0.000474 0.000009 -0.000040
v 0.000652 -0.000160 -0.000093
v 0.000041 0.000054 -0.000040
v -0.000021 0.000048 0.000030
v 0.000537 -0.000049 -0.000095
v 0.000484 -0.000024 -0.000057
v -0.000378 0.000010 0.000016
v 0.000652 -0.000000 -0.000208
v 0.000402 -0.000031 -0.000140
v 0.000470 0.000002 -0.000123
v 0.000595 -0.000049 -0.000172
v 0.000718 -0.000186 -0.000124
v -0.000588 0.000015 -0.000017
v 0.000274 0.000019 0.000072
v -0.000141 -0.000038 -0.000075
v 0.000622 0.000207 -0.000118
v -0.000531 -0.000055 -0.000020
v 0.000309 0.000061 -0.000108
v -0.000296 0.000074 0.000016
v -0.000306 -0.000042 -0.000003
v -0.000200 -0.000080 -0.000048
v 0.000107 -0.000088 0.000026
v 0.000717 0.000070 -0.000167
v 0.000702 0.000267 -0.000163
v 0.000478 -0.000060 -0.000076
v 0.000754 -0.000030 -0.000137
v -0.000611 0.000033 0.000174
v -0.000605 -0.000037 0.000197
v -0.000610 -0.000072 0.000177
v -0.000656 0.000024 0.000016
v -0.000611 -0.000077 0.000173
v -0.000659 -0.000064 0.000003
v -0.000626 -0.000083 0.000121
v -0.000645 0.000072 0.000057
v -0.000654 -0.000069 0.000022
v -0.000607 -0.000000 0.000188
v -0.000659 -0.000017 0.000006
vt 0.145913 0.861568
vt 0.141941 0.860313
vt 0.141590 0.861844
vt 0.813108 0.095308
vt 0.814696 0.098620
vt 0.816447 0.095128
vt 0.959364 0.154910
vt 0.959686 0.153737
vt 0.957925 0.155445
vt 0.658645 0.702326
vt 0.654052 0.697531
vt 0.654331 0.700893
vt 0.807279 0.092152
vt 0.808075 0.094332
vt 0.808096 0.091204
vt 0.915459 0.344170
vt 0.918354 0.346129
vt 0.916954 0.343756
vt 0.740659 0.994926
vt 0.740954 0.993180
vt 0.740311 0.992220
vt 0.888442 0.531218
vt 0.887693 0.530314
vt 0.885679 0.532545
vt 0.424871 0.032546
vt 0.428289 0.033258
vt 0.427292 0.031042
vt 0.945947 0.596205
vt 0.946232 0.597638
vt 0.947593 0.597544
vt 0.732946 0.573977
vt 0.731017 0.574292
vt 0.733348 0.574406
vt 0.334005 0.582987
vt 0.335355 0.583540
vt 0.334646 0.582393
vt 0.145801 0.859815
vt 0.143618 0.859592
vt 0.441880 0.910303
vt 0.443103 0.909524
vt 0.442948 0.908210
vt 0.100713 0.769135
vt 0.100573 0.767488
vt 0.098532 0.768895
vt 0.694847 0.249835
vt 0.698780 0.250085
vt 0.697432 0.249232
vt 0.627204 0.261751
vt 0.627622 0.260371
vt 0.626180 0.262173
vt 0.211298 0.939100
vt 0.211746 0.937382
vt 0.210057 0.938720
vt 0.000778 0.903589
vt 0.001329 0.905130
vt 0.003696 0.903628
vt 0.793605 0.480399
vt 0.792254 0.481044
vt 0.793513 0.482579
vt 0.574156 0.635320
vt 0.573193 0.635938
vt 0.573942 0.636608
vt 0.651724 0.698596
vt 0.603044 0.650023
vt 0.600564 0.647622
vt 0.600522 0.649943
vt 0.196475 0.685927
vt 0.191098 0.684902
vt 0.195081 0.687320
vt 0.445804 0.009379
vt 0.449199 0.008975
vt 0.446372 0.006540
vt 0.817840 0.100735
vt 0.820435 0.107518
vt 0.820782 0.103521
vt 0.406143 0.672343
vt 0.408496 0.671659
vt 0.406300 0.670748
vt 0.620014 0.146837
vt 0.618549 0.147028
vt 0.619888 0.148379
vt 0.352131 0.138792
vt 0.351518 0.139980
vt 0.353070 0.140388
vt 0.987279 0.863947
vt 0.985842 0.866036
vt 0.988320 0.864727
vt 0.409022 0.673873
vt 0.406742 0.673123
vt 0.765044 0.627587
vt 0.764547 0.627831
vt 0.765177 0.628292
vt 0.537032 0.234651
vt 0.538925 0.235365
vt 0.538286 0.233839
vt 0.054096 0.197569
vt 0.053081 0.195191
vt 0.053109 0.196508
vt 0.435467 0.016679
vt 0.435302 0.018729
vt 0.440887 0.012822
vt 0.751944 0.603751
vt 0.752913 0.602587
vt 0.750542 0.602306
vt 0.308397 0.883058
vt 0.310317 0.884549
vt 0.309570 0.882951
vt 0.771610 0.283030
vt 0.774770 0.282424
vt 0.772276 0.281874
vt 0.793926 0.947448
vt 0.796763 0.946993
vt 0.796999 0.945945
vt 0.167966 0.558974
vt 0.166935 0.559326
vt 0.167816 0.560412
vt 0.267170 0.728094
vt 0.264771 0.726401
vt 0.263348 0.726434
vt 0.396747 0.707523
vt 0.393882 0.705332
vt 0.393775 0.707711
vt 0.443990 0.011985
vt 0.746517 0.976135
vt 0.747733 0.978045
vt 0.748825 0.977293
vt 0.244453 0.990646
vt 0.242180 0.989666
vt 0.243367 0.992360
vt 0.430397 0.021686
vt 0.429584 0.020233
vt 0.430774 0.024206
vt 0.815584 0.100161
vt 0.806367 0.093082
vt 0.801940 0.089827
vt 0.801737 0.092273
vt 0.049771 0.901596
vt 0.047098 0.901738
vt 0.048536 0.903395
vt 0.448512 0.006237
vt 0.446871 0.004036
vt 0.590103 0.178955
vt 0.590118 0.177041
vt 0.589378 0.177647
vt 0.426253 0.029956
vt 0.800006 0.087053
vt 0.802590 0.086112
vt 0.321333 0.897312
vt 0.320337 0.898476
vt 0.321531 0.899371
vt 0.179439 0.331647
vt 0.180388 0.333083
vt 0.180479 0.331121
vt 0.231743 0.942960
vt 0.232894 0.941914
vt 0.232751 0.941125
vt 0.335127 0.255746
vt 0.333796 0.255193
vt 0.332888 0.256580
vt 0.589946 0.615363
vt 0.590981 0.615575
vt 0.591090 0.615095
vt 0.220172 0.329736
vt 0.219405 0.329450
vt 0.219076 0.330658
vt 0.327970 0.898124
vt 0.332249 0.895696
vt 0.329927 0.895309
vt 0.194128 0.684110
vt 0.195745 0.684831
vt 0.440710 0.010355
vt 0.156481 0.012961
vt 0.154130 0.013599
vt 0.156502 0.013975
vt 0.233030 0.939039
vt 0.231365 0.936548
vt 0.230920 0.939029
vt 0.404190 0.674387
vt 0.403024 0.674165
vt 0.403759 0.676290
vt 0.424624 0.036284
vt 0.427005 0.036438
vt 0.432571 0.018546
vt 0.230187 0.759008
vt 0.231196 0.756546
vt 0.228947 0.759214
vt 0.119303 0.379520
vt 0.119435 0.380961
vt 0.120710 0.379462
vt 0.086204 0.768756
vt 0.086743 0.771698
vt 0.091951 0.771874
vt 0.067218 0.909865
vt 0.072006 0.911496
vt 0.075016 0.909319
vt 0.437320 0.014058
vt 0.448199 0.980892
vt 0.445128 0.982758
vt 0.448453 0.982830
vt 0.063450 0.028816
vt 0.063353 0.026819
vt 0.062218 0.028277
vt 0.444530 0.003599
vt 0.443010 0.003808
vt 0.443066 0.005464
vt 0.398915 0.711101
vt 0.395021 0.709821
vt 0.597057 0.647147
vt 0.595810 0.647548
vt 0.323347 0.898105
vt 0.412109 0.670864
vt 0.410331 0.672386
vt 0.796890 0.086560
vt 0.099869 0.771895
vt 0.870745 0.442328
vt 0.870382 0.444381
vt 0.871676 0.444284
vt 0.444353 0.004821
vt 0.992918 0.313040
vt 0.990353 0.311594
vt 0.991978 0.314689
vt 0.428916 0.026525
vt 0.425754 0.027900
vt 0.343356 0.932798
vt 0.345042 0.932855
vt 0.344573 0.932075
vt 0.116463 0.811525
vt 0.114623 0.813464
vt 0.116237 0.814547
vt 0.104045 0.664388
vt 0.101127 0.663820
vt 0.099952 0.666110
vt 0.101731 0.666564
vt 0.354498 0.966839
vt 0.349654 0.966689
vt 0.351086 0.968302
vt 0.885452 0.467398
vt 0.885490 0.468705
vt 0.886808 0.468504
vt 0.817796 0.102121
vt 0.314011 0.646678
vt 0.312702 0.647775
vt 0.314210 0.647865
vt 0.315952 0.647432
vt 0.315427 0.646034
vt 0.300935 0.926147
vt 0.303770 0.927832
vt 0.304351 0.926331
vt 0.118845 0.812885
vt 0.309726 0.925074
vt 0.306512 0.926338
vt 0.091923 0.453861
vt 0.090885 0.455047
vt 0.092571 0.454119
vt 0.718785 0.262250
vt 0.718098 0.261737
vt 0.716804 0.263059
vt 0.240465 0.992549
vt 0.242504 0.993860
vt 0.431021 0.020260
vt 0.485778 0.306996
vt 0.485463 0.308070
vt 0.486362 0.308312
vt 0.426674 0.024400
vt 0.970652 0.477289
vt 0.972594 0.477273
vt 0.969849 0.475675
vt 0.968402 0.477241
vt 0.774219 0.734724
vt 0.775264 0.734752
vt 0.778321 0.733392
vt 0.813299 0.584926
vt 0.811170 0.583776
vt 0.812499 0.585514
vt 0.748789 0.978376
vt 0.654556 0.696118
vt 0.653930 0.695557
vt 0.652611 0.695877
vt 0.651349 0.696832
vt 0.447599 0.241752
vt 0.448966 0.242475
vt 0.450307 0.241623
vt 0.928322 0.922242
vt 0.926636 0.922862
vt 0.927007 0.924990
vt 0.070938 0.670208
vt 0.073092 0.671380
vt 0.070816 0.668861
vt 0.712516 0.035997
vt 0.711424 0.035633
vt 0.711631 0.036862
vt 0.308855 0.158533
vt 0.309559 0.160885
vt 0.310618 0.160595
vt 0.521058 0.670036
vt 0.520981 0.669098
vt 0.519938 0.669706
vt 0.661275 0.624703
vt 0.661463 0.623655
vt 0.660497 0.624342
vt 0.853243 0.061451
vt 0.854108 0.062255
vt 0.854687 0.061639
vt 0.821351 0.109936
vt 0.822581 0.109764
vt 0.822555 0.109103
vt 0.344505 0.930217
vt 0.442692 0.008918
vt 0.356980 0.523587
vt 0.356678 0.522847
vt 0.355339 0.523576
vt 0.978282 0.647838
vt 0.980679 0.644970
vt 0.979550 0.645574
vt 0.746043 0.639501
vt 0.748049 0.639525
vt 0.747375 0.636892
vt 0.665245 0.391069
vt 0.663854 0.391323
vt 0.665262 0.392026
vt 0.850862 0.986650
vt 0.848999 0.986090
vt 0.850570 0.987812
vt 0.671320 0.403789
vt 0.672021 0.404297
vt 0.671729 0.403298
vt 0.915796 0.346227
vt 0.916781 0.347800
vt 0.112228 0.121406
vt 0.113524 0.122431
vt 0.112815 0.121335
vt 0.300711 0.087851
vt 0.302485 0.087397
vt 0.303181 0.086471
vt 0.030052 0.538309
vt 0.029400 0.539397
vt 0.031327 0.538298
vt 0.602464 0.652347
vt 0.771592 0.693701
vt 0.773447 0.693089
vt 0.771410 0.692156
vt 0.302848 0.949963
vt 0.301165 0.950284
vt 0.301496 0.950847
vt 0.302896 0.950500
vt 0.422710 0.037837
vt 0.422834 0.038648
vt 0.423987 0.038225
vt 0.628643 0.133317
vt 0.628636 0.133564
vt 0.629017 0.133487
vt 0.735320 0.722404
vt 0.735527 0.722286
vt 0.733717 0.721974
vt 0.732963 0.722141
vt 0.424976 0.041438
vt 0.425169 0.042217
vt 0.427080 0.038932
vt 0.427089 0.038905
vt 0.822774 0.109868
vt 0.822834 0.109724
vt 0.986015 0.446771
vt 0.981788 0.446435
vt 0.984450 0.447057
vt 0.986430 0.447182
vt 0.211652 0.145868
vt 0.210431 0.146111
vt 0.547553 0.285708
vt 0.211044 0.146572
vn 0.0140 0.9445 0.3283
vn -0.0275 0.9264 0.3756
vn 0.0246 0.9421 0.3343
vn -0.0420 -0.7675 0.6397
vn -0.0024 -0.7863 0.6178
vn -0.0009 -0.7587 0.6514
vn 0.2735 -0.9529 0.1307
vn 0.2736 -0.9520 0.1373
vn 0.2684 -0.9537 0.1353
vn 0.3183 0.0862 0.9441
vn 0.2852 0.1156 0.9515
vn 0.3152 0.0593 0.9472
vn -0.0190 -0.6140 0.7891
vn 0.0877 -0.6775 0.7303
vn -0.0156 -0.6032 0.7974
vn 0.0228 -0.5403 -0.8412
vn -0.0423 -0.5427 -0.8388
vn -0.0437 -0.5218 -0.8519
vn -0.1018 0.9903 0.0949
vn -0.1390 0.9901 -0.0169
vn -0.2048 0.9725 0.1112
vn -0.1671 -0.9612 0.2194
vn -0.1684 -0.9513 0.2581
vn -0.1798 -0.9508 0.2522
vn -0.0069 0.2855 -0.9584
vn -0.0230 0.2566 -0.9662
vn -0.0326 0.2616 -0.9646
vn 0.3253 0.7374 0.5919
vn 0.3502 0.7271 0.5905
vn 0.2827 0.8214 0.4954
vn 0.0434 -0.9864 0.1585
vn -0.0222 -0.9873 0.1573
vn 0.0427 -0.9904 0.1315
vn 0.2082 -0.9733 0.0963
vn 0.2066 -0.9668 0.1501
vn 0.1678 -0.9805 0.1026
vn -0.0497 0.9485 0.3129
vn -0.0431 0.9475 0.3168
vn -0.0391 0.9511 0.3064
vn 0.0441 0.9129 0.4059
vn -0.0090 0.9289 0.3701
vn 0.0182 0.9075 0.4196
vn 0.2634 0.4056 0.8753
vn 0.2493 0.3798 0.8908
vn 0.2436 0.2681 0.9321
vn -0.0532 -0.9884 -0.1423
vn 0.0334 -0.9902 -0.1357
vn -0.0131 -0.9925 -0.1217
vn -0.2362 0.9357 -0.2622
vn -0.3334 0.9237 -0.1888
vn -0.1431 0.9553 -0.2588
vn -0.0992 0.9679 -0.2310
vn -0.2865 0.9420 -0.1748
vn -0.1329 0.9847 -0.1131
vn 0.0369 -0.6265 0.7785
vn 0.0424 -0.6320 0.7738
vn 0.0601 -0.5898 0.8053
vn 0.0657 -0.9671 0.2459
vn 0.0515 -0.9648 0.2581
vn 0.0333 -0.9724 0.2307
vn -0.0524 0.7742 0.6307
vn -0.0445 0.7643 0.6434
vn -0.0037 0.7988 0.6016
vn 0.1495 0.0118 0.9887
vn 0.1618 0.0062 0.9868
vn 0.1613 0.0518 0.9855
vn 0.0933 -0.5493 0.8304
vn 0.0402 -0.5540 0.8315
vn 0.0565 -0.6062 0.7933
vn 0.1477 0.8295 0.5387
vn 0.1774 0.8310 0.5273
vn 0.1575 0.8370 0.5241
vn -0.3078 0.4125 -0.8574
vn -0.3222 0.4045 -0.8559
vn -0.3228 0.4444 -0.8357
vn 0.0257 -0.9465 0.3216
vn 0.1042 -0.9556 0.2757
vn 0.0310 -0.9411 0.3367
vn 0.1299 0.3958 -0.9091
vn 0.0311 0.4003 -0.9159
vn 0.0820 0.4241 -0.9019
vn 0.4588 -0.2916 0.8393
vn 0.4576 -0.2989 0.8374
vn 0.4683 -0.3082 0.8280
vn 0.3824 0.2254 0.8961
vn 0.3789 0.2137 0.9004
vn 0.3971 0.2305 0.8884
vn 0.1114 -0.9161 -0.3852
vn 0.0898 -0.9265 -0.3654
vn 0.0619 -0.9062 -0.4184
vn -0.1252 0.9918 -0.0250
vn -0.1017 0.9948 0.0025
vn -0.0217 0.9998 0.0006
vn -0.3965 0.2319 -0.8882
vn -0.4039 0.2387 -0.8831
vn -0.3944 0.2403 -0.8870
vn -0.3306 -0.2130 -0.9194
vn -0.2999 -0.1984 -0.9331
vn -0.2936 -0.2170 -0.9310
vn -0.2637 0.0658 -0.9624
vn -0.2583 0.0242 -0.9658
vn -0.2941 0.0808 -0.9523
vn -0.2352 0.2439 -0.9409
vn -0.2062 0.1775 -0.9623
vn -0.2921 0.2123 -0.9325
vn -0.6134 -0.6375 -0.4662
vn -0.5979 -0.6446 -0.4764
vn -0.6116 -0.6452 -0.4579
vn -0.2143 -0.9742 0.0710
vn -0.2072 -0.9761 0.0649
vn -0.2204 -0.9716 0.0858
vn 0.1679 -0.4771 -0.8627
vn 0.1671 -0.4613 -0.8714
vn 0.2118 -0.4783 -0.8523
vn 0.4549 0.2706 0.8484
vn 0.5027 0.2808 0.8176
vn 0.4495 0.3472 0.8230
vn 0.3936 0.5775 0.7152
vn 0.4228 0.5612 0.7116
vn 0.4463 0.5681 0.6914
vn 0.5622 -0.1874 0.8055
vn 0.4871 -0.2037 0.8493
vn 0.5265 -0.2108 0.8236
vn -0.2084 0.6795 0.7034
vn -0.1746 0.6838 0.7085
vn -0.1629 0.6944 0.7009
vn -0.5718 0.6753 -0.4658
vn -0.6031 0.6530 -0.4582
vn -0.5853 0.7260 -0.3610
vn -0.0972 0.9827 0.1575
vn 0.0493 0.9908 0.1264
vn 0.0338 0.9966 0.0757
vn 0.0213 -0.3969 -0.9176
vn 0.0284 -0.4797 -0.8770
vn -0.0354 -0.4509 -0.8919
vn -0.7688 0.0522 -0.6374
vn -0.7467 0.0646 -0.6620
vn -0.7369 0.0251 -0.6756
vn 0.2739 -0.0647 0.9596
vn 0.3341 -0.1076 0.9364
vn 0.3440 -0.0970 0.9340
vn 0.1216 -0.3150 0.9413
vn 0.0830 -0.3026 0.9495
vn 0.0884 -0.3282 0.9405
vn 0.4374 -0.1734 0.8824
vn 0.2702 -0.1433 0.9521
vn 0.3346 -0.2094 0.9188
vn -0.1060 0.3916 -0.9140
vn -0.1501 0.3671 -0.9180
vn -0.1049 0.4209 -0.9010
vn 0.1059 -0.9766 -0.1872
vn 0.0830 -0.9877 -0.1327
vn 0.0779 -0.9820 -0.1723
vn 0.2480 -0.0529 -0.9673
vn 0.2344 -0.0493 -0.9709
vn 0.2612 -0.0383 -0.9645
vn 0.0769 -0.8038 0.5900
vn 0.1095 -0.8137 0.5709
vn 0.1059 -0.8104 0.5763
vn 0.0466 -0.9295 0.3658
vn 0.0791 -0.9262 0.3686
vn 0.0761 -0.9206 0.3829
vn 0.1931 -0.9679 0.1607
vn 0.1909 -0.9721 0.1366
vn 0.2031 -0.9681 0.1466
vn 0.3621 -0.6206 0.6955
vn 0.3719 -0.6150 0.6953
vn 0.3497 -0.6212 0.7013
vn 0.1951 0.2442 0.9499
vn 0.1914 0.2525 0.9485
vn 0.1853 0.2451 0.9516
vn 0.3215 0.2781 -0.9051
vn 0.2943 0.2172 -0.9307
vn 0.1894 0.2289 -0.9548
vn 0.2773 0.0361 0.9601
vn 0.4117 0.0516 0.9098
vn 0.2246 0.1557 0.9619
vn 0.3009 0.4762 0.8262
vn 0.5052 0.4162 0.7560
vn 0.4017 0.4975 0.7688
vn 0.0370 0.9445 -0.3266
vn -0.1235 0.9596 -0.2526
vn -0.0159 0.9680 -0.2505
vn 0.2010 0.8923 0.4043
vn 0.1313 0.9014 0.4126
vn 0.0201 0.8912 0.4531
vn -0.1750 0.1732 -0.9692
vn -0.1367 0.2126 -0.9675
vn -0.0727 0.1932 -0.9785
vn 0.2980 -0.1191 -0.9471
vn 0.3063 -0.1178 -0.9446
vn 0.2784 -0.1692 -0.9454
vn 0.0017 0.4619 0.8869
vn -0.0420 0.4232 0.9051
vn -0.0071 0.3633 0.9317
vn 0.1272 0.1023 0.9866
vn 0.1185 0.0855 0.9893
vn 0.1723 0.0414 0.9842
vn 0.1850 0.1764 -0.9668
vn 0.1263 0.1142 -0.9854
vn 0.1706 0.2125 -0.9621
vn 0.0561 0.4465 -0.8930
vn -0.0091 0.4085 -0.9127
vn -0.0326 0.4650 -0.8847
vn -0.1661 0.6620 -0.7309
vn -0.2713 0.6691 -0.6919
vn -0.2074 0.6950 -0.6884
vn 0.1182 0.3932 0.9118
vn 0.1234 0.4703 0.8738
vn 0.0916 0.3821 0.9196
vn -0.6433 0.4643 -0.6087
vn -0.6600 0.4215 -0.6219
vn -0.8869 0.1387 -0.4407
vn -0.0543 -0.3819 -0.9226
vn 0.0913 -0.0209 -0.9956
vn 0.1526 0.0049 -0.9883
vn -0.1747 -0.0865 -0.9808
vn -0.1447 -0.0876 -0.9856
vn -0.2350 -0.1094 -0.9658
vn -0.1697 -0.9731 -0.1555
vn -0.2053 -0.9669 -0.1514
vn -0.1702 -0.9704 -0.1713
vn 0.1017 -0.9772 -0.1866
vn 0.2574 -0.9654 -0.0432
vn 0.0833 -0.9848 -0.1526
vn 0.4690 0.1725 -0.8662
vn 0.4661 0.2551 -0.8471
vn 0.5125 0.1566 -0.8443
vn -0.1013 0.1570 0.9824
vn -0.0619 0.1331 0.9892
vn -0.0701 0.1937 0.9785
vn 0.1536 0.2180 0.9638
vn 0.1664 0.1600 0.9730
vn 0.2289 0.1864 0.9554
vn -0.1484 0.9378 -0.3138
vn -0.0595 0.9372 -0.3437
vn -0.1323 0.9265 -0.3524
vn -0.1787 0.9822 0.0585
vn -0.1171 0.9902 0.0763
vn -0.1554 0.9874 0.0314
vn 0.2569 -0.6176 0.7433
vn 0.3092 -0.6162 0.7243
vn 0.2522 -0.5782 0.7759
vn 0.4497 0.3257 0.8317
vn 0.4196 0.3493 0.8378
vn 0.3811 0.2429 0.8920
vn -0.5109 -0.6619 -0.5486
vn -0.5851 -0.5801 -0.5667
vn -0.5195 -0.6191 -0.5889
vn -0.4587 -0.1186 -0.8807
vn -0.4162 -0.1538 -0.8962
vn -0.4866 -0.1014 -0.8677
vn 0.5351 -0.0182 0.8446
vn 0.4957 0.0527 0.8669
vn 0.4904 -0.1255 0.8624
vn 0.1613 -0.1631 -0.9733
vn 0.0171 -0.2199 -0.9754
vn 0.1167 -0.0894 -0.9891
vn -0.0769 0.1780 -0.9810
vn -0.1361 0.1553 -0.9785
vn -0.1493 0.2344 -0.9606
vn 0.2425 -0.4845 0.8405
vn 0.3824 -0.5553 0.7385
vn 0.4392 -0.4025 0.8031
vn 0.4757 -0.4902 -0.7304
vn 0.3215 -0.6032 -0.7300
vn 0.3654 -0.4356 -0.8226
vn 0.2376 0.9570 0.1665
vn 0.2674 0.9477 0.1745
vn 0.2956 0.9454 0.1371
vn 0.2350 0.9580 0.1642
vn 0.2968 0.9438 0.1454
vn 0.2571 0.9570 0.1340
vn 0.2202 0.8631 0.4546
vn 0.2729 0.8359 0.4762
vn 0.2469 0.8643 0.4382
vn 0.2453 0.8460 -0.4734
vn 0.2734 0.8719 -0.4062
vn 0.4284 0.7950 -0.4295
vn 0.0058 0.1380 0.9904
vn 0.0835 0.0633 0.9945
vn 0.0986 0.0669 0.9929
vn 0.7852 0.0016 0.6192
vn 0.8203 -0.1175 0.5598
vn 0.8561 -0.0057 0.5167
vn 0.4092 -0.8174 0.4055
vn 0.3671 -0.8027 0.4700
vn 0.4034 -0.8366 0.3706
vn 0.8513 -0.3518 0.3893
vn 0.8337 -0.2964 0.4659
vn 0.7785 -0.4454 0.4423
vn -0.1421 -0.5730 -0.8072
vn -0.1130 -0.4990 -0.8592
vn -0.1352 -0.5704 -0.8101
vn 0.1887 -0.7904 -0.5828
vn 0.2742 -0.7557 -0.5948
vn 0.2048 -0.7996 -0.5645
vn -0.2517 -0.7123 -0.6552
vn -0.1203 -0.7378 -0.6642
vn -0.1848 -0.7330 -0.6546
vn -0.1856 -0.2008 -0.9619
vn -0.1092 -0.1935 -0.9750
vn -0.1873 -0.2088 -0.9599
vn -0.1723 -0.2147 -0.9614
vn -0.1880 -0.2066 -0.9602
vn -0.1247 -0.1612 -0.9790
vn 0.0601 -0.4025 -0.9134
vn 0.0793 -0.2874 -0.9545
vn 0.1218 -0.3710 -0.9206
vn 0.0531 -0.0755 -0.9957
vn 0.0372 -0.0403 -0.9985
vn 0.0750 -0.0175 -0.9970
vn 0.3127 -0.7273 0.6109
vn 0.2857 -0.6889 0.6661
vn 0.2335 -0.7480 0.6212
vn 0.5256 0.1914 0.8289
vn 0.4967 0.1218 0.8593
vn 0.5304 0.1003 0.8418
vn -0.3959 0.2120 -0.8935
vn -0.4024 0.2274 -0.8868
vn -0.3755 0.2204 -0.9003
vn 0.4216 -0.5151 -0.7463
vn 0.4250 -0.5694 -0.7037
vn 0.4041 -0.5828 -0.7050
vn -0.2991 -0.3516 -0.8871
vn -0.4738 -0.1836 -0.8613
vn -0.3172 -0.1656 -0.9338
vn 0.0359 -0.9944 -0.0998
vn 0.0068 -0.9777 -0.2099
vn 0.0990 -0.9726 -0.2102
vn -0.2009 0.9403 -0.2747
vn -0.2485 0.9417 -0.2271
vn -0.0656 0.9631 -0.2609
vn -0.3703 0.1779 -0.9117
vn -0.3604 0.2153 -0.9076
vn -0.3162 0.0564 -0.9470
vn 0.0259 0.9948 0.0980
vn 0.0897 0.9901 0.1080
vn 0.0878 0.9920 0.0902
vn 0.5230 0.1688 0.8354
vn 0.4352 0.1529 0.8873
vn 0.5581 0.0533 0.8280
vn 0.5727 0.3686 0.7322
vn 0.5619 0.2166 0.7984
vn 0.6617 0.2722 0.6986
vn 0.5630 -0.8246 0.0546
vn 0.5046 -0.8633 -0.0056
vn 0.6353 -0.7714 -0.0367
vn 0.3221 -0.0352 0.9460
vn 0.2474 -0.0193 0.9687
vn 0.3138 -0.0459 0.9484
vn -0.4013 -0.0377 -0.9152
vn -0.3987 -0.0085 -0.9170
vn -0.3805 -0.0440 -0.9238
vn -0.3687 -0.9255 -0.0867
vn -0.2121 -0.9721 -0.1003
vn -0.3936 -0.9167 -0.0688
vn 0.1210 0.4242 0.8974
vn 0.1799 0.5066 0.8432
vn 0.0157 0.5221 0.8528
vn 0.0711 0.6900 -0.7204
vn 0.0575 0.7237 -0.6878
vn 0.0954 0.6683 -0.7378
vn 0.3099 -0.2435 0.9190
vn 0.3553 -0.2586 0.8983
vn 0.3431 -0.2347 0.9095
vn 0.2102 0.4324 -0.8768
vn 0.2117 0.4658 -0.8592
vn 0.2352 0.4500 -0.8615
vn 0.0294 -0.7521 0.6584
vn -0.0280 -0.7601 0.6492
vn 0.0453 -0.7737 0.6319
vn 0.3981 0.0371 0.9166
vn 0.7415 0.1359 0.6570
vn 0.2282 0.6578 0.7178
vn -0.1835 0.8157 0.5486
vn -0.2774 0.8453 0.4565
vn -0.2923 0.7927 0.5350
vn 0.3685 -0.5045 0.7808
vn 0.3244 -0.4865 0.8112
vn 0.2909 -0.4459 0.8465
vn 0.2234 -0.5160 0.8269
vn -0.0858 -0.5201 -0.8498
vn -0.1014 -0.6554 -0.7484
vn -0.2374 -0.5598 -0.7939
vn -0.3373 -0.0963 -0.9365
vn -0.4004 -0.1262 -0.9076
vn -0.4080 -0.0926 -0.9083
vn -0.4668 -0.7872 -0.4031
vn -0.4083 -0.8346 -0.3697
vn -0.4857 -0.7998 -0.3528
vn -0.4969 0.0846 -0.8637
vn -0.4469 0.1495 -0.8820
vn -0.4792 0.0878 -0.8733
vn -0.0078 0.0527 0.9986
vn 0.3285 0.2308 0.9158
vn 0.1676 0.2117 0.9629
vn 0.0695 -0.6456 -0.7605
vn -0.0102 -0.6119 -0.7909
vn 0.0847 -0.6143 -0.7845
vn 0.0227 -0.9972 -0.0714
vn -0.0589 -0.9977 -0.0347
vn 0.0266 -0.9965 -0.0795
vn 0.5549 0.4060 0.7262
vn 0.4409 0.4983 0.7465
vn 0.5247 0.3793 0.7621
vn 0.8732 0.1893 -0.4491
vn 0.8123 0.2590 -0.5225
vn 0.8734 0.2002 -0.4439
vn 0.3668 0.1904 -0.9106
vn 0.4773 0.2308 -0.8479
vn 0.3707 0.1453 -0.9173
vn -0.0546 -0.5673 -0.8217
vn 0.0099 -0.5335 -0.8458
vn 0.0287 -0.6504 -0.7590
vn 0.0797 0.3741 0.9240
vn 0.0447 0.2382 0.9702
vn 0.2817 0.1600 0.9461
vn -0.3194 -0.8969 0.3059
vn -0.4243 -0.8724 0.2426
vn -0.2361 -0.9562 0.1730
vn 0.2091 -0.6305 0.7475
vn 0.1454 -0.6293 0.7635
vn 0.0647 -0.6816 0.7288
vn -0.1619 0.0230 -0.9865
vn -0.0637 -0.0257 -0.9976
vn -0.1054 -0.0555 -0.9929
vn -0.0224 -0.9926 -0.1192
vn -0.0353 -0.9893 -0.1417
vn -0.0266 -0.9903 -0.1365
vn -0.0165 -0.9909 -0.1339
vn -0.3640 0.0762 -0.9283
vn -0.3203 0.0828 -0.9437
vn -0.3269 0.0568 -0.9434
vn -0.3449 0.0574 -0.9369
vn -0.1437 -0.9653 -0.2182
vn -0.1288 -0.9642 -0.2320
vn -0.1203 -0.9678 -0.2210
vn 0.0596 -0.9964 0.0606
vn 0.1304 -0.9889 0.0709
vn 0.0789 -0.9920 0.0989
vn -0.2647 0.6565 -0.7064
vn -0.2526 0.6746 -0.6936
vn -0.2563 0.6500 -0.7155
vn -0.2709 0.6447 -0.7148
vn 0.1283 -0.7151 0.6871
vn 0.1751 -0.7580 0.6283
vn 0.1945 -0.6877 0.6995
vn 0.2218 0.3950 0.8915
vn 0.2098 0.3499 0.9130
vn 0.2675 0.3798 0.8855
vn 0.2275 0.3992 0.8882
vn 0.0207 0.9511 0.3083
vn 0.0330 0.9488 0.3143
vn 0.0387 0.9476 0.3171
vn 0.0304 0.9546 0.2962
vn -0.9622 -0.0090 0.2722
vn -0.9530 0.0531 0.2983
vn -0.9787 -0.0836 0.1876
vn -0.9758 0.0150 0.2181
vn -0.9771 -0.0241 0.2113
vn -0.9623 -0.0050 0.2720
vn -0.9625 -0.0053 0.2714
vn -0.9615 -0.0075 0.2748
vn -0.9622 0.0017 0.2722
vn -0.9647 0.0578 0.2570
vn -0.9626 -0.0090 0.2709
vn -0.9623 -0.0053 0.2720
vn -0.9641 -0.0023 0.2656
vn -0.9620 -0.0091 0.2728
vn -0.9568 0.0067 0.2906
vn -0.9620 -0.0019 0.2730
vn -0.9626 -0.0292 0.2695
vn -0.9565 -0.0176 0.2913
vn -0.9624 -0.0051 0.2715
vn -0.9649 -0.0268 0.2614
vn -0.9583 -0.0250 0.2847
vn -0.9624 -0.0051 0.2717
vn -0.9695 -0.0344 0.2425
vn -0.9591 -0.0464 0.2791
vn -0.9623 -0.0052 0.2719
vn -0.9632 -0.0072 0.2686
usemtl sungaya_inexpectata_31mg
s off
f 14/1/1 10/2/2 9/3/3
f 19/4/4 12/5/5 13/6/6
f 35/7/7 44/8/8 73/9/9
f 54/10/10 31/11/11 18/12/12
f 20/13/13 23/14/14 70/15/15
f 59/16/16 33/17/17 32/18/18
f 66/19/19 27/20/20 26/21/21
f 29/22/22 4/23/23 13/24/24
f 65/25/25 10/26/26 8/27/27
f 52/28/28 15/29/29 23/30/30
f 39/31/31 4/32/32 5/33/33
f 41/34/34 24/35/35 5/36/36
f 7/37/37 10/38/38 14/1/39
f 14/39/40 6/40/41 7/41/42
f 18/42/43 30/43/44 11/44/45
f 70/45/46 13/46/47 22/47/48
f 28/48/49 67/49/50 7/50/51
f 7/51/52 67/52/53 8/53/54
f 34/54/55 20/55/56 70/56/57
f 5/57/58 4/58/59 29/59/60
f 16/60/61 28/61/62 6/62/63
f 30/63/64 18/12/65 31/11/66
f 19/64/67 70/65/68 23/66/69
f 27/67/70 46/68/71 62/69/72
f 26/70/73 64/71/74 47/72/75
f 29/73/76 42/74/77 5/75/78
f 3/76/79 51/77/80 21/78/81
f 54/79/82 18/80/83 49/81/84
f 18/82/85 48/83/86 49/84/87
f 22/85/88 25/86/89 70/87/90
f 46/88/91 51/77/92 52/89/93
f 78/90/94 61/91/95 85/92/96
f 57/93/97 43/94/98 1/95/99
f 1/96/100 66/97/101 57/98/102
f 2/99/103 51/100/104 66/101/105
f 50/102/106 53/103/107 59/104/108
f 13/105/109 4/106/110 69/107/111
f 21/108/112 22/109/113 63/110/114
f 49/111/115 62/112/116 36/113/117
f 49/114/118 27/115/119 62/116/120
f 48/117/121 11/118/122 64/119/123
f 46/120/124 52/121/125 23/122/126
f 27/123/127 64/71/128 26/70/129
f 51/124/130 3/125/131 52/126/132
f 22/127/133 21/128/134 25/129/135
f 17/130/136 63/131/137 37/132/138
f 12/5/139 16/133/140 29/73/141
f 20/134/142 34/135/143 62/136/144
f 11/137/145 38/138/146 64/139/147
f 47/72/148 38/140/149 56/141/150
f 24/142/151 65/143/152 39/144/153
f 8/27/154 55/145/155 65/25/156
f 35/146/157 34/135/158 70/15/159
f 35/146/160 70/15/161 44/147/162
f 39/148/163 5/149/164 24/150/165
f 42/151/166 41/152/167 5/153/168
f 84/154/169 76/155/170 42/156/171
f 56/157/172 38/158/173 71/159/174
f 38/160/175 11/161/176 71/162/177
f 71/163/178 11/164/179 30/165/180
f 45/166/181 27/167/182 66/168/183
f 45/169/184 46/68/185 27/170/186
f 26/70/187 57/171/188 66/101/189
f 58/172/190 57/173/191 26/174/192
f 42/175/193 6/176/194 14/177/195
f 29/178/196 16/179/197 6/180/198
f 61/181/199 10/182/200 65/25/201
f 21/183/202 51/100/203 2/99/204
f 9/184/205 10/185/206 61/186/207
f 27/187/208 49/188/209 48/189/210
f 47/190/211 64/191/212 72/192/213
f 72/193/214 38/194/215 47/195/216
f 1/196/217 2/99/218 66/101/219
f 25/197/220 44/198/221 70/199/222
f 24/200/223 40/201/224 65/202/225
f 32/203/226 60/204/227 59/205/228
f 62/206/229 46/120/230 20/207/231
f 20/208/232 46/209/233 23/66/234
f 66/168/235 51/210/236 45/166/237
f 45/211/238 51/77/239 46/212/240
f 36/213/241 34/135/242 35/146/243
f 48/214/244 18/42/245 11/44/246
f 59/215/247 60/216/248 50/217/249
f 59/218/250 47/72/251 56/141/252
f 64/219/253 38/220/254 72/221/255
f 8/27/256 67/222/257 55/145/258
f 55/145/259 67/222/260 68/223/261
f 53/224/262 54/225/263 73/226/264
f 57/227/265 58/228/266 73/229/267
f 3/230/268 37/231/269 28/232/270
f 3/230/271 28/232/272 15/233/273
f 15/234/274 28/235/275 16/236/276
f 7/237/277 8/238/278 10/239/279
f 29/73/280 6/240/281 42/74/282
f 54/241/283 49/242/284 36/243/285
f 35/244/286 73/245/287 36/243/288
f 36/243/289 73/245/290 54/241/291
f 57/246/292 44/247/293 43/248/294
f 73/229/295 44/249/296 57/227/297
f 44/247/298 25/250/299 43/251/300
f 43/252/301 25/253/302 1/254/303
f 2/255/304 1/256/305 25/257/306
f 2/258/307 25/259/308 21/128/309
f 17/260/310 21/183/311 63/131/312
f 29/73/313 13/6/314 12/5/315
f 12/261/316 15/262/317 16/263/318
f 37/132/319 63/131/320 68/264/321
f 39/265/322 65/266/323 55/267/324
f 55/267/325 68/268/326 39/265/327
f 68/269/328 4/270/329 39/271/330
f 28/272/331 37/273/332 67/274/333
f 37/132/334 68/264/335 67/222/336
f 52/126/337 3/125/338 15/275/339
f 50/276/340 32/277/341 31/11/342
f 32/277/343 33/278/344 31/11/345
f 33/278/346 74/279/347 31/11/348
f 31/11/349 74/279/350 30/63/351
f 63/280/352 69/281/353 68/282/354
f 4/283/355 68/284/356 69/285/357
f 15/286/358 12/287/359 23/288/360
f 3/289/361 17/290/362 37/291/363
f 36/292/364 62/293/365 34/294/366
f 3/295/367 21/296/368 17/297/369
f 13/6/370 70/15/371 19/4/372
f 32/298/373 50/299/374 60/300/375
f 7/301/376 6/302/377 28/303/378
f 76/304/379 77/305/380 41/306/381 42/74/382
f 73/226/383 58/307/384 53/224/385
f 58/308/386 47/72/387 59/218/388
f 53/309/389 58/310/390 59/311/391
f 47/72/392 58/308/393 26/70/394
f 64/312/395 27/313/396 48/314/397
f 63/315/398 22/316/399 69/317/400
f 69/318/401 22/319/402 13/320/403
f 30/321/404 74/322/405 71/323/406
f 71/324/407 74/325/408 33/326/409
f 33/17/410 56/327/411 71/328/412
f 33/329/413 59/330/414 56/331/415
f 50/332/416 31/333/417 53/334/418
f 53/335/419 31/336/420 54/337/421
f 12/338/422 19/64/423 23/66/424
f 65/339/425 40/340/426 61/341/427
f 40/342/428 24/343/429 81/344/430 83/345/431
f 40/346/432 80/347/433 85/348/434 61/181/435
f 40/349/436 83/350/437 80/351/438
f 41/352/439 79/353/440 81/354/441 24/355/441
f 61/356/442 78/357/443 82/358/444 9/359/445
f 41/306/446 77/360/447 79/361/448
f 42/362/449 14/363/450 75/364/451 84/365/452
f 14/366/453 9/367/454 82/368/455 75/369/456
f 84/154/457 77/360/458 76/304/459
f 79/353/460 77/360/461 81/354/462
f 81/354/463 85/92/464 83/350/465
f 77/360/466 84/154/467 81/354/468
f 83/350/469 85/92/470 80/347/471
f 85/92/472 81/354/463 78/357/473
f 78/357/474 81/354/475 82/368/476
f 82/368/477 81/354/478 75/364/479
f 75/364/480 81/354/481 84/154/482
