# Blender v2.79 (sub 0) OBJ File: 'redo_fixed_360_joints.blend'
# www.blender.org
mtllib sungaya_inexpectata_31mg.mtl
o 19-f-l-tarsus.000_Sungaya_inexpectata_31mg.034
v -0.000126 -0.000033 -0.000120
v 0.000047 -0.000072 -0.000006
v 0.000061 -0.000065 0.000054
v -0.000436 0.000039 -0.000045
v 0.000435 0.000113 0.000173
v 0.000359 0.000113 0.000074
v 0.000162 0.000073 0.000057
v -0.000089 -0.000087 0.000021
v -0.000091 0.000054 -0.000072
v -0.000208 0.000070 -0.000102
v -0.000404 -0.000043 -0.000017
v -0.000103 0.000073 -0.000033
v 0.000210 -0.000094 0.000045
v 0.000106 -0.000032 -0.000048
v 0.000446 0.000081 0.000077
v -0.000100 -0.000068 -0.000085
v 0.000393 -0.000067 0.000156
v 0.000071 0.000047 0.000061
v -0.000051 -0.000012 0.000066
v -0.000385 -0.000048 -0.000209
v 0.000401 0.000010 0.000053
v 0.000005 0.000045 -0.000070
v 0.000284 -0.000056 0.000031
v 0.000262 0.000109 0.000031
v 0.000176 0.000093 -0.000013
v -0.000346 0.000054 -0.000163
v 0.000467 0.000097 0.000231
v -0.000273 0.000088 -0.000084
v -0.000310 0.000069 -0.000040
v -0.000180 0.000012 0.000035
v -0.000304 -0.000078 -0.000030
v 0.000239 0.000070 0.000110
v 0.000188 -0.000050 0.000098
v 0.000315 -0.000035 0.000140
v 0.000466 -0.000116 0.000100
v 0.000261 0.000043 0.000144
v -0.000218 -0.000042 0.000029
v 0.000100 -0.000022 0.000092
v 0.000107 0.000017 -0.000042
v 0.000089 0.000083 -0.000003
v 0.000520 -0.000039 0.000014
v 0.000442 -0.000060 0.000051
v -0.000493 0.000082 -0.000187
v -0.000526 0.000043 -0.000070
v -0.000532 -0.000028 -0.000048
v -0.000526 -0.000062 -0.000067
v -0.000481 0.000035 -0.000229
v -0.000525 -0.000067 -0.000071
v -0.000476 -0.000054 -0.000242
v -0.000510 -0.000073 -0.000124
v -0.000482 -0.000059 -0.000222
v -0.000492 0.000082 -0.000188
v -0.000529 0.000010 -0.000057
v -0.000478 -0.000007 -0.000239
v 0.000507 -0.000110 0.000093
v 0.000473 0.000073 0.000235
v 0.000474 0.000096 0.000231
v 0.000505 -0.000118 0.000102
v 0.000487 -0.000069 0.000177
v 0.000524 -0.000038 0.000015
v 0.000524 -0.000041 0.000016
v 0.000507 0.000073 0.000088
v 0.000486 0.000115 0.000177
v 0.000475 -0.000015 0.000231
v 0.000513 0.000056 0.000063
v 0.000522 -0.000013 0.000027
v 0.000474 0.000097 0.000230
v 0.000493 -0.000087 0.000155
v 0.000512 0.000066 0.000067
v 0.000503 -0.000118 0.000109
v 0.000488 0.000115 0.000170
v 0.000473 0.000002 0.000239
v 0.000473 -0.000006 0.000236
vt 0.000000 0.000000
vt 0.000000 0.000000
vt 0.000000 0.000000
vt 0.000000 0.000000
vt 0.000000 0.000000
vt 0.000000 0.000000
vt 0.000000 0.000000
vt 0.000000 0.000000
vt 0.000000 0.000000
vt 0.000000 0.000000
vt 0.000000 0.000000
vt 0.000000 0.000000
vt 0.000000 0.000000
vt 0.000000 0.000000
vt 0.000000 0.000000
vt 0.000000 0.000000
vt 0.000000 0.000000
vt 0.000000 0.000000
vt 0.000000 0.000000
vt 0.828092 0.130687
vt 0.825838 0.125611
vt 0.827753 0.123651
vt 0.425369 0.048377
vt 0.424692 0.052947
vt 0.422337 0.051591
vt 0.879908 0.544317
vt 0.878458 0.546114
vt 0.876305 0.544855
vt 0.986430 0.447182
vt 0.986873 0.447622
vt 0.984450 0.447057
vt 0.423627 0.072156
vt 0.421438 0.069677
vt 0.424833 0.069128
vt 0.377868 0.125737
vt 0.377517 0.125705
vt 0.377501 0.125648
vt 0.340392 0.387585
vt 0.341023 0.385433
vt 0.345677 0.391088
vt 0.739565 0.159732
vt 0.738477 0.160732
vt 0.737065 0.159679
vt 0.346397 0.388585
vt 0.352278 0.393768
vt 0.425169 0.042217
vt 0.427080 0.038932
vt 0.425552 0.043767
vt 0.150871 0.972885
vt 0.150599 0.970134
vt 0.152183 0.971388
vt 0.925152 0.318828
vt 0.926273 0.320645
vt 0.922992 0.318316
vt 0.422301 0.046345
vt 0.423155 0.040757
vt 0.211044 0.146572
vt 0.210490 0.147214
vt 0.210432 0.146121
vt 0.943729 0.549641
vt 0.942432 0.552506
vt 0.940820 0.551356
vt 0.955336 0.485948
vt 0.954601 0.488344
vt 0.954229 0.486954
vt 0.323170 0.658310
vt 0.324398 0.660802
vt 0.321668 0.662968
vt 0.735600 0.964281
vt 0.733219 0.963413
vt 0.734998 0.963106
vt 0.643519 0.278307
vt 0.641942 0.276865
vt 0.643157 0.276507
vt 0.425293 0.066002
vt 0.462878 0.649326
vt 0.465227 0.652792
vt 0.462060 0.650943
vt 0.423934 0.056186
vt 0.302896 0.950500
vt 0.303191 0.953732
vt 0.301496 0.950847
vt 0.421797 0.061022
vt 0.424912 0.063645
vt 0.423476 0.059019
vt 0.425293 0.059996
vt 0.421179 0.058172
vt 0.864035 0.581361
vt 0.864774 0.582961
vt 0.862817 0.582544
vt 0.323507 0.662454
vt 0.825127 0.120190
vt 0.645406 0.279110
vt 0.644361 0.278638
vt 0.644696 0.277113
vt 0.080065 0.685377
vt 0.078318 0.683996
vt 0.082222 0.681892
vt 0.425442 0.045682
vt 0.783736 0.949572
vt 0.783120 0.948209
vt 0.785663 0.948923
vt 0.350813 0.395514
vt 0.745009 0.895320
vt 0.745124 0.895457
vt 0.744846 0.895494
vt 0.745169 0.895690
vt 0.712325 0.086862
vt 0.711544 0.089032
vt 0.711278 0.087459
vt 0.055853 0.224859
vt 0.056817 0.223751
vt 0.058270 0.224169
vt 0.455656 0.734112
vt 0.454541 0.735503
vt 0.455110 0.732049
vt 0.463338 0.648050
vt 0.459773 0.645034
vt 0.918460 0.710553
vt 0.918101 0.711569
vt 0.916232 0.711543
vt 0.502933 0.689554
vt 0.503379 0.691473
vt 0.501932 0.691395
vt 0.777639 0.686533
vt 0.777961 0.685637
vt 0.779534 0.687394
vt 0.706347 0.093883
vt 0.707071 0.092991
vt 0.707803 0.094213
vt 0.422834 0.038648
vt 0.423987 0.038225
vt 0.242975 0.933255
vt 0.244491 0.933669
vt 0.240814 0.935900
vt 0.151343 0.158831
vt 0.150136 0.158961
vt 0.150253 0.157700
vt 0.629017 0.133487
vt 0.629990 0.133930
vt 0.628595 0.135053
vt 0.628636 0.133564
vt 0.955736 0.474696
vt 0.952762 0.473585
vt 0.956498 0.473946
vt 0.879810 0.318101
vt 0.882837 0.319082
vt 0.880198 0.319087
vt 0.952951 0.615031
vt 0.953298 0.613358
vt 0.955287 0.615374
vt 0.453533 0.728682
vt 0.352135 0.781495
vt 0.353949 0.778769
vt 0.352271 0.784412
vt 0.116633 0.843308
vt 0.117212 0.842358
vt 0.118274 0.847183
vt 0.735527 0.722286
vt 0.733717 0.721974
vt 0.737576 0.721121
vt 0.822834 0.109724
vt 0.825594 0.115849
vt 0.824041 0.114293
vt 0.822774 0.109868
vt 0.422875 0.060617
vt 0.584914 0.141769
vt 0.583389 0.140689
vt 0.584278 0.140096
vt 0.833162 0.952497
vt 0.835027 0.952040
vt 0.835284 0.953081
vt 0.824476 0.122489
vt 0.095692 0.863921
vt 0.094406 0.863122
vt 0.093506 0.859595
vt 0.547697 0.795863
vt 0.548804 0.800885
vt 0.546764 0.798322
vt 0.189355 0.658741
vt 0.190627 0.659144
vt 0.190441 0.659759
vt 0.359944 0.696121
vt 0.359910 0.695788
vt 0.361401 0.695422
vt 0.361371 0.695485
vt 0.361392 0.695566
vt 0.911607 0.369055
vt 0.911642 0.369088
vt 0.911512 0.369047
vt 0.730287 0.725252
vt 0.730682 0.725519
vt 0.730611 0.725537
vt 0.829095 0.128750
vt 0.829955 0.126814
vt 0.343937 0.387723
vt 0.148854 0.972842
vt 0.148213 0.971034
vt 0.018959 0.095904
vt 0.020654 0.097438
vt 0.018883 0.097216
vt 0.831434 0.132214
vt 0.129892 0.553423
vt 0.132130 0.552593
vt 0.131551 0.553398
vt 0.923520 0.100083
vt 0.924837 0.102218
vt 0.923447 0.101858
vt 0.924490 0.100538
vt 0.352696 0.395586
vt 0.844938 0.408443
vt 0.843277 0.411999
vt 0.841882 0.412203
vt 0.844678 0.409925
vt 0.419229 0.069660
vt 0.420186 0.065645
vt 0.374319 0.936321
vt 0.372508 0.935244
vt 0.373266 0.934644
vt 0.772210 0.785015
vt 0.772936 0.786653
vt 0.771432 0.787073
vt 0.957626 0.598823
vt 0.957404 0.599158
vt 0.956332 0.597955
vt 0.956629 0.597994
vt 0.444776 0.135242
vt 0.444268 0.134193
vt 0.445380 0.132403
vt 0.887101 0.425999
vt 0.887141 0.427204
vt 0.884668 0.425287
vt 0.766031 0.627104
vt 0.766000 0.628893
vt 0.765177 0.628292
vt 0.765044 0.627587
vt 0.333192 0.383009
vt 0.230667 0.944920
vt 0.231743 0.942960
vt 0.232894 0.941914
vt 0.233110 0.943104
vt 0.822734 0.113583
vt 0.821351 0.109936
vt 0.822581 0.109764
vt 0.336637 0.381492
vt 0.333193 0.382986
vt 0.830162 0.137615
vt 0.829570 0.140136
vt 0.829342 0.140337
vt 0.827837 0.139085
vt 0.419713 0.073714
vt 0.421503 0.074106
vt 0.420177 0.073961
vt 0.973253 0.810957
vt 0.974078 0.812207
vt 0.974065 0.812419
vt 0.972491 0.811830
vt 0.831536 0.138570
vt 0.829883 0.140101
vt 0.608438 0.026001
vt 0.608557 0.026228
vt 0.608352 0.026404
vt 0.663583 0.572858
vt 0.661152 0.573222
vt 0.660742 0.572999
vt 0.661911 0.571579
vt 0.877107 0.600230
vt 0.875170 0.599070
vt 0.876815 0.598893
vt 0.877076 0.599902
vt 0.840245 0.375471
vt 0.840361 0.375520
vt 0.841543 0.377189
vt 0.840978 0.377293
vn 0.9746 0.0066 0.2239
vn -0.2005 -0.2421 0.9493
vn -0.1307 -0.0576 0.9897
vn -0.0854 -0.9306 0.3561
vn 0.2098 0.7364 -0.6432
vn 0.1826 0.7165 -0.6733
vn 0.3036 -0.1547 -0.9402
vn 0.0580 -0.9944 -0.0878
vn 0.0768 -0.9807 -0.1799
vn 0.2773 -0.3672 -0.8878
vn -0.8364 0.2216 0.5013
vn -0.2027 0.6254 0.7535
vn -0.7535 0.5679 0.3314
vn 0.1552 0.7198 -0.6766
vn 0.0646 0.1735 -0.9827
vn 0.0957 0.8895 -0.4467
vn -0.3821 0.0677 0.9216
vn -0.0385 0.4707 0.8815
vn -0.2231 0.6046 0.7646
vn 0.0803 0.9943 -0.0701
vn -0.1682 0.8146 0.5551
vn -0.0105 0.9894 0.1446
vn 0.1290 -0.8544 -0.5033
vn -0.1053 -0.9568 0.2712
vn -0.2215 0.4281 0.8762
vn -0.1869 0.6728 0.7158
vn -0.4100 0.3278 -0.8512
vn -0.8119 0.4667 -0.3509
vn 0.2923 0.5905 -0.7522
vn -0.2703 0.8084 0.5228
vn -0.2171 0.8918 0.3969
vn 0.3162 -0.5145 -0.7971
vn -0.7709 0.6334 0.0670
vn -0.0783 -0.9893 -0.1232
vn -0.3433 -0.7637 0.5467
vn -0.3455 -0.5382 0.7687
vn -0.2479 -0.6358 0.7310
vn -0.3670 0.1788 0.9129
vn -0.1679 -0.7479 0.6422
vn -0.3273 -0.5794 0.7465
vn 0.1207 0.8346 -0.5374
vn 0.2332 0.5330 -0.8133
vn -0.6102 -0.7177 -0.3355
vn -0.6510 -0.7318 -0.2017
vn 0.1443 0.6333 -0.7604
vn 0.2444 0.2384 -0.9399
vn 0.0149 0.9923 -0.1227
vn -0.2378 -0.3249 0.9154
vn -0.1750 -0.8160 0.5510
vn -0.0490 -0.7532 -0.6559
vn -0.0663 -0.9147 -0.3986
vn -0.1483 -0.9563 0.2519
vn -0.2977 -0.2705 0.9155
vn -0.3375 0.9133 0.2280
vn -0.3343 -0.5073 -0.7943
vn -0.4141 0.1446 -0.8987
vn 0.2207 -0.3171 -0.9224
vn -0.1172 -0.4521 -0.8843
vn -0.0525 -0.1425 -0.9884
vn -0.7497 -0.6472 0.1378
vn -0.7553 -0.5156 0.4045
vn 0.1280 0.9372 -0.3244
vn -0.0556 0.9562 -0.2876
vn -0.0637 0.9891 0.1328
vn -0.0493 0.8833 0.4662
vn 0.2183 0.1235 -0.9680
vn 0.0836 -0.5960 -0.7986
vn -0.1052 0.4391 -0.8923
vn -0.0662 -0.8400 0.5385
vn -0.7778 -0.1180 0.6174
vn -0.4312 -0.4227 0.7971
vn -0.4558 -0.1684 0.8740
vn -0.0860 0.3884 -0.9175
vn 0.0120 0.6296 -0.7768
usemtl sungaya_inexpectata_31mg
s off
f 64/1/1 59/2/1 68/3/1 70/4/1 58/5/1 55/6/1 61/7/1 60/8/1 66/9/1 65/10/1 69/11/1 62/12/1 71/13/1 63/14/1 67/15/1 57/16/1 56/17/1 72/18/1 73/19/1
s 1
f 38/20/2 19/21/3 8/22/4
f 10/23/5 9/24/6 1/25/7
f 13/26/8 2/27/9 14/28/10
f 53/29/11 4/30/12 44/31/13
f 15/32/14 21/33/15 6/34/16
f 56/35/17 57/36/18 27/37/19
f 28/38/20 29/39/21 12/40/22
f 16/41/23 8/42/4 31/43/24
f 30/44/25 18/45/26 12/40/22
f 47/46/27 52/47/28 26/48/29
f 32/49/30 7/50/31 18/51/26
f 19/52/3 18/53/26 30/54/25
f 26/48/29 1/55/7 20/56/32
f 44/57/13 4/58/12 43/59/33
f 16/60/23 31/61/24 20/62/32
f 35/63/34 17/64/35 34/65/36
f 38/66/2 33/67/37 36/68/38
f 27/69/19 32/70/30 36/71/38
f 59/72/39 64/73/40 17/74/35
f 24/75/41 6/34/16 21/33/15
f 16/76/23 2/77/9 8/78/4
f 1/25/7 9/24/6 22/79/42
f 51/80/43 31/81/24 50/82/44
f 24/75/41 14/83/10 25/84/45
f 39/85/46 22/79/42 40/86/47
f 39/85/46 14/87/10 22/79/42
f 13/88/8 33/89/37 38/90/2
f 33/67/37 34/91/36 36/68/38
f 19/21/3 37/92/48 8/22/4
f 68/93/49 59/94/39 17/95/35
f 27/96/19 6/97/16 32/98/30
f 10/23/5 1/25/7 26/99/29
f 22/100/42 12/101/22 40/102/47
f 12/40/22 18/45/26 40/103/47
f 55/104/50 58/105/51 35/106/34
f 58/105/51 70/107/52 35/106/34
f 28/108/20 12/109/22 10/110/5
f 22/79/42 14/87/10 1/25/7
f 11/111/53 31/112/24 37/113/48
f 37/114/48 30/115/25 11/116/53
f 1/117/7 16/76/23 20/118/32
f 5/119/54 15/120/14 6/121/16
f 10/122/5 12/123/22 9/124/6
f 26/125/29 28/126/20 10/127/5
f 5/128/54 6/129/16 27/130/19
f 49/131/55 54/132/56 20/56/32
f 9/133/6 12/134/22 22/135/42
f 24/136/41 21/137/15 23/138/57
f 49/139/55 20/140/32 31/141/24 51/142/43
f 32/143/30 18/144/26 36/145/38
f 38/146/2 36/147/38 18/148/26
f 42/149/58 21/150/15 41/151/59
f 11/116/53 30/115/25 4/152/12
f 29/153/21 4/154/12 30/155/25
f 18/156/26 19/157/3 38/158/2
f 48/159/60 50/160/44 31/161/24
f 48/162/60 31/163/24 11/164/53 46/165/61
f 25/84/45 14/83/10 39/166/46
f 25/167/45 39/168/46 40/169/47
f 1/170/7 14/171/10 16/172/23
f 19/21/3 30/173/25 37/92/48
f 35/174/34 34/175/36 13/176/8
f 13/177/8 34/178/36 33/179/37
f 62/180/62 5/181/54 71/182/63
f 63/183/64 5/184/54 27/185/19 67/186/65
f 67/186/65 27/185/19 57/187/18
f 60/188/66 61/189/67 41/190/59
f 66/191/68 60/192/66 41/193/59
f 3/194/69 8/22/4 2/195/9
f 38/20/2 8/22/4 3/194/69
f 31/163/24 8/22/4 37/92/48
f 29/39/21 30/196/25 12/40/22
f 32/197/30 24/198/41 7/50/31
f 32/199/30 6/200/16 24/201/41
f 13/202/8 38/20/2 3/194/69
f 2/203/9 13/204/8 3/205/69
f 40/206/47 24/207/41 25/208/45
f 7/209/31 24/207/41 40/206/47
f 40/103/47 18/45/26 7/210/31
f 42/211/58 13/212/8 23/213/57
f 35/214/34 13/212/8 42/211/58
f 21/33/15 42/215/58 23/216/57
f 41/217/59 35/218/34 42/219/58
f 14/220/10 2/221/9 16/222/23
f 14/83/10 24/75/41 23/216/57
f 68/223/49 17/224/35 35/225/34 70/226/52
f 23/227/57 13/228/8 14/229/10
f 28/230/20 26/231/29 52/232/28
f 26/233/29 20/234/32 54/235/56 47/236/27
f 28/38/20 52/237/28 29/39/21
f 4/238/12 53/239/11 45/240/70 11/241/53
f 11/242/53 45/243/70 46/244/61
f 4/245/12 29/39/21 52/237/28 43/246/33
f 34/247/36 73/248/71 72/249/72 36/250/38
f 41/251/59 21/33/15 65/252/73 66/253/68
f 15/254/14 69/255/74 65/256/73 21/257/15
f 34/247/36 17/258/35 64/259/40 73/248/71
f 5/260/54 63/261/64 71/262/63
f 5/263/54 62/264/62 69/265/74 15/266/14
f 27/267/19 36/268/38 72/269/72 56/270/17
f 41/271/59 61/272/67 55/273/50 35/274/34
f 52/47/28 47/236/27 54/132/56 49/139/55 51/80/43 50/160/44 48/162/60 46/244/61 45/240/70 53/29/11 44/57/13 43/246/33
