# Blender v2.79 (sub 0) OBJ File: 'redo_fixed_360_joints.blend'
# www.blender.org
mtllib sungaya_inexpectata_31mg.mtl
o 42-h-r-coxa_Sungaya_inexpectata_31mg.049
v 0.000239 0.000004 0.000018
v 0.000271 0.000066 0.000174
v -0.000084 -0.000145 -0.000294
v 0.000236 0.000033 -0.000073
v -0.000005 -0.000060 0.000361
v 0.000051 0.000193 -0.000344
v -0.000096 -0.000034 -0.000331
v 0.000137 0.000175 0.000205
v -0.000077 -0.000162 -0.000035
v -0.000035 -0.000153 0.000333
v 0.000269 0.000218 -0.000049
v 0.000201 0.000241 -0.000093
v 0.000092 0.000249 -0.000103
v 0.000022 0.000220 -0.000171
v -0.000146 0.000062 -0.000354
v -0.000076 0.000140 -0.000302
v -0.000233 0.000156 -0.000200
v 0.000189 -0.000269 0.000088
v 0.000231 -0.000250 0.000128
v -0.000067 0.000211 -0.000137
v 0.000113 0.000097 0.000297
v -0.000298 0.000015 -0.000297
v -0.000286 -0.000117 -0.000189
v -0.000298 -0.000112 -0.000081
v -0.000056 -0.000226 0.000262
v 0.000088 0.000258 0.000026
v -0.000132 -0.000235 0.000320
v -0.000211 -0.000259 0.000258
v -0.000092 0.000069 -0.000360
v 0.000169 -0.000048 0.000303
v 0.000254 -0.000070 0.000258
v -0.000022 0.000147 0.000307
v -0.000115 0.000234 0.000080
v -0.000146 -0.000248 0.000413
v -0.000133 -0.000212 0.000118
v 0.000020 -0.000272 0.000188
v 0.000237 -0.000212 -0.000081
v -0.000234 0.000216 -0.000044
v 0.000199 -0.000251 -0.000123
v 0.000114 -0.000238 -0.000006
v 0.000005 0.000047 0.000358
v 0.000254 -0.000125 0.000179
v 0.000023 0.000144 -0.000394
v 0.000100 0.000002 -0.000383
v -0.000142 0.000244 0.000164
v -0.000033 0.000206 0.000213
v 0.000180 0.000246 -0.000208
v 0.000114 0.000237 -0.000251
v 0.000181 0.000249 0.000051
v -0.000163 -0.000127 -0.000290
v 0.000118 -0.000203 0.000258
v 0.000254 0.000090 0.000247
v -0.000106 -0.000131 0.000454
v -0.000079 -0.000144 -0.000117
v 0.000094 -0.000118 0.000307
v 0.000286 0.000192 0.000019
v 0.000232 0.000175 0.000149
v 0.000045 -0.000190 -0.000320
v 0.000082 -0.000221 -0.000258
v 0.000241 -0.000171 0.000231
v 0.000254 0.000128 -0.000053
v -0.000265 -0.000084 -0.000275
v 0.000064 -0.000111 -0.000402
v 0.000120 -0.000173 -0.000345
v -0.000264 -0.000121 0.000018
v 0.000241 -0.000180 -0.000091
v 0.000012 -0.000003 -0.000418
v -0.000105 -0.000242 0.000196
v 0.000016 -0.000144 -0.000381
v 0.000132 0.000159 -0.000325
v 0.000103 0.000003 -0.000384
v 0.000199 0.000251 -0.000197
v 0.000182 0.000230 -0.000230
v 0.000255 -0.000174 -0.000094
v 0.000167 -0.000231 -0.000263
v 0.000249 -0.000219 -0.000107
v 0.000271 0.000206 -0.000060
v 0.000147 0.000178 -0.000298
v 0.000109 0.000029 -0.000371
v 0.000229 -0.000247 -0.000144
v 0.000151 -0.000216 -0.000293
v 0.000169 0.000208 -0.000255
v 0.000270 0.000220 -0.000063
v 0.000105 -0.000022 -0.000378
v 0.000108 -0.000106 -0.000374
v 0.000137 0.000167 -0.000317
v 0.000277 0.000192 -0.000049
v 0.000124 -0.000180 -0.000345
v 0.000272 0.000120 -0.000059
v 0.000268 0.000172 -0.000067
v 0.000257 0.000229 -0.000086
v 0.000263 0.000035 -0.000078
v 0.000262 0.000018 -0.000080
v 0.000121 -0.000155 -0.000350
v 0.000248 -0.000190 -0.000107
v 0.000123 -0.000173 -0.000346
v 0.000190 0.000246 -0.000214
v 0.000220 0.000253 -0.000156
v 0.000271 0.000218 -0.000060
v 0.000216 -0.000247 -0.000170
v 0.000253 -0.000179 -0.000097
v -0.000164 -0.000261 0.000405
v -0.000136 0.000267 0.000235
v -0.000134 -0.000215 0.000473
v -0.000152 -0.000265 0.000445
v -0.000334 0.000072 -0.000273
v -0.000352 -0.000012 -0.000284
v -0.000123 -0.000167 0.000484
v -0.000332 0.000084 -0.000272
v -0.000236 0.000217 -0.000043
v -0.000213 -0.000258 0.000256
v -0.000325 0.000097 -0.000257
v -0.000117 -0.000097 0.000469
v -0.000242 0.000210 -0.000059
v -0.000103 0.000204 0.000367
v -0.000354 -0.000039 -0.000277
v -0.000232 -0.000235 0.000186
v -0.000240 -0.000224 0.000157
v -0.000113 -0.000072 0.000468
v -0.000301 -0.000112 -0.000080
v -0.000102 0.000202 0.000369
v -0.000270 -0.000122 0.000018
v -0.000100 0.000140 0.000406
v -0.000300 0.000155 -0.000208
v -0.000166 0.000255 0.000149
v -0.000354 -0.000085 -0.000257
v -0.000330 -0.000120 -0.000167
v -0.000112 -0.000062 0.000467
v -0.000336 -0.000120 -0.000185
v -0.000352 -0.000099 -0.000243
v -0.000172 0.000249 0.000136
v -0.000124 0.000267 0.000273
v -0.000123 -0.000140 0.000471
v -0.000331 0.000088 -0.000269
v -0.000267 -0.000129 0.000030
v -0.000212 -0.000260 0.000260
v -0.000212 -0.000259 0.000258
v -0.000269 -0.000123 0.000021
vt 0.419004 0.487637
vt 0.420535 0.492837
vt 0.421718 0.489290
vt 0.411353 0.680863
vt 0.410706 0.677316
vt 0.409199 0.677478
vt 0.615441 0.622093
vt 0.617094 0.622631
vt 0.616470 0.618853
vt 0.965150 0.760499
vt 0.967447 0.760701
vt 0.967371 0.759371
vt 0.887003 0.109075
vt 0.887488 0.109981
vt 0.888334 0.105873
vt 0.636248 0.621632
vt 0.637335 0.619909
vt 0.636374 0.619785
vt 0.231802 0.193716
vt 0.232857 0.191805
vt 0.231393 0.191658
vt 0.055874 0.425235
vt 0.056174 0.424903
vt 0.055848 0.424422
vt 0.055013 0.424853
vt 0.229328 0.129874
vt 0.228604 0.129117
vt 0.229334 0.130971
vt 0.545398 0.163945
vt 0.547942 0.163524
vt 0.547062 0.161779
vt 0.078075 0.887454
vt 0.077928 0.888518
vt 0.078958 0.890457
vt 0.533469 0.172153
vt 0.538114 0.173358
vt 0.539331 0.172187
vt 0.959460 0.173538
vt 0.961201 0.174500
vt 0.961191 0.173331
vt 0.475870 0.681010
vt 0.475062 0.682251
vt 0.476854 0.682381
vt 0.034937 0.833857
vt 0.035592 0.834089
vt 0.035103 0.832412
vt 0.422048 0.485456
vt 0.210977 0.466213
vt 0.209330 0.467194
vt 0.210417 0.467102
vt 0.637429 0.619573
vt 0.638156 0.619213
vt 0.706947 0.301660
vt 0.701554 0.300139
vt 0.704384 0.303502
vt 0.811800 0.665997
vt 0.814901 0.667974
vt 0.812541 0.662919
vt 0.987925 0.997847
vt 0.986926 0.996269
vt 0.986592 0.997714
vt 0.813312 0.662115
vt 0.812093 0.661571
vt 0.533415 0.167528
vt 0.101870 0.012134
vt 0.101912 0.007451
vt 0.097858 0.009260
vt 0.064878 0.944970
vt 0.066209 0.940805
vt 0.065044 0.942161
vt 0.934945 0.555008
vt 0.933358 0.555876
vt 0.935531 0.555989
vt 0.116951 0.632529
vt 0.112819 0.630630
vt 0.111791 0.630417
vt 0.112386 0.636385
vt 0.479704 0.679163
vt 0.544031 0.171914
vt 0.548730 0.167100
vt 0.266574 0.671339
vt 0.265967 0.671315
vt 0.265928 0.671315
vt 0.266520 0.671339
vt 0.535882 0.175883
vt 0.825501 0.664517
vt 0.824624 0.664773
vt 0.825614 0.666088
vt 0.702418 0.304026
vt 0.701435 0.303938
vt 0.540607 0.165658
vt 0.542535 0.168410
vt 0.543242 0.166273
vt 0.168809 0.730869
vt 0.167086 0.733936
vt 0.168538 0.733576
vt 0.710595 0.532172
vt 0.709658 0.532933
vt 0.711961 0.534318
vt 0.543707 0.158786
vt 0.539035 0.178160
vt 0.104257 0.008916
vt 0.620977 0.259182
vt 0.620539 0.258153
vt 0.619674 0.257725
vt 0.198585 0.737013
vt 0.201122 0.739262
vt 0.199290 0.736873
vt 0.800018 0.295929
vt 0.801461 0.296591
vt 0.800756 0.295457
vt 0.190001 0.098876
vt 0.190406 0.100038
vt 0.191360 0.098447
vt 0.003884 0.914329
vt 0.001390 0.915512
vt 0.004867 0.916836
vt 0.111863 0.630292
vt 0.509746 0.762110
vt 0.507191 0.758993
vt 0.507231 0.762431
vt 0.817002 0.666043
vt 0.814219 0.663249
vt 0.541398 0.171822
vt 0.615259 0.613496
vt 0.613274 0.612438
vt 0.612993 0.616466
vt 0.010038 0.021053
vt 0.014019 0.022004
vt 0.014177 0.021470
vt 0.610474 0.165290
vt 0.610220 0.164681
vt 0.609973 0.164573
vt 0.179762 0.560055
vt 0.178683 0.560254
vt 0.179250 0.561417
vt 0.888384 0.105861
vt 0.888349 0.105794
vt 0.539526 0.160920
vt 0.813865 0.676134
vt 0.816325 0.673196
vt 0.812834 0.673400
vt 0.421018 0.481957
vt 0.420905 0.481901
vt 0.420862 0.482195
vt 0.773238 0.905321
vt 0.775631 0.905285
vt 0.774510 0.903798
vt 0.574335 0.510096
vt 0.573765 0.511993
vt 0.575858 0.510050
vt 0.536687 0.161634
vt 0.535695 0.164081
vt 0.822578 0.662806
vt 0.821251 0.663155
vt 0.821762 0.664865
vt 0.063388 0.772008
vt 0.062670 0.772919
vt 0.064579 0.774285
vt 0.561377 0.953776
vt 0.564727 0.955183
vt 0.562506 0.952397
vt 0.009599 0.019270
vt 0.009215 0.019225
vt 0.008758 0.019642
vt 0.799980 0.325249
vt 0.800519 0.326800
vt 0.801125 0.322688
vt 0.533491 0.163348
vt 0.532745 0.165933
vt 0.093509 0.020809
vt 0.095544 0.020282
vt 0.097803 0.018968
vt 0.619327 0.258865
vt 0.619373 0.259828
vt 0.005764 0.018774
vt 0.004157 0.018080
vt 0.005541 0.019029
vt 0.118262 0.632503
vt 0.117429 0.632605
vt 0.115123 0.636705
vt 0.119406 0.635414
vt 0.100991 0.015001
vt 0.096200 0.013811
vt 0.014941 0.019206
vt 0.427087 0.169795
vt 0.426219 0.170869
vt 0.427748 0.171317
vt 0.504891 0.761383
vt 0.005123 0.022679
vt 0.003812 0.019303
vt 0.003064 0.022314
vt 0.410421 0.681378
vt 0.102024 0.019842
vt 0.615093 0.623677
vt 0.124465 0.394798
vt 0.125987 0.394437
vt 0.125066 0.393476
vt 0.820111 0.673809
vt 0.820750 0.672090
vt 0.102054 0.019861
vt 0.106339 0.018536
vt 0.106988 0.018062
vt 0.048417 0.029440
vt 0.048602 0.028843
vt 0.047693 0.029406
vt 0.167288 0.735973
vt 0.548552 0.171240
vt 0.042751 0.243021
vt 0.044934 0.243358
vt 0.043673 0.242411
vt 0.750993 0.423435
vt 0.750973 0.424171
vt 0.753020 0.425498
vt 0.704893 0.304869
vt 0.706188 0.304574
vt 0.574648 0.358532
vt 0.574623 0.357924
vt 0.574167 0.358220
vt 0.404693 0.730518
vt 0.511136 0.592998
vt 0.404659 0.730515
vt 0.818604 0.134643
vt 0.818537 0.134689
vt 0.818642 0.134711
vt 0.825561 0.663615
vt 0.825126 0.663119
vt 0.479091 0.677603
vt 0.476411 0.676989
vt 0.476365 0.678694
vt 0.547615 0.158456
vt 0.875740 0.096787
vt 0.886612 0.097706
vt 0.886776 0.098041
vt 0.323233 0.168266
vt 0.322125 0.166075
vt 0.322381 0.167801
vt 0.136874 0.031781
vt 0.135393 0.031298
vt 0.134699 0.032225
vt 0.540321 0.352572
vt 0.539716 0.353620
vt 0.540939 0.353147
vt 0.424189 0.489966
vt 0.705339 0.299929
vt 0.420562 0.481524
vt 0.419843 0.480592
vt 0.419904 0.482514
vt 0.637030 0.623183
vt 0.810295 0.665749
vt 0.809818 0.662859
vt 0.002812 0.017857
vt 0.002284 0.017677
vt 0.002195 0.018026
vt 0.535943 0.160146
vt 0.536024 0.160213
vt 0.536441 0.159787
vt 0.318539 0.119207
vt 0.316960 0.120015
vt 0.318922 0.120954
vt 0.552992 0.919994
vt 0.553471 0.922470
vt 0.554972 0.920459
vt 0.085712 0.933098
vt 0.084798 0.932260
vt 0.084590 0.932636
vt 0.085674 0.933966
vt 0.084558 0.932524
vt 0.399196 0.154969
vt 0.399680 0.155923
vt 0.400832 0.154444
vt 0.109078 0.633401
vt 0.108178 0.629643
vt 0.713596 0.605805
vt 0.713405 0.606441
vt 0.713697 0.606206
vt 0.635140 0.622975
vt 0.635784 0.624859
vt 0.101647 0.019948
vt 0.168808 0.736475
vt 0.167639 0.737511
vt 0.168797 0.738171
vt 0.531758 0.694491
vt 0.532332 0.694959
vt 0.534372 0.692902
vt 0.260296 0.767521
vt 0.259576 0.764659
vt 0.257624 0.768424
vt 0.714594 0.535031
vt 0.714328 0.532702
vt 0.111965 0.639158
vt 0.112209 0.639856
vt 0.052426 0.027817
vt 0.573155 0.837472
vt 0.573414 0.836354
vt 0.569053 0.835571
vt 0.683669 0.034720
vt 0.682908 0.034758
vt 0.683960 0.036118
vt 0.801373 0.299024
vt 0.799724 0.298528
vt 0.799594 0.299868
vt 0.073173 0.474405
vt 0.072028 0.476277
vt 0.073306 0.475623
vt 0.004821 0.915794
vt 0.825238 0.672767
vt 0.825760 0.667481
vt 0.006209 0.018773
vt 0.535291 0.160067
vt 0.003612 0.018091
vt 0.109728 0.628864
vt 0.109627 0.626882
vt 0.109393 0.626299
vt 0.111455 0.630001
vt 0.339265 0.404153
vt 0.338522 0.404005
vt 0.338947 0.404504
vt 0.118990 0.352446
vt 0.118538 0.351949
vt 0.118631 0.352355
vt 0.104162 0.004343
vt 0.102631 0.004074
vt 0.101043 0.004560
vt 0.643799 0.043233
vt 0.644639 0.041035
vt 0.644322 0.041307
vt 0.643778 0.042892
vt 0.533926 0.162156
vt 0.015021 0.019018
vt 0.103960 0.003942
vt 0.104129 0.004014
vt 0.772952 0.811670
vt 0.775201 0.811522
vt 0.773975 0.811054
vt 0.773178 0.811351
vt 0.540394 0.158008
vt 0.540360 0.157872
vt 0.539773 0.158131
vt 0.634587 0.850844
vt 0.631852 0.850782
vt 0.632623 0.850886
vt 0.635016 0.850993
vt 0.573922 0.360750
vt 0.573956 0.360745
vt 0.820890 0.667652
vt 0.825790 0.667051
vt 0.886348 0.099942
vt 0.888013 0.101589
vt 0.886776 0.105888
vt 0.888201 0.103728
vt 0.544377 0.174120
vt 0.546328 0.174028
vt 0.822343 0.675250
vt 0.822367 0.675222
vt 0.097918 0.020487
vt 0.092859 0.020824
vt 0.665379 0.396786
vt 0.663809 0.399208
vt 0.663847 0.399209
vt 0.665394 0.398368
vt 0.886698 0.097564
vt 0.872354 0.461168
vt 0.870600 0.460664
vt 0.870065 0.462824
vt 0.870139 0.462865
vt 0.547553 0.173469
vt 0.549649 0.170242
vt 0.549837 0.169859
vt 0.054187 0.024775
vt 0.052921 0.026031
vt 0.053833 0.026901
vt 0.054266 0.027102
vt 0.403245 0.732748
vt 0.403673 0.732476
vt 0.270168 0.668418
vn 0.2868 0.9377 0.1962
vn 0.2394 0.7937 0.5592
vn 0.4885 0.7387 0.4645
vn 0.9975 -0.0087 0.0707
vn 0.8603 -0.2311 0.4543
vn 0.9211 0.3893 0.0079
vn -0.2780 -0.9577 -0.0740
vn 0.0128 -0.9998 -0.0181
vn -0.0841 -0.9820 -0.1691
vn -0.1234 0.9885 -0.0877
vn -0.0220 0.9986 0.0480
vn 0.4322 -0.8993 0.0677
vn 0.7622 -0.6472 -0.0159
vn 0.2398 -0.9303 -0.2776
vn 0.5141 -0.5626 0.6475
vn 0.1922 -0.9810 0.0272
vn 0.0762 -0.9966 0.0324
vn 0.8925 -0.4236 0.1547
vn 0.0253 -0.4088 0.9123
vn -0.1139 -0.7820 0.6129
vn 0.7847 -0.1621 0.5983
vn 0.1332 0.9320 -0.3371
vn -0.0117 0.9999 -0.0047
vn -0.3816 -0.2828 -0.8800
vn -0.2592 0.1915 -0.9466
vn -0.3794 0.2672 -0.8858
vn 0.7084 -0.6819 0.1821
vn -0.0366 -0.9782 0.2044
vn -0.2616 -0.9447 -0.1978
vn -0.2928 -0.9131 -0.2836
vn 0.9934 -0.1147 0.0027
vn 0.6852 0.3202 0.6542
vn 0.3252 0.4350 0.8397
vn 0.3083 -0.0677 0.9489
vn -0.8274 -0.0081 -0.5616
vn -0.8896 0.2352 -0.3914
vn -0.2845 -0.0202 -0.9585
vn -0.2744 -0.9511 -0.1421
vn -0.4707 -0.8755 0.1096
vn 0.3126 -0.2773 0.9085
vn 0.5722 -0.1509 0.8061
vn 0.8029 -0.1209 0.5838
vn 0.6796 -0.4766 0.5577
vn 0.6603 0.7273 0.1870
vn 0.1235 0.9903 0.0635
vn 0.2616 -0.6490 0.7144
vn -0.2717 0.9438 -0.1884
vn 0.0336 0.9304 -0.3651
vn -0.0358 0.8089 -0.5869
vn 0.1007 0.9151 0.3904
vn 0.6629 0.2983 -0.6867
vn 0.7252 0.1423 -0.6737
vn 0.1525 0.0787 -0.9852
vn -0.1044 0.5039 -0.8574
vn -0.2073 -0.6093 -0.7653
vn -0.7211 -0.6798 0.1335
vn -0.7959 -0.5496 0.2538
vn -0.0679 -0.9486 -0.3090
vn -0.1930 -0.9005 -0.3897
vn -0.3360 0.2826 0.8985
vn -0.2313 0.1089 0.9668
vn 0.5304 0.2122 0.8208
vn -0.4101 -0.7880 -0.4591
vn -0.2425 -0.7622 -0.6002
vn -0.1490 0.0082 -0.9888
vn 0.9930 -0.0803 -0.0864
vn 0.7466 -0.1587 0.6461
vn 0.4338 0.8923 -0.1249
vn -0.1608 0.9430 -0.2914
vn 0.3272 0.1400 -0.9345
vn 0.5034 0.8110 -0.2982
vn 0.4309 0.6758 -0.5980
vn -0.1626 0.9579 -0.2366
vn 0.5083 0.6672 0.5445
vn -0.6605 -0.7067 -0.2537
vn -0.8279 -0.5576 -0.0608
vn -0.2630 -0.5942 -0.7601
vn 0.8906 0.4540 -0.0285
vn 0.8070 0.5393 -0.2406
vn -0.2042 0.5885 0.7822
vn -0.2662 0.4309 0.8622
vn -0.2330 -0.8421 -0.4864
vn 0.1493 -0.8767 0.4573
vn -0.0182 -0.9970 -0.0757
vn 0.8831 -0.1558 0.4426
vn 0.9126 -0.1883 0.3628
vn 0.5034 -0.7157 -0.4842
vn 0.5766 -0.7107 -0.4030
vn -0.7903 0.5994 -0.1270
vn -0.6433 0.7039 -0.3010
vn -0.1028 0.8821 -0.4597
vn 0.8827 -0.1059 0.4578
vn 0.9555 -0.1118 -0.2730
vn 0.7132 0.4035 -0.5732
vn 0.7102 0.3763 -0.5950
vn -0.3432 0.7837 -0.5178
vn 0.8596 -0.1876 0.4753
vn -0.4727 0.8769 -0.0873
vn -0.5013 0.8637 -0.0513
vn -0.3884 0.8946 -0.2212
vn -0.6762 -0.6752 0.2948
vn -0.7271 -0.6828 0.0717
vn -0.4777 -0.8781 0.0273
vn 0.8678 -0.4844 0.1106
vn 0.8869 -0.1899 0.4211
vn 0.0467 -0.0180 0.9987
vn -0.8249 -0.5549 -0.1080
vn -0.8088 -0.5668 -0.1567
vn 0.7599 0.6352 -0.1376
vn 0.5296 0.8016 -0.2773
vn 0.9691 0.0483 -0.2418
vn 0.3913 -0.1408 -0.9094
vn -0.1635 -0.3023 -0.9391
vn 0.7236 -0.1054 -0.6822
vn 0.1943 -0.2736 -0.9420
vn 0.8924 -0.4373 0.1116
vn 0.9949 -0.0973 0.0266
vn -0.8551 -0.3310 -0.3991
vn -0.7340 -0.6414 -0.2233
vn -0.6415 0.7655 -0.0494
vn -0.1547 0.9611 0.2290
vn -0.2091 0.6926 0.6903
vn -0.2213 0.9711 0.0893
vn -0.2213 0.1153 0.9684
vn 0.3769 -0.3867 -0.8417
vn 0.9585 -0.0566 -0.2793
vn 0.7054 -0.0763 -0.7047
vn 0.7170 0.0011 -0.6971
vn 0.5336 -0.6181 -0.5773
vn 0.7270 -0.6702 -0.1493
vn 0.6630 0.4340 -0.6100
vn 0.4214 0.5606 -0.7128
vn -0.2556 0.0691 0.9643
vn -0.7680 -0.6367 -0.0691
vn -0.7189 -0.6944 0.0318
vn -0.8574 -0.1148 -0.5017
vn -0.7768 0.5874 -0.2272
vn -0.8227 0.3735 -0.4286
usemtl sungaya_inexpectata_31mg
s 1
f 49/1/1 8/2/2 57/3/3
f 2/4/4 61/5/5 56/6/6
f 54/7/7 24/8/8 23/9/9
f 13/10/10 26/11/11 49/12/1
f 27/13/12 34/14/13 28/15/14
f 10/16/15 34/17/13 27/18/12
f 18/19/16 39/20/17 37/21/18
f 104/22/19 105/23/20 34/24/13 53/25/21
f 26/26/11 38/27/22 33/28/23
f 7/29/24 15/30/25 29/31/26
f 18/32/16 19/33/27 36/34/28
f 40/35/29 9/36/30 54/37/7
f 37/38/18 42/39/31 19/40/27
f 52/41/32 21/42/33 30/43/34
f 107/44/35 106/45/36 22/46/37
f 49/1/1 57/3/3 56/47/6
f 54/48/7 59/49/38 39/50/17
f 102/51/39 34/17/13 105/52/20
f 55/53/40 21/54/33 5/55/41
f 31/56/42 30/57/34 60/58/43
f 56/59/6 11/60/44 12/61/45
f 51/62/46 19/63/27 60/58/43
f 54/37/7 39/64/17 40/35/29
f 14/65/47 48/66/48 6/67/49
f 46/68/50 49/69/1 26/70/11
f 8/71/2 49/72/1 46/73/50
f 70/74/51 79/75/52 44/76/53 43/77/54
f 30/43/34 31/78/42 52/41/32
f 62/79/55 15/80/25 7/29/24
f 122/81/56 120/82/57 24/83/8 65/84/58
f 40/35/29 35/85/59 9/36/30
f 133/86/60 53/87/21 113/88/61
f 5/89/41 21/54/33 41/90/62
f 3/91/63 50/92/64 7/93/24
f 26/94/11 33/95/23 46/96/50
f 6/97/49 43/98/54 29/99/26
f 7/29/24 29/31/26 67/100/65
f 9/36/30 65/101/58 54/37/7
f 13/102/10 48/66/48 14/65/47
f 1/103/66 4/104/67 61/105/5
f 38/106/22 45/107/68 33/108/23
f 40/109/29 18/110/16 36/111/28
f 40/112/29 36/113/28 35/114/59
f 14/115/47 20/116/69 26/117/11
f 71/118/70 44/76/53 79/75/52
f 56/119/6 12/120/45 49/121/1
f 55/122/40 51/123/46 60/58/43
f 50/92/64 54/37/7 23/124/9
f 50/125/64 3/126/63 54/127/7
f 35/85/59 65/101/58 9/36/30
f 1/128/66 42/129/31 37/130/18
f 72/131/71 97/132/72 47/133/73
f 8/134/2 46/135/50 32/136/74
f 137/137/75 111/138/76 28/15/14
f 3/91/63 7/29/24 69/139/77
f 8/140/2 21/141/33 52/142/32
f 99/143/78 83/144/79 11/145/44
f 48/146/48 12/147/45 47/148/73
f 50/92/64 62/79/55 7/29/24
f 121/149/80 123/150/81 41/151/62
f 58/152/82 59/153/38 3/91/63
f 27/154/12 25/155/83 10/156/15
f 1/157/66 2/158/4 42/159/31
f 36/160/28 68/161/84 35/162/59
f 93/163/85 92/164/86 4/165/67
f 55/122/40 60/58/43 30/57/34
f 20/166/69 38/167/22 26/168/11
f 75/169/87 100/170/88 39/64/17 59/153/38
f 112/171/89 124/172/90 17/173/91
f 1/103/66 61/174/5 2/175/4
f 89/176/92 90/177/93 61/178/5
f 78/179/94 86/180/95 6/181/49 48/182/48
f 20/183/69 14/65/47 16/184/96
f 66/185/97 1/128/66 37/130/18
f 36/186/28 51/187/46 25/188/83
f 12/120/45 13/189/10 49/121/1
f 52/190/32 56/191/6 57/192/3
f 2/4/4 56/6/6 52/193/32
f 38/194/22 20/183/69 17/173/91
f 24/8/8 54/7/7 65/195/58
f 32/196/74 21/197/33 8/198/2
f 21/141/33 32/199/74 41/200/62
f 110/201/98 131/202/99 45/203/68 38/194/22
f 125/204/100 45/205/68 131/206/99
f 46/96/50 33/95/23 45/207/68
f 69/139/77 7/29/24 67/100/65
f 62/79/55 22/208/37 15/80/25
f 51/209/46 10/210/15 25/211/83
f 51/212/46 55/213/40 10/214/15
f 55/53/40 5/215/41 10/216/15
f 127/217/101 129/218/102 23/219/9
f 136/220/103 137/221/75 28/222/14
f 101/223/104 74/224/105 66/225/97
f 108/226/106 104/227/19 53/87/21
f 108/226/106 53/87/21 133/86/60
f 31/78/42 42/228/31 2/229/4
f 2/229/4 52/230/32 31/78/42
f 67/100/65 29/31/26 43/231/54
f 138/232/107 65/233/58 135/234/108
f 54/37/7 3/91/63 59/153/38
f 68/235/84 36/236/28 25/237/83
f 28/238/14 68/239/84 27/240/12
f 68/241/84 25/242/83 27/243/12
f 52/244/32 57/3/3 8/2/2
f 55/53/40 30/245/34 21/54/33
f 1/128/66 66/185/97 4/165/67
f 91/246/109 98/247/110 12/248/45 11/145/44
f 53/249/21 34/17/13 10/16/15
f 42/250/31 60/58/43 19/251/27
f 6/67/49 16/184/96 14/65/47
f 77/252/111 99/253/78 11/254/44
f 96/255/112 64/256/113 94/257/114
f 69/258/77 63/259/115 64/260/113
f 64/261/113 58/262/82 69/263/77
f 76/264/116 95/265/117 66/266/97 37/267/18
f 101/268/104 66/266/97 95/265/117
f 63/269/115 69/270/77 67/271/65
f 67/272/65 44/76/53 63/273/115
f 20/183/69 16/184/96 17/173/91
f 126/274/118 62/275/55 130/276/119
f 44/76/53 67/272/65 43/77/54
f 10/277/15 5/278/41 53/249/21
f 114/279/120 110/201/98 38/194/22
f 46/280/50 45/281/68 32/282/74
f 132/283/121 115/284/122 32/285/74
f 36/286/28 19/287/27 51/288/46
f 42/250/31 31/56/42 60/58/43
f 15/289/25 16/290/96 29/99/26
f 29/291/26 16/292/96 6/181/49
f 125/204/100 103/293/123 45/205/68
f 23/294/9 62/295/55 50/296/64
f 69/139/77 58/152/82 3/91/63
f 39/297/17 18/298/16 40/299/29
f 19/300/27 18/301/16 37/302/18
f 48/303/48 13/304/10 12/305/45
f 13/306/10 14/115/47 26/117/11
f 123/307/81 128/308/124 41/200/62
f 4/165/67 92/164/86 89/309/92 61/178/5
f 58/152/82 64/256/113 96/255/112 88/310/125
f 61/178/5 90/177/93 87/311/126 56/191/6
f 63/273/115 85/312/127 94/313/114 64/314/113
f 44/76/53 84/315/128 85/312/127 63/273/115
f 11/145/44 83/144/79 91/246/109
f 58/316/82 88/317/125 81/318/129
f 39/319/17 100/320/88 80/321/130
f 47/322/73 82/323/131 78/324/94 48/66/48
f 56/191/6 87/311/126 77/252/111 11/254/44
f 37/325/18 39/326/17 80/327/130 76/328/116
f 59/153/38 58/152/82 81/329/129 75/169/87
f 66/185/97 74/330/105 93/163/85 4/165/67
f 47/322/73 73/331/132 82/323/131
f 47/322/73 97/332/72 73/331/132
f 47/333/73 12/334/45 98/335/110 72/336/71
f 44/337/53 71/338/70 84/339/128
f 43/77/54 6/181/49 86/180/95 70/74/51
f 96/255/112 94/257/114 85/312/127 84/315/128 71/338/70 79/75/52 70/74/51 86/180/95 78/179/94 82/323/131 73/331/132 97/332/72 72/131/71 98/335/110 91/246/109 83/144/79 99/143/78 77/252/111 87/311/126 90/177/93 89/176/92 92/164/86 93/163/85 74/330/105 101/223/104 95/265/117 76/264/116 80/327/130 100/320/88 75/169/87 81/329/129 88/317/125
f 62/340/55 23/341/9 129/342/102 130/343/119
f 23/219/9 24/344/8 120/345/57 127/217/101
f 5/346/41 41/200/62 128/308/124 119/347/133
f 35/348/59 118/349/134 135/234/108 65/233/58
f 68/350/84 117/351/135 118/349/134 35/348/59
f 62/79/55 126/352/118 116/353/136
f 32/199/74 115/354/122 121/355/80 41/200/62
f 38/194/22 17/173/91 124/356/90 114/279/120
f 5/346/41 119/347/133 113/88/61 53/87/21
f 16/184/96 134/357/137 112/171/89 17/173/91
f 68/358/84 28/359/14 111/360/76 117/361/135
f 65/233/58 138/232/107 122/362/56
f 16/363/96 15/364/25 109/365/138 134/366/137
f 62/79/55 116/353/136 107/367/35 22/208/37
f 15/80/25 22/208/37 106/368/36 109/369/138
f 32/370/74 45/371/68 103/372/123 132/373/121
f 28/222/14 34/374/13 102/375/39 136/220/103
f 133/86/60 102/51/39 104/227/19
f 129/218/102 126/274/118 130/276/119
f 126/274/118 106/45/36 116/353/136
f 116/353/136 106/45/36 107/367/35
f 106/45/36 134/366/137 109/369/138
f 127/217/101 126/274/118 129/218/102
f 120/376/57 112/171/89 127/217/101
f 127/217/101 112/171/89 126/274/118
f 126/274/118 112/171/89 106/45/36
f 106/45/36 112/171/89 134/366/137
f 112/171/89 138/232/107 135/234/108 124/172/90
f 124/172/90 135/234/108 114/279/120
f 122/362/56 112/171/89 120/376/57
f 114/279/120 135/234/108 110/201/98
f 131/202/99 103/293/123 125/204/100
f 110/201/98 135/234/108 131/202/99
f 138/232/107 112/171/89 122/362/56
f 117/361/135 123/150/81 118/349/134
f 118/349/134 123/150/81 135/234/108
f 131/202/99 123/150/81 103/293/123
f 135/234/108 123/150/81 131/202/99
f 103/293/123 115/284/122 132/373/121
f 115/284/122 103/293/123 121/355/80
f 121/355/80 103/293/123 123/150/81
f 123/150/81 117/361/135 128/308/124
f 128/308/124 117/361/135 119/347/133
f 119/347/133 111/138/76 113/88/61
f 111/138/76 119/347/133 117/361/135
f 104/227/19 102/51/39 105/23/20
f 102/51/39 111/138/76 137/221/75 136/220/103
f 133/86/60 104/227/19 108/226/106
f 113/88/61 111/138/76 133/86/60
f 102/51/39 133/86/60 111/138/76
