# Blender v2.79 (sub 0) OBJ File: 'redo_fixed_360_joints.blend'
# www.blender.org
mtllib sungaya_inexpectata_31mg.mtl
o 29-h-l-tarsus.000_Sungaya_inexpectata_31mg.071
v -0.000500 0.000011 -0.000056
v 0.000001 0.000069 0.000039
v 0.000182 -0.000018 0.000132
v 0.000140 0.000085 0.000056
v -0.000458 -0.000076 -0.000155
v -0.000093 0.000015 -0.000108
v -0.000133 -0.000061 -0.000109
v -0.000282 -0.000041 -0.000029
v -0.000473 -0.000051 -0.000108
v 0.000224 0.000055 -0.000001
v 0.000275 -0.000044 -0.000004
v 0.000317 -0.000085 0.000076
v 0.000273 0.000058 0.000165
v 0.000320 0.000031 0.000188
v 0.000032 0.000056 -0.000046
v 0.000088 -0.000077 -0.000020
v 0.000349 0.000028 0.000023
v 0.000020 -0.000003 0.000090
v 0.000420 0.000110 0.000123
v -0.000121 -0.000078 -0.000008
v -0.000423 0.000046 -0.000199
v -0.000288 -0.000070 -0.000136
v -0.000443 -0.000073 -0.000190
v -0.000417 -0.000014 -0.000218
v -0.000004 0.000033 0.000082
v 0.000036 -0.000013 -0.000075
v -0.000176 0.000061 -0.000064
v -0.000174 -0.000018 0.000027
v -0.000249 0.000072 -0.000047
v -0.000363 0.000034 -0.000019
v -0.000349 0.000072 -0.000077
v 0.000198 -0.000095 0.000042
v 0.000291 -0.000056 0.000144
v 0.000310 0.000097 0.000127
v 0.000397 -0.000101 0.000162
v 0.000287 0.000088 0.000071
v -0.000274 0.000015 -0.000175
v -0.000034 -0.000095 -0.000032
v 0.000030 -0.000071 0.000045
v 0.000228 0.000015 -0.000034
v -0.000202 0.000034 0.000023
v -0.000464 -0.000074 -0.000153
v -0.000461 -0.000024 -0.000228
v -0.000515 0.000012 -0.000061
v -0.000505 0.000060 -0.000161
v -0.000484 0.000042 -0.000221
v -0.000514 0.000010 -0.000061
v -0.000483 -0.000051 -0.000109
v -0.000518 0.000071 -0.000121
v -0.000458 -0.000070 -0.000183
v -0.000512 0.000004 -0.000064
v -0.000468 0.000005 -0.000236
v -0.000519 0.000062 -0.000107
v -0.000454 -0.000072 -0.000195
v -0.000516 0.000025 -0.000075
v -0.000479 0.000034 -0.000230
v 0.000417 -0.000016 0.000211
v 0.000427 0.000112 0.000134
v 0.000433 -0.000083 0.000103
v 0.000417 0.000063 0.000206
v 0.000422 0.000108 0.000167
v 0.000433 -0.000084 0.000104
v 0.000432 -0.000086 0.000111
v 0.000436 0.000026 0.000076
v 0.000436 0.000025 0.000076
v 0.000417 -0.000062 0.000214
v 0.000421 -0.000102 0.000186
v 0.000417 0.000054 0.000209
v 0.000418 -0.000092 0.000205
v 0.000422 -0.000114 0.000181
v 0.000429 0.000111 0.000119
v 0.000426 -0.000112 0.000150
v 0.000434 0.000042 0.000085
v 0.000423 0.000113 0.000160
vt 0.804836 0.286554
vt 0.804385 0.286253
vt 0.805162 0.285665
vt 0.047031 0.933094
vt 0.046862 0.934394
vt 0.046554 0.935311
vt 0.930807 0.736450
vt 0.930699 0.736217
vt 0.930978 0.736300
vt 0.780986 0.992350
vt 0.781310 0.993246
vt 0.780251 0.992631
vt 0.186274 0.675267
vt 0.186625 0.676855
vt 0.184949 0.675468
vt 0.298542 0.887215
vt 0.302261 0.887849
vt 0.296427 0.888673
vt 0.314174 0.431992
vt 0.310095 0.437178
vt 0.312828 0.431164
vt 0.319336 0.423108
vt 0.318276 0.425509
vt 0.315908 0.425410
vt 0.001232 0.278961
vt 0.001110 0.278761
vt 0.002655 0.278799
vt 0.001770 0.279393
vt 0.936660 0.695454
vt 0.937820 0.694529
vt 0.937948 0.696477
vt 0.404319 0.048179
vt 0.405145 0.044980
vt 0.409425 0.052332
vt 0.315304 0.432865
vt 0.310829 0.443020
vt 0.309900 0.441041
vt 0.644288 0.149548
vt 0.644234 0.149429
vt 0.644374 0.149473
vt 0.306513 0.444705
vt 0.307328 0.442297
vt 0.306858 0.444616
vt 0.947095 0.414163
vt 0.947707 0.415721
vt 0.946370 0.416165
vt 0.946303 0.417840
vt 0.406511 0.052679
vt 0.429258 0.082247
vt 0.427704 0.082438
vt 0.429135 0.080562
vt 0.049125 0.955311
vt 0.046406 0.954672
vt 0.049454 0.953249
vt 0.386057 0.706008
vt 0.390213 0.707573
vt 0.389413 0.710019
vt 0.401591 0.045594
vt 0.400695 0.041304
vt 0.779709 0.558424
vt 0.777657 0.559055
vt 0.778140 0.556220
vt 0.635989 0.348901
vt 0.636308 0.343745
vt 0.638477 0.343928
vt 0.312786 0.440027
vt 0.313108 0.442331
vt 0.392455 0.711062
vt 0.308375 0.440143
vt 0.585378 0.290457
vt 0.585765 0.292221
vt 0.583419 0.290519
vt 0.308922 0.444691
vt 0.101790 0.923037
vt 0.102041 0.922812
vt 0.102940 0.923461
vt 0.102771 0.923543
vt 0.915946 0.124402
vt 0.916068 0.125834
vt 0.915207 0.125623
vt 0.858320 0.510026
vt 0.858156 0.513658
vt 0.856973 0.512330
vt 0.490512 0.654229
vt 0.489148 0.652880
vt 0.488644 0.649496
vt 0.403532 0.042138
vt 0.541380 0.678335
vt 0.539589 0.680763
vt 0.539812 0.678772
vt 0.863940 0.524556
vt 0.862309 0.523697
vt 0.863839 0.523166
vt 0.488831 0.647436
vt 0.488837 0.646367
vt 0.489358 0.648370
vt 0.063575 0.980787
vt 0.065122 0.981852
vt 0.061976 0.983580
vt 0.064403 0.983557
vt 0.318165 0.419710
vt 0.315695 0.421181
vt 0.463450 0.112020
vt 0.462243 0.112692
vt 0.462598 0.109669
vt 0.635560 0.352603
vt 0.637158 0.352896
vt 0.311068 0.445818
vt 0.312153 0.445408
vt 0.407795 0.047285
vt 0.104614 0.941865
vt 0.104017 0.942251
vt 0.103182 0.940970
vt 0.159614 0.651189
vt 0.155869 0.651902
vt 0.159757 0.648975
vt 0.695233 0.948469
vt 0.695153 0.949330
vt 0.692610 0.946812
vt 0.180330 0.519856
vt 0.180024 0.518476
vt 0.181243 0.518700
vt 0.598170 0.807189
vt 0.598294 0.807277
vt 0.598047 0.807597
vt 0.406357 0.044644
vt 0.405092 0.043154
vt 0.426103 0.711129
vt 0.425124 0.710629
vt 0.431073 0.707882
vt 0.394304 0.032907
vt 0.396248 0.032075
vt 0.399936 0.037108
vt 0.909471 0.055324
vt 0.908078 0.054766
vt 0.909613 0.054144
vt 0.689896 0.947675
vt 0.690044 0.946033
vt 0.634145 0.350426
vt 0.588329 0.297547
vt 0.587710 0.297129
vt 0.588915 0.296372
vt 0.912447 0.516817
vt 0.912848 0.516496
vt 0.914165 0.517242
vt 0.374920 0.863248
vt 0.376441 0.863281
vt 0.373436 0.863879
vt 0.265387 0.244516
vt 0.264553 0.243900
vt 0.265403 0.242346
vt 0.265671 0.244191
vt 0.314738 0.425376
vt 0.138059 0.849116
vt 0.134705 0.849299
vt 0.137841 0.847185
vt 0.762076 0.119995
vt 0.762137 0.120977
vt 0.760215 0.120943
vt 0.761124 0.120103
vt 0.206166 0.623752
vt 0.206264 0.622724
vt 0.207250 0.623586
vt 0.752513 0.840261
vt 0.754350 0.841744
vt 0.752011 0.842113
vt 0.635246 0.355301
vt 0.634583 0.353541
vt 0.637123 0.354853
vt 0.795156 0.334453
vt 0.794219 0.332419
vt 0.797406 0.335146
vt 0.693955 0.944973
vt 0.697434 0.946599
vt 0.060402 0.982899
vt 0.060637 0.983064
vt 0.318957 0.414952
vt 0.317818 0.416348
vt 0.318893 0.414169
vt 0.319504 0.420522
vt 0.320761 0.415433
vt 0.446402 0.256935
vt 0.445187 0.256898
vt 0.445484 0.254862
vt 0.700697 0.945536
vt 0.701104 0.947043
vt 0.599244 0.808399
vt 0.599282 0.808486
vt 0.599053 0.808785
vt 0.599370 0.808506
vt 0.843390 0.859319
vt 0.843343 0.859188
vt 0.845731 0.858094
vt 0.845509 0.858421
vt 0.068253 0.355165
vt 0.066661 0.355014
vt 0.066456 0.354292
vt 0.316535 0.419553
vt 0.320378 0.414981
vt 0.372887 0.866108
vt 0.373153 0.865091
vt 0.373815 0.865795
vt 0.373996 0.866267
vt 0.487296 0.646047
vt 0.487267 0.645918
vt 0.102112 0.926085
vt 0.101889 0.926009
vt 0.102210 0.924764
vt 0.102350 0.924743
vt 0.930829 0.737426
vt 0.930670 0.737470
vt 0.929567 0.737096
vt 0.587517 0.297712
vt 0.937608 0.619861
vt 0.939643 0.617002
vt 0.939929 0.617262
vt 0.939710 0.618217
vt 0.412530 0.053677
vt 0.414525 0.057474
vt 0.414507 0.057496
vt 0.794651 0.866462
vt 0.794500 0.864142
vt 0.794654 0.864274
vt 0.795863 0.865810
vt 0.778899 0.992691
vt 0.780901 0.993264
vt 0.781219 0.993625
vt 0.779310 0.994013
vt 0.589702 0.294836
vt 0.589674 0.294848
vt 0.405306 0.248379
vt 0.406881 0.249292
vt 0.405976 0.250321
vn 0.2197 -0.6980 0.6816
vn -0.4122 -0.9094 0.0556
vn 0.2672 -0.7985 0.5395
vn 0.0025 -0.9999 -0.0146
vn -0.3433 -0.6900 0.6372
vn -0.2495 -0.5148 0.8202
vn 0.5260 0.6813 -0.5091
vn -0.1370 0.8951 -0.4244
vn 0.6331 0.7695 0.0841
vn 0.5630 0.0200 0.8262
vn 0.5665 0.1292 0.8139
vn -0.3134 0.0649 0.9474
vn -0.0360 -0.9992 -0.0183
vn -0.2143 -0.7129 0.6678
vn -0.1266 -0.8367 0.5329
vn 0.1164 0.8812 -0.4581
vn -0.0661 0.9954 0.0694
vn 0.1739 0.7918 -0.5855
vn -0.2523 0.3792 0.8903
vn -0.0884 0.9957 -0.0286
vn -0.0703 0.9691 0.2364
vn -0.2956 -0.4052 0.8651
vn -0.2976 0.4237 0.8555
vn -0.1829 0.9578 0.2218
vn 0.5136 0.7973 0.3172
vn -0.1675 -0.8317 0.5294
vn -0.2886 -0.2696 0.9187
vn 0.1304 -0.8779 -0.4608
vn 0.2438 -0.0654 -0.9676
vn 0.3529 -0.4909 -0.7966
vn -0.2845 0.5729 0.7687
vn -0.6548 -0.7351 -0.1756
vn -0.3856 -0.7862 -0.4828
vn 0.1428 -0.9134 -0.3813
vn 0.5246 0.5807 0.6226
vn 0.4531 -0.8474 0.2767
vn 0.3325 0.3758 -0.8650
vn 0.2778 0.3183 -0.9064
vn 0.2069 -0.6649 -0.7177
vn -0.1944 -0.8978 0.3952
vn 0.0908 -0.9879 -0.1254
vn 0.0692 -0.9888 -0.1322
vn 0.5264 0.3316 0.7829
vn -0.5890 -0.8068 0.0461
vn 0.1345 0.7597 -0.6363
vn -0.0777 0.9893 0.1237
vn -0.3740 -0.4658 -0.8020
vn -0.3894 -0.0413 -0.9201
vn 0.3203 -0.1220 -0.9394
vn 0.4126 0.2570 -0.8739
vn 0.0791 0.9060 -0.4158
vn -0.2983 0.3543 0.8863
vn 0.4179 -0.1787 0.8907
vn 0.2750 0.2300 -0.9335
vn 0.1732 0.7784 -0.6034
vn -0.8821 0.2965 0.3659
vn -0.8483 0.2235 0.4801
vn -0.2692 -0.0658 0.9608
vn 0.5123 -0.8092 -0.2876
vn 0.6600 -0.7323 -0.1676
vn -0.4775 0.1917 -0.8574
vn -0.6952 0.4617 -0.5509
vn -0.7560 0.5447 -0.3632
vn 0.3488 -0.5828 0.7340
vn 0.8636 0.0957 -0.4950
vn 0.8746 0.3271 -0.3579
vn -0.8717 0.4190 0.2542
vn -0.7262 0.6821 -0.0859
vn -0.8013 -0.3276 0.5006
vn -0.7241 -0.6009 0.3385
vn -0.6581 -0.6958 0.2876
vn 0.9066 -0.1179 -0.4052
vn 0.7140 -0.6612 -0.2302
vn 0.7639 -0.4702 -0.4420
usemtl sungaya_inexpectata_31mg
s 1
f 67/1/1 35/2/2 70/3/3
f 32/4/4 33/5/5 3/6/6
f 71/7/7 19/8/8 58/9/9
f 57/10/10 68/11/11 14/12/12
f 22/13/13 8/14/14 9/15/15
f 27/16/16 29/17/17 15/18/18
f 25/19/19 4/20/20 2/21/21
f 8/22/14 28/23/22 41/24/23
f 58/25/9 19/26/8 34/27/24 74/28/25
f 39/29/26 3/30/6 18/31/27
f 16/32/28 26/33/29 11/34/30
f 18/35/27 14/36/12 13/37/31
f 50/38/32 54/39/33 23/40/34
f 74/41/25 34/42/24 13/37/31 61/43/35
f 22/44/13 9/45/15 23/46/34
f 9/45/15 5/47/36 23/46/34
f 16/32/28 11/34/30 32/48/4
f 29/49/17 27/50/16 37/51/37
f 27/52/16 6/53/38 37/54/37
f 22/55/13 7/56/39 20/57/40
f 16/32/28 38/58/41 7/59/39
f 39/60/26 38/61/41 16/62/28
f 39/63/26 32/64/4 3/65/6
f 14/36/12 3/66/6 33/67/5
f 7/56/39 38/68/41 20/57/40
f 4/20/20 13/37/31 34/69/24
f 11/70/30 12/71/42 32/72/4
f 60/73/43 61/43/35 13/37/31
f 50/74/32 23/75/34 5/76/36 42/77/44
f 35/78/2 33/79/5 12/80/42
f 20/81/40 8/82/14 22/83/13
f 7/84/39 22/85/13 23/86/34
f 7/59/39 6/87/38 26/33/29
f 21/88/45 29/89/17 37/90/37
f 29/91/17 21/92/45 31/93/46
f 18/35/27 13/37/31 25/19/19
f 43/94/47 52/95/48 24/96/49
f 17/97/50 36/98/51 19/99/8
f 36/98/51 34/100/24 19/99/8
f 8/22/14 41/24/23 30/101/52
f 41/24/23 29/102/17 30/101/52
f 39/103/26 18/104/27 28/105/22
f 20/106/40 39/63/26 28/107/22
f 57/108/10 14/36/12 66/109/53
f 26/33/29 40/110/54 11/34/30
f 15/111/18 40/112/54 26/113/29
f 4/114/20 36/115/51 10/116/55
f 2/117/21 4/118/20 10/119/55
f 10/120/55 15/121/18 2/122/21
f 55/123/56 44/124/57 1/125/58
f 16/32/28 7/59/39 26/33/29
f 15/126/18 26/33/29 6/127/38
f 2/128/21 15/129/18 29/130/17
f 7/59/39 23/131/34 24/132/49
f 37/133/37 7/59/39 24/132/49
f 11/134/30 40/135/54 17/136/50
f 10/119/55 36/137/51 17/138/50
f 20/106/40 38/139/41 39/63/26
f 72/140/59 35/141/2 63/142/60
f 56/143/61 46/144/62 21/145/45
f 46/146/62 45/147/63 21/148/45
f 66/149/53 14/150/12 33/151/5 69/152/64
f 2/21/21 29/153/17 41/24/23
f 21/154/45 37/155/37 24/156/49
f 56/157/61 21/158/45 24/159/49 52/160/48
f 39/161/26 16/162/28 32/163/4
f 12/164/42 33/165/5 32/166/4
f 8/167/14 20/168/40 28/169/22
f 3/66/6 14/36/12 18/35/27
f 36/170/51 4/171/20 34/172/24
f 25/19/19 13/37/31 4/20/20
f 40/173/54 10/119/55 17/138/50
f 15/174/18 10/119/55 40/173/54
f 64/175/65 17/97/50 19/99/8 73/176/66
f 53/177/67 30/101/52 31/178/46 49/179/68
f 8/180/14 30/101/52 1/181/58
f 25/19/19 2/21/21 41/24/23
f 28/23/22 25/19/19 41/24/23
f 18/35/27 25/19/19 28/23/22
f 6/182/38 7/183/39 37/184/37
f 15/174/18 6/185/38 27/186/16
f 44/187/57 47/188/69 1/189/58
f 47/188/69 51/190/70 1/189/58
f 48/191/71 9/192/15 1/193/58 51/194/70
f 8/195/14 1/196/58 9/197/15
f 29/102/17 31/198/46 30/101/52
f 30/101/52 53/177/67 55/199/56 1/181/58
f 31/200/46 21/201/45 45/202/63 49/203/68
f 23/204/34 54/205/33 43/94/47 24/96/49
f 9/206/15 48/207/71 42/208/44 5/209/36
f 55/123/56 53/177/67 49/203/68 45/147/63 46/144/62 56/157/61 52/95/48 43/94/47 54/39/33 50/74/32 42/208/44 48/191/71 51/190/70 47/188/69 44/124/57
f 19/210/8 71/211/7 73/212/66
f 35/141/2 72/140/59 70/213/3
f 33/214/5 35/215/2 67/216/1 69/217/64
f 11/34/30 17/218/50 64/219/65 65/220/72
f 12/221/42 62/222/73 63/223/60 35/224/2
f 14/225/12 68/226/11 60/227/43 13/228/31
f 12/71/42 11/70/30 59/229/74 62/230/73
f 11/231/30 65/232/72 59/233/74
f 71/7/7 58/9/9 74/28/25 61/43/35 60/73/43 68/226/11 57/10/10 66/109/53 69/152/64 67/216/1 70/3/3 72/140/59 63/142/60 62/222/73 59/229/74 65/232/72 64/219/65 73/176/66
