# This file uses centimeters as units for non-parametric coordinates.

mtllib head_link.mtl
v -0.021752 -0.104688 0.010549
v 0.003338 -0.110821 0.007090
v 0.017796 -0.110883 0.005556
v 0.032920 -0.112078 0.005783
v 0.048893 -0.112235 0.005855
v 0.078844 -0.112143 0.005760
v -0.023680 -0.109854 0.022521
v 0.001033 -0.117764 0.021008
v 0.016647 -0.119724 0.020870
v 0.032759 -0.120146 0.020811
v 0.048869 -0.120162 0.020827
v 0.080344 -0.120120 0.020865
v -0.024327 -0.109392 0.049450
v 0.008959 -0.117912 0.050896
v 0.016835 -0.119976 0.051603
v 0.032782 -0.120457 0.051889
v 0.047793 -0.120964 0.053055
v 0.080444 -0.120444 0.051864
v 0.022714 -0.116190 0.063564
v 0.034394 -0.119134 0.064682
v 0.047581 -0.119366 0.065000
v 0.079540 -0.115629 0.061508
v -0.030957 -0.096258 0.052600
v 0.008277 -0.106266 0.052600
v 0.025155 -0.105553 0.066831
v 0.032735 -0.105440 0.066319
v 0.048869 -0.105402 0.066348
v 0.079379 -0.105229 0.066196
v -0.031028 -0.084790 0.052600
v 0.008512 -0.090340 0.052600
v 0.025053 -0.088800 0.066751
v 0.032723 -0.088802 0.066725
v 0.048869 -0.088802 0.066724
v 0.079363 -0.088802 0.066534
v -0.031626 -0.055034 0.052600
v 0.008139 -0.054077 0.052600
v 0.024937 -0.055322 0.066824
v 0.032723 -0.055313 0.067042
v 0.048869 -0.055313 0.067042
v 0.079350 -0.055313 0.066821
v -0.031863 -0.021830 0.052600
v 0.007899 -0.021830 0.052600
v 0.024937 -0.021829 0.066824
v 0.032723 -0.021834 0.067360
v 0.048869 -0.021832 0.067360
v 0.079353 -0.021829 0.067069
v -0.031862 0.011663 0.052600
v 0.008139 0.010538 0.052600
v 0.024937 0.011663 0.066824
v 0.032723 0.011654 0.067042
v 0.048869 0.011654 0.067042
v 0.079350 0.011654 0.066821
v -0.031164 0.038539 0.052600
v 0.008512 0.043960 0.052600
v 0.025054 0.045140 0.066754
v 0.032723 0.045143 0.066725
v 0.048869 0.045143 0.066724
v 0.079364 0.045144 0.066533
v -0.030957 0.053158 0.052600
v 0.008512 0.063040 0.052600
v 0.025156 0.061895 0.066833
v 0.032735 0.061780 0.066319
v 0.048869 0.061744 0.066348
v 0.079380 0.061568 0.066195
v 0.008868 0.074796 0.050893
v 0.022870 0.072940 0.063749
v 0.034394 0.075476 0.064682
v 0.047649 0.075760 0.064940
v 0.079539 0.071954 0.061525
v -0.024564 0.066138 0.049520
v 0.016489 0.076551 0.052055
v 0.032782 0.076798 0.051889
v 0.047795 0.077295 0.053058
v 0.080445 0.076787 0.051856
v -0.023680 0.066195 0.022523
v 0.001033 0.074105 0.021008
v 0.016647 0.076065 0.020870
v 0.032759 0.076488 0.020811
v 0.048869 0.076503 0.020827
v 0.080344 0.076461 0.020864
v -0.021749 0.061031 0.010550
v 0.003338 0.067162 0.007090
v 0.017796 0.067224 0.005556
v 0.032920 0.068419 0.005783
v 0.048848 0.068393 0.005754
v 0.078839 0.068424 0.005723
v -0.022279 0.052682 0.007118
v 0.004136 0.059453 0.004248
v 0.017435 0.059438 0.003423
v 0.032896 0.059541 0.003035
v 0.048869 0.059540 0.003007
v 0.078496 0.059247 0.002985
v -0.026001 0.043440 0.006866
v 0.003512 0.043535 0.002960
v 0.017118 0.044826 0.002234
v 0.033338 0.043485 0.001855
v 0.048869 0.043550 0.001713
v 0.078349 0.043265 0.001912
v -0.016554 -0.001243 -0.020838
v 0.000300 -0.001000 -0.025646
v 0.013445 -0.001063 -0.022084
v 0.020798 -0.001243 -0.015930
v 0.048869 0.011568 -0.000027
v 0.078098 0.011074 0.000098
v -0.015380 -0.021829 -0.022759
v 0.000425 -0.021829 -0.026610
v 0.013649 -0.021829 -0.022320
v 0.019502 -0.021829 -0.017882
v 0.048869 -0.020415 -0.000639
v 0.077990 -0.021715 -0.000637
v -0.016554 -0.041857 -0.020838
v 0.000300 -0.042100 -0.025646
v 0.013445 -0.042037 -0.022085
v 0.020798 -0.041857 -0.015930
v 0.048869 -0.055227 -0.000027
v 0.078098 -0.054739 0.000096
v -0.026001 -0.087098 0.006866
v 0.003508 -0.087194 0.002963
v 0.017118 -0.088484 0.002234
v 0.033338 -0.087144 0.001855
v 0.048869 -0.087208 0.001713
v 0.078349 -0.086927 0.001914
v -0.022279 -0.096340 0.007118
v 0.004137 -0.103112 0.004248
v 0.017435 -0.103097 0.003423
v 0.032896 -0.103199 0.003035
v 0.048869 -0.103199 0.003007
v 0.078496 -0.102906 0.002985
v 0.078615 0.060130 0.003118
v 0.078467 0.044315 0.002003
v 0.078208 0.011426 0.000125
v 0.078099 -0.021715 -0.000617
v 0.078208 -0.055087 0.000123
v 0.078467 -0.087975 0.002004
v 0.078587 -0.103780 0.003113
v 0.073222 0.061907 0.011253
v 0.073191 0.045181 0.011335
v 0.073099 0.011711 0.011155
v 0.073090 -0.021829 0.011295
v 0.073103 -0.055370 0.011154
v 0.073193 -0.088840 0.011334
v 0.073223 -0.105566 0.011252
v 0.077218 0.061904 0.052261
v 0.077194 0.045167 0.052197
v 0.077169 0.011663 0.052223
v 0.077169 -0.021829 0.052223
v 0.077169 -0.055321 0.052223
v 0.077196 -0.088826 0.052197
v 0.077218 -0.105563 0.052261
v -0.040359 0.046651 0.013705
v -0.045375 0.036407 0.012876
v -0.052381 0.009754 0.012253
v -0.057449 -0.021826 0.013843
v -0.052387 -0.053411 0.012256
v -0.045358 -0.080054 0.012859
v -0.040358 -0.090310 0.013703
v -0.044781 0.047578 0.023515
v -0.050789 0.037988 0.023185
v -0.059778 0.010905 0.021823
v -0.062798 -0.021828 0.021089
v -0.059778 -0.054564 0.021823
v -0.050789 -0.081648 0.023185
v -0.044781 -0.091239 0.023518
v -0.045033 0.047987 0.049975
v -0.050729 0.038828 0.050466
v -0.060222 0.010859 0.050675
v -0.063513 -0.021793 0.050933
v -0.060112 -0.054493 0.050675
v -0.050514 -0.082369 0.050466
v -0.044952 -0.091179 0.050099
v 0.026895 -0.000668 0.000993
v 0.027955 -0.021155 0.000993
v 0.026895 -0.042758 0.000993
v -0.026429 -0.000973 0.000993
v 0.002533 -0.000240 0.000993
v 0.011911 -0.000462 0.000993
v -0.026430 -0.042384 0.000993
v 0.002531 -0.043227 0.000993
v 0.011911 -0.043000 0.000993
v -0.028403 -0.021800 0.000993
vt 0.445818 0.104366
vt 0.443620 0.111376
vt 0.443721 0.110712
vt 0.668288 0.169937
vt 0.670281 0.163856
vt 0.681867 0.157962
vt 0.682462 0.168635
vt 0.705583 0.157723
vt 0.705893 0.168637
vt 0.667434 0.181534
vt 0.682525 0.180900
vt 0.712982 0.161267
vt 0.716556 0.168883
vt 0.705844 0.180910
vt 0.682388 0.205443
vt 0.665997 0.205652
vt 0.716814 0.180927
vt 0.705864 0.205478
vt 0.682494 0.230038
vt 0.665429 0.229954
vt 0.717035 0.205485
vt 0.705864 0.230038
vt 0.682387 0.254633
vt 0.665996 0.254425
vt 0.717224 0.230038
vt 0.705864 0.254597
vt 0.682525 0.279176
vt 0.667435 0.278542
vt 0.717035 0.254591
vt 0.705844 0.279166
vt 0.668283 0.290132
vt 0.682462 0.291441
vt 0.716815 0.279148
vt 0.705893 0.291439
vt 0.681868 0.302114
vt 0.670310 0.296264
vt 0.716557 0.291194
vt 0.705589 0.302351
vt 0.712969 0.298820
vt 0.873310 0.115700
vt 0.881791 0.116947
vt 0.882062 0.124508
vt 0.873991 0.123776
vt 0.872797 0.094688
vt 0.880670 0.095596
vt 0.904235 0.117609
vt 0.903831 0.124830
vt 0.881246 0.139184
vt 0.871396 0.135113
vt 0.874105 0.069792
vt 0.880066 0.069791
vt 0.904406 0.095560
vt 0.903456 0.139140
vt 0.872800 0.044892
vt 0.880670 0.043983
vt 0.904619 0.069818
vt 0.873296 0.023888
vt 0.881791 0.022631
vt 0.904406 0.044038
vt 0.873990 0.015802
vt 0.882065 0.015070
vt 0.904235 0.022062
vt 0.871395 0.004467
vt 0.881245 0.000394
vt 0.903933 0.015117
vt 0.903398 0.000759
vt 0.103735 0.428451
vt 0.103735 0.444649
vt 0.088160 0.445182
vt 0.089771 0.428905
vt 0.103735 0.461730
vt 0.089771 0.461018
vt 0.084499 0.445182
vt 0.084693 0.428763
vt 0.084693 0.461160
vt 0.710801 0.470038
vt 0.710801 0.485974
vt 0.693369 0.485768
vt 0.691835 0.470016
vt 0.710801 0.454288
vt 0.693369 0.454692
vt 0.516336 0.274887
vt 0.497221 0.270409
vt 0.496820 0.264315
vt 0.516944 0.269259
vt 0.483046 0.259913
vt 0.493984 0.257568
vt 0.516465 0.257638
vt 0.527351 0.274932
vt 0.527076 0.269248
vt 0.479237 0.252425
vt 0.493657 0.224924
vt 0.515721 0.225540
vt 0.526834 0.258580
vt 0.538872 0.275804
vt 0.538854 0.269323
vt 0.473882 0.232975
vt 0.522867 0.225374
vt 0.539191 0.257601
vt 0.551042 0.275919
vt 0.551023 0.269322
vt 0.470025 0.209916
vt 0.492154 0.209897
vt 0.534283 0.225197
vt 0.551023 0.257648
vt 0.573859 0.275852
vt 0.573594 0.269108
vt 0.473887 0.186861
vt 0.493658 0.194692
vt 0.551023 0.234300
vt 0.573483 0.257443
vt 0.479224 0.167403
vt 0.493984 0.162269
vt 0.573291 0.233944
vt 0.551023 0.208886
vt 0.535090 0.209426
vt 0.573573 0.258208
vt 0.573664 0.269747
vt 0.483045 0.159924
vt 0.496820 0.155522
vt 0.515722 0.194157
vt 0.516468 0.162199
vt 0.573209 0.209835
vt 0.573375 0.234198
vt 0.551023 0.185537
vt 0.534283 0.194470
vt 0.497223 0.149426
vt 0.516944 0.150578
vt 0.526834 0.161257
vt 0.522867 0.194319
vt 0.573291 0.185897
vt 0.573292 0.209835
vt 0.551023 0.162188
vt 0.539191 0.162236
vt 0.516336 0.144950
vt 0.527076 0.150589
vt 0.573482 0.162396
vt 0.573375 0.185640
vt 0.538854 0.150514
vt 0.551023 0.150514
vt 0.527351 0.144905
vt 0.573594 0.150729
vt 0.573573 0.161629
vt 0.551007 0.144052
vt 0.538872 0.144032
vt 0.573856 0.144029
vt 0.573685 0.150084
vt 0.468700 0.017453
vt 0.473808 0.007757
vt 0.499451 0.001467
vt 0.498926 0.010064
vt 0.457919 0.021203
vt 0.510048 0.002738
vt 0.511928 0.010591
vt 0.468646 0.025919
vt 0.499107 0.021821
vt 0.453633 0.027706
vt 0.519047 0.000564
vt 0.517768 0.010674
vt 0.511850 0.022958
vt 0.468185 0.047886
vt 0.498819 0.048593
vt 0.446240 0.048285
vt 0.529206 0.000394
vt 0.530198 0.010702
vt 0.517759 0.022957
vt 0.511761 0.047674
vt 0.468002 0.072399
vt 0.498635 0.072399
vt 0.443620 0.072426
vt 0.553827 0.003152
vt 0.553702 0.010830
vt 0.530198 0.022957
vt 0.517759 0.047680
vt 0.511761 0.072399
vt 0.468003 0.097125
vt 0.498819 0.096294
vt 0.446155 0.096532
vt 0.553690 0.022957
vt 0.530198 0.047680
vt 0.517759 0.072396
vt 0.511761 0.097125
vt 0.468541 0.116966
vt 0.499107 0.120968
vt 0.453468 0.117180
vt 0.553680 0.047680
vt 0.530198 0.072397
vt 0.517759 0.097119
vt 0.511851 0.121840
vt 0.468700 0.127758
vt 0.499107 0.135054
vt 0.457856 0.123941
vt 0.553683 0.072399
vt 0.530198 0.097119
vt 0.517759 0.121842
vt 0.511929 0.134208
vt 0.473625 0.137341
vt 0.499381 0.143733
vt 0.553680 0.097118
vt 0.530198 0.121842
vt 0.517768 0.134124
vt 0.510168 0.142363
vt 0.553691 0.121842
vt 0.530198 0.134097
vt 0.519046 0.144234
vt 0.553704 0.133967
vt 0.529258 0.144444
vt 0.553826 0.141635
vt 0.502615 0.209736
vt 0.501713 0.194570
vt 0.514671 0.194390
vt 0.514767 0.209736
vt 0.524777 0.194437
vt 0.524933 0.209736
vt 0.501713 0.224491
vt 0.514671 0.224670
vt 0.524777 0.224624
vt 0.699688 0.408549
vt 0.690420 0.407119
vt 0.687742 0.388506
vt 0.698516 0.390216
vt 0.686554 0.377780
vt 0.698409 0.378633
vt 0.721654 0.384336
vt 0.720534 0.409029
vt 0.686730 0.366561
vt 0.698363 0.366680
vt 0.722201 0.378494
vt 0.686785 0.354711
vt 0.698376 0.354729
vt 0.722423 0.366664
vt 0.731461 0.374132
vt 0.686712 0.332493
vt 0.698405 0.331380
vt 0.723326 0.355527
vt 0.732327 0.365467
vt 0.722403 0.331305
vt 0.732573 0.355685
vt 0.729869 0.331976
vt 0.913956 0.212823
vt 0.904005 0.202437
vt 0.913056 0.207170
vt 0.903282 0.193889
vt 0.913185 0.195085
vt 0.937196 0.207053
vt 0.937088 0.218635
vt 0.903083 0.184057
vt 0.912280 0.183949
vt 0.937242 0.195102
vt 0.949050 0.206200
vt 0.947862 0.216925
vt 0.935916 0.236965
vt 0.915019 0.237622
vt 0.905726 0.160402
vt 0.913211 0.159730
vt 0.937229 0.183152
vt 0.948874 0.194982
vt 0.945184 0.235534
vt 0.937200 0.159806
vt 0.948896 0.183168
vt 0.948920 0.160921
vt 0.718860 0.117065
vt 0.702398 0.124201
vt 0.702398 0.103273
vt 0.722486 0.104886
vt 0.702398 0.096496
vt 0.719800 0.095388
vt 0.702398 0.085669
vt 0.715159 0.090074
vt 0.763177 0.010116
vt 0.780585 0.011225
vt 0.780585 0.018005
vt 0.760491 0.019618
vt 0.767820 0.004801
vt 0.780585 0.000394
vt 0.780585 0.038939
vt 0.764117 0.031801
vn -0.162263 -0.337672 -0.927172
vn -0.392611 -0.696923 -0.600129
vn -0.210758 -0.192994 -0.958298
vn -0.127452 -0.191868 -0.973110
vn -0.045157 -0.290918 -0.955682
vn -0.042340 -0.154666 -0.987059
vn -0.007785 -0.290598 -0.956814
vn -0.011461 -0.155207 -0.987815
vn -0.000035 -0.295501 -0.955342
vn 0.000297 -0.158765 -0.987316
vn 0.000021 -0.294113 -0.955771
vn 0.004055 -0.157912 -0.987445
vn -0.459941 -0.881625 -0.105786
vn -0.193289 -0.864758 -0.463499
vn -0.242396 -0.961165 -0.131929
vn -0.061921 -0.872366 -0.484916
vn -0.081079 -0.979016 -0.186957
vn -0.023212 -0.877309 -0.479365
vn -0.023057 -0.982717 -0.183674
vn -0.000209 -0.883434 -0.468556
vn 0.000348 -0.984191 -0.177110
vn 0.001488 -0.883977 -0.467529
vn 0.006319 -0.985647 -0.168698
vn -0.233908 -0.971481 0.038874
vn -0.467327 -0.883847 0.020468
vn -0.103082 -0.993080 0.056277
vn -0.038735 -0.998557 0.037188
vn 0.013124 -0.998541 0.052385
vn 0.027260 -0.997932 0.058210
vn -0.139181 -0.958646 0.248246
vn -0.076676 -0.981977 0.172747
vn 0.044475 -0.971824 0.231472
vn 0.083715 -0.954035 0.287765
vn -0.065524 -0.092999 0.993508
vn -0.081534 -0.218138 0.972506
vn -0.302583 -0.185424 0.934912
vn -0.284715 -0.091589 0.954227
vn -0.499251 -0.145589 0.854138
vn -0.464651 -0.061074 0.883385
vn -0.026456 -0.133701 0.990668
vn -0.008029 -0.074425 0.997194
vn 0.039490 -0.191593 0.980680
vn 0.021918 -0.101326 0.994612
vn 0.071655 -0.243016 0.967372
vn 0.034854 -0.119547 0.992216
vn -0.029159 -0.008098 0.999542
vn -0.000001 -0.000001 1.000000
vn -0.647904 -0.001997 0.761720
vn -0.506816 -0.003741 0.862046
vn 0.000901 -0.011857 0.999929
vn 0.004077 -0.013510 0.999900
vn 0.006388 -0.013183 0.999893
vn -0.027683 -0.004726 0.999606
vn -0.000001 -0.000001 1.000000
vn -0.645812 -0.003822 0.763487
vn -0.508705 -0.004478 0.860929
vn -0.009877 -0.008126 0.999918
vn 0.004952 -0.008993 0.999947
vn 0.007570 -0.008732 0.999933
vn -0.025875 -0.000078 0.999665
vn -0.000001 0.000000 1.000000
vn -0.643582 0.000005 0.765377
vn -0.506900 0.000005 0.862005
vn -0.015729 0.000001 0.999876
vn 0.005491 0.000000 0.999985
vn 0.008397 0.000001 0.999965
vn -0.027979 0.004822 0.999597
vn -0.000001 -0.000001 1.000000
vn -0.645890 0.003892 0.763420
vn -0.506379 0.004532 0.862299
vn -0.009855 0.008119 0.999919
vn 0.004958 0.009000 0.999947
vn 0.007580 0.008743 0.999933
vn -0.030373 0.008625 0.999501
vn -0.000001 0.000001 1.000000
vn -0.648915 0.003759 0.760852
vn -0.504768 0.004699 0.863242
vn 0.000970 0.011853 0.999929
vn 0.004093 0.013517 0.999900
vn 0.006416 0.013193 0.999892
vn -0.059576 0.080692 0.994957
vn -0.278265 0.081810 0.957014
vn -0.475701 0.056022 0.877821
vn -0.004918 0.073376 0.997292
vn 0.021881 0.101805 0.994564
vn 0.034545 0.120015 0.992171
vn -0.499232 0.132735 0.856241
vn -0.299046 0.177885 0.937512
vn -0.021031 0.132576 0.990950
vn 0.039794 0.193058 0.980380
vn 0.070880 0.244001 0.967181
vn -0.079573 0.213894 0.973611
vn -0.229904 0.972986 0.021056
vn -0.110611 0.965081 0.237451
vn -0.090924 0.994703 0.047947
vn -0.064690 0.983781 0.167302
vn -0.031685 0.998950 0.033088
vn 0.044540 0.972225 0.229772
vn 0.013027 0.998575 0.051743
vn 0.084264 0.954483 0.286115
vn 0.027208 0.997963 0.057696
vn -0.241141 0.959879 -0.143118
vn -0.459702 0.880205 -0.117956
vn -0.467758 0.883851 0.003256
vn -0.074351 0.978692 -0.191401
vn -0.019848 0.982613 -0.184601
vn 0.000470 0.983839 -0.179054
vn 0.005755 0.985294 -0.170768
vn -0.392584 0.696933 -0.600135
vn -0.193283 0.864772 -0.463477
vn -0.061921 0.872366 -0.484915
vn -0.021335 0.876576 -0.480790
vn 0.000171 0.881554 -0.472084
vn 0.000204 0.881935 -0.471370
vn -0.210802 0.193021 -0.958283
vn -0.162267 0.337675 -0.927170
vn -0.127452 0.191921 -0.973099
vn -0.045156 0.290920 -0.955681
vn -0.042312 0.154693 -0.987056
vn -0.008574 0.289363 -0.957181
vn -0.011737 0.154446 -0.987931
vn -0.000229 0.292776 -0.956181
vn 0.000217 0.157083 -0.987585
vn 0.000414 0.291051 -0.956708
vn 0.004286 0.155985 -0.987750
vn -0.184585 0.111613 -0.976458
vn -0.068573 0.076138 -0.994737
vn -0.025387 0.044407 -0.998691
vn -0.024264 0.043124 -0.998775
vn -0.010096 0.056221 -0.998367
vn 0.006251 0.061442 -0.998091
vn -0.023926 0.999401 -0.025009
vn -0.023926 0.999401 -0.025009
vn -0.009082 0.999622 -0.025951
vn -0.011142 0.999604 -0.025821
vn -0.021018 0.030950 -0.999300
vn -0.058165 0.075292 -0.995464
vn -0.038651 0.022064 -0.999009
vn -0.017600 0.034740 -0.999241
vn 0.005180 0.037850 -0.999270
vn -0.256667 -0.000039 -0.966500
vn -0.256212 0.059150 -0.964809
vn -0.013549 0.047767 -0.998767
vn -0.012560 0.000007 -0.999921
vn 0.420335 0.028423 -0.906924
vn 0.422470 0.000002 -0.906377
vn 0.865234 0.016372 -0.501101
vn 0.850571 -0.000190 -0.525859
vn -0.022971 0.000453 -0.999736
vn -0.064594 -0.000208 -0.997912
vn 0.002973 -0.000557 -0.999995
vn -0.256198 -0.060784 -0.964711
vn -0.013569 -0.049086 -0.998702
vn 0.420307 -0.029207 -0.906912
vn 0.868204 -0.016271 -0.495940
vn -0.018022 -0.033977 -0.999260
vn -0.039228 -0.021344 -0.999002
vn 0.004634 -0.036989 -0.999305
vn -0.184243 -0.111142 -0.976577
vn -0.360711 -0.073742 -0.929758
vn -0.058299 -0.074948 -0.995482
vn -0.068624 -0.075837 -0.994756
vn 0.023409 -0.998731 -0.044596
vn 0.025037 -0.998647 -0.045581
vn -0.010580 -0.999149 -0.039860
vn -0.012959 -0.999129 -0.039669
vn 0.032732 -0.998201 -0.050237
vn 0.032732 -0.998201 -0.050237
vn -0.010182 -0.056192 -0.998368
vn -0.024325 -0.043003 -0.998779
vn 0.006240 -0.061468 -0.998090
vn -0.025398 -0.044261 -0.998697
vn -0.816969 0.192720 -0.543527
vn -0.816969 0.192720 -0.543527
vn -0.816969 0.192720 -0.543527
vn 0.381569 0.059926 -0.922396
vn 0.368989 0.059660 -0.927517
vn 0.174642 0.051212 -0.983299
vn 0.178973 0.000028 -0.983854
vn 0.173252 -0.051262 -0.983543
vn 0.390789 -0.058896 -0.918594
vn 0.406502 -0.059101 -0.911736
vn -0.907283 -0.151967 -0.392101
vn -0.907283 -0.151967 -0.392102
vn -0.907283 -0.151967 -0.392102
vn 0.867187 -0.161175 0.471179
vn 0.835101 -0.442900 0.326261
vn 0.945160 -0.325093 -0.031428
vn 0.989220 -0.142851 0.032222
vn 0.880375 -0.019514 0.473877
vn 0.999778 -0.005425 0.020351
vn 0.999783 -0.003462 0.020543
vn 0.904039 -0.011466 0.427295
vn 0.999839 0.000034 0.017967
vn 0.914985 -0.000016 0.403488
vn 0.999780 0.003489 0.020698
vn 0.904130 0.011465 0.427104
vn 0.999781 0.005333 0.020217
vn 0.880652 0.019263 0.473372
vn 0.867996 0.160587 0.469889
vn 0.989235 0.142805 0.031937
vn 0.945163 0.325087 -0.031401
vn 0.835653 0.442840 0.324925
vn 0.954652 -0.292130 -0.057451
vn 0.988169 -0.124440 -0.089645
vn 0.993788 -0.001600 -0.111276
vn 0.993766 -0.000915 -0.111481
vn 0.993757 0.000022 -0.111565
vn 0.993772 0.000938 -0.111430
vn 0.993795 0.001571 -0.111215
vn 0.988177 0.124408 -0.089608
vn 0.954662 0.292098 -0.057443
vn 0.985156 -0.149085 -0.085094
vn 0.990162 -0.046522 -0.131965
vn 0.988744 -0.001654 -0.149607
vn 0.989036 -0.000881 -0.147672
vn 0.989186 0.000001 -0.146665
vn 0.989044 0.000884 -0.147618
vn 0.988764 0.001637 -0.149477
vn 0.990181 0.046459 -0.131846
vn 0.985150 0.149143 -0.085069
vn -0.598340 0.528413 -0.602303
vn -0.486497 0.185262 -0.853814
vn -0.363900 0.073866 -0.928505
vn -0.508762 0.111914 -0.853602
vn -0.617628 0.000011 -0.786470
vn -0.547729 -0.000001 -0.836656
vn -0.508249 -0.112018 -0.853894
vn -0.485504 -0.184581 -0.854527
vn -0.598423 -0.528427 -0.602208
vn -0.721601 0.681585 -0.121389
vn -0.916527 0.366507 -0.160162
vn -0.964724 0.197776 -0.173758
vn -0.983902 -0.000692 -0.178708
vn -0.964946 -0.199173 -0.170910
vn -0.916695 -0.368060 -0.155573
vn -0.720562 -0.684511 -0.110617
vn -0.723237 0.690363 -0.018094
vn -0.926160 0.376933 -0.012211
vn -0.979992 0.198410 -0.015796
vn -0.999825 -0.000760 -0.018687
vn -0.979706 -0.200089 -0.011820
vn -0.925430 -0.378888 -0.004790
vn -0.721727 -0.692169 -0.003447
vn -0.158752 0.077969 0.984235
vn -0.093541 0.024812 0.995306
vn -0.067809 0.010941 0.997638
vn -0.059769 -0.000147 0.998212
vn -0.068276 -0.011042 0.997605
vn -0.091538 -0.022570 0.995546
vn -0.162086 -0.084489 0.983153
vn 0.020832 0.999345 -0.029575
vn 0.019693 0.999386 -0.028984
vn 0.026207 0.999133 -0.032360
vn 0.026207 0.999133 -0.032360
vn 0.926175 0.012604 -0.376883
vn 0.926311 0.000258 -0.376760
vn 0.926304 -0.012420 -0.376573
vn -0.027731 -0.998875 -0.038474
vn -0.027731 -0.998875 -0.038474
vn -0.021035 -0.030815 -0.999304
vn -0.892852 0.038037 -0.448741
vn -0.893463 0.000014 -0.449137
vn -0.892754 -0.038787 -0.448871
s 1
usemtl M_sprout_SG
f 2/82/1 1/83/2 123/84/3 124/85/4
f 3/89/5 2/82/1 124/85/4 125/90/6
f 4/95/7 3/89/5 125/90/6 126/96/8
f 5/100/9 4/95/7 126/96/8 127/101/10
f 6/106/11 5/100/9 127/101/10 128/107/12
f 7/218/13 1/219/2 2/220/14 8/221/15
f 3/222/16 9/223/17 8/221/15 2/220/14
f 4/226/18 10/227/19 9/223/17 3/222/16
f 5/229/20 11/230/21 10/227/19 4/226/18
f 11/230/21 5/229/20 6/233/22 12/234/23
f 8/221/15 14/224/24 13/225/25 7/218/13
f 9/223/17 15/228/26 14/224/24 8/221/15
f 10/227/19 16/231/27 15/228/26 9/223/17
f 11/230/21 17/235/28 16/231/27 10/227/19
f 18/237/29 17/235/28 11/230/21 12/234/23
f 14/224/24 15/228/26 19/232/30
f 15/228/26 16/231/27 20/236/31 19/232/30
f 16/231/27 17/235/28 21/238/32 20/236/31
f 21/238/32 17/235/28 18/237/29 22/239/33
s 3
f 23/148/34 13/149/35 14/150/36 24/151/37
f 24/151/37 14/150/36 19/153/38 25/154/39
f 19/153/38 20/158/40 26/159/41 25/154/39
f 20/158/40 21/164/42 27/165/43 26/159/41
f 27/165/43 21/164/42 22/171/44 28/172/45
f 29/155/46 23/148/34 24/151/37 30/156/47
f 30/156/48 24/151/37 25/154/39 31/160/49
f 25/154/39 26/159/41 32/166/50 31/160/49
f 26/159/41 27/165/43 33/173/51 32/166/50
f 33/173/51 27/165/43 28/172/45 34/179/52
f 35/161/53 29/155/46 30/156/47 36/162/54
f 36/162/55 30/156/48 31/160/49 37/167/56
f 32/166/50 38/174/57 37/167/56 31/160/49
f 33/173/51 39/180/58 38/174/57 32/166/50
f 39/180/58 33/173/51 34/179/52 40/186/59
f 41/168/60 35/161/53 36/162/54 42/169/61
f 42/169/62 36/162/55 37/167/56 43/175/63
f 38/174/57 44/181/64 43/175/63 37/167/56
f 39/180/58 45/187/65 44/181/64 38/174/57
f 45/187/65 39/180/58 40/186/59 46/193/66
f 47/176/67 41/168/60 42/169/61 48/177/68
f 48/177/69 42/169/62 43/175/63 49/182/70
f 44/181/64 50/188/71 49/182/70 43/175/63
f 45/187/65 51/194/72 50/188/71 44/181/64
f 51/194/72 45/187/65 46/193/66 52/199/73
f 53/183/74 47/176/67 48/177/68 54/184/75
f 54/184/76 48/177/69 49/182/70 55/189/77
f 50/188/71 56/195/78 55/189/77 49/182/70
f 51/194/72 57/200/79 56/195/78 50/188/71
f 57/200/79 51/194/72 52/199/73 58/203/80
f 59/190/81 53/183/74 54/184/75 60/191/82
f 60/191/82 54/184/76 55/189/77 61/196/83
f 55/189/77 56/195/78 62/201/84 61/196/83
f 56/195/78 57/200/79 63/204/85 62/201/84
f 63/204/85 57/200/79 58/203/80 64/206/86
f 66/202/87 65/198/88 60/191/82 61/196/83
f 61/196/83 62/201/84 67/205/89 66/202/87
f 62/201/84 63/204/85 68/207/90 67/205/89
f 68/207/90 63/204/85 64/206/86 69/208/91
f 70/197/92 59/190/81 60/191/82 65/198/88
s 1
f 65/240/93 66/241/94 71/242/95
f 66/241/94 67/243/96 72/244/97 71/242/95
f 67/243/96 68/247/98 73/248/99 72/244/97
f 73/248/99 68/247/98 69/254/100 74/255/101
f 65/240/93 76/246/102 75/252/103 70/253/104
f 71/242/95 77/245/105 76/246/102 65/240/93
f 72/244/97 78/249/106 77/245/105 71/242/95
f 73/248/99 79/256/107 78/249/106 72/244/97
f 80/259/108 79/256/107 73/248/99 74/255/101
f 81/258/109 75/252/103 76/246/102 82/251/110
f 77/245/105 83/250/111 82/251/110 76/246/102
f 78/249/106 84/257/112 83/250/111 77/245/105
f 79/256/107 85/260/113 84/257/112 78/249/106
f 85/260/113 79/256/107 80/259/108 86/261/114
f 87/120/115 81/127/109 82/135/116 88/128/117
f 83/141/118 89/136/119 88/128/117 82/135/116
f 84/145/120 90/139/121 89/136/119 83/141/118
f 85/144/122 91/140/123 90/139/121 84/145/120
f 91/140/123 85/144/122 86/146/124 92/142/125
f 93/113/126 87/120/115 88/128/117 94/122/127
f 88/128/117 89/136/119 95/129/128 94/122/127
f 89/136/119 90/139/121 96/134/129 95/129/128
f 90/139/121 91/140/123 97/133/130 96/134/129
f 97/133/130 91/140/123 92/142/125 98/137/131
s 6
f 99/262/132 174/263/133 175/264/134 100/265/135
s 1
f 95/129/128 176/130/136 175/121/137 94/122/127
f 96/134/129 171/126/138 176/130/136 95/129/128
f 97/133/130 103/125/139 171/126/138 96/134/129
f 103/125/139 97/133/130 98/137/131 104/131/140
s 7
f 105/209/141 99/210/142 100/211/143 106/212/144
f 101/213/145 107/214/146 106/212/144 100/211/143
f 102/70/147 108/69/148 107/73/146 101/74/145
s 1
f 103/125/139 109/115/149 172/116/150 171/126/138
f 109/115/149 103/125/139 104/131/140 110/123/151
s 7
f 111/215/152 105/209/141 106/212/144 112/216/153
f 107/214/146 113/217/154 112/216/153 106/212/144
f 108/69/148 114/72/155 113/75/154 107/73/146
s 1
f 109/115/149 115/110/156 173/104/157 172/116/150
f 115/110/156 109/115/149 110/123/151 116/114/158
f 117/87/159 177/92/160 178/93/161 118/88/162
s 9
f 113/270/163 179/271/164 178/272/165 112/273/166
f 114/274/167 173/275/168 179/271/164 113/270/163
s 1
f 115/110/156 121/105/169 120/99/170 173/104/157
f 121/105/169 115/110/156 116/114/158 122/111/171
f 123/84/3 117/87/159 118/88/162 124/85/4
f 118/88/162 119/94/172 125/90/6 124/85/4
f 119/94/172 120/99/170 126/96/8 125/90/6
f 120/99/170 121/105/169 127/101/10 126/96/8
f 127/101/10 121/105/169 122/111/171 128/107/12
s off
f 92/142/173 86/146/174 129/147/175
s 1
f 98/137/131 92/142/125 129/147/176 130/143/177
f 131/138/178 104/131/140 98/137/131 130/143/177
f 132/132/179 110/123/151 104/131/140 131/138/178
f 133/124/180 116/114/158 110/123/151 132/132/179
f 134/117/181 122/111/171 116/114/158 133/124/180
f 128/107/12 122/111/171 134/117/181 135/118/182
s off
f 6/1/183 128/2/184 135/3/185
s 10
f 129/4/186 86/5/187 80/6/188 136/7/189
f 130/10/190 129/4/186 136/7/189 137/11/191
f 138/15/192 131/16/193 130/10/190 137/11/191
f 139/19/194 132/20/195 131/16/193 138/15/192
f 140/23/196 133/24/197 132/20/195 139/19/194
f 141/27/198 134/28/199 133/24/197 140/23/196
f 135/31/200 134/28/199 141/27/198 142/32/201
f 12/35/202 6/36/203 135/31/200 142/32/201
f 136/7/189 80/6/188 74/8/204 143/9/205
f 137/11/191 136/7/189 143/9/205 144/14/206
f 138/15/192 137/11/191 144/14/206 145/18/207
f 139/19/194 138/15/192 145/18/207 146/22/208
f 140/23/196 139/19/194 146/22/208 147/26/209
f 141/27/198 140/23/196 147/26/209 148/30/210
f 142/32/201 141/27/198 148/30/210 149/34/211
f 18/38/212 12/35/202 142/32/201 149/34/211
f 143/9/205 74/8/204 69/12/213 64/13/214
f 144/14/206 143/9/205 64/13/214 58/17/215
f 58/17/215 52/21/216 145/18/207 144/14/206
f 52/21/216 46/25/217 146/22/208 145/18/207
f 46/25/217 40/29/218 147/26/209 146/22/208
f 40/29/218 34/33/219 148/30/210 147/26/209
f 149/34/211 148/30/210 34/33/219 28/37/220
f 18/38/212 149/34/211 28/37/220 22/39/221
s 1
f 87/120/115 150/119/222 81/127/109
f 93/113/126 151/112/223 150/119/222 87/120/115
f 151/112/223 93/113/126 174/109/224 152/108/225
f 152/108/225 174/109/224 180/103/226 153/102/227
f 153/102/227 180/103/226 177/92/160 154/97/228
f 154/97/228 177/92/160 117/87/159 155/91/229
f 123/84/3 156/86/230 155/91/229 117/87/159
f 1/83/2 156/86/230 123/84/3
f 150/43/222 157/42/231 75/48/103 81/49/109
f 151/40/223 158/41/232 157/42/231 150/43/222
f 158/41/232 151/40/223 152/44/225 159/45/233
f 159/45/233 152/44/225 153/50/227 160/51/234
f 160/51/234 153/50/227 154/54/228 161/55/235
f 161/55/235 154/54/228 155/57/229 162/58/236
f 156/60/230 163/61/237 162/58/236 155/57/229
f 1/63/2 7/64/13 163/61/237 156/60/230
f 157/42/231 164/47/238 70/53/104 75/48/103
f 158/41/232 165/46/239 164/47/238 157/42/231
f 159/45/233 166/52/240 165/46/239 158/41/232
f 160/51/234 167/56/241 166/52/240 159/45/233
f 161/55/235 168/59/242 167/56/241 160/51/234
f 162/58/236 169/62/243 168/59/242 161/55/235
f 163/61/237 170/65/244 169/62/243 162/58/236
f 7/64/13 13/66/25 170/65/244 163/61/237
s 3
f 70/197/92 164/192/245 59/190/81
f 59/190/81 164/192/245 165/185/246 53/183/74
f 47/176/67 53/183/74 165/185/246 166/178/247
f 41/168/60 47/176/67 166/178/247 167/170/248
f 35/161/53 41/168/60 167/170/248 168/163/249
f 29/155/46 35/161/53 168/163/249 169/157/250
f 29/155/46 169/157/250 170/152/251 23/148/34
f 23/148/34 170/152/251 13/149/35
s 1
f 175/121/137 174/109/224 93/113/126 94/122/127
s 6
f 175/264/134 176/266/252 101/267/253 100/265/135
f 176/266/252 171/268/254 102/269/255 101/267/253
s 7
f 171/67/256 172/68/257 108/69/148 102/70/147
f 172/68/257 173/71/258 114/72/155 108/69/148
s 9
f 178/272/165 177/276/259 111/277/260 112/273/166
s 1
f 178/93/161 179/98/261 119/94/172 118/88/162
f 179/98/261 173/104/157 120/99/170 119/94/172
f 180/76/226 174/77/224 99/78/262 105/79/263
f 177/80/160 180/76/226 105/79/263 111/81/264
