# This file uses centimeters as units for non-parametric coordinates.

mtllib left_shoulder_link.mtl
v -0.013258 0.000000 -0.013258
v -0.011447 0.000000 -0.014469
v -0.004930 0.000000 -0.017769
v 0.004930 0.000000 -0.017769
v 0.011447 -0.000000 -0.014469
v 0.013258 0.000000 -0.013258
v -0.017323 0.000000 -0.007175
v -0.014378 0.000000 -0.011583
v -0.007403 -0.000000 -0.017170
v 0.007404 0.000000 -0.017170
v 0.014378 0.000000 -0.011583
v 0.017323 0.000000 -0.007175
v -0.018750 0.000000 -0.000000
v -0.018441 -0.000000 -0.001555
v -0.017824 0.000000 -0.004654
v 0.017824 0.000000 -0.004654
v 0.018441 0.000000 -0.001554
v 0.018750 0.000000 -0.000000
v -0.022390 0.010617 0.004921
v -0.016891 0.000000 0.007822
v -0.009916 0.000000 0.015491
v 0.009916 -0.000000 0.015491
v 0.016891 -0.000000 0.007822
v 0.017323 0.000000 0.007175
v -0.030205 0.021988 0.015813
v -0.013258 0.000000 0.013258
v -0.005971 0.000000 0.017562
v 0.005971 -0.000000 0.017562
v 0.013258 0.000000 0.013258
v 0.030202 0.021989 0.015817
v -0.030314 0.025639 0.022361
v -0.011298 0.016500 0.024299
v -0.004585 0.016500 0.026088
v 0.004585 0.016500 0.026088
v 0.011298 0.016500 0.024299
v 0.030304 0.025633 0.022361
v -0.036500 0.031726 0.024040
v -0.023169 0.024575 0.022500
v -0.004939 0.018386 0.026192
v 0.004939 0.018383 0.026191
v 0.023169 0.024575 0.022500
v 0.036500 0.031726 0.024040
v -0.037212 0.038943 0.029025
v -0.028189 0.037504 0.029542
v -0.006918 0.022856 0.025874
v 0.007069 0.022706 0.025946
v 0.028190 0.037504 0.029542
v 0.037212 0.038943 0.029025
v -0.038867 0.049428 0.032354
v -0.027793 0.049328 0.033484
v -0.024056 0.049396 0.032813
v 0.024056 0.049396 0.032813
v 0.027793 0.049328 0.033484
v 0.038867 0.049428 0.032354
v -0.039074 0.063116 0.031701
v -0.027607 0.063831 0.032650
v -0.024056 0.063719 0.032110
v 0.024056 0.063719 0.032110
v 0.027607 0.063831 0.032650
v 0.039074 0.063116 0.031701
v -0.037793 0.073942 0.027169
v -0.027877 0.076034 0.027137
v -0.024172 0.075769 0.026794
v 0.024172 0.075769 0.026794
v 0.027877 0.076034 0.027137
v 0.037793 0.073942 0.027169
v -0.036500 0.081001 0.020885
v -0.028192 0.082590 0.020382
v -0.024352 0.082385 0.020188
v 0.024352 0.082386 0.020188
v 0.028192 0.082590 0.020382
v 0.036500 0.081001 0.020885
v -0.037742 0.085447 0.013109
v -0.027877 0.086025 0.013816
v -0.024172 0.085640 0.013627
v 0.024172 0.085640 0.013627
v 0.027877 0.086025 0.013815
v 0.037742 0.085447 0.013109
v -0.039036 0.087647 0.002157
v -0.027607 0.088845 0.002027
v -0.024056 0.088299 0.001944
v 0.024056 0.088299 0.001944
v 0.027607 0.088845 0.002027
v 0.039036 0.087648 0.002157
v -0.038937 0.085865 -0.010991
v -0.027607 0.087384 -0.010638
v -0.024056 0.086888 -0.010395
v 0.024056 0.086888 -0.010395
v 0.027607 0.087384 -0.010638
v 0.038937 0.085865 -0.010991
v -0.037451 0.080860 -0.020674
v -0.027911 0.082152 -0.020710
v -0.024172 0.081833 -0.020407
v 0.024172 0.081833 -0.020407
v 0.027912 0.082152 -0.020710
v 0.037451 0.080860 -0.020674
v -0.036500 0.074703 -0.026970
v -0.028192 0.076098 -0.027220
v -0.024352 0.075924 -0.026994
v 0.024352 0.075924 -0.026994
v 0.028192 0.076099 -0.027220
v 0.036500 0.074703 -0.026970
v -0.037351 0.067740 -0.030757
v -0.028024 0.067040 -0.032195
v -0.024172 0.066808 -0.031778
v 0.024172 0.066808 -0.031778
v 0.028023 0.067040 -0.032195
v 0.037351 0.067740 -0.030757
v -0.038576 0.055859 -0.032893
v -0.027877 0.056776 -0.034290
v -0.024056 0.056738 -0.033551
v 0.024056 0.056738 -0.033551
v 0.027877 0.056777 -0.034289
v 0.038576 0.055859 -0.032893
v -0.038371 0.043084 -0.030736
v -0.027877 0.043533 -0.032008
v -0.024056 0.043820 -0.031336
v 0.024056 0.043820 -0.031336
v 0.027877 0.043533 -0.032007
v 0.038371 0.043084 -0.030736
v -0.036785 0.033967 -0.025785
v -0.028148 0.033682 -0.026553
v -0.005667 0.022204 -0.026399
v 0.005639 0.022198 -0.026405
v 0.028146 0.033682 -0.026552
v 0.036785 0.033967 -0.025785
v -0.030304 0.025633 -0.022361
v -0.015168 0.016500 -0.021714
v -0.006188 0.016500 -0.025769
v 0.006188 0.016500 -0.025769
v 0.015168 0.016500 -0.021714
v 0.030314 0.025639 -0.022361
v 0.039945 0.073852 -0.026205
v 0.040500 0.058228 -0.024914
v 0.040500 0.042407 -0.023013
v 0.039115 0.028779 -0.019566
v 0.030665 0.021253 -0.013899
v 0.040500 0.075797 -0.011097
v 0.040500 0.059856 -0.009422
v 0.040500 0.043915 -0.007746
v 0.040500 0.027974 -0.006071
v 0.037901 0.022184 -0.003396
v 0.040500 0.077425 0.004395
v 0.040500 0.061484 0.006071
v 0.040500 0.045543 0.007746
v 0.040500 0.029602 0.009422
v 0.038000 0.023053 0.008248
v 0.040456 0.079050 0.019885
v 0.040500 0.063113 0.021564
v 0.040500 0.047172 0.023239
v 0.039660 0.032434 0.023447
v 0.036823 0.027207 0.018571
v -0.039945 0.073852 -0.026205
v -0.040500 0.058228 -0.024914
v -0.040500 0.042407 -0.023013
v -0.039115 0.028779 -0.019566
v -0.030663 0.021253 -0.013901
v -0.040500 0.075797 -0.011097
v -0.040500 0.059856 -0.009422
v -0.040500 0.043915 -0.007746
v -0.040500 0.027974 -0.006071
v -0.037901 0.022184 -0.003396
v -0.040500 0.077425 0.004395
v -0.040500 0.061484 0.006071
v -0.040500 0.045543 0.007746
v -0.040500 0.029602 0.009422
v -0.038000 0.023053 0.008248
v -0.040456 0.079050 0.019885
v -0.040500 0.063113 0.021564
v -0.040500 0.047172 0.023239
v -0.039660 0.032434 0.023447
v -0.036823 0.027207 0.018571
vt 0.918596 0.770840
vt 0.917400 0.770965
vt 0.924615 0.770211
vt 0.923241 0.778572
vt 0.928799 0.769773
vt 0.932543 0.786401
vt 0.917777 0.788096
vt 0.926808 0.787825
vt 0.909617 0.788229
vt 0.913074 0.771417
vt 0.916187 0.792744
vt 0.928241 0.792744
vt 0.903462 0.792263
vt 0.908393 0.771907
vt 0.905867 0.794447
vt 0.935087 0.790174
vt 0.939263 0.793784
vt 0.916187 0.805083
vt 0.928241 0.805083
vt 0.904316 0.805157
vt 0.940295 0.805083
vt 0.916187 0.817421
vt 0.928241 0.817421
vt 0.898428 0.806296
vt 0.901500 0.798919
vt 0.904133 0.817421
vt 0.944081 0.798318
vt 0.947492 0.806077
vt 0.940295 0.817421
vt 0.916187 0.829759
vt 0.928241 0.829759
vt 0.897801 0.816250
vt 0.904404 0.829487
vt 0.948096 0.816608
vt 0.940292 0.829757
vt 0.917082 0.837459
vt 0.927345 0.837765
vt 0.900406 0.825174
vt 0.909226 0.834406
vt 0.945484 0.825261
vt 0.935595 0.835199
vt 0.897801 0.427076
vt 0.900421 0.418101
vt 0.904442 0.413763
vt 0.904169 0.425898
vt 0.916293 0.413489
vt 0.916293 0.425898
vt 0.898432 0.437087
vt 0.904354 0.438233
vt 0.909292 0.408816
vt 0.917194 0.405745
vt 0.928416 0.413489
vt 0.928416 0.425899
vt 0.916293 0.438308
vt 0.901522 0.444507
vt 0.905913 0.449005
vt 0.927515 0.405437
vt 0.940537 0.413492
vt 0.940539 0.425899
vt 0.928416 0.438308
vt 0.916293 0.450717
vt 0.935813 0.408018
vt 0.945758 0.418014
vt 0.948386 0.426716
vt 0.940539 0.438308
vt 0.928416 0.450718
vt 0.909687 0.455259
vt 0.917892 0.455392
vt 0.947778 0.437308
vt 0.939501 0.449672
vt 0.926975 0.455665
vt 0.913162 0.472167
vt 0.918716 0.472748
vt 0.944348 0.445112
vt 0.935302 0.453302
vt 0.924269 0.473329
vt 0.908454 0.471675
vt 0.903495 0.451197
vt 0.932746 0.457097
vt 0.924770 0.473381
vt 0.928977 0.473821
vt 0.282834 0.833384
vt 0.298233 0.825899
vt 0.288620 0.832520
vt 0.277825 0.838119
vt 0.282922 0.831011
vt 0.296645 0.813610
vt 0.303668 0.825748
vt 0.303382 0.827251
vt 0.284555 0.842285
vt 0.277249 0.843482
vt 0.302546 0.813247
vt 0.311094 0.825748
vt 0.311381 0.827248
vt 0.301780 0.830859
vt 0.284875 0.851426
vt 0.275908 0.851601
vt 0.275266 0.838737
vt 0.277564 0.834959
vt 0.312216 0.813247
vt 0.316530 0.825899
vt 0.326143 0.832520
vt 0.313106 0.830733
vt 0.287902 0.851537
vt 0.285026 0.863115
vt 0.275741 0.862623
vt 0.318117 0.813610
vt 0.331921 0.833379
vt 0.336938 0.838119
vt 0.330208 0.842285
vt 0.326861 0.851537
vt 0.287902 0.863072
vt 0.284808 0.873356
vt 0.276778 0.871678
vt 0.331838 0.831011
vt 0.337514 0.843482
vt 0.329887 0.851426
vt 0.287808 0.873173
vt 0.284552 0.879177
vt 0.277825 0.877862
vt 0.337199 0.834959
vt 0.339496 0.838737
vt 0.338855 0.851601
vt 0.329737 0.863115
vt 0.326861 0.863072
vt 0.287662 0.879030
vt 0.284808 0.882482
vt 0.276819 0.882079
vt 0.274622 0.876383
vt 0.339022 0.862623
vt 0.329955 0.873356
vt 0.326955 0.873172
vt 0.287808 0.882190
vt 0.337985 0.871678
vt 0.330210 0.879177
vt 0.327100 0.879030
vt 0.336938 0.877862
vt 0.329955 0.882482
vt 0.326955 0.882190
vt 0.340141 0.876383
vt 0.337943 0.882079
vt 0.244960 0.469757
vt 0.252245 0.470181
vt 0.252360 0.477942
vt 0.244003 0.478764
vt 0.245625 0.464684
vt 0.252114 0.463585
vt 0.255254 0.470394
vt 0.255345 0.478032
vt 0.252360 0.488361
vt 0.244164 0.488812
vt 0.244882 0.460438
vt 0.252333 0.459437
vt 0.255114 0.463739
vt 0.242934 0.465403
vt 0.255345 0.488194
vt 0.252149 0.496416
vt 0.245402 0.496258
vt 0.255254 0.459708
vt 0.269707 0.505298
vt 0.262286 0.510087
vt 0.250464 0.502976
vt 0.292922 0.488194
vt 0.278537 0.505303
vt 0.269300 0.509757
vt 0.265193 0.523425
vt 0.263778 0.523524
vt 0.250184 0.507048
vt 0.243582 0.500772
vt 0.295906 0.488361
vt 0.296116 0.496416
vt 0.278966 0.509757
vt 0.270283 0.523157
vt 0.292922 0.478031
vt 0.295906 0.477942
vt 0.304103 0.488812
vt 0.302864 0.496258
vt 0.285980 0.510087
vt 0.277984 0.523157
vt 0.293013 0.470394
vt 0.296021 0.470181
vt 0.304263 0.478764
vt 0.297810 0.502972
vt 0.283074 0.523425
vt 0.293153 0.463739
vt 0.296152 0.463585
vt 0.303306 0.469757
vt 0.304684 0.500772
vt 0.298084 0.507048
vt 0.284488 0.523524
vt 0.293013 0.459708
vt 0.295934 0.459436
vt 0.302641 0.464684
vt 0.303384 0.460438
vt 0.305332 0.465403
vt 0.478322 0.001265
vt 0.479666 0.000377
vt 0.477491 0.002495
vt 0.475307 0.005730
vt 0.831275 0.048859
vt 0.833710 0.044049
vt 0.833268 0.045875
vt 0.829146 0.051022
vt 0.359121 0.191413
vt 0.359121 0.184136
vt 0.359563 0.182310
vt 0.359563 0.193238
vt 0.368797 0.174619
vt 0.368797 0.200929
vt 0.383661 0.180456
vt 0.383661 0.195093
vt 0.371084 0.174164
vt 0.378002 0.175308
vt 0.385189 0.183367
vt 0.385189 0.192181
vt 0.371084 0.201384
vt 0.378002 0.200240
vt 0.372231 0.173936
vt 0.377525 0.174989
vt 0.184125 0.034560
vt 0.181690 0.029750
vt 0.179560 0.027587
vt 0.183683 0.032734
vt 0.591493 0.262933
vt 0.592837 0.263822
vt 0.595854 0.268288
vt 0.593668 0.265052
vt 0.596913 0.273557
vt 0.596684 0.272416
vt 0.777393 0.098573
vt 0.779578 0.095338
vt 0.776564 0.102699
vt 0.776334 0.103840
vt 0.837442 0.055432
vt 0.842616 0.051331
vt 0.834885 0.060518
vt 0.834427 0.062793
vt 0.654867 0.173157
vt 0.660041 0.177258
vt 0.663055 0.184618
vt 0.662598 0.182343
vt 0.697116 0.008371
vt 0.702775 0.003224
vt 0.704303 0.000312
vt 0.701127 0.005690
vt 0.739743 0.026829
vt 0.734085 0.021681
vt 0.738096 0.024362
vt 0.741271 0.029740
vt 0.867094 0.576990
vt 0.874564 0.576415
vt 0.874768 0.585024
vt 0.866114 0.585021
vt 0.877369 0.576587
vt 0.877457 0.585129
vt 0.874768 0.594627
vt 0.866190 0.595011
vt 0.877457 0.594484
vt 0.874538 0.602584
vt 0.867314 0.602659
vt 0.877369 0.602383
vt 0.000088 0.564481
vt 0.002893 0.564309
vt 0.002689 0.572918
vt 0.000000 0.573023
vt 0.010363 0.564884
vt 0.011343 0.572915
vt 0.002689 0.582521
vt 0.000000 0.582378
vt 0.011267 0.582905
vt 0.002920 0.590478
vt 0.000088 0.590276
vt 0.010143 0.590553
vt 0.665429 0.296534
vt 0.671005 0.299286
vt 0.670733 0.304238
vt 0.665515 0.302306
vt 0.147873 0.223966
vt 0.160823 0.220162
vt 0.154339 0.230083
vt 0.148849 0.232797
vt 0.154249 0.235772
vt 0.149117 0.237675
vn -0.531141 -0.561913 -0.634148
vn -0.331909 -0.449970 -0.829074
vn -0.000001 -1.000000 -0.000000
vn -0.706513 -0.616192 -0.348061
vn -0.000178 1.000000 -0.000271
vn -0.000178 1.000000 -0.000271
vn -0.000178 1.000000 -0.000271
vn -0.000178 1.000000 -0.000271
vn -0.172513 -0.472492 -0.864286
vn 0.172513 -0.472491 -0.864286
vn 0.000000 -1.000000 0.000001
vn 0.000000 -1.000000 0.000001
vn -0.000071 1.000000 0.000110
vn -0.000071 1.000000 0.000110
vn -0.000071 1.000000 0.000110
vn -0.000071 1.000000 0.000110
vn 0.331905 -0.449972 -0.829074
vn 0.531128 -0.561931 -0.634143
vn 0.706536 -0.616209 -0.347985
vn -0.000005 -1.000000 0.000003
vn -0.097387 -0.994977 0.023150
vn -0.767186 -0.630867 -0.115898
vn -0.000000 -1.000000 -0.000000
vn -0.000000 -1.000000 0.000000
vn -0.000002 -1.000000 -0.000001
vn 0.747087 -0.656965 -0.101277
vn -0.692211 -0.704816 0.155173
vn -0.720641 -0.637404 0.272749
vn -0.000000 -1.000000 -0.000000
vn -0.000000 -1.000000 -0.000000
vn 0.539285 -0.761135 0.360340
vn 0.722125 -0.656227 0.218865
vn -0.583531 -0.572259 0.576204
vn -0.520880 -0.651285 0.551825
vn -0.158487 -0.574333 0.803134
vn 0.158488 -0.574332 0.803134
vn 0.487163 -0.551603 0.677057
vn 0.527282 -0.601194 0.600449
vn -0.412445 -0.476335 0.776527
vn -0.412177 -0.519469 0.748507
vn -0.141948 -0.411435 0.900318
vn 0.141939 -0.411450 0.900312
vn 0.412402 -0.476299 0.776572
vn 0.412141 -0.519424 0.748558
vn -0.177072 -0.360750 0.915699
vn -0.229636 -0.579948 0.781619
vn -0.153158 -0.183666 0.970984
vn 0.152493 -0.180402 0.971700
vn 0.182518 -0.366616 0.912294
vn 0.229709 -0.580004 0.781556
vn -0.085820 -0.371634 0.924404
vn -0.497572 -0.360722 0.788861
vn -0.039509 -0.275653 0.960445
vn 0.039012 -0.278118 0.959754
vn 0.088129 -0.372169 0.923972
vn 0.497595 -0.360713 0.788851
vn -0.031827 -0.148305 0.988429
vn -0.617630 -0.083086 0.782068
vn 0.012435 -0.237983 0.971190
vn -0.013561 -0.237620 0.971264
vn 0.033191 -0.147691 0.988476
vn 0.617633 -0.083078 0.782066
vn -0.030414 0.221965 0.974580
vn -0.618000 0.163007 0.769093
vn 0.151006 0.224237 0.962764
vn 0.030414 0.221960 0.974581
vn -0.150998 0.224237 0.962765
vn 0.617999 0.163004 0.769095
vn -0.042790 0.541527 0.839594
vn -0.572414 0.403184 0.713992
vn 0.117664 0.541853 0.832196
vn 0.042790 0.541526 0.839595
vn -0.117660 0.541856 0.832195
vn 0.572415 0.403184 0.713991
vn -0.057524 0.795830 0.602782
vn -0.222534 0.758203 0.612867
vn 0.094223 0.797190 0.596331
vn 0.057524 0.795828 0.602784
vn -0.094216 0.797190 0.596332
vn 0.222531 0.758203 0.612869
vn -0.039483 0.945372 0.323593
vn -0.598935 0.763101 0.242804
vn 0.117953 0.941500 0.315697
vn 0.039484 0.945372 0.323594
vn -0.117949 0.941501 0.315695
vn 0.598937 0.763099 0.242806
vn -0.044118 0.998357 0.036576
vn -0.652041 0.757881 0.021415
vn 0.141700 0.988441 0.053904
vn 0.044116 0.998357 0.036575
vn -0.141705 0.988440 0.053902
vn 0.652040 0.757882 0.021415
vn -0.052820 0.960182 -0.274336
vn -0.653651 0.725394 -0.215740
vn 0.142258 0.950161 -0.277409
vn 0.052817 0.960184 -0.274332
vn -0.142270 0.950159 -0.277413
vn 0.653659 0.725389 -0.215734
vn -0.052176 0.828687 -0.557275
vn -0.576114 0.680752 -0.452403
vn 0.116957 0.823606 -0.554973
vn 0.052181 0.828687 -0.557274
vn -0.116974 0.823606 -0.554969
vn 0.576126 0.680746 -0.452396
vn -0.047726 0.611687 -0.789659
vn -0.158736 0.593950 -0.788686
vn 0.097905 0.600337 -0.793732
vn 0.047729 0.611675 -0.789668
vn -0.097902 0.600343 -0.793728
vn 0.158734 0.593934 -0.788699
vn -0.054443 0.314848 -0.947579
vn -0.533746 0.253860 -0.806642
vn 0.127623 0.329507 -0.935488
vn 0.054439 0.314852 -0.947578
vn -0.127602 0.329513 -0.935489
vn 0.533733 0.253864 -0.806649
vn -0.047893 -0.001388 -0.998851
vn -0.580753 -0.015767 -0.813927
vn 0.173203 -0.013784 -0.984790
vn 0.047895 -0.001381 -0.998851
vn -0.173192 -0.013797 -0.984791
vn 0.580742 -0.015763 -0.813935
vn -0.083948 -0.315405 -0.945237
vn -0.570588 -0.257140 -0.779941
vn -0.033676 -0.276896 -0.960310
vn 0.084024 -0.315436 -0.945220
vn 0.033663 -0.276961 -0.960291
vn 0.570566 -0.257158 -0.779952
vn -0.145782 -0.409901 -0.900405
vn -0.475106 -0.478709 -0.738317
vn -0.042513 -0.242729 -0.969162
vn 0.042259 -0.242686 -0.969184
vn 0.145879 -0.409892 -0.900393
vn 0.475031 -0.478671 -0.738390
vn -0.287647 -0.416652 -0.862357
vn -0.402591 -0.570108 -0.716168
vn -0.172197 -0.380380 -0.908658
vn 0.172305 -0.380450 -0.908608
vn 0.287657 -0.416647 -0.862357
vn 0.402526 -0.570110 -0.716204
vn 0.973698 0.135502 -0.183170
vn 0.994761 0.009787 -0.101759
vn 0.991969 -0.061045 -0.110776
vn 0.892051 -0.378445 -0.247032
vn 0.693359 -0.628363 -0.352722
vn 0.996693 0.073919 -0.033747
vn 0.999980 0.003871 -0.004922
vn 0.999870 -0.012269 -0.010451
vn 0.970837 -0.230079 -0.067372
vn 0.774936 -0.624138 -0.099627
vn 0.997489 0.070625 0.005353
vn 1.000000 0.000379 0.000316
vn 0.999954 -0.005939 0.007551
vn 0.991029 -0.125756 0.045238
vn 0.755900 -0.610049 0.237604
vn 0.976014 0.168534 0.137817
vn 0.997378 0.018663 0.069918
vn 0.995514 -0.026961 0.090691
vn 0.971732 -0.160536 0.173102
vn 0.659800 -0.622146 0.421425
vn -0.973698 0.135500 -0.183169
vn -0.994761 0.009787 -0.101759
vn -0.991969 -0.061045 -0.110775
vn -0.891989 -0.378542 -0.247106
vn -0.693305 -0.628368 -0.352820
vn -0.996693 0.073917 -0.033746
vn -0.999980 0.003871 -0.004922
vn -0.999870 -0.012269 -0.010452
vn -0.970832 -0.230099 -0.067380
vn -0.767506 -0.639530 -0.043995
vn -0.997488 0.070626 0.005354
vn -1.000000 0.000379 0.000316
vn -0.999954 -0.005939 0.007552
vn -0.991029 -0.125755 0.045239
vn -0.707580 -0.646472 0.285315
vn -0.976014 0.168535 0.137817
vn -0.997378 0.018664 0.069917
vn -0.995514 -0.026961 0.090690
vn -0.971732 -0.160536 0.173101
vn -0.640782 -0.670093 0.374666
s 1
usemtl M_sprout_SG
f 1/196/1 2/197/2 8/198/3 7/199/4
s off
f 2/200/5 3/201/6 9/202/7 8/203/8
s 1
f 3/204/9 4/205/10 10/206/11 9/207/12
s off
f 4/220/13 5/221/14 11/222/15 10/223/16
s 1
f 5/224/17 6/225/18 12/226/19 11/227/20
f 7/230/4 8/231/3 14/232/21 13/233/22
f 8/234/3 9/235/12 15/236/23 14/237/21
f 9/207/12 10/206/11 16/208/24 15/209/23
f 10/238/11 11/239/20 17/240/25 16/241/24
f 11/227/20 12/226/19 18/228/26 17/229/25
f 13/1/22 14/2/21 20/3/27 19/4/28
f 14/216/21 15/209/23 21/211/29 20/217/27
f 15/209/23 16/208/24 22/210/30 21/211/29
f 16/208/24 17/212/25 23/213/31 22/210/30
f 17/212/25 18/218/26 24/219/32 23/213/31
f 19/4/28 20/3/27 26/5/33 25/6/34
f 20/242/27 21/243/29 27/244/35 26/245/33
f 21/211/29 22/210/30 28/214/36 27/215/35
f 22/246/30 23/247/31 29/248/37 28/249/36
f 23/80/31 24/76/32 30/79/38 29/81/37
f 25/86/34 26/87/33 32/83/39 31/82/40
f 26/87/33 27/92/35 33/88/41 32/83/39
f 27/92/35 28/100/36 34/93/42 33/88/41
f 28/100/36 29/107/37 35/101/43 34/93/42
f 29/107/37 30/115/38 36/108/44 35/101/43
f 31/82/40 32/83/39 38/84/45 37/85/46
f 32/83/39 33/88/41 39/89/47 38/84/45
f 33/88/41 34/93/42 40/94/48 39/89/47
f 34/93/42 35/101/43 41/102/49 40/94/48
f 35/101/43 36/108/44 42/109/50 41/102/49
f 37/85/46 38/84/45 44/90/51 43/91/52
f 38/84/45 39/89/47 45/95/53 44/90/51
f 39/89/47 40/94/48 46/103/54 45/95/53
f 40/94/48 41/102/49 47/110/55 46/103/54
f 41/102/49 42/109/50 48/116/56 47/110/55
f 43/91/52 44/90/51 50/96/57 49/97/58
f 44/90/51 45/95/53 51/104/59 50/96/57
f 45/95/53 46/103/54 52/111/60 51/104/59
f 46/103/54 47/110/55 53/117/61 52/111/60
f 47/110/55 48/116/56 54/123/62 53/117/61
f 49/97/58 50/96/57 56/105/63 55/106/64
f 50/96/57 51/104/59 57/112/65 56/105/63
f 52/111/60 53/117/61 59/124/66 58/125/67
f 53/117/61 54/123/62 60/130/68 59/124/66
f 55/106/64 56/105/63 62/113/69 61/114/70
f 56/105/63 57/112/65 63/118/71 62/113/69
f 58/125/67 59/124/66 65/131/72 64/132/73
f 59/124/66 60/130/68 66/134/74 65/131/72
f 61/114/70 62/113/69 68/119/75 67/120/76
f 62/113/69 63/118/71 69/126/77 68/119/75
f 64/132/73 65/131/72 71/135/78 70/136/79
f 65/131/72 66/134/74 72/137/80 71/135/78
f 67/120/76 68/119/75 74/127/81 73/128/82
f 68/119/75 69/126/77 75/133/83 74/127/81
f 70/136/79 71/135/78 77/138/84 76/139/85
f 71/135/78 72/137/80 78/141/86 77/138/84
f 73/250/82 74/251/81 80/252/87 79/253/88
f 74/251/81 75/254/83 81/255/89 80/252/87
f 76/262/85 77/263/84 83/264/90 82/265/91
f 77/263/84 78/266/86 84/267/92 83/264/90
f 79/253/88 80/252/87 86/256/93 85/257/94
f 80/252/87 81/255/89 87/258/95 86/256/93
f 82/265/91 83/264/90 89/268/96 88/269/97
f 83/264/90 84/267/92 90/270/98 89/268/96
f 85/257/94 86/256/93 92/259/99 91/260/100
f 86/256/93 87/258/95 93/261/101 92/259/99
f 88/269/97 89/268/96 95/271/102 94/272/103
f 89/268/96 90/270/98 96/273/104 95/271/102
f 91/152/100 92/153/99 98/147/105 97/146/106
f 92/153/99 93/159/101 99/154/107 98/147/105
f 94/191/103 95/192/102 101/186/108 100/185/109
f 95/192/102 96/194/104 102/193/110 101/186/108
f 97/146/106 98/147/105 104/143/111 103/142/112
f 98/147/105 99/154/107 105/148/113 104/143/111
f 100/185/109 101/186/108 107/181/114 106/180/115
f 101/186/108 102/193/110 108/187/116 107/181/114
f 103/142/112 104/143/111 110/144/117 109/145/118
f 104/143/111 105/148/113 111/149/119 110/144/117
f 106/180/115 107/181/114 113/175/120 112/174/121
f 107/181/114 108/187/116 114/182/122 113/175/120
f 109/145/118 110/144/117 116/150/123 115/151/124
f 110/144/117 111/149/119 117/156/125 116/150/123
f 112/174/121 113/175/120 119/170/126 118/163/127
f 113/175/120 114/182/122 120/176/128 119/170/126
f 115/151/124 116/150/123 122/157/129 121/158/130
f 116/150/123 117/156/125 123/160/131 122/157/129
f 117/156/125 118/163/127 124/164/132 123/160/131
f 118/163/127 119/170/126 125/171/133 124/164/132
f 119/170/126 120/176/128 126/177/134 125/171/133
f 121/158/130 122/157/129 128/161/135 127/162/136
f 122/157/129 123/160/131 129/165/137 128/161/135
f 123/160/131 124/164/132 130/172/138 129/165/137
f 124/164/132 125/171/133 131/178/139 130/172/138
f 125/171/133 126/177/134 132/183/140 131/178/139
f 127/162/136 128/161/135 2/166/2 1/167/1
f 128/161/135 129/165/137 3/173/9 2/166/2
f 129/165/137 130/172/138 4/179/10 3/173/9
f 130/172/138 131/178/139 5/184/17 4/179/10
f 131/178/139 132/183/140 6/190/18 5/184/17
f 108/187/116 102/193/110 96/194/104 133/195/141
f 114/42/122 108/43/116 133/44/141 134/45/142
f 120/48/128 114/42/122 134/45/142 135/49/143
f 126/55/134 120/48/128 135/49/143 136/56/144
f 132/183/140 126/177/134 136/188/144 137/189/145
f 6/77/18 132/78/140 137/67/145 12/72/19
f 133/44/141 96/50/104 90/51/98 138/46/146
f 134/45/142 133/44/141 138/46/146 139/47/147
f 135/49/143 134/45/142 139/47/147 140/54/148
f 136/56/144 135/49/143 140/54/148 141/61/149
f 137/67/145 136/56/144 141/61/149 142/68/150
f 12/72/19 137/67/145 142/68/150 18/73/26
f 138/46/146 90/51/98 84/57/92 143/52/151
f 139/47/147 138/46/146 143/52/151 144/53/152
f 140/54/148 139/47/147 144/53/152 145/60/153
f 141/61/149 140/54/148 145/60/153 146/66/154
f 142/68/150 141/61/149 146/66/154 147/71/155
f 18/73/26 142/68/150 147/71/155 24/76/32
f 143/52/151 84/57/92 78/62/86 148/58/156
f 144/53/152 143/52/151 148/58/156 149/59/157
f 145/60/153 144/53/152 149/59/157 150/65/158
f 146/66/154 145/60/153 150/65/158 151/70/159
f 147/71/155 146/66/154 151/70/159 152/75/160
f 24/76/32 147/71/155 152/75/160 30/79/38
f 148/140/156 78/141/86 72/137/80 66/134/74
f 149/59/157 148/58/156 66/63/74 60/64/68
f 150/65/158 149/59/157 60/64/68 54/69/62
f 151/70/159 150/65/158 54/69/62 48/74/56
f 152/121/160 151/122/159 48/116/56 42/109/50
f 30/274/38 152/275/160 42/276/50 36/277/44
f 97/146/106 103/142/112 153/155/161 91/152/100
f 103/38/112 109/32/118 154/26/162 153/33/161
f 109/32/118 115/24/124 155/20/163 154/26/162
f 115/24/124 121/25/130 156/15/164 155/20/163
f 121/158/130 127/162/136 157/168/165 156/169/164
f 127/13/136 1/14/1 7/10/4 157/9/165
f 91/39/100 153/33/161 158/30/166 85/36/94
f 153/33/161 154/26/162 159/22/167 158/30/166
f 154/26/162 155/20/163 160/18/168 159/22/167
f 155/20/163 156/15/164 161/11/169 160/18/168
f 156/15/164 157/9/165 162/7/170 161/11/169
f 157/9/165 7/10/4 13/1/22 162/7/170
f 85/36/94 158/30/166 163/31/171 79/37/88
f 158/30/166 159/22/167 164/23/172 163/31/171
f 159/22/167 160/18/168 165/19/173 164/23/172
f 160/18/168 161/11/169 166/12/174 165/19/173
f 161/11/169 162/7/170 167/8/175 166/12/174
f 162/7/170 13/1/22 19/4/28 167/8/175
f 79/37/88 163/31/171 168/35/176 73/41/82
f 163/31/171 164/23/172 169/29/177 168/35/176
f 164/23/172 165/19/173 170/21/178 169/29/177
f 165/19/173 166/12/174 171/17/179 170/21/178
f 166/12/174 167/8/175 172/16/180 171/17/179
f 167/278/175 19/279/28 25/280/34 172/281/180
f 73/128/82 168/129/176 61/114/70 67/120/76
f 168/35/176 169/29/177 55/34/64 61/40/70
f 169/29/177 170/21/178 49/28/58 55/34/64
f 170/21/178 171/17/179 43/27/52 49/28/58
f 171/98/179 172/99/180 37/85/46 43/91/52
f 172/281/180 25/280/34 31/282/40 37/283/46
