# This file uses centimeters as units for non-parametric coordinates.

mtllib left_humerus_lower_link.mtl
v -0.009857 0.080188 -0.032567
v -0.003210 0.084640 -0.039923
v 0.004553 0.090213 -0.039923
v 0.017127 0.092535 -0.039923
v 0.029705 0.090415 -0.039923
v 0.038830 0.085058 -0.039923
v -0.011456 0.079972 -0.031335
v -0.005062 0.087888 -0.031335
v 0.002535 0.093621 -0.031335
v 0.016667 0.097092 -0.031335
v 0.031715 0.094168 -0.031335
v 0.040843 0.087719 -0.031335
v -0.013855 0.076131 -0.027395
v -0.004722 0.088111 -0.027325
v 0.002667 0.093376 -0.027231
v 0.016696 0.096708 -0.027200
v 0.031595 0.093942 -0.027231
v 0.040708 0.087581 -0.027270
v -0.013226 0.076736 0.027395
v -0.004722 0.088111 0.027325
v 0.002667 0.093376 0.027231
v 0.016696 0.096708 0.027200
v 0.031595 0.093942 0.027231
v 0.040708 0.087581 0.027270
v -0.011447 0.079986 0.030201
v -0.005064 0.087886 0.030201
v 0.002535 0.093621 0.030201
v 0.016667 0.097092 0.030201
v 0.031715 0.094168 0.030201
v 0.040843 0.087719 0.030201
v -0.009857 0.080188 0.032567
v -0.003945 0.086017 0.036023
v 0.004553 0.090213 0.039691
v 0.017127 0.092534 0.041422
v 0.029705 0.090415 0.040750
v 0.038830 0.085059 0.038600
v -0.012391 0.073974 0.033952
v -0.008992 0.077168 0.038185
v -0.000241 0.081146 0.045000
v 0.016635 0.081146 0.045000
v 0.033650 0.081316 0.045000
v 0.043972 0.077140 0.039691
v -0.014929 0.063738 0.033832
v -0.009989 0.065000 0.040884
v -0.000241 0.064757 0.045000
v 0.016635 0.064757 0.045000
v 0.033510 0.064757 0.045000
v 0.045541 0.065000 0.041533
v -0.016993 0.049076 0.030886
v -0.010523 0.050796 0.036977
v -0.000239 0.048369 0.044979
v 0.016635 0.048368 0.045000
v 0.033510 0.048368 0.045000
v 0.042915 0.052360 0.040750
v -0.021145 0.032038 0.026093
v -0.009543 0.031952 0.033542
v 0.001814 0.032379 0.036374
v 0.017159 0.037299 0.041193
v 0.030944 0.037257 0.038153
v 0.038517 0.042275 0.036300
v -0.021637 0.015721 0.025668
v -0.011149 0.015823 0.032518
v 0.001740 0.016204 0.035406
v 0.014687 0.017613 0.034599
v 0.027511 0.020635 0.030017
v 0.033145 0.030297 0.030812
v -0.021321 0.001339 0.025828
v -0.012791 0.000571 0.031379
v 0.000205 0.000978 0.034084
v 0.013429 0.001898 0.031777
v 0.021922 0.004847 0.027211
v 0.027272 0.008487 0.023437
v -0.025671 -0.000800 0.021372
v -0.017111 -0.000800 0.026992
v -0.000555 -0.000800 0.030947
v 0.016633 -0.000800 0.026998
v 0.026086 -0.000800 0.022174
v 0.030884 0.003972 0.015630
v -0.032015 -0.000800 0.008606
v -0.002357 -0.000800 -0.000641
v 0.032154 -0.000800 0.008735
v 0.033441 0.002727 0.005725
v -0.032017 -0.000800 -0.008606
v 0.032152 -0.000800 -0.008735
v 0.033444 0.002739 -0.005722
v -0.025670 -0.000800 -0.021372
v -0.017109 -0.000800 -0.026989
v 0.000078 -0.000800 -0.030987
v 0.016634 -0.000800 -0.026998
v 0.026086 -0.000800 -0.022174
v 0.030883 0.003963 -0.015629
v -0.021328 0.001338 -0.025824
v -0.012771 0.000572 -0.031387
v 0.000239 0.000980 -0.034085
v 0.013460 0.001897 -0.031764
v 0.021912 0.004841 -0.027217
v 0.027271 0.008482 -0.023436
v -0.021638 0.015720 -0.025668
v -0.011137 0.015822 -0.032523
v 0.001733 0.016207 -0.035401
v 0.014676 0.017617 -0.034600
v 0.027511 0.020635 -0.030017
v 0.033144 0.030297 -0.030812
v -0.021144 0.032038 -0.026094
v -0.009547 0.031954 -0.033538
v 0.001814 0.032378 -0.036374
v 0.017159 0.037299 -0.041193
v 0.030944 0.037257 -0.038153
v 0.038524 0.042274 -0.036293
v -0.016993 0.049076 -0.030886
v -0.010523 0.050796 -0.039923
v -0.000239 0.048369 -0.044979
v 0.016635 0.048368 -0.045000
v 0.033510 0.048368 -0.045000
v 0.042915 0.052360 -0.039923
v -0.014928 0.063737 -0.033834
v -0.009989 0.065000 -0.039923
v -0.000241 0.064757 -0.045000
v 0.016635 0.064757 -0.045000
v 0.033510 0.064757 -0.045000
v 0.045541 0.065000 -0.039923
v -0.012391 0.073974 -0.033952
v -0.008992 0.077168 -0.039923
v -0.000241 0.081146 -0.045000
v 0.016635 0.081146 -0.045000
v 0.033650 0.081316 -0.045000
v 0.043973 0.077140 -0.039923
v 0.029912 0.013615 -0.021999
v 0.040653 0.038044 -0.027738
v 0.047404 0.049856 -0.031335
v 0.050161 0.064760 -0.031335
v 0.046964 0.079195 -0.031335
v 0.033670 0.007937 -0.007994
v 0.031345 0.026593 -0.015533
v 0.047047 0.050216 -0.027231
v 0.049837 0.064765 -0.027200
v 0.046740 0.079068 -0.027231
v 0.033668 0.007939 0.007992
v 0.031345 0.026593 0.018689
v 0.047042 0.050217 0.027231
v 0.049838 0.064765 0.027200
v 0.046740 0.079068 0.027231
v 0.029913 0.013621 0.022001
v 0.040651 0.038041 0.030201
v 0.047405 0.049856 0.030201
v 0.050161 0.064760 0.030201
v 0.046964 0.079195 0.030201
v -0.025302 0.015185 -0.021113
v -0.023894 0.030944 -0.021887
v -0.023800 0.046996 -0.021668
v -0.021118 0.059433 -0.022948
v -0.017322 0.067131 -0.026131
v -0.032051 0.015558 -0.008614
v -0.030860 0.031390 -0.008481
v -0.027594 0.046863 -0.008400
v -0.024564 0.057562 -0.008043
v -0.019940 0.060864 -0.016468
v -0.032050 0.015558 0.008614
v -0.030860 0.031390 0.008481
v -0.027594 0.046863 0.008400
v -0.024570 0.057560 0.008049
v -0.019940 0.060864 0.016468
v -0.025304 0.015185 0.021113
v -0.023895 0.030943 0.021887
v -0.023801 0.046997 0.021666
v -0.021119 0.059425 0.022958
v -0.017179 0.067875 0.027660
v 0.039211 0.034903 0.027200
v 0.034556 0.030311 -0.024454
vt 0.106471 0.823233
vt 0.107617 0.818052
vt 0.111122 0.820715
vt 0.109332 0.828093
vt 0.102408 0.812966
vt 0.104512 0.823065
vt 0.107518 0.809517
vt 0.113357 0.810569
vt 0.116765 0.824032
vt 0.112369 0.831592
vt 0.104512 0.829652
vt 0.098515 0.805921
vt 0.102189 0.820355
vt 0.105079 0.797292
vt 0.110122 0.798726
vt 0.104512 0.834434
vt 0.102131 0.829840
vt 0.097445 0.795558
vt 0.086171 0.804366
vt 0.093141 0.807121
vt 0.101111 0.783086
vt 0.107278 0.783014
vt 0.116747 0.796702
vt 0.116765 0.810367
vt 0.102053 0.834230
vt 0.097628 0.782173
vt 0.086461 0.795446
vt 0.072848 0.804368
vt 0.065873 0.807121
vt 0.100758 0.769480
vt 0.106430 0.769566
vt 0.096987 0.769034
vt 0.086529 0.782545
vt 0.072553 0.795446
vt 0.060507 0.805928
vt 0.057872 0.812346
vt 0.100892 0.757488
vt 0.105487 0.756849
vt 0.097202 0.755705
vt 0.086639 0.769345
vt 0.072485 0.782545
vt 0.061567 0.795558
vt 0.051494 0.809516
vt 0.051397 0.818052
vt 0.086632 0.755705
vt 0.072375 0.769345
vt 0.061386 0.782173
vt 0.053935 0.797292
vt 0.053563 0.823053
vt 0.052543 0.823233
vt 0.046453 0.820715
vt 0.046453 0.810569
vt 0.072381 0.755705
vt 0.062027 0.769034
vt 0.057902 0.783085
vt 0.046453 0.798726
vt 0.056825 0.819850
vt 0.053563 0.829653
vt 0.046453 0.826945
vt 0.061812 0.755705
vt 0.058255 0.769480
vt 0.051739 0.783015
vt 0.056883 0.829840
vt 0.053563 0.834434
vt 0.046453 0.831592
vt 0.042249 0.824032
vt 0.058127 0.757488
vt 0.052580 0.769565
vt 0.056961 0.834230
vt 0.053520 0.756849
vt 0.380199 0.775058
vt 0.368587 0.775058
vt 0.365985 0.771989
vt 0.374545 0.770905
vt 0.353490 0.775058
vt 0.356094 0.771979
vt 0.367945 0.767453
vt 0.380050 0.762509
vt 0.384552 0.770144
vt 0.381291 0.766976
vt 0.341877 0.775058
vt 0.347533 0.770913
vt 0.354130 0.767455
vt 0.377188 0.751220
vt 0.387664 0.747996
vt 0.386977 0.756404
vt 0.337519 0.770149
vt 0.340787 0.766980
vt 0.342028 0.762513
vt 0.347615 0.751220
vt 0.387136 0.741257
vt 0.384543 0.743988
vt 0.392406 0.737572
vt 0.394007 0.741939
vt 0.335099 0.756404
vt 0.334413 0.747996
vt 0.346808 0.721395
vt 0.375269 0.721395
vt 0.384570 0.730661
vt 0.387136 0.730975
vt 0.396252 0.728795
vt 0.399924 0.732270
vt 0.328069 0.741939
vt 0.329676 0.737573
vt 0.339907 0.747984
vt 0.384543 0.718000
vt 0.387136 0.718005
vt 0.396928 0.717796
vt 0.322152 0.732270
vt 0.326540 0.728795
vt 0.337069 0.741254
vt 0.384570 0.705553
vt 0.387136 0.705442
vt 0.395337 0.707231
vt 0.333961 0.730974
vt 0.384603 0.698145
vt 0.387136 0.698024
vt 0.394393 0.700340
vt 0.326540 0.717796
vt 0.333960 0.718004
vt 0.337507 0.730662
vt 0.384570 0.692609
vt 0.387136 0.692413
vt 0.396252 0.695678
vt 0.399924 0.703597
vt 0.326540 0.707231
vt 0.333961 0.705442
vt 0.337534 0.718000
vt 0.326540 0.700340
vt 0.333961 0.698024
vt 0.337507 0.705553
vt 0.337473 0.698145
vt 0.333961 0.692413
vt 0.337507 0.692609
vt 0.483271 0.963462
vt 0.479610 0.956488
vt 0.492498 0.956488
vt 0.492874 0.965247
vt 0.479610 0.943883
vt 0.492498 0.943883
vt 0.505493 0.956619
vt 0.502480 0.963617
vt 0.472165 0.944070
vt 0.479611 0.931278
vt 0.492498 0.931278
vt 0.505386 0.943883
vt 0.481179 0.918980
vt 0.492898 0.922764
vt 0.505386 0.931278
vt 0.514574 0.944070
vt 0.513376 0.953407
vt 0.471757 0.933145
vt 0.472506 0.918652
vt 0.481123 0.906540
vt 0.491010 0.907624
vt 0.503426 0.922732
vt 0.512569 0.934349
vt 0.471280 0.906248
vt 0.479950 0.894830
vt 0.490049 0.895538
vt 0.500804 0.909948
vt 0.470025 0.894517
vt 0.479370 0.893463
vt 0.492497 0.893463
vt 0.496536 0.897805
vt 0.499716 0.893463
vt 0.825278 0.763049
vt 0.822845 0.760967
vt 0.829323 0.758695
vt 0.832522 0.763049
vt 0.812588 0.763049
vt 0.812712 0.761675
vt 0.823777 0.748834
vt 0.833615 0.746504
vt 0.813857 0.749922
vt 0.825680 0.733642
vt 0.836246 0.733674
vt 0.802740 0.761990
vt 0.803993 0.750219
vt 0.813919 0.737440
vt 0.825279 0.725098
vt 0.838213 0.725098
vt 0.805211 0.737767
vt 0.812346 0.725097
vt 0.825279 0.712447
vt 0.838213 0.712447
vt 0.804463 0.723223
vt 0.812344 0.712447
vt 0.825279 0.699797
vt 0.838320 0.699666
vt 0.847434 0.712260
vt 0.845421 0.722016
vt 0.804873 0.712260
vt 0.812344 0.699797
vt 0.825656 0.691006
vt 0.835296 0.692642
vt 0.846232 0.702889
vt 0.805637 0.702867
vt 0.816019 0.692798
vt 0.842290 0.696777
vt 0.576766 0.922394
vt 0.582436 0.918325
vt 0.593202 0.915751
vt 0.604636 0.917888
vt 0.611630 0.922804
vt 0.616259 0.929384
vt 0.618637 0.940438
vt 0.616491 0.951681
vt 0.610481 0.963517
vt 0.567206 0.938035
vt 0.570239 0.931186
vt 0.604445 0.969939
vt 0.565087 0.943452
vt 0.201908 0.630182
vt 0.194836 0.620838
vt 0.192150 0.613819
vt 0.232326 0.585103
vt 0.237048 0.591134
vt 0.242000 0.600627
vt 0.244160 0.611974
vt 0.241762 0.623129
vt 0.237091 0.629768
vt 0.230033 0.634730
vt 0.218495 0.636887
vt 0.207630 0.634288
vt 0.190123 0.608932
vt 0.229839 0.582203
vt 0.564495 0.059809
vt 0.557765 0.061403
vt 0.557765 0.050249
vt 0.564495 0.049886
vt 0.554549 0.061298
vt 0.554524 0.050227
vt 0.557765 0.038373
vt 0.564495 0.039960
vt 0.554549 0.038468
vt 0.557765 0.031169
vt 0.564495 0.032758
vt 0.903384 0.605750
vt 0.901110 0.605852
vt 0.901110 0.594956
vt 0.903408 0.594935
vt 0.893845 0.604296
vt 0.892520 0.594602
vt 0.901110 0.583355
vt 0.903384 0.583448
vt 0.893035 0.584905
vt 0.753572 0.450439
vt 0.750380 0.447174
vt 0.762614 0.450118
vt 0.763175 0.452452
vt 0.747269 0.446309
vt 0.744055 0.442992
vt 0.761282 0.426611
vt 0.739367 0.433492
vt 0.775315 0.447179
vt 0.739366 0.420684
vt 0.786783 0.433589
vt 0.782299 0.443589
vt 0.744056 0.411184
vt 0.750382 0.407004
vt 0.786782 0.420588
vt 0.747264 0.407871
vt 0.753587 0.403731
vt 0.763081 0.404029
vt 0.775315 0.406998
vt 0.782299 0.410587
vt 0.763201 0.401724
vn -0.789634 0.487318 -0.372827
vn -0.843043 0.504099 -0.187519
vn -0.671070 0.703162 -0.235007
vn -0.593452 0.610975 -0.523951
vn -0.365648 0.887058 -0.281833
vn -0.215959 0.679132 -0.701528
vn -0.018198 0.958913 -0.283115
vn -0.004834 0.698486 -0.715607
vn 0.338790 0.899172 -0.276967
vn 0.205271 0.682822 -0.701154
vn 0.668546 0.698351 -0.255641
vn 0.571031 0.597919 -0.562510
vn -0.878521 0.467071 -0.100225
vn -0.703065 0.708745 0.058136
vn -0.378152 0.923553 0.063640
vn -0.018483 0.996760 0.078276
vn 0.355769 0.932123 0.067642
vn 0.699628 0.712365 0.055284
vn -0.869690 0.493444 0.012316
vn -0.837388 0.516335 0.179384
vn -0.665697 0.715010 0.213562
vn -0.698776 0.709723 -0.089471
vn -0.356312 0.894302 0.270678
vn -0.376812 0.922119 -0.087802
vn -0.019314 0.962256 0.271460
vn -0.018216 0.994022 -0.107651
vn 0.343517 0.899201 0.270986
vn 0.354478 0.930403 -0.093248
vn 0.668786 0.694270 0.265923
vn 0.698668 0.711350 -0.076444
vn -0.789287 0.488227 0.372370
vn -0.620861 0.627620 0.469707
vn -0.273487 0.691982 0.668106
vn -0.005418 0.927268 0.374360
vn 0.241446 0.694745 0.677520
vn 0.606981 0.613674 0.504954
vn -0.843185 0.273558 0.462824
vn -0.730791 0.367705 0.575098
vn -0.220443 0.235430 0.946561
vn -0.008519 0.146068 0.989238
vn -0.019281 0.389886 0.920661
vn 0.184258 0.179446 0.966358
vn 0.695774 0.250863 0.673027
vn -0.822425 0.058845 0.565821
vn -0.630991 -0.013980 0.775664
vn -0.162902 -0.023175 0.986370
vn -0.000158 -0.000163 1.000000
vn 0.138244 0.004352 0.990389
vn 0.364038 0.015650 0.931253
vn -0.731489 -0.045684 0.680321
vn -0.570483 -0.174525 0.802552
vn -0.235145 -0.217268 0.947366
vn -0.001948 -0.194015 0.980997
vn 0.191057 -0.225640 0.955293
vn 0.662217 -0.244464 0.708312
vn -0.674645 -0.024166 0.737746
vn -0.456017 -0.133012 0.879975
vn -0.208739 -0.252201 0.944893
vn 0.066735 -0.384586 0.920674
vn 0.324917 -0.454339 0.829461
vn 0.621793 -0.503139 0.600186
vn -0.628717 0.004224 0.777623
vn -0.383214 -0.028932 0.923206
vn -0.091726 -0.118880 0.988663
vn 0.177407 -0.258560 0.949565
vn 0.439919 -0.374402 0.816269
vn 0.588170 -0.484688 0.647405
vn -0.620569 -0.070231 0.781000
vn -0.356589 -0.224009 0.907008
vn -0.055457 -0.097778 0.993662
vn 0.262528 -0.351009 0.898817
vn 0.522358 -0.301187 0.797765
vn 0.750144 -0.306494 0.585956
vn -0.855698 0.000902 0.517474
vn -0.036446 -0.997360 0.062807
vn 0.005426 -0.993945 0.109748
vn 0.054990 -0.869292 0.491230
vn 0.061972 -0.991591 0.113604
vn 0.743110 -0.263157 0.615253
vn 0.905648 -0.194878 0.376595
vn -0.000001 -1.000000 -0.000000
vn -0.000001 -1.000000 -0.000000
vn -0.000000 -1.000000 0.000000
vn 0.000000 -1.000000 0.000000
vn -0.000000 -1.000000 0.000000
vn 0.922920 -0.286832 0.256801
vn 0.977070 -0.183405 0.108154
vn -0.000000 -1.000000 0.000000
vn 0.000000 -1.000000 0.000000
vn 0.922888 -0.287177 -0.256529
vn 0.977101 -0.183304 -0.108041
vn -0.000000 -1.000000 0.000000
vn -0.037073 -0.997240 -0.064324
vn 0.008202 -0.993228 -0.115891
vn 0.063628 -0.991199 -0.116088
vn 0.000000 -1.000000 -0.000000
vn 0.743247 -0.262920 -0.615188
vn 0.905567 -0.195121 -0.376665
vn -0.855694 0.000862 -0.517482
vn -0.620451 -0.070435 -0.781075
vn -0.355080 -0.230814 -0.905893
vn 0.043396 -0.870863 -0.489606
vn 0.264041 -0.344612 -0.900847
vn 0.522274 -0.301039 -0.797876
vn 0.750049 -0.306472 -0.586090
vn -0.628599 0.004180 -0.777718
vn -0.383025 -0.028980 -0.923283
vn -0.091643 -0.118856 -0.988673
vn -0.054633 -0.097914 -0.993694
vn 0.177153 -0.258478 -0.949635
vn 0.439893 -0.374428 -0.816271
vn 0.704260 -0.494138 -0.509750
vn -0.691273 -0.037332 -0.721629
vn -0.459541 -0.160779 -0.873483
vn -0.181855 -0.268021 -0.946094
vn 0.066733 -0.384652 -0.920646
vn 0.327519 -0.452318 -0.829542
vn 0.640574 -0.523883 -0.561437
vn -0.763979 -0.050583 -0.643255
vn -0.561637 -0.155936 -0.812557
vn -0.192862 -0.219478 -0.956365
vn -0.001947 -0.194012 -0.980997
vn 0.213085 -0.216322 -0.952785
vn 0.650219 -0.233792 -0.722881
vn -0.845295 0.098821 -0.525081
vn -0.622313 0.032681 -0.782086
vn -0.176435 0.004199 -0.984303
vn -0.000158 -0.000162 -1.000000
vn 0.166066 -0.003610 -0.986108
vn 0.679143 -0.009016 -0.733950
vn -0.859078 0.260646 -0.440509
vn -0.661327 0.206199 -0.721199
vn -0.182683 0.179553 -0.966637
vn -0.001437 0.172364 -0.985032
vn 0.168708 0.174170 -0.970156
vn 0.671118 0.201755 -0.713369
vn 0.942208 -0.175527 -0.285366
vn 0.896084 -0.415806 -0.155364
vn 0.868223 -0.346121 -0.355512
vn 0.736031 -0.557160 -0.384489
vn 0.956585 -0.005401 -0.291403
vn 0.901068 0.351847 -0.253534
vn 0.995680 0.071837 -0.058827
vn 0.998206 0.059719 0.004188
vn 0.957902 -0.269795 0.098153
vn 0.996695 0.013057 0.080178
vn 0.926351 0.371225 0.063754
vn 0.995917 0.072313 0.054035
vn 0.994078 0.101289 0.039369
vn 0.904261 -0.204128 0.375025
vn 0.993753 0.013031 -0.110835
vn 0.960558 -0.007188 0.277988
vn 0.889401 -0.329394 0.316962
vn 0.940897 -0.327324 -0.087020
vn 0.924854 0.370018 -0.087933
vn 0.899149 0.354645 0.256434
vn 0.756626 -0.507266 0.412551
vn 0.923553 -0.013821 0.383221
vn -0.859070 0.032771 -0.510807
vn -0.877168 0.064106 -0.475885
vn -0.905904 0.115164 -0.407523
vn -0.908974 0.229191 -0.348191
vn -0.891667 0.297119 -0.341541
vn -0.977054 0.004687 -0.212941
vn -0.975411 0.037903 -0.217109
vn -0.973377 0.116480 -0.197408
vn -0.968557 0.197870 -0.150814
vn -0.866083 0.494382 -0.074076
vn -0.724854 0.688881 0.005379
vn -0.977058 0.004681 0.212921
vn -0.975416 0.037901 0.217088
vn -0.973379 0.116481 0.197396
vn -0.968574 0.197822 0.150766
vn -0.866268 0.494098 0.073798
vn -0.736171 0.676740 -0.008639
vn -0.859063 0.032759 0.510820
vn -0.877169 0.064111 0.475882
vn -0.905899 0.115070 0.407560
vn -0.910000 0.230501 0.344629
vn -0.883486 0.255855 0.392416
vn 0.871299 -0.294406 -0.392637
vn 0.862607 -0.272785 -0.426026
vn 0.862607 -0.272785 -0.426026
vn 0.472961 0.705711 0.527523
vn 0.472961 0.705711 0.527523
vn 0.550089 0.822618 0.143880
vn 0.550628 0.823451 0.136885
vn 0.555613 0.831441 -0.000000
vn 0.555613 0.831441 -0.000000
vn 0.392897 0.611134 -0.687129
vn 0.392897 0.611134 -0.687129
vn 0.392897 0.611134 -0.687129
vn 0.392897 0.611134 -0.687130
vn -0.004384 -0.003353 -0.999985
vn -0.004384 -0.003353 -0.999985
vn -0.004384 -0.003353 -0.999985
vn -0.004384 -0.003353 -0.999985
vn -0.004384 -0.003353 -0.999985
vn -0.004384 -0.003353 -0.999985
vn -0.004384 -0.003353 -0.999985
vn -0.004384 -0.003353 -0.999985
vn -0.004384 -0.003353 -0.999985
vn -0.004384 -0.003353 -0.999985
vn -0.004384 -0.003353 -0.999985
vn 0.024282 0.037740 0.998992
vn 0.024282 0.037740 0.998992
vn 0.024282 0.037740 0.998993
vn 0.024282 0.037740 0.998992
vn 0.024282 0.037740 0.998992
vn 0.024282 0.037740 0.998992
vn 0.024282 0.037740 0.998992
vn 0.024282 0.037740 0.998992
vn 0.024282 0.037740 0.998992
vn 0.024282 0.037740 0.998992
vn 0.024282 0.037740 0.998992
vn 0.024282 0.037740 0.998992
s 1
usemtl M_sprout_SG
f 1/50/1 7/49/2 8/58/3 2/59/4
f 2/59/4 8/58/3 9/64/5 3/65/6
f 3/228/6 9/229/5 10/230/7 4/231/8
f 4/231/8 10/230/7 11/234/9 5/235/10
f 5/235/10 11/234/9 12/237/11 6/238/12
f 7/49/2 13/57/13 14/63/14 8/58/3
f 8/58/3 14/63/14 15/69/15 9/64/5
f 9/229/5 15/232/15 16/233/16 10/230/7
f 10/230/7 16/233/16 17/236/17 11/234/9
f 11/133/9 17/134/17 18/132/18 12/130/11
f 19/13/19 25/6/20 26/11/21 20/17/22
f 20/17/22 26/11/21 27/16/23 21/25/24
f 21/239/24 27/240/23 28/241/25 22/242/26
f 22/242/26 28/241/25 29/245/27 23/246/28
f 23/122/28 29/123/27 30/117/29 24/116/30
f 25/6/20 31/1/31 32/4/32 26/11/21
f 26/11/21 32/4/32 33/10/33 27/16/23
f 27/240/23 33/243/33 34/244/34 28/241/25
f 28/241/25 34/244/34 35/247/35 29/245/27
f 29/123/27 35/124/35 36/118/36 30/117/29
f 31/1/31 37/2/37 38/3/38 32/4/32
f 32/4/32 38/3/38 39/9/39 33/10/33
f 33/135/33 39/136/39 40/137/40 34/138/41
f 34/138/41 40/137/40 41/141/42 35/142/35
f 35/124/35 41/125/42 42/114/43 36/118/36
f 37/2/37 43/7/44 44/8/45 38/3/38
f 44/143/45 45/139/46 39/136/39
f 39/136/39 45/139/46 46/140/47 40/137/40
f 40/137/40 46/140/47 47/146/48 41/141/42
f 41/141/42 47/146/48 48/150/49 42/151/43
f 43/7/44 49/14/50 50/15/51 44/8/45
f 44/8/45 50/15/51 51/23/52 45/24/46
f 45/139/46 51/144/52 52/145/53 46/140/47
f 46/140/47 52/145/53 53/149/54 47/146/48
f 47/146/48 53/149/54 54/157/55 48/150/49
f 49/14/50 55/21/56 56/22/57 50/15/51
f 50/152/51 56/153/57 57/147/58 51/144/52
f 51/144/52 57/147/58 58/148/59 52/145/53
f 52/145/53 58/148/59 59/156/60 53/149/54
f 53/102/54 59/94/60 60/93/61 54/101/55
f 55/21/56 61/30/62 62/31/63 56/22/57
f 56/153/57 62/158/63 63/154/64 57/147/58
f 57/147/58 63/154/64 64/155/65 58/148/59
f 58/148/59 64/155/65 65/161/66 59/156/60
f 59/94/60 65/86/66 66/85/67 60/93/61
f 61/30/62 67/37/68 68/38/69 62/31/63
f 62/158/63 68/162/69 69/159/70 63/154/64
f 63/154/64 69/159/70 70/160/71 64/155/65
f 64/155/65 70/160/71 71/165/72 65/161/66
f 65/86/66 71/79/72 72/80/73 66/85/67
f 67/252/68 73/253/74 74/249/75 68/248/69
f 68/248/69 74/249/75 75/250/76 69/251/77
f 69/159/77 75/163/76 76/164/78 70/160/71
f 70/160/71 76/164/78 77/166/79 71/165/72
f 71/79/72 77/71/79 78/74/80 72/80/73
f 73/253/81 79/255/82 80/254/83 74/249/75
f 74/249/75 80/254/83 75/250/76
f 75/250/76 80/254/83 76/256/78
f 76/256/78 80/254/83 81/258/84 77/259/85
f 77/71/79 81/72/86 82/73/87 78/74/80
f 79/255/82 83/257/88 80/254/83
f 80/254/83 84/262/89 81/258/84
f 81/72/86 84/75/90 85/76/91 82/73/87
f 83/257/88 86/260/92 87/261/93 80/254/83
f 80/254/83 87/261/93 88/265/94
f 80/254/83 88/265/94 89/266/95
f 80/254/83 89/266/95 90/267/96 84/262/89
f 84/75/90 90/81/97 91/82/98 85/76/91
f 86/260/99 92/263/100 93/264/101 87/261/93
f 87/261/93 93/264/101 94/268/102 88/265/94
f 88/171/94 94/172/102 95/168/103 89/167/95
f 89/167/95 95/168/103 96/169/104 90/170/97
f 90/81/97 96/87/104 97/88/105 91/82/98
f 92/67/100 98/61/106 99/68/107 93/70/101
f 93/178/101 99/179/107 100/175/108 94/172/109
f 94/172/109 100/175/108 101/173/110 95/168/103
f 95/168/103 101/173/110 102/174/111 96/169/104
f 96/87/104 102/95/111 103/96/112 97/88/105
f 98/61/106 104/55/113 105/62/114 99/68/107
f 99/179/107 105/183/114 106/180/115 100/175/108
f 100/175/108 106/180/115 107/176/116 101/173/110
f 101/173/110 107/176/116 108/177/117 102/174/111
f 102/95/111 108/103/117 109/104/118 103/96/112
f 104/55/113 110/48/119 111/56/120 105/62/114
f 105/183/114 111/187/120 112/184/121 106/180/115
f 106/180/115 112/184/121 113/181/122 107/176/116
f 107/176/116 113/181/122 114/182/123 108/177/117
f 108/103/117 114/109/123 115/110/124 109/104/118
f 110/48/119 116/43/125 117/52/126 111/56/120
f 111/187/120 117/193/126 118/188/127 112/184/121
f 112/184/121 118/188/127 119/185/128 113/181/122
f 113/181/122 119/185/128 120/186/129 114/182/123
f 114/182/123 120/186/129 121/191/130 115/192/124
f 116/43/125 122/44/131 123/51/132 117/52/126
f 117/193/126 123/198/132 124/194/133 118/188/127
f 118/188/127 124/194/133 125/189/134 119/185/128
f 119/185/128 125/189/134 126/190/135 120/186/129
f 120/186/129 126/190/135 127/197/136 121/191/130
f 122/44/131 1/50/1 2/59/4 123/51/132
f 123/51/132 2/59/4 3/65/6 124/66/133
f 124/194/133 3/199/6 4/195/8 125/189/134
f 125/189/134 4/195/8 5/196/10 126/190/135
f 126/190/135 5/196/10 6/200/12 127/197/136
f 103/96/112 128/89/137 91/82/98 97/88/105
f 169/105/138 128/89/137 103/96/112
f 115/110/124 130/115/139 129/111/140 109/104/118
f 121/119/130 131/120/141 130/115/139 115/110/124
f 127/126/136 132/127/142 131/120/141 121/119/130
f 6/129/12 12/130/11 132/127/142 127/126/136
f 128/89/137 133/83/143 85/76/91 91/82/98
f 134/90/144 133/83/143 128/89/137
f 130/115/139 135/121/145 129/111/140
f 131/120/141 136/128/146 135/121/145 130/115/139
f 132/127/142 137/131/147 136/128/146 131/120/141
f 12/130/11 18/132/18 137/131/147 132/127/142
f 133/83/143 138/77/148 82/73/87 85/76/91
f 134/90/144 139/84/149 138/77/148 133/83/143
f 138/77/148 143/78/150 78/74/80 82/73/87
f 143/78/150 138/77/148 139/84/149
f 141/106/151 146/107/152 145/100/153 140/99/154
f 142/112/155 147/113/156 146/107/152 141/106/151
f 24/116/30 30/117/29 147/113/156 142/112/155
f 143/78/150 66/85/67 72/80/73 78/74/80
f 144/91/157 60/93/61 66/85/67 143/78/150
f 145/100/153 54/101/55 60/93/61 144/91/157
f 146/107/152 48/108/158 54/101/55 145/100/153
f 147/113/156 42/114/43 48/108/158 146/107/152
f 30/117/29 36/118/36 42/114/43 147/113/156
f 92/67/100 86/60/99 148/54/159 98/61/106
f 98/61/106 148/54/159 149/47/160 104/55/113
f 104/55/113 149/47/160 150/42/161 110/48/119
f 110/48/119 150/42/161 151/35/162 116/43/125
f 116/43/125 151/35/162 152/36/163 122/44/131
f 122/44/131 152/36/163 7/49/2 1/50/1
f 86/60/99 83/53/164 153/46/165 148/54/159
f 148/54/159 153/46/165 154/41/166 149/47/160
f 149/47/160 154/41/166 155/34/167 150/42/161
f 150/42/161 155/34/167 156/28/168 151/35/162
f 151/35/162 156/28/168 157/29/169 152/36/163
f 152/36/163 13/57/13 7/49/2
f 83/53/164 79/45/170 158/40/171 153/46/165
f 153/46/165 158/40/171 159/33/172 154/41/166
f 154/41/166 159/33/172 160/27/173 155/34/167
f 155/34/167 160/27/173 161/19/174 156/28/168
f 156/28/168 161/19/174 162/20/175 157/29/169
f 79/45/170 73/39/74 163/32/176 158/40/171
f 158/40/171 163/32/176 164/26/177 159/33/172
f 159/33/172 164/26/177 165/18/178 160/27/173
f 160/27/173 165/18/178 166/12/179 161/19/174
f 161/19/174 166/12/179 167/5/180 162/20/175
f 73/39/74 67/37/68 61/30/62 163/32/176
f 163/32/176 61/30/62 55/21/56 164/26/177
f 164/26/177 55/21/56 49/14/50 165/18/178
f 165/18/178 49/14/50 43/7/44 166/12/179
f 166/12/179 43/7/44 37/2/37 167/5/180
f 167/5/180 37/2/37 31/1/31 25/6/20
f 167/5/180 25/6/20 19/13/19
f 38/3/38 44/8/45 39/9/39
f 140/99/154 145/100/153 144/91/157 168/92/181
f 169/105/138 134/90/144 128/89/137
f 129/111/140 169/105/138 103/96/112 109/104/118
f 144/91/157 143/78/182 139/84/183 168/92/181
s 7
f 169/217/184 152/216/185 157/226/186 134/227/187
f 134/90/187 157/97/186 162/98/188 139/84/189
s off
f 139/212/190 162/213/191 167/210/192 168/209/193
f 20/201/194 21/202/195 22/203/196 23/204/197 24/205/198 142/206/199 141/207/200 140/208/201 168/209/202 167/210/203 19/211/204
f 14/214/205 13/215/206 152/216/207 169/217/208 129/218/209 135/219/210 136/220/211 137/221/212 18/222/213 17/223/214 16/224/215 15/225/216
