# This file uses centimeters as units for non-parametric coordinates.

mtllib left_hip_link.mtl
v -0.024305 0.031801 -0.090036
v -0.023497 0.033231 -0.090752
v -0.008533 0.033411 -0.090748
v 0.007344 0.031325 -0.089769
v 0.022828 0.029461 -0.088664
v 0.023368 0.029308 -0.088473
v -0.025579 0.027235 -0.087792
v -0.024189 0.027080 -0.088124
v -0.008477 0.027113 -0.088053
v 0.008075 0.027148 -0.087978
v 0.022851 0.027180 -0.087911
v 0.023500 0.027251 -0.087756
v -0.025579 0.016775 -0.080637
v -0.024189 0.016571 -0.080935
v -0.008432 0.016615 -0.080871
v 0.008119 0.016661 -0.080803
v 0.022851 0.016702 -0.080743
v 0.023500 0.016797 -0.080605
v -0.026003 0.012045 -0.076100
v -0.024189 0.011553 -0.076469
v -0.008400 0.011615 -0.076422
v 0.008152 0.011680 -0.076373
v 0.022851 0.011739 -0.076330
v 0.023822 0.012020 -0.076118
v -0.026261 0.003705 -0.064725
v -0.024189 0.003013 -0.065085
v -0.008385 0.003083 -0.065048
v 0.008167 0.003157 -0.065010
v 0.022851 0.003222 -0.064976
v 0.023822 0.003538 -0.064811
v -0.026261 -0.000121 -0.053035
v -0.024189 -0.000853 -0.053275
v -0.008391 -0.000779 -0.053250
v 0.008161 -0.000701 -0.053225
v 0.022851 -0.000632 -0.053203
v 0.023822 -0.000297 -0.053093
v -0.027886 -0.006500 -0.030546
v -0.020000 -0.006500 -0.036363
v -0.007373 -0.003300 -0.042852
v 0.007012 -0.003206 -0.042969
v 0.019500 -0.006500 -0.036633
v 0.028085 -0.006500 -0.030362
v -0.033896 -0.006500 -0.023764
v -0.025689 -0.006500 -0.030393
v -0.020000 -0.006500 -0.034445
v 0.019500 -0.006500 -0.034731
v 0.025651 -0.006500 -0.030379
v 0.033998 -0.006500 -0.023680
v -0.039172 -0.006500 -0.013269
v -0.034822 -0.006500 -0.019099
v -0.021683 -0.006500 -0.033274
v 0.021394 -0.006500 -0.033453
v 0.034734 -0.006500 -0.019237
v 0.039185 -0.006500 -0.013240
v -0.041349 -0.006500 0.001487
v -0.039668 -0.006500 0.001795
v -0.039033 -0.006500 0.007233
v 0.039112 -0.006500 0.006788
v 0.039688 -0.006500 0.001581
v 0.041369 -0.006500 0.001487
v -0.038255 -0.006500 0.015888
v -0.032395 -0.006500 0.023059
v -0.016436 -0.006500 0.036147
v 0.016707 -0.006500 0.036016
v 0.032458 -0.006500 0.022931
v 0.038275 -0.006500 0.015943
v -0.035545 -0.006500 0.021192
v -0.028134 -0.006500 0.028093
v -0.013763 -0.006500 0.037286
v 0.011782 -0.006500 0.037956
v 0.028168 -0.006500 0.028024
v 0.035523 -0.006500 0.021284
v -0.032874 -0.006500 0.025104
v -0.024828 -0.006500 0.031819
v -0.009889 -0.006500 0.038449
v 0.009984 -0.006500 0.038421
v 0.024829 -0.006500 0.031819
v 0.032780 -0.006500 0.025219
v -0.030340 -0.006500 0.028315
v -0.022083 -0.006500 0.034971
v -0.008276 -0.006500 0.039236
v 0.008276 -0.006500 0.039236
v 0.022030 -0.006500 0.035017
v 0.030725 -0.006500 0.027897
v -0.027265 -0.006500 0.031107
v -0.018704 -0.003697 0.035060
v -0.006101 -0.001223 0.037690
v 0.006469 -0.001236 0.037637
v 0.019118 -0.003689 0.034829
v 0.027064 -0.006500 0.031313
v -0.022525 0.000830 0.029214
v -0.014759 0.004672 0.031047
v -0.005414 0.006859 0.032651
v 0.005479 0.006879 0.032628
v 0.014709 0.004669 0.031068
v 0.022786 0.000842 0.029001
v -0.016955 0.013821 0.023978
v -0.010006 0.016894 0.025968
v -0.004770 0.018357 0.026649
v 0.004770 0.018360 0.026647
v 0.010028 0.016885 0.025966
v 0.016839 0.013827 0.024047
v -0.021024 0.051033 0.013616
v -0.003768 0.023034 0.024332
v 0.003767 0.023034 0.024332
v 0.009652 0.023034 0.022751
v 0.022682 0.050428 0.010647
v -0.011846 0.058765 0.011976
v 0.005982 0.050599 0.012761
v 0.019748 0.056356 0.010673
v 0.022418 0.057499 0.010260
v -0.021024 0.062697 0.011911
v -0.013489 0.063566 0.011124
v 0.002985 0.063257 0.010029
v 0.019458 0.062947 0.008934
v 0.022878 0.064544 0.008323
v -0.022080 0.067457 0.010233
v -0.021656 0.067501 0.010356
v -0.011763 0.068963 0.009002
v 0.004739 0.068642 0.008152
v 0.021216 0.068462 0.007250
v 0.022418 0.068626 0.007117
v -0.021227 0.075041 0.006987
v -0.021024 0.073727 0.007751
v -0.011858 0.073707 0.007043
v 0.004617 0.073165 0.006046
v 0.022772 0.073262 0.004665
v 0.022847 0.074244 0.004146
v -0.022412 0.079680 0.003636
v -0.021268 0.081383 0.002884
v -0.010642 0.082459 0.001393
v 0.005708 0.080643 0.001494
v 0.022058 0.078826 0.001595
v 0.022418 0.078786 0.001598
v -0.022412 0.086724 -0.001830
v -0.021628 0.087108 -0.001902
v -0.010270 0.087481 -0.003441
v 0.006232 0.086828 -0.004086
v 0.022494 0.087080 -0.005655
v 0.022805 0.085433 -0.004125
v -0.023104 0.093776 -0.010768
v -0.021656 0.094281 -0.010425
v -0.010048 0.093449 -0.010667
v 0.006200 0.093388 -0.012273
v 0.022835 0.092326 -0.012525
v 0.022969 0.091698 -0.011605
v -0.023597 0.098748 -0.020919
v -0.021024 0.099755 -0.020510
v -0.010393 0.099314 -0.021347
v 0.006080 0.098268 -0.021797
v 0.022418 0.097101 -0.021138
v 0.023445 0.096635 -0.021332
v -0.023125 0.102395 -0.032627
v -0.021420 0.102760 -0.031067
v -0.010420 0.101909 -0.030366
v 0.005962 0.100909 -0.031025
v 0.022897 0.100077 -0.032000
v 0.022969 0.100263 -0.032906
v -0.023389 0.102727 -0.040864
v -0.021024 0.103774 -0.039790
v -0.010845 0.103115 -0.039222
v 0.005609 0.102034 -0.038712
v 0.022565 0.100911 -0.039423
v 0.022650 0.100883 -0.040602
v -0.022412 0.103121 -0.046510
v -0.021229 0.103039 -0.049611
v -0.011028 0.102274 -0.050936
v 0.005420 0.101409 -0.049946
v 0.021867 0.100545 -0.048956
v 0.022418 0.100516 -0.048923
v -0.022412 0.100807 -0.058039
v -0.021526 0.101393 -0.056756
v -0.011608 0.101368 -0.054335
v 0.004398 0.099822 -0.056158
v 0.022940 0.098558 -0.056567
v 0.022969 0.098448 -0.056997
v -0.022412 0.099912 -0.059982
v -0.021024 0.099334 -0.062805
v -0.011024 0.098920 -0.062181
v 0.005436 0.098238 -0.061154
v 0.021896 0.097556 -0.060127
v 0.022418 0.097535 -0.060095
v -0.022988 0.095220 -0.069419
v -0.021656 0.095686 -0.069704
v -0.010268 0.094913 -0.069357
v 0.006228 0.094072 -0.068882
v 0.022882 0.093210 -0.068426
v 0.022969 0.093407 -0.068067
v -0.023225 0.088852 -0.077363
v -0.021448 0.089698 -0.077541
v -0.009788 0.089598 -0.076484
v 0.006553 0.088439 -0.076298
v 0.022824 0.087574 -0.075728
v 0.023072 0.087197 -0.076001
v -0.023280 0.080425 -0.084739
v -0.021405 0.080948 -0.085366
v -0.009491 0.080858 -0.084497
v 0.006911 0.079976 -0.083897
v 0.022773 0.079355 -0.083080
v 0.023130 0.079123 -0.083036
v -0.023597 0.069870 -0.090555
v -0.021024 0.070315 -0.091538
v -0.009424 0.070058 -0.090875
v 0.007055 0.069628 -0.089949
v 0.022418 0.069281 -0.089063
v 0.023445 0.069093 -0.088597
v -0.023453 0.056588 -0.094207
v -0.021491 0.056782 -0.095106
v -0.009614 0.056708 -0.094456
v 0.006876 0.056511 -0.093459
v 0.022418 0.056244 -0.092526
v 0.023445 0.056139 -0.092035
v -0.023551 0.046681 -0.094814
v -0.022105 0.046341 -0.095399
v -0.008187 0.046753 -0.095531
v 0.004672 0.046883 -0.094895
v 0.020960 0.047021 -0.092827
v 0.023307 0.046648 -0.092335
v -0.024200 0.039777 -0.093152
v -0.022703 0.039910 -0.093541
v -0.009449 0.042885 -0.094279
v 0.007088 0.043062 -0.093812
v 0.022482 0.040047 -0.092170
v 0.023328 0.040033 -0.091967
v 0.023055 0.098735 -0.055500
v 0.023410 0.096845 -0.060385
v 0.025263 0.089354 -0.069993
v 0.027924 0.078927 -0.076997
v 0.027949 0.066199 -0.084518
v 0.028030 0.052658 -0.087530
v 0.023845 0.040128 -0.091620
v 0.023777 0.030353 -0.088585
v 0.022969 0.100776 -0.045058
v 0.026067 0.096373 -0.052161
v 0.028339 0.090358 -0.060663
v 0.028500 0.079492 -0.071275
v 0.028500 0.063767 -0.081318
v 0.028500 0.046459 -0.084747
v 0.028110 0.033089 -0.084822
v 0.024789 0.024773 -0.084779
v 0.023194 0.100348 -0.034940
v 0.028105 0.095410 -0.039270
v 0.028500 0.091506 -0.047247
v 0.028500 0.086522 -0.061839
v 0.028500 0.062186 -0.081874
v 0.028500 0.035966 -0.081995
v 0.028500 0.023327 -0.076666
v 0.027479 0.015796 -0.074794
v 0.023445 0.096864 -0.021966
v 0.028339 0.091925 -0.025384
v 0.028500 0.089713 -0.027987
v 0.028500 0.091329 -0.034990
v 0.028500 0.038598 -0.082670
v 0.028500 0.015815 -0.068266
v 0.028500 0.012398 -0.063360
v 0.027997 0.008443 -0.063880
v 0.023017 0.091214 -0.011055
v 0.028339 0.084417 -0.012155
v 0.028500 0.078821 -0.010332
v 0.028500 0.066758 -0.002220
v 0.020900 0.027148 -0.011965
v 0.028500 0.006339 -0.037247
v 0.028500 0.006449 -0.046016
v 0.027855 0.003348 -0.051683
v 0.023063 0.083322 -0.002398
v 0.027855 0.074502 -0.002008
v 0.028500 0.065269 -0.000505
v 0.028500 0.049886 0.001652
v 0.028500 0.027004 -0.004437
v 0.028500 0.011694 -0.019946
v 0.032981 -0.005097 -0.023542
v 0.030338 -0.006500 -0.028317
v 0.022969 0.075850 0.003297
v 0.023445 0.068135 0.006771
v 0.027934 0.056759 0.004915
v 0.028339 0.042628 0.004145
v 0.028471 0.027218 -0.001507
v 0.033458 0.005282 -0.005899
v 0.038977 -0.006500 -0.013831
v 0.036521 -0.006500 -0.019418
v 0.022706 0.067228 0.007545
v 0.023305 0.059680 0.009265
v 0.023227 0.050039 0.010371
v 0.025095 0.037740 0.007243
v 0.028177 0.011972 0.011172
v 0.036550 0.000026 0.007452
v 0.041365 -0.006500 0.000823
v 0.040848 -0.006500 -0.006501
v 0.022734 0.062343 0.008928
v 0.022969 0.055289 0.010401
v 0.022969 0.044353 0.010579
v 0.021510 0.013817 0.020065
v 0.028910 0.001936 0.021586
v 0.035799 -0.006500 0.020767
v 0.038475 -0.006500 0.015346
v 0.040483 -0.006500 0.008761
v -0.023216 0.100820 -0.055965
v -0.023569 0.098762 -0.061301
v -0.026548 0.090525 -0.069840
v -0.029867 0.078494 -0.077593
v -0.030741 0.066373 -0.083667
v -0.028990 0.052073 -0.088974
v -0.025365 0.040310 -0.092437
v -0.025159 0.031055 -0.089425
v -0.023104 0.102932 -0.045547
v -0.027345 0.097322 -0.051813
v -0.031821 0.089169 -0.060076
v -0.032188 0.080159 -0.072018
v -0.032188 0.064094 -0.082256
v -0.032188 0.046453 -0.084871
v -0.031362 0.033450 -0.083829
v -0.026261 0.024385 -0.085347
v -0.023273 0.102515 -0.034485
v -0.031362 0.094351 -0.039174
v -0.032188 0.092331 -0.048384
v -0.032188 0.087388 -0.062311
v -0.032188 0.062501 -0.082815
v -0.032188 0.035710 -0.082957
v -0.032188 0.023333 -0.076656
v -0.028584 0.015706 -0.076487
v -0.023597 0.098826 -0.021140
v -0.031955 0.090453 -0.025885
v -0.032188 0.090656 -0.027690
v -0.032188 0.092330 -0.034917
v -0.032188 0.038329 -0.083630
v -0.032188 0.015078 -0.068932
v -0.032188 0.011540 -0.063864
v -0.030326 0.008424 -0.063710
v -0.024808 0.091225 -0.010577
v -0.031380 0.083984 -0.012543
v -0.032188 0.079579 -0.009671
v -0.032188 0.067335 -0.001413
v -0.032188 0.020240 -0.008105
v -0.032188 0.005337 -0.037221
v -0.032188 0.005481 -0.046172
v -0.029919 0.003028 -0.050982
v -0.023250 0.084539 -0.000671
v -0.029652 0.074755 -0.001652
v -0.032188 0.065308 -0.000423
v -0.032188 0.049944 0.002646
v -0.032188 0.026484 -0.003595
v -0.032188 0.010742 -0.019541
v -0.032188 0.006295 -0.031353
v -0.030723 -0.006500 -0.027898
v -0.023113 0.077363 0.004913
v -0.024698 0.068834 0.007491
v -0.030300 0.056196 0.004828
v -0.032105 0.042910 0.002336
v -0.032188 0.027946 -0.002727
v -0.033449 0.005284 -0.005970
v -0.038972 -0.006500 -0.013866
v -0.036482 -0.006500 -0.019483
v -0.022412 0.067422 0.010137
v -0.023499 0.059965 0.011383
v -0.023418 0.049895 0.012492
v -0.025963 0.037282 0.008528
v -0.028199 0.011972 0.011085
v -0.036545 0.000025 0.007399
v -0.041354 -0.006500 0.000823
v -0.040843 -0.006500 -0.006508
v -0.022412 0.056332 0.012853
v -0.023104 0.044947 0.012823
v -0.021454 0.013813 0.020128
v -0.029013 0.001919 0.021482
v -0.035826 -0.006500 0.020683
v -0.038463 -0.006500 0.015297
v -0.040458 -0.006500 0.008744
v -0.021656 0.056363 0.013084
v -0.021656 0.056363 0.013084
v -0.021656 0.056363 0.013084
v -0.021024 0.062697 0.011911
v -0.021024 0.062697 0.011911
v -0.021024 0.062697 0.011911
v -0.021024 0.062697 0.011911
v -0.021656 0.056363 0.013084
v -0.021024 0.062697 0.011911
v -0.021120 0.063423 0.011676
v -0.021120 0.063423 0.011676
v -0.021024 0.062697 0.011911
v -0.021656 0.067501 0.010356
v -0.022080 0.067457 0.010233
v -0.022080 0.067457 0.010233
v -0.021024 0.062697 0.011911
v -0.021656 0.056363 0.013084
v -0.021120 0.063423 0.011676
vt 0.168998 0.041014
vt 0.171265 0.043463
vt 0.176877 0.049979
vt 0.172213 0.044712
vt 0.059673 0.586557
vt 0.068238 0.590725
vt 0.070644 0.596482
vt 0.063504 0.592598
vt 0.056124 0.583146
vt 0.063215 0.586582
vt 0.071220 0.593455
vt 0.076164 0.599925
vt 0.074256 0.605577
vt 0.068802 0.601380
vt 0.049875 0.585096
vt 0.052188 0.588818
vt 0.062954 0.586399
vt 0.056486 0.583213
vt 0.048000 0.580917
vt 0.079234 0.606959
vt 0.076396 0.616152
vt 0.073945 0.615080
vt 0.060366 0.593016
vt 0.038259 0.584015
vt 0.037586 0.586971
vt 0.038968 0.580314
vt 0.081070 0.616912
vt 0.075437 0.627558
vt 0.072042 0.630579
vt 0.036270 0.587094
vt 0.028553 0.582089
vt 0.027565 0.586267
vt 0.080668 0.626147
vt 0.071729 0.637627
vt 0.065624 0.641588
vt 0.021662 0.584902
vt 0.017235 0.587462
vt 0.081118 0.617417
vt 0.080830 0.625618
vt 0.077910 0.634558
vt 0.070102 0.645637
vt 0.061343 0.647988
vt 0.066117 0.639944
vt 0.055337 0.647949
vt 0.024058 0.590135
vt 0.014467 0.594334
vt 0.017051 0.587255
vt 0.011254 0.592639
vt 0.078844 0.632709
vt 0.074463 0.640815
vt 0.064885 0.650025
vt 0.058355 0.653844
vt 0.050975 0.651955
vt 0.034525 0.645893
vt 0.036933 0.651072
vt 0.017468 0.595347
vt 0.010203 0.602998
vt 0.008531 0.597007
vt 0.062122 0.652196
vt 0.054356 0.655793
vt 0.048512 0.655621
vt 0.038064 0.653001
vt 0.011200 0.635273
vt 0.020805 0.645366
vt 0.007631 0.611113
vt 0.006823 0.615544
vt 0.005439 0.606668
vt 0.009311 0.594190
vt 0.004217 0.602389
vt 0.058726 0.653908
vt 0.037008 0.674680
vt 0.035672 0.671968
vt 0.031385 0.666492
vt 0.020903 0.656981
vt 0.008354 0.629259
vt 0.007591 0.648252
vt 0.002296 0.606966
vt 0.029371 0.682185
vt 0.027679 0.676782
vt 0.021597 0.667754
vt 0.009827 0.655318
vt 0.004244 0.626381
vt 0.004994 0.645443
vt 0.003820 0.616447
vt 0.000000 0.617371
vt 0.024889 0.686096
vt 0.021370 0.678905
vt 0.014716 0.665309
vt 0.007963 0.651509
vt 0.001165 0.626579
vt 0.004311 0.644048
vt 0.023749 0.683767
vt 0.019562 0.675210
vt 0.026124 0.688620
vt 0.028074 0.687599
vt 0.831419 0.234379
vt 0.829146 0.224580
vt 0.832129 0.225196
vt 0.835323 0.237593
vt 0.473205 0.255552
vt 0.470025 0.243209
vt 0.470150 0.244410
vt 0.478443 0.261565
vt 0.570368 0.081417
vt 0.578445 0.089426
vt 0.583370 0.102545
vt 0.582240 0.097481
vt 0.633742 0.923971
vt 0.639727 0.901861
vt 0.656683 0.890485
vt 0.640772 0.939701
vt 0.687156 0.896584
vt 0.693168 0.925572
vt 0.662027 0.889402
vt 0.677691 0.891148
vt 0.658018 0.950249
vt 0.682435 0.946974
vt 0.662496 0.950990
vt 0.676357 0.949586
vt 0.647317 0.165898
vt 0.639023 0.148743
vt 0.646014 0.164384
vt 0.663162 0.174873
vt 0.619465 0.276118
vt 0.624072 0.272569
vt 0.620803 0.284702
vt 0.617899 0.285575
vt 0.590202 0.177127
vt 0.599652 0.173666
vt 0.597179 0.181327
vt 0.587894 0.184614
vt 0.595869 0.172363
vt 0.603658 0.168696
vt 0.611753 0.172086
vt 0.608454 0.175622
vt 0.590517 0.188856
vt 0.585633 0.194948
vt 0.586686 0.180353
vt 0.581296 0.187304
vt 0.612836 0.166157
vt 0.623317 0.171775
vt 0.624571 0.173598
vt 0.599363 0.180292
vt 0.584350 0.204681
vt 0.583856 0.206081
vt 0.577628 0.195599
vt 0.623097 0.165498
vt 0.636291 0.172779
vt 0.639157 0.177733
vt 0.586418 0.221766
vt 0.584047 0.218136
vt 0.575669 0.206700
vt 0.634686 0.167371
vt 0.646637 0.174269
vt 0.648838 0.182969
vt 0.594120 0.233485
vt 0.587257 0.229333
vt 0.577738 0.217096
vt 0.642567 0.170328
vt 0.652708 0.179668
vt 0.656397 0.184966
vt 0.654076 0.191732
vt 0.646776 0.182836
vt 0.599274 0.240486
vt 0.588539 0.238105
vt 0.579336 0.226694
vt 0.575649 0.206890
vt 0.575834 0.216079
vt 0.647307 0.173925
vt 0.655074 0.182185
vt 0.660583 0.191052
vt 0.659913 0.194477
vt 0.658583 0.205210
vt 0.657675 0.200260
vt 0.604896 0.241026
vt 0.610447 0.243214
vt 0.601383 0.248298
vt 0.593995 0.244021
vt 0.582872 0.233275
vt 0.578065 0.225089
vt 0.662605 0.196020
vt 0.660937 0.206395
vt 0.656888 0.220330
vt 0.653772 0.226976
vt 0.625290 0.244488
vt 0.623846 0.244625
vt 0.612567 0.249711
vt 0.605090 0.250242
vt 0.596274 0.246353
vt 0.588677 0.240540
vt 0.664953 0.207269
vt 0.660520 0.217628
vt 0.643215 0.238147
vt 0.642543 0.250023
vt 0.631219 0.260293
vt 0.626534 0.266324
vt 0.625139 0.269159
vt 0.600097 0.248735
vt 0.663696 0.217197
vt 0.650914 0.230970
vt 0.654504 0.248254
vt 0.641789 0.261682
vt 0.635245 0.271409
vt 0.633299 0.277481
vt 0.660519 0.235962
vt 0.659564 0.237913
vt 0.656529 0.244114
vt 0.649206 0.259078
vt 0.642044 0.273713
vt 0.638285 0.281395
vt 0.643986 0.269744
vt 0.639292 0.279338
vt 0.636891 0.284242
vt 0.634692 0.283345
vt 0.772903 0.879394
vt 0.771053 0.865556
vt 0.771177 0.864325
vt 0.777171 0.887200
vt 0.778220 0.848020
vt 0.794069 0.898965
vt 0.834769 0.859395
vt 0.824485 0.892742
vt 0.795422 0.837131
vt 0.819840 0.840482
vt 0.835845 0.864938
vt 0.832681 0.882450
vt 0.799462 0.900091
vt 0.815078 0.898315
vt 0.348558 0.068121
vt 0.352403 0.055808
vt 0.357147 0.049377
vt 0.348684 0.066911
vt 0.001318 0.139319
vt 0.001861 0.137993
vt 0.000018 0.148429
vt 0.000000 0.148608
vt 0.755392 0.007928
vt 0.763228 0.000340
vt 0.751090 0.016720
vt 0.749928 0.021947
vt 0.433057 0.027110
vt 0.441520 0.009577
vt 0.457720 0.000377
vt 0.440222 0.011082
vt 0.982300 0.127977
vt 0.988051 0.137094
vt 0.998669 0.145039
vt 0.989124 0.138358
vt 0.902426 0.269310
vt 0.887239 0.250718
vt 0.897625 0.259629
vt 0.903521 0.274760
vt 0.463534 0.006932
vt 0.466294 0.001045
vt 0.461002 0.010471
vt 0.454182 0.016828
vt 0.174449 0.229247
vt 0.177763 0.226781
vt 0.176891 0.245291
vt 0.168998 0.238956
vt 0.926383 0.250781
vt 0.927501 0.250539
vt 0.927676 0.257530
vt 0.926184 0.258083
vt 0.926866 0.244188
vt 0.928032 0.245561
vt 0.937063 0.250982
vt 0.937465 0.257246
vt 0.927712 0.266520
vt 0.926138 0.266688
vt 0.926866 0.242882
vt 0.927610 0.242024
vt 0.936428 0.245651
vt 0.925895 0.245468
vt 0.926191 0.242172
vt 0.950913 0.251432
vt 0.951186 0.258023
vt 0.937715 0.266292
vt 0.928032 0.276316
vt 0.925871 0.276307
vt 0.926866 0.237307
vt 0.927859 0.238414
vt 0.935937 0.241223
vt 0.950248 0.245798
vt 0.964896 0.251903
vt 0.964847 0.258457
vt 0.951486 0.266728
vt 0.937771 0.276278
vt 0.927640 0.287335
vt 0.925992 0.287171
vt 0.936425 0.239417
vt 0.949376 0.242961
vt 0.964068 0.245945
vt 0.964805 0.266902
vt 0.951607 0.276278
vt 0.937612 0.287169
vt 0.927124 0.295004
vt 0.925911 0.294560
vt 0.950234 0.239709
vt 0.964944 0.244015
vt 0.964506 0.245950
vt 0.964969 0.251638
vt 0.965055 0.258824
vt 0.965104 0.267056
vt 0.964506 0.276229
vt 0.951457 0.286974
vt 0.938810 0.294751
vt 0.926622 0.299039
vt 0.925365 0.299004
vt 0.964044 0.240001
vt 0.964969 0.244241
vt 0.965368 0.276208
vt 0.964506 0.286852
vt 0.949606 0.294441
vt 0.937751 0.297131
vt 0.925955 0.302939
vt 0.925277 0.303734
vt 0.965368 0.286763
vt 0.963282 0.293642
vt 0.951635 0.296845
vt 0.938519 0.302806
vt 0.925375 0.306510
vt 0.924207 0.306285
vt 0.924560 0.304067
vt 0.965252 0.293746
vt 0.964560 0.298476
vt 0.951850 0.303988
vt 0.938566 0.306462
vt 0.965270 0.298418
vt 0.964851 0.304966
vt 0.952464 0.306411
vt 0.938604 0.311645
vt 0.925375 0.311699
vt 0.965304 0.305013
vt 0.964870 0.306366
vt 0.952501 0.311589
vt 0.965647 0.304293
vt 0.965414 0.306261
vt 0.964870 0.311539
vt 0.672288 0.708393
vt 0.673358 0.708220
vt 0.673358 0.716256
vt 0.672288 0.716392
vt 0.673358 0.720781
vt 0.671961 0.720874
vt 0.685487 0.716286
vt 0.685512 0.720793
vt 0.673358 0.730996
vt 0.671763 0.731021
vt 0.698228 0.716316
vt 0.698253 0.720805
vt 0.685524 0.730998
vt 0.673358 0.740045
vt 0.671763 0.739977
vt 0.709569 0.716343
vt 0.709569 0.720816
vt 0.698265 0.731001
vt 0.685519 0.740038
vt 0.676582 0.753038
vt 0.670512 0.756905
vt 0.710068 0.716406
vt 0.710316 0.720869
vt 0.709569 0.731003
vt 0.698260 0.740031
vt 0.686302 0.747732
vt 0.672203 0.757007
vt 0.665885 0.761413
vt 0.709569 0.708331
vt 0.710068 0.708411
vt 0.710316 0.731015
vt 0.709569 0.740025
vt 0.697376 0.747625
vt 0.676582 0.754313
vt 0.665173 0.764514
vt 0.661824 0.768390
vt 0.710316 0.739994
vt 0.706989 0.752858
vt 0.706989 0.754123
vt 0.661442 0.778404
vt 0.660148 0.778199
vt 0.713598 0.757027
vt 0.711724 0.757016
vt 0.667041 0.792539
vt 0.662530 0.787772
vt 0.718150 0.761469
vt 0.670321 0.795885
vt 0.664616 0.791298
vt 0.722142 0.768409
vt 0.718716 0.764423
vt 0.679326 0.801240
vt 0.681384 0.801996
vt 0.672866 0.798362
vt 0.666672 0.793899
vt 0.723824 0.778199
vt 0.722529 0.778261
vt 0.674979 0.800458
vt 0.668623 0.796033
vt 0.721442 0.787808
vt 0.716964 0.792454
vt 0.719324 0.791359
vt 0.713662 0.795840
vt 0.717212 0.793975
vt 0.711091 0.798362
vt 0.704839 0.801153
vt 0.701048 0.802442
vt 0.715630 0.795755
vt 0.708937 0.800488
vt 0.578566 0.158022
vt 0.575649 0.153717
vt 0.576492 0.154991
vt 0.586693 0.164931
vt 0.274827 0.580353
vt 0.274622 0.550466
vt 0.275541 0.549033
vt 0.275670 0.581626
vt 0.304502 0.535627
vt 0.304822 0.594753
vt 0.285773 0.538940
vt 0.300755 0.535192
vt 0.325537 0.552579
vt 0.325631 0.577656
vt 0.285871 0.591567
vt 0.300909 0.595234
vt 0.326933 0.556306
vt 0.326451 0.575633
vt 0.327268 0.557666
vt 0.327288 0.572703
vt 0.327854 0.558958
vt 0.327854 0.571482
vt 0.000000 0.011876
vt 0.003132 0.007222
vt 0.011151 0.000350
vt 0.000920 0.010443
vt 0.702398 0.063580
vt 0.702902 0.067309
vt 0.720846 0.087137
vt 0.708174 0.078162
vt 0.662096 0.254963
vt 0.662553 0.251392
vt 0.656812 0.266033
vt 0.644305 0.275006
vt 0.654867 0.256175
vt 0.661483 0.245301
vt 0.662320 0.242371
vt 0.657548 0.253674
vt 0.662886 0.241150
vt 0.659817 0.251597
vt 0.662015 0.170271
vt 0.654867 0.157872
vt 0.657598 0.160399
vt 0.662350 0.171631
vt 0.659899 0.162516
vt 0.662936 0.172923
vt 0.844990 0.764524
vt 0.852182 0.762604
vt 0.855496 0.768347
vt 0.848971 0.768377
vt 0.862769 0.761534
vt 0.863347 0.767923
vt 0.859489 0.776166
vt 0.853651 0.776571
vt 0.849343 0.761721
vt 0.860942 0.758626
vt 0.873330 0.761568
vt 0.872498 0.767947
vt 0.863888 0.776167
vt 0.850232 0.796677
vt 0.874849 0.758626
vt 0.883957 0.762774
vt 0.880253 0.768331
vt 0.871903 0.776170
vt 0.864730 0.779430
vt 0.886404 0.761688
vt 0.890633 0.764374
vt 0.887038 0.768535
vt 0.876320 0.776165
vt 0.871060 0.779430
vt 0.857943 0.800483
vt 0.849701 0.798866
vt 0.882043 0.776523
vt 0.876004 0.780578
vt 0.872921 0.797150
vt 0.886951 0.798626
vt 0.884486 0.800613
vt 0.870403 0.803415
vt 0.856563 0.802725
vt 0.886729 0.801299
vt 0.884243 0.804105
vt 0.871877 0.806599
vt 0.858013 0.806090
vt 0.849701 0.798866
vt 0.850232 0.801861
vt 0.887192 0.800449
vt 0.886995 0.803905
vt 0.887116 0.805088
vt 0.885720 0.807192
vt 0.871774 0.809657
vt 0.857934 0.809117
vt 0.850232 0.801861
vt 0.849701 0.804613
vt 0.886729 0.807344
vt 0.887026 0.810691
vt 0.872691 0.815489
vt 0.858955 0.816177
vt 0.850232 0.808610
vt 0.887089 0.811400
vt 0.886427 0.814801
vt 0.873131 0.821630
vt 0.859268 0.821383
vt 0.850028 0.814730
vt 0.849346 0.804688
vt 0.850062 0.809609
vt 0.886729 0.814786
vt 0.886793 0.822853
vt 0.873104 0.829789
vt 0.859454 0.828644
vt 0.849725 0.820139
vt 0.849066 0.813609
vt 0.849066 0.804746
vt 0.850232 0.801861
vt 0.887192 0.812560
vt 0.886971 0.806560
vt 0.887054 0.821186
vt 0.887080 0.829612
vt 0.873004 0.838349
vt 0.859164 0.838376
vt 0.849701 0.828750
vt 0.849066 0.819958
vt 0.848478 0.811899
vt 0.887271 0.819219
vt 0.887592 0.807429
vt 0.887474 0.802759
vt 0.887192 0.828732
vt 0.886729 0.837476
vt 0.872905 0.845938
vt 0.859141 0.845798
vt 0.850232 0.837918
vt 0.848485 0.828828
vt 0.848363 0.818377
vt 0.887592 0.837459
vt 0.887132 0.846363
vt 0.872608 0.851895
vt 0.858784 0.852631
vt 0.849900 0.846594
vt 0.848071 0.837875
vt 0.887192 0.847083
vt 0.886853 0.852031
vt 0.872449 0.859834
vt 0.858631 0.860844
vt 0.850232 0.853265
vt 0.848467 0.847602
vt 0.887381 0.848588
vt 0.887592 0.837997
vt 0.886924 0.852877
vt 0.886266 0.858823
vt 0.850060 0.860142
vt 0.848245 0.853690
vt 0.887192 0.856073
vt 0.886729 0.858789
vt 0.849066 0.857920
vt 0.887264 0.862958
vt 0.887192 0.863947
vt 0.887168 0.863672
vt 0.848391 0.864001
vt 0.848485 0.857158
vt 0.464744 0.010057
vt 0.466533 0.008654
vt 0.471443 0.002552
vt 0.469440 0.005474
vt 0.369683 0.108072
vt 0.371633 0.104241
vt 0.373529 0.094192
vt 0.373119 0.099214
vt 0.000000 0.267288
vt 0.002003 0.264366
vt 0.005439 0.255508
vt 0.004118 0.260129
vt 0.577534 0.095489
vt 0.577944 0.100512
vt 0.575649 0.110470
vt 0.577244 0.105955
vt 0.823865 0.133835
vt 0.825186 0.129215
vt 0.824896 0.118749
vt 0.825600 0.123737
vt 0.919799 0.122090
vt 0.917674 0.125807
vt 0.913645 0.130697
vt 0.915277 0.128860
vt 0.502548 0.272596
vt 0.500954 0.277111
vt 0.496431 0.283881
vt 0.498610 0.281183
vt 0.870757 0.072236
vt 0.870053 0.077224
vt 0.866114 0.085811
vt 0.868299 0.082149
vt 0.348558 0.154678
vt 0.348787 0.151369
vt 0.348651 0.159164
vt 0.348770 0.160490
vt 0.157727 0.002196
vt 0.159980 0.000380
vt 0.155207 0.005031
vt 0.153154 0.007967
vt 0.693727 0.095852
vt 0.695704 0.099704
vt 0.692241 0.090806
vt 0.691835 0.085779
vt 0.499895 0.221962
vt 0.501948 0.224898
vt 0.497758 0.217701
vt 0.496431 0.213064
vt 0.353839 0.122652
vt 0.354245 0.117626
vt 0.354550 0.128084
vt 0.356135 0.132578
vt 0.000402 0.133496
vt 0.001729 0.138133
vt 0.000000 0.128014
vt 0.000707 0.123038
vt 0.704492 0.080647
vt 0.702398 0.076954
vt 0.706835 0.083679
vt 0.708848 0.085881
vt 0.777919 0.112275
vt 0.776334 0.107781
vt 0.780236 0.116318
vt 0.782357 0.119001
vt 0.349265 0.085613
vt 0.348558 0.080637
vt 0.351015 0.090512
vt 0.353167 0.094149
vt 0.998415 0.126025
vt 0.998548 0.130449
vt 0.998144 0.127002
vt 0.998442 0.122572
vt 0.998980 0.120531
vt 0.998664 0.117385
vt 0.349536 0.115437
vt 0.348558 0.110093
vt 0.349536 0.107803
vt 0.350785 0.112408
vt 0.999319 0.022378
vt 0.998144 0.018044
vt 0.999319 0.014428
vt 0.998784 0.018145
vt 0.069508 0.000472
vt 0.069593 0.000000
vt 0.069031 0.003128
vt 0.068655 0.003050
vt 0.000513 0.157058
vt 0.000000 0.150748
vt 0.000593 0.148061
vt 0.000924 0.151412
vt 0.771328 0.116769
vt 0.771053 0.112682
vt 0.771453 0.115327
vt 0.771053 0.119944
vt 0.194667 0.000334
vt 0.190677 0.005665
vt 0.190123 0.006233
vt 0.850271 0.001874
vt 0.854214 0.005709
vt 0.858390 0.011288
vt 0.853634 0.005115
vt 0.659564 0.237913
vt 0.006823 0.615544
vn -0.264525 -0.356505 -0.896064
vn -0.003916 -0.377761 -0.925895
vn -0.013554 -0.511404 -0.859234
vn -0.421569 -0.469972 -0.775504
vn 0.014674 -0.363121 -0.931627
vn 0.004982 -0.511480 -0.859281
vn 0.022384 -0.344098 -0.938667
vn 0.005936 -0.519198 -0.854633
vn 0.038216 -0.330191 -0.943140
vn 0.016411 -0.523899 -0.851623
vn 0.336778 -0.290149 -0.895765
vn 0.586643 -0.424001 -0.689981
vn -0.018646 -0.600647 -0.799297
vn -0.537455 -0.513992 -0.668547
vn 0.004926 -0.600227 -0.799814
vn 0.004926 -0.600084 -0.799922
vn 0.017398 -0.600206 -0.799656
vn 0.654033 -0.461686 -0.599238
vn -0.030703 -0.760574 -0.648524
vn -0.631317 -0.596635 -0.495444
vn 0.004939 -0.759982 -0.649925
vn 0.004940 -0.759998 -0.649907
vn 0.025026 -0.760174 -0.649237
vn 0.679172 -0.553583 -0.481946
vn -0.035527 -0.881572 -0.470712
vn -0.636297 -0.684862 -0.355091
vn 0.005007 -0.881785 -0.471626
vn 0.005007 -0.881770 -0.471653
vn 0.026653 -0.881458 -0.471510
vn 0.680265 -0.650608 -0.337563
vn -0.056635 -0.953178 -0.297059
vn -0.487095 -0.828748 -0.275526
vn 0.015907 -0.956430 -0.291527
vn -0.008314 -0.955729 -0.294130
vn 0.048396 -0.950990 -0.305411
vn 0.496500 -0.814920 -0.298987
vn -0.055310 -0.964005 -0.260069
vn -0.431549 -0.863301 -0.261679
vn 0.014680 -0.949151 -0.314479
vn -0.012601 -0.948152 -0.317567
vn 0.052375 -0.961131 -0.271079
vn 0.459345 -0.837467 -0.296061
vn 0.007292 -0.999973 0.000001
vn 0.000002 -1.000000 0.000002
vn 0.027433 -0.985688 -0.166331
vn -0.028645 -0.985388 -0.167898
vn -0.006725 -0.999977 0.000002
vn 0.000002 -1.000000 -0.000002
vn -0.000001 -1.000000 -0.000000
vn -0.000000 -1.000000 0.000000
vn 0.000000 -1.000000 0.000000
vn 0.000000 -1.000000 0.000000
vn 0.000000 -1.000000 -0.000000
vn -0.000003 -1.000000 0.000001
vn -0.000001 -1.000000 -0.000000
vn -0.000002 -1.000000 0.000000
vn 0.000000 -1.000000 -0.000000
vn -0.000000 -1.000000 -0.000000
vn -0.000000 -1.000000 0.000000
vn -0.000001 -1.000000 0.000001
vn -0.000001 -1.000000 0.000000
vn -0.000003 -1.000000 0.000000
vn 0.000000 -1.000000 0.000000
vn 0.000000 -1.000000 -0.000000
vn -0.000002 -1.000000 -0.000001
vn -0.000001 -1.000000 -0.000001
vn -0.000007 -1.000000 0.000008
vn -0.000007 -1.000000 0.000006
vn 0.000001 -1.000000 -0.000002
vn 0.000001 -1.000000 0.000002
vn -0.000003 -1.000000 -0.000002
vn 0.000003 -1.000000 0.000001
vn 0.000001 -1.000000 -0.000002
vn 0.000004 -1.000000 -0.000005
vn -0.000000 -1.000000 0.000006
vn -0.000002 -1.000000 0.000000
vn -0.000003 -1.000000 -0.000002
vn -0.000006 -1.000000 -0.000004
vn -0.000001 -1.000000 0.000003
vn -0.000003 -1.000000 0.000003
vn -0.000000 -1.000000 -0.000011
vn -0.000000 -1.000000 -0.000012
vn -0.000004 -1.000000 -0.000009
vn -0.000014 -1.000000 -0.000015
vn -0.651483 0.537083 0.535829
vn -0.364874 0.401380 0.840096
vn -0.343108 0.464817 0.816224
vn -0.584964 0.516931 0.624980
vn -0.138765 0.320149 0.937149
vn -0.113675 0.446212 0.887678
vn 0.138237 0.324481 0.935736
vn 0.121549 0.447152 0.886161
vn 0.356363 0.379140 0.853966
vn 0.349012 0.469941 0.810769
vn 0.647597 0.540413 0.537188
vn 0.584859 0.513610 0.627809
vn -0.343818 0.500428 0.794582
vn -0.556979 0.490147 0.670471
vn -0.115322 0.494790 0.861327
vn 0.116456 0.494582 0.861294
vn 0.345372 0.500197 0.794054
vn 0.558789 0.492495 0.667236
vn -0.250004 0.353178 0.901534
vn -0.509243 0.316332 0.800378
vn -0.080480 0.405900 0.910367
vn 0.101401 0.462179 0.880970
vn 0.274371 0.394575 0.876944
vn 0.460552 0.362600 0.810193
vn -0.232596 0.251525 0.939486
vn 0.021504 0.353767 0.935086
vn 0.082880 0.365887 0.926961
vn 0.163349 0.341901 0.925430
vn 0.548354 0.163199 0.820167
vn 0.031281 0.285476 0.957875
vn -0.069555 0.285283 0.955916
vn 0.076843 0.330303 0.940742
vn 0.154027 0.262584 0.952536
vn 0.295096 0.204093 0.933415
vn -0.502394 0.205695 0.839816
vn -0.502394 0.205695 0.839815
vn -0.502394 0.205695 0.839816
vn 0.072168 0.184820 0.980119
vn 0.065889 0.262031 0.962807
vn 0.072168 0.184820 0.980119
vn 0.061563 0.260117 0.963613
vn 0.059126 0.259435 0.963949
vn 0.046003 0.270563 0.961603
vn -0.293730 0.259133 0.920094
vn -0.293730 0.259133 0.920094
vn -0.293730 0.259133 0.920094
vn -0.293730 0.259133 0.920094
vn 0.071198 0.331463 0.940778
vn 0.064852 0.361804 0.929996
vn 0.056043 0.358101 0.932000
vn 0.061621 0.362972 0.929760
vn 0.059853 0.374317 0.925367
vn 0.117511 0.335679 0.934618
vn -0.331425 0.369399 0.868160
vn 0.051162 0.475894 0.878013
vn -0.310458 0.465820 0.828630
vn 0.063783 0.482533 0.873552
vn 0.059995 0.481104 0.874608
vn 0.057439 0.479944 0.875417
vn 0.050279 0.472779 0.879746
vn 0.033711 0.593606 0.804050
vn -0.362325 0.534270 0.763726
vn 0.061991 0.599595 0.797899
vn 0.061984 0.593266 0.802617
vn 0.059657 0.586116 0.808028
vn 0.282883 0.587412 0.758238
vn 0.018272 0.726025 0.687426
vn -0.597247 0.579293 0.554721
vn 0.062104 0.732185 0.678268
vn 0.060767 0.727558 0.683349
vn 0.064603 0.730764 0.679567
vn 0.368081 0.639230 0.675205
vn 0.009043 0.832130 0.554507
vn -0.578649 0.685194 0.442351
vn 0.063925 0.830476 0.553374
vn 0.057023 0.838963 0.541193
vn 0.071214 0.838712 0.539899
vn 0.667632 0.587244 0.457616
vn -0.009304 0.921236 0.388893
vn -0.561839 0.757014 0.333565
vn 0.065306 0.921553 0.382720
vn 0.060809 0.925510 0.373810
vn 0.072611 0.924878 0.373267
vn 0.596880 0.740308 0.309320
vn -0.031057 0.977335 0.209406
vn -0.445790 0.883699 0.142645
vn 0.064253 0.975474 0.210530
vn 0.064060 0.975601 0.209998
vn 0.080751 0.974496 0.209371
vn 0.691342 0.709370 0.137261
vn 0.010817 0.999777 0.018147
vn -0.323645 0.946094 0.012655
vn 0.063751 0.997790 0.018735
vn 0.062182 0.997760 0.024669
vn 0.062118 0.997721 0.026341
vn 0.277389 0.960756 -0.001485
vn 0.012839 0.991466 -0.129733
vn -0.325226 0.943115 -0.069004
vn 0.062589 0.989358 -0.131355
vn 0.062158 0.989496 -0.130517
vn 0.060970 0.989238 -0.133008
vn 0.282645 0.951306 -0.122999
vn 0.002807 0.962062 -0.272816
vn -0.400101 0.881860 -0.249486
vn 0.060387 0.959616 -0.274756
vn 0.061030 0.960152 -0.272732
vn 0.061230 0.962612 -0.263871
vn 0.376474 0.890804 -0.254430
vn 0.007896 0.914742 -0.403962
vn -0.379670 0.854354 -0.354867
vn 0.064134 0.915605 -0.396932
vn 0.060883 0.913816 -0.401539
vn 0.060452 0.914759 -0.399452
vn 0.370482 0.852523 -0.368710
vn 0.000255 0.837779 -0.546010
vn -0.646904 0.642723 -0.410392
vn 0.064335 0.837900 -0.542019
vn 0.061514 0.840667 -0.538048
vn 0.066575 0.839123 -0.539852
vn 0.671488 0.627904 -0.393498
vn 0.006862 0.728829 -0.684661
vn -0.675601 0.528872 -0.513669
vn 0.062967 0.732597 -0.677744
vn 0.061157 0.728907 -0.681876
vn 0.067137 0.727685 -0.682618
vn 0.706338 0.500623 -0.500463
vn -0.004508 0.586459 -0.809966
vn -0.677953 0.425864 -0.599183
vn 0.062220 0.591088 -0.804204
vn 0.061578 0.588459 -0.806179
vn 0.072981 0.588080 -0.805503
vn 0.715191 0.395083 -0.576551
vn -0.013315 0.376700 -0.926240
vn -0.678390 0.277791 -0.680161
vn 0.061122 0.377776 -0.923877
vn 0.061970 0.377674 -0.923863
vn 0.083572 0.376436 -0.922665
vn 0.709720 0.272968 -0.649450
vn -0.026280 0.173384 -0.984504
vn -0.675789 0.140570 -0.723567
vn 0.050216 0.190339 -0.980433
vn 0.068294 0.192213 -0.978974
vn 0.099299 0.179208 -0.978787
vn 0.674557 0.120520 -0.728318
vn -0.032918 -0.068234 -0.997126
vn -0.663253 -0.000554 -0.748395
vn 0.035268 -0.021335 -0.999150
vn 0.070867 0.002365 -0.997483
vn 0.112057 0.001533 -0.993701
vn 0.632435 -0.004551 -0.774600
vn -0.011641 -0.338416 -0.940925
vn -0.440058 -0.251409 -0.862057
vn 0.018875 -0.327240 -0.944753
vn 0.047751 -0.274564 -0.960383
vn 0.061505 -0.266722 -0.961809
vn 0.341771 -0.166986 -0.924829
vn 0.707454 0.688681 -0.158829
vn 0.730344 0.626454 -0.272312
vn 0.827928 0.456322 -0.326045
vn 0.884118 0.297760 -0.360103
vn 0.875378 0.179113 -0.449034
vn 0.878943 0.043225 -0.474965
vn 0.808293 -0.090092 -0.581847
vn 0.705552 -0.252292 -0.662227
vn 0.717354 0.695063 -0.047857
vn 0.832942 0.539798 -0.121761
vn 0.894721 0.403922 -0.190580
vn 0.973190 0.177652 -0.146083
vn 0.996861 0.029487 -0.073479
vn 0.935825 -0.042124 -0.349937
vn 0.887799 -0.154527 -0.433515
vn 0.799488 -0.309019 -0.515099
vn 0.746836 0.658025 0.096114
vn 0.885437 0.464009 0.026389
vn 0.964053 0.260504 -0.052340
vn 0.999996 0.002581 -0.001290
vn 1.000000 -0.000000 0.000000
vn 0.995669 -0.030660 -0.087765
vn 0.935742 -0.196969 -0.292557
vn 0.870811 -0.347922 -0.347331
vn 0.771870 0.587783 0.242337
vn 0.886594 0.432697 0.163475
vn 0.999635 0.026613 0.004750
vn 0.995213 -0.092245 0.032289
vn 0.998263 -0.035373 0.047113
vn 0.984932 0.141000 0.100139
vn 0.995079 -0.081626 -0.056169
vn 0.884594 -0.405607 -0.230167
vn 0.770292 0.520074 0.369018
vn 0.885024 0.363777 0.290514
vn 0.998966 0.026856 0.036670
vn 0.994702 -0.100272 0.022669
vn 0.999819 -0.015686 -0.010719
vn 0.980608 0.186194 0.061149
vn 0.992353 -0.038605 -0.117238
vn 0.866662 -0.448428 -0.218654
vn 0.739095 0.457132 0.494741
vn 0.870682 0.276033 0.407084
vn 0.905413 0.157166 0.394367
vn 0.913208 0.027053 -0.406596
vn 0.916184 0.203583 -0.345196
vn 0.862878 0.432272 -0.261883
vn 0.924301 0.321111 -0.206290
vn 0.918738 -0.292913 -0.264806
vn 0.719518 0.371125 0.586992
vn 0.784868 0.230219 0.575310
vn 0.872390 0.077154 0.482683
vn 0.936163 0.007132 0.351494
vn 0.980660 0.165440 0.104570
vn 0.922351 0.381994 -0.057868
vn 0.865085 0.459596 -0.200996
vn 0.667467 0.629315 -0.398058
vn -0.000089 1.000000 0.000069
vn -0.000079 1.000000 0.000063
vn 0.455798 0.318705 0.831068
vn 0.709097 0.132435 0.692562
vn 0.773404 0.010540 0.633826
vn 0.912016 0.081253 0.402025
vn 0.877359 0.331485 0.346928
vn 0.871609 0.456546 0.178500
vn 0.846727 0.531470 -0.024363
vn -0.000086 1.000000 0.000022
vn 0.000033 1.000000 -0.000012
vn 0.486452 0.211151 0.847809
vn 0.640024 0.079396 0.764242
vn 0.880188 0.074614 0.468724
vn 0.722322 0.313184 0.616577
vn 0.739867 0.472440 0.478954
vn 0.764879 0.520045 0.380148
vn 0.822540 0.520309 0.229581
vn 0.000077 -1.000000 0.000004
vn 0.000077 -1.000000 0.000004
vn 0.000026 -1.000000 0.000010
vn -0.000082 -1.000000 -0.000028
vn 0.000039 1.000000 -0.000003
vn 0.000039 1.000000 -0.000003
vn 0.109334 -0.270222 -0.956570
vn 0.109334 -0.270222 -0.956570
vn 0.109334 -0.270222 -0.956570
vn 0.000000 -0.000000 -0.000000
vn -0.000020 -1.000000 -0.000012
vn -0.698806 0.696046 -0.164895
vn -0.721396 0.637789 -0.269838
vn -0.750666 0.544175 -0.374664
vn -0.772680 0.397133 -0.495227
vn -0.776642 0.238693 -0.582969
vn -0.767488 0.062172 -0.638041
vn -0.737331 -0.105494 -0.667244
vn -0.676817 -0.264947 -0.686820
vn -0.718535 0.693740 -0.049329
vn -0.745165 0.650653 -0.146216
vn -0.763304 0.583229 -0.277869
vn -0.894001 0.341183 -0.290443
vn -0.937633 0.095311 -0.334307
vn -0.845205 -0.039127 -0.533007
vn -0.767833 -0.215551 -0.603299
vn -0.736192 -0.331887 -0.589807
vn 0.386201 -0.921647 -0.037629
vn 0.386201 -0.921647 -0.037629
vn 0.386201 -0.921647 -0.037629
vn 0.386201 -0.921647 -0.037629
vn -0.782715 0.620249 0.051469
vn -0.743283 0.662121 0.095529
vn -0.842809 0.526125 -0.113425
vn -0.999979 0.005806 -0.002992
vn -1.000000 0.000007 -0.000005
vn -0.918304 -0.132560 -0.373022
vn -0.820639 -0.331839 -0.465225
vn -0.766341 -0.443036 -0.465232
vn -0.752934 0.614300 0.236062
vn -0.786199 0.576203 0.223343
vn -0.996987 0.076506 0.012786
vn -1.000000 0.000002 -0.000002
vn -1.000000 -0.000000 0.000002
vn -1.000000 -0.000007 -0.000001
vn -0.936588 -0.287063 -0.200994
vn -0.793114 -0.531446 -0.297549
vn -0.746176 0.539208 0.390482
vn -0.783012 0.491935 0.380647
vn -0.980539 0.118085 0.156843
vn -1.000000 -0.000002 -0.000003
vn -1.000000 -0.000004 -0.000001
vn -1.000000 -0.000004 -0.000002
vn -0.978512 -0.195975 -0.064095
vn -0.809151 -0.551796 -0.201978
vn -0.721063 0.461823 0.516515
vn -0.762777 0.365027 0.533785
vn -0.774535 0.236819 0.586525
vn -0.994534 0.012061 0.103717
vn -0.999028 0.030889 -0.031444
vn -0.966903 0.252504 -0.036601
vn -0.992453 0.012537 -0.121984
vn -0.884778 -0.331494 -0.327535
vn -0.681070 0.380799 0.625409
vn -0.728365 0.250617 0.637711
vn -0.762285 0.082935 0.641906
vn -0.850508 -0.007833 0.525904
vn -0.939009 0.081752 0.334033
vn -0.951372 0.304445 0.046967
vn -0.923284 0.371723 -0.096795
vn -0.848340 -0.177949 -0.498651
vn -0.604642 0.285719 0.743487
vn -0.689050 0.145290 0.710001
vn -0.753138 0.014824 0.657696
vn -0.854124 0.040408 0.518497
vn -0.883725 0.262431 0.387506
vn -0.886866 0.418399 0.195988
vn -0.847047 0.530960 -0.024340
vn 0.000020 1.000000 0.000008
vn -0.000013 1.000000 -0.000016
vn 0.000023 1.000000 0.000009
vn 0.000025 1.000000 0.000009
vn -0.294288 0.349935 0.889348
vn -0.567688 0.109344 0.815950
vn -0.425386 0.215293 0.879031
vn -0.791966 0.087032 0.604330
vn -0.730313 0.280910 0.622681
vn -0.741299 0.466701 0.482354
vn -0.767204 0.518652 0.377355
vn -0.823252 0.519366 0.229161
vn -0.000284 -1.000000 0.000031
vn -0.000284 -1.000000 0.000031
vn -0.000018 -1.000000 -0.000008
vn 0.000018 -1.000000 -0.000008
vn 0.000246 1.000000 0.000015
vn 0.000246 1.000000 0.000015
vn 0.571029 -0.183805 -0.800088
vn 0.571029 -0.183805 -0.800088
vn 0.571029 -0.183805 -0.800088
vn 0.571029 -0.183805 -0.800088
vn -0.294409 0.138257 0.945626
vn -0.294409 0.138257 0.945626
vn 0.000011 -1.000000 -0.000007
s 1
usemtl M_sprout_SG
f 1/317/1 2/316/2 8/322/3 7/323/4
f 2/316/2 3/321/5 9/328/6 8/322/3
f 3/321/5 4/327/7 10/331/8 9/328/6
f 4/327/7 5/330/9 11/335/10 10/331/8
f 5/330/9 6/334/11 12/338/12 11/335/10
f 7/340/4 8/341/3 14/342/13 13/343/14
f 8/322/3 9/328/6 15/332/15 14/333/13
f 9/328/6 10/331/8 16/336/16 15/332/15
f 10/331/8 11/335/10 17/339/17 16/336/16
f 11/368/10 12/369/12 18/361/18 17/355/17
f 13/343/14 14/342/13 20/344/19 19/345/20
f 14/342/13 15/346/15 21/347/21 20/344/19
f 15/346/15 16/350/16 22/351/22 21/347/21
f 16/350/16 17/355/17 23/356/23 22/351/22
f 17/355/17 18/361/18 24/362/24 23/356/23
f 19/345/20 20/344/19 26/348/25 25/349/26
f 20/344/19 21/347/21 27/352/27 26/348/25
f 21/347/21 22/351/22 28/357/28 27/352/27
f 22/351/22 23/356/23 29/363/29 28/357/28
f 23/356/23 24/362/24 30/370/30 29/363/29
f 25/349/26 26/348/25 32/353/31 31/354/32
f 26/348/25 27/352/27 33/358/33 32/353/31
f 27/352/27 28/357/28 34/364/34 33/358/33
f 28/357/28 29/363/29 35/371/35 34/364/34
f 29/363/29 30/370/30 36/376/36 35/371/35
f 31/354/32 32/353/31 38/359/37 37/360/38
f 32/353/31 33/358/33 39/365/39 38/359/37
f 33/358/33 34/364/34 40/372/40 39/365/39
f 34/364/34 35/371/35 41/377/41 40/372/40
f 35/371/35 36/376/36 42/381/42 41/377/41
f 37/360/38 38/359/37 44/366/43 43/367/44
f 38/359/37 39/365/39 45/373/45 44/366/43
f 39/365/39 40/372/40 46/378/46 45/373/45
f 40/372/40 41/377/41 47/382/47 46/378/46
f 41/377/41 42/381/42 48/385/48 47/382/47
f 43/367/44 44/366/43 50/374/49 49/375/50
f 44/408/43 45/409/45 51/410/51 50/411/49
f 45/412/45 46/413/46 52/414/52 51/415/51
f 46/430/46 47/431/47 53/432/53 52/433/52
f 47/382/47 48/385/48 54/388/54 53/389/53
f 49/375/50 50/374/49 56/379/55 55/380/56
f 50/422/49 51/415/51 57/417/57 56/423/55
f 51/415/51 52/414/52 58/416/58 57/417/57
f 52/414/52 53/418/53 59/419/59 58/416/58
f 53/389/53 54/388/54 60/394/60 59/395/59
f 55/380/56 56/379/55 62/383/61 61/384/62
f 56/434/55 57/435/57 63/436/63 62/437/61
f 57/417/57 58/416/58 64/420/64 63/421/63
f 58/438/58 59/439/59 65/440/65 64/441/64
f 59/395/59 60/394/60 66/398/66 65/399/65
f 61/384/62 62/383/61 68/386/67 67/387/68
f 62/383/61 63/390/63 69/391/69 68/386/67
f 63/421/63 64/420/64 70/424/70 69/425/69
f 64/404/64 65/399/65 71/401/71 70/405/70
f 65/399/65 66/398/66 72/400/72 71/401/71
f 67/387/68 68/386/67 74/392/73 73/393/74
f 68/442/67 69/443/69 75/444/75 74/445/73
f 69/425/69 70/424/70 76/426/76 75/427/75
f 70/448/70 71/449/71 77/450/77 76/451/76
f 71/401/71 72/400/72 78/402/78 77/403/77
f 73/393/74 74/392/73 80/396/79 79/397/80
f 74/445/73 75/444/75 81/446/81 80/447/79
f 75/427/75 76/426/76 82/428/82 81/429/81
f 76/451/76 77/450/77 83/452/83 82/453/82
f 77/403/77 78/402/78 84/406/84 83/407/83
f 79/212/85 80/213/86 86/214/87 85/210/88
f 80/462/86 81/463/89 87/458/90 86/455/87
f 81/463/89 82/468/91 88/464/92 87/458/90
f 82/468/91 83/473/93 89/469/94 88/464/92
f 83/94/93 84/92/95 90/86/96 89/95/94
f 85/454/88 86/455/87 92/456/97 91/457/98
f 86/455/87 87/458/90 93/459/99 92/456/97
f 87/458/90 88/464/92 94/465/100 93/459/99
f 88/464/92 89/469/94 95/470/101 94/465/100
f 89/469/94 90/474/96 96/475/102 95/470/101
f 91/457/98 92/456/97 98/460/103 97/461/104
f 92/456/97 93/459/99 99/466/105 98/460/103
f 93/459/99 94/465/100 100/471/106 99/466/105
f 94/465/100 95/470/101 101/476/107 100/471/106
f 95/470/101 96/475/102 102/480/108 101/476/107
f 97/461/104 98/460/103 103/467/109
f 98/460/103 99/466/105 104/472/110 103/467/109
f 99/466/105 100/471/106 105/477/111 104/472/110
f 100/471/106 101/476/107 106/481/112 105/477/111
f 101/476/107 102/480/108 107/483/113 106/481/112
f 103/467/109 104/472/110 108/478/114 370/479/115
f 104/472/110 105/477/111 109/482/116 108/478/114
f 105/477/111 106/481/112 110/484/117 109/482/116
f 106/481/112 107/483/113 111/487/118 110/484/117
s off
f 375/660/119 376/661/120 377/662/121
s 1
f 369/491/122 108/478/114 113/486/123 374/492/124
f 108/478/114 109/482/116 114/485/125 113/486/123
f 109/482/116 110/484/117 115/488/126 114/485/125
f 110/484/117 111/487/118 116/495/127 115/488/126
s off
f 378/648/128 379/649/129 380/650/130 381/651/131
s 1
f 373/499/132 113/486/123 119/490/133 118/500/134
f 113/486/123 114/485/125 120/489/135 119/490/133
f 114/485/125 115/488/126 121/496/136 120/489/135
f 115/488/126 116/495/127 122/501/137 121/496/136
f 117/511/138 118/500/134 124/505/139 123/512/140
f 118/500/134 119/490/133 125/498/141 124/505/139
f 119/490/133 120/489/135 126/497/142 125/498/141
f 120/489/135 121/496/136 127/502/143 126/497/142
f 121/496/136 122/501/137 128/506/144 127/502/143
f 123/512/140 124/505/139 130/510/145 129/518/146
f 124/505/139 125/498/141 131/504/147 130/510/145
f 125/498/141 126/497/142 132/503/148 131/504/147
f 126/497/142 127/502/143 133/507/149 132/503/148
f 127/502/143 128/506/144 134/513/150 133/507/149
f 129/518/146 130/510/145 136/517/151 135/528/152
f 130/510/145 131/504/147 137/509/153 136/517/151
f 131/504/147 132/503/148 138/508/154 137/509/153
f 132/503/148 133/507/149 139/514/155 138/508/154
f 133/507/149 134/513/150 140/523/156 139/514/155
f 135/528/152 136/517/151 142/527/157 141/538/158
f 136/517/151 137/509/153 143/516/159 142/527/157
f 137/509/153 138/508/154 144/515/160 143/516/159
f 138/508/154 139/514/155 145/524/161 144/515/160
f 139/514/155 140/523/156 146/533/162 145/524/161
f 141/538/158 142/527/157 148/537/163 147/545/164
f 142/527/157 143/516/159 149/526/165 148/537/163
f 143/516/159 144/515/160 150/525/166 149/526/165
f 144/515/160 145/524/161 151/534/167 150/525/166
f 145/524/161 146/533/162 152/540/168 151/534/167
f 147/545/164 148/537/163 154/544/169 153/551/170
f 148/537/163 149/526/165 155/536/171 154/544/169
f 149/526/165 150/525/166 156/535/172 155/536/171
f 150/525/166 151/534/167 157/541/173 156/535/172
f 151/534/167 152/540/168 158/546/174 157/541/173
f 153/551/170 154/544/169 160/550/175 159/557/176
f 154/544/169 155/536/171 161/543/177 160/550/175
f 155/536/171 156/535/172 162/542/178 161/543/177
f 156/535/172 157/541/173 163/547/179 162/542/178
f 157/541/173 158/546/174 164/554/180 163/547/179
f 159/557/176 160/550/175 166/556/181 165/560/182
f 160/550/175 161/543/177 167/549/183 166/556/181
f 161/543/177 162/542/178 168/548/184 167/549/183
f 162/542/178 163/547/179 169/555/185 168/548/184
f 163/547/179 164/554/180 170/559/186 169/555/185
f 165/281/182 166/282/181 172/272/187 171/271/188
f 166/282/181 167/291/183 173/283/189 172/272/187
f 167/291/183 168/299/184 174/292/190 173/283/189
f 168/299/184 169/310/185 175/300/191 174/292/190
f 169/555/185 170/559/186 176/562/192 175/563/191
f 171/271/188 172/272/187 178/266/193 177/265/194
f 172/272/187 173/283/189 179/273/195 178/266/193
f 173/283/189 174/292/190 180/284/196 179/273/195
f 174/292/190 175/300/191 181/293/197 180/284/196
f 175/300/191 176/311/192 182/301/198 181/293/197
f 177/265/194 178/266/193 184/262/199 183/261/200
f 178/266/193 179/273/195 185/267/201 184/262/199
f 179/273/195 180/284/196 186/276/202 185/267/201
f 180/284/196 181/293/197 187/285/203 186/276/202
f 181/293/197 182/301/198 188/302/204 187/285/203
f 183/261/200 184/262/199 190/263/205 189/264/206
f 184/262/199 185/267/201 191/268/207 190/263/205
f 185/267/201 186/276/202 192/277/208 191/268/207
f 186/276/202 187/285/203 193/286/209 192/277/208
f 187/17/203 188/10/204 194/9/210 193/18/209
f 189/264/206 190/263/205 196/269/211 195/270/212
f 190/263/205 191/268/207 197/278/213 196/269/211
f 191/268/207 192/277/208 198/287/214 197/278/213
f 192/277/208 193/286/209 199/294/215 198/287/214
f 193/286/209 194/303/210 200/304/216 199/294/215
f 195/270/212 196/269/211 202/279/217 201/280/218
f 196/269/211 197/278/213 203/288/219 202/279/217
f 197/278/213 198/287/214 204/295/220 203/288/219
f 198/287/214 199/294/215 205/305/221 204/295/220
f 199/294/215 200/304/216 206/312/222 205/305/221
f 201/280/218 202/279/217 208/289/223 207/290/224
f 202/279/217 203/288/219 209/296/225 208/289/223
f 203/288/219 204/295/220 210/306/226 209/296/225
f 204/295/220 205/305/221 211/313/227 210/306/226
f 205/305/221 206/312/222 212/318/228 211/313/227
f 207/290/224 208/289/223 214/297/229 213/298/230
f 208/289/223 209/296/225 215/307/231 214/297/229
f 209/296/225 210/306/226 216/314/232 215/307/231
f 210/306/226 211/313/227 217/319/233 216/314/232
f 211/313/227 212/318/228 218/325/234 217/319/233
f 213/298/230 214/297/229 220/308/235 219/309/236
f 214/297/229 215/307/231 221/315/237 220/308/235
f 215/307/231 216/314/232 222/320/238 221/315/237
f 216/314/232 217/319/233 223/326/239 222/320/238
f 217/319/233 218/325/234 224/329/240 223/326/239
f 219/309/236 220/308/235 2/316/2 1/317/1
f 220/308/235 221/315/237 3/321/5 2/316/2
f 221/315/237 222/320/238 4/327/7 3/321/5
f 222/320/238 223/326/239 5/330/9 4/327/7
f 223/326/239 224/329/240 6/334/11 5/330/9
f 182/1/198 176/2/192 170/3/186 225/4/241
f 188/652/204 182/653/198 225/654/241 226/655/242
f 194/9/210 188/10/204 226/6/242 227/5/243
f 200/19/216 194/9/210 227/5/243 228/15/244
f 206/26/222 200/19/216 228/15/244 229/24/245
f 212/31/228 206/26/222 229/24/245 230/32/246
f 218/36/234 212/31/228 230/32/246 231/37/247
f 224/47/240 218/36/234 231/37/247 232/48/248
f 6/334/11 224/329/240 232/337/248 12/338/12
f 225/561/241 170/559/186 164/554/180 233/558/249
f 226/6/242 225/11/241 233/12/249 234/7/250
f 227/5/243 226/6/242 234/7/250 235/8/251
f 228/15/244 227/5/243 235/8/251 236/16/252
f 229/24/245 228/15/244 236/16/252 237/25/253
f 230/96/246 229/97/245 237/98/253 238/99/254
f 231/37/247 230/32/246 238/45/254 239/46/255
f 232/48/248 231/37/247 239/46/255 240/58/256
f 12/68/12 232/48/248 240/58/256 18/69/18
f 233/558/249 164/554/180 158/546/174 241/552/257
f 234/7/250 233/12/249 241/20/257 242/13/258
f 235/8/251 234/7/250 242/13/258 243/14/259
f 236/16/252 235/8/251 243/14/259 244/23/260
f 237/25/253 236/16/252 244/23/260 245/30/261
f 238/100/254 237/101/253 245/102/261 246/103/262
f 239/46/255 238/45/254 246/56/262 247/57/263
f 240/58/256 239/46/255 247/57/263 248/67/264
f 18/69/18 240/58/256 248/67/264 24/77/24
f 241/552/257 158/546/174 152/540/168 249/553/265
f 242/13/258 241/20/257 249/27/265 250/21/266
f 243/14/259 242/13/258 250/21/266 251/22/267
f 244/104/260 243/105/259 251/106/267 252/107/268
f 245/108/261 244/109/260 252/110/268 253/111/269
f 246/120/262 245/121/261 253/122/269 254/123/270
f 247/57/263 246/56/262 254/65/270 255/66/271
f 248/124/264 247/125/263 255/126/271 256/127/272
f 24/77/24 248/67/264 256/84/272 30/85/30
f 249/27/265 152/38/168 146/39/162 257/33/273
f 250/21/266 249/27/265 257/33/273 258/28/274
f 251/22/267 250/21/266 258/28/274 259/29/275
f 252/110/268 251/114/267 259/115/275 260/112/276
f 253/111/269 252/110/268 260/112/276 261/113/277
f 254/116/270 253/111/269 261/113/277 262/117/278
f 255/118/271 254/116/270 262/117/278 263/119/279
f 256/84/272 255/668/271 263/75/279 264/82/280
f 30/85/30 256/84/272 264/82/280 36/90/36
f 257/33/273 146/39/162 140/49/156 265/40/281
f 258/28/274 257/33/273 265/40/281 266/34/282
f 259/29/275 258/28/274 266/34/282 267/35/283
f 260/43/276 259/29/275 267/35/283 268/44/284
f 261/54/277 260/43/276 268/44/284 269/55/285
f 262/63/278 261/54/277 269/55/285 270/64/286
f 263/75/279 262/63/278 270/64/286 271/76/287
f 264/82/280 263/75/279 271/76/287 272/83/288
f 36/90/36 264/82/280 272/83/288 42/91/42
f 265/530/281 140/523/156 134/513/150 273/521/289
f 266/34/282 265/40/281 273/50/289 274/41/290
f 267/35/283 266/34/282 274/41/290 275/42/291
f 268/44/284 267/35/283 275/42/291 276/53/292
f 269/55/285 268/44/284 276/53/292 277/62/293
f 270/64/286 269/55/285 277/62/293 278/74/294
f 271/76/287 270/64/286 278/74/294 279/81/295
f 272/83/288 271/76/287 279/81/295 280/89/296
f 42/566/297 272/567/288 280/568/296 48/569/298
f 273/521/289 134/513/150 128/506/144 281/522/299
f 274/531/290 273/521/289 281/522/299 282/532/300
f 275/42/291 274/41/290 282/51/300 283/52/301
f 276/53/292 275/42/291 283/52/301 284/61/302
f 277/62/293 276/53/292 284/61/302 285/73/303
f 278/74/294 277/62/293 285/73/303 286/80/304
f 279/81/295 278/74/294 286/80/304 287/88/305
f 280/570/296 279/571/295 287/572/305 288/573/306
f 48/574/298 280/575/296 288/576/306 54/577/307
f 281/634/299 128/635/144 122/636/137 289/637/308
f 282/638/300 281/634/299 289/637/308 290/639/309
f 283/52/301 282/51/300 290/59/309 291/60/310
f 284/61/302 283/52/301 291/60/310 292/72/311
f 285/73/303 284/61/302 292/72/311 293/79/312
f 286/80/304 285/73/303 293/79/312 294/87/313
f 287/88/305 286/80/304 294/87/313 295/93/314
f 288/578/315 287/579/316 295/580/317 296/581/318
f 54/582/307 288/583/306 296/584/319 60/585/320
s off
f 289/656/321 122/657/322 116/658/323 111/659/324
s 1
f 290/493/309 289/494/308 111/487/118 107/483/113
f 291/60/310 290/59/309 107/70/113 102/71/108
f 292/72/311 291/60/310 102/71/108 96/78/102
f 293/79/312 292/72/311 96/78/102 90/86/96
f 294/87/313 293/79/312 90/86/96 84/92/95
f 295/586/317 294/587/325 84/588/84 78/589/78
f 296/590/318 295/591/317 78/592/78 72/593/72
f 60/594/60 296/595/318 72/596/72 66/597/66
f 171/271/188 177/265/194 297/275/326 165/281/182
f 177/265/194 183/261/200 298/274/327 297/275/326
f 183/132/200 189/133/206 299/129/328 298/128/327
f 189/133/206 195/140/212 300/134/329 299/129/328
f 195/140/212 201/147/218 301/141/330 300/134/329
f 201/147/218 207/153/224 302/148/331 301/141/330
f 207/153/224 213/159/230 303/154/332 302/148/331
f 213/159/230 219/169/236 304/160/333 303/154/332
f 219/309/236 1/317/1 7/323/4 304/324/333
f 165/560/182 297/564/326 305/565/334 159/557/176
f 297/138/326 298/128/327 306/131/335 305/139/334
f 298/128/327 299/129/328 307/130/336 306/131/335
f 299/129/328 300/134/329 308/135/337 307/130/336
f 300/134/329 301/141/330 309/142/338 308/135/337
f 301/141/330 302/148/331 310/149/339 309/142/338
f 302/148/331 303/154/332 311/155/340 310/149/339
f 303/154/332 304/160/333 312/161/341 311/155/340
f 304/160/333 7/170/4 13/171/14 312/161/341
s off
f 159/598/342 305/599/343 313/600/344 153/601/345
s 1
f 305/139/334 306/131/335 314/137/346 313/146/347
f 306/131/335 307/130/336 315/136/348 314/137/346
f 307/130/336 308/135/337 316/143/349 315/136/348
f 308/215/337 309/216/338 317/217/350 316/218/349
f 309/229/338 310/230/339 318/231/351 317/232/350
f 310/149/339 311/155/340 319/162/352 318/163/351
f 311/155/340 312/161/341 320/172/353 319/162/352
f 312/161/341 13/171/14 19/181/20 320/172/353
f 153/233/170 313/234/347 321/235/354 147/236/164
f 313/146/347 314/137/346 322/145/355 321/152/354
f 314/137/346 315/136/348 323/144/356 322/145/355
f 315/237/348 316/238/349 324/239/357 323/240/356
f 316/218/349 317/217/350 325/219/358 324/220/357
f 317/241/350 318/242/351 326/243/359 325/244/358
f 318/163/351 319/162/352 327/173/360 326/174/359
f 319/162/352 320/172/353 328/182/361 327/173/360
f 320/172/353 19/181/20 25/191/26 328/182/361
f 147/167/164 321/152/354 329/158/362 141/168/158
f 321/152/354 322/145/355 330/151/363 329/158/362
f 322/145/355 323/144/356 331/150/364 330/151/363
f 323/227/356 324/220/357 332/222/365 331/228/364
f 324/220/357 325/219/358 333/221/366 332/222/365
f 325/219/358 326/223/359 334/224/367 333/221/366
f 326/174/359 327/173/360 335/183/368 334/184/367
f 327/173/360 328/182/361 336/192/369 335/183/368
f 328/182/361 25/191/26 31/199/32 336/192/369
f 141/168/158 329/158/362 337/166/370 135/180/152
f 329/158/362 330/151/363 338/157/371 337/166/370
f 330/151/363 331/150/364 339/156/372 338/157/371
f 331/245/364 332/246/365 340/247/373 339/248/372
f 332/222/365 333/221/366 341/225/374 340/226/373
f 333/249/366 334/250/367 342/251/375 341/252/374
f 334/253/367 335/254/368 343/255/376 342/256/375
f 335/257/368 336/258/369 344/259/377 343/260/376
f 336/192/369 31/199/32 37/205/38 344/206/377
f 135/528/152 337/539/370 345/529/378 129/518/146
f 337/166/370 338/157/371 346/165/379 345/179/378
f 338/157/371 339/156/372 347/164/380 346/165/379
f 339/156/372 340/175/373 348/176/381 347/164/380
f 340/175/373 341/185/374 349/186/382 348/176/381
f 341/185/374 342/193/375 350/194/383 349/186/382
f 342/193/375 343/200/376 351/201/384 350/194/383
f 343/200/376 344/667/377 352/207/385 351/201/384
f 344/602/377 37/603/38 43/604/44 352/605/385
f 129/518/146 345/529/378 353/519/386 123/512/140
f 345/179/378 346/165/379 354/178/387 353/190/386
f 346/165/379 347/164/380 355/177/388 354/178/387
f 347/164/380 348/176/381 356/187/389 355/177/388
f 348/176/381 349/186/382 357/195/390 356/187/389
f 349/186/382 350/194/383 358/202/391 357/195/390
f 350/194/383 351/201/384 359/208/392 358/202/391
f 351/606/384 352/607/393 360/608/394 359/609/392
f 352/610/393 43/611/395 49/612/396 360/613/394
f 123/512/140 353/519/386 112/520/397 117/511/138
f 353/640/386 354/641/387 361/642/398 371/643/399
f 354/178/387 355/177/388 362/188/400 361/189/398
f 355/177/388 356/187/389 363/196/401 362/188/400
f 356/187/389 357/195/390 364/203/402 363/196/401
f 357/195/390 358/202/391 365/209/403 364/203/402
f 358/202/391 359/208/392 366/211/404 365/209/403
f 359/614/405 360/615/406 367/616/407 366/617/408
f 360/618/394 49/619/396 55/620/409 367/621/410
s off
f 382/663/411 383/664/412 384/665/413 385/666/414
s 1
f 372/644/415 361/645/398 103/646/109 368/647/416
f 361/189/398 362/188/400 97/197/104 103/198/109
f 362/188/400 363/196/401 91/204/98 97/197/104
f 363/196/401 364/203/402 85/210/88 91/204/98
f 364/203/402 365/209/403 79/212/85 85/210/88
f 365/622/417 366/623/408 73/624/74 79/625/80
f 366/626/408 367/627/407 67/628/68 73/629/74
f 367/630/407 55/631/56 61/632/62 67/633/68
