# This file uses centimeters as units for non-parametric coordinates.

mtllib left_tibia_link.mtl
v -0.032677 0.009958 -0.255677
v -0.022700 0.001250 -0.256973
v -0.013221 -0.000342 -0.260245
v 0.013207 -0.000345 -0.260247
v 0.022700 0.001250 -0.256973
v 0.032677 0.009958 -0.255677
v -0.034095 0.001250 -0.245471
v -0.027239 -0.002970 -0.248962
v -0.016780 -0.003900 -0.254131
v 0.016768 -0.003900 -0.254137
v 0.027233 -0.002970 -0.248970
v 0.034092 0.001250 -0.245478
v -0.038422 -0.000222 -0.232649
v -0.033246 -0.003879 -0.236184
v -0.016837 -0.003900 -0.236311
v 0.016821 -0.003900 -0.236311
v 0.033230 -0.003880 -0.236184
v 0.038415 -0.000229 -0.232652
v -0.038889 -0.000931 -0.219529
v -0.033666 -0.003900 -0.218386
v -0.016837 -0.003900 -0.218386
v 0.016821 -0.003900 -0.218386
v 0.033650 -0.003900 -0.218386
v 0.038883 -0.000938 -0.219528
v -0.037679 0.001201 -0.207311
v -0.030794 -0.003488 -0.202424
v -0.016837 -0.003900 -0.200460
v 0.016821 -0.003900 -0.200460
v 0.030786 -0.003493 -0.202430
v 0.037671 0.001195 -0.207306
v -0.033656 0.007901 -0.180989
v -0.028642 0.004914 -0.179261
v -0.014430 -0.002970 -0.188162
v 0.014430 -0.002970 -0.188162
v 0.025465 -0.000010 -0.192508
v 0.031904 0.001250 -0.197779
v -0.033975 0.008360 -0.164792
v -0.028603 0.004827 -0.164586
v -0.016771 0.002779 -0.177378
v 0.015432 0.004132 -0.177497
v 0.027201 0.007035 -0.177316
v 0.033236 0.010775 -0.177379
v -0.031121 0.008227 -0.150605
v -0.027013 0.004604 -0.148240
v -0.016456 0.002760 -0.146683
v 0.015419 0.004269 -0.146791
v 0.027228 0.006965 -0.146609
v 0.032933 0.010507 -0.146680
v -0.023960 0.009611 -0.117182
v -0.019675 0.005167 -0.114144
v -0.014333 0.002767 -0.111371
v 0.015620 0.004637 -0.111015
v 0.025327 0.006106 -0.110915
v 0.032326 0.009972 -0.110847
v -0.016405 0.010452 -0.083242
v -0.014958 0.008806 -0.081564
v -0.010401 0.005521 -0.078048
v 0.015206 0.006850 -0.076761
v 0.024044 0.008525 -0.077843
v 0.032194 0.012419 -0.077949
v -0.032810 0.003383 -0.036350
v -0.025021 0.000179 -0.040881
v -0.012999 -0.002680 -0.044404
v 0.014975 0.003550 -0.051092
v 0.028320 0.004183 -0.046586
v 0.029209 0.004598 -0.046315
v -0.037578 -0.000817 -0.028846
v -0.029112 -0.006048 -0.033580
v -0.016800 -0.009387 -0.039062
v 0.016785 -0.009389 -0.039062
v 0.029249 -0.005847 -0.033767
v 0.037594 -0.000909 -0.028555
v -0.042103 -0.004833 -0.016805
v -0.033666 -0.009595 -0.021204
v -0.016837 -0.009595 -0.021204
v 0.016821 -0.009595 -0.021204
v 0.033650 -0.009595 -0.021204
v 0.041627 -0.005044 -0.017195
v -0.044302 -0.006341 -0.002669
v -0.033666 -0.009595 -0.003279
v -0.016837 -0.009595 -0.003279
v 0.016821 -0.009595 -0.003279
v 0.033650 -0.009595 -0.003279
v 0.044159 -0.006478 -0.002656
v -0.043102 -0.005465 0.012404
v -0.033666 -0.009595 0.014647
v -0.016837 -0.009595 0.014647
v 0.016821 -0.009595 0.014647
v 0.033650 -0.009595 0.014647
v 0.042931 -0.005620 0.012357
v -0.038216 -0.002886 0.025874
v -0.031234 -0.007908 0.030577
v -0.016837 -0.009595 0.032572
v 0.016821 -0.009595 0.032572
v 0.031209 -0.007938 0.030569
v 0.038833 -0.003022 0.024651
v -0.034953 0.001386 0.033152
v -0.025326 -0.002353 0.039152
v -0.014435 -0.005241 0.042581
v 0.014346 -0.005469 0.042339
v 0.025047 -0.002762 0.038766
v 0.035106 0.002058 0.034087
v -0.036049 0.007967 0.034339
v -0.026672 0.008025 0.042627
v -0.015456 0.008067 0.047126
v 0.015743 0.008067 0.046922
v 0.027100 0.008025 0.041586
v 0.036277 0.007967 0.034927
v -0.034893 0.060233 0.036188
v -0.027366 0.060175 0.042108
v -0.015935 0.060123 0.047441
v 0.015664 0.060132 0.047704
v 0.028353 0.060128 0.041305
v 0.036388 0.060632 0.035013
v -0.034946 0.067317 0.033152
v -0.025325 0.071053 0.039152
v -0.014435 0.073942 0.042579
v 0.014344 0.074175 0.042332
v 0.025025 0.071461 0.038784
v 0.035164 0.066655 0.034016
v -0.038211 0.071586 0.025884
v -0.031234 0.076608 0.030577
v -0.016837 0.078295 0.032572
v 0.016821 0.078295 0.032572
v 0.031210 0.076636 0.030569
v 0.038809 0.071723 0.024678
v -0.043103 0.074164 0.012404
v -0.033666 0.078295 0.014647
v -0.016837 0.078295 0.014647
v 0.016821 0.078295 0.014647
v 0.033650 0.078295 0.014647
v 0.042938 0.074313 0.012359
v -0.044304 0.075039 -0.002669
v -0.033666 0.078295 -0.003279
v -0.016837 0.078295 -0.003279
v 0.016821 0.078295 -0.003279
v 0.033650 0.078295 -0.003279
v 0.044149 0.075188 -0.002655
v -0.042098 0.073523 -0.016835
v -0.033666 0.078295 -0.021204
v -0.016837 0.078295 -0.021204
v 0.016821 0.078295 -0.021204
v 0.033650 0.078295 -0.021204
v 0.041646 0.073742 -0.017160
v -0.037523 0.069540 -0.028895
v -0.029106 0.074757 -0.033574
v -0.016800 0.078087 -0.039062
v 0.016785 0.078090 -0.039062
v 0.029230 0.074573 -0.033743
v 0.037609 0.069595 -0.028568
v -0.032877 0.065305 -0.036304
v -0.025025 0.068515 -0.040889
v -0.012981 0.071428 -0.044346
v 0.013025 0.071276 -0.044541
v 0.028326 0.064017 -0.046583
v 0.029190 0.063759 -0.046145
v -0.016229 0.058063 -0.083283
v -0.014963 0.059442 -0.081711
v -0.010411 0.062690 -0.078124
v 0.015158 0.061361 -0.076814
v 0.023841 0.059792 -0.077903
v 0.032193 0.055791 -0.078018
v -0.023729 0.058926 -0.117237
v -0.019668 0.063034 -0.114121
v -0.014332 0.065433 -0.111368
v 0.015578 0.063567 -0.111021
v 0.025120 0.062204 -0.110917
v 0.032326 0.058228 -0.110840
v -0.029934 0.062360 -0.153704
v -0.026999 0.063598 -0.148207
v -0.016440 0.065441 -0.146683
v 0.015368 0.063936 -0.146795
v 0.027059 0.061300 -0.146607
v 0.032933 0.057693 -0.146673
v -0.033726 0.060070 -0.164795
v -0.028603 0.063373 -0.164582
v -0.016768 0.065421 -0.164595
v 0.015382 0.064074 -0.164719
v 0.027032 0.061231 -0.164533
v 0.033236 0.057425 -0.164589
v -0.033656 0.060299 -0.180989
v -0.028642 0.063286 -0.179261
v -0.017826 0.065219 -0.174934
v 0.016875 0.063840 -0.174654
v 0.028569 0.060537 -0.178231
v 0.033374 0.057252 -0.180083
v -0.042271 0.058747 -0.205491
v -0.033666 0.059100 -0.200460
v -0.021389 0.059100 -0.193647
v 0.021378 0.059100 -0.193640
v 0.033650 0.059100 -0.200460
v 0.042271 0.058747 -0.205491
v -0.044510 0.059069 -0.219211
v -0.035990 0.059100 -0.217923
v -0.035350 0.059100 -0.214703
v 0.035349 0.059100 -0.214700
v 0.035990 0.059100 -0.217920
v 0.044494 0.059061 -0.219298
v -0.043067 0.059087 -0.234414
v -0.034326 0.059100 -0.236443
v -0.029221 0.059100 -0.244586
v 0.029216 0.059100 -0.244593
v 0.034326 0.059100 -0.236446
v 0.042998 0.059074 -0.234502
v -0.037839 0.059083 -0.246377
v -0.032922 0.059052 -0.253509
v -0.017372 0.059100 -0.255037
v 0.017361 0.059100 -0.255044
v 0.032880 0.059048 -0.253546
v 0.037801 0.059098 -0.246545
v -0.032677 0.058242 -0.255677
v -0.024862 0.059091 -0.259889
v -0.015140 0.059051 -0.265179
v 0.015038 0.059056 -0.265220
v 0.025703 0.059100 -0.259368
v 0.032677 0.058242 -0.255677
v -0.034697 0.040082 -0.257563
v -0.027239 0.041223 -0.263288
v -0.015874 0.042530 -0.268751
v 0.015415 0.042562 -0.269119
v 0.028240 0.041711 -0.262527
v 0.033991 0.040256 -0.257755
v -0.034748 0.028608 -0.257610
v -0.027289 0.027463 -0.263356
v -0.015897 0.026156 -0.268831
v 0.015450 0.026124 -0.269195
v 0.028272 0.026980 -0.262582
v 0.034040 0.028436 -0.257797
v 0.041262 0.041462 -0.249192
v 0.041355 0.027219 -0.249182
v 0.047032 0.042641 -0.234946
v 0.047094 0.026051 -0.234970
v 0.048274 0.042836 -0.218306
v 0.048342 0.025855 -0.218309
v 0.044011 0.042184 -0.202497
v 0.044076 0.026506 -0.202476
v 0.040649 0.042089 -0.182521
v 0.040702 0.026605 -0.182521
v 0.040673 0.042092 -0.164596
v 0.040726 0.026603 -0.164596
v 0.040697 0.042094 -0.146670
v 0.040750 0.026600 -0.146670
v 0.040746 0.042100 -0.110819
v 0.040798 0.026595 -0.110819
v 0.039363 0.041921 -0.075725
v 0.039417 0.026773 -0.075721
v 0.036167 0.040500 -0.057056
v 0.035776 0.026053 -0.056769
v 0.036167 0.040500 -0.040708
v 0.036135 0.027462 -0.040735
v 0.045995 0.060124 -0.018986
v 0.045690 0.008067 -0.019027
v 0.049750 0.060124 -0.003219
v 0.049147 0.008100 -0.003172
v 0.048012 0.060129 0.014140
v 0.047432 0.008081 0.013852
v 0.041682 0.060126 0.027619
v 0.041788 0.008025 0.026677
v -0.041384 0.041380 -0.248490
v -0.041451 0.027307 -0.248533
v -0.046835 0.042467 -0.235425
v -0.046919 0.026218 -0.235445
v -0.048235 0.042730 -0.218648
v -0.048322 0.025954 -0.218638
v -0.044553 0.041936 -0.203469
v -0.044631 0.026748 -0.203429
v -0.043331 0.042062 -0.182481
v -0.043405 0.026627 -0.182481
v -0.043141 0.042613 -0.168440
v -0.043206 0.026071 -0.168500
v -0.038164 0.041733 -0.149657
v -0.038217 0.026961 -0.149645
v -0.030116 0.040528 -0.115777
v -0.030176 0.028164 -0.115763
v -0.022026 0.039492 -0.081889
v -0.022085 0.029200 -0.081875
v -0.034330 0.060308 -0.036959
v -0.033268 0.007892 -0.036918
v -0.040347 0.060175 -0.030049
v -0.038698 0.008025 -0.032111
v -0.046107 0.060115 -0.019445
v -0.046273 0.008067 -0.018774
v -0.049713 0.060108 -0.003138
v -0.049498 0.008100 -0.003096
v -0.048241 0.060133 0.013988
v -0.047819 0.008067 0.014216
v -0.042033 0.060175 0.027285
v -0.041393 0.008025 0.027594
vt 0.300860 0.270941
vt 0.299911 0.259749
vt 0.314118 0.261828
vt 0.314099 0.271290
vt 0.288436 0.259757
vt 0.287495 0.270922
vt 0.298939 0.253021
vt 0.313429 0.254653
vt 0.301017 0.284015
vt 0.314089 0.283236
vt 0.289416 0.252988
vt 0.287337 0.284013
vt 0.266323 0.272744
vt 0.267515 0.262667
vt 0.300111 0.249272
vt 0.314120 0.251754
vt 0.300492 0.296436
vt 0.313836 0.294084
vt 0.288244 0.249228
vt 0.274530 0.254653
vt 0.287862 0.296452
vt 0.265752 0.283055
vt 0.264115 0.259923
vt 0.263382 0.269969
vt 0.300416 0.312130
vt 0.312631 0.314046
vt 0.267515 0.253636
vt 0.287941 0.312130
vt 0.267470 0.292657
vt 0.263366 0.283952
vt 0.300418 0.326214
vt 0.312771 0.326219
vt 0.287940 0.326214
vt 0.267515 0.300142
vt 0.263694 0.296489
vt 0.315836 0.326263
vt 0.315278 0.315501
vt 0.300420 0.340297
vt 0.312986 0.340295
vt 0.287937 0.340297
vt 0.275188 0.316171
vt 0.266500 0.304284
vt 0.315893 0.340347
vt 0.300424 0.368465
vt 0.313417 0.368448
vt 0.287933 0.368465
vt 0.274973 0.340289
vt 0.316620 0.368388
vt 0.300280 0.396037
vt 0.311454 0.394236
vt 0.288077 0.396040
vt 0.274542 0.368442
vt 0.272175 0.316219
vt 0.272119 0.340345
vt 0.299136 0.410705
vt 0.317873 0.419278
vt 0.287497 0.410930
vt 0.276513 0.394289
vt 0.271427 0.368390
vt 0.299136 0.423549
vt 0.322575 0.433087
vt 0.288632 0.423528
vt 0.270212 0.419143
vt 0.326585 0.429021
vt 0.318081 0.418933
vt 0.314945 0.440615
vt 0.325916 0.442050
vt 0.273007 0.440583
vt 0.265775 0.433097
vt 0.329584 0.438872
vt 0.314945 0.453003
vt 0.327081 0.453446
vt 0.273033 0.453040
vt 0.262444 0.442022
vt 0.269878 0.418931
vt 0.261797 0.429002
vt 0.314949 0.466642
vt 0.326376 0.465242
vt 0.273018 0.466415
vt 0.261289 0.453445
vt 0.258778 0.438872
vt 0.314946 0.477231
vt 0.324289 0.474921
vt 0.272973 0.476492
vt 0.261981 0.465241
vt 0.328247 0.479550
vt 0.329584 0.467040
vt 0.320206 0.482258
vt 0.315354 0.483041
vt 0.272926 0.482973
vt 0.264074 0.474900
vt 0.324078 0.486004
vt 0.314948 0.487985
vt 0.272973 0.488205
vt 0.268166 0.482313
vt 0.258778 0.467040
vt 0.260113 0.479549
vt 0.264283 0.485989
vt 0.094015 0.256797
vt 0.092964 0.249643
vt 0.108035 0.251167
vt 0.115072 0.259210
vt 0.083691 0.249681
vt 0.082643 0.256831
vt 0.115072 0.250146
vt 0.118482 0.256459
vt 0.094896 0.267112
vt 0.116262 0.269315
vt 0.082770 0.245169
vt 0.093890 0.245115
vt 0.081765 0.267128
vt 0.068337 0.258496
vt 0.069017 0.251167
vt 0.119216 0.266529
vt 0.095109 0.280357
vt 0.116834 0.279655
vt 0.068330 0.247847
vt 0.081552 0.280349
vt 0.068334 0.267924
vt 0.119234 0.280556
vt 0.094467 0.292343
vt 0.115111 0.289284
vt 0.082193 0.292312
vt 0.068348 0.279905
vt 0.118900 0.293135
vt 0.094565 0.308852
vt 0.109697 0.310028
vt 0.082092 0.308853
vt 0.068609 0.290719
vt 0.112111 0.311390
vt 0.095014 0.319871
vt 0.109327 0.322793
vt 0.081647 0.319918
vt 0.067355 0.310028
vt 0.112181 0.322955
vt 0.094295 0.334731
vt 0.109434 0.333974
vt 0.082358 0.334721
vt 0.067540 0.322791
vt 0.112361 0.335838
vt 0.093323 0.361433
vt 0.108316 0.360314
vt 0.083331 0.361421
vt 0.065689 0.331531
vt 0.064870 0.322959
vt 0.064941 0.311390
vt 0.111907 0.362708
vt 0.092485 0.388140
vt 0.107636 0.387062
vt 0.084169 0.388128
vt 0.068464 0.360271
vt 0.064688 0.335864
vt 0.108966 0.388385
vt 0.109705 0.423570
vt 0.113349 0.424018
vt 0.067347 0.423537
vt 0.069162 0.387030
vt 0.065144 0.362726
vt 0.113846 0.364894
vt 0.111620 0.391156
vt 0.115937 0.420446
vt 0.109597 0.427358
vt 0.116742 0.429931
vt 0.067455 0.428983
vt 0.063309 0.424054
vt 0.068047 0.388269
vt 0.120969 0.426200
vt 0.109563 0.437869
vt 0.119988 0.439421
vt 0.067503 0.437340
vt 0.059887 0.429893
vt 0.060715 0.420441
vt 0.065422 0.391096
vt 0.063206 0.364896
vt 0.123836 0.435954
vt 0.109537 0.450225
vt 0.121206 0.450561
vt 0.067509 0.450192
vt 0.056668 0.439397
vt 0.055671 0.426206
vt 0.109563 0.463868
vt 0.120498 0.462440
vt 0.067488 0.463689
vt 0.055443 0.450561
vt 0.052812 0.435954
vt 0.109597 0.474412
vt 0.118414 0.473056
vt 0.067455 0.474167
vt 0.056150 0.462441
vt 0.123836 0.464208
vt 0.122473 0.476762
vt 0.114962 0.478791
vt 0.109644 0.479727
vt 0.067408 0.481184
vt 0.058234 0.473064
vt 0.117984 0.483520
vt 0.109597 0.486259
vt 0.067455 0.485850
vt 0.061683 0.478791
vt 0.054175 0.476762
vt 0.052812 0.464208
vt 0.058664 0.483520
vt 0.859076 0.578894
vt 0.861592 0.568575
vt 0.867495 0.571838
vt 0.864556 0.582405
vt 0.856109 0.544563
vt 0.867498 0.543009
vt 0.855552 0.533108
vt 0.864380 0.532310
vt 0.320216 0.801505
vt 0.319371 0.812250
vt 0.310086 0.812216
vt 0.311200 0.803837
vt 0.344044 0.801321
vt 0.345200 0.812250
vt 0.498559 0.694500
vt 0.489077 0.694541
vt 0.306309 0.799352
vt 0.318228 0.797990
vt 0.352903 0.803507
vt 0.354602 0.812216
vt 0.524768 0.694507
vt 0.499803 0.705678
vt 0.490770 0.703341
vt 0.535293 0.694504
vt 0.346093 0.797990
vt 0.358004 0.799328
vt 0.523673 0.705866
vt 0.497811 0.709199
vt 0.485869 0.707834
vt 0.532533 0.703671
vt 0.537662 0.707857
vt 0.525728 0.709199
vt 0.546852 0.325224
vt 0.543964 0.314819
vt 0.549738 0.311590
vt 0.552263 0.321773
vt 0.543962 0.286421
vt 0.549869 0.289601
vt 0.547011 0.275899
vt 0.556163 0.276663
vt 0.153193 0.969300
vt 0.166326 0.969870
vt 0.167366 0.978680
vt 0.153161 0.976837
vt 0.153189 0.945905
vt 0.166301 0.945612
vt 0.179343 0.969887
vt 0.178304 0.978719
vt 0.153154 0.937636
vt 0.166977 0.935669
vt 0.179368 0.945585
vt 0.200407 0.967813
vt 0.199141 0.975161
vt 0.178687 0.935645
vt 0.200409 0.947324
vt 0.203235 0.970572
vt 0.202496 0.978680
vt 0.192219 0.982896
vt 0.177394 0.984502
vt 0.199141 0.939965
vt 0.203235 0.944563
vt 0.192219 0.932230
vt 0.177531 0.931173
vt 0.202496 0.936450
vt 0.010149 0.256825
vt 0.018071 0.253007
vt 0.018028 0.266170
vt 0.005600 0.266264
vt 0.043480 0.253003
vt 0.043521 0.266170
vt 0.018028 0.279411
vt 0.005281 0.279411
vt 0.051406 0.256819
vt 0.055949 0.266264
vt 0.043521 0.279411
vt 0.018028 0.292652
vt 0.007456 0.291201
vt 0.056267 0.279411
vt 0.043521 0.292652
vt 0.019850 0.301736
vt 0.009086 0.308311
vt 0.054098 0.291197
vt 0.041710 0.301736
vt 0.018078 0.309702
vt 0.009116 0.319150
vt 0.050068 0.298526
vt 0.042469 0.309613
vt 0.018316 0.332374
vt 0.010320 0.331225
vt 0.051382 0.309747
vt 0.042458 0.332295
vt 0.019924 0.358458
vt 0.015878 0.356409
vt 0.054944 0.294632
vt 0.055954 0.309701
vt 0.051403 0.332429
vt 0.042611 0.358721
vt 0.049963 0.358795
vt 0.022902 0.383073
vt 0.042297 0.384023
vt 0.048991 0.383224
vt 0.020935 0.407924
vt 0.042122 0.402984
vt 0.055164 0.383145
vt 0.055264 0.358845
vt 0.052230 0.406312
vt 0.019451 0.380475
vt 0.011829 0.410526
vt 0.052903 0.406512
vt 0.843842 0.914392
vt 0.839709 0.905338
vt 0.853174 0.905365
vt 0.853174 0.917741
vt 0.839708 0.880640
vt 0.853174 0.880613
vt 0.866691 0.905365
vt 0.866691 0.917741
vt 0.843701 0.871474
vt 0.853174 0.868237
vt 0.866691 0.880613
vt 0.880208 0.905365
vt 0.880208 0.917741
vt 0.856492 0.923945
vt 0.867151 0.925562
vt 0.866691 0.868237
vt 0.880208 0.880613
vt 0.893725 0.905365
vt 0.892220 0.915953
vt 0.878517 0.924680
vt 0.856197 0.862371
vt 0.867161 0.860509
vt 0.880208 0.868237
vt 0.893725 0.880613
vt 0.878482 0.861412
vt 0.892214 0.870033
vt 0.901272 0.903599
vt 0.901090 0.882433
vt 0.519821 0.914180
vt 0.512275 0.912413
vt 0.512461 0.891250
vt 0.519821 0.889428
vt 0.533337 0.914180
vt 0.533337 0.889428
vt 0.521326 0.924767
vt 0.533337 0.926556
vt 0.521331 0.878847
vt 0.533337 0.877052
vt 0.546854 0.914180
vt 0.546854 0.889428
vt 0.546854 0.926556
vt 0.546854 0.877052
vt 0.560371 0.914180
vt 0.560371 0.889428
vt 0.560371 0.926556
vt 0.535028 0.933495
vt 0.546394 0.934379
vt 0.535063 0.870223
vt 0.546384 0.869332
vt 0.560371 0.877052
vt 0.573836 0.914153
vt 0.573837 0.889455
vt 0.569698 0.923202
vt 0.557076 0.932756
vt 0.557321 0.871172
vt 0.569826 0.880303
vt 0.590355 0.000388
vt 0.599444 0.002932
vt 0.601384 0.027794
vt 0.597949 0.030434
vt 0.619071 0.003076
vt 0.620681 0.026830
vt 0.630619 0.004579
vt 0.627234 0.027632
vt 0.598425 0.052262
vt 0.620998 0.052007
vt 0.631271 0.004256
vt 0.633537 0.027716
vt 0.628199 0.051930
vt 0.596834 0.078255
vt 0.620840 0.078337
vt 0.633637 0.051873
vt 0.629663 0.078199
vt 0.588864 0.079376
vt 0.594397 0.054289
vt 0.596586 0.091438
vt 0.620850 0.091530
vt 0.629642 0.091392
vt 0.587654 0.091428
vt 0.595788 0.099048
vt 0.621977 0.098842
vt 0.630802 0.101475
vt 0.587625 0.102232
vt 0.593099 0.112821
vt 0.625375 0.112816
vt 0.634637 0.117836
vt 0.583833 0.117836
vt 0.582562 0.128319
vt 0.635919 0.128317
vt 0.634429 0.102837
vt 0.641143 0.121538
vt 0.636402 0.130687
vt 0.582079 0.130689
vt 0.583840 0.103505
vt 0.577339 0.121538
vt 0.587188 0.150313
vt 0.631291 0.150319
vt 0.642821 0.131700
vt 0.635147 0.144322
vt 0.583335 0.144319
vt 0.575649 0.131637
vt 0.596131 0.158005
vt 0.622343 0.158011
vt 0.641692 0.142891
vt 0.634056 0.156908
vt 0.584394 0.156881
vt 0.576738 0.142827
vt 0.597815 0.165470
vt 0.620590 0.165500
vt 0.637770 0.151755
vt 0.628639 0.161193
vt 0.590478 0.161577
vt 0.580684 0.151631
vt 0.633903 0.158476
vt 0.584579 0.158476
vn -0.686582 -0.283796 -0.669377
vn -0.448389 -0.408552 -0.795005
vn -0.302756 -0.908805 -0.287077
vn -0.814081 -0.400680 -0.420389
vn -0.098120 -0.452439 -0.886381
vn -0.045772 -0.987306 -0.152089
vn 0.098579 -0.451883 -0.886614
vn 0.045743 -0.987300 -0.152142
vn 0.451101 -0.407565 -0.793976
vn 0.302564 -0.908896 -0.286989
vn 0.687033 -0.281929 -0.669702
vn 0.813873 -0.401263 -0.420237
vn -0.204253 -0.975487 -0.081892
vn -0.889680 -0.414876 -0.190651
vn -0.005146 -0.999976 -0.004586
vn 0.005137 -0.999976 -0.004582
vn 0.203952 -0.975559 -0.081786
vn 0.888650 -0.417122 -0.190554
vn -0.170684 -0.984965 0.026655
vn -0.898689 -0.435293 0.053641
vn -0.002204 -0.999996 0.001867
vn 0.002170 -0.999996 0.001846
vn 0.170283 -0.985038 0.026549
vn 0.897684 -0.436363 0.061249
vn -0.295286 -0.937181 0.185735
vn -0.876832 -0.440536 0.192598
vn -0.048675 -0.995606 0.079991
vn 0.025786 -0.998293 0.052404
vn 0.212520 -0.966042 0.146962
vn 0.878547 -0.412063 0.241577
vn -0.378994 -0.899772 0.216271
vn -0.857553 -0.497163 0.132030
vn -0.061893 -0.955080 0.289813
vn 0.074975 -0.945079 0.318127
vn 0.335996 -0.875266 0.347874
vn 0.833774 -0.475220 0.281045
vn -0.295119 -0.954748 0.036880
vn -0.850931 -0.512997 0.112922
vn -0.014550 -0.990544 0.136424
vn 0.106105 -0.983261 0.148122
vn 0.366436 -0.919972 0.139197
vn 0.830187 -0.552919 0.071206
vn -0.417500 -0.905613 0.074549
vn -0.877828 -0.432425 0.205975
vn -0.009184 -0.999929 0.007625
vn 0.092977 -0.995667 0.001779
vn 0.333847 -0.942627 -0.000599
vn 0.809630 -0.586937 0.002185
vn -0.517523 -0.847742 0.116200
vn -0.894681 -0.391768 0.214627
vn -0.032612 -0.998403 0.046129
vn 0.087887 -0.995563 0.033601
vn 0.312260 -0.949361 0.034748
vn 0.794051 -0.607262 0.026750
vn -0.522194 -0.844131 -0.121475
vn -0.920975 -0.387928 -0.036302
vn -0.028021 -0.996549 -0.078133
vn 0.102445 -0.993541 -0.048801
vn 0.270520 -0.962400 -0.024612
vn 0.826981 -0.561142 0.034952
vn -0.464282 -0.776093 -0.426758
vn -0.822907 -0.365885 -0.434687
vn -0.066096 -0.886740 -0.457518
vn 0.125254 -0.930706 -0.343653
vn 0.360289 -0.846595 -0.391751
vn 0.886033 -0.409068 -0.218196
vn -0.366419 -0.836768 -0.406886
vn -0.738791 -0.455581 -0.496622
vn -0.080981 -0.939267 -0.333497
vn 0.085665 -0.923474 -0.373975
vn 0.356734 -0.841414 -0.405910
vn 0.836448 -0.328141 -0.438951
vn -0.246614 -0.957738 -0.148053
vn -0.760062 -0.600975 -0.247255
vn -0.017705 -0.999597 -0.022198
vn 0.018688 -0.999557 -0.023142
vn 0.240840 -0.959631 -0.145275
vn 0.790936 -0.528567 -0.308279
vn -0.137644 -0.990463 -0.006061
vn -0.768085 -0.639706 -0.028662
vn -0.000000 -1.000000 0.000000
vn -0.000000 -1.000000 0.000000
vn 0.133430 -0.991039 -0.006195
vn 0.778051 -0.627299 -0.033659
vn -0.188222 -0.979495 0.071850
vn -0.766731 -0.615695 0.181781
vn -0.008535 -0.999931 0.008013
vn 0.008385 -0.999934 0.007872
vn 0.182280 -0.980777 0.069648
vn 0.769665 -0.614291 0.173960
vn -0.303842 -0.905088 0.297483
vn -0.741506 -0.531803 0.409090
vn -0.044216 -0.984546 0.169453
vn 0.041743 -0.985233 0.166053
vn 0.314089 -0.898156 0.307676
vn 0.748238 -0.532408 0.395830
vn -0.417862 -0.531494 0.736821
vn -0.672323 -0.341875 0.656585
vn -0.072742 -0.638218 0.766411
vn 0.079668 -0.637403 0.766401
vn 0.415846 -0.529409 0.739458
vn 0.666059 -0.354558 0.656243
vn -0.461833 -0.318411 0.827844
vn -0.683391 -0.289572 0.670168
vn -0.089598 -0.328797 0.940141
vn 0.110501 -0.325934 0.938912
vn 0.448581 -0.303569 0.840607
vn 0.686793 -0.286773 0.667890
vn -0.465245 0.324796 0.823441
vn -0.416557 0.530680 0.738146
vn -0.676955 0.349519 0.647741
vn -0.661080 0.308332 0.684035
vn -0.103753 0.345467 0.932678
vn -0.078496 0.636468 0.767299
vn 0.111882 0.348980 0.930427
vn 0.082134 0.638208 0.765470
vn 0.459264 0.325177 0.826641
vn 0.418319 0.529511 0.737988
vn 0.664537 0.367329 0.650738
vn 0.683243 0.306968 0.662533
vn -0.303768 0.905133 0.297421
vn -0.741040 0.530303 0.411873
vn -0.044229 0.984556 0.169391
vn 0.041735 0.985250 0.165953
vn 0.313994 0.898239 0.307531
vn 0.745536 0.533847 0.398978
vn -0.188254 0.979488 0.071855
vn -0.767421 0.615163 0.180664
vn -0.008535 0.999931 0.008013
vn 0.008393 0.999934 0.007880
vn 0.182335 0.980759 0.069750
vn 0.767767 0.615478 0.178100
vn -0.137815 0.990439 -0.006130
vn -0.773116 0.633337 -0.034299
vn 0.000000 1.000000 0.000000
vn 0.000000 1.000000 0.000000
vn 0.133311 0.991055 -0.006138
vn 0.775506 0.630309 -0.036052
vn -0.246331 0.957860 -0.147733
vn -0.764308 0.597246 -0.243166
vn -0.017661 0.999599 -0.022151
vn 0.018561 0.999563 -0.023016
vn 0.241151 0.959510 -0.145557
vn 0.789194 0.526890 -0.315532
vn -0.365768 0.837203 -0.406577
vn -0.730225 0.466284 -0.499351
vn -0.084484 0.952507 -0.292563
vn 0.094287 0.944055 -0.316022
vn 0.350201 0.844146 -0.405926
vn 0.834842 0.325660 -0.443829
vn -0.458331 0.776940 -0.431620
vn -0.813316 0.379676 -0.440866
vn -0.091011 0.903121 -0.419630
vn 0.117724 0.900851 -0.417862
vn 0.385203 0.862149 -0.329117
vn 0.891170 0.396475 -0.220509
vn -0.514096 0.847864 -0.129734
vn -0.914783 0.400925 -0.049298
vn -0.055126 0.991692 -0.116225
vn 0.109935 0.988757 -0.101360
vn 0.323087 0.944363 -0.061581
vn 0.824312 0.564899 0.037403
vn -0.497659 0.860202 0.111305
vn -0.893958 0.395860 0.210081
vn -0.032250 0.998422 0.045966
vn 0.085882 0.995745 0.033405
vn 0.311556 0.949604 0.034419
vn 0.785270 0.618568 0.026928
vn -0.425006 0.901505 0.081605
vn -0.871621 0.446942 0.201295
vn -0.014227 0.999855 0.009354
vn 0.090682 0.995878 0.002133
vn 0.331198 0.943561 -0.001095
vn 0.807249 0.590206 0.002301
vn -0.284715 0.958608 0.002942
vn -0.846862 0.516482 0.126769
vn -0.013242 0.999902 -0.004618
vn 0.095108 0.995455 -0.004959
vn 0.350833 0.936438 -0.000698
vn 0.824420 0.565975 0.001857
vn -0.138923 0.980120 -0.141648
vn -0.800899 0.595321 0.064443
vn 0.001346 0.982211 -0.187773
vn 0.057376 0.982126 -0.179267
vn 0.238509 0.969878 -0.049500
vn 0.818900 0.560332 0.124218
vn -0.077896 0.993625 -0.081500
vn -0.831213 0.530505 0.166277
vn 0.009752 0.994840 -0.100989
vn 0.014465 0.996305 -0.084663
vn 0.147104 0.989081 0.008837
vn 0.825022 0.523330 0.213225
vn -0.011193 0.999922 0.005448
vn -0.816934 0.575135 0.042887
vn 0.000000 1.000000 -0.000001
vn -0.000000 1.000000 -0.000001
vn 0.011864 0.999915 0.005322
vn 0.815583 0.576597 0.048583
vn -0.001195 0.999999 -0.000769
vn -0.803613 0.561397 -0.197583
vn -0.000312 1.000000 -0.000285
vn 0.000336 1.000000 -0.000307
vn 0.001263 0.999999 -0.000555
vn 0.802362 0.562590 -0.199269
vn -0.050866 0.997504 -0.048973
vn -0.759163 0.508129 -0.406789
vn -0.000221 0.999999 -0.001314
vn 0.000163 0.999999 -0.001206
vn 0.048431 0.997777 -0.045773
vn 0.757051 0.507018 -0.412075
vn -0.421608 0.556891 -0.715625
vn -0.700532 0.232448 -0.674702
vn -0.110174 0.633285 -0.766036
vn 0.116198 0.628283 -0.769258
vn 0.422755 0.562606 -0.710460
vn 0.704311 0.227449 -0.672468
vn -0.502640 0.112782 -0.857107
vn -0.718524 0.106040 -0.687370
vn -0.133669 0.117473 -0.984039
vn 0.136624 0.116672 -0.983728
vn 0.510668 0.111736 -0.852487
vn 0.715017 0.099560 -0.691981
vn -0.463021 -0.166161 -0.870633
vn -0.713680 -0.138444 -0.686654
vn -0.126780 -0.193137 -0.972947
vn 0.127601 -0.190826 -0.973295
vn 0.470240 -0.165829 -0.866819
vn 0.709297 -0.133195 -0.692211
vn 0.869255 0.114413 -0.480941
vn 0.879031 -0.171362 -0.444904
vn 0.967296 0.120779 -0.223049
vn 0.956278 -0.197470 -0.215727
vn 0.991254 0.106129 0.078433
vn 0.978408 -0.190765 0.079539
vn 0.964491 0.129259 0.230324
vn 0.950444 -0.202071 0.236268
vn 0.974067 0.183642 0.132169
vn 0.965548 -0.227957 0.125508
vn 0.972381 0.233398 0.000542
vn 0.965778 -0.259106 0.011743
vn 0.968861 0.247601 0.001299
vn 0.967055 -0.254564 0.001303
vn 0.968242 0.249239 0.019691
vn 0.969556 -0.244078 0.019667
vn 0.970195 0.232146 0.069497
vn 0.971303 -0.227757 0.068530
vn 0.981463 0.191574 0.005508
vn 0.978008 -0.208555 -0.002202
vn 0.957751 0.162303 -0.237425
vn 0.959409 -0.165163 -0.228595
vn 0.871798 0.263619 -0.412883
vn 0.876894 -0.257331 -0.406002
vn 0.937361 0.344446 -0.052080
vn 0.945094 -0.323147 -0.048726
vn 0.912037 0.344506 0.222495
vn 0.922238 -0.321244 0.215125
vn 0.844170 0.325003 0.426322
vn 0.855532 -0.305728 0.417845
vn -0.874909 0.117148 -0.469905
vn -0.883439 -0.174371 -0.434890
vn -0.966568 0.119185 -0.227028
vn -0.955691 -0.196955 -0.218778
vn -0.992288 0.107699 0.061366
vn -0.979135 -0.192874 0.063988
vn -0.973291 0.154128 0.170141
vn -0.964026 -0.212490 0.159695
vn -0.970787 0.224150 0.085615
vn -0.966303 -0.244858 0.079394
vn -0.958574 0.253147 0.130583
vn -0.961949 -0.242931 0.125057
vn -0.945660 0.229155 0.230684
vn -0.950936 -0.203406 0.233124
vn -0.949566 0.219517 0.223912
vn -0.952958 -0.199721 0.227998
vn -0.987318 0.097905 -0.124975
vn -0.987154 -0.105351 -0.120116
vn -0.942052 0.111930 -0.316242
vn -0.945554 -0.112393 -0.305444
vn -0.808947 0.316923 -0.495141
vn -0.800545 -0.302325 -0.517424
vn -0.896387 0.329248 -0.296792
vn -0.896076 -0.327015 -0.300181
vn -0.939268 0.339636 -0.049230
vn -0.940198 -0.338153 -0.041001
vn -0.910103 0.349150 0.223176
vn -0.912172 -0.339345 0.229753
vn -0.832529 0.332073 0.443421
vn -0.838016 -0.320770 0.441403
s 1
usemtl M_sprout_SG
f 1/101/1 2/105/2 8/106/3 7/102/4
f 2/255/2 3/254/5 9/258/6 8/259/3
f 9/258/6 3/254/5 4/257/7 10/263/8
f 4/257/7 5/262/9 11/266/10 10/263/8
f 5/27/9 6/20/11 12/14/12 11/23/10
f 7/102/4 8/106/3 14/114/13 13/108/14
f 8/267/3 9/268/6 15/269/15 14/270/13
f 15/269/15 9/268/6 10/271/8 16/272/16
f 10/271/8 11/275/10 17/276/17 16/272/16
f 11/23/10 12/14/12 18/13/18 17/24/17
f 13/108/14 14/114/13 20/120/19 19/116/20
f 14/270/13 15/269/15 21/273/21 20/274/19
f 21/273/21 15/269/15 16/272/16 22/277/22
f 16/272/16 17/276/17 23/280/23 22/277/22
f 17/24/17 18/13/18 24/22/24 23/30/23
f 19/116/20 20/120/19 26/125/25 25/122/26
f 20/274/19 21/273/21 27/278/27 26/279/25
f 27/278/27 21/273/21 22/277/22 28/281/28
f 22/277/22 23/280/23 29/284/29 28/281/28
f 23/30/23 24/22/24 30/29/30 29/35/29
f 25/122/26 26/125/25 32/130/31 31/127/32
f 26/279/25 27/278/27 33/282/33 32/283/31
f 33/282/33 27/278/27 28/281/28 34/285/34
f 28/281/28 29/284/29 35/288/35 34/285/34
f 29/35/29 30/29/30 36/34/36 35/42/35
f 31/127/32 32/130/31 38/135/37 37/132/38
f 32/283/31 33/282/33 39/286/39 38/287/37
f 39/286/39 33/282/33 34/285/34 40/289/40
f 34/285/34 35/288/35 41/292/41 40/289/40
f 35/288/35 36/296/36 42/297/42 41/292/41
f 37/132/38 38/135/37 44/140/43 43/137/44
f 38/287/37 39/286/39 45/290/45 44/291/43
f 45/290/45 39/286/39 40/289/40 46/293/46
f 40/289/40 41/292/41 47/298/47 46/293/46
f 41/53/41 42/41/42 48/47/48 47/54/47
f 44/140/43 50/147/49 49/142/50 43/137/44
f 45/290/45 51/294/51 50/295/49 44/291/43
f 51/294/51 45/290/45 46/293/46 52/299/52
f 47/298/47 53/300/53 52/299/52 46/293/46
f 54/52/54 53/59/53 47/54/47 48/47/48
f 50/147/49 56/153/55 55/149/56 49/142/50
f 51/159/51 57/160/57 56/153/55 50/147/49
f 57/301/57 51/294/51 52/299/52 58/302/58
f 53/300/53 59/303/59 58/302/58 52/299/52
f 60/306/60 59/303/59 53/300/53 54/307/54
f 55/149/56 56/153/55 62/161/61 61/155/62
f 56/309/55 57/301/57 63/304/63 62/310/61
f 63/304/63 57/301/57 58/302/58 64/305/64
f 58/302/58 59/303/59 65/308/65 64/305/64
f 59/303/59 60/306/60 66/311/66 65/308/65
f 61/155/62 62/161/61 68/167/67 67/163/68
f 62/203/61 63/204/63 69/205/69 68/206/67
f 69/205/69 63/204/63 64/207/64 70/208/70
f 64/207/64 65/209/65 71/210/71 70/208/70
f 65/75/65 66/63/66 72/69/72 71/76/71
f 67/163/68 68/167/67 74/175/73 73/169/74
f 68/312/67 69/313/69 75/314/75 74/315/73
f 75/314/75 69/313/69 70/316/70 76/317/76
f 70/316/70 71/320/71 77/321/77 76/317/76
f 71/76/71 72/69/72 78/74/78 77/81/77
f 73/325/74 74/315/73 80/319/79 79/326/80
f 74/315/73 75/314/75 81/318/81 80/319/79
f 81/318/81 75/314/75 76/317/76 82/322/82
f 76/317/76 77/321/77 83/327/83 82/322/82
f 77/321/77 78/332/78 84/333/84 83/327/83
f 79/326/80 80/319/79 86/324/85 85/331/86
f 80/319/79 81/318/81 87/323/87 86/324/85
f 87/323/87 81/318/81 82/322/82 88/328/88
f 82/322/82 83/327/83 89/334/89 88/328/88
f 83/327/83 84/333/84 90/336/90 89/334/89
f 85/182/86 86/190/85 92/191/91 91/187/92
f 86/324/85 87/323/87 93/329/93 92/330/91
f 93/329/93 87/323/87 88/328/88 94/335/94
f 88/328/88 89/334/89 95/337/95 94/335/94
f 89/96/89 90/85/90 96/91/96 95/97/95
f 91/187/92 92/191/91 98/196/97 97/192/98
f 92/219/91 93/220/93 99/211/99 98/214/97
f 99/338/99 93/329/93 94/335/94 100/339/100
f 94/227/94 95/228/95 101/221/101 100/215/100
f 95/97/95 96/91/96 102/95/102 101/98/101
f 98/196/97 104/197/103 103/193/104 97/192/98
f 99/211/99 105/212/105 104/213/103 98/214/97
f 100/215/100 106/216/106 105/212/105 99/211/99
f 101/221/101 107/222/107 106/216/106 100/215/100
f 108/90/108 107/94/107 101/98/101 102/95/102
f 110/198/109 116/202/110 115/199/111 109/194/112
f 111/217/113 117/224/114 116/225/110 110/218/109
f 112/223/115 118/229/116 117/224/114 111/217/113
f 113/226/117 119/232/118 118/229/116 112/223/115
f 120/88/119 119/92/118 113/93/117 114/89/120
f 115/199/111 116/202/110 122/200/121 121/195/122
f 116/225/110 117/224/114 123/230/123 122/231/121
f 123/340/123 117/341/114 118/342/116 124/343/124
f 118/229/116 119/232/118 125/233/125 124/234/124
f 119/92/118 120/88/119 126/83/126 125/86/125
f 121/195/122 122/200/121 128/201/127 127/189/128
f 122/346/121 123/340/123 129/344/129 128/347/127
f 129/344/129 123/340/123 124/343/124 130/345/130
f 124/343/124 125/348/125 131/349/131 130/345/130
f 125/86/125 126/83/126 132/78/132 131/87/131
f 127/357/128 128/347/127 134/352/133 133/358/134
f 128/347/127 129/344/129 135/350/135 134/352/133
f 135/350/135 129/344/129 130/345/130 136/351/136
f 130/345/130 131/349/131 137/353/137 136/351/136
f 131/349/131 132/359/132 138/360/138 137/353/137
f 133/358/134 134/352/133 140/356/139 139/365/140
f 134/352/133 135/350/135 141/354/141 140/356/139
f 141/354/141 135/350/135 136/351/136 142/355/142
f 136/351/136 137/353/137 143/361/143 142/355/142
f 137/353/137 138/360/138 144/366/144 143/361/143
f 139/179/140 140/185/139 146/180/145 145/171/146
f 140/356/139 141/354/141 147/362/147 146/364/145
f 147/362/147 141/354/141 142/355/142 148/363/148
f 142/355/142 143/361/143 149/367/149 148/363/148
f 143/70/143 144/67/144 150/61/150 149/64/149
f 145/171/146 146/180/145 152/172/151 151/165/152
f 146/235/145 147/236/147 153/237/153 152/238/151
f 153/237/153 147/236/147 148/239/148 154/240/154
f 148/239/148 149/241/149 155/242/155 154/240/154
f 149/64/149 150/61/150 156/56/156 155/65/155
f 151/165/152 152/172/151 158/166/157 157/157/158
f 152/368/151 153/369/153 159/370/159 158/371/157
f 159/370/159 153/369/153 154/372/154 160/373/160
f 154/372/154 155/374/155 161/375/161 160/373/160
f 155/374/155 156/378/156 162/379/162 161/375/161
f 158/166/157 164/158/163 163/151/164 157/157/158
f 159/173/159 165/174/165 164/158/163 158/166/157
f 165/376/165 159/370/159 160/373/160 166/377/166
f 161/375/161 167/380/167 166/377/166 160/373/160
f 168/383/168 167/380/167 161/375/161 162/379/162
f 164/158/163 170/152/169 169/144/170 163/151/164
f 165/376/165 171/381/171 170/385/169 164/386/163
f 171/381/171 165/376/165 166/377/166 172/382/172
f 167/380/167 173/384/173 172/382/172 166/377/166
f 174/39/174 173/43/173 167/48/167 168/45/168
f 169/144/170 170/152/169 176/145/175 175/139/176
f 170/385/169 171/381/171 177/387/177 176/390/175
f 177/387/177 171/381/171 172/382/172 178/388/178
f 172/382/172 173/384/173 179/389/179 178/388/178
f 173/43/173 174/39/174 180/32/180 179/36/179
f 175/139/176 176/145/175 182/146/181 181/134/182
f 176/390/175 177/387/177 183/391/183 182/394/181
f 183/391/183 177/387/177 178/388/178 184/392/184
f 178/388/178 179/389/179 185/393/185 184/392/184
f 179/36/179 180/32/180 186/26/186 185/37/185
f 181/405/182 182/394/181 188/398/187 187/406/188
f 182/394/181 183/391/183 189/395/189 188/398/187
f 189/395/189 183/391/183 184/392/184 190/396/190
f 184/392/184 185/393/185 191/397/191 190/396/190
f 185/393/185 186/401/186 192/402/192 191/397/191
f 187/406/188 188/398/187 194/404/193 193/412/194
f 188/398/187 189/395/189 195/399/195 194/404/193
f 195/399/195 189/395/189 190/396/190 196/400/196
f 190/396/190 191/397/191 197/403/197 196/400/196
f 191/397/191 192/402/192 198/409/198 197/403/197
f 193/412/194 194/404/193 200/411/199 199/418/200
f 194/404/193 195/399/195 201/407/201 200/411/199
f 201/407/201 195/399/195 196/400/196 202/408/202
f 196/400/196 197/403/197 203/410/203 202/408/202
f 197/403/197 198/409/198 204/415/204 203/410/203
f 199/418/200 200/411/199 206/417/205 205/424/206
f 200/411/199 201/407/201 207/413/207 206/417/205
f 207/413/207 201/407/201 202/408/202 208/414/208
f 202/408/202 203/410/203 209/416/209 208/414/208
f 203/410/203 204/415/204 210/421/210 209/416/209
f 205/424/206 206/417/205 212/423/211 211/426/212
f 206/417/205 207/413/207 213/419/213 212/423/211
f 213/419/213 207/413/207 208/414/208 214/420/214
f 208/414/208 209/416/209 215/422/215 214/420/214
f 209/416/209 210/421/210 216/425/216 215/422/215
f 212/117/211 218/109/217 217/103/218 211/113/212
f 213/243/213 219/244/219 218/245/217 212/246/211
f 214/247/214 220/248/220 219/244/219 213/243/213
f 215/251/215 221/252/221 220/248/220 214/247/214
f 222/7/222 221/15/221 215/16/215 216/8/216
f 217/103/218 218/109/217 224/110/223 223/100/224
f 218/245/217 219/244/219 225/249/225 224/250/223
f 225/249/225 219/244/219 220/248/220 226/253/226
f 220/248/220 221/252/221 227/256/227 226/253/226
f 221/15/221 222/7/222 228/11/228 227/19/227
f 224/250/223 2/255/2 1/260/1 223/261/224
f 225/249/225 3/254/5 2/255/2 224/250/223
f 226/253/226 4/257/7 3/254/5 225/249/225
f 227/256/227 5/262/9 4/257/7 226/253/226
f 6/264/11 5/262/9 227/256/227 228/265/228
f 229/2/229 222/7/222 216/8/216 210/3/210
f 228/11/228 222/7/222 229/2/229 230/5/230
f 12/14/12 6/20/11 228/11/228 230/5/230
f 231/1/231 229/2/229 210/3/210 204/4/204
f 230/5/230 229/2/229 231/1/231 232/6/232
f 18/13/18 12/14/12 230/5/230 232/6/232
f 233/9/233 231/1/231 204/4/204 198/10/198
f 232/6/232 231/1/231 233/9/233 234/12/234
f 24/22/24 18/13/18 232/6/232 234/12/234
f 235/17/235 233/9/233 198/10/198 192/18/192
f 234/12/234 233/9/233 235/17/235 236/21/236
f 30/29/30 24/22/24 234/12/234 236/21/236
f 237/25/237 235/17/235 192/18/192 186/26/186
f 236/21/236 235/17/235 237/25/237 238/28/238
f 36/34/36 30/29/30 236/21/236 238/28/238
f 239/31/239 237/25/237 186/26/186 180/32/180
f 238/28/238 237/25/237 239/31/239 240/33/240
f 42/41/42 36/34/36 238/28/238 240/33/240
f 241/38/241 239/31/239 180/32/180 174/39/174
f 240/33/240 239/31/239 241/38/241 242/40/242
f 48/47/48 42/41/42 240/33/240 242/40/242
f 243/44/243 241/38/241 174/39/174 168/45/168
f 242/40/242 241/38/241 243/44/243 244/46/244
f 54/52/54 48/47/48 242/40/242 244/46/244
f 245/49/245 243/44/243 168/45/168 162/50/162
f 244/46/244 243/44/243 245/49/245 246/51/246
f 60/58/60 54/52/54 244/46/244 246/51/246
f 247/55/247 245/49/245 162/50/162 156/56/156
f 246/51/246 245/49/245 247/55/247 248/57/248
f 66/63/66 60/58/60 246/51/246 248/57/248
f 249/60/249 247/55/247 156/56/156 150/61/150
f 248/57/248 247/55/247 249/60/249 250/62/250
f 72/69/72 66/63/66 248/57/248 250/62/250
f 251/66/251 249/60/249 150/61/150 144/67/144
f 78/74/78 72/69/72 250/62/250 252/68/252
f 253/71/253 251/66/251 144/67/144 138/72/138
f 84/80/84 78/74/78 252/68/252 254/73/254
f 255/77/255 253/71/253 138/72/138 132/78/132
f 90/85/90 84/80/84 254/73/254 256/79/256
f 257/82/257 255/77/255 132/78/132 126/83/126
f 96/91/96 90/85/90 256/79/256 258/84/258
f 120/88/119 114/89/120 257/82/257 126/83/126
f 108/90/108 102/95/102 96/91/96 258/84/258
f 205/112/206 211/113/212 217/103/218 259/104/259
f 217/103/218 223/100/224 260/99/260 259/104/259
f 260/99/260 223/100/224 1/101/1 7/102/4
f 199/119/200 205/112/206 259/104/259 261/111/261
f 259/104/259 260/99/260 262/107/262 261/111/261
f 262/107/262 260/99/260 7/102/4 13/108/14
f 193/124/194 199/119/200 261/111/261 263/118/263
f 261/111/261 262/107/262 264/115/264 263/118/263
f 264/115/264 262/107/262 13/108/14 19/116/20
f 187/129/188 193/124/194 263/118/263 265/123/265
f 263/118/263 264/115/264 266/121/266 265/123/265
f 266/121/266 264/115/264 19/116/20 25/122/26
f 181/134/182 187/129/188 265/123/265 267/128/267
f 265/123/265 266/121/266 268/126/268 267/128/267
f 268/126/268 266/121/266 25/122/26 31/127/32
f 175/139/176 181/134/182 267/128/267 269/133/269
f 267/128/267 268/126/268 270/131/270 269/133/269
f 270/131/270 268/126/268 31/127/32 37/132/38
f 169/144/170 175/139/176 269/133/269 271/138/271
f 269/133/269 270/131/270 272/136/272 271/138/271
f 272/136/272 270/131/270 37/132/38 43/137/44
f 163/151/164 169/144/170 271/138/271 273/143/273
f 272/136/272 274/141/274 273/143/273 271/138/271
f 274/141/274 272/136/272 43/137/44 49/142/50
f 157/157/158 163/151/164 273/143/273 275/150/275
f 274/141/274 276/148/276 275/150/275 273/143/273
f 276/148/276 274/141/274 49/142/50 55/149/56
f 151/165/152 157/157/158 275/150/275 277/156/277
f 275/150/275 276/148/276 278/154/278 277/156/277
f 278/154/278 276/148/276 55/149/56 61/155/62
f 145/171/146 151/165/152 277/156/277 279/164/279
f 280/162/280 278/154/278 61/155/62 67/163/68
f 139/179/140 145/171/146 279/164/279 281/170/281
f 282/168/282 280/162/280 67/163/68 73/169/74
f 133/184/134 139/179/140 281/170/281 283/178/283
f 284/176/284 282/168/282 73/169/74 79/177/80
f 127/189/128 133/184/134 283/178/283 285/183/285
f 286/181/286 284/176/284 79/177/80 85/182/86
f 121/195/122 127/189/128 285/183/285 287/188/287
f 288/186/288 286/181/286 85/182/86 91/187/92
f 109/194/112 115/199/111 121/195/122 287/188/287
f 97/192/98 103/193/104 288/186/288 91/187/92
