# This file uses centimeters as units for non-parametric coordinates.

mtllib left_wrist_link.mtl
v -0.023028 -0.003593 -0.023028
v -0.013922 -0.003593 -0.028793
v -0.000000 -0.003593 -0.031645
v 0.013833 -0.003593 -0.028542
v 0.023028 -0.003593 -0.023028
v -0.029006 -0.003593 -0.013901
v -0.000166 -0.003593 -0.000909
v 0.029006 -0.003593 -0.013901
v -0.031645 -0.003593 0.000000
v 0.031645 -0.003593 0.000000
v -0.029006 -0.003593 0.013901
v 0.029006 -0.003593 0.013901
v -0.023028 -0.003593 0.023028
v -0.013998 -0.003593 0.028547
v -0.000000 -0.003593 0.031645
v 0.013901 -0.003593 0.029006
v 0.023028 -0.003593 0.023028
v -0.023204 0.009352 0.022701
v -0.014574 0.007501 0.028351
v 0.000016 0.007263 0.031369
v 0.014568 0.007499 0.028357
v 0.023185 0.009352 0.022718
v -0.026872 0.021513 0.016554
v -0.019728 0.014523 0.020805
v -0.000000 0.014487 0.020886
v 0.019729 0.014522 0.020807
v 0.026869 0.021520 0.016554
v -0.026846 0.035584 0.015967
v -0.021855 0.035574 0.015968
v 0.021855 0.035574 0.015968
v 0.026846 0.035584 0.015967
v -0.026797 0.041515 0.014589
v -0.021855 0.041510 0.014591
v -0.021675 0.041468 0.014498
v 0.021855 0.041510 0.014591
v 0.026797 0.041500 0.014596
v -0.027067 0.046429 0.011014
v -0.021675 0.046425 0.011022
v -0.021572 0.046296 0.010897
v 0.021675 0.046425 0.011022
v 0.027067 0.046420 0.011024
v -0.028663 0.049450 -0.000005
v -0.021550 0.050500 -0.000000
v 0.021550 0.050500 -0.000000
v 0.028663 0.049450 0.000005
v -0.027067 0.046420 -0.011024
v -0.021675 0.046425 -0.011022
v -0.021572 0.046296 -0.010897
v 0.021675 0.046425 -0.011022
v 0.027067 0.046429 -0.011015
v -0.026797 0.041500 -0.014596
v -0.021855 0.041510 -0.014591
v -0.021675 0.041468 -0.014498
v 0.021855 0.041510 -0.014591
v 0.026797 0.041515 -0.014589
v -0.026846 0.035584 -0.015967
v -0.021855 0.035574 -0.015968
v 0.021855 0.035574 -0.015968
v 0.026846 0.035584 -0.015967
v -0.026869 0.021520 -0.016554
v -0.019950 0.013660 -0.020145
v 0.000000 0.013624 -0.020225
v 0.019949 0.013661 -0.020144
v 0.026872 0.021513 -0.016554
v -0.023185 0.009352 -0.022718
v -0.014568 0.007499 -0.028357
v -0.000016 0.007263 -0.031369
v 0.014574 0.007501 -0.028351
v 0.023206 0.009353 -0.022700
v 0.028702 0.036647 -0.014185
v 0.028947 0.023348 -0.014629
v 0.029149 0.009559 -0.014327
v 0.032039 0.037026 0.000000
v 0.032435 0.023349 0.000000
v 0.032519 0.009525 -0.000000
v 0.028702 0.036648 0.014185
v 0.028947 0.023347 0.014629
v 0.029147 0.009558 0.014330
v -0.028702 0.036648 -0.014185
v -0.028947 0.023347 -0.014629
v -0.029147 0.009558 -0.014330
v -0.032039 0.037027 -0.000000
v -0.032435 0.023349 0.000000
v -0.032519 0.009525 -0.000000
v -0.028702 0.036647 0.014185
v -0.028947 0.023348 0.014629
v -0.029149 0.009559 0.014328
vt 0.753929 0.026024
vt 0.753824 0.025913
vt 0.757217 0.016226
vt 0.749962 0.029198
vt 0.749928 0.029114
vt 0.582938 0.091273
vt 0.579545 0.081585
vt 0.579650 0.081475
vt 0.575649 0.078385
vt 0.575683 0.078301
vt 0.368203 0.685449
vt 0.375546 0.688070
vt 0.377814 0.697183
vt 0.368488 0.697179
vt 0.367405 0.683975
vt 0.371857 0.685115
vt 0.375539 0.706295
vt 0.368203 0.708909
vt 0.358220 0.685082
vt 0.358221 0.697179
vt 0.356842 0.683490
vt 0.371846 0.709248
vt 0.367405 0.710382
vt 0.358219 0.709276
vt 0.347868 0.685331
vt 0.347843 0.697179
vt 0.347714 0.678407
vt 0.356848 0.710868
vt 0.347868 0.709028
vt 0.337996 0.685684
vt 0.337996 0.697179
vt 0.337996 0.678136
vt 0.347713 0.715965
vt 0.337996 0.708674
vt 0.346324 0.673735
vt 0.337996 0.673577
vt 0.337996 0.716221
vt 0.337996 0.721164
vt 0.346322 0.720627
vt 0.255772 0.959264
vt 0.263107 0.956650
vt 0.262823 0.968380
vt 0.253497 0.968376
vt 0.259465 0.956311
vt 0.263905 0.955177
vt 0.273091 0.956283
vt 0.273090 0.968380
vt 0.263108 0.980109
vt 0.255764 0.977487
vt 0.274462 0.954691
vt 0.283442 0.956530
vt 0.283467 0.968380
vt 0.273090 0.980476
vt 0.263905 0.981582
vt 0.259453 0.980443
vt 0.283596 0.949594
vt 0.293313 0.956885
vt 0.293313 0.968380
vt 0.283441 0.980228
vt 0.274468 0.982068
vt 0.293313 0.949338
vt 0.293313 0.979874
vt 0.283596 0.987151
vt 0.284988 0.944932
vt 0.293313 0.944571
vt 0.293313 0.987421
vt 0.293313 0.991985
vt 0.284986 0.991822
vt 0.955894 0.669303
vt 0.955894 0.657398
vt 0.964276 0.657384
vt 0.964460 0.669793
vt 0.955894 0.645575
vt 0.964458 0.645007
vt 0.969854 0.657398
vt 0.969881 0.674176
vt 0.969881 0.640618
vt 0.965889 0.677133
vt 0.975278 0.680253
vt 0.965889 0.637679
vt 0.975284 0.634546
vt 0.986135 0.675985
vt 0.986142 0.680230
vt 0.986142 0.634565
vt 0.986135 0.638810
vt 0.990718 0.675985
vt 0.990722 0.680189
vt 0.990710 0.634607
vt 0.990718 0.638810
vt 0.994513 0.675833
vt 0.994516 0.680418
vt 0.994509 0.634377
vt 0.994513 0.638963
vt 0.621769 0.990673
vt 0.621761 0.986399
vt 0.626422 0.986399
vt 0.626414 0.990716
vt 0.617906 0.990907
vt 0.617902 0.986244
vt 0.643628 0.984751
vt 0.637456 0.990736
vt 0.648466 0.980097
vt 0.647011 0.987549
vt 0.643656 0.967497
vt 0.648651 0.967511
vt 0.643627 0.950243
vt 0.648464 0.954891
vt 0.657174 0.967497
vt 0.657174 0.979538
vt 0.637462 0.944254
vt 0.647009 0.947425
vt 0.657174 0.955532
vt 0.626422 0.948594
vt 0.626414 0.944277
vt 0.621761 0.948594
vt 0.621757 0.944320
vt 0.617902 0.948750
vt 0.617899 0.944086
vt 0.212025 0.979871
vt 0.207971 0.972818
vt 0.227576 0.962165
vt 0.218442 0.984501
vt 0.205966 0.962036
vt 0.228215 0.986545
vt 0.208148 0.951323
vt 0.237988 0.984501
vt 0.212025 0.944201
vt 0.218442 0.939571
vt 0.248286 0.972878
vt 0.244405 0.979871
vt 0.228215 0.937527
vt 0.250464 0.962036
vt 0.237988 0.939571
vt 0.248608 0.951270
vt 0.244405 0.944201
vt 0.001155 0.060325
vt 0.005056 0.060319
vt 0.005146 0.069103
vt 0.000000 0.069107
vt 0.005056 0.077887
vt 0.001155 0.077889
vt 0.184932 0.017912
vt 0.188833 0.017910
vt 0.189988 0.026692
vt 0.184841 0.026696
vt 0.188833 0.035474
vt 0.184932 0.035480
vn 0.000000 -1.000000 -0.000001
vn -0.000000 -1.000000 -0.000000
vn 0.000000 -1.000000 -0.000000
vn 0.000000 -1.000000 -0.000001
vn -0.000000 -1.000000 -0.000000
vn 0.000000 -1.000000 -0.000000
vn 0.000000 -1.000000 -0.000000
vn 0.000000 -1.000000 -0.000000
vn 0.000000 -1.000000 0.000000
vn -0.000000 -1.000000 0.000000
vn -0.000000 -1.000000 0.000000
vn 0.000000 -1.000000 0.000000
vn -0.000000 -1.000000 -0.000000
vn -0.000001 -1.000000 -0.000000
vn -0.000000 -1.000000 0.000000
vn 0.000000 -1.000000 -0.000000
vn 0.000000 -1.000000 -0.000000
vn -0.699731 -0.005638 0.714384
vn -0.351493 0.009950 0.936138
vn -0.366296 0.047060 0.929308
vn -0.643113 0.121387 0.756089
vn -0.008384 0.025975 0.999627
vn -0.008055 0.025991 0.999630
vn 0.348419 0.027096 0.936947
vn 0.369491 0.062164 0.927153
vn 0.703917 0.000979 0.710281
vn 0.645440 0.124750 0.753555
vn -0.261178 0.387767 0.883981
vn -0.528611 0.112040 0.841437
vn -0.050513 0.776524 0.628060
vn 0.000020 0.777552 0.628819
vn -0.000070 0.777551 0.628819
vn -0.050513 0.776524 0.628060
vn 0.050499 0.776595 0.627973
vn 0.050499 0.776595 0.627973
vn 0.528761 0.111911 0.841361
vn 0.260473 0.388379 0.883920
vn -0.206088 0.152861 0.966520
vn -0.362926 0.136471 0.921770
vn 0.362950 0.136357 0.921778
vn 0.206167 0.152818 0.966510
vn -0.000134 0.420283 0.907393
vn -0.000134 0.420927 0.907095
vn 0.000032 0.420349 0.907363
vn 0.000032 0.420476 0.907304
vn -0.058396 0.876610 0.477645
vn -0.059841 0.882150 0.467150
vn 0.700561 0.409677 0.584276
vn 0.700561 0.409677 0.584276
vn 0.796052 0.462528 0.390345
vn 0.784876 0.456409 0.419118
vn 0.059991 0.881765 0.467858
vn 0.058640 0.876589 0.477654
vn -0.083749 0.996487 -0.000101
vn -0.083749 0.996487 -0.000402
vn 0.849752 0.491265 0.191260
vn 0.083748 0.996487 0.000402
vn 0.083748 0.996487 0.000101
vn -0.058636 0.876589 -0.477653
vn -0.059987 0.881765 -0.467858
vn 0.849712 0.491326 -0.191283
vn 0.796009 0.462570 -0.390383
vn 0.784837 0.456451 -0.419146
vn 0.059837 0.882150 -0.467152
vn 0.058392 0.876610 -0.477645
vn -0.000026 0.420476 -0.907304
vn -0.000026 0.420348 -0.907363
vn 0.700523 0.409701 -0.584306
vn 0.700523 0.409701 -0.584306
vn 0.000133 0.420926 -0.907095
vn 0.000132 0.420283 -0.907393
vn -0.170324 0.140809 -0.975276
vn -0.339438 0.128155 -0.931857
vn 0.339411 0.128266 -0.931852
vn 0.170259 0.140852 -0.975281
vn -0.152666 0.452859 -0.878414
vn -0.504047 0.106265 -0.857114
vn 0.503888 0.106406 -0.857190
vn 0.153738 0.452123 -0.878606
vn -0.361894 0.055089 -0.930590
vn -0.633942 0.139178 -0.760754
vn -0.042837 0.833373 -0.551048
vn 0.000052 0.834117 -0.551588
vn -0.000024 0.834117 -0.551588
vn -0.042837 0.833373 -0.551048
vn 0.042835 0.833328 -0.551116
vn 0.042835 0.833328 -0.551116
vn 0.631888 0.136125 -0.763012
vn 0.361100 0.044656 -0.931457
vn -0.349770 0.018593 -0.936651
vn -0.701817 -0.002326 -0.712353
vn 0.004399 0.020208 -0.999786
vn 0.004755 0.020197 -0.999785
vn 0.350217 0.007280 -0.936640
vn 0.697857 -0.007476 -0.716198
vn 0.769192 0.252399 -0.587060
vn 0.942699 0.245003 -0.226478
vn 0.949571 0.112726 -0.292587
vn 0.943832 0.021133 -0.329750
vn 0.934311 -0.008304 -0.356363
vn 0.931931 -0.029833 -0.361406
vn 0.968150 0.250372 -0.000010
vn 0.992559 0.121765 -0.000021
vn 0.999846 0.017537 0.000026
vn 0.999869 -0.016192 0.000042
vn 0.999111 -0.042145 0.000041
vn 0.942700 0.244939 0.226542
vn 0.949565 0.112682 0.292625
vn 0.943758 0.021106 0.329962
vn 0.934179 -0.008215 0.356711
vn 0.931854 -0.029663 0.361620
vn 0.768874 0.252302 0.587516
vn -0.768880 0.252299 -0.587510
vn -0.949565 0.112682 -0.292625
vn -0.942700 0.244938 -0.226542
vn -0.943758 0.021106 -0.329961
vn -0.934178 -0.008215 -0.356712
vn -0.931854 -0.029663 -0.361620
vn -0.992559 0.121766 0.000021
vn -0.968150 0.250372 0.000010
vn -0.999846 0.017535 -0.000019
vn -0.999869 -0.016192 -0.000031
vn -0.999112 -0.042140 -0.000031
vn -0.949571 0.112726 0.292587
vn -0.942699 0.245004 0.226479
vn -0.943829 0.021129 0.329759
vn -0.934292 -0.008292 0.356412
vn -0.931925 -0.029811 0.361424
vn -0.769196 0.252397 0.587055
s 1
usemtl M_sprout_SG
f 1/119/1 2/120/2 7/121/3 6/122/4
f 2/120/2 3/123/5 7/121/3
f 3/123/5 4/125/6 7/121/3
f 4/125/6 5/127/7 8/128/8 7/121/3
f 6/122/4 7/121/3 9/124/9
f 7/121/3 8/128/8 10/131/10
f 9/124/9 7/121/3 11/126/11
f 7/121/3 10/131/10 12/133/12
f 11/126/11 7/121/3 14/129/13 13/130/14
f 7/121/3 15/132/15 14/129/13
f 7/121/3 16/134/16 15/132/15
f 7/121/3 12/133/12 17/135/17 16/134/16
s 2
f 13/66/18 14/67/19 19/68/20 18/63/21
f 14/69/19 15/70/22 20/71/23 19/72/20
f 15/70/22 16/73/24 21/74/25 20/71/23
f 16/38/24 17/37/26 22/33/27 21/39/25
f 18/78/21 19/72/20 24/76/28 23/79/29
s 3
f 19/72/30 20/71/31 25/75/32 24/76/33
f 20/71/31 21/74/34 26/77/35 25/75/32
s 2
f 21/74/25 22/80/27 27/81/36 26/77/37
f 23/79/29 24/76/28 29/82/38 28/83/39
f 26/77/37 27/81/36 31/84/40 30/85/41
f 28/83/39 29/82/38 33/86/42 32/87/43
f 30/85/41 31/84/40 36/88/44 35/89/45
f 32/87/43 33/86/42 38/90/46 37/91/47
s 4
f 33/4/48 34/5/49 39/2/50 38/1/51
s 2
f 35/89/45 36/88/44 41/92/52 40/93/53
f 37/136/47 38/137/46 43/138/54 42/139/55
s 4
f 38/1/51 39/2/50 43/3/56
s 2
f 40/142/53 41/143/52 45/144/57 44/145/58
f 42/139/55 43/138/54 47/140/59 46/141/60
s 5
f 43/6/61 48/7/62 47/8/63
s 2
f 44/145/58 45/144/57 50/146/64 49/147/65
f 46/98/60 47/99/59 52/95/66 51/94/67
s 5
f 47/8/63 48/7/62 53/9/68 52/10/69
s 2
f 49/117/65 50/118/64 55/116/70 54/115/71
f 51/94/67 52/95/66 57/96/72 56/97/73
f 54/115/71 55/116/70 59/114/74 58/113/75
f 56/97/73 57/96/72 61/100/76 60/101/77
f 58/113/75 59/114/74 64/110/78 63/106/79
f 60/101/77 61/100/76 66/102/80 65/103/81
s 6
f 61/100/82 62/104/83 67/105/84 66/102/85
f 62/104/83 63/106/86 68/107/87 67/105/84
s 2
f 63/106/79 64/110/78 69/111/88 68/107/89
f 65/56/81 66/64/80 2/65/90 1/61/91
f 66/102/80 67/105/92 3/108/93 2/109/90
f 67/105/92 68/107/89 4/112/94 3/108/93
f 68/35/89 69/27/88 5/32/95 4/36/94
f 59/15/74 55/16/96 50/12/97 70/11/98
f 64/21/78 59/15/74 70/11/98 71/19/99
f 69/27/88 64/21/78 71/19/99 72/25/100
f 5/32/95 69/27/88 72/25/100 8/30/101
f 70/11/98 50/12/97 45/13/102 73/14/103
f 71/19/99 70/11/98 73/14/103 74/20/104
f 72/25/100 71/19/99 74/20/104 75/26/105
f 8/30/101 72/25/100 75/26/105 10/31/106
f 73/14/103 45/13/102 41/17/107 76/18/108
f 74/20/104 73/14/103 76/18/108 77/24/109
f 75/26/105 74/20/104 77/24/109 78/29/110
f 10/31/106 75/26/105 78/29/110 12/34/111
f 76/18/108 41/17/107 36/22/112 31/23/40
f 77/24/109 76/18/108 31/23/40 27/28/36
f 78/29/110 77/24/109 27/28/36 22/33/27
f 12/34/111 78/29/110 22/33/27 17/37/26
f 51/44/113 56/45/73 79/41/114 46/40/115
f 56/45/73 60/50/77 80/46/116 79/41/114
f 60/50/77 65/56/81 81/51/117 80/46/116
f 65/56/81 1/61/91 6/57/118 81/51/117
f 46/40/115 79/41/114 82/42/119 42/43/120
f 79/41/114 80/46/116 83/47/121 82/42/119
f 80/46/116 81/51/117 84/52/122 83/47/121
f 81/51/117 6/57/118 9/58/123 84/52/122
f 42/43/120 82/42/119 85/48/124 37/49/125
f 82/42/119 83/47/121 86/53/126 85/48/124
f 83/47/121 84/52/122 87/59/127 86/53/126
f 84/52/122 9/58/123 11/62/128 87/59/127
f 37/49/125 85/48/124 28/54/39 32/55/129
f 85/48/124 86/53/126 23/60/29 28/54/39
f 86/53/126 87/59/127 18/63/21 23/60/29
f 87/59/127 11/62/128 13/66/18 18/63/21
