# This file uses centimeters as units for non-parametric coordinates.

mtllib left_gripper_upper_link.mtl
v -0.013950 -0.013081 -0.013081
v 0.000000 -0.014796 -0.015193
v 0.043231 -0.014796 -0.015193
v 0.056950 -0.013081 -0.013081
v -0.013950 -0.017594 -0.003988
v 0.000000 -0.020827 -0.003665
v 0.043231 -0.020783 -0.003645
v 0.056950 -0.017594 -0.003988
v -0.013950 -0.016338 0.008408
v 0.000000 -0.018991 0.008844
v 0.043231 -0.019610 0.009069
v 0.056950 -0.016338 0.008408
v -0.006289 -0.013359 0.015893
v 0.000000 -0.013117 0.016801
v 0.043231 -0.013117 0.016801
v 0.056950 -0.011258 0.013599
v -0.011250 -0.002558 0.018248
v 0.000000 -0.001693 0.021563
v 0.043231 -0.001693 0.021563
v 0.056950 -0.002558 0.017568
v -0.006531 0.014887 0.023450
v 0.000498 0.016800 0.022056
v 0.021154 0.018216 0.022142
v 0.041842 0.016883 0.022067
v 0.049631 0.014887 0.023450
v -0.006673 0.032538 0.025183
v 0.003743 0.032461 0.026899
v 0.021502 0.032512 0.027088
v 0.039265 0.032487 0.026904
v 0.049776 0.032539 0.025174
v -0.005842 0.045168 0.025892
v 0.003816 0.049910 0.026356
v 0.021504 0.050130 0.026623
v 0.039184 0.049911 0.026360
v 0.048928 0.045199 0.025876
v -0.004349 0.066257 0.020902
v 0.004013 0.066698 0.023125
v 0.020095 0.067257 0.023811
v 0.038987 0.066698 0.023130
v 0.047415 0.066269 0.020951
v -0.003051 0.080074 0.017316
v 0.004186 0.079660 0.018003
v 0.020084 0.079176 0.019031
v 0.038812 0.079718 0.017973
v 0.046151 0.080074 0.017316
v -0.002903 0.085695 0.012626
v 0.004479 0.085830 0.012948
v 0.020170 0.086111 0.013353
v 0.038521 0.085832 0.012950
v 0.046003 0.085695 0.012626
v -0.002861 0.091940 0.003540
v 0.004140 0.092409 0.003551
v 0.020052 0.092345 0.003989
v 0.038860 0.092412 0.003553
v 0.045961 0.091941 0.003538
v -0.002715 0.098867 -0.007522
v 0.003775 0.103779 -0.014403
v 0.020232 0.103744 -0.014371
v 0.039225 0.103779 -0.014403
v 0.045796 0.098903 -0.007504
v -0.001720 0.100588 -0.014044
v 0.004160 0.102624 -0.017087
v 0.021500 0.102831 -0.017156
v 0.038843 0.102639 -0.017092
v 0.044820 0.100588 -0.014044
v -0.002406 0.088323 -0.010943
v 0.003775 0.088328 -0.012412
v 0.021500 0.088328 -0.012412
v 0.039225 0.088328 -0.012412
v 0.045460 0.088311 -0.010992
v -0.002413 0.073947 -0.006069
v 0.003775 0.073923 -0.007277
v 0.021500 0.073923 -0.007277
v 0.039225 0.073923 -0.007277
v 0.045463 0.073932 -0.006102
v -0.002021 0.053136 0.002375
v 0.005898 0.053172 0.001873
v 0.021500 0.053172 0.001873
v 0.037115 0.053172 0.001873
v 0.045121 0.053136 0.002375
v -0.003182 0.038790 -0.002982
v 0.003878 0.043145 -0.003718
v 0.021499 0.043305 -0.003759
v 0.039123 0.043159 -0.003722
v 0.046282 0.038790 -0.002983
v -0.013950 0.008956 -0.016343
v -0.001931 0.027906 -0.002516
v 0.021499 0.029278 -0.002516
v 0.044988 0.027881 -0.002516
v 0.056950 0.008956 -0.016343
v -0.013950 -0.004972 -0.017942
v 0.000000 -0.004373 -0.021295
v 0.043231 -0.004371 -0.021295
v 0.056950 -0.004972 -0.017942
v 0.048108 0.085932 -0.003584
v 0.047987 0.070168 -0.000888
v 0.049187 0.053303 0.007409
v 0.049837 0.029575 -0.001886
v 0.056950 0.014556 -0.005156
v 0.056950 -0.003444 -0.005115
v 0.048736 0.082989 0.009658
v 0.050306 0.067916 0.011529
v 0.049770 0.051365 0.011645
v 0.051658 0.038237 0.010442
v 0.056564 0.013779 0.010539
v 0.056950 -0.003444 0.011066
v -0.005248 0.085792 -0.003066
v -0.004887 0.070165 -0.000886
v -0.006086 0.053303 0.007410
v -0.006737 0.029575 -0.001886
v -0.013950 0.014556 -0.005156
v -0.013950 -0.003444 -0.005115
v -0.005636 0.082989 0.009658
v -0.007207 0.067906 0.011459
v -0.006670 0.051365 0.011642
v -0.008559 0.038234 0.010431
v -0.013950 0.013779 0.010539
v -0.013950 -0.003444 0.011066
v 0.043231 0.004695 -0.021295
v 0.000000 0.004695 -0.021295
v -0.008337 0.013842 -0.015155
v 0.000000 0.013842 -0.015155
v 0.050649 0.013842 -0.015155
v 0.043231 0.013842 -0.015155
vt 0.929794 0.685656
vt 0.927341 0.676839
vt 0.932597 0.678050
vt 0.935748 0.687365
vt 0.941472 0.683049
vt 0.946390 0.689478
vt 0.933724 0.695982
vt 0.937914 0.698685
vt 0.948776 0.687535
vt 0.952545 0.691571
vt 0.947894 0.700303
vt 0.940537 0.710917
vt 0.944583 0.710797
vt 0.955467 0.701486
vt 0.947988 0.712189
vt 0.936231 0.721220
vt 0.937112 0.727838
vt 0.959425 0.716618
vt 0.947021 0.721617
vt 0.958861 0.725709
vt 0.934484 0.738624
vt 0.947098 0.739182
vt 0.957476 0.738386
vt 0.934517 0.751551
vt 0.947522 0.751551
vt 0.952748 0.750914
vt 0.924207 0.752648
vt 0.925493 0.742645
vt 0.935423 0.761713
vt 0.945386 0.760810
vt 0.926447 0.739137
vt 0.928114 0.758472
vt 0.949558 0.757163
vt 0.557715 0.086832
vt 0.560254 0.077862
vt 0.566702 0.076010
vt 0.563054 0.085574
vt 0.564243 0.067347
vt 0.568486 0.064581
vt 0.577116 0.073960
vt 0.572108 0.080507
vt 0.557421 0.089166
vt 0.555225 0.088321
vt 0.571155 0.052126
vt 0.575276 0.052248
vt 0.578591 0.062928
vt 0.583384 0.071828
vt 0.579545 0.075940
vt 0.566770 0.041633
vt 0.567667 0.034893
vt 0.578740 0.050831
vt 0.586320 0.061722
vt 0.577749 0.041226
vt 0.590404 0.046298
vt 0.564991 0.023908
vt 0.577837 0.023340
vt 0.589825 0.037061
vt 0.556806 0.023386
vt 0.567151 0.033673
vt 0.565024 0.010743
vt 0.578269 0.010743
vt 0.588406 0.024151
vt 0.555833 0.019813
vt 0.554524 0.009626
vt 0.565947 0.000394
vt 0.576093 0.001313
vt 0.584148 0.011391
vt 0.558503 0.003695
vt 0.582220 0.003491
vt 0.793446 0.747940
vt 0.798822 0.748125
vt 0.798822 0.756852
vt 0.789205 0.756190
vt 0.786897 0.745665
vt 0.798822 0.743638
vt 0.799248 0.770977
vt 0.793239 0.769516
vt 0.802021 0.782940
vt 0.793118 0.782999
vt 0.816905 0.772058
vt 0.817203 0.782978
vt 0.802084 0.796268
vt 0.793828 0.792646
vt 0.834591 0.771041
vt 0.832388 0.782960
vt 0.817204 0.796436
vt 0.802252 0.809092
vt 0.795104 0.808755
vt 0.841249 0.769516
vt 0.841374 0.783000
vt 0.832318 0.796269
vt 0.816000 0.809519
vt 0.802400 0.818993
vt 0.796214 0.819309
vt 0.835779 0.756852
vt 0.847506 0.756190
vt 0.840648 0.792669
vt 0.832150 0.809092
vt 0.815991 0.818623
vt 0.802651 0.823706
vt 0.796340 0.823603
vt 0.835779 0.748125
vt 0.847506 0.749545
vt 0.839355 0.808764
vt 0.832001 0.819037
vt 0.816064 0.823921
vt 0.802361 0.828731
vt 0.796376 0.828373
vt 0.835779 0.743165
vt 0.847506 0.745665
vt 0.838274 0.819309
vt 0.831752 0.823707
vt 0.815964 0.828682
vt 0.802049 0.837416
vt 0.796501 0.833664
vt 0.838148 0.823603
vt 0.832042 0.828733
vt 0.816117 0.837389
vt 0.838112 0.828374
vt 0.832354 0.837416
vt 0.837970 0.833691
vt 0.849083 0.320419
vt 0.853882 0.318934
vt 0.853568 0.329359
vt 0.848523 0.329362
vt 0.868033 0.318783
vt 0.868033 0.329359
vt 0.853568 0.339863
vt 0.848518 0.339846
vt 0.882186 0.318923
vt 0.882498 0.329359
vt 0.868033 0.339863
vt 0.855300 0.354995
vt 0.848837 0.355021
vt 0.887064 0.320419
vt 0.887587 0.329371
vt 0.882498 0.339863
vt 0.868033 0.354995
vt 0.853652 0.362306
vt 0.847890 0.365482
vt 0.887589 0.339856
vt 0.880776 0.354995
vt 0.868032 0.362189
vt 0.848911 0.373419
vt 0.844990 0.372202
vt 0.887310 0.355021
vt 0.882415 0.362297
vt 0.868032 0.372418
vt 0.888257 0.365482
vt 0.887201 0.373437
vt 0.891158 0.372202
vt 0.896963 0.383154
vt 0.891821 0.383674
vt 0.885768 0.383674
vt 0.896963 0.387237
vt 0.885768 0.390345
vt 0.896963 0.397394
vt 0.885768 0.396956
vt 0.896963 0.403307
vt 0.885768 0.404557
vt 0.332715 0.437236
vt 0.344392 0.440423
vt 0.344392 0.447205
vt 0.332715 0.447654
vt 0.337413 0.433582
vt 0.344392 0.433582
vt 0.344392 0.455001
vt 0.332715 0.453719
vt 0.342776 0.423063
vt 0.987581 0.334579
vt 0.998906 0.333048
vt 0.998906 0.341410
vt 0.987581 0.341176
vt 0.998906 0.350484
vt 0.987581 0.350167
vt 0.718241 0.432886
vt 0.729381 0.434418
vt 0.729381 0.441016
vt 0.718241 0.441265
vt 0.729381 0.450010
vt 0.718241 0.450490
vt 0.919282 0.095566
vt 0.919256 0.083551
vt 0.921531 0.082625
vt 0.921475 0.095285
vt 0.919282 0.069683
vt 0.921479 0.069963
vt 0.913645 0.064886
vt 0.918989 0.065598
vn -0.632514 -0.572295 -0.521923
vn -0.192045 -0.719055 -0.667892
vn -0.205612 -0.967559 -0.146810
vn -0.710590 -0.693034 -0.121517
vn 0.194357 -0.719316 -0.666941
vn 0.638387 -0.569315 -0.518018
vn 0.717770 -0.684311 -0.128551
vn 0.218794 -0.962970 -0.157539
vn -0.188480 -0.946019 0.263672
vn -0.791156 -0.566220 0.231229
vn 0.743525 -0.625139 0.237427
vn 0.240587 -0.913906 0.326945
vn -0.181182 -0.573803 0.798701
vn -0.369204 -0.548969 0.749881
vn 0.513305 -0.486195 0.707200
vn 0.243751 -0.543952 0.802933
vn -0.124365 -0.214701 0.968730
vn -0.652908 -0.121610 0.747611
vn 0.518193 -0.192399 0.833342
vn 0.160389 -0.247346 0.955560
vn -0.016319 -0.234944 0.971872
vn -0.675845 -0.014771 0.736896
vn 0.622766 -0.020841 0.782131
vn 0.022776 -0.234476 0.971855
vn -0.019887 -0.133067 0.990907
vn -0.766597 0.036117 0.641112
vn 0.000324 -0.311204 0.950343
vn 0.000011 -0.140336 0.990104
vn 0.020283 -0.131977 0.991045
vn 0.765534 0.028574 0.642761
vn -0.076618 0.116237 0.990262
vn -0.739378 0.098357 0.666068
vn 0.000640 0.102116 0.994772
vn 0.073963 0.118100 0.990243
vn 0.736718 0.098560 0.668979
vn -0.095250 0.256175 0.961926
vn -0.744166 0.183947 0.642168
vn -0.000915 0.262929 0.964815
vn 0.087205 0.260182 0.961614
vn 0.739387 0.185002 0.647365
vn -0.073644 0.460999 0.884339
vn -0.630636 0.345972 0.694695
vn -0.000158 0.472304 0.881436
vn 0.064901 0.463076 0.883939
vn 0.625845 0.347600 0.698207
vn -0.031208 0.751201 0.659335
vn -0.368871 0.703579 0.607380
vn -0.000027 0.751037 0.660261
vn 0.027649 0.751648 0.658985
vn 0.366370 0.704567 0.607749
vn -0.023294 0.838869 0.543835
vn -0.617683 0.678542 0.397554
vn -0.000117 0.839855 0.542811
vn 0.020158 0.838965 0.543812
vn 0.628074 0.673273 0.390163
vn -0.054418 0.903766 0.424553
vn -0.669315 0.690106 0.275265
vn -0.000195 0.895532 0.444997
vn 0.047735 0.900313 0.432618
vn 0.660032 0.695146 0.284833
vn -0.153661 0.950517 -0.270011
vn -0.683805 0.061547 -0.727065
vn 0.000998 0.935896 -0.352274
vn 0.145227 0.951919 -0.269740
vn 0.677227 0.062969 -0.733075
vn -0.055863 -0.303040 -0.951339
vn -0.064642 -0.316853 -0.946269
vn -0.679660 -0.173900 -0.712616
vn -0.000001 -0.310866 -0.950454
vn -0.000000 -0.323460 -0.946242
vn 0.055253 -0.302791 -0.951454
vn 0.063151 -0.316770 -0.946398
vn 0.668522 -0.179158 -0.721790
vn -0.042853 -0.372896 -0.926883
vn -0.509773 -0.301951 -0.805578
vn 0.000000 -0.375422 -0.926854
vn 0.041508 -0.373049 -0.926883
vn 0.497397 -0.305395 -0.811992
vn -0.045751 -0.103839 -0.993541
vn -0.524598 -0.028777 -0.850864
vn -0.000057 -0.115133 -0.993350
vn 0.045117 -0.103710 -0.993584
vn 0.521900 -0.029127 -0.852509
vn -0.043867 0.160201 -0.986109
vn -0.523064 0.216346 -0.824378
vn -0.000106 0.146929 -0.989147
vn 0.043595 0.160302 -0.986105
vn 0.520281 0.216117 -0.826197
vn -0.000067 -0.083685 -0.996492
vn -0.022676 -0.076743 -0.996793
vn 0.022662 -0.076755 -0.996792
vn 0.856405 0.340692 -0.387942
vn -0.836517 0.170674 -0.520682
vn -0.276608 0.066661 -0.958668
vn -0.246775 -0.194114 -0.949432
vn -0.722755 -0.162963 -0.671616
vn 0.448070 0.592455 -0.669500
vn 0.323298 0.629040 -0.706956
vn 0.000003 0.669080 -0.743190
vn 0.250719 -0.193581 -0.948507
vn 0.728312 -0.161757 -0.665880
vn 0.986272 0.071240 -0.148972
vn 0.946835 -0.081145 -0.311318
vn 0.943276 0.032871 -0.330379
vn 0.842680 0.174380 -0.509394
vn 0.959077 0.228434 -0.167302
vn 0.999982 0.004008 0.004447
vn 0.985946 0.148092 0.077326
vn 0.996591 0.052984 0.063243
vn 0.997368 0.067543 0.026363
vn 0.987411 0.148588 0.054229
vn 0.983688 0.143677 0.108236
vn 0.999955 0.007564 0.005790
vn -0.986828 0.074415 -0.143639
vn -0.946025 -0.085452 -0.312626
vn -0.943125 0.032974 -0.330798
vn -0.852995 0.348469 -0.388548
vn -1.000000 0.000000 0.000000
vn -0.958760 0.226993 -0.171034
vn -0.985130 0.149120 0.085332
vn -0.996602 0.051583 0.064207
vn -0.997400 0.067354 0.025617
vn -0.986373 0.154864 0.055542
vn -0.982424 0.126421 0.137334
vn -0.974547 -0.036027 0.221270
vn 0.280912 0.066578 -0.957421
vn -0.200423 0.565079 -0.800322
vn -0.098349 0.491275 -0.865434
vn -0.098349 0.491275 -0.865434
vn -0.318201 0.639527 -0.699823
vn -0.447034 0.606113 -0.657866
vn 0.000000 0.668427 -0.743777
vn 0.196612 0.574612 -0.794459
vn 0.101994 0.496080 -0.862266
vn 0.101994 0.496080 -0.862266
s 1
usemtl M_sprout_SG
f 1/170/1 2/171/2 6/172/3 5/173/4
f 3/176/5 4/177/6 8/178/7 7/179/8
f 5/173/4 6/172/3 10/174/9 9/175/10
f 7/179/8 8/178/7 12/180/11 11/181/12
f 9/74/10 10/75/9 14/71/13 13/70/14
f 11/109/12 12/110/11 16/103/15 15/102/16
f 13/70/14 14/71/13 18/72/17 17/73/18
f 15/102/16 16/103/15 20/96/19 19/95/20
f 17/73/18 18/72/17 22/76/21 21/77/22
f 19/95/20 20/96/19 25/89/23 24/84/24
f 21/77/22 22/76/21 27/78/25 26/79/26
f 22/76/21 23/80/27 28/81/28 27/78/25
f 23/80/27 24/84/24 29/85/29 28/81/28
f 24/84/24 25/89/23 30/90/30 29/85/29
f 26/79/26 27/78/25 32/82/31 31/83/32
f 27/78/25 28/81/28 33/86/33 32/82/31
f 28/81/28 29/85/29 34/91/34 33/86/33
f 29/85/29 30/90/30 35/97/35 34/91/34
f 31/83/32 32/82/31 37/87/36 36/88/37
f 32/82/31 33/86/33 38/92/38 37/87/36
f 33/86/33 34/91/34 39/98/39 38/92/38
f 34/91/34 35/97/35 40/104/40 39/98/39
f 36/88/37 37/87/36 42/93/41 41/94/42
f 37/87/36 38/92/38 43/99/43 42/93/41
f 38/92/38 39/98/39 44/105/44 43/99/43
f 39/98/39 40/104/40 45/111/45 44/105/44
f 41/94/42 42/93/41 47/100/46 46/101/47
f 42/93/41 43/99/43 48/106/48 47/100/46
f 43/99/43 44/105/44 49/112/49 48/106/48
f 44/105/44 45/111/45 50/116/50 49/112/49
f 46/101/47 47/100/46 52/107/51 51/108/52
f 47/100/46 48/106/48 53/113/53 52/107/51
f 48/106/48 49/112/49 54/117/54 53/113/53
f 49/112/49 50/116/50 55/119/55 54/117/54
f 51/108/52 52/107/51 57/114/56 56/115/57
f 52/107/51 53/113/53 58/118/58 57/114/56
f 53/113/53 54/117/54 59/120/59 58/118/58
f 54/117/54 55/119/55 60/121/60 59/120/59
f 56/37/57 57/42/56 62/43/61 61/34/62
f 57/182/56 58/183/58 63/184/63 62/185/61
f 58/183/58 59/186/59 64/187/64 63/184/63
f 59/186/59 60/188/60 65/189/65 64/187/64
f 61/122/62 62/123/66 67/124/67 66/125/68
f 62/123/66 63/126/69 68/127/70 67/124/67
f 63/126/69 64/130/71 69/131/72 68/127/70
f 64/130/71 65/135/65 70/136/73 69/131/72
f 66/125/68 67/124/67 72/128/74 71/129/75
f 67/124/67 68/127/70 73/132/76 72/128/74
f 68/127/70 69/131/72 74/137/77 73/132/76
f 69/131/72 70/136/73 75/141/78 74/137/77
f 71/129/75 72/128/74 77/133/79 76/134/80
f 72/128/74 73/132/76 78/138/81 77/133/79
f 73/132/76 74/137/77 79/142/82 78/138/81
f 74/137/77 75/141/78 80/146/83 79/142/82
f 76/134/80 77/133/79 82/139/84 81/140/85
f 77/133/79 78/138/81 83/143/86 82/139/84
f 78/138/81 79/142/82 84/147/87 83/143/86
f 79/142/82 80/146/83 85/149/88 84/147/87
f 82/139/84 83/143/86 88/148/89 87/144/90
f 83/143/86 84/147/87 89/150/91 88/148/89
f 98/151/92 89/150/91 84/147/87 85/149/88
f 86/161/93 120/162/94 92/163/95 91/164/96
f 89/150/97 123/153/98 124/154/99
f 91/164/96 92/163/95 2/167/2 1/168/1
f 93/158/100 94/157/101 4/159/6 3/160/5
f 70/1/73 65/2/65 60/3/60 95/4/102
f 75/7/78 70/1/73 95/4/102 96/8/103
f 80/12/83 75/7/78 96/8/103 97/13/104
f 85/16/88 80/12/83 97/13/104 98/17/92
f 94/27/101 90/28/105 99/21/106 100/24/107
f 4/32/6 94/27/101 100/24/107 8/29/7
f 95/4/102 60/3/60 55/5/55 101/6/108
f 96/8/103 95/4/102 101/6/108 102/11/109
f 97/13/104 96/8/103 102/11/109 103/15/110
f 98/17/92 97/13/104 103/15/110 104/19/111
f 99/21/106 98/17/92 104/19/111 105/22/112
f 100/24/107 99/21/106 105/22/112 106/25/113
f 8/29/7 100/24/107 106/25/113 12/30/11
f 101/6/108 55/5/55 50/9/50 45/10/45
f 102/11/109 101/6/108 45/10/45 40/14/40
f 103/15/110 102/11/109 40/14/40 35/18/35
f 104/19/111 103/15/110 35/18/35 30/20/30
f 105/22/112 104/19/111 30/20/30 25/23/23
f 20/26/19 105/22/112 25/23/23
f 12/30/11 106/25/113 20/26/19 16/33/15
f 61/34/62 66/35/68 107/36/114 56/37/57
f 66/35/68 71/38/75 108/39/115 107/36/114
f 71/38/75 76/44/80 109/45/116 108/39/115
f 76/44/80 81/49/85 110/50/117 109/45/116
f 87/144/90 110/145/117 81/140/85 82/139/84
f 86/63/93 91/64/96 112/60/118 111/55/119
f 91/64/96 1/68/1 5/65/4 112/60/118
f 56/37/57 107/36/114 113/40/120 51/41/52
f 107/36/114 108/39/115 114/46/121 113/40/120
f 108/39/115 109/45/116 115/51/122 114/46/121
f 109/45/116 110/50/117 116/53/123 115/51/122
f 110/50/117 111/55/119 117/56/124 116/53/123
f 111/55/119 112/60/118 118/61/125 117/56/124
f 112/60/118 5/65/4 9/66/10 118/61/125
f 51/41/52 113/40/120 41/47/42 46/48/47
f 113/40/120 114/46/121 36/52/37 41/47/42
f 114/46/121 115/51/122 31/54/32 36/52/37
f 115/51/122 116/53/123 26/57/26 31/54/32
f 116/53/123 117/56/124 21/62/22 26/57/26
f 117/56/124 118/61/125 17/67/18 21/62/22
f 118/61/125 9/66/10 13/69/14 17/67/18
f 119/156/126 90/155/105 94/157/101 93/158/100
f 86/161/93 121/165/127 122/166/128 120/162/129
f 99/152/106 123/153/98 89/150/97 98/151/92
f 86/63/93 111/55/119 121/58/127
f 121/58/130 111/55/119 110/50/117 87/59/131
f 122/166/132 121/165/130 87/169/131
f 90/28/105 123/31/133 99/21/106
f 124/154/134 123/153/133 90/155/105 119/156/135
f 106/25/113 105/22/112 20/26/19
