# This file uses centimeters as units for non-parametric coordinates.

mtllib left_foot_link.mtl
v -0.049984 0.007726 -0.082514
v -0.038462 0.010323 -0.084960
v -0.024687 0.010538 -0.084959
v -0.008977 0.010182 -0.084683
v 0.010738 0.010282 -0.085021
v 0.026422 0.010379 -0.085152
v 0.043390 0.010232 -0.085229
v 0.059707 0.010693 -0.084614
v 0.076304 0.009650 -0.084332
v 0.090133 0.006164 -0.084148
v 0.099526 0.004075 -0.081251
v -0.050226 0.009462 -0.078002
v -0.040117 0.012467 -0.077218
v -0.024418 0.012970 -0.077142
v -0.009999 0.012571 -0.077249
v 0.010706 0.012753 -0.077558
v 0.026514 0.012970 -0.077141
v 0.043491 0.012970 -0.077141
v 0.060237 0.012906 -0.077499
v 0.075896 0.010790 -0.075574
v 0.092025 0.008428 -0.077607
v 0.100987 0.004616 -0.078000
v -0.051502 0.009909 -0.058695
v -0.041395 0.011600 -0.058677
v -0.024417 0.011600 -0.058677
v -0.007440 0.011600 -0.058677
v 0.009537 0.011600 -0.058677
v 0.026514 0.011600 -0.058677
v 0.043491 0.011600 -0.058677
v 0.060197 0.011316 -0.058604
v 0.075298 0.010187 -0.058529
v 0.091695 0.007102 -0.058489
v 0.100103 0.003403 -0.058672
v -0.051098 0.010124 -0.043935
v -0.041395 0.011600 -0.041516
v -0.020900 0.016450 -0.034935
v -0.007111 0.019106 -0.038175
v 0.008478 0.018890 -0.038025
v 0.022531 0.016450 -0.034063
v 0.043491 0.011600 -0.041516
v 0.060229 0.011433 -0.041461
v 0.075351 0.010372 -0.041388
v 0.089634 0.007763 -0.041825
v 0.099393 0.003574 -0.043780
v -0.042983 0.011166 -0.035620
v -0.034934 0.016450 -0.020901
v -0.024417 0.021600 -0.024354
v -0.007440 0.021600 -0.024354
v 0.009537 0.021600 -0.024354
v 0.026503 0.021551 -0.024345
v 0.043491 0.011600 -0.024354
v 0.056349 0.011351 -0.028573
v 0.071745 0.010496 -0.037456
v -0.042983 0.011166 -0.007193
v -0.038147 0.019176 -0.006873
v -0.024417 0.021600 -0.007193
v -0.007440 0.021600 -0.007193
v 0.009537 0.021600 -0.007193
v 0.026514 0.021600 -0.007193
v 0.038906 0.018177 -0.006741
v 0.047667 0.011166 -0.010784
v 0.086040 0.003639 -0.040190
v 0.093377 -0.001200 -0.040086
v -0.040994 0.014234 0.008154
v -0.037898 0.018886 0.008908
v -0.024417 0.021600 0.009968
v -0.007440 0.021600 0.009968
v 0.009537 0.021600 0.009968
v 0.026514 0.021600 0.009968
v 0.038758 0.017925 0.008533
v 0.043204 0.011166 0.005125
v -0.039066 0.012377 0.016811
v -0.033973 0.016450 0.022700
v -0.024381 0.021409 0.027086
v -0.007440 0.021600 0.027130
v 0.009537 0.021600 0.027130
v 0.026145 0.020955 0.026680
v 0.034246 0.016450 0.022188
v 0.039605 0.011702 0.016405
v -0.034784 0.011600 0.024933
v -0.029539 0.013726 0.029845
v -0.019746 0.016450 0.035552
v -0.006937 0.017784 0.039180
v 0.007981 0.017619 0.039163
v 0.021377 0.016450 0.034680
v 0.029864 0.013201 0.029864
v 0.034785 0.010874 0.025481
v -0.034688 0.006719 0.027492
v -0.030420 0.005753 0.032076
v -0.020993 0.004277 0.038693
v -0.007199 0.004746 0.043078
v 0.009295 0.004863 0.042812
v 0.022896 0.004543 0.037441
v 0.030019 0.006715 0.032502
v 0.035108 0.001660 0.026340
v -0.035277 0.001800 0.026781
v -0.029693 0.001800 0.032173
v -0.021412 0.001800 0.038237
v -0.007266 0.001800 0.043166
v 0.009314 0.001800 0.042849
v 0.023095 0.001800 0.037402
v 0.030778 0.001800 0.031125
v -0.040357 0.001800 0.017388
v -0.036516 0.001800 0.024491
v 0.034181 -0.055400 -0.032463
v 0.041019 -0.055400 -0.030872
v 0.050913 -0.056433 -0.032365
v 0.075570 -0.054423 -0.037888
v 0.082523 -0.054035 -0.038683
v 0.093997 -0.047575 -0.040157
v -0.051806 -0.052221 -0.043425
v -0.031786 -0.060400 -0.037275
v -0.026672 -0.060400 -0.037306
v 0.034181 -0.060400 -0.033228
v 0.042727 -0.060400 -0.032453
v 0.058209 -0.060400 -0.035058
v 0.077653 -0.058859 -0.039168
v -0.053759 -0.056874 -0.043846
v -0.041132 -0.060324 -0.042193
v -0.024417 -0.060400 -0.041516
v -0.007847 -0.059955 -0.044426
v 0.009941 -0.060107 -0.044021
v 0.026514 -0.060400 -0.041516
v 0.043491 -0.060400 -0.041516
v 0.060213 -0.059583 -0.041665
v 0.092223 -0.055830 -0.042446
v 0.101808 -0.050725 -0.044371
v -0.053687 -0.057117 -0.058709
v -0.041395 -0.060400 -0.058677
v -0.024417 -0.060400 -0.058677
v -0.007440 -0.060400 -0.058677
v 0.009537 -0.060400 -0.058677
v 0.026514 -0.060400 -0.058677
v 0.043491 -0.060400 -0.058677
v 0.060421 -0.060079 -0.058677
v 0.076843 -0.058696 -0.058634
v 0.092725 -0.055709 -0.058644
v 0.101118 -0.051226 -0.058691
v -0.053101 -0.055736 -0.077530
v -0.041258 -0.060922 -0.075986
v -0.024417 -0.061581 -0.075887
v -0.007853 -0.060544 -0.076038
v 0.009744 -0.060770 -0.075984
v 0.026514 -0.061581 -0.075887
v 0.043491 -0.061581 -0.075887
v 0.060455 -0.061402 -0.075934
v 0.077089 -0.059413 -0.075778
v 0.093474 -0.056807 -0.076612
v 0.102105 -0.052320 -0.077952
v -0.050374 -0.056243 -0.082539
v -0.040098 -0.057202 -0.086505
v -0.024388 -0.056994 -0.087734
v -0.009221 -0.057100 -0.086597
v 0.010355 -0.056779 -0.087696
v 0.026514 -0.056967 -0.087762
v 0.043491 -0.056967 -0.087762
v 0.059590 -0.056863 -0.087779
v 0.076678 -0.056391 -0.086671
v 0.091696 -0.053994 -0.084849
v 0.103313 -0.049941 -0.081644
v -0.051604 -0.044285 -0.085386
v -0.041676 -0.044845 -0.090083
v -0.024412 -0.045150 -0.092728
v -0.007793 -0.045018 -0.091798
v 0.009655 -0.045068 -0.092404
v 0.026514 -0.045170 -0.092859
v 0.041612 -0.045754 -0.091816
v 0.060463 -0.045168 -0.092835
v 0.077501 -0.044994 -0.091819
v 0.092374 -0.044400 -0.089454
v 0.106010 -0.041699 -0.084285
v -0.051898 -0.004507 -0.085768
v -0.041675 -0.004511 -0.090865
v -0.024417 -0.004511 -0.093000
v -0.007557 -0.011791 -0.092368
v 0.009571 -0.011800 -0.092696
v 0.026514 -0.011800 -0.093000
v 0.043491 -0.011800 -0.093000
v 0.060469 -0.011800 -0.093000
v 0.077501 -0.011805 -0.092745
v 0.095374 -0.012396 -0.089905
v 0.106431 -0.012465 -0.084599
v -0.051527 0.001835 -0.084655
v -0.041676 0.003340 -0.088730
v -0.024468 0.003503 -0.090735
v -0.008353 0.003393 -0.090074
v 0.009530 0.004405 -0.090026
v 0.026514 0.003506 -0.090823
v 0.043491 0.003700 -0.090943
v 0.060367 0.003546 -0.090706
v 0.077501 0.003115 -0.089304
v 0.092739 0.001804 -0.087020
v 0.102425 -0.000893 -0.083870
v 0.108457 -0.043796 -0.076315
v 0.110521 -0.011906 -0.075962
v 0.106103 -0.000560 -0.077019
v 0.107293 -0.043330 -0.058650
v 0.109391 -0.012012 -0.058677
v 0.105157 -0.001506 -0.058663
v 0.107105 -0.043852 -0.045380
v 0.109617 -0.011993 -0.045525
v 0.104345 -0.000608 -0.045117
v 0.095822 -0.041620 -0.040093
v 0.096304 -0.010778 -0.040343
v -0.057518 -0.045081 -0.075831
v -0.058227 -0.004511 -0.075819
v -0.055595 0.003133 -0.075725
v -0.057437 -0.045200 -0.058677
v -0.057437 -0.004511 -0.058677
v -0.056397 0.004075 -0.058677
v -0.057111 -0.045200 -0.043403
v -0.057111 -0.004511 -0.043403
v -0.056285 0.004208 -0.043632
v -0.052437 -0.045200 -0.043132
v -0.052437 -0.000917 -0.043132
v -0.043981 0.007408 -0.035620
v -0.043434 0.001800 -0.005414
v -0.044043 0.006557 -0.006627
v -0.043210 0.001800 0.007074
v -0.043087 0.007368 0.007051
v -0.040591 0.006137 0.017514
v -0.031786 -0.055757 -0.037275
v -0.026672 -0.055757 -0.037306
v -0.041132 -0.055757 -0.042193
v -0.007847 -0.055757 -0.044426
v 0.009941 -0.055757 -0.044021
v 0.056349 0.006879 -0.027943
v 0.071745 0.006024 -0.036827
v 0.047667 0.006626 -0.010154
v 0.043204 0.001812 0.005755
v 0.039605 0.002349 0.017035
v -0.038126 0.001585 -0.032369
v -0.038735 0.006580 -0.024547
v 0.086040 0.003639 -0.051380
v 0.093377 -0.001200 -0.051381
v 0.082523 -0.054035 -0.051380
v 0.093997 -0.047575 -0.051381
v 0.034181 -0.055400 -0.051380
v 0.041019 -0.055400 -0.051380
v 0.050913 -0.056433 -0.051381
v 0.075570 -0.054423 -0.051381
v 0.095822 -0.041620 -0.051381
v 0.096304 -0.010778 -0.051381
v -0.051806 -0.052221 -0.051381
v -0.052437 -0.045200 -0.051380
v -0.052437 -0.000917 -0.051381
v -0.043981 0.007408 -0.051381
v -0.031786 -0.055757 -0.051381
v -0.026672 -0.055757 -0.051381
v -0.041132 -0.055757 -0.051381
v -0.007847 -0.055757 -0.051381
v 0.009941 -0.055757 -0.051381
v 0.041065 -0.010976 -0.051381
v 0.071745 0.006024 -0.051381
v -0.036983 -0.011025 -0.051380
v -0.038735 0.006580 -0.051381
vt 0.995629 0.040086
vt 0.994420 0.051872
vt 0.990530 0.046881
vt 0.990090 0.037145
vt 0.991758 0.058497
vt 0.989851 0.054715
vt 0.982864 0.047424
vt 0.982425 0.037689
vt 0.995835 0.026902
vt 0.990090 0.023413
vt 0.998112 0.055749
vt 0.994420 0.062654
vt 0.986443 0.060774
vt 0.982300 0.055456
vt 0.986370 0.023957
vt 0.984663 0.065038
vt 0.982415 0.059586
vt 0.986576 0.008603
vt 0.990241 0.008059
vt 0.982415 0.065004
vt 0.985876 0.000935
vt 0.989541 0.000392
vt 0.966695 0.325805
vt 0.972726 0.327476
vt 0.971486 0.334269
vt 0.968693 0.332373
vt 0.972992 0.302061
vt 0.966457 0.302507
vt 0.986091 0.327105
vt 0.986061 0.333398
vt 0.986071 0.302146
vt 0.967009 0.293284
vt 0.972193 0.293019
vt 0.996133 0.327521
vt 0.996896 0.332998
vt 0.996023 0.302131
vt 0.986082 0.293773
vt 0.968991 0.289325
vt 0.971450 0.288894
vt 0.996331 0.293058
vt 0.986075 0.289860
vt 0.997343 0.289725
vt 0.798746 0.546992
vt 0.798358 0.551027
vt 0.790210 0.552395
vt 0.789602 0.544699
vt 0.799414 0.566185
vt 0.790302 0.566211
vt 0.759187 0.552405
vt 0.759184 0.544391
vt 0.799228 0.578156
vt 0.790302 0.578513
vt 0.759187 0.566211
vt 0.753342 0.552480
vt 0.754334 0.545288
vt 0.759187 0.578513
vt 0.752621 0.566211
vt 0.748502 0.550646
vt 0.749829 0.547012
vt 0.752520 0.578328
vt 0.748160 0.566196
vt 0.747996 0.578084
vt 0.750072 0.584782
vt 0.747199 0.584782
vt 0.750723 0.608133
vt 0.747199 0.607677
vt 0.750103 0.619149
vt 0.744852 0.620038
vt 0.741074 0.607935
vt 0.743158 0.596636
vt 0.754361 0.609110
vt 0.754361 0.619168
vt 0.751044 0.627576
vt 0.746273 0.627010
vt 0.741296 0.620645
vt 0.754361 0.627474
vt 0.750705 0.593700
vt 0.754525 0.587400
vt 0.750599 0.635613
vt 0.746867 0.633552
vt 0.743158 0.631753
vt 0.754361 0.635040
vt 0.751338 0.639305
vt 0.745241 0.637508
vt 0.754361 0.639383
vt 0.752467 0.644634
vt 0.743158 0.642104
vt 0.739366 0.635286
vt 0.754361 0.644267
vt 0.182759 0.095372
vt 0.174279 0.095372
vt 0.174279 0.090660
vt 0.182710 0.090660
vt 0.182571 0.119775
vt 0.174279 0.119775
vt 0.182763 0.127353
vt 0.174279 0.127353
vt 0.182685 0.131182
vt 0.174279 0.131182
vt 0.481256 0.369338
vt 0.475307 0.369338
vt 0.475307 0.363808
vt 0.481475 0.363808
vt 0.475307 0.328927
vt 0.481475 0.328927
vt 0.475307 0.322369
vt 0.487094 0.322369
vt 0.908364 0.132008
vt 0.908364 0.111629
vt 0.921058 0.111629
vt 0.911965 0.126068
vt 0.747787 0.016037
vt 0.744721 0.018851
vt 0.741124 0.013106
vt 0.744673 0.008396
vt 0.749818 0.030043
vt 0.746493 0.030043
vt 0.741564 0.004519
vt 0.734004 0.010814
vt 0.733100 0.000391
vt 0.711077 0.011192
vt 0.709418 0.002358
vt 0.706650 0.012621
vt 0.704309 0.006505
vt 0.701848 0.021604
vt 0.700513 0.014010
vt 0.701559 0.027049
vt 0.698262 0.025417
vt 0.700065 0.046354
vt 0.697116 0.040641
vt 0.700833 0.054100
vt 0.697116 0.052763
vt 0.700833 0.059454
vt 0.697116 0.059454
vt 0.700568 0.078433
vt 0.697334 0.078433
vt 0.700568 0.092360
vt 0.697447 0.092360
vt 0.700568 0.107100
vt 0.697116 0.107100
vt 0.700568 0.111104
vt 0.697116 0.111104
vt 0.700568 0.118421
vt 0.697173 0.118421
vt 0.703197 0.126778
vt 0.699738 0.128307
vt 0.708415 0.127272
vt 0.708415 0.130931
vt 0.741334 0.127272
vt 0.738663 0.130931
vt 0.747523 0.120652
vt 0.745144 0.130285
vt 0.961520 0.236164
vt 0.952457 0.237142
vt 0.952807 0.226325
vt 0.962514 0.226120
vt 0.950613 0.237471
vt 0.950613 0.226378
vt 0.952894 0.213391
vt 0.962391 0.214421
vt 0.950613 0.213377
vt 0.952656 0.202726
vt 0.961520 0.203917
vt 0.950613 0.202570
vt 0.266080 0.418909
vt 0.257228 0.419868
vt 0.257642 0.412127
vt 0.266790 0.410897
vt 0.227781 0.420097
vt 0.227783 0.412126
vt 0.257868 0.398667
vt 0.266636 0.398647
vt 0.223085 0.419808
vt 0.221972 0.412127
vt 0.227783 0.398670
vt 0.257770 0.385708
vt 0.266715 0.386822
vt 0.218725 0.418605
vt 0.216802 0.409621
vt 0.221851 0.398710
vt 0.233173 0.385525
vt 0.257807 0.372104
vt 0.266477 0.371558
vt 0.216643 0.398881
vt 0.221932 0.386145
vt 0.233180 0.372170
vt 0.257883 0.358959
vt 0.266615 0.358959
vt 0.216906 0.386631
vt 0.221183 0.372201
vt 0.233180 0.358959
vt 0.258315 0.347187
vt 0.266615 0.345722
vt 0.216833 0.371260
vt 0.221849 0.358959
vt 0.233180 0.345722
vt 0.257881 0.332489
vt 0.266539 0.333169
vt 0.216761 0.359031
vt 0.221705 0.345722
vt 0.233180 0.332484
vt 0.257753 0.319205
vt 0.266190 0.319846
vt 0.216870 0.345801
vt 0.221819 0.332564
vt 0.233183 0.319205
vt 0.257313 0.307608
vt 0.264415 0.308137
vt 0.216529 0.333078
vt 0.222138 0.319205
vt 0.233621 0.305269
vt 0.255313 0.296976
vt 0.261415 0.299078
vt 0.217300 0.320138
vt 0.223109 0.307323
vt 0.233672 0.296648
vt 0.219881 0.309355
vt 0.225105 0.299771
vt 0.221428 0.302031
vt 0.818145 0.121321
vt 0.821807 0.127171
vt 0.823613 0.138568
vt 0.810744 0.163029
vt 0.810707 0.225256
vt 0.824034 0.226653
vt 0.824660 0.230836
vt 0.818358 0.237577
vt 0.784837 0.237577
vt 0.779523 0.237074
vt 0.776846 0.228564
vt 0.776846 0.221113
vt 0.776846 0.217036
vt 0.776846 0.202026
vt 0.776846 0.187844
vt 0.777116 0.168518
vt 0.777116 0.163066
vt 0.776334 0.155177
vt 0.777855 0.135519
vt 0.778149 0.129975
vt 0.783040 0.120827
vt 0.787547 0.119372
vt 0.810894 0.118987
vt 0.820253 0.226168
vt 0.824260 0.150844
vt 0.099555 0.588609
vt 0.096255 0.588796
vt 0.095682 0.581009
vt 0.101344 0.579734
vt 0.082137 0.589778
vt 0.082124 0.581993
vt 0.095626 0.568917
vt 0.101343 0.569125
vt 0.071343 0.589467
vt 0.069574 0.581993
vt 0.082124 0.568917
vt 0.095705 0.557812
vt 0.101141 0.557024
vt 0.065262 0.583216
vt 0.064761 0.566207
vt 0.082124 0.555840
vt 0.095931 0.541864
vt 0.101388 0.541839
vt 0.054499 0.577017
vt 0.067131 0.555587
vt 0.082124 0.542764
vt 0.095626 0.529688
vt 0.101484 0.529759
vt 0.057024 0.568917
vt 0.057024 0.555840
vt 0.067021 0.543580
vt 0.082124 0.529688
vt 0.095626 0.516612
vt 0.101540 0.516690
vt 0.044240 0.579492
vt 0.044474 0.568917
vt 0.044474 0.555840
vt 0.057024 0.542764
vt 0.064124 0.532756
vt 0.082124 0.516612
vt 0.095887 0.503713
vt 0.101091 0.504121
vt 0.032700 0.579300
vt 0.031924 0.568917
vt 0.031924 0.555840
vt 0.044474 0.542764
vt 0.057017 0.529697
vt 0.069574 0.516612
vt 0.082070 0.503744
vt 0.094480 0.491652
vt 0.100885 0.491338
vt 0.022614 0.576277
vt 0.019406 0.568889
vt 0.019374 0.555840
vt 0.031924 0.542764
vt 0.044474 0.529688
vt 0.057024 0.516612
vt 0.069534 0.503720
vt 0.082015 0.492113
vt 0.095967 0.479230
vt 0.100750 0.480687
vt 0.013215 0.565319
vt 0.010562 0.555453
vt 0.019374 0.542764
vt 0.031924 0.529688
vt 0.044144 0.520144
vt 0.060109 0.506709
vt 0.069480 0.492072
vt 0.081986 0.479483
vt 0.096254 0.472327
vt 0.098631 0.473452
vt 0.010574 0.543962
vt 0.019703 0.529972
vt 0.032974 0.520257
vt 0.047100 0.513395
vt 0.066605 0.494850
vt 0.069800 0.481071
vt 0.082120 0.473007
vt 0.013853 0.533645
vt 0.022988 0.523732
vt 0.071229 0.473555
vt 0.042660 0.885531
vt 0.035885 0.889390
vt 0.041008 0.886472
vt 0.046548 0.881290
vt 0.003192 0.815930
vt 0.016022 0.822525
vt 0.027496 0.825915
vt 0.035631 0.828649
vt 0.042342 0.832065
vt 0.045793 0.835354
vt 0.050320 0.841191
vt 0.054248 0.851659
vt 0.054477 0.864253
vt 0.050922 0.874999
vt 0.028447 0.891557
vt 0.019440 0.891728
vt 0.000000 0.887695
vt 0.855379 0.664821
vt 0.851795 0.671993
vt 0.852289 0.659166
vt 0.855357 0.660897
vt 0.839786 0.672194
vt 0.839786 0.659166
vt 0.850169 0.646451
vt 0.850592 0.681682
vt 0.839763 0.681626
vt 0.827175 0.672089
vt 0.827248 0.659166
vt 0.839786 0.646139
vt 0.826051 0.681177
vt 0.819512 0.671199
vt 0.818616 0.659143
vt 0.827137 0.646456
vt 0.839786 0.633111
vt 0.850464 0.632801
vt 0.822401 0.679084
vt 0.819444 0.647505
vt 0.827177 0.632952
vt 0.839786 0.620083
vt 0.852289 0.620083
vt 0.818644 0.632483
vt 0.827248 0.620083
vt 0.839786 0.607056
vt 0.852289 0.607056
vt 0.858327 0.614200
vt 0.818596 0.620083
vt 0.827248 0.607056
vt 0.839786 0.594065
vt 0.852180 0.594224
vt 0.858892 0.607643
vt 0.818596 0.607056
vt 0.827213 0.594038
vt 0.839818 0.581463
vt 0.854000 0.580841
vt 0.856994 0.595762
vt 0.818584 0.594702
vt 0.827327 0.581274
vt 0.839810 0.569276
vt 0.851611 0.569661
vt 0.819391 0.581589
vt 0.826720 0.568701
vt 0.839776 0.562835
vt 0.850209 0.562306
vt 0.820718 0.570066
vt 0.825743 0.562078
vt 0.823053 0.561151
vt 0.691835 0.086146
vt 0.691880 0.064087
vt 0.695670 0.072512
vt 0.691880 0.052095
vt 0.695670 0.052095
vt 0.360565 0.063203
vt 0.368694 0.063203
vt 0.368694 0.071957
vt 0.359497 0.071957
vt 0.368694 0.077262
vt 0.358921 0.077262
vt 0.368694 0.096072
vt 0.354921 0.096072
vt 0.368694 0.103620
vt 0.353839 0.103620
vt 0.368694 0.108836
vt 0.354992 0.108836
vt 0.368694 0.127329
vt 0.363364 0.127329
vt 0.368694 0.140899
vt 0.363657 0.140899
vt 0.368694 0.155261
vt 0.358499 0.155261
vt 0.368694 0.159162
vt 0.358477 0.159162
vt 0.368694 0.166292
vt 0.362040 0.166292
vt 0.368694 0.174435
vt 0.362932 0.174435
vt 0.593484 0.261303
vt 0.575649 0.273553
vt 0.575649 0.248963
vt 0.586724 0.248963
vt 0.575649 0.237506
vt 0.584165 0.237506
vn -0.487771 0.663984 -0.566749
vn -0.476533 0.869711 -0.128526
vn -0.104560 0.993086 -0.053361
vn -0.120783 0.781011 -0.612725
vn -0.000537 0.999185 -0.040354
vn -0.006810 0.807365 -0.590013
vn 0.004817 0.998686 -0.051010
vn 0.003595 0.822799 -0.568321
vn -0.007053 0.998517 -0.053982
vn -0.012721 0.825941 -0.563613
vn -0.003027 0.998957 -0.045552
vn -0.003688 0.825184 -0.564852
vn 0.003155 0.999125 -0.041692
vn 0.001066 0.822020 -0.569458
vn 0.053018 0.997979 -0.035032
vn 0.044487 0.834963 -0.548505
vn 0.137937 0.990313 -0.015926
vn 0.126735 0.846574 -0.516963
vn 0.255397 0.966503 -0.025392
vn 0.219990 0.815089 -0.535943
vn 0.540277 0.841024 -0.027891
vn 0.444513 0.734388 -0.512916
vn -0.467977 0.883535 -0.019035
vn -0.114190 0.993152 -0.024705
vn -0.062101 0.995607 -0.070078
vn -0.026319 0.991152 -0.130100
vn 0.029141 0.991780 -0.124595
vn 0.057668 0.996486 -0.060743
vn 0.037575 0.999283 0.004583
vn 0.047702 0.998277 0.034174
vn 0.131693 0.990954 0.025832
vn 0.264556 0.963825 0.032417
vn 0.525726 0.849366 0.046791
vn -0.157326 0.987543 -0.002739
vn -0.137744 0.986075 -0.093179
vn -0.131380 0.964293 -0.229952
vn -0.050340 0.959245 -0.278055
vn 0.056972 0.959567 -0.275655
vn 0.144063 0.961103 -0.235643
vn 0.080426 0.995770 -0.044421
vn 0.040554 0.999176 0.001597
vn 0.125853 0.992046 0.002466
vn 0.248111 0.968718 -0.005142
vn 0.490381 0.871449 0.010199
vn -0.785139 0.618104 -0.038788
vn -0.454289 0.880164 -0.137598
vn -0.166723 0.971845 -0.166497
vn -0.021155 0.994307 -0.104433
vn 0.025755 0.993706 -0.109016
vn 0.229713 0.955484 -0.185157
vn 0.265000 0.961232 -0.076207
vn 0.077663 0.996965 -0.005325
vn 0.076625 0.996461 0.034544
vn -0.857824 0.513343 -0.024834
vn -0.475663 0.878156 -0.050853
vn -0.104504 0.994309 -0.020721
vn 0.000002 1.000000 0.000000
vn 0.000362 1.000000 -0.000358
vn 0.167201 0.985433 -0.031067
vn 0.448736 0.893200 -0.028814
vn 0.727241 0.670387 0.147317
vn 0.251850 0.232678 0.939379
vn 0.252578 0.196157 0.947484
vn 0.338558 0.187068 0.922163
vn 0.315564 0.244329 0.916909
vn -0.894006 0.428515 0.130879
vn -0.461296 0.883123 0.085433
vn -0.109812 0.993553 0.028154
vn -0.001404 0.999998 0.001389
vn 0.004775 0.999977 0.004722
vn 0.139689 0.989684 0.031822
vn 0.533683 0.837484 0.117487
vn 0.907409 0.351261 0.230705
vn -0.860942 0.370355 0.348734
vn -0.508263 0.812194 0.286373
vn -0.199303 0.954713 0.220909
vn -0.018180 0.989834 0.141063
vn 0.030244 0.988546 0.147860
vn 0.223045 0.947839 0.227710
vn 0.575805 0.762173 0.295875
vn 0.904315 0.234576 0.356635
vn -0.785997 0.303912 0.538374
vn -0.581054 0.416462 0.699239
vn -0.310294 0.601112 0.736466
vn -0.035421 0.936033 0.350125
vn 0.046950 0.936041 0.348745
vn 0.323823 0.611440 0.721997
vn 0.631401 0.374534 0.679012
vn 0.827893 0.191257 0.527271
vn -0.792013 0.148052 0.592281
vn -0.602312 0.183474 0.776889
vn -0.400117 0.205348 0.893162
vn -0.132865 0.228752 0.964375
vn -0.130925 0.280878 0.950771
vn 0.175150 0.231895 0.956842
vn 0.156703 0.281637 0.946638
vn 0.424079 0.202278 0.882746
vn 0.632904 0.179869 0.753047
vn 0.851524 0.081324 0.517969
vn -0.825135 -0.027092 0.564286
vn -0.641195 -0.067519 0.764401
vn -0.466445 -0.056654 0.882734
vn -0.134530 -0.004824 0.990898
vn 0.182631 0.017677 0.983023
vn 0.489250 -0.027160 0.871721
vn 0.661762 -0.071715 0.746276
vn -0.000092 -1.000000 0.000067
vn 0.025226 -0.999224 -0.030236
vn 0.025212 -0.999225 -0.030220
vn 0.025226 -0.999224 -0.030236
vn -0.351672 -0.120435 0.928344
vn -0.357200 -0.116642 0.926716
vn 0.049448 -0.292624 0.954948
vn -0.012468 -0.280347 0.959818
vn 0.216364 -0.211001 0.953239
vn 0.163095 -0.279245 0.946267
vn 0.225069 -0.250044 0.941712
vn 0.224827 -0.225720 0.947894
vn -0.003317 -0.999978 -0.005763
vn -0.100329 -0.994939 0.005521
vn 0.006743 -0.999948 0.007634
vn 0.002741 -0.999995 -0.001788
vn 0.005898 -0.999794 0.019433
vn -0.001714 -0.999997 0.001583
vn -0.007525 -0.999833 0.016663
vn -0.006121 -0.999964 0.005878
vn 0.015360 -0.999878 -0.002659
vn 0.010386 -0.999666 -0.023673
vn 0.045853 -0.998929 -0.006152
vn 0.028355 -0.997796 -0.059993
vn 0.122266 -0.992493 -0.002915
vn 0.254734 -0.318815 0.912944
vn 0.310401 -0.316581 0.896341
vn 0.376232 -0.212074 0.901928
vn 0.354149 -0.253005 0.900315
vn -0.261554 -0.965121 0.011405
vn -0.297776 -0.954583 -0.010083
vn -0.136921 -0.990526 0.010523
vn 0.005713 -0.999635 0.026397
vn 0.008543 -0.999695 0.023172
vn -0.011389 -0.999652 0.023803
vn -0.008361 -0.999480 0.031156
vn 0.012094 -0.999162 0.039098
vn 0.052849 -0.997864 0.038383
vn 0.129271 -0.991197 0.028588
vn 0.293201 -0.955528 0.031612
vn 0.277925 -0.960593 -0.004309
vn 0.638137 -0.768806 0.041449
vn 0.620098 -0.784522 -0.001717
vn -0.320121 -0.943431 -0.086373
vn -0.146206 -0.984207 -0.099802
vn 0.005864 -0.993851 -0.110574
vn 0.012581 -0.992544 -0.121233
vn -0.016167 -0.992280 -0.122958
vn -0.012994 -0.993035 -0.117099
vn 0.005939 -0.993483 -0.113829
vn 0.053079 -0.993114 -0.104434
vn 0.131002 -0.987855 -0.083554
vn 0.283626 -0.956899 -0.062455
vn 0.629253 -0.775212 -0.055560
vn -0.284857 -0.922066 -0.262013
vn -0.086842 -0.939650 -0.330934
vn 0.006184 -0.938803 -0.344398
vn 0.015978 -0.944558 -0.327955
vn -0.017568 -0.943748 -0.330199
vn -0.013759 -0.935532 -0.352973
vn 0.003594 -0.932471 -0.361228
vn 0.041236 -0.939034 -0.341343
vn 0.112985 -0.942971 -0.313114
vn 0.250308 -0.693213 -0.675871
vn 0.550115 -0.546823 -0.631156
vn -0.601107 -0.270437 -0.752020
vn -0.660416 -0.063133 -0.748241
vn -0.251262 -0.084070 -0.964261
vn -0.217709 -0.319150 -0.922359
vn -0.046693 -0.098447 -0.994046
vn -0.026870 -0.367340 -0.929699
vn 0.008365 -0.116875 -0.993111
vn 0.010176 -0.389174 -0.921108
vn -0.026584 -0.117285 -0.992742
vn -0.029212 -0.384220 -0.922779
vn 0.003951 -0.110975 -0.993815
vn 0.002247 -0.376915 -0.926245
vn 0.001824 -0.117988 -0.993013
vn -0.001380 -0.369271 -0.929321
vn 0.008948 -0.117817 -0.992995
vn 0.020224 -0.388354 -0.921288
vn 0.101059 -0.126971 -0.986745
vn 0.106861 -0.415255 -0.903407
vn 0.254085 -0.129542 -0.958467
vn 0.396017 -0.102200 -0.912538
vn -0.669961 0.020541 -0.742112
vn -0.252026 0.028751 -0.967293
vn -0.047668 0.045570 -0.997823
vn 0.014937 0.031298 -0.999398
vn -0.023318 0.043616 -0.998776
vn -0.002449 0.038092 -0.999271
vn 0.000043 0.029988 -0.999550
vn 0.011494 0.038422 -0.999195
vn 0.098620 0.050498 -0.993843
vn 0.265202 0.042167 -0.963270
vn 0.662468 0.041739 -0.747927
vn -0.626108 0.336464 -0.703407
vn -0.214785 0.392050 -0.894519
vn -0.006649 0.400914 -0.916091
vn 0.018065 0.358134 -0.933496
vn -0.019496 0.341437 -0.939702
vn -0.013278 0.324671 -0.945734
vn 0.002631 0.336787 -0.941577
vn 0.033973 0.347032 -0.937238
vn 0.108044 0.348963 -0.930888
vn 0.244983 0.336453 -0.909276
vn 0.574157 0.340832 -0.744431
vn 0.928238 -0.088619 -0.361277
vn 0.978846 -0.198140 -0.050991
vn 0.995164 0.058610 -0.078826
vn 0.865658 0.493266 -0.085584
vn 0.977462 -0.207710 0.037740
vn 0.997659 0.056693 0.038251
vn 0.853251 0.519693 0.043385
vn 0.975477 -0.220014 -0.006133
vn 0.998205 0.059881 -0.000257
vn 0.829260 0.558815 0.007381
vn 0.392233 -0.030711 0.919353
vn 0.392716 -0.034869 0.918999
vn 0.390138 0.011768 0.920681
vn 0.390052 0.027425 0.920384
vn 0.388494 0.127283 0.912618
vn -0.927593 -0.307811 -0.211714
vn -0.978438 -0.079331 -0.190697
vn -0.979488 0.026206 -0.199791
vn -0.893708 0.421520 -0.153644
vn -0.949004 -0.315117 -0.009676
vn -0.996820 -0.078103 0.015781
vn -0.999489 0.024894 0.020051
vn -0.909890 0.414528 -0.016318
vn -0.957446 -0.288424 0.010378
vn -0.997651 -0.065811 0.019003
vn -0.999626 0.018577 0.020072
vn -0.927347 0.374055 0.010515
vn -0.758845 0.651248 0.005530
vn -0.114192 -0.026088 0.993116
vn -0.097456 -0.035678 0.994600
vn -0.059212 -0.008506 0.998209
vn -0.058947 -0.006880 0.998237
vn -0.207969 -0.090190 0.973969
vn -0.090666 -0.019634 0.995688
vn -0.368835 -0.188118 0.910259
vn -0.368835 -0.188118 0.910259
vn -0.618969 0.416636 0.665801
vn -0.618969 0.416636 0.665801
vn -0.618969 0.416636 0.665801
vn -0.618969 0.416636 0.665801
vn -0.970984 0.239133 0.002492
vn -0.989198 0.136238 -0.054101
vn -0.994205 0.000557 -0.107502
vn -0.990293 -0.029243 0.135881
vn -0.980440 0.140113 0.138222
vn -0.928293 -0.012442 0.371641
vn -0.920109 0.124941 0.371198
vn 0.282667 0.000004 0.959218
vn 0.283474 0.000004 0.958980
vn -0.319368 0.000003 0.947631
vn -0.318890 0.000003 0.947792
vn -0.303407 -0.009086 0.952818
vn -0.271568 -0.010778 0.962359
vn -0.274927 -0.047282 0.960302
vn -0.274552 -0.047211 0.960413
vn 0.183614 0.000004 0.982998
vn 0.184426 0.000004 0.982846
vn 0.730294 0.095027 0.676491
vn 0.750774 0.091855 0.654141
vn 0.379062 0.134793 0.915501
vn 0.386846 0.133990 0.912358
vn 0.941624 0.038157 0.334498
vn 0.956746 0.022337 0.290067
vn 0.925150 0.035781 0.377911
vn -0.987662 -0.010434 -0.156249
vn -0.995428 -0.094391 -0.014617
vn -0.094903 -0.995052 -0.029410
vn -0.149713 -0.988725 -0.002969
vn -0.108032 -0.993879 -0.023102
vn 0.053124 -0.988206 0.143619
vn 0.025226 -0.999224 -0.030236
vn 0.025226 -0.999224 -0.030236
vn 0.025226 -0.999224 -0.030236
vn 0.025226 -0.999224 -0.030236
vn 0.025226 -0.999224 -0.030236
vn 0.025226 -0.999224 -0.030236
vn 0.025226 -0.999224 -0.030236
vn 0.025226 -0.999224 -0.030236
vn 0.025226 -0.999224 -0.030236
vn 0.025226 -0.999224 -0.030236
vn 0.025226 -0.999224 -0.030236
vn 0.022181 -0.990349 0.136810
vn -0.292750 -0.956189 0.000000
vn -0.304178 -0.952615 0.000001
vn -0.813900 -0.581004 0.000001
vn -0.812972 -0.582303 0.000001
vn -0.490629 0.871368 0.000000
vn -0.490629 0.871368 0.000000
vn -0.339318 0.940672 0.000000
vn -0.324476 0.945894 0.000001
vn 0.063111 0.998007 -0.000001
vn 0.061674 0.998096 -0.000001
vn -0.010345 0.999947 0.000000
vn -0.008783 0.999961 0.000000
vn -0.010290 0.999947 -0.000000
vn -0.020545 0.999789 -0.000000
vn -0.077256 0.997011 0.000000
vn -0.076514 0.997069 0.000000
vn -0.010518 0.999945 -0.000001
vn -0.011264 0.999936 -0.000001
vn -0.998023 0.062848 -0.000000
vn -0.998020 0.062904 -0.000000
vn -0.956143 0.292901 -0.000001
vn -0.956143 0.292901 -0.000001
vn -0.998137 -0.061019 0.000000
vn -0.998175 -0.060380 0.000000
vn 0.995984 0.089531 0.000000
vn 0.995984 0.089531 0.000000
vn 0.999927 0.012111 0.000000
vn 0.999930 0.011833 0.000000
vn 1.000000 0.000000 0.000000
vn 1.000000 0.000000 0.000000
vn 0.701605 -0.712566 0.000000
vn 0.701605 -0.712566 0.000000
vn 0.701605 -0.712566 0.000000
vn 0.701605 -0.712566 0.000000
vn 0.000000 1.000000 -0.000002
vn -0.000000 1.000000 -0.000002
vn 0.000001 1.000000 -0.000002
vn 0.000001 1.000000 -0.000002
vn 0.123011 0.992405 -0.000000
vn 0.149598 0.988747 -0.000000
vn 0.314507 0.949255 0.000002
vn 0.314507 0.949255 0.000002
vn -0.000000 1.000000 -0.000002
vn -0.000001 1.000000 -0.000002
vn 0.042290 -0.828505 0.558383
vn 0.235024 -0.949363 0.208501
vn 0.274571 -0.934117 0.228113
vn -0.994429 -0.105323 0.004180
vn -0.994429 -0.105323 0.004180
vn -0.155831 -0.987784 0.000000
vn -0.155831 -0.987784 0.000000
vn 0.010309 -0.814008 0.580763
vn -0.000000 -0.000000 1.000000
vn -0.000000 -0.000000 1.000000
vn -0.000000 -0.000000 1.000000
vn -0.000000 -0.000000 1.000000
vn -0.000000 -0.000000 1.000000
vn -0.000000 -0.000000 1.000000
vn -0.000000 -0.000000 1.000000
vn -0.000000 -0.000000 1.000000
vn -0.000000 -0.000000 1.000000
vn -0.000000 -0.000000 1.000000
vn -0.000000 -0.000000 1.000000
vn -0.000000 -0.000000 1.000000
vn -0.000000 -0.000000 1.000000
vn -0.000000 -0.000000 1.000000
vn -0.000000 -0.000000 1.000000
vn -0.000000 -0.000000 1.000000
vn -0.000000 -0.000000 1.000000
vn -0.000000 -0.000000 1.000000
vn -0.000000 -0.000000 1.000000
vn -0.000000 -0.000000 1.000000
vn -0.000000 -0.000000 1.000000
vn -0.000000 -0.000000 1.000000
vn -0.000000 -0.000000 1.000000
s 1
usemtl M_sprout_SG
f 1/245/1 12/246/2 13/247/3 2/248/4
f 2/248/4 13/247/3 14/251/5 3/252/6
f 3/252/6 14/251/5 15/256/7 4/257/8
f 4/257/8 15/256/7 16/261/9 5/262/10
f 5/262/10 16/261/9 17/266/11 6/267/12
f 6/267/12 17/266/11 18/272/13 7/273/14
f 7/273/14 18/272/13 19/280/15 8/281/16
f 8/281/16 19/280/15 20/289/17 9/290/18
f 9/290/18 20/289/17 21/299/19 10/300/20
f 10/300/20 21/299/19 22/309/21 11/310/22
f 12/246/2 23/249/23 24/250/24 13/247/3
f 13/247/3 24/250/24 25/255/25 14/251/5
f 14/251/5 25/255/25 26/260/26 15/256/7
f 15/256/7 26/260/26 27/265/27 16/261/9
f 16/261/9 27/265/27 28/271/28 17/266/11
f 17/266/11 28/271/28 29/279/29 18/272/13
f 18/272/13 29/279/29 30/288/30 19/280/15
f 19/280/15 30/288/30 31/298/31 20/289/17
f 20/289/17 31/298/31 32/308/32 21/299/19
f 21/299/19 32/308/32 33/317/33 22/309/21
f 23/249/23 34/253/34 35/254/35 24/250/24
f 24/250/24 35/254/35 36/259/36 25/255/25
f 25/255/25 36/259/36 37/264/37 26/260/26
f 26/260/26 37/264/37 38/270/38 27/265/27
f 27/265/27 38/270/38 39/278/39 28/271/28
f 28/271/28 39/278/39 40/287/40 29/279/29
f 29/279/29 40/287/40 41/297/41 30/288/30
f 30/288/30 41/297/41 42/307/42 31/298/31
f 31/298/31 42/307/42 43/316/43 32/308/32
f 32/308/32 43/316/43 44/320/44 33/317/33
f 45/258/45 46/263/46 35/254/35
f 46/263/46 47/268/47 36/259/36
f 36/259/36 47/268/47 48/269/48 37/264/37
f 37/264/37 48/269/48 49/277/49 38/270/38
f 38/270/38 49/277/49 50/286/50 39/278/39
f 39/278/39 50/286/50 51/296/51
f 40/287/40 51/296/51 52/306/52 41/297/41
f 41/297/41 52/306/52 53/315/53 42/307/42
f 42/307/42 53/315/53 43/316/43
f 45/64/45 54/66/54 55/69/55 46/70/46
f 46/263/46 55/274/55 56/275/56 47/268/47
f 47/268/47 56/275/56 57/276/57 48/269/48
f 48/269/48 57/276/57 58/285/58 49/277/49
f 49/277/49 58/285/58 59/295/59 50/286/50
f 50/286/50 59/295/59 60/305/60 51/296/51
f 51/296/51 60/305/60 61/314/61 52/306/52
f 43/112/62 62/113/63 63/114/64 44/115/65
f 54/66/54 64/68/66 65/75/67 55/69/55
f 55/274/55 65/282/67 66/283/68 56/275/56
f 56/275/56 66/283/68 67/284/69 57/276/57
f 57/276/57 67/284/69 68/294/70 58/285/58
f 58/285/58 68/294/70 69/304/71 59/295/59
f 59/295/59 69/304/71 70/313/72 60/305/60
f 60/9/60 70/1/72 71/4/73 61/10/61
f 64/68/66 72/74/74 73/81/75 65/75/67
f 65/282/67 73/291/75 74/292/76 66/283/68
f 66/283/68 74/292/76 75/293/77 67/284/69
f 67/284/69 75/293/77 76/303/78 68/294/70
f 68/294/70 76/303/78 77/312/79 69/304/71
f 69/304/71 77/312/79 78/319/80 70/313/72
f 70/1/72 78/2/80 79/3/81 71/4/73
f 72/74/74 80/80/82 81/84/83 73/81/75
f 73/81/75 81/84/83 82/87/84 74/88/76
f 74/292/76 82/301/84 83/302/85 75/293/77
f 75/293/77 83/302/85 84/311/86 76/303/78
f 76/303/78 84/311/86 85/318/87 77/312/79
f 77/11/79 85/12/87 86/5/88 78/2/80
f 78/2/80 86/5/88 87/6/89 79/3/81
f 80/80/82 88/79/90 89/83/91 81/84/83
f 81/84/83 89/83/91 90/86/92 82/87/84
f 82/153/84 90/154/92 91/155/93 83/156/94
f 83/156/94 91/155/93 92/159/95 84/160/96
f 84/160/96 92/159/95 93/162/97 85/163/87
f 85/12/87 93/16/97 94/13/98 86/5/88
f 86/5/88 94/13/98 95/14/99 87/6/89
f 88/79/90 96/82/100 97/85/101 89/83/91
f 89/83/91 97/85/101 98/89/102 90/86/92
f 90/154/92 98/157/102 99/158/103 91/155/93
f 91/155/93 99/158/103 100/161/104 92/159/95
f 92/159/95 100/161/104 101/164/105 93/162/97
f 93/16/97 101/20/105 102/17/106 94/13/98
f 94/13/98 102/17/106 95/14/99
s 5
f 96/321/107 103/322/108 104/323/109 97/324/110
s 1
f 105/133/111 114/134/112 115/132/113 106/131/114
f 106/131/114 115/132/113 116/130/115 107/129/116
f 107/129/116 116/130/115 117/128/117 108/127/118
f 112/338/119 119/339/120 120/340/121 113/341/122
f 113/341/122 120/340/121 121/344/123
f 114/365/124 122/355/125 123/360/126
f 114/365/124 123/360/126 124/364/127 115/370/128
f 115/370/128 124/364/127 125/369/129 116/375/130
f 116/375/130 125/369/129 117/374/131
f 109/125/132 108/127/118 117/128/117 126/126/133
f 127/124/134 110/123/135 109/125/132 126/126/133
f 118/345/136 128/346/137 129/342/138 119/339/120
f 119/339/120 129/342/138 130/343/139 120/340/121
f 120/340/121 130/343/139 131/349/140 121/344/123
f 121/344/123 131/349/140 132/354/141 122/355/125
f 122/355/125 132/354/141 133/359/142 123/360/126
f 123/360/126 133/359/142 134/363/143 124/364/127
f 124/364/127 134/363/143 135/368/144 125/369/129
f 125/369/129 135/368/144 136/373/145 117/374/131
f 117/374/131 136/373/145 137/378/146 126/379/147
f 126/379/147 137/378/146 138/382/148 127/383/149
f 128/346/137 139/350/150 140/347/151 129/342/138
f 129/342/138 140/347/151 141/348/152 130/343/139
f 130/343/139 141/348/152 142/353/153 131/349/140
f 131/349/140 142/353/153 143/358/154 132/354/141
f 132/354/141 143/358/154 144/362/155 133/359/142
f 133/359/142 144/362/155 145/367/156 134/363/143
f 134/363/143 145/367/156 146/372/157 135/368/144
f 135/368/144 146/372/157 147/377/158 136/373/145
f 136/373/145 147/377/158 148/381/159 137/378/146
f 137/378/146 148/381/159 149/385/160 138/382/148
f 139/350/150 150/356/161 151/351/162 140/347/151
f 140/347/151 151/351/162 152/352/163 141/348/152
f 141/348/152 152/352/163 153/357/164 142/353/153
f 142/353/153 153/357/164 154/361/165 143/358/154
f 143/358/154 154/361/165 155/366/166 144/362/155
f 144/362/155 155/366/166 156/371/167 145/367/156
f 145/367/156 156/371/167 157/376/168 146/372/157
f 146/372/157 157/376/168 158/380/169 147/377/158
f 147/377/158 158/380/169 159/384/170 148/381/159
f 148/381/159 159/384/170 160/386/171 149/385/160
f 150/165/172 161/166/173 162/167/174 151/168/175
f 151/168/175 162/167/174 163/171/176 152/172/177
f 152/172/177 163/171/176 164/176/178 153/177/179
f 153/177/179 164/176/178 165/182/180 154/183/181
f 154/183/181 165/182/180 166/187/182 155/188/183
f 155/188/183 166/187/182 167/192/184 156/193/185
f 156/193/185 167/192/184 168/197/186 157/198/187
f 157/198/187 168/197/186 169/202/188 158/203/189
f 158/203/189 169/202/188 170/207/190 159/208/170
f 159/208/170 170/207/190 171/212/191 160/213/171
f 162/167/174 161/166/173 172/169/192 173/170/193
f 163/171/176 162/167/174 173/170/193 174/175/194
f 164/176/178 163/171/176 174/175/194 175/181/195
f 165/182/180 164/176/178 175/181/195 176/186/196
f 166/187/182 165/182/180 176/186/196 177/191/197
f 167/192/184 166/187/182 177/191/197 178/196/198
f 168/197/186 167/192/184 178/196/198 179/201/199
f 169/202/188 168/197/186 179/201/199 180/206/200
f 170/207/190 169/202/188 180/206/200 181/211/201
f 182/216/202 171/212/191 170/207/190 181/211/201
f 172/169/192 183/173/203 184/174/204 173/170/193
f 173/170/193 184/174/204 185/180/205 174/175/194
f 174/175/194 185/180/205 186/185/206 175/181/195
f 175/181/195 186/185/206 187/190/207 176/186/196
f 176/186/196 187/190/207 188/195/208 177/191/197
f 177/191/197 188/195/208 189/200/209 178/196/198
f 178/196/198 189/200/209 190/205/210 179/201/199
f 179/201/199 190/205/210 191/210/211 180/206/200
f 180/206/200 191/210/211 192/215/212 181/211/201
f 181/211/201 192/215/212 193/218/213 182/216/202
f 183/173/203 1/178/1 2/179/4 184/174/204
f 184/174/204 2/179/4 3/184/6 185/180/205
f 185/180/205 3/184/6 4/189/8 186/185/206
f 186/185/206 4/189/8 5/194/10 187/190/207
f 187/190/207 5/194/10 6/199/12 188/195/208
f 188/195/208 6/199/12 7/204/14 189/200/209
f 189/200/209 7/204/14 8/209/16 190/205/210
f 190/205/210 8/209/16 9/214/18 191/210/211
f 191/210/211 9/214/18 10/217/20 192/215/212
f 192/215/212 10/217/20 11/219/22 193/218/213
f 171/23/214 194/24/215 149/25/160 160/26/171
f 195/27/216 194/24/215 171/23/214 182/28/202
f 193/32/213 196/33/217 195/27/216 182/28/202
f 11/38/22 22/39/21 196/33/217 193/32/213
f 194/24/215 197/29/218 138/30/148 149/25/160
f 198/31/219 197/29/218 194/24/215 195/27/216
f 196/33/217 199/37/220 198/31/219 195/27/216
f 22/39/21 33/41/33 199/37/220 196/33/217
f 197/29/218 200/34/221 127/35/149 138/30/148
f 201/36/222 200/34/221 197/29/218 198/31/219
f 199/37/220 202/40/223 201/36/222 198/31/219
f 33/41/33 44/42/44 202/40/223 199/37/220
f 200/122/224 203/121/225 110/123/135 127/124/134
f 201/120/226 204/119/227 203/121/225 200/122/224
f 202/118/228 63/114/64 204/119/227 201/120/226
f 44/115/65 63/114/64 202/118/228
f 150/43/172 139/44/229 205/45/230 161/46/173
f 205/45/230 206/49/231 172/50/192 161/46/173
f 172/50/192 206/49/231 207/54/232 183/55/203
f 183/55/203 207/54/232 12/58/2 1/59/1
f 139/44/229 128/47/233 208/48/234 205/45/230
f 208/48/234 209/53/235 206/49/231 205/45/230
f 206/49/231 209/53/235 210/57/236 207/54/232
f 207/54/232 210/57/236 23/61/23 12/58/2
f 128/47/233 118/51/237 211/52/238 208/48/234
f 211/52/238 212/56/239 209/53/235 208/48/234
f 209/53/235 212/56/239 213/60/240 210/57/236
f 210/57/236 213/60/240 34/62/241 23/61/23
f 118/146/242 111/145/243 214/147/244 211/148/245
f 214/147/244 215/149/246 212/150/247 211/148/245
f 212/150/247 215/149/246 216/151/248 213/152/249
s off
f 213/60/250 216/63/251 45/64/252 34/62/253
s 1
f 216/63/254 218/65/255 54/66/54 45/64/45
f 217/71/256 219/72/257 220/67/258 218/65/255
f 218/65/255 220/67/258 64/68/66 54/66/54
f 219/72/257 103/76/259 221/73/260 220/67/258
f 220/67/258 221/73/260 72/74/74 64/68/66
f 103/76/259 96/82/100 88/79/90 221/73/260
f 221/73/260 88/79/90 80/80/82 72/74/74
f 113/140/261 223/139/262 222/141/263 112/142/264
f 119/144/265 224/143/266 111/145/243 118/146/242
f 122/136/267 226/135/268 225/137/269 121/138/270
f 112/142/264 222/141/263 224/143/266 119/144/265
f 121/138/270 225/137/269 223/139/262 113/140/261
f 114/134/112 105/133/111 226/135/268 122/136/267
f 52/19/271 227/18/272 228/21/273 53/22/274
f 53/116/274 228/117/273 62/113/63 43/112/62
f 61/10/61 229/15/275 227/18/272 52/19/271
f 71/4/73 230/8/276 229/15/275 61/10/61
f 79/3/81 231/7/277 230/8/276 71/4/73
f 87/6/89 95/14/99 231/7/277 79/3/81
f 218/65/255 233/77/278 232/78/279 217/71/256
s 15
f 218/387/280 216/388/281 233/389/282
s 5
f 227/325/283 229/326/284 230/327/285 231/328/286 95/329/287 102/330/288 101/331/289 100/332/290 99/333/291 98/334/292 97/324/110 104/323/109 103/322/108 219/335/293 217/336/294 232/337/295
f 62/98/296 234/99/297 235/97/298 63/96/299
s 17
f 110/392/300 237/393/301 236/394/302 109/395/303
f 106/401/304 239/400/305 238/402/306 105/403/307
f 107/399/308 240/398/309 239/400/305 106/401/304
f 108/397/310 241/396/311 240/398/309 107/399/308
f 109/395/303 236/394/302 241/396/311 108/397/310
f 238/402/306 252/404/312 226/405/313 105/403/307
s 5
f 203/90/314 242/91/315 237/92/316 110/93/317
f 242/91/315 203/90/314 204/94/318 243/95/319
f 63/96/299 235/97/298 243/95/319 204/94/318
s 20
f 111/100/320 244/101/321 245/102/322 214/103/323
f 245/102/322 246/104/324 215/105/325 214/103/323
s off
f 215/105/326 246/104/327 247/106/328 216/107/329
s 17
f 223/409/330 249/408/331 248/410/332 222/411/333
f 224/413/334 250/412/335 244/414/336 111/415/337
f 226/405/313 252/404/312 251/406/338 225/407/339
f 222/411/333 248/410/332 250/412/335 224/413/334
f 225/407/339 251/406/338 249/408/331 223/409/330
s 5
f 227/416/283 253/417/340 254/418/341 228/419/342
f 228/419/342 254/418/341 234/420/297 62/421/296
s 1
f 233/108/278 256/109/343 255/110/344 232/111/279
s 15
f 216/388/281 247/390/345 256/391/346 233/389/282
s 5
f 232/243/295 255/224/347 253/223/340 227/244/283
s off
f 235/220/348 234/221/349 254/222/350 253/223/351 255/224/352 256/225/353 247/226/354 246/227/355 245/228/356 244/229/357 250/230/358 248/231/359 249/232/360 251/233/361 252/234/362 238/235/363 239/236/364 240/237/365 241/238/366 236/239/367 237/240/368 242/241/369 243/242/370
s 1
f 35/254/35 46/263/46 36/259/36
f 34/253/34 45/258/45 35/254/35
f 39/278/39 51/296/51 40/287/40
