# This file uses centimeters as units for non-parametric coordinates.

mtllib left_eyebrow_link.mtl
v 0.011131 0.004699 0.008072
v 0.020308 0.004699 0.008072
v 0.011131 -0.004793 0.008072
v 0.020308 -0.004793 0.008072
v 0.011131 -0.004793 0.014594
v 0.020308 -0.004793 0.014594
v 0.011131 0.004699 0.014594
v 0.020308 0.004699 0.014594
v 0.008218 0.003963 0.014649
v 0.013173 0.009744 0.014649
v 0.018127 0.009744 0.014649
v 0.023082 0.003963 0.014649
v 0.008218 -0.058955 0.014649
v 0.013173 -0.064737 0.014649
v 0.018127 -0.064737 0.014649
v 0.023082 -0.058956 0.014649
v 0.008218 -0.058955 0.017478
v 0.013173 -0.064737 0.017478
v 0.018127 -0.064737 0.017478
v 0.023082 -0.058956 0.017478
v 0.008218 0.003963 0.017478
v 0.013173 0.009744 0.017478
v 0.018127 0.009744 0.017478
v 0.023082 0.003963 0.017478
v 0.021700 0.003420 0.009397
v 0.021700 0.007660 0.006428
v 0.021700 0.009848 0.001737
v 0.021700 0.009397 -0.003420
v 0.021700 0.006428 -0.007660
v 0.021700 0.001736 -0.009848
v 0.021700 -0.003420 -0.009397
v 0.021700 -0.007660 -0.006428
v 0.021700 -0.009848 -0.001736
v 0.021700 -0.009397 0.003420
v 0.021700 -0.006428 0.007660
v 0.021700 -0.001736 0.009848
v 0.009729 0.003420 0.009397
v 0.009729 0.007660 0.006428
v 0.009729 0.009848 0.001737
v 0.009729 0.009397 -0.003420
v 0.009729 0.006428 -0.007660
v 0.009729 0.001736 -0.009848
v 0.009729 -0.003420 -0.009397
v 0.009729 -0.007660 -0.006428
v 0.009729 -0.009848 -0.001736
v 0.009729 -0.009397 0.003420
v 0.009729 -0.006428 0.007660
v 0.009729 -0.001736 0.009848
vt 0.617899 0.236426
vt 0.622815 0.235620
vt 0.624077 0.242270
vt 0.619160 0.243076
vt 0.871031 0.217037
vt 0.866114 0.216231
vt 0.867376 0.209581
vt 0.872292 0.210387
vt 0.000787 0.320476
vt 0.002972 0.320118
vt 0.011538 0.365270
vt 0.009353 0.365628
vt 0.002185 0.315968
vt 0.000000 0.316327
vt 0.010140 0.369778
vt 0.012325 0.369420
vt 0.002972 0.419421
vt 0.000787 0.419063
vt 0.009353 0.373910
vt 0.011538 0.374268
vt 0.002185 0.423570
vt 0.000000 0.423212
vt 0.010140 0.369761
vt 0.012325 0.370119
vt 0.029540 0.226008
vt 0.030523 0.229717
vt 0.029540 0.233427
vt 0.026853 0.236142
vt 0.023183 0.237136
vt 0.019513 0.236142
vt 0.016827 0.233427
vt 0.015844 0.229717
vt 0.016827 0.226008
vt 0.019513 0.223292
vt 0.023183 0.222298
vt 0.026853 0.223292
vt 0.726656 0.324539
vt 0.723970 0.327255
vt 0.720300 0.328249
vt 0.716630 0.327255
vt 0.713943 0.324539
vt 0.712960 0.320830
vt 0.713943 0.317121
vt 0.716630 0.314405
vt 0.720300 0.313411
vt 0.723970 0.314405
vt 0.726656 0.317121
vt 0.727640 0.320830
vt 0.987581 0.520019
vt 0.991403 0.515938
vt 0.991403 0.568521
vt 0.987581 0.564439
vt 0.995224 0.515938
vt 0.995224 0.568521
vt 0.999046 0.520019
vt 0.999046 0.564439
vt 0.987581 0.355174
vt 0.991403 0.351092
vt 0.991403 0.403676
vt 0.987581 0.399594
vt 0.995224 0.351092
vt 0.995224 0.403676
vt 0.999046 0.355174
vt 0.999046 0.399594
vt 0.062830 0.326023
vt 0.062830 0.329913
vt 0.052812 0.329913
vt 0.052812 0.326023
vt 0.062830 0.333802
vt 0.052812 0.333802
vt 0.062830 0.323176
vt 0.052812 0.323176
vt 0.062830 0.336649
vt 0.052812 0.336649
vt 0.163172 0.320336
vt 0.163172 0.324225
vt 0.153154 0.324225
vt 0.153154 0.320336
vt 0.163172 0.328114
vt 0.153154 0.328114
vt 0.163172 0.317489
vt 0.153154 0.317489
vt 0.163172 0.330961
vt 0.153154 0.330961
vt 0.433057 0.033603
vt 0.433057 0.027025
vt 0.438011 0.027025
vt 0.438011 0.033603
vt 0.707679 0.018854
vt 0.707679 0.012275
vt 0.712633 0.012275
vt 0.712633 0.018854
vt 0.058093 0.003946
vt 0.058093 0.000395
vt 0.060242 0.000395
vt 0.060242 0.003946
vt 0.031687 0.003946
vt 0.031687 0.000395
vt 0.033836 0.000395
vt 0.033836 0.003946
vt 0.554524 0.135136
vt 0.558418 0.135136
vt 0.558418 0.143801
vt 0.554524 0.143801
vt 0.562312 0.135136
vt 0.562312 0.143801
vt 0.565087 0.135136
vt 0.568981 0.135136
vt 0.568981 0.143801
vt 0.565087 0.143801
vt 0.572875 0.135136
vt 0.572875 0.143801
vn 0.000000 -1.000000 0.000006
vn 0.000000 -1.000000 0.000006
vn 0.000000 -1.000000 0.000006
vn 0.000000 -1.000000 0.000006
vn 0.000000 1.000000 0.000000
vn 0.000000 1.000000 0.000000
vn 0.000000 1.000000 0.000000
vn 0.000000 1.000000 0.000000
vn 1.000000 -0.000000 0.000000
vn 1.000000 -0.000000 0.000000
vn 1.000000 -0.000000 0.000000
vn 1.000000 -0.000000 0.000000
vn -1.000000 0.000000 0.000000
vn -1.000000 0.000000 0.000000
vn -1.000000 0.000000 0.000000
vn -1.000000 0.000000 0.000000
vn -0.000003 -0.000000 -1.000000
vn -0.000001 -0.000000 -1.000000
vn -0.000001 -0.000000 -1.000000
vn -0.000003 -0.000000 -1.000000
vn 0.000001 -0.000000 -1.000000
vn 0.000001 -0.000000 -1.000000
vn 0.000004 -0.000000 -1.000000
vn 0.000004 -0.000000 -1.000000
vn -0.997410 -0.071932 0.000000
vn -0.503972 -0.863720 0.000000
vn -0.503972 -0.863720 0.000000
vn -0.997410 -0.071932 0.000000
vn 0.503972 -0.863720 0.000000
vn 0.503971 -0.863720 0.000000
vn 0.997409 -0.071932 0.000000
vn 0.997410 -0.071932 0.000000
vn -0.000004 0.000000 1.000000
vn -0.000001 0.000000 1.000000
vn -0.000001 0.000000 1.000000
vn -0.000004 0.000000 1.000000
vn 0.000001 0.000000 1.000000
vn 0.000001 0.000000 1.000000
vn 0.000004 0.000000 1.000000
vn 0.000004 0.000000 1.000000
vn -0.997410 0.071931 0.000000
vn -0.503972 0.863720 0.000000
vn -0.503971 0.863720 0.000000
vn -0.997410 0.071931 0.000000
vn 0.503972 0.863720 0.000000
vn 0.503972 0.863720 0.000000
vn 0.997409 0.071932 0.000000
vn 0.997410 0.071932 0.000000
vn 0.000000 0.342021 0.939692
vn 0.000000 0.766044 0.642788
vn 0.000000 0.766044 0.642788
vn 0.000000 0.342021 0.939692
vn 0.000000 0.984808 0.173649
vn 0.000000 0.984808 0.173649
vn 0.000000 0.939692 -0.342022
vn 0.000000 0.939692 -0.342022
vn 0.000000 0.642787 -0.766045
vn 0.000000 0.642787 -0.766045
vn 0.000000 0.173648 -0.984808
vn 0.000000 0.173648 -0.984808
vn 0.000000 -0.342020 -0.939693
vn 0.000000 -0.342020 -0.939693
vn 0.000000 -0.766045 -0.642786
vn 0.000000 -0.766045 -0.642786
vn 0.000000 -0.984808 -0.173649
vn 0.000000 -0.984808 -0.173649
vn 0.000000 -0.939693 0.342019
vn 0.000000 -0.939693 0.342019
vn 0.000000 -0.642788 0.766044
vn 0.000000 -0.642788 0.766044
vn 0.000000 -0.173648 0.984808
vn 0.000000 -0.173648 0.984808
vn 1.000000 -0.000000 0.000000
vn 1.000000 -0.000000 0.000000
vn 1.000000 -0.000000 0.000000
vn 1.000000 -0.000000 0.000000
vn 1.000000 -0.000000 0.000000
vn 1.000000 -0.000000 0.000000
vn 1.000000 -0.000000 0.000000
vn 1.000000 -0.000000 0.000000
vn 1.000000 -0.000000 0.000000
vn 1.000000 -0.000000 0.000000
vn 1.000000 -0.000000 0.000000
vn 1.000000 -0.000000 0.000000
vn -1.000000 0.000000 0.000000
vn -1.000000 0.000000 0.000000
vn -1.000000 0.000000 0.000000
vn -1.000000 0.000000 0.000000
vn -1.000000 0.000000 0.000000
vn -1.000000 0.000000 0.000000
vn -1.000000 0.000000 0.000000
vn -1.000000 0.000000 0.000000
vn -1.000000 0.000000 0.000000
vn -1.000000 0.000000 0.000000
vn -1.000000 0.000000 0.000000
vn -1.000000 0.000000 0.000000
s off
usemtl M_sprout_SG
f 3/85/1 4/86/2 6/87/3 5/88/4
f 7/89/5 8/90/6 2/91/7 1/92/8
f 2/1/9 8/2/10 6/3/11 4/4/12
f 7/5/13 1/6/14 3/7/15 5/8/16
s 1
f 9/49/17 10/50/18 14/51/19 13/52/20
f 10/50/18 11/53/21 15/54/22 14/51/19
f 11/53/21 12/55/23 16/56/24 15/54/22
s 2
f 13/19/25 14/23/26 18/24/27 17/20/28
f 14/93/26 15/94/29 19/95/30 18/96/27
f 15/15/29 16/12/31 20/11/32 19/16/30
s 3
f 17/57/33 18/58/34 22/59/35 21/60/36
f 18/58/34 19/61/37 23/62/38 22/59/35
f 19/61/37 20/63/39 24/64/40 23/62/38
s 2
f 21/17/41 22/21/42 10/22/43 9/18/44
f 22/97/42 23/98/45 11/99/46 10/100/43
f 23/13/45 24/10/47 12/9/48 11/14/46
f 12/9/48 24/10/47 20/11/32 16/12/31
f 21/17/41 9/18/44 13/19/25 17/20/28
s 5
f 25/79/49 26/83/50 38/84/51 37/80/52
f 26/101/50 27/102/53 39/103/54 38/104/51
f 27/102/53 28/105/55 40/106/56 39/103/54
f 28/71/55 29/65/57 41/68/58 40/72/56
f 29/65/57 30/66/59 42/67/60 41/68/58
f 30/66/59 31/69/61 43/70/62 42/67/60
f 31/69/61 32/73/63 44/74/64 43/70/62
f 32/107/63 33/108/65 45/109/66 44/110/64
f 33/108/65 34/111/67 46/112/68 45/109/66
f 34/81/67 35/75/69 47/78/70 46/82/68
f 35/75/69 36/76/71 48/77/72 47/78/70
f 36/76/71 25/79/49 37/80/52 48/77/72
s off
f 25/25/73 36/26/74 35/27/75 34/28/76 33/29/77 32/30/78 31/31/79 30/32/80 29/33/81 28/34/82 27/35/83 26/36/84
f 37/37/85 38/38/86 39/39/87 40/40/88 41/41/89 42/42/90 43/43/91 44/44/92 45/45/93 46/46/94 47/47/95 48/48/96
