# This file uses centimeters as units for non-parametric coordinates.

mtllib left_gripper_lower_link.mtl
v 0.002430 -0.017930 -0.017940
v 0.015765 -0.017665 -0.019062
v 0.027448 -0.017662 -0.019037
v 0.040430 -0.017937 -0.017968
v 0.001552 -0.024721 -0.007352
v 0.014807 -0.025237 -0.007842
v 0.028293 -0.025237 -0.007842
v 0.041554 -0.024685 -0.007441
v 0.001497 -0.024385 0.008187
v 0.014831 -0.025027 0.008315
v 0.028269 -0.025027 0.008315
v 0.041548 -0.024408 0.008029
v 0.001911 -0.019254 0.016896
v 0.015869 -0.018144 0.018756
v 0.027227 -0.018140 0.018763
v 0.041197 -0.019236 0.016909
v 0.001552 -0.009816 0.020850
v 0.014970 -0.009906 0.021484
v 0.028130 -0.009906 0.021484
v 0.041548 -0.009816 0.020850
v 0.001323 0.006833 0.021314
v 0.014952 0.006822 0.021850
v 0.028148 0.006822 0.021850
v 0.041777 0.006827 0.021314
v 0.001552 0.025202 0.022349
v 0.014921 0.024946 0.022953
v 0.028179 0.024946 0.022953
v 0.041548 0.025202 0.022349
v 0.001377 0.040080 0.025504
v 0.014741 0.040195 0.026208
v 0.028360 0.040196 0.026233
v 0.041723 0.040080 0.025504
v 0.001445 0.052974 0.020856
v 0.014975 0.052991 0.021437
v 0.028111 0.053061 0.021356
v 0.041655 0.052974 0.020856
v 0.001476 0.060883 0.008944
v 0.015369 0.060597 0.013960
v 0.027788 0.060574 0.013893
v 0.041580 0.061193 0.009173
v 0.014209 0.073516 -0.010178
v 0.019399 0.073516 -0.010178
v 0.023629 0.073516 -0.010178
v 0.028866 0.073516 -0.010178
v 0.014733 0.090649 -0.018451
v 0.028367 0.090649 -0.018451
v 0.014733 0.123742 -0.018425
v 0.028367 0.123742 -0.018425
v 0.011404 0.139435 -0.019857
v 0.014734 0.140660 -0.019034
v 0.028366 0.140660 -0.019034
v 0.031696 0.139435 -0.019857
v 0.010977 0.139137 -0.023084
v 0.014733 0.140701 -0.022171
v 0.028367 0.140701 -0.022171
v 0.032123 0.139137 -0.023083
v 0.010045 0.131734 -0.028328
v 0.014452 0.131487 -0.028781
v 0.028648 0.131487 -0.028781
v 0.033055 0.131734 -0.028328
v 0.009639 0.119293 -0.035619
v 0.015059 0.119669 -0.036001
v 0.028041 0.119669 -0.036001
v 0.033461 0.119293 -0.035619
v 0.008969 0.106151 -0.040034
v 0.014839 0.106591 -0.040905
v 0.028261 0.106591 -0.040905
v 0.034131 0.106154 -0.040011
v 0.007895 0.090238 -0.040118
v 0.014758 0.090402 -0.042790
v 0.028342 0.090402 -0.042790
v 0.035208 0.090243 -0.040121
v 0.008112 0.073216 -0.039913
v 0.014897 0.074078 -0.041568
v 0.028203 0.074078 -0.041568
v 0.034988 0.073216 -0.039913
v 0.007894 0.060066 -0.034921
v 0.016267 0.059409 -0.037058
v 0.026833 0.059409 -0.037058
v 0.035206 0.060066 -0.034921
v 0.007659 0.046417 -0.029362
v 0.016391 0.046567 -0.030807
v 0.026709 0.046567 -0.030807
v 0.035441 0.046417 -0.029362
v 0.001464 0.027600 -0.023392
v 0.015104 0.029385 -0.024572
v 0.027932 0.029558 -0.024661
v 0.041636 0.027600 -0.023392
v 0.001323 0.006989 -0.021317
v 0.015732 0.007181 -0.021894
v 0.027368 0.007181 -0.021894
v 0.041777 0.007004 -0.021318
v 0.001850 -0.009674 -0.020867
v 0.015750 -0.009546 -0.021529
v 0.027350 -0.009546 -0.021529
v 0.041250 -0.009674 -0.020867
v 0.034519 0.123293 -0.025905
v 0.035685 0.106836 -0.027816
v 0.036477 0.090085 -0.027391
v 0.037557 0.073354 -0.025854
v 0.037715 0.057045 -0.025039
v 0.041856 0.040183 -0.025406
v 0.032172 0.123360 -0.018939
v 0.033207 0.090925 -0.019324
v 0.033359 0.072300 -0.010799
v 0.041726 0.061346 -0.009543
v 0.042000 0.040865 -0.011630
v 0.041952 0.023497 -0.008215
v 0.042000 0.007486 -0.009389
v 0.042000 -0.010015 -0.008242
v 0.042000 0.040698 0.011663
v 0.041710 0.023702 0.008948
v 0.042000 0.007085 0.009657
v 0.042000 -0.010015 0.009112
v 0.008553 0.123159 -0.025126
v 0.007474 0.106772 -0.027669
v 0.006622 0.090085 -0.027392
v 0.005543 0.073354 -0.025854
v 0.005403 0.057017 -0.025089
v 0.001244 0.040183 -0.025406
v 0.010958 0.123389 -0.018911
v 0.009902 0.090924 -0.019329
v 0.009672 0.073516 -0.010178
v 0.001353 0.059850 -0.008415
v 0.001100 0.041401 -0.014324
v 0.001313 0.023632 -0.008120
v 0.001100 0.009012 -0.011672
v 0.001100 -0.011516 -0.009246
v 0.001100 0.041234 0.014357
v 0.001286 0.023351 0.009270
v 0.001100 0.008610 0.011941
v 0.001100 -0.011114 0.009847
vt 0.003311 0.691125
vt 0.008675 0.681684
vt 0.012533 0.676068
vt 0.010457 0.688090
vt 0.014907 0.675841
vt 0.015582 0.688039
vt 0.000081 0.701094
vt 0.009052 0.700576
vt 0.015299 0.712649
vt 0.000000 0.713166
vt 0.009364 0.713286
vt 0.000153 0.726085
vt 0.010495 0.725981
vt 0.021570 0.726780
vt 0.003825 0.736063
vt 0.011095 0.738355
vt 0.022494 0.735092
vt 0.007915 0.746419
vt 0.010825 0.751149
vt 0.036262 0.735208
vt 0.020959 0.750632
vt 0.038094 0.750758
vt 0.012307 0.760696
vt 0.023471 0.763810
vt 0.044856 0.741444
vt 0.048275 0.751227
vt 0.036096 0.763654
vt 0.013832 0.776324
vt 0.022608 0.775958
vt 0.045954 0.762516
vt 0.036618 0.776263
vt 0.014164 0.788978
vt 0.023451 0.789237
vt 0.045193 0.776458
vt 0.036217 0.789237
vt 0.016297 0.795248
vt 0.024040 0.800368
vt 0.044852 0.789086
vt 0.035421 0.800158
vt 0.041953 0.796234
vt 0.008664 0.526457
vt 0.003306 0.517027
vt 0.011017 0.519957
vt 0.012518 0.532068
vt 0.000061 0.507066
vt 0.009148 0.507536
vt 0.015584 0.520131
vt 0.014889 0.532294
vt 0.000000 0.495004
vt 0.009352 0.494888
vt 0.015277 0.495524
vt 0.000150 0.482102
vt 0.010482 0.482207
vt 0.003819 0.472135
vt 0.011044 0.469823
vt 0.022002 0.482329
vt 0.007904 0.461789
vt 0.010811 0.457064
vt 0.023298 0.471971
vt 0.018955 0.457987
vt 0.036054 0.472754
vt 0.012292 0.447527
vt 0.023514 0.444519
vt 0.040031 0.457861
vt 0.013816 0.431904
vt 0.020904 0.433438
vt 0.036293 0.444306
vt 0.048223 0.456986
vt 0.044807 0.466760
vt 0.014147 0.419274
vt 0.022687 0.417878
vt 0.038256 0.433133
vt 0.045905 0.445709
vt 0.016298 0.413016
vt 0.024079 0.407869
vt 0.036717 0.418183
vt 0.045144 0.431786
vt 0.035497 0.408124
vt 0.044803 0.419167
vt 0.041897 0.412013
vt 0.951068 0.073802
vt 0.961867 0.074688
vt 0.961172 0.081263
vt 0.950791 0.081334
vt 0.950748 0.069708
vt 0.961064 0.069196
vt 0.970655 0.074692
vt 0.971354 0.081263
vt 0.961158 0.094611
vt 0.950613 0.094620
vt 0.971461 0.069196
vt 0.981464 0.073817
vt 0.981735 0.081334
vt 0.971367 0.094611
vt 0.961134 0.109075
vt 0.950791 0.109279
vt 0.981735 0.069690
vt 0.981912 0.094616
vt 0.971392 0.109075
vt 0.960995 0.121244
vt 0.950655 0.121152
vt 0.981735 0.109279
vt 0.971532 0.121245
vt 0.961176 0.131456
vt 0.950707 0.131442
vt 0.981871 0.121152
vt 0.971339 0.131511
vt 0.961480 0.137525
vt 0.950732 0.137753
vt 0.981818 0.131442
vt 0.971089 0.137507
vt 0.981760 0.138001
vt 0.479510 0.270782
vt 0.483376 0.270782
vt 0.479901 0.283945
vt 0.476302 0.284157
vt 0.486527 0.270782
vt 0.490056 0.283945
vt 0.479901 0.309371
vt 0.477088 0.309099
vt 0.476131 0.270782
vt 0.490428 0.270782
vt 0.493661 0.284157
vt 0.490056 0.309371
vt 0.479901 0.322369
vt 0.477421 0.321428
vt 0.470025 0.261076
vt 0.493774 0.269848
vt 0.492890 0.309077
vt 0.490055 0.322369
vt 0.492536 0.321428
vt 0.898907 0.657083
vt 0.903031 0.656787
vt 0.902863 0.667051
vt 0.898397 0.667396
vt 0.899215 0.647319
vt 0.902569 0.647514
vt 0.912908 0.656787
vt 0.913075 0.667051
vt 0.902802 0.679754
vt 0.897580 0.679883
vt 0.899925 0.641510
vt 0.902783 0.640283
vt 0.913369 0.647514
vt 0.917031 0.657083
vt 0.917541 0.667394
vt 0.913136 0.679754
vt 0.902907 0.692564
vt 0.897746 0.693241
vt 0.913155 0.640283
vt 0.916723 0.647319
vt 0.918361 0.679879
vt 0.913031 0.692564
vt 0.903950 0.704076
vt 0.897579 0.703560
vt 0.916013 0.641510
vt 0.918193 0.693241
vt 0.911988 0.704076
vt 0.904044 0.714153
vt 0.897400 0.714271
vt 0.918359 0.703560
vt 0.911894 0.714153
vt 0.903065 0.727637
vt 0.892687 0.729037
vt 0.918538 0.714271
vt 0.912825 0.727501
vt 0.903543 0.745061
vt 0.892580 0.745212
vt 0.892520 0.719163
vt 0.923251 0.729037
vt 0.912395 0.745061
vt 0.903556 0.758187
vt 0.892981 0.758288
vt 0.923418 0.719163
vt 0.923358 0.745200
vt 0.912382 0.758187
vt 0.903567 0.764559
vt 0.893422 0.764767
vt 0.922958 0.758288
vt 0.912457 0.764556
vt 0.902839 0.770501
vt 0.892754 0.770096
vt 0.922334 0.764773
vt 0.913099 0.770501
vt 0.923188 0.770068
vt 0.306665 0.517958
vt 0.306309 0.508021
vt 0.318053 0.508003
vt 0.317959 0.517999
vt 0.306309 0.497910
vt 0.318053 0.497928
vt 0.306600 0.487968
vt 0.317845 0.487973
vt 0.183454 0.458372
vt 0.179560 0.447248
vt 0.198299 0.444021
vt 0.198299 0.448176
vt 0.179612 0.437303
vt 0.198299 0.440634
vt 0.183277 0.426260
vt 0.198299 0.436440
vt 0.198781 0.432843
vt 0.555130 0.114335
vt 0.554524 0.111808
vt 0.556833 0.111808
vt 0.557504 0.114658
vt 0.554524 0.101463
vt 0.556833 0.101463
vt 0.555130 0.098936
vt 0.557504 0.098613
vn -0.509438 -0.569857 -0.644776
vn -0.025160 -0.657011 -0.753461
vn -0.022253 -0.967370 -0.252389
vn -0.650416 -0.735963 -0.187927
vn 0.025244 -0.656853 -0.753596
vn 0.022218 -0.967639 -0.251358
vn 0.555209 -0.548734 -0.625008
vn 0.670472 -0.718390 -0.185424
vn -0.018323 -0.969576 0.244103
vn -0.667379 -0.722509 0.180516
vn 0.019047 -0.969402 0.244739
vn 0.681285 -0.710427 0.176474
vn -0.024697 -0.645566 0.763305
vn -0.515912 -0.578342 0.631945
vn 0.025214 -0.646318 0.762651
vn 0.558820 -0.561905 0.609904
vn -0.029116 -0.134873 0.990435
vn -0.625455 -0.121733 0.770706
vn 0.029047 -0.134711 0.990459
vn 0.647021 -0.119536 0.753043
vn -0.021776 -0.042294 0.998868
vn -0.636454 -0.031136 0.770686
vn 0.021786 -0.042296 0.998868
vn 0.678484 -0.027851 0.734087
vn -0.023076 -0.128396 0.991454
vn -0.675735 -0.095115 0.730982
vn 0.022866 -0.128578 0.991436
vn 0.718750 -0.090150 0.689399
vn -0.024907 0.055061 0.998172
vn -0.641948 0.039375 0.765737
vn 0.024918 0.055765 0.998133
vn 0.686008 0.038525 0.726573
vn -0.043608 0.544370 0.837711
vn -0.639561 0.447896 0.624780
vn 0.041296 0.542917 0.838770
vn 0.700229 0.412467 0.582710
vn -0.062685 0.827687 0.557678
vn -0.855059 0.452756 0.252756
vn 0.055339 0.826243 0.560588
vn 0.848464 0.459004 0.263484
vn -0.042504 0.751420 0.658453
vn -0.089838 0.779992 0.619308
vn 0.037184 0.751024 0.659227
vn 0.115413 0.778963 0.616358
vn -0.035405 0.136051 0.990069
vn -0.752258 0.139956 0.643832
vn 0.035741 0.136190 0.990038
vn 0.747323 0.135584 0.650481
vn -0.037703 0.011928 0.999218
vn -0.704832 0.029100 0.708777
vn 0.038318 0.011977 0.999194
vn 0.722298 0.031748 0.690853
vn -0.044603 0.221098 0.974231
vn -0.695969 0.173634 0.696763
vn 0.045240 0.220856 0.974257
vn 0.717390 0.168228 0.676055
vn -0.027952 0.733595 -0.679011
vn -0.904868 0.389784 -0.171120
vn 0.027952 0.733595 -0.679012
vn 0.911687 0.377190 -0.162955
vn -0.017490 0.546675 -0.837162
vn -0.788025 0.367293 -0.494076
vn 0.017490 0.546675 -0.837162
vn 0.759267 0.384878 -0.524769
vn -0.029143 0.435131 -0.899895
vn -0.828731 0.258285 -0.496481
vn 0.029401 0.435044 -0.899929
vn 0.817819 0.262789 -0.511970
vn -0.065587 0.214019 -0.974625
vn -0.854192 0.129210 -0.503647
vn 0.066102 0.214021 -0.974590
vn 0.850321 0.128740 -0.510274
vn -0.097051 0.017097 -0.995133
vn -0.878980 0.031588 -0.475811
vn 0.097255 0.017206 -0.995111
vn 0.878187 0.030782 -0.477325
vn -0.101397 -0.173550 -0.979591
vn -0.823744 -0.091602 -0.559513
vn 0.101355 -0.173563 -0.979593
vn 0.823802 -0.091578 -0.559432
vn -0.086285 -0.361836 -0.928240
vn -0.736647 -0.197857 -0.646687
vn 0.086284 -0.361836 -0.928240
vn 0.736781 -0.197416 -0.646669
vn -0.062170 -0.364264 -0.929218
vn -0.383870 -0.241240 -0.891317
vn 0.061869 -0.364069 -0.929315
vn 0.386346 -0.239981 -0.890587
vn -0.037078 -0.207467 -0.977539
vn -0.676060 -0.128707 -0.725519
vn 0.036076 -0.208842 -0.977284
vn 0.706292 -0.122444 -0.697251
vn -0.027114 -0.076735 -0.996683
vn -0.639196 -0.057402 -0.766899
vn 0.026333 -0.077245 -0.996664
vn 0.671783 -0.056976 -0.738554
vn -0.026382 -0.117811 -0.992685
vn -0.645998 -0.105885 -0.755960
vn 0.026334 -0.117305 -0.992747
vn 0.669596 -0.104615 -0.735321
vn 0.988739 0.071154 0.131655
vn 0.993810 0.052291 0.098017
vn 0.996704 0.063872 0.050018
vn 0.994185 0.107662 -0.002408
vn 0.970892 0.126993 -0.203080
vn 0.968925 0.041295 -0.243882
vn 0.887926 0.409801 0.208928
vn 0.982544 0.182371 -0.036712
vn 0.998700 0.031793 -0.039848
vn 0.999995 -0.000962 -0.003127
vn 0.999940 0.000477 -0.010931
vn 0.999457 -0.022563 -0.024018
vn 0.999957 0.002939 0.008814
vn 0.999952 -0.000409 0.009748
vn 0.999932 0.004642 0.010730
vn 0.999776 -0.016152 0.013694
vn -0.988188 0.068594 0.137036
vn -0.993951 0.050814 0.097358
vn -0.996729 0.066782 0.045505
vn -0.993735 0.111288 -0.010247
vn -0.970588 0.137647 -0.197514
vn -0.965415 0.045089 -0.256791
vn -0.891857 0.393450 0.223134
vn -0.986226 0.161809 -0.034300
vn -0.998245 0.037732 -0.045645
vn -0.999990 -0.000630 -0.004410
vn -0.999932 0.002874 -0.011268
vn -0.999577 -0.019590 -0.021506
vn -0.999963 0.002148 0.008316
vn -0.999982 -0.000631 0.005928
vn -0.999939 0.004823 0.009932
vn -0.999814 -0.014462 0.012760
s 1
usemtl M_sprout_SG
f 1/178/1 2/177/2 6/181/3 5/182/4
f 2/177/2 3/180/5 7/184/6 6/181/3
f 3/180/5 4/183/7 8/185/8 7/184/6
f 5/186/4 6/187/3 10/188/9 9/189/10
f 6/187/3 7/190/6 11/191/11 10/188/9
f 7/190/6 8/192/8 12/193/12 11/191/11
f 9/85/10 10/86/9 14/82/13 13/81/14
f 10/86/9 11/91/11 15/87/15 14/82/13
f 11/91/11 12/97/12 16/92/16 15/87/15
f 13/81/14 14/82/13 18/83/17 17/84/18
f 14/82/13 15/87/15 19/88/19 18/83/17
f 15/87/15 16/92/16 20/93/20 19/88/19
f 17/84/18 18/83/17 22/89/21 21/90/22
f 18/83/17 19/88/19 23/94/23 22/89/21
f 19/88/19 20/93/20 24/98/24 23/94/23
f 21/90/22 22/89/21 26/95/25 25/96/26
f 22/89/21 23/94/23 27/99/27 26/95/25
f 23/94/23 24/98/24 28/102/28 27/99/27
f 25/96/26 26/95/25 30/100/29 29/101/30
f 26/95/25 27/99/27 31/103/31 30/100/29
f 27/99/27 28/102/28 32/106/32 31/103/31
f 29/101/30 30/100/29 34/104/33 33/105/34
f 30/100/29 31/103/31 35/107/35 34/104/33
f 31/103/31 32/106/32 36/110/36 35/107/35
f 33/105/34 34/104/33 38/108/37 37/109/38
f 34/104/33 35/107/35 39/111/39 38/108/37
f 35/107/35 36/110/36 40/112/40 39/111/39
f 37/194/38 38/195/37 42/196/41 41/197/42
f 38/195/37 39/198/39 43/199/43 42/196/41
f 39/198/39 40/200/40 44/201/44 43/199/43
f 41/113/42 42/114/41 45/115/45 122/116/46
f 42/114/41 43/117/43 46/118/47 45/115/45
f 43/117/43 44/122/44 104/123/48 46/118/47
f 122/116/46 45/115/45 47/119/49 121/120/50
f 45/115/45 46/118/47 48/124/51 47/119/49
f 46/118/47 104/123/48 103/129/52 48/124/51
f 121/120/50 47/119/49 50/125/53 49/126/54
f 47/119/49 48/124/51 51/130/55 50/125/53
f 48/124/51 103/129/52 52/131/56 51/130/55
f 49/203/54 50/204/53 54/205/57 53/206/58
f 50/204/53 51/207/55 55/208/59 54/205/57
f 51/207/55 52/209/56 56/210/60 55/208/59
f 53/142/58 54/143/57 58/137/61 57/136/62
f 54/143/57 55/150/59 59/144/63 58/137/61
f 55/150/59 56/156/60 60/151/64 59/144/63
f 57/136/62 58/137/61 62/133/65 61/132/66
f 58/137/61 59/144/63 63/138/67 62/133/65
f 59/144/63 60/151/64 64/145/68 63/138/67
f 61/132/66 62/133/65 66/134/69 65/135/70
f 62/133/65 63/138/67 67/139/71 66/134/69
f 63/138/67 64/145/68 68/146/72 67/139/71
f 65/135/70 66/134/69 70/140/73 69/141/74
f 66/134/69 67/139/71 71/147/75 70/140/73
f 67/139/71 68/146/72 72/152/76 71/147/75
f 69/141/74 70/140/73 74/148/77 73/149/78
f 70/140/73 71/147/75 75/153/79 74/148/77
f 71/147/75 72/152/76 76/157/80 75/153/79
f 73/149/78 74/148/77 78/154/81 77/155/82
f 74/148/77 75/153/79 79/158/83 78/154/81
f 75/153/79 76/157/80 80/161/84 79/158/83
f 77/155/82 78/154/81 82/159/85 81/160/86
f 78/154/81 79/158/83 83/162/87 82/159/85
f 79/158/83 80/161/84 84/165/88 83/162/87
f 81/160/86 82/159/85 86/163/89 85/164/90
f 82/159/85 83/162/87 87/166/91 86/163/89
f 83/162/87 84/165/88 88/170/92 87/166/91
f 85/164/90 86/163/89 90/167/93 89/168/94
f 86/163/89 87/166/91 91/171/95 90/167/93
f 87/166/91 88/170/92 92/175/96 91/171/95
f 89/168/94 90/167/93 94/172/97 93/173/98
f 90/167/93 91/171/95 95/176/99 94/172/97
f 91/171/95 92/175/96 96/179/100 95/176/99
f 93/173/98 94/172/97 2/177/2 1/178/1
f 94/172/97 95/176/99 3/180/5 2/177/2
f 95/176/99 96/179/100 4/183/7 3/180/5
f 64/1/68 60/2/64 56/3/60 97/4/101
f 68/7/72 64/1/68 97/4/101 98/8/102
f 72/10/76 68/7/72 98/8/102 99/11/103
f 76/12/80 72/10/76 99/11/103 100/13/104
f 80/15/84 76/12/80 100/13/104 101/16/105
f 84/18/88 80/15/84 101/16/105 102/19/106
f 88/170/92 84/165/88 102/174/106
f 97/4/101 56/3/60 52/5/56 103/6/52
f 98/8/102 97/4/101 103/6/52 104/9/48
f 99/11/103 98/8/102 104/9/48
f 100/13/104 99/11/103 104/9/48 105/14/107
f 101/16/105 100/13/104 105/14/107 106/17/108
f 102/19/106 101/16/105 106/17/108 107/21/109
f 88/23/92 102/19/106 107/21/109 108/24/110
f 92/28/96 88/23/92 108/24/110 109/29/111
f 96/32/100 92/28/96 109/29/111 110/33/112
f 4/36/7 96/32/100 110/33/112 8/37/8
f 105/128/107 104/123/48 44/122/44
f 106/17/108 105/14/107 40/20/40
f 107/21/109 106/17/108 40/20/40 111/22/113
f 108/24/110 107/21/109 111/22/113 112/27/114
f 109/29/111 108/24/110 112/27/114 113/31/115
f 110/33/112 109/29/111 113/31/115 114/35/116
f 8/37/8 110/33/112 114/35/116 12/39/12
f 40/200/40 105/202/107 44/201/44
f 111/22/113 40/20/40 36/25/36 32/26/32
f 112/27/114 111/22/113 32/26/32 28/30/28
f 113/31/115 112/27/114 28/30/28 24/34/24
f 114/35/116 113/31/115 24/34/24 20/38/20
f 12/39/12 114/35/116 20/38/20 16/40/16
f 57/41/62 61/42/66 115/43/117 53/44/58
f 61/42/66 65/45/70 116/46/118 115/43/117
f 65/45/70 69/49/74 117/50/119 116/46/118
f 69/49/74 73/52/78 118/53/120 117/50/119
f 73/52/78 77/54/82 119/55/121 118/53/120
f 77/54/82 81/57/86 120/58/122 119/55/121
f 81/160/86 85/164/90 120/169/122
f 53/44/58 115/43/117 121/47/50 49/48/54
f 115/43/117 116/46/118 122/51/46 121/47/50
f 116/46/118 117/50/119 122/51/46
f 117/50/119 118/53/120 123/56/123 122/51/46
f 118/53/120 119/55/121 124/59/124 123/56/123
f 119/55/121 120/58/122 125/60/125 124/59/124
f 120/58/122 85/62/90 126/63/126 125/60/125
f 85/62/90 89/65/94 127/66/127 126/63/126
f 89/65/94 93/70/98 128/71/128 127/66/127
f 93/70/98 1/74/1 5/75/4 128/71/128
f 123/56/123 124/59/124 37/61/38
f 124/59/124 125/60/125 129/64/129 37/61/38
f 125/60/125 126/63/126 130/67/130 129/64/129
f 126/63/126 127/66/127 131/72/131 130/67/130
f 127/66/127 128/71/128 132/76/132 131/72/131
f 128/71/128 5/75/4 9/78/10 132/76/132
f 123/121/123 41/113/42 122/116/46
f 123/121/123 37/127/38 41/113/42
f 37/61/38 129/64/129 29/68/30 33/69/34
f 129/64/129 130/67/130 25/73/26 29/68/30
f 130/67/130 131/72/131 21/77/22 25/73/26
f 131/72/131 132/76/132 17/79/18 21/77/22
f 132/76/132 9/78/10 13/80/14 17/79/18
