# This file uses centimeters as units for non-parametric coordinates.

mtllib left_radius_link.mtl
v -0.039631 0.091512 0.009565
v -0.035509 0.091512 0.004930
v -0.026107 0.091512 -0.000650
v -0.013238 0.091512 -0.003577
v -0.000248 0.091511 -0.000585
v 0.009032 0.091511 0.004930
v 0.013154 0.091512 0.009565
v 0.016444 0.091512 0.016277
v -0.042611 0.091512 0.016055
v -0.014466 0.091512 0.025889
v -0.044733 0.091512 0.027200
v 0.017405 0.091511 0.033193
v -0.042611 0.091512 0.038345
v -0.039631 0.091512 0.044835
v -0.035509 0.091512 0.049470
v -0.026107 0.091512 0.055050
v -0.013238 0.091512 0.057976
v -0.001010 0.091512 0.054985
v 0.009032 0.091511 0.049470
v 0.013154 0.091512 0.044835
v 0.014737 0.089181 0.041991
v -0.041088 0.088842 0.045300
v -0.037036 0.088889 0.050236
v -0.027665 0.089181 0.056540
v -0.013992 0.090426 0.059088
v -0.000213 0.089181 0.056475
v 0.009036 0.088889 0.050236
v 0.013089 0.088830 0.045300
v 0.014841 0.088601 0.042061
v -0.041106 0.050841 0.045312
v -0.037052 0.050842 0.050252
v -0.027726 0.050842 0.056650
v -0.013923 0.050842 0.059792
v -0.000152 0.050842 0.056585
v 0.009052 0.050842 0.050252
v 0.013106 0.050834 0.045312
v 0.014843 0.050834 0.042062
v -0.035427 0.039903 0.042091
v -0.032745 0.039965 0.045657
v -0.024656 0.038127 0.049776
v -0.014288 0.037172 0.051502
v -0.003809 0.038155 0.049737
v 0.013294 0.029982 0.053400
v 0.021930 0.024465 0.053400
v -0.034746 0.023379 0.042014
v -0.031598 0.024840 0.046339
v -0.025433 0.020921 0.053400
v -0.013922 0.024927 0.053400
v 0.016813 0.002779 0.053400
v 0.030281 0.013117 0.053400
v -0.031923 0.007089 0.052282
v 0.031995 0.005064 0.053400
v -0.031244 -0.007195 0.053400
v 0.031994 -0.004916 0.053400
v -0.028458 -0.016671 0.053400
v -0.024454 -0.021998 0.053400
v 0.030395 -0.012707 0.053400
v -0.019132 -0.026097 0.053400
v -0.011730 -0.030576 0.053400
v 0.000051 -0.032921 0.053400
v 0.012465 -0.030555 0.053400
v 0.021640 -0.024460 0.053400
v -0.028202 -0.017789 0.041973
v -0.024190 -0.023191 0.042255
v -0.019407 -0.026493 0.042709
v -0.011730 -0.030576 0.043500
v 0.000051 -0.032921 0.043500
v 0.012465 -0.030555 0.043500
v 0.021640 -0.024460 0.043500
v -0.028665 -0.018121 0.027200
v -0.022761 -0.024774 0.027200
v -0.011730 -0.030576 0.027200
v 0.000051 -0.032921 0.027200
v 0.012465 -0.030555 0.027200
v 0.021640 -0.024460 0.027200
v -0.028202 -0.017789 0.012427
v -0.024190 -0.023191 0.012145
v -0.019407 -0.026493 0.011691
v -0.011730 -0.030576 0.010900
v 0.000051 -0.032921 0.010900
v 0.012465 -0.030555 0.010900
v 0.021640 -0.024460 0.010900
v -0.028359 -0.016802 0.001000
v -0.023829 -0.022829 0.001000
v -0.019132 -0.026097 0.001000
v -0.011730 -0.030576 0.001000
v 0.000051 -0.032921 0.001000
v 0.012465 -0.030555 0.001000
v 0.021640 -0.024460 0.001000
v -0.030653 -0.011656 0.001000
v 0.019593 0.001708 0.001000
v 0.030395 -0.012707 0.001000
v -0.032669 -0.003310 0.001000
v 0.031994 -0.004916 0.001000
v -0.033596 0.006538 0.004349
v -0.032396 0.006287 0.001000
v 0.031995 0.005064 0.001000
v -0.034744 0.023389 0.012384
v -0.031598 0.024840 0.008061
v -0.025433 0.020921 0.001000
v -0.013922 0.030931 0.001000
v 0.001004 0.032932 0.001000
v 0.030281 0.013117 0.001000
v -0.035738 0.040009 0.012309
v -0.032745 0.039965 0.008743
v -0.024655 0.038127 0.004624
v -0.014288 0.037173 0.002898
v -0.003809 0.038155 0.004663
v 0.012567 0.031091 0.001000
v 0.022829 0.023829 0.001000
v -0.041106 0.050834 0.009088
v -0.037052 0.050842 0.004148
v -0.027726 0.050842 -0.002250
v -0.013923 0.050842 -0.005392
v -0.000152 0.050842 -0.002185
v 0.009052 0.050842 0.004148
v 0.013106 0.050834 0.009088
v 0.014843 0.050834 0.012338
v -0.041089 0.088839 0.009100
v -0.037036 0.088889 0.004164
v -0.027665 0.089181 -0.002140
v -0.013992 0.090426 -0.004688
v -0.000213 0.089181 -0.002075
v 0.009036 0.088889 0.004164
v 0.013089 0.088830 0.009100
v 0.014841 0.088601 0.012339
v 0.030395 -0.012707 0.010900
v 0.031994 -0.004916 0.010900
v 0.031995 0.005064 0.010900
v 0.029560 0.014380 0.010900
v 0.023238 0.024131 0.012263
v 0.017745 0.050834 0.020087
v 0.017743 0.088601 0.020087
v 0.030395 -0.012707 0.027200
v 0.031994 -0.004916 0.027200
v 0.031995 0.005064 0.027200
v 0.029560 0.014380 0.027200
v 0.023679 0.024679 0.027201
v 0.018600 0.050834 0.027200
v 0.018595 0.088638 0.027200
v 0.030395 -0.012707 0.043500
v 0.031994 -0.004916 0.043500
v 0.031995 0.005064 0.043500
v 0.029560 0.014380 0.043500
v 0.023239 0.024131 0.042137
v 0.017745 0.050834 0.034313
v 0.017743 0.088601 0.034313
v -0.031781 -0.012140 0.013868
v -0.034915 -0.000632 0.014160
v -0.038058 0.009526 0.017203
v -0.038409 0.024582 0.018251
v -0.038625 0.039970 0.017938
v -0.044428 0.050963 0.015741
v -0.044403 0.088889 0.015742
v -0.033477 -0.011411 0.027200
v -0.036456 -0.001076 0.027200
v -0.039888 0.010834 0.027200
v -0.040000 0.023576 0.027200
v -0.040390 0.039965 0.027200
v -0.046600 0.050849 0.027200
v -0.046577 0.088889 0.027200
v -0.031781 -0.012140 0.040532
v -0.034915 -0.000632 0.040240
v -0.038056 0.009541 0.037207
v -0.038410 0.024582 0.036148
v -0.038625 0.039970 0.036462
v -0.044428 0.050963 0.038659
v -0.044403 0.088889 0.038658
v 0.007342 0.038291 0.012594
v 0.009883 0.035767 0.017262
v 0.010588 0.035964 0.027200
v 0.009883 0.035766 0.037138
v 0.006946 0.038729 0.041743
v -0.000933 0.037847 0.007554
v 0.001029 0.039809 0.048605
vt 0.823481 0.237577
vt 0.833783 0.237577
vt 0.831267 0.239389
vt 0.834195 0.239662
vt 0.831328 0.239840
vt 0.824472 0.239840
vt 0.837884 0.237577
vt 0.838562 0.239617
vt 0.831329 0.269206
vt 0.834205 0.269206
vt 0.824473 0.269206
vt 0.818179 0.239811
vt 0.838576 0.269200
vt 0.831047 0.278618
vt 0.826972 0.280922
vt 0.818179 0.269206
vt 0.808514 0.237577
vt 0.811885 0.239840
vt 0.844082 0.239389
vt 0.844180 0.269200
vt 0.837119 0.277779
vt 0.841362 0.289709
vt 0.831395 0.289969
vt 0.818179 0.280768
vt 0.811885 0.269206
vt 0.805029 0.239840
vt 0.841362 0.285420
vt 0.841362 0.298533
vt 0.832602 0.297551
vt 0.818180 0.289543
vt 0.809385 0.280922
vt 0.805029 0.269206
vt 0.802163 0.239662
vt 0.802575 0.237577
vt 0.841362 0.304795
vt 0.832602 0.304795
vt 0.818179 0.297551
vt 0.804962 0.289969
vt 0.805254 0.278959
vt 0.802153 0.269206
vt 0.797796 0.239617
vt 0.798473 0.237577
vt 0.841362 0.312555
vt 0.832602 0.312555
vt 0.818179 0.304795
vt 0.803756 0.297551
vt 0.794996 0.290204
vt 0.797782 0.269200
vt 0.792276 0.239389
vt 0.793593 0.237577
vt 0.841362 0.318613
vt 0.832602 0.318613
vt 0.818179 0.312555
vt 0.803756 0.304795
vt 0.794996 0.298533
vt 0.800796 0.279304
vt 0.792178 0.269200
vt 0.832602 0.327752
vt 0.841362 0.327752
vt 0.818179 0.318613
vt 0.803756 0.312555
vt 0.794996 0.304795
vt 0.798237 0.279065
vt 0.818179 0.327752
vt 0.841362 0.332491
vt 0.832602 0.332491
vt 0.803756 0.318613
vt 0.794996 0.312555
vt 0.803756 0.327752
vt 0.818179 0.332491
vt 0.794996 0.318613
vt 0.794996 0.327752
vt 0.803756 0.332491
vt 0.794996 0.332491
vt 0.681712 0.827080
vt 0.688675 0.839914
vt 0.684928 0.841018
vt 0.678809 0.826889
vt 0.692852 0.829355
vt 0.693760 0.840822
vt 0.688610 0.852572
vt 0.685519 0.852538
vt 0.678809 0.838034
vt 0.678809 0.819579
vt 0.690214 0.821619
vt 0.701516 0.830352
vt 0.701516 0.840056
vt 0.693489 0.852542
vt 0.685819 0.860817
vt 0.681537 0.860822
vt 0.681950 0.851138
vt 0.678809 0.813223
vt 0.689962 0.812854
vt 0.701516 0.821281
vt 0.710189 0.829367
vt 0.709272 0.840822
vt 0.701516 0.852538
vt 0.691584 0.860914
vt 0.685829 0.889762
vt 0.681551 0.889800
vt 0.678809 0.809304
vt 0.688712 0.808552
vt 0.701516 0.813409
vt 0.712818 0.821619
vt 0.723255 0.827499
vt 0.714356 0.839906
vt 0.709544 0.852542
vt 0.701516 0.860828
vt 0.691586 0.889800
vt 0.686232 0.891797
vt 0.682215 0.891797
vt 0.675992 0.860823
vt 0.676087 0.890022
vt 0.678809 0.804713
vt 0.688468 0.804438
vt 0.701516 0.808299
vt 0.713071 0.812854
vt 0.724224 0.816620
vt 0.718104 0.841019
vt 0.714422 0.852491
vt 0.711448 0.860914
vt 0.701516 0.889800
vt 0.691857 0.891797
vt 0.678809 0.802224
vt 0.688074 0.801923
vt 0.701516 0.803232
vt 0.714320 0.808552
vt 0.724224 0.838034
vt 0.717513 0.852538
vt 0.717214 0.860821
vt 0.711447 0.889800
vt 0.701516 0.891797
vt 0.714565 0.804438
vt 0.724224 0.809403
vt 0.721083 0.851138
vt 0.721495 0.860822
vt 0.717204 0.889764
vt 0.711176 0.891797
vt 0.714958 0.801923
vt 0.724224 0.805346
vt 0.721481 0.889800
vt 0.716801 0.891797
vt 0.724224 0.802224
vt 0.720818 0.891797
vt 0.726945 0.890022
vt 0.727041 0.860823
vt 0.763006 0.863454
vt 0.763645 0.861810
vt 0.771066 0.861605
vt 0.771063 0.863454
vt 0.753193 0.863454
vt 0.752588 0.862688
vt 0.742867 0.863454
vt 0.741616 0.861810
vt 0.752644 0.834776
vt 0.763694 0.834776
vt 0.735323 0.863454
vt 0.734098 0.861604
vt 0.741568 0.834776
vt 0.752351 0.825137
vt 0.760760 0.825830
vt 0.744032 0.825810
vt 0.774484 0.820067
vt 0.752645 0.816502
vt 0.764642 0.826996
vt 0.771079 0.834776
vt 0.734085 0.834776
vt 0.737541 0.827106
vt 0.743408 0.813678
vt 0.777307 0.800885
vt 0.738200 0.803924
vt 0.781413 0.816177
vt 0.738745 0.793852
vt 0.788115 0.808174
vt 0.744193 0.783414
vt 0.789490 0.802496
vt 0.740981 0.787170
vt 0.748464 0.780524
vt 0.754403 0.777365
vt 0.789489 0.795459
vt 0.763857 0.775711
vt 0.788206 0.789965
vt 0.773818 0.777380
vt 0.781180 0.781677
vt 0.624855 0.853961
vt 0.623019 0.850342
vt 0.663230 0.840944
vt 0.628480 0.858200
vt 0.621406 0.844472
vt 0.632240 0.860498
vt 0.621625 0.837723
vt 0.638163 0.863648
vt 0.648354 0.818985
vt 0.647591 0.865297
vt 0.657607 0.820280
vt 0.636409 0.820393
vt 0.627197 0.827432
vt 0.657526 0.863633
vt 0.644502 0.815312
vt 0.665820 0.825387
vt 0.636116 0.816003
vt 0.627819 0.815332
vt 0.664868 0.859347
vt 0.671784 0.832920
vt 0.636408 0.806390
vt 0.647428 0.806390
vt 0.625362 0.806390
vt 0.671875 0.851081
vt 0.673156 0.838584
vt 0.636353 0.778553
vt 0.647380 0.779428
vt 0.621345 0.814040
vt 0.617899 0.806391
vt 0.625410 0.779428
vt 0.673155 0.845602
vt 0.636956 0.777789
vt 0.647352 0.777789
vt 0.626657 0.777789
vt 0.617911 0.779634
vt 0.619134 0.777789
vt 0.653323 0.699811
vt 0.655450 0.704762
vt 0.635363 0.712266
vt 0.650381 0.696274
vt 0.656964 0.713266
vt 0.643671 0.692017
vt 0.655450 0.721770
vt 0.634487 0.689784
vt 0.653323 0.726721
vt 0.650381 0.730258
vt 0.625216 0.692067
vt 0.643671 0.734515
vt 0.618593 0.696274
vt 0.634487 0.736748
vt 0.613303 0.704932
vt 0.615651 0.699811
vt 0.625760 0.734466
vt 0.612617 0.717838
vt 0.618593 0.730258
vt 0.615651 0.726721
vt 0.230018 0.457241
vt 0.229796 0.449663
vt 0.235989 0.450224
vt 0.235989 0.457241
vt 0.227091 0.438669
vt 0.235989 0.438669
vt 0.245492 0.450224
vt 0.245492 0.457241
vt 0.229796 0.427675
vt 0.235989 0.427115
vt 0.245492 0.438669
vt 0.255507 0.450224
vt 0.255507 0.457241
vt 0.230018 0.420097
vt 0.235989 0.420097
vt 0.245492 0.427115
vt 0.255507 0.438669
vt 0.245492 0.420097
vt 0.255507 0.427115
vt 0.255507 0.420097
vt 0.355352 0.152982
vt 0.352875 0.150817
vt 0.358490 0.140654
vt 0.348558 0.144588
vt 0.358490 0.132929
vn -0.000002 1.000000 0.000004
vn 0.000000 1.000000 -0.000002
vn 0.000000 1.000000 -0.000000
vn -0.000003 1.000000 0.000005
vn 0.000001 1.000000 0.000004
vn 0.000009 1.000000 0.000002
vn 0.000005 1.000000 -0.000002
vn -0.000006 1.000000 -0.000007
vn -0.000004 1.000000 0.000001
vn -0.000008 1.000000 -0.000008
vn 0.000003 1.000000 0.000000
vn -0.000001 1.000000 0.000003
vn 0.000000 1.000000 0.000003
vn -0.000002 1.000000 -0.000003
vn -0.000003 1.000000 -0.000004
vn -0.000000 1.000000 -0.000004
vn -0.000001 1.000000 -0.000002
vn 0.000003 1.000000 -0.000005
vn 0.000003 1.000000 -0.000004
vn -0.000002 1.000000 -0.000001
vn 0.950463 0.281424 0.131985
vn 0.824508 0.150411 0.545493
vn 0.912459 0.198666 0.357702
vn -0.717229 0.516644 0.467611
vn -0.843350 0.037954 0.536022
vn -0.642758 0.038449 0.765104
vn -0.510427 0.563637 0.649444
vn -0.365380 0.041503 0.929933
vn -0.297477 0.638522 0.709786
vn -0.000778 0.044940 0.998989
vn 0.052115 0.635769 0.770118
vn 0.365337 0.033217 0.930283
vn 0.340224 0.518294 0.784614
vn 0.641751 0.024333 0.766527
vn 0.600069 0.318293 0.733898
vn 0.813483 0.008056 0.581533
vn 0.920788 0.008238 0.389976
vn -0.838176 -0.116054 0.532910
vn -0.639020 -0.116219 0.760359
vn -0.366414 -0.120210 0.922654
vn 0.003228 -0.120970 0.992651
vn 0.361405 -0.109763 0.925926
vn 0.643439 -0.120363 0.755976
vn 0.799018 -0.131634 0.586722
vn 0.904192 -0.104547 0.414134
vn -0.811693 -0.256012 0.524987
vn -0.635621 -0.266928 0.724386
vn -0.353440 -0.205217 0.912670
vn -0.024739 -0.131062 0.991065
vn 0.129128 -0.071994 0.989011
vn 0.520881 -0.503070 0.689640
vn 0.852608 0.302182 0.426316
vn -0.873742 0.042999 0.484485
vn -0.689879 0.102029 0.716699
vn -0.127859 0.016422 0.991656
vn -0.025220 0.043189 0.998749
vn 0.190367 0.338182 0.921625
vn -0.005009 -0.003384 0.999982
vn 0.579065 0.556954 0.595387
vn 0.000001 0.000000 1.000000
vn -0.922662 -0.013674 0.385367
vn -0.017612 0.008402 0.999810
vn 0.000001 0.000000 1.000000
vn -0.007753 0.037354 0.999272
vn 0.000002 0.000003 1.000000
vn 0.000025 0.000010 1.000000
vn -0.000000 -0.000001 1.000000
vn -0.000002 0.000000 1.000000
vn -0.000001 0.000001 1.000000
vn 0.000000 -0.000000 1.000000
vn 0.000000 -0.000001 1.000000
vn -0.000002 0.000000 1.000000
vn -0.000001 -0.000000 1.000000
vn -0.879934 -0.468167 0.080846
vn -0.838077 -0.542758 0.055146
vn -0.717416 -0.695798 0.034337
vn -0.715224 -0.697071 0.050467
vn -0.506049 -0.862286 0.019426
vn -0.537713 -0.842233 0.038831
vn -0.324460 -0.945889 0.004350
vn -0.327735 -0.944715 0.010136
vn 0.000872 -1.000000 -0.000000
vn 0.000872 -1.000000 0.000001
vn 0.364878 -0.931055 -0.000000
vn 0.364880 -0.931055 0.000002
vn 0.705502 -0.708708 -0.000000
vn 0.705501 -0.708709 -0.000001
vn 0.883652 -0.468144 -0.000001
vn 0.883652 -0.468144 -0.000005
vn -0.800808 -0.598922 -0.000002
vn -0.607827 -0.794070 -0.000001
vn -0.324007 -0.946055 -0.000001
vn 0.000872 -1.000000 -0.000001
vn 0.364877 -0.931056 -0.000001
vn 0.705501 -0.708709 0.000000
vn 0.883652 -0.468144 0.000001
vn -0.818152 -0.573467 -0.041987
vn -0.720108 -0.693158 -0.031265
vn -0.500847 -0.865379 -0.016472
vn -0.324459 -0.945890 -0.004351
vn 0.000871 -1.000000 -0.000002
vn 0.364878 -0.931055 0.000000
vn 0.705501 -0.708709 -0.000000
vn 0.883651 -0.468145 -0.000000
vn -0.843525 -0.534408 -0.053606
vn -0.708724 -0.704084 -0.044450
vn -0.526513 -0.849551 -0.032363
vn -0.327732 -0.944716 -0.010136
vn 0.000869 -1.000000 -0.000001
vn 0.364877 -0.931056 -0.000001
vn 0.705502 -0.708708 -0.000001
vn 0.883652 -0.468144 -0.000001
vn 0.000001 -0.000001 -1.000000
vn 0.000000 -0.000001 -1.000000
vn -0.000000 -0.000000 -1.000000
vn 0.000000 -0.000001 -1.000000
vn -0.000000 -0.000000 -1.000000
vn 0.000000 -0.000001 -1.000000
vn 0.000000 -0.000001 -1.000000
vn -0.000001 -0.000000 -1.000000
vn 0.000000 -0.000001 -1.000000
vn -0.000002 -0.000001 -1.000000
vn 0.000000 0.000000 -1.000000
vn -0.000004 -0.000002 -1.000000
vn -0.000000 0.000000 -1.000000
vn -0.000004 0.000002 -1.000000
vn -0.938423 0.017339 -0.345052
vn -0.880473 0.053151 -0.471107
vn -0.708566 0.113926 -0.696387
vn -0.833616 0.194211 -0.517075
vn -0.206798 0.086777 -0.974528
vn 0.005878 0.058852 -0.998249
vn -0.000001 0.000001 -1.000000
vn -0.811023 -0.260768 -0.523681
vn -0.631293 -0.264327 -0.729109
vn -0.379037 -0.214681 -0.900135
vn -0.044414 -0.214023 -0.975818
vn -0.050658 0.129090 -0.990338
vn 0.282401 -0.260354 -0.923291
vn 0.238527 0.507749 -0.827826
vn 0.554753 0.542044 -0.631219
vn -0.838308 -0.114133 -0.533117
vn -0.638326 -0.115998 -0.760976
vn -0.366414 -0.120211 -0.922654
vn 0.003227 -0.120972 -0.992651
vn 0.368408 -0.117952 -0.922151
vn 0.387012 0.866614 -0.314964
vn 0.815435 0.319346 -0.482788
vn -0.843349 0.037933 -0.536025
vn -0.642747 0.038455 -0.765113
vn -0.365381 0.041502 -0.929933
vn -0.000779 0.044550 -0.999007
vn 0.364195 0.031359 -0.930795
vn 0.634945 -0.134181 -0.760816
vn 0.642474 0.020304 -0.766039
vn 0.782142 -0.139727 -0.607232
vn 0.815501 0.009918 -0.578671
vn 0.919451 0.004257 -0.393180
vn 0.907850 -0.101796 -0.406750
vn -0.717341 0.516445 -0.467660
vn -0.510499 0.563580 -0.649437
vn -0.297476 0.638517 -0.709791
vn 0.051374 0.618854 -0.783825
vn 0.373775 0.460234 -0.805281
vn 0.617991 0.273224 -0.737181
vn 0.832144 0.113087 -0.542907
vn 0.949340 0.188689 -0.251298
vn 0.995968 -0.089709 0.000001
vn 0.995968 -0.089708 0.000001
vn 0.993838 0.110403 0.009805
vn 0.992803 0.119707 0.003625
vn 0.907796 0.419355 -0.006914
vn 0.907472 0.419954 -0.011523
vn 0.750283 0.660421 -0.030333
vn 0.961542 -0.137526 -0.237747
vn 0.887565 0.442217 -0.129121
vn 0.972127 0.039125 -0.231168
vn 0.995968 -0.089708 -0.000000
vn 0.992137 0.125155 -0.000001
vn 0.915845 0.401533 -0.000002
vn 0.751208 0.660065 0.000002
vn 0.986853 -0.161620 -0.000004
vn 0.938953 0.344045 -0.000002
vn 0.998952 0.045260 -0.006764
vn 0.995968 -0.089708 -0.000000
vn 0.992803 0.119707 -0.003623
vn 0.904666 0.425780 0.017072
vn 0.750882 0.659494 0.035272
vn 0.960392 -0.138382 0.241863
vn 0.881975 0.451850 0.133984
vn 0.969179 0.009076 0.246189
vn 0.995968 -0.089708 0.000001
vn 0.993838 0.110404 -0.009793
vn 0.902117 0.431108 0.018189
vn -0.923863 -0.372104 -0.089532
vn -0.939752 -0.329765 -0.090124
vn -0.964040 -0.220062 -0.148992
vn -0.967883 -0.202658 -0.148765
vn -0.964655 -0.079855 -0.251125
vn -0.951530 0.001148 -0.307555
vn -0.919572 -0.257850 -0.296481
vn -0.950650 -0.111194 -0.289655
vn -0.956402 0.041977 -0.289020
vn -0.796003 0.554668 -0.242326
vn -0.923970 -0.382466 0.000000
vn -0.963300 -0.268426 0.000093
vn -0.991807 -0.127745 0.000081
vn -0.999883 -0.015268 0.000002
vn -0.965549 -0.260221 -0.000006
vn -0.993739 -0.111727 0.000000
vn -0.999093 0.042586 0.000001
vn -0.817416 0.576048 0.000000
vn -0.919643 -0.379923 0.099572
vn -0.960167 -0.190823 0.204124
vn -0.958285 -0.076842 0.275290
vn -0.947223 0.002316 0.320567
vn -0.916536 -0.259787 0.304091
vn -0.950086 -0.112556 0.290979
vn -0.956399 0.041971 0.289031
vn -0.795971 0.554751 0.242243
vn -0.952446 -0.223967 0.206604
vn 0.521273 -0.529596 -0.669180
vn 0.387955 0.748389 0.537964
s 1
usemtl M_sprout_SG
f 1/221/1 9/222/2 10/223/3 2/224/4
f 2/224/4 10/223/3 3/226/5
f 3/226/5 10/223/3 4/228/6
f 4/228/6 10/223/3 5/231/7
f 5/231/7 10/223/3 6/233/8
f 6/233/8 10/223/3 8/235/9 7/236/10
f 9/222/2 11/225/11 10/223/3
f 10/223/3 12/238/12 8/235/9
f 11/225/11 13/227/13 10/223/3
f 13/227/13 14/229/14 15/230/15 10/223/3
f 10/223/3 15/230/15 16/232/16
f 10/223/3 16/232/16 17/234/17
f 10/223/3 17/234/17 18/237/18
f 10/223/3 18/237/18 19/239/19
f 10/223/3 19/239/19 20/240/20 12/238/12
s 2
f 12/1/21 20/2/22 21/3/23
f 14/142/24 22/137/25 23/141/26 15/144/27
f 15/157/27 23/158/26 24/154/28 16/153/29
f 16/153/29 24/154/28 25/152/30 17/151/31
f 17/151/31 25/152/30 26/148/32 18/147/33
f 18/147/33 26/148/32 27/149/34 19/150/35
f 19/7/35 27/8/34 28/4/36 20/2/22
f 20/2/22 28/4/36 29/5/37 21/3/23
f 23/141/26 22/137/25 30/130/38 31/136/39
f 24/145/28 23/141/26 31/136/39 32/146/40
f 25/152/30 24/154/28 32/159/40 33/155/41
f 26/148/32 25/152/30 33/155/41 34/156/42
f 27/8/34 26/19/32 34/20/42 35/13/43
f 28/4/36 27/8/34 35/13/43 36/10/44
f 37/9/45 29/5/37 28/4/36 36/10/44
f 30/130/38 38/120/46 39/129/47 31/136/39
f 31/167/39 39/168/47 40/162/48 32/159/40
f 32/159/40 40/162/48 41/160/49 33/155/41
f 33/155/41 41/160/49 42/161/50 34/156/42
f 34/156/42 42/161/50 175/165/51 35/166/43
f 35/13/43 175/21/51 173/14/52 36/10/44
f 36/10/44 173/14/52 37/9/45
f 38/120/46 45/106/53 46/119/54 39/129/47
f 39/129/47 46/119/54 47/128/55 40/135/48
f 40/162/48 47/169/55 48/164/56 41/160/49
f 43/163/57 42/161/50 41/160/49 48/164/56
f 43/163/57 49/170/58 44/172/59
f 44/172/59 49/170/58 50/174/60
f 45/106/53 51/105/61 46/119/54
f 46/119/54 51/105/61 47/128/55
f 47/169/55 51/171/62 49/170/58 48/164/56
f 49/170/58 52/176/63 50/174/60
f 51/171/62 53/173/64 49/170/58
f 49/170/58 54/180/65 52/176/63
f 53/173/64 55/177/66 56/175/67
f 53/173/64 56/175/67 49/170/58
f 49/170/58 57/182/68 54/180/65
f 56/175/67 58/178/69 59/179/70 49/170/58
f 49/170/58 59/179/70 60/181/71
f 49/170/58 60/181/71 61/183/72
f 49/170/58 61/183/72 62/184/73
f 49/170/58 62/184/73 57/182/68
f 55/134/74 63/127/75 64/133/76 56/140/77
f 56/140/77 64/133/76 65/139/78 58/143/79
f 58/241/79 65/242/78 66/243/80 59/244/81
f 59/244/81 66/243/80 67/247/82 60/248/83
f 60/248/83 67/247/82 68/252/84 61/253/85
f 61/65/85 68/66/84 69/58/86 62/59/87
f 69/58/86 141/52/88 57/51/89 62/59/87
f 63/127/75 70/116/90 71/126/91 64/133/76
f 64/133/76 71/126/91 65/139/78
f 65/242/78 71/245/91 72/246/92 66/243/80
f 66/243/80 72/246/92 73/251/93 67/247/82
f 67/247/82 73/251/93 74/257/94 68/252/84
f 68/66/84 74/70/94 75/64/95 69/58/86
f 75/64/95 134/60/96 141/52/88 69/58/86
f 70/116/90 76/102/97 77/115/98 71/126/91
f 71/126/91 77/115/98 78/125/99
f 71/245/91 78/249/99 79/250/100 72/246/92
f 72/246/92 79/250/100 80/256/101 73/251/93
f 73/251/93 80/256/101 81/259/102 74/257/94
f 74/70/94 81/73/102 82/69/103 75/64/95
f 82/69/103 127/67/104 134/60/96 75/64/95
f 76/102/97 83/101/105 84/114/106 77/115/98
f 77/115/98 84/114/106 85/124/107 78/125/99
f 78/249/99 85/254/107 86/255/108 79/250/100
f 79/250/100 86/255/108 87/258/109 80/256/101
f 80/256/101 87/258/109 88/260/110 81/259/102
f 81/73/102 88/74/110 89/72/111 82/69/103
f 89/72/111 92/71/112 127/67/104 82/69/103
f 83/185/113 90/186/114 91/187/115 84/188/116
f 84/188/116 91/187/115 85/190/117
f 85/190/117 91/187/115 86/192/118
f 86/192/118 91/187/115 87/194/119
f 87/194/119 91/187/115 88/198/120
f 88/198/120 91/187/115 89/203/121
f 89/203/121 91/187/115 92/208/122
f 90/186/114 93/189/123 91/187/115
f 91/187/115 94/215/124 92/208/122
f 93/189/123 96/191/125 91/187/115
f 91/187/115 97/209/126 94/215/124
f 95/75/127 98/76/128 99/77/129 96/78/130
f 96/78/130 99/77/129 100/83/131
f 102/193/132 91/187/115 96/191/125
f 91/187/115 103/204/133 97/209/126
f 98/76/128 104/81/134 105/82/135 99/77/129
f 99/77/129 105/82/135 106/91/136 100/83/131
f 100/197/131 106/202/136 107/201/137 101/196/138
f 101/196/138 107/201/137 108/199/139 102/193/132
f 102/193/132 108/199/139 109/195/140
f 91/187/115 109/195/140 110/200/141
f 91/187/115 110/200/141 103/204/133
f 104/81/134 111/89/142 112/90/143 105/82/135
f 105/212/135 112/213/143 113/207/144 106/202/136
f 106/202/136 113/207/144 114/205/145 107/201/137
f 107/201/137 114/205/145 115/206/146 108/199/139
f 108/261/139 174/262/147 109/263/140
f 109/263/140 174/262/147 169/264/148 110/265/141
f 112/90/143 111/89/142 119/99/149 120/100/150
f 113/112/144 112/90/143 120/100/150 121/113/151
f 114/205/145 113/207/144 121/214/151 122/210/152
f 115/206/146 114/205/145 122/210/152 123/211/153
f 116/48/154 115/57/146 123/49/153 124/41/155
f 117/40/156 116/48/154 124/41/155 125/33/157
f 126/26/158 118/32/159 117/40/156 125/33/157
f 119/99/149 1/110/160 2/111/161 120/100/150
f 120/219/150 2/220/161 3/218/162 121/214/151
f 121/214/151 3/218/162 4/216/163 122/210/152
f 122/210/152 4/216/163 5/217/164 123/211/153
f 123/49/153 5/50/164 6/42/165 124/41/155
f 124/41/155 6/42/165 7/34/166 125/33/157
f 125/33/157 7/34/166 8/17/167 126/26/158
f 94/68/168 128/61/169 127/67/104 92/71/112
f 97/62/170 129/54/171 128/61/169 94/68/168
f 103/55/172 130/46/173 129/54/171 97/62/170
f 110/47/141 131/38/174 130/46/173 103/55/172
f 118/32/159 132/25/175 170/31/176 169/39/148
f 133/18/177 132/25/175 118/32/159 126/26/158
f 8/17/167 133/18/177 126/26/158
f 128/61/169 135/53/178 134/60/96 127/67/104
f 129/54/171 136/45/179 135/53/178 128/61/169
f 130/46/173 137/37/180 136/45/179 129/54/171
f 131/38/174 138/30/181 137/37/180 130/46/173
f 132/25/175 139/16/182 171/24/183 170/31/176
f 140/12/184 139/16/182 132/25/175 133/18/177
f 8/17/167 12/1/21 140/12/184 133/18/177
f 135/53/178 142/44/185 141/52/88 134/60/96
f 136/45/179 143/36/186 142/44/185 135/53/178
f 137/37/180 144/29/187 143/36/186 136/45/179
f 138/30/181 145/23/188 144/29/187 137/37/180
f 139/16/182 146/11/189 172/15/190 171/24/183
f 147/6/191 146/11/189 139/16/182 140/12/184
f 12/1/21 147/6/191 140/12/184
f 142/44/185 54/43/192 57/51/89 141/52/88
f 143/36/186 52/35/193 54/43/192 142/44/185
f 144/29/187 50/28/194 52/35/193 143/36/186
f 145/23/188 44/22/59 50/28/194 144/29/187
f 146/11/189 37/9/45 173/14/52 172/15/190
f 37/9/45 146/11/189 147/6/191 29/5/37
f 12/1/21 21/3/23 29/5/37 147/6/191
f 83/101/105 76/102/97 148/93/195 90/92/196
f 90/92/196 148/93/195 149/85/197 93/84/198
f 93/84/198 149/85/197 150/79/199 95/75/127
f 95/75/127 150/79/199 151/80/200 98/76/128
f 98/76/128 151/80/200 152/88/201 104/81/134
f 104/81/134 152/88/201 153/98/202 111/89/142
f 153/98/202 154/109/203 119/99/149 111/89/142
f 119/99/149 154/109/203 9/123/204 1/110/160
f 76/102/97 70/116/90 155/103/205 148/93/195
f 148/93/195 155/103/205 156/94/206 149/85/197
f 149/85/197 156/94/206 157/86/207 150/79/199
f 150/79/199 157/86/207 158/87/208 151/80/200
f 151/80/200 158/87/208 159/97/209 152/88/201
f 152/88/201 159/97/209 160/108/210 153/98/202
f 160/108/210 161/122/211 154/109/203 153/98/202
f 154/109/203 161/122/211 11/132/212 9/123/204
f 70/116/90 63/127/75 162/117/213 155/103/205
f 155/103/205 162/117/213 163/104/214 156/94/206
f 156/94/206 163/104/214 164/95/215 157/86/207
f 157/86/207 164/95/215 165/96/216 158/87/208
f 158/87/208 165/96/216 166/107/217 159/97/209
f 159/97/209 166/107/217 167/121/218 160/108/210
f 167/121/218 168/131/219 161/122/211 160/108/210
f 161/122/211 168/131/219 13/138/220 11/132/212
f 63/127/75 55/134/74 53/118/221 162/117/213
f 162/117/213 53/118/221 163/104/214
f 163/104/214 53/118/221 51/105/61 164/95/215
f 164/95/215 51/105/61 45/106/53 165/96/216
f 165/96/216 45/106/53 38/120/46 166/107/217
f 166/107/217 38/120/46 30/130/38 167/121/218
f 22/137/25 168/131/219 167/121/218 30/130/38
f 168/131/219 22/137/25 14/142/24 13/138/220
f 93/84/198 95/75/127 96/78/130
f 101/196/138 102/193/132 96/191/125 100/197/131
f 49/170/58 43/163/57 48/164/56
f 102/193/132 109/195/140 91/187/115
f 169/39/148 170/31/176 131/38/174 110/47/141
f 171/24/183 138/30/181 131/38/174 170/31/176
f 172/15/190 145/23/188 138/30/181 171/24/183
f 173/14/52 44/22/59 145/23/188 172/15/190
f 169/39/148 117/40/156 118/32/159
f 174/56/222 116/48/154 117/40/156 169/39/148
f 108/63/139 115/57/146 116/48/154 174/56/222
f 175/21/223 43/27/57 44/22/59 173/14/52
f 42/161/50 43/163/57 175/165/223
