# This file uses centimeters as units for non-parametric coordinates.

mtllib left_humerus_upper_link.mtl
v -0.049419 0.117175 -0.025050
v -0.041049 0.126464 -0.028152
v -0.033256 0.126575 -0.030675
v -0.021144 0.126575 -0.030675
v -0.013350 0.126463 -0.028151
v -0.004981 0.117175 -0.025050
v -0.057526 0.118163 -0.013158
v -0.049254 0.119100 -0.018353
v -0.033555 0.126740 -0.021184
v -0.020845 0.126742 -0.021178
v -0.005242 0.119100 -0.018834
v 0.003126 0.118163 -0.013158
v -0.059325 0.118931 -0.000000
v -0.027177 0.118932 -0.021445
v 0.004925 0.118931 -0.000000
v -0.057838 0.118931 0.012691
v 0.003438 0.118932 0.012691
v -0.049815 0.118931 0.024470
v -0.004585 0.118932 0.024470
v -0.040156 0.118931 0.031279
v -0.031401 0.118931 0.032733
v -0.022999 0.118932 0.032733
v -0.014244 0.118931 0.031279
v -0.041727 0.108397 0.032003
v -0.031725 0.108665 0.035600
v -0.022675 0.108661 0.035601
v -0.012806 0.108661 0.031712
v -0.042213 0.094715 0.033817
v -0.031468 0.094718 0.036568
v -0.023170 0.094718 0.036610
v -0.010972 0.094698 0.033250
v -0.042421 0.035943 0.033723
v -0.031468 0.035943 0.036568
v -0.023170 0.035943 0.036610
v -0.011479 0.035943 0.033488
v -0.042525 0.032638 0.033676
v -0.031468 0.032638 0.036568
v -0.023169 0.032638 0.036610
v -0.011733 0.032632 0.033607
v -0.047919 0.007689 0.033391
v -0.033249 0.007959 0.034745
v -0.021151 0.007959 0.034745
v -0.006481 0.007689 0.033391
v -0.048005 -0.003144 0.034287
v -0.033681 -0.004703 0.035296
v -0.020719 -0.004703 0.035296
v -0.006395 -0.003144 0.034287
v -0.048101 -0.013775 0.031882
v -0.033368 -0.014245 0.032762
v -0.021032 -0.014245 0.032761
v -0.006299 -0.013775 0.031882
v -0.052957 -0.024451 0.023733
v -0.047368 -0.024632 0.024324
v -0.033156 -0.025009 0.025087
v -0.021244 -0.025009 0.025087
v -0.007032 -0.024632 0.024325
v -0.001443 -0.024451 0.023733
v -0.053184 -0.031569 0.013076
v -0.048866 -0.032083 0.013289
v -0.034134 -0.033031 0.013601
v -0.020266 -0.033031 0.013600
v -0.005533 -0.032083 0.013289
v -0.001216 -0.031569 0.013076
v -0.053292 -0.034011 -0.000000
v -0.049063 -0.034662 -0.000521
v -0.034330 -0.035654 -0.000619
v -0.020070 -0.035654 -0.000619
v -0.005337 -0.034662 -0.000521
v -0.001108 -0.034011 -0.000000
v -0.053184 -0.031569 -0.013077
v -0.048812 -0.031962 -0.013525
v -0.034080 -0.032841 -0.013995
v -0.020320 -0.032841 -0.013995
v -0.005588 -0.031961 -0.013525
v -0.001216 -0.031569 -0.013077
v -0.052957 -0.023518 -0.024743
v -0.047282 -0.024206 -0.024791
v -0.033060 -0.024023 -0.026101
v -0.021340 -0.024023 -0.026101
v -0.007118 -0.024206 -0.024791
v -0.001443 -0.023518 -0.024743
v -0.053029 -0.015876 -0.029830
v -0.047978 -0.013312 -0.032139
v -0.033246 -0.013696 -0.033065
v -0.021154 -0.013696 -0.033065
v -0.006422 -0.013312 -0.032139
v -0.001371 -0.015876 -0.029830
v -0.053201 -0.004185 -0.033233
v -0.047821 -0.002762 -0.034381
v -0.033545 -0.004507 -0.035325
v -0.020855 -0.004507 -0.035325
v -0.006579 -0.002762 -0.034381
v -0.001199 -0.004185 -0.033233
v -0.053201 0.008728 -0.032330
v -0.047735 0.007306 -0.033485
v -0.033065 0.007576 -0.034839
v -0.021335 0.007576 -0.034839
v -0.006665 0.007306 -0.033485
v -0.001199 0.008729 -0.032330
v -0.051520 0.034258 -0.015612
v -0.041599 0.034259 -0.021903
v -0.031959 0.034258 -0.024902
v -0.022223 0.034259 -0.024890
v -0.012887 0.034258 -0.021713
v -0.003211 0.034258 -0.015679
v -0.052204 0.035943 -0.026824
v -0.041663 0.035943 -0.033703
v -0.030983 0.035943 -0.036692
v -0.022223 0.035943 -0.036550
v -0.012849 0.035943 -0.032865
v -0.003464 0.035943 -0.027053
v -0.051187 0.094483 -0.027842
v -0.041951 0.094869 -0.033910
v -0.030983 0.094718 -0.036692
v -0.023819 0.094547 -0.036821
v -0.013156 0.094252 -0.032162
v -0.003970 0.094230 -0.026482
v -0.050767 0.108591 -0.026037
v -0.040985 0.108096 -0.032397
v -0.031387 0.108214 -0.035771
v -0.023009 0.108217 -0.035769
v -0.013568 0.110291 -0.032060
v -0.004154 0.110291 -0.026134
v -0.001000 -0.024659 -0.019443
v -0.001000 -0.006034 -0.026950
v -0.001000 0.014219 -0.018258
v 0.005464 0.034259 -0.010477
v 0.004565 0.035943 -0.015515
v 0.003774 0.094553 -0.015198
v 0.004406 0.110291 -0.014743
v -0.001000 -0.027000 -0.001009
v -0.001000 0.020417 -0.002931
v 0.009438 0.032640 -0.000966
v 0.009515 0.035943 -0.000975
v 0.009534 0.094701 -0.000877
v 0.007876 0.110489 -0.000693
v -0.001000 -0.026046 0.017286
v -0.001000 -0.006035 0.026950
v -0.001000 0.014726 0.016017
v 0.007078 0.032634 0.013901
v 0.007057 0.035943 0.013888
v 0.007015 0.094713 0.013862
v 0.005244 0.110291 0.013171
v -0.001234 -0.016281 0.029410
v -0.001180 -0.004531 0.032952
v -0.001180 0.009082 0.032086
v -0.001989 0.032556 0.026632
v -0.002121 0.035943 0.026707
v -0.002497 0.094607 0.026941
v -0.003092 0.108929 0.025436
v -0.053400 -0.023404 -0.018788
v -0.053400 -0.006091 -0.024687
v -0.053400 0.010813 -0.024649
v -0.060104 0.033438 -0.015393
v -0.059961 0.035943 -0.015299
v -0.060575 0.095005 -0.015688
v -0.058806 0.110291 -0.014743
v -0.053400 -0.024869 -0.001152
v -0.053400 -0.024788 -0.002320
v -0.053400 0.024707 -0.001009
v -0.064144 0.032638 -0.001006
v -0.063372 0.035943 -0.000986
v -0.063380 0.094720 -0.000984
v -0.062302 0.110429 -0.000699
v -0.053400 -0.024803 0.014226
v -0.053400 -0.006107 0.024686
v -0.053400 0.010829 0.024649
v -0.061240 0.032507 0.013741
v -0.060839 0.035943 0.013659
v -0.061070 0.094617 0.014432
v -0.059644 0.110291 0.013171
v -0.053166 -0.016281 0.029410
v -0.053220 -0.004531 0.032952
v -0.053220 0.009082 0.032086
v -0.051411 0.032391 0.027280
v -0.050924 0.035943 0.027576
v -0.052009 0.094906 0.026856
v -0.051320 0.108566 0.025523
vt 0.272029 0.751417
vt 0.280233 0.758532
vt 0.285262 0.764129
vt 0.276047 0.757608
vt 0.269340 0.741948
vt 0.274304 0.743446
vt 0.294794 0.760428
vt 0.295592 0.766107
vt 0.270054 0.731489
vt 0.281170 0.727041
vt 0.309246 0.759655
vt 0.305921 0.764129
vt 0.287316 0.710810
vt 0.283207 0.710810
vt 0.293277 0.722021
vt 0.316880 0.743446
vt 0.318823 0.751746
vt 0.314339 0.758363
vt 0.294829 0.712120
vt 0.308244 0.726631
vt 0.321621 0.742228
vt 0.306572 0.712126
vt 0.283336 0.709445
vt 0.294822 0.709445
vt 0.320937 0.731202
vt 0.316628 0.712189
vt 0.306562 0.709445
vt 0.294899 0.661852
vt 0.283587 0.661972
vt 0.316688 0.709445
vt 0.306541 0.661842
vt 0.274222 0.709445
vt 0.274673 0.662233
vt 0.283946 0.649224
vt 0.295045 0.649064
vt 0.316873 0.661928
vt 0.322044 0.709445
vt 0.322138 0.712127
vt 0.305995 0.649224
vt 0.269631 0.709445
vt 0.270187 0.662216
vt 0.274948 0.649224
vt 0.285198 0.642849
vt 0.295592 0.642226
vt 0.321857 0.661855
vt 0.315684 0.650328
vt 0.305616 0.642226
vt 0.270267 0.649224
vt 0.275804 0.643648
vt 0.320642 0.650545
vt 0.314921 0.642226
vt 0.273355 0.636125
vt 0.280715 0.642089
vt 0.320300 0.642226
vt 0.683262 0.454843
vt 0.692513 0.448296
vt 0.687984 0.454935
vt 0.679227 0.461058
vt 0.702884 0.446310
vt 0.701970 0.453744
vt 0.683306 0.469015
vt 0.676528 0.470565
vt 0.713254 0.448296
vt 0.714166 0.453798
vt 0.683336 0.482761
vt 0.677245 0.481066
vt 0.721705 0.454085
vt 0.726207 0.460728
vt 0.690676 0.501160
vt 0.690503 0.501827
vt 0.729016 0.470283
vt 0.722461 0.469002
vt 0.702083 0.494060
vt 0.702086 0.500510
vt 0.728330 0.481353
vt 0.722432 0.482774
vt 0.713781 0.500402
vt 0.702102 0.503197
vt 0.690751 0.503197
vt 0.724518 0.500309
vt 0.713716 0.503197
vt 0.702104 0.550995
vt 0.690443 0.551226
vt 0.724753 0.503197
vt 0.714329 0.550910
vt 0.702330 0.563769
vt 0.691192 0.563657
vt 0.680804 0.550801
vt 0.681611 0.503197
vt 0.729591 0.500509
vt 0.729628 0.503197
vt 0.724182 0.551146
vt 0.713329 0.563657
vt 0.702884 0.570683
vt 0.692449 0.570058
vt 0.682235 0.562274
vt 0.676156 0.503197
vt 0.675992 0.551116
vt 0.729702 0.550991
vt 0.723125 0.562254
vt 0.712948 0.570683
vt 0.683018 0.569255
vt 0.677192 0.561872
vt 0.728264 0.562116
vt 0.722290 0.570683
vt 0.688329 0.570820
vt 0.680558 0.576809
vt 0.727690 0.570683
vt 0.382300 0.162417
vt 0.383367 0.175596
vt 0.383308 0.174723
vt 0.369683 0.158010
vt 0.021125 0.490526
vt 0.037424 0.476554
vt 0.038379 0.513539
vt 0.021152 0.503157
vt 0.057104 0.490514
vt 0.057077 0.503169
vt 0.038275 0.476493
vt 0.049481 0.476543
vt 0.649709 0.052538
vt 0.649586 0.035970
vt 0.655301 0.040757
vt 0.655302 0.031218
vt 0.649709 0.019508
vt 0.860266 0.532314
vt 0.859064 0.524049
vt 0.866716 0.524260
vt 0.866965 0.532314
vt 0.858692 0.513315
vt 0.866914 0.513317
vt 0.873641 0.524256
vt 0.873393 0.532314
vt 0.858533 0.467206
vt 0.866914 0.467206
vt 0.873263 0.513317
vt 0.881192 0.524256
vt 0.880092 0.532314
vt 0.858454 0.464613
vt 0.866914 0.464613
vt 0.873263 0.467206
vt 0.882595 0.513302
vt 0.854327 0.445040
vt 0.865551 0.445251
vt 0.873263 0.464613
vt 0.882207 0.467206
vt 0.851655 0.464420
vt 0.850271 0.446132
vt 0.854261 0.436540
vt 0.865221 0.435318
vt 0.874807 0.445251
vt 0.882013 0.464609
vt 0.850271 0.435453
vt 0.854188 0.428200
vt 0.865460 0.427831
vt 0.875137 0.435318
vt 0.886031 0.445040
vt 0.850312 0.426234
vt 0.854748 0.419683
vt 0.865622 0.419387
vt 0.874898 0.427831
vt 0.886097 0.436540
vt 0.890087 0.446132
vt 0.889468 0.464549
vt 0.850472 0.419825
vt 0.853602 0.413837
vt 0.864874 0.413093
vt 0.874736 0.419387
vt 0.886170 0.428200
vt 0.890087 0.435453
vt 0.850299 0.414240
vt 0.875484 0.413093
vt 0.885610 0.419683
vt 0.890046 0.426234
vt 0.886756 0.413837
vt 0.889886 0.419825
vt 0.890059 0.414240
vt 0.839846 0.966422
vt 0.839708 0.956894
vt 0.843985 0.955734
vt 0.843860 0.964333
vt 0.839708 0.946369
vt 0.844054 0.947528
vt 0.855332 0.957156
vt 0.855569 0.964646
vt 0.839902 0.972651
vt 0.844413 0.973212
vt 0.841045 0.925562
vt 0.848930 0.925562
vt 0.855714 0.947309
vt 0.865418 0.957156
vt 0.865181 0.964646
vt 0.855717 0.973063
vt 0.839722 0.979213
vt 0.843197 0.979533
vt 0.856592 0.925562
vt 0.865036 0.947309
vt 0.876765 0.955734
vt 0.876890 0.964333
vt 0.865033 0.973063
vt 0.854907 0.980250
vt 0.864331 0.925562
vt 0.876697 0.947528
vt 0.881042 0.956894
vt 0.880904 0.966422
vt 0.876337 0.973212
vt 0.865843 0.980249
vt 0.871751 0.925562
vt 0.881042 0.946369
vt 0.880848 0.972651
vt 0.877553 0.979533
vt 0.879442 0.925562
vt 0.881028 0.979213
vt 0.325052 0.321514
vt 0.317086 0.321514
vt 0.316871 0.276441
vt 0.325052 0.276557
vt 0.317591 0.266324
vt 0.324751 0.266234
vt 0.331587 0.321514
vt 0.330396 0.276688
vt 0.317544 0.252275
vt 0.323357 0.252190
vt 0.331001 0.266232
vt 0.338579 0.321514
vt 0.338350 0.276913
vt 0.332392 0.252190
vt 0.338043 0.264645
vt 0.338206 0.252275
vt 0.841795 0.047313
vt 0.834427 0.053638
vt 0.836556 0.041534
vt 0.843692 0.041304
vt 0.836551 0.031735
vt 0.843692 0.031966
vt 0.834789 0.019705
vt 0.841795 0.025957
vt 0.767537 0.755574
vt 0.757945 0.756918
vt 0.773577 0.732889
vt 0.771323 0.749391
vt 0.748694 0.755808
vt 0.740108 0.749810
vt 0.735144 0.742591
vt 0.734085 0.736046
vt 0.734085 0.729766
vt 0.735144 0.723222
vt 0.740108 0.716003
vt 0.748694 0.710005
vt 0.757945 0.708894
vt 0.771674 0.716493
vt 0.767537 0.710239
vt 0.738185 0.283099
vt 0.728551 0.283181
vt 0.728167 0.279987
vt 0.738342 0.279838
vt 0.718918 0.283100
vt 0.718587 0.279797
vt 0.728095 0.268857
vt 0.738571 0.268709
vt 0.718241 0.268668
vt 0.728095 0.258084
vt 0.738571 0.258232
vt 0.718241 0.258273
vt 0.728167 0.246954
vt 0.738342 0.247103
vt 0.718587 0.247144
vt 0.728551 0.243760
vt 0.738185 0.243841
vt 0.718918 0.243841
vt 0.184611 0.043661
vt 0.176307 0.044180
vt 0.171212 0.036174
vt 0.179952 0.036126
vt 0.184773 0.050180
vt 0.184843 0.050071
vt 0.168998 0.028063
vt 0.177730 0.028804
vt 0.169103 0.021411
vt 0.177739 0.021411
vt 0.171833 0.014291
vt 0.180093 0.014320
vt 0.176137 0.007163
vt 0.184562 0.006971
vt 0.184683 0.001065
vt 0.188415 0.000383
vn -0.655317 0.347334 -0.670759
vn -0.058995 0.998108 -0.017300
vn -0.161067 0.986852 0.013397
vn -0.457725 0.686442 -0.565053
vn -0.060732 0.837579 0.542931
vn -0.181982 0.644410 -0.742710
vn 0.067896 0.832806 0.549386
vn 0.174146 0.655017 -0.735272
vn 0.157839 0.987355 0.014747
vn 0.452854 0.712380 -0.536133
vn 0.054225 0.998404 -0.015782
vn 0.661915 0.360645 -0.657118
vn -0.008294 0.999964 -0.001716
vn 0.002318 0.961139 0.276055
vn 0.008469 0.999963 -0.001758
vn -0.000001 1.000000 0.000002
vn 0.000005 1.000000 -0.000004
vn -0.000003 1.000000 0.000001
vn -0.000004 1.000000 0.000001
vn 0.000001 1.000000 0.000002
vn -0.000004 1.000000 0.000002
vn -0.000003 1.000000 0.000001
vn -0.000002 1.000000 0.000002
vn -0.701030 0.172328 0.691997
vn -0.715527 0.136566 0.685107
vn -0.440175 0.134211 0.887825
vn -0.418889 0.171352 0.891723
vn -0.154348 0.145824 0.977196
vn -0.135954 0.228328 0.964045
vn 0.167273 0.142840 0.975508
vn 0.142119 0.222791 0.964451
vn 0.436098 0.133478 0.889945
vn 0.419580 0.157653 0.893923
vn 0.717421 0.136741 0.683088
vn 0.698544 0.165577 0.696147
vn -0.726467 0.017642 0.686974
vn -0.426740 0.020533 0.904141
vn -0.149757 0.016335 0.988588
vn 0.159669 0.017089 0.987023
vn 0.429356 0.022741 0.902849
vn 0.727763 0.024007 0.685409
vn -0.725203 -0.002283 0.688531
vn -0.423939 0.000009 0.905691
vn -0.146825 -0.000272 0.989162
vn 0.155796 0.000706 0.987789
vn 0.424279 0.000177 0.905531
vn 0.729837 0.001082 0.683620
vn -0.754581 0.080259 0.651281
vn -0.283199 0.032480 0.958511
vn -0.094653 -0.040220 0.994697
vn 0.094212 -0.038913 0.994791
vn 0.288646 0.035599 0.956774
vn 0.822677 -0.013592 0.568347
vn -0.784720 0.080391 0.614616
vn -0.234787 0.057063 0.970370
vn -0.076250 -0.007421 0.997061
vn 0.076681 -0.006961 0.997031
vn 0.240040 0.059049 0.968965
vn 0.852808 0.032850 0.521190
vn -0.895712 -0.052824 0.441486
vn -0.127388 -0.066080 0.989649
vn -0.043115 -0.089075 0.995091
vn 0.043116 -0.089076 0.995091
vn 0.127387 -0.066080 0.989649
vn 0.917908 -0.043177 0.394438
vn -0.891177 -0.219095 0.397242
vn -0.108203 -0.414128 0.903764
vn -0.038752 -0.440597 0.896868
vn 0.038753 -0.440597 0.896868
vn 0.108202 -0.414127 0.903765
vn 0.836358 -0.262942 0.481006
vn -0.707061 -0.507907 0.492033
vn -0.072080 -0.711894 0.698578
vn -0.032017 -0.713539 0.699884
vn 0.032017 -0.713539 0.699884
vn 0.072078 -0.711893 0.698579
vn 0.493989 -0.624693 0.604759
vn -0.116664 -0.914468 0.387477
vn -0.076454 -0.922845 0.377507
vn -0.033248 -0.925843 0.376443
vn 0.033248 -0.925843 0.376442
vn 0.076451 -0.922846 0.377507
vn 0.116659 -0.914467 0.387479
vn -0.134727 -0.990817 0.011440
vn -0.082368 -0.996573 -0.007636
vn -0.034429 -0.999386 -0.006531
vn 0.034431 -0.999386 -0.006533
vn 0.082365 -0.996573 -0.007639
vn 0.134714 -0.990818 0.011438
vn -0.129679 -0.907036 -0.400585
vn -0.078506 -0.911504 -0.403729
vn -0.032138 -0.913083 -0.406505
vn 0.032140 -0.913083 -0.406505
vn 0.078505 -0.911504 -0.403729
vn 0.129666 -0.907038 -0.400585
vn -0.574194 -0.575816 -0.582012
vn -0.071155 -0.711179 -0.699401
vn -0.032529 -0.703526 -0.709925
vn 0.032530 -0.703527 -0.709924
vn 0.071155 -0.711180 -0.699399
vn 0.449361 -0.629148 -0.634229
vn -0.855426 -0.240111 -0.458904
vn -0.102588 -0.398211 -0.911539
vn -0.040783 -0.421067 -0.906112
vn 0.040782 -0.421067 -0.906112
vn 0.102589 -0.398211 -0.911539
vn 0.809324 -0.271866 -0.520657
vn -0.218010 -0.105769 -0.970198
vn -0.117047 -0.060275 -0.991296
vn -0.042786 -0.083878 -0.995557
vn 0.042785 -0.083878 -0.995557
vn 0.117049 -0.060275 -0.991295
vn 0.218014 -0.105772 -0.970197
vn -0.617117 0.349967 -0.704762
vn -0.209701 0.327684 -0.921221
vn -0.075776 0.273137 -0.958986
vn 0.078677 0.273873 -0.958542
vn 0.210168 0.328995 -0.920647
vn 0.320869 0.431260 -0.843243
vn -0.498963 0.054972 -0.864878
vn -0.279763 0.021204 -0.959835
vn -0.101648 0.005755 -0.994804
vn 0.108783 0.025899 -0.993728
vn 0.281044 0.067498 -0.957318
vn 0.707360 -0.028521 -0.706278
vn -0.697823 -0.118340 -0.706427
vn -0.405496 -0.158879 -0.900184
vn -0.148631 -0.178081 -0.972726
vn 0.224508 -0.165006 -0.960401
vn 0.451212 -0.142570 -0.880955
vn 0.700230 -0.103553 -0.706367
vn -0.701257 0.018691 -0.712663
vn -0.414087 0.017687 -0.910066
vn -0.155274 0.013393 -0.987781
vn 0.221113 0.013087 -0.975160
vn 0.457499 0.014383 -0.889094
vn 0.705883 0.013144 -0.708206
vn -0.686218 0.153427 -0.711031
vn -0.414615 0.159659 -0.895881
vn -0.151750 0.182735 -0.971380
vn 0.180177 0.157466 -0.970948
vn 0.430570 0.117574 -0.894866
vn 0.688342 0.082760 -0.720650
vn 0.999448 -0.023410 -0.023570
vn 0.999514 -0.029412 -0.010301
vn 0.999611 -0.001500 -0.027832
vn 0.999962 -0.001828 -0.008541
vn 0.987588 0.050456 -0.148739
vn 0.995510 -0.002494 -0.094628
vn 0.920885 -0.302860 -0.245454
vn 0.886415 -0.051629 -0.460002
vn 0.890662 0.012427 -0.454497
vn 0.896999 0.094506 -0.431812
vn 0.897157 0.253660 -0.361616
vn 0.999990 -0.004575 -0.000254
vn 0.999624 -0.027418 -0.000040
vn 0.986664 -0.162145 -0.014234
vn 0.894567 -0.445268 -0.038565
vn 0.995466 0.000052 -0.095116
vn 0.995636 0.018522 -0.091461
vn 0.988382 0.141087 -0.056537
vn 0.962479 0.271202 -0.009122
vn 0.999568 -0.021980 0.019519
vn 0.999460 -0.031045 0.010745
vn 0.999980 -0.000818 0.006318
vn 0.994949 -0.084898 0.053566
vn 0.937653 -0.313438 0.150210
vn 0.920019 0.001138 0.391873
vn 0.919984 0.023076 0.391275
vn 0.911384 0.152751 0.382161
vn 0.895814 0.227144 0.381997
vn -0.999670 -0.023745 -0.009826
vn -0.999520 -0.021450 -0.022329
vn -0.999979 -0.002009 -0.006120
vn -0.999542 -0.006417 -0.029571
vn -0.994982 -0.002329 -0.100025
vn -0.908924 -0.379949 -0.171743
vn -0.912998 -0.027816 -0.407014
vn -0.913555 0.018369 -0.406299
vn -0.900159 0.157278 -0.406174
vn -0.893750 0.252497 -0.370750
vn -0.999784 -0.020788 -0.000096
vn -0.999956 -0.009347 -0.000553
vn -1.000000 0.000001 0.000001
vn -0.974145 -0.225636 -0.011389
vn -0.888038 -0.458957 -0.027325
vn -0.999721 0.004412 -0.023188
vn -0.999585 0.015309 -0.024393
vn -0.988125 0.152053 -0.022120
vn -0.962332 0.271723 -0.009120
vn -0.999540 -0.026652 0.014466
vn -0.999754 -0.016910 0.014336
vn -0.999988 -0.001583 0.004572
vn -0.995830 -0.039044 0.082446
vn -0.933230 -0.348292 0.088176
vn -0.921158 0.001196 0.389187
vn -0.920855 0.013859 0.389659
vn -0.916884 0.145505 0.371688
vn -0.895010 0.226721 0.384129
s 1
usemtl M_sprout_SG
f 1/102/1 7/95/2 8/106/3 2/107/4
f 2/230/4 8/231/3 9/232/5 3/233/6
f 3/233/6 9/232/5 10/234/7 4/235/8
f 4/235/8 10/234/7 11/236/9 5/237/10
f 5/52/10 11/53/9 12/43/11 6/49/12
f 7/238/2 13/239/13 14/240/14 8/241/3
f 8/121/3 14/122/14 9/123/5
f 9/123/5 14/122/14 10/124/7
f 10/124/7 14/122/14 11/125/9
f 11/251/9 14/240/14 15/250/15 12/252/11
f 13/239/13 16/242/16 14/240/14
f 14/240/14 17/249/17 15/250/15
f 16/242/16 18/243/18 14/240/14
f 14/240/14 19/248/19 17/249/17
f 18/243/18 20/244/20 14/240/14
f 14/240/14 20/244/20 21/245/21
f 14/240/14 21/245/21 22/246/22
f 14/240/14 22/246/22 23/247/23
f 14/240/14 23/247/23 19/248/19
f 18/105/24 178/100/25 24/104/26 20/108/27
f 20/126/27 24/127/26 25/128/28 21/129/29
f 21/129/29 25/128/28 26/132/30 22/133/31
f 22/133/31 26/132/30 27/137/32 23/138/33
f 23/54/33 27/50/32 150/46/34 19/51/35
f 178/100/25 177/92/36 28/99/37 24/104/26
f 24/127/26 28/130/37 29/131/38 25/128/28
f 25/128/28 29/131/38 30/136/39 26/132/30
f 26/132/30 30/136/39 31/142/40 27/137/32
f 27/50/32 31/45/40 149/36/41 150/46/34
f 28/99/37 177/92/36 176/84/42 32/91/43
f 29/131/38 28/130/37 32/134/43 33/135/44
f 30/136/39 29/131/38 33/135/44 34/141/45
f 31/142/40 30/136/39 34/141/45 35/146/46
f 148/30/47 149/36/41 31/45/40 35/37/46
f 176/84/42 175/80/48 36/90/49 32/91/43
f 32/134/43 36/139/49 37/140/50 33/135/44
f 33/135/44 37/140/50 38/145/51 34/141/45
f 34/141/45 38/145/51 39/152/52 35/146/46
f 35/37/46 39/38/52 147/26/53 148/30/47
f 36/139/49 175/147/48 174/148/54 40/143/55
f 37/140/50 36/139/49 40/143/55 41/144/56
f 38/145/51 37/140/50 41/144/56 42/151/57
f 39/152/52 38/145/51 42/151/57 43/157/58
f 146/163/59 147/164/53 39/152/52 43/157/58
f 174/148/54 173/153/60 44/149/61 40/143/55
f 40/143/55 44/149/61 45/150/62 41/144/56
f 41/144/56 45/150/62 46/156/63 42/151/57
f 42/151/57 46/156/63 47/162/64 43/157/58
f 43/157/58 47/162/64 145/170/65 146/163/59
f 173/153/60 172/158/66 48/154/67 44/149/61
f 44/149/61 48/154/67 49/155/68 45/150/62
f 45/150/62 49/155/68 50/161/69 46/156/63
f 46/156/63 50/161/69 51/169/70 47/162/64
f 47/162/64 51/169/70 144/174/71 145/170/65
f 172/158/66 52/165/72 53/159/73 48/154/67
f 48/154/67 53/159/73 54/160/74 49/155/68
f 49/155/68 54/160/74 55/168/75 50/161/69
f 50/161/69 55/168/75 56/173/76 51/169/70
f 51/169/70 56/173/76 57/176/77 144/174/71
f 52/165/72 58/171/78 59/166/79 53/159/73
f 53/159/73 59/166/79 60/167/80 54/160/74
f 54/160/74 60/167/80 61/172/81 55/168/75
f 55/168/75 61/172/81 62/175/82 56/173/76
f 56/173/76 62/175/82 63/177/83 57/176/77
f 58/253/78 64/254/84 65/255/85 59/256/79
f 59/256/79 65/255/85 66/259/86 60/260/80
f 60/260/80 66/259/86 67/262/87 61/263/81
f 61/263/81 67/262/87 68/265/88 62/266/82
f 62/266/82 68/265/88 69/268/89 63/269/83
f 64/254/84 70/257/90 71/258/91 65/255/85
f 65/255/85 71/258/91 72/261/92 66/259/86
f 66/259/86 72/261/92 73/264/93 67/262/87
f 67/262/87 73/264/93 74/267/94 68/265/88
f 68/265/88 74/267/94 75/270/95 69/268/89
f 70/194/90 76/186/96 77/187/97 71/195/91
f 71/195/91 77/187/97 78/193/98 72/201/92
f 72/201/92 78/193/98 79/200/99 73/207/93
f 73/207/93 79/200/99 80/206/100 74/211/94
f 74/211/94 80/206/100 81/210/101 75/213/95
f 76/186/96 82/178/102 83/181/103 77/187/97
f 77/187/97 83/181/103 84/185/104 78/193/98
f 78/193/98 84/185/104 85/192/105 79/200/99
f 79/200/99 85/192/105 86/199/106 80/206/100
f 80/206/100 86/199/106 87/205/107 81/210/101
f 82/178/102 88/179/108 89/180/109 83/181/103
f 83/181/103 89/180/109 90/184/110 84/185/104
f 84/185/104 90/184/110 91/191/111 85/192/105
f 85/192/105 91/191/111 92/198/112 86/199/106
f 86/199/106 92/198/112 93/204/113 87/205/107
f 88/179/108 94/182/114 95/183/115 89/180/109
f 89/180/109 95/183/115 96/190/116 90/184/110
f 90/184/110 96/190/116 97/197/117 91/191/111
f 91/191/111 97/197/117 98/203/118 92/198/112
f 92/198/112 98/203/118 99/209/119 93/204/113
f 95/183/115 94/182/114 100/188/120 101/189/121
f 96/190/116 95/183/115 101/189/121 102/196/122
f 97/197/117 96/190/116 102/196/122 103/202/123
f 98/203/118 97/197/117 103/202/123 104/208/124
f 105/212/125 99/209/119 98/203/118 104/208/124
f 100/271/120 106/272/126 107/273/127 101/274/121
f 101/274/121 107/273/127 108/277/128 102/278/122
f 102/278/122 108/277/128 109/279/129 103/280/123
f 103/280/123 109/279/129 110/281/130 104/282/124
f 104/282/124 110/281/130 111/283/131 105/284/125
f 107/97/127 106/89/126 112/88/132 113/98/133
f 108/214/128 107/215/127 113/216/133 114/217/134
f 109/220/129 108/214/128 114/217/134 115/221/135
f 110/225/130 109/220/129 115/221/135 116/226/136
f 117/33/137 111/32/131 110/40/130 116/41/136
f 112/88/132 118/96/138 119/103/139 113/98/133
f 113/216/133 119/218/139 120/219/140 114/217/134
f 114/217/134 120/219/140 121/224/141 115/221/135
f 115/221/135 121/224/141 122/228/142 116/226/136
f 116/41/136 122/48/142 123/42/143 117/33/137
f 118/96/138 1/102/1 2/107/4 119/103/139
f 119/218/139 2/222/4 3/223/6 120/219/140
f 120/219/140 3/223/6 4/227/8 121/224/141
f 121/224/141 4/227/8 5/229/10 122/228/142
f 122/48/142 5/52/10 6/49/12 123/42/143
f 87/1/107 124/2/144 75/3/145 81/4/101
f 93/5/146 125/6/147 124/2/144 87/1/107
f 99/9/148 126/10/149 125/6/147 93/5/146
f 127/13/150 126/10/149 99/9/148 105/14/125
f 111/283/131 128/285/151 127/286/150 105/284/125
f 129/29/152 128/23/151 111/32/131 117/33/137
f 123/42/143 130/34/153 129/29/152 117/33/137
f 6/49/12 12/43/154 130/34/153 123/42/143
f 124/2/144 131/7/155 69/8/156 75/3/145
f 125/6/147 131/7/155 124/2/144
f 126/10/149 132/15/157 131/7/155 125/6/147
f 133/19/158 132/15/157 126/10/149 127/13/150
f 128/23/151 134/24/159 133/19/158 127/13/150
f 135/28/160 134/24/159 128/23/151 129/29/152
f 130/34/153 136/35/161 135/28/160 129/29/152
f 12/43/154 15/44/162 136/35/161 130/34/153
f 131/7/155 137/11/163 63/12/164 69/8/156
f 131/7/155 138/16/165 137/11/163
f 132/15/157 139/20/166 138/16/165 131/7/155
f 140/22/167 139/20/166 132/15/157 133/19/158
f 134/24/159 141/27/168 140/22/167 133/19/158
f 142/31/169 141/27/168 134/24/159 135/28/160
f 136/35/161 143/39/170 142/31/169 135/28/160
f 15/44/162 17/47/171 143/39/170 136/35/161
f 137/11/163 144/17/71 57/18/77 63/12/164
f 138/16/165 145/21/65 144/17/71 137/11/163
f 139/20/166 146/25/59 145/21/65 138/16/165
f 147/26/53 146/25/59 139/20/166 140/22/167
f 141/27/168 148/30/47 147/26/53 140/22/167
f 149/36/41 148/30/47 141/27/168 142/31/169
f 143/39/170 150/46/34 149/36/41 142/31/169
f 17/47/171 19/51/35 150/46/34 143/39/170
f 76/55/96 70/56/172 151/57/173 82/58/102
f 82/58/102 151/57/173 152/61/174 88/62/175
f 88/62/175 152/61/174 153/65/176 94/66/114
f 153/65/176 154/69/177 100/70/120 94/66/114
f 100/271/120 154/275/177 155/276/178 106/272/126
f 155/79/178 156/83/179 112/88/132 106/89/126
f 112/88/132 156/83/179 157/87/180 118/96/138
f 118/96/138 157/87/180 7/95/181 1/102/1
f 70/56/172 64/59/182 158/60/183 151/57/173
f 151/109/173 158/110/183 159/111/184 152/112/174
f 152/113/174 159/114/184 160/115/185 153/116/176
f 160/73/185 161/74/186 154/69/177 153/65/176
f 154/69/177 161/74/186 162/78/187 155/79/178
f 162/78/187 163/82/188 156/83/179 155/79/178
f 156/83/179 163/82/188 164/86/189 157/87/180
f 157/87/180 164/86/189 13/94/190 7/95/181
f 64/59/182 58/63/191 165/64/192 158/60/183
f 158/119/183 165/120/192 166/117/193 159/114/184
f 159/114/184 166/117/193 167/118/194 160/115/185
f 167/76/194 168/77/195 161/74/186 160/73/185
f 161/74/186 168/77/195 169/81/196 162/78/187
f 169/81/196 170/85/197 163/82/188 162/78/187
f 163/82/188 170/85/197 171/93/198 164/86/189
f 164/86/189 171/93/198 16/101/199 13/94/190
f 58/63/191 52/67/72 172/68/66 165/64/192
f 165/64/192 172/68/66 173/71/60 166/72/193
f 166/72/193 173/71/60 174/75/54 167/76/194
f 174/75/54 175/80/48 168/77/195 167/76/194
f 168/77/195 175/80/48 176/84/42 169/81/196
f 176/84/42 177/92/36 170/85/197 169/81/196
f 170/85/197 177/92/36 178/100/25 171/93/198
f 171/93/198 178/100/25 18/105/24 16/101/199
