# This file uses centimeters as units for non-parametric coordinates.

mtllib left_femur_lower_link.mtl
v -0.057467 -0.024402 -0.128831
v -0.046092 -0.024807 -0.134238
v -0.016294 -0.024951 -0.135338
v 0.005168 -0.024330 -0.124381
v -0.070586 -0.024572 -0.115393
v -0.063552 -0.025000 -0.120989
v -0.048278 -0.025000 -0.122333
v -0.014454 -0.025000 -0.124686
v 0.011314 -0.024682 -0.116975
v 0.014728 -0.024313 -0.112338
v -0.078476 -0.024992 -0.087077
v -0.068898 -0.025000 -0.086466
v -0.068744 -0.025000 -0.084906
v 0.010695 -0.025000 -0.084405
v 0.016408 -0.025000 -0.086992
v 0.021518 -0.024334 -0.088456
v -0.070352 -0.024308 -0.058545
v -0.052143 -0.024509 -0.043376
v -0.047856 -0.025000 -0.052442
v -0.014737 -0.025000 -0.050228
v 0.011783 -0.024568 -0.057224
v 0.015923 -0.021270 -0.060889
v -0.001261 -0.024681 -0.039541
v 0.011120 -0.021471 -0.049934
v 0.017677 -0.016506 -0.058170
v -0.052142 0.024510 -0.043377
v -0.001261 0.024682 -0.039541
v 0.011118 0.021472 -0.049934
v 0.017677 0.016862 -0.058170
v -0.070352 0.024308 -0.058545
v 0.011783 0.024568 -0.057225
v 0.015903 0.021298 -0.060905
v -0.078476 0.024992 -0.087077
v -0.072781 0.025000 -0.086427
v -0.072721 0.025000 -0.085451
v 0.018478 0.025000 -0.088409
v 0.021518 0.024334 -0.088456
v -0.070586 0.024572 -0.115393
v -0.063552 0.025000 -0.120989
v -0.050732 0.025000 -0.125649
v -0.012302 0.025000 -0.128004
v 0.011314 0.024682 -0.116975
v 0.014728 0.024313 -0.112338
v -0.057467 0.024402 -0.128831
v -0.046092 0.024807 -0.134238
v -0.016294 0.024951 -0.135338
v 0.005168 0.024330 -0.124381
v -0.057523 0.016200 -0.128911
v -0.046282 0.016200 -0.134727
v -0.016089 0.016200 -0.136092
v 0.005228 0.016200 -0.124440
v -0.057523 -0.000000 -0.128911
v -0.046282 -0.000000 -0.134727
v -0.016089 -0.000000 -0.136092
v 0.005228 -0.000000 -0.124440
v -0.057523 -0.016200 -0.128911
v -0.046282 -0.016200 -0.134727
v -0.016089 -0.016200 -0.136092
v 0.005228 -0.016200 -0.124440
v 0.015560 0.016164 -0.111368
v 0.015599 0.000000 -0.111300
v 0.015560 -0.016164 -0.111368
v 0.022516 0.015292 -0.086489
v 0.022905 0.000035 -0.086300
v 0.022493 -0.015299 -0.086539
v 0.020219 0.010581 -0.066747
v 0.022786 0.000000 -0.066703
v 0.020219 -0.010581 -0.066747
v 0.021629 0.010552 -0.062725
v 0.024250 0.000000 -0.062681
v 0.021629 -0.010552 -0.062725
v -0.070783 0.016200 -0.115508
v -0.070783 0.000000 -0.115508
v -0.070783 -0.016200 -0.115508
v -0.079395 0.016200 -0.087004
v -0.079395 -0.000000 -0.087004
v -0.079395 -0.016200 -0.087004
v -0.070623 0.015881 -0.058355
v -0.071023 0.000000 -0.058076
v -0.070623 -0.015881 -0.058355
v -0.052143 0.000262 -0.043377
v -0.024202 0.000262 -0.032221
v -0.020764 0.012472 -0.032221
v -0.020764 -0.012209 -0.032221
v -0.001261 -0.024681 -0.015452
v 0.011120 -0.021471 -0.015452
v 0.017677 -0.016506 -0.015452
v -0.001261 0.024682 -0.015452
v 0.011118 0.021472 -0.015452
v 0.017677 0.016862 -0.015452
v 0.021629 0.010552 -0.015452
v 0.024250 -0.000000 -0.015452
v 0.021629 -0.010552 -0.015452
v -0.020764 0.012472 -0.015452
v -0.024202 0.000262 -0.015452
v -0.020764 -0.012209 -0.015452
vt 0.937704 0.847444
vt 0.944611 0.846725
vt 0.944629 0.864411
vt 0.936965 0.865867
vt 0.937734 0.837764
vt 0.944626 0.837807
vt 0.942056 0.884813
vt 0.932972 0.880487
vt 0.924003 0.847495
vt 0.924033 0.866008
vt 0.944923 0.843292
vt 0.924003 0.837764
vt 0.945193 0.864446
vt 0.944827 0.887538
vt 0.938295 0.886838
vt 0.932947 0.883465
vt 0.924003 0.880520
vt 0.910302 0.847444
vt 0.911035 0.865830
vt 0.910272 0.837764
vt 0.942203 0.892937
vt 0.938295 0.918472
vt 0.932947 0.918472
vt 0.924003 0.883498
vt 0.915034 0.880487
vt 0.903377 0.864411
vt 0.903395 0.846726
vt 0.903380 0.837807
vt 0.942203 0.918472
vt 0.944924 0.900634
vt 0.924003 0.918472
vt 0.915059 0.883465
vt 0.905974 0.884825
vt 0.903083 0.843292
vt 0.915059 0.918472
vt 0.910012 0.886838
vt 0.910012 0.918472
vt 0.903179 0.887538
vt 0.905804 0.892937
vt 0.905804 0.918472
vt 0.889549 0.928583
vt 0.889549 0.950086
vt 0.881958 0.950031
vt 0.882321 0.928670
vt 0.903538 0.928583
vt 0.903538 0.950086
vt 0.889825 0.971698
vt 0.882548 0.971555
vt 0.889549 0.918472
vt 0.882467 0.918532
vt 0.917526 0.928583
vt 0.917526 0.950086
vt 0.903538 0.971909
vt 0.903538 0.918472
vt 0.882374 0.982998
vt 0.924755 0.928670
vt 0.925118 0.950031
vt 0.917251 0.971698
vt 0.917526 0.918472
vt 0.903312 0.982998
vt 0.924528 0.971555
vt 0.924609 0.918532
vt 0.924701 0.982998
vt 0.323937 0.342549
vt 0.323937 0.332032
vt 0.340125 0.332032
vt 0.340125 0.342549
vt 0.316871 0.321514
vt 0.340125 0.321514
vt 0.323937 0.352847
vt 0.340125 0.352847
vt 0.316871 0.363144
vt 0.340125 0.363144
vt 0.375412 0.993851
vt 0.375081 0.985737
vt 0.382109 0.985872
vt 0.382109 0.993891
vt 0.374964 0.964482
vt 0.382109 0.964336
vt 0.395335 0.985872
vt 0.395335 0.993891
vt 0.375471 0.949173
vt 0.382109 0.949130
vt 0.395335 0.964336
vt 0.408562 0.985872
vt 0.408562 0.993891
vt 0.395335 0.949130
vt 0.408562 0.964336
vt 0.415590 0.985736
vt 0.415259 0.993851
vt 0.408562 0.949130
vt 0.415707 0.964482
vt 0.415200 0.949173
vt 0.144061 0.960040
vt 0.144062 0.979738
vt 0.122954 0.979738
vt 0.120357 0.969819
vt 0.144062 0.999860
vt 0.120357 0.989869
vt 0.105624 0.959901
vt 0.105624 1.000000
vt 0.719039 0.034492
vt 0.714219 0.039919
vt 0.708647 0.043792
vt 0.728050 0.030751
vt 0.726318 0.038989
vt 0.709984 0.063811
vt 0.702398 0.063388
vt 0.751653 0.029989
vt 0.753110 0.037361
vt 0.710106 0.064890
vt 0.768653 0.037572
vt 0.773522 0.042697
vt 0.773032 0.065237
vt 0.777557 0.063446
vt 0.726652 0.087357
vt 0.752887 0.088888
vt 0.781605 0.062433
vt 0.776226 0.045906
vt 0.773893 0.084047
vt 0.763561 0.096285
vt 0.723257 0.093630
vt 0.777172 0.081511
vt 0.773368 0.089092
vt 0.773368 0.112955
vt 0.763561 0.112955
vt 0.704680 0.130846
vt 0.717912 0.160575
vt 0.703532 0.150110
vt 0.697116 0.130424
vt 0.982422 0.112069
vt 0.998926 0.134478
vt 0.995539 0.140736
vt 0.982300 0.110992
vt 0.348244 0.844926
vt 0.362953 0.811933
vt 0.367012 0.811435
vt 0.361222 0.833302
vt 0.356376 0.785446
vt 0.361389 0.789734
vt 0.352039 0.779435
vt 0.347239 0.781874
vt 0.343932 0.775292
vt 0.319850 0.780070
vt 0.322695 0.774449
vt 0.303019 0.788522
vt 0.307399 0.782846
vt 0.297913 0.810414
vt 0.300585 0.792075
vt 0.295746 0.810378
vt 0.364857 0.207682
vt 0.348605 0.178653
vt 0.348558 0.177980
vt 0.418739 0.854489
vt 0.404095 0.886684
vt 0.367886 0.889620
vt 0.353839 0.852225
vt 0.358603 0.876088
vt 0.375743 0.821926
vt 0.403091 0.823728
vt 0.412214 0.827294
vt 0.418782 0.853742
vt 0.184212 0.155355
vt 0.174279 0.148069
vt 0.174279 0.131182
vt 0.184212 0.131182
vn -0.029517 -0.998160 -0.052956
vn -0.021962 -0.999536 -0.021119
vn -0.030843 -0.999429 -0.013765
vn -0.006615 -0.999836 -0.016846
vn -0.001318 -0.999995 -0.002875
vn 0.005078 -0.999853 -0.016402
vn 0.002633 -0.999989 -0.003908
vn 0.034668 -0.998696 -0.037473
vn 0.018772 -0.999738 -0.013073
vn 0.601463 -0.034304 -0.798164
vn 0.904138 -0.036191 -0.425706
vn 0.678171 0.499493 -0.539065
vn -0.015246 -0.999857 0.007341
vn -0.024689 -0.999656 0.008841
vn -0.004628 -0.999985 0.002862
vn 0.005176 -0.999985 0.001556
vn 0.091060 -0.995716 0.016042
vn 0.892531 -0.449814 -0.032514
vn 0.133396 -0.990420 -0.035675
vn -0.016675 -0.999179 0.036928
vn -0.020966 -0.999500 0.023678
vn -0.004147 -0.999955 0.008530
vn 0.005231 -0.999910 0.012366
vn 0.143867 -0.987197 0.068880
vn 0.780318 -0.596181 0.188871
vn -0.028579 -0.999287 0.024661
vn 0.407524 -0.912255 0.041411
vn 0.793146 -0.608781 0.017493
vn -0.013581 0.999874 0.008194
vn 0.502799 0.862894 0.051065
vn 0.284591 0.950622 0.123798
vn 0.800251 0.599477 0.015014
vn 0.817324 0.541953 0.195623
vn -0.026728 0.999275 0.027127
vn -0.019420 0.999779 0.008043
vn -0.032607 0.999429 0.008870
vn -0.026728 0.999275 0.027127
vn -0.027218 -0.999628 0.001671
vn -0.027218 -0.999628 0.001671
vn -0.027218 -0.999628 0.001671
vn -0.000719 0.999987 0.005061
vn -0.001264 0.999960 0.008901
vn 0.020106 0.999761 0.008619
vn 0.929244 0.368475 -0.027067
vn -0.025357 0.999404 -0.023410
vn -0.042087 0.998936 -0.018870
vn -0.001566 0.999994 -0.002993
vn 0.002559 0.999989 -0.003818
vn 0.029745 0.999336 -0.021061
vn 0.198787 0.978252 -0.059222
vn -0.052045 0.995245 -0.082331
vn -0.006428 0.999775 -0.020208
vn 0.002941 0.999788 -0.020372
vn 0.051113 0.996753 -0.062224
vn 0.678140 -0.499551 -0.539050
vn 0.904147 0.036479 -0.425662
vn 0.601463 0.034305 -0.798164
vn -0.611612 0.026726 -0.790706
vn -0.157819 0.062711 -0.985475
vn -0.167599 0.021482 -0.985621
vn -0.615659 0.009031 -0.787961
vn 0.186119 0.064134 -0.980432
vn 0.193615 0.021923 -0.980833
vn 0.611570 0.011373 -0.791109
vn 0.911089 0.018577 -0.411790
vn -0.170748 0.000000 -0.985315
vn -0.617194 0.000000 -0.786811
vn 0.195851 0.000000 -0.980634
vn 0.615806 0.000000 -0.787898
vn 0.907817 -0.000087 -0.419366
vn -0.167600 -0.021487 -0.985621
vn -0.615658 -0.009034 -0.787962
vn 0.193613 -0.021925 -0.980833
vn 0.611570 -0.011373 -0.791109
vn 0.911148 -0.018547 -0.411662
vn -0.157818 -0.062725 -0.985474
vn -0.611607 -0.026735 -0.790710
vn 0.186115 -0.064140 -0.980432
vn 0.992116 0.098914 -0.076955
vn 0.990086 -0.000290 -0.140462
vn 0.992110 -0.098274 -0.077842
vn 0.977080 0.190802 0.094391
vn 0.999947 -0.000601 0.010254
vn 0.977226 -0.189876 0.094748
vn 0.941391 0.336329 -0.025807
vn 0.999649 0.000000 -0.026488
vn 0.940392 -0.339196 -0.024688
vn -0.888177 0.016289 -0.459212
vn -0.891450 0.047853 -0.450586
vn -0.886522 -0.000000 -0.462685
vn -0.888177 -0.016290 -0.459212
vn -0.891449 -0.047856 -0.450586
vn -0.999583 0.028881 0.000254
vn -0.997580 0.069496 0.002062
vn -0.999998 -0.000000 -0.002140
vn -0.999583 -0.028882 0.000254
vn -0.997580 -0.069499 0.002062
vn -0.838983 0.025830 0.543544
vn -0.899205 0.063514 0.432894
vn -0.829018 -0.000039 0.559222
vn -0.837973 -0.025687 0.545106
vn -0.899208 -0.063517 0.432887
vn -0.445235 0.089084 0.890971
vn -0.476476 0.000044 0.879187
vn -0.444361 -0.088412 0.891475
vn -0.232180 0.292860 0.927537
vn -0.062929 0.585170 0.808465
vn -0.233526 -0.285286 0.929558
vn -0.063333 -0.576965 0.814310
vn -0.346233 0.000053 0.938149
vn 0.420851 -0.907130 0.000000
vn -0.206708 -0.978403 0.000000
vn 0.729461 -0.684022 0.000000
vn -0.200142 0.979767 0.000000
vn 0.404034 0.914744 0.000000
vn 0.731104 0.682266 0.000000
vn 0.933057 0.359728 0.000000
vn 1.000000 0.000000 0.000000
vn 0.930522 -0.366237 0.000000
vn -0.685594 0.727984 0.000000
vn -0.705634 0.708577 0.000000
vn -1.000000 -0.000000 0.000000
vn -0.693358 -0.720593 0.000000
vn -0.713100 -0.701062 0.000000
vn -1.000000 -0.000000 0.000000
s 1
usemtl M_sprout_SG
f 1/102/1 6/103/2 5/104/3
f 1/102/1 2/105/4 7/106/5 6/103/2
f 7/106/5 2/105/4 3/109/6 8/110/7
f 8/110/7 3/109/6 4/112/8 9/113/9
f 4/28/10 10/27/11 9/34/12
f 6/103/2 12/107/13 11/108/14 5/104/3
f 7/106/5 13/111/15 12/107/13 6/103/2
f 8/110/7 14/114/16 13/111/15 7/106/5
f 14/114/16 8/110/7 9/113/9 15/115/17
f 16/118/18 15/115/17 9/113/9 10/119/19
f 12/127/13 18/128/20 17/129/21 11/130/14
f 13/131/15 19/132/22 18/133/20 12/134/13
f 19/116/22 13/111/15 14/114/16 20/117/23
f 20/117/23 14/114/16 15/115/17 21/120/24
f 22/123/25 21/120/24 15/115/17 16/118/18
f 23/121/26 18/122/20 19/116/22 20/117/23
f 24/124/27 23/121/26 20/117/23 21/120/24
f 21/38/24 22/33/25 25/36/28 24/39/27
f 27/30/29 28/21/30 31/14/31
f 28/21/30 29/15/32 32/7/33 31/14/31
f 26/135/34 34/136/35 33/137/36 30/138/37
s off
f 26/151/38 35/152/39 34/153/40
s 1
f 35/154/41 26/155/42 27/156/29 36/157/43
f 36/157/43 27/156/29 31/158/31
f 37/3/44 36/13/43 31/14/31 32/7/33
f 34/136/35 39/139/45 38/140/46 33/137/36
f 35/154/41 40/160/47 39/161/45 34/162/35
f 36/157/43 41/159/48 40/160/47 35/154/41
f 41/144/48 36/148/43 42/146/49
f 43/149/50 42/146/49 36/148/43 37/150/44
f 38/140/46 39/139/45 44/141/51
f 39/139/45 40/142/47 45/143/52 44/141/51
f 45/143/52 40/142/47 41/144/48 46/145/53
f 46/145/53 41/144/48 42/146/49 47/147/54
f 42/11/55 43/2/56 47/6/57
f 44/74/58 45/75/59 49/76/60 48/77/61
f 49/76/60 45/75/59 46/78/62 50/79/63
f 50/79/63 46/78/62 47/82/57 51/83/64
f 51/5/64 47/6/57 43/2/56 60/1/65
f 48/77/61 49/76/60 53/80/66 52/81/67
f 53/80/66 49/76/60 50/79/63 54/84/68
f 54/84/68 50/79/63 51/83/64 55/87/69
f 55/12/69 51/5/64 60/1/65 61/9/70
f 52/81/67 53/80/66 57/85/71 56/86/72
f 57/85/71 53/80/66 54/84/68 58/88/73
f 58/88/73 54/84/68 55/87/69 59/91/74
f 59/20/74 55/12/69 61/9/70 62/18/75
f 56/86/72 57/85/71 2/89/76 1/90/77
f 3/92/78 2/89/76 57/85/71 58/88/73
f 4/93/10 3/92/78 58/88/73 59/91/74
f 10/27/11 4/28/10 59/20/74 62/18/75
f 60/1/65 43/2/56 37/3/44 63/4/79
f 61/9/70 60/1/65 63/4/79 64/10/80
f 62/18/75 61/9/70 64/10/80 65/19/81
f 16/26/18 10/27/11 62/18/75 65/19/81
f 63/4/79 37/3/44 32/7/33 66/8/82
f 64/10/80 63/4/79 66/8/82 67/17/83
f 65/19/81 64/10/80 67/17/83 68/25/84
f 22/33/25 16/26/18 65/19/81 68/25/84
f 66/8/82 32/7/33 29/15/32 69/16/85
f 67/17/83 66/8/82 69/16/85 70/24/86
f 68/25/84 67/17/83 70/24/86 71/32/87
f 22/33/25 68/25/84 71/32/87 25/36/28
f 48/49/61 72/41/88 38/44/89 44/50/58
f 52/54/67 73/45/90 72/41/88 48/49/61
f 56/59/72 74/51/91 73/45/90 52/54/67
f 1/62/77 5/56/92 74/51/91 56/59/72
f 72/41/88 75/42/93 33/43/94 38/44/89
f 73/45/90 76/46/95 75/42/93 72/41/88
f 74/51/91 77/52/96 76/46/95 73/45/90
f 5/56/92 11/57/97 77/52/96 74/51/91
f 75/42/93 78/47/98 30/48/99 33/43/94
f 76/46/95 79/53/100 78/47/98 75/42/93
f 77/52/96 80/58/101 79/53/100 76/46/95
f 11/57/97 17/61/102 80/58/101 77/52/96
f 78/47/98 26/55/103 30/48/99
f 79/53/100 81/60/104 26/55/103 78/47/98
f 80/58/101 18/63/105 81/60/104 79/53/100
f 17/61/102 18/63/105 80/58/101
f 26/94/103 83/97/106 27/100/107
f 84/99/108 18/98/105 23/101/109
f 26/94/103 81/95/104 82/96/110 83/97/106
f 81/95/104 18/98/105 84/99/108 82/96/110
f 23/121/26 24/124/27 86/125/111 85/126/112
f 24/39/27 25/36/28 87/37/113 86/40/111
f 28/163/30 27/164/29 88/165/114 89/166/115
f 29/15/32 28/21/30 89/29/115 90/22/116
f 69/16/85 29/15/32 90/22/116 91/23/117
f 70/24/86 69/16/85 91/23/117 92/31/118
f 71/32/87 70/24/86 92/31/118 93/35/119
f 25/36/28 71/32/87 93/35/119 87/37/113
f 27/72/29 83/70/120 94/71/121 88/73/114
f 82/64/122 84/65/123 96/66/124 95/67/125
f 83/70/120 82/64/122 95/67/125 94/71/121
f 84/65/123 23/68/26 85/69/112 96/66/124
