# This file uses centimeters as units for non-parametric coordinates.

mtllib neck_link.mtl
v -0.023155 -0.025517 0.016800
v -0.014645 -0.030942 0.016800
v 0.001027 -0.034538 0.016800
v 0.017092 -0.030772 0.016800
v 0.026962 -0.023538 0.016800
v -0.021696 -0.022996 0.029663
v -0.012636 -0.028728 0.032498
v 0.001137 -0.034216 0.033577
v 0.018004 -0.032626 0.033948
v 0.030014 -0.025654 0.035826
v -0.015465 -0.024550 0.044242
v -0.011051 -0.026512 0.048725
v 0.001499 -0.032024 0.050005
v 0.017911 -0.032035 0.050339
v 0.029885 -0.026239 0.048847
v -0.011384 -0.024550 0.054381
v -0.008432 -0.024550 0.059533
v 0.002448 -0.027249 0.062262
v 0.015745 -0.028122 0.062408
v 0.026447 -0.024550 0.059873
v -0.011383 -0.020271 0.054382
v -0.008432 -0.020271 0.059533
v 0.001654 -0.019547 0.065187
v 0.017411 -0.019547 0.065315
v 0.026447 -0.020271 0.059873
v -0.011383 0.020555 0.054382
v -0.008432 0.020555 0.059533
v 0.001654 0.019832 0.065187
v 0.017411 0.019832 0.065315
v 0.026447 0.020555 0.059873
v -0.011383 0.024550 0.054382
v -0.008432 0.024550 0.059533
v 0.002448 0.027249 0.062262
v 0.015745 0.028122 0.062408
v 0.026447 0.024550 0.059873
v -0.015465 0.024550 0.044242
v -0.011009 0.026574 0.048710
v 0.001481 0.031926 0.050019
v 0.017924 0.031986 0.050402
v 0.029885 0.026239 0.048847
v -0.022493 0.022186 0.029634
v -0.012843 0.029331 0.032201
v 0.001144 0.034204 0.033572
v 0.017979 0.032880 0.033909
v 0.029447 0.026287 0.035675
v -0.025054 0.023590 0.016800
v -0.015546 0.031034 0.016800
v 0.000931 0.034411 0.016800
v 0.016365 0.030467 0.016800
v 0.025754 0.025155 0.016800
v -0.032523 0.014162 0.016800
v 0.031920 0.014829 0.016800
v -0.032690 -0.014732 0.016800
v 0.032081 -0.013720 0.016800
v 0.031441 0.020555 0.024772
v 0.031441 -0.020271 0.024772
v 0.031690 0.020268 0.049337
v 0.031690 -0.019984 0.049337
v -0.028156 0.014177 0.026755
v -0.028157 -0.013891 0.026754
v -0.018672 0.020555 0.035958
v -0.018672 -0.020271 0.035958
v -0.030388 0.000000 0.026755
v -0.034838 -0.000000 0.016800
v 0.035059 -0.000000 0.024772
v 0.035619 0.000000 0.016800
vt 0.459317 0.393727
vt 0.463641 0.393727
vt 0.463641 0.397584
vt 0.459318 0.397584
vt 0.450807 0.393727
vt 0.454570 0.391959
vt 0.443855 0.397584
vt 0.438571 0.395128
vt 0.440951 0.389962
vt 0.436130 0.403335
vt 0.427776 0.392856
vt 0.427776 0.387966
vt 0.427776 0.402576
vt 0.443855 0.434381
vt 0.436131 0.428632
vt 0.436131 0.415854
vt 0.427776 0.415854
vt 0.438547 0.435851
vt 0.450808 0.437981
vt 0.427776 0.428619
vt 0.427776 0.437116
vt 0.459318 0.434381
vt 0.459318 0.437981
vt 0.454557 0.439805
vt 0.440702 0.442291
vt 0.427776 0.443825
vt 0.463641 0.434381
vt 0.463641 0.437981
vt 0.074872 0.445565
vt 0.068655 0.445565
vt 0.068655 0.433146
vt 0.074872 0.428351
vt 0.074872 0.462540
vt 0.068655 0.457055
vt 0.068655 0.424499
vt 0.083374 0.423551
vt 0.068655 0.465276
vt 0.083492 0.467048
vt 0.093646 0.423591
vt 0.094028 0.428591
vt 0.094028 0.462300
vt 0.093646 0.467538
vt 0.068655 0.471334
vt 0.082028 0.472887
vt 0.102244 0.425005
vt 0.102244 0.428351
vt 0.102244 0.462540
vt 0.102244 0.466124
vt 0.995538 0.258284
vt 0.993516 0.249536
vt 0.999283 0.250174
vt 0.998742 0.258284
vt 0.992863 0.238843
vt 0.999283 0.237504
vt 0.995538 0.230238
vt 0.998742 0.230238
vt 0.993405 0.286386
vt 0.992863 0.278260
vt 0.998428 0.277620
vt 0.996402 0.286386
vt 0.992863 0.265564
vt 0.999083 0.266906
vt 0.993405 0.258284
vt 0.996402 0.258284
vt 0.002577 0.093142
vt 0.000000 0.108861
vt 0.000000 0.077641
vt 0.961176 0.680253
vt 0.972732 0.680253
vt 0.972813 0.693538
vt 0.962657 0.692684
vt 0.984578 0.680253
vt 0.985251 0.693832
vt 0.973080 0.706547
vt 0.963826 0.705534
vt 0.985182 0.706812
vt 0.973780 0.716254
vt 0.965757 0.714093
vt 0.994107 0.695319
vt 0.994012 0.705631
vt 0.983586 0.716369
vt 0.991477 0.714362
vt 0.496414 0.542043
vt 0.504466 0.539874
vt 0.503751 0.549604
vt 0.494508 0.550644
vt 0.514307 0.539758
vt 0.515919 0.549300
vt 0.503501 0.562674
vt 0.493151 0.563764
vt 0.522226 0.541773
vt 0.524770 0.550535
vt 0.515960 0.562407
vt 0.503344 0.576004
vt 0.491150 0.576004
vt 0.524446 0.561003
vt 0.514766 0.576004
vt 0.521713 0.576004
vn -0.663724 -0.706403 0.245894
vn -0.400566 -0.905868 0.137661
vn -0.414228 -0.899478 0.139121
vn -0.701246 -0.651400 0.289709
vn -0.056639 -0.998221 0.018617
vn -0.107220 -0.992075 0.065501
vn 0.345108 -0.933467 -0.097672
vn 0.294323 -0.955258 -0.029263
vn 0.634157 -0.752108 -0.179384
vn 0.704061 -0.707363 -0.062731
vn -0.418341 -0.885594 0.201778
vn -0.552394 -0.817719 0.161853
vn -0.167130 -0.965210 0.201089
vn 0.208322 -0.963064 0.170614
vn 0.453774 -0.884149 0.111216
vn -0.366894 -0.876842 0.310704
vn -0.538554 -0.805368 0.247672
vn -0.165330 -0.929275 0.330324
vn 0.129481 -0.934057 0.332825
vn 0.409482 -0.858871 0.307677
vn -0.913804 0.007060 0.406094
vn -0.518839 -0.192857 0.832834
vn -0.529728 -0.188494 0.826957
vn -0.913796 0.007058 0.406111
vn -0.130016 -0.312806 0.940876
vn -0.147177 -0.308780 0.939677
vn 0.098179 -0.318293 0.942895
vn 0.139581 -0.310796 0.940172
vn 0.393621 -0.250949 0.884357
vn 0.393621 -0.250949 0.884357
vn -0.913796 -0.007551 0.406102
vn -0.527207 0.198450 0.826239
vn -0.516432 0.202943 0.831933
vn -0.913796 -0.007551 0.406102
vn -0.146130 0.320165 0.936024
vn -0.128986 0.324145 0.937173
vn 0.138799 0.321987 0.936514
vn 0.096690 0.329531 0.939180
vn 0.393874 0.261869 0.881072
vn 0.393874 0.261869 0.881072
vn -0.543580 0.801264 0.249992
vn -0.363285 0.878937 0.309019
vn -0.414099 0.884886 0.213304
vn -0.595528 0.782216 0.182986
vn -0.164366 0.930668 0.326866
vn -0.163536 0.964419 0.207730
vn 0.127442 0.935406 0.329809
vn 0.202259 0.962976 0.178237
vn 0.408814 0.859469 0.306895
vn 0.449727 0.884300 0.125534
vn -0.420154 0.895868 0.144534
vn -0.718716 0.635042 0.283140
vn -0.098201 0.993092 0.064231
vn 0.272593 0.961729 -0.027738
vn 0.686525 0.724594 -0.060393
vn -0.424853 0.895105 0.135228
vn -0.697495 0.677241 0.234191
vn -0.044654 0.999002 0.001330
vn 0.311779 0.943643 -0.111049
vn 0.602961 0.775606 -0.186745
vn 0.949455 0.305582 -0.071791
vn 0.877344 0.453318 -0.157384
vn 0.999946 0.002311 -0.010120
vn 0.999946 0.002358 -0.010120
vn 0.957033 -0.282826 -0.064011
vn 0.894554 -0.419187 -0.155100
vn 0.952921 0.283897 0.106509
vn 0.952626 0.279675 0.119524
vn 0.961194 -0.241209 0.133879
vn 0.961917 -0.243554 0.124087
vn 0.907795 0.183012 0.377378
vn 0.907795 0.183012 0.377378
vn 0.909627 -0.173431 0.377493
vn 0.909627 -0.173431 0.377493
vn -0.879589 0.312617 0.358600
vn -0.758701 0.123532 0.639619
vn -0.744135 0.000733 0.668029
vn -0.911827 0.002357 0.410569
vn -0.864232 -0.345985 0.365235
vn -0.760022 -0.139970 0.634645
vn -0.717410 0.025703 0.696177
vn -0.922775 0.001055 0.385338
vn -0.730525 -0.049895 0.681060
vn -0.922455 -0.015180 0.385805
vn -0.000001 0.000000 1.000000
vn -0.000001 0.000000 1.000000
vn -0.000001 0.000000 1.000000
s 1
usemtl M_sprout_SG
f 1/11/1 2/12/2 7/9/3 6/8/4
f 2/68/2 3/69/5 8/70/6 7/71/3
f 3/69/5 4/72/7 9/73/8 8/70/6
f 4/43/7 5/37/9 10/38/10 9/44/8
f 6/8/4 7/9/3 12/6/11 11/5/12
f 7/71/3 8/70/6 13/74/13 12/75/11
f 8/70/6 9/73/8 14/76/14 13/74/13
f 9/73/8 10/79/10 15/80/15 14/76/14
f 11/5/12 12/6/11 17/2/16 16/1/17
f 12/75/11 13/74/13 18/77/18 17/78/16
f 13/74/13 14/76/14 19/81/19 18/77/18
f 14/76/14 15/80/15 20/82/20 19/81/19
f 16/1/21 17/2/22 22/3/23 21/4/24
f 17/49/22 18/50/25 23/51/26 22/52/23
f 18/50/25 19/53/27 24/54/28 23/51/26
f 19/53/27 20/55/29 25/56/30 24/54/28
f 26/22/31 27/27/32 32/28/33 31/23/34
f 27/57/32 28/58/35 33/59/36 32/60/33
f 28/58/35 29/61/37 34/62/38 33/59/36
f 29/61/37 30/63/39 35/64/40 34/62/38
f 31/23/41 32/28/42 37/24/43 36/19/44
f 32/83/42 33/84/45 38/85/46 37/86/43
f 33/84/45 34/87/47 39/88/48 38/85/46
f 34/87/47 35/91/49 40/92/50 39/88/48
f 36/19/44 37/24/43 42/25/51 41/18/52
f 37/86/43 38/85/46 43/89/53 42/90/51
f 38/85/46 39/88/48 44/93/54 43/89/53
f 39/88/48 40/92/50 45/96/55 44/93/54
f 41/18/52 42/25/51 47/26/56 46/21/57
f 42/90/51 43/89/53 48/94/58 47/95/56
f 43/89/53 44/93/54 49/97/59 48/94/58
f 44/93/54 45/96/55 50/98/60 49/97/59
f 52/31/61 50/35/60 45/36/55 55/32/62
f 65/29/63 66/30/64 52/31/61 55/32/62
f 5/37/9 54/34/65 56/33/66 10/38/10
f 55/32/62 45/36/55 40/39/67 57/40/68
f 10/38/10 56/33/66 58/41/69 15/42/70
f 57/40/68 40/39/67 35/45/71 30/46/72
f 15/42/70 58/41/69 25/47/73 20/48/74
f 46/21/57 51/20/75 59/15/76 41/18/52
f 63/16/77 64/17/78 53/13/79 60/10/80
f 53/13/79 1/11/1 6/8/4 60/10/80
f 41/18/52 59/15/76 61/14/81 36/19/82
f 61/14/81 59/15/76 63/16/77 60/10/80 62/7/83
f 60/10/80 6/8/4 11/5/84 62/7/83
f 36/19/82 61/14/81 26/22/31 31/23/34
f 62/7/83 11/5/84 16/1/21 21/4/24
f 59/15/76 51/20/75 64/17/78 63/16/77
f 56/33/66 54/34/65 66/30/64 65/29/63
s off
f 65/65/85 55/66/86 56/67/87
