# This file uses centimeters as units for non-parametric coordinates.

mtllib pelvis_link.mtl
v -0.047587 -0.045177 -0.072539
v -0.032138 -0.051137 -0.072911
v -0.024291 -0.048126 -0.079370
v -0.009934 -0.045472 -0.085059
v 0.009935 -0.045472 -0.085059
v 0.024291 -0.048126 -0.079370
v 0.032138 -0.051137 -0.072911
v 0.047587 -0.045177 -0.072538
v -0.052683 -0.049766 -0.062825
v -0.038167 -0.054904 -0.064833
v -0.032600 -0.051421 -0.072243
v -0.014156 -0.046041 -0.083680
v 0.014156 -0.046041 -0.083680
v 0.032600 -0.051421 -0.072243
v 0.038167 -0.054904 -0.064833
v 0.052683 -0.049766 -0.062825
v -0.047375 -0.058607 -0.051166
v -0.042347 -0.060246 -0.053377
v -0.041062 -0.058221 -0.057560
v -0.032940 -0.051610 -0.071420
v 0.032940 -0.051610 -0.071420
v 0.041062 -0.058221 -0.057560
v 0.042347 -0.060246 -0.053377
v 0.047375 -0.058607 -0.051166
v -0.055641 -0.061499 -0.037665
v -0.042186 -0.066649 -0.039647
v -0.040520 -0.068435 -0.035516
v -0.032085 -0.074551 -0.022018
v 0.032085 -0.074551 -0.022018
v 0.040520 -0.068435 -0.035516
v 0.042186 -0.066649 -0.039647
v 0.055641 -0.061499 -0.037664
v -0.052597 -0.067029 -0.025456
v -0.038890 -0.071488 -0.027627
v -0.031650 -0.075013 -0.021408
v -0.013633 -0.079810 -0.010740
v 0.013633 -0.079810 -0.010740
v 0.031650 -0.075013 -0.021408
v 0.038891 -0.071488 -0.027626
v 0.052597 -0.067029 -0.025455
v -0.049213 -0.069534 -0.014256
v -0.041805 -0.074083 -0.010549
v -0.024802 -0.078053 -0.012367
v -0.009394 -0.080560 -0.009512
v 0.009394 -0.080560 -0.009512
v 0.024802 -0.078053 -0.012367
v 0.041805 -0.074083 -0.010549
v 0.049078 -0.069648 -0.014227
v -0.043739 -0.071340 -0.006083
v -0.036829 -0.074612 -0.001194
v -0.024896 -0.078826 0.003277
v -0.008712 -0.081258 0.004683
v 0.008712 -0.081258 0.004683
v 0.024896 -0.078826 0.003277
v 0.036922 -0.074420 -0.001029
v 0.043805 -0.071300 -0.006175
v -0.039683 -0.071899 -0.002024
v -0.031945 -0.073427 0.004060
v -0.021062 -0.074713 0.009940
v -0.007611 -0.075823 0.013372
v 0.007610 -0.075830 0.013368
v 0.021062 -0.074722 0.009936
v 0.032215 -0.073240 0.003967
v 0.039763 -0.072026 -0.002139
v -0.043640 -0.050739 0.014379
v -0.036001 -0.057933 0.018090
v -0.025305 -0.064055 0.020024
v -0.008716 -0.065613 0.020994
v 0.008715 -0.065611 0.020990
v 0.024897 -0.063506 0.019804
v 0.034515 -0.056983 0.018793
v 0.039207 -0.051624 0.017273
v -0.047447 -0.042354 0.017439
v -0.042767 -0.048603 0.020498
v -0.026161 -0.049220 0.020734
v -0.008725 -0.049253 0.020186
v 0.008729 -0.049252 0.020185
v 0.026164 -0.049224 0.020680
v 0.041089 -0.047637 0.019819
v 0.043925 -0.042233 0.018504
v -0.051855 -0.030062 0.019066
v -0.043578 -0.032807 0.021047
v -0.026190 -0.032841 0.020136
v -0.008738 -0.032843 0.019541
v 0.008737 -0.032847 0.019540
v 0.026201 -0.032847 0.020028
v 0.043584 -0.032806 0.020998
v 0.047913 -0.029845 0.018868
v -0.055857 0.000139 0.019462
v -0.043614 0.000001 0.020587
v -0.032738 0.001301 0.019858
v -0.032080 0.004623 0.019843
v 0.014935 0.029629 0.019566
v 0.041943 0.000947 0.020398
v 0.043621 -0.000002 0.020515
v 0.051042 0.000093 0.018768
v -0.051864 0.030031 0.019066
v -0.043578 0.032807 0.021046
v -0.026190 0.032841 0.020136
v -0.008738 0.032843 0.019541
v 0.008737 0.032847 0.019540
v 0.026201 0.032847 0.020028
v 0.043584 0.032806 0.020999
v 0.047927 0.029819 0.018873
v -0.047482 0.042302 0.017431
v -0.042776 0.048604 0.020498
v -0.026161 0.049220 0.020734
v -0.008729 0.049252 0.020186
v 0.008730 0.049252 0.020185
v 0.026164 0.049224 0.020681
v 0.041122 0.047646 0.019823
v 0.043951 0.042171 0.018592
v -0.043661 0.050733 0.014407
v -0.035912 0.058014 0.018076
v -0.025309 0.064045 0.020019
v -0.008716 0.065613 0.020993
v 0.008715 0.065613 0.020989
v 0.024914 0.063519 0.019814
v 0.034381 0.057154 0.018810
v 0.039307 0.051548 0.017154
v -0.039682 0.071904 -0.002023
v -0.031951 0.073417 0.004060
v -0.021062 0.074713 0.009940
v -0.007611 0.075820 0.013373
v 0.007610 0.075830 0.013368
v 0.021062 0.074722 0.009936
v 0.032615 0.073034 0.003795
v 0.039763 0.072026 -0.002139
v -0.043775 0.071317 -0.006120
v -0.036905 0.074421 -0.001011
v -0.024896 0.078826 0.003277
v -0.008712 0.081258 0.004683
v 0.008712 0.081258 0.004683
v 0.024896 0.078826 0.003277
v 0.036854 0.074602 -0.001207
v 0.043782 0.071291 -0.006137
v -0.049192 0.069551 -0.014248
v -0.041805 0.074083 -0.010549
v -0.025090 0.077972 -0.012543
v -0.009394 0.080560 -0.009512
v 0.009394 0.080560 -0.009512
v 0.025090 0.077972 -0.012543
v 0.041805 0.074083 -0.010549
v 0.049079 0.069647 -0.014227
v -0.052597 0.067029 -0.025455
v -0.038867 0.071516 -0.027524
v -0.031650 0.075013 -0.021408
v -0.013633 0.079810 -0.010740
v 0.013633 0.079810 -0.010740
v 0.031650 0.075013 -0.021408
v 0.038867 0.071516 -0.027524
v 0.052597 0.067029 -0.025456
v -0.055641 0.061499 -0.037664
v -0.042186 0.066649 -0.039645
v -0.040520 0.068435 -0.035516
v -0.032085 0.074551 -0.022018
v 0.032085 0.074551 -0.022018
v 0.040520 0.068435 -0.035516
v 0.042186 0.066649 -0.039647
v 0.055641 0.061499 -0.037665
v -0.047364 0.058529 -0.051331
v -0.042347 0.060246 -0.053377
v -0.041062 0.058221 -0.057560
v -0.032940 0.051610 -0.071420
v 0.032940 0.051610 -0.071420
v 0.041062 0.058221 -0.057560
v 0.042347 0.060246 -0.053377
v 0.047364 0.058529 -0.051331
v -0.052683 0.049766 -0.062825
v -0.038167 0.054904 -0.064833
v -0.032600 0.051421 -0.072243
v -0.014156 0.046041 -0.083680
v 0.014156 0.046041 -0.083680
v 0.032600 0.051421 -0.072243
v 0.038167 0.054904 -0.064833
v 0.052683 0.049766 -0.062825
v -0.047587 0.045177 -0.072538
v -0.032138 0.051137 -0.072911
v -0.024291 0.048126 -0.079370
v -0.009934 0.045472 -0.085059
v 0.009934 0.045472 -0.085059
v 0.024291 0.048126 -0.079370
v 0.032138 0.051137 -0.072911
v 0.047587 0.045177 -0.072539
v -0.046377 0.044199 -0.074413
v -0.039783 0.041208 -0.081178
v -0.021958 0.047551 -0.080602
v -0.008391 0.045275 -0.085484
v 0.008391 0.045275 -0.085484
v 0.021958 0.047551 -0.080602
v 0.039783 0.041208 -0.081178
v 0.046377 0.044199 -0.074414
v -0.044728 0.039663 -0.078354
v -0.036626 0.039775 -0.083901
v -0.025369 0.036936 -0.090340
v -0.007757 0.041839 -0.088235
v 0.007757 0.041839 -0.088235
v 0.025369 0.036936 -0.090340
v 0.036626 0.039775 -0.083901
v 0.044629 0.039780 -0.078388
v -0.043474 0.031715 -0.081000
v -0.035735 0.032252 -0.086825
v -0.024020 0.031887 -0.092808
v -0.008617 0.032383 -0.096259
v 0.008617 0.032383 -0.096259
v 0.024013 0.031891 -0.092824
v 0.035717 0.032256 -0.086843
v 0.043293 0.031677 -0.081203
v -0.044797 0.000000 -0.081531
v -0.036453 0.000000 -0.087917
v -0.024456 0.000000 -0.094016
v -0.008707 -0.000000 -0.097420
v 0.008707 -0.000000 -0.097420
v 0.024456 -0.000000 -0.094016
v 0.036453 -0.000000 -0.087917
v 0.044797 -0.000000 -0.081531
v -0.043334 -0.031677 -0.081136
v -0.035748 -0.032250 -0.086812
v -0.024021 -0.031892 -0.092803
v -0.008617 -0.032383 -0.096259
v 0.008617 -0.032383 -0.096259
v 0.024013 -0.031891 -0.092824
v 0.035717 -0.032256 -0.086843
v 0.043293 -0.031678 -0.081203
v -0.044763 -0.039621 -0.078344
v -0.036626 -0.039775 -0.083901
v -0.025369 -0.036936 -0.090340
v -0.007483 -0.041819 -0.088282
v 0.007483 -0.041819 -0.088282
v 0.025369 -0.036936 -0.090340
v 0.036626 -0.039775 -0.083901
v 0.044629 -0.039780 -0.078388
v -0.046377 -0.044199 -0.074414
v -0.039783 -0.041208 -0.081178
v -0.021958 -0.047551 -0.080602
v -0.008391 -0.045275 -0.085484
v 0.008391 -0.045275 -0.085484
v 0.021958 -0.047551 -0.080602
v 0.039783 -0.041208 -0.081178
v 0.046377 -0.044199 -0.074413
v 0.051118 0.047957 -0.066577
v 0.050232 0.043064 -0.071423
v 0.050314 0.032330 -0.073491
v 0.051300 -0.000000 -0.074135
v 0.050314 -0.032330 -0.073491
v 0.050231 -0.043064 -0.071423
v 0.051118 -0.047957 -0.066577
v 0.055236 0.052969 -0.055828
v 0.056021 0.047095 -0.060989
v 0.056566 0.032652 -0.062148
v 0.057491 -0.000000 -0.062393
v 0.056566 -0.032652 -0.062148
v 0.056021 -0.047095 -0.060989
v 0.055236 -0.052969 -0.055828
v 0.056681 0.058478 -0.043792
v 0.059492 0.049295 -0.046551
v 0.059317 0.032761 -0.046657
v 0.060603 -0.000000 -0.046622
v 0.059317 -0.032761 -0.046657
v 0.059492 -0.049295 -0.046551
v 0.056681 -0.058478 -0.043792
v 0.056899 0.062101 -0.029396
v 0.058662 0.049102 -0.030325
v 0.059283 0.032728 -0.030146
v 0.059592 -0.000000 -0.029835
v 0.059283 -0.032728 -0.030146
v 0.058662 -0.049102 -0.030325
v 0.056899 -0.062101 -0.029396
v 0.052628 0.064237 -0.016929
v 0.054014 0.048910 -0.016291
v 0.054534 0.032522 -0.015934
v 0.054800 -0.000001 -0.015490
v 0.054534 -0.032522 -0.015934
v 0.054011 -0.048854 -0.016274
v 0.052628 -0.064237 -0.016929
v 0.046614 0.061661 -0.006144
v 0.047765 0.047998 -0.005050
v 0.048989 0.030229 0.003543
v 0.052022 0.000046 0.003787
v 0.048958 -0.030205 0.003546
v 0.047834 -0.048084 -0.005281
v 0.046614 -0.061661 -0.006144
v -0.051118 0.047957 -0.066577
v -0.050208 0.043148 -0.071397
v -0.050447 0.032312 -0.073229
v -0.051300 0.000000 -0.074135
v -0.050231 -0.032326 -0.073601
v -0.050197 -0.043176 -0.071392
v -0.051118 -0.047957 -0.066577
v -0.055236 0.052969 -0.055828
v -0.056028 0.047096 -0.060972
v -0.056561 0.032653 -0.062125
v -0.057491 0.000000 -0.062393
v -0.056561 -0.032652 -0.062127
v -0.056028 -0.047096 -0.060969
v -0.055236 -0.052969 -0.055828
v -0.056681 0.058478 -0.043792
v -0.059499 0.049301 -0.046545
v -0.059287 0.032758 -0.046654
v -0.060603 0.000000 -0.046622
v -0.059292 -0.032758 -0.046655
v -0.059500 -0.049301 -0.046546
v -0.056681 -0.058478 -0.043792
v -0.056901 0.062094 -0.029370
v -0.058648 0.049099 -0.030326
v -0.059280 0.032727 -0.030145
v -0.059592 0.000000 -0.029835
v -0.059280 -0.032727 -0.030145
v -0.058648 -0.049099 -0.030326
v -0.056890 -0.062105 -0.029374
v -0.052602 0.064276 -0.016909
v -0.054000 0.048517 -0.015987
v -0.056040 0.032000 -0.012751
v -0.058701 0.000000 -0.012589
v -0.056040 -0.032000 -0.012751
v -0.054011 -0.048445 -0.016082
v -0.052602 -0.064274 -0.016909
v -0.046746 0.061745 -0.006485
v -0.050584 0.044769 0.001828
v -0.054619 0.031089 0.003037
v -0.058543 0.000000 0.004074
v -0.054624 -0.031090 0.003049
v -0.050584 -0.044769 0.001823
v -0.046746 -0.061746 -0.006484
vt 0.460365 0.612528
vt 0.462009 0.604285
vt 0.470301 0.601189
vt 0.469379 0.612280
vt 0.454236 0.613029
vt 0.456474 0.606807
vt 0.465860 0.600527
vt 0.474402 0.596678
vt 0.481774 0.599500
vt 0.481690 0.612197
vt 0.469184 0.637356
vt 0.459853 0.637356
vt 0.452092 0.606811
vt 0.449754 0.612584
vt 0.459632 0.603413
vt 0.453976 0.637356
vt 0.483967 0.592448
vt 0.494670 0.599648
vt 0.494812 0.612222
vt 0.481718 0.637356
vt 0.469379 0.662431
vt 0.460365 0.662183
vt 0.454256 0.605710
vt 0.448901 0.637356
vt 0.454236 0.661682
vt 0.495408 0.589666
vt 0.505822 0.599796
vt 0.506105 0.612381
vt 0.495059 0.637356
vt 0.481690 0.662514
vt 0.462009 0.670426
vt 0.470301 0.673522
vt 0.449754 0.662127
vt 0.456474 0.667904
vt 0.488836 0.590128
vt 0.498539 0.585881
vt 0.505315 0.588025
vt 0.514755 0.600496
vt 0.521584 0.614141
vt 0.506459 0.637356
vt 0.494812 0.662489
vt 0.481774 0.675211
vt 0.465860 0.674184
vt 0.474402 0.678033
vt 0.452092 0.667900
vt 0.459632 0.671298
vt 0.507462 0.583870
vt 0.513886 0.590003
vt 0.533544 0.604971
vt 0.533767 0.614457
vt 0.521778 0.637320
vt 0.506105 0.662331
vt 0.494670 0.675063
vt 0.483967 0.682263
vt 0.454256 0.669001
vt 0.513892 0.582608
vt 0.532401 0.597770
vt 0.535457 0.612162
vt 0.534522 0.600766
vt 0.533683 0.637284
vt 0.521587 0.660552
vt 0.505836 0.674872
vt 0.495408 0.685045
vt 0.517809 0.580065
vt 0.510385 0.580464
vt 0.517069 0.582044
vt 0.533717 0.593464
vt 0.533763 0.660275
vt 0.514572 0.674281
vt 0.505315 0.686686
vt 0.488837 0.684583
vt 0.498539 0.688830
vt 0.521785 0.581270
vt 0.533473 0.669788
vt 0.513886 0.684708
vt 0.507462 0.690841
vt 0.534519 0.673938
vt 0.535456 0.662549
vt 0.532495 0.677000
vt 0.513861 0.692110
vt 0.533703 0.681115
vt 0.517069 0.692667
vt 0.510385 0.694247
vt 0.517951 0.694506
vt 0.521921 0.693599
vt 0.351095 0.671860
vt 0.349643 0.663557
vt 0.358448 0.663818
vt 0.359362 0.674884
vt 0.345579 0.669189
vt 0.343481 0.663099
vt 0.348924 0.638797
vt 0.358235 0.638797
vt 0.370716 0.663898
vt 0.370802 0.676575
vt 0.354918 0.675545
vt 0.363442 0.679385
vt 0.341180 0.669275
vt 0.338862 0.663511
vt 0.343060 0.638797
vt 0.348704 0.672665
vt 0.349348 0.614027
vt 0.358446 0.613777
vt 0.370741 0.638797
vt 0.383807 0.663874
vt 0.383663 0.676420
vt 0.372985 0.683607
vt 0.343340 0.670373
vt 0.337996 0.638797
vt 0.343373 0.614525
vt 0.351099 0.605713
vt 0.359365 0.602710
vt 0.370715 0.613696
vt 0.384053 0.638797
vt 0.397600 0.663318
vt 0.395033 0.675974
vt 0.384421 0.686378
vt 0.338872 0.614086
vt 0.345587 0.608437
vt 0.354918 0.602050
vt 0.363442 0.598209
vt 0.370802 0.601020
vt 0.383807 0.613720
vt 0.397728 0.638797
vt 0.410119 0.662619
vt 0.409160 0.673102
vt 0.394303 0.688049
vt 0.377844 0.685921
vt 0.387526 0.690159
vt 0.341180 0.608319
vt 0.348704 0.604929
vt 0.372985 0.593988
vt 0.383663 0.601174
vt 0.397600 0.614277
vt 0.410941 0.638797
vt 0.422829 0.661808
vt 0.421533 0.671212
vt 0.402569 0.686110
vt 0.396412 0.692092
vt 0.343340 0.607221
vt 0.384418 0.591209
vt 0.394958 0.601676
vt 0.410128 0.614974
vt 0.423143 0.638903
vt 0.419135 0.677672
vt 0.402858 0.693445
vt 0.377844 0.591673
vt 0.387525 0.587436
vt 0.394302 0.589547
vt 0.409156 0.604492
vt 0.422829 0.615762
vt 0.423965 0.676041
vt 0.422044 0.683251
vt 0.406106 0.693894
vt 0.406909 0.695823
vt 0.399346 0.695564
vt 0.396406 0.585516
vt 0.402569 0.591483
vt 0.421539 0.606343
vt 0.410930 0.695053
vt 0.402887 0.584132
vt 0.419112 0.599918
vt 0.399346 0.582030
vt 0.406764 0.581625
vt 0.406105 0.583704
vt 0.422056 0.594405
vt 0.423965 0.601554
vt 0.410930 0.582533
vt 0.110613 0.577905
vt 0.118990 0.573272
vt 0.118320 0.584500
vt 0.105313 0.584967
vt 0.113790 0.566179
vt 0.122314 0.565206
vt 0.131983 0.572093
vt 0.131976 0.584475
vt 0.118297 0.596896
vt 0.104679 0.596922
vt 0.109965 0.565282
vt 0.119310 0.562093
vt 0.132849 0.564366
vt 0.145635 0.572095
vt 0.145646 0.584475
vt 0.131966 0.596895
vt 0.113169 0.622736
vt 0.104651 0.621752
vt 0.101648 0.589697
vt 0.098196 0.599000
vt 0.131986 0.560252
vt 0.144770 0.564361
vt 0.158309 0.573688
vt 0.159301 0.584497
vt 0.145652 0.596891
vt 0.113684 0.625250
vt 0.095061 0.621857
vt 0.145633 0.560252
vt 0.155305 0.565199
vt 0.165842 0.578624
vt 0.170991 0.585698
vt 0.159330 0.596892
vt 0.150507 0.644176
vt 0.104679 0.646581
vt 0.098189 0.644480
vt 0.158309 0.562093
vt 0.164041 0.566321
vt 0.172945 0.596923
vt 0.171660 0.622468
vt 0.145652 0.646612
vt 0.131966 0.646608
vt 0.105307 0.658537
vt 0.101621 0.653767
vt 0.167727 0.565427
vt 0.172974 0.621750
vt 0.159330 0.646611
vt 0.145647 0.659028
vt 0.131973 0.659028
vt 0.118297 0.646607
vt 0.118320 0.659003
vt 0.178786 0.621822
vt 0.176335 0.599164
vt 0.172945 0.646581
vt 0.159301 0.659006
vt 0.145635 0.671410
vt 0.131983 0.671410
vt 0.118987 0.670223
vt 0.110682 0.665659
vt 0.176346 0.644320
vt 0.171017 0.657812
vt 0.158323 0.669825
vt 0.144770 0.679142
vt 0.132848 0.679135
vt 0.122313 0.678297
vt 0.113785 0.677316
vt 0.165737 0.665008
vt 0.155305 0.678304
vt 0.145633 0.683251
vt 0.131986 0.683251
vt 0.119310 0.681410
vt 0.109905 0.678077
vt 0.164354 0.677027
vt 0.158309 0.681410
vt 0.167674 0.678213
vt 0.488760 0.403375
vt 0.493680 0.426276
vt 0.480614 0.426251
vt 0.480588 0.402431
vt 0.444114 0.113531
vt 0.461655 0.134025
vt 0.448540 0.134023
vt 0.443620 0.111119
vt 0.604657 0.620948
vt 0.613886 0.623197
vt 0.614992 0.627197
vt 0.605387 0.626908
vt 0.602069 0.619813
vt 0.616683 0.614788
vt 0.628325 0.619313
vt 0.627620 0.626805
vt 0.614635 0.652460
vt 0.604799 0.652460
vt 0.608336 0.611946
vt 0.614770 0.614332
vt 0.627805 0.616591
vt 0.641044 0.619313
vt 0.641749 0.626805
vt 0.627546 0.652460
vt 0.614991 0.677726
vt 0.605376 0.678009
vt 0.595671 0.616668
vt 0.596662 0.617443
vt 0.641564 0.616591
vt 0.655483 0.623197
vt 0.654371 0.627195
vt 0.641823 0.652460
vt 0.627620 0.678115
vt 0.613886 0.681722
vt 0.604657 0.683971
vt 0.591493 0.613033
vt 0.603394 0.608962
vt 0.592775 0.614466
vt 0.652687 0.614788
vt 0.664712 0.620948
vt 0.663967 0.626905
vt 0.654735 0.652460
vt 0.641749 0.678115
vt 0.628550 0.685590
vt 0.616683 0.690132
vt 0.602069 0.685107
vt 0.667301 0.619813
vt 0.664571 0.652460
vt 0.654371 0.677725
vt 0.640820 0.685590
vt 0.627805 0.688328
vt 0.614770 0.690587
vt 0.608336 0.692973
vt 0.654600 0.614332
vt 0.661033 0.611946
vt 0.663967 0.678015
vt 0.655483 0.681722
vt 0.641564 0.688328
vt 0.596663 0.687476
vt 0.595671 0.688251
vt 0.673699 0.616669
vt 0.672707 0.617443
vt 0.664712 0.683971
vt 0.652687 0.690132
vt 0.603394 0.695957
vt 0.591493 0.691887
vt 0.592775 0.690453
vt 0.665976 0.608962
vt 0.677877 0.613033
vt 0.676594 0.614466
vt 0.667301 0.685107
vt 0.661033 0.692973
vt 0.654600 0.690587
vt 0.672707 0.687476
vt 0.673699 0.688251
vt 0.676594 0.690454
vt 0.677877 0.691887
vt 0.665976 0.695957
vt 0.490097 0.785703
vt 0.485042 0.779767
vt 0.490620 0.786053
vt 0.496421 0.790263
vt 0.480588 0.768907
vt 0.481667 0.772100
vt 0.502115 0.792453
vt 0.505389 0.793425
vt 0.497993 0.801244
vt 0.507120 0.797229
vt 0.516137 0.793304
vt 0.517689 0.803482
vt 0.525546 0.790811
vt 0.527246 0.801179
vt 0.503471 0.803176
vt 0.512892 0.804268
vt 0.519371 0.792044
vt 0.530414 0.785334
vt 0.538915 0.793016
vt 0.536013 0.798620
vt 0.537491 0.780154
vt 0.538765 0.771705
vt 0.539727 0.768498
vt 0.549738 0.780225
vt 0.546238 0.789251
vt 0.538765 0.751080
vt 0.539727 0.754287
vt 0.550838 0.767983
vt 0.530414 0.737451
vt 0.537491 0.742631
vt 0.550838 0.754802
vt 0.529937 0.737122
vt 0.519371 0.730741
vt 0.525547 0.731974
vt 0.538915 0.729769
vt 0.549738 0.742560
vt 0.516137 0.729481
vt 0.527246 0.721606
vt 0.536036 0.724268
vt 0.546367 0.733463
vt 0.502115 0.730331
vt 0.505389 0.729360
vt 0.517689 0.719303
vt 0.507120 0.725555
vt 0.503471 0.719609
vt 0.512892 0.718517
vt 0.497993 0.721541
vt 0.495056 0.722724
vt 0.723857 0.919221
vt 0.723857 0.904090
vt 0.724943 0.900876
vt 0.724943 0.922436
vt 0.723522 0.918046
vt 0.723522 0.905265
vt 0.734606 0.886571
vt 0.734606 0.936741
vt 0.733957 0.886829
vt 0.745529 0.880385
vt 0.773538 0.887222
vt 0.773538 0.936090
vt 0.733957 0.936482
vt 0.745529 0.942926
vt 0.762901 0.880798
vt 0.782426 0.901274
vt 0.782426 0.922037
vt 0.762901 0.942514
vt 0.748825 0.943904
vt 0.759646 0.943782
vt 0.179560 0.027729
vt 0.184054 0.016773
vt 0.189682 0.010432
vt 0.180649 0.024508
vt 0.189154 0.010784
vt 0.195534 0.006183
vt 0.204582 0.002993
vt 0.201278 0.003974
vt 0.887239 0.150976
vt 0.888929 0.139171
vt 0.898741 0.143487
vt 0.896880 0.147577
vt 0.722696 0.761268
vt 0.719341 0.752189
vt 0.731720 0.752335
vt 0.730159 0.764974
vt 0.718241 0.739952
vt 0.729348 0.740467
vt 0.738657 0.757295
vt 0.743442 0.762752
vt 0.718241 0.726776
vt 0.729348 0.726261
vt 0.730309 0.743672
vt 0.749695 0.764002
vt 0.752926 0.765262
vt 0.733054 0.770559
vt 0.741823 0.773134
vt 0.719341 0.714539
vt 0.731720 0.714393
vt 0.730309 0.723056
vt 0.766944 0.764412
vt 0.763671 0.765383
vt 0.751376 0.775436
vt 0.722850 0.705498
vt 0.730160 0.701754
vt 0.738657 0.709433
vt 0.762070 0.769177
vt 0.743442 0.703976
vt 0.749695 0.702726
vt 0.739134 0.709104
vt 0.765588 0.775129
vt 0.756171 0.776221
vt 0.733038 0.696255
vt 0.741823 0.693594
vt 0.752927 0.701466
vt 0.766944 0.702316
vt 0.777789 0.708458
vt 0.771064 0.773198
vt 0.773999 0.772016
vt 0.751377 0.691293
vt 0.763671 0.701345
vt 0.778433 0.708714
vt 0.787382 0.722661
vt 0.762070 0.697551
vt 0.777789 0.758270
vt 0.787382 0.744067
vt 0.765589 0.691599
vt 0.756171 0.690507
vt 0.788462 0.725852
vt 0.788462 0.740876
vt 0.778433 0.758014
vt 0.773999 0.694712
vt 0.771064 0.693530
vt 0.788794 0.727019
vt 0.788794 0.739709
vt 0.934770 0.953324
vt 0.934770 0.932556
vt 0.943660 0.918500
vt 0.943660 0.967380
vt 0.982602 0.917849
vt 0.982601 0.968031
vt 0.954299 0.973805
vt 0.971676 0.974218
vt 0.337996 0.007868
vt 0.339717 0.003788
vt 0.349358 0.000389
vt 0.347669 0.012194
vt 0.707679 0.035487
vt 0.710982 0.034507
vt 0.722579 0.028049
vt 0.716727 0.032297
vt 0.728208 0.021707
vt 0.723107 0.027696
vt 0.731612 0.013972
vt 0.732702 0.010750
vt 0.594796 0.251633
vt 0.591493 0.250653
vt 0.600541 0.253843
vt 0.606393 0.258091
vt 0.606921 0.258444
vt 0.612022 0.264433
vt 0.615427 0.272168
vt 0.616516 0.275390
vt 0.756931 0.231251
vt 0.755209 0.227170
vt 0.764882 0.222845
vt 0.766572 0.234650
vt 0.586212 0.016963
vt 0.590698 0.006023
vt 0.591033 0.004847
vt 0.587184 0.015185
vt 0.923413 0.063738
vt 0.918926 0.052798
vt 0.919898 0.054576
vt 0.923748 0.064914
vt 0.373532 0.092602
vt 0.369683 0.082265
vt 0.370017 0.083441
vt 0.374504 0.094380
vt 0.168998 0.077399
vt 0.172847 0.067062
vt 0.173819 0.065284
vt 0.169332 0.076223
vt 0.182970 0.234905
vt 0.181675 0.237906
vt 0.186069 0.247235
vt 0.179560 0.243505
vt 0.992146 0.080741
vt 0.987581 0.064175
vt 0.992586 0.081141
vt 0.998406 0.088898
vt 0.348558 0.080856
vt 0.354379 0.073100
vt 0.359383 0.056132
vt 0.354818 0.072700
vt 0.766944 0.764412
vn -0.317148 -0.755885 -0.572761
vn -0.288923 -0.745508 -0.600617
vn -0.326631 -0.784875 -0.526578
vn -0.342531 -0.786481 -0.513926
vn -0.205117 -0.755940 -0.621676
vn 0.286618 -0.946672 -0.147183
vn 0.000368 -0.923494 -0.383614
vn 0.000968 -0.911097 -0.412190
vn -0.000369 -0.923493 -0.383614
vn -0.000968 -0.911097 -0.412190
vn 0.205117 -0.755940 -0.621677
vn -0.286617 -0.946672 -0.147183
vn 0.288922 -0.745509 -0.600617
vn 0.326633 -0.784874 -0.526578
vn 0.317147 -0.755887 -0.572758
vn 0.342530 -0.786482 -0.513926
vn -0.323129 -0.834634 -0.446064
vn -0.374739 -0.822908 -0.427074
vn 0.020453 -0.907261 -0.420070
vn 0.001601 -0.907642 -0.419741
vn -0.001602 -0.907642 -0.419741
vn -0.020453 -0.907261 -0.420070
vn 0.323130 -0.834634 -0.446064
vn 0.374740 -0.822907 -0.427075
vn -0.320472 -0.881772 -0.346087
vn -0.448046 -0.840013 -0.305994
vn 0.000781 -0.910626 -0.413231
vn 0.001462 -0.906534 -0.422131
vn -0.001462 -0.906534 -0.422131
vn -0.000769 -0.910628 -0.413226
vn 0.320469 -0.881773 -0.346087
vn 0.447707 -0.840145 -0.306129
vn -0.325284 -0.918444 -0.225058
vn -0.498015 -0.852911 -0.156600
vn -0.241511 -0.952115 -0.187479
vn -0.010684 -0.913464 -0.406780
vn 0.010684 -0.913464 -0.406780
vn 0.241512 -0.952115 -0.187482
vn 0.324499 -0.918558 -0.225725
vn 0.499401 -0.852312 -0.155442
vn -0.352663 -0.934345 -0.051256
vn -0.634238 -0.766564 0.100607
vn -0.204662 -0.975724 -0.077944
vn -0.070929 -0.992680 -0.097754
vn 0.070929 -0.992680 -0.097754
vn 0.206769 -0.975487 -0.075311
vn 0.352000 -0.934716 -0.049015
vn 0.634052 -0.766703 0.100722
vn -0.350715 -0.927555 0.128996
vn -0.784286 -0.477919 0.395586
vn -0.244476 -0.952776 0.180137
vn -0.079442 -0.978900 0.188264
vn 0.079359 -0.978935 0.188118
vn 0.246986 -0.951729 0.182234
vn 0.351099 -0.927200 0.130497
vn 0.781045 -0.450029 0.432946
vn -0.538293 -0.628005 0.562006
vn -0.731686 -0.486307 0.477641
vn -0.279727 -0.717088 0.638386
vn -0.078548 -0.722217 0.687192
vn 0.084353 -0.718339 0.690560
vn 0.290685 -0.702027 0.650124
vn 0.531210 -0.608072 0.589969
vn 0.742567 -0.434671 0.509564
vn -0.460556 -0.488433 0.741162
vn -0.801011 -0.470954 0.369573
vn -0.220841 -0.416926 0.881704
vn -0.045323 -0.282638 0.958155
vn 0.053461 -0.284748 0.957111
vn 0.236696 -0.408418 0.881573
vn 0.443120 -0.451836 0.774267
vn 0.845423 -0.369568 0.385589
vn -0.220516 -0.166692 0.961034
vn -0.837718 -0.334076 0.431998
vn -0.008153 -0.015281 0.999850
vn 0.005500 0.032854 0.999445
vn -0.002380 0.032120 0.999481
vn 0.014415 -0.011601 0.999829
vn 0.127312 -0.096794 0.987128
vn 0.924937 -0.235983 0.297998
vn -0.051078 -0.009568 0.998649
vn -0.786212 -0.146466 0.600349
vn 0.037226 0.017046 0.999161
vn 0.009170 0.006219 0.999939
vn -0.008700 0.005891 0.999945
vn -0.028211 0.006090 0.999583
vn 0.081272 -0.016243 0.996560
vn 0.915099 -0.124572 0.383506
vn -0.027891 0.000744 0.999611
vn -0.812058 0.000582 0.583577
vn 0.048102 0.003919 0.998835
vn 0.012557 -0.003547 0.999915
vn -0.011931 -0.001479 0.999928
vn -0.038170 -0.000109 0.999271
vn 0.085065 0.003102 0.996371
vn 0.931229 -0.000139 0.364434
vn -0.052670 0.009808 0.998564
vn -0.786264 0.146598 0.600248
vn 0.039129 -0.018915 0.999055
vn 0.011419 -0.014548 0.999829
vn -0.007922 -0.012516 0.999890
vn -0.030830 -0.013508 0.999433
vn 0.081869 0.015885 0.996516
vn 0.914759 0.124752 0.384255
vn -0.221203 0.167509 0.960734
vn -0.838145 0.333383 0.431704
vn -0.008244 0.015464 0.999846
vn 0.005460 -0.032799 0.999447
vn -0.002468 -0.032185 0.999479
vn 0.014112 0.011260 0.999837
vn 0.131120 0.099498 0.986361
vn 0.924728 0.236306 0.298393
vn -0.459779 0.489157 0.741167
vn -0.800931 0.471051 0.369621
vn -0.220153 0.416160 0.882238
vn -0.045468 0.282658 0.958143
vn 0.053192 0.284721 0.957134
vn 0.237512 0.410229 0.880511
vn 0.443142 0.451217 0.774615
vn 0.847555 0.367992 0.382404
vn -0.537699 0.627925 0.562663
vn -0.732412 0.485141 0.477714
vn -0.279211 0.717045 0.638661
vn -0.078673 0.722138 0.687261
vn 0.084156 0.718490 0.690428
vn 0.291558 0.702547 0.649170
vn 0.535485 0.605686 0.588558
vn 0.743353 0.435133 0.508021
vn -0.353100 0.926270 0.131698
vn -0.784116 0.478528 0.395188
vn -0.244521 0.953262 0.177487
vn -0.079960 0.979074 0.187136
vn 0.079861 0.979114 0.186969
vn 0.247411 0.951262 0.184087
vn 0.350098 0.927369 0.131977
vn 0.781512 0.449128 0.433039
vn -0.353674 0.934154 -0.047656
vn -0.633815 0.766960 0.100252
vn -0.207566 0.975300 -0.075536
vn -0.071927 0.992613 -0.097702
vn 0.071926 0.992613 -0.097703
vn 0.205448 0.975539 -0.078190
vn 0.352928 0.934302 -0.050205
vn 0.634650 0.766126 0.101341
vn -0.325590 0.918313 -0.225151
vn -0.497781 0.853013 -0.156786
vn -0.241661 0.951821 -0.188778
vn -0.010674 0.913456 -0.406797
vn 0.010674 0.913456 -0.406798
vn 0.241662 0.951821 -0.188777
vn 0.324918 0.918409 -0.225731
vn 0.498991 0.852488 -0.155794
vn -0.320592 0.881764 -0.345997
vn -0.447888 0.840091 -0.306011
vn 0.000232 0.910744 -0.412971
vn 0.001462 0.906534 -0.422130
vn -0.001462 0.906534 -0.422130
vn -0.000232 0.910744 -0.412972
vn 0.320591 0.881762 -0.346000
vn 0.447309 0.840313 -0.306248
vn -0.323040 0.834937 -0.445562
vn -0.374585 0.822708 -0.427596
vn 0.020455 0.907261 -0.420069
vn 0.001602 0.907643 -0.419741
vn -0.001601 0.907643 -0.419741
vn -0.020454 0.907261 -0.420070
vn 0.323038 0.834937 -0.445564
vn 0.374586 0.822706 -0.427598
vn -0.326324 0.784804 -0.526874
vn -0.342481 0.786224 -0.514352
vn 0.286624 0.946673 -0.147162
vn 0.000968 0.911097 -0.412191
vn -0.000968 0.911097 -0.412191
vn -0.286610 0.946674 -0.147180
vn 0.326323 0.784804 -0.526874
vn 0.342482 0.786224 -0.514352
vn -0.288923 0.745509 -0.600616
vn -0.317146 0.755888 -0.572759
vn -0.205115 0.755942 -0.621674
vn 0.000370 0.923494 -0.383612
vn -0.000370 0.923494 -0.383611
vn 0.205117 0.755941 -0.621675
vn 0.288923 0.745508 -0.600618
vn 0.317149 0.755885 -0.572761
vn -0.314711 0.667645 -0.674691
vn -0.387384 0.669898 -0.633380
vn -0.173436 0.694172 -0.698602
vn -0.086439 0.679173 -0.728870
vn 0.086440 0.679174 -0.728870
vn 0.173437 0.694173 -0.698601
vn 0.312083 0.670132 -0.673444
vn 0.388062 0.669911 -0.632952
vn -0.351727 0.545834 -0.760495
vn -0.671101 0.195874 -0.715022
vn -0.223557 0.569601 -0.790934
vn -0.060835 0.639072 -0.766737
vn 0.060771 0.639191 -0.766643
vn 0.223355 0.570128 -0.790611
vn 0.350721 0.547122 -0.760035
vn 0.667482 0.200374 -0.717160
vn -0.515751 0.079924 -0.853002
vn -0.673744 0.064405 -0.736153
vn -0.308243 0.135442 -0.941617
vn -0.094238 0.184345 -0.978333
vn 0.094042 0.184367 -0.978348
vn 0.307991 0.135493 -0.941692
vn 0.514367 0.080167 -0.853815
vn 0.671270 0.064479 -0.738403
vn -0.520642 0.000112 -0.853775
vn -0.679349 0.000604 -0.733815
vn -0.326291 -0.000063 -0.945269
vn -0.103442 -0.000020 -0.994635
vn 0.103182 0.000000 -0.994663
vn 0.326069 -0.000000 -0.945346
vn 0.519837 0.000000 -0.854265
vn 0.678934 0.000000 -0.734200
vn -0.514872 -0.080042 -0.853522
vn -0.670926 -0.064284 -0.738732
vn -0.308260 -0.135828 -0.941556
vn -0.094775 -0.182523 -0.978623
vn 0.094505 -0.182573 -0.978640
vn 0.307882 -0.135849 -0.941676
vn 0.514365 -0.080168 -0.853816
vn 0.671269 -0.064479 -0.738404
vn -0.350928 -0.546537 -0.760359
vn -0.668481 -0.198935 -0.716629
vn -0.223161 -0.569839 -0.790874
vn -0.060021 -0.638807 -0.767022
vn 0.059953 -0.638938 -0.766918
vn 0.222820 -0.570568 -0.790445
vn 0.350718 -0.547123 -0.760035
vn 0.667484 -0.200370 -0.717159
vn -0.315617 -0.666783 -0.675119
vn -0.387153 -0.669882 -0.633538
vn -0.172946 -0.693822 -0.699072
vn -0.088083 -0.680059 -0.727847
vn 0.088083 -0.680058 -0.727847
vn 0.172945 -0.693822 -0.699072
vn 0.312086 -0.670131 -0.673444
vn 0.388063 -0.669915 -0.632947
vn 0.671026 0.501567 -0.546035
vn 0.811118 0.167546 -0.560371
vn 0.825500 0.051313 -0.562064
vn 0.827051 0.000001 -0.562127
vn 0.825499 -0.051314 -0.562065
vn 0.811119 -0.167543 -0.560371
vn 0.671003 -0.501597 -0.546037
vn 0.712399 0.590268 -0.379568
vn 0.930935 0.139867 -0.337339
vn 0.946196 0.037714 -0.321388
vn 0.947838 0.000000 -0.318753
vn 0.946195 -0.037715 -0.321391
vn 0.930935 -0.139866 -0.337339
vn 0.712649 -0.589917 -0.379643
vn 0.813259 0.539715 -0.217526
vn 0.989871 0.106483 -0.093902
vn 0.996695 0.025200 -0.077225
vn 0.997246 0.000001 -0.074162
vn 0.996695 -0.025201 -0.077225
vn 0.989870 -0.106484 -0.093902
vn 0.813422 -0.539510 -0.217423
vn 0.957473 0.244784 0.152729
vn 0.983549 0.078287 0.162794
vn 0.985729 0.021111 0.167009
vn 0.985587 0.000001 0.169166
vn 0.985735 -0.021104 0.166977
vn 0.983541 -0.078328 0.162827
vn 0.957490 -0.244533 0.153022
vn 0.902497 0.206561 0.377930
vn 0.923986 0.097551 0.369775
vn 0.955421 0.055301 0.290020
vn 0.965847 -0.000184 0.259112
vn 0.955298 -0.055310 0.290425
vn 0.923943 -0.097106 0.369999
vn 0.902564 -0.206225 0.377956
vn 0.864057 0.250141 0.436848
vn 0.922294 0.189114 0.337062
vn 0.977343 0.113022 0.178962
vn 0.988303 -0.000333 0.152503
vn 0.977351 -0.112910 0.178985
vn 0.921800 -0.188665 0.338661
vn 0.864068 -0.250908 0.436385
vn -0.671159 0.502033 -0.545444
vn -0.811031 0.167345 -0.560557
vn -0.826839 0.051134 -0.560109
vn -0.827345 0.000136 -0.561694
vn -0.825730 -0.051306 -0.561728
vn -0.812111 -0.167331 -0.558996
vn -0.671298 -0.502079 -0.545230
vn -0.711996 0.590695 -0.379660
vn -0.931256 0.138700 -0.336933
vn -0.946540 0.037786 -0.320366
vn -0.947971 -0.000148 -0.318358
vn -0.946008 -0.037971 -0.321910
vn -0.931013 -0.138516 -0.337680
vn -0.712219 -0.590364 -0.379756
vn -0.813317 0.539744 -0.217236
vn -0.989972 0.105804 -0.093597
vn -0.996699 0.025195 -0.077174
vn -0.997242 0.000036 -0.074220
vn -0.996699 -0.025192 -0.077180
vn -0.989958 -0.105973 -0.093557
vn -0.813538 -0.539544 -0.216905
vn -0.957690 0.242646 0.154769
vn -0.984569 0.096504 0.145981
vn -0.994442 0.043612 0.095832
vn -0.997099 0.000018 0.076111
vn -0.994435 -0.043662 0.095876
vn -0.984516 -0.096670 0.146231
vn -0.957718 -0.242287 0.155156
vn -0.911398 0.247011 0.329150
vn -0.947147 0.167598 0.273537
vn -0.986445 0.105074 0.126038
vn -0.996201 0.000012 0.087081
vn -0.986442 -0.105385 0.125799
vn -0.947251 -0.167390 0.273305
vn -0.911672 -0.246063 0.329101
vn -0.869969 0.314890 0.379471
vn -0.921065 0.301338 0.246647
vn -0.976930 0.166427 0.133826
vn -0.993618 -0.000351 0.112796
vn -0.976863 -0.166435 0.134307
vn -0.920923 -0.301652 0.246794
vn -0.870407 -0.313864 0.379316
s 1
usemtl M_sprout_SG
f 1/302/1 2/295/2 10/307/3 9/308/4
f 2/321/2 3/322/5 11/323/6 10/324/3
f 3/322/5 4/325/7 12/326/8 11/323/6
f 4/369/7 5/370/9 13/371/10 12/372/8
f 5/389/9 6/390/11 14/391/12 13/392/10
f 6/390/11 7/393/13 15/394/14 14/391/12
f 7/314/13 8/317/15 16/319/16 15/320/14
f 9/329/4 10/324/3 18/328/17 17/330/18
f 10/324/3 11/323/6 19/327/19 18/328/17
f 11/381/6 12/372/8 20/376/20 19/382/19
f 12/372/8 13/371/10 21/375/21 20/376/20
f 13/371/10 14/377/12 22/378/22 21/375/21
f 14/391/12 15/394/14 23/395/23 22/396/22
f 15/397/14 16/398/16 24/399/24 23/400/23
f 17/330/18 18/328/17 26/331/25 25/332/26
f 18/387/17 19/382/19 27/386/27 26/388/25
f 19/382/19 20/376/20 28/380/28 27/386/27
f 20/376/20 21/375/21 29/379/29 28/380/28
f 21/375/21 22/378/22 30/383/30 29/379/29
f 22/361/22 23/362/23 31/357/31 30/353/30
f 23/362/23 24/364/24 32/363/32 31/357/31
f 25/332/26 26/331/25 34/333/33 33/334/34
f 26/331/25 27/337/27 35/338/35 34/333/33
f 27/510/27 28/511/28 36/512/36 35/513/35
f 28/380/28 29/379/29 37/384/37 36/385/36
f 29/352/29 30/353/30 38/349/38 37/346/37
f 30/353/30 31/357/31 39/354/39 38/349/38
f 31/357/31 32/363/32 40/358/40 39/354/39
f 33/334/34 34/333/33 42/339/41 41/340/42
f 34/333/33 35/338/35 43/341/43 42/339/41
f 35/338/35 36/342/36 44/343/44 43/341/43
f 36/342/36 37/346/37 45/347/45 44/343/44
f 37/346/37 38/349/38 46/350/46 45/347/45
f 38/349/38 39/354/39 47/355/47 46/350/46
f 39/354/39 40/358/40 48/359/48 47/355/47
f 41/157/42 42/163/41 50/164/49 49/161/50
f 42/339/41 43/341/43 51/344/51 50/345/49
f 43/341/43 44/343/44 52/348/52 51/344/51
f 44/343/44 45/347/45 53/351/53 52/348/52
f 45/347/45 46/350/46 54/356/54 53/351/53
f 46/350/46 47/355/47 55/360/55 54/356/54
f 47/83/47 48/76/48 56/80/56 55/84/55
f 49/161/50 50/164/49 58/168/57 57/165/58
f 50/179/49 51/180/51 59/174/59 58/173/57
f 51/180/51 52/189/52 60/181/60 59/174/59
f 52/189/52 53/196/53 61/190/61 60/181/60
f 53/196/53 54/204/54 62/197/62 61/190/61
f 54/204/54 55/212/55 63/205/63 62/197/62
f 55/84/55 56/80/56 64/82/64 63/85/63
f 57/165/58 58/168/57 66/166/65 65/162/66
f 58/173/57 59/174/59 67/170/67 66/169/65
f 59/174/59 60/181/60 68/175/68 67/170/67
f 60/181/60 61/190/61 69/182/69 68/175/68
f 61/190/61 62/197/62 70/191/70 69/182/69
f 62/197/62 63/205/63 71/198/71 70/191/70
f 63/85/63 64/82/64 72/79/72 71/81/71
f 65/162/66 66/166/65 74/167/73 73/159/74
f 66/169/65 67/170/67 75/171/75 74/172/73
f 67/170/67 68/175/68 76/176/76 75/171/75
f 68/175/68 69/182/69 77/183/77 76/176/76
f 69/182/69 70/191/70 78/192/78 77/183/77
f 70/191/70 71/198/71 79/199/79 78/192/78
f 71/81/71 72/79/72 80/74/80 79/77/79
f 73/187/74 74/172/73 82/178/81 81/188/82
f 74/172/73 75/171/75 83/177/83 82/178/81
f 75/171/75 76/176/76 84/184/84 83/177/83
f 76/176/76 77/183/77 85/193/85 84/184/84
f 77/183/77 78/192/78 86/200/86 85/193/85
f 78/192/78 79/199/79 87/206/87 86/200/86
f 79/77/79 80/74/80 88/68/88 87/78/87
f 82/178/81 90/186/89 89/195/90 81/188/82
f 83/177/83 91/185/91 90/186/89 82/178/81
f 84/184/84 92/194/92 91/185/91 83/177/83
f 85/193/85 93/201/93 92/194/92 84/184/84
f 86/200/86 94/207/94 93/201/93 85/193/85
f 87/206/87 95/213/95 94/207/94 86/200/86
f 96/219/96 95/213/95 87/206/87 88/220/88
f 90/186/89 98/202/97 97/203/98 89/195/90
f 91/243/91 99/244/99 98/245/97 90/246/89
f 92/247/92 100/248/100 99/249/99 91/250/91
f 93/201/93 101/208/101 100/209/100 92/194/92
f 94/207/94 102/214/102 101/208/101 93/201/93
f 95/213/95 103/221/103 102/214/102 94/207/94
f 104/227/104 103/221/103 95/213/95 96/219/96
f 97/203/98 98/202/97 106/210/105 105/211/106
f 98/202/97 99/217/99 107/218/107 106/210/105
f 99/217/99 100/209/100 108/216/108 107/218/107
f 100/209/100 101/208/101 109/215/109 108/216/108
f 101/208/101 102/214/102 110/222/110 109/215/109
f 102/214/102 103/221/103 111/228/111 110/222/110
f 103/58/103 104/50/104 112/49/112 111/59/111
f 105/137/106 106/152/105 114/153/113 113/145/114
f 106/210/105 107/218/107 115/225/115 114/226/113
f 107/218/107 108/216/108 116/224/116 115/225/115
f 108/216/108 109/215/109 117/223/117 116/224/116
f 109/215/109 110/222/110 118/229/118 117/223/117
f 110/222/110 111/228/111 119/234/119 118/229/118
f 111/59/111 112/49/112 120/57/120 119/67/119
f 113/145/114 114/153/113 122/160/121 121/154/122
f 114/226/113 115/225/115 123/232/123 122/233/121
f 115/225/115 116/224/116 124/231/124 123/232/123
f 116/224/116 117/223/117 125/230/125 124/231/124
f 117/223/117 118/229/118 126/235/126 125/230/125
f 118/229/118 119/234/119 127/240/127 126/235/126
f 119/67/119 120/57/120 128/66/128 127/73/127
f 121/154/122 122/160/121 130/155/129 129/146/130
f 122/233/121 123/232/123 131/238/131 130/239/129
f 123/232/123 124/231/124 132/237/132 131/238/131
f 124/231/124 125/230/125 133/236/133 132/237/132
f 125/230/125 126/235/126 134/241/134 133/236/133
f 126/235/126 127/240/127 135/242/135 134/241/134
f 127/73/127 128/66/128 136/56/136 135/64/135
f 129/146/130 130/155/129 138/156/137 137/139/138
f 130/401/129 131/402/131 139/403/139 138/404/137
f 131/402/131 132/405/132 140/406/140 139/403/139
f 132/405/132 133/409/133 141/410/141 140/406/140
f 133/409/133 134/416/134 142/417/142 141/410/141
f 134/416/134 135/422/135 143/423/143 142/417/142
f 135/64/135 136/56/136 144/47/144 143/65/143
f 137/414/138 138/404/137 146/408/145 145/415/146
f 138/404/137 139/403/139 147/407/147 146/408/145
f 139/403/139 140/406/140 148/411/148 147/407/147
f 140/406/140 141/410/141 149/418/149 148/411/148
f 141/410/141 142/417/142 150/424/150 149/418/149
f 142/417/142 143/423/143 151/426/151 150/424/150
f 143/423/143 144/431/144 152/432/152 151/426/151
f 145/415/146 146/408/145 154/413/153 153/421/154
f 146/408/145 147/407/147 155/412/155 154/413/153
f 147/506/147 148/507/148 156/508/156 155/509/155
f 148/454/148 149/455/149 157/456/157 156/457/156
f 149/418/149 150/424/150 158/427/158 157/428/157
f 150/424/150 151/426/151 159/433/159 158/427/158
f 151/426/151 152/432/152 160/438/160 159/433/159
f 153/421/154 154/413/153 162/420/161 161/425/162
f 154/413/153 155/412/155 163/514/163 162/420/161
f 155/460/155 156/457/156 164/459/164 163/461/163
f 156/457/156 157/456/157 165/458/165 164/459/164
f 157/428/157 158/427/158 166/434/166 165/435/165
f 158/427/158 159/433/159 167/439/167 166/434/166
f 159/433/159 160/438/160 168/442/168 167/439/167
f 161/462/162 162/463/161 170/464/169 169/465/170
f 162/466/161 163/467/163 171/468/171 170/469/169
f 163/419/163 164/443/164 172/444/172 171/449/171
f 164/443/164 165/435/165 173/441/173 172/444/172
f 165/435/165 166/434/166 174/440/174 173/441/173
f 166/474/166 167/475/167 175/476/175 174/477/174
f 167/482/167 168/483/168 176/484/176 175/485/175
f 169/278/170 170/279/169 178/261/177 177/269/178
f 170/469/169 171/468/171 179/470/179 178/471/177
f 171/468/171 172/472/172 180/473/180 179/470/179
f 172/444/172 173/441/173 181/447/181 180/448/180
f 173/480/173 174/477/174 182/479/182 181/481/181
f 174/477/174 175/476/175 183/478/183 182/479/182
f 175/310/175 176/311/176 184/303/184 183/297/183
f 177/269/178 178/261/177 186/255/185 185/270/186
f 178/261/177 179/262/179 187/256/187 186/255/185
f 179/486/179 180/487/180 188/488/188 187/489/187
f 180/448/180 181/447/181 189/452/189 188/453/188
f 181/490/181 182/491/182 190/492/190 189/493/189
f 182/296/182 183/297/183 191/289/191 190/281/190
f 183/297/183 184/303/184 192/304/192 191/289/191
f 185/101/186 186/108/185 194/98/193 193/90/194
f 186/255/185 187/256/187 195/252/195 194/251/193
f 187/256/187 188/263/188 196/257/196 195/252/195
f 188/263/188 189/271/189 197/264/197 196/257/196
f 189/271/189 190/281/190 198/272/198 197/264/197
f 190/281/190 191/289/191 199/282/199 198/272/198
f 191/23/191 192/15/192 200/6/200 199/13/199
f 193/90/194 194/98/193 202/99/201 201/91/202
f 194/251/193 195/252/195 203/253/203 202/254/201
f 195/252/195 196/257/196 204/258/204 203/253/203
f 196/257/196 197/264/197 205/265/205 204/258/204
f 197/264/197 198/272/198 206/273/206 205/265/205
f 198/272/198 199/282/199 207/283/207 206/273/206
f 199/13/199 200/6/200 208/5/208 207/14/207
f 202/99/201 210/109/209 209/100/210 201/91/202
f 203/253/203 211/259/211 210/260/209 202/254/201
f 204/258/204 212/266/212 211/259/211 203/253/203
f 205/265/205 213/274/213 212/266/212 204/258/204
f 206/273/206 214/284/214 213/274/213 205/265/205
f 207/283/207 215/290/215 214/284/214 206/273/206
f 216/16/216 215/24/215 207/14/207 208/5/208
f 210/109/209 218/118/217 217/110/218 209/100/210
f 211/259/211 219/267/219 218/268/217 210/260/209
f 212/266/212 220/275/220 219/267/219 211/259/211
f 213/274/213 221/285/221 220/275/220 212/266/212
f 214/284/214 222/291/222 221/285/221 213/274/213
f 215/290/215 223/298/223 222/291/222 214/284/214
f 224/25/224 223/33/223 215/24/215 216/16/216
f 217/110/218 218/118/217 226/130/225 225/119/226
f 218/268/217 219/267/219 227/276/227 226/277/225
f 219/267/219 220/275/220 228/286/228 227/276/227
f 220/275/220 221/285/221 229/292/229 228/286/228
f 221/285/221 222/291/222 230/299/230 229/292/229
f 222/291/222 223/298/223 231/305/231 230/299/230
f 223/33/223 224/25/224 232/34/232 231/45/231
f 225/119/226 226/130/225 234/140/233 233/131/234
f 226/277/225 227/276/227 235/287/235 234/288/233
f 227/276/227 228/286/228 236/293/236 235/287/235
f 228/286/228 229/292/229 237/300/237 236/293/236
f 229/292/229 230/299/230 238/306/238 237/300/237
f 230/299/230 231/305/231 239/313/239 238/306/238
f 231/45/231 232/34/232 240/46/240 239/55/239
f 233/301/234 234/288/233 2/295/2 1/302/1
f 234/288/233 235/287/235 3/294/5 2/295/2
f 235/494/235 236/495/236 4/496/7 3/497/5
f 236/373/236 237/374/237 5/370/9 4/369/7
f 237/498/237 238/499/238 6/500/11 5/501/9
f 238/306/238 239/313/239 7/314/13 6/315/11
f 239/313/239 240/316/240 8/317/15 7/314/13
f 192/304/192 184/303/184 176/311/176 241/312/241
f 200/6/200 192/15/192 241/7/241 242/2/242
f 208/5/208 200/6/200 242/2/242 243/1/243
f 244/12/244 216/16/216 208/5/208 243/1/243
f 245/22/245 224/25/224 216/16/216 244/12/244
f 232/34/232 224/25/224 245/22/245 246/31/246
f 240/46/240 232/34/232 246/31/246 247/43/247
f 8/317/15 240/316/240 247/318/247 16/319/16
f 241/450/241 176/451/176 168/442/168 248/445/248
f 242/2/242 241/7/241 248/8/248 249/3/249
f 243/1/243 242/2/242 249/3/249 250/4/250
f 251/11/251 244/12/244 243/1/243 250/4/250
f 252/21/252 245/22/245 244/12/244 251/11/251
f 246/31/246 245/22/245 252/21/252 253/32/253
f 247/43/247 246/31/246 253/32/253 254/44/254
f 16/367/16 247/368/247 254/365/254 24/364/24
f 248/445/248 168/442/168 160/438/160 255/446/255
f 249/3/249 248/8/248 255/17/255 256/9/256
f 250/4/250 249/3/249 256/9/256 257/10/257
f 258/20/258 251/11/251 250/4/250 257/10/257
f 259/30/259 252/21/252 251/11/251 258/20/258
f 253/32/253 252/21/252 259/30/259 260/42/260
f 254/44/254 253/32/253 260/42/260 261/54/261
f 24/364/24 254/365/254 261/366/261 32/363/32
f 255/17/255 160/35/160 152/36/152 262/26/262
f 256/9/256 255/17/255 262/26/262 263/18/263
f 257/10/257 256/9/256 263/18/263 264/19/264
f 265/29/265 258/20/258 257/10/257 264/19/264
f 266/41/266 259/30/259 258/20/258 265/29/265
f 260/42/260 259/30/259 266/41/266 267/53/267
f 261/54/261 260/42/260 267/53/267 268/63/268
f 32/71/32 261/54/261 268/63/268 40/72/40
f 262/26/262 152/36/152 144/47/144 269/37/269
f 263/18/263 262/26/262 269/37/269 270/27/270
f 264/19/264 263/18/263 270/27/270 271/28/271
f 272/40/272 265/29/265 264/19/264 271/28/271
f 273/52/273 266/41/266 265/29/265 272/40/272
f 267/53/267 266/41/266 273/52/273 274/62/274
f 268/63/268 267/53/267 274/62/274 275/70/275
f 40/72/40 268/63/268 275/70/275 48/76/48
f 269/37/269 144/47/144 136/56/136 276/48/276
f 270/27/270 269/37/269 276/48/276 277/38/277
f 271/28/271 270/27/270 277/38/277 278/39/278
f 279/51/279 272/40/272 271/28/271 278/39/278
f 280/61/280 273/52/273 272/40/272 279/51/279
f 274/62/274 273/52/273 280/61/280 281/69/281
f 275/70/275 274/62/274 281/69/281 282/75/282
f 48/76/48 275/70/275 282/75/282 56/80/56
f 276/48/276 136/56/136 128/66/128 120/57/120
f 277/38/277 276/48/276 120/57/120 112/49/112
f 278/39/278 277/38/277 112/49/112 104/50/104
f 104/50/104 96/60/96 279/51/279 278/39/278
f 96/60/96 88/68/88 280/61/280 279/51/279
f 281/69/281 280/61/280 88/68/88 80/74/80
f 282/75/282 281/69/281 80/74/80 72/79/72
f 56/80/56 282/75/282 72/79/72 64/82/64
f 177/269/178 185/270/186 283/280/283 169/278/170
f 185/101/186 193/90/194 284/86/284 283/96/283
f 193/90/194 201/91/202 285/87/285 284/86/284
f 285/87/285 201/91/202 209/100/210 286/92/286
f 286/92/286 209/100/210 217/110/218 287/102/287
f 217/110/218 225/119/226 288/111/288 287/102/287
f 225/119/226 233/131/234 289/120/289 288/111/288
f 233/301/234 1/302/1 9/308/4 289/309/289
f 169/436/170 283/437/283 290/429/290 161/425/162
f 283/96/283 284/86/284 291/89/291 290/97/290
f 284/86/284 285/87/285 292/88/292 291/89/291
f 292/88/292 285/87/285 286/92/286 293/93/293
f 293/93/293 286/92/286 287/102/287 294/103/294
f 287/102/287 288/111/288 295/112/295 294/103/294
f 288/111/288 289/120/289 296/121/296 295/112/295
f 289/502/289 9/503/4 17/504/18 296/505/296
f 161/425/162 290/429/290 297/430/297 153/421/154
f 290/97/290 291/89/291 298/95/298 297/107/297
f 291/89/291 292/88/292 299/94/299 298/95/298
f 299/94/299 292/88/292 293/93/293 300/104/300
f 300/104/300 293/93/293 294/103/294 301/113/301
f 294/103/294 295/112/295 302/122/302 301/113/301
f 295/112/295 296/121/296 303/132/303 302/122/302
f 296/335/296 17/330/18 25/332/26 303/336/303
f 153/128/154 297/107/297 304/117/304 145/129/146
f 297/107/297 298/95/298 305/106/305 304/117/304
f 298/95/298 299/94/299 306/105/306 305/106/305
f 306/105/306 299/94/299 300/104/300 307/114/307
f 307/114/307 300/104/300 301/113/301 308/123/308
f 301/113/301 302/122/302 309/133/309 308/123/308
f 302/122/302 303/132/303 310/141/310 309/133/309
f 303/132/303 25/147/26 33/148/34 310/141/310
f 145/129/146 304/117/304 311/127/311 137/139/138
f 304/117/304 305/106/305 312/116/312 311/127/311
f 305/106/305 306/105/306 313/115/313 312/116/312
f 313/115/313 306/105/306 307/114/307 314/124/314
f 314/124/314 307/114/307 308/123/308 315/134/315
f 308/123/308 309/133/309 316/142/316 315/134/315
f 309/133/309 310/141/310 317/149/317 316/142/316
f 310/141/310 33/148/34 41/157/42 317/149/317
f 137/139/138 311/127/311 318/138/318 129/146/130
f 311/127/311 312/116/312 319/126/319 318/138/318
f 312/116/312 313/115/313 320/125/320 319/126/319
f 320/125/320 313/115/313 314/124/314 321/135/321
f 321/135/321 314/124/314 315/134/315 322/143/322
f 315/134/315 316/142/316 323/150/323 322/143/322
f 316/142/316 317/149/317 324/158/324 323/150/323
f 317/149/317 41/157/42 49/161/50 324/158/324
f 129/146/130 318/138/318 113/145/114 121/154/122
f 318/138/318 319/126/319 105/137/106 113/145/114
f 319/126/319 320/125/320 97/136/98 105/137/106
f 89/144/90 97/136/98 320/125/320 321/135/321
f 81/151/82 89/144/90 321/135/321 322/143/322
f 322/143/322 323/150/323 73/159/74 81/151/82
f 323/150/323 324/158/324 65/162/66 73/159/74
f 324/158/324 49/161/50 57/165/58 65/162/66
