# This file uses centimeters as units for non-parametric coordinates.

mtllib right_hip_link.mtl
v -0.022412 -0.100807 -0.058039
v -0.021526 -0.101393 -0.056756
v -0.011608 -0.101368 -0.054335
v 0.004398 -0.099822 -0.056158
v 0.022940 -0.098558 -0.056567
v 0.022969 -0.098448 -0.056997
v -0.022412 -0.103121 -0.046510
v -0.021229 -0.103039 -0.049611
v -0.011028 -0.102274 -0.050936
v 0.005420 -0.101409 -0.049946
v 0.021867 -0.100545 -0.048956
v 0.022418 -0.100516 -0.048923
v -0.023389 -0.102727 -0.040863
v -0.021024 -0.103774 -0.039790
v -0.010845 -0.103115 -0.039222
v 0.005609 -0.102034 -0.038712
v 0.022565 -0.100911 -0.039423
v 0.022650 -0.100883 -0.040602
v -0.023125 -0.102395 -0.032626
v -0.021420 -0.102760 -0.031067
v -0.010420 -0.101909 -0.030366
v 0.005962 -0.100908 -0.031025
v 0.022897 -0.100077 -0.032000
v 0.022969 -0.100263 -0.032906
v -0.023597 -0.098748 -0.020919
v -0.021024 -0.099755 -0.020510
v -0.010393 -0.099314 -0.021347
v 0.006080 -0.098268 -0.021797
v 0.022418 -0.097101 -0.021138
v 0.023445 -0.096635 -0.021332
v -0.023104 -0.093776 -0.010768
v -0.021656 -0.094281 -0.010425
v -0.010048 -0.093449 -0.010667
v 0.006200 -0.093388 -0.012273
v 0.022835 -0.092326 -0.012525
v 0.022969 -0.091698 -0.011605
v -0.022412 -0.086724 -0.001830
v -0.021628 -0.087108 -0.001902
v -0.010270 -0.087481 -0.003441
v 0.006232 -0.086828 -0.004086
v 0.022494 -0.087080 -0.005655
v 0.022805 -0.085433 -0.004125
v -0.022412 -0.079680 0.003636
v -0.021268 -0.081383 0.002885
v -0.010642 -0.082459 0.001393
v 0.005708 -0.080643 0.001494
v 0.022058 -0.078826 0.001595
v 0.022418 -0.078786 0.001598
v -0.021227 -0.075041 0.006987
v -0.021024 -0.073727 0.007751
v -0.011858 -0.073707 0.007043
v 0.004617 -0.073165 0.006046
v 0.022772 -0.073262 0.004665
v 0.022847 -0.074244 0.004146
v -0.022079 -0.067457 0.010233
v -0.021656 -0.067501 0.010356
v -0.011763 -0.068963 0.009002
v 0.004739 -0.068642 0.008152
v 0.021216 -0.068462 0.007250
v 0.022418 -0.068626 0.007117
v -0.021024 -0.062697 0.011911
v -0.013489 -0.063566 0.011124
v 0.002984 -0.063257 0.010029
v 0.019458 -0.062947 0.008934
v 0.022878 -0.064544 0.008323
v -0.021656 -0.056363 0.013084
v -0.011846 -0.058765 0.011976
v 0.005982 -0.050599 0.012761
v 0.019748 -0.056356 0.010673
v 0.022418 -0.057499 0.010260
v -0.021024 -0.051033 0.013616
v -0.003767 -0.023034 0.024332
v 0.003768 -0.023034 0.024332
v 0.009652 -0.023034 0.022751
v 0.022682 -0.050428 0.010647
v -0.016955 -0.013821 0.023978
v -0.010006 -0.016894 0.025968
v -0.004770 -0.018357 0.026649
v 0.004770 -0.018360 0.026647
v 0.010028 -0.016885 0.025966
v 0.016839 -0.013827 0.024047
v -0.022525 -0.000830 0.029214
v -0.014759 -0.004672 0.031047
v -0.005414 -0.006859 0.032651
v 0.005479 -0.006879 0.032628
v 0.014709 -0.004669 0.031068
v 0.022786 -0.000842 0.029001
v -0.027265 0.006500 0.031107
v -0.018704 0.003697 0.035060
v -0.006101 0.001223 0.037690
v 0.006469 0.001236 0.037637
v 0.019118 0.003689 0.034829
v 0.027064 0.006500 0.031313
v -0.030340 0.006500 0.028315
v -0.022083 0.006500 0.034971
v -0.008276 0.006500 0.039236
v 0.008276 0.006500 0.039236
v 0.022030 0.006500 0.035017
v 0.030725 0.006500 0.027897
v -0.032874 0.006500 0.025104
v -0.024829 0.006500 0.031819
v -0.009889 0.006500 0.038449
v 0.009984 0.006500 0.038421
v 0.024829 0.006500 0.031819
v 0.032780 0.006500 0.025219
v -0.035545 0.006500 0.021192
v -0.028134 0.006500 0.028093
v -0.013762 0.006500 0.037286
v 0.011782 0.006500 0.037956
v 0.028168 0.006500 0.028024
v 0.035523 0.006500 0.021284
v -0.038255 0.006500 0.015888
v -0.032395 0.006500 0.023059
v -0.016436 0.006500 0.036147
v 0.016707 0.006500 0.036016
v 0.032458 0.006500 0.022931
v 0.038275 0.006500 0.015943
v -0.041349 0.006500 0.001487
v -0.039668 0.006500 0.001795
v -0.039033 0.006500 0.007233
v 0.039112 0.006500 0.006788
v 0.039688 0.006500 0.001581
v 0.041369 0.006500 0.001487
v -0.039172 0.006500 -0.013269
v -0.034822 0.006500 -0.019099
v -0.021683 0.006500 -0.033274
v 0.021394 0.006500 -0.033453
v 0.034734 0.006500 -0.019236
v 0.039185 0.006500 -0.013240
v -0.033896 0.006500 -0.023764
v -0.025689 0.006500 -0.030393
v -0.020000 0.006500 -0.034445
v 0.019500 0.006500 -0.034731
v 0.025651 0.006500 -0.030379
v 0.033998 0.006500 -0.023680
v -0.027886 0.006500 -0.030546
v -0.020000 0.006500 -0.036363
v -0.007373 0.003300 -0.042852
v 0.007012 0.003206 -0.042969
v 0.019500 0.006500 -0.036633
v 0.028085 0.006500 -0.030362
v -0.026261 0.000121 -0.053035
v -0.024189 0.000853 -0.053275
v -0.008391 0.000779 -0.053250
v 0.008161 0.000701 -0.053225
v 0.022851 0.000632 -0.053203
v 0.023822 0.000297 -0.053093
v -0.026261 -0.003705 -0.064725
v -0.024189 -0.003013 -0.065085
v -0.008385 -0.003083 -0.065048
v 0.008167 -0.003157 -0.065010
v 0.022851 -0.003222 -0.064976
v 0.023822 -0.003538 -0.064811
v -0.026003 -0.012045 -0.076100
v -0.024189 -0.011553 -0.076469
v -0.008400 -0.011615 -0.076422
v 0.008152 -0.011680 -0.076373
v 0.022851 -0.011739 -0.076330
v 0.023822 -0.012020 -0.076118
v -0.025579 -0.016775 -0.080637
v -0.024189 -0.016571 -0.080935
v -0.008432 -0.016615 -0.080871
v 0.008119 -0.016661 -0.080803
v 0.022851 -0.016702 -0.080743
v 0.023500 -0.016797 -0.080605
v -0.025579 -0.027235 -0.087792
v -0.024189 -0.027080 -0.088124
v -0.008477 -0.027113 -0.088053
v 0.008075 -0.027148 -0.087978
v 0.022851 -0.027180 -0.087911
v 0.023500 -0.027252 -0.087756
v -0.024305 -0.031801 -0.090036
v -0.023497 -0.033231 -0.090752
v -0.008533 -0.033411 -0.090748
v 0.007344 -0.031324 -0.089769
v 0.022828 -0.029461 -0.088664
v 0.023366 -0.029308 -0.088474
v -0.024200 -0.039777 -0.093152
v -0.022703 -0.039910 -0.093541
v -0.009449 -0.042885 -0.094279
v 0.007088 -0.043062 -0.093812
v 0.022482 -0.040047 -0.092170
v 0.023328 -0.040033 -0.091967
v -0.023551 -0.046681 -0.094814
v -0.022105 -0.046341 -0.095399
v -0.008187 -0.046753 -0.095532
v 0.004672 -0.046884 -0.094895
v 0.020960 -0.047021 -0.092827
v 0.023307 -0.046648 -0.092335
v -0.023453 -0.056588 -0.094207
v -0.021491 -0.056782 -0.095106
v -0.009614 -0.056708 -0.094456
v 0.006876 -0.056511 -0.093459
v 0.022418 -0.056244 -0.092526
v 0.023445 -0.056139 -0.092035
v -0.023597 -0.069870 -0.090555
v -0.021024 -0.070315 -0.091538
v -0.009424 -0.070058 -0.090875
v 0.007055 -0.069628 -0.089949
v 0.022418 -0.069281 -0.089063
v 0.023445 -0.069093 -0.088597
v -0.023280 -0.080425 -0.084739
v -0.021405 -0.080948 -0.085366
v -0.009491 -0.080858 -0.084497
v 0.006911 -0.079976 -0.083897
v 0.022773 -0.079355 -0.083080
v 0.023130 -0.079123 -0.083036
v -0.023225 -0.088852 -0.077363
v -0.021448 -0.089698 -0.077541
v -0.009788 -0.089598 -0.076484
v 0.006553 -0.088439 -0.076298
v 0.022824 -0.087574 -0.075728
v 0.023072 -0.087197 -0.076001
v -0.022988 -0.095219 -0.069419
v -0.021656 -0.095686 -0.069704
v -0.010268 -0.094913 -0.069357
v 0.006228 -0.094072 -0.068882
v 0.022882 -0.093210 -0.068426
v 0.022969 -0.093407 -0.068067
v -0.022412 -0.099912 -0.059982
v -0.021024 -0.099334 -0.062805
v -0.011024 -0.098920 -0.062181
v 0.005436 -0.098238 -0.061154
v 0.021896 -0.097556 -0.060127
v 0.022418 -0.097535 -0.060094
v 0.023777 -0.030353 -0.088585
v 0.023845 -0.040127 -0.091620
v 0.028030 -0.052658 -0.087530
v 0.027949 -0.066199 -0.084518
v 0.027924 -0.078927 -0.076997
v 0.025263 -0.089354 -0.069993
v 0.023410 -0.096845 -0.060385
v 0.023055 -0.098735 -0.055500
v 0.024789 -0.024773 -0.084779
v 0.028110 -0.033089 -0.084822
v 0.028500 -0.046459 -0.084747
v 0.028500 -0.063767 -0.081318
v 0.028500 -0.079492 -0.071275
v 0.028339 -0.090358 -0.060663
v 0.026067 -0.096373 -0.052161
v 0.022969 -0.100776 -0.045058
v 0.027479 -0.015796 -0.074794
v 0.028500 -0.023327 -0.076666
v 0.028500 -0.035966 -0.081995
v 0.028500 -0.062186 -0.081874
v 0.028500 -0.086522 -0.061839
v 0.028500 -0.091506 -0.047247
v 0.028105 -0.095410 -0.039270
v 0.023194 -0.100348 -0.034940
v 0.027997 -0.008443 -0.063880
v 0.028500 -0.012398 -0.063360
v 0.028500 -0.015815 -0.068266
v 0.028500 -0.038599 -0.082670
v 0.028500 -0.091329 -0.034990
v 0.028500 -0.089713 -0.027987
v 0.028339 -0.091925 -0.025384
v 0.023445 -0.096864 -0.021966
v 0.027855 -0.003348 -0.051683
v 0.028500 -0.006449 -0.046016
v 0.028500 -0.006339 -0.037247
v 0.020900 -0.027149 -0.011965
v 0.028500 -0.066758 -0.002220
v 0.028500 -0.078821 -0.010332
v 0.028339 -0.084417 -0.012155
v 0.023017 -0.091214 -0.011055
v 0.030338 0.006500 -0.028317
v 0.032981 0.005097 -0.023542
v 0.028500 -0.011694 -0.019946
v 0.028500 -0.027004 -0.004437
v 0.028500 -0.049886 0.001652
v 0.028500 -0.065269 -0.000505
v 0.027855 -0.074502 -0.002008
v 0.023063 -0.083322 -0.002398
v 0.036521 0.006500 -0.019418
v 0.038977 0.006500 -0.013831
v 0.033458 -0.005282 -0.005899
v 0.028471 -0.027218 -0.001507
v 0.028339 -0.042628 0.004145
v 0.027934 -0.056759 0.004915
v 0.023445 -0.068135 0.006771
v 0.022969 -0.075850 0.003297
v 0.040848 0.006500 -0.006501
v 0.041365 0.006500 0.000823
v 0.036550 -0.000026 0.007452
v 0.028177 -0.011972 0.011172
v 0.025095 -0.037740 0.007243
v 0.023227 -0.050039 0.010371
v 0.023305 -0.059680 0.009265
v 0.022706 -0.067227 0.007545
v 0.040483 0.006500 0.008761
v 0.038475 0.006500 0.015346
v 0.035799 0.006500 0.020767
v 0.028910 -0.001936 0.021586
v 0.021510 -0.013817 0.020065
v 0.022969 -0.044353 0.010579
v 0.022969 -0.055289 0.010401
v 0.022734 -0.062343 0.008928
v -0.025159 -0.031055 -0.089425
v -0.025365 -0.040310 -0.092437
v -0.028990 -0.052073 -0.088974
v -0.030741 -0.066373 -0.083667
v -0.029867 -0.078494 -0.077593
v -0.026548 -0.090525 -0.069840
v -0.023569 -0.098762 -0.061301
v -0.023216 -0.100820 -0.055965
v -0.026261 -0.024385 -0.085347
v -0.031362 -0.033450 -0.083829
v -0.032188 -0.046453 -0.084871
v -0.032188 -0.064094 -0.082256
v -0.032188 -0.080157 -0.072069
v -0.031839 -0.089139 -0.060069
v -0.027345 -0.097322 -0.051813
v -0.023104 -0.102932 -0.045547
v -0.028584 -0.015706 -0.076487
v -0.032188 -0.023333 -0.076656
v -0.032188 -0.035710 -0.082957
v -0.032188 -0.062501 -0.082815
v -0.032188 -0.087404 -0.062295
v -0.032188 -0.092302 -0.048351
v -0.031362 -0.094352 -0.039174
v -0.023273 -0.102515 -0.034485
v -0.030326 -0.008424 -0.063709
v -0.032188 -0.011540 -0.063864
v -0.032188 -0.015078 -0.068932
v -0.032188 -0.038329 -0.083630
v -0.032188 -0.092330 -0.034920
v -0.032188 -0.090656 -0.027690
v -0.031955 -0.090453 -0.025885
v -0.023597 -0.098826 -0.021140
v -0.029919 -0.003028 -0.050982
v -0.032188 -0.005459 -0.046154
v -0.032188 -0.005380 -0.037102
v -0.032188 -0.020405 -0.008001
v -0.032188 -0.067257 -0.001360
v -0.032188 -0.079574 -0.009670
v -0.031374 -0.083992 -0.012536
v -0.024808 -0.091225 -0.010577
v -0.030723 0.006500 -0.027898
v -0.032188 -0.006256 -0.031373
v -0.032188 -0.010803 -0.019519
v -0.032188 -0.026544 -0.003527
v -0.032188 -0.049934 0.002649
v -0.032188 -0.065309 -0.000418
v -0.029652 -0.074755 -0.001652
v -0.023250 -0.084539 -0.000671
v -0.036482 0.006500 -0.019483
v -0.038972 0.006500 -0.013866
v -0.033449 -0.005284 -0.005970
v -0.032188 -0.027919 -0.002722
v -0.032180 -0.042892 0.002227
v -0.030300 -0.056196 0.004828
v -0.024698 -0.068834 0.007491
v -0.023113 -0.077363 0.004913
v -0.040843 0.006500 -0.006508
v -0.041354 0.006500 0.000823
v -0.036545 -0.000025 0.007399
v -0.028199 -0.011972 0.011085
v -0.025963 -0.037282 0.008528
v -0.023418 -0.049895 0.012492
v -0.023499 -0.059965 0.011383
v -0.022412 -0.067422 0.010137
v -0.040458 0.006500 0.008744
v -0.038463 0.006500 0.015297
v -0.035826 0.006500 0.020683
v -0.029013 -0.001919 0.021482
v -0.021454 -0.013813 0.020128
v -0.023104 -0.044947 0.012823
v -0.022412 -0.056332 0.012853
v -0.021024 -0.062697 0.011911
v -0.021024 -0.062697 0.011911
v -0.021024 -0.062697 0.011911
v -0.021024 -0.062697 0.011911
v -0.021656 -0.056363 0.013084
v -0.021656 -0.056363 0.013084
v -0.022079 -0.067457 0.010233
v -0.021656 -0.067501 0.010356
v -0.021024 -0.062697 0.011911
v -0.021120 -0.063423 0.011676
v -0.021120 -0.063423 0.011676
v -0.021024 -0.062697 0.011911
v -0.021656 -0.056363 0.013084
v -0.021024 -0.062697 0.011911
v -0.022079 -0.067457 0.010233
v -0.021120 -0.063423 0.011676
v -0.021656 -0.056363 0.013084
vt 0.364729 0.002762
vt 0.366995 0.000312
vt 0.363781 0.004013
vt 0.359121 0.009283
vt 0.243681 0.580570
vt 0.249684 0.585772
vt 0.252417 0.590162
vt 0.246459 0.587477
vt 0.239237 0.577998
vt 0.243865 0.580363
vt 0.251634 0.587331
vt 0.256747 0.595570
vt 0.255521 0.599871
vt 0.250739 0.596182
vt 0.233312 0.579369
vt 0.236832 0.583257
vt 0.232321 0.575171
vt 0.258675 0.600170
vt 0.257146 0.609697
vt 0.254132 0.608790
vt 0.243447 0.588494
vt 0.222579 0.577107
vt 0.223254 0.580077
vt 0.221867 0.573388
vt 0.260980 0.610625
vt 0.256721 0.619680
vt 0.252596 0.622572
vt 0.210919 0.578193
vt 0.208598 0.581933
vt 0.212801 0.573994
vt 0.259811 0.619879
vt 0.255968 0.638834
vt 0.253361 0.641657
vt 0.201085 0.579661
vt 0.197240 0.585732
vt 0.204647 0.576234
vt 0.256653 0.637433
vt 0.252988 0.644931
vt 0.251117 0.648758
vt 0.249738 0.628615
vt 0.240098 0.638757
vt 0.200389 0.586152
vt 0.191922 0.594556
vt 0.192488 0.583850
vt 0.190073 0.589635
vt 0.197530 0.579686
vt 0.239999 0.650429
vt 0.226327 0.639287
vt 0.223909 0.644491
vt 0.187945 0.603010
vt 0.186760 0.608324
vt 0.186447 0.598774
vt 0.189495 0.586593
vt 0.184532 0.593094
vt 0.204284 0.576301
vt 0.197792 0.579502
vt 0.246209 0.658798
vt 0.239302 0.661254
vt 0.222774 0.646429
vt 0.194617 0.633309
vt 0.205437 0.641352
vt 0.181451 0.600163
vt 0.241346 0.668747
vt 0.239530 0.672460
vt 0.229478 0.659986
vt 0.209815 0.645379
vt 0.188670 0.623899
vt 0.195112 0.634960
vt 0.184300 0.609400
vt 0.179608 0.610164
vt 0.233198 0.670326
vt 0.212287 0.649062
vt 0.199408 0.641392
vt 0.185262 0.620862
vt 0.188984 0.630981
vt 0.180012 0.619444
vt 0.237143 0.677345
vt 0.235998 0.679686
vt 0.225175 0.665489
vt 0.202407 0.647277
vt 0.190617 0.639029
vt 0.182780 0.627896
vt 0.179560 0.610672
vt 0.179849 0.618913
vt 0.232802 0.681196
vt 0.234758 0.682223
vt 0.231500 0.675756
vt 0.206421 0.649235
vt 0.195853 0.643439
vt 0.186240 0.634185
vt 0.181843 0.626039
vt 0.223834 0.668214
vt 0.198627 0.645620
vt 0.202036 0.647341
vt 0.174279 0.208640
vt 0.177457 0.196290
vt 0.182692 0.190274
vt 0.174403 0.207438
vt 0.228957 0.925434
vt 0.227091 0.912029
vt 0.227216 0.910820
vt 0.233197 0.932942
vt 0.234241 0.895082
vt 0.250142 0.944324
vt 0.286605 0.909218
vt 0.280596 0.938221
vt 0.251476 0.884528
vt 0.275878 0.887805
vt 0.255483 0.945407
vt 0.271137 0.943660
vt 0.255951 0.883786
vt 0.269804 0.885191
vt 0.644305 0.199678
vt 0.651257 0.207008
vt 0.654492 0.219028
vt 0.653719 0.214783
vt 0.000000 0.026500
vt 0.008289 0.009336
vt 0.024125 0.000355
vt 0.006986 0.010850
vt 0.123518 0.253802
vt 0.128747 0.249774
vt 0.123817 0.262922
vt 0.121467 0.263950
vt 0.324079 0.531841
vt 0.333530 0.535306
vt 0.335837 0.542801
vt 0.326531 0.539526
vt 0.320073 0.526865
vt 0.327862 0.530536
vt 0.337045 0.538535
vt 0.342436 0.545494
vt 0.338098 0.553148
vt 0.333204 0.547082
vt 0.311978 0.530259
vt 0.315257 0.533762
vt 0.310895 0.524323
vt 0.346103 0.553799
vt 0.339875 0.564293
vt 0.339382 0.562892
vt 0.324387 0.538480
vt 0.300414 0.529948
vt 0.299160 0.531773
vt 0.300634 0.523663
vt 0.348063 0.564913
vt 0.339693 0.576365
vt 0.337310 0.579999
vt 0.297727 0.531909
vt 0.289045 0.525538
vt 0.287440 0.530953
vt 0.345993 0.575321
vt 0.336474 0.587572
vt 0.329614 0.591732
vt 0.281164 0.528499
vt 0.277093 0.532444
vt 0.348082 0.565103
vt 0.347897 0.574303
vt 0.344395 0.584930
vt 0.335192 0.596354
vt 0.324458 0.598738
vt 0.284574 0.535913
vt 0.274893 0.541155
vt 0.276423 0.532100
vt 0.271023 0.537850
vt 0.345667 0.583323
vt 0.340859 0.591519
vt 0.329736 0.602277
vt 0.322349 0.606560
vt 0.318829 0.599285
vt 0.313231 0.601395
vt 0.276955 0.541021
vt 0.269655 0.549928
vt 0.267334 0.543154
vt 0.335055 0.598792
vt 0.327457 0.604612
vt 0.318641 0.608506
vt 0.311164 0.607975
vt 0.298512 0.602775
vt 0.299866 0.602895
vt 0.266056 0.558466
vt 0.265148 0.563422
vt 0.263818 0.552676
vt 0.268657 0.540369
vt 0.263148 0.549247
vt 0.323634 0.606997
vt 0.298591 0.627444
vt 0.297197 0.624606
vt 0.292512 0.618568
vt 0.280570 0.596392
vt 0.281188 0.608286
vt 0.261126 0.554221
vt 0.290432 0.635776
vt 0.288486 0.629697
vt 0.281942 0.619959
vt 0.272778 0.589210
vt 0.269227 0.606515
vt 0.262793 0.564608
vt 0.258778 0.565482
vt 0.285446 0.639695
vt 0.281687 0.632004
vt 0.274525 0.617352
vt 0.266832 0.578580
vt 0.270035 0.585285
vt 0.264166 0.596162
vt 0.267201 0.602371
vt 0.263210 0.575854
vt 0.260034 0.575423
vt 0.284439 0.637635
vt 0.279744 0.628031
vt 0.263211 0.594209
vt 0.289039 0.641647
vt 0.286840 0.642545
vt 0.906925 0.219217
vt 0.903083 0.206897
vt 0.903208 0.208108
vt 0.911666 0.225651
vt 0.758386 0.113195
vt 0.749928 0.095652
vt 0.757089 0.111689
vt 0.774577 0.122400
vt 0.195404 0.862204
vt 0.201407 0.839325
vt 0.218307 0.827584
vt 0.202451 0.878499
vt 0.248803 0.833839
vt 0.259051 0.866989
vt 0.223706 0.826458
vt 0.239332 0.828235
vt 0.256949 0.844095
vt 0.260137 0.861530
vt 0.219663 0.889382
vt 0.244161 0.885967
vt 0.224190 0.890161
vt 0.238036 0.888716
vt 0.855552 0.000354
vt 0.863358 0.007970
vt 0.868828 0.021968
vt 0.867665 0.016735
vt 0.554524 0.114551
vt 0.555067 0.115878
vt 0.556384 0.125173
vt 0.556366 0.124994
vt 0.829146 0.004148
vt 0.832449 0.006635
vt 0.837874 0.016331
vt 0.830018 0.022672
vt 0.670710 0.328362
vt 0.685840 0.309684
vt 0.686943 0.304311
vt 0.681019 0.319464
vt 0.353859 0.009475
vt 0.359639 0.000296
vt 0.352826 0.010684
vt 0.343277 0.017371
vt 0.267422 0.695419
vt 0.268132 0.695477
vt 0.268114 0.700152
vt 0.266145 0.700256
vt 0.267713 0.688925
vt 0.268164 0.688878
vt 0.268230 0.707140
vt 0.267369 0.707050
vt 0.254504 0.697051
vt 0.252477 0.699457
vt 0.267732 0.687524
vt 0.268276 0.687629
vt 0.268509 0.689599
vt 0.254719 0.689903
vt 0.268230 0.717701
vt 0.267369 0.717680
vt 0.254326 0.706928
vt 0.240627 0.696764
vt 0.241686 0.699146
vt 0.255332 0.687479
vt 0.241395 0.691086
vt 0.267966 0.726859
vt 0.267667 0.727012
vt 0.254477 0.717631
vt 0.240489 0.706733
vt 0.229505 0.694856
vt 0.230006 0.698893
vt 0.255370 0.682298
vt 0.267732 0.682348
vt 0.241442 0.687428
vt 0.228838 0.690953
vt 0.267917 0.735096
vt 0.267709 0.735462
vt 0.254356 0.727187
vt 0.240648 0.717630
vt 0.230522 0.706567
vt 0.228248 0.694890
vt 0.228793 0.699337
vt 0.241480 0.682241
vt 0.228258 0.687380
vt 0.228161 0.690158
vt 0.254055 0.735897
vt 0.240592 0.727623
vt 0.230913 0.717592
vt 0.228876 0.706730
vt 0.228258 0.682188
vt 0.227091 0.687605
vt 0.227443 0.689824
vt 0.267758 0.742021
vt 0.253782 0.742492
vt 0.240342 0.736675
vt 0.230594 0.727395
vt 0.228754 0.717602
vt 0.266930 0.747983
vt 0.253118 0.748130
vt 0.239940 0.742942
vt 0.230558 0.736390
vt 0.229020 0.727227
vt 0.267831 0.742286
vt 0.267369 0.747978
vt 0.267806 0.749914
vt 0.252246 0.750969
vt 0.239305 0.748277
vt 0.230383 0.743386
vt 0.229067 0.735837
vt 0.267831 0.749688
vt 0.266906 0.753930
vt 0.253104 0.754222
vt 0.238815 0.752707
vt 0.230913 0.748367
vt 0.229265 0.743144
vt 0.267369 0.753920
vt 0.239302 0.754514
vt 0.230492 0.751907
vt 0.229749 0.749741
vt 0.230741 0.755518
vt 0.229749 0.751047
vt 0.229074 0.751758
vt 0.228778 0.748460
vt 0.229749 0.756626
vt 0.849065 0.219422
vt 0.850058 0.217198
vt 0.850230 0.224080
vt 0.848244 0.223655
vt 0.858625 0.216496
vt 0.858778 0.224715
vt 0.849898 0.230756
vt 0.848466 0.229747
vt 0.848389 0.213337
vt 0.848484 0.220185
vt 0.872436 0.217507
vt 0.872595 0.225451
vt 0.859134 0.231553
vt 0.850230 0.239438
vt 0.848069 0.239481
vt 0.886247 0.218519
vt 0.886833 0.225315
vt 0.872892 0.231413
vt 0.859157 0.238979
vt 0.849699 0.248612
vt 0.848484 0.248534
vt 0.886710 0.218552
vt 0.886905 0.224469
vt 0.887112 0.230987
vt 0.872991 0.239007
vt 0.859447 0.248718
vt 0.849723 0.257228
vt 0.849065 0.257410
vt 0.887245 0.214381
vt 0.887173 0.221270
vt 0.887173 0.230266
vt 0.886710 0.239880
vt 0.873091 0.247573
vt 0.859261 0.255984
vt 0.850026 0.262641
vt 0.849065 0.263764
vt 0.887361 0.228761
vt 0.887572 0.239897
vt 0.887060 0.247749
vt 0.873118 0.255737
vt 0.858948 0.261194
vt 0.850230 0.268766
vt 0.850060 0.267767
vt 0.848361 0.258992
vt 0.848476 0.265475
vt 0.887572 0.239359
vt 0.887173 0.248630
vt 0.886773 0.254513
vt 0.872678 0.261882
vt 0.857928 0.268259
vt 0.849699 0.272765
vt 0.849344 0.272691
vt 0.849065 0.272633
vt 0.887035 0.256182
vt 0.886407 0.262571
vt 0.871762 0.267718
vt 0.858007 0.271287
vt 0.850230 0.275520
vt 0.886710 0.262586
vt 0.887007 0.266683
vt 0.871864 0.270779
vt 0.856557 0.274655
vt 0.850230 0.275520
vt 0.887251 0.258150
vt 0.887173 0.264814
vt 0.887070 0.265973
vt 0.885701 0.270184
vt 0.870391 0.273964
vt 0.886951 0.270817
vt 0.886710 0.270033
vt 0.884224 0.273274
vt 0.872908 0.280233
vt 0.857937 0.276899
vt 0.887572 0.269948
vt 0.887455 0.274621
vt 0.886975 0.273474
vt 0.884468 0.276768
vt 0.871049 0.297965
vt 0.864721 0.297965
vt 0.850230 0.275520
vt 0.849699 0.278516
vt 0.887173 0.276932
vt 0.875990 0.296817
vt 0.871890 0.301228
vt 0.863879 0.301231
vt 0.849699 0.278516
vt 0.850230 0.280707
vt 0.886932 0.278756
vt 0.886710 0.276082
vt 0.876305 0.301233
vt 0.872486 0.309457
vt 0.863338 0.309480
vt 0.859483 0.301232
vt 0.882025 0.300875
vt 0.880237 0.309072
vt 0.873317 0.315840
vt 0.862761 0.315874
vt 0.855491 0.309057
vt 0.853647 0.300827
vt 0.887019 0.308867
vt 0.883939 0.314633
vt 0.874835 0.318784
vt 0.860935 0.318784
vt 0.852178 0.314803
vt 0.848970 0.309026
vt 0.890611 0.313032
vt 0.886384 0.315720
vt 0.849341 0.315687
vt 0.844990 0.312882
vt 0.610684 0.696472
vt 0.617156 0.691962
vt 0.615004 0.694098
vt 0.608698 0.698648
vt 0.627978 0.689072
vt 0.626714 0.689605
vt 0.612413 0.696623
vt 0.606604 0.701299
vt 0.640952 0.689072
vt 0.642290 0.689624
vt 0.609074 0.700034
vt 0.604480 0.704893
vt 0.651732 0.691931
vt 0.653926 0.694098
vt 0.603372 0.714443
vt 0.602055 0.714652
vt 0.658547 0.696756
vt 0.660158 0.698570
vt 0.607171 0.728602
vt 0.603761 0.724651
vt 0.662308 0.701237
vt 0.656543 0.696670
vt 0.614329 0.736255
vt 0.607897 0.731764
vt 0.664465 0.704856
vt 0.659905 0.700121
vt 0.617469 0.738208
vt 0.618789 0.739002
vt 0.618789 0.740301
vt 0.612607 0.736359
vt 0.666891 0.714652
vt 0.665573 0.714588
vt 0.615505 0.753546
vt 0.613881 0.753615
vt 0.665178 0.724632
vt 0.661690 0.728695
vt 0.628685 0.745709
vt 0.627888 0.753553
vt 0.615505 0.762770
vt 0.613881 0.762745
vt 0.661113 0.731707
vt 0.654571 0.736246
vt 0.639961 0.745818
vt 0.640861 0.753560
vt 0.627893 0.762768
vt 0.615505 0.773183
vt 0.614084 0.773088
vt 0.656478 0.736235
vt 0.649749 0.740484
vt 0.651234 0.738329
vt 0.649749 0.739195
vt 0.652376 0.753566
vt 0.640866 0.762765
vt 0.627881 0.773171
vt 0.615505 0.777795
vt 0.614416 0.777657
vt 0.653137 0.753598
vt 0.652376 0.762763
vt 0.640854 0.773158
vt 0.627855 0.777765
vt 0.615505 0.785988
vt 0.614416 0.785811
vt 0.653137 0.762751
vt 0.652376 0.773147
vt 0.640829 0.777734
vt 0.653137 0.773093
vt 0.652376 0.777707
vt 0.652884 0.777643
vt 0.652884 0.785792
vt 0.652376 0.785874
vt 0.723010 0.300324
vt 0.718241 0.289014
vt 0.719078 0.291947
vt 0.725690 0.302827
vt 0.786897 0.936638
vt 0.786917 0.921593
vt 0.787251 0.920231
vt 0.787733 0.939570
vt 0.788646 0.916502
vt 0.788552 0.941594
vt 0.809669 0.899541
vt 0.809349 0.958701
vt 0.838613 0.912954
vt 0.838484 0.945566
vt 0.813414 0.899105
vt 0.828388 0.902855
vt 0.839532 0.914388
vt 0.839327 0.944292
vt 0.813260 0.959182
vt 0.828289 0.955513
vt 0.052812 0.259751
vt 0.057560 0.248513
vt 0.060290 0.245985
vt 0.053146 0.258390
vt 0.434388 0.011207
vt 0.427776 0.000327
vt 0.428595 0.002351
vt 0.438009 0.014433
vt 0.712960 0.029565
vt 0.720104 0.017160
vt 0.723767 0.013912
vt 0.714355 0.025836
vt 0.475798 0.150626
vt 0.488463 0.141646
vt 0.470530 0.161485
vt 0.470025 0.165216
vt 0.718241 0.283109
vt 0.730741 0.292088
vt 0.736479 0.306736
vt 0.736022 0.303164
vt 0.728803 0.027697
vt 0.731750 0.023344
vt 0.738947 0.013681
vt 0.733144 0.023344
vt 0.994651 0.020186
vt 0.992863 0.018782
vt 0.997555 0.023367
vt 0.999558 0.026291
vt 0.165719 0.238592
vt 0.163717 0.235668
vt 0.167833 0.242831
vt 0.169153 0.247455
vt 0.350507 0.097852
vt 0.348558 0.094019
vt 0.351992 0.102882
vt 0.352402 0.107907
vt 0.371003 0.126660
vt 0.369683 0.122037
vt 0.371417 0.132141
vt 0.370713 0.137132
vt 0.371976 0.117838
vt 0.371567 0.122863
vt 0.371276 0.112392
vt 0.369683 0.107874
vt 0.648241 0.073557
vt 0.648944 0.078548
vt 0.646488 0.068630
vt 0.644305 0.064965
vt 0.606575 0.236214
vt 0.608169 0.240732
vt 0.604232 0.232140
vt 0.602055 0.229440
vt 0.637769 0.163383
vt 0.639892 0.167102
vt 0.635373 0.160329
vt 0.633742 0.158492
vt 0.924436 0.159068
vt 0.924207 0.155756
vt 0.924419 0.149941
vt 0.924300 0.151267
vt 0.751469 0.007934
vt 0.749217 0.006117
vt 0.744647 0.000343
vt 0.746699 0.003280
vt 0.649818 0.218698
vt 0.647766 0.221635
vt 0.644305 0.230538
vt 0.645631 0.225899
vt 0.986167 0.093698
vt 0.984191 0.097552
vt 0.982300 0.107630
vt 0.982706 0.102601
vt 0.825593 0.133565
vt 0.824266 0.138204
vt 0.824572 0.148669
vt 0.823865 0.143689
vt 0.000405 0.123499
vt 0.000000 0.118469
vt 0.002294 0.108538
vt 0.000710 0.113034
vt 0.776334 0.095603
vt 0.777041 0.090624
vt 0.780940 0.082083
vt 0.778789 0.085722
vt 0.866114 0.011574
vt 0.867698 0.007078
vt 0.872133 0.000349
vt 0.870014 0.003033
vt 0.771053 0.130091
vt 0.773146 0.126396
vt 0.777500 0.121159
vt 0.775488 0.123362
vt 0.661176 0.324100
vt 0.660148 0.312020
vt 0.662016 0.313187
vt 0.666252 0.326769
vt 0.712960 0.124820
vt 0.713937 0.119473
vt 0.715185 0.122504
vt 0.713937 0.127112
vt 0.998144 0.139959
vt 0.999319 0.135622
vt 0.998784 0.139858
vt 0.999319 0.143577
vt 0.860833 0.093184
vt 0.861108 0.089089
vt 0.860833 0.085909
vt 0.861233 0.090533
vt 0.254498 0.255473
vt 0.260204 0.252786
vt 0.255798 0.265977
vt 0.253497 0.267137
vt 0.063374 0.000472
vt 0.063750 0.000394
vt 0.064311 0.003525
vt 0.064226 0.003052
vt 0.640548 0.107670
vt 0.641590 0.107594
vt 0.641988 0.110232
vt 0.639023 0.111216
vt 0.641590 0.114836
vt 0.639275 0.115548
vt 0.871395 0.153182
vt 0.871908 0.146869
vt 0.872319 0.152518
vt 0.871988 0.155871
vt 0.147873 0.000352
vt 0.148427 0.000920
vt 0.152416 0.006256
vt 0.162377 0.005887
vt 0.158436 0.009725
vt 0.161797 0.006482
vt 0.166551 0.000304
vt 0.264166 0.596162
vt 0.266832 0.578580
vt 0.265148 0.563422
vt 0.186760 0.608324
vt 0.618789 0.739002
vn -0.400073 -0.881871 -0.249490
vn 0.002806 -0.962063 -0.272815
vn 0.012838 -0.991466 -0.129733
vn -0.325240 -0.943111 -0.069001
vn 0.060388 -0.959616 -0.274754
vn 0.062589 -0.989358 -0.131356
vn 0.061030 -0.960152 -0.272732
vn 0.062158 -0.989496 -0.130518
vn 0.061231 -0.962612 -0.263872
vn 0.060970 -0.989238 -0.133009
vn 0.376404 -0.890830 -0.254443
vn 0.282641 -0.951307 -0.122997
vn 0.010818 -0.999777 0.018148
vn -0.323648 -0.946093 0.012658
vn 0.063752 -0.997790 0.018736
vn 0.062182 -0.997760 0.024670
vn 0.062117 -0.997721 0.026340
vn 0.277383 -0.960758 -0.001488
vn -0.031054 -0.977335 0.209406
vn -0.445799 -0.883694 0.142645
vn 0.064252 -0.975474 0.210530
vn 0.064059 -0.975601 0.209997
vn 0.080750 -0.974497 0.209369
vn 0.691346 -0.709366 0.137263
vn -0.009302 -0.921236 0.388892
vn -0.561841 -0.757014 0.333563
vn 0.065306 -0.921554 0.382720
vn 0.060808 -0.925510 0.373810
vn 0.072610 -0.924878 0.373268
vn 0.596876 -0.740311 0.309320
vn 0.009043 -0.832131 0.554505
vn -0.578660 -0.685188 0.442347
vn 0.063925 -0.830477 0.553373
vn 0.057022 -0.838963 0.541192
vn 0.071214 -0.838712 0.539899
vn 0.667648 -0.587232 0.457608
vn 0.018271 -0.726022 0.687428
vn -0.597249 -0.579292 0.554720
vn 0.062105 -0.732184 0.678270
vn 0.060766 -0.727557 0.683350
vn 0.064602 -0.730762 0.679568
vn 0.368068 -0.639236 0.675207
vn 0.033711 -0.593606 0.804049
vn -0.362325 -0.534271 0.763724
vn 0.061991 -0.599596 0.797899
vn 0.061984 -0.593267 0.802616
vn 0.059655 -0.586118 0.808027
vn 0.282862 -0.587415 0.758243
vn 0.051165 -0.475896 0.878012
vn -0.310460 -0.465822 0.828628
vn 0.063783 -0.482534 0.873552
vn 0.059996 -0.481104 0.874608
vn 0.057439 -0.479945 0.875416
vn 0.050300 -0.472773 0.879747
vn 0.056048 -0.358097 0.932000
vn -0.331407 -0.369382 0.868174
vn 0.064853 -0.361803 0.929996
vn 0.061621 -0.362972 0.929760
vn 0.059853 -0.374317 0.925367
vn 0.117515 -0.335684 0.934616
vn -0.293746 -0.259120 0.920092
vn -0.293746 -0.259120 0.920092
vn -0.000000 -0.000000 0.000000
vn -0.293746 -0.259120 0.920092
vn 0.065890 -0.262031 0.962807
vn 0.071200 -0.331461 0.940779
vn 0.061563 -0.260117 0.963612
vn 0.059126 -0.259436 0.963949
vn 0.045998 -0.270564 0.961603
vn -0.502388 -0.205684 0.839821
vn -0.502389 -0.205684 0.839821
vn -0.502389 -0.205684 0.839821
vn 0.072168 -0.184820 0.980119
vn 0.031281 -0.285475 0.957875
vn 0.072168 -0.184820 0.980119
vn 0.076843 -0.330304 0.940741
vn 0.154025 -0.262583 0.952537
vn 0.295086 -0.204096 0.933418
vn -0.069555 -0.285284 0.955916
vn 0.021506 -0.353768 0.935086
vn -0.232595 -0.251525 0.939486
vn 0.082881 -0.365889 0.926961
vn 0.163350 -0.341902 0.925430
vn 0.548347 -0.163203 0.820171
vn -0.250000 -0.353178 0.901535
vn -0.509243 -0.316331 0.800378
vn -0.080480 -0.405897 0.910368
vn 0.101400 -0.462178 0.880971
vn 0.274372 -0.394573 0.876945
vn 0.460551 -0.362599 0.810194
vn -0.343817 -0.500428 0.794583
vn -0.556979 -0.490146 0.670471
vn -0.115322 -0.494789 0.861327
vn 0.116455 -0.494582 0.861294
vn 0.345373 -0.500197 0.794053
vn 0.558789 -0.492495 0.667236
vn -0.343108 -0.464815 0.816225
vn -0.584963 -0.516931 0.624980
vn -0.113675 -0.446210 0.887679
vn 0.121548 -0.447151 0.886161
vn 0.349012 -0.469941 0.810769
vn 0.584859 -0.513610 0.627809
vn -0.364873 -0.401379 0.840097
vn -0.651483 -0.537082 0.535829
vn -0.138765 -0.320144 0.937151
vn 0.138236 -0.324477 0.935738
vn 0.356363 -0.379137 0.853967
vn 0.647597 -0.540415 0.537188
vn 0.000008 1.000000 -0.000010
vn 0.000001 1.000000 -0.000002
vn -0.000000 1.000000 0.000002
vn -0.000001 1.000000 0.000001
vn 0.000000 1.000000 -0.000003
vn 0.000001 1.000000 0.000003
vn -0.000000 1.000000 -0.000004
vn -0.000001 1.000000 0.000000
vn -0.000003 1.000000 -0.000008
vn -0.000002 1.000000 -0.000002
vn -0.000007 1.000000 -0.000008
vn 0.000007 1.000000 0.000004
vn -0.000005 1.000000 0.000006
vn -0.000006 1.000000 0.000009
vn -0.000001 1.000000 0.000003
vn 0.000001 1.000000 0.000001
vn 0.000001 1.000000 0.000001
vn -0.000001 1.000000 0.000000
vn 0.000003 1.000000 -0.000002
vn 0.000002 1.000000 -0.000001
vn -0.000000 1.000000 -0.000000
vn -0.000000 1.000000 -0.000000
vn 0.000001 1.000000 0.000001
vn 0.000001 1.000000 0.000000
vn 0.000003 1.000000 0.000001
vn -0.000005 1.000000 -0.000001
vn 0.000000 1.000000 -0.000000
vn -0.000000 1.000000 -0.000000
vn 0.000000 1.000000 -0.000000
vn -0.000001 1.000000 -0.000000
vn 0.000002 1.000000 0.000000
vn -0.000008 1.000000 -0.000002
vn -0.000000 1.000000 0.000000
vn -0.000000 1.000000 0.000000
vn 0.000001 1.000000 -0.000001
vn -0.000000 1.000000 0.000000
vn 0.007291 0.999973 -0.000000
vn -0.000010 1.000000 -0.000007
vn 0.027433 0.985688 -0.166331
vn -0.028644 0.985388 -0.167900
vn -0.006723 0.999977 -0.000002
vn 0.000004 1.000000 -0.000003
vn -0.055310 0.964005 -0.260069
vn -0.431548 0.863302 -0.261678
vn 0.014680 0.949151 -0.314480
vn -0.012601 0.948152 -0.317567
vn 0.052376 0.961131 -0.271080
vn 0.459343 0.837467 -0.296062
vn -0.056635 0.953178 -0.297059
vn -0.487095 0.828749 -0.275526
vn 0.015907 0.956430 -0.291528
vn -0.008313 0.955729 -0.294130
vn 0.048396 0.950990 -0.305412
vn 0.496498 0.814921 -0.298987
vn -0.035525 0.881572 -0.470711
vn -0.636297 0.684862 -0.355092
vn 0.005007 0.881785 -0.471626
vn 0.005007 0.881770 -0.471653
vn 0.026652 0.881458 -0.471510
vn 0.680265 0.650608 -0.337563
vn -0.030700 0.760574 -0.648525
vn -0.631314 0.596637 -0.495446
vn 0.004940 0.759982 -0.649925
vn 0.004939 0.759998 -0.649906
vn 0.025025 0.760175 -0.649236
vn 0.679172 0.553583 -0.481945
vn -0.018644 0.600646 -0.799297
vn -0.537452 0.513994 -0.668547
vn 0.004926 0.600227 -0.799814
vn 0.004925 0.600084 -0.799922
vn 0.017398 0.600206 -0.799656
vn 0.654035 0.461685 -0.599238
vn -0.013554 0.511405 -0.859233
vn -0.421563 0.469971 -0.775507
vn 0.004982 0.511481 -0.859280
vn 0.005936 0.519198 -0.854633
vn 0.016409 0.523899 -0.851622
vn 0.586651 0.423998 -0.689975
vn -0.003919 0.377762 -0.925894
vn -0.264518 0.356505 -0.896066
vn 0.014674 0.363122 -0.931626
vn 0.022385 0.344098 -0.938667
vn 0.038206 0.330192 -0.943140
vn 0.336771 0.290151 -0.895766
vn -0.011644 0.338415 -0.940925
vn -0.440058 0.251411 -0.862056
vn 0.018875 0.327240 -0.944753
vn 0.047753 0.274564 -0.960382
vn 0.061499 0.266721 -0.961810
vn 0.341774 0.166946 -0.924835
vn -0.032909 0.068234 -0.997126
vn -0.663257 0.000553 -0.748391
vn 0.035268 0.021332 -0.999150
vn 0.070868 -0.002366 -0.997483
vn 0.112060 -0.001532 -0.993700
vn 0.632434 0.004551 -0.774601
vn -0.026263 -0.173384 -0.984504
vn -0.675785 -0.140570 -0.723571
vn 0.050216 -0.190340 -0.980433
vn 0.068295 -0.192216 -0.978973
vn 0.099299 -0.179209 -0.978787
vn 0.674557 -0.120521 -0.728318
vn -0.013306 -0.376703 -0.926239
vn -0.678393 -0.277789 -0.680159
vn 0.061122 -0.377777 -0.923877
vn 0.061970 -0.377675 -0.923862
vn 0.083571 -0.376437 -0.922665
vn 0.709719 -0.272968 -0.649451
vn -0.004508 -0.586458 -0.809967
vn -0.677952 -0.425863 -0.599184
vn 0.062219 -0.591086 -0.804205
vn 0.061577 -0.588458 -0.806179
vn 0.072980 -0.588079 -0.805504
vn 0.715191 -0.395083 -0.576552
vn 0.006858 -0.728830 -0.684660
vn -0.675598 -0.528874 -0.513673
vn 0.062966 -0.732597 -0.677744
vn 0.061156 -0.728908 -0.681875
vn 0.067137 -0.727686 -0.682617
vn 0.706339 -0.500622 -0.500462
vn 0.000245 -0.837779 -0.546009
vn -0.646907 -0.642721 -0.410391
vn 0.064336 -0.837900 -0.542019
vn 0.061515 -0.840668 -0.538046
vn 0.066574 -0.839124 -0.539850
vn 0.671485 -0.627907 -0.393498
vn 0.007885 -0.914741 -0.403963
vn -0.379649 -0.854359 -0.354876
vn 0.064135 -0.915605 -0.396932
vn 0.060884 -0.913816 -0.401538
vn 0.060453 -0.914760 -0.399450
vn 0.370474 -0.852527 -0.368710
vn 0.705495 0.252304 -0.662284
vn 0.808293 0.090092 -0.581847
vn 0.878943 -0.043224 -0.474964
vn 0.875379 -0.179112 -0.449033
vn 0.884119 -0.297759 -0.360101
vn 0.827929 -0.456322 -0.326044
vn 0.730342 -0.626455 -0.272312
vn 0.707452 -0.688684 -0.158829
vn 0.799488 0.309018 -0.515099
vn 0.887799 0.154527 -0.433514
vn 0.935826 0.042124 -0.349936
vn 0.996861 -0.029487 -0.073478
vn 0.973190 -0.177652 -0.146083
vn 0.894721 -0.403923 -0.190580
vn 0.832943 -0.539797 -0.121761
vn 0.717354 -0.695063 -0.047858
vn 0.870811 0.347922 -0.347331
vn 0.935741 0.196970 -0.292559
vn 0.995669 0.030660 -0.087765
vn 1.000000 0.000000 0.000000
vn 0.999996 -0.002581 -0.001290
vn 0.964053 -0.260506 -0.052340
vn 0.885437 -0.464009 0.026389
vn 0.746837 -0.658025 0.096113
vn 0.884594 0.405608 -0.230167
vn 0.995079 0.081627 -0.056170
vn 0.984932 -0.141000 0.100139
vn 0.998263 0.035372 0.047113
vn 0.995213 0.092245 0.032289
vn 0.999635 -0.026612 0.004750
vn 0.886594 -0.432697 0.163475
vn 0.771872 -0.587782 0.242336
vn 0.866662 0.448427 -0.218654
vn 0.992353 0.038606 -0.117238
vn 0.980608 -0.186194 0.061149
vn 0.999819 0.015686 -0.010719
vn 0.994702 0.100272 0.022669
vn 0.998967 -0.026855 0.036670
vn 0.885024 -0.363778 0.290514
vn 0.770292 -0.520073 0.369017
vn 0.918739 0.292911 -0.264806
vn 0.924301 -0.321111 -0.206290
vn 0.862878 -0.432272 -0.261882
vn 0.916184 -0.203584 -0.345196
vn 0.913209 -0.027053 -0.406593
vn 0.905415 -0.157165 0.394363
vn 0.870683 -0.276034 0.407084
vn 0.739095 -0.457133 0.494741
vn -0.000186 -1.000000 0.000145
vn -0.000173 -1.000000 0.000134
vn 0.667466 -0.629315 -0.398060
vn 0.865085 -0.459596 -0.200995
vn 0.922351 -0.381994 -0.057868
vn 0.980660 -0.165441 0.104570
vn 0.936163 -0.007133 0.351495
vn 0.872389 -0.077155 0.482685
vn 0.784866 -0.230220 0.575312
vn 0.719518 -0.371124 0.586993
vn -0.000031 -1.000000 0.000012
vn -0.000019 -1.000000 -0.000013
vn 0.846727 -0.531470 -0.024363
vn 0.871610 -0.456546 0.178500
vn 0.877359 -0.331485 0.346929
vn 0.912016 -0.081253 0.402026
vn 0.773405 -0.010538 0.633825
vn 0.709093 -0.132435 0.692566
vn 0.455784 -0.318709 0.831075
vn -0.000349 -1.000000 0.000021
vn -0.000349 -1.000000 0.000021
vn -0.000089 1.000000 -0.000007
vn -0.000089 1.000000 -0.000007
vn 0.000061 1.000000 0.000025
vn -0.000027 1.000000 -0.000014
vn 0.822541 -0.520307 0.229581
vn 0.764879 -0.520045 0.380148
vn 0.739866 -0.472440 0.478955
vn 0.722321 -0.313184 0.616578
vn 0.880188 -0.074615 0.468724
vn 0.640025 -0.079396 0.764241
vn 0.486444 -0.211155 0.847812
vn 0.000046 1.000000 0.000026
vn 0.109407 0.270231 -0.956559
vn 0.109407 0.270231 -0.956559
vn 0.109407 0.270231 -0.956559
vn 0.109407 0.270231 -0.956559
vn -0.676815 0.264947 -0.686822
vn -0.737330 0.105492 -0.667245
vn -0.767486 -0.062176 -0.638043
vn -0.776190 -0.238731 -0.583556
vn -0.772034 -0.397570 -0.495884
vn -0.750350 -0.544647 -0.374612
vn -0.721745 -0.637442 -0.269725
vn -0.698802 -0.696050 -0.164893
vn -0.736192 0.331888 -0.589807
vn -0.767833 0.215550 -0.603300
vn -0.845204 0.039126 -0.533010
vn -0.938159 -0.094706 -0.332999
vn -0.894140 -0.341120 -0.290087
vn -0.763118 -0.583529 -0.277750
vn -0.745890 -0.649818 -0.146235
vn -0.718535 -0.693739 -0.049329
vn -0.766338 0.443040 -0.465233
vn -0.820639 0.331839 -0.465225
vn -0.918303 0.132559 -0.373025
vn -1.000000 -0.000007 -0.000006
vn -0.999981 -0.005543 -0.002840
vn -0.842267 -0.526927 -0.113731
vn -0.783047 -0.619845 0.051278
vn -0.743282 -0.662122 0.095529
vn 0.386227 0.921636 -0.037628
vn 0.386227 0.921636 -0.037628
vn 0.386227 0.921636 -0.037628
vn 0.386227 0.921636 -0.037628
vn -0.792944 0.531614 -0.297702
vn -0.937650 0.284704 -0.199390
vn -1.000000 0.000006 -0.000001
vn -1.000000 0.000000 0.000002
vn -1.000000 -0.000002 -0.000002
vn -0.997016 -0.076140 0.012695
vn -0.786313 -0.576064 0.223297
vn -0.752905 -0.614349 0.236029
vn -0.808334 0.552816 -0.202462
vn -0.978646 0.195344 -0.063975
vn -1.000000 0.000005 -0.000002
vn -1.000000 0.000004 -0.000000
vn -1.000000 0.000002 -0.000003
vn -0.980649 -0.117807 0.156362
vn -0.783026 -0.491911 0.380650
vn -0.746111 -0.539295 0.390486
vn -0.884134 0.332729 -0.328021
vn -0.992517 -0.012965 -0.121416
vn -0.967257 -0.251107 -0.036871
vn -0.999011 -0.031146 -0.031745
vn -0.994585 -0.012109 0.103214
vn -0.773601 -0.237311 0.587558
vn -0.762747 -0.365024 0.533829
vn -0.720972 -0.461841 0.516626
vn -0.848137 0.179248 -0.498532
vn -0.923531 -0.371149 -0.096641
vn -0.951376 -0.304470 0.046697
vn -0.938774 -0.082609 0.334483
vn -0.850469 0.007304 0.525974
vn -0.762187 -0.082206 0.642116
vn -0.728271 -0.250648 0.637806
vn -0.681069 -0.380800 0.625408
vn 0.000078 -1.000000 0.000033
vn 0.000077 -1.000000 0.000032
vn 0.000129 -1.000000 0.000013
vn 0.000080 -1.000000 0.000033
vn -0.847047 -0.530960 -0.024340
vn -0.886818 -0.418516 0.195955
vn -0.883679 -0.262380 0.387645
vn -0.853863 -0.039975 0.518961
vn -0.753500 -0.014356 0.657292
vn -0.689049 -0.145289 0.710001
vn -0.604621 -0.285726 0.743501
vn 0.000379 -1.000000 0.000024
vn 0.000379 -1.000000 0.000024
vn -0.001391 0.999999 0.000150
vn -0.001391 0.999999 0.000150
vn 0.000055 1.000000 -0.000026
vn -0.000169 1.000000 -0.000014
vn -0.767205 -0.518652 0.377355
vn -0.823251 -0.519367 0.229161
vn -0.741299 -0.466701 0.482355
vn -0.730313 -0.280910 0.622681
vn -0.791966 -0.087032 0.604330
vn -0.567683 -0.109344 0.815953
vn -0.425379 -0.215293 0.879034
vn -0.294271 -0.349936 0.889353
vn 0.000033 1.000000 -0.000019
vn -0.294371 -0.138260 0.945637
vn -0.294371 -0.138260 0.945637
vn 0.570983 0.183813 -0.800120
vn 0.570983 0.183813 -0.800120
vn 0.570983 0.183813 -0.800120
vn 0.570983 0.183813 -0.800120
s 1
usemtl M_sprout_SG
f 1/331/1 2/328/2 8/330/3 7/334/4
f 2/328/2 3/323/5 9/327/6 8/330/3
f 3/323/5 4/316/7 10/322/8 9/327/6
f 4/316/7 5/315/9 11/321/10 10/322/8
f 5/315/9 6/320/11 12/326/12 11/321/10
f 7/335/4 8/336/3 14/337/13 13/338/14
f 8/336/3 9/339/6 15/340/15 14/337/13
f 9/339/6 10/345/8 16/346/16 15/340/15
f 10/345/8 11/350/10 17/351/17 16/346/16
f 11/350/10 12/356/12 18/357/18 17/351/17
f 13/338/14 14/337/13 20/341/19 19/342/20
f 14/337/13 15/340/15 21/347/21 20/341/19
f 15/340/15 16/346/16 22/352/22 21/347/21
f 16/346/16 17/351/17 23/358/23 22/352/22
f 17/351/17 18/357/18 24/365/24 23/358/23
f 19/342/20 20/341/19 26/348/25 25/349/26
f 20/341/19 21/347/21 27/353/27 26/348/25
f 21/347/21 22/352/22 28/359/28 27/353/27
f 22/352/22 23/358/23 29/366/29 28/359/28
f 23/358/23 24/365/24 30/372/30 29/366/29
f 25/349/26 26/348/25 32/354/31 31/355/32
f 26/348/25 27/353/27 33/360/33 32/354/31
f 27/353/27 28/359/28 34/367/34 33/360/33
f 28/359/28 29/366/29 35/373/35 34/367/34
f 29/366/29 30/372/30 36/381/36 35/373/35
f 31/355/32 32/354/31 38/361/37 37/362/38
f 32/354/31 33/360/33 39/368/39 38/361/37
f 33/360/33 34/367/34 40/374/40 39/368/39
f 34/367/34 35/373/35 41/382/41 40/374/40
f 35/373/35 36/381/36 42/388/42 41/382/41
f 37/362/38 38/361/37 44/369/43 43/370/44
f 38/361/37 39/368/39 45/375/45 44/369/43
f 39/368/39 40/374/40 46/383/46 45/375/45
f 40/374/40 41/382/41 47/389/47 46/383/46
f 41/382/41 42/388/42 48/393/48 47/389/47
f 43/370/44 44/369/43 50/376/49 49/377/50
f 44/369/43 45/375/45 51/384/51 50/376/49
f 45/375/45 46/383/46 52/390/52 51/384/51
f 46/383/46 47/389/47 53/394/53 52/390/52
f 47/389/47 48/393/48 54/400/54 53/394/53
f 49/377/50 50/376/49 56/385/55 55/386/56
f 50/376/49 51/384/51 57/391/57 56/385/55
f 51/384/51 52/390/52 58/395/58 57/391/57
f 52/390/52 53/394/53 59/401/59 58/395/58
f 53/394/53 54/400/54 60/404/60 59/401/59
s off
f 375/646/61 376/647/62 377/648/63 378/649/64
s 1
f 56/385/55 57/391/57 62/396/65 372/397/66
f 57/391/57 58/395/58 63/402/67 62/396/65
f 58/395/58 59/401/59 64/405/68 63/402/67
f 59/650/59 60/651/60 65/652/69 64/653/68
s off
f 379/660/70 380/661/71 381/662/72
s 1
f 371/414/73 62/396/65 67/407/74 374/415/75
f 62/396/65 63/402/67 68/406/76 67/407/74
f 63/402/67 64/405/68 69/411/77 68/406/76
f 64/653/68 65/652/69 70/654/78 69/655/77
f 373/420/79 67/407/74 72/413/80 71/421/81
f 67/407/74 68/406/76 73/412/82 72/413/80
f 68/406/76 69/411/77 74/417/83 73/412/82
f 69/411/77 70/423/78 75/422/84 74/417/83
f 71/421/81 77/427/85 76/433/86
f 71/421/81 72/413/80 78/419/87 77/427/85
f 72/413/80 73/412/82 79/418/88 78/419/87
f 73/412/82 74/417/83 80/424/89 79/418/88
f 74/417/83 75/422/84 81/428/90 80/424/89
f 76/433/86 77/427/85 83/432/91 82/439/92
f 77/427/85 78/419/87 84/426/93 83/432/91
f 78/419/87 79/418/88 85/425/94 84/426/93
f 79/418/88 80/424/89 86/429/95 85/425/94
f 80/424/89 81/428/90 87/434/96 86/429/95
f 82/439/92 83/432/91 89/438/97 88/443/98
f 83/432/91 84/426/93 90/431/99 89/438/97
f 84/426/93 85/425/94 91/430/100 90/431/99
f 85/425/94 86/429/95 92/435/101 91/430/100
f 86/429/95 87/434/96 93/440/102 92/435/101
f 88/199/98 89/211/97 95/212/103 94/208/104
f 89/438/97 90/431/99 96/437/105 95/442/103
f 90/431/99 91/430/100 97/436/106 96/437/105
f 91/430/100 92/435/101 98/441/107 97/436/106
f 92/85/101 93/78/102 99/77/108 98/86/107
f 94/444/109 95/445/110 101/446/111 100/447/112
f 95/445/110 96/448/113 102/449/114 101/446/111
f 96/448/113 97/452/115 103/453/116 102/449/114
f 97/452/115 98/456/117 104/457/118 103/453/116
f 98/456/117 99/460/119 105/461/120 104/457/118
f 100/447/112 101/446/111 107/450/121 106/451/122
f 101/514/111 102/515/114 108/516/123 107/517/121
f 102/518/114 103/519/116 109/520/124 108/521/123
f 103/534/116 104/535/118 110/536/125 109/537/124
f 104/457/118 105/461/120 111/464/126 110/465/125
f 106/451/122 107/450/121 113/454/127 112/455/128
f 107/538/121 108/539/123 114/540/129 113/541/127
f 108/521/123 109/520/124 115/522/130 114/523/129
f 109/542/124 110/543/125 116/544/131 115/545/130
f 110/465/125 111/464/126 117/468/132 116/469/131
f 112/455/128 113/454/127 119/458/133 118/459/134
f 113/546/127 114/547/129 120/548/135 119/549/133
f 114/523/129 115/522/130 121/524/136 120/525/135
f 115/550/130 116/551/131 122/552/137 121/553/136
f 116/469/131 117/468/132 123/474/138 122/475/137
f 118/459/134 119/458/133 125/462/139 124/463/140
f 119/532/133 120/525/135 126/527/141 125/533/139
f 120/525/135 121/524/136 127/526/142 126/527/141
f 121/524/136 122/528/137 128/529/143 127/526/142
f 122/475/137 123/474/138 129/478/144 128/479/143
f 124/463/140 125/462/139 131/466/145 130/467/146
f 125/462/139 126/470/141 132/671/147 131/466/145
f 126/527/141 127/526/142 133/530/148 132/531/147
f 127/493/142 128/479/143 134/485/149 133/494/148
f 128/479/143 129/478/144 135/484/150 134/485/149
f 130/467/146 131/466/145 137/472/151 136/473/152
f 131/554/145 132/555/147 138/556/153 137/557/151
f 132/471/147 133/494/148 139/486/154 138/480/153
f 133/494/148 134/485/149 140/492/155 139/486/154
f 134/485/149 135/484/150 141/491/156 140/492/155
f 136/473/152 137/472/151 143/476/157 142/477/158
f 137/472/151 138/480/153 144/481/159 143/476/157
f 138/480/153 139/486/154 145/487/160 144/481/159
f 139/486/154 140/492/155 146/495/161 145/487/160
f 140/492/155 141/491/156 147/500/162 146/495/161
f 142/477/158 143/476/157 149/482/163 148/483/164
f 143/476/157 144/481/159 150/488/165 149/482/163
f 144/481/159 145/487/160 151/496/166 150/488/165
f 145/487/160 146/495/161 152/501/167 151/496/166
f 146/495/161 147/500/162 153/506/168 152/501/167
f 148/483/164 149/482/163 155/489/169 154/490/170
f 149/482/163 150/488/165 156/497/171 155/489/169
f 150/488/165 151/496/166 157/502/172 156/497/171
f 151/496/166 152/501/167 158/507/173 157/502/172
f 152/501/167 153/506/168 159/509/174 158/507/173
f 154/490/170 155/489/169 161/498/175 160/499/176
f 155/489/169 156/497/171 162/503/177 161/498/175
f 156/497/171 157/502/172 163/508/178 162/503/177
f 157/502/172 158/507/173 164/510/179 163/508/178
f 158/507/173 159/509/174 165/511/180 164/510/179
f 160/499/176 161/498/175 167/504/181 166/505/182
f 161/300/175 162/293/177 168/284/183 167/294/181
f 162/293/177 163/282/178 169/274/184 168/284/183
f 163/282/178 164/283/179 170/265/185 169/274/184
f 164/510/179 165/511/180 171/512/186 170/513/185
f 166/301/182 167/294/181 173/285/187 172/295/188
f 167/294/181 168/284/183 174/275/189 173/285/187
f 168/284/183 169/274/184 175/268/190 174/275/189
f 169/274/184 170/265/185 176/259/191 175/268/190
f 170/265/185 171/266/186 177/260/192 176/259/191
f 172/295/188 173/285/187 179/280/193 178/291/194
f 173/285/187 174/275/189 180/272/195 179/280/193
f 174/275/189 175/268/190 181/263/196 180/272/195
f 175/268/190 176/259/191 182/255/197 181/263/196
f 176/259/191 177/260/192 183/256/198 182/255/197
f 178/291/194 179/280/193 185/281/199 184/292/200
f 179/280/193 180/272/195 186/273/201 185/281/199
f 180/272/195 181/263/196 187/264/202 186/273/201
f 181/263/196 182/255/197 188/258/203 187/264/202
f 182/255/197 183/256/198 189/257/204 188/258/203
f 184/292/200 185/281/199 191/290/205 190/299/206
f 185/281/199 186/273/201 192/279/207 191/290/205
f 186/273/201 187/264/202 193/271/208 192/279/207
f 187/264/202 188/258/203 194/262/209 193/271/208
f 188/258/203 189/257/204 195/261/210 194/262/209
f 190/299/206 191/290/205 197/298/211 196/307/212
f 191/290/205 192/279/207 198/289/213 197/298/211
f 192/279/207 193/271/208 199/278/214 198/289/213
f 193/271/208 194/262/209 200/270/215 199/278/214
f 194/262/209 195/261/210 201/269/216 200/270/215
f 196/307/212 197/298/211 203/306/217 202/312/218
f 197/298/211 198/289/213 204/297/219 203/306/217
f 198/289/213 199/278/214 205/288/220 204/297/219
f 199/278/214 200/270/215 206/277/221 205/288/220
f 200/270/215 201/269/216 207/276/222 206/277/221
f 202/312/218 203/306/217 209/311/223 208/319/224
f 203/306/217 204/297/219 210/305/225 209/311/223
f 204/297/219 205/288/220 211/296/226 210/305/225
f 205/288/220 206/277/221 212/287/227 211/296/226
f 206/277/221 207/276/222 213/286/228 212/287/227
f 208/319/224 209/311/223 215/318/229 214/325/230
f 209/311/223 210/305/225 216/310/231 215/318/229
f 210/305/225 211/296/226 217/304/232 216/310/231
f 211/296/226 212/287/227 218/303/233 217/304/232
f 212/55/227 213/36/228 219/46/234 218/56/233
f 214/325/230 215/318/229 221/324/235 220/329/236
f 215/318/229 216/310/231 222/317/237 221/324/235
f 216/310/231 217/304/232 223/309/238 222/317/237
f 217/304/232 218/303/233 224/308/239 223/309/238
f 218/303/233 219/313/234 225/314/240 224/308/239
f 220/329/236 221/324/235 2/328/2 1/331/1
f 221/324/235 222/317/237 3/323/5 2/328/2
f 222/317/237 223/309/238 4/316/7 3/323/5
f 223/309/238 224/308/239 5/315/9 4/316/7
f 224/308/239 225/314/240 6/320/11 5/315/9
f 183/256/198 177/260/192 171/266/186 226/267/241
f 189/9/204 183/10/198 226/6/241 227/5/242
f 195/17/210 189/9/204 227/5/242 228/15/243
f 201/24/216 195/17/210 228/15/243 229/22/244
f 207/30/222 201/24/216 229/22/244 230/28/245
f 213/36/228 207/30/222 230/28/245 231/34/246
f 219/46/234 213/36/228 231/34/246 232/44/247
f 225/656/240 219/657/234 232/658/247 233/659/248
f 6/1/11 225/2/240 233/3/248 12/4/12
f 226/6/241 171/11/186 165/12/180 234/7/249
f 227/5/242 226/6/241 234/7/249 235/8/250
f 228/15/243 227/5/242 235/8/250 236/16/251
f 229/22/244 228/15/243 236/16/251 237/23/252
f 230/28/245 229/22/244 237/23/252 238/29/253
f 231/34/246 230/28/245 238/29/253 239/35/254
f 232/44/247 231/34/246 239/35/254 240/45/255
f 233/53/248 232/44/247 240/45/255 241/54/256
f 12/356/12 233/363/248 241/364/256 18/357/18
f 234/7/249 165/12/180 159/18/174 242/13/257
f 235/8/250 234/7/249 242/13/257 243/14/258
f 236/16/251 235/8/250 243/14/258 244/21/259
f 237/95/252 236/96/251 244/97/259 245/98/260
f 238/99/253 237/100/252 245/101/260 246/102/261
f 239/35/254 238/29/253 246/42/261 247/43/262
f 240/45/255 239/35/254 247/43/262 248/52/263
f 241/54/256 240/45/255 248/52/263 249/62/264
f 18/357/18 241/364/256 249/371/264 24/365/24
f 242/13/257 159/18/174 153/25/168 250/19/265
f 243/14/258 242/13/257 250/19/265 251/20/266
f 244/113/259 243/114/258 251/115/266 252/116/267
f 245/117/260 244/118/259 252/119/267 253/120/268
f 246/102/261 245/101/260 253/103/268 254/104/269
f 247/43/262 246/42/261 254/50/269 255/51/270
f 248/121/263 247/122/262 255/123/270 256/124/271
f 249/62/264 248/52/263 256/69/271 257/70/272
f 24/365/24 249/371/264 257/380/272 30/372/30
f 250/19/265 153/25/168 147/31/162 258/26/273
f 251/20/266 250/19/265 258/26/273 259/27/274
f 252/107/267 251/111/266 259/112/274 260/108/275
f 253/103/268 252/107/267 260/108/275 261/105/276
f 254/104/269 253/103/268 261/105/276 262/106/277
f 255/109/270 254/104/269 262/106/277 263/110/278
f 256/69/271 255/670/270 263/67/278 264/74/279
f 257/70/272 256/69/271 264/74/279 265/76/280
f 30/83/30 257/70/272 265/76/280 36/84/36
f 258/26/273 147/31/162 141/37/156 266/32/281
f 259/27/274 258/26/273 266/32/281 267/33/282
f 260/40/275 259/27/274 267/33/282 268/41/283
f 261/48/276 260/40/275 268/41/283 269/49/284
f 262/60/277 261/48/276 269/49/284 270/61/285
f 263/67/278 262/60/277 270/61/285 271/68/286
f 264/74/279 263/67/278 271/68/286 272/75/287
f 265/76/280 264/74/279 272/75/287 273/82/288
f 36/84/36 265/76/280 273/82/288 42/91/42
f 266/558/281 141/559/289 135/560/290 274/561/291
f 267/33/282 266/32/281 274/38/291 275/39/292
f 268/41/283 267/33/282 275/39/292 276/47/293
f 269/49/284 268/41/283 276/47/293 277/59/294
f 270/61/285 269/49/284 277/59/294 278/66/295
f 271/68/286 270/61/285 278/66/295 279/73/296
f 272/75/287 271/68/286 279/73/296 280/81/297
f 273/82/288 272/75/287 280/81/297 281/90/298
f 42/388/42 273/398/288 281/399/298 48/393/48
f 274/562/291 135/563/290 129/564/299 282/565/300
f 275/566/292 274/567/291 282/568/300 283/569/301
f 276/47/293 275/39/292 283/57/301 284/58/302
f 277/59/294 276/47/293 284/58/302 285/65/303
f 278/66/295 277/59/294 285/65/303 286/72/304
f 279/73/296 278/66/295 286/72/304 287/80/305
f 280/81/297 279/73/296 287/80/305 288/89/306
f 281/399/298 280/408/297 288/409/306 289/403/307
f 48/393/48 281/399/298 289/403/307 54/400/54
f 282/570/300 129/571/299 123/572/308 290/573/309
f 283/574/310 282/575/311 290/576/312 291/577/313
f 284/58/302 283/57/301 291/63/314 292/64/315
f 285/65/303 284/58/302 292/64/315 293/71/316
f 286/72/304 285/65/303 293/71/316 294/79/317
f 287/80/305 286/72/304 294/79/317 295/88/318
f 288/89/306 287/80/305 295/88/318 296/93/319
f 289/403/307 288/409/306 296/416/319 297/410/320
f 54/400/54 289/403/307 297/410/320 60/404/60
f 290/578/312 123/579/138 117/580/132 111/581/126
f 291/582/313 290/583/312 111/584/126 105/585/120
f 292/586/321 291/587/313 105/588/120 99/589/119
f 293/71/316 292/64/315 99/77/108 93/78/102
f 294/79/317 293/71/316 93/78/102 87/87/96
f 295/88/318 294/79/317 87/87/96 81/92/90
f 296/93/319 295/88/318 81/92/90 75/94/84
f 297/410/320 296/416/319 75/422/84 70/423/78
s off
f 60/638/322 297/639/323 70/640/324 65/641/325
s 1
f 172/295/188 178/291/194 298/302/326 166/301/182
f 178/163/194 184/154/200 299/155/327 298/164/326
f 184/154/200 190/149/206 300/150/328 299/155/327
f 190/149/206 196/144/212 301/142/329 300/150/328
f 196/144/212 202/137/218 302/135/330 301/142/329
f 202/137/218 208/129/224 303/125/331 302/135/330
f 208/129/224 214/130/230 304/126/332 303/125/331
f 214/325/230 220/329/236 305/332/333 304/333/332
f 220/329/236 1/331/1 7/334/4 305/332/333
f 166/183/182 298/164/326 306/173/334 160/184/176
f 298/164/326 299/155/327 307/162/335 306/173/334
f 299/155/327 300/150/328 308/161/336 307/162/335
f 300/626/328 301/627/329 309/628/337 308/629/336
f 301/142/329 302/135/330 310/136/338 309/143/337
f 302/135/330 303/125/331 311/128/339 310/136/338
f 303/125/331 304/126/332 312/127/340 311/128/339
f 304/126/332 305/131/333 313/132/341 312/127/340
f 305/343/333 7/335/4 13/338/14 313/344/341
f 160/184/176 306/173/334 314/182/342 154/191/170
f 306/173/334 307/162/335 315/172/343 314/182/342
f 307/162/335 308/161/336 316/171/344 315/172/343
f 308/213/336 309/214/337 317/215/345 316/216/344
f 309/143/337 310/136/338 318/141/346 317/148/345
f 310/136/338 311/128/339 319/134/347 318/141/346
f 311/128/339 312/127/340 320/133/348 319/134/347
f 312/127/340 313/132/341 321/138/349 320/133/348
s off
f 313/590/350 13/591/351 19/592/352 321/593/353
s 1
f 154/191/170 314/182/342 322/197/354 148/198/164
f 314/642/342 315/643/343 323/644/355 322/645/354
f 315/172/343 316/171/344 324/180/356 323/181/355
f 316/217/344 317/218/345 325/219/357 324/220/356
f 317/221/345 318/222/346 326/223/358 325/224/357
f 318/235/346 319/236/347 327/237/359 326/238/358
f 319/134/347 320/133/348 328/139/360 327/140/359
f 320/133/348 321/138/349 329/145/361 328/139/360
f 321/239/349 19/240/20 25/241/26 329/242/361
f 148/198/164 322/197/354 330/206/362 142/207/158
f 322/197/354 323/669/355 331/668/363 330/206/362
f 323/233/355 324/231/356 332/232/364 331/234/363
f 324/231/356 325/224/357 333/226/365 332/232/364
f 325/224/357 326/223/358 334/225/366 333/226/365
f 326/223/358 327/227/359 335/228/367 334/225/366
f 327/140/359 328/139/360 336/146/368 335/147/367
f 328/139/360 329/145/361 337/151/369 336/146/368
f 329/145/361 25/156/26 31/157/32 337/151/369
f 142/207/158 330/206/362 338/667/370 136/210/152
f 330/243/362 331/244/363 339/245/371 338/246/370
f 331/202/363 332/203/364 340/189/372 339/195/371
f 332/247/364 333/248/365 341/249/373 340/250/372
f 333/226/365 334/225/366 342/229/374 341/230/373
f 334/251/366 335/252/367 343/253/375 342/254/374
f 335/147/367 336/146/368 344/152/376 343/153/375
f 336/146/368 337/151/369 345/158/377 344/152/376
f 337/151/369 31/157/32 37/165/38 345/158/377
f 136/594/152 338/595/370 346/596/378 130/597/146
f 338/204/370 339/195/371 347/196/379 346/205/378
f 339/195/371 340/189/372 348/190/380 347/196/379
f 340/189/372 341/178/373 349/179/381 348/190/380
f 341/178/373 342/169/374 350/170/382 349/179/381
f 342/169/374 343/153/375 351/160/383 350/170/382
f 343/153/375 344/152/376 352/159/384 351/160/383
f 344/152/376 345/158/377 353/166/385 352/159/384
f 345/378/377 37/362/38 43/370/44 353/379/385
f 130/598/386 346/599/387 354/600/388 124/601/389
f 346/602/387 347/603/379 355/604/390 354/605/388
f 347/196/379 348/190/380 356/194/391 355/201/390
f 348/190/380 349/179/381 357/188/392 356/194/391
f 349/179/381 350/170/382 358/177/393 357/188/392
f 350/170/382 351/160/383 359/168/394 358/177/393
f 351/160/383 352/159/384 360/167/395 359/168/394
f 352/159/384 353/166/385 361/174/396 360/167/395
f 353/379/385 43/370/44 49/377/50 361/387/396
f 124/606/389 354/607/388 362/608/397 118/609/398
f 354/610/399 355/611/400 363/612/401 362/613/402
f 355/201/390 356/194/391 364/200/403 363/209/404
f 356/194/391 357/188/392 365/193/405 364/200/403
f 357/188/392 358/177/393 366/187/406 365/193/405
f 358/177/393 359/168/394 367/176/407 366/187/406
f 359/168/394 360/167/395 368/175/408 367/176/407
f 360/630/395 361/631/396 61/632/409 368/633/408
f 361/387/396 49/377/50 55/386/56 369/392/410
f 118/614/134 362/615/402 106/616/122 112/617/128
f 362/618/402 363/619/401 100/620/112 106/621/122
f 363/622/401 364/623/411 94/624/109 100/625/112
f 364/200/403 365/193/405 88/199/98 94/208/104
f 365/193/405 366/187/406 82/192/92 88/199/98
f 366/187/406 367/176/407 76/186/86 82/192/92
f 367/176/407 368/175/408 71/185/81 76/186/86
f 368/634/408 370/635/412 66/636/413 71/637/81
s off
f 382/663/414 383/664/415 384/665/416 385/666/417
