# This file uses centimeters as units for non-parametric coordinates.

mtllib right_humerus_lower_link.mtl
v -0.009857 -0.080188 -0.032568
v -0.003210 -0.084640 -0.039923
v 0.004553 -0.090213 -0.039923
v 0.017127 -0.092535 -0.039923
v 0.029705 -0.090415 -0.039923
v 0.038830 -0.085058 -0.039923
v -0.011456 -0.079972 -0.031335
v -0.005062 -0.087888 -0.031335
v 0.002535 -0.093621 -0.031335
v 0.016667 -0.097092 -0.031335
v 0.031715 -0.094168 -0.031335
v 0.040843 -0.087719 -0.031335
v -0.013855 -0.076131 -0.027395
v -0.004722 -0.088111 -0.027325
v 0.002667 -0.093376 -0.027231
v 0.016696 -0.096708 -0.027200
v 0.031595 -0.093942 -0.027231
v 0.040708 -0.087581 -0.027270
v -0.013226 -0.076736 0.027395
v -0.004722 -0.088111 0.027325
v 0.002667 -0.093376 0.027231
v 0.016696 -0.096708 0.027200
v 0.031595 -0.093942 0.027231
v 0.040708 -0.087581 0.027270
v -0.011447 -0.079986 0.030201
v -0.005064 -0.087886 0.030201
v 0.002535 -0.093621 0.030201
v 0.016667 -0.097092 0.030201
v 0.031715 -0.094168 0.030201
v 0.040843 -0.087719 0.030201
v -0.009857 -0.080188 0.032567
v -0.003945 -0.086017 0.036023
v 0.004553 -0.090213 0.039691
v 0.017127 -0.092535 0.041422
v 0.029705 -0.090415 0.040750
v 0.038830 -0.085059 0.038600
v -0.012391 -0.073974 0.033952
v -0.008992 -0.077168 0.038185
v -0.000241 -0.081146 0.045000
v 0.016635 -0.081146 0.045000
v 0.033650 -0.081316 0.045000
v 0.043972 -0.077140 0.039691
v -0.014929 -0.063738 0.033832
v -0.009989 -0.065000 0.040884
v -0.000241 -0.064757 0.045000
v 0.016635 -0.064757 0.045000
v 0.033510 -0.064757 0.045000
v 0.045541 -0.065000 0.041533
v -0.016993 -0.049076 0.030886
v -0.010523 -0.050796 0.036977
v -0.000239 -0.048369 0.044979
v 0.016635 -0.048367 0.045000
v 0.033510 -0.048367 0.045000
v 0.042915 -0.052361 0.040750
v -0.021145 -0.032038 0.026093
v -0.009543 -0.031952 0.033542
v 0.001814 -0.032379 0.036374
v 0.017159 -0.037299 0.041193
v 0.030944 -0.037257 0.038153
v 0.038517 -0.042275 0.036300
v -0.021637 -0.015721 0.025668
v -0.011149 -0.015823 0.032518
v 0.001740 -0.016204 0.035406
v 0.014687 -0.017613 0.034599
v 0.027511 -0.020635 0.030017
v 0.033145 -0.030297 0.030812
v -0.021321 -0.001339 0.025828
v -0.012791 -0.000572 0.031379
v 0.000205 -0.000978 0.034084
v 0.013429 -0.001898 0.031777
v 0.021922 -0.004847 0.027211
v 0.027272 -0.008487 0.023437
v -0.025671 0.000800 0.021372
v -0.017111 0.000800 0.026992
v -0.000555 0.000800 0.030947
v 0.016633 0.000800 0.026998
v 0.026086 0.000800 0.022174
v 0.030884 -0.003972 0.015630
v -0.032015 0.000800 0.008606
v -0.002357 0.000800 -0.000641
v 0.032154 0.000800 0.008735
v 0.033441 -0.002727 0.005725
v -0.032017 0.000800 -0.008606
v 0.032152 0.000800 -0.008735
v 0.033444 -0.002739 -0.005722
v -0.025670 0.000800 -0.021372
v -0.017109 0.000800 -0.026989
v 0.000078 0.000800 -0.030987
v 0.016634 0.000800 -0.026998
v 0.026086 0.000800 -0.022174
v 0.030883 -0.003963 -0.015629
v -0.021328 -0.001338 -0.025824
v -0.012771 -0.000572 -0.031387
v 0.000239 -0.000980 -0.034085
v 0.013460 -0.001897 -0.031764
v 0.021912 -0.004841 -0.027217
v 0.027271 -0.008482 -0.023436
v -0.021638 -0.015720 -0.025668
v -0.011137 -0.015822 -0.032523
v 0.001733 -0.016207 -0.035401
v 0.014676 -0.017617 -0.034600
v 0.027511 -0.020635 -0.030017
v 0.033144 -0.030297 -0.030812
v -0.021144 -0.032038 -0.026094
v -0.009547 -0.031954 -0.033538
v 0.001814 -0.032378 -0.036374
v 0.017159 -0.037299 -0.041193
v 0.030944 -0.037257 -0.038153
v 0.038524 -0.042274 -0.036293
v -0.016993 -0.049076 -0.030886
v -0.010523 -0.050796 -0.039923
v -0.000239 -0.048369 -0.044979
v 0.016635 -0.048367 -0.045000
v 0.033510 -0.048367 -0.045000
v 0.042915 -0.052361 -0.039923
v -0.014928 -0.063737 -0.033834
v -0.009989 -0.065000 -0.039923
v -0.000241 -0.064757 -0.045000
v 0.016635 -0.064757 -0.045000
v 0.033510 -0.064757 -0.045000
v 0.045541 -0.065000 -0.039923
v -0.012391 -0.073974 -0.033952
v -0.008992 -0.077168 -0.039923
v -0.000241 -0.081146 -0.045000
v 0.016635 -0.081146 -0.045000
v 0.033650 -0.081316 -0.045000
v 0.043973 -0.077140 -0.039923
v 0.029912 -0.013615 -0.021999
v 0.040653 -0.038044 -0.027738
v 0.047404 -0.049857 -0.031335
v 0.050161 -0.064760 -0.031335
v 0.046964 -0.079196 -0.031335
v 0.033670 -0.007937 -0.007994
v 0.031345 -0.026593 -0.015533
v 0.047047 -0.050216 -0.027231
v 0.049837 -0.064765 -0.027200
v 0.046740 -0.079068 -0.027231
v 0.033668 -0.007939 0.007992
v 0.031345 -0.026593 0.018689
v 0.047042 -0.050217 0.027231
v 0.049838 -0.064765 0.027200
v 0.046740 -0.079068 0.027231
v 0.029913 -0.013621 0.022001
v 0.040651 -0.038041 0.030201
v 0.047405 -0.049856 0.030201
v 0.050161 -0.064760 0.030201
v 0.046964 -0.079196 0.030201
v -0.025302 -0.015185 -0.021113
v -0.023894 -0.030944 -0.021887
v -0.023800 -0.046996 -0.021668
v -0.021118 -0.059433 -0.022948
v -0.017322 -0.067131 -0.026131
v -0.032051 -0.015558 -0.008614
v -0.030860 -0.031390 -0.008481
v -0.027594 -0.046863 -0.008400
v -0.024564 -0.057563 -0.008043
v -0.019940 -0.060865 -0.016468
v -0.032050 -0.015558 0.008614
v -0.030860 -0.031390 0.008481
v -0.027594 -0.046863 0.008400
v -0.024570 -0.057560 0.008049
v -0.019940 -0.060865 0.016468
v -0.025304 -0.015185 0.021113
v -0.023895 -0.030943 0.021887
v -0.023801 -0.046997 0.021666
v -0.021119 -0.059425 0.022958
v -0.017179 -0.067875 0.027660
v 0.039211 -0.034903 0.027200
v 0.034556 -0.030311 -0.024454
vt 0.455029 0.757244
vt 0.457891 0.752384
vt 0.459681 0.759761
vt 0.456176 0.762424
vt 0.453070 0.757412
vt 0.453070 0.750825
vt 0.460927 0.748884
vt 0.465323 0.756445
vt 0.461915 0.769907
vt 0.456076 0.770959
vt 0.450966 0.767510
vt 0.450747 0.760121
vt 0.450689 0.750637
vt 0.453070 0.746043
vt 0.458680 0.781751
vt 0.453637 0.783185
vt 0.447073 0.774556
vt 0.450611 0.746247
vt 0.465323 0.770110
vt 0.465305 0.783775
vt 0.455836 0.797463
vt 0.449669 0.797391
vt 0.446004 0.784919
vt 0.434729 0.776111
vt 0.441700 0.773355
vt 0.454988 0.810911
vt 0.449317 0.810996
vt 0.446186 0.798304
vt 0.435020 0.785030
vt 0.421406 0.776109
vt 0.414431 0.773355
vt 0.454045 0.823628
vt 0.449450 0.822988
vt 0.445546 0.811443
vt 0.435087 0.797932
vt 0.421111 0.785030
vt 0.409065 0.774549
vt 0.406430 0.768131
vt 0.445760 0.824771
vt 0.435197 0.811132
vt 0.421043 0.797932
vt 0.410125 0.784919
vt 0.400052 0.770961
vt 0.399955 0.762424
vt 0.435190 0.824771
vt 0.420933 0.811132
vt 0.409944 0.798304
vt 0.402493 0.783185
vt 0.395011 0.769907
vt 0.395011 0.759761
vt 0.401101 0.757244
vt 0.402121 0.757424
vt 0.420940 0.824771
vt 0.410585 0.811443
vt 0.406460 0.797392
vt 0.395011 0.781751
vt 0.395011 0.753531
vt 0.402121 0.750823
vt 0.405383 0.760627
vt 0.410370 0.824771
vt 0.406813 0.810997
vt 0.400297 0.797461
vt 0.390808 0.756445
vt 0.395011 0.748884
vt 0.402121 0.746043
vt 0.405442 0.750637
vt 0.406685 0.822989
vt 0.401138 0.810912
vt 0.405519 0.746247
vt 0.402078 0.823628
vt 0.469979 0.678353
vt 0.464325 0.682505
vt 0.455765 0.681421
vt 0.458367 0.678353
vt 0.474333 0.683266
vt 0.471071 0.686434
vt 0.457725 0.685958
vt 0.469830 0.690902
vt 0.445874 0.681432
vt 0.443270 0.678353
vt 0.476757 0.697006
vt 0.477444 0.705415
vt 0.443910 0.685956
vt 0.466968 0.702191
vt 0.437313 0.682497
vt 0.431657 0.678353
vt 0.483787 0.711472
vt 0.482186 0.715839
vt 0.476916 0.712153
vt 0.431809 0.690897
vt 0.437395 0.702191
vt 0.474323 0.709423
vt 0.430567 0.686430
vt 0.427299 0.683261
vt 0.489704 0.721140
vt 0.486032 0.724615
vt 0.476916 0.722436
vt 0.424193 0.705415
vt 0.465049 0.732016
vt 0.436588 0.732016
vt 0.474350 0.722750
vt 0.424879 0.697006
vt 0.476916 0.735406
vt 0.486708 0.735615
vt 0.429687 0.705427
vt 0.474323 0.735410
vt 0.419456 0.715838
vt 0.417849 0.711472
vt 0.476916 0.747968
vt 0.485117 0.746179
vt 0.426849 0.712156
vt 0.474350 0.747857
vt 0.416320 0.724615
vt 0.411932 0.721140
vt 0.476916 0.755386
vt 0.484174 0.753071
vt 0.423741 0.722436
vt 0.474384 0.755266
vt 0.486032 0.757732
vt 0.489704 0.749814
vt 0.476916 0.760998
vt 0.427287 0.722749
vt 0.416320 0.735615
vt 0.423741 0.735406
vt 0.474350 0.760801
vt 0.427314 0.735410
vt 0.416320 0.746179
vt 0.423741 0.747968
vt 0.427287 0.747857
vt 0.416320 0.753070
vt 0.423741 0.755386
vt 0.427253 0.755266
vt 0.423741 0.760998
vt 0.427287 0.760801
vt 0.932172 0.317418
vt 0.941775 0.315633
vt 0.941399 0.324392
vt 0.928511 0.324392
vt 0.951380 0.317263
vt 0.954394 0.324261
vt 0.941399 0.336997
vt 0.928511 0.336997
vt 0.954287 0.336997
vt 0.941399 0.349602
vt 0.928512 0.349601
vt 0.921066 0.336810
vt 0.962277 0.327473
vt 0.963475 0.336810
vt 0.954287 0.349602
vt 0.941799 0.358115
vt 0.930080 0.361899
vt 0.961469 0.346531
vt 0.952327 0.358147
vt 0.939911 0.373256
vt 0.930024 0.374339
vt 0.920658 0.347734
vt 0.921407 0.362228
vt 0.949705 0.370931
vt 0.938950 0.385342
vt 0.928851 0.386050
vt 0.920180 0.374632
vt 0.945437 0.383074
vt 0.941398 0.387417
vt 0.928271 0.387417
vt 0.918926 0.386362
vt 0.948616 0.387417
vt 0.038381 0.891695
vt 0.045626 0.891695
vt 0.042427 0.896049
vt 0.035949 0.893777
vt 0.046718 0.908240
vt 0.036881 0.905910
vt 0.025692 0.891695
vt 0.025816 0.893069
vt 0.049349 0.921070
vt 0.038784 0.921102
vt 0.026961 0.904822
vt 0.051316 0.929646
vt 0.038382 0.929646
vt 0.027022 0.917304
vt 0.015844 0.892754
vt 0.017096 0.904525
vt 0.051316 0.942296
vt 0.038382 0.942296
vt 0.025449 0.929647
vt 0.018315 0.916977
vt 0.058525 0.932728
vt 0.060537 0.942484
vt 0.051424 0.955078
vt 0.038382 0.954947
vt 0.025448 0.942296
vt 0.017567 0.931520
vt 0.059335 0.951854
vt 0.048400 0.962101
vt 0.038760 0.963737
vt 0.025448 0.954947
vt 0.017976 0.942484
vt 0.055394 0.957967
vt 0.029122 0.961945
vt 0.018740 0.951876
vt 0.101459 0.953300
vt 0.094933 0.944508
vt 0.091900 0.937660
vt 0.135174 0.912177
vt 0.141184 0.924013
vt 0.143330 0.935256
vt 0.140952 0.946310
vt 0.136324 0.952890
vt 0.129330 0.957806
vt 0.117896 0.959944
vt 0.107130 0.957369
vt 0.129138 0.905755
vt 0.089780 0.932242
vt 0.925431 0.476760
vt 0.931153 0.472654
vt 0.942017 0.470055
vt 0.953555 0.472212
vt 0.960613 0.477173
vt 0.965284 0.483813
vt 0.967683 0.494967
vt 0.965522 0.506315
vt 0.960570 0.515808
vt 0.955848 0.521839
vt 0.915672 0.493123
vt 0.918358 0.486103
vt 0.953362 0.524738
vt 0.913645 0.498010
vt 0.823865 0.186008
vt 0.823865 0.176085
vt 0.830595 0.176448
vt 0.830595 0.187602
vt 0.823865 0.166159
vt 0.830595 0.164573
vt 0.833835 0.176426
vt 0.833811 0.187497
vt 0.823865 0.158957
vt 0.830595 0.157369
vt 0.833811 0.164668
vt 0.792202 0.527781
vt 0.792178 0.516966
vt 0.794475 0.516987
vt 0.794475 0.527883
vt 0.792202 0.505479
vt 0.794475 0.505386
vt 0.803065 0.516633
vt 0.801740 0.526327
vt 0.802551 0.506936
vt 0.130392 0.377748
vt 0.139995 0.375735
vt 0.139434 0.378069
vt 0.127200 0.381013
vt 0.138102 0.401576
vt 0.124090 0.381879
vt 0.120875 0.385195
vt 0.152135 0.381009
vt 0.116187 0.394695
vt 0.159119 0.384598
vt 0.163604 0.394599
vt 0.116186 0.407504
vt 0.163602 0.407599
vt 0.127202 0.421183
vt 0.120876 0.417003
vt 0.159120 0.417600
vt 0.152135 0.421190
vt 0.139902 0.424158
vt 0.130407 0.424456
vt 0.124084 0.420316
vt 0.140021 0.426464
vn -0.789636 -0.487317 -0.372824
vn -0.593449 -0.610977 -0.523952
vn -0.671068 -0.703163 -0.235009
vn -0.843042 -0.504096 -0.187526
vn -0.215956 -0.679135 -0.701526
vn -0.365643 -0.887059 -0.281836
vn -0.004836 -0.698489 -0.715604
vn -0.018199 -0.958912 -0.283119
vn 0.205269 -0.682827 -0.701151
vn 0.338789 -0.899172 -0.276969
vn 0.571034 -0.597917 -0.562509
vn 0.668544 -0.698352 -0.255641
vn -0.703065 -0.708746 0.058130
vn -0.878519 -0.467072 -0.100237
vn -0.378150 -0.923555 0.063634
vn -0.018484 -0.996762 0.078252
vn 0.355767 -0.932125 0.067622
vn 0.699630 -0.712363 0.055296
vn -0.869692 -0.493441 0.012338
vn -0.698777 -0.709720 -0.089484
vn -0.665698 -0.715008 0.213565
vn -0.837388 -0.516335 0.179384
vn -0.376810 -0.922120 -0.087805
vn -0.356313 -0.894303 0.270673
vn -0.018219 -0.994024 -0.107635
vn -0.019313 -0.962256 0.271459
vn 0.354479 -0.930405 -0.093231
vn 0.343519 -0.899199 0.270992
vn 0.698667 -0.711352 -0.076438
vn 0.668785 -0.694268 0.265930
vn -0.620865 -0.627617 0.469706
vn -0.789287 -0.488229 0.372370
vn -0.273486 -0.691984 0.668104
vn -0.005416 -0.927270 0.374355
vn 0.241449 -0.694745 0.677519
vn 0.606981 -0.613675 0.504952
vn -0.730792 -0.367702 0.575098
vn -0.843185 -0.273559 0.462823
vn -0.220443 -0.235429 0.946561
vn -0.019280 -0.389888 0.920660
vn -0.008518 -0.146067 0.989238
vn 0.184258 -0.179446 0.966358
vn 0.695774 -0.250861 0.673028
vn -0.630991 0.013981 0.775664
vn -0.822425 -0.058845 0.565821
vn -0.162901 0.023175 0.986370
vn -0.000158 0.000163 1.000000
vn 0.138244 -0.004352 0.990389
vn 0.364038 -0.015650 0.931253
vn -0.570483 0.174525 0.802552
vn -0.731488 0.045683 0.680322
vn -0.235145 0.217268 0.947365
vn -0.001949 0.194016 0.980996
vn 0.191058 0.225641 0.955292
vn 0.662217 0.244463 0.708312
vn -0.456017 0.133012 0.879975
vn -0.674645 0.024166 0.737747
vn -0.208740 0.252200 0.944893
vn 0.066733 0.384587 0.920674
vn 0.324918 0.454340 0.829460
vn 0.621794 0.503139 0.600186
vn -0.383214 0.028931 0.923206
vn -0.628718 -0.004224 0.777622
vn -0.091726 0.118880 0.988663
vn 0.177406 0.258560 0.949565
vn 0.439918 0.374402 0.816269
vn 0.588171 0.484689 0.647404
vn -0.356589 0.224007 0.907009
vn -0.620571 0.070229 0.780999
vn -0.055455 0.097777 0.993662
vn 0.262528 0.351008 0.898817
vn 0.522359 0.301187 0.797764
vn 0.750144 0.306494 0.585956
vn -0.036445 0.997360 0.062809
vn -0.855698 -0.000901 0.517474
vn 0.054989 0.869287 0.491240
vn 0.005425 0.993944 0.109751
vn 0.061972 0.991591 0.113604
vn 0.743110 0.263155 0.615253
vn 0.905648 0.194877 0.376596
vn 0.000001 1.000000 0.000000
vn 0.000000 1.000000 0.000000
vn 0.000001 1.000000 0.000000
vn 0.000000 1.000000 -0.000000
vn -0.000000 1.000000 -0.000000
vn 0.977070 0.183402 0.108154
vn 0.922920 0.286829 0.256802
vn 0.000001 1.000000 -0.000000
vn -0.000000 1.000000 -0.000000
vn 0.977102 0.183300 -0.108041
vn 0.922888 0.287177 -0.256529
vn -0.037074 0.997240 -0.064326
vn 0.000001 1.000000 0.000000
vn 0.008202 0.993228 -0.115891
vn 0.063628 0.991199 -0.116088
vn -0.000000 1.000000 0.000000
vn 0.905569 0.195117 -0.376663
vn 0.743246 0.262921 -0.615190
vn -0.855694 -0.000863 -0.517481
vn -0.355080 0.230813 -0.905894
vn -0.620451 0.070433 -0.781076
vn 0.043395 0.870862 -0.489608
vn 0.264041 0.344611 -0.900847
vn 0.522271 0.301038 -0.797878
vn 0.750047 0.306472 -0.586093
vn -0.383026 0.028981 -0.923283
vn -0.628599 -0.004179 -0.777718
vn -0.054632 0.097914 -0.993694
vn -0.091642 0.118857 -0.988673
vn 0.177154 0.258478 -0.949634
vn 0.439890 0.374427 -0.816272
vn 0.704259 0.494138 -0.509752
vn -0.459542 0.160778 -0.873482
vn -0.691274 0.037332 -0.721628
vn -0.181854 0.268021 -0.946094
vn 0.066734 0.384653 -0.920646
vn 0.327519 0.452319 -0.829541
vn 0.640576 0.523882 -0.561435
vn -0.561637 0.155937 -0.812556
vn -0.763980 0.050582 -0.643254
vn -0.192862 0.219477 -0.956365
vn -0.001946 0.194013 -0.980997
vn 0.213086 0.216324 -0.952785
vn 0.650219 0.233792 -0.722881
vn -0.622315 -0.032681 -0.782085
vn -0.845295 -0.098821 -0.525081
vn -0.176435 -0.004198 -0.984303
vn -0.000157 0.000162 -1.000000
vn 0.166065 0.003610 -0.986108
vn 0.679144 0.009016 -0.733950
vn -0.661329 -0.206199 -0.721198
vn -0.859078 -0.260645 -0.440510
vn -0.182682 -0.179554 -0.966637
vn -0.001437 -0.172364 -0.985032
vn 0.168708 -0.174171 -0.970156
vn 0.671118 -0.201752 -0.713370
vn 0.942209 0.175527 -0.285364
vn 0.896085 0.415806 -0.155364
vn 0.736033 0.557158 -0.384488
vn 0.868225 0.346122 -0.355508
vn 0.956586 0.005403 -0.291400
vn 0.901068 -0.351848 -0.253535
vn 0.995680 -0.071837 -0.058827
vn 0.998207 -0.059717 0.004187
vn 0.957901 0.269799 0.098157
vn 0.996694 -0.013059 0.080187
vn 0.926353 -0.371220 0.063767
vn 0.995917 -0.072312 0.054034
vn 0.994078 -0.101287 0.039368
vn 0.904260 0.204129 0.375026
vn 0.993753 -0.013037 -0.110836
vn 0.940896 0.327324 -0.087027
vn 0.889401 0.329396 0.316962
vn 0.960558 0.007189 0.277987
vn 0.924856 -0.370013 -0.087933
vn 0.899147 -0.354647 0.256437
vn 0.756625 0.507267 0.412552
vn 0.923553 0.013821 0.383221
vn -0.859070 -0.032771 -0.510807
vn -0.877168 -0.064106 -0.475886
vn -0.905904 -0.115164 -0.407524
vn -0.908974 -0.229190 -0.348192
vn -0.891667 -0.297117 -0.341542
vn -0.975411 -0.037902 -0.217108
vn -0.977054 -0.004688 -0.212940
vn -0.973377 -0.116479 -0.197408
vn -0.968557 -0.197872 -0.150815
vn -0.866082 -0.494382 -0.074075
vn -0.724863 -0.688872 0.005375
vn -0.975416 -0.037900 0.217089
vn -0.977058 -0.004681 0.212920
vn -0.973379 -0.116481 0.197397
vn -0.968574 -0.197823 0.150767
vn -0.866269 -0.494097 0.073800
vn -0.736182 -0.676729 -0.008630
vn -0.859063 -0.032759 0.510820
vn -0.877169 -0.064111 0.475882
vn -0.905899 -0.115070 0.407561
vn -0.910000 -0.230500 0.344629
vn -0.883487 -0.255852 0.392415
vn 0.871298 0.294405 -0.392639
vn 0.862606 0.272783 -0.426028
vn 0.862606 0.272783 -0.426028
vn 0.472961 -0.705710 0.527524
vn 0.550629 -0.823450 0.136885
vn 0.550090 -0.822617 0.143880
vn 0.472961 -0.705710 0.527524
vn 0.555614 -0.831441 -0.000000
vn 0.555614 -0.831441 -0.000000
vn 0.392897 -0.611134 -0.687130
vn 0.392897 -0.611134 -0.687130
vn 0.392897 -0.611134 -0.687130
vn 0.392897 -0.611134 -0.687130
vn -0.004384 0.003352 -0.999985
vn -0.004384 0.003352 -0.999985
vn -0.004384 0.003352 -0.999985
vn -0.004384 0.003352 -0.999985
vn -0.004384 0.003352 -0.999985
vn -0.004384 0.003352 -0.999985
vn -0.004384 0.003352 -0.999985
vn -0.004384 0.003352 -0.999985
vn -0.004384 0.003352 -0.999985
vn -0.004384 0.003352 -0.999985
vn -0.004384 0.003352 -0.999985
vn 0.024282 -0.037740 0.998992
vn 0.024282 -0.037740 0.998992
vn 0.024282 -0.037740 0.998992
vn 0.024282 -0.037740 0.998992
vn 0.024282 -0.037740 0.998992
vn 0.024282 -0.037740 0.998992
vn 0.024282 -0.037740 0.998992
vn 0.024282 -0.037740 0.998992
vn 0.024282 -0.037740 0.998992
vn 0.024282 -0.037740 0.998993
vn 0.024282 -0.037740 0.998992
vn 0.024282 -0.037740 0.998993
s 1
usemtl M_sprout_SG
f 1/51/1 2/57/2 8/58/3 7/52/4
f 2/57/2 3/64/5 9/65/6 8/58/3
f 3/228/5 4/229/7 10/230/8 9/231/6
f 4/229/7 5/232/9 11/233/10 10/230/8
f 5/232/9 6/236/11 12/237/12 11/233/10
f 7/52/4 8/58/3 14/66/13 13/59/14
f 8/58/3 9/65/6 15/69/15 14/66/13
f 9/231/6 10/230/8 16/234/16 15/235/15
f 10/230/8 11/233/10 17/238/17 16/234/16
f 11/133/10 12/131/12 18/132/18 17/134/17
f 19/12/19 20/13/20 26/6/21 25/5/22
f 20/13/20 21/18/23 27/14/24 26/6/21
f 21/239/23 22/240/25 28/241/26 27/242/24
f 22/240/25 23/243/27 29/244/28 28/241/26
f 23/125/27 24/118/29 30/115/30 29/121/28
f 25/5/22 26/6/21 32/2/31 31/1/32
f 26/6/21 27/14/24 33/7/33 32/2/31
f 27/242/24 28/241/26 34/245/34 33/246/33
f 28/241/26 29/244/28 35/247/35 34/245/34
f 29/121/28 30/115/30 36/116/36 35/119/35
f 31/1/32 32/2/31 38/3/37 37/4/38
f 32/2/31 33/7/33 39/8/39 38/3/37
f 33/135/33 34/136/40 40/137/41 39/138/39
f 34/136/40 35/139/35 41/140/42 40/137/41
f 35/119/35 36/116/36 42/110/43 41/120/42
f 37/4/38 38/3/37 44/9/44 43/10/45
f 44/146/44 39/138/39 45/142/46
f 39/138/39 40/137/41 46/141/47 45/142/46
f 40/137/41 41/140/42 47/143/48 46/141/47
f 41/140/42 42/147/43 48/148/49 47/143/48
f 43/10/45 44/9/44 50/15/50 49/16/51
f 44/9/44 45/19/46 51/20/52 50/15/50
f 45/142/46 46/141/47 52/144/53 51/145/52
f 46/141/47 47/143/48 53/149/54 52/144/53
f 47/143/48 48/148/49 54/152/55 53/149/54
f 49/16/51 50/15/50 56/21/56 55/22/57
f 50/156/50 51/145/52 57/151/58 56/157/56
f 51/145/52 52/144/53 58/150/59 57/151/58
f 52/144/53 53/149/54 59/153/60 58/150/59
f 53/95/54 54/96/55 60/88/61 59/87/60
f 55/22/57 56/21/56 62/26/62 61/27/63
f 56/157/56 57/151/58 63/155/64 62/161/62
f 57/151/58 58/150/59 64/154/65 63/155/64
f 58/150/59 59/153/60 65/158/66 64/154/65
f 59/87/60 60/88/61 66/82/67 65/81/66
f 61/27/63 62/26/62 68/32/68 67/33/69
f 62/161/62 63/155/64 69/160/70 68/165/68
f 63/155/64 64/154/65 70/159/71 69/160/70
f 64/154/65 65/158/66 71/162/72 70/159/71
f 65/81/66 66/82/67 72/76/73 71/75/72
f 67/253/69 68/248/68 74/251/74 73/254/75
f 68/248/68 69/249/76 75/250/77 74/251/74
f 69/160/76 70/159/71 76/163/78 75/164/77
f 70/159/71 71/162/72 77/166/79 76/163/78
f 71/75/72 72/76/73 78/72/80 77/71/79
f 73/254/81 74/251/74 80/252/82 79/256/83
f 74/251/74 75/250/77 80/252/82
f 75/250/77 76/255/78 80/252/82
f 76/255/78 77/257/84 81/258/85 80/252/82
f 77/71/79 78/72/80 82/73/86 81/74/87
f 79/256/83 80/252/82 83/259/88
f 80/252/82 81/258/85 84/260/89
f 81/74/87 82/73/86 85/79/90 84/80/91
f 83/259/88 80/252/82 87/261/92 86/262/93
f 80/252/82 88/265/94 87/261/92
f 80/252/82 89/264/95 88/265/94
f 80/252/82 84/260/89 90/263/96 89/264/95
f 84/80/91 85/79/90 91/85/97 90/86/98
f 86/262/99 87/261/92 93/266/100 92/267/101
f 87/261/92 88/265/94 94/268/102 93/266/100
f 88/173/94 89/167/95 95/170/103 94/174/102
f 89/167/95 90/168/98 96/169/104 95/170/103
f 90/86/98 91/85/97 97/93/105 96/94/104
f 92/67/101 93/70/100 99/68/106 98/61/107
f 93/181/100 94/174/108 100/177/109 99/182/106
f 94/174/108 95/170/103 101/172/110 100/177/109
f 95/170/103 96/169/104 102/171/111 101/172/110
f 96/94/104 97/93/105 103/98/112 102/102/111
f 98/61/107 99/68/106 105/62/113 104/55/114
f 99/182/106 100/177/109 106/180/115 105/186/113
f 100/177/109 101/172/110 107/176/116 106/180/115
f 101/172/110 102/171/111 108/175/117 107/176/116
f 102/102/111 103/98/112 109/107/118 108/108/117
f 104/55/114 105/62/113 111/56/119 110/48/120
f 105/186/113 106/180/115 112/185/121 111/192/119
f 106/180/115 107/176/116 113/179/122 112/185/121
f 107/176/116 108/175/117 114/178/123 113/179/122
f 108/108/117 109/107/118 115/113/124 114/114/123
f 110/48/120 111/56/119 117/49/125 116/43/126
f 111/192/119 112/185/121 118/191/127 117/197/125
f 112/185/121 113/179/122 119/184/128 118/191/127
f 113/179/122 114/178/123 120/183/129 119/184/128
f 114/178/123 115/187/124 121/188/130 120/183/129
f 116/43/126 117/49/125 123/50/131 122/44/132
f 117/197/125 118/191/127 124/196/133 123/200/131
f 118/191/127 119/184/128 125/190/134 124/196/133
f 119/184/128 120/183/129 126/189/135 125/190/134
f 120/183/129 121/188/130 127/193/136 126/189/135
f 122/44/132 123/50/131 2/57/2 1/51/1
f 123/50/131 124/63/133 3/64/5 2/57/2
f 124/196/133 125/190/134 4/195/7 3/199/5
f 125/190/134 126/189/135 5/194/9 4/195/7
f 126/189/135 127/193/136 6/198/11 5/194/9
f 103/98/112 97/93/105 91/85/97 128/90/137
f 169/105/138 103/98/112 128/90/137
f 115/113/124 109/107/118 129/111/139 130/117/140
f 121/123/130 115/113/124 130/117/140 131/124/141
f 127/127/136 121/123/130 131/124/141 132/128/142
f 6/130/11 127/127/136 132/128/142 12/131/12
f 128/90/137 91/85/97 85/79/90 133/83/143
f 134/91/144 128/90/137 133/83/143
f 130/117/140 129/111/139 135/122/145
f 131/124/141 130/117/140 135/122/145 136/126/146
f 132/128/142 131/124/141 136/126/146 137/129/147
f 12/131/12 132/128/142 137/129/147 18/132/18
f 133/83/143 85/79/90 82/73/86 138/77/148
f 134/91/144 133/83/143 138/77/148 139/84/149
f 138/77/148 82/73/86 78/72/80 143/78/150
f 143/78/150 139/84/149 138/77/148
f 141/106/151 140/101/152 145/97/153 146/103/154
f 142/112/155 141/106/151 146/103/154 147/109/156
f 24/118/29 142/112/155 147/109/156 30/115/30
f 143/78/150 78/72/80 72/76/73 66/82/67
f 144/89/157 143/78/150 66/82/67 60/88/61
f 145/97/153 144/89/157 60/88/61 54/96/55
f 146/103/154 145/97/153 54/96/55 48/104/158
f 147/109/156 146/103/154 48/104/158 42/110/43
f 30/115/30 147/109/156 42/110/43 36/116/36
f 92/67/101 98/61/107 148/54/159 86/60/99
f 98/61/107 104/55/114 149/47/160 148/54/159
f 104/55/114 110/48/120 150/42/161 149/47/160
f 110/48/120 116/43/126 151/37/162 150/42/161
f 116/43/126 122/44/132 152/38/163 151/37/162
f 122/44/132 1/51/1 7/52/4 152/38/163
f 86/60/99 148/54/159 153/46/164 83/53/165
f 148/54/159 149/47/160 154/41/166 153/46/164
f 149/47/160 150/42/161 155/36/167 154/41/166
f 150/42/161 151/37/162 156/30/168 155/36/167
f 151/37/162 152/38/163 157/31/169 156/30/168
f 152/38/163 7/52/4 13/59/14
f 83/53/165 153/46/164 158/40/170 79/45/171
f 153/46/164 154/41/166 159/35/172 158/40/170
f 154/41/166 155/36/167 160/29/173 159/35/172
f 155/36/167 156/30/168 161/24/174 160/29/173
f 156/30/168 157/31/169 162/25/175 161/24/174
f 79/45/171 158/40/170 163/34/176 73/39/75
f 158/40/170 159/35/172 164/28/177 163/34/176
f 159/35/172 160/29/173 165/23/178 164/28/177
f 160/29/173 161/24/174 166/17/179 165/23/178
f 161/24/174 162/25/175 167/11/180 166/17/179
f 73/39/75 163/34/176 61/27/63 67/33/69
f 163/34/176 164/28/177 55/22/57 61/27/63
f 164/28/177 165/23/178 49/16/51 55/22/57
f 165/23/178 166/17/179 43/10/45 49/16/51
f 166/17/179 167/11/180 37/4/38 43/10/45
f 167/11/180 25/5/22 31/1/32 37/4/38
f 167/11/180 19/12/19 25/5/22
f 38/3/37 39/8/39 44/9/44
f 140/101/152 168/92/181 144/89/157 145/97/153
f 169/105/138 128/90/137 134/91/144
f 129/111/139 109/107/118 103/98/112 169/105/138
f 144/89/157 168/92/181 139/84/182 143/78/183
s 4
f 169/223/184 134/226/185 157/227/186 152/224/187
f 134/91/185 139/84/188 162/99/189 157/100/186
s off
f 139/212/190 168/204/191 167/203/192 162/213/193
f 20/201/194 19/202/195 167/203/196 168/204/197 140/205/198 141/206/199 142/207/200 24/208/201 23/209/202 22/210/203 21/211/204
f 14/214/205 15/215/206 16/216/207 17/217/208 18/218/209 137/219/210 136/220/211 135/221/212 129/222/213 169/223/214 152/224/215 13/225/216
