# This file uses centimeters as units for non-parametric coordinates.

mtllib right_gripper_lower_link.mtl
v -0.040670 0.017930 -0.017940
v -0.027335 0.017665 -0.019062
v -0.015652 0.017662 -0.019037
v -0.002670 0.017937 -0.017968
v -0.041548 0.024721 -0.007352
v -0.028293 0.025237 -0.007842
v -0.014807 0.025237 -0.007842
v -0.001546 0.024685 -0.007441
v -0.041603 0.024385 0.008187
v -0.028269 0.025027 0.008315
v -0.014831 0.025027 0.008315
v -0.001552 0.024408 0.008029
v -0.041189 0.019255 0.016896
v -0.027231 0.018144 0.018756
v -0.015873 0.018140 0.018763
v -0.001903 0.019236 0.016909
v -0.041548 0.009816 0.020850
v -0.028130 0.009906 0.021484
v -0.014970 0.009906 0.021484
v -0.001552 0.009816 0.020850
v -0.041777 -0.006833 0.021314
v -0.028148 -0.006822 0.021850
v -0.014952 -0.006822 0.021850
v -0.001323 -0.006827 0.021314
v -0.041548 -0.025202 0.022349
v -0.028179 -0.024946 0.022953
v -0.014921 -0.024946 0.022953
v -0.001552 -0.025202 0.022349
v -0.041723 -0.040080 0.025504
v -0.028359 -0.040195 0.026208
v -0.014740 -0.040196 0.026233
v -0.001377 -0.040080 0.025504
v -0.041655 -0.052974 0.020856
v -0.028125 -0.052991 0.021437
v -0.014989 -0.053061 0.021356
v -0.001445 -0.052974 0.020856
v -0.041624 -0.060883 0.008944
v -0.027731 -0.060597 0.013960
v -0.015312 -0.060574 0.013893
v -0.001520 -0.061193 0.009173
v -0.028891 -0.073516 -0.010178
v -0.023701 -0.073516 -0.010178
v -0.019471 -0.073516 -0.010178
v -0.014234 -0.073516 -0.010178
v -0.028367 -0.090649 -0.018451
v -0.014733 -0.090649 -0.018451
v -0.028367 -0.123742 -0.018425
v -0.014733 -0.123742 -0.018425
v -0.031696 -0.139435 -0.019857
v -0.028366 -0.140660 -0.019034
v -0.014734 -0.140660 -0.019034
v -0.011404 -0.139435 -0.019857
v -0.032123 -0.139137 -0.023084
v -0.028367 -0.140701 -0.022171
v -0.014733 -0.140701 -0.022171
v -0.010977 -0.139137 -0.023083
v -0.033055 -0.131734 -0.028328
v -0.028648 -0.131487 -0.028781
v -0.014452 -0.131487 -0.028781
v -0.010045 -0.131734 -0.028328
v -0.033461 -0.119293 -0.035619
v -0.028041 -0.119669 -0.036001
v -0.015059 -0.119669 -0.036001
v -0.009639 -0.119293 -0.035619
v -0.034131 -0.106151 -0.040034
v -0.028261 -0.106591 -0.040905
v -0.014839 -0.106591 -0.040905
v -0.008969 -0.106154 -0.040011
v -0.035205 -0.090238 -0.040118
v -0.028342 -0.090402 -0.042790
v -0.014758 -0.090402 -0.042790
v -0.007892 -0.090243 -0.040121
v -0.034988 -0.073216 -0.039913
v -0.028203 -0.074078 -0.041568
v -0.014897 -0.074078 -0.041568
v -0.008112 -0.073216 -0.039913
v -0.035206 -0.060066 -0.034921
v -0.026833 -0.059409 -0.037058
v -0.016267 -0.059409 -0.037058
v -0.007894 -0.060066 -0.034921
v -0.035441 -0.046417 -0.029362
v -0.026709 -0.046567 -0.030807
v -0.016391 -0.046567 -0.030807
v -0.007659 -0.046417 -0.029362
v -0.041636 -0.027600 -0.023392
v -0.027996 -0.029385 -0.024572
v -0.015168 -0.029558 -0.024661
v -0.001464 -0.027600 -0.023392
v -0.041777 -0.006989 -0.021317
v -0.027368 -0.007181 -0.021894
v -0.015732 -0.007181 -0.021894
v -0.001323 -0.007004 -0.021318
v -0.041250 0.009674 -0.020867
v -0.027350 0.009546 -0.021529
v -0.015750 0.009546 -0.021529
v -0.001850 0.009674 -0.020867
v -0.008581 -0.123293 -0.025905
v -0.007415 -0.106836 -0.027816
v -0.006623 -0.090085 -0.027391
v -0.005543 -0.073354 -0.025854
v -0.005385 -0.057045 -0.025039
v -0.001244 -0.040183 -0.025406
v -0.010928 -0.123360 -0.018939
v -0.009893 -0.090925 -0.019324
v -0.009741 -0.072300 -0.010799
v -0.001374 -0.061346 -0.009543
v -0.001100 -0.040865 -0.011630
v -0.001148 -0.023497 -0.008215
v -0.001100 -0.007486 -0.009389
v -0.001100 0.010015 -0.008242
v -0.001100 -0.040698 0.011663
v -0.001390 -0.023702 0.008948
v -0.001100 -0.007085 0.009657
v -0.001100 0.010015 0.009112
v -0.034547 -0.123159 -0.025126
v -0.035626 -0.106772 -0.027669
v -0.036478 -0.090085 -0.027392
v -0.037557 -0.073354 -0.025854
v -0.037697 -0.057017 -0.025089
v -0.041856 -0.040183 -0.025406
v -0.032142 -0.123389 -0.018911
v -0.033198 -0.090924 -0.019329
v -0.033428 -0.073516 -0.010178
v -0.041747 -0.059850 -0.008415
v -0.042000 -0.041401 -0.014324
v -0.041787 -0.023632 -0.008120
v -0.042000 -0.009012 -0.011672
v -0.042000 0.011516 -0.009246
v -0.042000 -0.041234 0.014357
v -0.041814 -0.023351 0.009270
v -0.042000 -0.008610 0.011941
v -0.042000 0.011114 0.009847
vt 0.119497 0.362114
vt 0.126644 0.365149
vt 0.128719 0.377171
vt 0.124861 0.371554
vt 0.116267 0.352145
vt 0.125238 0.352663
vt 0.131768 0.365200
vt 0.131093 0.377398
vt 0.116186 0.340073
vt 0.125550 0.339953
vt 0.131485 0.340590
vt 0.116339 0.327154
vt 0.126681 0.327258
vt 0.120011 0.317176
vt 0.127281 0.314884
vt 0.137756 0.326459
vt 0.124101 0.306820
vt 0.127011 0.302090
vt 0.138680 0.318147
vt 0.137145 0.302607
vt 0.152448 0.318031
vt 0.128493 0.292543
vt 0.139657 0.289429
vt 0.154280 0.302481
vt 0.130018 0.276915
vt 0.138794 0.277281
vt 0.152283 0.289585
vt 0.164461 0.302011
vt 0.161042 0.311795
vt 0.130350 0.264261
vt 0.139637 0.264002
vt 0.152804 0.276976
vt 0.162141 0.290723
vt 0.132483 0.257991
vt 0.140226 0.252871
vt 0.152403 0.264002
vt 0.161379 0.276781
vt 0.151607 0.253081
vt 0.161038 0.264153
vt 0.158139 0.257005
vt 0.774435 0.584342
vt 0.778290 0.578731
vt 0.776789 0.590843
vt 0.769077 0.593773
vt 0.780661 0.578506
vt 0.781356 0.590668
vt 0.774920 0.603263
vt 0.765833 0.603734
vt 0.781049 0.615275
vt 0.775124 0.615911
vt 0.765772 0.615795
vt 0.776254 0.628593
vt 0.765922 0.628697
vt 0.787774 0.628470
vt 0.776816 0.640976
vt 0.769591 0.638665
vt 0.789069 0.638828
vt 0.776583 0.653735
vt 0.773676 0.649010
vt 0.801826 0.638045
vt 0.784727 0.652812
vt 0.805803 0.652938
vt 0.789286 0.666281
vt 0.778063 0.663273
vt 0.810579 0.644040
vt 0.813995 0.653813
vt 0.802065 0.666494
vt 0.786676 0.677362
vt 0.779588 0.678895
vt 0.811676 0.665091
vt 0.804028 0.677666
vt 0.788459 0.692921
vt 0.779918 0.691525
vt 0.810916 0.679013
vt 0.802489 0.692617
vt 0.789850 0.702930
vt 0.782069 0.697783
vt 0.810575 0.691633
vt 0.801269 0.702676
vt 0.807669 0.698787
vt 0.951068 0.064590
vt 0.950791 0.057057
vt 0.961172 0.057129
vt 0.961867 0.063703
vt 0.950613 0.043771
vt 0.961158 0.043780
vt 0.971354 0.057129
vt 0.970655 0.063700
vt 0.950748 0.068684
vt 0.961064 0.069196
vt 0.950791 0.029113
vt 0.961134 0.029317
vt 0.971367 0.043780
vt 0.981735 0.057057
vt 0.981464 0.064575
vt 0.971461 0.069196
vt 0.950655 0.017240
vt 0.960995 0.017148
vt 0.971392 0.029317
vt 0.981912 0.043776
vt 0.981735 0.068702
vt 0.950707 0.006950
vt 0.961176 0.006936
vt 0.971532 0.017147
vt 0.981735 0.029113
vt 0.950732 0.000638
vt 0.961481 0.000867
vt 0.971339 0.006881
vt 0.981871 0.017240
vt 0.971089 0.000885
vt 0.981818 0.006950
vt 0.981760 0.000391
vt 0.130952 0.478045
vt 0.127743 0.464670
vt 0.131343 0.464881
vt 0.134818 0.478045
vt 0.127573 0.478045
vt 0.128530 0.439727
vt 0.131343 0.439456
vt 0.141498 0.464881
vt 0.137968 0.478045
vt 0.121467 0.487751
vt 0.128863 0.427399
vt 0.131343 0.426458
vt 0.141498 0.439456
vt 0.145103 0.464669
vt 0.141870 0.478045
vt 0.141497 0.426458
vt 0.144332 0.439750
vt 0.145216 0.478979
vt 0.143978 0.427399
vt 0.898907 0.389120
vt 0.898397 0.378807
vt 0.902863 0.379152
vt 0.903031 0.389416
vt 0.897580 0.366320
vt 0.902802 0.366449
vt 0.913075 0.379152
vt 0.912908 0.389416
vt 0.899215 0.398884
vt 0.902569 0.398690
vt 0.897745 0.352962
vt 0.902907 0.353639
vt 0.913136 0.366449
vt 0.917541 0.378809
vt 0.917031 0.389120
vt 0.913369 0.398690
vt 0.899925 0.404693
vt 0.902783 0.405920
vt 0.897579 0.342643
vt 0.903950 0.342128
vt 0.913031 0.353639
vt 0.918361 0.366324
vt 0.916723 0.398884
vt 0.913155 0.405920
vt 0.897400 0.331932
vt 0.904044 0.332050
vt 0.911988 0.342128
vt 0.918193 0.352962
vt 0.916013 0.404693
vt 0.892687 0.317166
vt 0.903065 0.318566
vt 0.911894 0.332050
vt 0.918359 0.342643
vt 0.892520 0.327040
vt 0.892580 0.300991
vt 0.903543 0.301142
vt 0.912825 0.318702
vt 0.918538 0.331932
vt 0.892981 0.287915
vt 0.903556 0.288016
vt 0.912395 0.301142
vt 0.923251 0.317166
vt 0.893422 0.281436
vt 0.903567 0.281644
vt 0.912382 0.288016
vt 0.923358 0.301003
vt 0.923418 0.327040
vt 0.892754 0.276107
vt 0.902839 0.275702
vt 0.912457 0.281647
vt 0.922958 0.287915
vt 0.913099 0.275702
vt 0.922334 0.281431
vt 0.923188 0.276135
vt 0.333540 0.516400
vt 0.322246 0.516441
vt 0.322152 0.506445
vt 0.333896 0.506463
vt 0.322152 0.496370
vt 0.333896 0.496352
vt 0.322360 0.486415
vt 0.333605 0.486410
vt 0.886722 0.214387
vt 0.871877 0.204192
vt 0.871877 0.200036
vt 0.890616 0.203263
vt 0.871877 0.196649
vt 0.890564 0.193319
vt 0.871877 0.192456
vt 0.886900 0.182276
vt 0.871395 0.188859
vt 0.921300 0.111280
vt 0.918926 0.111604
vt 0.919598 0.108754
vt 0.921906 0.108753
vt 0.919598 0.098408
vt 0.921906 0.098409
vt 0.918926 0.095558
vt 0.921300 0.095882
vn -0.509438 0.569857 -0.644776
vn -0.650416 0.735964 -0.187928
vn -0.022253 0.967370 -0.252389
vn -0.025161 0.657011 -0.753461
vn 0.022217 0.967639 -0.251358
vn 0.025244 0.656853 -0.753596
vn 0.670473 0.718390 -0.185424
vn 0.555209 0.548733 -0.625008
vn -0.667378 0.722510 0.180514
vn -0.018323 0.969577 0.244102
vn 0.019046 0.969402 0.244738
vn 0.681285 0.710428 0.176474
vn -0.515910 0.578343 0.631946
vn -0.024698 0.645566 0.763305
vn 0.025213 0.646319 0.762651
vn 0.558821 0.561905 0.609903
vn -0.625455 0.121734 0.770705
vn -0.029117 0.134874 0.990435
vn 0.029047 0.134711 0.990459
vn 0.647022 0.119536 0.753043
vn -0.636454 0.031135 0.770686
vn -0.021776 0.042293 0.998868
vn 0.021786 0.042295 0.998868
vn 0.678484 0.027851 0.734087
vn -0.675736 0.095115 0.730982
vn -0.023076 0.128397 0.991454
vn 0.022866 0.128578 0.991436
vn 0.718751 0.090150 0.689398
vn -0.641948 -0.039375 0.765737
vn -0.024907 -0.055061 0.998172
vn 0.024918 -0.055765 0.998133
vn 0.686009 -0.038525 0.726572
vn -0.639560 -0.447897 0.624780
vn -0.043609 -0.544371 0.837710
vn 0.041296 -0.542917 0.838771
vn 0.700229 -0.412466 0.582710
vn -0.855059 -0.452757 0.252756
vn -0.062686 -0.827687 0.557678
vn 0.055337 -0.826243 0.560589
vn 0.848463 -0.459006 0.263485
vn -0.089838 -0.779991 0.619308
vn -0.042506 -0.751420 0.658454
vn 0.037182 -0.751025 0.659226
vn 0.115412 -0.778963 0.616358
vn -0.752259 -0.139956 0.643832
vn -0.035406 -0.136051 0.990069
vn 0.035741 -0.136191 0.990038
vn 0.747324 -0.135584 0.650479
vn -0.704834 -0.029100 0.708775
vn -0.037703 -0.011928 0.999218
vn 0.038318 -0.011978 0.999194
vn 0.722299 -0.031748 0.690852
vn -0.695967 -0.173633 0.696765
vn -0.044603 -0.221098 0.974231
vn 0.045240 -0.220856 0.974257
vn 0.717391 -0.168228 0.676054
vn -0.904868 -0.389785 -0.171119
vn -0.027951 -0.733596 -0.679011
vn 0.027953 -0.733596 -0.679011
vn 0.911687 -0.377189 -0.162957
vn -0.788027 -0.367292 -0.494075
vn -0.017490 -0.546676 -0.837162
vn 0.017491 -0.546676 -0.837162
vn 0.759268 -0.384878 -0.524768
vn -0.828732 -0.258284 -0.496481
vn -0.029143 -0.435131 -0.899895
vn 0.029401 -0.435043 -0.899929
vn 0.817820 -0.262789 -0.511969
vn -0.854192 -0.129210 -0.503646
vn -0.065586 -0.214020 -0.974625
vn 0.066102 -0.214021 -0.974590
vn 0.850321 -0.128740 -0.510274
vn -0.878980 -0.031588 -0.475811
vn -0.097049 -0.017097 -0.995133
vn 0.097256 -0.017206 -0.995111
vn 0.878187 -0.030782 -0.477326
vn -0.823744 0.091602 -0.559512
vn -0.101396 0.173551 -0.979591
vn 0.101355 0.173563 -0.979593
vn 0.823801 0.091578 -0.559433
vn -0.736647 0.197857 -0.646686
vn -0.086285 0.361836 -0.928240
vn 0.086284 0.361836 -0.928240
vn 0.736781 0.197417 -0.646669
vn -0.383870 0.241240 -0.891317
vn -0.062170 0.364264 -0.929218
vn 0.061869 0.364069 -0.929315
vn 0.386344 0.239982 -0.890588
vn -0.676061 0.128707 -0.725518
vn -0.037078 0.207468 -0.977539
vn 0.036076 0.208842 -0.977284
vn 0.706292 0.122443 -0.697251
vn -0.639197 0.057402 -0.766898
vn -0.027114 0.076735 -0.996683
vn 0.026333 0.077245 -0.996664
vn 0.671783 0.056977 -0.738554
vn -0.645998 0.105884 -0.755960
vn -0.026382 0.117810 -0.992686
vn 0.026334 0.117305 -0.992747
vn 0.669595 0.104614 -0.735322
vn 0.988739 -0.071154 0.131654
vn 0.993810 -0.052292 0.098016
vn 0.996704 -0.063872 0.050017
vn 0.994185 -0.107662 -0.002407
vn 0.970892 -0.126992 -0.203079
vn 0.968926 -0.041296 -0.243881
vn 0.887926 -0.409801 0.208927
vn 0.982544 -0.182371 -0.036711
vn 0.998700 -0.031794 -0.039847
vn 0.999995 0.000963 -0.003126
vn 0.999940 -0.000476 -0.010931
vn 0.999457 0.022562 -0.024017
vn 0.999957 -0.002940 0.008814
vn 0.999952 0.000409 0.009749
vn 0.999932 -0.004641 0.010730
vn 0.999776 0.016152 0.013694
vn -0.988188 -0.068593 0.137036
vn -0.993952 -0.050814 0.097357
vn -0.996729 -0.066783 0.045505
vn -0.993735 -0.111288 -0.010246
vn -0.970588 -0.137647 -0.197514
vn -0.965415 -0.045090 -0.256791
vn -0.891857 -0.393450 0.223134
vn -0.986226 -0.161810 -0.034300
vn -0.998245 -0.037733 -0.045645
vn -0.999990 0.000629 -0.004410
vn -0.999932 -0.002874 -0.011268
vn -0.999577 0.019590 -0.021506
vn -0.999963 -0.002149 0.008316
vn -0.999982 0.000631 0.005928
vn -0.999939 -0.004823 0.009931
vn -0.999814 0.014462 0.012760
s 1
usemtl M_sprout_SG
f 1/174/1 5/179/2 6/180/3 2/175/4
f 2/175/4 6/180/3 7/183/5 3/181/6
f 3/181/6 7/183/5 8/185/7 4/184/8
f 5/186/2 9/187/9 10/188/10 6/189/3
f 6/189/3 10/188/10 11/190/11 7/191/5
f 7/191/5 11/190/11 12/192/12 8/193/7
f 9/89/9 13/81/13 14/84/14 10/90/10
f 10/90/10 14/84/14 15/88/15 11/96/11
f 11/96/11 15/88/15 16/95/16 12/101/12
f 13/81/13 17/82/17 18/83/18 14/84/14
f 14/84/14 18/83/18 19/87/19 15/88/15
f 15/88/15 19/87/19 20/94/20 16/95/16
f 17/82/17 21/85/21 22/86/22 18/83/18
f 18/83/18 22/86/22 23/93/23 19/87/19
f 19/87/19 23/93/23 24/100/24 20/94/20
f 21/85/21 25/91/25 26/92/26 22/86/22
f 22/86/22 26/92/26 27/99/27 23/93/23
f 23/93/23 27/99/27 28/105/28 24/100/24
f 25/91/25 29/97/29 30/98/30 26/92/26
f 26/92/26 30/98/30 31/104/31 27/99/27
f 27/99/27 31/104/31 32/109/32 28/105/28
f 29/97/29 33/102/33 34/103/34 30/98/30
f 30/98/30 34/103/34 35/108/35 31/104/31
f 31/104/31 35/108/35 36/111/36 32/109/32
f 33/102/33 37/106/37 38/107/38 34/103/34
f 34/103/34 38/107/38 39/110/39 35/108/35
f 35/108/35 39/110/39 40/112/40 36/111/36
f 37/194/37 41/195/41 42/196/42 38/197/38
f 38/197/38 42/196/42 43/198/43 39/199/39
f 39/199/39 43/198/43 44/200/44 40/201/40
f 41/113/41 122/114/45 45/115/46 42/116/42
f 42/116/42 45/115/46 46/120/47 43/121/43
f 43/121/43 46/120/47 104/126/48 44/127/44
f 122/114/45 121/118/49 47/119/50 45/115/46
f 45/115/46 47/119/50 48/125/51 46/120/47
f 46/120/47 48/125/51 103/129/52 104/126/48
f 121/118/49 49/123/53 50/124/54 47/119/50
f 47/119/50 50/124/54 51/128/55 48/125/51
f 48/125/51 51/128/55 52/131/56 103/129/52
f 49/203/53 53/204/57 54/205/58 50/206/54
f 50/206/54 54/205/58 55/207/59 51/208/55
f 51/208/55 55/207/59 56/209/60 52/210/56
f 53/148/57 57/140/61 58/141/62 54/149/58
f 54/149/58 58/141/62 59/147/63 55/155/59
f 55/155/59 59/147/63 60/154/64 56/160/60
f 57/140/61 61/132/65 62/135/66 58/141/62
f 58/141/62 62/135/66 63/139/67 59/147/63
f 59/147/63 63/139/67 64/146/68 60/154/64
f 61/132/65 65/133/69 66/134/70 62/135/66
f 62/135/66 66/134/70 67/138/71 63/139/67
f 63/139/67 67/138/71 68/145/72 64/146/68
f 65/133/69 69/136/73 70/137/74 66/134/70
f 66/134/70 70/137/74 71/144/75 67/138/71
f 67/138/71 71/144/75 72/153/76 68/145/72
f 69/136/73 73/142/77 74/143/78 70/137/74
f 70/137/74 74/143/78 75/152/79 71/144/75
f 71/144/75 75/152/79 76/159/80 72/153/76
f 73/142/77 77/150/81 78/151/82 74/143/78
f 74/143/78 78/151/82 79/158/83 75/152/79
f 75/152/79 79/158/83 80/164/84 76/159/80
f 77/150/81 81/156/85 82/157/86 78/151/82
f 78/151/82 82/157/86 83/163/87 79/158/83
f 79/158/83 83/163/87 84/169/88 80/164/84
f 81/156/85 85/161/89 86/162/90 82/157/86
f 82/157/86 86/162/90 87/168/91 83/163/87
f 83/163/87 87/168/91 88/173/92 84/169/88
f 85/161/89 89/166/93 90/167/94 86/162/90
f 86/162/90 90/167/94 91/172/95 87/168/91
f 87/168/91 91/172/95 92/177/96 88/173/92
f 89/166/93 93/170/97 94/171/98 90/167/94
f 90/167/94 94/171/98 95/176/99 91/172/95
f 91/172/95 95/176/99 96/182/100 92/177/96
f 93/170/97 1/174/1 2/175/4 94/171/98
f 94/171/98 2/175/4 3/181/6 95/176/99
f 95/176/99 3/181/6 4/184/8 96/182/100
f 64/1/68 97/2/101 56/3/60 60/4/64
f 68/5/72 98/6/102 97/2/101 64/1/68
f 72/9/76 99/10/103 98/6/102 68/5/72
f 76/12/80 100/13/104 99/10/103 72/9/76
f 80/14/84 101/15/105 100/13/104 76/12/80
f 84/17/88 102/18/106 101/15/105 80/14/84
f 88/173/92 102/178/106 84/169/88
f 97/2/101 103/7/52 52/8/56 56/3/60
f 98/6/102 104/11/48 103/7/52 97/2/101
f 99/10/103 104/11/48 98/6/102
f 100/13/104 105/16/107 104/11/48 99/10/103
f 101/15/105 106/19/108 105/16/107 100/13/104
f 102/18/106 107/20/109 106/19/108 101/15/105
f 88/22/92 108/23/110 107/20/109 102/18/106
f 92/25/96 109/26/111 108/23/110 88/22/92
f 96/30/100 110/31/112 109/26/111 92/25/96
f 4/34/8 8/35/7 110/31/112 96/30/100
f 105/130/107 44/127/44 104/126/48
f 106/19/108 40/21/40 105/16/107
f 107/20/109 111/24/113 40/21/40 106/19/108
f 108/23/110 112/27/114 111/24/113 107/20/109
f 109/26/111 113/32/115 112/27/114 108/23/110
f 110/31/112 114/36/116 113/32/115 109/26/111
f 8/35/7 12/38/12 114/36/116 110/31/112
f 40/201/40 44/200/44 105/202/107
f 111/24/113 32/28/32 36/29/36 40/21/40
f 112/27/114 28/33/28 32/28/32 111/24/113
f 113/32/115 24/37/24 28/33/28 112/27/114
f 114/36/116 20/39/20 24/37/24 113/32/115
f 12/38/12 16/40/16 20/39/20 114/36/116
f 57/41/61 53/42/57 115/43/117 61/44/65
f 61/44/65 115/43/117 116/47/118 65/48/69
f 65/48/69 116/47/118 117/50/119 69/51/73
f 69/51/73 117/50/119 118/52/120 73/53/77
f 73/53/77 118/52/120 119/55/121 77/56/81
f 77/56/81 119/55/121 120/58/122 81/59/85
f 81/156/85 120/165/122 85/161/89
f 53/42/57 49/45/53 121/46/49 115/43/117
f 115/43/117 121/46/49 122/49/45 116/47/118
f 116/47/118 122/49/45 117/50/119
f 117/50/119 122/49/45 123/54/123 118/52/120
f 118/52/120 123/54/123 124/57/124 119/55/121
f 119/55/121 124/57/124 125/61/125 120/58/122
f 120/58/122 125/61/125 126/63/126 85/64/89
f 85/64/89 126/63/126 127/68/127 89/69/93
f 89/69/93 127/68/127 128/72/128 93/73/97
f 93/73/97 128/72/128 5/76/2 1/77/1
f 123/54/123 37/60/37 124/57/124
f 124/57/124 37/60/37 129/62/129 125/61/125
f 125/61/125 129/62/129 130/67/130 126/63/126
f 126/63/126 130/67/130 131/71/131 127/68/127
f 127/68/127 131/71/131 132/75/132 128/72/128
f 128/72/128 132/75/132 9/79/9 5/76/2
f 123/117/123 122/114/45 41/113/41
f 123/117/123 41/113/41 37/122/37
f 37/60/37 33/65/33 29/66/29 129/62/129
f 129/62/129 29/66/29 25/70/25 130/67/130
f 130/67/130 25/70/25 21/74/21 131/71/131
f 131/71/131 21/74/21 17/78/17 132/75/132
f 132/75/132 17/78/17 13/80/13 9/79/9
