# This file uses centimeters as units for non-parametric coordinates.

mtllib right_foot_link.mtl
v -0.049984 -0.007726 -0.082514
v -0.038462 -0.010323 -0.084960
v -0.024687 -0.010538 -0.084959
v -0.008977 -0.010182 -0.084683
v 0.010738 -0.010282 -0.085021
v 0.026422 -0.010379 -0.085152
v 0.043390 -0.010231 -0.085229
v 0.059707 -0.010693 -0.084614
v 0.076304 -0.009650 -0.084332
v 0.090133 -0.006164 -0.084148
v 0.099526 -0.004075 -0.081251
v -0.050226 -0.009462 -0.078002
v -0.040117 -0.012467 -0.077218
v -0.024418 -0.012970 -0.077142
v -0.009999 -0.012571 -0.077249
v 0.010706 -0.012753 -0.077558
v 0.026514 -0.012970 -0.077141
v 0.043491 -0.012970 -0.077141
v 0.060237 -0.012906 -0.077499
v 0.075896 -0.010790 -0.075574
v 0.092025 -0.008428 -0.077607
v 0.100987 -0.004616 -0.078000
v -0.051502 -0.009909 -0.058695
v -0.041395 -0.011600 -0.058677
v -0.024417 -0.011600 -0.058677
v -0.007440 -0.011600 -0.058677
v 0.009537 -0.011600 -0.058677
v 0.026514 -0.011600 -0.058677
v 0.043491 -0.011600 -0.058677
v 0.060197 -0.011316 -0.058604
v 0.075298 -0.010187 -0.058529
v 0.091695 -0.007102 -0.058489
v 0.100103 -0.003403 -0.058672
v -0.051098 -0.010124 -0.043935
v -0.041395 -0.011600 -0.041516
v -0.020900 -0.016450 -0.034935
v -0.007111 -0.019106 -0.038175
v 0.008478 -0.018890 -0.038025
v 0.022531 -0.016450 -0.034063
v 0.043491 -0.011600 -0.041516
v 0.060229 -0.011433 -0.041461
v 0.075351 -0.010372 -0.041388
v 0.089634 -0.007763 -0.041825
v 0.099393 -0.003574 -0.043780
v -0.042983 -0.011166 -0.035620
v -0.034934 -0.016450 -0.020901
v -0.024417 -0.021600 -0.024354
v -0.007440 -0.021600 -0.024354
v 0.009537 -0.021600 -0.024354
v 0.026503 -0.021551 -0.024345
v 0.043491 -0.011600 -0.024354
v 0.056349 -0.011351 -0.028573
v 0.071745 -0.010496 -0.037456
v -0.042983 -0.011166 -0.007193
v -0.038147 -0.019176 -0.006873
v -0.024417 -0.021600 -0.007193
v -0.007440 -0.021600 -0.007193
v 0.009537 -0.021600 -0.007193
v 0.026514 -0.021600 -0.007193
v 0.038906 -0.018177 -0.006741
v 0.047667 -0.011166 -0.010784
v 0.086040 -0.003639 -0.040190
v 0.093377 0.001200 -0.040086
v -0.040994 -0.014234 0.008154
v -0.037898 -0.018886 0.008908
v -0.024417 -0.021600 0.009968
v -0.007440 -0.021600 0.009968
v 0.009537 -0.021600 0.009968
v 0.026514 -0.021600 0.009968
v 0.038758 -0.017925 0.008533
v 0.043204 -0.011166 0.005125
v -0.039066 -0.012377 0.016811
v -0.033973 -0.016450 0.022700
v -0.024381 -0.021409 0.027086
v -0.007440 -0.021600 0.027130
v 0.009537 -0.021600 0.027130
v 0.026145 -0.020955 0.026680
v 0.034246 -0.016450 0.022188
v 0.039605 -0.011702 0.016405
v -0.034784 -0.011600 0.024933
v -0.029539 -0.013726 0.029845
v -0.019746 -0.016450 0.035552
v -0.006937 -0.017784 0.039180
v 0.007981 -0.017619 0.039163
v 0.021377 -0.016450 0.034680
v 0.029864 -0.013201 0.029864
v 0.034785 -0.010874 0.025481
v -0.034688 -0.006719 0.027492
v -0.030420 -0.005753 0.032076
v -0.020993 -0.004277 0.038693
v -0.007199 -0.004746 0.043078
v 0.009295 -0.004863 0.042812
v 0.022896 -0.004543 0.037441
v 0.030019 -0.006715 0.032502
v 0.035108 -0.001660 0.026340
v -0.035277 -0.001800 0.026781
v -0.029693 -0.001800 0.032173
v -0.021412 -0.001800 0.038237
v -0.007266 -0.001800 0.043166
v 0.009314 -0.001800 0.042849
v 0.023095 -0.001800 0.037402
v 0.030778 -0.001800 0.031125
v -0.040357 -0.001800 0.017388
v -0.036516 -0.001800 0.024491
v 0.034181 0.055400 -0.032463
v 0.041019 0.055400 -0.030872
v 0.050913 0.056433 -0.032365
v 0.075570 0.054423 -0.037888
v 0.082523 0.054035 -0.038683
v 0.093997 0.047575 -0.040157
v -0.051806 0.052221 -0.043425
v -0.031786 0.060400 -0.037275
v -0.026672 0.060400 -0.037306
v 0.034181 0.060400 -0.033228
v 0.042727 0.060400 -0.032453
v 0.058209 0.060400 -0.035058
v 0.077653 0.058859 -0.039168
v -0.053759 0.056874 -0.043846
v -0.041132 0.060324 -0.042193
v -0.024417 0.060400 -0.041516
v -0.007847 0.059955 -0.044426
v 0.009941 0.060107 -0.044021
v 0.026514 0.060400 -0.041516
v 0.043491 0.060400 -0.041516
v 0.060213 0.059583 -0.041665
v 0.092223 0.055830 -0.042446
v 0.101808 0.050725 -0.044371
v -0.053687 0.057117 -0.058709
v -0.041395 0.060400 -0.058677
v -0.024417 0.060400 -0.058677
v -0.007440 0.060400 -0.058677
v 0.009537 0.060400 -0.058677
v 0.026514 0.060400 -0.058677
v 0.043491 0.060400 -0.058677
v 0.060421 0.060079 -0.058677
v 0.076843 0.058696 -0.058634
v 0.092725 0.055709 -0.058644
v 0.101118 0.051226 -0.058691
v -0.053101 0.055736 -0.077530
v -0.041258 0.060922 -0.075986
v -0.024417 0.061581 -0.075887
v -0.007853 0.060543 -0.076038
v 0.009744 0.060770 -0.075984
v 0.026514 0.061581 -0.075887
v 0.043491 0.061581 -0.075887
v 0.060455 0.061402 -0.075934
v 0.077089 0.059413 -0.075778
v 0.093474 0.056807 -0.076612
v 0.102105 0.052320 -0.077952
v -0.050374 0.056243 -0.082539
v -0.040098 0.057202 -0.086505
v -0.024388 0.056994 -0.087734
v -0.009221 0.057100 -0.086597
v 0.010355 0.056779 -0.087696
v 0.026514 0.056967 -0.087762
v 0.043491 0.056967 -0.087762
v 0.059590 0.056863 -0.087779
v 0.076678 0.056391 -0.086671
v 0.091696 0.053994 -0.084849
v 0.103313 0.049941 -0.081644
v -0.051604 0.044285 -0.085386
v -0.041676 0.044845 -0.090083
v -0.024413 0.045150 -0.092728
v -0.007793 0.045018 -0.091798
v 0.009655 0.045068 -0.092404
v 0.026514 0.045171 -0.092859
v 0.041612 0.045754 -0.091816
v 0.060463 0.045168 -0.092835
v 0.077501 0.044994 -0.091819
v 0.092374 0.044400 -0.089454
v 0.106010 0.041699 -0.084285
v -0.051898 0.004507 -0.085768
v -0.041675 0.004511 -0.090865
v -0.024417 0.004511 -0.093000
v -0.007557 0.011791 -0.092368
v 0.009571 0.011800 -0.092696
v 0.026514 0.011800 -0.093000
v 0.043491 0.011800 -0.093000
v 0.060469 0.011800 -0.093000
v 0.077501 0.011805 -0.092745
v 0.095374 0.012396 -0.089905
v 0.106431 0.012465 -0.084600
v -0.051527 -0.001835 -0.084655
v -0.041676 -0.003340 -0.088730
v -0.024469 -0.003503 -0.090735
v -0.008353 -0.003393 -0.090074
v 0.009530 -0.004405 -0.090026
v 0.026514 -0.003506 -0.090823
v 0.043491 -0.003700 -0.090943
v 0.060367 -0.003546 -0.090706
v 0.077501 -0.003115 -0.089304
v 0.092739 -0.001804 -0.087020
v 0.102425 0.000893 -0.083870
v 0.108457 0.043796 -0.076315
v 0.110521 0.011906 -0.075962
v 0.106103 0.000560 -0.077019
v 0.107293 0.043330 -0.058651
v 0.109391 0.012012 -0.058677
v 0.105157 0.001506 -0.058663
v 0.107105 0.043852 -0.045380
v 0.109617 0.011993 -0.045525
v 0.104345 0.000608 -0.045117
v 0.095822 0.041620 -0.040093
v 0.096304 0.010778 -0.040343
v -0.057518 0.045081 -0.075831
v -0.058227 0.004511 -0.075819
v -0.055595 -0.003133 -0.075725
v -0.057437 0.045200 -0.058677
v -0.057437 0.004511 -0.058677
v -0.056397 -0.004075 -0.058677
v -0.057111 0.045200 -0.043403
v -0.057111 0.004511 -0.043403
v -0.056285 -0.004208 -0.043632
v -0.052437 0.045200 -0.043132
v -0.052437 0.000917 -0.043132
v -0.043981 -0.007408 -0.035620
v -0.043434 -0.001800 -0.005414
v -0.044043 -0.006557 -0.006627
v -0.043210 -0.001800 0.007074
v -0.043087 -0.007368 0.007051
v -0.040591 -0.006137 0.017514
v -0.031786 0.055757 -0.037275
v -0.026672 0.055757 -0.037306
v -0.041132 0.055757 -0.042193
v -0.007847 0.055757 -0.044426
v 0.009941 0.055757 -0.044021
v 0.056349 -0.006879 -0.027943
v 0.071745 -0.006024 -0.036827
v 0.047667 -0.006626 -0.010154
v 0.043204 -0.001812 0.005755
v 0.039605 -0.002349 0.017035
v -0.038126 -0.001585 -0.032369
v -0.038735 -0.006580 -0.024547
v 0.086040 -0.003639 -0.051381
v 0.093377 0.001200 -0.051381
v 0.082523 0.054035 -0.051381
v 0.093997 0.047575 -0.051381
v 0.034181 0.055400 -0.051381
v 0.041019 0.055400 -0.051381
v 0.050913 0.056433 -0.051381
v 0.075570 0.054423 -0.051381
v 0.095822 0.041620 -0.051381
v 0.096304 0.010778 -0.051381
v -0.051806 0.052221 -0.051381
v -0.052437 0.045200 -0.051381
v -0.052437 0.000917 -0.051381
v -0.043981 -0.007408 -0.051381
v -0.031786 0.055757 -0.051381
v -0.026672 0.055757 -0.051381
v -0.041132 0.055757 -0.051381
v -0.007847 0.055757 -0.051381
v 0.009941 0.055757 -0.051381
v 0.041065 0.010976 -0.051381
v 0.071745 -0.006024 -0.051381
v -0.036983 0.011025 -0.051381
v -0.038735 -0.006580 -0.051381
vt 0.636225 0.040082
vt 0.641764 0.037141
vt 0.641325 0.046877
vt 0.637434 0.051869
vt 0.636019 0.026899
vt 0.641764 0.023409
vt 0.649429 0.037685
vt 0.648990 0.047421
vt 0.642003 0.054712
vt 0.640096 0.058494
vt 0.645484 0.023953
vt 0.649554 0.055453
vt 0.645411 0.060771
vt 0.633742 0.055746
vt 0.637434 0.062651
vt 0.641613 0.008055
vt 0.645277 0.008598
vt 0.649439 0.059583
vt 0.647191 0.065035
vt 0.642313 0.000387
vt 0.645978 0.000931
vt 0.649439 0.065001
vt 0.222048 0.257850
vt 0.224046 0.251281
vt 0.226839 0.249384
vt 0.228078 0.256179
vt 0.241413 0.250257
vt 0.241444 0.256549
vt 0.228345 0.281594
vt 0.221810 0.281148
vt 0.252248 0.250656
vt 0.251485 0.256134
vt 0.241423 0.281509
vt 0.222362 0.290371
vt 0.227546 0.290636
vt 0.251375 0.281524
vt 0.241434 0.289882
vt 0.224344 0.294330
vt 0.226803 0.294761
vt 0.251683 0.290598
vt 0.241427 0.293795
vt 0.252695 0.293931
vt 0.750596 0.370208
vt 0.759740 0.367914
vt 0.759131 0.375611
vt 0.750984 0.374242
vt 0.790157 0.367607
vt 0.790154 0.375620
vt 0.759040 0.389427
vt 0.749928 0.389402
vt 0.795007 0.368503
vt 0.795999 0.375696
vt 0.790154 0.389427
vt 0.759040 0.401729
vt 0.750114 0.401373
vt 0.799511 0.370228
vt 0.800839 0.373862
vt 0.796720 0.389427
vt 0.790154 0.401729
vt 0.801181 0.389412
vt 0.796821 0.401545
vt 0.801345 0.401300
vt 0.802142 0.407998
vt 0.799268 0.407998
vt 0.802142 0.430894
vt 0.798618 0.431350
vt 0.806183 0.419853
vt 0.808267 0.431152
vt 0.804488 0.443255
vt 0.799238 0.442367
vt 0.808045 0.443863
vt 0.803068 0.450228
vt 0.798297 0.450794
vt 0.794980 0.432327
vt 0.794980 0.442386
vt 0.806183 0.454971
vt 0.802474 0.456770
vt 0.798741 0.458831
vt 0.794980 0.450692
vt 0.794816 0.410617
vt 0.798635 0.416917
vt 0.804100 0.460726
vt 0.798003 0.462523
vt 0.794980 0.458258
vt 0.809975 0.458504
vt 0.806183 0.465323
vt 0.796874 0.467853
vt 0.794980 0.462601
vt 0.794980 0.467485
vt 0.182758 0.085949
vt 0.182710 0.090660
vt 0.174279 0.090660
vt 0.174279 0.085949
vt 0.174279 0.061545
vt 0.182570 0.061545
vt 0.182763 0.053967
vt 0.174279 0.053967
vt 0.182685 0.050138
vt 0.174279 0.050138
vt 0.560474 0.338108
vt 0.560693 0.343638
vt 0.554524 0.343638
vt 0.554524 0.338108
vt 0.560693 0.378521
vt 0.554524 0.378521
vt 0.566311 0.385079
vt 0.554524 0.385079
vt 0.699248 0.428992
vt 0.695647 0.423051
vt 0.686554 0.408612
vt 0.699248 0.408612
vt 0.688585 0.317995
vt 0.691699 0.310353
vt 0.695248 0.315063
vt 0.691651 0.320808
vt 0.694808 0.306476
vt 0.686554 0.332001
vt 0.689878 0.332001
vt 0.703271 0.302348
vt 0.702368 0.312771
vt 0.726953 0.304315
vt 0.725294 0.313149
vt 0.732062 0.308462
vt 0.729721 0.314578
vt 0.735857 0.315967
vt 0.734523 0.323562
vt 0.738109 0.327375
vt 0.734811 0.329006
vt 0.736305 0.348312
vt 0.739254 0.342599
vt 0.735537 0.356059
vt 0.739254 0.354722
vt 0.735537 0.361413
vt 0.739254 0.361413
vt 0.739036 0.380392
vt 0.735803 0.380392
vt 0.738923 0.394320
vt 0.735803 0.394320
vt 0.739254 0.409059
vt 0.735803 0.409059
vt 0.739254 0.413064
vt 0.735803 0.413064
vt 0.739198 0.420381
vt 0.735803 0.420381
vt 0.736633 0.430268
vt 0.733174 0.428738
vt 0.727955 0.432892
vt 0.727955 0.429232
vt 0.697709 0.432892
vt 0.695038 0.429232
vt 0.691228 0.432245
vt 0.688849 0.422612
vt 0.449894 0.431175
vt 0.448901 0.421130
vt 0.458607 0.421336
vt 0.458957 0.432153
vt 0.449024 0.409432
vt 0.458520 0.408401
vt 0.460801 0.421388
vt 0.460801 0.432482
vt 0.449894 0.398927
vt 0.458758 0.397736
vt 0.460801 0.408387
vt 0.460801 0.397580
vt 0.740076 0.366504
vt 0.739366 0.358492
vt 0.748514 0.359723
vt 0.748928 0.367464
vt 0.739520 0.346242
vt 0.748287 0.346262
vt 0.778371 0.359722
vt 0.778374 0.367693
vt 0.739441 0.334417
vt 0.748385 0.333303
vt 0.778371 0.346266
vt 0.784183 0.359723
vt 0.783069 0.367404
vt 0.739679 0.319153
vt 0.748349 0.319699
vt 0.772982 0.333119
vt 0.784303 0.346305
vt 0.789352 0.357217
vt 0.787430 0.366200
vt 0.739540 0.306553
vt 0.748272 0.306553
vt 0.772975 0.319764
vt 0.784222 0.333740
vt 0.789511 0.346476
vt 0.739540 0.293315
vt 0.747840 0.294780
vt 0.772975 0.306553
vt 0.784971 0.319796
vt 0.789248 0.334226
vt 0.739617 0.280763
vt 0.748274 0.280082
vt 0.772975 0.293315
vt 0.784305 0.306553
vt 0.789321 0.318854
vt 0.739966 0.267439
vt 0.748403 0.266798
vt 0.772975 0.280078
vt 0.784449 0.293315
vt 0.789394 0.306625
vt 0.741741 0.255729
vt 0.748843 0.255200
vt 0.772972 0.266797
vt 0.784335 0.280157
vt 0.789284 0.293395
vt 0.744741 0.246671
vt 0.750842 0.244568
vt 0.772534 0.252861
vt 0.784016 0.266797
vt 0.789626 0.280671
vt 0.772483 0.244240
vt 0.783046 0.254916
vt 0.788854 0.267730
vt 0.781049 0.247363
vt 0.786273 0.256948
vt 0.784727 0.249623
vt 0.788131 0.002728
vt 0.795381 0.000394
vt 0.818727 0.000779
vt 0.823235 0.002233
vt 0.828125 0.011382
vt 0.828419 0.016926
vt 0.829940 0.036585
vt 0.829158 0.044474
vt 0.829158 0.049926
vt 0.829428 0.069253
vt 0.829428 0.083435
vt 0.829428 0.098445
vt 0.829428 0.102523
vt 0.829428 0.109974
vt 0.826752 0.118484
vt 0.821437 0.118988
vt 0.787917 0.118988
vt 0.781615 0.112246
vt 0.782242 0.108063
vt 0.795568 0.106666
vt 0.795531 0.044437
vt 0.782663 0.019976
vt 0.784468 0.008578
vt 0.786023 0.107577
vt 0.782016 0.032251
vt 0.170983 0.576577
vt 0.169194 0.567702
vt 0.174856 0.568977
vt 0.174283 0.576764
vt 0.169195 0.557092
vt 0.174912 0.556884
vt 0.188414 0.569961
vt 0.188401 0.577746
vt 0.169397 0.544991
vt 0.174833 0.545779
vt 0.188414 0.556884
vt 0.200964 0.569961
vt 0.199194 0.577435
vt 0.169150 0.529806
vt 0.174607 0.529830
vt 0.188414 0.543808
vt 0.205776 0.554175
vt 0.205275 0.571184
vt 0.169054 0.517725
vt 0.174912 0.517654
vt 0.188414 0.530731
vt 0.203406 0.543554
vt 0.216038 0.564985
vt 0.168998 0.504656
vt 0.174912 0.504577
vt 0.188414 0.517654
vt 0.203516 0.531546
vt 0.213513 0.543808
vt 0.213513 0.556884
vt 0.169448 0.492087
vt 0.174651 0.491679
vt 0.188414 0.504577
vt 0.206413 0.520722
vt 0.213513 0.530731
vt 0.226063 0.543808
vt 0.226063 0.556884
vt 0.226297 0.567460
vt 0.169654 0.479303
vt 0.176058 0.479617
vt 0.188467 0.491710
vt 0.200964 0.504577
vt 0.213520 0.517663
vt 0.226063 0.530731
vt 0.238612 0.543808
vt 0.238612 0.556884
vt 0.237837 0.567268
vt 0.169788 0.468652
vt 0.174572 0.467194
vt 0.188523 0.480078
vt 0.201003 0.491685
vt 0.213513 0.504577
vt 0.226063 0.517654
vt 0.238612 0.530731
vt 0.251162 0.543808
vt 0.251129 0.556856
vt 0.247922 0.564244
vt 0.171907 0.461416
vt 0.174284 0.460291
vt 0.188552 0.467448
vt 0.201057 0.480037
vt 0.210428 0.494674
vt 0.226393 0.508110
vt 0.238612 0.517654
vt 0.251162 0.530731
vt 0.259973 0.543420
vt 0.257320 0.553286
vt 0.188418 0.460972
vt 0.200738 0.469036
vt 0.203932 0.482815
vt 0.223437 0.501361
vt 0.237562 0.508223
vt 0.250833 0.517938
vt 0.259961 0.531929
vt 0.199308 0.461519
vt 0.247548 0.511698
vt 0.256683 0.521611
vt 0.473678 0.143128
vt 0.477693 0.139044
vt 0.472788 0.144862
vt 0.470025 0.150242
vt 0.832659 0.196738
vt 0.832682 0.192813
vt 0.835749 0.191083
vt 0.836242 0.203910
vt 0.837869 0.178367
vt 0.848252 0.191083
vt 0.848252 0.204111
vt 0.848252 0.178055
vt 0.860790 0.191083
vt 0.860862 0.204006
vt 0.837446 0.213600
vt 0.848275 0.213544
vt 0.837574 0.164717
vt 0.848252 0.165027
vt 0.860900 0.178372
vt 0.869421 0.191060
vt 0.868525 0.203116
vt 0.861987 0.213094
vt 0.835749 0.151999
vt 0.848252 0.151999
vt 0.860860 0.164868
vt 0.868593 0.179422
vt 0.865636 0.211001
vt 0.829711 0.146115
vt 0.835749 0.138971
vt 0.848252 0.138971
vt 0.860790 0.151999
vt 0.869393 0.164399
vt 0.829146 0.139558
vt 0.835858 0.126139
vt 0.848252 0.125980
vt 0.860790 0.138971
vt 0.869441 0.151999
vt 0.831044 0.127677
vt 0.834038 0.112756
vt 0.848220 0.113377
vt 0.860824 0.125953
vt 0.869441 0.138971
vt 0.836427 0.101575
vt 0.848228 0.101190
vt 0.860710 0.113188
vt 0.869453 0.126617
vt 0.837829 0.094220
vt 0.848262 0.094749
vt 0.861318 0.100615
vt 0.868646 0.113504
vt 0.862295 0.093992
vt 0.867319 0.101980
vt 0.864984 0.093065
vt 0.000000 0.026268
vt 0.003835 0.039902
vt 0.000045 0.048328
vt 0.003835 0.060320
vt 0.000045 0.060320
vt 0.156907 0.484091
vt 0.160099 0.555858
vt 0.140659 0.559891
vt 0.131653 0.559720
vt 0.124215 0.557553
vt 0.119092 0.554635
vt 0.113552 0.549453
vt 0.109179 0.543162
vt 0.105624 0.532416
vt 0.105852 0.519821
vt 0.109781 0.509352
vt 0.114308 0.503516
vt 0.117759 0.500227
vt 0.124470 0.496810
vt 0.132604 0.494076
vt 0.144078 0.490686
vt 0.916493 0.000395
vt 0.917560 0.009149
vt 0.908364 0.009149
vt 0.908364 0.000395
vt 0.918137 0.014453
vt 0.908364 0.014453
vt 0.922137 0.033264
vt 0.908364 0.033264
vt 0.923218 0.040813
vt 0.908364 0.040813
vt 0.922066 0.046029
vt 0.908364 0.046029
vt 0.913694 0.064522
vt 0.908364 0.064522
vt 0.913401 0.078093
vt 0.908364 0.078093
vt 0.918558 0.092455
vt 0.908364 0.092455
vt 0.918581 0.096356
vt 0.908364 0.096356
vt 0.915018 0.103487
vt 0.908364 0.103487
vt 0.914126 0.111629
vt 0.908364 0.111629
vt 0.549243 0.412940
vt 0.556003 0.400600
vt 0.567078 0.400600
vt 0.567078 0.425190
vt 0.558562 0.389142
vt 0.567078 0.389142
vn -0.487771 -0.663983 -0.566750
vn -0.120782 -0.781010 -0.612727
vn -0.104559 -0.993086 -0.053359
vn -0.476534 -0.869710 -0.128525
vn -0.006810 -0.807364 -0.590014
vn -0.000537 -0.999185 -0.040353
vn 0.003595 -0.822798 -0.568322
vn 0.004817 -0.998687 -0.051009
vn -0.012721 -0.825941 -0.563614
vn -0.007052 -0.998517 -0.053981
vn -0.003688 -0.825184 -0.564852
vn -0.003027 -0.998957 -0.045551
vn 0.001066 -0.822020 -0.569458
vn 0.003155 -0.999126 -0.041691
vn 0.044486 -0.834964 -0.548504
vn 0.053018 -0.997979 -0.035032
vn 0.126735 -0.846574 -0.516963
vn 0.137936 -0.990313 -0.015926
vn 0.219990 -0.815089 -0.535943
vn 0.255397 -0.966503 -0.025393
vn 0.444513 -0.734387 -0.512917
vn 0.540278 -0.841024 -0.027891
vn -0.114189 -0.993152 -0.024704
vn -0.467978 -0.883535 -0.019034
vn -0.062101 -0.995607 -0.070077
vn -0.026319 -0.991152 -0.130100
vn 0.029142 -0.991780 -0.124595
vn 0.057668 -0.996486 -0.060743
vn 0.037575 -0.999283 0.004582
vn 0.047702 -0.998277 0.034174
vn 0.131692 -0.990954 0.025832
vn 0.264556 -0.963825 0.032417
vn 0.525727 -0.849366 0.046791
vn -0.137743 -0.986075 -0.093180
vn -0.157326 -0.987543 -0.002739
vn -0.131379 -0.964293 -0.229953
vn -0.050340 -0.959245 -0.278056
vn 0.056972 -0.959567 -0.275656
vn 0.144063 -0.961103 -0.235644
vn 0.080426 -0.995770 -0.044422
vn 0.040554 -0.999176 0.001597
vn 0.125853 -0.992046 0.002465
vn 0.248110 -0.968718 -0.005143
vn 0.490381 -0.871448 0.010198
vn -0.785138 -0.618104 -0.038788
vn -0.454289 -0.880164 -0.137598
vn -0.166723 -0.971845 -0.166497
vn -0.021155 -0.994307 -0.104433
vn 0.025755 -0.993706 -0.109016
vn 0.229713 -0.955484 -0.185157
vn 0.265000 -0.961232 -0.076207
vn 0.077663 -0.996965 -0.005325
vn 0.076625 -0.996461 0.034544
vn -0.475663 -0.878156 -0.050853
vn -0.857824 -0.513343 -0.024834
vn -0.104504 -0.994309 -0.020721
vn 0.000002 -1.000000 0.000000
vn 0.000362 -1.000000 -0.000358
vn 0.167201 -0.985433 -0.031067
vn 0.448737 -0.893199 -0.028814
vn 0.727241 -0.670387 0.147317
vn 0.251850 -0.232678 0.939379
vn 0.315563 -0.244330 0.916909
vn 0.338557 -0.187068 0.922163
vn 0.252578 -0.196157 0.947485
vn -0.461297 -0.883123 0.085433
vn -0.894005 -0.428515 0.130879
vn -0.109812 -0.993553 0.028154
vn -0.001404 -0.999998 0.001389
vn 0.004775 -0.999977 0.004722
vn 0.139689 -0.989684 0.031822
vn 0.533682 -0.837484 0.117487
vn 0.907409 -0.351261 0.230705
vn -0.508264 -0.812194 0.286373
vn -0.860942 -0.370356 0.348734
vn -0.199303 -0.954713 0.220909
vn -0.018180 -0.989834 0.141063
vn 0.030244 -0.988546 0.147860
vn 0.223045 -0.947839 0.227709
vn 0.575805 -0.762173 0.295875
vn 0.904315 -0.234576 0.356635
vn -0.581054 -0.416462 0.699239
vn -0.785997 -0.303912 0.538374
vn -0.310294 -0.601112 0.736466
vn -0.035421 -0.936033 0.350125
vn 0.046950 -0.936041 0.348745
vn 0.323823 -0.611440 0.721997
vn 0.631401 -0.374535 0.679012
vn 0.827893 -0.191256 0.527270
vn -0.602313 -0.183475 0.776889
vn -0.792013 -0.148053 0.592281
vn -0.400118 -0.205348 0.893162
vn -0.130925 -0.280878 0.950771
vn -0.132866 -0.228752 0.964375
vn 0.156703 -0.281638 0.946638
vn 0.175150 -0.231895 0.956842
vn 0.424079 -0.202278 0.882746
vn 0.632904 -0.179869 0.753047
vn 0.851525 -0.081323 0.517969
vn -0.641196 0.067519 0.764401
vn -0.825135 0.027092 0.564286
vn -0.466445 0.056654 0.882734
vn -0.134530 0.004825 0.990898
vn 0.182631 -0.017676 0.983023
vn 0.489250 0.027160 0.871720
vn 0.661762 0.071715 0.746276
vn -0.000092 1.000000 0.000067
vn 0.025226 0.999224 -0.030236
vn 0.025212 0.999225 -0.030220
vn 0.025226 0.999224 -0.030236
vn -0.351672 0.120435 0.928344
vn -0.012468 0.280347 0.959818
vn 0.049447 0.292624 0.954948
vn -0.357200 0.116642 0.926716
vn 0.163095 0.279246 0.946267
vn 0.216364 0.211002 0.953239
vn 0.224827 0.225721 0.947894
vn 0.225069 0.250045 0.941712
vn -0.003319 0.999978 -0.005766
vn 0.002741 0.999995 -0.001787
vn 0.006742 0.999948 0.007634
vn -0.100330 0.994939 0.005521
vn 0.005898 0.999794 0.019432
vn -0.001713 0.999997 0.001585
vn -0.006122 0.999964 0.005877
vn -0.007526 0.999833 0.016663
vn 0.010387 0.999666 -0.023673
vn 0.015362 0.999878 -0.002660
vn 0.028356 0.997796 -0.059997
vn 0.045853 0.998929 -0.006153
vn 0.122266 0.992493 -0.002914
vn 0.254734 0.318816 0.912944
vn 0.310401 0.316581 0.896341
vn 0.376232 0.212075 0.901928
vn 0.354149 0.253006 0.900315
vn -0.261554 0.965121 0.011405
vn -0.136923 0.990526 0.010523
vn -0.297775 0.954583 -0.010083
vn 0.005713 0.999635 0.026397
vn 0.008543 0.999695 0.023171
vn -0.011389 0.999652 0.023802
vn -0.008362 0.999480 0.031155
vn 0.012095 0.999162 0.039097
vn 0.052849 0.997864 0.038383
vn 0.129270 0.991197 0.028589
vn 0.277924 0.960593 -0.004308
vn 0.293201 0.955528 0.031612
vn 0.620098 0.784522 -0.001717
vn 0.638136 0.768807 0.041449
vn -0.146207 0.984207 -0.099801
vn -0.320121 0.943431 -0.086372
vn 0.005864 0.993851 -0.110574
vn 0.012582 0.992544 -0.121234
vn -0.016167 0.992280 -0.122959
vn -0.012995 0.993035 -0.117100
vn 0.005939 0.993483 -0.113829
vn 0.053078 0.993114 -0.104434
vn 0.131002 0.987855 -0.083555
vn 0.283626 0.956899 -0.062456
vn 0.629252 0.775213 -0.055561
vn -0.086844 0.939650 -0.330932
vn -0.284853 0.922068 -0.262009
vn 0.006185 0.938804 -0.344397
vn 0.015980 0.944558 -0.327956
vn -0.017568 0.943747 -0.330201
vn -0.013760 0.935532 -0.352975
vn 0.003593 0.932470 -0.361229
vn 0.041236 0.939034 -0.341344
vn 0.112986 0.942970 -0.313116
vn 0.250308 0.693214 -0.675870
vn 0.550114 0.546825 -0.631155
vn -0.601106 0.270436 -0.752021
vn -0.217710 0.319149 -0.922359
vn -0.251263 0.084069 -0.964261
vn -0.660416 0.063133 -0.748241
vn -0.026870 0.367339 -0.929699
vn -0.046693 0.098447 -0.994046
vn 0.010177 0.389174 -0.921108
vn 0.008365 0.116874 -0.993111
vn -0.029213 0.384221 -0.922779
vn -0.026584 0.117285 -0.992742
vn 0.002246 0.376917 -0.926244
vn 0.003951 0.110975 -0.993815
vn -0.001380 0.369272 -0.929320
vn 0.001824 0.117988 -0.993013
vn 0.020224 0.388354 -0.921288
vn 0.008948 0.117817 -0.992995
vn 0.106861 0.415255 -0.903407
vn 0.101058 0.126971 -0.986745
vn 0.254085 0.129541 -0.958467
vn 0.396016 0.102200 -0.912538
vn -0.252026 -0.028751 -0.967293
vn -0.669961 -0.020540 -0.742112
vn -0.047668 -0.045570 -0.997823
vn 0.014937 -0.031298 -0.999398
vn -0.023318 -0.043616 -0.998776
vn -0.002450 -0.038092 -0.999271
vn 0.000043 -0.029988 -0.999550
vn 0.011494 -0.038423 -0.999195
vn 0.098619 -0.050497 -0.993843
vn 0.265202 -0.042167 -0.963270
vn 0.662468 -0.041739 -0.747926
vn -0.214785 -0.392050 -0.894519
vn -0.626107 -0.336464 -0.703407
vn -0.006649 -0.400915 -0.916091
vn 0.018065 -0.358134 -0.933496
vn -0.019496 -0.341438 -0.939702
vn -0.013278 -0.324671 -0.945734
vn 0.002631 -0.336787 -0.941577
vn 0.033973 -0.347032 -0.937238
vn 0.108044 -0.348963 -0.930888
vn 0.244983 -0.336454 -0.909276
vn 0.574157 -0.340832 -0.744431
vn 0.928238 0.088620 -0.361277
vn 0.978846 0.198139 -0.050992
vn 0.995164 -0.058610 -0.078826
vn 0.865658 -0.493266 -0.085583
vn 0.977462 0.207710 0.037740
vn 0.997659 -0.056693 0.038251
vn 0.853251 -0.519693 0.043385
vn 0.975477 0.220015 -0.006133
vn 0.998205 -0.059882 -0.000257
vn 0.829260 -0.558814 0.007380
vn 0.392233 0.030711 0.919353
vn 0.392715 0.034870 0.918999
vn 0.390137 -0.011768 0.920681
vn 0.390052 -0.027425 0.920384
vn 0.388493 -0.127283 0.912618
vn -0.978438 0.079331 -0.190697
vn -0.927593 0.307811 -0.211715
vn -0.979488 -0.026206 -0.199791
vn -0.893708 -0.421519 -0.153645
vn -0.996820 0.078103 0.015781
vn -0.949003 0.315118 -0.009676
vn -0.999489 -0.024894 0.020051
vn -0.909890 -0.414527 -0.016318
vn -0.997651 0.065811 0.019003
vn -0.957446 0.288425 0.010378
vn -0.999626 -0.018577 0.020072
vn -0.927347 -0.374055 0.010516
vn -0.758845 -0.651248 0.005530
vn -0.114192 0.026087 0.993116
vn -0.058947 0.006881 0.998237
vn -0.059212 0.008506 0.998209
vn -0.097457 0.035677 0.994600
vn -0.090666 0.019634 0.995688
vn -0.207969 0.090189 0.973969
vn -0.368836 0.188117 0.910259
vn -0.368836 0.188117 0.910259
vn -0.618969 -0.416636 0.665801
vn -0.618969 -0.416636 0.665801
vn -0.618969 -0.416636 0.665801
vn -0.618969 -0.416636 0.665801
vn -0.970984 -0.239134 0.002492
vn -0.989198 -0.136238 -0.054101
vn -0.994205 -0.000558 -0.107502
vn -0.980440 -0.140113 0.138221
vn -0.990293 0.029243 0.135881
vn -0.920109 -0.124941 0.371198
vn -0.928293 0.012443 0.371641
vn 0.282667 -0.000000 0.959218
vn -0.318889 0.000000 0.947792
vn -0.319367 0.000000 0.947631
vn 0.283474 -0.000000 0.958980
vn -0.303407 0.009087 0.952818
vn -0.271568 0.010778 0.962359
vn -0.274927 0.047284 0.960302
vn 0.184426 -0.000001 0.982846
vn 0.183614 -0.000001 0.982998
vn -0.274552 0.047213 0.960412
vn 0.730294 -0.095027 0.676491
vn 0.386846 -0.133990 0.912358
vn 0.379062 -0.134793 0.915501
vn 0.750774 -0.091856 0.654141
vn 0.941624 -0.038158 0.334498
vn 0.956746 -0.022337 0.290067
vn 0.925150 -0.035781 0.377911
vn -0.995428 0.094391 -0.014617
vn -0.987662 0.010433 -0.156249
vn -0.094903 0.995052 -0.029410
vn -0.108031 0.993879 -0.023102
vn -0.149709 0.988726 -0.002970
vn 0.053124 0.988206 0.143619
vn 0.022180 0.990349 0.136810
vn 0.025226 0.999224 -0.030236
vn 0.025226 0.999224 -0.030236
vn 0.025226 0.999224 -0.030236
vn 0.025226 0.999224 -0.030236
vn 0.025226 0.999224 -0.030236
vn 0.025226 0.999224 -0.030236
vn 0.025226 0.999224 -0.030236
vn 0.025226 0.999224 -0.030236
vn 0.025226 0.999224 -0.030236
vn 0.025226 0.999224 -0.030236
vn 0.025226 0.999224 -0.030236
vn -0.292749 0.956189 0.000000
vn -0.812972 0.582303 0.000000
vn -0.813900 0.581005 0.000000
vn -0.304177 0.952615 0.000000
vn -0.490629 -0.871368 0.000000
vn -0.324477 -0.945893 0.000000
vn -0.339319 -0.940671 0.000000
vn -0.490629 -0.871368 0.000000
vn 0.063110 -0.998007 0.000000
vn -0.008782 -0.999961 0.000000
vn -0.010344 -0.999947 0.000000
vn 0.061673 -0.998096 0.000000
vn -0.010290 -0.999947 0.000000
vn -0.020545 -0.999789 0.000000
vn -0.077255 -0.997011 0.000000
vn -0.076513 -0.997069 0.000000
vn -0.011263 -0.999936 0.000000
vn -0.010517 -0.999945 0.000000
vn -0.998023 -0.062848 0.000000
vn -0.956143 -0.292900 0.000000
vn -0.956143 -0.292900 0.000000
vn -0.998020 -0.062904 0.000000
vn -0.998175 0.060380 0.000000
vn -0.998137 0.061019 0.000000
vn 0.995984 -0.089532 0.000000
vn 0.999930 -0.011833 0.000000
vn 0.999927 -0.012111 0.000000
vn 0.995984 -0.089532 0.000000
vn 1.000000 -0.000000 0.000000
vn 1.000000 -0.000000 0.000000
vn 0.701605 0.712566 0.000000
vn 0.701605 0.712566 0.000000
vn 0.701605 0.712566 0.000000
vn 0.701605 0.712566 0.000000
vn 0.000000 -1.000000 0.000000
vn 0.000000 -1.000000 0.000000
vn 0.000000 -1.000000 0.000000
vn 0.000000 -1.000000 0.000000
vn 0.123011 -0.992405 0.000000
vn 0.314506 -0.949256 0.000000
vn 0.314506 -0.949256 0.000000
vn 0.149599 -0.988747 0.000000
vn 0.000000 -1.000000 0.000000
vn 0.000000 -1.000000 0.000000
vn 0.274571 0.934117 0.228112
vn 0.235024 0.949364 0.208501
vn 0.042290 0.828505 0.558382
vn -0.994429 0.105323 0.004180
vn -0.994429 0.105323 0.004180
vn -0.155827 0.987784 -0.000001
vn -0.155827 0.987784 -0.000001
vn 0.010309 0.814008 0.580762
vn -0.000000 -0.000000 1.000000
vn -0.000000 -0.000000 1.000000
vn -0.000000 -0.000000 1.000000
vn -0.000000 -0.000000 1.000000
vn -0.000000 -0.000000 1.000000
vn -0.000000 -0.000000 1.000000
vn -0.000000 -0.000000 1.000000
vn -0.000000 -0.000000 1.000000
vn -0.000000 -0.000000 1.000000
vn -0.000000 -0.000000 1.000000
vn -0.000000 -0.000000 1.000000
vn -0.000000 -0.000000 1.000000
vn -0.000000 -0.000000 1.000000
vn -0.000000 -0.000000 1.000000
vn -0.000000 -0.000000 1.000000
vn -0.000000 -0.000000 1.000000
vn -0.000000 -0.000000 1.000000
vn -0.000000 -0.000000 1.000000
vn -0.000000 -0.000000 1.000000
vn -0.000000 -0.000000 1.000000
vn -0.000000 -0.000000 1.000000
vn -0.000000 -0.000000 1.000000
vn -0.000000 -0.000000 1.000000
s 1
usemtl M_sprout_SG
f 1/245/1 2/246/2 13/247/3 12/248/4
f 2/246/2 3/249/5 14/250/6 13/247/3
f 3/249/5 4/253/7 15/254/8 14/250/6
f 4/253/7 5/258/9 16/259/10 15/254/8
f 5/258/9 6/263/11 17/264/12 16/259/10
f 6/263/11 7/268/13 18/269/14 17/264/12
f 7/268/13 8/274/15 19/275/16 18/269/14
f 8/274/15 9/282/17 20/283/18 19/275/16
f 9/282/17 10/291/19 21/292/20 20/283/18
f 10/291/19 11/301/21 22/302/22 21/292/20
f 12/248/4 13/247/3 24/251/23 23/252/24
f 13/247/3 14/250/6 25/255/25 24/251/23
f 14/250/6 15/254/8 26/260/26 25/255/25
f 15/254/8 16/259/10 27/265/27 26/260/26
f 16/259/10 17/264/12 28/270/28 27/265/27
f 17/264/12 18/269/14 29/276/29 28/270/28
f 18/269/14 19/275/16 30/284/30 29/276/29
f 19/275/16 20/283/18 31/293/31 30/284/30
f 20/283/18 21/292/20 32/303/32 31/293/31
f 21/292/20 22/302/22 33/311/33 32/303/32
f 23/252/24 24/251/23 35/256/34 34/257/35
f 24/251/23 25/255/25 36/261/36 35/256/34
f 25/255/25 26/260/26 37/266/37 36/261/36
f 26/260/26 27/265/27 38/271/38 37/266/37
f 27/265/27 28/270/28 39/277/39 38/271/38
f 28/270/28 29/276/29 40/285/40 39/277/39
f 29/276/29 30/284/30 41/294/41 40/285/40
f 30/284/30 31/293/31 42/304/42 41/294/41
f 31/293/31 32/303/32 43/312/43 42/304/42
f 32/303/32 33/311/33 44/318/44 43/312/43
f 45/262/45 35/256/34 46/267/46
f 46/267/46 36/261/36 47/273/47
f 36/261/36 37/266/37 48/272/48 47/273/47
f 37/266/37 38/271/38 49/278/49 48/272/48
f 38/271/38 39/277/39 50/286/50 49/278/49
f 39/277/39 51/295/51 50/286/50
f 40/285/40 41/294/41 52/305/52 51/295/51
f 41/294/41 42/304/42 53/313/53 52/305/52
f 42/304/42 43/312/43 53/313/53
f 45/63/45 46/67/46 55/68/54 54/65/55
f 46/267/46 47/273/47 56/280/56 55/281/54
f 47/273/47 48/272/48 57/279/57 56/280/56
f 48/272/48 49/278/49 58/287/58 57/279/57
f 49/278/49 50/286/50 59/296/59 58/287/58
f 50/286/50 51/295/51 60/306/60 59/296/59
f 51/295/51 52/305/52 61/314/61 60/306/60
f 43/112/62 44/113/63 63/114/64 62/115/65
f 54/65/55 55/68/54 65/71/66 64/69/67
f 55/281/54 56/280/56 66/289/68 65/290/66
f 56/280/56 57/279/57 67/288/69 66/289/68
f 57/279/57 58/287/58 68/297/70 67/288/69
f 58/287/58 59/296/59 69/307/71 68/297/70
f 59/296/59 60/306/60 70/315/72 69/307/71
f 60/5/60 61/6/61 71/2/73 70/1/72
f 64/69/67 65/71/66 73/76/74 72/72/75
f 65/290/66 66/289/68 74/299/76 73/300/74
f 66/289/68 67/288/69 75/298/77 74/299/76
f 67/288/69 68/297/70 76/308/78 75/298/77
f 68/297/70 69/307/71 77/316/79 76/308/78
f 69/307/71 70/315/72 78/319/80 77/316/79
f 70/1/72 71/2/73 79/3/81 78/4/80
f 72/72/75 73/76/74 81/82/82 80/77/83
f 73/76/74 74/85/76 82/86/84 81/82/82
f 74/299/76 75/298/77 83/309/85 82/310/84
f 75/298/77 76/308/78 84/317/86 83/309/85
f 76/308/78 77/316/79 85/320/87 84/317/86
f 77/14/79 78/4/80 86/10/88 85/15/87
f 78/4/80 79/3/81 87/9/89 86/10/88
f 80/77/83 81/82/82 89/83/90 88/78/91
f 81/82/82 82/86/84 90/87/92 89/83/90
f 82/153/84 83/154/93 91/155/94 90/156/92
f 83/154/93 84/157/95 92/158/96 91/155/94
f 84/157/95 85/161/87 93/162/97 92/158/96
f 85/15/87 86/10/88 94/13/98 93/19/97
f 86/10/88 87/9/89 95/12/99 94/13/98
f 88/78/91 89/83/90 97/88/100 96/84/101
f 89/83/90 90/87/92 98/89/102 97/88/100
f 90/156/92 91/155/94 99/159/103 98/160/102
f 91/155/94 92/158/96 100/163/104 99/159/103
f 92/158/96 93/162/97 101/164/105 100/163/104
f 93/19/97 94/13/98 102/18/106 101/22/105
f 94/13/98 95/12/99 102/18/106
s 3
f 96/321/107 97/322/108 104/323/109 103/324/110
s 1
f 105/133/111 106/131/112 115/132/113 114/134/114
f 106/131/112 107/129/115 116/130/116 115/132/113
f 107/129/115 108/128/117 117/127/118 116/130/116
f 112/325/119 113/326/120 120/327/121 119/328/122
f 113/326/120 121/329/123 120/327/121
f 114/348/124 123/343/125 122/337/126
f 114/348/124 115/353/127 124/349/128 123/343/125
f 115/353/127 116/358/129 125/354/130 124/349/128
f 116/358/129 117/359/131 125/354/130
f 109/126/132 126/125/133 117/127/118 108/128/117
f 127/123/134 126/125/133 109/126/132 110/124/135
f 118/335/136 119/328/122 129/331/137 128/336/138
f 119/328/122 120/327/121 130/330/139 129/331/137
f 120/327/121 121/329/123 131/332/140 130/330/139
f 121/329/123 122/337/126 132/338/141 131/332/140
f 122/337/126 123/343/125 133/344/142 132/338/141
f 123/343/125 124/349/128 134/350/143 133/344/142
f 124/349/128 125/354/130 135/355/144 134/350/143
f 125/354/130 117/359/131 136/360/145 135/355/144
f 117/359/131 126/363/146 137/364/147 136/360/145
f 126/363/146 127/367/148 138/368/149 137/364/147
f 128/336/138 129/331/137 140/334/150 139/342/151
f 129/331/137 130/330/139 141/333/152 140/334/150
f 130/330/139 131/332/140 142/339/153 141/333/152
f 131/332/140 132/338/141 143/345/154 142/339/153
f 132/338/141 133/344/142 144/351/155 143/345/154
f 133/344/142 134/350/143 145/356/156 144/351/155
f 134/350/143 135/355/144 146/361/157 145/356/156
f 135/355/144 136/360/145 147/365/158 146/361/157
f 136/360/145 137/364/147 148/369/159 147/365/158
f 137/364/147 138/368/149 149/371/160 148/369/159
f 139/342/151 140/334/150 151/341/161 150/347/162
f 140/334/150 141/333/152 152/340/163 151/341/161
f 141/333/152 142/339/153 153/346/164 152/340/163
f 142/339/153 143/345/154 154/352/165 153/346/164
f 143/345/154 144/351/155 155/357/166 154/352/165
f 144/351/155 145/356/156 156/362/167 155/357/166
f 145/356/156 146/361/157 157/366/168 156/362/167
f 146/361/157 147/365/158 158/370/169 157/366/168
f 147/365/158 148/369/159 159/372/170 158/370/169
f 148/369/159 149/371/160 160/373/171 159/372/170
f 150/165/172 151/166/173 162/167/174 161/168/175
f 151/166/173 152/169/176 163/170/177 162/167/174
f 152/169/176 153/173/178 164/174/179 163/170/177
f 153/173/178 154/178/180 165/179/181 164/174/179
f 154/178/180 155/184/182 166/185/183 165/179/181
f 155/184/182 156/189/184 167/190/185 166/185/183
f 156/189/184 157/194/186 168/195/187 167/190/185
f 157/194/186 158/199/188 169/200/189 168/195/187
f 158/199/188 159/204/170 170/205/190 169/200/189
f 159/204/170 160/209/171 171/210/191 170/205/190
f 162/167/174 173/171/192 172/172/193 161/168/175
f 163/170/177 174/175/194 173/171/192 162/167/174
f 164/174/179 175/180/195 174/175/194 163/170/177
f 165/179/181 176/186/196 175/180/195 164/174/179
f 166/185/183 177/191/197 176/186/196 165/179/181
f 167/190/185 178/196/198 177/191/197 166/185/183
f 168/195/187 179/201/199 178/196/198 167/190/185
f 169/200/189 180/206/200 179/201/199 168/195/187
f 170/205/190 181/211/201 180/206/200 169/200/189
f 182/214/202 181/211/201 170/205/190 171/210/191
f 172/172/193 173/171/192 184/176/203 183/177/204
f 173/171/192 174/175/194 185/181/205 184/176/203
f 174/175/194 175/180/195 186/187/206 185/181/205
f 175/180/195 176/186/196 187/192/207 186/187/206
f 176/186/196 177/191/197 188/197/208 187/192/207
f 177/191/197 178/196/198 189/202/209 188/197/208
f 178/196/198 179/201/199 190/207/210 189/202/209
f 179/201/199 180/206/200 191/212/211 190/207/210
f 180/206/200 181/211/201 192/215/212 191/212/211
f 181/211/201 182/214/202 193/217/213 192/215/212
f 183/177/204 184/176/203 2/182/2 1/183/1
f 184/176/203 185/181/205 3/188/5 2/182/2
f 185/181/205 186/187/206 4/193/7 3/188/5
f 186/187/206 187/192/207 5/198/9 4/193/7
f 187/192/207 188/197/208 6/203/11 5/198/9
f 188/197/208 189/202/209 7/208/13 6/203/11
f 189/202/209 190/207/210 8/213/15 7/208/13
f 190/207/210 191/212/211 9/216/17 8/213/15
f 191/212/211 192/215/212 10/218/19 9/216/17
f 192/215/212 193/217/213 11/219/21 10/218/19
f 171/23/214 160/24/171 149/25/160 194/26/215
f 195/29/216 182/30/202 171/23/214 194/26/215
f 193/34/213 182/30/202 195/29/216 196/35/217
f 11/38/21 193/34/213 196/35/217 22/39/22
f 194/26/215 149/25/160 138/27/149 197/28/218
f 198/33/219 195/29/216 194/26/215 197/28/218
f 196/35/217 195/29/216 198/33/219 199/37/220
f 22/39/22 196/35/217 199/37/220 33/41/33
f 197/28/218 138/27/149 127/31/148 200/32/221
f 201/36/222 198/33/219 197/28/218 200/32/221
f 199/37/220 198/33/219 201/36/222 202/40/223
f 33/41/33 199/37/220 202/40/223 44/42/44
f 200/121/224 127/123/134 110/124/135 203/122/225
f 201/119/226 200/121/224 203/122/225 204/120/227
f 202/116/228 201/119/226 204/120/227 63/114/64
f 44/113/63 202/116/228 63/114/64
f 150/43/172 161/44/175 205/45/229 139/46/230
f 205/45/229 161/44/175 172/47/193 206/48/231
f 172/47/193 183/51/204 207/52/232 206/48/231
f 183/51/204 1/56/1 12/57/4 207/52/232
f 139/46/230 205/45/229 208/49/233 128/50/234
f 208/49/233 205/45/229 206/48/231 209/53/235
f 206/48/231 207/52/232 210/58/236 209/53/235
f 207/52/232 12/57/4 23/60/24 210/58/236
f 128/50/234 208/49/233 211/54/237 118/55/238
f 211/54/237 208/49/233 209/53/235 212/59/239
f 209/53/235 210/58/236 213/61/240 212/59/239
f 210/58/236 23/60/24 34/62/241 213/61/240
f 118/145/242 211/147/243 214/148/244 111/146/245
f 214/148/244 211/147/243 212/149/246 215/150/247
f 212/149/246 213/151/248 216/152/249 215/150/247
s off
f 213/61/250 34/62/251 45/63/252 216/64/253
s 1
f 216/64/254 45/63/45 54/65/55 218/66/255
f 217/74/256 218/66/255 220/70/257 219/75/258
f 218/66/255 54/65/55 64/69/67 220/70/257
f 219/75/258 220/70/257 221/73/259 103/79/260
f 220/70/257 64/69/67 72/72/75 221/73/259
f 103/79/260 221/73/259 88/78/91 96/84/101
f 221/73/259 72/72/75 80/77/83 88/78/91
f 113/139/261 112/141/262 222/142/263 223/140/264
f 119/143/265 118/145/242 111/146/245 224/144/266
f 122/135/267 121/137/268 225/138/269 226/136/270
f 112/141/262 119/143/265 224/144/266 222/142/263
f 121/137/268 113/139/261 223/140/264 225/138/269
f 114/134/114 122/135/267 226/136/270 105/133/111
f 52/16/271 53/20/272 228/21/273 227/17/274
f 53/117/272 43/112/62 62/115/65 228/118/273
f 61/6/61 52/16/271 227/17/274 229/11/275
f 71/2/73 61/6/61 229/11/275 230/7/276
f 79/3/81 71/2/73 230/7/276 231/8/277
f 87/9/89 79/3/81 231/8/277 95/12/99
f 218/66/255 217/74/256 232/80/278 233/81/279
s 11
f 218/374/280 233/375/281 216/376/282
s 3
f 227/379/283 232/380/284 217/381/285 219/382/286 103/383/110 104/384/109 97/385/108 98/386/287 99/387/288 100/388/289 101/389/290 102/390/291 95/391/292 231/392/293 230/393/294 229/394/295
f 62/98/296 63/96/297 235/97/298 234/99/299
s 13
f 110/395/300 109/396/301 236/397/302 237/398/303
f 106/403/304 105/405/305 238/406/306 239/404/307
f 107/401/308 106/403/304 239/404/307 240/402/309
f 108/399/310 107/401/308 240/402/309 241/400/311
f 109/396/301 108/399/310 241/400/311 236/397/302
f 238/406/306 105/405/305 226/407/312 252/408/313
s 3
f 203/90/314 110/91/315 237/92/316 242/93/317
f 242/93/317 243/94/318 204/95/319 203/90/314
f 63/96/297 204/95/319 243/94/318 235/97/298
s 16
f 111/100/320 214/101/321 245/102/322 244/103/323
f 245/102/322 214/101/321 215/104/324 246/105/325
s off
f 215/104/326 216/106/327 247/107/328 246/105/329
s 13
f 223/411/330 222/413/331 248/414/332 249/412/333
f 224/415/334 111/417/335 244/418/336 250/416/337
f 226/407/312 225/409/338 251/410/339 252/408/313
f 222/413/331 224/415/334 250/416/337 248/414/332
f 225/409/338 223/411/330 249/412/333 251/410/339
s 3
f 227/419/283 228/420/340 254/421/341 253/422/342
f 228/420/340 62/423/296 234/424/299 254/421/341
s 1
f 233/108/279 232/109/278 255/110/343 256/111/344
s 11
f 216/376/282 233/375/281 256/377/345 247/378/346
s 3
f 232/243/284 227/244/283 253/240/342 255/239/347
s off
f 235/220/348 243/221/349 242/222/350 237/223/351 236/224/352 241/225/353 240/226/354 239/227/355 238/228/356 252/229/357 251/230/358 249/231/359 248/232/360 250/233/361 244/234/362 245/235/363 246/236/364 247/237/365 256/238/366 255/239/367 253/240/368 254/241/369 234/242/370
s 1
f 35/256/34 36/261/36 46/267/46
f 34/257/35 35/256/34 45/262/45
f 39/277/39 40/285/40 51/295/51
