# This file uses centimeters as units for non-parametric coordinates.

mtllib right_gripper_upper_link.mtl
v -0.057050 0.013081 -0.013081
v -0.043100 0.014796 -0.015193
v -0.000000 0.014796 -0.015193
v 0.013950 0.013081 -0.013081
v -0.057050 0.017594 -0.003988
v -0.043100 0.019335 -0.003665
v -0.000000 0.020704 -0.003645
v 0.013950 0.018077 -0.003988
v -0.057050 0.016338 0.008408
v -0.043100 0.017500 0.008844
v -0.000000 0.018119 0.009069
v 0.013950 0.016338 0.008408
v -0.049389 0.013359 0.015893
v -0.043100 0.013117 0.016801
v -0.000000 0.013117 0.016801
v 0.006289 0.013359 0.015893
v -0.057050 0.002558 0.018248
v -0.043100 0.001693 0.021563
v -0.000000 0.001693 0.021563
v 0.013950 0.002558 0.018248
v -0.049631 -0.014887 0.024194
v -0.042602 -0.016800 0.022056
v -0.021946 -0.018216 0.022142
v -0.001258 -0.016883 0.022067
v 0.006531 -0.014887 0.024006
v -0.049773 -0.032538 0.025927
v -0.039357 -0.032461 0.026899
v -0.021598 -0.032512 0.027088
v -0.003835 -0.032487 0.027460
v 0.006676 -0.032539 0.025730
v -0.048942 -0.045168 0.026354
v -0.039284 -0.049910 0.026356
v -0.021596 -0.050130 0.026623
v -0.003916 -0.049911 0.026360
v 0.005828 -0.045199 0.025876
v -0.047449 -0.066257 0.020902
v -0.039087 -0.066698 0.023125
v -0.023005 -0.067257 0.023811
v -0.004113 -0.066698 0.023130
v 0.004315 -0.066269 0.020951
v -0.046151 -0.080074 0.017316
v -0.038914 -0.079660 0.018003
v -0.023016 -0.079176 0.019031
v -0.004288 -0.079718 0.017973
v 0.003051 -0.080074 0.017316
v -0.046003 -0.085695 0.012626
v -0.038621 -0.085830 0.012948
v -0.022930 -0.086111 0.013353
v -0.004579 -0.085832 0.012950
v 0.002903 -0.085695 0.012626
v -0.045961 -0.091940 0.003540
v -0.038960 -0.092409 0.003551
v -0.023048 -0.092345 0.003989
v -0.004240 -0.092412 0.003553
v 0.002861 -0.091941 0.003538
v -0.045814 -0.098867 -0.007522
v -0.039325 -0.103779 -0.014403
v -0.022868 -0.103744 -0.014371
v -0.003875 -0.103779 -0.014403
v 0.002696 -0.098903 -0.007504
v -0.044820 -0.100588 -0.014044
v -0.038940 -0.102624 -0.017087
v -0.021600 -0.102831 -0.017156
v -0.004257 -0.102639 -0.017092
v 0.001720 -0.100588 -0.014044
v -0.045506 -0.088323 -0.010943
v -0.039325 -0.088328 -0.012412
v -0.021600 -0.088328 -0.012412
v -0.003875 -0.088328 -0.012412
v 0.002360 -0.088311 -0.010992
v -0.045513 -0.073947 -0.006069
v -0.039325 -0.073923 -0.007277
v -0.021600 -0.073923 -0.007277
v -0.003875 -0.073923 -0.007277
v 0.002363 -0.073932 -0.006102
v -0.045121 -0.053136 0.002375
v -0.037202 -0.053172 0.001873
v -0.021600 -0.053172 0.001873
v -0.005985 -0.053172 0.001873
v 0.002021 -0.053136 0.002375
v -0.046282 -0.038790 -0.002983
v -0.039222 -0.043145 -0.003718
v -0.021601 -0.043305 -0.003759
v -0.003977 -0.043159 -0.003722
v 0.003182 -0.038790 -0.002983
v -0.057050 -0.008956 -0.016343
v -0.045031 -0.027906 -0.002516
v -0.021601 -0.029278 -0.002516
v 0.001888 -0.027881 -0.002516
v 0.013950 -0.008956 -0.016343
v -0.057050 0.004972 -0.017942
v -0.043100 0.004373 -0.021295
v -0.000000 0.004372 -0.021295
v 0.013950 0.004972 -0.017942
v 0.005008 -0.085932 -0.003584
v 0.004887 -0.070168 -0.000888
v 0.006087 -0.053303 0.007409
v 0.006737 -0.029575 -0.001886
v 0.013950 -0.014556 -0.005156
v 0.013950 0.003444 -0.005115
v 0.005636 -0.082989 0.009658
v 0.007206 -0.067916 0.011529
v 0.006670 -0.051364 0.011645
v 0.008558 -0.038237 0.010442
v 0.013950 -0.013779 0.010539
v 0.013950 0.003444 0.011066
v -0.048348 -0.085791 -0.003066
v -0.047987 -0.070165 -0.000886
v -0.049186 -0.053303 0.007410
v -0.049837 -0.029575 -0.001886
v -0.057050 -0.014556 -0.005156
v -0.057050 0.003444 -0.005115
v -0.048736 -0.082989 0.009658
v -0.050307 -0.067906 0.011459
v -0.049770 -0.051365 0.011642
v -0.051659 -0.038234 0.010431
v -0.057050 -0.013779 0.010539
v -0.057050 0.003444 0.011066
v -0.000000 -0.004695 -0.021295
v -0.043929 -0.004695 -0.021295
v -0.051437 -0.013842 -0.015155
v -0.044333 -0.013842 -0.015155
v 0.007549 -0.013842 -0.015155
v -0.000000 -0.013842 -0.015155
vt 0.496742 0.532286
vt 0.502702 0.530577
vt 0.499548 0.539896
vt 0.494287 0.541107
vt 0.500677 0.521955
vt 0.504871 0.519250
vt 0.513356 0.528462
vt 0.508432 0.534894
vt 0.507497 0.507012
vt 0.511546 0.507132
vt 0.514861 0.517632
vt 0.519517 0.526368
vt 0.515744 0.530407
vt 0.503186 0.496705
vt 0.504068 0.490083
vt 0.514955 0.505739
vt 0.522442 0.516448
vt 0.513987 0.496307
vt 0.526404 0.501309
vt 0.501438 0.479292
vt 0.514065 0.478733
vt 0.526287 0.492213
vt 0.501471 0.466358
vt 0.514489 0.466358
vt 0.524900 0.479530
vt 0.502378 0.455845
vt 0.512350 0.457094
vt 0.520267 0.466995
vt 0.491150 0.465260
vt 0.492437 0.475269
vt 0.495061 0.459434
vt 0.493392 0.478779
vt 0.837616 0.002707
vt 0.842951 0.003964
vt 0.846596 0.013517
vt 0.840153 0.011667
vt 0.835127 0.001220
vt 0.837322 0.000376
vt 0.851999 0.009025
vt 0.857004 0.015564
vt 0.848379 0.024932
vt 0.844139 0.022169
vt 0.859431 0.013587
vt 0.863268 0.017693
vt 0.858477 0.026583
vt 0.855165 0.037250
vt 0.851047 0.037372
vt 0.866202 0.027787
vt 0.858627 0.038666
vt 0.847561 0.054584
vt 0.846664 0.047852
vt 0.870661 0.043193
vt 0.857636 0.048258
vt 0.870312 0.052419
vt 0.857724 0.066123
vt 0.844887 0.065556
vt 0.868894 0.065313
vt 0.858155 0.078705
vt 0.844920 0.078705
vt 0.836707 0.066077
vt 0.847045 0.055803
vt 0.864031 0.078058
vt 0.855982 0.088124
vt 0.845842 0.089042
vt 0.835735 0.069646
vt 0.834427 0.079821
vt 0.862104 0.085948
vt 0.838403 0.085745
vt 0.555786 0.812683
vt 0.549243 0.804445
vt 0.561157 0.803785
vt 0.561157 0.812498
vt 0.555579 0.791139
vt 0.561582 0.789681
vt 0.555458 0.777678
vt 0.564353 0.777737
vt 0.556167 0.768045
vt 0.564416 0.764428
vt 0.579519 0.777698
vt 0.579222 0.788601
vt 0.557443 0.751961
vt 0.564583 0.751624
vt 0.579521 0.764260
vt 0.594689 0.777716
vt 0.596890 0.789617
vt 0.558551 0.741422
vt 0.564732 0.741738
vt 0.578317 0.751198
vt 0.594620 0.764427
vt 0.603666 0.777677
vt 0.603541 0.791139
vt 0.558677 0.737136
vt 0.564982 0.737033
vt 0.578308 0.742108
vt 0.594452 0.751625
vt 0.602941 0.768022
vt 0.597964 0.803785
vt 0.609877 0.804445
vt 0.558713 0.732373
vt 0.564692 0.732015
vt 0.578382 0.736818
vt 0.594302 0.741694
vt 0.601649 0.751952
vt 0.597964 0.812498
vt 0.603335 0.812683
vt 0.558838 0.727089
vt 0.564380 0.723343
vt 0.578281 0.732064
vt 0.594054 0.737031
vt 0.600569 0.741422
vt 0.609877 0.814954
vt 0.597964 0.816313
vt 0.578434 0.723370
vt 0.594343 0.732013
vt 0.600443 0.737136
vt 0.594655 0.723343
vt 0.600407 0.732372
vt 0.600266 0.727062
vt 0.115000 0.885092
vt 0.114440 0.876151
vt 0.119486 0.876154
vt 0.119800 0.886577
vt 0.114434 0.865671
vt 0.119486 0.865653
vt 0.133954 0.876154
vt 0.133955 0.886727
vt 0.114754 0.850499
vt 0.121218 0.850526
vt 0.133954 0.865653
vt 0.148423 0.876154
vt 0.148111 0.886588
vt 0.113806 0.840041
vt 0.119570 0.843216
vt 0.133954 0.850526
vt 0.148423 0.865653
vt 0.153513 0.876143
vt 0.152991 0.885092
vt 0.114828 0.832106
vt 0.110905 0.833323
vt 0.133954 0.843333
vt 0.146701 0.850526
vt 0.153515 0.865660
vt 0.133954 0.833107
vt 0.148340 0.843225
vt 0.153237 0.850499
vt 0.153128 0.832088
vt 0.154184 0.840041
vt 0.157086 0.833323
vt 0.162974 0.822374
vt 0.157749 0.821853
vt 0.151587 0.821853
vt 0.151587 0.815185
vt 0.162974 0.818292
vt 0.151587 0.808575
vt 0.162974 0.808137
vt 0.151587 0.800976
vt 0.162974 0.802226
vt 0.792178 0.352080
vt 0.792178 0.341671
vt 0.803851 0.342119
vt 0.803157 0.348896
vt 0.792178 0.335611
vt 0.803851 0.334330
vt 0.802819 0.355731
vt 0.796875 0.355731
vt 0.802235 0.366241
vt 0.728803 0.577762
vt 0.728803 0.571205
vt 0.740066 0.570973
vt 0.740066 0.579284
vt 0.728803 0.562268
vt 0.740066 0.561953
vt 0.734988 0.556871
vt 0.740066 0.556216
vt 0.702398 0.426332
vt 0.702398 0.417955
vt 0.713728 0.418203
vt 0.713728 0.424800
vt 0.702398 0.408732
vt 0.713728 0.409212
vt 0.952863 0.168313
vt 0.950670 0.168032
vt 0.950613 0.155375
vt 0.952889 0.156301
vt 0.950666 0.142717
vt 0.952863 0.142438
vt 0.953157 0.138354
vt 0.958502 0.137642
vn -0.628101 0.588744 -0.508793
vn -0.687037 0.719760 -0.099633
vn -0.125111 0.984546 -0.122542
vn -0.169790 0.737742 -0.653381
vn 0.181652 0.716568 -0.673449
vn 0.170968 0.976649 -0.130100
vn 0.694162 0.711277 -0.110561
vn 0.635626 0.566981 -0.523939
vn -0.773214 0.601572 0.200628
vn -0.095746 0.967191 0.235319
vn 0.143871 0.949290 0.279553
vn 0.770360 0.601430 0.211724
vn -0.324634 0.594098 0.735976
vn -0.143529 0.586651 0.797019
vn 0.155042 0.571758 0.805639
vn 0.221597 0.598767 0.769657
vn -0.567697 0.193632 0.800141
vn -0.084402 0.238231 0.967534
vn 0.087941 0.230707 0.969041
vn 0.340774 0.186896 0.921381
vn -0.621801 0.015308 0.783026
vn 0.020126 0.240679 0.970396
vn -0.007904 0.250090 0.968190
vn 0.612548 0.019490 0.790193
vn -0.766992 -0.040281 0.640391
vn 0.001358 0.133035 0.991110
vn -0.007671 0.141270 0.989941
vn -0.006751 0.319499 0.947562
vn 0.006560 0.129745 0.991526
vn 0.764202 -0.039835 0.643745
vn -0.736683 -0.106572 0.667788
vn -0.064879 -0.119920 0.990661
vn -0.003280 -0.106056 0.994355
vn 0.069764 -0.127384 0.989397
vn 0.742629 -0.112997 0.660102
vn -0.745997 -0.187841 0.638908
vn -0.090473 -0.258511 0.961762
vn -0.000915 -0.262930 0.964814
vn 0.087204 -0.260183 0.961613
vn 0.739387 -0.185002 0.647364
vn -0.630635 -0.345972 0.694696
vn -0.073644 -0.461000 0.884339
vn -0.000158 -0.472304 0.881436
vn 0.064900 -0.463076 0.883939
vn 0.625844 -0.347602 0.698207
vn -0.368870 -0.703580 0.607379
vn -0.031209 -0.751201 0.659335
vn -0.000028 -0.751036 0.660261
vn 0.027649 -0.751648 0.658984
vn 0.366373 -0.704565 0.607749
vn -0.617687 -0.678540 0.397551
vn -0.023294 -0.838869 0.543835
vn -0.000117 -0.839855 0.542810
vn 0.020157 -0.838966 0.543810
vn 0.628075 -0.673272 0.390162
vn -0.669314 -0.690106 0.275267
vn -0.054418 -0.903767 0.424551
vn -0.000195 -0.895532 0.444996
vn 0.047736 -0.900313 0.432618
vn 0.660030 -0.695148 0.284834
vn -0.683807 -0.061545 -0.727062
vn -0.153662 -0.950512 -0.270027
vn 0.000998 -0.935893 -0.352283
vn 0.145227 -0.951917 -0.269745
vn 0.677229 -0.062972 -0.733073
vn -0.679661 0.173900 -0.712615
vn -0.064645 0.316854 -0.946269
vn -0.055865 0.303041 -0.951339
vn -0.000001 0.323460 -0.946242
vn -0.000002 0.310866 -0.950454
vn 0.063153 0.316770 -0.946398
vn 0.055255 0.302791 -0.951454
vn 0.668523 0.179157 -0.721790
vn -0.509771 0.301951 -0.805580
vn -0.042855 0.372896 -0.926883
vn 0.000000 0.375422 -0.926854
vn 0.041508 0.373049 -0.926882
vn 0.497395 0.305395 -0.811993
vn -0.524596 0.028777 -0.850865
vn -0.045752 0.103838 -0.993541
vn -0.000057 0.115132 -0.993350
vn 0.045118 0.103710 -0.993584
vn 0.521899 0.029127 -0.852510
vn -0.523064 -0.216346 -0.824378
vn -0.043867 -0.160200 -0.986109
vn -0.000107 -0.146927 -0.989147
vn 0.043594 -0.160301 -0.986105
vn 0.520283 -0.216117 -0.826196
vn -0.022676 0.076745 -0.996793
vn -0.000068 0.083687 -0.996492
vn 0.022663 0.076757 -0.996792
vn 0.848842 -0.348796 -0.397251
vn -0.849654 -0.162470 -0.501688
vn -0.728149 0.168750 -0.664321
vn -0.249555 0.212861 -0.944676
vn -0.285867 -0.056209 -0.956619
vn 0.443782 -0.593775 -0.671185
vn -0.000014 -0.669077 -0.743193
vn 0.320256 -0.629651 -0.707796
vn 0.246766 0.194101 -0.949437
vn 0.724244 0.162605 -0.670097
vn 0.986272 -0.071240 -0.148971
vn 0.946835 0.081146 -0.311317
vn 0.943276 -0.032871 -0.330378
vn 1.000000 0.000000 0.000000
vn 0.956708 -0.230308 -0.177953
vn 0.838968 -0.175708 -0.515033
vn 0.985946 -0.148092 0.077326
vn 0.996591 -0.052984 0.063241
vn 0.997320 -0.068275 0.026299
vn 0.986318 -0.155220 0.055523
vn 0.983543 -0.147126 0.104867
vn 1.000000 0.000000 0.000000
vn 1.000000 -0.000000 0.000000
vn -0.986828 -0.074414 -0.143642
vn -0.946024 0.085453 -0.312629
vn -0.943125 -0.032974 -0.330798
vn -0.852996 -0.348466 -0.388547
vn -0.958761 -0.226992 -0.171033
vn -1.000000 -0.000000 0.000000
vn -0.985130 -0.149120 0.085332
vn -0.996596 -0.052090 0.063893
vn -0.997325 -0.068632 0.025129
vn -0.986495 -0.154295 0.054961
vn -0.983638 -0.146789 0.104448
vn -0.991598 0.075172 0.105269
vn 0.276611 -0.066665 -0.958667
vn -0.108048 -0.491406 -0.864202
vn -0.108048 -0.491406 -0.864202
vn -0.216275 -0.570126 -0.792579
vn -0.337627 -0.635374 -0.694484
vn -0.463154 -0.600897 -0.651468
vn 0.000000 -0.668426 -0.743778
vn 0.192675 -0.574229 -0.795700
vn 0.100296 -0.496129 -0.862437
vn 0.100296 -0.496129 -0.862437
s 1
usemtl M_sprout_SG
f 1/167/1 5/168/2 6/169/3 2/170/4
f 3/175/5 7/176/6 8/177/7 4/178/8
f 5/168/2 9/171/9 10/172/10 6/169/3
f 7/176/6 11/179/11 12/180/12 8/177/7
f 9/171/9 13/173/13 14/174/14 10/172/10
f 11/112/11 15/104/15 16/105/16 12/111/12
f 13/69/13 17/70/17 18/71/18 14/72/14
f 15/104/15 19/97/19 20/98/20 16/105/16
f 17/70/17 21/73/21 22/74/22 18/71/18
f 19/97/19 24/85/23 25/91/24 20/98/20
f 21/73/21 26/75/25 27/76/26 22/74/22
f 22/74/22 27/76/26 28/79/27 23/80/28
f 23/80/28 28/79/27 29/84/29 24/85/23
f 24/85/23 29/84/29 30/90/30 25/91/24
f 26/75/25 31/77/31 32/78/32 27/76/26
f 27/76/26 32/78/32 33/83/33 28/79/27
f 28/79/27 33/83/33 34/89/34 29/84/29
f 29/84/29 34/89/34 35/96/35 30/90/30
f 31/77/31 36/81/36 37/82/37 32/78/32
f 32/78/32 37/82/37 38/88/38 33/83/33
f 33/83/33 38/88/38 39/95/39 34/89/34
f 34/89/34 39/95/39 40/103/40 35/96/35
f 36/81/36 41/86/41 42/87/42 37/82/37
f 37/82/37 42/87/42 43/94/43 38/88/38
f 38/88/38 43/94/43 44/102/44 39/95/39
f 39/95/39 44/102/44 45/110/45 40/103/40
f 41/86/41 46/92/46 47/93/47 42/87/42
f 42/87/42 47/93/47 48/101/48 43/94/43
f 43/94/43 48/101/48 49/109/49 44/102/44
f 44/102/44 49/109/49 50/115/50 45/110/45
f 46/92/46 51/99/51 52/100/52 47/93/47
f 47/93/47 52/100/52 53/108/53 48/101/48
f 48/101/48 53/108/53 54/114/54 49/109/49
f 49/109/49 54/114/54 55/117/55 50/115/50
f 51/99/51 56/106/56 57/107/57 52/100/52
f 52/100/52 57/107/57 58/113/58 53/108/53
f 53/108/53 58/113/58 59/116/59 54/114/54
f 54/114/54 59/116/59 60/118/60 55/117/55
f 56/34/56 61/33/61 62/37/62 57/38/57
f 57/181/57 62/182/62 63/183/63 58/184/58
f 58/184/58 63/183/63 64/185/64 59/186/59
f 59/186/59 64/185/64 65/187/65 60/188/60
f 61/119/61 66/120/66 67/121/67 62/122/68
f 62/122/68 67/121/67 68/125/69 63/126/70
f 63/126/70 68/125/69 69/130/71 64/131/72
f 64/131/72 69/130/71 70/136/73 65/137/65
f 66/120/66 71/123/74 72/124/75 67/121/67
f 67/121/67 72/124/75 73/129/76 68/125/69
f 68/125/69 73/129/76 74/135/77 69/130/71
f 69/130/71 74/135/77 75/142/78 70/136/73
f 71/123/74 76/127/79 77/128/80 72/124/75
f 72/124/75 77/128/80 78/134/81 73/129/76
f 73/129/76 78/134/81 79/141/82 74/135/77
f 74/135/77 79/141/82 80/145/83 75/142/78
f 76/127/79 81/132/84 82/133/85 77/128/80
f 77/128/80 82/133/85 83/140/86 78/134/81
f 78/134/81 83/140/86 84/144/87 79/141/82
f 79/141/82 84/144/87 85/147/88 80/145/83
f 82/133/85 87/138/89 88/143/90 83/140/86
f 83/140/86 88/143/90 89/146/91 84/144/87
f 98/148/92 85/147/88 84/144/87 89/146/91
f 86/158/93 91/159/94 92/160/95 120/161/96
f 89/146/97 124/151/98 123/150/99
f 91/159/94 1/162/1 2/163/4 92/160/95
f 93/154/100 3/156/5 4/157/8 94/155/101
f 70/1/73 95/2/102 60/3/60 65/4/65
f 75/5/78 96/6/103 95/2/102 70/1/73
f 80/9/83 97/10/104 96/6/103 75/5/78
f 85/14/88 98/15/92 97/10/104 80/9/83
f 94/29/101 100/23/105 99/20/106 90/30/107
f 4/31/8 8/26/7 100/23/105 94/29/101
f 95/2/102 101/7/108 55/8/55 60/3/60
f 96/6/103 102/11/109 101/7/108 95/2/102
f 97/10/104 103/16/110 102/11/109 96/6/103
f 98/15/92 104/18/111 103/16/110 97/10/104
f 99/20/106 105/21/112 104/18/111 98/15/92
f 100/23/105 106/24/113 105/21/112 99/20/106
f 8/26/7 12/27/12 106/24/113 100/23/105
f 101/7/108 45/12/45 50/13/50 55/8/55
f 102/11/109 40/17/40 45/12/45 101/7/108
f 103/16/110 35/19/35 40/17/40 102/11/109
f 104/18/111 30/22/30 35/19/35 103/16/110
f 105/21/112 25/25/24 30/22/30 104/18/111
f 106/24/113 20/28/114 105/21/112
f 12/27/12 20/28/114 106/24/113
f 61/33/61 56/34/56 107/35/115 66/36/66
f 66/36/66 107/35/115 108/41/116 71/42/74
f 71/42/74 108/41/116 109/46/117 76/47/79
f 76/47/79 109/46/117 110/50/118 81/51/84
f 87/138/89 82/133/85 81/132/84 110/139/118
f 86/65/93 111/56/119 112/59/120 91/66/94
f 91/66/94 112/59/120 5/64/2 1/68/1
f 56/34/56 51/39/51 113/40/121 107/35/115
f 107/35/115 113/40/121 114/45/122 108/41/116
f 108/41/116 114/45/122 115/49/123 109/46/117
f 109/46/117 115/49/123 116/53/124 110/50/118
f 110/50/118 116/53/124 117/55/125 111/56/119
f 111/56/119 117/55/125 118/58/126 112/59/120
f 112/59/120 118/58/126 9/63/9 5/64/2
f 51/39/51 46/43/46 41/44/41 113/40/121
f 113/40/121 41/44/41 36/48/36 114/45/122
f 114/45/122 36/48/36 31/52/31 115/49/123
f 115/49/123 31/52/31 26/54/25 116/53/124
f 116/53/124 26/54/25 21/57/21 117/55/125
f 117/55/125 17/62/17 118/58/126
f 118/58/126 17/62/17 13/67/13 9/63/9
f 119/152/127 93/154/100 94/155/101 90/153/107
f 86/158/93 120/161/128 122/164/129 121/165/130
f 99/149/106 98/148/92 89/146/97 123/150/99
f 86/65/93 121/60/130 111/56/119
f 121/60/131 87/61/132 110/50/118 111/56/119
f 122/164/133 87/166/132 121/165/131
f 90/30/107 99/20/106 123/32/134
f 124/151/135 119/152/136 90/153/107 123/150/134
f 117/55/125 21/57/21 17/62/17
f 20/28/20 25/25/24 105/21/112
f 12/111/12 16/105/16 20/98/20
