# This file uses centimeters as units for non-parametric coordinates.

mtllib right_femur_lower_link.mtl
v -0.057467 -0.024402 -0.128831
v -0.046092 -0.024807 -0.134238
v -0.016294 -0.024951 -0.135338
v 0.005168 -0.024330 -0.124381
v -0.070586 -0.024572 -0.115393
v -0.063552 -0.025000 -0.120989
v -0.050732 -0.025000 -0.125649
v -0.012302 -0.025000 -0.128004
v 0.011314 -0.024682 -0.116975
v 0.014728 -0.024313 -0.112338
v -0.078476 -0.024992 -0.087077
v -0.072781 -0.025000 -0.086427
v -0.072721 -0.025000 -0.085451
v 0.018478 -0.025000 -0.088409
v 0.021518 -0.024334 -0.088456
v -0.070352 -0.024308 -0.058545
v -0.052142 -0.024510 -0.043444
v -0.001261 -0.024682 -0.039541
v 0.011783 -0.024568 -0.057225
v 0.015903 -0.021298 -0.060905
v 0.011118 -0.021472 -0.049934
v 0.017677 -0.016446 -0.058170
v -0.052142 0.024509 -0.043443
v -0.001261 0.024681 -0.039541
v 0.011120 0.021471 -0.049935
v 0.017677 0.016446 -0.058170
v -0.070352 0.024308 -0.058545
v -0.047856 0.025000 -0.052442
v -0.014737 0.025000 -0.050228
v 0.011783 0.024568 -0.057224
v 0.015923 0.021270 -0.060889
v -0.078476 0.024992 -0.087077
v -0.068898 0.025000 -0.086466
v -0.068744 0.025000 -0.084906
v 0.010695 0.025000 -0.084405
v 0.016408 0.025000 -0.086992
v 0.021518 0.024334 -0.088456
v -0.070586 0.024572 -0.115393
v -0.063552 0.025000 -0.120989
v -0.048278 0.025000 -0.122333
v -0.014454 0.025000 -0.124686
v 0.011314 0.024682 -0.116975
v 0.014728 0.024313 -0.112338
v -0.057467 0.024402 -0.128831
v -0.046092 0.024807 -0.134238
v -0.016294 0.024951 -0.135338
v 0.005168 0.024330 -0.124381
v -0.057523 0.016200 -0.128912
v -0.046282 0.016200 -0.134727
v -0.016089 0.016200 -0.136092
v 0.005228 0.016200 -0.124440
v -0.057523 0.000000 -0.128912
v -0.046282 0.000000 -0.134727
v -0.016089 0.000000 -0.136092
v 0.005228 0.000000 -0.124440
v -0.057523 -0.016200 -0.128912
v -0.046282 -0.016200 -0.134727
v -0.016089 -0.016200 -0.136092
v 0.005228 -0.016200 -0.124440
v 0.015560 0.016164 -0.111368
v 0.015599 0.000000 -0.111300
v 0.015560 -0.016164 -0.111368
v 0.022493 0.015299 -0.086539
v 0.022905 -0.000035 -0.086299
v 0.022516 -0.015292 -0.086489
v 0.020219 0.010581 -0.066747
v 0.022786 -0.000000 -0.066703
v 0.020219 -0.010581 -0.066747
v 0.021629 0.010552 -0.062725
v 0.024250 0.000000 -0.062681
v 0.021629 -0.010552 -0.062725
v -0.070783 0.016200 -0.115508
v -0.070783 0.000000 -0.115508
v -0.070783 -0.016200 -0.115508
v -0.079395 0.016200 -0.087004
v -0.079395 0.000000 -0.087004
v -0.079395 -0.016200 -0.087004
v -0.070623 0.015881 -0.058355
v -0.071023 0.000000 -0.058076
v -0.070623 -0.015881 -0.058355
v -0.052142 -0.000262 -0.043443
v -0.024202 -0.000262 -0.032231
v -0.020764 0.012210 -0.032226
v -0.020764 -0.012472 -0.032226
v -0.001261 -0.024682 -0.015452
v 0.011118 -0.021472 -0.015452
v 0.017677 -0.016446 -0.015452
v -0.001261 0.024681 -0.015452
v 0.011120 0.021471 -0.015452
v 0.017677 0.016446 -0.015452
v 0.021629 0.010552 -0.015452
v 0.024250 -0.000000 -0.015452
v 0.021629 -0.010552 -0.015452
v -0.020764 0.012210 -0.015452
v -0.024202 -0.000262 -0.015452
v -0.020764 -0.012472 -0.015452
vt 0.950499 0.598411
vt 0.956750 0.597618
vt 0.956766 0.617148
vt 0.949836 0.618717
vt 0.950527 0.587722
vt 0.956763 0.587770
vt 0.954416 0.639692
vt 0.946217 0.634902
vt 0.938101 0.598468
vt 0.938074 0.618912
vt 0.957032 0.593826
vt 0.938101 0.587722
vt 0.950716 0.641915
vt 0.946195 0.638191
vt 0.938101 0.634938
vt 0.925703 0.598411
vt 0.926372 0.618757
vt 0.925676 0.587722
vt 0.954570 0.648650
vt 0.956945 0.642689
vt 0.950716 0.676849
vt 0.946195 0.676849
vt 0.938101 0.638227
vt 0.929986 0.634902
vt 0.919437 0.617148
vt 0.919453 0.597618
vt 0.919440 0.587770
vt 0.954570 0.676849
vt 0.938101 0.676849
vt 0.930008 0.638191
vt 0.921765 0.639679
vt 0.919170 0.593826
vt 0.930008 0.676849
vt 0.925487 0.641915
vt 0.919258 0.642689
vt 0.918926 0.617187
vt 0.925487 0.676849
vt 0.921632 0.648651
vt 0.921632 0.676849
vt 0.919170 0.657150
vt 0.952205 0.836512
vt 0.952205 0.860271
vt 0.945332 0.860210
vt 0.945660 0.836608
vt 0.964870 0.836512
vt 0.964870 0.860271
vt 0.952455 0.884150
vt 0.945867 0.883993
vt 0.952205 0.825340
vt 0.945793 0.825407
vt 0.977535 0.836512
vt 0.977535 0.860271
vt 0.964870 0.884384
vt 0.964870 0.825340
vt 0.945710 0.896580
vt 0.984080 0.836608
vt 0.984409 0.860210
vt 0.977286 0.884150
vt 0.977535 0.825340
vt 0.965075 0.896580
vt 0.983874 0.883993
vt 0.983947 0.825407
vt 0.984032 0.896580
vt 0.560912 0.111898
vt 0.560916 0.100522
vt 0.575573 0.100522
vt 0.575573 0.111898
vt 0.554524 0.089147
vt 0.575573 0.089147
vt 0.560916 0.123517
vt 0.575573 0.123517
vt 0.554524 0.135136
vt 0.575573 0.135136
vt 0.422901 0.874174
vt 0.422601 0.865211
vt 0.428962 0.865361
vt 0.428962 0.874219
vt 0.422495 0.841730
vt 0.428962 0.841569
vt 0.440935 0.865361
vt 0.440935 0.874219
vt 0.422953 0.824819
vt 0.428962 0.824771
vt 0.440935 0.841569
vt 0.452908 0.865361
vt 0.452908 0.874219
vt 0.440935 0.824771
vt 0.452908 0.841569
vt 0.459270 0.865211
vt 0.458970 0.874174
vt 0.452908 0.824771
vt 0.459376 0.841730
vt 0.458917 0.824819
vt 0.979709 0.626918
vt 0.961306 0.626918
vt 0.970442 0.601527
vt 0.979709 0.604309
vt 0.961176 0.585746
vt 0.998509 0.626918
vt 0.989174 0.601527
vt 0.998640 0.585745
vt 0.231742 0.817567
vt 0.237349 0.822205
vt 0.241349 0.827566
vt 0.227878 0.808897
vt 0.234017 0.812433
vt 0.262056 0.829239
vt 0.261591 0.833579
vt 0.227091 0.786186
vt 0.232334 0.783143
vt 0.262754 0.829193
vt 0.234923 0.769828
vt 0.240218 0.765144
vt 0.260639 0.759684
vt 0.292782 0.813509
vt 0.295572 0.774729
vt 0.260605 0.757367
vt 0.243533 0.762542
vt 0.282931 0.764787
vt 0.827936 0.199095
vt 0.842692 0.231859
vt 0.829673 0.220348
vt 0.823865 0.198599
vt 0.702440 0.043124
vt 0.717149 0.011113
vt 0.702398 0.043868
vt 0.048456 0.676716
vt 0.045369 0.669808
vt 0.082010 0.666811
vt 0.072306 0.675017
vt 0.033414 0.701642
vt 0.033303 0.702839
vt 0.090926 0.674792
vt 0.091403 0.680389
vt 0.082010 0.648317
vt 0.090926 0.648317
vt 0.090620 0.701257
vt 0.094734 0.703244
vt 0.098414 0.704368
vt 0.094384 0.683202
vt 0.072509 0.732185
vt 0.091065 0.726264
vt 0.093524 0.722704
vt 0.071185 0.740363
vt 0.086640 0.731951
vt 0.049726 0.739518
vt 0.048152 0.730378
vt 0.037153 0.729346
vt 0.041535 0.735367
vt 0.032087 0.725049
vt 0.026406 0.703309
vt 0.457163 0.003148
vt 0.445185 0.035938
vt 0.438338 0.036404
vt 0.444146 0.014658
vt 0.616275 0.235595
vt 0.593075 0.219679
vt 0.591493 0.194444
vt 0.615917 0.175066
vt 0.643022 0.220000
vt 0.644704 0.194229
vt 0.642062 0.231638
vt 0.617390 0.235712
vt 0.343277 0.247691
vt 0.352269 0.239642
vt 0.352269 0.266347
vt 0.343277 0.266347
vt 0.033303 0.702839
vn -0.052044 -0.995246 -0.082322
vn -0.025356 -0.999404 -0.023408
vn -0.042087 -0.998936 -0.018870
vn -0.006426 -0.999775 -0.020199
vn -0.001566 -0.999994 -0.002993
vn 0.002943 -0.999788 -0.020365
vn 0.002560 -0.999989 -0.003818
vn 0.051113 -0.996752 -0.062225
vn 0.029743 -0.999336 -0.021060
vn 0.601462 -0.034306 -0.798164
vn 0.904148 -0.036478 -0.425660
vn 0.678150 0.499532 -0.539055
vn -0.019387 -0.999780 0.008044
vn -0.032558 -0.999431 0.008869
vn -0.000721 -0.999987 0.005061
vn 0.020113 -0.999761 0.008623
vn 0.421980 -0.902923 0.081625
vn 0.198792 -0.978251 -0.059223
vn -0.026647 -0.999277 0.027120
vn -0.026647 -0.999277 0.027120
vn -0.027213 0.999628 0.001665
vn -0.027213 0.999628 0.001665
vn -0.027213 0.999628 0.001665
vn -0.001269 -0.999960 0.008907
vn -0.013610 -0.999874 0.008199
vn 0.291497 -0.948129 0.126811
vn 0.818703 -0.538343 0.199781
vn 0.527136 -0.848216 0.051551
vn 0.791906 -0.610382 0.017854
vn -0.004150 0.999955 0.008541
vn -0.016765 0.999174 0.037015
vn -0.028634 0.999286 0.024661
vn 0.005229 0.999910 0.012372
vn 0.410542 0.910897 0.041494
vn 0.144333 0.987115 0.069080
vn 0.791902 0.610386 0.017905
vn 0.780575 0.595660 0.189452
vn -0.015227 0.999857 0.007345
vn -0.024655 0.999657 0.008842
vn -0.020910 0.999501 0.023681
vn -0.004630 0.999985 0.002863
vn 0.005175 0.999985 0.001556
vn 0.091060 0.995716 0.016042
vn 0.289808 0.955989 0.045788
vn -0.021961 0.999536 -0.021120
vn -0.030842 0.999430 -0.013765
vn -0.001318 0.999995 -0.002877
vn 0.002633 0.999989 -0.003909
vn 0.018772 0.999738 -0.013073
vn 0.133395 0.990421 -0.035675
vn -0.029513 0.998160 -0.052964
vn -0.006617 0.999836 -0.016855
vn 0.005075 0.999853 -0.016409
vn 0.034669 0.998696 -0.037475
vn 0.678173 -0.499478 -0.539076
vn 0.904138 0.036187 -0.425706
vn 0.601463 0.034304 -0.798164
vn -0.611613 0.026727 -0.790706
vn -0.157820 0.062708 -0.985475
vn -0.167598 0.021481 -0.985621
vn -0.615659 0.009031 -0.787961
vn 0.186120 0.064131 -0.980432
vn 0.193615 0.021922 -0.980833
vn 0.611570 0.011373 -0.791108
vn 0.911149 0.018545 -0.411659
vn -0.170747 0.000000 -0.985315
vn -0.617194 -0.000000 -0.786811
vn 0.195851 0.000000 -0.980634
vn 0.615806 0.000000 -0.787898
vn 0.907819 0.000087 -0.419363
vn -0.167599 -0.021488 -0.985621
vn -0.615658 -0.009035 -0.787962
vn 0.193614 -0.021926 -0.980833
vn 0.611571 -0.011373 -0.791108
vn 0.911090 -0.018575 -0.411788
vn -0.157819 -0.062728 -0.985474
vn -0.611609 -0.026739 -0.790709
vn 0.186116 -0.064142 -0.980432
vn 0.989251 0.132670 -0.061497
vn 0.992110 0.098274 -0.077840
vn 0.990086 0.000290 -0.140461
vn 0.992116 -0.098915 -0.076954
vn 0.989108 -0.133573 -0.061837
vn 0.977208 0.189863 0.094951
vn 0.999947 0.000601 0.010256
vn 0.976966 -0.190693 0.095779
vn 0.940221 0.339681 -0.024498
vn 0.999649 0.000001 -0.026488
vn 0.940200 -0.339738 -0.024522
vn -0.888178 0.016289 -0.459211
vn -0.891449 0.047853 -0.450587
vn -0.886523 -0.000000 -0.462685
vn -0.888177 -0.016291 -0.459212
vn -0.891449 -0.047858 -0.450586
vn -0.999583 0.028881 0.000254
vn -0.997580 0.069496 0.002062
vn -0.999998 0.000000 -0.002140
vn -0.999583 -0.028882 0.000253
vn -0.997580 -0.069499 0.002062
vn -0.837538 0.025701 0.545774
vn -0.899051 0.063534 0.433211
vn -0.828562 0.000039 0.559897
vn -0.838553 -0.025845 0.544207
vn -0.899048 -0.063535 0.433217
vn -0.444202 0.088619 0.891533
vn -0.476303 -0.000043 0.879281
vn -0.445070 -0.089292 0.891033
vn -0.235009 0.285760 0.929038
vn -0.064354 0.577839 0.813609
vn -0.233658 -0.293337 0.927015
vn -0.347873 -0.000052 0.937542
vn -0.063940 -0.586038 0.807757
vn 0.423699 -0.905803 -0.000000
vn -0.200169 -0.979761 -0.000000
vn 0.729136 -0.684369 0.000000
vn -0.206724 0.978399 0.000000
vn 0.423680 0.905812 0.000000
vn 0.729175 0.684328 0.000000
vn 0.930078 0.367363 0.000000
vn 1.000000 0.000001 0.000000
vn 0.930078 -0.367362 0.000000
vn -0.693424 0.720529 0.000000
vn -0.713132 0.701030 0.000000
vn -1.000000 0.000006 0.000000
vn -0.685669 -0.727914 0.000000
vn -0.705673 -0.708537 0.000000
vn -1.000000 0.000005 0.000000
s 1
usemtl M_sprout_SG
f 1/102/1 6/103/2 5/104/3
f 1/102/1 2/105/4 7/106/5 6/103/2
f 7/106/5 2/105/4 3/109/6 8/110/7
f 8/110/7 3/109/6 4/112/8 9/113/9
f 4/27/10 10/26/11 9/32/12
f 6/103/2 12/107/13 11/108/14 5/104/3
f 7/106/5 13/111/15 12/107/13 6/103/2
f 13/111/15 7/106/5 8/110/7 14/114/16
f 14/114/16 8/110/7 9/113/9
f 15/117/17 14/114/16 9/113/9 10/118/18
f 12/120/13 17/121/19 16/122/20 11/123/14
s off
f 13/124/21 17/125/22 12/126/23
s 1
f 17/115/24 13/111/15 14/114/16 18/116/25
f 18/116/25 14/114/16 19/119/26
f 20/31/27 19/35/26 14/36/16 15/25/17
f 21/38/28 18/40/25 19/35/26
f 19/35/26 20/31/27 22/34/29 21/38/28
f 28/127/30 23/128/31 24/129/32 29/130/33
f 29/130/33 24/129/32 25/133/34 30/134/35
f 25/19/34 26/13/36 31/7/37 30/20/35
f 23/152/31 33/153/38 32/154/39 27/155/40
f 28/127/30 34/131/41 33/132/38 23/128/31
f 34/156/41 28/157/30 29/158/33 35/159/42
f 35/137/42 29/130/33 30/134/35 36/138/43
f 37/139/44 36/138/43 30/134/35 31/140/37
f 33/168/38 39/148/45 38/150/46 32/151/39
f 34/156/41 40/160/47 39/162/45 33/163/38
f 40/160/47 34/156/41 35/159/42 41/161/48
f 41/141/48 35/137/42 36/138/43 42/142/49
f 43/143/50 42/142/49 36/138/43 37/139/44
f 38/150/46 39/148/45 44/149/51
f 39/148/45 40/147/47 45/146/52 44/149/51
f 45/146/52 40/147/47 41/141/48 46/144/53
f 46/144/53 41/141/48 42/142/49 47/145/54
f 42/11/55 43/2/56 47/6/57
f 44/74/58 45/75/59 49/76/60 48/77/61
f 49/76/60 45/75/59 46/78/62 50/79/63
f 50/79/63 46/78/62 47/82/57 51/83/64
f 51/5/64 47/6/57 43/2/56 60/1/65
f 48/77/61 49/76/60 53/80/66 52/81/67
f 53/80/66 49/76/60 50/79/63 54/84/68
f 54/84/68 50/79/63 51/83/64 55/87/69
f 55/12/69 51/5/64 60/1/65 61/9/70
f 52/81/67 53/80/66 57/85/71 56/86/72
f 57/85/71 53/80/66 54/84/68 58/88/73
f 58/88/73 54/84/68 55/87/69 59/91/74
f 59/18/74 55/12/69 61/9/70 62/16/75
f 56/86/72 57/85/71 2/89/76 1/90/77
f 3/92/78 2/89/76 57/85/71 58/88/73
f 4/93/10 3/92/78 58/88/73 59/91/74
f 10/26/11 4/27/10 59/18/74 62/16/75
f 60/1/65 43/2/56 37/3/79 63/4/80
f 61/9/70 60/1/65 63/4/80 64/10/81
f 62/16/75 61/9/70 64/10/81 65/17/82
f 15/25/83 10/26/11 62/16/75 65/17/82
f 63/4/80 37/3/79 31/7/37 66/8/84
f 64/10/81 63/4/80 66/8/84 67/15/85
f 65/17/82 64/10/81 67/15/85 68/24/86
f 20/31/27 15/25/83 65/17/82 68/24/86
f 66/8/84 31/7/37 26/13/36 69/14/87
f 67/15/85 66/8/84 69/14/87 70/23/88
f 68/24/86 67/15/85 70/23/88 71/30/89
f 20/31/27 68/24/86 71/30/89 22/34/29
f 48/49/61 72/41/90 38/44/91 44/50/58
f 52/54/67 73/45/92 72/41/90 48/49/61
f 56/59/72 74/51/93 73/45/92 52/54/67
f 1/62/77 5/56/94 74/51/93 56/59/72
f 72/41/90 75/42/95 32/43/96 38/44/91
f 73/45/92 76/46/97 75/42/95 72/41/90
f 74/51/93 77/52/98 76/46/97 73/45/92
f 5/56/94 11/57/99 77/52/98 74/51/93
f 75/42/95 78/47/100 27/48/101 32/43/96
f 76/46/97 79/53/102 78/47/100 75/42/95
f 77/52/98 80/58/103 79/53/102 76/46/97
f 11/57/99 16/61/104 80/58/103 77/52/98
f 78/47/100 23/55/105 27/48/101
f 79/53/102 81/60/106 23/55/105 78/47/100
f 80/58/103 17/63/107 81/60/106 79/53/102
f 16/61/104 17/63/107 80/58/103
f 23/99/105 83/100/108 24/101/109
f 81/94/106 17/95/107 84/96/110 82/97/111
f 23/99/105 81/94/106 82/97/111 83/100/108
f 84/96/110 17/95/107 18/98/112
f 18/164/25 21/165/28 86/166/113 85/167/114
f 21/38/28 22/34/29 87/37/115 86/39/113
f 25/133/34 24/129/32 88/135/116 89/136/117
f 26/13/36 25/19/34 89/28/117 90/21/118
f 69/14/87 26/13/36 90/21/118 91/22/119
f 70/23/88 69/14/87 91/22/119 92/29/120
f 71/30/89 70/23/88 92/29/120 93/33/121
f 22/34/29 71/30/89 93/33/121 87/37/115
f 24/72/32 83/70/122 94/71/123 88/73/116
f 82/64/124 84/65/125 96/66/126 95/67/127
f 83/70/122 82/64/124 95/67/127 94/71/123
f 84/65/125 18/68/25 85/69/114 96/66/126
