# This file uses centimeters as units for non-parametric coordinates.

mtllib right_wrist_link.mtl
v -0.026797 -0.041515 -0.014589
v -0.021855 -0.041510 -0.014591
v 0.021675 -0.041468 -0.014498
v 0.021855 -0.041510 -0.014591
v 0.026797 -0.041500 -0.014596
v -0.027067 -0.046429 -0.011015
v -0.021675 -0.046425 -0.011022
v 0.021572 -0.046296 -0.010897
v 0.021675 -0.046425 -0.011022
v 0.027067 -0.046420 -0.011024
v -0.028663 -0.049450 0.000005
v -0.021550 -0.050500 -0.000000
v 0.021550 -0.050500 -0.000000
v 0.028663 -0.049450 -0.000005
v -0.027067 -0.046420 0.011024
v -0.021675 -0.046425 0.011022
v -0.021572 -0.046296 0.010897
v 0.021675 -0.046425 0.011022
v 0.027067 -0.046429 0.011014
v -0.026797 -0.041500 0.014596
v -0.021855 -0.041510 0.014591
v -0.021675 -0.041468 0.014498
v 0.021855 -0.041510 0.014591
v 0.026797 -0.041515 0.014589
v -0.026846 -0.035584 0.015967
v -0.021855 -0.035574 0.015968
v 0.021855 -0.035574 0.015968
v 0.026846 -0.035584 0.015967
v -0.026869 -0.021520 0.016554
v -0.019187 -0.013879 0.020330
v 0.000000 -0.013843 0.020409
v 0.019186 -0.013879 0.020328
v 0.026872 -0.021513 0.016554
v -0.023185 -0.009352 0.022718
v -0.014568 -0.007499 0.028357
v -0.000016 -0.007263 0.031369
v 0.014574 -0.007501 0.028351
v 0.023204 -0.009352 0.022701
v -0.023028 0.003593 0.023028
v -0.013901 0.003593 0.029006
v 0.000000 0.003593 0.031645
v 0.013998 0.003593 0.028547
v 0.023028 0.003593 0.023028
v -0.029006 0.003593 0.013901
v 0.000166 0.003593 -0.000982
v 0.029006 0.003593 0.013901
v -0.031645 0.003593 0.000000
v 0.031645 0.003593 0.000000
v -0.029006 0.003593 -0.013901
v 0.029006 0.003593 -0.013901
v -0.023028 0.003593 -0.023028
v -0.013833 0.003593 -0.028542
v 0.000000 0.003593 -0.031645
v 0.013922 0.003593 -0.028793
v 0.023028 0.003593 -0.023028
v -0.023206 -0.009353 -0.022700
v -0.014574 -0.007501 -0.028351
v 0.000016 -0.007263 -0.031369
v 0.014568 -0.007499 -0.028357
v 0.023185 -0.009352 -0.022718
v -0.026872 -0.021513 -0.016554
v -0.018872 -0.013502 -0.021170
v -0.000000 -0.013466 -0.021251
v 0.018873 -0.013501 -0.021171
v 0.026869 -0.021520 -0.016554
v -0.026846 -0.035584 -0.015967
v -0.021855 -0.035574 -0.015968
v 0.021855 -0.035574 -0.015968
v 0.026846 -0.035584 -0.015967
v 0.029147 -0.009558 -0.014330
v 0.028947 -0.023347 -0.014629
v 0.028702 -0.036648 -0.014185
v 0.032519 -0.009525 -0.000000
v 0.032435 -0.023349 0.000000
v 0.032039 -0.037027 -0.000000
v 0.029149 -0.009559 0.014328
v 0.028947 -0.023348 0.014629
v 0.028702 -0.036647 0.014185
v -0.029149 -0.009559 -0.014327
v -0.028947 -0.023348 -0.014629
v -0.028702 -0.036647 -0.014185
v -0.032519 -0.009525 -0.000000
v -0.032435 -0.023349 0.000000
v -0.032039 -0.037027 -0.000000
v -0.029147 -0.009558 0.014330
v -0.028947 -0.023347 0.014629
v -0.028702 -0.036648 0.014185
vt 0.637640 0.098121
vt 0.637745 0.098010
vt 0.641035 0.107803
vt 0.633742 0.094922
vt 0.633776 0.094839
vt 0.341551 0.955657
vt 0.351427 0.956011
vt 0.351427 0.967500
vt 0.341575 0.967500
vt 0.341705 0.948724
vt 0.351427 0.948468
vt 0.351427 0.978988
vt 0.341550 0.979342
vt 0.331194 0.955410
vt 0.331193 0.967500
vt 0.351427 0.943703
vt 0.343097 0.944064
vt 0.332566 0.953819
vt 0.351427 0.986531
vt 0.341705 0.986262
vt 0.331194 0.979590
vt 0.321205 0.955776
vt 0.320921 0.967500
vt 0.322004 0.954304
vt 0.343095 0.990931
vt 0.351427 0.991093
vt 0.332572 0.981181
vt 0.321206 0.979223
vt 0.313866 0.958389
vt 0.311590 0.967496
vt 0.317561 0.955437
vt 0.322004 0.980696
vt 0.313859 0.976603
vt 0.317549 0.979557
vt 0.623180 0.291003
vt 0.633058 0.290651
vt 0.633032 0.302492
vt 0.623180 0.302492
vt 0.623180 0.283459
vt 0.632903 0.283730
vt 0.643414 0.290401
vt 0.643415 0.302492
vt 0.633057 0.314336
vt 0.623180 0.313981
vt 0.623180 0.278902
vt 0.631512 0.279060
vt 0.642036 0.288810
vt 0.653402 0.290768
vt 0.653688 0.302492
vt 0.643413 0.314582
vt 0.632902 0.321268
vt 0.623180 0.321524
vt 0.652604 0.289295
vt 0.660750 0.293388
vt 0.663019 0.302496
vt 0.653403 0.314216
vt 0.642042 0.316174
vt 0.631510 0.325928
vt 0.623180 0.326465
vt 0.657059 0.290434
vt 0.660743 0.311603
vt 0.652604 0.315688
vt 0.657048 0.314555
vt 0.067222 0.991473
vt 0.067214 0.987228
vt 0.071847 0.987228
vt 0.071839 0.991515
vt 0.063382 0.991705
vt 0.063378 0.987074
vt 0.088781 0.984937
vt 0.082817 0.991535
vt 0.063478 0.986986
vt 0.067247 0.987074
vt 0.093761 0.980970
vt 0.092314 0.988371
vt 0.088809 0.968457
vt 0.093945 0.968471
vt 0.088781 0.951978
vt 0.093759 0.955939
vt 0.102418 0.968457
vt 0.102418 0.980397
vt 0.082822 0.945376
vt 0.092314 0.948527
vt 0.102418 0.956434
vt 0.071847 0.949686
vt 0.071839 0.945399
vt 0.067214 0.949686
vt 0.067210 0.945441
vt 0.063378 0.949840
vt 0.063374 0.945209
vt 0.427776 0.983343
vt 0.427776 0.971542
vt 0.436192 0.971528
vt 0.436377 0.983975
vt 0.427776 0.959666
vt 0.436375 0.959114
vt 0.441001 0.971542
vt 0.441029 0.987642
vt 0.441028 0.955442
vt 0.437812 0.991340
vt 0.447239 0.994467
vt 0.437811 0.951763
vt 0.447245 0.948620
vt 0.458140 0.990187
vt 0.458148 0.994445
vt 0.458148 0.948640
vt 0.458140 0.952898
vt 0.462742 0.990187
vt 0.462746 0.994403
vt 0.462734 0.948682
vt 0.462742 0.952898
vt 0.466552 0.990033
vt 0.466556 0.994633
vt 0.466548 0.948451
vt 0.466552 0.953051
vt 0.370839 0.064822
vt 0.374741 0.064816
vt 0.374832 0.073595
vt 0.369683 0.073599
vt 0.374741 0.082374
vt 0.370839 0.082376
vt 0.919017 0.000397
vt 0.922919 0.000395
vt 0.924075 0.009172
vt 0.918926 0.009176
vt 0.922919 0.017949
vt 0.919017 0.017955
vt 0.021905 0.632206
vt 0.017700 0.625140
vt 0.038795 0.614251
vt 0.028325 0.636833
vt 0.015844 0.614380
vt 0.038104 0.638876
vt 0.018023 0.603544
vt 0.047882 0.636833
vt 0.021905 0.596554
vt 0.028325 0.591927
vt 0.058181 0.625088
vt 0.054303 0.632206
vt 0.038104 0.589884
vt 0.060364 0.614380
vt 0.047882 0.591927
vt 0.058358 0.603603
vt 0.054303 0.596554
vn -0.000131 -0.420925 -0.907095
vn -0.000131 -0.420283 -0.907393
vn -0.058394 -0.876610 -0.477645
vn -0.059839 -0.882150 -0.467151
vn -0.700582 -0.409666 -0.584259
vn -0.700582 -0.409666 -0.584259
vn -0.784878 -0.456408 -0.419116
vn -0.796056 -0.462532 -0.390332
vn 0.000029 -0.420476 -0.907304
vn 0.000029 -0.420347 -0.907363
vn 0.059990 -0.881765 -0.467858
vn 0.058639 -0.876589 -0.477654
vn -0.083748 -0.996487 0.000102
vn -0.083748 -0.996487 0.000402
vn -0.849742 -0.491284 -0.191258
vn 0.083749 -0.996487 -0.000402
vn 0.083749 -0.996487 -0.000101
vn -0.058637 -0.876589 0.477655
vn -0.059988 -0.881765 0.467858
vn 0.059838 -0.882151 0.467150
vn 0.058393 -0.876610 0.477645
vn -0.000029 -0.420477 0.907303
vn -0.000029 -0.420349 0.907363
vn 0.700499 -0.409713 0.584325
vn 0.700499 -0.409713 0.584325
vn 0.700499 -0.409713 0.584325
vn 0.700499 -0.409713 0.584325
vn 0.000130 -0.420927 0.907095
vn 0.000130 -0.420284 0.907393
vn -0.174654 -0.140283 0.974585
vn -0.337618 -0.128366 0.932489
vn 0.337588 -0.128475 0.932485
vn 0.174584 -0.140325 0.974592
vn -0.115785 -0.639334 0.760162
vn -0.499394 -0.112527 0.859036
vn 0.499215 -0.112660 0.859123
vn 0.116324 -0.638931 0.760419
vn -0.243155 -0.458597 0.854731
vn -0.627727 -0.149804 0.763883
vn 0.000057 -0.820708 0.571347
vn -0.000023 -0.820708 0.571347
vn 0.241761 -0.451697 0.858791
vn 0.625313 -0.146495 0.766501
vn -0.348420 -0.027095 0.936947
vn -0.703918 -0.000977 0.710281
vn 0.008055 -0.025992 0.999630
vn 0.008384 -0.025976 0.999627
vn 0.351494 -0.009950 0.936137
vn 0.699732 0.005639 0.714383
vn -0.000001 1.000000 -0.000000
vn 0.000001 1.000000 0.000000
vn -0.000000 1.000000 0.000000
vn -0.000000 1.000000 -0.000000
vn 0.000001 1.000000 0.000001
vn -0.000001 1.000000 0.000000
vn -0.000000 1.000000 0.000000
vn 0.000000 1.000000 -0.000000
vn -0.000000 1.000000 -0.000000
vn 0.000000 1.000000 -0.000000
vn -0.000000 1.000000 0.000000
vn 0.000000 1.000000 0.000000
vn 0.000000 1.000000 0.000000
vn -0.000000 1.000000 0.000001
vn -0.000000 1.000000 -0.000001
vn -0.000000 1.000000 0.000000
vn 0.000001 1.000000 0.000001
vn -0.697857 0.007477 -0.716198
vn -0.350217 -0.007282 -0.936640
vn -0.252806 -0.422686 -0.870302
vn -0.634088 -0.131675 -0.761968
vn -0.004754 -0.020199 -0.999785
vn -0.004398 -0.020210 -0.999786
vn 0.349771 -0.018593 -0.936651
vn 0.252883 -0.427665 -0.867844
vn 0.701817 0.002327 -0.712353
vn 0.636075 -0.134633 -0.759791
vn -0.151660 -0.609675 -0.778007
vn -0.515807 -0.115316 -0.848908
vn 0.000026 -0.811564 -0.584263
vn -0.000064 -0.811564 -0.584263
vn 0.151146 -0.610094 -0.777779
vn 0.515949 -0.115169 -0.848842
vn -0.209792 -0.151175 -0.965988
vn -0.358050 -0.136231 -0.923710
vn 0.358073 -0.136122 -0.923718
vn 0.209868 -0.151134 -0.965978
vn 0.931853 0.029663 -0.361620
vn 0.934178 0.008215 -0.356711
vn 0.943758 -0.021106 -0.329961
vn 0.949565 -0.112682 -0.292624
vn 0.768877 -0.252301 -0.587513
vn 0.942700 -0.244939 -0.226541
vn 0.999112 0.042139 -0.000031
vn 0.999869 0.016191 -0.000032
vn 0.999846 -0.017535 -0.000019
vn 0.992559 -0.121766 0.000021
vn 0.968150 -0.250373 0.000010
vn 0.931925 0.029811 0.361425
vn 0.934292 0.008292 0.356412
vn 0.943828 -0.021129 0.329759
vn 0.949571 -0.112727 0.292586
vn 0.942698 -0.245005 0.226478
vn 0.769195 -0.252398 0.587055
vn -0.934311 0.008303 -0.356363
vn -0.931931 0.029833 -0.361407
vn -0.943832 -0.021133 -0.329750
vn -0.949571 -0.112727 -0.292587
vn -0.769195 -0.252398 -0.587055
vn -0.942698 -0.245005 -0.226479
vn -0.999869 0.016192 0.000042
vn -0.999111 0.042145 0.000041
vn -0.999846 -0.017537 0.000026
vn -0.992559 -0.121766 -0.000021
vn -0.968150 -0.250373 -0.000010
vn -0.934178 0.008215 0.356712
vn -0.931853 0.029663 0.361620
vn -0.943758 -0.021107 0.329961
vn -0.949565 -0.112682 0.292625
vn -0.942700 -0.244939 0.226542
vn -0.768877 -0.252301 0.587514
s 1
usemtl M_sprout_SG
f 1/109/1 2/108/2 7/112/3 6/113/4
s 2
f 3/4/5 4/5/6 9/2/7 8/1/8
s 1
f 4/111/9 5/110/10 10/114/11 9/115/12
f 6/116/4 7/117/3 12/118/13 11/119/14
s 2
f 8/1/8 9/2/7 13/3/15
s 1
f 9/122/12 10/123/11 14/124/16 13/125/17
f 11/119/14 12/118/13 16/120/18 15/121/19
f 13/125/17 14/124/16 19/126/20 18/127/21
f 15/68/19 16/69/18 21/65/22 20/64/23
s off
f 16/69/24 17/72/25 22/73/26 21/65/27
s 1
f 18/89/21 19/90/20 24/88/28 23/87/29
f 20/64/23 21/65/22 26/66/30 25/67/31
f 23/87/29 24/88/28 28/86/32 27/85/33
f 25/67/31 26/66/30 30/70/34 29/71/35
f 27/85/33 28/86/32 33/82/36 32/78/37
f 29/71/35 30/70/34 35/74/38 34/75/39
f 30/70/34 31/76/40 36/77/41 35/74/38
f 31/76/40 32/78/37 37/79/42 36/77/41
f 32/78/37 33/82/36 38/83/43 37/79/42
f 34/51/39 35/58/38 40/59/44 39/52/45
f 35/74/38 36/77/46 41/80/47 40/81/44
f 36/77/46 37/79/42 42/84/48 41/80/47
f 37/25/42 38/20/43 43/19/49 42/26/48
s 4
f 39/128/50 40/129/51 45/130/52 44/131/53
f 40/129/51 41/132/54 45/130/52
f 41/132/54 42/134/55 45/130/52
f 42/134/55 43/136/56 46/137/57 45/130/52
f 44/131/53 45/130/52 47/133/58
f 45/130/52 46/137/57 48/140/59
f 47/133/58 45/130/52 49/135/60
f 45/130/52 48/140/59 50/142/61
f 49/135/60 45/130/52 52/138/62 51/139/63
f 45/130/52 53/141/64 52/138/62
f 45/130/52 54/143/65 53/141/64
f 45/130/52 50/142/61 55/144/66 54/143/65
s 1
f 51/39/67 52/45/68 57/46/69 56/40/70
f 52/91/68 53/92/71 58/93/72 57/94/69
f 53/92/71 54/95/73 59/96/74 58/93/72
f 54/16/73 55/11/75 60/10/76 59/17/74
f 56/100/70 57/94/69 62/98/77 61/101/78
f 57/94/69 58/93/79 63/97/80 62/98/77
f 58/93/79 59/96/74 64/99/81 63/97/80
f 59/96/74 60/102/76 65/103/82 64/99/81
f 61/101/78 62/98/77 67/104/83 66/105/84
f 64/99/81 65/103/82 69/106/85 68/107/86
f 66/105/84 67/104/83 2/108/2 1/109/1
f 68/107/86 69/106/85 5/110/10 4/111/9
f 60/10/76 55/11/75 50/7/87 70/6/88
f 65/18/82 60/10/76 70/6/88 71/14/89
f 69/24/85 65/18/82 71/14/89 72/22/90
f 5/31/91 69/24/85 72/22/90 10/29/92
f 70/6/88 50/7/87 48/8/93 73/9/94
f 71/14/89 70/6/88 73/9/94 74/15/95
f 72/22/90 71/14/89 74/15/95 75/23/96
f 10/29/92 72/22/90 75/23/96 14/30/97
f 73/9/94 48/8/93 46/12/98 76/13/99
f 74/15/95 73/9/94 76/13/99 77/21/100
f 75/23/96 74/15/95 77/21/100 78/28/101
f 14/30/97 75/23/96 78/28/101 19/33/102
f 76/13/99 46/12/98 43/19/49 38/20/43
f 77/21/100 76/13/99 38/20/43 33/27/36
f 78/28/101 77/21/100 33/27/36 28/32/32
f 19/33/102 78/28/101 28/32/32 24/34/103
f 51/39/67 56/40/70 79/36/104 49/35/105
f 56/40/70 61/47/78 80/41/106 79/36/104
f 61/47/78 66/53/84 81/48/107 80/41/106
f 66/53/84 1/60/108 6/54/109 81/48/107
f 49/35/105 79/36/104 82/37/110 47/38/111
f 79/36/104 80/41/106 83/42/112 82/37/110
f 80/41/106 81/48/107 84/49/113 83/42/112
f 81/48/107 6/54/109 11/55/114 84/49/113
f 47/38/111 82/37/110 85/43/115 44/44/116
f 82/37/110 83/42/112 86/50/117 85/43/115
f 83/42/112 84/49/113 87/56/118 86/50/117
f 84/49/113 11/55/114 15/61/119 87/56/118
f 44/44/116 85/43/115 34/51/39 39/52/45
f 85/43/115 86/50/117 29/57/35 34/51/39
f 86/50/117 87/56/118 25/62/31 29/57/35
f 87/56/118 15/61/119 20/63/120 25/62/31
