# This file uses centimeters as units for non-parametric coordinates.

mtllib right_tibia_link.mtl
v -0.032677 -0.058242 -0.255677
v -0.024862 -0.059091 -0.259889
v -0.015140 -0.059051 -0.265179
v 0.015038 -0.059056 -0.265221
v 0.025703 -0.059100 -0.259368
v 0.032677 -0.058242 -0.255677
v -0.037839 -0.059083 -0.246377
v -0.032923 -0.059052 -0.253509
v -0.017372 -0.059100 -0.255037
v 0.017361 -0.059100 -0.255044
v 0.032880 -0.059048 -0.253546
v 0.037801 -0.059098 -0.246545
v -0.043067 -0.059087 -0.234414
v -0.034326 -0.059100 -0.236443
v -0.029221 -0.059100 -0.244586
v 0.029216 -0.059100 -0.244593
v 0.034325 -0.059100 -0.236446
v 0.042998 -0.059074 -0.234503
v -0.044510 -0.059069 -0.219212
v -0.035990 -0.059100 -0.217923
v -0.035350 -0.059100 -0.214703
v 0.035349 -0.059100 -0.214700
v 0.035990 -0.059100 -0.217920
v 0.044495 -0.059061 -0.219298
v -0.042271 -0.058747 -0.205491
v -0.033666 -0.059100 -0.200460
v -0.021389 -0.059100 -0.193647
v 0.021378 -0.059100 -0.193640
v 0.033650 -0.059100 -0.200460
v 0.042271 -0.058747 -0.205491
v -0.033656 -0.060299 -0.180989
v -0.028642 -0.063286 -0.179261
v -0.017827 -0.065219 -0.174934
v 0.016875 -0.063840 -0.174654
v 0.028569 -0.060537 -0.178231
v 0.033374 -0.057252 -0.180083
v -0.033726 -0.060070 -0.164795
v -0.028603 -0.063373 -0.164582
v -0.016768 -0.065421 -0.164595
v 0.015382 -0.064074 -0.164719
v 0.027032 -0.061231 -0.164533
v 0.033236 -0.057425 -0.164589
v -0.029934 -0.062360 -0.153704
v -0.026999 -0.063598 -0.148207
v -0.016440 -0.065441 -0.146684
v 0.015368 -0.063936 -0.146795
v 0.027059 -0.061300 -0.146607
v 0.032933 -0.057693 -0.146673
v -0.023731 -0.058924 -0.117237
v -0.019668 -0.063034 -0.114121
v -0.014332 -0.065433 -0.111368
v 0.015578 -0.063567 -0.111021
v 0.025120 -0.062204 -0.110917
v 0.032326 -0.058228 -0.110840
v -0.016229 -0.058063 -0.083283
v -0.014963 -0.059442 -0.081711
v -0.010410 -0.062691 -0.078124
v 0.015157 -0.061361 -0.076815
v 0.023841 -0.059792 -0.077903
v 0.032193 -0.055791 -0.078018
v -0.032877 -0.065305 -0.036304
v -0.025025 -0.068515 -0.040889
v -0.012981 -0.071428 -0.044346
v 0.013025 -0.071276 -0.044541
v 0.028326 -0.064017 -0.046583
v 0.029190 -0.063759 -0.046145
v -0.037523 -0.069540 -0.028895
v -0.029106 -0.074757 -0.033574
v -0.016800 -0.078087 -0.039062
v 0.016785 -0.078090 -0.039062
v 0.029230 -0.074573 -0.033743
v 0.037609 -0.069595 -0.028568
v -0.042098 -0.073523 -0.016835
v -0.033666 -0.078295 -0.021204
v -0.016837 -0.078295 -0.021204
v 0.016821 -0.078295 -0.021204
v 0.033650 -0.078295 -0.021204
v 0.041646 -0.073742 -0.017160
v -0.044304 -0.075039 -0.002669
v -0.033666 -0.078295 -0.003279
v -0.016837 -0.078295 -0.003279
v 0.016821 -0.078295 -0.003279
v 0.033650 -0.078295 -0.003279
v 0.044149 -0.075188 -0.002655
v -0.043103 -0.074164 0.012404
v -0.033666 -0.078295 0.014647
v -0.016837 -0.078295 0.014647
v 0.016821 -0.078295 0.014647
v 0.033650 -0.078295 0.014647
v 0.042938 -0.074313 0.012359
v -0.038211 -0.071586 0.025884
v -0.031234 -0.076608 0.030577
v -0.016837 -0.078295 0.032572
v 0.016821 -0.078295 0.032572
v 0.031210 -0.076636 0.030569
v 0.038809 -0.071723 0.024678
v -0.034946 -0.067317 0.033152
v -0.025325 -0.071053 0.039152
v -0.014435 -0.073942 0.042579
v 0.014344 -0.074175 0.042332
v 0.025025 -0.071461 0.038784
v 0.035164 -0.066655 0.034016
v -0.034893 -0.060233 0.036188
v -0.027366 -0.060175 0.042108
v -0.015935 -0.060123 0.047441
v 0.015664 -0.060132 0.047704
v 0.028353 -0.060128 0.041305
v 0.036388 -0.060632 0.035013
v -0.036049 -0.007967 0.034339
v -0.026672 -0.008025 0.042627
v -0.015456 -0.008067 0.047125
v 0.015742 -0.008067 0.046922
v 0.027099 -0.008025 0.041586
v 0.036278 -0.007967 0.034927
v -0.034953 -0.001386 0.033152
v -0.025326 0.002353 0.039152
v -0.014435 0.005241 0.042581
v 0.014346 0.005469 0.042339
v 0.025047 0.002762 0.038766
v 0.035106 -0.002058 0.034087
v -0.038216 0.002886 0.025874
v -0.031234 0.007908 0.030577
v -0.016837 0.009595 0.032572
v 0.016821 0.009595 0.032572
v 0.031209 0.007938 0.030569
v 0.038833 0.003022 0.024651
v -0.043102 0.005465 0.012404
v -0.033666 0.009595 0.014647
v -0.016837 0.009595 0.014647
v 0.016821 0.009595 0.014647
v 0.033650 0.009595 0.014647
v 0.042931 0.005620 0.012357
v -0.044302 0.006341 -0.002669
v -0.033666 0.009595 -0.003279
v -0.016837 0.009595 -0.003279
v 0.016821 0.009595 -0.003279
v 0.033650 0.009595 -0.003279
v 0.044159 0.006478 -0.002656
v -0.042103 0.004833 -0.016805
v -0.033666 0.009595 -0.021204
v -0.016837 0.009595 -0.021204
v 0.016821 0.009595 -0.021204
v 0.033650 0.009595 -0.021204
v 0.041627 0.005044 -0.017195
v -0.037578 0.000817 -0.028846
v -0.029112 0.006048 -0.033580
v -0.016800 0.009387 -0.039061
v 0.016785 0.009389 -0.039062
v 0.029253 0.005842 -0.033772
v 0.037594 0.000909 -0.028555
v -0.032810 -0.003383 -0.036350
v -0.025021 -0.000179 -0.040881
v -0.012999 0.002680 -0.044404
v 0.014975 -0.003550 -0.051092
v 0.028320 -0.004183 -0.046586
v 0.029209 -0.004598 -0.046315
v -0.016405 -0.010452 -0.083242
v -0.014958 -0.008806 -0.081564
v -0.010402 -0.005522 -0.078048
v 0.015206 -0.006850 -0.076762
v 0.024044 -0.008525 -0.077843
v 0.032194 -0.012419 -0.077949
v -0.023958 -0.009608 -0.117182
v -0.019675 -0.005167 -0.114144
v -0.014333 -0.002767 -0.111371
v 0.015620 -0.004637 -0.111015
v 0.025327 -0.006106 -0.110914
v 0.032326 -0.009972 -0.110847
v -0.031121 -0.008228 -0.150604
v -0.027013 -0.004604 -0.148240
v -0.016456 -0.002760 -0.146683
v 0.015419 -0.004269 -0.146791
v 0.027228 -0.006965 -0.146609
v 0.032933 -0.010507 -0.146680
v -0.033975 -0.008360 -0.164792
v -0.028603 -0.004827 -0.164586
v -0.016771 -0.002779 -0.177378
v 0.015432 -0.004132 -0.177497
v 0.027201 -0.007035 -0.177316
v 0.033236 -0.010775 -0.177379
v -0.033656 -0.007901 -0.180989
v -0.028642 -0.004914 -0.179261
v -0.014430 0.002970 -0.188162
v 0.014430 0.002970 -0.188162
v 0.025466 0.000010 -0.192508
v 0.031904 -0.001250 -0.197779
v -0.037679 -0.001205 -0.207307
v -0.030794 0.003488 -0.202424
v -0.016837 0.003900 -0.200460
v 0.016821 0.003900 -0.200460
v 0.030786 0.003493 -0.202430
v 0.037671 -0.001195 -0.207306
v -0.038889 0.000931 -0.219529
v -0.033666 0.003900 -0.218386
v -0.016837 0.003900 -0.218386
v 0.016821 0.003900 -0.218386
v 0.033650 0.003900 -0.218386
v 0.038883 0.000938 -0.219528
v -0.038422 0.000222 -0.232649
v -0.033245 0.003879 -0.236184
v -0.016837 0.003900 -0.236311
v 0.016821 0.003900 -0.236311
v 0.033230 0.003880 -0.236184
v 0.038415 0.000229 -0.232652
v -0.034095 -0.001250 -0.245471
v -0.027239 0.002970 -0.248962
v -0.016780 0.003900 -0.254131
v 0.016768 0.003900 -0.254137
v 0.027233 0.002970 -0.248970
v 0.034092 -0.001250 -0.245477
v -0.032677 -0.009958 -0.255677
v -0.022700 -0.001250 -0.256973
v -0.013222 0.000343 -0.260244
v 0.013207 0.000345 -0.260247
v 0.022700 -0.001250 -0.256973
v 0.032677 -0.009958 -0.255677
v -0.034748 -0.028608 -0.257610
v -0.027289 -0.027463 -0.263356
v -0.015897 -0.026156 -0.268831
v 0.015450 -0.026124 -0.269195
v 0.028272 -0.026980 -0.262582
v 0.034040 -0.028436 -0.257797
v -0.034697 -0.040082 -0.257563
v -0.027239 -0.041223 -0.263288
v -0.015874 -0.042530 -0.268751
v 0.015415 -0.042562 -0.269119
v 0.028240 -0.041711 -0.262527
v 0.033991 -0.040256 -0.257755
v 0.041355 -0.027219 -0.249182
v 0.041262 -0.041462 -0.249192
v 0.047094 -0.026051 -0.234970
v 0.047032 -0.042641 -0.234946
v 0.048342 -0.025855 -0.218309
v 0.048274 -0.042836 -0.218306
v 0.044076 -0.026506 -0.202476
v 0.044011 -0.042184 -0.202497
v 0.040702 -0.026605 -0.182521
v 0.040649 -0.042089 -0.182521
v 0.040726 -0.026603 -0.177378
v 0.040673 -0.042092 -0.164596
v 0.040750 -0.026600 -0.146670
v 0.040697 -0.042094 -0.146670
v 0.040798 -0.026595 -0.110819
v 0.040746 -0.042100 -0.110819
v 0.039417 -0.026773 -0.075721
v 0.039363 -0.041921 -0.075725
v 0.035776 -0.026053 -0.056769
v 0.036167 -0.040500 -0.057056
v 0.036135 -0.027462 -0.040735
v 0.036167 -0.040500 -0.040708
v 0.045690 -0.008067 -0.019027
v 0.045995 -0.060124 -0.018986
v 0.049147 -0.008100 -0.003172
v 0.049750 -0.060124 -0.003219
v 0.047432 -0.008081 0.013852
v 0.048012 -0.060129 0.014140
v 0.041788 -0.008025 0.026677
v 0.041682 -0.060126 0.027619
v -0.041451 -0.027307 -0.248533
v -0.041384 -0.041380 -0.248490
v -0.046919 -0.026218 -0.235445
v -0.046835 -0.042467 -0.235425
v -0.048322 -0.025954 -0.218638
v -0.048235 -0.042730 -0.218648
v -0.044631 -0.026748 -0.203429
v -0.044553 -0.041936 -0.203469
v -0.043405 -0.026627 -0.182481
v -0.043331 -0.042062 -0.182481
v -0.043206 -0.026071 -0.168500
v -0.043141 -0.042613 -0.168440
v -0.038217 -0.026961 -0.149645
v -0.038164 -0.041733 -0.149657
v -0.030176 -0.028164 -0.115763
v -0.030116 -0.040529 -0.115777
v -0.022085 -0.029200 -0.081875
v -0.022026 -0.039492 -0.081889
v -0.033268 -0.007892 -0.036918
v -0.034330 -0.060308 -0.036959
v -0.038698 -0.008025 -0.032111
v -0.040347 -0.060175 -0.030049
v -0.046273 -0.008067 -0.018774
v -0.046107 -0.060115 -0.019445
v -0.049498 -0.008100 -0.003096
v -0.049714 -0.060108 -0.003138
v -0.047819 -0.008067 0.014216
v -0.048241 -0.060133 0.013988
v -0.041393 -0.008025 0.027594
v -0.042032 -0.060175 0.027285
vt 0.195243 0.269330
vt 0.194302 0.258164
vt 0.215223 0.261075
vt 0.216415 0.271152
vt 0.182827 0.258156
vt 0.181878 0.269349
vt 0.193322 0.251395
vt 0.208208 0.253061
vt 0.219356 0.268376
vt 0.218623 0.258331
vt 0.195401 0.282421
vt 0.216986 0.281463
vt 0.183799 0.251429
vt 0.181721 0.282422
vt 0.168639 0.269697
vt 0.168620 0.260236
vt 0.215223 0.252043
vt 0.219372 0.282360
vt 0.194876 0.294860
vt 0.215268 0.291065
vt 0.194494 0.247636
vt 0.182627 0.247680
vt 0.169309 0.253061
vt 0.182246 0.294844
vt 0.168650 0.281644
vt 0.219045 0.294896
vt 0.194797 0.310538
vt 0.215223 0.298550
vt 0.168618 0.250161
vt 0.182322 0.310538
vt 0.168903 0.292491
vt 0.216238 0.302692
vt 0.194799 0.314579
vt 0.207550 0.314578
vt 0.182320 0.324622
vt 0.170107 0.312454
vt 0.194801 0.338705
vt 0.207765 0.338697
vt 0.182318 0.338705
vt 0.169968 0.324627
vt 0.210619 0.338753
vt 0.210563 0.314627
vt 0.194805 0.366872
vt 0.208197 0.366850
vt 0.182314 0.366873
vt 0.169752 0.338703
vt 0.167460 0.313908
vt 0.166902 0.324671
vt 0.211311 0.366798
vt 0.194661 0.394448
vt 0.206225 0.392697
vt 0.182458 0.394445
vt 0.169321 0.366856
vt 0.166846 0.338755
vt 0.195241 0.409338
vt 0.212526 0.417552
vt 0.183603 0.409113
vt 0.171284 0.392644
vt 0.166118 0.366796
vt 0.194106 0.421936
vt 0.216963 0.431505
vt 0.183603 0.421957
vt 0.164865 0.417686
vt 0.220937 0.427406
vt 0.212861 0.417339
vt 0.209732 0.438991
vt 0.220294 0.440430
vt 0.167794 0.439024
vt 0.160164 0.431495
vt 0.223960 0.437281
vt 0.209705 0.451449
vt 0.221449 0.451853
vt 0.167793 0.451411
vt 0.156822 0.440459
vt 0.164657 0.417341
vt 0.156153 0.427429
vt 0.209720 0.464823
vt 0.220758 0.463649
vt 0.167789 0.465050
vt 0.155657 0.451854
vt 0.153154 0.437281
vt 0.209765 0.474900
vt 0.218664 0.473308
vt 0.167792 0.475640
vt 0.156362 0.463651
vt 0.222625 0.477957
vt 0.223960 0.465448
vt 0.214573 0.480722
vt 0.209812 0.481381
vt 0.167384 0.481450
vt 0.158449 0.473329
vt 0.218455 0.484398
vt 0.209765 0.486614
vt 0.167790 0.486393
vt 0.162532 0.480666
vt 0.153154 0.465448
vt 0.154491 0.477958
vt 0.158660 0.484412
vt 0.420696 0.223614
vt 0.427733 0.215571
vt 0.442804 0.214047
vt 0.441753 0.221202
vt 0.417286 0.220863
vt 0.420696 0.214550
vt 0.452077 0.214085
vt 0.453125 0.221235
vt 0.419507 0.233719
vt 0.440873 0.231516
vt 0.416552 0.230933
vt 0.441879 0.209519
vt 0.452998 0.209573
vt 0.466752 0.215571
vt 0.467431 0.222900
vt 0.454004 0.231532
vt 0.418934 0.244059
vt 0.440660 0.244761
vt 0.416534 0.244960
vt 0.467438 0.212251
vt 0.467434 0.232328
vt 0.454216 0.244754
vt 0.420659 0.253691
vt 0.441301 0.256747
vt 0.416868 0.257539
vt 0.467420 0.244309
vt 0.453575 0.256716
vt 0.426071 0.274432
vt 0.441204 0.273256
vt 0.423657 0.275794
vt 0.467160 0.255123
vt 0.453676 0.273257
vt 0.426442 0.287197
vt 0.440754 0.284275
vt 0.423587 0.287360
vt 0.468414 0.274432
vt 0.454122 0.284322
vt 0.426335 0.298379
vt 0.441473 0.299135
vt 0.423407 0.300242
vt 0.468228 0.287195
vt 0.453410 0.299125
vt 0.427450 0.324718
vt 0.442445 0.325837
vt 0.423862 0.327112
vt 0.470827 0.275794
vt 0.470898 0.287363
vt 0.470079 0.295935
vt 0.452437 0.325825
vt 0.428133 0.351466
vt 0.443283 0.352544
vt 0.426802 0.352789
vt 0.471080 0.300268
vt 0.467302 0.324675
vt 0.451600 0.352532
vt 0.422420 0.388422
vt 0.426064 0.387974
vt 0.424148 0.355560
vt 0.421922 0.329298
vt 0.419831 0.384850
vt 0.470624 0.327130
vt 0.466606 0.351434
vt 0.468421 0.387941
vt 0.419026 0.394335
vt 0.426171 0.391762
vt 0.414799 0.390604
vt 0.467721 0.352673
vt 0.472459 0.388458
vt 0.468313 0.393387
vt 0.415780 0.403825
vt 0.426205 0.402273
vt 0.411932 0.400358
vt 0.472562 0.329300
vt 0.470346 0.355500
vt 0.475053 0.384845
vt 0.475881 0.394297
vt 0.468265 0.401744
vt 0.414562 0.414965
vt 0.426232 0.414629
vt 0.480097 0.390610
vt 0.479100 0.403801
vt 0.468260 0.414596
vt 0.415270 0.426844
vt 0.426205 0.428272
vt 0.482956 0.400358
vt 0.480325 0.414965
vt 0.468280 0.428093
vt 0.417354 0.437460
vt 0.426171 0.438816
vt 0.479618 0.426845
vt 0.468313 0.438572
vt 0.413296 0.441166
vt 0.411932 0.428612
vt 0.426124 0.444131
vt 0.420806 0.443195
vt 0.477535 0.437468
vt 0.468360 0.445588
vt 0.417785 0.447924
vt 0.426171 0.450663
vt 0.482956 0.428612
vt 0.481593 0.441166
vt 0.474085 0.443195
vt 0.468313 0.450254
vt 0.477104 0.447924
vt 0.278521 0.484330
vt 0.281047 0.474147
vt 0.286820 0.477376
vt 0.283933 0.487781
vt 0.280915 0.452157
vt 0.286822 0.448978
vt 0.274622 0.439220
vt 0.283773 0.438455
vt 0.066746 0.743784
vt 0.065502 0.754962
vt 0.056020 0.754921
vt 0.057713 0.746121
vt 0.090616 0.743596
vt 0.091711 0.754955
vt 0.958395 0.896580
vt 0.949109 0.896614
vt 0.052812 0.741628
vt 0.064753 0.740263
vt 0.099476 0.745791
vt 0.102236 0.754958
vt 0.984223 0.896580
vt 0.959240 0.907325
vt 0.950223 0.904993
vt 0.993625 0.896614
vt 0.092671 0.740263
vt 0.104605 0.741605
vt 0.983067 0.907509
vt 0.957251 0.910840
vt 0.945332 0.909478
vt 0.991926 0.905323
vt 0.997027 0.909502
vt 0.985116 0.910840
vt 0.230032 0.507334
vt 0.227093 0.496767
vt 0.232996 0.493504
vt 0.235513 0.503823
vt 0.227091 0.467939
vt 0.238479 0.469492
vt 0.230213 0.457236
vt 0.239036 0.458038
vt 0.690648 0.977399
vt 0.711485 0.980956
vt 0.712396 0.986740
vt 0.697570 0.985134
vt 0.689382 0.970051
vt 0.710446 0.972125
vt 0.689380 0.949562
vt 0.710421 0.947823
vt 0.723463 0.972107
vt 0.722424 0.980918
vt 0.687293 0.980918
vt 0.686554 0.972809
vt 0.690648 0.942202
vt 0.711102 0.937883
vt 0.723488 0.947850
vt 0.686554 0.946801
vt 0.736596 0.971538
vt 0.736628 0.979075
vt 0.712259 0.933411
vt 0.697570 0.934467
vt 0.722812 0.937907
vt 0.687293 0.938688
vt 0.736600 0.948142
vt 0.736635 0.939874
vt 0.563455 0.282325
vt 0.569353 0.279225
vt 0.563270 0.283921
vt 0.559559 0.289170
vt 0.576690 0.275332
vt 0.575006 0.282796
vt 0.562210 0.296482
vt 0.555614 0.297975
vt 0.599466 0.275301
vt 0.601219 0.282791
vt 0.566063 0.290489
vt 0.560955 0.310113
vt 0.554524 0.309165
vt 0.607515 0.279609
vt 0.612931 0.283894
vt 0.610166 0.290483
vt 0.561438 0.312483
vt 0.562709 0.322966
vt 0.556214 0.319263
vt 0.612778 0.282325
vt 0.616645 0.289047
vt 0.614022 0.296480
vt 0.614795 0.312485
vt 0.571974 0.327981
vt 0.566500 0.338569
vt 0.562716 0.337297
vt 0.620568 0.297910
vt 0.615278 0.310115
vt 0.604251 0.327986
vt 0.574663 0.341754
vt 0.621697 0.309101
vt 0.613512 0.322966
vt 0.600852 0.341960
vt 0.575462 0.349363
vt 0.566529 0.349373
vt 0.620019 0.319263
vt 0.609678 0.339327
vt 0.599726 0.349272
vt 0.575709 0.362547
vt 0.567740 0.361426
vt 0.613304 0.337964
vt 0.608518 0.349409
vt 0.599715 0.362465
vt 0.577300 0.388539
vt 0.573273 0.386513
vt 0.608538 0.362603
vt 0.599873 0.388795
vt 0.607074 0.388872
vt 0.580260 0.413008
vt 0.599556 0.413972
vt 0.606110 0.413170
vt 0.578319 0.437869
vt 0.597946 0.437726
vt 0.612413 0.413086
vt 0.612513 0.388928
vt 0.609494 0.436223
vt 0.576824 0.410368
vt 0.569230 0.440414
vt 0.610146 0.436545
vt 0.056951 0.918227
vt 0.052812 0.909178
vt 0.066278 0.909204
vt 0.066278 0.921580
vt 0.052812 0.884479
vt 0.066278 0.884453
vt 0.079795 0.909204
vt 0.079795 0.921580
vt 0.056823 0.875328
vt 0.066278 0.872077
vt 0.079795 0.884453
vt 0.093311 0.909204
vt 0.093311 0.921580
vt 0.069572 0.927781
vt 0.080254 0.929403
vt 0.079795 0.872077
vt 0.093311 0.884453
vt 0.106828 0.909204
vt 0.105323 0.919792
vt 0.091620 0.928520
vt 0.069328 0.866197
vt 0.080265 0.864357
vt 0.093311 0.872077
vt 0.106828 0.884453
vt 0.091586 0.865247
vt 0.105318 0.873872
vt 0.114374 0.907438
vt 0.114188 0.886274
vt 0.583196 0.896824
vt 0.575649 0.895058
vt 0.575832 0.873892
vt 0.583196 0.872072
vt 0.596713 0.896824
vt 0.596713 0.872072
vt 0.584701 0.907412
vt 0.596713 0.909200
vt 0.584707 0.861492
vt 0.596713 0.859696
vt 0.610230 0.896824
vt 0.610230 0.872072
vt 0.610230 0.909200
vt 0.610230 0.859696
vt 0.623747 0.896824
vt 0.623747 0.872072
vt 0.623747 0.909200
vt 0.598404 0.916139
vt 0.609770 0.917022
vt 0.598440 0.852872
vt 0.609761 0.851968
vt 0.623747 0.859696
vt 0.637212 0.896797
vt 0.637213 0.872099
vt 0.633079 0.905851
vt 0.620429 0.915404
vt 0.620724 0.853830
vt 0.633224 0.862930
vt 0.650853 0.000391
vt 0.659958 0.002993
vt 0.661925 0.027845
vt 0.658474 0.030442
vt 0.681146 0.007934
vt 0.681320 0.026895
vt 0.691253 0.004605
vt 0.688015 0.027693
vt 0.658948 0.052459
vt 0.681634 0.052196
vt 0.691927 0.004405
vt 0.694187 0.027772
vt 0.688986 0.052122
vt 0.657340 0.078543
vt 0.681482 0.078622
vt 0.694288 0.052072
vt 0.690426 0.078488
vt 0.649344 0.079693
vt 0.654902 0.054508
vt 0.657101 0.101216
vt 0.681492 0.101304
vt 0.690406 0.101170
vt 0.648139 0.091767
vt 0.658874 0.109182
vt 0.680733 0.109182
vt 0.689091 0.112392
vt 0.648110 0.102606
vt 0.657051 0.118266
vt 0.682544 0.118266
vt 0.694977 0.101216
vt 0.693968 0.116285
vt 0.693121 0.119720
vt 0.646480 0.119716
vt 0.657051 0.131507
vt 0.682544 0.131507
vt 0.695291 0.131507
vt 0.644305 0.131507
vt 0.657051 0.144748
vt 0.682544 0.144748
vt 0.694972 0.144653
vt 0.644623 0.144653
vt 0.657094 0.157910
vt 0.682504 0.157915
vt 0.690430 0.154098
vt 0.649172 0.154092
vn -0.700533 -0.232443 -0.674702
vn -0.421608 -0.556898 -0.715619
vn -0.050873 -0.997503 -0.048981
vn -0.759163 -0.508126 -0.406791
vn -0.110177 -0.633283 -0.766038
vn -0.000220 -0.999999 -0.001314
vn 0.116198 -0.628283 -0.769258
vn 0.000163 -0.999999 -0.001207
vn 0.422758 -0.562609 -0.710455
vn 0.048439 -0.997776 -0.045780
vn 0.704311 -0.227444 -0.672469
vn 0.757050 -0.507019 -0.412077
vn -0.001198 -0.999999 -0.000769
vn -0.803612 -0.561399 -0.197582
vn -0.000312 -1.000000 -0.000286
vn 0.000337 -1.000000 -0.000308
vn 0.001265 -0.999999 -0.000556
vn 0.802361 -0.562591 -0.199270
vn -0.011197 -0.999922 0.005449
vn -0.816934 -0.575134 0.042886
vn 0.000000 -1.000000 -0.000001
vn 0.000000 -1.000000 -0.000001
vn 0.011866 -0.999915 0.005323
vn 0.815584 -0.576596 0.048583
vn -0.077899 -0.993625 -0.081499
vn -0.831214 -0.530504 0.166277
vn 0.009753 -0.994840 -0.100989
vn 0.014465 -0.996305 -0.084662
vn 0.147105 -0.989081 0.008838
vn 0.825021 -0.523330 0.213227
vn -0.138924 -0.980120 -0.141648
vn -0.800900 -0.595321 0.064445
vn 0.001347 -0.982211 -0.187774
vn 0.057376 -0.982126 -0.179268
vn 0.238511 -0.969877 -0.049501
vn 0.818899 -0.560334 0.124219
vn -0.284716 -0.958607 0.002942
vn -0.846863 -0.516481 0.126770
vn -0.013240 -0.999902 -0.004618
vn 0.095107 -0.995455 -0.004958
vn 0.350832 -0.936438 -0.000698
vn 0.824420 -0.565975 0.001856
vn -0.425089 -0.901463 0.081630
vn -0.871621 -0.446944 0.201289
vn -0.014225 -0.999855 0.009354
vn 0.090681 -0.995878 0.002133
vn 0.331197 -0.943561 -0.001095
vn 0.807249 -0.590206 0.002301
vn -0.497713 -0.860169 0.111320
vn -0.893960 -0.395854 0.210081
vn -0.032251 -0.998422 0.045965
vn 0.085884 -0.995745 0.033403
vn 0.311555 -0.949605 0.034419
vn 0.785270 -0.618568 0.026928
vn -0.514105 -0.847861 -0.129721
vn -0.914781 -0.400931 -0.049300
vn -0.055121 -0.991692 -0.116226
vn 0.109940 -0.988756 -0.101360
vn 0.323087 -0.944363 -0.061582
vn 0.824312 -0.564899 0.037403
vn -0.458332 -0.776941 -0.431618
vn -0.813317 -0.379676 -0.440865
vn -0.091013 -0.903122 -0.419628
vn 0.117728 -0.900851 -0.417861
vn 0.385204 -0.862148 -0.329118
vn 0.891170 -0.396475 -0.220509
vn -0.365769 -0.837202 -0.406578
vn -0.730224 -0.466284 -0.499352
vn -0.084484 -0.952507 -0.292563
vn 0.094287 -0.944055 -0.316021
vn 0.350202 -0.844146 -0.405926
vn 0.834843 -0.325659 -0.443829
vn -0.246332 -0.957860 -0.147734
vn -0.764303 -0.597251 -0.243172
vn -0.017661 -0.999599 -0.022151
vn 0.018561 -0.999563 -0.023017
vn 0.241151 -0.959510 -0.145557
vn 0.789194 -0.526889 -0.315533
vn -0.137816 -0.990439 -0.006130
vn -0.773111 -0.633343 -0.034298
vn 0.000000 -1.000000 0.000000
vn 0.000000 -1.000000 0.000000
vn 0.133311 -0.991055 -0.006139
vn 0.775506 -0.630309 -0.036052
vn -0.188255 -0.979488 0.071855
vn -0.767417 -0.615166 0.180670
vn -0.008535 -0.999931 0.008013
vn 0.008393 -0.999934 0.007880
vn 0.182335 -0.980759 0.069749
vn 0.767768 -0.615478 0.178100
vn -0.303769 -0.905132 0.297422
vn -0.741040 -0.530303 0.411872
vn -0.044229 -0.984556 0.169392
vn 0.041735 -0.985250 0.165954
vn 0.313994 -0.898238 0.307532
vn 0.745536 -0.533846 0.398978
vn -0.416557 -0.530681 0.738145
vn -0.676955 -0.349519 0.647741
vn -0.078497 -0.636469 0.767298
vn 0.082134 -0.638209 0.765469
vn 0.418319 -0.529512 0.737988
vn 0.664537 -0.367328 0.650738
vn -0.465244 -0.324795 0.823442
vn -0.661080 -0.308332 0.684036
vn -0.103753 -0.345467 0.932678
vn 0.111881 -0.348981 0.930427
vn 0.459264 -0.325177 0.826642
vn 0.683243 -0.306967 0.662533
vn -0.461829 0.318410 0.827846
vn -0.417862 0.531494 0.736821
vn -0.672322 0.341874 0.656586
vn -0.683391 0.289572 0.670168
vn -0.089596 0.328794 0.940142
vn -0.072741 0.638216 0.766413
vn 0.110499 0.325932 0.938913
vn 0.079667 0.637402 0.766402
vn 0.448582 0.303569 0.840607
vn 0.415846 0.529408 0.739459
vn 0.666055 0.354558 0.656246
vn 0.686801 0.286774 0.667881
vn -0.303842 0.905088 0.297483
vn -0.741506 0.531803 0.409090
vn -0.044216 0.984546 0.169454
vn 0.041743 0.985233 0.166054
vn 0.314088 0.898155 0.307677
vn 0.748237 0.532409 0.395831
vn -0.188222 0.979495 0.071850
vn -0.766732 0.615693 0.181782
vn -0.008535 0.999931 0.008013
vn 0.008385 0.999934 0.007872
vn 0.182280 0.980777 0.069649
vn 0.769664 0.614292 0.173961
vn -0.137644 0.990463 -0.006061
vn -0.768086 0.639705 -0.028662
vn 0.000000 1.000000 -0.000001
vn -0.000000 1.000000 -0.000001
vn 0.133430 0.991039 -0.006195
vn 0.778050 0.627300 -0.033659
vn -0.246613 0.957738 -0.148053
vn -0.760062 0.600974 -0.247255
vn -0.017705 0.999597 -0.022198
vn 0.018714 0.999556 -0.023167
vn 0.240842 0.959629 -0.145280
vn 0.790941 0.528565 -0.308274
vn -0.366418 0.836769 -0.406885
vn -0.738791 0.455581 -0.496622
vn -0.080981 0.939267 -0.333497
vn 0.085662 0.923483 -0.373952
vn 0.356802 0.841346 -0.405991
vn 0.836466 0.328115 -0.438936
vn -0.464292 0.776085 -0.426761
vn -0.822906 0.365885 -0.434687
vn -0.066092 0.886741 -0.457519
vn 0.125243 0.930707 -0.343655
vn 0.360253 0.846608 -0.391757
vn 0.886064 0.409012 -0.218174
vn -0.522209 0.844121 -0.121479
vn -0.920977 0.387922 -0.036306
vn -0.028025 0.996549 -0.078135
vn 0.102439 0.993541 -0.048801
vn 0.270517 0.962401 -0.024612
vn 0.826982 0.561140 0.034952
vn -0.517488 0.847765 0.116190
vn -0.894677 0.391776 0.214628
vn -0.032611 0.998403 0.046130
vn 0.087885 0.995564 0.033603
vn 0.312258 0.949362 0.034749
vn 0.794052 0.607262 0.026750
vn -0.417453 0.905637 0.074532
vn -0.877831 0.432417 0.205982
vn -0.009185 0.999929 0.007625
vn 0.092977 0.995667 0.001779
vn 0.333845 0.942628 -0.000599
vn 0.816933 0.576729 0.002037
vn -0.295132 0.954744 0.036883
vn -0.850931 0.512998 0.112914
vn -0.014550 0.990544 0.136424
vn 0.106106 0.983261 0.148123
vn 0.366434 0.919973 0.139197
vn 0.828685 0.556171 0.062890
vn -0.379010 0.899766 0.216268
vn -0.857546 0.497176 0.132028
vn -0.061893 0.955079 0.289814
vn 0.074976 0.945078 0.318128
vn 0.335996 0.875265 0.347876
vn 0.827547 0.476768 0.296411
vn -0.295304 0.937177 0.185725
vn -0.876836 0.440525 0.192602
vn -0.048676 0.995606 0.079992
vn 0.025787 0.998293 0.052405
vn 0.212521 0.966042 0.146962
vn 0.878546 0.412063 0.241578
vn -0.170737 0.984955 0.026677
vn -0.898684 0.435304 0.053641
vn -0.002204 0.999996 0.001867
vn 0.002170 0.999996 0.001846
vn 0.170285 0.985037 0.026551
vn 0.897684 0.436363 0.061250
vn -0.204253 0.975487 -0.081891
vn -0.889680 0.414875 -0.190652
vn -0.005146 0.999976 -0.004585
vn 0.005136 0.999976 -0.004581
vn 0.203953 0.975559 -0.081786
vn 0.888650 0.417122 -0.190554
vn -0.302758 0.908804 -0.287077
vn -0.814081 0.400682 -0.420389
vn -0.045772 0.987307 -0.152088
vn 0.045743 0.987300 -0.152140
vn 0.302567 0.908895 -0.286990
vn 0.813872 0.401264 -0.420237
vn -0.448393 0.408551 -0.795003
vn -0.686583 0.283795 -0.669376
vn -0.098121 0.452440 -0.886380
vn 0.098578 0.451885 -0.886613
vn 0.451104 0.407567 -0.793974
vn 0.687035 0.281931 -0.669700
vn -0.463022 0.166161 -0.870633
vn -0.713681 0.138444 -0.686653
vn -0.126780 0.193138 -0.972946
vn 0.127600 0.190827 -0.973295
vn 0.470242 0.165828 -0.866818
vn 0.709298 0.133196 -0.692210
vn -0.502642 -0.112781 -0.857107
vn -0.718525 -0.106040 -0.687370
vn -0.133671 -0.117470 -0.984039
vn 0.136623 -0.116669 -0.983729
vn 0.510671 -0.111736 -0.852485
vn 0.715016 -0.099561 -0.691982
vn 0.879031 0.171362 -0.444905
vn 0.869254 -0.114411 -0.480944
vn 0.956278 0.197470 -0.215727
vn 0.967296 -0.120776 -0.223049
vn 0.978408 0.190765 0.079539
vn 0.991255 -0.106125 0.078433
vn 0.950444 0.202072 0.236268
vn 0.964491 -0.129258 0.230325
vn 0.963426 0.220060 0.152916
vn 0.969568 -0.198655 0.143085
vn 0.962741 0.269646 0.020496
vn 0.976078 -0.217421 0.000503
vn 0.967664 0.252239 0.001174
vn 0.972031 -0.234851 0.001231
vn 0.969556 0.244078 0.019667
vn 0.968242 -0.249239 0.019691
vn 0.971303 0.227757 0.068530
vn 0.970195 -0.232146 0.069497
vn 0.978008 0.208556 -0.002201
vn 0.981463 -0.191574 0.005508
vn 0.959408 0.165164 -0.228596
vn 0.957751 -0.162302 -0.237425
vn 0.876894 0.257331 -0.406003
vn 0.871799 -0.263619 -0.412883
vn 0.945093 0.323149 -0.048726
vn 0.937361 -0.344446 -0.052080
vn 0.922237 0.321246 0.215126
vn 0.912037 -0.344506 0.222495
vn 0.855531 0.305731 0.417846
vn 0.844170 -0.325003 0.426322
vn -0.883440 0.174371 -0.434890
vn -0.874909 -0.117145 -0.469905
vn -0.955691 0.196955 -0.218778
vn -0.966568 -0.119182 -0.227028
vn -0.979135 0.192873 0.063986
vn -0.992288 -0.107696 0.061366
vn -0.964029 0.212478 0.159693
vn -0.973292 -0.154126 0.170142
vn -0.966305 0.244850 0.079391
vn -0.970787 -0.224148 0.085616
vn -0.961950 0.242928 0.125054
vn -0.958574 -0.253147 0.130583
vn -0.950935 0.203407 0.233128
vn -0.945663 -0.229144 0.230681
vn -0.952955 0.199733 0.227999
vn -0.949569 -0.219501 0.223914
vn -0.987154 0.105358 -0.120113
vn -0.987318 -0.097897 -0.124978
vn -0.945555 0.112390 -0.305442
vn -0.942053 -0.111929 -0.316242
vn -0.800548 0.302321 -0.517422
vn -0.808947 -0.316923 -0.495141
vn -0.896077 0.327014 -0.300180
vn -0.896381 -0.329256 -0.296800
vn -0.940198 0.338152 -0.041001
vn -0.939262 -0.339651 -0.049230
vn -0.912173 0.339344 0.229752
vn -0.910098 -0.349157 0.223183
vn -0.838017 0.320769 0.441401
vn -0.832529 -0.332074 0.443422
s 1
usemtl M_sprout_SG
f 1/267/1 2/268/2 8/269/3 7/270/4
f 2/268/2 3/271/5 9/272/6 8/269/3
f 9/272/6 3/271/5 4/275/7 10/276/8
f 4/275/7 5/280/9 11/281/10 10/276/8
f 5/280/9 6/286/11 12/287/12 11/281/10
f 7/270/4 8/269/3 14/273/13 13/274/14
f 8/269/3 9/272/6 15/277/15 14/273/13
f 15/277/15 9/272/6 10/276/8 16/282/16
f 10/276/8 11/281/10 17/288/17 16/282/16
f 11/281/10 12/287/12 18/293/18 17/288/17
f 13/274/14 14/273/13 20/278/19 19/279/20
f 14/273/13 15/277/15 21/283/21 20/278/19
f 21/283/21 15/277/15 16/282/16 22/289/22
f 16/282/16 17/288/17 23/294/23 22/289/22
f 17/288/17 18/293/18 24/297/24 23/294/23
f 19/279/20 20/278/19 26/284/25 25/285/26
f 20/278/19 21/283/21 27/290/27 26/284/25
f 27/290/27 21/283/21 22/289/22 28/295/28
f 22/289/22 23/294/23 29/298/29 28/295/28
f 23/294/23 24/297/24 30/302/30 29/298/29
f 25/285/26 26/284/25 32/291/31 31/292/32
f 26/284/25 27/290/27 33/296/33 32/291/31
f 33/296/33 27/290/27 28/295/28 34/299/34
f 28/295/28 29/298/29 35/303/35 34/299/34
f 29/298/29 30/302/30 36/307/36 35/303/35
f 31/134/32 32/144/31 38/145/37 37/139/38
f 32/291/31 33/296/33 39/300/39 38/301/37
f 39/300/39 33/296/33 34/299/34 40/304/40
f 34/299/34 35/303/35 41/308/41 40/304/40
f 35/47/35 36/36/36 42/40/42 41/48/41
f 37/139/38 38/145/37 44/151/43 43/146/44
f 38/301/37 39/300/39 45/305/45 44/306/43
f 45/305/45 39/300/39 40/304/40 46/309/46
f 40/304/40 41/308/41 47/312/47 46/309/46
f 41/48/41 42/40/42 48/46/48 47/54/47
f 44/151/43 50/159/49 49/152/50 43/146/44
f 45/305/45 51/310/51 50/311/49 44/306/43
f 51/310/51 45/305/45 46/309/46 52/313/52
f 47/312/47 53/314/53 52/313/52 46/309/46
f 54/53/54 53/59/53 47/54/47 48/46/48
f 50/159/49 56/165/55 55/160/56 49/152/50
f 51/171/51 57/172/57 56/165/55 50/159/49
f 57/315/57 51/310/51 52/313/52 58/316/58
f 53/314/53 59/317/59 58/316/58 52/313/52
f 60/320/60 59/317/59 53/314/53 54/321/54
f 55/160/56 56/165/55 62/173/61 61/166/62
f 56/323/55 57/315/57 63/318/63 62/324/61
f 63/318/63 57/315/57 58/316/58 64/319/64
f 58/316/58 59/317/59 65/322/65 64/319/64
f 59/317/59 60/320/60 66/325/66 65/322/65
f 61/166/62 62/173/61 68/178/67 67/174/68
f 62/203/61 63/204/63 69/205/69 68/206/67
f 69/205/69 63/204/63 64/207/64 70/208/70
f 64/207/64 65/209/65 71/210/71 70/208/70
f 65/75/65 66/63/66 72/69/72 71/76/71
f 67/174/68 68/178/67 74/183/73 73/179/74
f 68/326/67 69/327/69 75/328/75 74/329/73
f 75/328/75 69/327/69 70/330/70 76/331/76
f 70/330/70 71/334/71 77/335/77 76/331/76
f 71/76/71 72/69/72 78/74/78 77/81/77
f 73/339/74 74/329/73 80/333/79 79/340/80
f 74/329/73 75/328/75 81/332/81 80/333/79
f 81/332/81 75/328/75 76/331/76 82/336/82
f 76/331/76 77/335/77 83/341/83 82/336/82
f 77/335/77 78/346/78 84/347/84 83/341/83
f 79/340/80 80/333/79 86/338/85 85/345/86
f 80/333/79 81/332/81 87/337/87 86/338/85
f 87/337/87 81/332/81 82/336/82 88/342/88
f 82/336/82 83/341/83 89/348/89 88/342/88
f 83/341/83 84/347/84 90/350/90 89/348/89
f 85/188/86 86/198/85 92/199/91 91/194/92
f 86/338/85 87/337/87 93/343/93 92/344/91
f 93/343/93 87/337/87 88/342/88 94/349/94
f 88/342/88 89/348/89 95/351/95 94/349/94
f 89/96/89 90/85/90 96/91/96 95/97/95
f 91/194/92 92/199/91 98/202/97 97/200/98
f 92/219/91 93/220/93 99/211/99 98/214/97
f 99/352/99 93/343/93 94/349/94 100/353/100
f 94/227/94 95/228/95 101/221/101 100/215/100
f 95/97/95 96/91/96 102/95/102 101/98/101
f 98/202/97 104/201/103 103/195/104 97/200/98
f 99/211/99 105/212/105 104/213/103 98/214/97
f 100/215/100 106/216/106 105/212/105 99/211/99
f 101/221/101 107/222/107 106/216/106 100/215/100
f 108/90/108 107/94/107 101/98/101 102/95/102
f 110/197/109 116/196/110 115/193/111 109/192/112
f 111/217/113 117/224/114 116/225/110 110/218/109
f 112/223/115 118/229/116 117/224/114 111/217/113
f 113/226/117 119/232/118 118/229/116 112/223/115
f 120/88/119 119/92/118 113/93/117 114/89/120
f 115/193/111 116/196/110 122/190/121 121/186/122
f 116/225/110 117/224/114 123/230/123 122/231/121
f 123/354/123 117/355/114 118/356/116 124/357/124
f 118/229/116 119/232/118 125/233/125 124/234/124
f 119/92/118 120/88/119 126/83/126 125/86/125
f 121/186/122 122/190/121 128/191/127 127/181/128
f 122/360/121 123/354/123 129/358/129 128/361/127
f 129/358/129 123/354/123 124/357/124 130/359/130
f 124/357/124 125/362/125 131/363/131 130/359/130
f 125/86/125 126/83/126 132/78/132 131/87/131
f 127/371/128 128/361/127 134/366/133 133/372/134
f 128/361/127 129/358/129 135/364/135 134/366/133
f 135/364/135 129/358/129 130/359/130 136/365/136
f 130/359/130 131/363/131 137/367/137 136/365/136
f 131/363/131 132/373/132 138/374/138 137/367/137
f 133/372/134 134/366/133 140/370/139 139/379/140
f 134/366/133 135/364/135 141/368/141 140/370/139
f 141/368/141 135/364/135 136/365/136 142/369/142
f 136/365/136 137/367/137 143/375/143 142/369/142
f 137/367/137 138/374/138 144/380/144 143/375/143
f 139/168/140 140/170/139 146/164/145 145/162/146
f 140/370/139 141/368/141 147/376/147 146/378/145
f 147/376/147 141/368/141 142/369/142 148/377/148
f 142/369/142 143/375/143 149/381/149 148/377/148
f 143/70/143 144/67/144 150/61/150 149/64/149
f 145/162/146 146/164/145 152/158/151 151/154/152
f 146/235/145 147/236/147 153/237/153 152/238/151
f 153/237/153 147/236/147 148/239/148 154/240/154
f 148/239/148 149/241/149 155/242/155 154/240/154
f 149/64/149 150/61/150 156/56/156 155/65/155
f 151/154/152 152/158/151 158/150/157 157/148/158
f 152/382/151 153/383/153 159/384/159 158/385/157
f 159/384/159 153/383/153 154/386/154 160/387/160
f 154/386/154 155/388/155 161/389/161 160/387/160
f 155/388/155 156/392/156 162/393/162 161/389/161
f 158/150/157 164/143/163 163/141/164 157/148/158
f 159/156/159 165/157/165 164/143/163 158/150/157
f 165/390/165 159/384/159 160/387/160 166/391/166
f 161/389/161 167/394/167 166/391/166 160/387/160
f 168/397/168 167/394/167 161/389/161 162/393/162
f 164/143/163 170/138/169 169/136/170 163/141/164
f 165/390/165 171/395/171 170/399/169 164/400/163
f 171/395/171 165/390/165 166/391/166 172/396/172
f 167/394/167 173/398/173 172/396/172 166/391/166
f 174/38/174 173/41/173 167/49/167 168/44/168
f 169/136/170 170/138/169 176/133/175 175/131/176
f 170/399/169 171/395/171 177/401/177 176/404/175
f 177/401/177 171/395/171 172/396/172 178/402/178
f 172/396/172 173/398/173 179/403/179 178/402/178
f 173/41/173 174/38/174 180/34/180 179/42/179
f 175/131/176 176/133/175 182/128/181 181/126/182
f 176/404/175 177/401/177 183/405/183 182/408/181
f 183/405/183 177/401/177 178/402/178 184/406/184
f 178/402/178 179/403/179 185/407/185 184/406/184
f 179/403/179 180/411/180 186/412/186 185/407/185
f 181/126/182 182/128/181 188/123/187 187/121/188
f 182/408/181 183/405/183 189/409/189 188/414/187
f 189/409/189 183/405/183 184/406/184 190/410/190
f 184/406/184 185/407/185 191/413/191 190/410/190
f 185/32/185 186/28/186 192/20/192 191/26/191
f 187/121/188 188/123/187 194/117/193 193/115/194
f 188/414/187 189/409/189 195/415/195 194/418/193
f 195/415/195 189/409/189 190/410/190 196/416/196
f 190/410/190 191/413/191 197/417/197 196/416/196
f 191/26/191 192/20/192 198/12/198 197/18/197
f 193/115/194 194/117/193 200/109/199 199/107/200
f 194/418/193 195/415/195 201/419/201 200/422/199
f 201/419/201 195/415/195 196/416/196 202/420/202
f 196/416/196 197/417/197 203/421/203 202/420/202
f 197/18/197 198/12/198 204/4/204 203/9/203
f 199/107/200 200/109/199 206/103/205 205/99/206
f 200/422/199 201/419/201 207/423/207 206/426/205
f 207/423/207 201/419/201 202/420/202 208/424/208
f 202/420/202 203/421/203 209/425/209 208/424/208
f 203/9/203 204/4/204 210/3/210 209/10/209
f 205/99/206 206/103/205 212/104/211 211/100/212
f 206/253/205 207/254/207 213/247/213 212/243/211
f 213/247/213 207/254/207 208/258/208 214/249/214
f 208/258/208 209/264/209 215/255/215 214/249/214
f 209/10/209 210/3/210 216/8/216 215/17/215
f 212/243/211 218/244/217 217/245/218 211/246/212
f 213/247/213 219/248/219 218/244/217 212/243/211
f 214/249/214 220/250/220 219/248/219 213/247/213
f 215/255/215 221/256/221 220/250/220 214/249/214
f 222/261/222 221/256/221 215/255/215 216/262/216
f 217/101/218 218/110/217 224/111/223 223/105/224
f 218/244/217 219/248/219 225/251/225 224/252/223
f 225/251/225 219/248/219 220/250/220 226/257/226
f 220/250/220 221/256/221 227/263/227 226/257/226
f 221/21/221 222/7/222 228/13/228 227/22/227
f 224/111/223 2/118/2 1/112/1 223/105/224
f 225/251/225 3/259/5 2/260/2 224/252/223
f 226/257/226 4/265/7 3/259/5 225/251/225
f 227/263/227 5/266/9 4/265/7 226/257/226
f 6/23/11 5/29/9 227/22/227 228/13/228
f 229/2/229 222/7/222 216/8/216 210/3/210
f 228/13/228 222/7/222 229/2/229 230/5/230
f 12/16/12 6/23/11 228/13/228 230/5/230
f 231/1/231 229/2/229 210/3/210 204/4/204
f 230/5/230 229/2/229 231/1/231 232/6/232
f 18/15/18 12/16/12 230/5/230 232/6/232
f 233/11/233 231/1/231 204/4/204 198/12/198
f 232/6/232 231/1/231 233/11/233 234/14/234
f 24/25/24 18/15/18 232/6/232 234/14/234
f 235/19/235 233/11/233 198/12/198 192/20/192
f 234/14/234 233/11/233 235/19/235 236/24/236
f 30/31/30 24/25/24 234/14/234 236/24/236
f 237/27/237 235/19/235 192/20/192 186/28/186
f 236/24/236 235/19/235 237/27/237 238/30/238
f 36/36/36 30/31/30 236/24/236 238/30/238
f 239/33/239 237/27/237 186/28/186 180/34/180
f 238/30/238 237/27/237 239/33/239 240/35/240
f 42/40/42 36/36/36 238/30/238 240/35/240
f 241/37/241 239/33/239 180/34/180 174/38/174
f 240/35/240 239/33/239 241/37/241 242/39/242
f 48/46/48 42/40/42 240/35/240 242/39/242
f 243/43/243 241/37/241 174/38/174 168/44/168
f 242/39/242 241/37/241 243/43/243 244/45/244
f 54/53/54 48/46/48 242/39/242 244/45/244
f 245/50/245 243/43/243 168/44/168 162/51/162
f 244/45/244 243/43/243 245/50/245 246/52/246
f 60/58/60 54/53/54 244/45/244 246/52/246
f 247/55/247 245/50/245 162/51/162 156/56/156
f 246/52/246 245/50/245 247/55/247 248/57/248
f 66/63/66 60/58/60 246/52/246 248/57/248
f 249/60/249 247/55/247 156/56/156 150/61/150
f 248/57/248 247/55/247 249/60/249 250/62/250
f 72/69/72 66/63/66 248/57/248 250/62/250
f 251/66/251 249/60/249 150/61/150 144/67/144
f 78/74/78 72/69/72 250/62/250 252/68/252
f 253/71/253 251/66/251 144/67/144 138/72/138
f 84/80/84 78/74/78 252/68/252 254/73/254
f 255/77/255 253/71/253 138/72/138 132/78/132
f 90/85/90 84/80/84 254/73/254 256/79/256
f 257/82/257 255/77/255 132/78/132 126/83/126
f 96/91/96 90/85/90 256/79/256 258/84/258
f 120/88/119 114/89/120 257/82/257 126/83/126
f 108/90/108 102/95/102 96/91/96 258/84/258
f 205/99/206 211/100/212 217/101/218 259/102/259
f 217/101/218 223/105/224 260/106/260 259/102/259
f 260/106/260 223/105/224 1/112/1 7/113/4
f 199/107/200 205/99/206 259/102/259 261/108/261
f 259/102/259 260/106/260 262/114/262 261/108/261
f 262/114/262 260/106/260 7/113/4 13/119/14
f 193/115/194 199/107/200 261/108/261 263/116/263
f 261/108/261 262/114/262 264/120/264 263/116/263
f 264/120/264 262/114/262 13/119/14 19/124/20
f 187/121/188 193/115/194 263/116/263 265/122/265
f 263/116/263 264/120/264 266/125/266 265/122/265
f 266/125/266 264/120/264 19/124/20 25/129/26
f 181/126/182 187/121/188 265/122/265 267/127/267
f 265/122/265 266/125/266 268/130/268 267/127/267
f 268/130/268 266/125/266 25/129/26 31/134/32
f 175/131/176 181/126/182 267/127/267 269/132/269
f 267/127/267 268/130/268 270/135/270 269/132/269
f 270/135/270 268/130/268 31/134/32 37/139/38
f 169/136/170 175/131/176 269/132/269 271/137/271
f 269/132/269 270/135/270 272/140/272 271/137/271
f 272/140/272 270/135/270 37/139/38 43/146/44
f 163/141/164 169/136/170 271/137/271 273/142/273
f 272/140/272 274/147/274 273/142/273 271/137/271
f 274/147/274 272/140/272 43/146/44 49/152/50
f 157/148/158 163/141/164 273/142/273 275/149/275
f 274/147/274 276/153/276 275/149/275 273/142/273
f 276/153/276 274/147/274 49/152/50 55/160/56
f 151/154/152 157/148/158 275/149/275 277/155/277
f 275/149/275 276/153/276 278/161/278 277/155/277
f 278/161/278 276/153/276 55/160/56 61/166/62
f 145/162/146 151/154/152 277/155/277 279/163/279
f 280/167/280 278/161/278 61/166/62 67/174/68
f 139/168/140 145/162/146 279/163/279 281/169/281
f 282/175/282 280/167/280 67/174/68 73/179/74
f 133/176/134 139/168/140 281/169/281 283/177/283
f 284/180/284 282/175/282 73/179/74 79/184/80
f 127/181/128 133/176/134 283/177/283 285/182/285
f 286/185/286 284/180/284 79/184/80 85/188/86
f 121/186/122 127/181/128 285/182/285 287/187/287
f 288/189/288 286/185/286 85/188/86 91/194/92
f 109/192/112 115/193/111 121/186/122 287/187/287
f 97/200/98 103/195/104 288/189/288 91/194/92
