# This file uses centimeters as units for non-parametric coordinates.

mtllib right_radius_link.mtl
v -0.039631 -0.091512 -0.044835
v -0.035509 -0.091512 -0.049470
v -0.026107 -0.091512 -0.055050
v -0.013238 -0.091512 -0.057977
v -0.000248 -0.091512 -0.054985
v 0.009032 -0.091512 -0.049470
v 0.013155 -0.091512 -0.044835
v 0.016444 -0.091512 -0.038123
v -0.042611 -0.091512 -0.038345
v -0.014466 -0.091512 -0.028511
v -0.044733 -0.091512 -0.027200
v 0.017405 -0.091512 -0.021207
v -0.042611 -0.091512 -0.016055
v -0.039631 -0.091512 -0.009565
v -0.035509 -0.091512 -0.004930
v -0.026107 -0.091512 0.000650
v -0.013238 -0.091512 0.003577
v -0.001010 -0.091512 0.000585
v 0.009032 -0.091512 -0.004930
v 0.013155 -0.091512 -0.009565
v 0.014737 -0.089181 -0.012409
v -0.041088 -0.088842 -0.009100
v -0.037036 -0.088889 -0.004164
v -0.027665 -0.089181 0.002140
v -0.013992 -0.090426 0.004688
v -0.000213 -0.089181 0.002075
v 0.009036 -0.088889 -0.004164
v 0.013089 -0.088830 -0.009100
v 0.014841 -0.088601 -0.012339
v -0.041106 -0.050841 -0.009088
v -0.037052 -0.050842 -0.004148
v -0.027726 -0.050842 0.002250
v -0.013923 -0.050843 0.005392
v -0.000153 -0.050842 0.002185
v 0.009052 -0.050842 -0.004148
v 0.013106 -0.050834 -0.009088
v 0.014843 -0.050834 -0.012338
v -0.035427 -0.039903 -0.012309
v -0.032745 -0.039965 -0.008743
v -0.024656 -0.038127 -0.004624
v -0.014288 -0.037173 -0.002898
v -0.003809 -0.038155 -0.004663
v 0.013294 -0.029982 -0.001000
v 0.021930 -0.024465 -0.001000
v -0.034746 -0.023379 -0.012386
v -0.031598 -0.024840 -0.008061
v -0.025433 -0.020921 -0.001000
v -0.013922 -0.024927 -0.001000
v 0.016813 -0.002779 -0.001000
v 0.030281 -0.013117 -0.001000
v -0.031923 -0.007089 -0.002118
v 0.031995 -0.005064 -0.001000
v -0.031244 0.007195 -0.001000
v 0.031994 0.004916 -0.001000
v -0.028458 0.016671 -0.001000
v -0.024454 0.021998 -0.001000
v 0.030395 0.012707 -0.001000
v -0.019132 0.026097 -0.001000
v -0.011730 0.030576 -0.001000
v 0.000051 0.032921 -0.001000
v 0.012465 0.030555 -0.001000
v 0.021640 0.024460 -0.001000
v -0.028202 0.017789 -0.012427
v -0.024190 0.023191 -0.012145
v -0.019407 0.026493 -0.011691
v -0.011730 0.030576 -0.010900
v 0.000051 0.032921 -0.010900
v 0.012465 0.030555 -0.010900
v 0.021640 0.024460 -0.010900
v -0.028665 0.018121 -0.027200
v -0.022761 0.024774 -0.027200
v -0.011730 0.030576 -0.027200
v 0.000051 0.032921 -0.027200
v 0.012465 0.030555 -0.027200
v 0.021640 0.024460 -0.027200
v -0.028202 0.017789 -0.041973
v -0.024190 0.023191 -0.042255
v -0.019407 0.026493 -0.042709
v -0.011730 0.030576 -0.043500
v 0.000051 0.032921 -0.043500
v 0.012465 0.030555 -0.043500
v 0.021640 0.024460 -0.043500
v -0.028359 0.016802 -0.053400
v -0.023829 0.022829 -0.053400
v -0.019132 0.026097 -0.053400
v -0.011730 0.030576 -0.053400
v 0.000051 0.032921 -0.053400
v 0.012465 0.030555 -0.053400
v 0.021640 0.024460 -0.053400
v -0.030653 0.011656 -0.053400
v 0.019593 -0.001708 -0.053400
v 0.030395 0.012707 -0.053400
v -0.032669 0.003310 -0.053400
v 0.031994 0.004916 -0.053400
v -0.033596 -0.006538 -0.050051
v -0.032396 -0.006287 -0.053400
v 0.031995 -0.005064 -0.053400
v -0.034744 -0.023389 -0.042016
v -0.031598 -0.024840 -0.046339
v -0.025433 -0.020921 -0.053400
v -0.013922 -0.030931 -0.053400
v 0.001004 -0.032932 -0.053400
v 0.030281 -0.013117 -0.053400
v -0.035738 -0.040009 -0.042091
v -0.032745 -0.039965 -0.045657
v -0.024655 -0.038127 -0.049776
v -0.014288 -0.037173 -0.051502
v -0.003809 -0.038155 -0.049737
v 0.012567 -0.031091 -0.053400
v 0.022829 -0.023829 -0.053400
v -0.041106 -0.050834 -0.045312
v -0.037052 -0.050842 -0.050252
v -0.027726 -0.050842 -0.056650
v -0.013923 -0.050843 -0.059792
v -0.000153 -0.050842 -0.056585
v 0.009052 -0.050842 -0.050252
v 0.013106 -0.050834 -0.045312
v 0.014843 -0.050834 -0.042062
v -0.041089 -0.088839 -0.045300
v -0.037036 -0.088889 -0.050236
v -0.027665 -0.089181 -0.056540
v -0.013992 -0.090426 -0.059088
v -0.000213 -0.089181 -0.056475
v 0.009036 -0.088889 -0.050236
v 0.013089 -0.088830 -0.045300
v 0.014841 -0.088601 -0.042061
v 0.030395 0.012707 -0.043500
v 0.031994 0.004916 -0.043500
v 0.031995 -0.005064 -0.043500
v 0.029560 -0.014380 -0.043500
v 0.023239 -0.024131 -0.042137
v 0.017745 -0.050834 -0.034313
v 0.017743 -0.088601 -0.034313
v 0.030395 0.012707 -0.027200
v 0.031994 0.004916 -0.027200
v 0.031995 -0.005064 -0.027200
v 0.029560 -0.014380 -0.027200
v 0.023679 -0.024679 -0.027199
v 0.018600 -0.050834 -0.027200
v 0.018595 -0.088638 -0.027200
v 0.030395 0.012707 -0.010900
v 0.031994 0.004916 -0.010900
v 0.031995 -0.005064 -0.010900
v 0.029560 -0.014380 -0.010900
v 0.023239 -0.024131 -0.012263
v 0.017745 -0.050834 -0.020087
v 0.017743 -0.088601 -0.020087
v -0.031781 0.012140 -0.040532
v -0.034915 0.000632 -0.040240
v -0.038058 -0.009526 -0.037197
v -0.038409 -0.024582 -0.036149
v -0.038625 -0.039970 -0.036462
v -0.044428 -0.050963 -0.038659
v -0.044403 -0.088889 -0.038658
v -0.033477 0.011411 -0.027200
v -0.036456 0.001076 -0.027200
v -0.039888 -0.010834 -0.027200
v -0.040000 -0.023576 -0.027200
v -0.040390 -0.039965 -0.027200
v -0.046600 -0.050849 -0.027200
v -0.046577 -0.088889 -0.027200
v -0.031781 0.012140 -0.013868
v -0.034915 0.000632 -0.014160
v -0.038056 -0.009541 -0.017193
v -0.038410 -0.024582 -0.018252
v -0.038625 -0.039970 -0.017938
v -0.044428 -0.050963 -0.015741
v -0.044403 -0.088889 -0.015742
v 0.007342 -0.038291 -0.041806
v 0.009883 -0.035766 -0.037138
v 0.010588 -0.035964 -0.027200
v 0.009883 -0.035766 -0.017262
v 0.006946 -0.038729 -0.012657
v -0.000933 -0.037847 -0.046846
v 0.001029 -0.039809 -0.005795
vt 0.834044 0.561160
vt 0.841829 0.559348
vt 0.844345 0.561160
vt 0.835035 0.558897
vt 0.841891 0.558897
vt 0.844757 0.559075
vt 0.828741 0.558926
vt 0.841891 0.529532
vt 0.835035 0.529532
vt 0.844767 0.529532
vt 0.848447 0.561160
vt 0.849124 0.559121
vt 0.819076 0.561160
vt 0.822448 0.558897
vt 0.828741 0.529532
vt 0.837535 0.517816
vt 0.841609 0.520119
vt 0.849138 0.529537
vt 0.815592 0.558897
vt 0.822447 0.529532
vt 0.828741 0.517969
vt 0.841958 0.508768
vt 0.851924 0.509028
vt 0.847681 0.520959
vt 0.854742 0.529538
vt 0.854644 0.559348
vt 0.812725 0.559075
vt 0.813137 0.561160
vt 0.815591 0.529532
vt 0.819948 0.517815
vt 0.828742 0.509194
vt 0.843164 0.501187
vt 0.851924 0.500204
vt 0.851924 0.513318
vt 0.812715 0.529532
vt 0.808358 0.559121
vt 0.809036 0.561160
vt 0.815817 0.519779
vt 0.815524 0.508768
vt 0.828741 0.501187
vt 0.843164 0.493943
vt 0.851924 0.493943
vt 0.808344 0.529537
vt 0.802838 0.559348
vt 0.804156 0.561160
vt 0.805558 0.508534
vt 0.814318 0.501187
vt 0.828741 0.493943
vt 0.843164 0.486183
vt 0.851924 0.486183
vt 0.802740 0.529538
vt 0.811358 0.519434
vt 0.805558 0.500204
vt 0.814318 0.493943
vt 0.828741 0.486183
vt 0.843164 0.480125
vt 0.851924 0.480125
vt 0.808800 0.519673
vt 0.805558 0.493943
vt 0.814318 0.486183
vt 0.828741 0.480125
vt 0.843164 0.470986
vt 0.851924 0.470986
vt 0.805558 0.486183
vt 0.814318 0.480125
vt 0.828741 0.470986
vt 0.851924 0.466247
vt 0.843164 0.466247
vt 0.805558 0.480125
vt 0.814318 0.470986
vt 0.828741 0.466247
vt 0.805558 0.470986
vt 0.814318 0.466247
vt 0.805558 0.466247
vt 0.465183 0.868306
vt 0.462280 0.868497
vt 0.468400 0.854368
vt 0.472147 0.855472
vt 0.462280 0.875807
vt 0.462280 0.857352
vt 0.468991 0.842848
vt 0.472082 0.842814
vt 0.477232 0.854564
vt 0.476323 0.866031
vt 0.473686 0.873767
vt 0.465421 0.844248
vt 0.465009 0.834564
vt 0.469290 0.834570
vt 0.476960 0.842844
vt 0.484988 0.855330
vt 0.484988 0.865034
vt 0.484988 0.874105
vt 0.462280 0.882163
vt 0.473433 0.882532
vt 0.465023 0.805586
vt 0.469300 0.805624
vt 0.475056 0.834472
vt 0.484988 0.842848
vt 0.492743 0.854564
vt 0.493661 0.866019
vt 0.496290 0.873767
vt 0.484988 0.881977
vt 0.462280 0.886082
vt 0.472183 0.886834
vt 0.459463 0.834563
vt 0.459559 0.805364
vt 0.465686 0.803589
vt 0.469703 0.803589
vt 0.475057 0.805586
vt 0.484988 0.834558
vt 0.493015 0.842844
vt 0.497827 0.855480
vt 0.506727 0.867887
vt 0.507695 0.878766
vt 0.496542 0.882532
vt 0.484988 0.887087
vt 0.471939 0.890948
vt 0.462280 0.890673
vt 0.475328 0.803589
vt 0.484988 0.805586
vt 0.494920 0.834472
vt 0.497894 0.842895
vt 0.501576 0.854367
vt 0.497792 0.886834
vt 0.484988 0.892154
vt 0.471546 0.893463
vt 0.462280 0.893162
vt 0.484988 0.803589
vt 0.494918 0.805586
vt 0.500685 0.834565
vt 0.500984 0.842848
vt 0.507695 0.857352
vt 0.507695 0.885983
vt 0.498036 0.890948
vt 0.494647 0.803589
vt 0.500675 0.805622
vt 0.504967 0.834564
vt 0.504554 0.844248
vt 0.507695 0.890040
vt 0.498430 0.893463
vt 0.500272 0.803589
vt 0.504953 0.805586
vt 0.507695 0.893162
vt 0.504289 0.803589
vt 0.510417 0.805364
vt 0.510512 0.834563
vt 0.831661 0.332491
vt 0.839719 0.332491
vt 0.839722 0.334340
vt 0.832301 0.334134
vt 0.821849 0.332491
vt 0.821244 0.333256
vt 0.832349 0.361168
vt 0.821300 0.361168
vt 0.811522 0.332491
vt 0.810272 0.334134
vt 0.829415 0.370115
vt 0.821007 0.370807
vt 0.810223 0.361168
vt 0.803978 0.332491
vt 0.802753 0.334340
vt 0.839735 0.361169
vt 0.833297 0.368948
vt 0.843139 0.375878
vt 0.821300 0.379442
vt 0.812687 0.370135
vt 0.845963 0.395060
vt 0.812064 0.382267
vt 0.802740 0.361169
vt 0.806196 0.368838
vt 0.806856 0.392020
vt 0.850069 0.379768
vt 0.807401 0.402093
vt 0.856770 0.387770
vt 0.812849 0.412531
vt 0.858145 0.393448
vt 0.823059 0.418580
vt 0.817119 0.415421
vt 0.809636 0.408774
vt 0.858144 0.400486
vt 0.832512 0.420233
vt 0.856861 0.405979
vt 0.842474 0.418565
vt 0.849836 0.414267
vt 0.170673 0.795650
vt 0.174298 0.791412
vt 0.209049 0.808667
vt 0.168837 0.799269
vt 0.178058 0.789114
vt 0.167224 0.805139
vt 0.183981 0.785963
vt 0.167443 0.811888
vt 0.193409 0.784314
vt 0.194172 0.830626
vt 0.203344 0.785978
vt 0.182227 0.829218
vt 0.173015 0.822179
vt 0.203425 0.829331
vt 0.210686 0.790264
vt 0.181934 0.833608
vt 0.173637 0.834279
vt 0.190320 0.834299
vt 0.211638 0.824224
vt 0.217693 0.798530
vt 0.182227 0.843221
vt 0.171180 0.843221
vt 0.193247 0.843221
vt 0.217602 0.816691
vt 0.218973 0.804009
vt 0.182171 0.871059
vt 0.171228 0.870183
vt 0.167163 0.835572
vt 0.163717 0.843221
vt 0.193198 0.870183
vt 0.218974 0.811028
vt 0.182774 0.871822
vt 0.172476 0.871822
vt 0.193170 0.871822
vt 0.163730 0.869978
vt 0.164952 0.871822
vt 0.986038 0.790473
vt 0.983096 0.794010
vt 0.968078 0.778018
vt 0.988164 0.785522
vt 0.976386 0.798267
vt 0.989679 0.777018
vt 0.967202 0.800500
vt 0.988164 0.768514
vt 0.957931 0.798218
vt 0.983096 0.760026
vt 0.986038 0.763563
vt 0.951308 0.794010
vt 0.976386 0.755769
vt 0.948366 0.790473
vt 0.946018 0.785352
vt 0.967202 0.753536
vt 0.945332 0.772446
vt 0.958474 0.755818
vt 0.948366 0.763563
vt 0.951308 0.760026
vt 0.964103 0.716369
vt 0.970073 0.716369
vt 0.970074 0.723387
vt 0.963881 0.723947
vt 0.979577 0.716369
vt 0.979577 0.723387
vt 0.970074 0.734942
vt 0.961176 0.734942
vt 0.989591 0.716369
vt 0.989591 0.723387
vt 0.979577 0.734942
vt 0.970074 0.746496
vt 0.963881 0.745936
vt 0.989591 0.734942
vt 0.979577 0.746496
vt 0.970073 0.753514
vt 0.964103 0.753514
vt 0.989591 0.746496
vt 0.979577 0.753514
vt 0.989591 0.753514
vt 0.436195 0.209770
vt 0.433057 0.197442
vt 0.438672 0.207605
vt 0.433057 0.189716
vt 0.442989 0.201375
vn -0.000001 -1.000000 0.000000
vn -0.000001 -1.000000 0.000001
vn -0.000000 -1.000000 0.000000
vn -0.000001 -1.000000 0.000000
vn -0.000001 -1.000000 0.000000
vn -0.000000 -1.000000 -0.000001
vn 0.000001 -1.000000 0.000001
vn 0.000001 -1.000000 -0.000001
vn -0.000000 -1.000000 -0.000003
vn 0.000000 -1.000000 -0.000000
vn -0.000001 -1.000000 0.000000
vn 0.000001 -1.000000 0.000001
vn -0.000001 -1.000000 0.000000
vn -0.000001 -1.000000 -0.000000
vn -0.000001 -1.000000 0.000000
vn -0.000001 -1.000000 -0.000000
vn 0.000000 -1.000000 0.000001
vn 0.000001 -1.000000 -0.000000
vn 0.000001 -1.000000 -0.000000
vn 0.000001 -1.000000 0.000000
vn 0.950465 -0.281419 0.131984
vn 0.912462 -0.198656 0.357700
vn 0.824511 -0.150399 0.545492
vn -0.717225 -0.516653 0.467608
vn -0.510418 -0.563653 0.649437
vn -0.642758 -0.038448 0.765104
vn -0.843349 -0.037955 0.536024
vn -0.297471 -0.638537 0.709776
vn -0.365379 -0.041502 0.929933
vn 0.052119 -0.635784 0.770105
vn -0.000778 -0.044940 0.998989
vn 0.340226 -0.518301 0.784608
vn 0.365335 -0.033217 0.930283
vn 0.600068 -0.318288 0.733901
vn 0.641750 -0.024332 0.766528
vn 0.813482 -0.008055 0.581534
vn 0.920790 -0.008238 0.389973
vn -0.639020 0.116221 0.760359
vn -0.838175 0.116057 0.532911
vn -0.366413 0.120211 0.922654
vn 0.003227 0.120970 0.992651
vn 0.361403 0.109765 0.925926
vn 0.643437 0.120362 0.755977
vn 0.799016 0.131636 0.586724
vn 0.904194 0.104548 0.414130
vn -0.635621 0.266924 0.724388
vn -0.811695 0.256012 0.524985
vn -0.353439 0.205217 0.912670
vn -0.024738 0.131060 0.991066
vn 0.129126 0.071993 0.989011
vn 0.520877 0.503072 0.689642
vn 0.852607 -0.302185 0.426315
vn -0.689880 -0.102031 0.716697
vn -0.873743 -0.043000 0.484484
vn -0.127859 -0.016422 0.991656
vn -0.025218 -0.043189 0.998749
vn 0.190367 -0.338182 0.921625
vn 0.579063 -0.556953 0.595390
vn -0.005009 0.003384 0.999982
vn -0.000003 0.000001 1.000000
vn -0.922661 0.013675 0.385369
vn -0.017611 -0.008401 0.999810
vn -0.000000 0.000002 1.000000
vn -0.007753 -0.037356 0.999272
vn -0.000001 -0.000000 1.000000
vn 0.000001 -0.000000 1.000000
vn -0.000033 0.000014 1.000000
vn -0.000001 0.000000 1.000000
vn 0.000001 0.000001 1.000000
vn 0.000002 0.000002 1.000000
vn -0.000000 0.000000 1.000000
vn 0.000000 0.000000 1.000000
vn -0.000000 0.000000 1.000000
vn -0.879934 0.468167 0.080848
vn -0.715223 0.697071 0.050470
vn -0.717416 0.695798 0.034336
vn -0.838076 0.542759 0.055145
vn -0.537712 0.842234 0.038832
vn -0.506047 0.862287 0.019425
vn -0.327733 0.944716 0.010136
vn -0.324460 0.945889 0.004348
vn 0.000870 1.000000 -0.000000
vn 0.000871 1.000000 -0.000000
vn 0.364878 0.931055 -0.000002
vn 0.364878 0.931055 0.000000
vn 0.705501 0.708709 -0.000001
vn 0.705501 0.708709 0.000000
vn 0.883652 0.468144 -0.000000
vn 0.883652 0.468145 0.000000
vn -0.607826 0.794071 -0.000000
vn -0.800807 0.598922 -0.000001
vn -0.324008 0.946054 -0.000000
vn 0.000870 1.000000 0.000000
vn 0.364878 0.931055 0.000001
vn 0.705501 0.708709 0.000001
vn 0.883652 0.468145 0.000000
vn -0.720107 0.693159 -0.031264
vn -0.818152 0.573467 -0.041986
vn -0.500846 0.865380 -0.016470
vn -0.324460 0.945889 -0.004349
vn 0.000869 1.000000 -0.000001
vn 0.364877 0.931056 -0.000000
vn 0.705501 0.708709 0.000000
vn 0.883652 0.468145 0.000000
vn -0.708723 0.704085 -0.044456
vn -0.843525 0.534408 -0.053612
vn -0.526514 0.849550 -0.032365
vn -0.327732 0.944716 -0.010136
vn 0.000869 1.000000 -0.000002
vn 0.364877 0.931056 -0.000001
vn 0.705502 0.708708 -0.000001
vn 0.883652 0.468145 -0.000000
vn 0.000000 0.000000 -1.000000
vn 0.000000 0.000000 -1.000000
vn -0.000000 0.000000 -1.000000
vn 0.000000 0.000000 -1.000000
vn 0.000000 0.000000 -1.000000
vn 0.000001 0.000001 -1.000000
vn 0.000000 0.000001 -1.000000
vn -0.000001 -0.000000 -1.000000
vn 0.000002 0.000000 -1.000000
vn -0.000001 0.000001 -1.000000
vn 0.000000 0.000000 -1.000000
vn 0.000000 0.000000 -1.000000
vn -0.000000 -0.000000 -1.000000
vn 0.000000 0.000000 -1.000000
vn -0.938423 -0.017339 -0.345054
vn -0.833615 -0.194212 -0.517076
vn -0.708565 -0.113926 -0.696388
vn -0.880472 -0.053153 -0.471108
vn -0.206797 -0.086776 -0.974528
vn 0.005878 -0.058851 -0.998249
vn 0.000000 0.000000 -1.000000
vn -0.631293 0.264327 -0.729109
vn -0.811022 0.260768 -0.523682
vn -0.379038 0.214678 -0.900135
vn -0.050658 -0.129090 -0.990338
vn -0.044415 0.214022 -0.975819
vn 0.282402 0.260352 -0.923291
vn 0.238526 -0.507749 -0.827826
vn 0.554756 -0.542044 -0.631216
vn -0.638326 0.115999 -0.760975
vn -0.838306 0.114135 -0.533119
vn -0.366415 0.120212 -0.922654
vn 0.003227 0.120971 -0.992651
vn 0.368408 0.117952 -0.922151
vn 0.387008 -0.866613 -0.314972
vn 0.815435 -0.319344 -0.482789
vn -0.642747 -0.038455 -0.765113
vn -0.843347 -0.037934 -0.536028
vn -0.365381 -0.041502 -0.929933
vn -0.000778 -0.044550 -0.999007
vn 0.364196 -0.031359 -0.930794
vn 0.634943 0.134179 -0.760817
vn 0.642472 -0.020304 -0.766040
vn 0.782141 0.139729 -0.607233
vn 0.815502 -0.009917 -0.578670
vn 0.919452 -0.004257 -0.393180
vn 0.907850 0.101795 -0.406750
vn -0.510491 -0.563593 -0.649432
vn -0.717335 -0.516455 -0.467660
vn -0.297472 -0.638531 -0.709780
vn 0.051382 -0.618840 -0.783835
vn 0.373778 -0.460207 -0.805295
vn 0.617993 -0.273201 -0.737188
vn 0.832147 -0.113066 -0.542907
vn 0.949341 -0.188681 -0.251299
vn 0.995968 0.089709 0.000000
vn 0.995968 0.089709 0.000000
vn 0.993838 -0.110403 0.009799
vn 0.992803 -0.119705 0.003623
vn 0.907797 -0.419353 -0.006922
vn 0.907472 -0.419954 -0.011525
vn 0.750282 -0.660421 -0.030332
vn 0.887563 -0.442222 -0.129118
vn 0.961541 0.137526 -0.237749
vn 0.972126 -0.039125 -0.231170
vn 0.995968 0.089709 0.000000
vn 0.992137 -0.125153 0.000000
vn 0.915845 -0.401533 -0.000001
vn 0.751207 -0.660066 0.000000
vn 0.938953 -0.344045 -0.000002
vn 0.986853 0.161619 -0.000002
vn 0.998952 -0.045259 -0.006763
vn 0.995968 0.089708 -0.000000
vn 0.992803 -0.119705 -0.003623
vn 0.904666 -0.425778 0.017070
vn 0.750881 -0.659495 0.035271
vn 0.881975 -0.451850 0.133984
vn 0.960391 0.138382 0.241865
vn 0.969179 -0.009076 0.246190
vn 0.995968 0.089708 -0.000000
vn 0.993839 -0.110403 -0.009799
vn 0.902118 -0.431106 0.018184
vn -0.939752 0.329765 -0.090124
vn -0.923862 0.372106 -0.089531
vn -0.967884 0.202659 -0.148765
vn -0.964040 0.220062 -0.148993
vn -0.964655 0.079853 -0.251125
vn -0.951530 -0.001148 -0.307554
vn -0.919571 0.257851 -0.296483
vn -0.950650 0.111193 -0.289657
vn -0.956402 -0.041977 -0.289021
vn -0.796004 -0.554668 -0.242324
vn -0.923969 0.382467 0.000000
vn -0.963300 0.268427 0.000092
vn -0.991807 0.127744 0.000080
vn -0.999883 0.015267 0.000002
vn -0.965549 0.260222 -0.000004
vn -0.993739 0.111729 0.000000
vn -0.999093 -0.042586 0.000001
vn -0.817418 -0.576045 -0.000001
vn -0.919643 0.379923 0.099571
vn -0.960166 0.190824 0.204125
vn -0.958285 0.076841 0.275290
vn -0.947223 -0.002317 0.320567
vn -0.916535 0.259790 0.304092
vn -0.950085 0.112556 0.290981
vn -0.956398 -0.041971 0.289034
vn -0.795971 -0.554754 0.242238
vn -0.952446 0.223967 0.206605
vn 0.521274 0.529594 -0.669182
vn 0.387955 -0.748389 0.537963
s 1
usemtl M_sprout_SG
f 1/221/1 2/222/2 10/223/3 9/224/4
f 2/222/2 3/225/5 10/223/3
f 3/225/5 4/227/6 10/223/3
f 4/227/6 5/229/7 10/223/3
f 5/229/7 6/232/8 10/223/3
f 6/232/8 7/234/9 8/235/10 10/223/3
f 9/224/4 10/223/3 11/226/11
f 10/223/3 8/235/10 12/237/12
f 11/226/11 10/223/3 13/228/13
f 13/228/13 10/223/3 15/230/14 14/231/15
f 10/223/3 16/233/16 15/230/14
f 10/223/3 17/236/17 16/233/16
f 10/223/3 18/238/18 17/236/17
f 10/223/3 19/240/19 18/238/18
f 10/223/3 12/237/12 20/239/20 19/240/19
s 2
f 12/1/21 21/2/22 20/3/23
f 14/141/24 15/144/25 23/142/26 22/136/27
f 15/160/25 16/155/28 24/156/29 23/161/26
f 16/155/28 17/151/30 25/152/31 24/156/29
f 17/151/30 18/147/32 26/150/33 25/152/31
f 18/147/32 19/148/34 27/149/35 26/150/33
f 19/11/34 20/3/23 28/6/36 27/12/35
f 20/3/23 21/2/22 29/5/37 28/6/36
f 23/142/26 31/137/38 30/130/39 22/136/27
f 24/145/29 32/146/40 31/137/38 23/142/26
f 25/152/31 33/154/41 32/159/40 24/156/29
f 26/150/33 34/153/42 33/154/41 25/152/31
f 27/12/35 35/18/43 34/25/42 26/26/33
f 28/6/36 36/10/44 35/18/43 27/12/35
f 37/8/45 36/10/44 28/6/36 29/5/37
f 30/130/39 31/137/38 39/131/46 38/122/47
f 31/169/38 32/159/40 40/166/48 39/170/46
f 32/159/40 33/154/41 41/158/49 40/166/48
f 33/154/41 34/153/42 42/157/50 41/158/49
f 34/153/42 35/162/43 175/163/51 42/157/50
f 35/18/43 36/10/44 173/17/52 175/24/51
f 36/10/44 37/8/45 173/17/52
f 38/122/47 39/131/46 46/123/53 45/112/54
f 39/131/46 40/138/48 47/132/55 46/123/53
f 40/166/48 41/158/49 48/165/56 47/168/55
f 43/164/57 48/165/56 41/158/49 42/157/50
f 43/164/57 44/172/58 49/167/59
f 44/172/58 50/174/60 49/167/59
f 45/112/54 46/123/53 51/113/61
f 46/123/53 47/132/55 51/113/61
f 47/168/55 48/165/56 49/167/59 51/171/62
f 49/167/59 50/174/60 52/176/63
f 51/171/62 49/167/59 53/173/64
f 49/167/59 52/176/63 54/180/65
f 53/173/64 56/175/66 55/179/67
f 53/173/64 49/167/59 56/175/66
f 49/167/59 54/180/65 57/182/68
f 56/175/66 49/167/59 59/177/69 58/178/70
f 49/167/59 60/181/71 59/177/69
f 49/167/59 61/183/72 60/181/71
f 49/167/59 62/184/73 61/183/72
f 49/167/59 57/182/68 62/184/73
f 55/133/74 56/139/75 64/134/76 63/124/77
f 56/139/75 58/143/78 65/140/79 64/134/76
f 58/241/78 59/242/80 66/243/81 65/244/79
f 59/242/80 60/245/82 67/246/83 66/243/81
f 60/245/82 61/249/84 68/250/85 67/246/83
f 61/67/84 62/63/86 69/62/87 68/68/85
f 69/62/87 62/63/86 57/57/88 141/56/89
f 63/124/77 64/134/76 71/125/90 70/116/91
f 64/134/76 65/140/79 71/125/90
f 65/244/79 66/243/81 72/247/92 71/248/90
f 66/243/81 67/246/83 73/251/93 72/247/92
f 67/246/83 68/250/85 74/254/94 73/251/93
f 68/68/85 69/62/87 75/66/95 74/71/94
f 75/66/95 69/62/87 141/56/89 134/61/96
f 70/116/91 71/125/90 77/117/97 76/104/98
f 71/125/90 78/126/99 77/117/97
f 71/248/90 72/247/92 79/252/100 78/253/99
f 72/247/92 73/251/93 80/255/101 79/252/100
f 73/251/93 74/254/94 81/258/102 80/255/101
f 74/71/94 75/66/95 82/70/103 81/73/102
f 82/70/103 75/66/95 134/61/96 127/65/104
f 76/104/98 77/117/97 84/118/105 83/103/106
f 77/117/97 78/126/99 85/127/107 84/118/105
f 78/253/99 79/252/100 86/256/108 85/257/107
f 79/252/100 80/255/101 87/259/109 86/256/108
f 80/255/101 81/258/102 88/260/110 87/259/109
f 81/73/102 82/70/103 89/72/111 88/74/110
f 89/72/111 82/70/103 127/65/104 92/69/112
f 83/185/113 84/186/114 91/187/115 90/188/116
f 84/186/114 85/189/117 91/187/115
f 85/189/117 86/191/118 91/187/115
f 86/191/118 87/193/119 91/187/115
f 87/193/119 88/195/120 91/187/115
f 88/195/120 89/199/121 91/187/115
f 89/199/121 92/204/122 91/187/115
f 90/188/116 91/187/115 93/190/123
f 91/187/115 92/204/122 94/209/124
f 93/190/123 91/187/115 96/192/125
f 91/187/115 94/209/124 97/215/126
f 95/75/127 96/76/128 99/77/129 98/78/130
f 96/76/128 100/80/131 99/77/129
f 102/194/132 96/192/125 91/187/115
f 91/187/115 97/215/126 103/208/133
f 98/78/130 99/77/129 105/81/134 104/82/135
f 99/77/129 100/80/131 106/86/136 105/81/134
f 100/197/131 101/196/137 107/200/138 106/201/136
f 101/196/137 102/194/132 108/202/139 107/200/138
f 102/194/132 109/198/140 108/202/139
f 91/187/115 110/203/141 109/198/140
f 91/187/115 103/208/133 110/203/141
f 104/82/135 105/81/134 112/87/142 111/88/143
f 105/212/134 106/201/136 113/206/144 112/213/142
f 106/201/136 107/200/138 114/205/145 113/206/144
f 107/200/138 108/202/139 115/207/146 114/205/145
f 108/261/139 109/262/140 174/263/147
f 109/262/140 110/264/141 169/265/148 174/263/147
f 112/87/142 120/95/149 119/96/150 111/88/143
f 113/105/144 121/106/151 120/95/149 112/87/142
f 114/205/145 122/210/152 121/211/151 113/206/144
f 115/207/146 123/214/153 122/210/152 114/205/145
f 116/43/154 124/36/155 123/44/153 115/51/146
f 117/35/156 125/27/157 124/36/155 116/43/154
f 126/19/158 125/27/157 117/35/156 118/29/159
f 119/96/150 120/95/149 2/107/160 1/108/161
f 120/219/149 121/211/151 3/217/162 2/220/160
f 121/211/151 122/210/152 4/216/163 3/217/162
f 122/210/152 123/214/153 5/218/164 4/216/163
f 123/44/153 124/36/155 6/37/165 5/45/164
f 124/36/155 125/27/157 7/28/166 6/37/165
f 125/27/157 126/19/158 8/13/167 7/28/166
f 94/64/168 92/69/112 127/65/104 128/60/169
f 97/59/170 94/64/168 128/60/169 129/54/171
f 103/53/172 97/59/170 129/54/171 130/47/173
f 110/46/141 103/53/172 130/47/173 131/39/174
f 118/29/159 169/38/148 170/30/175 132/20/176
f 133/14/177 126/19/158 118/29/159 132/20/176
f 8/13/167 126/19/158 133/14/177
f 128/60/169 127/65/104 134/61/96 135/55/178
f 129/54/171 128/60/169 135/55/178 136/48/179
f 130/47/173 129/54/171 136/48/179 137/40/180
f 131/39/174 130/47/173 137/40/180 138/31/181
f 132/20/176 170/30/175 171/21/182 139/15/183
f 140/7/184 133/14/177 132/20/176 139/15/183
f 8/13/167 133/14/177 140/7/184 12/1/21
f 135/55/178 134/61/96 141/56/89 142/49/185
f 136/48/179 135/55/178 142/49/185 143/41/186
f 137/40/180 136/48/179 143/41/186 144/32/187
f 138/31/181 137/40/180 144/32/187 145/22/188
f 139/15/183 171/21/182 172/16/189 146/9/190
f 147/4/191 140/7/184 139/15/183 146/9/190
f 12/1/21 140/7/184 147/4/191
f 142/49/185 141/56/89 57/57/88 54/50/192
f 143/41/186 142/49/185 54/50/192 52/42/193
f 144/32/187 143/41/186 52/42/193 50/33/194
f 145/22/188 144/32/187 50/33/194 44/23/58
f 146/9/190 172/16/189 173/17/52 37/8/45
f 37/8/45 29/5/37 147/4/191 146/9/190
f 12/1/21 147/4/191 29/5/37 21/2/22
f 83/103/106 90/93/195 148/94/196 76/104/98
f 90/93/195 93/79/197 149/85/198 148/94/196
f 93/79/197 95/75/127 150/84/199 149/85/198
f 95/75/127 98/78/130 151/83/200 150/84/199
f 98/78/130 104/82/135 152/89/201 151/83/200
f 104/82/135 111/88/143 153/97/202 152/89/201
f 153/97/202 111/88/143 119/96/150 154/109/203
f 119/96/150 1/108/161 9/119/204 154/109/203
f 76/104/98 148/94/196 155/102/205 70/116/91
f 148/94/196 149/85/198 156/92/206 155/102/205
f 149/85/198 150/84/199 157/91/207 156/92/206
f 150/84/199 151/83/200 158/90/208 157/91/207
f 151/83/200 152/89/201 159/98/209 158/90/208
f 152/89/201 153/97/202 160/110/210 159/98/209
f 160/110/210 153/97/202 154/109/203 161/120/211
f 154/109/203 9/119/204 11/128/212 161/120/211
f 70/116/91 155/102/205 162/115/213 63/124/77
f 155/102/205 156/92/206 163/101/214 162/115/213
f 156/92/206 157/91/207 164/100/215 163/101/214
f 157/91/207 158/90/208 165/99/216 164/100/215
f 158/90/208 159/98/209 166/111/217 165/99/216
f 159/98/209 160/110/210 167/121/218 166/111/217
f 167/121/218 160/110/210 161/120/211 168/129/219
f 161/120/211 11/128/212 13/135/220 168/129/219
f 63/124/77 162/115/213 53/114/221 55/133/74
f 162/115/213 163/101/214 53/114/221
f 163/101/214 164/100/215 51/113/61 53/114/221
f 164/100/215 165/99/216 45/112/54 51/113/61
f 165/99/216 166/111/217 38/122/47 45/112/54
f 166/111/217 167/121/218 30/130/39 38/122/47
f 22/136/27 30/130/39 167/121/218 168/129/219
f 168/129/219 13/135/220 14/141/24 22/136/27
f 93/79/197 96/76/128 95/75/127
f 101/196/137 100/197/131 96/192/125 102/194/132
f 49/167/59 48/165/56 43/164/57
f 102/194/132 91/187/115 109/198/140
f 169/38/148 110/46/141 131/39/174 170/30/175
f 171/21/182 170/30/175 131/39/174 138/31/181
f 172/16/189 171/21/182 138/31/181 145/22/188
f 173/17/52 172/16/189 145/22/188 44/23/58
f 169/38/148 118/29/159 117/35/156
f 174/52/222 169/38/148 117/35/156 116/43/154
f 108/58/139 174/52/222 116/43/154 115/51/146
f 175/24/223 173/17/52 44/23/58 43/34/57
f 42/157/50 175/163/223 43/164/57
