# This file uses centimeters as units for non-parametric coordinates.

mtllib right_shoulder_link.mtl
v -0.036500 -0.074703 -0.026970
v -0.028192 -0.076099 -0.027220
v -0.025861 -0.075924 -0.026994
v 0.025861 -0.075924 -0.026994
v 0.028192 -0.076098 -0.027220
v 0.036500 -0.074703 -0.026970
v -0.037452 -0.080860 -0.020674
v -0.027912 -0.082152 -0.020710
v -0.025671 -0.081833 -0.020407
v 0.025671 -0.081833 -0.020407
v 0.027911 -0.082152 -0.020710
v 0.037451 -0.080860 -0.020674
v -0.038937 -0.085865 -0.010991
v -0.027607 -0.087384 -0.010638
v -0.025547 -0.086888 -0.010395
v 0.025547 -0.086888 -0.010395
v 0.027607 -0.087384 -0.010638
v 0.038937 -0.085865 -0.010991
v -0.039036 -0.087647 0.002157
v -0.027607 -0.088845 0.002027
v -0.025547 -0.088299 0.001944
v 0.025547 -0.088299 0.001944
v 0.027607 -0.088845 0.002027
v 0.039036 -0.087648 0.002157
v -0.037742 -0.085447 0.013109
v -0.027877 -0.086025 0.013815
v -0.025671 -0.085640 0.013627
v 0.025671 -0.085640 0.013627
v 0.027877 -0.086025 0.013816
v 0.037742 -0.085447 0.013109
v -0.036500 -0.081001 0.020885
v -0.028192 -0.082590 0.020382
v -0.025861 -0.082386 0.020188
v 0.025861 -0.082385 0.020188
v 0.028192 -0.082590 0.020383
v 0.036500 -0.081001 0.020885
v -0.037793 -0.073942 0.027169
v -0.027877 -0.076034 0.027137
v -0.025671 -0.075769 0.026794
v 0.025671 -0.075769 0.026794
v 0.027877 -0.076034 0.027137
v 0.037793 -0.073942 0.027169
v -0.039074 -0.063116 0.031701
v -0.027607 -0.063831 0.032650
v -0.025547 -0.063719 0.032110
v 0.025547 -0.063719 0.032110
v 0.027607 -0.063831 0.032650
v 0.039074 -0.063116 0.031701
v -0.038867 -0.049428 0.032354
v -0.027794 -0.049328 0.033485
v -0.025547 -0.049396 0.032813
v 0.025547 -0.049396 0.032813
v 0.027793 -0.049328 0.033484
v 0.038867 -0.049428 0.032354
v -0.037212 -0.038943 0.029025
v -0.028192 -0.037503 0.029543
v -0.007070 -0.022706 0.025946
v 0.006917 -0.022856 0.025875
v 0.028189 -0.037504 0.029542
v 0.037212 -0.038943 0.029025
v -0.036500 -0.031726 0.024040
v -0.023169 -0.024575 0.022500
v -0.004939 -0.018383 0.026191
v 0.004939 -0.018386 0.026192
v 0.023169 -0.024575 0.022500
v 0.036500 -0.031726 0.024040
v -0.030304 -0.025633 0.022361
v -0.011298 -0.016500 0.024299
v -0.004585 -0.016500 0.026088
v 0.004585 -0.016500 0.026088
v 0.011298 -0.016500 0.024299
v 0.030314 -0.025639 0.022361
v -0.030202 -0.021989 0.015817
v -0.013258 0.000000 0.013258
v -0.005971 -0.000000 0.017562
v 0.005971 -0.000000 0.017562
v 0.013258 0.000000 0.013258
v 0.030205 -0.021988 0.015813
v -0.022313 -0.010617 0.005102
v -0.016891 -0.000000 0.007822
v -0.009916 -0.000000 0.015491
v 0.009916 -0.000000 0.015491
v 0.016891 -0.000000 0.007822
v 0.017323 -0.000000 0.007175
v -0.018750 0.000000 0.000000
v -0.018441 0.000000 -0.001555
v -0.017824 0.000000 -0.004654
v 0.017824 -0.000000 -0.004654
v 0.018441 -0.000000 -0.001555
v 0.018750 0.000000 0.000000
v -0.017323 0.000000 -0.007175
v -0.014378 -0.000000 -0.011583
v -0.007403 -0.000000 -0.017170
v 0.007403 -0.000000 -0.017170
v 0.014378 -0.000000 -0.011583
v 0.017323 0.000000 -0.007175
v -0.013258 -0.000000 -0.013258
v -0.011447 -0.000000 -0.014469
v -0.004930 0.000000 -0.017769
v 0.004930 -0.000000 -0.017769
v 0.011447 -0.000000 -0.014469
v 0.013258 -0.000000 -0.013258
v -0.030314 -0.025639 -0.022361
v -0.015168 -0.016500 -0.021714
v -0.006188 -0.016500 -0.025769
v 0.006188 -0.016500 -0.025769
v 0.015168 -0.016500 -0.021714
v 0.030304 -0.025633 -0.022361
v -0.036785 -0.033967 -0.025785
v -0.028146 -0.033682 -0.026552
v -0.005638 -0.022197 -0.026405
v 0.005667 -0.022204 -0.026399
v 0.028148 -0.033682 -0.026553
v 0.036785 -0.033967 -0.025785
v -0.038371 -0.043084 -0.030736
v -0.027877 -0.043533 -0.032007
v -0.025547 -0.043820 -0.031336
v 0.025547 -0.043820 -0.031336
v 0.027877 -0.043533 -0.032008
v 0.038371 -0.043084 -0.030736
v -0.038576 -0.055859 -0.032893
v -0.027877 -0.056777 -0.034289
v -0.025547 -0.056738 -0.033551
v 0.025547 -0.056738 -0.033551
v 0.027877 -0.056776 -0.034289
v 0.038576 -0.055859 -0.032893
v -0.037351 -0.067740 -0.030757
v -0.028024 -0.067040 -0.032195
v -0.025671 -0.066808 -0.031778
v 0.025671 -0.066808 -0.031778
v 0.028025 -0.067040 -0.032195
v 0.037351 -0.067740 -0.030757
v 0.030664 -0.021253 -0.013901
v 0.039115 -0.028779 -0.019566
v 0.040500 -0.042407 -0.023013
v 0.040500 -0.058228 -0.024914
v 0.039945 -0.073852 -0.026205
v 0.037901 -0.022184 -0.003396
v 0.040500 -0.027974 -0.006071
v 0.040500 -0.043915 -0.007746
v 0.040500 -0.059856 -0.009422
v 0.040500 -0.075797 -0.011097
v 0.038000 -0.023053 0.008248
v 0.040500 -0.029602 0.009422
v 0.040500 -0.045543 0.007746
v 0.040500 -0.061484 0.006071
v 0.040500 -0.077425 0.004395
v 0.036823 -0.027207 0.018571
v 0.039660 -0.032434 0.023447
v 0.040500 -0.047172 0.023239
v 0.040500 -0.063113 0.021564
v 0.040456 -0.079050 0.019885
v -0.030665 -0.021253 -0.013899
v -0.039115 -0.028779 -0.019566
v -0.040500 -0.042407 -0.023013
v -0.040500 -0.058228 -0.024914
v -0.039945 -0.073852 -0.026205
v -0.037901 -0.022184 -0.003396
v -0.040500 -0.027974 -0.006071
v -0.040500 -0.043915 -0.007746
v -0.040500 -0.059856 -0.009422
v -0.040500 -0.075797 -0.011097
v -0.038000 -0.023053 0.008248
v -0.040500 -0.029602 0.009422
v -0.040500 -0.045543 0.007746
v -0.040500 -0.061484 0.006071
v -0.040500 -0.077425 0.004395
v -0.036823 -0.027207 0.018571
v -0.039660 -0.032434 0.023447
v -0.040500 -0.047172 0.023239
v -0.040500 -0.063113 0.021564
v -0.040456 -0.079050 0.019885
vt 0.698227 0.321274
vt 0.699546 0.330185
vt 0.691835 0.329379
vt 0.693114 0.329513
vt 0.708022 0.312900
vt 0.704017 0.330652
vt 0.898432 0.556089
vt 0.901524 0.548673
vt 0.905917 0.544178
vt 0.904357 0.554944
vt 0.916302 0.542466
vt 0.916302 0.554869
vt 0.897801 0.566095
vt 0.904172 0.567273
vt 0.909692 0.537927
vt 0.917902 0.537794
vt 0.928431 0.542466
vt 0.928431 0.554869
vt 0.916302 0.567273
vt 0.900422 0.575066
vt 0.904445 0.579401
vt 0.913170 0.521027
vt 0.918726 0.520447
vt 0.926990 0.537521
vt 0.939522 0.543511
vt 0.940561 0.554869
vt 0.928431 0.567273
vt 0.916302 0.579676
vt 0.903497 0.541982
vt 0.908459 0.521519
vt 0.924282 0.519867
vt 0.935321 0.539883
vt 0.944371 0.548069
vt 0.947803 0.555869
vt 0.940561 0.567273
vt 0.928431 0.579676
vt 0.909298 0.584347
vt 0.917203 0.587416
vt 0.932761 0.536089
vt 0.948411 0.566455
vt 0.940558 0.579673
vt 0.927530 0.587724
vt 0.928993 0.519374
vt 0.924783 0.519814
vt 0.945783 0.575153
vt 0.935832 0.585144
vt 0.352247 0.928086
vt 0.349183 0.920735
vt 0.355056 0.921870
vt 0.356602 0.932541
vt 0.348558 0.910818
vt 0.354873 0.909651
vt 0.366895 0.921944
vt 0.366895 0.934237
vt 0.351156 0.901927
vt 0.355143 0.897629
vt 0.366895 0.909651
vt 0.378917 0.921944
vt 0.378917 0.934237
vt 0.360345 0.938736
vt 0.368481 0.938868
vt 0.366895 0.897357
vt 0.378917 0.909651
vt 0.390939 0.921944
vt 0.389910 0.933202
vt 0.377488 0.939139
vt 0.363791 0.955486
vt 0.369298 0.956062
vt 0.359953 0.892728
vt 0.367788 0.889686
vt 0.378917 0.897358
vt 0.390939 0.909651
vt 0.398117 0.920954
vt 0.394716 0.928684
vt 0.385745 0.936798
vt 0.374070 0.948372
vt 0.359122 0.954999
vt 0.354204 0.934712
vt 0.378023 0.889381
vt 0.390936 0.897360
vt 0.398720 0.910461
vt 0.386252 0.891937
vt 0.396114 0.901840
vt 0.530277 0.811473
vt 0.538317 0.809794
vt 0.538535 0.820036
vt 0.529239 0.820529
vt 0.531326 0.805287
vt 0.538061 0.803971
vt 0.540105 0.809977
vt 0.540205 0.820080
vt 0.538384 0.831728
vt 0.529406 0.831552
vt 0.530319 0.801070
vt 0.538317 0.800666
vt 0.539951 0.804119
vt 0.528118 0.806766
vt 0.540205 0.831617
vt 0.538061 0.840871
vt 0.530749 0.839673
vt 0.540105 0.800958
vt 0.555185 0.852424
vt 0.542133 0.850636
vt 0.531326 0.845037
vt 0.581628 0.831617
vt 0.566525 0.852298
vt 0.556913 0.855909
vt 0.551757 0.857259
vt 0.536349 0.849777
vt 0.531064 0.848197
vt 0.528764 0.844419
vt 0.583449 0.831728
vt 0.583770 0.840870
vt 0.564921 0.855907
vt 0.557200 0.857409
vt 0.550168 0.869550
vt 0.536431 0.852146
vt 0.581628 0.820080
vt 0.583299 0.820036
vt 0.592427 0.831552
vt 0.591085 0.839673
vt 0.579700 0.850636
vt 0.564634 0.857409
vt 0.556076 0.869913
vt 0.581729 0.809977
vt 0.583517 0.809793
vt 0.592595 0.820529
vt 0.590508 0.845037
vt 0.570077 0.857259
vt 0.565758 0.869913
vt 0.581883 0.804119
vt 0.583773 0.803971
vt 0.591557 0.811473
vt 0.593070 0.844419
vt 0.590770 0.848197
vt 0.585493 0.849772
vt 0.571666 0.869550
vt 0.581729 0.800958
vt 0.583517 0.800666
vt 0.590508 0.805287
vt 0.585405 0.852146
vt 0.591515 0.801070
vt 0.593715 0.806766
vt 0.168722 0.871821
vt 0.170137 0.871919
vt 0.167230 0.885247
vt 0.155397 0.892357
vt 0.175228 0.872187
vt 0.174245 0.885577
vt 0.157091 0.898907
vt 0.150342 0.899065
vt 0.182931 0.872187
vt 0.183914 0.885577
vt 0.174675 0.890027
vt 0.157301 0.906956
vt 0.149103 0.906506
vt 0.148521 0.894555
vt 0.155123 0.888283
vt 0.188022 0.871919
vt 0.190929 0.885247
vt 0.183507 0.890032
vt 0.159121 0.907123
vt 0.157301 0.917367
vt 0.148943 0.916546
vt 0.189437 0.871821
vt 0.202754 0.892352
vt 0.201069 0.898907
vt 0.199038 0.907123
vt 0.159121 0.917278
vt 0.157187 0.925122
vt 0.149900 0.925546
vt 0.207817 0.899065
vt 0.200858 0.906956
vt 0.159025 0.924910
vt 0.157055 0.931713
vt 0.150565 0.930616
vt 0.203035 0.888283
vt 0.209638 0.894555
vt 0.209056 0.906506
vt 0.200858 0.917367
vt 0.199038 0.917278
vt 0.158876 0.931560
vt 0.157273 0.935859
vt 0.149821 0.934858
vt 0.147873 0.929896
vt 0.209216 0.916546
vt 0.200974 0.925123
vt 0.199134 0.924910
vt 0.159025 0.935588
vt 0.208259 0.925546
vt 0.201104 0.931713
vt 0.199283 0.931560
vt 0.207594 0.930616
vt 0.200885 0.935859
vt 0.199134 0.935588
vt 0.210286 0.929896
vt 0.208338 0.934858
vt 0.413134 0.272737
vt 0.420370 0.272812
vt 0.420601 0.280775
vt 0.412008 0.280391
vt 0.422070 0.273014
vt 0.422164 0.280918
vt 0.420601 0.290386
vt 0.411932 0.290388
vt 0.422164 0.290280
vt 0.420397 0.299001
vt 0.412914 0.298426
vt 0.422070 0.298829
vt 0.000094 0.182164
vt 0.001793 0.181962
vt 0.001563 0.189925
vt 0.000000 0.190069
vt 0.009030 0.181887
vt 0.010156 0.189541
vt 0.001563 0.199536
vt 0.000000 0.199430
vt 0.010232 0.199539
vt 0.001767 0.208151
vt 0.000094 0.207980
vt 0.009250 0.207576
vt 0.436234 0.005700
vt 0.433057 0.000325
vt 0.434586 0.003235
vt 0.440247 0.008380
vt 0.723522 0.112923
vt 0.723522 0.104114
vt 0.725051 0.101204
vt 0.725051 0.115834
vt 0.739922 0.095370
vt 0.739922 0.121667
vt 0.730712 0.096059
vt 0.737634 0.094916
vt 0.749161 0.103057
vt 0.749161 0.113980
vt 0.730712 0.120978
vt 0.737634 0.122122
vt 0.731190 0.095740
vt 0.736486 0.094687
vt 0.749604 0.104882
vt 0.749604 0.112155
vt 0.332715 0.008415
vt 0.335892 0.003039
vt 0.339905 0.000360
vt 0.334244 0.005504
vt 0.866114 0.085537
vt 0.866344 0.086677
vt 0.869360 0.094035
vt 0.867174 0.090801
vt 0.633742 0.177606
vt 0.634200 0.179880
vt 0.641934 0.189062
vt 0.636758 0.184963
vt 0.387980 0.012592
vt 0.388438 0.010318
vt 0.385422 0.017675
vt 0.380245 0.021774
vt 0.758225 0.096885
vt 0.758455 0.095745
vt 0.757395 0.101009
vt 0.755209 0.104243
vt 0.438338 0.000334
vt 0.440524 0.003567
vt 0.442700 0.005685
vt 0.441355 0.004796
vt 0.780901 0.045826
vt 0.776776 0.040682
vt 0.776334 0.038857
vt 0.778771 0.043664
vt 0.581373 0.079486
vt 0.585497 0.074342
vt 0.583367 0.076504
vt 0.580930 0.081311
vt 0.329610 0.003584
vt 0.331796 0.000350
vt 0.328779 0.004813
vt 0.327433 0.005702
vt 0.660443 0.286544
vt 0.654867 0.289297
vt 0.654959 0.283525
vt 0.660171 0.281594
vt 0.361583 0.178047
vt 0.348558 0.174393
vt 0.349535 0.165563
vt 0.355032 0.168273
vt 0.349803 0.160686
vt 0.354948 0.162589
vn -0.158742 -0.593931 -0.788699
vn -0.054532 -0.612676 -0.788451
vn -0.059028 -0.828483 -0.556895
vn -0.576144 -0.680737 -0.452388
vn 0.160147 -0.594721 -0.787819
vn 0.194249 -0.812298 -0.549946
vn -0.160152 -0.594696 -0.787837
vn 0.054527 -0.612697 -0.788435
vn 0.059023 -0.828482 -0.556897
vn -0.194214 -0.812301 -0.549953
vn 0.158746 -0.593957 -0.788679
vn 0.576120 -0.680750 -0.452400
vn -0.059442 -0.960066 -0.273384
vn -0.653661 -0.725388 -0.215729
vn 0.238901 -0.932004 -0.272571
vn 0.059447 -0.960063 -0.273394
vn -0.238881 -0.932015 -0.272551
vn 0.653653 -0.725393 -0.215739
vn -0.049724 -0.998170 0.034401
vn -0.652042 -0.757881 0.021415
vn 0.238211 -0.969728 0.053699
vn 0.049725 -0.998170 0.034402
vn -0.238204 -0.969730 0.053699
vn 0.652041 -0.757881 0.021415
vn -0.044608 -0.944925 0.324232
vn -0.598939 -0.763098 0.242802
vn 0.196617 -0.928857 0.313952
vn 0.044605 -0.944925 0.324234
vn -0.196619 -0.928856 0.313954
vn 0.598938 -0.763099 0.242803
vn -0.064759 -0.795151 0.602944
vn -0.222532 -0.758203 0.612869
vn 0.155431 -0.791352 0.591272
vn 0.064759 -0.795151 0.602944
vn -0.155432 -0.791355 0.591269
vn 0.222534 -0.758204 0.612867
vn -0.048756 -0.540859 0.839699
vn -0.572418 -0.403181 0.713991
vn 0.195858 -0.537580 0.820150
vn 0.048758 -0.540860 0.839698
vn -0.195864 -0.537579 0.820150
vn 0.572414 -0.403184 0.713992
vn -0.034639 -0.221280 0.974595
vn -0.618005 -0.163011 0.769088
vn 0.250871 -0.219727 0.942753
vn 0.034643 -0.221267 0.974598
vn -0.250835 -0.219745 0.942759
vn 0.617993 -0.163002 0.769100
vn -0.036610 0.150538 0.987926
vn -0.617669 0.083056 0.782040
vn 0.014353 0.244022 0.969664
vn 0.035141 0.151071 0.987898
vn -0.013255 0.244298 0.969609
vn 0.617620 0.083085 0.782076
vn -0.092641 0.377132 0.921515
vn -0.497665 0.360705 0.788810
vn -0.037295 0.276834 0.960194
vn 0.037827 0.274457 0.960855
vn 0.090182 0.376333 0.922085
vn 0.497575 0.360714 0.788863
vn -0.182534 0.366657 0.912274
vn -0.229761 0.580035 0.781517
vn -0.152498 0.180436 0.971693
vn 0.153165 0.183699 0.970976
vn 0.177082 0.360765 0.915691
vn 0.229647 0.579954 0.781611
vn -0.412402 0.476299 0.776571
vn -0.412141 0.519424 0.748558
vn -0.141939 0.411450 0.900312
vn 0.141948 0.411434 0.900318
vn 0.412445 0.476334 0.776527
vn 0.412177 0.519469 0.748506
vn -0.582426 0.572067 0.577511
vn -0.520172 0.651077 0.552738
vn -0.158487 0.574333 0.803133
vn 0.158487 0.574333 0.803133
vn 0.487172 0.551624 0.677033
vn 0.527272 0.601176 0.600477
vn -0.691131 0.706286 0.153292
vn -0.720805 0.637460 0.272185
vn 0.000001 1.000000 0.000000
vn 0.000000 1.000000 0.000000
vn 0.539279 0.761142 0.360334
vn 0.722133 0.656227 0.218839
vn -0.097416 0.994974 0.023157
vn -0.767367 0.631306 -0.112253
vn 0.000000 1.000000 -0.000000
vn 0.000000 1.000000 0.000000
vn -0.000003 1.000000 0.000000
vn 0.747087 0.656963 -0.101295
vn -0.000009 1.000000 -0.000007
vn -0.706536 0.616208 -0.347986
vn 0.000001 1.000000 -0.000001
vn 0.000001 1.000000 -0.000001
vn -0.000003 1.000000 0.000001
vn 0.706513 0.616192 -0.348061
vn -0.331907 0.449972 -0.829073
vn -0.531128 0.561930 -0.634143
vn 0.000067 -1.000000 0.000101
vn 0.000067 -1.000000 0.000101
vn 0.000067 -1.000000 0.000101
vn 0.000067 -1.000000 0.000101
vn 0.172512 0.472490 -0.864288
vn -0.172512 0.472490 -0.864288
vn -0.000068 -1.000000 0.000104
vn -0.000068 -1.000000 0.000104
vn -0.000068 -1.000000 0.000104
vn -0.000068 -1.000000 0.000104
vn 0.531140 0.561913 -0.634148
vn 0.331911 0.449969 -0.829074
vn -0.287659 0.416647 -0.862356
vn -0.402525 0.570110 -0.716204
vn -0.172304 0.380451 -0.908608
vn 0.172196 0.380381 -0.908658
vn 0.287647 0.416652 -0.862357
vn 0.402590 0.570108 -0.716169
vn -0.151534 0.415672 -0.896802
vn -0.475031 0.478672 -0.738389
vn -0.040030 0.241237 -0.969640
vn 0.040277 0.241278 -0.969620
vn 0.151435 0.415671 -0.896819
vn 0.475110 0.478708 -0.738315
vn -0.091372 0.324159 -0.941580
vn -0.570568 0.257157 -0.779950
vn -0.035584 0.280996 -0.959049
vn 0.035595 0.280917 -0.959072
vn 0.091291 0.324116 -0.941602
vn 0.570588 0.257140 -0.779941
vn -0.054260 0.000075 -0.998527
vn -0.580745 0.015764 -0.813933
vn 0.277128 0.013404 -0.960739
vn 0.054257 0.000090 -0.998527
vn -0.277125 0.013376 -0.960741
vn 0.580759 0.015774 -0.813923
vn -0.061766 -0.312130 -0.948029
vn -0.533735 -0.253862 -0.806648
vn 0.206867 -0.324814 -0.922877
vn 0.061775 -0.312126 -0.948030
vn -0.206894 -0.324811 -0.922872
vn 0.533766 -0.253853 -0.806631
vn 0.693304 0.628369 -0.352820
vn 0.891989 0.378544 -0.247105
vn 0.991969 0.061043 -0.110775
vn 0.994761 -0.009787 -0.101761
vn 0.973698 -0.135500 -0.183171
vn 0.774931 0.624142 -0.099643
vn 0.970831 0.230101 -0.067381
vn 0.999870 0.012269 -0.010452
vn 0.999980 -0.003871 -0.004922
vn 0.996693 -0.073917 -0.033745
vn 0.755920 0.610040 0.237561
vn 0.991029 0.125755 0.045238
vn 0.999954 0.005939 0.007552
vn 1.000000 -0.000379 0.000316
vn 0.997489 -0.070626 0.005353
vn 0.659847 0.622127 0.421378
vn 0.971732 0.160536 0.173101
vn 0.995514 0.026961 0.090688
vn 0.997378 -0.018664 0.069915
vn 0.976014 -0.168535 0.137816
vn -0.693359 0.628363 -0.352723
vn -0.892051 0.378444 -0.247031
vn -0.991969 0.061044 -0.110775
vn -0.994761 -0.009787 -0.101759
vn -0.973699 -0.135499 -0.183169
vn -0.767318 0.639864 -0.042397
vn -0.970837 0.230078 -0.067372
vn -0.999870 0.012269 -0.010452
vn -0.999980 -0.003871 -0.004922
vn -0.996693 -0.073915 -0.033744
vn -0.708001 0.645999 0.285343
vn -0.991029 0.125756 0.045237
vn -0.999954 0.005939 0.007550
vn -1.000000 -0.000379 0.000315
vn -0.997489 -0.070625 0.005353
vn -0.641045 0.669689 0.374936
vn -0.971733 0.160536 0.173101
vn -0.995514 0.026960 0.090690
vn -0.997378 -0.018663 0.069917
vn -0.976014 -0.168533 0.137816
s 1
usemtl M_sprout_SG
f 1/176/1 2/175/2 8/183/3 7/184/4
f 2/175/2 3/182/5 9/189/6 8/183/3
f 4/192/7 5/191/8 11/194/9 10/195/10
f 5/191/8 6/193/11 12/197/12 11/194/9
f 7/198/4 8/199/3 14/200/13 13/201/14
f 8/199/3 9/202/6 15/203/15 14/200/13
f 10/210/10 11/211/9 17/212/16 16/213/17
f 11/211/9 12/214/12 18/215/18 17/212/16
f 13/201/14 14/200/13 20/204/19 19/205/20
f 14/200/13 15/203/15 21/206/21 20/204/19
f 16/213/17 17/212/16 23/216/22 22/217/23
f 17/212/16 18/215/18 24/218/24 23/216/22
f 19/205/20 20/204/19 26/207/25 25/208/26
f 20/204/19 21/206/21 27/209/27 26/207/25
f 22/217/23 23/216/22 29/219/28 28/220/29
f 23/216/22 24/218/24 30/221/30 29/219/28
f 25/94/26 26/95/25 32/89/31 31/88/32
f 26/95/25 27/101/27 33/96/33 32/89/31
f 28/138/29 29/139/28 35/132/34 34/131/35
f 29/139/28 30/142/30 36/140/36 35/132/34
f 31/88/32 32/89/31 38/85/37 37/84/38
f 32/89/31 33/96/33 39/90/39 38/85/37
f 34/131/35 35/132/34 41/126/40 40/125/41
f 35/132/34 36/140/36 42/133/42 41/126/40
f 37/84/38 38/85/37 44/86/43 43/87/44
f 38/85/37 39/90/39 45/91/45 44/86/43
f 40/125/41 41/126/40 47/119/46 46/118/47
f 41/126/40 42/133/42 48/127/48 47/119/46
f 43/87/44 44/86/43 50/92/49 49/93/50
f 44/86/43 45/91/45 51/98/51 50/92/49
f 46/118/47 47/119/46 53/112/52 52/105/53
f 47/119/46 48/127/48 54/120/54 53/112/52
f 49/93/50 50/92/49 56/99/55 55/100/56
f 50/92/49 51/98/51 57/102/57 56/99/55
f 51/98/51 52/105/53 58/106/58 57/102/57
f 52/105/53 53/112/52 59/113/59 58/106/58
f 53/112/52 54/120/54 60/121/60 59/113/59
f 55/100/56 56/99/55 62/103/61 61/104/62
f 56/99/55 57/102/57 63/107/63 62/103/61
f 57/102/57 58/106/58 64/114/64 63/107/63
f 58/106/58 59/113/59 65/122/65 64/114/64
f 59/113/59 60/121/60 66/128/66 65/122/65
f 61/104/62 62/103/61 68/108/67 67/109/68
f 62/103/61 63/107/63 69/115/69 68/108/67
f 63/107/63 64/114/64 70/123/70 69/115/69
f 64/114/64 65/122/65 71/129/71 70/123/70
f 65/122/65 66/128/66 72/136/72 71/129/71
f 67/109/68 68/108/67 74/116/73 73/117/74
f 68/108/67 69/115/69 75/124/75 74/116/73
f 69/115/69 70/123/70 76/130/76 75/124/75
f 70/123/70 71/129/71 77/137/77 76/130/76
f 71/129/71 72/136/72 78/141/78 77/137/77
f 73/5/74 74/6/73 80/2/79 79/1/80
f 74/222/73 75/223/75 81/224/81 80/225/79
f 75/226/75 76/227/76 82/228/82 81/229/81
f 76/242/76 77/243/77 83/244/83 82/245/82
f 77/43/77 78/39/78 84/31/84 83/44/83
f 79/1/80 80/2/79 86/3/85 85/4/86
f 80/236/79 81/229/81 87/231/87 86/237/85
f 81/229/81 82/228/82 88/230/88 87/231/87
f 82/228/82 83/232/83 89/233/89 88/230/88
f 83/232/83 84/238/84 90/239/90 89/233/89
f 85/246/86 86/247/85 92/248/91 91/249/92
f 86/250/85 87/251/87 93/252/93 92/253/91
f 87/231/87 88/230/88 94/234/94 93/235/93
f 88/254/88 89/255/89 95/256/95 94/257/94
f 89/258/89 90/259/90 96/260/96 95/261/95
f 91/262/92 92/263/91 98/264/97 97/265/98
s off
f 92/266/99 93/267/100 99/268/101 98/269/102
s 1
f 93/235/93 94/234/94 100/240/103 99/241/104
s off
f 94/270/105 95/271/106 101/272/107 100/273/108
s 1
f 95/274/95 96/275/96 102/276/109 101/277/110
f 97/144/98 98/145/97 104/146/111 103/147/112
f 98/145/97 99/148/104 105/149/113 104/146/111
f 99/148/104 100/152/103 106/153/114 105/149/113
f 100/152/103 101/159/110 107/160/115 106/153/114
f 101/159/110 102/165/109 108/166/116 107/160/115
f 103/147/112 104/146/111 110/150/117 109/151/118
f 104/146/111 105/149/113 111/154/119 110/150/117
f 105/149/113 106/153/114 112/161/120 111/154/119
f 106/153/114 107/160/115 113/167/121 112/161/120
f 107/160/115 108/166/116 114/172/122 113/167/121
f 109/151/118 110/150/117 116/155/123 115/156/124
f 110/150/117 111/154/119 117/162/125 116/155/123
f 111/154/119 112/161/120 118/168/126 117/162/125
f 112/161/120 113/167/121 119/173/127 118/168/126
f 113/167/121 114/172/122 120/179/128 119/173/127
f 115/156/124 116/155/123 122/163/129 121/164/130
f 116/155/123 117/162/125 123/169/131 122/163/129
f 118/168/126 119/173/127 125/180/132 124/181/133
f 119/173/127 120/179/128 126/186/134 125/180/132
f 121/164/130 122/163/129 128/170/135 127/171/136
f 122/163/129 123/169/131 129/174/137 128/170/135
f 124/181/133 125/180/132 131/187/138 130/188/139
f 125/180/132 126/186/134 132/190/140 131/187/138
f 127/171/136 128/170/135 2/175/2 1/176/1
f 128/170/135 129/174/137 3/182/5 2/175/2
f 130/188/139 131/187/138 5/191/8 4/192/7
f 131/187/138 132/190/140 6/193/11 5/191/8
f 108/29/116 102/30/109 96/22/96 133/15/141
f 114/172/122 108/166/116 133/177/141 134/178/142
f 120/7/128 114/8/122 134/9/142 135/10/143
f 126/13/134 120/7/128 135/10/143 136/14/144
f 132/20/140 126/13/134 136/14/144 137/21/145
f 6/193/11 132/190/140 137/196/145 12/197/12
f 133/15/141 96/22/96 90/23/90 138/16/146
f 134/9/142 133/15/141 138/16/146 139/11/147
f 135/10/143 134/9/142 139/11/147 140/12/148
f 136/14/144 135/10/143 140/12/148 141/19/149
f 137/21/145 136/14/144 141/19/149 142/28/150
f 12/37/12 137/21/145 142/28/150 18/38/18
f 138/16/146 90/23/90 84/31/84 143/24/151
f 139/11/147 138/16/146 143/24/151 144/17/152
f 140/12/148 139/11/147 144/17/152 145/18/153
f 141/19/149 140/12/148 145/18/153 146/27/154
f 142/28/150 141/19/149 146/27/154 147/36/155
f 18/38/18 142/28/150 147/36/155 24/42/24
f 143/24/151 84/31/84 78/39/78 148/32/156
f 144/17/152 143/24/151 148/32/156 149/25/157
f 145/18/153 144/17/152 149/25/157 150/26/158
f 146/27/154 145/18/153 150/26/158 151/35/159
f 147/36/155 146/27/154 151/35/159 152/41/160
f 24/42/24 147/36/155 152/41/160 30/46/30
f 148/278/156 78/279/78 72/280/72 66/281/66
f 149/134/157 148/135/156 66/128/66 60/121/60
f 150/26/158 149/25/157 60/33/60 54/34/54
f 151/35/159 150/26/158 54/34/54 48/40/48
f 152/41/160 151/35/159 48/40/48 42/45/42
f 30/142/30 152/143/160 42/133/42 36/140/36
f 97/77/98 103/78/112 153/60/161 91/67/92
f 103/147/112 109/151/118 154/157/162 153/158/161
f 109/47/118 115/48/124 155/49/163 154/50/162
f 115/48/124 121/51/130 156/52/164 155/49/163
f 121/51/130 127/55/136 157/56/165 156/52/164
f 127/171/136 1/176/1 7/184/4 157/185/165
f 91/67/92 153/60/161 158/61/166 85/68/86
f 153/60/161 154/50/162 159/54/167 158/61/166
f 154/50/162 155/49/163 160/53/168 159/54/167
f 155/49/163 156/52/164 161/57/169 160/53/168
f 156/52/164 157/56/165 162/62/170 161/57/169
f 157/56/165 7/69/4 13/70/14 162/62/170
f 85/68/86 158/61/166 163/66/171 79/76/80
f 158/61/166 159/54/167 164/59/172 163/66/171
f 159/54/167 160/53/168 165/58/173 164/59/172
f 160/53/168 161/57/169 166/63/174 165/58/173
f 161/57/169 162/62/170 167/71/175 166/63/174
f 162/62/170 13/70/14 19/79/20 167/71/175
f 79/282/80 163/283/171 168/284/176 73/285/74
f 163/66/171 164/59/172 169/65/177 168/75/176
f 164/59/172 165/58/173 170/64/178 169/65/177
f 165/58/173 166/63/174 171/72/179 170/64/178
f 166/63/174 167/71/175 172/80/180 171/72/179
f 167/71/175 19/79/20 25/82/26 172/80/180
f 73/285/74 168/284/176 61/286/62 67/287/68
f 168/110/176 169/111/177 55/100/56 61/104/62
f 169/65/177 170/64/178 49/73/50 55/74/56
f 170/64/178 171/72/179 43/81/44 49/73/50
f 171/72/179 172/80/180 37/83/38 43/81/44
f 172/97/180 25/94/26 31/88/32 37/84/38
