# This file uses centimeters as units for non-parametric coordinates.

mtllib right_eyebrow_link.mtl
v 0.008218 0.059143 0.014649
v 0.013173 0.064925 0.014649
v 0.018127 0.064925 0.014649
v 0.023082 0.059143 0.014649
v 0.008218 -0.003775 0.014649
v 0.013173 -0.009557 0.014649
v 0.018127 -0.009557 0.014649
v 0.023082 -0.003775 0.014649
v 0.008218 -0.003775 0.017478
v 0.013173 -0.009557 0.017478
v 0.018127 -0.009557 0.017478
v 0.023082 -0.003775 0.017478
v 0.008218 0.059143 0.017478
v 0.013173 0.064925 0.017478
v 0.018127 0.064925 0.017478
v 0.023082 0.059143 0.017478
v 0.011131 0.004699 0.008072
v 0.020308 0.004699 0.008072
v 0.011131 -0.004793 0.008072
v 0.020308 -0.004793 0.008072
v 0.011131 -0.004793 0.014594
v 0.020308 -0.004793 0.014594
v 0.011131 0.004699 0.014594
v 0.020308 0.004699 0.014594
v 0.021700 0.003420 0.009397
v 0.021700 0.007660 0.006428
v 0.021700 0.009848 0.001737
v 0.021700 0.009397 -0.003420
v 0.021700 0.006428 -0.007660
v 0.021700 0.001736 -0.009848
v 0.021700 -0.003420 -0.009397
v 0.021700 -0.007660 -0.006428
v 0.021700 -0.009848 -0.001736
v 0.021700 -0.009397 0.003420
v 0.021700 -0.006428 0.007660
v 0.021700 -0.001736 0.009848
v 0.009729 0.003420 0.009397
v 0.009729 0.007660 0.006428
v 0.009729 0.009848 0.001737
v 0.009729 0.009397 -0.003420
v 0.009729 0.006428 -0.007660
v 0.009729 0.001736 -0.009848
v 0.009729 -0.003420 -0.009397
v 0.009729 -0.007660 -0.006428
v 0.009729 -0.009848 -0.001736
v 0.009729 -0.009397 0.003420
v 0.009729 -0.006428 0.007660
v 0.009729 -0.001736 0.009848
vt 0.178299 0.160678
vt 0.180472 0.161038
vt 0.171953 0.206442
vt 0.169781 0.206082
vt 0.181255 0.156866
vt 0.179082 0.156506
vt 0.168998 0.210254
vt 0.171171 0.210614
vt 0.993774 0.114602
vt 0.991602 0.114962
vt 0.983083 0.069559
vt 0.985256 0.069198
vt 0.994557 0.118775
vt 0.992384 0.119135
vt 0.982300 0.065386
vt 0.984473 0.065026
vt 0.629716 0.233873
vt 0.634605 0.234683
vt 0.633350 0.241370
vt 0.628461 0.240560
vt 0.840571 0.093060
vt 0.835682 0.093871
vt 0.834427 0.087184
vt 0.839316 0.086374
vt 0.933463 0.393399
vt 0.933130 0.397204
vt 0.930939 0.400332
vt 0.927476 0.401946
vt 0.923670 0.401613
vt 0.920541 0.399423
vt 0.918926 0.395962
vt 0.919259 0.392157
vt 0.921450 0.389029
vt 0.924913 0.387415
vt 0.928719 0.387748
vt 0.931849 0.389938
vt 0.732778 0.417293
vt 0.731164 0.420754
vt 0.728034 0.422945
vt 0.724228 0.423278
vt 0.720765 0.421664
vt 0.718574 0.418535
vt 0.718241 0.414731
vt 0.719856 0.411270
vt 0.722985 0.409079
vt 0.726791 0.408746
vt 0.730254 0.410360
vt 0.732445 0.413489
vt 0.987581 0.407780
vt 0.991382 0.403676
vt 0.991382 0.456552
vt 0.987581 0.452448
vt 0.995182 0.403676
vt 0.995182 0.456552
vt 0.998982 0.407780
vt 0.998982 0.452448
vt 0.987581 0.149070
vt 0.991382 0.144966
vt 0.991382 0.197842
vt 0.987581 0.193738
vt 0.995182 0.144966
vt 0.995182 0.197842
vt 0.998982 0.149070
vt 0.998982 0.193738
vt 0.062851 0.317139
vt 0.062851 0.320836
vt 0.052812 0.320836
vt 0.052812 0.317139
vt 0.062851 0.323176
vt 0.052812 0.323176
vt 0.062851 0.313074
vt 0.052812 0.313074
vt 0.062851 0.309732
vt 0.052812 0.309732
vt 0.606813 0.262967
vt 0.606813 0.267032
vt 0.596774 0.267032
vt 0.596774 0.262967
vt 0.606813 0.270729
vt 0.596774 0.270729
vt 0.606813 0.259625
vt 0.596774 0.259625
vt 0.606813 0.273069
vt 0.596774 0.273069
vt 0.000000 0.003966
vt 0.000000 0.000395
vt 0.002137 0.000395
vt 0.002137 0.003966
vt 0.026406 0.003966
vt 0.026406 0.000395
vt 0.028543 0.000395
vt 0.028543 0.003966
vt 0.739366 0.025415
vt 0.739366 0.018799
vt 0.744293 0.018799
vt 0.744293 0.025415
vt 0.163717 0.010656
vt 0.163717 0.004040
vt 0.168644 0.004040
vt 0.168644 0.010656
vt 0.940051 0.150993
vt 0.944075 0.150993
vt 0.944075 0.159774
vt 0.940051 0.159774
vt 0.947737 0.150993
vt 0.947737 0.159774
vt 0.929488 0.150993
vt 0.933513 0.150993
vt 0.933513 0.159774
vt 0.929488 0.159774
vt 0.937174 0.150993
vt 0.937174 0.159774
vn -0.000004 0.000000 -1.000000
vn -0.000001 0.000000 -1.000000
vn -0.000001 0.000000 -1.000000
vn -0.000004 0.000000 -1.000000
vn 0.000002 0.000000 -1.000000
vn 0.000002 0.000000 -1.000000
vn 0.000004 0.000000 -1.000000
vn 0.000004 0.000000 -1.000000
vn -0.759344 -0.650690 -0.000004
vn -0.503973 -0.863719 -0.000003
vn -0.503975 -0.863718 -0.000003
vn -0.759344 -0.650690 -0.000004
vn 0.503969 -0.863721 -0.000001
vn 0.503969 -0.863721 -0.000001
vn 0.759344 -0.650689 -0.000001
vn 0.759344 -0.650689 -0.000001
vn -0.000003 0.000000 1.000000
vn -0.000002 0.000000 1.000000
vn -0.000002 0.000000 1.000000
vn -0.000003 0.000000 1.000000
vn 0.000001 0.000000 1.000000
vn 0.000001 0.000000 1.000000
vn 0.000004 0.000000 1.000000
vn 0.000004 0.000000 1.000000
vn -0.759342 0.650692 -0.000004
vn -0.503971 0.863721 -0.000002
vn -0.503969 0.863722 -0.000002
vn -0.759342 0.650692 -0.000004
vn 0.503971 0.863721 0.000001
vn 0.503973 0.863719 0.000001
vn 0.759344 0.650689 0.000001
vn 0.759344 0.650689 0.000001
vn 1.000000 0.000000 -0.000004
vn 1.000000 0.000000 -0.000004
vn 1.000000 0.000000 -0.000004
vn 1.000000 0.000000 -0.000004
vn -1.000000 0.000000 -0.000004
vn -1.000000 0.000000 -0.000004
vn -1.000000 0.000000 -0.000004
vn -1.000000 0.000000 -0.000004
vn 0.000000 -1.000000 0.000000
vn 0.000000 -1.000000 0.000000
vn 0.000000 -1.000000 0.000000
vn 0.000000 -1.000000 0.000000
vn 0.000000 1.000000 0.000000
vn 0.000000 1.000000 0.000000
vn 0.000000 1.000000 0.000000
vn 0.000000 1.000000 0.000000
vn 1.000000 0.000001 0.000001
vn 1.000000 0.000001 0.000001
vn 1.000000 0.000001 0.000001
vn 1.000000 0.000001 0.000001
vn -1.000000 0.000000 -0.000001
vn -1.000000 0.000000 -0.000001
vn -1.000000 0.000000 -0.000001
vn -1.000000 0.000000 -0.000001
vn 0.000000 0.573575 0.819153
vn 0.000000 0.573575 0.819153
vn 0.000000 0.573575 0.819153
vn 0.000000 0.573575 0.819153
vn 0.000000 0.906306 0.422622
vn 0.000000 0.906306 0.422622
vn 0.000000 0.906306 0.422622
vn 0.000000 0.906306 0.422622
vn 0.000000 0.996195 -0.087158
vn 0.000000 0.996195 -0.087158
vn 0.000000 0.996195 -0.087158
vn 0.000000 0.996195 -0.087158
vn 0.000000 0.819152 -0.573576
vn 0.000000 0.819152 -0.573576
vn 0.000000 0.819152 -0.573576
vn 0.000000 0.819152 -0.573576
vn 0.000000 0.422629 -0.906303
vn 0.000000 0.422629 -0.906303
vn 0.000000 0.422629 -0.906303
vn 0.000000 0.422629 -0.906303
vn 0.000000 -0.087168 -0.996194
vn 0.000000 -0.087168 -0.996194
vn 0.000000 -0.087169 -0.996194
vn 0.000000 -0.087168 -0.996194
vn 0.000000 -0.573572 -0.819155
vn 0.000000 -0.573572 -0.819155
vn 0.000000 -0.573572 -0.819155
vn 0.000000 -0.573572 -0.819155
vn 0.000000 -0.906310 -0.422614
vn 0.000000 -0.906310 -0.422614
vn 0.000000 -0.906310 -0.422614
vn 0.000000 -0.906310 -0.422614
vn 0.000000 -0.996194 0.087158
vn 0.000000 -0.996194 0.087158
vn 0.000000 -0.996194 0.087158
vn 0.000000 -0.996194 0.087158
vn 0.000000 -0.819155 0.573573
vn 0.000000 -0.819155 0.573573
vn 0.000000 -0.819155 0.573573
vn 0.000000 -0.819155 0.573573
vn 0.000000 -0.422616 0.906309
vn 0.000000 -0.422616 0.906309
vn 0.000000 -0.422616 0.906309
vn 0.000000 -0.422616 0.906309
vn 0.000000 0.087160 0.996194
vn 0.000000 0.087160 0.996194
vn 0.000000 0.087160 0.996194
vn 0.000000 0.087160 0.996194
vn 1.000000 -0.000001 0.000000
vn 1.000000 -0.000001 0.000000
vn 1.000000 -0.000001 0.000000
vn 1.000000 -0.000001 0.000000
vn 1.000000 -0.000001 0.000000
vn 1.000000 -0.000001 0.000000
vn 1.000000 -0.000001 0.000000
vn 1.000000 -0.000001 0.000000
vn 1.000000 -0.000001 0.000000
vn 1.000000 -0.000001 0.000000
vn 1.000000 -0.000001 0.000000
vn 1.000000 -0.000001 0.000000
vn -1.000000 -0.000000 -0.000000
vn -1.000000 -0.000000 -0.000000
vn -1.000000 -0.000000 -0.000000
vn -1.000000 -0.000000 -0.000000
vn -1.000000 -0.000000 -0.000000
vn -1.000000 -0.000000 -0.000000
vn -1.000000 -0.000000 -0.000000
vn -1.000000 -0.000000 -0.000000
vn -1.000000 -0.000000 -0.000000
vn -1.000000 -0.000000 -0.000000
vn -1.000000 -0.000000 -0.000000
vn -1.000000 -0.000000 -0.000000
s 1
usemtl M_sprout_SG
f 1/49/1 2/50/2 6/51/3 5/52/4
f 2/50/2 3/53/5 7/54/6 6/51/3
f 3/53/5 4/55/7 8/56/8 7/54/6
s 2
f 5/11/9 6/15/10 10/16/11 9/12/12
f 6/85/10 7/86/13 11/87/14 10/88/11
f 7/7/13 8/4/15 12/3/16 11/8/14
s 3
f 9/57/17 10/58/18 14/59/19 13/60/20
f 10/58/18 11/61/21 15/62/22 14/59/19
f 11/61/21 12/63/23 16/64/24 15/62/22
s 4
f 13/9/25 14/13/26 2/14/27 1/10/28
f 14/89/26 15/90/29 3/91/30 2/92/27
f 15/5/29 16/2/31 4/1/32 3/6/30
s off
f 4/1/33 16/2/34 12/3/35 8/4/36
f 13/9/37 1/10/38 5/11/39 9/12/40
f 19/93/41 20/94/42 22/95/43 21/96/44
f 23/97/45 24/98/46 18/99/47 17/100/48
f 18/17/49 24/18/50 22/19/51 20/20/52
f 23/21/53 17/22/54 19/23/55 21/24/56
f 25/65/57 26/66/58 38/67/59 37/68/60
f 26/66/61 27/69/62 39/70/63 38/67/64
f 27/101/65 28/102/66 40/103/67 39/104/68
f 28/102/69 29/105/70 41/106/71 40/103/72
f 29/81/73 30/75/74 42/78/75 41/82/76
f 30/75/77 31/76/78 43/77/79 42/78/80
f 31/76/81 32/79/82 44/80/83 43/77/84
f 32/79/85 33/83/86 45/84/87 44/80/88
f 33/107/89 34/108/90 46/109/91 45/110/92
f 34/108/93 35/111/94 47/112/95 46/109/96
f 35/73/97 36/71/98 48/72/99 47/74/100
f 36/71/101 25/65/102 37/68/103 48/72/104
f 25/25/105 36/26/106 35/27/107 34/28/108 33/29/109 32/30/110 31/31/111 30/32/112 29/33/113 28/34/114 27/35/115 26/36/116
f 37/37/117 38/38/118 39/39/119 40/40/120 41/41/121 42/42/122 43/43/123 44/44/124 45/45/125 46/46/126 47/47/127 48/48/128
