# This file uses centimeters as units for non-parametric coordinates.

mtllib right_femur_upper_link.mtl
v -0.062553 -0.033439 -0.139632
v -0.058235 -0.032951 -0.141355
v -0.037562 -0.033345 -0.142899
v -0.029086 -0.034206 -0.142262
v -0.014381 -0.032817 -0.141072
v 0.002667 -0.030675 -0.141913
v 0.003494 -0.030957 -0.141510
v -0.064014 -0.038335 -0.131885
v -0.058541 -0.039110 -0.132335
v -0.042902 -0.039296 -0.132493
v -0.028078 -0.039452 -0.135067
v -0.012512 -0.038492 -0.134544
v 0.001086 -0.038098 -0.133270
v 0.009686 -0.033816 -0.130445
v -0.067200 -0.040745 -0.120545
v -0.058509 -0.043499 -0.122315
v -0.042905 -0.044272 -0.122402
v -0.027591 -0.044551 -0.122445
v -0.012042 -0.043743 -0.122152
v 0.001814 -0.042457 -0.121485
v 0.011234 -0.037213 -0.118956
v -0.070000 -0.042559 -0.088938
v -0.058509 -0.045347 -0.089327
v -0.042994 -0.046776 -0.089332
v -0.027463 -0.047177 -0.089339
v -0.012017 -0.045516 -0.089295
v 0.002861 -0.043998 -0.089309
v 0.011957 -0.037654 -0.089133
v -0.071696 -0.043454 -0.055764
v -0.058526 -0.045629 -0.055887
v -0.043031 -0.047014 -0.055906
v -0.027451 -0.047312 -0.055907
v -0.011930 -0.045940 -0.055901
v 0.002937 -0.044273 -0.055879
v 0.012295 -0.038098 -0.055709
v -0.071895 -0.043768 -0.039126
v -0.058520 -0.045764 -0.039162
v -0.043035 -0.047073 -0.039190
v -0.027445 -0.047379 -0.039191
v -0.011917 -0.046225 -0.039178
v 0.002900 -0.044124 -0.039226
v 0.012193 -0.037845 -0.039393
v -0.072007 -0.043816 -0.022528
v -0.063061 -0.043990 -0.025001
v -0.042748 -0.045789 -0.035681
v -0.027523 -0.046085 -0.035504
v -0.005896 -0.044351 -0.026396
v 0.002856 -0.043966 -0.022512
v 0.012027 -0.037625 -0.022681
v -0.071960 -0.043608 -0.005815
v -0.067206 -0.043409 -0.006049
v -0.067201 -0.043418 -0.006341
v -0.002691 -0.043889 -0.006030
v -0.002691 -0.043887 -0.005981
v 0.003226 -0.043695 -0.005817
v 0.011861 -0.037404 -0.005969
v -0.071457 -0.042390 0.009217
v -0.067305 -0.041964 0.009224
v -0.067299 -0.041958 0.009210
v -0.002700 -0.042380 0.010223
v -0.002700 -0.042388 0.010171
v 0.001585 -0.042738 0.009781
v 0.011697 -0.037033 0.007548
v -0.070615 -0.037997 0.021450
v -0.067322 -0.037019 0.021523
v -0.067322 -0.037060 0.021453
v -0.002659 -0.037149 0.022380
v 0.001086 -0.038077 0.022278
v 0.009838 -0.034161 0.018760
v -0.070596 -0.031158 0.030576
v -0.068522 -0.031774 0.029739
v -0.067319 -0.031480 0.029024
v -0.002683 -0.031963 0.029431
v -0.001533 -0.031655 0.030654
v -0.000842 -0.031850 0.030484
v 0.003655 -0.030866 0.030420
v -0.075761 -0.022604 0.032655
v -0.071668 -0.024637 0.035422
v -0.067303 -0.025560 0.034568
v -0.067302 -0.025639 0.034518
v -0.002692 -0.025727 0.035026
v -0.002692 -0.025657 0.035073
v 0.000554 -0.026179 0.035372
v 0.009836 -0.022912 0.031281
v -0.080737 -0.000001 0.035024
v -0.073144 0.000000 0.042532
v -0.067299 0.000000 0.043053
v -0.002700 -0.000062 0.043564
v 0.003494 -0.000000 0.043461
v 0.012317 -0.000001 0.037425
v -0.075792 0.022284 0.033097
v -0.071235 0.024346 0.035910
v -0.067300 0.025130 0.034757
v -0.067300 0.025134 0.034754
v -0.002693 0.025761 0.035013
v -0.002692 0.025690 0.035059
v 0.000554 0.026178 0.035372
v 0.009843 0.022903 0.031283
v -0.071959 0.032589 0.028483
v -0.068522 0.031828 0.029682
v -0.067319 0.031495 0.028997
v -0.002684 0.032014 0.029377
v -0.001533 0.031714 0.030571
v -0.000834 0.031852 0.030481
v 0.003647 0.030882 0.030411
v -0.071090 0.037504 0.021723
v -0.067321 0.037057 0.021478
v -0.067299 0.037059 0.021396
v -0.002659 0.037157 0.022332
v 0.001086 0.038078 0.022280
v 0.009866 0.034124 0.018777
v -0.071954 0.042062 0.009196
v -0.067299 0.041959 0.009212
v -0.067299 0.041960 0.009209
v -0.002699 0.042364 0.010254
v -0.002698 0.042382 0.010147
v 0.001596 0.042740 0.009789
v 0.011691 0.037046 0.007543
v -0.071965 0.043613 -0.005814
v -0.067207 0.043406 -0.006047
v -0.067201 0.043415 -0.006337
v -0.002691 0.043885 -0.006030
v -0.002691 0.043883 -0.005981
v 0.003234 0.043704 -0.005817
v 0.010556 0.038263 -0.005586
v -0.072009 0.043817 -0.022527
v -0.063061 0.043991 -0.024999
v -0.042748 0.045787 -0.035683
v -0.027522 0.046097 -0.035507
v -0.005895 0.044352 -0.026393
v 0.002850 0.043975 -0.022510
v 0.008303 0.040109 -0.021767
v -0.071952 0.043738 -0.039129
v -0.058527 0.045781 -0.039174
v -0.043035 0.047073 -0.039190
v -0.027440 0.047398 -0.039191
v -0.011917 0.046224 -0.039178
v 0.002893 0.044127 -0.039225
v 0.009451 0.037921 -0.039191
v -0.071672 0.043472 -0.055762
v -0.058541 0.045571 -0.055874
v -0.043014 0.046913 -0.055897
v -0.027452 0.047300 -0.055907
v -0.011929 0.045936 -0.055902
v 0.002944 0.044275 -0.055878
v 0.009450 0.037920 -0.055907
v -0.069998 0.042563 -0.088938
v -0.058510 0.045349 -0.089328
v -0.042999 0.046770 -0.089338
v -0.027463 0.047177 -0.089339
v -0.012017 0.045518 -0.089295
v 0.002866 0.043996 -0.089308
v 0.008367 0.040070 -0.090039
v -0.067201 0.040743 -0.120545
v -0.058509 0.043495 -0.122314
v -0.042905 0.044269 -0.122401
v -0.027591 0.044548 -0.122445
v -0.012041 0.043744 -0.122150
v 0.001813 0.042460 -0.121482
v 0.011233 0.037215 -0.118951
v -0.064023 0.038333 -0.131879
v -0.058545 0.039113 -0.132337
v -0.042906 0.039295 -0.132491
v -0.028077 0.039450 -0.135070
v -0.012511 0.038491 -0.134548
v 0.001086 0.038100 -0.133270
v 0.009692 0.033816 -0.130438
v -0.062554 0.033447 -0.139628
v -0.058235 0.032958 -0.141350
v -0.037567 0.033345 -0.142898
v -0.029095 0.034204 -0.142266
v -0.014381 0.032817 -0.141073
v 0.002633 0.030676 -0.141911
v 0.003494 0.030931 -0.141535
v -0.066447 0.025276 -0.142072
v -0.063575 0.025402 -0.144858
v -0.057617 0.026652 -0.147455
v -0.041949 0.025468 -0.149491
v -0.027974 0.026199 -0.149748
v -0.012669 0.025707 -0.148443
v 0.001589 0.025850 -0.146204
v 0.009568 0.022595 -0.142697
v -0.067192 0.000000 -0.145804
v -0.064513 0.000000 -0.151678
v -0.058534 0.000000 -0.155776
v -0.057337 -0.001522 -0.156142
v -0.005350 -0.004279 -0.155429
v -0.004770 -0.001336 -0.155697
v 0.003380 0.000000 -0.154493
v 0.012318 0.000002 -0.148425
v -0.066447 -0.025277 -0.142071
v -0.063576 -0.025402 -0.144856
v -0.057617 -0.026649 -0.147454
v -0.041951 -0.025469 -0.149492
v -0.027976 -0.026197 -0.149749
v -0.012666 -0.025702 -0.148446
v 0.001591 -0.025848 -0.146206
v 0.009576 -0.022584 -0.142702
v 0.012322 0.027320 -0.135775
v 0.016974 0.000001 -0.138912
v 0.012321 -0.027321 -0.135773
v 0.015861 0.029478 -0.121950
v 0.018216 0.000000 -0.122749
v 0.015862 -0.029476 -0.121949
v 0.016190 0.030823 -0.089341
v 0.018854 0.000000 -0.089328
v 0.016273 -0.030976 -0.089326
v 0.016190 0.030823 -0.055908
v 0.019492 -0.000001 -0.055908
v 0.016416 -0.031009 -0.055894
v 0.016190 0.030823 -0.039192
v 0.019189 -0.000000 -0.039198
v 0.016352 -0.030986 -0.039206
v 0.016190 0.030823 -0.022475
v 0.018870 -0.000000 -0.022487
v 0.016280 -0.030969 -0.022490
v 0.016190 0.030823 -0.005759
v 0.018550 -0.000000 -0.005777
v 0.016208 -0.030952 -0.005774
v 0.016001 0.029570 0.010149
v 0.018231 -0.000000 0.010933
v 0.016003 -0.029564 0.010146
v 0.012318 0.027722 0.024297
v 0.017151 -0.000001 0.027137
v 0.012321 -0.027718 0.024297
v -0.068616 0.028496 -0.133974
v -0.073314 -0.000000 -0.132381
v -0.068616 -0.028497 -0.133974
v -0.071327 0.029272 -0.119855
v -0.075100 -0.000000 -0.120529
v -0.071327 -0.029273 -0.119855
v -0.074952 0.029714 -0.087840
v -0.078405 -0.000000 -0.088367
v -0.074952 -0.029715 -0.087840
v -0.078035 0.029065 -0.054952
v -0.081194 -0.000000 -0.055168
v -0.078035 -0.029066 -0.054952
v -0.082339 0.026156 -0.034047
v -0.087565 0.000001 -0.038793
v -0.082389 -0.025423 -0.035140
v -0.086069 0.028471 -0.021322
v -0.089933 0.000000 -0.022475
v -0.086069 -0.028472 -0.021322
v -0.086548 0.029441 -0.005775
v -0.089999 -0.000001 -0.005759
v -0.086548 -0.029441 -0.005775
v -0.085859 0.028143 0.009192
v -0.089929 0.000000 0.010957
v -0.085868 -0.028134 0.009187
v -0.081948 0.025806 0.021652
v -0.087331 0.000000 0.027236
v -0.081920 -0.025469 0.022291
vt 0.998151 0.036888
vt 0.998144 0.036670
vt 0.999299 0.048298
vt 0.999294 0.048309
vt 0.999278 0.073774
vt 0.999276 0.073809
vt 0.998150 0.085279
vt 0.998144 0.085316
vt 0.702404 0.020445
vt 0.702398 0.020408
vt 0.706394 0.029210
vt 0.554524 0.079303
vt 0.561019 0.060861
vt 0.554562 0.079246
vt 0.992898 0.088593
vt 0.999337 0.106939
vt 0.992863 0.088542
vt 0.413085 0.261762
vt 0.406651 0.243345
vt 0.406653 0.243348
vt 0.999359 0.000341
vt 0.992898 0.018833
vt 0.992863 0.018883
vt 0.348558 0.051201
vt 0.352532 0.042441
vt 0.352518 0.042519
vt 0.998144 0.100073
vt 0.998145 0.100071
vt 0.999259 0.088816
vt 0.999252 0.089026
vt 0.999301 0.014992
vt 0.999287 0.014915
vt 0.998146 0.003318
vt 0.998144 0.003283
vt 0.453692 0.459020
vt 0.453693 0.451611
vt 0.472308 0.456072
vt 0.476201 0.461463
vt 0.431181 0.461464
vt 0.435084 0.456068
vt 0.453692 0.446886
vt 0.474990 0.453341
vt 0.479177 0.456977
vt 0.481553 0.465619
vt 0.453692 0.471607
vt 0.477980 0.472229
vt 0.428185 0.456996
vt 0.425830 0.465613
vt 0.432394 0.453340
vt 0.429405 0.472230
vt 0.484354 0.474565
vt 0.453692 0.497633
vt 0.479087 0.497623
vt 0.423030 0.474561
vt 0.428169 0.497635
vt 0.488676 0.472594
vt 0.485084 0.463414
vt 0.486707 0.497080
vt 0.453691 0.523659
vt 0.479087 0.523659
vt 0.422667 0.497785
vt 0.422301 0.463414
vt 0.418709 0.472591
vt 0.428142 0.523670
vt 0.489941 0.497648
vt 0.484935 0.523660
vt 0.453692 0.536672
vt 0.479087 0.536677
vt 0.417440 0.497648
vt 0.422301 0.523814
vt 0.428161 0.536666
vt 0.490171 0.523682
vt 0.484936 0.536677
vt 0.453692 0.549685
vt 0.479087 0.549695
vt 0.417214 0.523682
vt 0.422509 0.536520
vt 0.428175 0.549683
vt 0.490050 0.536650
vt 0.486739 0.550246
vt 0.453691 0.562698
vt 0.479088 0.562712
vt 0.417336 0.536650
vt 0.422691 0.549535
vt 0.428189 0.562701
vt 0.489925 0.549667
vt 0.485218 0.562847
vt 0.453691 0.575711
vt 0.478055 0.575101
vt 0.417466 0.549666
vt 0.422873 0.562549
vt 0.429332 0.575098
vt 0.489701 0.562667
vt 0.484215 0.573071
vt 0.453691 0.588329
vt 0.476533 0.586118
vt 0.417690 0.562667
vt 0.423178 0.573075
vt 0.430853 0.586118
vt 0.488906 0.574820
vt 0.481808 0.581820
vt 0.472562 0.591559
vt 0.453690 0.596341
vt 0.418478 0.574814
vt 0.425545 0.581806
vt 0.434813 0.591557
vt 0.485065 0.584548
vt 0.479137 0.590880
vt 0.475261 0.594743
vt 0.453691 0.601042
vt 0.422318 0.584546
vt 0.428260 0.590886
vt 0.432122 0.594743
vt 0.620902 0.333767
vt 0.627430 0.331922
vt 0.624857 0.338036
vt 0.616999 0.339617
vt 0.627329 0.329818
vt 0.647622 0.329104
vt 0.647622 0.339239
vt 0.624237 0.348697
vt 0.615074 0.348175
vt 0.647622 0.324668
vt 0.667815 0.331922
vt 0.670388 0.338036
vt 0.647622 0.348188
vt 0.623884 0.372870
vt 0.613620 0.372041
vt 0.667915 0.329819
vt 0.678247 0.339613
vt 0.674336 0.333764
vt 0.671008 0.348697
vt 0.647622 0.372472
vt 0.624403 0.397703
vt 0.612893 0.397091
vt 0.680172 0.348175
vt 0.671361 0.372870
vt 0.647622 0.397539
vt 0.626726 0.413487
vt 0.612681 0.409650
vt 0.681622 0.372041
vt 0.670842 0.397703
vt 0.647621 0.409904
vt 0.624877 0.423095
vt 0.612617 0.422185
vt 0.682337 0.397089
vt 0.667932 0.412662
vt 0.647622 0.422225
vt 0.624102 0.434834
vt 0.612780 0.434805
vt 0.682588 0.409652
vt 0.670368 0.423095
vt 0.647623 0.434846
vt 0.625139 0.446135
vt 0.614019 0.446138
vt 0.682626 0.422184
vt 0.671142 0.434834
vt 0.647622 0.447468
vt 0.627006 0.455543
vt 0.617661 0.455597
vt 0.682460 0.434804
vt 0.670098 0.446132
vt 0.647622 0.459760
vt 0.629820 0.464185
vt 0.621588 0.460701
vt 0.681486 0.446154
vt 0.667969 0.456026
vt 0.647623 0.465640
vt 0.628172 0.466309
vt 0.677977 0.455391
vt 0.665680 0.463851
vt 0.647622 0.471309
vt 0.672513 0.462282
vt 0.667304 0.465941
vt 0.966324 0.582471
vt 0.955946 0.404691
vt 0.955946 0.409299
vt 0.967093 0.585908
vt 0.976904 0.404692
vt 0.976250 0.407794
vt 0.961660 0.585064
vt 0.961146 0.583431
vt 0.982490 0.405655
vt 0.983124 0.408364
vt 0.955961 0.585079
vt 0.956776 0.582486
vt 0.961392 0.582484
vt 0.966258 0.582471
vt 0.976907 0.404692
vt 0.982212 0.404707
vt 0.986850 0.404708
vt 0.987223 0.407679
vt 0.956742 0.582486
vt 0.960989 0.531581
vt 0.966185 0.531588
vt 0.977430 0.353766
vt 0.982645 0.353760
vt 0.986852 0.404691
vt 0.956668 0.531562
vt 0.961246 0.530675
vt 0.966243 0.531588
vt 0.955894 0.353772
vt 0.977371 0.353766
vt 0.982395 0.352852
vt 0.986934 0.353740
vt 0.961083 0.530131
vt 0.965809 0.529032
vt 0.977778 0.351207
vt 0.982509 0.352301
vt 0.955894 0.528613
vt 0.961903 0.526590
vt 0.968531 0.521722
vt 0.987621 0.526716
vt 0.975046 0.343885
vt 0.981701 0.348769
vt 0.987702 0.350788
vt 0.959157 0.521720
vt 0.984405 0.343868
vt 0.346887 0.889144
vt 0.347610 0.888941
vt 0.352714 0.895562
vt 0.346010 0.892977
vt 0.332590 0.887444
vt 0.334029 0.893090
vt 0.334162 0.882938
vt 0.345587 0.883248
vt 0.347515 0.913506
vt 0.340666 0.914568
vt 0.320226 0.886342
vt 0.321168 0.892700
vt 0.321082 0.882176
vt 0.346011 0.934035
vt 0.334031 0.933919
vt 0.313107 0.887024
vt 0.309425 0.893280
vt 0.308621 0.882298
vt 0.346915 0.937869
vt 0.332590 0.939569
vt 0.295740 0.887331
vt 0.296259 0.892340
vt 0.295480 0.882443
vt 0.352720 0.931443
vt 0.347610 0.938092
vt 0.345587 0.943764
vt 0.334161 0.944076
vt 0.321166 0.934312
vt 0.320233 0.940673
vt 0.296494 0.914715
vt 0.295489 0.913507
vt 0.292111 0.886943
vt 0.291253 0.893333
vt 0.290877 0.883063
vt 0.321081 0.944839
vt 0.309423 0.933734
vt 0.313112 0.939989
vt 0.296259 0.934671
vt 0.290465 0.913507
vt 0.308624 0.944715
vt 0.295740 0.939676
vt 0.291252 0.933680
vt 0.295483 0.944567
vt 0.292112 0.940064
vt 0.290884 0.943952
vt 0.693432 0.793360
vt 0.676427 0.770591
vt 0.715501 0.772651
vt 0.703936 0.792814
vt 0.681928 0.792993
vt 0.675992 0.772789
vt 0.693433 0.754216
vt 0.703937 0.754760
vt 0.387753 0.194409
vt 0.381604 0.212341
vt 0.369683 0.212705
vt 0.387301 0.196575
vt 0.719654 0.117302
vt 0.720394 0.117641
vt 0.725927 0.126988
vt 0.718241 0.124602
vt 0.175134 0.672752
vt 0.179336 0.672426
vt 0.179360 0.679696
vt 0.172689 0.680980
vt 0.191341 0.672311
vt 0.191339 0.679633
vt 0.179360 0.703631
vt 0.170539 0.703913
vt 0.202722 0.670443
vt 0.203095 0.679602
vt 0.191271 0.703627
vt 0.179347 0.727894
vt 0.169237 0.727983
vt 0.214671 0.670823
vt 0.215032 0.679814
vt 0.203194 0.703622
vt 0.191242 0.727880
vt 0.179352 0.740029
vt 0.169084 0.740055
vt 0.225110 0.671748
vt 0.225669 0.680298
vt 0.215051 0.703654
vt 0.203203 0.727880
vt 0.191239 0.740009
vt 0.175866 0.750304
vt 0.168998 0.752098
vt 0.226472 0.703644
vt 0.215118 0.727884
vt 0.203207 0.740008
vt 0.191460 0.742554
vt 0.172684 0.764055
vt 0.169034 0.764225
vt 0.226531 0.727900
vt 0.215128 0.740018
vt 0.203148 0.742683
vt 0.172608 0.775136
vt 0.169420 0.775131
vt 0.226502 0.739982
vt 0.219750 0.749292
vt 0.172594 0.784060
vt 0.170067 0.784008
vt 0.226469 0.752110
vt 0.222210 0.764104
vt 0.222210 0.764069
vt 0.172612 0.775126
vt 0.172595 0.784010
vt 0.226752 0.764223
vt 0.222204 0.775861
vt 0.222235 0.784682
vt 0.225493 0.775540
vt 0.222204 0.775823
vt 0.225110 0.784608
vt 0.668581 0.309801
vt 0.684026 0.302126
vt 0.665433 0.323211
vt 0.665429 0.323420
vt 0.781615 0.605914
vt 0.781750 0.594972
vt 0.804163 0.577125
vt 0.803927 0.623489
vt 0.816523 0.577131
vt 0.815752 0.623560
vt 0.111608 0.680312
vt 0.114493 0.680490
vt 0.114510 0.689364
vt 0.110946 0.689376
vt 0.114510 0.680549
vt 0.114510 0.689366
vt 0.114581 0.700404
vt 0.110938 0.700235
vt 0.117754 0.714115
vt 0.110905 0.712327
vt 0.121225 0.724370
vt 0.110948 0.724338
vt 0.133303 0.721845
vt 0.133083 0.724382
vt 0.121214 0.736453
vt 0.111162 0.736372
vt 0.144958 0.721718
vt 0.145021 0.724383
vt 0.133099 0.736469
vt 0.121238 0.760656
vt 0.112444 0.760374
vt 0.161513 0.715123
vt 0.156904 0.724373
vt 0.145012 0.736477
vt 0.133111 0.760663
vt 0.121238 0.784521
vt 0.114585 0.783242
vt 0.163965 0.700391
vt 0.163965 0.700356
vt 0.168207 0.712315
vt 0.168240 0.724408
vt 0.156894 0.736473
vt 0.145003 0.760664
vt 0.133183 0.784584
vt 0.121211 0.791772
vt 0.117018 0.791442
vt 0.168501 0.700237
vt 0.168279 0.736456
vt 0.156827 0.760632
vt 0.144905 0.784616
vt 0.133182 0.791884
vt 0.163960 0.688688
vt 0.167247 0.688946
vt 0.168220 0.760642
vt 0.156808 0.784402
vt 0.144533 0.793750
vt 0.163990 0.679872
vt 0.166857 0.679909
vt 0.167413 0.783919
vt 0.156449 0.793372
vt 0.166857 0.792447
vt 0.761210 0.990378
vt 0.760491 0.943437
vt 0.769771 0.943466
vt 0.770574 0.990378
vt 0.782282 0.943461
vt 0.782519 0.990307
vt 0.804931 0.961492
vt 0.805066 0.972549
vt 0.903083 0.225389
vt 0.903087 0.225598
vt 0.921679 0.246686
vt 0.906235 0.239008
vt 0.485869 0.146125
vt 0.493562 0.143733
vt 0.488022 0.153109
vt 0.487252 0.153426
vt 0.987570 0.531594
vt 0.987570 0.531594
vt 0.955894 0.353772
vt 0.987621 0.582468
vt 0.987621 0.582468
vt 0.955946 0.404691
vt 0.222235 0.784682
vt 0.955946 0.348889
vt 0.987621 0.587071
vn -0.541452 -0.630886 -0.555710
vn -0.096023 -0.761243 -0.641318
vn -0.085368 -0.878766 -0.469555
vn -0.677786 -0.639438 -0.362940
vn -0.053231 -0.759743 -0.648041
vn -0.044378 -0.879537 -0.473756
vn 0.022206 -0.751424 -0.659446
vn 0.012535 -0.877026 -0.480279
vn 0.088245 -0.734175 -0.673202
vn 0.076451 -0.862266 -0.500653
vn 0.187709 -0.708865 -0.679909
vn 0.220189 -0.852382 -0.474300
vn 0.532041 -0.635427 -0.559611
vn 0.638053 -0.681482 -0.358427
vn -0.138341 -0.979455 -0.146729
vn -0.703227 -0.696882 -0.140809
vn -0.045316 -0.985770 -0.161878
vn 0.024180 -0.986141 -0.164140
vn 0.084697 -0.984683 -0.152403
vn 0.272986 -0.952131 -0.137569
vn 0.681902 -0.725353 -0.094192
vn -0.144213 -0.988771 -0.039173
vn -0.687048 -0.722825 -0.074092
vn -0.051513 -0.997915 -0.038889
vn 0.033355 -0.998671 -0.039286
vn 0.095412 -0.994851 -0.034168
vn 0.300551 -0.953300 -0.029803
vn 0.694140 -0.719424 -0.024443
vn -0.131746 -0.991201 -0.012775
vn -0.670975 -0.739538 -0.053628
vn -0.055319 -0.998450 -0.006068
vn 0.035335 -0.999350 -0.007076
vn 0.102284 -0.994716 -0.008795
vn 0.312557 -0.949875 -0.006827
vn 0.698884 -0.715224 -0.003950
vn -0.096083 -0.994662 0.037631
vn -0.645836 -0.760162 -0.071056
vn -0.047443 -0.997252 0.056908
vn 0.027354 -0.997989 0.057182
vn 0.086673 -0.995327 0.042575
vn 0.333383 -0.942663 0.015567
vn 0.698848 -0.715178 0.011461
vn -0.069018 -0.996729 0.042053
vn -0.594327 -0.801929 -0.060706
vn -0.014489 -0.995622 0.092347
vn -0.003953 -0.995747 0.092049
vn 0.074663 -0.996332 0.041808
vn 0.357436 -0.933721 0.020112
vn 0.697578 -0.716431 0.010548
vn 0.018939 -0.999003 0.040425
vn -0.575034 -0.817431 0.033803
vn -0.018568 -0.996864 0.076926
vn 0.004797 -0.997186 0.074820
vn 0.022163 -0.999133 0.035243
vn 0.375968 -0.925749 0.040444
vn 0.692907 -0.720260 0.033252
vn 0.115581 -0.973089 0.199349
vn -0.582142 -0.789640 0.193852
vn -0.008464 -0.974057 0.226146
vn -0.008565 -0.973528 0.228409
vn -0.062843 -0.976911 0.204195
vn 0.346621 -0.917443 0.195323
vn 0.672865 -0.724379 0.150092
vn 0.206613 -0.866846 0.453749
vn -0.563872 -0.726386 0.392952
vn -0.009431 -0.881899 0.471345
vn -0.015996 -0.881926 0.471116
vn 0.999146 -0.039086 0.013418
vn 0.317253 -0.848308 0.423938
vn 0.624346 -0.694408 0.357756
vn 0.171219 -0.737839 0.652899
vn -0.530484 -0.628331 0.569022
vn -0.003410 -0.747759 0.663961
vn -0.013205 -0.747849 0.663737
vn -0.224238 -0.704371 0.673483
vn 0.264831 -0.722239 0.638933
vn 0.474859 -0.640048 0.604026
vn -0.352469 -0.323442 0.878152
vn -0.718425 -0.318424 0.618443
vn 0.022795 -0.362943 0.931533
vn -0.005619 -0.407621 0.913134
vn -0.010531 -0.407017 0.913360
vn -0.048976 -0.332264 0.941914
vn 0.318276 -0.352320 0.880097
vn 0.712451 -0.299616 0.634543
vn -0.414037 -0.006998 0.910233
vn -0.759076 0.003260 0.650994
vn -0.005789 -0.002826 0.999979
vn -0.009960 -0.002331 0.999948
vn 0.361463 0.000726 0.932386
vn 0.716535 -0.000060 0.697551
vn -0.336021 0.332960 0.881037
vn -0.727170 0.299810 0.617525
vn 0.028947 0.392576 0.919264
vn -0.005089 0.406823 0.913493
vn -0.010193 0.407784 0.913021
vn -0.053327 0.332160 0.941714
vn 0.315794 0.352232 0.881026
vn 0.712583 0.299415 0.634489
vn -0.557011 0.633996 0.536459
vn 0.083819 0.714317 0.694785
vn -0.003765 0.744958 0.667101
vn -0.013781 0.745236 0.666658
vn -0.224944 0.711699 0.665496
vn 0.265884 0.720282 0.640702
vn 0.474829 0.640145 0.603947
vn 0.119404 0.887103 0.445859
vn -0.561256 0.730227 0.389564
vn -0.008484 0.881985 0.471200
vn -0.016328 0.882141 0.470702
vn 0.317323 0.848235 0.424031
vn 0.624813 0.693862 0.358001
vn 0.054065 0.975548 0.213035
vn -0.582649 0.789815 0.191604
vn -0.008467 0.974051 0.226170
vn -0.008456 0.973478 0.228622
vn 0.999115 0.039732 0.013788
vn 0.340120 0.918927 0.199731
vn -0.065871 0.976865 0.203461
vn 0.680435 0.718697 0.143116
vn 0.008535 0.998956 0.044877
vn -0.572711 0.819091 0.033033
vn -0.018519 0.996848 0.077138
vn 0.004860 0.997170 0.075019
vn 0.020294 0.999163 0.035519
vn 0.348746 0.936271 0.042098
vn 0.697454 0.716361 0.019617
vn -0.069457 0.996696 0.042107
vn -0.587101 0.807608 -0.055513
vn -0.014577 0.995582 0.092755
vn -0.004042 0.995718 0.092356
vn 0.074563 0.996338 0.041849
vn 0.338793 0.940790 0.011549
vn 0.696511 0.717421 -0.013435
vn -0.095226 0.994815 0.035714
vn -0.643981 0.761883 -0.069442
vn -0.047888 0.997393 0.053973
vn 0.026338 0.998114 0.055444
vn 0.086815 0.995332 0.042169
vn 0.355729 0.934563 0.007036
vn 0.709326 0.704822 -0.009077
vn -0.129748 0.991464 -0.012842
vn -0.669865 0.740432 -0.055148
vn -0.056019 0.998410 -0.006297
vn 0.033704 0.999405 -0.007293
vn 0.102148 0.994729 -0.008896
vn 0.324870 0.945755 -0.002743
vn 0.709778 0.704390 0.007022
vn -0.142984 0.988981 -0.038356
vn -0.686856 0.723029 -0.073877
vn -0.051856 0.997935 -0.037911
vn 0.032425 0.998720 -0.038825
vn 0.095272 0.994867 -0.034092
vn 0.287915 0.957297 -0.026233
vn 0.692108 0.721740 -0.008837
vn -0.138214 0.979474 -0.146721
vn -0.703270 0.696840 -0.140806
vn -0.045278 0.985777 -0.161841
vn 0.024028 0.986143 -0.164146
vn 0.084623 0.984689 -0.152405
vn 0.254870 0.956280 -0.143425
vn 0.693192 0.716045 -0.082244
vn -0.085338 0.878898 -0.469314
vn -0.678084 0.639279 -0.362663
vn -0.044268 0.879646 -0.473564
vn 0.012482 0.877061 -0.480216
vn 0.076411 0.862284 -0.500627
vn 0.220515 0.852334 -0.474237
vn 0.637930 0.681586 -0.358450
vn -0.095943 0.761279 -0.641287
vn -0.541663 0.630780 -0.555624
vn -0.053220 0.759755 -0.648028
vn 0.022063 0.751447 -0.659425
vn 0.088288 0.734168 -0.673203
vn 0.187927 0.709817 -0.678855
vn 0.531409 0.634516 -0.561243
vn -0.622667 0.274766 -0.732659
vn -0.892653 0.160148 -0.421335
vn -0.213299 0.437166 -0.873721
vn -0.008025 0.300791 -0.953656
vn 0.020316 0.295661 -0.955077
vn 0.081806 0.422532 -0.902649
vn 0.252262 0.405196 -0.878738
vn 0.708351 0.294548 -0.641467
vn -0.648663 -0.000014 -0.761076
vn -0.903074 0.000003 -0.429484
vn -0.274305 0.097100 -0.956728
vn -0.038909 -0.031253 -0.998754
vn 0.033985 -0.042231 -0.998530
vn 0.106205 0.062184 -0.992398
vn 0.321877 0.018632 -0.946598
vn 0.716132 0.000098 -0.697964
vn -0.622684 -0.274745 -0.732652
vn -0.892654 -0.160171 -0.421323
vn -0.234848 -0.450562 -0.861301
vn -0.029802 -0.349405 -0.936498
vn 0.011095 -0.349654 -0.936813
vn 0.129699 -0.485663 -0.864471
vn 0.270666 -0.415612 -0.868336
vn 0.708539 -0.294324 -0.641362
vn 0.917222 0.263930 -0.298404
vn 0.961478 0.000028 -0.274881
vn 0.917214 -0.264001 -0.298364
vn 0.977230 0.201424 -0.066705
vn 0.997998 0.000466 -0.063252
vn 0.980746 -0.181731 -0.071487
vn 0.971287 0.237728 -0.009335
vn 0.999904 0.001602 -0.013778
vn 0.982992 -0.182929 -0.016237
vn 0.967034 0.254646 -0.000879
vn 0.999989 0.002711 -0.003742
vn 0.983049 -0.183294 -0.004138
vn 0.967372 0.253317 0.004724
vn 0.999943 0.002611 0.010358
vn 0.983305 -0.181629 0.011097
vn 0.970241 0.242130 0.002485
vn 0.999942 0.001457 0.010645
vn 0.983785 -0.178982 0.011537
vn 0.977733 0.209597 0.010341
vn 0.999892 0.000516 0.014671
vn 0.984146 -0.176458 0.017839
vn 0.977189 0.188822 0.097198
vn 0.996121 0.000087 0.087996
vn 0.977920 -0.183759 0.099522
vn 0.919551 0.262676 0.292278
vn 0.964282 -0.000012 0.264879
vn 0.919487 -0.262841 0.292333
vn -0.937698 0.209622 -0.277095
vn -0.965847 -0.000002 -0.259112
vn -0.937671 -0.209709 -0.277121
vn -0.971637 0.196420 -0.131681
vn -0.991853 -0.000002 -0.127390
vn -0.971630 -0.196441 -0.131709
vn -0.975700 0.198147 -0.093527
vn -0.995213 -0.000003 -0.097725
vn -0.975724 -0.198004 -0.093575
vn -0.964493 0.235504 -0.119545
vn -0.988472 0.001898 -0.151390
vn -0.964721 -0.235635 -0.117427
vn -0.930736 0.306184 -0.199955
vn -0.969225 0.003128 -0.246156
vn -0.932076 -0.301124 -0.201390
vn -0.924133 0.369135 -0.098579
vn -0.993406 -0.000224 -0.114648
vn -0.923111 -0.371397 -0.099653
vn -0.921078 0.389128 0.013928
vn -0.999992 0.000042 0.003950
vn -0.920307 -0.390913 0.014921
vn -0.914494 0.377214 0.146325
vn -0.991591 -0.000372 0.129411
vn -0.911844 -0.382685 0.148633
vn -0.856974 0.369925 0.358818
vn -0.916651 0.001891 0.399683
vn -0.850176 -0.375843 0.368703
s 1
usemtl M_sprout_SG
f 1/262/1 2/259/2 9/261/3 8/263/4
f 2/259/2 3/255/5 10/258/6 9/261/3
f 3/255/5 4/247/7 11/253/8 10/258/6
f 4/247/7 5/238/9 12/245/10 11/253/8
f 5/238/9 6/237/11 13/244/12 12/245/10
f 6/276/11 7/277/13 14/278/14 13/279/12
f 8/280/4 9/281/3 16/282/15 15/283/16
f 9/281/3 10/284/6 17/285/17 16/282/15
f 10/284/6 11/288/8 18/289/18 17/285/17
f 11/288/8 12/293/10 19/294/19 18/289/18
f 12/293/10 13/299/12 20/300/20 19/294/19
f 13/62/12 14/48/14 21/54/21 20/63/20
f 16/282/15 23/286/22 22/287/23 15/283/16
f 17/285/17 24/290/24 23/286/22 16/282/15
f 18/289/18 25/295/25 24/290/24 17/285/17
f 19/294/19 26/301/26 25/295/25 18/289/18
f 20/300/20 27/306/27 26/301/26 19/294/19
f 28/61/28 27/69/27 20/63/20 21/54/21
f 23/286/22 30/291/29 29/292/30 22/287/23
f 24/290/24 31/296/31 30/291/29 23/286/22
f 25/295/25 32/302/32 31/296/31 24/290/24
f 26/301/26 33/307/33 32/302/32 25/295/25
f 27/306/27 34/312/34 33/307/33 26/301/26
f 35/70/35 34/76/34 27/69/27 28/61/28
f 29/292/30 30/291/29 37/297/36 36/298/37
f 30/291/29 31/296/31 38/303/38 37/297/36
f 31/296/31 32/302/32 39/308/39 38/303/38
f 32/302/32 33/307/33 40/313/40 39/308/39
f 33/307/33 34/312/34 41/317/41 40/313/40
f 34/76/34 35/70/35 42/77/42 41/83/41
f 36/298/37 37/297/36 44/304/43 43/305/44
f 37/297/36 38/303/38 45/309/45 44/304/43
f 38/303/38 39/308/39 46/314/46 45/309/45
f 39/308/39 40/313/40 47/318/47 46/314/46
f 40/313/40 41/317/41 48/321/48 47/318/47
f 41/83/41 42/77/42 49/84/49 48/90/48
f 43/305/44 44/304/43 51/310/50 50/311/51
f 44/332/43 45/333/45 52/334/52 51/335/50
f 45/336/45 46/337/46 53/338/53 52/339/52
f 46/314/46 47/318/47 54/322/54 53/323/53
f 47/318/47 48/321/48 55/326/55 54/322/54
f 48/90/48 49/84/49 56/91/56 55/97/55
f 50/311/51 51/310/50 58/315/57 57/316/58
f 51/1/50 52/2/52 59/3/59 58/4/57
f 52/339/52 53/338/53 60/340/60 59/341/59
f 53/5/53 54/6/54 61/7/61 60/8/60
f 54/322/54 55/326/55 62/329/62 61/330/61
f 55/97/55 56/91/56 63/98/63 62/104/62
f 57/316/58 58/315/57 65/319/64 64/320/65
f 58/315/57 59/324/59 66/325/66 65/319/64
f 59/324/59 60/327/60 67/415/67 66/325/66
f 60/9/60 61/10/68 67/11/67
f 61/330/61 62/329/62 68/331/69 67/328/67
f 62/104/62 63/98/63 69/105/70 68/111/69
f 64/185/65 65/186/64 71/182/71 70/181/72
f 65/186/64 66/193/66 72/187/73 71/182/71
f 66/193/66 67/199/67 73/194/74 72/187/73
f 67/199/67 74/200/75 73/194/74
f 67/199/67 68/210/69 75/206/76 74/200/75
f 68/210/69 69/217/70 76/211/77 75/206/76
f 70/173/72 78/174/78 77/171/79
f 70/181/72 71/182/71 79/175/80 78/178/78
f 71/182/71 72/187/73 80/188/81 79/175/80
f 72/187/73 73/194/74 81/195/82 80/188/81
f 73/194/74 74/200/75 82/201/83 81/195/82
f 74/200/75 75/206/76 83/207/84 82/201/83
f 75/206/76 76/211/77 84/212/85 83/207/84
f 78/174/78 86/172/86 85/168/87 77/171/79
f 79/175/80 87/413/88 86/417/86 78/178/78
f 80/12/81 87/13/88 79/14/80
f 81/195/82 88/410/89 87/412/88 80/188/81
f 82/15/83 88/16/89 81/17/82
f 83/207/84 89/213/90 88/409/89 82/201/83
f 90/103/91 89/110/90 83/113/84 84/106/85
f 86/172/86 92/169/92 91/164/93 85/168/87
f 87/414/88 93/179/94 92/180/92 86/177/86
f 87/18/88 94/19/95 93/20/94
f 88/411/89 95/196/96 94/189/95 87/176/88
f 88/21/89 96/22/97 95/23/96
f 89/416/90 97/208/98 96/203/97 88/202/89
f 98/102/99 97/109/98 89/110/90 90/103/91
f 91/164/93 92/169/92 99/165/100
f 92/180/92 93/179/94 100/183/101 99/184/100
f 93/179/94 94/189/95 101/190/102 100/183/101
f 94/189/95 95/196/96 102/197/103 101/190/102
f 95/196/96 96/203/97 103/204/104 102/197/103
f 96/203/97 97/208/98 104/209/105 103/204/104
f 97/208/98 98/214/99 105/215/106 104/209/105
f 99/184/100 100/183/101 107/191/107 106/192/108
f 100/183/101 101/190/102 108/198/109 107/191/107
f 101/190/102 102/197/103 109/205/110 108/198/109
f 102/197/103 103/204/104 109/205/110
f 103/204/104 104/209/105 110/216/111 109/205/110
f 104/209/105 105/215/106 111/218/112 110/216/111
f 106/342/108 107/343/107 113/344/113 112/345/114
f 107/343/107 108/346/109 114/347/115 113/344/113
f 108/393/109 109/394/110 115/395/116 114/396/115
f 109/24/110 116/25/117 115/26/116
f 109/388/110 110/389/111 117/384/118 116/383/119
f 110/107/111 111/101/112 118/94/120 117/100/118
f 112/345/114 113/344/113 120/348/121 119/349/122
f 113/27/113 114/28/115 121/29/123 120/30/121
f 114/396/115 115/395/116 122/397/124 121/398/123
f 115/31/116 116/32/119 123/33/125 122/34/124
f 116/383/119 117/384/118 124/378/126 123/370/125
f 117/100/118 118/94/120 125/87/127 124/93/126
f 119/349/122 120/348/121 127/350/128 126/351/129
f 120/401/121 121/402/123 128/403/130 127/404/128
f 121/398/123 122/397/124 129/399/131 128/400/130
f 122/369/124 123/370/125 130/363/132 129/358/131
f 123/370/125 124/378/126 131/371/133 130/363/132
f 124/93/126 125/87/127 132/80/134 131/86/133
f 126/351/129 127/350/128 134/352/135 133/353/136
f 127/350/128 128/354/130 135/355/137 134/352/135
f 128/354/130 129/358/131 136/359/138 135/355/137
f 129/358/131 130/363/132 137/364/139 136/359/138
f 130/363/132 131/371/133 138/372/140 137/364/139
f 131/86/133 132/80/134 139/73/141 138/79/140
f 133/353/136 134/352/135 141/356/142 140/357/143
f 134/352/135 135/355/137 142/360/144 141/356/142
f 135/355/137 136/359/138 143/365/145 142/360/144
f 136/359/138 137/364/139 144/373/146 143/365/145
f 137/364/139 138/372/140 145/379/147 144/373/146
f 138/79/140 139/73/141 146/66/148 145/72/147
f 141/356/142 148/361/149 147/362/150 140/357/143
f 142/360/144 149/366/151 148/361/149 141/356/142
f 143/365/145 150/374/152 149/366/151 142/360/144
f 144/373/146 151/380/153 150/374/152 143/365/145
f 145/379/147 152/385/154 151/380/153 144/373/146
f 153/58/155 152/65/154 145/72/147 146/66/148
f 148/361/149 155/367/156 154/368/157 147/362/150
f 149/366/151 156/375/158 155/367/156 148/361/149
f 150/374/152 157/381/159 156/375/158 149/366/151
f 151/380/153 158/386/160 157/381/159 150/374/152
f 152/385/154 159/390/161 158/386/160 151/380/153
f 160/51/162 159/56/161 152/65/154 153/58/155
f 154/368/157 155/367/156 162/376/163 161/377/164
f 155/367/156 156/375/158 163/382/165 162/376/163
f 156/375/158 157/381/159 164/387/166 163/382/165
f 157/381/159 158/386/160 165/391/167 164/387/166
f 158/386/160 159/390/161 166/392/168 165/391/167
f 159/56/161 160/51/162 167/44/169 166/57/168
f 161/252/164 162/241/163 169/239/170 168/250/171
f 162/241/163 163/236/165 170/234/172 169/239/170
f 163/236/165 164/231/166 171/229/173 170/234/172
f 164/231/166 165/225/167 172/223/174 171/229/173
f 165/225/167 166/226/168 173/219/175 172/223/174
f 166/405/168 167/406/169 174/407/176 173/408/175
f 168/114/171 176/118/177 175/115/178
f 168/250/171 169/239/170 177/240/179 176/251/177
f 169/239/170 170/234/172 178/235/180 177/240/179
f 170/234/172 171/229/173 179/230/181 178/235/180
f 171/229/173 172/223/174 180/224/182 179/230/181
f 172/223/174 173/219/175 181/222/183 180/224/182
f 173/219/175 174/220/176 182/221/184 181/222/183
f 176/118/177 184/123/185 183/119/186 175/115/178
f 177/240/179 185/249/187 184/257/185 176/251/177
f 178/235/180 186/248/188 185/249/187 177/240/179
f 179/264/181 187/265/189 186/266/188 178/267/180
f 180/268/182 188/269/190 187/265/189 179/264/181
f 181/222/183 189/227/191 188/228/190 180/224/182
f 190/36/192 189/41/191 181/42/183 182/37/184
f 184/123/185 192/129/193 191/124/194 183/119/186
f 185/249/187 193/256/195 192/260/193 184/257/185
f 186/248/188 194/254/196 193/256/195 185/249/187
f 187/265/189 195/270/197 194/271/196 186/266/188
f 188/272/190 196/273/198 195/274/197 187/275/189
f 189/227/191 197/232/199 196/233/198 188/228/190
f 198/40/200 197/49/199 189/41/191 190/36/192
f 191/124/194 192/129/193 1/131/1
f 192/260/193 193/256/195 2/259/2 1/262/1
f 193/256/195 194/254/196 3/255/5 2/259/2
f 194/254/196 195/246/197 4/247/7 3/255/5
f 195/246/197 196/233/198 5/238/9 4/247/7
f 196/233/198 197/232/199 6/237/11 5/238/9
f 197/232/199 198/242/200 7/243/13 6/237/11
f 182/37/184 174/43/176 167/44/169 199/38/201
f 200/35/202 190/36/192 182/37/184 199/38/201
f 201/39/203 198/40/200 190/36/192 200/35/202
f 7/47/13 198/40/200 201/39/203 14/48/14
f 199/38/201 167/44/169 160/51/162 202/46/204
f 203/45/205 200/35/202 199/38/201 202/46/204
f 204/50/206 201/39/203 200/35/202 203/45/205
f 14/48/14 201/39/203 204/50/206 21/54/21
f 202/46/204 160/51/162 153/58/155 205/53/207
f 206/52/208 203/45/205 202/46/204 205/53/207
f 207/55/209 204/50/206 203/45/205 206/52/208
f 28/61/28 21/54/21 204/50/206 207/55/209
f 205/53/207 153/58/155 146/66/148 208/60/210
f 209/59/211 206/52/208 205/53/207 208/60/210
f 210/64/212 207/55/209 206/52/208 209/59/211
f 35/70/35 28/61/28 207/55/209 210/64/212
f 208/60/210 146/66/148 139/73/141 211/68/213
f 212/67/214 209/59/211 208/60/210 211/68/213
f 213/71/215 210/64/212 209/59/211 212/67/214
f 35/70/35 210/64/212 213/71/215 42/77/42
f 211/68/213 139/73/141 132/80/134 214/75/216
f 215/74/217 212/67/214 211/68/213 214/75/216
f 216/78/218 213/71/215 212/67/214 215/74/217
f 42/77/42 213/71/215 216/78/218 49/84/49
f 214/75/216 132/80/134 125/87/127 217/82/219
f 218/81/220 215/74/217 214/75/216 217/82/219
f 219/85/221 216/78/218 215/74/217 218/81/220
f 49/84/49 216/78/218 219/85/221 56/91/56
f 217/82/219 125/87/127 118/94/120 220/89/222
f 221/88/223 218/81/220 217/82/219 220/89/222
f 222/92/224 219/85/221 218/81/220 221/88/223
f 56/91/56 219/85/221 222/92/224 63/98/63
f 220/89/222 118/94/120 111/101/112 223/96/225
f 224/95/226 221/88/223 220/89/222 223/96/225
f 225/99/227 222/92/224 221/88/223 224/95/226
f 63/98/63 222/92/224 225/99/227 69/105/70
f 223/96/225 111/101/112 105/108/106 98/102/99
f 98/102/99 90/103/91 224/95/226 223/96/225
f 90/103/91 84/106/85 225/99/227 224/95/226
f 69/105/70 225/99/227 84/106/85 76/112/77
f 168/114/171 175/115/178 226/116/228 161/117/164
f 226/116/228 175/115/178 183/119/186 227/120/229
f 227/120/229 183/119/186 191/124/194 228/125/230
f 8/130/4 228/125/230 191/124/194 1/131/1
f 161/117/164 226/116/228 229/121/231 154/122/157
f 229/121/231 226/116/228 227/120/229 230/126/232
f 230/126/232 227/120/229 228/125/230 231/132/233
f 15/136/16 231/132/233 228/125/230 8/130/4
f 154/122/157 229/121/231 232/127/234 147/128/150
f 232/127/234 229/121/231 230/126/232 233/133/235
f 233/133/235 230/126/232 231/132/233 234/137/236
f 22/141/23 234/137/236 231/132/233 15/136/16
f 147/128/150 232/127/234 235/134/237 140/135/143
f 235/134/237 232/127/234 233/133/235 236/138/238
f 236/138/238 233/133/235 234/137/236 237/142/239
f 29/146/30 237/142/239 234/137/236 22/141/23
f 140/135/143 235/134/237 238/139/240 133/140/136
f 238/139/240 235/134/237 236/138/238 239/143/241
f 239/143/241 236/138/238 237/142/239 240/147/242
f 36/151/37 240/147/242 237/142/239 29/146/30
f 133/140/136 238/139/240 241/144/243 126/145/129
f 241/144/243 238/139/240 239/143/241 242/148/244
f 242/148/244 239/143/241 240/147/242 243/152/245
f 43/156/44 243/152/245 240/147/242 36/151/37
f 126/145/129 241/144/243 244/149/246 119/150/122
f 244/149/246 241/144/243 242/148/244 245/153/247
f 245/153/247 242/148/244 243/152/245 246/157/248
f 50/161/51 246/157/248 243/152/245 43/156/44
f 119/150/122 244/149/246 247/154/249 112/155/114
f 247/154/249 244/149/246 245/153/247 248/158/250
f 248/158/250 245/153/247 246/157/248 249/162/251
f 57/166/58 249/162/251 246/157/248 50/161/51
f 112/155/114 247/154/249 250/159/252 106/160/108
f 250/159/252 247/154/249 248/158/250 251/163/253
f 251/163/253 248/158/250 249/162/251 252/167/254
f 64/170/65 252/167/254 249/162/251 57/166/58
f 106/160/108 250/159/252 91/164/93 99/165/100
f 85/168/87 91/164/93 250/159/252 251/163/253
f 77/171/79 85/168/87 251/163/253 252/167/254
f 70/173/72 77/171/79 252/167/254 64/170/65
