# This file uses centimeters as units for non-parametric coordinates.

mtllib right_humerus_upper_link.mtl
v -0.049419 -0.117175 -0.025050
v -0.041049 -0.126464 -0.028152
v -0.033256 -0.126575 -0.030675
v -0.021144 -0.126575 -0.030675
v -0.013350 -0.126463 -0.028151
v -0.004981 -0.117175 -0.025050
v -0.057526 -0.118163 -0.013158
v -0.049254 -0.119100 -0.018353
v -0.033555 -0.126740 -0.021184
v -0.020845 -0.126742 -0.021178
v -0.005242 -0.119100 -0.018834
v 0.003126 -0.118163 -0.013158
v -0.059325 -0.118932 -0.000000
v -0.027177 -0.118932 -0.021445
v 0.004925 -0.118932 -0.000000
v -0.057838 -0.118932 0.012691
v 0.003438 -0.118932 0.012691
v -0.049815 -0.118932 0.024470
v -0.004585 -0.118932 0.024470
v -0.040156 -0.118932 0.031279
v -0.031401 -0.118932 0.032733
v -0.022999 -0.118932 0.032733
v -0.014244 -0.118932 0.031279
v -0.041727 -0.108397 0.032003
v -0.031726 -0.108665 0.035600
v -0.022675 -0.108661 0.035601
v -0.012806 -0.108661 0.031712
v -0.042213 -0.094715 0.033817
v -0.031468 -0.094718 0.036568
v -0.023170 -0.094718 0.036610
v -0.010972 -0.094698 0.033250
v -0.042421 -0.035694 0.033723
v -0.031468 -0.035694 0.036568
v -0.023170 -0.035694 0.036610
v -0.011479 -0.035694 0.033488
v -0.042525 -0.032227 0.033676
v -0.031468 -0.032227 0.036568
v -0.023170 -0.032227 0.036610
v -0.011733 -0.032221 0.033607
v -0.047919 -0.007689 0.033391
v -0.033249 -0.007959 0.034745
v -0.021151 -0.007959 0.034745
v -0.006481 -0.007689 0.033391
v -0.048005 0.003145 0.034287
v -0.033681 0.004703 0.035296
v -0.020719 0.004703 0.035296
v -0.006395 0.003144 0.034287
v -0.048101 0.013775 0.031882
v -0.033368 0.014245 0.032761
v -0.021032 0.014245 0.032761
v -0.006299 0.013775 0.031882
v -0.052957 0.024451 0.023733
v -0.047368 0.024632 0.024324
v -0.033156 0.025009 0.025087
v -0.021244 0.025009 0.025087
v -0.007032 0.024632 0.024325
v -0.001443 0.024451 0.023733
v -0.053184 0.031569 0.013076
v -0.048867 0.032083 0.013289
v -0.034134 0.033031 0.013601
v -0.020266 0.033031 0.013601
v -0.005533 0.032083 0.013289
v -0.001216 0.031569 0.013076
v -0.053292 0.034011 -0.000000
v -0.049063 0.034662 -0.000521
v -0.034330 0.035654 -0.000619
v -0.020070 0.035654 -0.000619
v -0.005337 0.034662 -0.000521
v -0.001108 0.034011 -0.000000
v -0.053184 0.031569 -0.013077
v -0.048812 0.031962 -0.013525
v -0.034080 0.032841 -0.013995
v -0.020320 0.032841 -0.013995
v -0.005588 0.031961 -0.013525
v -0.001216 0.031569 -0.013077
v -0.052957 0.023518 -0.024743
v -0.047282 0.024206 -0.024791
v -0.033060 0.024023 -0.026101
v -0.021340 0.024023 -0.026101
v -0.007118 0.024206 -0.024791
v -0.001443 0.023518 -0.024743
v -0.053029 0.015876 -0.029830
v -0.047978 0.013312 -0.032139
v -0.033246 0.013696 -0.033065
v -0.021154 0.013696 -0.033065
v -0.006422 0.013312 -0.032139
v -0.001371 0.015876 -0.029830
v -0.053201 0.004185 -0.033233
v -0.047821 0.002762 -0.034381
v -0.033545 0.004507 -0.035325
v -0.020855 0.004507 -0.035325
v -0.006579 0.002762 -0.034381
v -0.001199 0.004185 -0.033233
v -0.053201 -0.008728 -0.032330
v -0.047735 -0.007306 -0.033485
v -0.033065 -0.007576 -0.034839
v -0.021335 -0.007576 -0.034839
v -0.006665 -0.007306 -0.033485
v -0.001199 -0.008728 -0.032330
v -0.051520 -0.034091 -0.016403
v -0.041599 -0.034226 -0.022694
v -0.031959 -0.033827 -0.025694
v -0.022223 -0.034053 -0.025681
v -0.012887 -0.033540 -0.022504
v -0.003211 -0.033591 -0.016470
v -0.052204 -0.035694 -0.026824
v -0.041663 -0.035694 -0.033703
v -0.030983 -0.035694 -0.036692
v -0.022223 -0.035694 -0.036550
v -0.012849 -0.035694 -0.032865
v -0.003464 -0.035694 -0.027053
v -0.051187 -0.094483 -0.027841
v -0.041951 -0.094869 -0.033910
v -0.030983 -0.094718 -0.036692
v -0.023819 -0.094547 -0.036821
v -0.013156 -0.094252 -0.032162
v -0.003970 -0.094231 -0.026482
v -0.050767 -0.108591 -0.026037
v -0.040985 -0.108096 -0.032397
v -0.031387 -0.108214 -0.035771
v -0.023009 -0.108217 -0.035769
v -0.013568 -0.110291 -0.032060
v -0.004154 -0.110291 -0.026134
v -0.001000 0.024659 -0.019443
v -0.001000 0.006035 -0.026950
v -0.001000 -0.014219 -0.018258
v 0.005464 -0.033727 -0.015457
v 0.004565 -0.035694 -0.015515
v 0.003774 -0.094553 -0.015198
v 0.004406 -0.110291 -0.014743
v -0.001000 0.027000 -0.001009
v -0.001000 -0.020417 -0.002931
v 0.009438 -0.032228 -0.000966
v 0.009515 -0.035694 -0.000975
v 0.009534 -0.094701 -0.000877
v 0.007876 -0.110489 -0.000693
v -0.001000 0.026046 0.017286
v -0.001000 0.006035 0.026950
v -0.001000 -0.014726 0.016017
v 0.007078 -0.032222 0.013901
v 0.007057 -0.035694 0.013888
v 0.007015 -0.094713 0.013862
v 0.005244 -0.110291 0.013171
v -0.001234 0.016281 0.029410
v -0.001180 0.004531 0.032952
v -0.001180 -0.009082 0.032086
v -0.001989 -0.032144 0.026632
v -0.002121 -0.035694 0.026707
v -0.002497 -0.094607 0.026941
v -0.003092 -0.108929 0.025436
v -0.053400 0.023405 -0.018788
v -0.053400 0.006091 -0.024687
v -0.053400 -0.010813 -0.024649
v -0.060104 -0.034012 -0.012497
v -0.059961 -0.035694 -0.015299
v -0.060575 -0.095005 -0.015688
v -0.058806 -0.110291 -0.014743
v -0.053400 0.024869 -0.001152
v -0.053400 0.024788 -0.002320
v -0.053400 -0.024707 -0.001009
v -0.064144 -0.032227 -0.001006
v -0.063372 -0.035694 -0.000986
v -0.063380 -0.094720 -0.000984
v -0.062302 -0.110430 -0.000699
v -0.053400 0.024803 0.014226
v -0.053400 0.006107 0.024686
v -0.053400 -0.010829 0.024649
v -0.061240 -0.032095 0.013741
v -0.060839 -0.035694 0.013659
v -0.061070 -0.094617 0.014432
v -0.059644 -0.110291 0.013171
v -0.053166 0.016281 0.029410
v -0.053220 0.004531 0.032952
v -0.053220 -0.009082 0.032086
v -0.051411 -0.031980 0.027280
v -0.050924 -0.035694 0.027576
v -0.052009 -0.094906 0.026856
v -0.051320 -0.108566 0.025523
vt 0.541374 0.614013
vt 0.545401 0.607815
vt 0.554634 0.601286
vt 0.549595 0.606890
vt 0.564983 0.599305
vt 0.564185 0.604991
vt 0.538681 0.623494
vt 0.543654 0.621995
vt 0.575333 0.601285
vt 0.578664 0.605765
vt 0.539396 0.633968
vt 0.550533 0.638421
vt 0.583767 0.607059
vt 0.588260 0.613685
vt 0.586313 0.621994
vt 0.562664 0.643447
vt 0.552750 0.654242
vt 0.551949 0.654131
vt 0.591064 0.623214
vt 0.577661 0.638832
vt 0.564219 0.653026
vt 0.590378 0.634254
vt 0.575986 0.653021
vt 0.552704 0.655837
vt 0.564212 0.655837
vt 0.586061 0.652958
vt 0.575975 0.655837
vt 0.564290 0.703692
vt 0.552955 0.703572
vt 0.586121 0.655837
vt 0.575955 0.703702
vt 0.553315 0.716336
vt 0.564435 0.716497
vt 0.544024 0.703310
vt 0.543572 0.655837
vt 0.591488 0.655837
vt 0.591582 0.653020
vt 0.586306 0.703616
vt 0.575408 0.716336
vt 0.544299 0.716336
vt 0.554569 0.722720
vt 0.564984 0.723343
vt 0.539529 0.703328
vt 0.538972 0.655837
vt 0.591300 0.703690
vt 0.585115 0.715231
vt 0.575028 0.723343
vt 0.539609 0.716336
vt 0.545157 0.721919
vt 0.590083 0.715014
vt 0.584351 0.723343
vt 0.542703 0.729452
vt 0.550077 0.723480
vt 0.589740 0.723343
vt 0.688536 0.697974
vt 0.684505 0.691770
vt 0.693253 0.697882
vt 0.697778 0.704511
vt 0.681809 0.682279
vt 0.688580 0.683826
vt 0.707226 0.699071
vt 0.708138 0.706493
vt 0.682525 0.671795
vt 0.688610 0.670103
vt 0.719410 0.699017
vt 0.718498 0.704511
vt 0.695143 0.651205
vt 0.698237 0.651269
vt 0.731439 0.692099
vt 0.726942 0.698731
vt 0.707339 0.658823
vt 0.707341 0.652718
vt 0.727697 0.683839
vt 0.734245 0.682560
vt 0.696017 0.649904
vt 0.707358 0.649904
vt 0.727667 0.670090
vt 0.719025 0.652825
vt 0.733559 0.671509
vt 0.695710 0.601753
vt 0.707359 0.601983
vt 0.718960 0.649904
vt 0.729752 0.652919
vt 0.686887 0.649904
vt 0.686081 0.602177
vt 0.696458 0.589342
vt 0.707585 0.589230
vt 0.719573 0.602068
vt 0.729986 0.649904
vt 0.681437 0.649904
vt 0.681273 0.601863
vt 0.687510 0.590723
vt 0.697714 0.582952
vt 0.708139 0.582328
vt 0.718573 0.589342
vt 0.729416 0.601833
vt 0.734856 0.649904
vt 0.734819 0.652719
vt 0.682472 0.591125
vt 0.688292 0.583754
vt 0.718193 0.582328
vt 0.728360 0.590743
vt 0.734931 0.601988
vt 0.685835 0.576212
vt 0.693598 0.582191
vt 0.727526 0.582328
vt 0.733493 0.590880
vt 0.732920 0.582328
vt 0.402438 0.219066
vt 0.415059 0.214660
vt 0.401430 0.231367
vt 0.401370 0.232239
vt 0.813302 0.443219
vt 0.813330 0.430592
vt 0.830563 0.420214
vt 0.829607 0.457186
vt 0.849267 0.430580
vt 0.849294 0.443231
vt 0.830458 0.457247
vt 0.841669 0.457197
vt 0.998458 0.230291
vt 0.992864 0.218513
vt 0.998581 0.213729
vt 0.992863 0.208978
vt 0.998458 0.197272
vt 0.860270 0.620667
vt 0.866971 0.620667
vt 0.866722 0.628719
vt 0.859067 0.628929
vt 0.873401 0.620667
vt 0.873649 0.628722
vt 0.866920 0.639657
vt 0.858695 0.639659
vt 0.880102 0.620667
vt 0.881203 0.628722
vt 0.873271 0.639657
vt 0.866920 0.685948
vt 0.858536 0.685948
vt 0.882607 0.639673
vt 0.873271 0.685948
vt 0.866920 0.688668
vt 0.858457 0.688668
vt 0.882218 0.685948
vt 0.873271 0.688668
vt 0.865556 0.707700
vt 0.854328 0.707912
vt 0.882024 0.688672
vt 0.874816 0.707700
vt 0.865226 0.717631
vt 0.854262 0.716408
vt 0.850271 0.706820
vt 0.851656 0.688861
vt 0.886044 0.707912
vt 0.875146 0.717631
vt 0.865465 0.725115
vt 0.854189 0.724746
vt 0.850271 0.717496
vt 0.890101 0.706820
vt 0.889482 0.688732
vt 0.886110 0.716408
vt 0.874907 0.725115
vt 0.865627 0.733556
vt 0.854750 0.733261
vt 0.850312 0.726711
vt 0.890101 0.717496
vt 0.886183 0.724746
vt 0.874744 0.733556
vt 0.864879 0.739848
vt 0.853603 0.739105
vt 0.850472 0.733118
vt 0.890060 0.726711
vt 0.885622 0.733261
vt 0.875493 0.739848
vt 0.850299 0.738701
vt 0.889900 0.733118
vt 0.886769 0.739105
vt 0.890073 0.738701
vt 0.517693 0.948162
vt 0.521704 0.950247
vt 0.521829 0.958832
vt 0.517556 0.957673
vt 0.517750 0.941943
vt 0.522256 0.941383
vt 0.533401 0.949935
vt 0.533164 0.957412
vt 0.521897 0.967024
vt 0.517556 0.968181
vt 0.517570 0.935392
vt 0.521041 0.935073
vt 0.533549 0.941532
vt 0.543003 0.949935
vt 0.543241 0.957412
vt 0.533545 0.967243
vt 0.526768 0.988927
vt 0.518891 0.988817
vt 0.532739 0.934358
vt 0.542855 0.941532
vt 0.554701 0.950247
vt 0.554576 0.958832
vt 0.542859 0.967243
vt 0.534423 0.988602
vt 0.543665 0.934358
vt 0.554148 0.941383
vt 0.558711 0.948162
vt 0.558848 0.957673
vt 0.554507 0.967024
vt 0.542154 0.988786
vt 0.555363 0.935073
vt 0.558654 0.941943
vt 0.558848 0.968181
vt 0.549567 0.988368
vt 0.558834 0.935392
vt 0.557250 0.988410
vt 0.451804 0.134317
vt 0.451804 0.179449
vt 0.443620 0.179564
vt 0.443835 0.134317
vt 0.458340 0.134317
vt 0.457149 0.179318
vt 0.451502 0.189768
vt 0.444340 0.189678
vt 0.465335 0.134317
vt 0.465106 0.179093
vt 0.457754 0.189770
vt 0.450108 0.203808
vt 0.444292 0.203723
vt 0.464799 0.191357
vt 0.459146 0.203808
vt 0.464961 0.203722
vt 0.635639 0.091906
vt 0.633742 0.085900
vt 0.640881 0.086130
vt 0.643010 0.098229
vt 0.633742 0.076564
vt 0.640885 0.076334
vt 0.635640 0.070558
vt 0.642648 0.064308
vt 0.064136 0.856406
vt 0.060348 0.850225
vt 0.058093 0.833729
vt 0.073731 0.857750
vt 0.082985 0.856640
vt 0.091574 0.850644
vt 0.096539 0.843427
vt 0.097599 0.836885
vt 0.097599 0.830607
vt 0.096539 0.824065
vt 0.091574 0.816848
vt 0.082985 0.810853
vt 0.073731 0.809743
vt 0.059997 0.817339
vt 0.064136 0.811087
vt 0.861219 0.412437
vt 0.861062 0.409177
vt 0.871240 0.409325
vt 0.870856 0.412519
vt 0.860833 0.398051
vt 0.871312 0.398200
vt 0.880824 0.409136
vt 0.880493 0.412437
vt 0.860833 0.387578
vt 0.871312 0.387430
vt 0.881170 0.398010
vt 0.861062 0.376453
vt 0.871240 0.376304
vt 0.881170 0.387619
vt 0.861219 0.373193
vt 0.870856 0.373111
vt 0.880824 0.376494
vt 0.880493 0.373193
vt 0.874297 0.180067
vt 0.878970 0.172516
vt 0.887147 0.172564
vt 0.882037 0.180588
vt 0.881198 0.165178
vt 0.889368 0.164435
vt 0.873477 0.186492
vt 0.871395 0.186601
vt 0.881189 0.157768
vt 0.889262 0.157768
vt 0.878828 0.150661
vt 0.886525 0.150633
vt 0.874346 0.143296
vt 0.882208 0.143489
vt 0.873594 0.136693
vt 0.873637 0.137377
vn -0.655317 -0.347330 -0.670761
vn -0.457723 -0.686443 -0.565054
vn -0.161067 -0.986852 0.013402
vn -0.058991 -0.998109 -0.017291
vn -0.181982 -0.644410 -0.742710
vn -0.060728 -0.837575 0.542937
vn 0.174147 -0.655019 -0.735271
vn 0.067894 -0.832802 0.549392
vn 0.452856 -0.712380 -0.536132
vn 0.157842 -0.987354 0.014748
vn 0.661914 -0.360644 -0.657119
vn 0.054225 -0.998404 -0.015778
vn 0.002318 -0.961139 0.276054
vn -0.008292 -0.999964 -0.001713
vn 0.008465 -0.999963 -0.001755
vn -0.000000 -1.000000 0.000001
vn 0.000000 -1.000000 -0.000001
vn -0.000002 -1.000000 -0.000001
vn -0.000001 -1.000000 -0.000000
vn -0.000001 -1.000000 -0.000001
vn 0.000000 -1.000000 -0.000000
vn -0.000000 -1.000000 -0.000000
vn -0.000001 -1.000000 -0.000000
vn -0.701029 -0.172333 0.691997
vn -0.418890 -0.171356 0.891722
vn -0.440176 -0.134212 0.887825
vn -0.715527 -0.136567 0.685106
vn -0.135953 -0.228329 0.964045
vn -0.154347 -0.145825 0.977196
vn 0.142120 -0.222792 0.964451
vn 0.167273 -0.142841 0.975508
vn 0.419580 -0.157652 0.893923
vn 0.436097 -0.133479 0.889945
vn 0.698543 -0.165580 0.696148
vn 0.717420 -0.136742 0.683089
vn -0.426732 -0.020462 0.904147
vn -0.726469 -0.017582 0.686974
vn -0.149747 -0.016279 0.988590
vn 0.159655 -0.017031 0.987026
vn 0.429338 -0.022663 0.902859
vn 0.727770 -0.023925 0.685404
vn -0.423929 -0.000009 0.905696
vn -0.725228 0.002257 0.688505
vn -0.146831 0.000271 0.989161
vn 0.155780 -0.000701 0.987791
vn 0.424286 -0.000177 0.905528
vn 0.729825 -0.001075 0.683633
vn -0.284022 -0.032640 0.958262
vn -0.754263 -0.080720 0.651592
vn -0.094962 0.040642 0.994651
vn 0.094530 0.039322 0.994745
vn 0.289461 -0.035776 0.956521
vn 0.821755 0.013883 0.569671
vn -0.234305 -0.057823 0.970442
vn -0.785416 -0.081453 0.613586
vn -0.076071 0.007489 0.997074
vn 0.076507 0.007024 0.997044
vn 0.239540 -0.059837 0.969041
vn 0.853560 -0.033426 0.519921
vn -0.127388 0.066080 0.989649
vn -0.895712 0.052824 0.441485
vn -0.043115 0.089076 0.995091
vn 0.043117 0.089075 0.995091
vn 0.127386 0.066079 0.989650
vn 0.917907 0.043177 0.394439
vn -0.108203 0.414129 0.903764
vn -0.891178 0.219095 0.397240
vn -0.038753 0.440598 0.896868
vn 0.038753 0.440597 0.896868
vn 0.108202 0.414127 0.903765
vn 0.836360 0.262941 0.481003
vn -0.072079 0.711894 0.698579
vn -0.707060 0.507906 0.492034
vn -0.032017 0.713539 0.699884
vn 0.032018 0.713539 0.699883
vn 0.072079 0.711894 0.698578
vn 0.493992 0.624692 0.604758
vn -0.076453 0.922845 0.377507
vn -0.116661 0.914467 0.387479
vn -0.033248 0.925843 0.376443
vn 0.033249 0.925843 0.376443
vn 0.076452 0.922845 0.377507
vn 0.116659 0.914467 0.387480
vn -0.082366 0.996573 -0.007637
vn -0.134722 0.990817 0.011440
vn -0.034429 0.999386 -0.006533
vn 0.034430 0.999386 -0.006533
vn 0.082365 0.996573 -0.007637
vn 0.134720 0.990818 0.011439
vn -0.078505 0.911504 -0.403729
vn -0.129677 0.907036 -0.400586
vn -0.032138 0.913083 -0.406506
vn 0.032139 0.913083 -0.406505
vn 0.078504 0.911505 -0.403728
vn 0.129674 0.907037 -0.400585
vn -0.071155 0.711179 -0.699400
vn -0.574190 0.575818 -0.582013
vn -0.032529 0.703527 -0.709924
vn 0.032530 0.703527 -0.709924
vn 0.071154 0.711180 -0.699400
vn 0.449365 0.629146 -0.634229
vn -0.102589 0.398211 -0.911539
vn -0.855429 0.240107 -0.458901
vn -0.040782 0.421066 -0.906112
vn 0.040783 0.421067 -0.906112
vn 0.102588 0.398211 -0.911539
vn 0.809323 0.271866 -0.520659
vn -0.117048 0.060275 -0.991295
vn -0.218012 0.105770 -0.970197
vn -0.042786 0.083876 -0.995557
vn 0.042786 0.083878 -0.995557
vn 0.117049 0.060276 -0.991295
vn 0.218014 0.105772 -0.970197
vn -0.210265 -0.312458 -0.926368
vn -0.646016 -0.328844 -0.688858
vn -0.074939 -0.257048 -0.963489
vn 0.080406 -0.258981 -0.962530
vn 0.213319 -0.316888 -0.924163
vn 0.321465 -0.421701 -0.847838
vn -0.279140 -0.015955 -0.960118
vn -0.600048 -0.016514 -0.799793
vn -0.102292 -0.010085 -0.994703
vn 0.107996 -0.012700 -0.994070
vn 0.283378 -0.075015 -0.956070
vn 0.625524 -0.043586 -0.778987
vn -0.407321 0.148042 -0.901207
vn -0.698954 0.113727 -0.706066
vn -0.149178 0.165825 -0.974807
vn 0.224303 0.152847 -0.962458
vn 0.450002 0.131174 -0.883341
vn 0.700059 0.089772 -0.708419
vn -0.414074 -0.017626 -0.910073
vn -0.701268 -0.018626 -0.712654
vn -0.155267 -0.013347 -0.987782
vn 0.221118 -0.013043 -0.975160
vn 0.457495 -0.014335 -0.889096
vn 0.705890 -0.013100 -0.708200
vn -0.414614 -0.159659 -0.895882
vn -0.686217 -0.153427 -0.711032
vn -0.151751 -0.182734 -0.971380
vn 0.180177 -0.157465 -0.970948
vn 0.430570 -0.117574 -0.894866
vn 0.688341 -0.082761 -0.720651
vn 0.999514 0.029412 -0.010301
vn 0.999448 0.023410 -0.023571
vn 0.999611 0.001500 -0.027831
vn 0.999962 0.001828 -0.008540
vn 0.986812 -0.042087 -0.156305
vn 0.995743 0.033024 -0.086051
vn 0.920549 0.302515 -0.247131
vn 0.888960 0.014082 -0.457769
vn 0.890662 -0.012385 -0.454498
vn 0.896999 -0.094507 -0.431812
vn 0.897157 -0.253662 -0.361615
vn 0.999624 0.027418 -0.000041
vn 0.999990 0.004575 -0.000254
vn 0.984340 0.175790 -0.013137
vn 0.900524 0.433289 -0.036301
vn 0.995479 -0.006689 -0.094745
vn 0.995636 -0.018460 -0.091479
vn 0.988381 -0.141088 -0.056537
vn 0.962479 -0.271204 -0.009122
vn 0.999460 0.031045 0.010745
vn 0.999568 0.021979 0.019519
vn 0.999980 0.000818 0.006318
vn 0.994960 0.085433 0.052497
vn 0.936041 0.317712 0.151283
vn 0.920026 -0.001130 0.391856
vn 0.919985 -0.022997 0.391277
vn 0.911383 -0.152752 0.382161
vn 0.895814 -0.227148 0.381996
vn -0.999520 0.021455 -0.022332
vn -0.999670 0.023744 -0.009826
vn -0.999542 0.006417 -0.029568
vn -0.999979 0.002008 -0.006121
vn -0.994531 -0.010412 -0.103919
vn -0.915675 0.371485 -0.153423
vn -0.910848 0.053890 -0.409208
vn -0.913560 -0.018308 -0.406293
vn -0.900160 -0.157279 -0.406172
vn -0.893752 -0.252493 -0.370749
vn -0.999956 0.009350 -0.000550
vn -0.999784 0.020785 -0.000097
vn -1.000000 0.000000 0.000000
vn -0.975379 0.220014 -0.015141
vn -0.878852 0.475977 -0.032652
vn -0.999753 -0.001002 -0.022220
vn -0.999586 -0.015258 -0.024394
vn -0.988125 -0.152054 -0.022120
vn -0.962334 -0.271716 -0.009121
vn -0.999754 0.016912 0.014338
vn -0.999540 0.026647 0.014464
vn -0.999988 0.001582 0.004573
vn -0.995924 0.038921 0.081368
vn -0.930947 0.354404 0.087953
vn -0.921141 -0.001184 0.389228
vn -0.920856 -0.013812 0.389659
vn -0.916884 -0.145505 0.371688
vn -0.895009 -0.226721 0.384132
s 1
usemtl M_sprout_SG
f 1/100/1 2/104/2 8/105/3 7/93/4
f 2/230/2 3/231/5 9/232/6 8/233/3
f 3/231/5 4/234/7 10/235/8 9/232/6
f 4/234/7 5/236/9 11/237/10 10/235/8
f 5/52/9 6/49/11 12/41/12 11/53/10
f 7/238/4 8/239/3 14/240/13 13/241/14
f 8/121/3 9/122/6 14/123/13
f 9/122/6 10/124/8 14/123/13
f 10/124/8 11/125/10 14/123/13
f 11/251/10 12/252/12 15/250/15 14/240/13
f 13/241/14 14/240/13 16/242/16
f 14/240/13 15/250/15 17/249/17
f 16/242/16 14/240/13 18/243/18
f 14/240/13 17/249/17 19/248/19
f 18/243/18 14/240/13 20/244/20
f 14/240/13 21/245/21 20/244/20
f 14/240/13 22/246/22 21/245/21
f 14/240/13 23/247/23 22/246/22
f 14/240/13 19/248/19 23/247/23
f 18/106/24 20/108/25 24/107/26 178/102/27
f 20/126/25 21/127/28 25/128/29 24/129/26
f 21/127/28 22/130/30 26/131/31 25/128/29
f 22/130/30 23/134/32 27/135/33 26/131/31
f 23/54/32 19/51/34 150/46/35 27/50/33
f 178/102/27 24/107/26 28/103/36 177/96/37
f 24/129/26 25/128/29 29/132/38 28/133/36
f 25/128/29 26/131/31 30/136/39 29/132/38
f 26/131/31 27/135/33 31/139/40 30/136/39
f 27/50/33 150/46/35 149/38/41 31/45/40
f 28/103/36 32/97/42 176/89/43 177/96/37
f 29/132/38 33/137/44 32/138/42 28/133/36
f 30/136/39 34/140/45 33/137/44 29/132/38
f 31/139/40 35/143/46 34/140/45 30/136/39
f 148/30/47 35/36/46 31/45/40 149/38/41
f 176/89/43 32/97/42 36/98/48 175/83/49
f 32/138/42 33/137/44 37/141/50 36/142/48
f 33/137/44 34/140/45 38/144/51 37/141/50
f 34/140/45 35/143/46 39/147/52 38/144/51
f 35/36/46 148/30/47 147/26/53 39/37/52
f 36/142/48 40/146/54 174/151/55 175/152/49
f 37/141/50 41/145/56 40/146/54 36/142/48
f 38/144/51 42/148/57 41/145/56 37/141/50
f 39/147/52 43/153/58 42/148/57 38/144/51
f 146/158/59 43/153/58 39/147/52 147/159/53
f 174/151/55 40/146/54 44/150/60 173/157/61
f 40/146/54 41/145/56 45/149/62 44/150/60
f 41/145/56 42/148/57 46/154/63 45/149/62
f 42/148/57 43/153/58 47/160/64 46/154/63
f 43/153/58 146/158/59 145/165/65 47/160/64
f 173/157/61 44/150/60 48/156/66 172/164/67
f 44/150/60 45/149/62 49/155/68 48/156/66
f 45/149/62 46/154/63 50/161/69 49/155/68
f 46/154/63 47/160/64 51/166/70 50/161/69
f 47/160/64 145/165/65 144/171/71 51/166/70
f 172/164/67 48/156/66 53/163/72 52/170/73
f 48/156/66 49/155/68 54/162/74 53/163/72
f 49/155/68 50/161/69 55/167/75 54/162/74
f 50/161/69 51/166/70 56/172/76 55/167/75
f 51/166/70 144/171/71 57/175/77 56/172/76
f 52/170/73 53/163/72 59/169/78 58/174/79
f 53/163/72 54/162/74 60/168/80 59/169/78
f 54/162/74 55/167/75 61/173/81 60/168/80
f 55/167/75 56/172/76 62/176/82 61/173/81
f 56/172/76 57/175/77 63/177/83 62/176/82
f 58/253/79 59/254/78 65/255/84 64/256/85
f 59/254/78 60/257/80 66/258/86 65/255/84
f 60/257/80 61/261/81 67/262/87 66/258/86
f 61/261/81 62/264/82 68/265/88 67/262/87
f 62/264/82 63/267/83 69/268/89 68/265/88
f 64/256/85 65/255/84 71/259/90 70/260/91
f 65/255/84 66/258/86 72/263/92 71/259/90
f 66/258/86 67/262/87 73/266/93 72/263/92
f 67/262/87 68/265/88 74/269/94 73/266/93
f 68/265/88 69/268/89 75/270/95 74/269/94
f 70/188/91 71/189/90 77/183/96 76/182/97
f 71/189/90 72/196/92 78/190/98 77/183/96
f 72/196/92 73/202/93 79/197/99 78/190/98
f 73/202/93 74/208/94 80/203/100 79/197/99
f 74/208/94 75/212/95 81/209/101 80/203/100
f 76/182/97 77/183/96 83/179/102 82/178/103
f 77/183/96 78/190/98 84/184/104 83/179/102
f 78/190/98 79/197/99 85/191/105 84/184/104
f 79/197/99 80/203/100 86/198/106 85/191/105
f 80/203/100 81/209/101 87/204/107 86/198/106
f 82/178/103 83/179/102 89/180/108 88/181/109
f 83/179/102 84/184/104 90/185/110 89/180/108
f 84/184/104 85/191/105 91/192/111 90/185/110
f 85/191/105 86/198/106 92/199/112 91/192/111
f 86/198/106 87/204/107 93/205/113 92/199/112
f 88/181/109 89/180/108 95/186/114 94/187/115
f 89/180/108 90/185/110 96/193/116 95/186/114
f 90/185/110 91/192/111 97/200/117 96/193/116
f 91/192/111 92/199/112 98/206/118 97/200/117
f 92/199/112 93/205/113 99/210/119 98/206/118
f 95/186/114 101/194/120 100/195/121 94/187/115
f 96/193/116 102/201/122 101/194/120 95/186/114
f 97/200/117 103/207/123 102/201/122 96/193/116
f 98/206/118 104/211/124 103/207/123 97/200/117
f 105/213/125 104/211/124 98/206/118 99/210/119
f 100/271/121 101/272/120 107/273/126 106/274/127
f 101/272/120 102/275/122 108/276/128 107/273/126
f 102/275/122 103/279/123 109/280/129 108/276/128
f 103/279/123 104/281/124 110/282/130 109/280/129
f 104/281/124 105/283/125 111/284/131 110/282/130
f 107/90/126 113/91/132 112/85/133 106/84/127
f 108/214/128 114/215/134 113/216/132 107/217/126
f 109/218/129 115/219/135 114/215/134 108/214/128
f 110/222/130 116/223/136 115/219/135 109/218/129
f 117/34/137 116/43/136 110/44/130 111/35/131
f 112/85/133 113/91/132 119/99/138 118/92/139
f 113/216/132 114/215/134 120/220/140 119/221/138
f 114/215/134 115/219/135 121/224/141 120/220/140
f 115/219/135 116/223/136 122/227/142 121/224/141
f 116/43/136 117/34/137 123/40/143 122/48/142
f 118/92/139 119/99/138 2/104/2 1/100/1
f 119/221/138 120/220/140 3/225/5 2/226/2
f 120/220/140 121/224/141 4/228/7 3/225/5
f 121/224/141 122/227/142 5/229/9 4/228/7
f 122/48/142 123/40/143 6/49/11 5/52/9
f 87/1/107 81/2/101 75/3/144 124/4/145
f 93/7/146 87/1/107 124/4/145 125/8/147
f 99/11/148 93/7/146 125/8/147 126/12/149
f 127/17/150 105/18/125 99/11/148 126/12/149
f 111/284/131 105/283/125 127/285/150 128/286/151
f 129/29/152 117/34/137 111/35/131 128/24/151
f 123/40/143 117/34/137 129/29/152 130/32/153
f 6/49/11 123/40/143 130/32/153 12/41/154
f 124/4/145 75/3/144 69/5/155 131/6/156
f 125/8/147 124/4/145 131/6/156
f 126/12/149 125/8/147 131/6/156 132/16/157
f 133/21/158 127/17/150 126/12/149 132/16/157
f 128/24/151 127/17/150 133/21/158 134/25/159
f 135/28/160 129/29/152 128/24/151 134/25/159
f 130/32/153 129/29/152 135/28/160 136/33/161
f 12/41/154 130/32/153 136/33/161 15/42/162
f 131/6/156 69/5/155 63/9/163 137/10/164
f 131/6/156 137/10/164 138/15/165
f 132/16/157 131/6/156 138/15/165 139/20/166
f 140/23/167 133/21/158 132/16/157 139/20/166
f 134/25/159 133/21/158 140/23/167 141/27/168
f 142/31/169 135/28/160 134/25/159 141/27/168
f 136/33/161 135/28/160 142/31/169 143/39/170
f 15/42/162 136/33/161 143/39/170 17/47/171
f 137/10/164 63/9/163 57/13/77 144/14/71
f 138/15/165 137/10/164 144/14/71 145/19/65
f 139/20/166 138/15/165 145/19/65 146/22/59
f 147/26/53 140/23/167 139/20/166 146/22/59
f 141/27/168 140/23/167 147/26/53 148/30/47
f 149/38/41 142/31/169 141/27/168 148/30/47
f 143/39/170 142/31/169 149/38/41 150/46/35
f 17/47/171 143/39/170 150/46/35 19/51/34
f 76/55/97 82/56/103 151/57/172 70/58/173
f 82/56/103 88/59/174 152/60/175 151/57/172
f 88/59/174 94/63/115 153/64/176 152/60/175
f 153/64/176 94/63/115 100/67/121 154/68/177
f 100/271/121 106/274/127 155/277/178 154/278/177
f 155/75/178 106/84/127 112/85/133 156/80/179
f 112/85/133 118/92/139 157/86/180 156/80/179
f 118/92/139 1/100/1 7/93/181 157/86/180
f 70/58/173 151/57/172 158/61/182 64/62/183
f 151/109/172 152/110/175 159/111/184 158/112/182
f 152/113/175 153/114/176 160/115/185 159/116/184
f 160/71/185 153/64/176 154/68/177 161/72/186
f 154/68/177 155/75/178 162/76/187 161/72/186
f 162/76/187 155/75/178 156/80/179 163/81/188
f 156/80/179 157/86/180 164/87/189 163/81/188
f 157/86/180 7/93/181 13/94/190 164/87/189
f 64/62/183 158/61/182 165/65/191 58/66/192
f 158/119/182 159/116/184 166/118/193 165/120/191
f 159/116/184 160/115/185 167/117/194 166/118/193
f 167/77/194 160/71/185 161/72/186 168/78/195
f 161/72/186 162/76/187 169/82/196 168/78/195
f 169/82/196 162/76/187 163/81/188 170/88/197
f 163/81/188 164/87/189 171/95/198 170/88/197
f 164/87/189 13/94/190 16/101/199 171/95/198
f 58/66/192 165/65/191 172/69/67 52/70/73
f 165/65/191 166/73/193 173/74/61 172/69/67
f 166/73/193 167/77/194 174/79/55 173/74/61
f 174/79/55 167/77/194 168/78/195 175/83/49
f 168/78/195 169/82/196 176/89/43 175/83/49
f 176/89/43 169/82/196 170/88/197 177/96/37
f 170/88/197 171/95/198 178/102/27 177/96/37
f 171/95/198 16/101/199 18/106/24 178/102/27
