# This file uses centimeters as units for non-parametric coordinates.

mtllib torso_link.mtl
v -0.066179 0.044206 0.306714
v -0.061704 0.040789 0.313787
v -0.063544 0.041544 0.315232
v -0.057273 0.043325 0.318730
v -0.066971 0.052073 0.329442
v -0.060302 0.050730 0.329668
v -0.065809 0.057828 0.328930
v -0.059842 0.057432 0.329338
v -0.078303 0.057555 0.312002
v -0.060231 0.064496 0.312705
v -0.055347 0.062159 0.316765
v -0.076908 0.057294 0.307744
v -0.065872 0.056853 0.303448
v -0.058597 0.063989 0.311526
v -0.077699 0.051131 0.308319
v -0.067200 0.047991 0.304290
v -0.053273 0.053691 0.321370
v -0.079014 0.052007 0.312520
v -0.051008 -0.045330 0.319920
v -0.054463 -0.040616 0.316449
v -0.058598 -0.038932 0.311323
v -0.062305 -0.040730 0.305917
v -0.064590 -0.045527 0.301677
v -0.064842 -0.052038 0.299741
v -0.062992 -0.058519 0.300628
v -0.059537 -0.063232 0.304099
v -0.055402 -0.064916 0.309225
v -0.051695 -0.063118 0.314632
v -0.049410 -0.058321 0.318871
v -0.049158 -0.051810 0.320807
v -0.065805 -0.048042 0.330966
v -0.069261 -0.043328 0.327495
v -0.073396 -0.041645 0.322370
v -0.077102 -0.043442 0.316963
v -0.079388 -0.048239 0.312723
v -0.079639 -0.054750 0.310788
v -0.077789 -0.061231 0.311674
v -0.074334 -0.065945 0.315145
v -0.070199 -0.067628 0.320271
v -0.066492 -0.065831 0.325678
v -0.064207 -0.061034 0.329917
v -0.063956 -0.054523 0.331853
v -0.107342 -0.077071 0.261176
v -0.095668 -0.089944 0.263069
v -0.085000 -0.092083 0.261917
v -0.101467 -0.085955 0.270427
v -0.094238 -0.093293 0.269628
v -0.085000 -0.096646 0.269614
v -0.101453 -0.085969 0.281559
v -0.094239 -0.093293 0.282371
v -0.085000 -0.096646 0.282386
v -0.106975 -0.077645 0.290808
v -0.095663 -0.089950 0.288926
v -0.085000 -0.092083 0.290083
v -0.098396 -0.079545 0.293133
v -0.085000 -0.080033 0.295512
v -0.121176 -0.058561 0.291217
v -0.113748 -0.062844 0.292160
v -0.099180 -0.065517 0.290647
v -0.085000 -0.065501 0.291142
v -0.125026 -0.044125 0.291678
v -0.115946 -0.051997 0.290758
v -0.112188 -0.054035 0.287674
v -0.085000 -0.060620 0.285150
v -0.112529 -0.053735 0.284573
v -0.125407 -0.021304 0.291848
v -0.117318 -0.021306 0.290821
v -0.112370 -0.020604 0.278341
v -0.125407 0.021304 0.291848
v -0.117318 0.021306 0.290821
v -0.112370 0.020599 0.278341
v -0.112529 0.053735 0.284573
v -0.125022 0.044159 0.291678
v -0.115946 0.051996 0.290758
v -0.112071 0.054203 0.287463
v -0.085000 0.060620 0.285150
v -0.121176 0.058561 0.291217
v -0.113748 0.062844 0.292160
v -0.099180 0.065516 0.290646
v -0.085000 0.065501 0.291142
v -0.106979 0.077649 0.290789
v -0.098396 0.079545 0.293133
v -0.085000 0.080033 0.295512
v -0.095668 0.089944 0.288931
v -0.085000 0.092083 0.290083
v -0.101467 0.085956 0.281572
v -0.094238 0.093294 0.282372
v -0.085000 0.096646 0.282386
v -0.101453 0.085969 0.270441
v -0.094239 0.093293 0.269629
v -0.085000 0.096646 0.269614
v -0.107338 0.077065 0.261152
v -0.095663 0.089950 0.263074
v -0.085000 0.092083 0.261917
v -0.098396 0.079545 0.258867
v -0.085000 0.080033 0.256488
v -0.121176 0.058562 0.260783
v -0.113748 0.062845 0.259840
v -0.099078 0.065282 0.261521
v -0.085000 0.065501 0.260858
v -0.125023 0.044155 0.260322
v -0.115946 0.051996 0.261242
v -0.112188 0.054036 0.264324
v -0.085000 0.060620 0.266850
v -0.112529 0.053735 0.267427
v -0.125408 0.021304 0.260152
v -0.117318 0.021306 0.261179
v -0.114138 0.020837 0.264296
v -0.125408 -0.021305 0.260152
v -0.117318 -0.021306 0.261179
v -0.114137 -0.020812 0.264297
v -0.112529 -0.053735 0.267427
v -0.125041 -0.044015 0.260322
v -0.115946 -0.051997 0.261242
v -0.112070 -0.054202 0.264539
v -0.085000 -0.060620 0.266850
v -0.121176 -0.058561 0.260783
v -0.113748 -0.062845 0.259840
v -0.099078 -0.065281 0.261521
v -0.085000 -0.065501 0.260858
v -0.098396 -0.079545 0.258867
v -0.085000 -0.080033 0.256488
v -0.085000 0.062311 0.269361
v -0.085000 0.058836 0.272211
v -0.111338 0.053736 0.274116
v -0.111338 -0.053736 0.274116
v -0.085000 -0.058836 0.272211
v -0.085000 -0.062311 0.269361
v -0.114737 0.070420 0.270798
v -0.121386 0.060094 0.268866
v -0.126440 0.044447 0.269503
v -0.127091 0.021305 0.269404
v -0.127091 -0.021305 0.269404
v -0.126439 -0.044447 0.269503
v -0.121386 -0.060094 0.268866
v -0.114737 -0.070420 0.270796
v -0.114737 0.070420 0.281204
v -0.121386 0.060094 0.283134
v -0.126440 0.044447 0.282497
v -0.127089 0.021305 0.282596
v -0.126980 -0.021305 0.282591
v -0.126439 -0.044447 0.282497
v -0.121386 -0.060093 0.283133
v -0.114737 -0.070420 0.281202
v -0.043297 -0.078876 0.040420
v -0.023475 -0.098040 0.040551
v -0.021881 -0.098071 0.039312
v -0.017462 -0.098038 0.037572
v 0.014904 -0.098001 0.038243
v 0.020618 -0.096990 0.038656
v 0.023040 -0.097184 0.040356
v -0.050790 -0.086715 0.065704
v -0.039839 -0.093287 0.062000
v -0.023612 -0.101689 0.049258
v -0.017477 -0.103881 0.051286
v 0.013826 -0.103221 0.050489
v 0.022416 -0.101515 0.050656
v 0.024908 -0.099772 0.048383
v 0.045157 -0.086507 0.065387
v -0.055158 -0.092346 0.106829
v -0.041952 -0.104421 0.105730
v -0.035052 -0.106347 0.105483
v -0.019876 -0.109096 0.104930
v 0.012121 -0.109200 0.104897
v 0.027152 -0.106568 0.105359
v 0.041544 -0.102668 0.105559
v 0.050885 -0.093791 0.107234
v -0.055437 -0.094964 0.141642
v -0.043714 -0.105503 0.140780
v -0.035707 -0.108384 0.140468
v -0.020516 -0.111195 0.140298
v 0.012344 -0.111150 0.140280
v 0.027644 -0.108426 0.140421
v 0.040161 -0.105539 0.140856
v 0.052202 -0.094975 0.141496
v -0.056256 -0.096823 0.177197
v -0.045011 -0.106937 0.176443
v -0.036196 -0.110392 0.176113
v -0.019232 -0.113452 0.175950
v 0.012573 -0.113053 0.175943
v 0.028036 -0.110258 0.176101
v 0.042913 -0.106237 0.176329
v 0.053406 -0.096010 0.177193
v -0.055714 -0.098621 0.229021
v -0.045341 -0.107081 0.229178
v -0.036078 -0.110610 0.229256
v -0.020001 -0.112763 0.229223
v 0.012362 -0.112370 0.229192
v 0.028327 -0.109542 0.229040
v 0.042817 -0.105741 0.229152
v 0.052591 -0.096356 0.227277
v -0.083474 -0.094780 0.264552
v -0.052971 -0.098849 0.245581
v -0.043904 -0.106359 0.246416
v -0.034865 -0.109379 0.246474
v -0.019368 -0.111944 0.247037
v 0.011906 -0.111486 0.246995
v 0.026816 -0.108477 0.246651
v 0.041310 -0.104200 0.245834
v 0.049753 -0.096343 0.245159
v -0.084650 -0.097456 0.271027
v -0.066717 -0.099129 0.270517
v -0.044070 -0.104448 0.263829
v -0.034538 -0.107514 0.264154
v -0.017979 -0.115865 0.266829
v 0.012692 -0.116175 0.265097
v 0.021863 -0.114789 0.270672
v 0.040884 -0.102305 0.263503
v 0.049001 -0.095036 0.260978
v -0.084933 -0.097736 0.279847
v -0.066977 -0.099347 0.279855
v -0.050852 -0.100909 0.280141
v -0.026739 -0.114177 0.284098
v -0.023589 -0.114354 0.282420
v 0.022869 -0.114638 0.279714
v 0.026600 -0.114281 0.283115
v 0.040428 -0.100444 0.279953
v 0.048660 -0.092140 0.278372
v -0.084933 -0.091942 0.290329
v -0.066294 -0.096225 0.287933
v -0.040372 -0.101026 0.293544
v -0.024860 -0.112843 0.296791
v -0.019872 -0.112456 0.300472
v 0.015880 -0.112050 0.304336
v 0.024527 -0.112738 0.297792
v 0.025744 -0.113125 0.294109
v 0.045605 -0.092292 0.289264
v -0.064865 -0.092957 0.292219
v -0.035950 -0.097761 0.305037
v -0.030656 -0.098702 0.309475
v -0.014128 -0.111534 0.309249
v 0.010225 -0.111322 0.311266
v 0.017450 -0.111772 0.306983
v 0.032257 -0.095839 0.307546
v 0.043830 -0.089700 0.298218
v -0.040905 -0.089721 0.308130
v -0.031051 -0.094977 0.312475
v -0.020922 -0.092231 0.329401
v -0.017966 -0.093063 0.329789
v 0.015501 -0.092461 0.329964
v 0.019673 -0.092255 0.328649
v 0.023761 -0.089863 0.328321
v 0.041215 -0.087578 0.305302
v -0.085000 -0.061944 0.291329
v -0.040791 -0.074141 0.318928
v -0.025213 -0.082118 0.332362
v -0.019571 -0.080299 0.335509
v 0.013041 -0.080919 0.335856
v 0.024514 -0.081114 0.332218
v 0.034224 -0.074309 0.320761
v 0.047287 -0.067917 0.311557
v -0.058522 -0.041326 0.316389
v -0.046277 -0.044692 0.324093
v -0.034420 -0.045832 0.326790
v -0.019461 -0.045795 0.333286
v 0.012026 -0.045871 0.333373
v 0.027070 -0.045909 0.326665
v 0.040991 -0.045740 0.323281
v 0.051988 -0.040589 0.313523
v -0.057383 0.000000 0.316469
v -0.048428 0.000000 0.322451
v -0.030585 0.000000 0.334000
v -0.025882 0.000000 0.338845
v 0.027088 0.000000 0.338845
v 0.033242 0.000000 0.334000
v 0.037920 0.000000 0.334000
v 0.053501 0.000382 0.314960
v -0.058522 0.041326 0.316390
v -0.046268 0.044688 0.324096
v -0.034526 0.045929 0.326720
v -0.019168 0.045831 0.333354
v 0.008815 0.041311 0.333092
v 0.027657 0.045767 0.326556
v 0.041080 0.045758 0.323251
v 0.051635 0.041752 0.313774
v -0.085000 0.063189 0.291329
v -0.040792 0.074141 0.318927
v -0.025213 0.082118 0.332362
v -0.019571 0.080299 0.335508
v 0.013041 0.080959 0.335856
v 0.024500 0.081134 0.332232
v 0.033720 0.075339 0.320647
v 0.047450 0.067202 0.311941
v -0.084933 0.091942 0.290329
v -0.040906 0.089720 0.308130
v -0.031054 0.094974 0.312472
v -0.020922 0.092231 0.329401
v -0.017966 0.093063 0.329789
v 0.015501 0.092502 0.329964
v 0.019684 0.092291 0.328647
v 0.023761 0.089903 0.328321
v 0.040218 0.089184 0.304642
v -0.064865 0.092957 0.292219
v -0.035947 0.097768 0.305033
v -0.030655 0.098702 0.309473
v -0.014128 0.111534 0.309249
v 0.010225 0.111322 0.311266
v 0.017450 0.111772 0.306983
v 0.032322 0.095894 0.307453
v 0.043837 0.089609 0.298567
v -0.066294 0.096225 0.287933
v -0.040373 0.101028 0.293537
v -0.024860 0.112843 0.296791
v -0.019872 0.112456 0.300472
v 0.015880 0.112050 0.304336
v 0.024527 0.112738 0.297792
v 0.038054 0.097900 0.295237
v 0.046581 0.090022 0.290707
v -0.084933 0.097736 0.279848
v -0.066977 0.099347 0.279856
v -0.050852 0.100909 0.280141
v -0.026739 0.114177 0.284098
v -0.023589 0.114354 0.282420
v 0.022869 0.114638 0.279714
v 0.026600 0.114281 0.283115
v 0.040428 0.100483 0.279961
v 0.047715 0.093334 0.278577
v -0.084650 0.097455 0.271026
v -0.066717 0.099129 0.270517
v -0.044070 0.104448 0.263829
v -0.034538 0.107514 0.264154
v -0.017979 0.115865 0.266829
v 0.012692 0.116174 0.265097
v 0.021863 0.114789 0.270672
v 0.040897 0.102414 0.263451
v 0.048411 0.095085 0.261697
v -0.083474 0.094780 0.264553
v -0.054425 0.098849 0.245581
v -0.045107 0.106359 0.246416
v -0.035818 0.109379 0.246474
v -0.019892 0.111943 0.247037
v 0.012239 0.111486 0.246994
v 0.027560 0.108480 0.246651
v 0.042487 0.104381 0.245799
v 0.050506 0.096917 0.244034
v -0.055714 0.098621 0.229021
v -0.045341 0.107081 0.229178
v -0.036078 0.110610 0.229256
v -0.020001 0.112763 0.229223
v 0.012357 0.112372 0.229193
v 0.028320 0.109543 0.229035
v 0.042818 0.105785 0.229156
v 0.052273 0.096512 0.228692
v -0.056609 0.096528 0.177154
v -0.045017 0.106943 0.176435
v -0.036196 0.110392 0.176113
v -0.019232 0.113452 0.175950
v 0.012573 0.113053 0.175943
v 0.028043 0.110268 0.176089
v 0.042917 0.106286 0.176328
v 0.053464 0.095963 0.176854
v -0.055664 0.094839 0.141608
v -0.043756 0.105476 0.140781
v -0.035707 0.108384 0.140468
v -0.020516 0.111195 0.140298
v 0.012327 0.111156 0.140280
v 0.027741 0.108424 0.140434
v 0.040161 0.105579 0.140854
v 0.052270 0.095077 0.141810
v -0.054392 0.093546 0.106980
v -0.042494 0.104069 0.106604
v -0.035052 0.106347 0.105483
v -0.019876 0.109096 0.104930
v 0.012121 0.109200 0.104897
v 0.027152 0.106568 0.105359
v 0.041544 0.102707 0.105555
v 0.050771 0.093970 0.107234
v -0.050791 0.086716 0.065711
v -0.039819 0.093302 0.062014
v -0.024254 0.101689 0.049257
v -0.017950 0.103881 0.051286
v 0.014215 0.103261 0.050487
v 0.023056 0.101550 0.050649
v 0.025605 0.099813 0.048383
v 0.046151 0.085724 0.065622
v -0.044470 0.078889 0.040431
v -0.024114 0.098040 0.040551
v -0.022475 0.098071 0.039312
v -0.017935 0.098038 0.037572
v 0.015325 0.098042 0.038243
v 0.021196 0.097030 0.038656
v 0.023685 0.097224 0.040356
v -0.052716 0.064391 0.034557
v -0.045267 0.071072 0.032458
v -0.031448 0.073997 0.028277
v -0.018089 0.076904 0.026935
v 0.011831 0.077942 0.026570
v 0.027166 0.075913 0.028014
v 0.037372 0.071453 0.029480
v -0.062849 0.039017 0.032835
v -0.049715 0.043750 0.027084
v -0.035569 0.044549 0.025659
v -0.019341 0.044567 0.024790
v 0.012189 0.044586 0.024402
v 0.028422 0.044557 0.025257
v 0.044329 0.044373 0.026103
v -0.062913 0.000002 0.029479
v -0.050976 -0.000000 0.025874
v -0.035624 0.000000 0.024898
v -0.029394 -0.000004 0.024613
v 0.022553 0.000000 0.014800
v 0.027876 0.000000 0.014801
v 0.044614 0.000000 0.025391
v -0.061175 -0.039019 0.032835
v -0.049715 -0.043750 0.027084
v -0.035569 -0.044549 0.025659
v -0.019341 -0.044567 0.024790
v 0.012189 -0.044553 0.024402
v 0.028422 -0.044557 0.025258
v 0.044316 -0.044368 0.026104
v -0.051307 -0.064391 0.034554
v -0.044055 -0.071072 0.032458
v -0.030612 -0.073996 0.028277
v -0.018089 -0.076904 0.026935
v 0.011830 -0.077940 0.026579
v 0.026425 -0.075874 0.028014
v 0.036339 -0.071434 0.029481
v 0.055784 0.067773 0.056523
v 0.064643 0.041578 0.053363
v 0.068969 0.000009 0.052375
v 0.064799 -0.040950 0.053495
v 0.055633 -0.067967 0.056333
v 0.062119 0.073979 0.105827
v 0.071564 0.043023 0.105095
v 0.075877 0.000002 0.104628
v 0.071838 -0.043362 0.105092
v 0.062827 -0.073366 0.106549
v 0.064515 0.074239 0.140896
v 0.074003 0.043567 0.140376
v 0.077963 0.000025 0.140083
v 0.073773 -0.043697 0.140290
v 0.064578 -0.073823 0.140635
v 0.065983 0.074669 0.176118
v 0.075479 0.043979 0.175867
v 0.079759 0.000001 0.175749
v 0.075647 -0.043803 0.175962
v 0.066322 -0.074209 0.176458
v 0.065422 0.075310 0.229049
v 0.074926 0.044042 0.229226
v 0.078538 -0.000034 0.229303
v 0.075021 -0.044046 0.229378
v 0.065580 -0.075293 0.229171
v 0.065321 0.075240 0.245980
v 0.075843 0.043977 0.246755
v 0.076129 -0.000026 0.247014
v 0.072741 -0.043756 0.246730
v 0.063557 -0.075179 0.246156
v 0.062071 0.074620 0.262567
v 0.071679 0.043479 0.263993
v 0.073386 0.000018 0.264233
v 0.070690 -0.043693 0.263503
v 0.062220 -0.073919 0.262406
v 0.060236 0.072880 0.278602
v 0.068406 0.043147 0.280387
v 0.070357 -0.000041 0.280447
v 0.067338 -0.043197 0.279943
v 0.059932 -0.072965 0.278604
v 0.056230 0.071243 0.294050
v 0.062743 0.042633 0.294639
v 0.065433 0.000073 0.294996
v 0.062998 -0.042862 0.294157
v 0.056441 -0.071808 0.292812
v 0.052227 0.069405 0.304154
v 0.057213 0.042209 0.305862
v 0.059340 0.000256 0.306761
v 0.057856 -0.042560 0.305148
v 0.051856 -0.070101 0.304013
v -0.063591 0.067766 0.058809
v -0.073177 0.040617 0.054738
v -0.078182 0.000000 0.053483
v -0.073177 -0.040617 0.054738
v -0.063590 -0.067767 0.058810
v -0.070809 0.071767 0.105502
v -0.078766 0.043512 0.104955
v -0.078089 0.000000 0.102479
v -0.078752 -0.043503 0.104949
v -0.071077 -0.070936 0.105248
v -0.071131 0.071943 0.140117
v -0.079196 0.043333 0.139983
v -0.078089 0.000000 0.139978
v -0.079151 -0.043536 0.140023
v -0.071379 -0.071118 0.140115
v -0.071753 0.073064 0.176660
v -0.079049 0.042930 0.175803
v -0.078089 0.000000 0.175744
v -0.079049 -0.042930 0.175803
v -0.071748 -0.073073 0.176655
v -0.071265 0.074401 0.240039
v -0.077828 0.043440 0.240336
v -0.080424 0.000001 0.243695
v -0.075747 -0.043440 0.240336
v -0.069359 -0.074401 0.240039
v -0.083655 0.064781 0.256069
v -0.076324 0.043622 0.252563
v -0.078519 0.000000 0.252674
v -0.076324 -0.043622 0.252564
v -0.083655 -0.064529 0.256069
v -0.085000 0.059421 0.273027
v -0.074226 0.044313 0.263727
v -0.076144 0.000000 0.263908
v -0.074226 -0.044313 0.263727
v -0.085000 -0.059069 0.273018
v -0.071587 0.044080 0.280119
v -0.073677 0.000000 0.280574
v -0.071587 -0.044080 0.280120
v -0.067483 0.043004 0.294831
v -0.069304 0.000000 0.293834
v -0.067483 -0.043004 0.294831
v -0.084933 0.080759 0.295258
v -0.084933 -0.080151 0.295257
vt 0.725118 0.232919
vt 0.727260 0.223896
vt 0.733995 0.226473
vt 0.733728 0.220640
vt 0.723522 0.216525
vt 0.486341 0.426895
vt 0.491790 0.427440
vt 0.491016 0.431423
vt 0.486111 0.430932
vt 0.500266 0.433994
vt 0.497912 0.425918
vt 0.490957 0.447467
vt 0.485869 0.446982
vt 0.979247 0.262044
vt 0.988548 0.262605
vt 0.988501 0.287134
vt 0.986202 0.288763
vt 0.983891 0.288523
vt 0.979247 0.229113
vt 0.988548 0.228548
vt 0.976098 0.288524
vt 0.968780 0.228923
vt 0.968781 0.262210
vt 0.986045 0.202256
vt 0.988501 0.204019
vt 0.983891 0.202630
vt 0.971114 0.288523
vt 0.971114 0.202630
vt 0.968801 0.202389
vt 0.968961 0.288897
vt 0.966457 0.228548
vt 0.966457 0.262605
vt 0.976099 0.202629
vt 0.966504 0.204019
vt 0.966504 0.287134
vt 0.635013 0.004968
vt 0.638491 0.000389
vt 0.636218 0.006887
vt 0.633742 0.009065
vt 0.638491 0.023532
vt 0.635013 0.018953
vt 0.591493 0.025895
vt 0.594971 0.030474
vt 0.596242 0.034571
vt 0.593766 0.032393
vt 0.591493 0.049037
vt 0.594971 0.044458
vt 0.924682 0.122961
vt 0.924335 0.111333
vt 0.931245 0.111568
vt 0.930765 0.124197
vt 0.924207 0.092889
vt 0.931170 0.092890
vt 0.941024 0.111568
vt 0.941504 0.124197
vt 0.924960 0.137895
vt 0.932219 0.132531
vt 0.924207 0.058499
vt 0.931170 0.058498
vt 0.941098 0.092890
vt 0.947934 0.111335
vt 0.947586 0.122960
vt 0.940051 0.132531
vt 0.931951 0.145082
vt 0.924335 0.040169
vt 0.931245 0.039820
vt 0.941095 0.058498
vt 0.948062 0.092889
vt 0.947265 0.138366
vt 0.940328 0.145071
vt 0.931340 0.150993
vt 0.926406 0.148294
vt 0.924682 0.028428
vt 0.930765 0.027191
vt 0.941024 0.039820
vt 0.948062 0.058499
vt 0.940930 0.150993
vt 0.924978 0.013488
vt 0.932218 0.018857
vt 0.941503 0.027191
vt 0.947934 0.040080
vt 0.945866 0.148289
vt 0.931941 0.006317
vt 0.940050 0.018857
vt 0.947587 0.028428
vt 0.940318 0.006307
vt 0.926402 0.003098
vt 0.931339 0.000395
vt 0.947279 0.013025
vt 0.940929 0.000395
vt 0.945863 0.003094
vt 0.299210 0.023349
vt 0.319254 0.025941
vt 0.324003 0.066402
vt 0.300315 0.065801
vt 0.301349 0.000979
vt 0.322070 0.003750
vt 0.332990 0.033409
vt 0.339300 0.067556
vt 0.300732 0.094753
vt 0.324202 0.095179
vt 0.267402 0.022538
vt 0.267397 0.065418
vt 0.341789 0.012675
vt 0.267395 0.000395
vt 0.343770 0.019262
vt 0.345985 0.066178
vt 0.340147 0.095930
vt 0.267414 0.094513
vt 0.301047 0.123878
vt 0.324531 0.124083
vt 0.236061 0.023457
vt 0.234215 0.065798
vt 0.233446 0.000979
vt 0.348183 0.095145
vt 0.340825 0.124688
vt 0.233959 0.094682
vt 0.267396 0.123781
vt 0.301096 0.167665
vt 0.325021 0.167520
vt 0.215388 0.025786
vt 0.211257 0.066994
vt 0.212735 0.003751
vt 0.348724 0.124256
vt 0.341245 0.167227
vt 0.210907 0.094966
vt 0.233878 0.123956
vt 0.267369 0.167728
vt 0.301046 0.182050
vt 0.324968 0.181414
vt 0.195628 0.067556
vt 0.201202 0.033216
vt 0.193032 0.012675
vt 0.348341 0.167608
vt 0.341555 0.179817
vt 0.194722 0.095672
vt 0.210611 0.124363
vt 0.233692 0.167789
vt 0.267375 0.182262
vt 0.300665 0.196196
vt 0.324494 0.195025
vt 0.188836 0.066181
vt 0.191051 0.019262
vt 0.347266 0.181265
vt 0.340153 0.194311
vt 0.186638 0.095147
vt 0.193930 0.124966
vt 0.209782 0.167619
vt 0.233914 0.182029
vt 0.267409 0.196392
vt 0.300411 0.209649
vt 0.323162 0.208184
vt 0.345761 0.195751
vt 0.338813 0.208163
vt 0.186104 0.124257
vt 0.193665 0.166066
vt 0.209869 0.181558
vt 0.233962 0.195794
vt 0.267364 0.209698
vt 0.300018 0.221344
vt 0.321910 0.220861
vt 0.344283 0.209299
vt 0.336279 0.218118
vt 0.186484 0.167604
vt 0.193675 0.180740
vt 0.210834 0.194893
vt 0.234341 0.209285
vt 0.267451 0.221637
vt 0.299693 0.230554
vt 0.320503 0.229152
vt 0.354841 0.211887
vt 0.355230 0.201677
vt 0.342307 0.221835
vt 0.335963 0.224568
vt 0.187663 0.181294
vt 0.194676 0.193721
vt 0.211564 0.208185
vt 0.234598 0.220948
vt 0.267591 0.231292
vt 0.318817 0.235543
vt 0.299343 0.237047
vt 0.353661 0.223931
vt 0.340772 0.231859
vt 0.335637 0.229553
vt 0.189113 0.195793
vt 0.196891 0.207995
vt 0.212449 0.219845
vt 0.234829 0.229968
vt 0.267687 0.238020
vt 0.325043 0.242687
vt 0.302409 0.244824
vt 0.352922 0.231474
vt 0.336188 0.248984
vt 0.190537 0.209293
vt 0.196775 0.216934
vt 0.213755 0.229036
vt 0.236338 0.236840
vt 0.267395 0.253644
vt 0.329478 0.252194
vt 0.302416 0.247536
vt 0.338015 0.249251
vt 0.179560 0.201677
vt 0.179950 0.211887
vt 0.180834 0.220909
vt 0.198758 0.224281
vt 0.215427 0.235227
vt 0.232396 0.244848
vt 0.194061 0.231936
vt 0.200382 0.230094
vt 0.210535 0.242780
vt 0.181130 0.223931
vt 0.181869 0.231474
vt 0.198633 0.248984
vt 0.232266 0.247625
vt 0.205328 0.252182
vt 0.196803 0.249253
vt 0.057994 0.005153
vt 0.056760 0.023278
vt 0.035812 0.026647
vt 0.038416 0.006578
vt 0.088098 0.002376
vt 0.088100 0.022239
vt 0.054526 0.064833
vt 0.032724 0.065285
vt 0.021189 0.032358
vt 0.027228 0.011439
vt 0.033260 0.004842
vt 0.054342 0.000394
vt 0.118207 0.005153
vt 0.119440 0.023278
vt 0.088100 0.062784
vt 0.032589 0.093930
vt 0.054664 0.093819
vt 0.015919 0.066509
vt 0.016108 0.029299
vt 0.012452 0.011538
vt 0.137784 0.006576
vt 0.140389 0.026647
vt 0.121667 0.064828
vt 0.088100 0.093815
vt 0.014921 0.095164
vt 0.031723 0.124169
vt 0.054975 0.123459
vt 0.007800 0.066197
vt 0.009636 0.018743
vt 0.012428 0.010513
vt 0.148961 0.011430
vt 0.155009 0.032352
vt 0.142834 0.065076
vt 0.121858 0.000394
vt 0.142940 0.004842
vt 0.121693 0.093852
vt 0.088100 0.123411
vt 0.006714 0.094479
vt 0.013619 0.124578
vt 0.030692 0.176615
vt 0.054582 0.176861
vt 0.006042 0.065270
vt 0.163748 0.011538
vt 0.160081 0.029288
vt 0.159354 0.066384
vt 0.142975 0.093928
vt 0.121225 0.123459
vt 0.088099 0.179640
vt 0.005582 0.123983
vt 0.012003 0.167498
vt 0.038115 0.189880
vt 0.054441 0.186979
vt 0.163772 0.010513
vt 0.166563 0.018743
vt 0.168672 0.065474
vt 0.161375 0.095191
vt 0.144483 0.124165
vt 0.121618 0.176861
vt 0.088100 0.187071
vt 0.005476 0.167628
vt 0.014967 0.196900
vt 0.042250 0.203913
vt 0.053908 0.196217
vt 0.170158 0.065270
vt 0.169506 0.094478
vt 0.162808 0.124613
vt 0.145508 0.176615
vt 0.121759 0.186980
vt 0.088100 0.196367
vt 0.011828 0.181201
vt 0.006033 0.181892
vt 0.012903 0.202257
vt 0.039343 0.219058
vt 0.054088 0.209782
vt 0.170612 0.123989
vt 0.164196 0.167498
vt 0.137891 0.189880
vt 0.122292 0.196217
vt 0.088100 0.210158
vt 0.012687 0.209557
vt 0.054917 0.221956
vt 0.170724 0.167628
vt 0.161232 0.196900
vt 0.133678 0.203905
vt 0.122112 0.209782
vt 0.088100 0.221131
vt 0.017157 0.218230
vt 0.025786 0.222309
vt 0.056213 0.239796
vt 0.170167 0.181892
vt 0.164372 0.181201
vt 0.163297 0.202258
vt 0.135896 0.219058
vt 0.121282 0.221956
vt 0.088100 0.239861
vt 0.053618 0.246173
vt 0.030892 0.241896
vt 0.163513 0.209557
vt 0.119987 0.239795
vt 0.088100 0.244812
vt 0.052661 0.248344
vt 0.024738 0.253013
vt 0.159042 0.218230
vt 0.149945 0.222309
vt 0.122584 0.246170
vt 0.016934 0.250563
vt 0.014818 0.236554
vt 0.145307 0.241896
vt 0.011941 0.234072
vt 0.012662 0.230398
vt 0.151462 0.253013
vt 0.123464 0.248402
vt 0.001029 0.223578
vt 0.010146 0.220885
vt 0.159266 0.250563
vt 0.161384 0.236556
vt 0.000000 0.213074
vt 0.010238 0.209800
vt 0.163533 0.230401
vt 0.164259 0.234074
vt 0.166052 0.220891
vt 0.175170 0.223578
vt 0.165961 0.209800
vt 0.176200 0.213074
vt 0.834427 0.344128
vt 0.840215 0.342878
vt 0.840615 0.349116
vt 0.835436 0.349485
vt 0.842844 0.335986
vt 0.837401 0.334327
vt 0.782217 0.237577
vt 0.790610 0.237936
vt 0.789601 0.245165
vt 0.781615 0.242604
vt 0.790377 0.248253
vt 0.895553 0.506033
vt 0.903898 0.496299
vt 0.901882 0.504529
vt 0.911763 0.494611
vt 0.911763 0.504143
vt 0.901303 0.515626
vt 0.890558 0.517740
vt 0.911763 0.515639
vt 0.891709 0.524709
vt 0.888936 0.526322
vt 0.885078 0.521129
vt 0.911763 0.519500
vt 0.882239 0.532549
vt 0.887925 0.550600
vt 0.881958 0.550601
vt 0.887925 0.584307
vt 0.881958 0.584306
vt 0.888936 0.608585
vt 0.882242 0.602385
vt 0.890558 0.617166
vt 0.885078 0.613778
vt 0.891795 0.610330
vt 0.901304 0.619279
vt 0.895551 0.628877
vt 0.911763 0.615406
vt 0.911763 0.619268
vt 0.901882 0.630377
vt 0.911763 0.630763
vt 0.903894 0.638603
vt 0.911763 0.640295
vt 0.905848 0.142167
vt 0.914459 0.131975
vt 0.912444 0.140205
vt 0.922324 0.130287
vt 0.922324 0.139819
vt 0.911941 0.151488
vt 0.901120 0.153415
vt 0.922324 0.151314
vt 0.902271 0.160383
vt 0.899499 0.161997
vt 0.895641 0.156803
vt 0.922324 0.155175
vt 0.892804 0.168199
vt 0.898487 0.186274
vt 0.892520 0.186275
vt 0.898487 0.219980
vt 0.892520 0.219979
vt 0.899499 0.244257
vt 0.892790 0.237943
vt 0.901120 0.252838
vt 0.895641 0.249450
vt 0.902358 0.246002
vt 0.911941 0.254766
vt 0.905845 0.264092
vt 0.922324 0.251078
vt 0.922324 0.254939
vt 0.912444 0.266049
vt 0.922324 0.266435
vt 0.914456 0.274274
vt 0.922324 0.275966
vt 0.143707 0.337183
vt 0.151320 0.374744
vt 0.141940 0.374744
vt 0.165803 0.374802
vt 0.139526 0.328776
vt 0.156100 0.337086
vt 0.141133 0.357624
vt 0.137311 0.332956
vt 0.508846 0.290924
vt 0.507635 0.301249
vt 0.503380 0.299778
vt 0.506616 0.291596
vt 0.534090 0.291410
vt 0.532235 0.300748
vt 0.507719 0.329160
vt 0.496435 0.329130
vt 0.499274 0.286362
vt 0.511741 0.275982
vt 0.530110 0.276153
vt 0.537237 0.291578
vt 0.540889 0.300590
vt 0.531469 0.329099
vt 0.502875 0.366206
vt 0.499328 0.366206
vt 0.535560 0.275789
vt 0.542816 0.329068
vt 0.542830 0.366206
vt 0.507939 0.403280
vt 0.496355 0.403359
vt 0.485869 0.366206
vt 0.487492 0.330053
vt 0.547472 0.366206
vt 0.529047 0.399623
vt 0.507635 0.431162
vt 0.503380 0.432633
vt 0.487498 0.402355
vt 0.553317 0.329205
vt 0.551001 0.366206
vt 0.543259 0.403228
vt 0.532235 0.431696
vt 0.508846 0.441487
vt 0.506616 0.440815
vt 0.553384 0.403221
vt 0.540877 0.431838
vt 0.534090 0.441033
vt 0.511741 0.456429
vt 0.499275 0.446049
vt 0.537245 0.440863
vt 0.530110 0.456258
vt 0.535560 0.456622
vt 0.992876 0.478319
vt 0.985736 0.515938
vt 0.971738 0.515995
vt 0.980464 0.478221
vt 0.997062 0.469901
vt 0.994646 0.515938
vt 0.999288 0.474081
vt 0.995455 0.498791
vt 0.371302 0.428067
vt 0.370842 0.444675
vt 0.361666 0.446960
vt 0.368064 0.428041
vt 0.395019 0.428064
vt 0.392767 0.443860
vt 0.369925 0.470088
vt 0.358033 0.470102
vt 0.351811 0.449258
vt 0.366895 0.428065
vt 0.399206 0.428859
vt 0.403463 0.445454
vt 0.393029 0.470073
vt 0.362558 0.505115
vt 0.357993 0.505112
vt 0.347667 0.470730
vt 0.400981 0.428706
vt 0.410741 0.448959
vt 0.404925 0.470095
vt 0.400624 0.505112
vt 0.369925 0.540135
vt 0.358033 0.540121
vt 0.346743 0.505112
vt 0.416581 0.470240
vt 0.404524 0.505112
vt 0.393030 0.540125
vt 0.370842 0.565548
vt 0.361666 0.563263
vt 0.347667 0.539494
vt 0.337996 0.505110
vt 0.339273 0.474449
vt 0.416790 0.505112
vt 0.404925 0.540128
vt 0.392767 0.566362
vt 0.371302 0.582157
vt 0.368064 0.582183
vt 0.351814 0.560966
vt 0.339270 0.535775
vt 0.416571 0.539979
vt 0.403461 0.564739
vt 0.395019 0.582128
vt 0.366895 0.582158
vt 0.410726 0.561250
vt 0.399206 0.581333
vt 0.400981 0.581485
vt 0.371682 0.171400
vt 0.373079 0.170224
vt 0.376441 0.174247
vt 0.369683 0.164468
vt 0.944224 0.387744
vt 0.948445 0.400911
vt 0.934770 0.401482
vt 0.948740 0.387412
vt 0.952141 0.397617
vt 0.944177 0.408424
vt 0.935825 0.404937
vt 0.949682 0.401868
vt 0.563484 0.432380
vt 0.560246 0.436686
vt 0.548655 0.427407
vt 0.551894 0.423101
vt 0.557342 0.441228
vt 0.545752 0.431949
vt 0.566191 0.429464
vt 0.554601 0.420186
vt 0.555552 0.444789
vt 0.543962 0.435510
vt 0.299481 0.429226
vt 0.302719 0.433531
vt 0.291129 0.442811
vt 0.287890 0.438505
vt 0.305623 0.438073
vt 0.294033 0.447352
vt 0.296774 0.426310
vt 0.285184 0.435589
vt 0.307413 0.441634
vt 0.295823 0.450913
vt 0.000000 0.233718
vt 0.008056 0.232785
vt 0.008056 0.239019
vt 0.001079 0.239031
vt 0.008056 0.249364
vt 0.001079 0.249351
vt 0.008056 0.255598
vt 0.000004 0.254661
vt 0.606178 0.459184
vt 0.606596 0.437773
vt 0.608274 0.458828
vt 0.598594 0.458258
vt 0.597213 0.437773
vt 0.593743 0.459184
vt 0.593325 0.437773
vt 0.591493 0.458919
vt 0.411932 0.299932
vt 0.419989 0.298999
vt 0.419989 0.305233
vt 0.413012 0.305245
vt 0.419989 0.315578
vt 0.413011 0.315566
vt 0.419989 0.321812
vt 0.411936 0.320875
vt 0.902342 0.464566
vt 0.901923 0.485978
vt 0.897072 0.485052
vt 0.898453 0.464566
vt 0.904018 0.485621
vt 0.889488 0.485978
vt 0.889070 0.464566
vt 0.887239 0.485713
vt 0.366162 0.213636
vt 0.366151 0.224381
vt 0.361669 0.222792
vt 0.362934 0.214999
vt 0.389807 0.214162
vt 0.389019 0.223756
vt 0.364781 0.266409
vt 0.353993 0.266843
vt 0.393981 0.214485
vt 0.395294 0.223887
vt 0.387529 0.266384
vt 0.364327 0.294119
vt 0.353527 0.294252
vt 0.395750 0.215818
vt 0.397115 0.222106
vt 0.398215 0.266746
vt 0.387687 0.294105
vt 0.365240 0.322052
vt 0.353180 0.322179
vt 0.347834 0.294497
vt 0.349087 0.267036
vt 0.408446 0.266902
vt 0.398565 0.294215
vt 0.387850 0.322046
vt 0.364693 0.363790
vt 0.353263 0.363816
vt 0.346913 0.322438
vt 0.407463 0.294556
vt 0.398843 0.322170
vt 0.387700 0.363765
vt 0.364769 0.377746
vt 0.353448 0.377305
vt 0.346678 0.363754
vt 0.409420 0.322349
vt 0.399050 0.363646
vt 0.387616 0.377713
vt 0.365784 0.393253
vt 0.353687 0.391156
vt 0.346844 0.377259
vt 0.409351 0.363733
vt 0.398509 0.377444
vt 0.388190 0.391896
vt 0.361685 0.405468
vt 0.359384 0.406783
vt 0.346723 0.390902
vt 0.409097 0.376803
vt 0.394890 0.396264
vt 0.395625 0.403348
vt 0.364401 0.419610
vt 0.360757 0.416727
vt 0.341769 0.403682
vt 0.340220 0.376605
vt 0.330178 0.396142
vt 0.408786 0.390647
vt 0.398351 0.406012
vt 0.390520 0.422638
vt 0.368597 0.426488
vt 0.356523 0.426665
vt 0.329988 0.403458
vt 0.317937 0.391469
vt 0.317078 0.396541
vt 0.396836 0.417511
vt 0.386388 0.428067
vt 0.349425 0.414183
vt 0.330487 0.409786
vt 0.316871 0.403452
vt 0.339304 0.363631
vt 0.408453 0.403535
vt 0.397725 0.414626
vt 0.391667 0.424712
vt 0.352655 0.423187
vt 0.331531 0.413145
vt 0.316871 0.411664
vt 0.349035 0.425611
vt 0.348558 0.016806
vt 0.380746 0.002849
vt 0.363229 0.015324
vt 0.362185 0.018685
vt 0.384372 0.005277
vt 0.381136 0.014291
vt 0.361686 0.025018
vt 0.348558 0.025024
vt 0.373475 0.024794
vt 0.361876 0.032340
vt 0.348765 0.031941
vt 0.378433 0.037584
vt 0.371925 0.051892
vt 0.349625 0.037017
vt 0.391103 0.021691
vt 0.385402 0.037329
vt 0.378554 0.051237
vt 0.371008 0.064875
vt 0.393406 0.023007
vt 0.397508 0.035231
vt 0.385163 0.051192
vt 0.392478 0.011739
vt 0.396124 0.008854
vt 0.427372 0.025129
vt 0.419931 0.036590
vt 0.396493 0.050750
vt 0.384978 0.064691
vt 0.378388 0.064753
vt 0.388241 0.001796
vt 0.400323 0.001971
vt 0.422262 0.005824
vt 0.430100 0.022462
vt 0.426636 0.032218
vt 0.419353 0.050784
vt 0.396416 0.064717
vt 0.384894 0.106359
vt 0.378618 0.106106
vt 0.418128 0.000390
vt 0.428584 0.010955
vt 0.430254 0.051053
vt 0.419438 0.064741
vt 0.396963 0.106486
vt 0.385242 0.134307
vt 0.379515 0.134062
vt 0.423410 0.003749
vt 0.440552 0.037880
vt 0.440874 0.051721
vt 0.430795 0.064865
vt 0.419591 0.106492
vt 0.396050 0.134440
vt 0.385708 0.161737
vt 0.380413 0.160858
vt 0.441109 0.064770
vt 0.430597 0.106378
vt 0.419416 0.134454
vt 0.396505 0.162171
vt 0.441180 0.106190
vt 0.430382 0.134334
vt 0.419269 0.162197
vt 0.397875 0.204232
vt 0.393390 0.205822
vt 0.439219 0.134005
vt 0.429963 0.161834
vt 0.420759 0.204858
vt 0.397886 0.214984
vt 0.394656 0.213620
vt 0.440203 0.161681
vt 0.427049 0.204731
vt 0.421549 0.214458
vt 0.428863 0.206508
vt 0.425726 0.214134
vt 0.427497 0.212801
vt 0.737341 0.206041
vt 0.742802 0.204300
vt 0.745077 0.214236
vt 0.739616 0.215977
vt 0.748238 0.205097
vt 0.750512 0.215033
vt 0.739450 0.232387
vt 0.735497 0.229265
vt 0.734085 0.224654
vt 0.735592 0.219790
vt 0.754466 0.218155
vt 0.755878 0.222766
vt 0.754371 0.227630
vt 0.750347 0.231443
vt 0.744886 0.233184
vt 0.940051 0.462176
vt 0.941867 0.455625
vt 0.952231 0.458354
vt 0.950415 0.464905
vt 0.941036 0.449104
vt 0.951399 0.451833
vn -0.437967 -0.832542 0.339204
vn -0.003602 -0.888418 0.459021
vn -0.129454 -0.823856 0.551818
vn -0.131267 -0.822737 0.553058
vn -0.371980 -0.791495 0.484941
vn -0.040097 0.072508 0.996562
vn -0.040097 0.072508 0.996562
vn -0.040097 0.072508 0.996562
vn -0.040097 0.072508 0.996562
vn -0.172552 0.932355 0.317710
vn -0.192620 0.933812 0.301484
vn -0.355727 0.901082 0.248010
vn 0.071365 0.918691 0.388477
vn 0.074486 0.919585 0.385766
vn -0.247017 0.868313 -0.430133
vn -0.234437 0.860790 -0.451751
vn -0.246139 0.867804 -0.431661
vn -0.247017 0.868313 -0.430133
vn -0.159929 0.806863 -0.568678
vn -0.365581 -0.036168 -0.930077
vn -0.365581 -0.036168 -0.930077
vn -0.398042 -0.182916 -0.898946
vn -0.372865 -0.066015 -0.925534
vn -0.437444 -0.565650 -0.699058
vn 0.844450 0.007841 0.535577
vn 0.800005 0.199108 0.565993
vn 0.780808 -0.254224 0.570709
vn 0.760929 -0.419674 0.494835
vn -0.944645 0.091739 -0.315008
vn -0.944645 0.091739 -0.315008
vn -0.944645 0.091739 -0.315008
vn -0.944645 0.091739 -0.315008
vn -0.566355 -0.803423 0.183724
vn -0.538726 -0.840188 -0.062118
vn -0.537592 -0.840834 -0.063193
vn -0.796629 0.184451 0.575639
vn -0.796629 0.184451 0.575639
vn -0.796629 0.184451 0.575639
vn -0.796629 0.184451 0.575639
vn 0.784640 0.433300 0.443386
vn 0.360061 0.927491 0.100577
vn -0.462431 -0.876917 -0.131047
vn 0.456307 0.502183 0.734573
vn 0.193184 0.861135 0.470241
vn 0.193184 0.861135 0.470241
vn 0.456306 0.502183 0.734572
vn -0.121701 0.989345 0.079911
vn -0.121701 0.989345 0.079911
vn -0.403977 0.852461 -0.331832
vn -0.403977 0.852461 -0.331832
vn -0.578007 0.487162 -0.654661
vn -0.578008 0.487162 -0.654661
vn -0.597162 -0.008673 -0.802074
vn -0.597162 -0.008673 -0.802074
vn -0.456308 -0.502183 -0.734572
vn -0.456307 -0.502183 -0.734572
vn -0.193185 -0.861134 -0.470242
vn -0.193185 -0.861134 -0.470242
vn 0.121701 -0.989345 -0.079911
vn 0.121701 -0.989345 -0.079911
vn 0.403976 -0.852461 0.331832
vn 0.403977 -0.852461 0.331832
vn 0.578008 -0.487162 0.654661
vn 0.578008 -0.487162 0.654661
vn 0.597162 0.008673 0.802074
vn 0.597162 0.008673 0.802074
vn -0.792835 -0.145332 0.591854
vn -0.792835 -0.145332 0.591854
vn -0.792835 -0.145332 0.591854
vn -0.792835 -0.145332 0.591854
vn -0.792835 -0.145332 0.591854
vn -0.792835 -0.145332 0.591854
vn -0.792835 -0.145332 0.591854
vn -0.792835 -0.145332 0.591854
vn -0.792835 -0.145332 0.591854
vn -0.792835 -0.145332 0.591854
vn -0.792835 -0.145332 0.591854
vn -0.792835 -0.145332 0.591854
vn -0.504556 -0.388634 -0.770965
vn -0.427059 -0.643883 -0.634850
vn -0.518226 -0.841842 -0.150810
vn -0.737807 -0.671599 -0.067799
vn -0.219758 -0.607684 -0.763169
vn -0.319853 -0.931885 -0.171124
vn -0.516686 -0.842992 0.149667
vn -0.737322 -0.672439 0.064666
vn -0.319847 -0.931902 0.171047
vn -0.422849 -0.644821 0.636714
vn -0.513516 -0.399288 0.759520
vn -0.219792 -0.607601 0.763225
vn -0.131305 -0.046693 0.990242
vn -0.138205 -0.045955 0.989337
vn 0.066743 0.122003 0.990283
vn -0.765451 -0.366484 0.528937
vn 0.034625 0.326784 0.944464
vn 0.070483 0.387244 0.919279
vn 0.659146 0.099486 0.745406
vn -0.592077 -0.079315 0.801969
vn 0.762471 0.275347 0.585509
vn 0.417368 0.830919 0.367938
vn 0.695576 0.019877 0.718178
vn -0.623881 -0.005923 0.781497
vn 0.989609 0.018983 0.142523
vn 0.813099 0.509298 0.281930
vn 0.695594 -0.019878 0.718160
vn -0.623162 0.005336 0.782074
vn 0.989761 -0.018930 0.141476
vn 0.661784 -0.100953 0.742867
vn -0.590613 0.080326 0.802947
vn 0.758593 -0.281136 0.587791
vn 0.817842 -0.498294 0.287814
vn 0.415220 -0.833065 0.365506
vn 0.071853 -0.128450 0.989110
vn -0.765427 0.366532 0.528938
vn 0.033115 -0.331131 0.943003
vn 0.068061 -0.391330 0.917730
vn -0.513592 0.399318 0.759453
vn -0.131654 0.046829 0.990189
vn -0.138151 0.045861 0.989349
vn -0.422612 0.644649 0.637045
vn -0.219760 0.607683 0.763169
vn -0.516542 0.843067 0.149742
vn -0.737326 0.672439 0.064622
vn -0.319851 0.931886 0.171126
vn -0.518381 0.841759 -0.150744
vn -0.737809 0.671590 -0.067854
vn -0.319844 0.931903 -0.171045
vn -0.427339 0.644065 -0.634478
vn -0.504336 0.388463 -0.771195
vn -0.219792 0.607595 -0.763230
vn -0.133582 0.045558 -0.989990
vn -0.140618 0.042813 -0.989138
vn 0.071815 -0.126399 -0.989377
vn -0.764629 0.365141 -0.531051
vn 0.036670 -0.330174 -0.943208
vn 0.012146 -0.385666 -0.922558
vn 0.343584 -0.080657 -0.935652
vn -0.590597 0.080330 -0.802958
vn 0.785982 -0.288112 -0.547014
vn 0.273574 -0.792353 -0.545284
vn 0.340798 -0.005832 -0.940119
vn -0.621708 0.005926 -0.783227
vn 0.953805 -0.014295 -0.300085
vn 0.912639 -0.384798 -0.137913
vn 0.343872 0.005806 -0.938999
vn -0.621606 -0.005851 -0.783309
vn 0.953647 0.014239 -0.300591
vn 0.353050 0.082238 -0.931983
vn -0.591220 -0.079644 -0.802568
vn 0.779000 0.295597 -0.552975
vn 0.916799 0.375098 -0.137046
vn 0.076650 0.132598 -0.988202
vn -0.764295 -0.364173 -0.532195
vn 0.035119 0.334564 -0.941718
vn 0.270418 0.795788 -0.541845
vn 0.009684 0.389704 -0.920889
vn -0.134045 -0.045778 -0.989917
vn -0.140555 -0.042727 -0.989151
vn 1.000000 -0.000003 0.000000
vn 0.392357 -0.919795 -0.005749
vn 0.594201 -0.804312 -0.002585
vn 0.594160 0.804342 -0.002586
vn 0.392357 0.919795 -0.005749
vn 1.000000 0.000012 -0.000004
vn -0.796301 0.600833 -0.070031
vn -0.897438 0.434954 -0.073617
vn -0.988438 0.139850 -0.058593
vn -0.997421 0.008653 -0.071245
vn -0.997489 -0.009108 -0.070230
vn -0.988580 -0.139543 -0.056901
vn -0.897587 -0.434613 -0.073818
vn -0.796346 -0.600789 -0.069889
vn -0.796853 0.600134 0.069750
vn -0.897180 0.435479 0.073667
vn -0.988439 0.139823 0.058631
vn -0.997305 0.008301 0.072900
vn -0.997300 -0.009142 0.072869
vn -0.988617 -0.138571 0.058610
vn -0.897190 -0.435440 0.073770
vn -0.796820 -0.600164 0.069871
vn -0.551166 -0.657735 -0.513421
vn -0.577007 -0.774450 -0.259402
vn -0.715237 -0.657203 -0.237741
vn -0.655326 -0.627010 -0.421197
vn -0.323748 -0.595166 -0.735503
vn -0.351585 -0.916970 -0.188561
vn -0.044899 -0.658098 -0.751593
vn -0.049743 -0.986810 -0.154053
vn 0.042149 -0.676901 -0.734866
vn 0.054285 -0.985508 -0.160708
vn 0.234305 -0.597134 -0.767159
vn 0.240015 -0.961636 -0.132848
vn 0.650352 -0.588225 -0.480659
vn 0.536260 -0.815127 -0.219073
vn 0.749366 -0.605222 -0.268621
vn -0.561481 -0.814954 -0.143489
vn -0.749925 -0.652106 -0.111221
vn -0.317718 -0.940141 -0.123248
vn -0.055830 -0.994711 -0.086212
vn 0.054878 -0.994942 -0.084132
vn 0.223657 -0.970740 -0.087415
vn 0.540500 -0.829091 -0.143067
vn 0.779698 -0.610760 -0.137999
vn -0.566407 -0.822185 -0.056528
vn -0.773840 -0.631817 -0.044484
vn -0.233669 -0.970637 -0.057113
vn -0.058971 -0.996554 -0.058329
vn 0.059046 -0.996643 -0.056714
vn 0.208917 -0.976450 -0.053843
vn 0.472888 -0.879537 -0.052841
vn 0.798966 -0.599374 -0.049028
vn -0.549416 -0.835077 -0.028079
vn -0.792836 -0.609185 -0.017477
vn -0.235834 -0.971554 -0.021555
vn -0.048350 -0.998677 -0.017505
vn 0.065161 -0.997761 -0.015065
vn 0.213138 -0.976946 -0.012160
vn 0.485074 -0.874323 -0.016193
vn 0.802790 -0.596040 -0.016258
vn -0.535070 -0.844708 0.012974
vn -0.804294 -0.588837 -0.079886
vn -0.229542 -0.973138 0.017691
vn -0.045080 -0.998772 0.020523
vn 0.067818 -0.997432 0.023006
vn 0.219099 -0.975286 0.028492
vn 0.476216 -0.878644 0.034685
vn 0.801952 -0.596532 0.031979
vn -0.348866 -0.936682 -0.030333
vn -0.825129 -0.404780 -0.394101
vn -0.423285 -0.905758 0.020778
vn -0.268083 -0.962516 0.041162
vn -0.082516 -0.995080 -0.054831
vn 0.068494 -0.993601 -0.089809
vn 0.307758 -0.951208 -0.022119
vn 0.499733 -0.864479 0.054249
vn 0.789118 -0.604493 0.109004
vn -0.201274 -0.976965 -0.070912
vn -0.888291 -0.449338 -0.095053
vn -0.367682 -0.929378 -0.032647
vn -0.372255 -0.927490 -0.034469
vn -0.086728 -0.994948 -0.050555
vn 0.045081 -0.995946 -0.077846
vn 0.428251 -0.900012 -0.081117
vn 0.579301 -0.814968 0.015432
vn 0.795060 -0.596711 0.108694
vn -0.142006 -0.972559 0.184289
vn -0.908243 -0.408787 0.089370
vn -0.303521 -0.944801 0.123392
vn -0.446563 -0.889317 0.098470
vn -0.073735 -0.995151 0.065092
vn 0.010041 -0.995404 0.095237
vn 0.492367 -0.869547 0.038262
vn 0.686480 -0.721674 0.089061
vn 0.805169 -0.569676 0.164841
vn -0.187326 -0.903600 0.385248
vn -0.738488 -0.445145 0.506440
vn -0.449315 -0.813308 0.369658
vn -0.477181 -0.802704 0.357721
vn -0.097617 -0.977530 0.186832
vn 0.000000 -0.994522 0.104529
vn 0.449526 -0.815912 0.363611
vn 0.699409 -0.649551 0.298177
vn 0.771205 -0.567375 0.288667
vn -0.211846 -0.875578 0.434149
vn -0.494446 -0.661867 0.563432
vn -0.551375 -0.670671 0.496172
vn -0.119129 -0.829269 0.546005
vn 0.031800 -0.820902 0.570183
vn 0.494636 -0.711031 0.499770
vn 0.659137 -0.612621 0.436158
vn 0.740205 -0.539746 0.400962
vn -0.459974 -0.275545 0.844096
vn -0.571767 -0.364656 0.734921
vn -0.590641 -0.582173 0.558764
vn -0.125604 -0.647648 0.751516
vn 0.053159 -0.625270 0.778596
vn 0.498959 -0.619565 0.605953
vn 0.680511 -0.496378 0.538994
vn 0.721980 -0.446760 0.528346
vn -0.610859 -0.215683 0.761796
vn -0.580221 -0.220804 0.783958
vn -0.532073 -0.225477 0.816124
vn -0.114013 -0.049687 0.992236
vn 0.094233 -0.060017 0.993739
vn 0.460101 -0.031267 0.887316
vn 0.658418 -0.196284 0.726607
vn 0.726324 -0.247538 0.641232
vn -0.710038 -0.094265 0.697825
vn -0.800148 -0.019135 0.599497
vn -0.521271 -0.129585 0.843495
vn -0.474879 -0.070925 0.877189
vn -0.106690 -0.055834 0.992723
vn 0.091127 -0.060204 0.994018
vn 0.404234 -0.099102 0.909271
vn 0.593784 -0.128499 0.794297
vn 0.755194 -0.103281 0.647314
vn -0.805408 0.000004 0.592721
vn -0.481968 0.000014 0.876189
vn -0.463804 0.000873 0.885938
vn -0.119042 -0.000640 0.992889
vn 0.141001 0.002931 0.990005
vn 0.320134 0.009190 0.947328
vn 0.558675 -0.001938 0.829384
vn 0.767190 0.000509 0.641420
vn -0.709157 0.092304 0.698983
vn -0.519574 0.129067 0.844621
vn -0.473964 0.070995 0.877678
vn -0.108660 0.050399 0.992801
vn 0.088070 0.072002 0.993509
vn 0.367920 0.082988 0.926147
vn 0.596183 0.129105 0.792400
vn 0.753047 0.105747 0.649413
vn -0.799283 0.023554 0.600493
vn -0.531142 0.226808 0.816362
vn -0.579174 0.218926 0.785257
vn -0.114738 0.049249 0.992174
vn 0.103431 0.050322 0.993363
vn 0.436981 0.011645 0.899396
vn 0.668382 0.216212 0.711701
vn 0.719942 0.253172 0.646210
vn -0.458259 0.279967 0.843574
vn -0.605456 0.222132 0.764252
vn -0.571423 0.367928 0.733557
vn -0.590662 0.582175 0.558740
vn -0.126049 0.647753 0.751350
vn 0.052750 0.625664 0.778307
vn 0.498727 0.620465 0.605223
vn 0.682522 0.495639 0.537127
vn 0.717614 0.449127 0.532273
vn -0.733636 0.458667 0.501400
vn -0.211869 0.875594 0.434105
vn -0.494436 0.661888 0.563416
vn -0.551395 0.670659 0.496165
vn -0.119445 0.829433 0.545687
vn 0.031451 0.821205 0.569766
vn 0.519255 0.695858 0.496142
vn 0.646634 0.608401 0.460123
vn 0.748596 0.513727 0.419153
vn -0.187339 0.903613 0.385210
vn -0.449279 0.813363 0.369580
vn -0.477164 0.802705 0.357742
vn -0.097618 0.977530 0.186833
vn -0.000000 0.994522 0.104528
vn 0.574560 0.755292 0.315299
vn 0.706752 0.636293 0.309246
vn 0.795989 0.535297 0.282594
vn -0.142010 0.972563 0.184268
vn -0.905662 0.414226 0.090522
vn -0.303504 0.944811 0.123356
vn -0.446541 0.889332 0.098435
vn -0.073734 0.995151 0.065091
vn 0.010041 0.995404 0.095237
vn 0.566153 0.819082 0.092609
vn 0.688656 0.716822 0.109174
vn 0.799660 0.576209 0.168899
vn -0.203667 0.977086 -0.061819
vn -0.887856 0.450624 -0.093005
vn -0.364292 0.931096 -0.018766
vn -0.370535 0.928396 -0.028001
vn -0.085119 0.995085 -0.050606
vn 0.044164 0.995938 -0.078469
vn 0.422503 0.903219 -0.075416
vn 0.576373 0.816701 0.028152
vn 0.788592 0.598483 0.141213
vn -0.349052 0.936438 -0.035315
vn -0.828254 0.416068 -0.375342
vn -0.420438 0.907161 0.017025
vn -0.266340 0.962860 0.044300
vn -0.083355 0.995131 -0.052599
vn 0.068408 0.993590 -0.089991
vn 0.301987 0.953137 -0.018297
vn 0.500325 0.863841 0.058764
vn 0.787366 0.607494 0.104909
vn -0.795189 0.600671 -0.082875
vn -0.533293 0.845920 0.004210
vn -0.227945 0.973558 0.015057
vn -0.044622 0.998801 0.020150
vn 0.067275 0.997477 0.022675
vn 0.216158 0.976022 0.025642
vn 0.476077 0.879043 0.025193
vn 0.803070 0.595612 0.018033
vn -0.550108 0.834626 -0.027938
vn -0.786095 0.617706 -0.022202
vn -0.235811 0.971559 -0.021582
vn -0.048396 0.998675 -0.017490
vn 0.065052 0.997769 -0.015031
vn 0.211710 0.977258 -0.012074
vn 0.485968 0.873844 -0.015208
vn 0.803428 0.595245 -0.013664
vn -0.560530 0.826302 -0.055054
vn -0.772119 0.634061 -0.042414
vn -0.236391 0.969945 -0.057664
vn -0.059043 0.996550 -0.058329
vn 0.058934 0.996648 -0.056736
vn 0.207637 0.976717 -0.053950
vn 0.470810 0.880653 -0.052811
vn 0.798504 0.599902 -0.050094
vn -0.557006 0.818620 -0.140018
vn -0.744105 0.658206 -0.114334
vn -0.328815 0.936265 -0.123651
vn -0.055457 0.994762 -0.085867
vn 0.054051 0.995014 -0.083815
vn 0.221590 0.971353 -0.085852
vn 0.543814 0.827149 -0.141740
vn 0.781284 0.609091 -0.136390
vn -0.576463 0.777912 -0.250088
vn -0.714053 0.660519 -0.232040
vn -0.356897 0.915490 -0.185748
vn -0.049810 0.986792 -0.154142
vn 0.053191 0.985561 -0.160751
vn 0.237558 0.962611 -0.130180
vn 0.544811 0.809901 -0.217351
vn 0.756301 0.599868 -0.261087
vn -0.549654 0.661992 -0.509556
vn -0.660188 0.634885 -0.401338
vn -0.313605 0.592727 -0.741840
vn -0.044921 0.658722 -0.751044
vn 0.041043 0.677797 -0.734102
vn 0.225898 0.596964 -0.769808
vn 0.654419 0.588600 -0.474643
vn -0.399485 0.366449 -0.840313
vn -0.721899 0.419007 -0.550723
vn -0.197911 0.245885 -0.948879
vn -0.043986 0.237636 -0.970358
vn 0.022032 0.245954 -0.969031
vn 0.149356 0.232069 -0.961164
vn 0.651122 0.404787 -0.642018
vn 0.863302 0.403328 -0.303374
vn -0.248168 0.101735 -0.963360
vn -0.753186 0.171566 -0.635040
vn -0.104805 0.067123 -0.992225
vn -0.082729 0.085108 -0.992931
vn -0.053082 0.106122 -0.992935
vn 0.167046 0.133340 -0.976891
vn 0.654579 0.151130 -0.740733
vn 0.927179 0.170956 -0.333337
vn -0.216562 -0.000868 -0.976268
vn -0.729776 -0.007770 -0.683643
vn -0.068552 0.000003 -0.997647
vn -0.103059 -0.000007 -0.994675
vn -0.079651 0.000003 -0.996823
vn 0.214812 -0.000009 -0.976655
vn 0.644535 0.000043 -0.764575
vn 0.938151 0.001634 -0.346223
vn -0.258492 -0.107237 -0.960043
vn -0.745572 -0.180823 -0.641424
vn -0.106364 -0.069081 -0.991925
vn -0.082898 -0.085301 -0.992901
vn -0.053250 -0.106419 -0.992895
vn 0.168560 -0.134747 -0.976438
vn 0.655101 -0.157394 -0.738965
vn 0.926061 -0.170519 -0.336652
vn -0.407241 -0.369975 -0.835029
vn -0.717925 -0.419590 -0.555453
vn -0.202259 -0.246613 -0.947773
vn -0.044831 -0.236112 -0.970691
vn 0.022742 -0.244607 -0.969356
vn 0.152735 -0.231587 -0.960749
vn 0.643776 -0.408757 -0.646893
vn 0.857048 -0.409349 -0.312893
vn 0.911912 0.392466 -0.119944
vn 0.976577 0.185601 -0.108856
vn 0.994542 0.001585 -0.104325
vn 0.977046 -0.183654 -0.107948
vn 0.910105 -0.396726 -0.119653
vn 0.920840 0.386209 -0.053819
vn 0.982043 0.180201 -0.055854
vn 0.998491 -0.000023 -0.054923
vn 0.982628 -0.177680 -0.053589
vn 0.920170 -0.388214 -0.050761
vn 0.920637 0.390228 -0.012223
vn 0.984064 0.177527 -0.010151
vn 0.999955 0.000714 -0.009512
vn 0.984492 -0.174995 -0.012299
vn 0.920944 -0.389402 -0.015095
vn 0.917586 0.397462 0.007732
vn 0.985120 0.171330 0.013590
vn 0.999406 -0.003144 0.034328
vn 0.984216 -0.171855 0.042246
vn 0.918867 -0.392830 0.036981
vn 0.903453 0.416306 0.102283
vn 0.982436 0.150136 0.110810
vn 0.991566 -0.019989 0.128054
vn 0.978576 -0.160914 0.128436
vn 0.909474 -0.399890 0.113781
vn 0.893477 0.414624 0.172587
vn 0.970168 0.144990 0.194298
vn 0.983525 -0.017872 0.179885
vn 0.975886 -0.152439 0.156233
vn 0.914372 -0.383574 0.129598
vn 0.902923 0.374091 0.211627
vn 0.956848 0.138921 0.255232
vn 0.966620 -0.009712 0.256029
vn 0.961408 -0.140698 0.236428
vn 0.911134 -0.359769 0.201000
vn 0.882807 0.328719 0.335554
vn 0.916513 0.123842 0.380352
vn 0.924100 -0.002439 0.382144
vn 0.926198 -0.126616 0.355141
vn 0.888945 -0.330129 0.317475
vn 0.831566 0.296163 0.469878
vn 0.860656 0.107401 0.497730
vn 0.862043 0.001634 0.506833
vn 0.861797 -0.114694 0.494116
vn 0.834949 -0.302874 0.459486
vn -0.863676 0.441923 -0.242421
vn -0.960488 0.170001 -0.220371
vn -0.977575 -0.003490 -0.210557
vn -0.956764 -0.172434 -0.234240
vn -0.859379 -0.441498 -0.257968
vn -0.894007 0.437103 -0.098448
vn -0.989321 0.133921 -0.057518
vn -0.999361 -0.000180 -0.035736
vn -0.989616 -0.131938 -0.057033
vn -0.894952 -0.435384 -0.097476
vn -0.910565 0.412775 -0.022111
vn -0.995547 0.094126 -0.005190
vn -0.999998 -0.000302 -0.002119
vn -0.995656 -0.092971 -0.005105
vn -0.910350 -0.413217 -0.022677
vn -0.924833 0.380310 -0.006911
vn -0.995191 0.097944 -0.001620
vn -0.999967 -0.008108 0.000114
vn -0.994300 -0.105901 0.012339
vn -0.927297 -0.374255 0.007290
vn -0.933685 0.303026 -0.190806
vn -0.995706 0.091654 -0.012983
vn -0.999799 -0.011949 0.016085
vn -0.994380 -0.105259 -0.011397
vn -0.938151 -0.287193 -0.193373
vn -0.934058 0.023886 -0.356322
vn -0.999275 -0.037854 0.004097
vn -0.988061 -0.004808 0.153990
vn -0.997610 0.030361 -0.062073
vn -0.917930 -0.012487 -0.396547
vn -0.958057 -0.286466 0.007999
vn -0.979898 -0.156147 0.124172
vn -0.985472 0.000000 0.169840
vn -0.980050 0.157076 0.121775
vn -0.959094 0.283086 0.000682
vn -0.964494 -0.170944 0.201319
vn -0.976047 -0.000000 0.217558
vn -0.964769 0.173291 0.197967
vn -0.924041 -0.137228 0.356815
vn -0.927088 0.000000 0.374843
vn -0.923731 0.139192 0.356857
s 1
usemtl M_sprout_SG
f 3/515/1 2/516/2 4/517/3
f 4/345/3 6/342/4 5/341/5 3/346/1
s off
f 5/341/6 6/342/7 8/343/8 7/344/9
s 2
f 7/519/10 10/520/11 9/521/12
f 7/519/10 8/522/13 11/523/14 10/520/11
s 3
f 9/521/15 10/520/16 13/524/17 12/525/18
f 10/520/16 14/526/19 13/524/17
s 4
f 12/347/20 13/348/21 16/349/22 15/350/23
f 15/350/23 16/349/22 1/351/24
s 5
f 17/2/25 8/4/26 6/3/27
f 4/1/28 17/2/25 6/3/27
s off
f 12/6/29 15/7/30 18/8/31 9/9/32
s 1
f 3/10/1 18/8/33 15/7/34 1/11/35
s off
f 9/9/36 18/8/37 5/12/38 7/13/39
s 1
f 5/12/5 18/8/33 3/10/1
s 5
f 17/2/25 11/5/40 8/4/26
s 2
f 10/520/11 11/523/14 14/526/41
s 1
f 1/518/35 2/516/42 3/515/1
s 6
f 19/533/43 20/527/44 32/530/45 31/534/46
f 20/527/44 21/528/47 33/529/48 32/530/45
f 21/528/47 22/531/49 34/532/50 33/529/48
f 22/531/49 23/535/51 35/536/52 34/532/50
f 23/725/51 24/726/53 36/727/54 35/728/52
f 24/726/53 25/729/55 37/730/56 36/727/54
f 25/543/55 26/537/57 38/540/58 37/544/56
f 26/537/57 27/538/59 39/539/60 38/540/58
f 27/538/59 28/541/61 40/542/62 39/539/60
f 28/541/61 29/545/63 41/546/64 40/542/62
f 29/740/63 30/741/65 42/742/66 41/743/64
f 30/741/65 19/744/43 31/745/46 42/742/66
s off
f 31/731/67 32/732/68 33/733/69 34/734/70 35/728/71 36/727/72 37/730/73 38/735/74 39/736/75 40/737/76 41/738/77 42/739/78
s 7
f 43/78/79 44/87/80 47/88/81 46/83/82
f 44/547/80 45/548/83 48/549/84 47/550/81
f 46/83/82 47/88/81 50/90/85 49/86/86
f 47/550/81 48/549/84 51/551/87 50/552/85
f 49/86/86 50/90/85 53/91/88 52/89/89
f 50/552/85 51/551/87 54/553/90 53/554/88
f 52/352/89 53/353/88 55/354/91
f 53/353/88 54/355/90 56/356/92 55/354/91
f 52/352/89 58/358/93 57/362/94
f 52/352/89 55/354/91 59/357/95 58/358/93
f 55/354/91 56/356/92 60/359/96 59/357/95
f 57/362/94 58/358/93 62/361/97 61/364/98
f 58/358/93 59/357/95 63/360/99 62/361/97
f 59/357/95 60/359/96 64/363/100 63/360/99
f 62/361/97 67/365/101 66/366/102 61/364/98
f 68/14/103 67/15/101 62/16/97 63/17/99 65/18/104
f 66/366/102 67/365/101 70/367/105 69/368/106
f 67/15/101 68/14/103 71/19/107 70/20/105
f 70/367/105 74/369/108 73/370/109 69/368/106
f 75/24/110 74/25/108 70/20/105 71/19/107 72/26/111
f 72/555/111 76/556/112 75/557/110
f 73/370/109 74/369/108 78/371/113 77/372/114
f 74/369/108 75/373/110 79/374/115 78/371/113
f 75/373/110 76/376/112 80/377/116 79/374/115
f 77/372/114 78/371/113 81/375/117
f 78/371/113 79/374/115 82/378/118 81/375/117
f 79/374/115 80/377/116 83/379/119 82/378/118
f 81/375/117 82/378/118 84/380/120
f 82/378/118 83/379/119 85/381/121 84/380/120
f 81/69/117 84/82/120 87/77/122 86/70/123
f 84/563/120 85/564/121 88/565/124 87/566/122
f 86/70/123 87/77/122 90/71/125 89/64/126
f 87/566/122 88/565/124 91/567/127 90/568/125
f 89/64/126 90/71/125 93/72/128 92/56/129
f 90/568/125 91/567/127 94/569/130 93/570/128
f 92/382/129 93/383/128 95/384/131
f 93/383/128 94/385/130 96/386/132 95/384/131
f 92/382/129 98/388/133 97/392/134
f 92/382/129 95/384/131 99/387/135 98/388/133
f 95/384/131 96/386/132 100/389/136 99/387/135
f 97/392/134 98/388/133 102/391/137 101/394/138
f 98/388/133 99/387/135 103/390/139 102/391/137
f 99/387/135 100/389/136 104/393/140 103/390/139
f 102/391/137 107/395/141 106/396/142 101/394/138
f 103/29/139 108/22/143 107/31/141 102/34/137
f 105/560/144 103/562/139 104/561/140
f 106/396/142 107/395/141 110/397/145 109/398/146
f 107/31/141 108/22/143 111/23/147 110/32/145
f 108/22/143 71/19/107 68/14/103 111/23/147
f 110/397/145 114/399/148 113/400/149 109/398/146
f 111/23/147 115/30/150 114/35/148 110/32/145
f 112/27/151 115/30/150 111/23/147 68/14/103
f 113/400/149 114/399/148 118/401/152 117/402/153
f 114/399/148 115/403/150 119/404/154 118/401/152
f 115/403/150 116/406/155 120/407/156 119/404/154
f 117/402/153 118/401/152 43/405/79
f 118/401/152 119/404/154 121/408/157 43/405/79
f 119/404/154 120/407/156 122/409/158 121/408/157
f 43/405/79 121/408/157 44/410/80
f 121/408/157 122/409/158 45/411/83 44/410/80
f 104/36/140 100/37/136 123/38/159 124/39/160
f 105/560/144 104/561/140 124/559/160 125/558/161
f 71/19/107 105/28/144 125/33/161
f 112/27/151 68/14/103 126/21/162
f 116/571/155 112/572/151 126/573/162 127/574/163
f 120/42/156 116/43/155 127/44/163 128/45/164
f 124/39/160 123/38/159 80/40/116 76/41/112
f 125/558/161 124/559/160 76/556/112 72/555/111
f 71/19/107 125/33/161 72/26/111
f 126/21/162 68/14/103 65/18/104
f 127/574/163 126/573/162 65/576/104 64/577/100
f 60/46/96 128/45/164 127/44/163 64/47/100
f 92/56/129 129/57/165 89/64/126
f 92/56/129 97/48/134 130/51/166 129/57/165
f 97/48/134 101/49/138 131/50/167 130/51/166
f 131/50/167 101/49/138 106/52/142 132/53/168
f 106/52/142 109/58/146 133/59/169 132/53/168
f 133/59/169 109/58/146 113/65/149 134/66/170
f 113/65/149 117/73/153 135/74/171 134/66/170
f 117/73/153 43/78/79 136/79/172 135/74/171
f 46/83/82 136/79/172 43/78/79
f 89/64/126 129/57/165 137/63/173 86/70/123
f 129/57/165 130/51/166 138/55/174 137/63/173
f 130/51/166 131/50/167 139/54/175 138/55/174
f 139/54/175 131/50/167 132/53/168 140/60/176
f 132/53/168 133/59/169 141/67/177 140/60/176
f 141/67/177 133/59/169 134/66/170 142/75/178
f 134/66/170 135/74/171 143/80/179 142/75/178
f 135/74/171 136/79/172 144/84/180 143/80/179
f 49/86/86 144/84/180 136/79/172 46/83/82
f 86/70/123 137/63/173 81/69/117
f 137/63/173 138/55/174 77/62/114 81/69/117
f 138/55/174 139/54/175 73/61/109 77/62/114
f 69/68/106 73/61/109 139/54/175 140/60/176
f 140/60/176 141/67/177 66/76/102 69/68/106
f 61/81/98 66/76/102 141/67/177 142/75/178
f 142/75/178 143/80/179 57/85/94 61/81/98
f 143/80/179 144/84/180 52/89/89 57/85/94
f 52/89/89 144/84/180 49/86/86
f 65/576/104 63/578/99 64/577/100
f 112/572/151 116/571/155 115/575/150
f 105/28/144 71/19/107 108/22/143 103/29/139
s 8
f 146/259/181 153/260/182 152/248/183 145/247/184
f 147/269/185 154/270/186 153/260/182 146/259/181
f 148/579/187 155/580/188 154/581/186 147/582/185
f 155/580/188 148/579/187 149/583/189 156/584/190
f 150/587/191 157/588/192 156/584/190 149/583/189
f 151/592/193 158/593/194 157/588/192 150/587/191
f 159/132/195 158/143/194 151/133/193
f 153/260/182 161/271/196 160/261/197 152/248/183
f 154/270/186 162/280/198 161/271/196 153/260/182
f 155/580/188 163/585/199 162/586/198 154/581/186
f 163/585/199 155/580/188 156/584/190 164/589/200
f 157/588/192 165/594/201 164/589/200 156/584/190
f 158/593/194 166/600/202 165/594/201 157/588/192
f 167/131/203 166/142/202 158/143/194 159/132/195
f 161/271/196 169/281/204 168/272/205 160/261/197
f 162/586/198 170/591/206 169/598/204 161/599/196
f 163/585/199 171/590/207 170/591/206 162/586/198
f 171/590/207 163/585/199 164/589/200 172/595/208
f 165/594/201 173/601/209 172/595/208 164/589/200
f 166/600/202 174/606/210 173/601/209 165/594/201
f 174/146/210 166/142/202 167/131/203 175/136/211
f 169/281/204 177/291/212 176/282/213 168/272/205
f 170/591/206 178/597/214 177/605/212 169/598/204
f 171/590/207 179/596/215 178/597/214 170/591/206
f 179/596/215 171/590/207 172/595/208 180/602/216
f 173/601/209 181/607/217 180/602/216 172/595/208
f 174/606/210 182/612/218 181/607/217 173/601/209
f 182/155/218 174/146/210 175/136/211 183/147/219
f 177/291/212 185/298/220 184/292/221 176/282/213
f 178/597/214 186/604/222 185/611/220 177/605/212
f 179/596/215 187/603/223 186/604/222 178/597/214
f 187/603/223 179/596/215 180/602/216 188/608/224
f 181/607/217 189/613/225 188/608/224 180/602/216
f 182/612/218 190/618/226 189/613/225 181/607/217
f 190/164/226 182/155/218 183/147/219 191/156/227
f 184/645/221 193/630/228 192/638/229
f 184/292/221 185/298/220 194/306/230 193/307/228
f 185/611/220 186/604/222 195/610/231 194/617/230
f 186/604/222 187/603/223 196/609/232 195/610/231
f 196/609/232 187/603/223 188/608/224 197/614/233
f 188/608/224 189/613/225 198/619/234 197/614/233
f 189/613/225 190/618/226 199/624/235 198/619/234
f 199/175/235 190/164/226 191/156/227 200/165/236
f 192/638/229 193/630/228 202/631/237 201/639/238
f 193/630/228 194/617/230 203/623/239 202/631/237
f 194/617/230 195/610/231 204/616/240 203/623/239
f 195/610/231 196/609/232 205/615/241 204/616/240
f 205/615/241 196/609/232 197/614/233 206/620/242
f 197/614/233 198/619/234 207/625/243 206/620/242
f 198/619/234 199/624/235 208/632/244 207/625/243
f 208/185/244 199/175/235 200/165/236 209/176/245
f 201/639/238 202/631/237 211/637/246 210/644/247
f 202/631/237 203/623/239 212/629/248 211/637/246
f 203/623/239 204/616/240 213/622/249 212/629/248
f 204/616/240 205/615/241 214/621/250 213/622/249
f 214/621/250 205/615/241 206/620/242 215/626/251
f 206/620/242 207/625/243 216/633/252 215/626/251
f 207/202/243 208/185/244 217/194/253 216/203/252
f 217/194/253 208/185/244 209/176/245 218/186/254
f 210/644/247 211/637/246 220/643/255 219/651/256
f 211/637/246 212/629/248 221/642/257 220/643/255
f 212/339/248 213/340/249 222/338/258 221/337/257
f 213/622/249 214/621/250 223/627/259 222/628/258
f 223/627/259 214/621/250 215/626/251 224/634/260
f 215/626/251 216/633/252 225/640/261 224/634/260
f 216/633/252 217/646/253 226/647/262 225/640/261
f 226/204/262 217/194/253 218/186/254 227/195/263
f 219/651/256 220/643/255 228/650/264
f 220/643/255 221/642/257 229/649/265 228/650/264
f 221/337/257 222/338/258 230/336/266 229/335/265
f 222/628/258 223/627/259 231/635/267 230/636/266
f 231/635/267 223/627/259 224/634/260 232/641/268
f 224/634/260 225/640/261 233/648/269 232/641/268
f 225/211/261 226/204/262 234/208/270 233/212/269
f 234/208/270 226/204/262 227/195/263 235/205/271
f 219/651/256 228/650/264 236/652/272
f 228/418/264 229/419/265 237/416/273 236/412/272
f 229/335/265 230/336/266 238/331/274 237/332/273
f 230/428/266 231/429/267 239/420/275 238/423/274
f 239/420/275 231/429/267 232/430/268 240/424/276
f 232/430/268 233/436/269 241/431/277 240/424/276
f 233/212/269 234/208/270 242/213/278 241/216/277
f 242/213/278 234/208/270 235/205/271 243/209/279
f 236/412/272 510/413/280 219/414/256
f 238/331/274 246/327/281 245/324/282 237/332/273
f 239/420/275 247/421/283 246/422/281 238/423/274
f 247/421/283 239/420/275 240/424/276 248/425/284
f 241/431/277 249/432/285 248/425/284 240/424/276
f 242/213/278 250/210/286 249/215/285 241/216/277
f 250/210/286 242/213/278 243/209/279 251/206/287
f 252/315/288 244/309/289 245/324/282 253/321/290
f 246/327/281 254/328/291 253/321/290 245/324/282
f 247/421/283 255/426/292 254/427/291 246/422/281
f 255/426/292 247/421/283 248/425/284 256/433/293
f 249/432/285 257/437/294 256/433/293 248/425/284
f 250/210/286 258/207/295 257/214/294 249/215/285
f 258/207/295 250/210/286 251/206/287 259/197/296
f 260/311/297 252/315/288 253/321/290 261/316/298
f 254/427/291 262/435/299 261/441/298 253/442/290
f 255/426/292 263/434/300 262/435/299 254/427/291
f 263/434/300 255/426/292 256/433/293 264/438/301
f 257/437/294 265/443/302 264/438/301 256/433/293
f 258/448/295 266/449/303 265/443/302 257/437/294
f 266/198/303 258/207/295 259/197/296 267/189/304
f 268/305/305 260/311/297 261/316/298 269/312/306
f 262/435/299 270/440/307 269/447/306 261/441/298
f 263/434/300 271/439/308 270/440/307 262/435/299
f 271/439/308 263/434/300 264/438/301 272/444/309
f 265/443/302 273/450/310 272/444/309 264/438/301
f 266/449/303 274/454/311 273/450/310 265/443/302
f 274/191/311 266/198/303 267/189/304 275/181/312
f 276/289/313 268/305/305 269/312/306 277/313/314
f 270/317/307 278/318/315 277/313/314 269/312/306
f 271/439/308 279/445/316 278/446/315 270/440/307
f 279/445/316 271/439/308 272/444/309 280/451/317
f 273/450/310 281/455/318 280/451/317 272/444/309
f 274/191/311 282/190/319 281/199/318 273/200/310
f 282/190/319 274/191/311 275/181/312 283/180/320
f 285/462/321 509/463/322 276/464/313 277/465/314 286/466/323
f 278/318/315 287/322/324 286/323/323 277/313/314
f 279/445/316 288/452/325 287/453/324 278/446/315
f 288/452/325 279/445/316 280/451/317 289/456/326
f 281/455/318 290/459/327 289/456/326 280/451/317
f 282/190/319 291/193/328 290/201/327 281/199/318
f 291/193/328 282/190/319 283/180/320 292/184/329
f 284/653/330 285/654/321 293/655/331
f 285/462/321 286/466/323 294/468/332 293/469/331
f 286/323/323 287/322/324 295/325/333 294/326/332
f 287/453/324 288/452/325 296/457/334 295/458/333
f 296/457/334 288/452/325 289/456/326 297/460/335
f 289/456/326 290/459/327 298/461/336 297/460/335
f 290/201/327 291/193/328 299/183/337 298/192/336
f 299/183/337 291/193/328 292/184/329 300/174/338
f 284/653/330 293/655/331 301/656/339
f 293/655/331 294/657/332 302/658/340 301/656/339
f 294/326/332 295/325/333 303/329/341 302/330/340
f 295/681/333 296/682/334 304/675/342 303/674/341
f 304/675/342 296/682/334 297/690/335 305/683/343
f 297/690/335 298/697/336 306/691/344 305/683/343
f 298/192/336 299/183/337 307/173/345 306/182/344
f 307/173/345 299/183/337 300/174/338 308/163/346
f 284/653/330 301/656/339 310/659/347 309/660/348
f 301/656/339 302/658/340 311/661/349 310/659/347
f 302/330/340 303/329/341 312/333/350 311/334/349
f 303/674/341 304/675/342 313/671/351 312/667/350
f 313/671/351 304/675/342 305/683/343 314/676/352
f 305/683/343 306/691/344 315/684/353 314/676/352
f 306/182/344 307/173/345 316/162/354 315/171/353
f 316/162/354 307/173/345 308/163/346 317/154/355
f 309/660/348 310/659/347 319/662/356 318/663/357
f 310/659/347 311/661/349 320/664/358 319/662/356
f 311/661/349 312/667/350 321/668/359 320/664/358
f 312/667/350 313/671/351 322/672/360 321/668/359
f 322/672/360 313/671/351 314/676/352 323/677/361
f 314/676/352 315/684/353 324/685/362 323/677/361
f 315/171/353 316/162/354 325/153/363 324/172/362
f 325/153/363 316/162/354 317/154/355 326/145/364
f 318/663/357 319/662/356 328/665/365 327/666/366
f 319/662/356 320/664/358 329/669/367 328/665/365
f 320/664/358 321/668/359 330/673/368 329/669/367
f 321/668/359 322/672/360 331/678/369 330/673/368
f 331/678/369 322/672/360 323/677/361 332/686/370
f 323/677/361 324/685/362 333/692/371 332/686/370
f 324/685/362 325/698/363 334/699/372 333/692/371
f 334/144/372 325/153/363 326/145/364 335/135/373
f 327/666/366 328/665/365 336/670/374
f 328/286/365 329/287/367 337/276/375 336/266/374
f 329/669/367 330/673/368 338/679/376 337/680/375
f 330/673/368 331/678/369 339/687/377 338/679/376
f 339/687/377 331/678/369 332/686/370 340/693/378
f 332/686/370 333/692/371 341/700/379 340/693/378
f 333/692/371 334/699/372 342/705/380 341/700/379
f 342/134/380 334/144/372 335/135/373 343/125/381
f 337/276/375 345/265/382 344/255/383 336/266/374
f 338/679/376 346/688/384 345/689/382 337/680/375
f 339/687/377 347/694/385 346/688/384 338/679/376
f 347/694/385 339/687/377 340/693/378 348/701/386
f 341/700/379 349/706/387 348/701/386 340/693/378
f 342/705/380 350/709/388 349/706/387 341/700/379
f 350/124/388 342/134/380 343/125/381 351/116/389
f 345/265/382 353/254/390 352/241/391 344/255/383
f 346/688/384 354/695/392 353/696/390 345/689/382
f 347/694/385 355/702/393 354/695/392 346/688/384
f 355/702/393 347/694/385 348/701/386 356/707/394
f 349/706/387 357/710/395 356/707/394 348/701/386
f 350/709/388 358/714/396 357/710/395 349/706/387
f 358/115/396 350/124/388 351/116/389 359/108/397
f 353/254/390 361/244/398 360/234/399 352/241/391
f 354/695/392 362/703/400 361/704/398 353/696/390
f 355/702/393 363/708/401 362/703/400 354/695/392
f 363/708/401 355/702/393 356/707/394 364/711/402
f 357/710/395 365/715/403 364/711/402 356/707/394
f 358/714/396 366/719/404 365/715/403 357/710/395
f 366/107/404 358/115/396 359/108/397 367/99/405
f 361/244/398 369/235/406 368/225/407 360/234/399
f 362/258/400 370/245/408 369/235/406 361/244/398
f 363/708/401 371/712/409 370/713/408 362/703/400
f 371/712/409 363/708/401 364/711/402 372/716/410
f 365/715/403 373/720/411 372/716/410 364/711/402
f 366/719/404 374/722/412 373/720/411 365/715/403
f 375/98/413 374/106/412 366/107/404 367/99/405
f 369/235/406 377/236/414 376/226/415 368/225/407
f 370/245/408 378/246/416 377/236/414 369/235/406
f 371/712/409 379/717/417 378/718/416 370/713/408
f 379/717/417 371/712/409 372/716/410 380/721/418
f 373/720/411 381/723/419 380/721/418 372/716/410
f 374/722/412 382/724/420 381/723/419 373/720/411
f 382/104/420 374/106/412 375/98/413
f 377/236/414 384/227/421 383/220/422 376/226/415
f 378/473/416 385/472/423 384/478/421 377/479/414
f 379/470/417 386/471/424 385/472/423 378/473/416
f 386/471/424 379/470/417 380/474/418 387/475/425
f 381/480/419 388/481/426 387/475/425 380/474/418
f 382/486/420 389/487/427 388/481/426 381/480/419
f 389/97/427 382/104/420 375/98/413 418/93/428
f 384/227/421 391/228/429 390/217/430 383/220/422
f 385/472/423 392/477/431 391/485/429 384/478/421
f 386/471/424 393/476/432 392/477/431 385/472/423
f 393/476/432 386/471/424 387/475/425 394/482/433
f 388/481/426 395/488/434 394/482/433 387/475/425
f 389/487/427 396/493/435 395/488/434 388/481/426
f 396/96/435 389/97/427 418/93/428 419/92/436
f 391/485/429 398/492/437 397/499/438 390/500/430
f 392/477/431 399/484/439 398/492/437 391/485/429
f 393/476/432 400/483/440 399/484/439 392/477/431
f 400/483/440 393/476/432 394/482/433 401/489/441
f 395/488/434 402/494/442 401/489/441 394/482/433
f 396/493/435 403/501/443 402/494/442 395/488/434
f 403/105/443 396/96/435 419/92/436 420/102/444
f 398/492/437 405/498/445 404/507/446 397/499/438
f 399/484/439 406/491/447 405/498/445 398/492/437
f 400/483/440 407/490/448 406/491/447 399/484/439
f 407/490/448 400/483/440 401/489/441 408/495/449
f 402/494/442 409/502/450 408/495/449 401/489/441
f 403/501/443 410/508/451 409/502/450 402/494/442
f 410/114/451 403/105/443 420/102/444 421/112/452
f 405/250/445 412/251/453 411/237/454 404/229/446
f 406/491/447 413/497/455 412/506/453 405/498/445
f 407/490/448 414/496/456 413/497/455 406/491/447
f 414/496/456 407/490/448 408/495/449 415/503/457
f 409/502/450 416/509/458 415/503/457 408/495/449
f 410/508/451 417/512/459 416/509/458 409/502/450
f 417/123/459 410/114/451 421/112/452 422/121/460
f 412/251/453 146/259/181 145/247/184 411/237/454
f 413/497/455 147/505/185 146/511/181 412/506/453
f 414/496/456 148/504/187 147/505/185 413/497/455
f 149/510/189 148/504/187 414/496/456 415/503/457
f 416/509/458 150/513/191 149/510/189 415/503/457
f 417/512/459 151/514/193 150/513/191 416/509/458
f 159/132/195 151/133/193 417/123/459 422/121/460
f 418/93/428 375/98/413 367/99/405 423/94/461
f 419/92/436 418/93/428 423/94/461 424/95/462
f 420/102/444 419/92/436 424/95/462 425/103/463
f 421/112/452 420/102/444 425/103/463 426/113/464
f 422/121/460 421/112/452 426/113/464 427/122/465
f 167/131/203 159/132/195 422/121/460 427/122/465
f 428/101/466 423/94/461 367/99/405 359/108/397
f 429/100/467 424/95/462 423/94/461 428/101/466
f 430/109/468 425/103/463 424/95/462 429/100/467
f 431/117/469 426/113/464 425/103/463 430/109/468
f 432/126/470 427/122/465 426/113/464 431/117/469
f 175/136/211 167/131/203 427/122/465 432/126/470
f 433/111/471 428/101/466 359/108/397 351/116/389
f 434/110/472 429/100/467 428/101/466 433/111/471
f 435/118/473 430/109/468 429/100/467 434/110/472
f 436/127/474 431/117/469 430/109/468 435/118/473
f 437/137/475 432/126/470 431/117/469 436/127/474
f 183/147/219 175/136/211 432/126/470 437/137/475
f 438/120/476 433/111/471 351/116/389 343/125/381
f 439/119/477 434/110/472 433/111/471 438/120/476
f 440/128/478 435/118/473 434/110/472 439/119/477
f 441/138/479 436/127/474 435/118/473 440/128/478
f 442/148/480 437/137/475 436/127/474 441/138/479
f 191/156/227 183/147/219 437/137/475 442/148/480
f 443/130/481 438/120/476 343/125/381 335/135/373
f 444/129/482 439/119/477 438/120/476 443/130/481
f 445/139/483 440/128/478 439/119/477 444/129/482
f 446/149/484 441/138/479 440/128/478 445/139/483
f 447/157/485 442/148/480 441/138/479 446/149/484
f 200/165/236 191/156/227 442/148/480 447/157/485
f 448/141/486 443/130/481 335/135/373 326/145/364
f 449/140/487 444/129/482 443/130/481 448/141/486
f 450/150/488 445/139/483 444/129/482 449/140/487
f 451/158/489 446/149/484 445/139/483 450/150/488
f 452/166/490 447/157/485 446/149/484 451/158/489
f 209/176/245 200/165/236 447/157/485 452/166/490
f 453/152/491 448/141/486 326/145/364 317/154/355
f 454/151/492 449/140/487 448/141/486 453/152/491
f 455/159/493 450/150/488 449/140/487 454/151/492
f 456/167/494 451/158/489 450/150/488 455/159/493
f 457/177/495 452/166/490 451/158/489 456/167/494
f 218/186/254 209/176/245 452/166/490 457/177/495
f 458/161/496 453/152/491 317/154/355 308/163/346
f 459/160/497 454/151/492 453/152/491 458/161/496
f 460/168/498 455/159/493 454/151/492 459/160/497
f 461/178/499 456/167/494 455/159/493 460/168/498
f 462/187/500 457/177/495 456/167/494 461/178/499
f 227/195/263 218/186/254 457/177/495 462/187/500
f 463/170/501 458/161/496 308/163/346 300/174/338
f 464/169/502 459/160/497 458/161/496 463/170/501
f 465/179/503 460/168/498 459/160/497 464/169/502
f 466/188/504 461/178/499 460/168/498 465/179/503
f 467/196/505 462/187/500 461/178/499 466/188/504
f 235/205/271 227/195/263 462/187/500 467/196/505
f 292/184/329 283/180/320 463/170/501 300/174/338
f 283/180/320 275/181/312 464/169/502 463/170/501
f 275/181/312 267/189/304 465/179/503 464/169/502
f 267/189/304 259/197/296 466/188/504 465/179/503
f 259/197/296 251/206/287 467/196/505 466/188/504
f 251/206/287 243/209/279 235/205/271 467/196/505
f 383/220/422 468/219/506 368/225/407 376/226/415
f 390/217/430 469/218/507 468/219/506 383/220/422
f 397/221/438 470/222/508 469/218/507 390/217/430
f 404/229/446 471/230/509 470/222/508 397/221/438
f 411/237/454 472/238/510 471/230/509 404/229/446
f 145/247/184 152/248/183 472/238/510 411/237/454
f 468/219/506 473/224/511 360/234/399 368/225/407
f 469/218/507 474/223/512 473/224/511 468/219/506
f 470/222/508 475/231/513 474/223/512 469/218/507
f 471/230/509 476/239/514 475/231/513 470/222/508
f 472/238/510 477/249/515 476/239/514 471/230/509
f 152/248/183 160/261/197 477/249/515 472/238/510
f 352/241/391 360/234/399 473/224/511 478/232/516
f 478/232/516 473/224/511 474/223/512 479/233/517
f 479/233/517 474/223/512 475/231/513 480/240/518
f 480/240/518 475/231/513 476/239/514 481/252/519
f 481/252/519 476/239/514 477/249/515 482/262/520
f 482/262/520 477/249/515 160/261/197 168/272/205
f 344/255/383 352/241/391 478/232/516 483/242/521
f 483/242/521 478/232/516 479/233/517 484/243/522
f 484/243/522 479/233/517 480/240/518 485/253/523
f 485/253/523 480/240/518 481/252/519 486/263/524
f 486/263/524 481/252/519 482/262/520 487/273/525
f 487/273/525 482/262/520 168/272/205 176/282/213
f 336/266/374 344/255/383 483/242/521 488/256/526
f 488/256/526 483/242/521 484/243/522 489/257/527
f 489/257/527 484/243/522 485/253/523 490/264/528
f 490/264/528 485/253/523 486/263/524 491/274/529
f 491/274/529 486/263/524 487/273/525 492/283/530
f 492/283/530 487/273/525 176/282/213 184/292/221
f 327/277/366 336/266/374 488/256/526 493/267/531
f 493/267/531 488/256/526 489/257/527 494/268/532
f 494/268/532 489/257/527 490/264/528 495/275/533
f 495/275/533 490/264/528 491/274/529 496/284/534
f 496/284/534 491/274/529 492/283/530 497/293/535
f 497/293/535 492/283/530 184/292/221 192/299/229
f 318/288/357 327/277/366 493/267/531 498/278/536
f 498/278/536 493/267/531 494/268/532 499/279/537
f 499/279/537 494/268/532 495/275/533 500/285/538
f 500/285/538 495/275/533 496/284/534 501/294/539
f 501/294/539 496/284/534 497/293/535 502/300/540
f 502/300/540 497/293/535 192/299/229 201/308/238
f 309/296/348 318/288/357 498/278/536 276/289/313
f 276/289/313 498/278/536 499/279/537 503/290/541
f 503/290/541 499/279/537 500/285/538 504/295/542
f 504/295/542 500/285/538 501/294/539 505/301/543
f 505/301/543 501/294/539 502/300/540 244/309/289
f 244/309/289 502/300/540 201/308/238 210/314/247
f 284/303/330 309/296/348 276/289/313 509/304/322
f 276/289/313 503/290/541 506/297/544
f 506/297/544 503/290/541 504/295/542 507/302/545
f 507/302/545 504/295/542 505/301/543 508/310/546
f 508/310/546 505/301/543 244/309/289
f 244/309/289 210/314/247 219/319/256 510/320/280
f 506/297/544 268/305/305 276/289/313
f 507/302/545 260/311/297 268/305/305 506/297/544
f 508/310/546 252/315/288 260/311/297 507/302/545
f 244/309/289 252/315/288 508/310/546
f 509/463/322 285/462/321 284/467/330
f 244/415/289 510/413/280 236/412/272 237/416/273 245/417/282
